<?xml version="1.0" encoding="iso-8859-1"?>
<!-- Generator: Adobe Illustrator 13.0.0, SVG Export Plug-In . SVG Version: 6.00 Build 14948)  -->
<!DOCTYPE svg PUBLIC "-//W3C//DTD SVG 1.1//EN" "http://www.w3.org/Graphics/SVG/1.1/DTD/svg11.dtd">
<svg version="1.1" xmlns="http://www.w3.org/2000/svg" xmlns:xlink="http://www.w3.org/1999/xlink" x="0px" y="0px" width="378px"
	 height="140px" viewBox="0 0 378 140" style="enable-background:new 0 0 378 140;" xml:space="preserve">
<symbol  id="New_Symbol_2" viewBox="-40 -27 80 54">
	<path style="fill:#DEDEDE;" d="M23.5,15c-0.482,0-0.957-0.027-1.428-0.063C19.396,21.917,11.202,27,1.5,27
		c-9.297,0-17.193-4.676-20.192-11.208C-30.749,14.435-40,6.538-40-3c0-10.493,11.193-19,25-19c2.689,0,5.277,0.326,7.705,0.924
		C-3.836-24.663,1.717-27,8-27c9.97,0,18.13,5.863,18.922,13.316C34.392-12.3,40-6.477,40,0.499C40,8.508,32.613,15,23.5,15z"/>
</symbol>
<pattern  x="-81" y="170" width="538" height="200" patternUnits="userSpaceOnUse" id="New_Pattern_Swatch_3" viewBox="0 -200 538 200" style="overflow:visible;">
	<g>
		<polygon style="fill:none;" points="0,0 538,0 538,-200 0,-200 		"/>
		<polygon style="fill:#FFFFFF;" points="0,0 538,0 538,-200 0,-200 		"/>
	</g>
</pattern>
<g id="fond">
	<rect style="fill:#FFFFFF;" width="378" height="140"/>
</g>
<g id="decor_plage">
	
		<line id="horizon_mer" style="fill:none;stroke:#33CCFF;stroke-width:0.5;stroke-linecap:round;stroke-linejoin:round;" x1="46.834" y1="48.541" x2="312.833" y2="48.541"/>
	<path style="fill:url(#New_Pattern_Swatch_3);stroke:#777768;stroke-width:0.5;stroke-linecap:round;stroke-linejoin:round;" d="
		M5.667,16.333c3.197,0.205,6.993,3.389,8.584,8.117s4.305,12.726,13.999,12.726c9.75,0,11.132,4.287,16.457,6.428
		c8.168,3.285,8.246,9.444,11.137,11.22c7.823,4.805,5.352,13.634,10.004,16.426s5.909,16.25,5.909,16.25
		c-1.94,1.94-45.634,17.995-47.837,15.792s-13.782,2.812-17.585,4.51"/>
	<path style="fill:#FFFFFF;stroke:#777768;stroke-width:0.5;stroke-linecap:round;stroke-linejoin:round;" d="M375,16.333
		c-11.843,0-28.782,4.051-36.1,3.992c-9.056-0.073-17.672,11.267-20.574,18.91c-2.573,6.772-12.631,9.802-19.201,14.265
		c-6.396,4.344-21.776,9.944-30.387,12.094c-4.72,1.178-7.713,4.188-10.392,8.073c-1.843,2.673-2.792,2.964-6.151,7.689
		s5.738,3.895,9.809,4.019c4.116,0.125,8.323,0.125,12.31,0.125c10.666,0,40.48,6.805,51.062,6.375
		c9.971-0.405,15.491-7.665,25.976-7.132c3.452,0.176,6.729-0.071,10.241-0.076c3.693-0.005,8.471,0.521,13.471,0.521"/>
	<path style="fill:none;stroke:#33CCFF;stroke-linecap:round;stroke-linejoin:round;" d="M5.361,118.311
		c10.392-0.32,8.878,10.741,16.519,13.168c8.013,2.545,27.528-10,34.458-10.625c9.334-0.842,2.548,8.399,12.125,10.125
		c6.814,1.228,22.537-20.312,39.204-13.312c25.973,10.908,39.339,8.902,68.661-5.518c14.732-7.245,28.604,10.561,37.739,6.146
		c7.5-3.625,9.322-10.837,12.572-15.587c3.553-5.192,11.291-5.5,18.213-1.743c9.983,5.418,19.561,9.781,32.73,7.22
		c12.454-2.422-4.263-23.668,25.904-18.752"/>
</g>
<g id="homme">
	<g>
		<path style="fill:none;stroke:#777768;stroke-width:1.199;stroke-linecap:round;stroke-linejoin:round;" d="M224.704,73.147
			c0,1.059,0.864,1.915,1.918,1.915c1.053,0,1.914-0.856,1.914-1.915s-0.861-1.911-1.914-1.911
			C225.568,71.236,224.704,72.089,224.704,73.147z"/>
		<path style="fill:#FFFFFF;stroke:#787768;stroke-width:1.799;stroke-linecap:round;stroke-linejoin:round;" d="M217.704,15.2
			c0,5.929,3.668,10.734,8.197,10.734c4.521,0,8.193-4.805,8.193-10.734c0-5.927-3.673-10.732-8.193-10.732
			C221.372,4.468,217.704,9.273,217.704,15.2z"/>
		<path style="fill:none;stroke:#777768;stroke-width:1.799;stroke-linecap:round;stroke-linejoin:round;" d="M225.695,26.361
			c0.035,7.493-1.012,29.645,0.425,36.837c1.287,6.422,1.858,4.477,0.571,13.469c-1.606,11.266,2.01,22.258,2.401,27.961
			c1.992,29.556,2.173,28.813-4.687,27.957"/>
	</g>
</g>
<g id="femme">
	<path style="fill:url(#New_Pattern_Swatch_3);stroke:#777768;stroke-width:1.199;stroke-linecap:round;stroke-linejoin:round;" d="
		M146.571,33.04c-0.011,1.939,0.057,4.926,0.131,8.376"/>
	
		<ellipse style="fill:url(#New_Pattern_Swatch_3);stroke:#777768;stroke-width:1.199;stroke-linecap:round;stroke-linejoin:round;" cx="146.57" cy="21.603" rx="8.425" ry="11.033"/>
	<path style="fill:none;stroke:#777768;stroke-width:1.199;stroke-linecap:round;stroke-linejoin:round;" d="M146.823,47.608
		c0.126,7.778,0.111,16.11-0.658,19.93c-1.197,6.016-3.608,3.611-2.403,12.035c1.507,10.555,5.617,19.256,4.411,24.469
		c-6.567,28.473-6.817,29.287-0.403,28.484"/>
	<path style="fill:#FFFFFF;stroke:#787768;stroke-width:1.199;stroke-linecap:round;stroke-linejoin:round;" d="M151.599,44.482
		c0,1.882-1.521,3.409-3.406,3.409s-3.416-1.527-3.416-3.409c0-1.883,1.531-3.411,3.416-3.411S151.599,42.599,151.599,44.482z"/>
</g>
<g id="Layer_6">
</g>
<g id="Layer_7">
	<g>
		<path style="fill:none;stroke:#787869;stroke-width:1.2041;stroke-linecap:round;stroke-linejoin:round;" d="M243.26,15.016
			c-5.766-5.96,15.78-8.293,10.019-0.063c-3.667,5.236-11.194,8.672-7.867,12.691"/>
		<path style="fill:none;stroke:#787869;stroke-width:1.2041;stroke-linecap:round;stroke-linejoin:round;" d="M244.502,31.603
			c1.008-0.513,0.395,0.44,0.748,0.985"/>
	</g>
</g>
<g id="Layer_8">
	<g>
		
			<line style="fill:none;stroke:#4696CC;stroke-width:0.1997;stroke-linecap:round;stroke-linejoin:round;" x1="199.715" y1="36.267" x2="197.025" y2="43.401"/>
		
			<line style="fill:none;stroke:#4696CC;stroke-width:0.1997;stroke-linecap:round;stroke-linejoin:round;" x1="198.693" y1="36.267" x2="196.006" y2="43.401"/>
		
			<line style="fill:none;stroke:#4696CC;stroke-width:0.1997;stroke-linecap:round;stroke-linejoin:round;" x1="200.734" y1="36.267" x2="198.047" y2="43.401"/>
		
			<line style="fill:none;stroke:#4696CC;stroke-width:0.1997;stroke-linecap:round;stroke-linejoin:round;" x1="201.756" y1="36.267" x2="199.068" y2="43.401"/>
		
			<line style="fill:none;stroke:#4696CC;stroke-width:0.1997;stroke-linecap:round;stroke-linejoin:round;" x1="189.506" y1="36.267" x2="186.819" y2="43.401"/>
		
			<line style="fill:none;stroke:#4696CC;stroke-width:0.1997;stroke-linecap:round;stroke-linejoin:round;" x1="188.486" y1="36.267" x2="185.797" y2="43.401"/>
		
			<line style="fill:none;stroke:#4696CC;stroke-width:0.1997;stroke-linecap:round;stroke-linejoin:round;" x1="190.527" y1="36.267" x2="187.839" y2="43.401"/>
		
			<line style="fill:none;stroke:#4696CC;stroke-width:0.1997;stroke-linecap:round;stroke-linejoin:round;" x1="191.549" y1="36.267" x2="188.86" y2="43.401"/>
		
			<line style="fill:none;stroke:#4696CC;stroke-width:0.1997;stroke-linecap:round;stroke-linejoin:round;" x1="193.59" y1="36.267" x2="190.9" y2="43.401"/>
		
			<line style="fill:none;stroke:#4696CC;stroke-width:0.1997;stroke-linecap:round;stroke-linejoin:round;" x1="192.568" y1="36.267" x2="189.881" y2="43.401"/>
		
			<line style="fill:none;stroke:#4696CC;stroke-width:0.1997;stroke-linecap:round;stroke-linejoin:round;" x1="194.611" y1="36.267" x2="191.922" y2="43.401"/>
		
			<line style="fill:none;stroke:#4696CC;stroke-width:0.1997;stroke-linecap:round;stroke-linejoin:round;" x1="196.652" y1="36.267" x2="193.963" y2="43.401"/>
		
			<line style="fill:none;stroke:#4696CC;stroke-width:0.1997;stroke-linecap:round;stroke-linejoin:round;" x1="195.631" y1="36.267" x2="192.943" y2="43.401"/>
		
			<line style="fill:none;stroke:#4696CC;stroke-width:0.1997;stroke-linecap:round;stroke-linejoin:round;" x1="197.672" y1="36.267" x2="194.984" y2="43.401"/>
		<g>
			<path style="fill:#7A7A7A;" d="M200.377,30.804c-0.096,0-0.189,0.006-0.283,0.014c-0.529-1.447-2.152-2.502-4.074-2.502
				c-1.842,0-3.404,0.969-4,2.324c-2.386,0.281-4.218,1.92-4.218,3.898c0,2.176,2.216,3.939,4.951,3.939
				c0.533,0,1.045-0.068,1.525-0.191c0.686,0.744,1.785,1.229,3.029,1.229c1.975,0,3.592-1.215,3.748-2.762
				c1.479-0.287,2.59-1.494,2.59-2.941C203.645,32.151,202.182,30.804,200.377,30.804z"/>
		</g>
		<g>
			<path style="fill:#9C9C9C;" d="M195.395,35.997c0.188-0.166,0.297-0.355,0.297-0.559c0-0.568-0.834-1.035-1.922-1.117
				c0.023-0.098,0.037-0.195,0.037-0.297c0-0.99-1.139-1.791-2.545-1.791c-1.272,0-2.324,0.658-2.511,1.518
				c-1.6,0.102-2.859,1.154-2.859,2.441c0,1.352,1.393,2.449,3.109,2.449c0.429,0,0.838-0.068,1.208-0.191
				c0.545,0.672,1.654,1.135,2.939,1.135c1.82,0,3.297-0.93,3.297-2.074C196.445,36.913,196.041,36.374,195.395,35.997z"/>
		</g>
	</g>
	<g>
		<polygon style="fill:#FFEC00;" points="180.773,19.52 177.018,18.701 178.57,22.219 175.625,19.748 175.365,23.583 
			173.906,20.027 171.894,23.303 172.254,19.475 168.95,21.44 171.048,18.219 167.209,18.424 170.563,16.547 167.069,14.943 
			170.912,14.84 168.562,11.797 172.014,13.491 171.348,9.705 173.615,12.809 174.786,9.146 175.352,12.949 178.089,10.251 
			176.823,13.881 180.502,12.763 177.694,15.389 181.47,16.107 177.764,17.129 		"/>
		<polygon style="fill:#FFAA00;" points="179.98,20.926 176.528,19.234 177.198,23.021 174.927,19.92 173.761,23.582 173.19,19.781 
			170.456,22.482 171.717,18.852 168.041,19.974 170.846,17.345 167.068,16.629 170.773,15.605 167.761,13.215 171.519,14.03 
			169.961,10.516 172.91,12.982 173.165,9.146 174.628,12.701 176.638,9.424 176.281,13.251 179.582,11.282 177.488,14.506 
			181.328,14.297 177.975,16.179 181.471,17.777 177.629,17.885 		"/>
		<circle style="fill:#FFEC00;" cx="174.27" cy="16.365" r="3.258"/>
	</g>
	<g>
		<polygon style="fill:#FDFF3F;stroke:#FF9200;stroke-width:0.094;" points="171.904,36.413 172.925,36.283 173.135,39.087 
			173.856,38.958 173.465,43.401 173.165,40.209 172.534,40.123 		"/>
		<polygon style="fill:#FDFF3F;stroke:#FF9200;stroke-width:0.094;" points="175.538,36.413 176.559,36.283 176.769,39.087 
			177.49,38.958 177.1,43.401 176.799,40.209 176.168,40.123 		"/>
		<g>
			<path style="fill:#7A7A7A;" d="M178.65,29.499c-0.089,0-0.178,0.006-0.266,0.012c-0.499-1.362-2.027-2.355-3.835-2.355
				c-1.734,0-3.206,0.914-3.765,2.189c-2.248,0.265-3.973,1.807-3.973,3.669c0,2.05,2.087,3.71,4.661,3.71
				c0.502,0,0.984-0.063,1.437-0.18c0.645,0.7,1.681,1.156,2.852,1.156c1.858,0,3.381-1.145,3.528-2.6
				c1.393-0.271,2.438-1.408,2.438-2.77C181.728,30.767,180.351,29.499,178.65,29.499z"/>
		</g>
	</g>
	<g>
		<g>
			<path style="fill:#7A7A7A;" d="M202.74,15.74c0.203-0.179,0.32-0.384,0.32-0.604c0-0.611-0.902-1.118-2.078-1.207
				c0.025-0.104,0.041-0.211,0.041-0.32c0-1.068-1.23-1.936-2.75-1.936c-1.375,0-2.512,0.713-2.715,1.641
				c-1.729,0.109-3.09,1.247-3.09,2.638c0,1.462,1.504,2.648,3.359,2.648c0.465,0,0.906-0.074,1.307-0.208
				c0.59,0.727,1.789,1.227,3.176,1.227c1.969,0,3.564-1.004,3.564-2.241C203.875,16.729,203.438,16.149,202.74,15.74z"/>
		</g>
		
			<use xlink:href="#New_Symbol_2"  width="80" height="54" x="-40" y="-27" transform="matrix(0.1476 0 0 -0.1546 193.4746 16.5)" style="overflow:visible;"/>
		<path style="fill:#FAFAFA;" d="M193.252,16.169c0-0.029,0.004-0.059,0.004-0.088c0-1.127-1.07-2.039-2.395-2.039
			c-1.188,0-2.171,0.738-2.358,1.705c-0.196-0.047-0.402-0.074-0.615-0.074c-1.282,0-2.321,0.913-2.321,2.039
			s1.039,2.039,2.321,2.039c0.031,0,0.061-0.004,0.091-0.004c0.283,0.754,1.205,1.309,2.302,1.309c1.256,0,2.285-0.725,2.385-1.646
			c0.121,0.01,0.246,0.016,0.373,0.016c1.562,0,2.828-0.73,2.828-1.631C195.867,16.934,194.713,16.231,193.252,16.169z"/>
	</g>
</g>
</svg>
