<?xml version="1.0" encoding="iso-8859-1"?>
<!-- Generator: Adobe Illustrator 13.0.0, SVG Export Plug-In . SVG Version: 6.00 Build 14948)  -->
<!DOCTYPE svg PUBLIC "-//W3C//DTD SVG 1.1//EN" "http://www.w3.org/Graphics/SVG/1.1/DTD/svg11.dtd">
<svg version="1.1" xmlns="http://www.w3.org/2000/svg" xmlns:xlink="http://www.w3.org/1999/xlink" x="0px" y="0px" width="378px"
	 height="140px" viewBox="0 0 378 140" style="enable-background:new 0 0 378 140;" xml:space="preserve">
<g id="FOND">
	<g>
		<rect style="fill:none;" width="378" height="140"/>
		<rect style="fill:#FFFFFF;" width="378" height="140"/>
	</g>
</g>
<g id="cuill&#xE8;re">
	<path style="fill:#CCCCCC;stroke:#777768;stroke-width:1.6039;stroke-linecap:round;stroke-linejoin:round;" d="M199.061,64.959
		c-0.502-5.021,4.623-11.078,12.406-14.247c8.738-3.559,19.299-2.861,21.453,2.429s-4.916,13.168-13.654,16.727
		c-7.809,3.18-15.689,2.397-18.815-1.58c-0.492,0.206-22.784,10.02-34.89,15.067c-7.615,3.174-12.121,9.582-16.236,11.299
		c-4.114,1.715-8.183,1.27-9.922-2.904c-1.742-4.174,0.833-7.313,4.946-9.029c4.116-1.716,11.84-0.406,19.453-3.58
		C175.908,74.092,198.569,65.163,199.061,64.959z"/>
</g>
</svg>
