<?xml version="1.0" encoding="iso-8859-1"?>
<!-- Generator: Adobe Illustrator 13.0.0, SVG Export Plug-In . SVG Version: 6.00 Build 14948)  -->
<!DOCTYPE svg PUBLIC "-//W3C//DTD SVG 1.1//EN" "http://www.w3.org/Graphics/SVG/1.1/DTD/svg11.dtd">
<svg version="1.1" xmlns="http://www.w3.org/2000/svg" xmlns:xlink="http://www.w3.org/1999/xlink" x="0px" y="0px"
	 width="539.999px" height="200px" viewBox="0 0 539.999 200" style="enable-background:new 0 0 539.999 200;" xml:space="preserve"
	>
<g id="Layer_2">
	<rect style="fill:#FFFFFF;" width="539.999" height="200"/>
</g>
<g id="Layer_1">
	<path style="fill:none;stroke:#92938B;stroke-width:2;stroke-linecap:round;stroke-linejoin:round;" d="M220.253,109.961
		c9.136,4.986,23.364,20.473,31.747,31.615c4.476,5.953-0.401,30.586-0.401,30.586c-5.728,6.662-2.827,14.129-7.288,20.711
		c1.017-4.371-0.775-5.346-0.312-9.834c-2.188,3.664-3.92,3.168-7.105,5.961c2.637-2.822,3.133-4.361,5.344-7.465
		c-5.603-1.607-5.021,1.574-9.676,0.721c4.052-0.777,11.862-4.658,16.074-4.863"/>
	<g>
		<g>
			<path style="fill:#FFFFFF;stroke:#92938B;stroke-width:4;stroke-linecap:round;stroke-linejoin:round;" d="M242.503,61.395
				c0,16.28-10.084,29.473-22.515,29.473c-12.423,0-22.503-13.192-22.503-29.473c0-16.272,10.08-29.467,22.503-29.467
				C232.419,31.928,242.503,45.123,242.503,61.395z"/>
			<path style="fill:none;stroke:#92938B;stroke-width:4;stroke-linecap:round;stroke-linejoin:round;" d="M220.67,130.862
				c0.333,20.784,0.301,43.05-1.747,53.235c-0.396,1.973-0.837,3.605-1.304,4.994"/>
			<path style="fill:none;stroke:#92938B;stroke-width:4;stroke-linecap:round;stroke-linejoin:round;" d="M219.988,91.934
				c-0.019,5.089,0.154,12.873,0.35,21.863"/>
			<path style="fill:#FFFFFF;stroke:#92938B;stroke-width:2;stroke-linecap:round;stroke-linejoin:round;" d="M233.423,122.508
				c0,5.025-4.082,9.125-9.112,9.125c-5.025,0-9.1-4.1-9.1-9.125c0-5.034,4.074-9.104,9.1-9.104
				C229.341,113.404,233.423,117.474,233.423,122.508z"/>
		</g>
	</g>
	<path style="fill:#FFFFFF;stroke:#92938B;stroke-width:2;stroke-linecap:round;stroke-linejoin:round;" d="M329.695,43.198
		c0,15.91,9.844,28.801,21.989,28.801c12.132,0,21.989-12.892,21.989-28.801c0-15.904-9.857-28.797-21.989-28.797
		C339.539,14.4,329.695,27.294,329.695,43.198z"/>
	<path style="fill:none;stroke:#92938B;stroke-width:2;stroke-linecap:round;stroke-linejoin:round;" d="M351.135,73.145
		c0.098,20.104-2.712,79.543,1.142,98.842c1.959,9.773,3.3,12.324,3.464,17.105"/>
	<path style="fill:none;stroke:#92938B;stroke-width:2;stroke-linecap:round;stroke-linejoin:round;" d="M220.253,109.961
		c15.205,0.527,24.334-21.451,28.205-33.025c6.469-19.256,2.452-37.977-3.74-56.96c1.651,7.758,3.733,18.439,6.531,25.512
		c3.059-7.48,1.259-16.411,4.979-23.563c1.957,8.457,1.273,17.308,1.232,25.935c0.146-4.266,1.784-8.408,4.348-11.793
		c-2.073,2.376-2.949,5.001-4.339,7.756"/>
	<path style="fill:none;stroke:#92938B;stroke-width:2;stroke-linecap:round;stroke-linejoin:round;" d="M350.821,93.976
		c-15.206,0.524-24.333-21.454-28.205-33.026c-6.469-19.256-2.452-37.979,3.742-56.96c-1.654,7.76-3.733,18.439-6.533,25.514
		c-3.057-7.482-1.26-16.412-4.977-23.566c-1.958,8.457-1.275,17.309-1.235,25.935c-0.143-4.265-1.782-8.406-4.348-11.791
		c2.073,2.375,2.952,5,4.342,7.757"/>
	<circle style="fill:#FFFFFF;stroke:#92938B;stroke-width:1.713;stroke-linejoin:round;" cx="253.481" cy="169.839" r="5.806"/>
	
		<line style="fill:none;stroke:#92938B;stroke-width:0.6215;stroke-linecap:round;stroke-linejoin:round;" x1="253.482" y1="169.838" x2="256.507" y2="171.992"/>
	
		<line style="fill:none;stroke:#92938B;stroke-width:0.6215;stroke-linecap:round;stroke-linejoin:round;" x1="253.482" y1="169.838" x2="253.635" y2="167.273"/>
	
		<path style="fill:none;stroke:#92938B;stroke-width:0.6215;stroke-linecap:round;stroke-linejoin:round;stroke-dasharray:0.5801,0.8287;" d="
		M256.284,171.836c0.513-0.719,0.75-1.631,0.592-2.566c-0.068-0.416-0.211-0.797-0.406-1.143"/>
</g>
</svg>
