<?xml version="1.0" encoding="iso-8859-1"?>
<!-- Generator: Adobe Illustrator 13.0.0, SVG Export Plug-In . SVG Version: 6.00 Build 14948)  -->
<!DOCTYPE svg PUBLIC "-//W3C//DTD SVG 1.1//EN" "http://www.w3.org/Graphics/SVG/1.1/DTD/svg11.dtd">
<svg version="1.1" xmlns="http://www.w3.org/2000/svg" xmlns:xlink="http://www.w3.org/1999/xlink" x="0px" y="0px" width="378px"
	 height="140px" viewBox="0 0 378 140" style="enable-background:new 0 0 378 140;" xml:space="preserve">
<g id="Layer_2">
	<g>
		<rect style="fill:none;" width="378" height="140"/>
		<rect style="fill:#FFFFFF;" width="378" height="140"/>
	</g>
</g>
<g id="Layer_5">
	<g>
		<g style="opacity:0.65;">
			<path style="fill:none;stroke:#777768;stroke-linecap:round;stroke-linejoin:round;" d="M217.956,44.928
				c0,5.214-3.588,9.448-8.018,9.448c-4.428,0-8.021-4.234-8.021-9.448c0-5.217,3.594-9.444,8.021-9.444
				C214.368,35.483,217.956,39.711,217.956,44.928z"/>
			<path style="fill:none;stroke:#777768;stroke-linecap:round;stroke-linejoin:round;" d="M210.491,54.595
				c0,6.012,0.168,6.1,0.229,12.067c0.035,3.57-9.896,39.206-12.094,43.12c-1.336,2.381-3.281,4.891-3.822,7.615
				c11.033-0.285,22.244-0.113,34.105-1.771c-2.037-3.117-2.66-8.125-4.869-11.207c-3.336-4.688-4.676-9.041-6.385-14.506
				c-0.861-2.762-6.381-20.54-6.936-23.25"/>
			<path style="fill:none;stroke:#777768;stroke-linecap:round;stroke-linejoin:round;" d="M209.878,117.283
				c0.459,4.193-0.312,17.693-0.646,20.041c0,0-1.529,0-2.371,0"/>
			<path style="fill:none;stroke:#777768;stroke-linecap:round;stroke-linejoin:round;" d="M215.362,117.072
				c0.107,2.234-0.082,20.252,0.982,20.252c0.557,0,0.625,0.064,2.27,0"/>
			<g>
				<path style="fill:none;stroke:#777768;stroke-linecap:round;stroke-linejoin:round;" d="M206.978,43.008
					c-0.057,0.148-0.057,0.281,0.023,0.4c0.035-0.1,0.047-0.188,0.039-0.293c-0.004,0.041-0.02,0.12-0.031,0.17
					c0-0.07-0.002-0.144,0-0.205"/>
			</g>
			<g>
				<path style="fill:none;stroke:#777768;stroke-linecap:round;stroke-linejoin:round;" d="M213.271,43.008
					c0.053,0.148,0.053,0.281-0.031,0.4c-0.027-0.1-0.043-0.188-0.037-0.293c0.01,0.041,0.025,0.12,0.033,0.17
					c0-0.07,0-0.144,0-0.205"/>
			</g>
			<path style="fill:none;stroke:#777768;stroke-width:0.75;stroke-linecap:round;stroke-linejoin:round;" d="M207.343,49.058
				c0.186,0.085,1.322,0.668,2.34,0.708c0.961,0.037,1.807-0.465,1.971-0.558c-0.635,0.511-1.141,1.672-2.152,1.415
				c-0.471-0.123-1.857-1.254-1.939-1.459"/>
			<path style="fill:none;stroke:#777768;stroke-linecap:round;stroke-linejoin:round;" d="M187.161,88.309
				c3.754,0,15.992-7.98,16.814-12.256c0.639-3.348,3.371-16.2,6.605-18.204c1.799,1.799,3.637,13.276,5.023,16.637
				c2.146,5.182,8.559,12.592,10.592,14.625"/>
		</g>
		<g style="opacity:0.65;">
			<path style="fill:none;stroke:#777768;stroke-linecap:round;stroke-linejoin:round;" d="M254.862,36.748
				c0,6.277-4.141,11.366-9.25,11.366c-5.107,0-9.25-5.089-9.25-11.366c0-6.28,4.143-11.367,9.25-11.367
				C250.722,25.381,254.862,30.468,254.862,36.748z"/>
			<path style="fill:none;stroke:#777768;stroke-linecap:round;stroke-linejoin:round;" d="M245.612,48.114
				c0,4.394-0.197,26.048-1.535,39.302c-1.229,12.137-7.717,43.238-12.525,49.691h-4.662"/>
			<path style="fill:none;stroke:#777768;stroke-linecap:round;stroke-linejoin:round;" d="M244.188,86.236
				c-0.777,8.053,4.521,43.031,7.221,50.871c0,0-0.244,0,4.371,0.246"/>
			<path style="fill:none;stroke:#777768;stroke-linecap:round;stroke-linejoin:round;" d="M226.196,89.111
				c6.008-3.107,13.139-10.514,14.383-13.887c0.965-2.617,1.398-20.133,4.967-19.944c4.369,0.221,6.068,32.629,6.279,38.114"/>
			<path style="fill:none;stroke:#777768;stroke-linecap:round;stroke-linejoin:round;" d="M242.147,35.395
				c0.461-0.646,0.502-0.938,0.109-0.885c-0.152,0.467-0.066,0.805-0.109,1.273"/>
			<path style="fill:none;stroke:#777768;stroke-linecap:round;stroke-linejoin:round;" d="M249.106,35.395
				c-0.459-0.646-0.502-0.938-0.115-0.885c0.156,0.467,0.076,0.805,0.115,1.273"/>
			<path style="fill:none;stroke:#777768;stroke-linecap:round;stroke-linejoin:round;" d="M242.919,42.335
				c1.707,0.94,2.789,1.339,5,0.382"/>
		</g>
		<g>
			<path style="fill:none;stroke:#777768;stroke-width:1.5;stroke-linecap:round;stroke-linejoin:round;" d="M156.047,16.396
				c0,7.594-5.008,13.749-11.188,13.749c-6.175,0-11.184-6.155-11.184-13.749c0-7.596,5.009-13.749,11.184-13.749
				C151.04,2.647,156.047,8.8,156.047,16.396z"/>
			<path style="fill:none;stroke:#777768;stroke-width:1.5;stroke-linecap:round;stroke-linejoin:round;" d="M144.859,30.146
				c0,5.313-0.238,31.504-1.855,47.536c-1.485,14.68-9.328,50.672-15.144,58.479h-5.64"/>
			<path style="fill:none;stroke:#777768;stroke-width:1.5;stroke-linecap:round;stroke-linejoin:round;" d="M142.969,75.609
				c-0.94,9.719,6.857,51.947,10.127,61.445c0,0-0.296,0,5.286,0.297"/>
			<path style="fill:none;stroke:#777768;stroke-width:1.5;stroke-linecap:round;stroke-linejoin:round;" d="M141.222,85.988
				c-4.754-8.012-4.53-38.891,3.602-38.463c5.284,0.266,20.697-7.488,25.785-5.763"/>
			<path style="fill:none;stroke:#777768;stroke-linecap:round;stroke-linejoin:round;" d="M140.667,14.762
				c0.56-0.785,0.609-1.136,0.134-1.073c-0.186,0.568-0.079,0.974-0.134,1.542"/>
			<path style="fill:none;stroke:#777768;stroke-linecap:round;stroke-linejoin:round;" d="M149.084,14.762
				c-0.552-0.785-0.605-1.136-0.138-1.073c0.188,0.568,0.091,0.974,0.138,1.542"/>
			<path style="fill:none;stroke:#777768;stroke-linecap:round;stroke-linejoin:round;" d="M141.601,23.156
				c2.064,1.137,4.604,2.779,6.05,0.462"/>
			<path style="fill:#777768;stroke:#777768;stroke-width:0.7195;stroke-linecap:round;stroke-linejoin:round;" d="M145.622,21.238
				c-0.623-0.245-0.648,0.718,0.195,0.84c0.619,0.086,1.134,0.041,1.704,0.266c0.954,0.384,2.242,1.318,2.609-0.31
				c-1.122,1.92-3.942-2.517-4.767-0.74"/>
			<path style="fill:#777768;stroke:#777768;stroke-width:0.7195;stroke-linecap:round;stroke-linejoin:round;" d="M143.999,21.238
				c0.622-0.245,0.657,0.718-0.199,0.84c-0.609,0.086-1.13,0.041-1.691,0.266c-0.959,0.384-2.246,1.318-2.615-0.31
				c1.122,1.92,3.946-2.517,4.765-0.74"/>
		</g>
		<g>
			<path style="opacity:0.65;fill:none;stroke:#777768;stroke-linecap:round;stroke-linejoin:round;" d="M175.019,26.029
				c0,6.307-4.343,11.429-9.699,11.429c-5.356,0-9.701-5.122-9.701-11.429c0-6.31,4.345-11.423,9.701-11.423
				C170.675,14.606,175.019,19.719,175.019,26.029z"/>
			<path style="opacity:0.65;fill:none;stroke:#777768;stroke-linecap:round;stroke-linejoin:round;" d="M165.99,37.723
				c0,7.274,1.255,14.311,1.329,21.531c0.04,4.316-0.521,8.646-0.78,12.94c-0.402,6.535-4.5,12.107-7.454,17.875
				c-2.478,4.828-4.791,9.67-7.448,14.406c-1.614,2.879-3.968,5.914-4.624,9.207c13.35-0.344,28.444-6.502,41.254-2.141
				c-2.465-3.768-6.055-7.109-8.729-10.838c-4.035-5.668-6.954-10.479-9.02-17.09c-1.041-3.338-1.743-6.734-2.414-10.012
				c-0.414-1.986-1.242-4.014-1.049-6.127"/>
			<path style="opacity:0.65;fill:none;stroke:#777768;stroke-linecap:round;stroke-linejoin:round;" d="M165.138,111.27
				c0.552,5.074,1.199,22.947,0.797,25.787c-0.564,0.566-1.834,0.047-2.867,0.295"/>
			<path style="opacity:0.65;fill:none;stroke:#777768;stroke-linecap:round;stroke-linejoin:round;" d="M171.828,110.52
				c0.134,2.705,1.744,24.629,2.658,25.541c0.688,0.684,1.432,0.457,3.408-0.076"/>
			<g style="opacity:0.65;">
				<path style="fill:none;stroke:#777768;stroke-width:0.9636;stroke-linecap:round;stroke-linejoin:round;" d="M161.739,23.707
					c-0.071,0.182-0.071,0.341,0.027,0.484c0.043-0.119,0.059-0.227,0.047-0.353c-0.004,0.05-0.023,0.144-0.035,0.205
					c0-0.085-0.004-0.171,0-0.251"/>
				<path style="fill:none;stroke:#777768;stroke-width:0.2169;stroke-linecap:round;stroke-linejoin:round;" d="M161.419,23.664
					c-0.107-0.191-0.201-0.4-0.218-0.622"/>
				<path style="fill:none;stroke:#777768;stroke-width:0.2169;stroke-linecap:round;stroke-linejoin:round;" d="M161.518,22.839
					c0.086,0.132,0.086,0.622,0.086,0.781"/>
				<path style="fill:none;stroke:#777768;stroke-width:0.2169;stroke-linecap:round;stroke-linejoin:round;" d="M161.778,23.62
					c-0.012-0.271,0.178-0.464,0.189-0.744"/>
				<path style="fill:none;stroke:#777768;stroke-width:0.2169;stroke-linecap:round;stroke-linejoin:round;" d="M161.912,23.62
					c0.205-0.14,0.402-0.395,0.359-0.631"/>
			</g>
			<g style="opacity:0.65;">
				<path style="fill:none;stroke:#777768;stroke-width:0.9636;stroke-linecap:round;stroke-linejoin:round;" d="M169.354,23.707
					c0.06,0.182,0.06,0.341-0.043,0.484c-0.027-0.119-0.051-0.227-0.043-0.353c0.016,0.05,0.031,0.144,0.039,0.205
					c0-0.085,0-0.171,0-0.251"/>
				<path style="fill:none;stroke:#777768;stroke-width:0.2169;stroke-linecap:round;stroke-linejoin:round;" d="M169.667,23.664
					c0.106-0.191,0.205-0.373,0.358-0.598"/>
				<path style="fill:none;stroke:#777768;stroke-width:0.2169;stroke-linecap:round;stroke-linejoin:round;" d="M169.76,22.839
					c-0.082,0.132-0.275,0.622-0.275,0.781"/>
				<path style="fill:none;stroke:#777768;stroke-width:0.2169;stroke-linecap:round;stroke-linejoin:round;" d="M169.307,23.62
					c0.004-0.271-0.103-0.576-0.11-0.856"/>
				<path style="fill:none;stroke:#777768;stroke-width:0.2169;stroke-linecap:round;stroke-linejoin:round;" d="M169.173,23.62
					c-0.241-0.255-0.28-0.329-0.431-0.668"/>
			</g>
			<path style="opacity:0.65;fill:#DE1608;stroke:#DE1608;stroke-width:0.0533;stroke-linecap:round;stroke-linejoin:round;" d="
				M162.18,31.027c0.438,0.195,0.733,0.467,1.286,0.311c0.205-0.047,0.366-0.225,0.567-0.271c0.359-0.095,0.312,0.103,0.58,0.143
				c0.284,0.039,0.229-0.197,0.536-0.188c0.139,0.006,0.406,0.27,0.572,0.314c0.485,0.113,1.262,0.105,1.672-0.127
				c-0.769,0.617-1.38,2.02-2.603,1.711c-0.568-0.147-1.014-0.522-1.416-0.904c-0.237-0.233-0.832-0.615-0.931-0.862"/>
			<path style="opacity:0.65;fill:none;stroke:#777768;stroke-linecap:round;stroke-linejoin:round;" d="M160.938,86.252
				c-0.079-4.617-1.476-9.465-1.692-14.211c-0.24-5.387,0.257-9.76,1.255-14.934c0.772-4.046,1.688-13.023,5.596-15.447
				c2.178,2.178,6.41,18.636,7.038,25.296c0.437,4.618,11.568,18.893,14.027,21.352"/>
		</g>
	</g>
</g>
<g id="Layer_4">
</g>
</svg>
