<?xml version="1.0" encoding="iso-8859-1"?>
<!-- Generator: Adobe Illustrator 13.0.0, SVG Export Plug-In . SVG Version: 6.00 Build 14948)  -->
<!DOCTYPE svg PUBLIC "-//W3C//DTD SVG 1.1//EN" "http://www.w3.org/Graphics/SVG/1.1/DTD/svg11.dtd">
<svg version="1.1" xmlns="http://www.w3.org/2000/svg" xmlns:xlink="http://www.w3.org/1999/xlink" x="0px" y="0px" width="378px"
	 height="140px" viewBox="0 0 378 140" style="enable-background:new 0 0 378 140;" xml:space="preserve">
<g id="Layer_2">
	<g>
		<rect style="fill:none;" width="378" height="140"/>
		<rect style="fill:#FFFFFF;" width="378" height="140"/>
	</g>
</g>
<g id="Layer_3">
	<g>
		<path style="fill:none;stroke:#0F4CCD;stroke-width:10;stroke-linecap:round;stroke-linejoin:round;" d="M137.828,47.266
			c9.863-13.589,12.235-24.527,16.335-39.766c-5.096,49.81-2.927,94.635-2.927,125"/>
		<path style="fill:none;stroke:#0F4CCD;stroke-width:10;stroke-linecap:round;stroke-linejoin:round;" d="M194.468,48.991
			c-6.157,4.025-13.329-0.833-17.407-5.727c-10.607-12.728,0.285-28.561,13.256-34.247c13.057-5.724,16.966,5.774,17.925,17.31
			c2.359,28.376-4.224,57.212-17.46,82.34c-2.6,4.937-13.346,29.194-21.956,20.118c-6.977-7.354,4.854-30.591,15.124-28.184
			c3.571,0.837,7.549,12.055,9.594,14.892c4.431,6.146,9.975,12.409,17.271,15.162c7.597,2.866,25.223,3.36,29.357-5.736"/>
	</g>
</g>
</svg>
