<?xml version="1.0" encoding="iso-8859-1"?>
<!-- Generator: Adobe Illustrator 13.0.0, SVG Export Plug-In . SVG Version: 6.00 Build 14948)  -->
<!DOCTYPE svg PUBLIC "-//W3C//DTD SVG 1.1//EN" "http://www.w3.org/Graphics/SVG/1.1/DTD/svg11.dtd">
<svg version="1.1" xmlns="http://www.w3.org/2000/svg" xmlns:xlink="http://www.w3.org/1999/xlink" x="0px" y="0px" width="378px"
	 height="140px" viewBox="0 0 378 140" style="enable-background:new 0 0 378 140;" xml:space="preserve">
<g id="fond">
	<rect style="fill:#FFFFFF;" width="378" height="140"/>
</g>
<g id="Layer_2">
	
		<rect x="269.256" y="88.871" style="fill:#A51FFF;stroke:#777768;stroke-width:0.7;stroke-linecap:round;stroke-linejoin:round;" width="17.744" height="11.494"/>
	<path style="fill:#FF3333;stroke:#777768;stroke-width:0.7;stroke-linecap:round;stroke-linejoin:round;" d="M286.463,75.564
		c0-35.488-31.443-53.031-59.686-53.031c-49.469,0-75.279,35.77-75.279,78.235h123.604c0,0,0.403-2.822,0.403-13.307
		C275.506,76.977,286.463,75.564,286.463,75.564z"/>
	<path style="fill:#A51FFF;stroke:#777768;stroke-width:0.7;stroke-linecap:round;stroke-linejoin:round;" d="M180.266,100.769
		c-23.928,0.271-28.084-11.777-28.084-11.777s-50.415,10.291-58.383,11.505c-7.968,1.215-5.346,4.207,0.99,7.307
		c6.335,3.098,14.838,6.964,23.513,10.032C140.349,125.633,180.266,100.769,180.266,100.769z"/>
</g>
<g id="Layer_3">
	
		<path style="fill:#A51FFF;stroke:#777768;stroke-width:0.7;stroke-linecap:round;stroke-linejoin:round;stroke-dasharray:2,2,2;" d="
		M185.374,100.769c0-33.111,18.014-77.105,33.783-77.105l9.435,0.236c13.231,0,35.422,27.266,32.801,76.869"/>
</g>
<g id="Layer_4">
	
		<ellipse style="fill:#FF3333;stroke:#777768;stroke-width:0.7;stroke-linecap:round;stroke-linejoin:round;" cx="224.091" cy="21.996" rx="6.587" ry="3.495"/>
</g>
</svg>
