<?xml version="1.0" encoding="iso-8859-1"?>
<!-- Generator: Adobe Illustrator 13.0.0, SVG Export Plug-In . SVG Version: 6.00 Build 14948)  -->
<!DOCTYPE svg PUBLIC "-//W3C//DTD SVG 1.1//EN" "http://www.w3.org/Graphics/SVG/1.1/DTD/svg11.dtd">
<svg version="1.1" xmlns="http://www.w3.org/2000/svg" xmlns:xlink="http://www.w3.org/1999/xlink" x="0px" y="0px" width="378px"
	 height="140px" viewBox="0 0 378 140" style="enable-background:new 0 0 378 140;" xml:space="preserve">
<g id="Layer_2">
	<g>
		<rect style="fill:none;" width="378" height="140"/>
		<rect style="fill:#FFFFFF;" width="378" height="140"/>
	</g>
</g>
<g id="Layer_3">
	<g>
		<rect x="121.656" y="2.5" style="fill:none;" width="135" height="135"/>
		<path style="fill:#406FA9;" d="M256.656,125.963c0,6.373-5.163,11.537-11.535,11.537H133.195c-6.372,0-11.539-5.164-11.539-11.537
			V14.037c0-6.371,5.167-11.537,11.539-11.537h111.926c6.372,0,11.535,5.166,11.535,11.537V125.963z"/>
		<path style="fill:none;stroke:#FFFFFF;stroke-width:4.0703;" d="M251.175,121.418c0,5.854-4.746,10.6-10.601,10.6H137.743
			c-5.855,0-10.602-4.746-10.602-10.6V18.586c0-5.854,4.746-10.602,10.602-10.602h102.831c5.854,0,10.601,4.748,10.601,10.602
			V121.418z"/>
	</g>
</g>
<g id="valise">
	<g>
		<path style="fill:#FFFFFF;" d="M238.823,122.15c0,1.62-1.314,2.935-2.933,2.935h-50.547c-1.622,0-2.937-1.314-2.937-2.935v-37.09
			c0-1.62,1.315-2.935,2.937-2.935h50.547c1.618,0,2.933,1.314,2.933,2.935V122.15z"/>
		<path style="fill:none;stroke:#FFFFFF;stroke-width:2.4843;" d="M218.369,84.049c0,1.296-1.05,2.35-2.347,2.35h-9.797
			c-1.297,0-2.348-1.054-2.348-2.35v-7.728c0-1.297,1.051-2.347,2.348-2.347h9.797c1.297,0,2.347,1.05,2.347,2.347V84.049z"/>
		<path style="fill:#406FA9;" d="M207.99,88.166l-3.663-3.904h-1.893l-3.992,3.904v10.425c0,1.623,1.031,2.937,2.301,2.937h4.945
			c1.271,0,2.302-1.313,2.302-2.937V88.166z"/>
	</g>
</g>
<g id="_x3F_">
	<g>
		<path style="fill:none;stroke:#FFFFFF;stroke-width:6.9212;" d="M160.55,30.776c0-8.535,5.075-11.563,12.458-11.563
			c6.345,0,11.377,3.401,10.151,11.938c-1.335,9.307-13.266,7.974-13.266,18.816v5.076"/>
		<circle style="fill:#FFFFFF;" cx="169.886" cy="62.678" r="4.269"/>
	</g>
</g>
<g id="telephone">
	<g>
		
			<rect x="137.988" y="58.819" style="fill:#FFFFFF;stroke:#FFFFFF;stroke-linecap:round;stroke-linejoin:round;" width="3.794" height="8.758"/>
		
			<rect x="137.988" y="62.104" style="fill:#406FA9;stroke:#FFFFFF;stroke-linecap:round;stroke-linejoin:round;" width="19.729" height="30.049"/>
		<g>
			<path style="fill:#FFFFFF;" d="M149.729,83.114c0,0.131-0.102,0.236-0.225,0.236h-3.321c-0.123,0-0.225-0.105-0.225-0.236V81.98
				c0-0.131,0.102-0.236,0.225-0.236h3.321c0.123,0,0.225,0.105,0.225,0.236V83.114z"/>
			<path style="fill:#FFFFFF;" d="M144.347,83.114c0,0.131-0.102,0.236-0.225,0.236H140.8c-0.123,0-0.225-0.105-0.225-0.236V81.98
				c0-0.131,0.102-0.236,0.225-0.236h3.322c0.123,0,0.225,0.105,0.225,0.236V83.114z"/>
			<path style="fill:#FFFFFF;" d="M155.111,83.114c0,0.131-0.102,0.236-0.225,0.236h-3.322c-0.123,0-0.225-0.105-0.225-0.236V81.98
				c0-0.131,0.102-0.236,0.225-0.236h3.322c0.123,0,0.225,0.105,0.225,0.236V83.114z"/>
		</g>
		<g>
			<path style="fill:#FFFFFF;" d="M149.729,86.054c0,0.131-0.102,0.236-0.225,0.236h-3.321c-0.123,0-0.225-0.105-0.225-0.236v-1.135
				c0-0.131,0.102-0.236,0.225-0.236h3.321c0.123,0,0.225,0.105,0.225,0.236V86.054z"/>
			<path style="fill:#FFFFFF;" d="M144.347,86.054c0,0.131-0.102,0.236-0.225,0.236H140.8c-0.123,0-0.225-0.105-0.225-0.236v-1.135
				c0-0.131,0.102-0.236,0.225-0.236h3.322c0.123,0,0.225,0.105,0.225,0.236V86.054z"/>
			<path style="fill:#FFFFFF;" d="M155.111,86.054c0,0.131-0.102,0.236-0.225,0.236h-3.322c-0.123,0-0.225-0.105-0.225-0.236v-1.135
				c0-0.131,0.102-0.236,0.225-0.236h3.322c0.123,0,0.225,0.105,0.225,0.236V86.054z"/>
		</g>
		<g>
			<path style="fill:#FFFFFF;" d="M149.729,88.993c0,0.131-0.102,0.236-0.225,0.236h-3.321c-0.123,0-0.225-0.105-0.225-0.236v-1.135
				c0-0.13,0.102-0.236,0.225-0.236h3.321c0.123,0,0.225,0.106,0.225,0.236V88.993z"/>
			<path style="fill:#FFFFFF;" d="M144.347,88.993c0,0.131-0.102,0.236-0.225,0.236H140.8c-0.123,0-0.225-0.105-0.225-0.236v-1.135
				c0-0.13,0.102-0.236,0.225-0.236h3.322c0.123,0,0.225,0.106,0.225,0.236V88.993z"/>
			<path style="fill:#FFFFFF;" d="M155.111,88.993c0,0.131-0.102,0.236-0.225,0.236h-3.322c-0.123,0-0.225-0.105-0.225-0.236v-1.135
				c0-0.13,0.102-0.236,0.225-0.236h3.322c0.123,0,0.225,0.106,0.225,0.236V88.993z"/>
		</g>
		<g>
			<path style="fill:#FFFFFF;" d="M149.729,80.175c0,0.131-0.102,0.236-0.225,0.236h-3.321c-0.123,0-0.225-0.105-0.225-0.236v-1.134
				c0-0.131,0.102-0.237,0.225-0.237h3.321c0.123,0,0.225,0.106,0.225,0.237V80.175z"/>
			<path style="fill:#FFFFFF;" d="M144.347,80.175c0,0.131-0.102,0.236-0.225,0.236H140.8c-0.123,0-0.225-0.105-0.225-0.236v-1.134
				c0-0.131,0.102-0.237,0.225-0.237h3.322c0.123,0,0.225,0.106,0.225,0.237V80.175z"/>
			<path style="fill:#FFFFFF;" d="M155.111,80.175c0,0.131-0.102,0.236-0.225,0.236h-3.322c-0.123,0-0.225-0.105-0.225-0.236v-1.134
				c0-0.131,0.102-0.237,0.225-0.237h3.322c0.123,0,0.225,0.106,0.225,0.237V80.175z"/>
		</g>
		<path style="fill:#FFFFFF;" d="M155.111,75.698c0,0.165-0.104,0.298-0.229,0.298h-14.024c-0.126,0-0.227-0.133-0.227-0.298V65.19
			c0-0.165,0.101-0.298,0.227-0.298h14.024c0.125,0,0.229,0.133,0.229,0.298V75.698z"/>
	</g>
</g>
<g id="parapluie_1_">
	<g id="parapluie">
		<path style="fill:none;stroke:#FFFFFF;stroke-width:3;stroke-linecap:round;stroke-linejoin:round;" d="M194.704,70.827
			c0,0,19.398-20.418,26.927-28.342c9.121-9.599,20.303,3.422,12.669,11.457"/>
		<path style="fill:#406FA9;stroke:#FFFFFF;stroke-width:3;stroke-linecap:round;stroke-linejoin:round;" d="M143.819,123.428
			l50.514-71.753c0,0-3.059,3.907-0.181,6.643c2.88,2.736,6.624-0.521,6.624-0.521s-3.402,3.581-0.328,6.503
			c3.345,3.177,6.892-0.27,6.892-0.27s-3.304,3.678-0.693,6.157c2.612,2.48,6.656-0.494,6.656-0.494L143.819,123.428z"/>
	</g>
	
		<line style="fill:#FFFFFF;stroke:#FFFFFF;stroke-width:1.5;stroke-linecap:round;stroke-linejoin:round;" x1="143.819" y1="123.428" x2="140.334" y2="126.913"/>
</g>
</svg>
