<?xml version="1.0" encoding="iso-8859-1"?>
<!-- Generator: Adobe Illustrator 13.0.0, SVG Export Plug-In . SVG Version: 6.00 Build 14948)  -->
<!DOCTYPE svg PUBLIC "-//W3C//DTD SVG 1.1//EN" "http://www.w3.org/Graphics/SVG/1.1/DTD/svg11.dtd">
<svg version="1.1" xmlns="http://www.w3.org/2000/svg" xmlns:xlink="http://www.w3.org/1999/xlink" x="0px" y="0px" width="378px"
	 height="147.197px" viewBox="0 0 378 147.197" style="enable-background:new 0 0 378 147.197;" xml:space="preserve">
<g id="fond">
	<rect style="fill:#FFFFFF;" width="378" height="140"/>
</g>
<g id="Layer_3">
	
		<line style="fill:#FFFFFF;stroke:#D5312C;stroke-width:6.7315;stroke-linecap:round;stroke-linejoin:round;stroke-dasharray:1.1219,6.7315,1.1219;" x1="15" y1="11" x2="366" y2="11"/>
</g>
<g id="Layer_4">
</g>
<g id="Layer_6">
	<path style="fill:none;stroke:#777768;stroke-width:1.199;stroke-linecap:round;stroke-linejoin:round;" d="M202.625,77.312
		c4.062,0.688,10.531,10.194,12.438,10.312c2.666,0.166,13-8.5,15.79-9.224"/>
	<path style="fill:#FFFFFF;stroke:#787869;stroke-linecap:round;stroke-linejoin:round;" d="M230.929,78.217
		c1.447-1.836,4.592-2.725,7.391-3.177c-1.838,1.028-2.271,1.679-2.963,1.801c0.482-0.051,3.752-0.436,4.205-0.419
		c-0.355,0.354-3.408,1.524-4.002,1.563c0.615-0.009,3.309-0.326,3.869-0.076c-0.541,0.294-6.035,0.659-1.201,2.701
		c-3.314,0.018-6.717-1.742-7.291-2.297L230.929,78.217z"/>
	<g>
		<path style="fill:#FFFFFF;stroke:#787768;stroke-width:1.799;stroke-linecap:round;stroke-linejoin:round;" d="M219.324,76.038
			c-5.108,3.012-11.111,2.292-13.409-1.61c-2.297-3.895-0.021-9.499,5.087-12.51c5.105-3.01,11.11-2.286,13.406,1.609
			C226.707,67.43,224.43,73.029,219.324,76.038z"/>
		<path style="fill:none;stroke:#777768;stroke-width:1.712;stroke-linecap:round;stroke-linejoin:round;" d="M205.652,74.822
			c-2.208,1.285-5.956,3.654-10.108,6.224"/>
	</g>
	<path style="fill:none;stroke:#33CCFF;stroke-width:1.2704;stroke-linecap:round;stroke-linejoin:round;" d="M366.655,80.087
		c-1.883,1.492-4.276,1.54-4.276,1.54h-1.121c-5.768,0-5.379-6.378-5.379-6.378c-0.168,6.25-6.496,6.378-6.496,6.378h-0.758
		c-5.768,0-5.379-6.378-5.379-6.378c-0.17,6.25-6.498,6.378-6.498,6.378h-1.121c-5.766,0-5.377-6.378-5.377-6.378
		c-0.172,6.25-6.498,6.378-6.498,6.378h0.576c-5.766,0-5.379-6.378-5.379-6.378c-0.168,6.25-6.496,6.378-6.496,6.378h-1.119
		c-5.768,0-5.379-6.378-5.379-6.378c-0.174,6.25-6.5,6.378-6.5,6.378h-1.229c-5.77,0-5.379-6.378-5.379-6.378
		c-0.174,6.25-6.5,6.378-6.5,6.378h-1.119c-5.77,0-5.379-6.378-5.379-6.378c-0.174,6.25-6.498,6.378-6.498,6.378h0.578
		c-5.768,0-5.377-6.378-5.377-6.378c-0.174,6.25-6.5,6.378-6.5,6.378h-1.121c-5.768,0-5.381-6.378-5.381-6.378
		c-0.168,6.25-6.494,6.378-6.494,6.378h-0.758c-5.766,0-5.377-6.378-5.377-6.378c-0.172,6.25-6.498,6.378-6.498,6.378h-1.125
		c-5.766,0-5.377-6.378-5.377-6.378c-0.17,6.25-6.496,6.378-6.496,6.378h0.576c-5.766,0-5.379-6.378-5.379-6.378
		c-0.17,6.25-6.494,6.378-6.494,6.378h-1.123c-5.768,0-5.379-6.378-5.379-6.378c-0.172,6.25-6.498,6.378-6.498,6.378h-1.705
		c-5.766,0-5.377-6.378-5.377-6.378c-0.174,6.25-6.5,6.378-6.5,6.378h-1.119c-5.77,0-5.378-6.378-5.378-6.378
		c-0.174,6.25-6.5,6.378-6.5,6.378h0.579c-5.766,0-5.379-6.378-5.379-6.378c-0.172,6.25-6.498,6.378-6.498,6.378h-1.121
		c-5.766,0-5.378-6.378-5.378-6.378c-0.171,6.25-6.499,6.378-6.499,6.378h-0.755c-5.768,0-5.378-6.378-5.378-6.378
		c-0.173,6.25-6.5,6.378-6.5,6.378H134.5c-5.767,0-5.378-6.378-5.378-6.378c-0.172,6.25-6.499,6.378-6.499,6.378h0.579
		c-5.767,0-5.379-6.378-5.379-6.378c-0.171,6.25-6.498,6.378-6.498,6.378h-1.121c-5.767,0-5.379-6.378-5.379-6.378
		c-0.171,6.25-6.498,6.378-6.498,6.378h-1.23c-5.767,0-5.378-6.378-5.378-6.378c-0.171,6.25-6.499,6.378-6.499,6.378h-1.121
		c-5.767,0-5.378-6.378-5.378-6.378c-0.172,6.25-6.5,6.378-6.5,6.378h0.579c-5.767,0-5.378-6.378-5.378-6.378
		c-0.171,6.25-6.498,6.378-6.498,6.378h-1.121c-5.767,0-5.379-6.378-5.379-6.378c-0.171,6.25-6.498,6.378-6.498,6.378h-0.755
		c-5.768,0-5.379-6.378-5.379-6.378c-0.171,6.25-6.499,6.378-6.499,6.378h-1.121c-5.767,0-5.378-6.378-5.378-6.378
		c-0.172,6.25-6.5,6.378-6.5,6.378h0.58c-5.768,0-5.379-6.378-5.379-6.378c-0.039,1.425-0.398,2.532-0.929,3.392"/>
	<path style="fill:none;stroke:#33CCFF;stroke-width:1.2704;stroke-linecap:round;stroke-linejoin:round;" d="M367.397,79.386
		c-0.232,0.264-0.482,0.496-0.742,0.701"/>
	<path style="fill:none;stroke:#777768;stroke-width:1.199;stroke-linecap:round;stroke-linejoin:round;" d="M202.104,77.459
		c0,0-10.375-8.668-13.042-8.834s-12.5,6.375-15.625,7.584"/>
	<path style="fill:#FFFFFF;stroke:#787869;stroke-linecap:round;stroke-linejoin:round;" d="M173.36,76.394
		c-1.446,1.836-4.591,2.725-7.391,3.177c1.838-1.028,2.273-1.679,2.963-1.801c-0.482,0.051-3.751,0.436-4.206,0.419
		c0.357-0.354,3.408-1.524,4.002-1.563c-0.614,0.009-3.307,0.326-3.868,0.076c0.54-0.294,6.035-0.659,1.201-2.701
		c3.314-0.018,6.717,1.742,7.292,2.297L173.36,76.394z"/>
</g>
<g id="Layer_7">
	<g>
		<path style="fill:#FFFFFF;stroke:#787768;stroke-width:1.799;stroke-linecap:round;stroke-linejoin:round;" d="M120.325,119.038
			c-5.108,3.012-11.111,2.292-13.409-1.61c-2.297-3.895-0.021-9.499,5.087-12.51c5.105-3.01,11.11-2.286,13.406,1.609
			C127.708,110.43,125.43,116.029,120.325,119.038z"/>
		<path style="fill:none;stroke:#777768;stroke-width:1.799;stroke-linecap:round;stroke-linejoin:round;" d="M106.653,117.822
			c-2.437,1.42-6.583,4.023-11.174,6.851"/>
	</g>
	<path style="fill:none;stroke:#777768;stroke-width:1.199;stroke-linecap:round;stroke-linejoin:round;" d="M103.625,120.312
		c4.062,0.688,10.531,10.194,12.438,10.312c2.666,0.166,13-8.5,15.79-9.224"/>
	<path style="fill:none;stroke:#33CCFF;stroke-width:1.2704;stroke-linecap:round;stroke-linejoin:round;" d="M368.52,119.742
		c-0.483,5.765-6.474,5.885-6.474,5.885h-1.121c-5.768,0-5.379-6.378-5.379-6.378c-0.168,6.25-6.496,6.378-6.496,6.378h-0.758
		c-5.768,0-5.379-6.378-5.379-6.378c-0.17,6.25-6.498,6.378-6.498,6.378h-1.121c-5.766,0-5.377-6.378-5.377-6.378
		c-0.172,6.25-6.498,6.378-6.498,6.378h0.576c-5.766,0-5.379-6.378-5.379-6.378c-0.168,6.25-6.496,6.378-6.496,6.378h-1.119
		c-5.768,0-5.379-6.378-5.379-6.378c-0.174,6.25-6.5,6.378-6.5,6.378h-1.229c-5.77,0-5.379-6.378-5.379-6.378
		c-0.174,6.25-6.5,6.378-6.5,6.378h-1.119c-5.77,0-5.379-6.378-5.379-6.378c-0.174,6.25-6.498,6.378-6.498,6.378h0.578
		c-5.768,0-5.377-6.378-5.377-6.378c-0.174,6.25-6.5,6.378-6.5,6.378h-1.121c-5.768,0-5.381-6.378-5.381-6.378
		c-0.168,6.25-6.494,6.378-6.494,6.378h-0.758c-5.766,0-5.377-6.378-5.377-6.378c-0.172,6.25-6.498,6.378-6.498,6.378h-1.125
		c-5.766,0-5.377-6.378-5.377-6.378c-0.17,6.25-6.496,6.378-6.496,6.378h0.576c-5.766,0-5.379-6.378-5.379-6.378
		c-0.17,6.25-6.494,6.378-6.494,6.378h-1.123c-5.768,0-5.379-6.378-5.379-6.378c-0.172,6.25-6.498,6.378-6.498,6.378h-1.705
		c-5.766,0-5.377-6.378-5.377-6.378c-0.174,6.25-6.5,6.378-6.5,6.378h-1.119c-5.77,0-5.378-6.378-5.378-6.378
		c-0.174,6.25-6.5,6.378-6.5,6.378h0.579c-5.766,0-5.379-6.378-5.379-6.378c-0.172,6.25-6.498,6.378-6.498,6.378h-1.121
		c-5.766,0-5.378-6.378-5.378-6.378c-0.171,6.25-6.499,6.378-6.499,6.378h-0.755c-5.768,0-5.378-6.378-5.378-6.378
		c-0.173,6.25-6.5,6.378-6.5,6.378h-1.121c-5.767,0-5.378-6.378-5.378-6.378c-0.172,6.25-6.499,6.378-6.499,6.378h0.579
		c-5.767,0-5.379-6.378-5.379-6.378c-0.171,6.25-6.498,6.378-6.498,6.378h-1.121c-5.767,0-5.379-6.378-5.379-6.378
		c-0.171,6.25-6.498,6.378-6.498,6.378h-1.23c-5.767,0-5.378-6.378-5.378-6.378c-0.171,6.25-6.499,6.378-6.499,6.378h-1.121
		c-5.767,0-5.378-6.378-5.378-6.378c-0.172,6.25-6.5,6.378-6.5,6.378h0.579c-5.767,0-5.378-6.378-5.378-6.378
		c-0.171,6.25-6.498,6.378-6.498,6.378H59.47c-5.767,0-5.379-6.378-5.379-6.378c-0.171,6.25-6.498,6.378-6.498,6.378h-0.755
		c-5.768,0-5.379-6.378-5.379-6.378c-0.171,6.25-6.499,6.378-6.499,6.378H33.84c-5.767,0-5.378-6.378-5.378-6.378
		c-0.172,6.25-6.5,6.378-6.5,6.378h0.58c-5.768,0-5.379-6.378-5.379-6.378c-0.039,1.425-0.398,2.532-0.929,3.392"/>
	<path style="fill:#FFFFFF;stroke:#787869;stroke-linecap:round;stroke-linejoin:round;" d="M131.929,121.217
		c1.447-1.836,4.592-2.725,7.391-3.177c-1.838,1.028-2.271,1.679-2.963,1.801c0.482-0.051,3.752-0.436,4.205-0.419
		c-0.355,0.354-3.408,1.524-4.002,1.563c0.615-0.009,3.309-0.326,3.869-0.076c-0.541,0.294-6.035,0.659-1.201,2.701
		c-3.314,0.018-6.717-1.742-7.291-2.297L131.929,121.217z"/>
</g>
<g id="Layer_11">
	<path style="fill:#FFFFFF;" d="M377.45,147.146c-0.121,1.441-8.301-28.226-8.931-27.404c0,5.487-6.474,5.885-6.474,5.885h-1.121
		c-5.768,0-5.379-6.378-5.379-6.378c-0.168,6.25-6.496,6.378-6.496,6.378h-0.758c-5.768,0-5.379-6.378-5.379-6.378
		c-0.17,6.25-6.498,6.378-6.498,6.378h-1.121c-5.766,0-5.377-6.378-5.377-6.378c-0.172,6.25-6.498,6.378-6.498,6.378h0.576
		c-5.766,0-5.379-6.378-5.379-6.378c-0.168,6.25-6.496,6.378-6.496,6.378h-1.119c-5.768,0-5.379-6.378-5.379-6.378
		c-0.174,6.25-6.5,6.378-6.5,6.378h-1.229c-5.77,0-5.379-6.378-5.379-6.378c-0.174,6.25-6.5,6.378-6.5,6.378h-1.119
		c-5.77,0-5.379-6.378-5.379-6.378c-0.174,6.25-6.498,6.378-6.498,6.378h0.578c-5.768,0-5.377-6.378-5.377-6.378
		c-0.174,6.25-6.5,6.378-6.5,6.378h-1.121c-5.768,0-5.381-6.378-5.381-6.378c-0.168,6.25-6.494,6.378-6.494,6.378h-0.758
		c-5.766,0-5.377-6.378-5.377-6.378c-0.172,6.25-6.498,6.378-6.498,6.378h-1.125c-5.766,0-5.377-6.378-5.377-6.378
		c-0.17,6.25-6.496,6.378-6.496,6.378h0.576c-5.766,0-5.379-6.378-5.379-6.378c-0.17,6.25-6.494,6.378-6.494,6.378h-1.123
		c-5.768,0-5.379-6.378-5.379-6.378c-0.172,6.25-6.498,6.378-6.498,6.378h-1.705c-5.766,0-5.377-6.378-5.377-6.378
		c-0.174,6.25-6.5,6.378-6.5,6.378h-1.12c-5.769,0-5.378-6.378-5.378-6.378c-0.174,6.25-6.5,6.378-6.5,6.378h0.579
		c-5.766,0-5.379-6.378-5.379-6.378c-0.172,6.25-6.498,6.378-6.498,6.378h-1.121c-5.766,0-5.378-6.378-5.378-6.378
		c-0.171,6.25-6.499,6.378-6.499,6.378h-0.755c-5.768,0-5.378-6.378-5.378-6.378c-0.173,6.25-6.5,6.378-6.5,6.378h-1.121
		c-5.767,0-5.378-6.378-5.378-6.378c-0.172,6.25-6.499,6.378-6.499,6.378h0.579c-5.767,0-5.379-6.378-5.379-6.378
		c-0.171,6.25-6.498,6.378-6.498,6.378h-1.121c-5.767,0-5.379-6.378-5.379-6.378c-0.171,6.25-6.498,6.378-6.498,6.378h-1.23
		c-5.767,0-5.378-6.378-5.378-6.378c-0.171,6.25-6.499,6.378-6.499,6.378h-1.121c-5.767,0-5.378-6.378-5.378-6.378
		c-0.172,6.25-6.5,6.378-6.5,6.378h0.579c-5.767,0-5.378-6.378-5.378-6.378c-0.171,6.25-6.498,6.378-6.498,6.378H59.47
		c-5.767,0-5.379-6.378-5.379-6.378c-0.171,6.25-6.498,6.378-6.498,6.378h-0.755c-5.768,0-5.379-6.378-5.379-6.378
		c-0.171,6.25-6.499,6.378-6.499,6.378H33.84c-5.767,0-5.378-6.378-5.378-6.378c-0.172,6.25-6.5,6.378-6.5,6.378h0.58
		c-5.768,0-5.379-6.378-5.379-6.378c-0.039,1.425-1.581,22.571-2.112,23.431"/>
	<g>
		<path style="fill:none;stroke:#777768;stroke-width:1.199;stroke-linecap:round;stroke-linejoin:round;" d="M102.615,120.263
			c0,0-10.375-8.667-13.042-8.833c-2.667-0.166-12.5,6.374-15.625,7.583"/>
		<path style="fill:#FFFFFF;stroke:#787869;stroke-linecap:round;stroke-linejoin:round;" d="M73.872,119.198
			c-1.446,1.836-4.591,2.725-7.391,3.176c1.838-1.027,2.273-1.678,2.963-1.801c-0.482,0.051-3.751,0.436-4.206,0.42
			c0.357-0.354,3.408-1.525,4.002-1.564c-0.614,0.01-3.307,0.326-3.868,0.076c0.54-0.293,6.035-0.658,1.201-2.701
			c3.314-0.018,6.717,1.742,7.292,2.297L73.872,119.198z"/>
	</g>
</g>
<g id="Layer_10">
	<path style="fill:#FFFFFF;" d="M377.235,103.146c-0.121,1.441-9.039-25.353-9.669-24.531c-1.889,2.466-5.735,3.012-5.735,3.012
		h-1.121c-5.768,0-5.379-6.378-5.379-6.378c-0.168,6.25-6.496,6.378-6.496,6.378h-0.758c-5.768,0-5.379-6.378-5.379-6.378
		c-0.17,6.25-6.498,6.378-6.498,6.378h-1.121c-5.766,0-5.377-6.378-5.377-6.378c-0.172,6.25-6.498,6.378-6.498,6.378h0.576
		c-5.766,0-5.379-6.378-5.379-6.378c-0.168,6.25-6.496,6.378-6.496,6.378h-1.119c-5.768,0-5.379-6.378-5.379-6.378
		c-0.174,6.25-6.5,6.378-6.5,6.378h-1.229c-5.77,0-5.379-6.378-5.379-6.378c-0.174,6.25-6.5,6.378-6.5,6.378h-1.119
		c-5.77,0-5.379-6.378-5.379-6.378c-0.174,6.25-6.498,6.378-6.498,6.378h0.578c-5.768,0-5.377-6.378-5.377-6.378
		c-0.174,6.25-6.5,6.378-6.5,6.378h-1.121c-5.768,0-5.381-6.378-5.381-6.378c-0.168,6.25-6.494,6.378-6.494,6.378h-0.758
		c-5.766,0-5.377-6.378-5.377-6.378c-0.172,6.25-6.498,6.378-6.498,6.378h-1.125c-5.766,0-5.377-6.378-5.377-6.378
		c-0.17,6.25-6.496,6.378-6.496,6.378h0.576c-5.766,0-5.379-6.378-5.379-6.378c-0.17,6.25-6.494,6.378-6.494,6.378h-1.123
		c-5.768,0-5.379-6.378-5.379-6.378c-0.172,6.25-6.498,6.378-6.498,6.378h-1.705c-5.766,0-5.377-6.378-5.377-6.378
		c-0.174,6.25-6.5,6.378-6.5,6.378h-1.12c-5.769,0-5.378-6.378-5.378-6.378c-0.174,6.25-6.5,6.378-6.5,6.378h0.579
		c-5.766,0-5.379-6.378-5.379-6.378c-0.172,6.25-6.498,6.378-6.498,6.378h-1.121c-5.766,0-5.378-6.378-5.378-6.378
		c-0.171,6.25-6.499,6.378-6.499,6.378h-0.755c-5.768,0-5.378-6.378-5.378-6.378c-0.173,6.25-6.5,6.378-6.5,6.378h-1.121
		c-5.767,0-5.378-6.378-5.378-6.378c-0.172,6.25-6.499,6.378-6.499,6.378h0.579c-5.767,0-5.379-6.378-5.379-6.378
		c-0.171,6.25-6.498,6.378-6.498,6.378h-1.121c-5.767,0-5.379-6.378-5.379-6.378c-0.171,6.25-6.498,6.378-6.498,6.378h-1.23
		c-5.767,0-5.378-6.378-5.378-6.378c-0.171,6.25-6.499,6.378-6.499,6.378h-1.121c-5.767,0-5.378-6.378-5.378-6.378
		c-0.172,6.25-6.5,6.378-6.5,6.378h0.579c-5.767,0-5.378-6.378-5.378-6.378c-0.171,6.25-6.498,6.378-6.498,6.378h-1.121
		c-5.767,0-5.379-6.378-5.379-6.378c-0.171,6.25-6.498,6.378-6.498,6.378h-0.755c-5.768,0-5.379-6.378-5.379-6.378
		c-0.171,6.25-6.499,6.378-6.499,6.378h-1.121c-5.767,0-5.378-6.378-5.378-6.378c-0.172,6.25-6.5,6.378-6.5,6.378h0.58
		c-5.768,0-5.379-6.378-5.379-6.378c-0.039,1.425-1.581,22.571-2.112,23.431"/>
	<path style="fill:none;stroke:#777768;stroke-width:1.199;stroke-linecap:round;stroke-linejoin:round;" d="M202.557,77.459
		c0,0-10.375-8.668-13.042-8.834s-12.5,6.375-15.625,7.584"/>
	<path style="fill:#FFFFFF;stroke:#787869;stroke-linecap:round;stroke-linejoin:round;" d="M173.812,76.394
		c-1.446,1.836-4.591,2.725-7.391,3.177c1.838-1.028,2.273-1.679,2.963-1.801c-0.482,0.051-3.751,0.436-4.206,0.419
		c0.357-0.354,3.408-1.524,4.002-1.563c-0.614,0.009-3.307,0.326-3.868,0.076c0.54-0.294,6.035-0.659,1.201-2.701
		c3.314-0.018,6.717,1.742,7.292,2.297L173.812,76.394z"/>
</g>
<g id="Layer_8">
	<g>
		<path style="fill:none;stroke:#777768;stroke-width:1.199;stroke-linecap:round;stroke-linejoin:round;" d="M153.375,28.062
			c4.062,0.688,10.531,10.194,12.438,10.312c2.666,0.166,13-8.5,15.79-9.224"/>
		<path style="fill:#FFFFFF;stroke:#787869;stroke-linecap:round;stroke-linejoin:round;" d="M181.679,28.967
			c1.447-1.836,4.592-2.725,7.391-3.177c-1.838,1.028-2.271,1.679-2.963,1.801c0.482-0.051,3.752-0.436,4.205-0.419
			c-0.355,0.354-3.408,1.524-4.002,1.563c0.615-0.009,3.309-0.326,3.869-0.076c-0.541,0.294-6.035,0.659-1.201,2.701
			c-3.314,0.018-6.717-1.742-7.291-2.297L181.679,28.967z"/>
	</g>
	<g>
		<path style="fill:#FFFFFF;stroke:#787768;stroke-width:1.799;stroke-linecap:round;stroke-linejoin:round;" d="M170.074,26.788
			c-5.108,3.012-11.111,2.292-13.409-1.61c-2.297-3.895-0.021-9.499,5.087-12.51c5.105-3.01,11.11-2.286,13.406,1.609
			C177.457,18.18,175.18,23.779,170.074,26.788z"/>
		<path style="fill:none;stroke:#777768;stroke-width:1.712;stroke-linecap:round;stroke-linejoin:round;" d="M156.402,25.572
			c-2.208,1.285-5.956,3.654-10.108,6.224"/>
	</g>
	<path style="fill:none;stroke:#33CCFF;stroke-width:1.2704;stroke-linecap:round;stroke-linejoin:round;" d="M370.353,27.742
		c-0.483,5.765-6.474,5.885-6.474,5.885h-1.121c-5.768,0-5.379-6.378-5.379-6.378c-0.168,6.25-6.496,6.378-6.496,6.378h-0.758
		c-5.768,0-5.379-6.378-5.379-6.378c-0.17,6.25-6.498,6.378-6.498,6.378h-1.121c-5.766,0-5.377-6.378-5.377-6.378
		c-0.172,6.25-6.498,6.378-6.498,6.378h0.576c-5.766,0-5.379-6.378-5.379-6.378c-0.168,6.25-6.496,6.378-6.496,6.378h-1.119
		c-5.768,0-5.379-6.378-5.379-6.378c-0.174,6.25-6.5,6.378-6.5,6.378h-1.229c-5.77,0-5.379-6.378-5.379-6.378
		c-0.174,6.25-6.5,6.378-6.5,6.378h-1.119c-5.77,0-5.379-6.378-5.379-6.378c-0.174,6.25-6.498,6.378-6.498,6.378h0.578
		c-5.768,0-5.377-6.378-5.377-6.378c-0.174,6.25-6.5,6.378-6.5,6.378h-1.121c-5.768,0-5.381-6.378-5.381-6.378
		c-0.168,6.25-6.494,6.378-6.494,6.378h-0.758c-5.766,0-5.377-6.378-5.377-6.378c-0.172,6.25-6.498,6.378-6.498,6.378h-1.125
		c-5.766,0-5.377-6.378-5.377-6.378c-0.17,6.25-6.496,6.378-6.496,6.378h0.576c-5.766,0-5.379-6.378-5.379-6.378
		c-0.17,6.25-6.494,6.378-6.494,6.378h-1.123c-5.768,0-5.379-6.378-5.379-6.378c-0.172,6.25-6.498,6.378-6.498,6.378h-1.705
		c-5.766,0-5.377-6.378-5.377-6.378c-0.174,6.25-6.5,6.378-6.5,6.378h-1.119c-5.77,0-5.378-6.378-5.378-6.378
		c-0.174,6.25-6.5,6.378-6.5,6.378h0.579c-5.766,0-5.379-6.378-5.379-6.378c-0.172,6.25-6.498,6.378-6.498,6.378h-1.121
		c-5.766,0-5.378-6.378-5.378-6.378c-0.171,6.25-6.499,6.378-6.499,6.378h-0.755c-5.768,0-5.378-6.378-5.378-6.378
		c-0.173,6.25-6.5,6.378-6.5,6.378H136c-5.767,0-5.378-6.378-5.378-6.378c-0.172,6.25-6.499,6.378-6.499,6.378h0.579
		c-5.767,0-5.379-6.378-5.379-6.378c-0.171,6.25-6.498,6.378-6.498,6.378h-1.121c-5.767,0-5.379-6.378-5.379-6.378
		c-0.171,6.25-6.498,6.378-6.498,6.378h-1.23c-5.767,0-5.378-6.378-5.378-6.378c-0.171,6.25-6.499,6.378-6.499,6.378h-1.121
		c-5.767,0-5.378-6.378-5.378-6.378c-0.172,6.25-6.5,6.378-6.5,6.378h0.579c-5.767,0-5.378-6.378-5.378-6.378
		c-0.171,6.25-6.498,6.378-6.498,6.378h-1.121c-5.767,0-5.379-6.378-5.379-6.378c-0.171,6.25-6.498,6.378-6.498,6.378h-0.755
		c-5.768,0-5.379-6.378-5.379-6.378c-0.171,6.25-6.499,6.378-6.499,6.378h-1.121c-5.767,0-5.378-6.378-5.378-6.378
		c-0.172,6.25-6.5,6.378-6.5,6.378h0.58c-5.768,0-5.379-6.378-5.379-6.378c-0.039,1.425-0.398,2.532-0.929,3.392"/>
</g>
<g id="Layer_9">
	<path style="fill:#FFFFFF;" d="M375.31,46.979c-0.051,0.6-3.083-20.011-3.916-20.104c-1.17-0.13-0.807,0.253-1.174,0.733
		c0,5.854-6.691,5.667-6.691,5.667h-1.121c-5.768,0-5.379-6.378-5.379-6.378c-0.168,6.25-6.496,6.378-6.496,6.378h-0.758
		c-5.768,0-5.379-6.378-5.379-6.378c-0.17,6.25-6.498,6.378-6.498,6.378h-1.121c-5.766,0-5.377-6.378-5.377-6.378
		c-0.172,6.25-6.498,6.378-6.498,6.378h0.576c-5.766,0-5.379-6.378-5.379-6.378c-0.168,6.25-6.496,6.378-6.496,6.378h-1.119
		c-5.768,0-5.379-6.378-5.379-6.378c-0.174,6.25-6.5,6.378-6.5,6.378h-1.229c-5.77,0-5.379-6.378-5.379-6.378
		c-0.174,6.25-6.5,6.378-6.5,6.378h-1.119c-5.77,0-5.379-6.378-5.379-6.378c-0.174,6.25-6.498,6.378-6.498,6.378h0.578
		c-5.768,0-5.377-6.378-5.377-6.378c-0.174,6.25-6.5,6.378-6.5,6.378h-1.121c-5.768,0-5.381-6.378-5.381-6.378
		c-0.168,6.25-6.494,6.378-6.494,6.378h-0.758c-5.766,0-5.377-6.378-5.377-6.378c-0.172,6.25-6.498,6.378-6.498,6.378h-1.125
		c-5.766,0-5.377-6.378-5.377-6.378c-0.17,6.25-6.496,6.378-6.496,6.378h0.576c-5.766,0-5.379-6.378-5.379-6.378
		c-0.17,6.25-6.494,6.378-6.494,6.378h-1.123c-5.768,0-5.379-6.378-5.379-6.378c-0.172,6.25-6.498,6.378-6.498,6.378h-1.705
		c-5.766,0-5.377-6.378-5.377-6.378c-0.174,6.25-6.5,6.378-6.5,6.378h-1.12c-5.769,0-5.378-6.378-5.378-6.378
		c-0.174,6.25-6.5,6.378-6.5,6.378h0.579c-5.766,0-5.379-6.378-5.379-6.378c-0.172,6.25-6.498,6.378-6.498,6.378h-1.121
		c-5.766,0-5.378-6.378-5.378-6.378c-0.171,6.25-6.499,6.378-6.499,6.378h-0.755c-5.768,0-5.378-6.378-5.378-6.378
		c-0.173,6.25-6.5,6.378-6.5,6.378h-1.121c-5.767,0-5.378-6.378-5.378-6.378c-0.172,6.25-6.499,6.378-6.499,6.378h0.579
		c-5.767,0-5.379-6.378-5.379-6.378c-0.171,6.25-6.498,6.378-6.498,6.378h-1.121c-5.767,0-5.379-6.378-5.379-6.378
		c-0.171,6.25-6.498,6.378-6.498,6.378h-1.23c-5.767,0-5.378-6.378-5.378-6.378c-0.171,6.25-6.499,6.378-6.499,6.378h-1.121
		c-5.767,0-5.378-6.378-5.378-6.378c-0.172,6.25-6.5,6.378-6.5,6.378h0.579c-5.767,0-5.378-6.378-5.378-6.378
		c-0.171,6.25-6.498,6.378-6.498,6.378h-1.121c-5.767,0-5.379-6.378-5.379-6.378c-0.171,6.25-6.498,6.378-6.498,6.378h-0.755
		c-5.768,0-5.379-6.378-5.379-6.378c-0.171,6.25-6.499,6.378-6.499,6.378h-1.121c-5.767,0-5.378-6.378-5.378-6.378
		c-0.172,6.25-6.5,6.378-6.5,6.378h0.58c-5.768,0-5.379-6.378-5.379-6.378c-0.039,1.425-1.581,22.571-2.112,23.431"/>
	<g>
		<path style="fill:none;stroke:#777768;stroke-width:1.199;stroke-linecap:round;stroke-linejoin:round;" d="M152.965,27.653
			c0,0-10.374-8.668-13.041-8.834s-12.5,6.375-15.625,7.584"/>
		<path style="fill:#FFFFFF;stroke:#787869;stroke-linecap:round;stroke-linejoin:round;" d="M124.222,26.587
			c-1.446,1.836-4.591,2.725-7.391,3.177c1.838-1.028,2.273-1.679,2.963-1.801c-0.482,0.051-3.751,0.436-4.206,0.419
			c0.357-0.354,3.408-1.524,4.002-1.563c-0.614,0.009-3.307,0.326-3.868,0.076c0.54-0.294,6.035-0.659,1.201-2.701
			c3.314-0.018,6.717,1.742,7.292,2.297L124.222,26.587z"/>
	</g>
</g>
<g id="Layer_2">
	
		<line style="fill:#FFFFFF;stroke:#D5312C;stroke-width:6.7315;stroke-linecap:round;stroke-linejoin:round;stroke-dasharray:1.1219,6.7315,1.1219;" x1="15" y1="52.537" x2="366" y2="52.537"/>
	
		<line style="fill:#FFFFFF;stroke:#D5312C;stroke-width:6.7315;stroke-linecap:round;stroke-linejoin:round;stroke-dasharray:1.1219,6.7315,1.1219;" x1="15" y1="95.333" x2="366" y2="95.333"/>
</g>
</svg>
