<?xml version="1.0" encoding="iso-8859-1"?>
<!-- Generator: Adobe Illustrator 13.0.0, SVG Export Plug-In . SVG Version: 6.00 Build 14948)  -->
<!DOCTYPE svg PUBLIC "-//W3C//DTD SVG 1.1//EN" "http://www.w3.org/Graphics/SVG/1.1/DTD/svg11.dtd">
<svg version="1.1" xmlns="http://www.w3.org/2000/svg" xmlns:xlink="http://www.w3.org/1999/xlink" x="0px" y="0px" width="378px"
	 height="140px" viewBox="0 0 378 140" style="enable-background:new 0 0 378 140;" xml:space="preserve">
<g id="Layer_2">
	<g>
		<rect style="fill:none;" width="378" height="140"/>
		<rect style="fill:#FFFFFF;" width="378" height="140"/>
	</g>
</g>
<g id="Layer_3">
	<g>
		<g>
			<path style="fill:#406FA9;" d="M256.498,70.001c0,37.278-30.221,67.499-67.496,67.499c-37.281,0-67.502-30.221-67.502-67.499
				c0-37.28,30.221-67.501,67.502-67.501C226.277,2.5,256.498,32.721,256.498,70.001z"/>
			<path style="fill:#FFFFFF;" d="M252.322,70.001c0,34.973-28.352,63.322-63.32,63.322c-34.975,0-63.324-28.35-63.324-63.322
				c0-34.972,28.35-63.324,63.324-63.324C223.971,6.677,252.322,35.029,252.322,70.001z"/>
		</g>
		<g>
			<g>
				<path style="fill:#406FA9;" d="M175.374,53.64l-0.789-2.868h-3.758l0.109,3.697c-0.15,0.17-1.092,0.424-1.299,0.737
					c-1.633,2.459-7.723,11.336-10.273,20.261c-1.447,5.075-5.807,22.621,7.318,28.717c5.898,2.745,14.32,4.577,22.316,4.729h0.004
					c7.996-0.151,16.416-1.983,22.31-4.729c13.129-6.096,8.77-23.642,7.318-28.717c-2.551-8.925-8.639-17.802-10.27-20.261
					c-0.209-0.313-1.15-0.567-1.301-0.737l0.111-3.697h-3.756l-0.789,2.868H175.374z"/>
				<circle style="fill:#FFFFFF;" cx="188.998" cy="79.844" r="14.885"/>
			</g>
			<path style="fill:#406FA9;" d="M188.999,31.09c28.597,0,44.689,6.775,46.601,19.755c0.801,5.452-2.242,10.196-7.092,16.489
				L207.719,57.32c5.098-8.227-1.598-9.361-4.461-10.618c-3.855-1.693-7.01-1.902-14.259-1.912h0.004
				c-7.252,0.01-10.404,0.219-14.262,1.912c-2.861,1.257-9.559,2.392-4.461,10.618l-20.791,10.016
				c-4.848-6.297-7.895-11.037-7.088-16.491C144.311,37.865,160.403,31.09,188.999,31.09"/>
		</g>
	</g>
</g>
</svg>
