<?xml version="1.0" encoding="iso-8859-1"?>
<!-- Generator: Adobe Illustrator 15.0.2, SVG Export Plug-In . SVG Version: 6.00 Build 0)  -->
<!DOCTYPE svg PUBLIC "-//W3C//DTD SVG 1.1//EN" "http://www.w3.org/Graphics/SVG/1.1/DTD/svg11.dtd">
<svg version="1.1" xmlns="http://www.w3.org/2000/svg" xmlns:xlink="http://www.w3.org/1999/xlink" x="0px" y="0px" width="540px"
	 height="200px" viewBox="0 0 540 200" style="enable-background:new 0 0 540 200;" xml:space="preserve">
<g id="Layer_2">
	<g>
		<rect style="fill:none;" width="540" height="200"/>
		<rect style="fill:#FFFFFF;" width="540" height="200"/>
	</g>
	<g>
	</g>
</g>
<g id="Layer_3">
	<path style="fill:#1EAACC;stroke:#63C5DC;stroke-width:1.2117;stroke-linecap:round;stroke-linejoin:round;" d="M234.254,154.768
		c1.195,4.855,2.198,6.248,2.198,6.248c2.054,3.201,3.721,5.871,8.249,8.268c6.821,3.605,12.066,6.428,19.622,7.414
		c11.276,1.463,19.413,1.436,30.099-3.576c3.349-1.57,7.668-4.391,9.856-7.169c2.159-2.729,6.744-9.144,7.027-12.02"/>
	<path style="fill:#1EAACC;stroke:#63C5DC;stroke-width:1.2117;" d="M265.754,22.535c-5.558,0-73.652,2.056-80.677,53.895
		c-3.481,25.694,36.367,66.797,44.392,74.423c14.565,13.843,37.663,20.519,57.45,15.666c11.282-2.771,21.434-9.146,29.697-17.409
		c5.605-5.605,16.333-16.43,21.271-22.682c9.287-11.763,16.351-39.598,17.117-46.298C357.701,56.474,318.699,20.876,265.754,22.535"
		/>
	<path style="fill:#FFFF9C;" d="M213.201,122.285c-4.428-2.705-4.732-9.471-7.384-13.812c-2.909-4.771-5.518-9.172-5.373-14.657
		c0.08-2.979,0.85-3.664,2.245-6.181c1.452-2.62,1.289-5.951,3.137-8.644c1.54-2.239,3.902-2.248,6.413-3.455
		c2.797-1.345,4.166-2.844,6.078-5.187c2.844-3.487,5.988-7.777,10.27-9.326c5.065-1.829,10.309-3.888,15.725-5.104
		c2.54-0.569,5.521-0.717,7.703-2.257c2.157-1.513,3.617-3.708,6.473-4.434c2.614-0.664,5.978-0.239,8.665-0.384
		c3.013-0.162,5.721-1.029,8.588-1.283c3.499-0.307,5.096,1.514,8.02,2.496c2.667,0.894,5.156,0.793,7.697,2.236
		c4.083,2.322,6.588,6.496,10.903,8.497c4.718,2.189,9.271,4.009,14.038,5.443c4.72,1.422,8.686,7.243,12.645,10.175
		c2.248,1.67,4.572,1.696,6.603,3.216c2.171,1.623,3.357,6.184,4.956,8.588c3.057,4.6,3.44,8.777,3.128,14.513
		c-0.136,2.499-0.296,5.284-1.357,7.372c-1.274,2.511-2.838,2.82-4.814,4.41c-3.511,2.839-6.373,5.807-10.568,8.35
		c-7.972,4.83-17.796,9.046-26.877,10.896c-6.915,1.41-14.217,2.706-21.156,3.72c-6.779,0.992-28.051-0.584-20.533-0.203
		c5.484,0.277-21.254-2.926-24.608-4.481c-4.225-1.952-8.278-3.321-12.275-5.762c-3.369-2.06-7.081-4.401-10.901-5.057"/>
	<path style="fill:#FFFF9C;stroke:#E0E075;stroke-width:1.2117;stroke-linecap:round;stroke-linejoin:round;" d="M261.468,121.237
		c-2.944,4.272,3.089,8.081,6.989,7.337c5.447-1.035,7.169-7.373,6.744-12.099c-0.209-0.171-0.914-0.546-1.152-0.649
		c-0.656,1.426-2.148,2.614-3.552,3.225c0.738,2.738,3.251,4.945-1.009,6.281c-3.411,1.062-4.57-0.936-5.119-3.971
		C263.303,121.576,261.864,120.086,261.468,121.237"/>
	<path style="fill:#FFFF9C;stroke:#E0E075;stroke-width:1.2117;stroke-linecap:round;stroke-linejoin:round;" d="M254.506,53.151
		c-2.124-4.969,6.481-6.928,9.303-4.73c2.74,2.14,4.962,7.666,1.94,10.234c-1.257-1.478-3.101-2.023-4.083-3.684
		c2.845-1.408,0.552-5.55-2.366-4.402c-1.121,0.445-3.48,5.512-4.794,0.979"/>
	<path style="fill:#FFFF9C;stroke:#E0E075;stroke-width:1.2117;stroke-linecap:round;stroke-linejoin:round;" d="M282.127,96.719
		c-2.123-4.969,6.482-6.928,9.303-4.73c2.74,2.14,4.963,7.666,1.941,10.234c-1.258-1.477-3.102-2.023-4.084-3.683
		c2.846-1.408,0.553-5.55-2.365-4.402c-1.121,0.445-3.48,5.512-4.795,0.979"/>
	<path style="fill:#FFFF9C;stroke:#E0E075;stroke-width:1.2117;stroke-linecap:round;stroke-linejoin:round;" d="M223.015,125.003
		c-0.814,4.82-8.385-0.419-7.732-5.068c0.558-4.013,6.467-6.668,10.022-5.062c-0.112,1.274-0.581,2.425-1.06,3.607
		c-2.006-1.549-4.721,0.271-5.163,2.337c-0.743,3.431,1.366,2.562,3.883,2.626c0.056,0.549,0.188,1.33,0.05,1.877"/>
	<path style="fill:#FFFF9C;stroke:#E0E075;stroke-width:1.2117;stroke-linecap:round;stroke-linejoin:round;" d="M220.512,99.787
		c-1.629,4.349,5.505,6.399,8.36,4.423c3.346-2.316,3.272-7.512,3.143-11.135c-1.546,0.584-3.128,1.445-4.408,2.543
		c2.573,4.912-2.121,6.119-5.251,2.934C221.937,98.952,220.777,99.478,220.512,99.787"/>
	<path style="fill:#FFFF9C;stroke:#E0E075;stroke-width:1.2117;stroke-linecap:round;stroke-linejoin:round;" d="M241.564,105.556
		c-2.434-1.505-9.642-1.188-8.892,4.688c0.643,5.053,8.62,6.396,12.193,4.165c-0.941-0.977-1.694-2.708-2.851-3.14
		c-0.838-0.309-3.62,1.054-4.431,0.21C234.153,107.918,244.606,109.668,241.564,105.556"/>
	<path style="fill:#FFFF9C;stroke:#E0E075;stroke-width:1.2117;stroke-linecap:round;stroke-linejoin:round;" d="M266.036,89.5
		c0.844,6.709-7.308,5.308-11.32,2.245c-3.324-2.534-4.549-9.284-0.312-11.503c3.776,2.867-0.277,4.166,2.579,7.662
		c1.651,2.021,5.933,3.171,7.21-0.277C265.157,88.101,266.001,89.019,266.036,89.5"/>
	<path style="fill:#FFFF9C;stroke:#E0E075;stroke-width:1.2117;stroke-linecap:round;stroke-linejoin:round;" d="M271.844,62.073
		c3.03-2.549,3.732,1.068,2.818,3.528c-0.871,2.328-2.773,3.322-5.128,4.092c-2.779,0.906-6.762,1.596-8.691-1.047
		c-1.118-1.534-1.977-6.086-1.153-7.8c1.073-0.094,2.109,0.012,3.124,0.313c-0.463,2.682,1.876,5.546,4.537,5.484
		c3.113-0.074,3.184-3.106,4.493-4.892"/>
	<path style="fill:#FFFF9C;stroke:#E0E075;stroke-width:1.2117;stroke-linecap:round;stroke-linejoin:round;" d="M231.923,70.678
		c0.34-2.9,6.048-1.959,7.744-0.743c2.429,1.747,3.14,5.655,2.538,8.367c-0.93,4.213-6.975,9.034-10.893,5.13
		c0.371-1.218,0.439-2.593,0.994-3.637c1.944,0.354,5.7,0.517,5.965-2.384c0.245-2.699-4.018-2.534-5.971-1.979
		c-0.558-1.375-0.372-2.909-0.378-4.434"/>
	<path style="fill:#FFFF9C;stroke:#E0E075;stroke-width:1.2117;stroke-linecap:round;stroke-linejoin:round;" d="M315.117,111.523
		c0.34,2.899,6.047,1.959,7.744,0.742c2.428-1.746,3.139-5.654,2.537-8.366c-0.93-4.213-6.975-9.034-10.893-5.13
		c0.371,1.218,0.439,2.593,0.994,3.637c1.945-0.354,5.701-0.516,5.965,2.385c0.246,2.699-4.018,2.533-5.971,1.979
		c-0.557,1.375-0.371,2.909-0.377,4.435"/>
	<path style="fill:#FFFF9C;stroke:#E0E075;stroke-width:1.2117;stroke-linecap:round;stroke-linejoin:round;" d="M258.67,112.203
		c-1.289-4.225-6.546-5.49-10.243-5.319c-0.221,1.225,0.021,2.537,0.245,3.697c1.632-1.127,5.588-0.661,5.812,2.023
		c0.268,3.184-3.856,2.487-6.058,2.62c-0.064,1.077,0.024,2.121,0.271,3.157l-0.643,0.964
		C252.243,124.482,260.349,117.729,258.67,112.203z"/>
	<path style="fill:#FFFF9C;stroke:#E0E075;stroke-width:1.2117;stroke-linecap:round;stroke-linejoin:round;" d="M245.716,134.139
		c3.582,3.52,11.453,1.104,10.214-4.496c-1.18-5.338-6.889-5.072-11.063-5.14c0.41,0.888,0.596,1.546,0.906,2.525
		c1.806,0.493,8.16,1.187,6.375,4.313c-1.242,2.168-4.396-0.277-6.065-0.039c0.073,0.765-0.375,1.576-0.366,2.195"/>
	<path style="fill:#FFFF9C;stroke:#E0E075;stroke-width:1.2117;stroke-linecap:round;stroke-linejoin:round;" d="M280.986,47.877
		c-0.34-2.896-6.045-1.955-7.744-0.736c-2.428,1.743-3.139,5.652-2.541,8.36c0.933,4.219,6.978,9.033,10.892,5.134
		c-0.369-1.216-0.436-2.597-0.99-3.641c-1.945,0.359-5.701,0.521-5.967-2.385c-0.248-2.699,4.02-2.527,5.975-1.973
		c0.553-1.378,0.369-2.909,0.375-4.435"/>
	<path style="fill:#FFFF9C;stroke:#E0E075;stroke-width:1.2117;stroke-linecap:round;stroke-linejoin:round;" d="M240.539,88.193
		c-2.868-0.543-3.676,5.188-3.024,7.17c0.941,2.841,4.461,4.685,7.226,4.92c4.298,0.373,10.706-3.955,8.154-8.861
		c-1.277-0.01-2.608-0.354-3.771-0.133c-0.245,1.955-1.21,5.594-4.06,4.977c-2.649-0.572-1.216-4.591-0.101-6.293
		c-1.147-0.938-2.667-1.225-4.121-1.682"/>
	<path style="fill:#FFFF9C;stroke:#E0E075;stroke-width:1.2117;stroke-linecap:round;stroke-linejoin:round;" d="M231.177,85.354
		l-3.544-0.123c0,0-2.506,2.413-4.352,1.375c-1.651-0.929-0.924-2.75-0.129-4.449l-2.741-1.62
		C212.62,92.754,230.684,93.183,231.177,85.354z"/>
	<path style="fill:#FFFF9C;stroke:#E0E075;stroke-width:1.2117;stroke-linecap:round;stroke-linejoin:round;" d="M318.765,123.43
		l-3.544-0.123c0,0-2.506,2.414-4.352,1.375c-1.651-0.928-0.924-2.749-0.129-4.449l-2.741-1.619
		C300.208,130.83,318.271,131.259,318.765,123.43z"/>
	<path style="fill:#FFFF9C;stroke:#E0E075;stroke-width:1.2117;stroke-linecap:round;stroke-linejoin:round;" d="M308.872,90.383
		l-2.371,2.638c0,0,0.238,3.47-1.743,4.218c-1.771,0.668-2.7-1.058-3.491-2.76l-3.003,1.059
		C302.62,109.357,314.554,95.792,308.872,90.383z"/>
	<path style="fill:#FFFF9C;stroke:#E0E075;stroke-width:1.2117;stroke-linecap:round;stroke-linejoin:round;" d="M291.359,122.244
		l2.562,2.449c0,0,3.477-0.137,4.164,1.866c0.617,1.792-1.137,2.667-2.861,3.408l0.971,3.034
		C310.138,129.059,296.932,116.725,291.359,122.244z"/>
	<path style="fill:#FFFF9C;stroke:#E0E075;stroke-width:1.2117;stroke-linecap:round;stroke-linejoin:round;" d="M333.334,99.049
		c0.339-2.897,6.045-1.957,7.744-0.738c2.429,1.744,3.14,5.652,2.54,8.361c-0.932,4.219-6.977,9.033-10.892,5.133
		c0.368-1.218,0.437-2.596,0.994-3.641c1.944,0.36,5.699,0.523,5.965-2.383c0.245-2.699-4.021-2.529-5.977-1.975
		c-0.552-1.381-0.369-2.908-0.375-4.434"/>
	<path style="fill:#FFFF9C;stroke:#E0E075;stroke-width:1.2117;stroke-linecap:round;stroke-linejoin:round;" d="M280.113,69.361
		c2.87-0.543,3.676,5.186,3.023,7.168c-0.94,2.839-4.46,4.683-7.225,4.922c-4.299,0.369-10.706-3.959-8.151-8.863
		c1.274-0.008,2.604-0.356,3.768-0.135c0.244,1.959,1.209,5.594,4.06,4.977c2.648-0.569,1.215-4.59,0.1-6.29
		c1.148-0.938,2.667-1.225,4.122-1.682"/>
	<path style="fill:#FFFF9C;stroke:#E0E075;stroke-width:1.2117;stroke-linecap:round;stroke-linejoin:round;" d="M271.111,108.105
		c0.338,2.9,6.047,1.959,7.744,0.743c2.428-1.747,3.139-5.655,2.537-8.364c-0.93-4.216-6.975-9.033-10.893-5.133
		c0.372,1.218,0.439,2.594,0.995,3.641c1.943-0.357,5.699-0.52,5.965,2.381c0.246,2.702-4.018,2.534-5.971,1.979
		c-0.558,1.374-0.371,2.909-0.377,4.435"/>
	<path style="fill:#FFFF9C;stroke:#E0E075;stroke-width:1.2117;stroke-linecap:round;stroke-linejoin:round;" d="M229.407,67.624
		c-2.873,0.542-3.682-5.187-3.027-7.169c0.944-2.841,4.461-4.685,7.223-4.921c4.302-0.372,10.709,3.959,8.154,8.863
		c-1.274,0.009-2.602,0.354-3.771,0.136c-0.241-1.959-1.209-5.594-4.054-4.98c-2.648,0.572-1.215,4.59-0.105,6.292
		c-1.145,0.938-2.661,1.225-4.119,1.682"/>
	<path style="fill:#FFFF9C;stroke:#E0E075;stroke-width:1.2117;stroke-linecap:round;stroke-linejoin:round;" d="M211.093,89.178
		c-3.582,3.517-11.453,1.1-10.214-4.496c1.18-5.337,6.886-5.072,11.063-5.143c-0.413,0.891-0.596,1.546-0.903,2.525
		c-1.806,0.496-8.166,1.189-6.378,4.313c1.245,2.171,4.396-0.277,6.06-0.036C210.649,87.104,211.093,89.178,211.093,89.178z"/>
	<path style="fill:#FFFF9C;stroke:#E0E075;stroke-width:1.2117;stroke-linecap:round;stroke-linejoin:round;" d="M268.284,101.584
		c1.084,4.902-5.139,10.295-9.227,6.277c-3.9-3.829-3.146-6.313-0.992-9.894c0.537,0.823,0.996,1.325,1.662,2.104
		c-0.536,1.795-0.365,4.721,2.773,5.481c2.431,0.59,2.096-3.874,3.182-5.158C266.29,100.86,268.284,101.584,268.284,101.584z"/>
	<path style="fill:#FFFF9C;stroke:#E0E075;stroke-width:1.2117;stroke-linecap:round;stroke-linejoin:round;" d="M308.061,67.223
		c-1.084,4.902,5.139,10.295,9.227,6.277c3.9-3.829,3.146-6.313,0.992-9.894c-0.537,0.823-0.996,1.325-1.662,2.104
		c0.536,1.795,0.364,4.721-2.773,5.481c-2.431,0.59-2.096-3.874-3.182-5.157C310.055,66.499,308.061,67.223,308.061,67.223z"/>
	<path style="fill:#FFFF9C;stroke:#E0E075;stroke-width:1.2117;stroke-linecap:round;stroke-linejoin:round;" d="M220.587,107.163
		c1.397,4.82-4.462,10.605-8.801,6.86c-4.141-3.569-1.201-8.468,0.718-12.179c0.588,0.786,1.078,1.257,1.795,1.992
		c-0.419,1.825-2.825,7.754,0.772,7.661c2.503-0.066,1.84-4.002,2.843-5.353C218.551,106.57,220.587,107.163,220.587,107.163z"/>
	<path style="fill:#FFFF9C;stroke:#E0E075;stroke-width:1.2117;stroke-linecap:round;stroke-linejoin:round;" d="M307.725,108.976
		c1.397,4.82-4.462,10.605-8.801,6.86c-4.141-3.569-1.201-8.468,0.719-12.179c0.588,0.786,1.077,1.257,1.795,1.992
		c-0.42,1.825-2.825,7.754,0.771,7.661c2.504-0.066,1.841-4.002,2.844-5.353C305.689,108.383,307.725,108.976,307.725,108.976z"/>
	<g>
		<path style="fill:#FFFF9C;stroke:#E0E075;stroke-width:1.2117;stroke-linecap:round;stroke-linejoin:round;" d="M212.388,74.083
			l3.541,0.127c0,0,2.685-2.986,4.354-1.375c1.362,1.312-0.566,3.162,0.13,4.449c0.365,0.676,2.737,1.619,2.737,1.619
			C229.826,68.491,214.157,65.007,212.388,74.083z"/>
	</g>
	<g>
		<path style="fill:#FFFF9C;stroke:#E0E075;stroke-width:1.2117;stroke-linecap:round;stroke-linejoin:round;" d="M278.56,67.238
			l3.541,0.127c0,0,2.685-2.986,4.354-1.375c1.362,1.312-0.566,3.162,0.13,4.449c0.365,0.676,2.737,1.619,2.737,1.619
			C295.998,61.647,280.328,58.163,278.56,67.238z"/>
	</g>
	<g>
		<path style="fill:#FFFF9C;stroke:#E0E075;stroke-width:1.2117;stroke-linecap:round;stroke-linejoin:round;" d="M300.159,80.033
			l-0.548-3.501c0,0-3.442-2.067-2.178-4.014c1.029-1.587,3.212-0.045,4.343-0.974c0.595-0.486,1.069-2.995,1.069-2.995
			C291.355,63.976,290.913,80.021,300.159,80.033z"/>
	</g>
	<g>
		<path style="fill:#FFFF9C;stroke:#E0E075;stroke-width:1.2117;stroke-linecap:round;stroke-linejoin:round;" d="M206.016,109.527
			l0.349-3.526c0,0-2.812-2.866-1.1-4.432c1.395-1.277,3.12,0.764,4.448,0.148c0.698-0.321,1.788-2.63,1.788-2.63
			C201.527,91.773,197.069,107.193,206.016,109.527z"/>
	</g>
	<g>
		<path style="fill:#FFFF9C;stroke:#E0E075;stroke-width:1.2117;stroke-linecap:round;stroke-linejoin:round;" d="M285.883,128.774
			l-3.221,1.478c0,0-1.055,3.874-3.271,3.186c-1.807-0.559-0.915-3.078-2.116-3.914c-0.629-0.441-3.172-0.217-3.172-0.217
			C272.82,141.608,288.383,137.676,285.883,128.774z"/>
	</g>
	<path style="fill:#FFFF9C;stroke:#E0E075;stroke-width:1.2117;stroke-linecap:round;stroke-linejoin:round;" d="M237.467,128.264
		c2.868,0.543,3.677-5.187,3.027-7.17c-0.944-2.838-4.461-4.684-7.226-4.92c-4.298-0.372-10.706,3.959-8.154,8.862
		c1.277,0.009,2.608,0.354,3.771,0.136c0.245-1.959,1.21-5.594,4.06-4.98c2.646,0.572,1.213,4.591,0.101,6.293
		c1.147,0.938,2.664,1.225,4.121,1.682"/>
	<path style="fill:#FFFF9C;stroke:#E0E075;stroke-width:1.2117;stroke-linecap:round;stroke-linejoin:round;" d="M246.002,52.645
		c0.34-2.903,6.048-1.959,7.745-0.744c2.425,1.747,3.133,5.656,2.537,8.364c-0.93,4.217-6.978,9.033-10.896,5.134
		c0.372-1.222,0.442-2.597,0.997-3.641c1.941,0.356,5.7,0.519,5.966-2.381c0.244-2.702-4.019-2.534-5.975-1.979
		c-0.555-1.375-0.372-2.909-0.375-4.438"/>
	<path style="fill:#FFFF9C;stroke:#E0E075;stroke-width:1.2117;stroke-linecap:round;stroke-linejoin:round;" d="M261.18,81.497
		c2.853,0.62,3.82-5.083,3.222-7.083c-0.864-2.865-4.328-4.806-7.087-5.119c-4.286-0.49-10.812,3.661-8.396,8.632
		c1.275,0.05,2.6,0.428,3.768,0.245c0.295-1.956,1.363-5.562,4.192-4.868c2.632,0.646,1.089,4.623-0.07,6.293
		c1.121,0.971,2.631,1.295,4.071,1.794"/>
	<path style="fill:#FFFF9C;stroke:#E0E075;stroke-width:1.2117;stroke-linecap:round;stroke-linejoin:round;" d="M317.104,90.968
		c2.853,0.62,3.82-5.083,3.222-7.083c-0.864-2.865-4.328-4.806-7.087-5.119c-4.286-0.49-10.812,3.661-8.396,8.632
		c1.275,0.05,2.6,0.428,3.768,0.245c0.295-1.956,1.363-5.562,4.192-4.868c2.632,0.646,1.089,4.623-0.07,6.293
		c1.121,0.971,2.631,1.295,4.071,1.794"/>
	<path style="fill:none;stroke:#63C5DC;stroke-width:1.2117;" d="M355.005,80.129c0,31.847-38.082,57.666-85.053,57.666
		c-46.974,0-85.056-25.818-85.056-57.666c0-31.845,38.082-57.666,85.056-57.666C316.923,22.464,355.005,48.284,355.005,80.129z"/>
	<path style="fill:#FFFF9C;stroke:#E0E075;stroke-width:1.2117;stroke-linecap:round;stroke-linejoin:round;" d="M278.067,118.838
		l1.833-3.11c0,0,5.768,1.794,6.552-0.85c0.563-1.896-0.632-3.548-2.136-6.103l1.743-3.391c0,0,5.938,4.906,5.361,8.256
		C290.669,117.994,286.336,124.466,278.067,118.838z"/>
	<path style="fill:#FFFF9C;stroke:#E0E075;stroke-width:1.2117;stroke-linecap:round;stroke-linejoin:round;" d="M295.16,90.04
		l-3.418-1.165c0,0,0.59-6.012-2.158-6.245c-1.969-0.168-3.346,1.337-5.543,3.327l-3.674-1.021c0,0,3.604-6.809,7-6.922
		C291.783,77.87,298.998,80.804,295.16,90.04z"/>
	<path style="fill:#FFFF9C;stroke:#E0E075;stroke-width:1.2117;stroke-linecap:round;stroke-linejoin:round;" d="M290.931,45.907
		l2.652,2.451c0,0-2.979,5.256-0.562,6.584c1.731,0.952,3.602,0.136,6.416-0.792l2.944,2.423c0,0-6.058,4.761-9.206,3.486
		C289.079,58.4,283.675,52.792,290.931,45.907z"/>
	<path style="fill:#FFFF9C;stroke:#E0E075;stroke-width:1.2117;stroke-linecap:round;stroke-linejoin:round;" d="M331.092,69.632
		l2.652,2.451c0,0-2.979,5.256-0.562,6.584c1.731,0.952,3.602,0.136,6.416-0.792l2.944,2.423c0,0-6.058,4.761-9.206,3.486
		C329.24,82.125,323.836,76.517,331.092,69.632z"/>
</g>
</svg>
