<?xml version="1.0" encoding="iso-8859-1"?>
<!-- Generator: Adobe Illustrator 13.0.0, SVG Export Plug-In . SVG Version: 6.00 Build 14948)  -->
<!DOCTYPE svg PUBLIC "-//W3C//DTD SVG 1.1//EN" "http://www.w3.org/Graphics/SVG/1.1/DTD/svg11.dtd">
<svg version="1.1" xmlns="http://www.w3.org/2000/svg" xmlns:xlink="http://www.w3.org/1999/xlink" x="0px" y="0px" width="540px"
	 height="200px" viewBox="0 0 540 200" style="enable-background:new 0 0 540 200;" xml:space="preserve">
<g id="Layer_2">
	<g>
		<rect style="fill:none;" width="540" height="200"/>
		<rect style="fill:#FFFFFF;" width="540" height="200"/>
	</g>
</g>
<g id="Layer_4">
	<g>
		<g>
			<path style="fill:#FFFFFF;stroke:#000000;stroke-width:0.8649;stroke-linejoin:round;" d="M246.068,169.261
				c0.242-1.69,0.522-3.37,0.822-4.871c0.454-2.271,1.097-5.203,1.344-7.542"/>
			<path style="fill:#FFFFFF;stroke:#000000;stroke-width:0.8649;stroke-linejoin:round;" d="M241.489,157.562
				c0.137,2.444,0.236,4.883,0.569,7.329c0.541,4.051-0.091,7.998-0.847,11.957c1.009,0.178,3.169,0.225,4.159,0.225
				c0-2.001,0.28-4.918,0.698-7.812"/>
			<path style="fill:#FFFFFF;stroke:#000000;stroke-width:0.8649;stroke-linecap:round;" d="M246.068,131.861
				c0.599,0.193,3.26-1.765,3.89-1.511c2.683,1.097,4.461,3.216,5.651,5.765"/>
			<path style="fill:#FFFFFF;stroke:#000000;stroke-width:0.8649;stroke-linecap:round;" d="M212.183,131.01
				c2.814-1.21,6.894,0.044,9.997,0.192c5.116,0.253,10-1.259,15.225-0.77c3.2,0.297,5.795,0.522,8.664,1.429"/>
			<path style="fill:#FFFFFF;stroke:#000000;stroke-width:0.8649;" d="M211.006,156.199c0.495,0.453,3.881,0.643,5.272,1.022
				c1.718,0.472,3.265,0.975,5.08,0.923c2.366-0.06,4.947-0.609,7.209-0.588c1.394,0.005,3.266,0.562,4.505,0.005"/>
			<path style="fill:#FFFFFF;stroke:#F9C6C3;stroke-width:0.8649;stroke-linecap:round;stroke-linejoin:round;" d="M233.073,157.37
				c1.011,2.622,0.292,5.194,2.892,6.865c0.091,1.507-0.247,3.315,0.473,4.621c0.918-0.828,1.732-2.613,1.116-3.807
				c0.017,1.077-0.472,3.84,1.149,3.611c0.544-1.215,0.418-2.501,0.423-3.815c0,0.594,0.043,2.646,0.371,3.073
				c1.229,1.545,0.992-1.936,0.995-2.693c-0.033,1.047-0.115,2.188,0.44,3.046c0.836-0.71,1.174-2.622,0.729-3.318
				c-0.041,1.273,0.325,2.471,0.228,3.714c1.457-0.022,0.443-2.271,0.753-3.296c0.384-1.284,0.874-1.075,1.564-2.339
				c0.998-1.854,0.555-4.267,1.143-6.229c-0.371-0.137-0.33,0.127-0.561,0.368"/>
			<path style="fill:#FFFFFF;stroke:#000000;stroke-width:0.8649;stroke-linecap:round;stroke-linejoin:round;" d="M246.068,157.826
				c-1.38-3.117-2.732-5.959-2.869-9.8"/>
			<path style="fill:#FFFFFF;stroke:#000000;stroke-width:0.8649;stroke-linecap:round;stroke-linejoin:round;" d="M255.527,146.369
				c-1.292,3.14-2.276,6.102-2.507,9.494c-0.365,5.53,0.074,13.854,0.427,16.574c-1.248,0.517-3.197,0.531-4.805-0.033
				c1.402-3.238,1.135-10.669,0.264-13.688c-0.555-1.921-2.13,0.715-2.836-0.89"/>
			<path d="M224.002,131.225c-0.711,1.446-2.468,2.877-2.842,4.458c-0.385,1.655,0.132,3.409,1.765,3.928
				c0.61,0.19,1.242-0.3,1.952-0.061c0.857,0.283,1.36,1.207,1.935,1.812c1.072,1.116,2.394,2.37,4.112,1.957
				c1.594-0.398,1.432-1.748,2.348-2.786c0.907-1.051,2.457-0.922,3.51-1.719c1.847-1.394,1.699-7.278-0.394-8.446"/>
			<path d="M255.527,136.276c-0.899-1.938-2.642-4.469-4.824-5.574"/>
			<path d="M251.72,131.34c-0.632,1.836-2.053,6.156-1.586,8.446c0.36,1.757,1.597,2.785,1.756,4.681
				c0.154,1.738-0.11,3.101,0.929,4.545c1.16,1.602,1.754,1.849,2.634,0.145c0.561-1.093,0.286-12.432,0.074-12.88"/>
			<path d="M233.364,146.875c-3.128,0.709-5.729,3.931-1.578,5.841c-1.125,1.377-2.243,3.686,0.011,4.901
				c2.372,1.278,4.563-1.405,5.854-2.936c0.841-0.989,1.545-1.698,2.738-2.196c0.78-0.321,1.844-0.217,2.303-0.976
				c1.644-2.737-5.5-5.809-6.987-3.271"/>
			<path d="M206.785,134.819c-0.258-0.384,0.126,0.616,0.313,1.298c1.908,1.627,5.269-0.874,5.552-3.01
				c0.473-3.571-2.735-0.189-4.851-0.179C207.774,133.671,207.428,134.3,206.785,134.819"/>
			<path style="fill:#FFFFFF;stroke:#000000;stroke-width:0.8649;stroke-linejoin:round;" d="M204.641,142.417
				c-0.134-0.1-2.301,1.526-2.18,1.545c-0.168,2.127,1.261,5.527,1.517,7.657c0.324,2.675,0.904,5.394,0.981,8.103
				c0.146,5.408-1.828,10.951-1.828,16.025c0.882,0.033,4.038,0.033,4.912,0c-0.16-2.509-1.05-3.875-0.94-5.882
				c0.143-2.595,0.121-4.931,1.017-7.664c0.315-0.967,1.583-2.209,1.451-3.74c-1.663-5.082-3.233-9.39-3.233-12.654
				c0,5.291,3.725,12.08,4.277,17.311c0.27,2.526,0.435,4.98,0.583,7.526c0.094,1.612,0.451,3.99-0.302,5.942
				c1.226,0.332,3.658-0.062,4.755,0.267c-0.954-3.964-1.556-8.687-1.116-12.326c1.033-8.55,4.519-9.598,4.519-14.995"/>
			<path d="M212.436,150.042c-0.198-1.539-0.044-3.662,1.584-3.662c6.388,0,3.273,2.947,5.788,4.25
				c2.491,1.286,4.011,2.897,2.54,6.198c-1.138,2.562-4.541,0.195-6.399-0.148c-1.517-0.283-2.425,0.189-3.282-1.416
				c-0.572-1.104-0.599-2.896-0.231-4.051"/>
			<path style="fill:#FFFFFF;stroke:#000000;stroke-width:0.8649;stroke-linecap:round;stroke-linejoin:round;" d="M194.762,132.444
				c-0.885,0.095-1.677,0.111-2.383,0.025"/>
			<path style="fill:#FFFFFF;stroke:#000000;stroke-width:0.8649;stroke-linecap:round;stroke-linejoin:round;" d="M206.988,132.956
				c8.345,0.259,9.01-9.225,5.707-12.814c-1.265,4.041,0.615,7.609-6.585,8.475"/>
			<path style="fill:#FFFFFF;stroke:#000000;stroke-width:0.8649;stroke-linecap:round;stroke-linejoin:round;" d="M193.762,132.519
				c-8.346,0.262-9.01-9.224-5.712-12.811c1.27,4.04,0.308,7.811,7.512,8.68"/>
			<path style="fill:#FFFFFF;stroke:#000000;stroke-width:0.8649;stroke-linecap:round;stroke-linejoin:round;" d="M195.562,128.388
				c4.095-1.819,7.594-1.93,10.547,0.229"/>
			<path style="fill:#FFFFFF;stroke:#000000;stroke-width:0.8649;stroke-linecap:round;stroke-linejoin:round;" d="M193.932,131.799
				c-0.544,0.909,0.066,5.588,0.814,7.19c1,2.155,1.242,5.665,2.49,7.677c2.663-0.266,4.354,0.396,7.066-0.225
				c0.196-2.702,2.386-5.547,2.348-8.24c-0.017-1.455,0.476-5,1.259-5.839"/>
			<path style="fill:#734608;" d="M205.943,132.937c-2.358,0.586,0.517,3.478,1.369,2.007
				C207.936,133.868,207.232,133.102,205.943,132.937"/>
			<path style="fill:#734608;" d="M194.982,132.937c2.364,0.586-0.511,3.478-1.363,2.007
				C192.989,133.868,193.693,133.102,194.982,132.937"/>
			<path style="fill:#FFFFFF;stroke:#000000;stroke-width:0.8649;" d="M197.994,144.721c-0.742,0.478-0.935,2.433,0.753,2.146
				c1.688-0.291,0.181-2.234-1.567-1.95"/>
			<path style="fill:#FFFFFF;stroke:#000000;stroke-width:0.8649;" d="M202.862,145.314c-1.575-0.357-1.537,1.824,0.772,1.357
				c0.217-0.726-0.242-1.03-1.039-1.357"/>
			<path d="M206.713,136.969c0.025,0.062-0.283-0.398-0.456-0.343c-1.133-0.503-2.293-1.894-3.796-1.691
				c-2.284,0.319-0.404,1.771-0.365,2.71c0.019,0.666-0.588,0.93-0.616,1.575c-0.021,0.542,0.432,0.948,0.857,1.301
				c1.056,0.88,2.392,0.921,3.147,1.984"/>
			<path style="fill:none;stroke:#F0D036;stroke-width:0.8649;stroke-linecap:round;stroke-linejoin:round;" d="M202.321,146.105
				c4.349,2.661-8.307,4.986-3.788,0"/>
			
				<path style="fill:none;stroke:#65C5DC;stroke-width:0.8649;stroke-linecap:round;stroke-linejoin:round;stroke-dasharray:5.144,5.144;" d="
				M208.884,81.227c0.047-0.415,0.094-0.78,0.135-1.077"/>
			
				<path style="fill:none;stroke:#65C5DC;stroke-width:0.8649;stroke-linecap:round;stroke-linejoin:round;stroke-dasharray:5.144,5.144;" d="
				M236.701,95.803c-1.621-1.267-5.646-3.293-7.454-6.226c2.364-0.483,3.655-1.804,3.332-4.102c-2.845,1.471-4.337,5.52-5.563,8.447
				c-0.237-7.518-2.661-14.885,0.038-22.344c2.072,4.015,2.628,23.115-4.602,23.759c-6.806,0.6-7.806-18.616-3.628-22.115
				c4.64,3.708,3.558,15.65-1.247,19.04c-5.338,3.757-7.966,1.322-8.455-4.33"/>
			
				<path style="fill:none;stroke:#65C5DC;stroke-width:0.8649;stroke-linecap:round;stroke-linejoin:round;stroke-dasharray:5.144,5.144;" d="
				M187.687,96.954c-1.976-5.041-0.451-11.303,2.881-15.079c2.166,1.979,1.533,8.273,2.182,11.053
				c0.212-3.082,0.212-7.716,3.04-9.305c2.028,2.254,3.133,6.045,2.721,9.071c-0.448-1.628-1.6-7.686,1.28-7.938
				c2.21-0.195,2.507,5.118,3.464,6.448c3.523,4.89,6.481,2.537,5.866-3.271"/>
			
				<rect x="182.643" y="64.195" style="fill:none;stroke:#1C78B1;stroke-width:1.7299;stroke-linecap:round;stroke-linejoin:round;" width="63.425" height="119.363"/>
			<path style="fill:none;stroke:#1C78B1;stroke-width:1.7299;stroke-linecap:round;stroke-linejoin:round;" d="M182.643,64.195
				c9.131-9.128,29.88-30.881,29.88-41.746c0,10.752,23.749,32.429,33.545,41.746"/>
			<path style="fill:none;stroke:#1C78B1;stroke-width:0.8649;stroke-linecap:round;stroke-linejoin:round;" d="M182.643,64.195
				c7.457-3.993,25.15-16.211,29.88-16.211c3.898,0,32.127,15.923,33.545,16.211"/>
			<path style="fill:none;stroke:#1C78B1;stroke-width:0.8649;stroke-linecap:round;stroke-linejoin:round;" d="M212.523,22.449
				c0,10.568,0,15.31,0,25.244"/>
			
				<line style="fill:none;stroke:#1C78B1;stroke-width:1.7299;stroke-linecap:round;stroke-linejoin:round;" x1="255.606" y1="53.771" x2="255.606" y2="173.136"/>
			
				<line style="fill:none;stroke:#1C78B1;stroke-width:1.7299;stroke-linecap:round;stroke-linejoin:round;" x1="246.068" y1="183.559" x2="255.606" y2="173.136"/>
			<path style="fill:none;stroke:#1C78B1;stroke-width:1.7299;stroke-linecap:round;stroke-linejoin:round;" d="M224.156,15.512
				c0,10.505,21.66,28.943,31.45,38.259"/>
			
				<line style="fill:none;stroke:#1C78B1;stroke-width:1.7299;stroke-linecap:round;stroke-linejoin:round;" x1="246.068" y1="64.195" x2="255.606" y2="53.771"/>
			
				<line style="fill:none;stroke:#1C78B1;stroke-width:1.7299;stroke-linecap:round;stroke-linejoin:round;" x1="212.523" y1="22.449" x2="224.156" y2="15.512"/>
			
				<line style="fill:none;stroke:#1C78B1;stroke-width:0.8649;stroke-linecap:round;stroke-linejoin:round;" x1="213.736" y1="28.351" x2="225.162" y2="20.894"/>
		</g>
		<g>
			<path style="fill:#FFFFFF;" d="M295.685,137.138c1.383,3.07,8.167,28.869,8.395,34.226c0.075,1.688,1.649,7.716,2.277,9.067
				c0.448,0.958,0.637,1.316,1.57,1.668c0.933,0.346,1.903,0.691,2.873,1.021c1.697,0.573,17.359,1.337,19.038,1.367
				c1.337,0.024,14.543-2.796,15.854-3.263c1.051-0.369,1.518-6.057,2.222-9.002c0.624-2.571,4.632-34.142,4.982-35.033
				c0.031,0.202-0.114,0.243-0.151,0.406"/>
			<path style="fill:#FFFFFF;stroke:#C2DDE3;stroke-width:0.763;" d="M295.449,136.316c0.597,0.272,0.385,0.552,1.455,0.788
				c6.038,1.316,19.928,2.485,27.628,2.485c7.555,0,22.49-1.509,27.22-2.346c0.945-0.164,1.419-0.807,1.4-0.896
				c-0.497-0.104-0.922,0.178-1.425,0.178c-3.142,0-17.506-0.604-26.719-0.604c-7.973,0-19.099,0.413-27.966,0.413
				C295.844,136.335,296.286,136.131,295.449,136.316"/>
			<path style="fill:none;stroke:#1C78B1;stroke-width:2.3257;stroke-linecap:round;stroke-linejoin:round;" d="M288.895,123.711
				c4.43,4.712,5.064,9.659,6.803,13.13c2.445,4.896,6.936,24.855,7.803,30.318c0.746,4.724,0.913,11.583,2.769,14.043
				c1.918,2.561,13.256,2.958,21.489,2.958c7.052,0,15.812-0.667,17.935-2.936c1.693-1.803,3.082-9.609,3.573-13.947
				c0.583-5.056,3.031-25.192,3.911-30.228c0.77-4.341,1.666-10.39,3.201-14.418c-6.458,1.558-20.125,3.257-30.189,3.381
				C313.638,126.179,298.143,125.16,288.895,123.711c-0.079-5.274,22.919-9.855,33.37-9.855c10.72,0,22.949,0.74,27.977,2.63
				c1.916,0.721,9.854,3.733,6.137,6.146"/>
		</g>
	</g>
</g>
</svg>
