<?xml version="1.0" encoding="iso-8859-1"?>
<!-- Generator: Adobe Illustrator 15.0.2, SVG Export Plug-In . SVG Version: 6.00 Build 0)  -->
<!DOCTYPE svg PUBLIC "-//W3C//DTD SVG 1.1//EN" "http://www.w3.org/Graphics/SVG/1.1/DTD/svg11.dtd">
<svg version="1.1" xmlns="http://www.w3.org/2000/svg" xmlns:xlink="http://www.w3.org/1999/xlink" x="0px" y="0px" width="378px"
	 height="140px" viewBox="0 0 378 140" style="enable-background:new 0 0 378 140;" xml:space="preserve">
<g id="Layer_2">
	<rect x="3.723" y="0.982" style="fill:#FFFFFF;" width="374.276" height="138.622"/>
</g>
<g id="horizon">
	<path style="fill:none;stroke:#76C151;stroke-width:0.6931;" d="M5.455,75.145c2.665,0.072,42.798-1.084,51.98-1.732
		c11.325-0.799,54.96-1.742,75.205-1.742c28.229,0,156.073,1.433,169.116,1.397c12.473-0.034,68.081,2.944,75.03,2.944"/>
</g>
<g id="Layer_5">
	<path style="fill:#FFFFFF;stroke:#868881;stroke-width:1.3862;stroke-linecap:round;stroke-linejoin:round;" d="M149.889,43.674
		c0,10.041,6.226,18.178,13.879,18.178c7.658,0,13.888-8.137,13.888-18.178c0-10.037-6.229-18.176-13.888-18.176
		C156.114,25.498,149.889,33.637,149.889,43.674z"/>
	<path style="fill:none;stroke:#868881;stroke-width:1.3862;stroke-linecap:round;stroke-linejoin:round;" d="M163.425,62.574
		c0.064,12.688-1.707,50.205,0.722,62.384c1.191,5.954,2.02,7.661,2.17,10.484"/>
	<path style="fill:none;stroke:#F04E2C;stroke-width:0.6931;" d="M145.781,29.06"/>
	<path d="M187.271,38.009c-0.152-0.642-0.125-1.514-0.099-2.357c0.03-0.946,0.056-1.913-0.147-2.707
		c0.063-0.165,0.102-0.341,0.102-0.528c0-0.608-0.367-1.129-0.891-1.357c0.447-3.312,0.169-7.943-3.074-9.425
		c-4.435-2.028-9.473-3.984-13.213-3.12c-1.853,0.429-3.645,1.295-5.183,2.479c-0.214-0.065-0.45-0.104-0.7-0.104
		c-0.771,0-1.417,0.352-1.642,0.836l-16.93-0.505c-0.346,0.007-0.702,0.289-0.713,0.672c-0.011,0.382,0.29,0.702,0.672,0.713
		l7.675,0.229c-0.358,2.191-1.435,9.26-0.568,10.126c1.026,1.026,21.654,2.091,22.876,0.869c1.29-1.29,0.96-8.364,0.844-10.304
		l6.323,0.189h0.021c0.373,0,0.681-0.296,0.692-0.672c0.011-0.382-0.29-0.702-0.672-0.713l-16.893-0.504
		c-0.057-0.174-0.17-0.332-0.323-0.468c1.404-1.03,3.015-1.783,4.676-2.167c3.541-0.818,8.44,1.096,12.769,3.074
		c2.877,1.316,3.099,5.588,2.679,8.682c-0.686,0.044-1.244,0.551-1.359,1.216c-0.001,0.001-0.002,0.001-0.003,0.002
		c-0.52,0.699-0.814,2.169-1.1,3.592c-0.179,0.892-0.348,1.734-0.542,2.199c-0.074,0.177,0.009,0.379,0.186,0.454
		c0.044,0.018,0.089,0.027,0.134,0.027c0.135,0,0.264-0.08,0.32-0.213c0.03-0.073,0.058-0.166,0.087-0.251
		c0.022,0.108,0.089,0.206,0.2,0.252c0.043,0.018,0.089,0.027,0.134,0.027c0.135,0,0.264-0.08,0.32-0.213
		c0.225-0.538,0.516-2.14,0.518-2.152c0,0.019,0,0.039,0.001,0.058c0.024,0.979,0.048,1.992-0.134,2.556
		c-0.059,0.182,0.041,0.377,0.223,0.437c0.036,0.012,0.072,0.017,0.107,0.017c0.146,0,0.282-0.093,0.33-0.24
		c0.219-0.676,0.138-3.505,0.205-4.119c0.02,0.006,0.512,3.311,0.259,3.869c-0.079,0.175-0.001,0.38,0.173,0.459
		c0.046,0.021,0.095,0.031,0.143,0.031c0.132,0,0.258-0.076,0.316-0.204c0.096-0.213,0.145-0.466,0.171-0.737
		c0.027,0.144,0.05,0.304,0.081,0.434c0.038,0.16,0.18,0.267,0.337,0.267c0.026,0,0.053-0.003,0.08-0.009
		c0.139-0.033,0.237-0.145,0.261-0.276c0.005-0.001,0.011,0,0.016-0.002C187.2,38.382,187.315,38.195,187.271,38.009z"/>
	<path style="fill:#FFFFFF;stroke:#868881;stroke-width:1.3862;stroke-linecap:round;stroke-linejoin:round;" d="M198.417,43.674
		c0,10.041,6.226,18.178,13.878,18.178c7.659,0,13.889-8.137,13.889-18.178c0-10.037-6.229-18.176-13.889-18.176
		C204.643,25.498,198.417,33.637,198.417,43.674z"/>
	<path style="fill:none;stroke:#868881;stroke-width:1.3862;stroke-linecap:round;stroke-linejoin:round;" d="M211.953,62.574
		c0.064,12.688-1.707,50.205,0.722,62.384c1.19,5.954,2.02,7.661,2.17,10.484"/>
	<path style="fill:none;stroke:#F04E2C;stroke-width:0.6931;" d="M194.31,29.06"/>
	<path style="fill:#FFFFFF;stroke:#868881;stroke-width:1.3862;stroke-linecap:round;stroke-linejoin:round;" d="M242.365,43.674
		c0,10.041,6.226,18.178,13.879,18.178c7.658,0,13.889-8.137,13.889-18.178c0-10.037-6.23-18.176-13.889-18.176
		C248.591,25.498,242.365,33.637,242.365,43.674z"/>
	<path style="fill:none;stroke:#868881;stroke-width:1.3862;stroke-linecap:round;stroke-linejoin:round;" d="M255.901,62.574
		c0.065,12.688-1.707,50.205,0.722,62.384c1.191,5.954,2.02,7.661,2.171,10.484"/>
	<path style="fill:none;stroke:#F04E2C;stroke-width:0.6931;" d="M238.258,29.06"/>
	<path style="fill:#FFFFFF;stroke:#868881;stroke-width:1.3862;stroke-linecap:round;stroke-linejoin:round;" d="M279.905,43.674
		c0,10.041,6.225,18.178,13.878,18.178c7.659,0,13.889-8.137,13.889-18.178c0-10.037-6.229-18.176-13.889-18.176
		C286.13,25.498,279.905,33.637,279.905,43.674z"/>
	<path style="fill:none;stroke:#868881;stroke-width:1.3862;stroke-linecap:round;stroke-linejoin:round;" d="M293.441,62.574
		c0.064,12.688-1.707,50.205,0.721,62.384c1.191,5.954,2.021,7.661,2.171,10.484"/>
	<path d="M236.085,38.009c-0.151-0.642-0.125-1.514-0.099-2.357c0.029-0.946,0.055-1.913-0.148-2.707
		c0.064-0.165,0.102-0.341,0.102-0.528c0-0.608-0.366-1.129-0.891-1.357c0.447-3.312,0.17-7.943-3.073-9.425
		c-4.435-2.028-9.474-3.984-13.214-3.12c-1.853,0.429-3.645,1.295-5.183,2.479c-0.214-0.065-0.45-0.104-0.7-0.104
		c-0.771,0-1.417,0.352-1.641,0.836l-16.93-0.505c-0.347,0.007-0.703,0.289-0.714,0.672c-0.011,0.382,0.29,0.702,0.673,0.713
		l7.675,0.229c-0.358,2.191-1.435,9.26-0.567,10.126c1.025,1.026,21.654,2.091,22.875,0.869c1.29-1.29,0.961-8.364,0.844-10.304
		l6.324,0.189h0.021c0.373,0,0.681-0.296,0.692-0.672c0.012-0.382-0.289-0.702-0.672-0.713l-16.893-0.504
		c-0.057-0.174-0.171-0.332-0.324-0.468c1.404-1.03,3.016-1.783,4.676-2.167c3.541-0.818,8.441,1.096,12.77,3.074
		c2.877,1.316,3.099,5.588,2.679,8.682c-0.686,0.044-1.243,0.551-1.359,1.216c-0.001,0.001-0.003,0.001-0.003,0.002
		c-0.52,0.699-0.814,2.169-1.1,3.592c-0.18,0.892-0.349,1.734-0.543,2.199c-0.074,0.177,0.01,0.379,0.186,0.454
		c0.045,0.018,0.09,0.027,0.135,0.027c0.135,0,0.264-0.08,0.319-0.213c0.03-0.073,0.058-0.166,0.087-0.251
		c0.021,0.108,0.09,0.206,0.199,0.252c0.044,0.018,0.09,0.027,0.135,0.027c0.135,0,0.264-0.08,0.319-0.213
		c0.226-0.538,0.516-2.14,0.519-2.152c0,0.019,0,0.039,0,0.058c0.024,0.979,0.049,1.992-0.134,2.556
		c-0.06,0.182,0.04,0.377,0.223,0.437c0.036,0.012,0.071,0.017,0.106,0.017c0.146,0,0.283-0.093,0.33-0.24
		c0.219-0.676,0.139-3.505,0.205-4.119c0.02,0.006,0.512,3.311,0.259,3.869c-0.079,0.175-0.001,0.38,0.173,0.459
		c0.047,0.021,0.096,0.031,0.143,0.031c0.133,0,0.258-0.076,0.316-0.204c0.096-0.213,0.145-0.466,0.172-0.737
		c0.026,0.144,0.049,0.304,0.08,0.434c0.038,0.16,0.18,0.267,0.337,0.267c0.026,0,0.054-0.003,0.08-0.009
		c0.139-0.033,0.237-0.145,0.261-0.276c0.006-0.001,0.012,0,0.017-0.002C236.014,38.382,236.129,38.195,236.085,38.009z"/>
	<path d="M279.307,38.009c-0.151-0.642-0.125-1.514-0.099-2.357c0.029-0.946,0.055-1.913-0.148-2.707
		c0.064-0.165,0.102-0.341,0.102-0.528c0-0.608-0.366-1.129-0.891-1.357c0.447-3.312,0.17-7.943-3.073-9.425
		c-4.435-2.028-9.474-3.984-13.214-3.12c-1.853,0.429-3.645,1.295-5.183,2.479c-0.214-0.065-0.45-0.104-0.7-0.104
		c-0.771,0-1.417,0.352-1.641,0.836l-16.93-0.505c-0.347,0.007-0.703,0.289-0.714,0.672c-0.011,0.382,0.29,0.702,0.673,0.713
		l7.675,0.229c-0.358,2.191-1.435,9.26-0.567,10.126c1.025,1.026,21.654,2.091,22.875,0.869c1.29-1.29,0.961-8.364,0.844-10.304
		l6.324,0.189h0.021c0.373,0,0.681-0.296,0.692-0.672c0.012-0.382-0.289-0.702-0.672-0.713l-16.893-0.504
		c-0.057-0.174-0.171-0.332-0.324-0.468c1.404-1.03,3.016-1.783,4.676-2.167c3.541-0.818,8.441,1.096,12.77,3.074
		c2.877,1.316,3.099,5.588,2.679,8.682c-0.686,0.044-1.243,0.551-1.359,1.216c-0.001,0.001-0.003,0.001-0.003,0.002
		c-0.52,0.699-0.814,2.169-1.1,3.592c-0.18,0.892-0.349,1.734-0.543,2.199c-0.074,0.177,0.01,0.379,0.186,0.454
		c0.045,0.018,0.09,0.027,0.135,0.027c0.135,0,0.264-0.08,0.319-0.213c0.03-0.073,0.058-0.166,0.087-0.251
		c0.021,0.108,0.09,0.206,0.199,0.252c0.044,0.018,0.09,0.027,0.135,0.027c0.135,0,0.264-0.08,0.319-0.213
		c0.226-0.538,0.516-2.14,0.519-2.152c0,0.019,0,0.039,0,0.058c0.024,0.979,0.049,1.992-0.134,2.556
		c-0.06,0.182,0.04,0.377,0.223,0.437c0.036,0.012,0.071,0.017,0.106,0.017c0.146,0,0.283-0.093,0.33-0.24
		c0.219-0.676,0.139-3.505,0.205-4.119c0.02,0.006,0.512,3.311,0.259,3.869c-0.079,0.175-0.001,0.38,0.173,0.459
		c0.047,0.021,0.096,0.031,0.143,0.031c0.133,0,0.258-0.076,0.316-0.204c0.096-0.213,0.145-0.466,0.172-0.737
		c0.026,0.144,0.049,0.304,0.08,0.434c0.038,0.16,0.18,0.267,0.337,0.267c0.026,0,0.054-0.003,0.08-0.009
		c0.139-0.033,0.237-0.145,0.261-0.276c0.006-0.001,0.012,0,0.017-0.002C279.235,38.382,279.351,38.195,279.307,38.009z"/>
	<path d="M317.573,38.009c-0.151-0.642-0.125-1.514-0.099-2.357c0.029-0.946,0.055-1.913-0.148-2.707
		c0.064-0.165,0.102-0.341,0.102-0.528c0-0.608-0.366-1.129-0.891-1.357c0.447-3.312,0.17-7.943-3.073-9.425
		c-4.435-2.028-9.474-3.984-13.214-3.12c-1.853,0.429-3.645,1.295-5.183,2.479c-0.214-0.065-0.45-0.104-0.7-0.104
		c-0.771,0-1.417,0.352-1.641,0.836l-16.93-0.505c-0.347,0.007-0.703,0.289-0.714,0.672c-0.011,0.382,0.29,0.702,0.673,0.713
		l7.675,0.229c-0.358,2.191-1.435,9.26-0.567,10.126c1.025,1.026,21.654,2.091,22.875,0.869c1.29-1.29,0.961-8.364,0.844-10.304
		l6.324,0.189h0.021c0.373,0,0.681-0.296,0.692-0.672c0.012-0.382-0.289-0.702-0.672-0.713l-16.893-0.504
		c-0.057-0.174-0.171-0.332-0.324-0.468c1.404-1.03,3.016-1.783,4.676-2.167c3.541-0.818,8.441,1.096,12.77,3.074
		c2.877,1.316,3.099,5.588,2.679,8.682c-0.686,0.044-1.243,0.551-1.359,1.216c-0.001,0.001-0.003,0.001-0.003,0.002
		c-0.52,0.699-0.814,2.169-1.1,3.592c-0.18,0.892-0.349,1.734-0.543,2.199c-0.074,0.177,0.01,0.379,0.186,0.454
		c0.045,0.018,0.09,0.027,0.135,0.027c0.135,0,0.264-0.08,0.319-0.213c0.03-0.073,0.058-0.166,0.087-0.251
		c0.021,0.108,0.09,0.206,0.199,0.252c0.044,0.018,0.09,0.027,0.135,0.027c0.135,0,0.264-0.08,0.319-0.213
		c0.226-0.538,0.516-2.14,0.519-2.152c0,0.019,0,0.039,0,0.058c0.024,0.979,0.049,1.992-0.134,2.556
		c-0.06,0.182,0.04,0.377,0.223,0.437c0.036,0.012,0.071,0.017,0.106,0.017c0.146,0,0.283-0.093,0.33-0.24
		c0.219-0.676,0.139-3.505,0.205-4.119c0.02,0.006,0.512,3.311,0.259,3.869c-0.079,0.175-0.001,0.38,0.173,0.459
		c0.047,0.021,0.096,0.031,0.143,0.031c0.133,0,0.258-0.076,0.316-0.204c0.096-0.213,0.145-0.466,0.172-0.737
		c0.026,0.144,0.049,0.304,0.08,0.434c0.038,0.16,0.18,0.267,0.337,0.267c0.026,0,0.054-0.003,0.08-0.009
		c0.139-0.033,0.237-0.145,0.261-0.276c0.006-0.001,0.012,0,0.017-0.002C317.502,38.382,317.617,38.195,317.573,38.009z"/>
</g>
<g id="Layer_4">
	<path style="fill:none;stroke:#868881;stroke-width:1.3862;stroke-linecap:round;stroke-linejoin:round;" d="M112.237,79.873
		c5.81,8.356,12.005-5.939,12.005-12.183s-3.326-32.003-2.568-37.693"/>
	<path style="fill:#FFFFFF;stroke:#868881;stroke-width:1.3862;stroke-linecap:round;stroke-linejoin:round;" d="M121.674,29.997
		c3.664-4.216,4.264-11.161,4.259-17.318c-1.667,4.521-2.997,5.851-3.021,7.377c-0.063-1.041-0.395-8.14-0.601-9.082
		c-0.675,0.979-1.84,7.898-1.71,9.171c-0.206-1.297-0.376-6.99-1.16-8.003c-0.469,1.323,0.232,16.639-4.524,5.183
		c1.195,6.956,4.783,12.109,6.266,12.951"/>
	<path style="fill:#FFFFFF;stroke:#868881;stroke-width:2.7724;stroke-linecap:round;stroke-linejoin:round;" d="M120.72,70.014
		c-2.363,2.357-5.308,3.757-8.507,3.746c-7.842-0.027-14.177-8.374-14.141-18.652c0.036-10.27,6.43-18.574,14.271-18.547
		c7.849,0.027,13.952,8.215,13.994,18.485c0.016,3.604-0.752,6.985-2.093,9.854"/>
	<path style="fill:none;stroke:#868881;stroke-width:2.7724;stroke-linecap:round;stroke-linejoin:round;" d="M112.211,74.439
		c-0.029,3.271,0.065,8.307,0.172,14.125l0.168,10.441c0.055,4.301,0.083,8.7,0.051,12.901c-0.066,8.61,0.038,16.325-0.833,20.655
		c-0.223,1.117-0.469,2.062-0.731,2.88"/>
	<g>
		<path style="fill:none;stroke:#868881;stroke-width:1.3862;stroke-linecap:round;stroke-linejoin:round;" d="M112.237,79.873
			c-5.811,8.356-7.053,7.789-9.135,3.627c-2.793-5.582,0.956-29.269,0.198-34.958"/>
		<path style="fill:#FFFFFF;stroke:#868881;stroke-width:1.3862;stroke-linecap:round;stroke-linejoin:round;" d="M103.792,48.264
			c3.665-4.215,4.265-11.16,4.259-17.318c-1.667,4.52-2.998,5.852-3.021,7.377c-0.063-1.041-0.395-8.141-0.602-9.082
			c-0.673,0.979-1.84,7.898-1.709,9.172c-0.207-1.298-0.376-6.992-1.16-8.004c-0.469,1.324,0.233,16.639-4.524,5.184
			c1.195,6.955,4.783,12.109,6.265,12.95"/>
	</g>
	<path style="fill:none;stroke:#868881;stroke-width:1.3862;stroke-linecap:round;stroke-linejoin:round;" d="M124.153,65.082
		c-5.168,0-8.957-0.76-8.957-2.064c0,3.618,2.663,6.547,5.954,6.547"/>
	<polygon style="fill:#F5EE76;" points="85.615,39.885 85.479,39.93 85.44,40.066 85.355,39.951 85.213,39.954 85.297,39.84 
		85.25,39.705 85.385,39.748 85.498,39.662 85.498,39.805 	"/>
	<path style="fill:#FFFFFF;stroke:#868881;stroke-width:1.3862;stroke-linecap:round;stroke-linejoin:round;" d="M120.737,90.031
		c0,2.967-2.399,5.375-5.372,5.375c-2.972,0-5.387-2.408-5.387-5.375c0-2.971,2.415-5.381,5.387-5.381
		C118.338,84.65,120.737,87.061,120.737,90.031z"/>
</g>
</svg>
