<?xml version="1.0" encoding="iso-8859-1"?>
<!-- Generator: Adobe Illustrator 15.0.2, SVG Export Plug-In . SVG Version: 6.00 Build 0)  -->
<!DOCTYPE svg PUBLIC "-//W3C//DTD SVG 1.1//EN" "http://www.w3.org/Graphics/SVG/1.1/DTD/svg11.dtd">
<svg version="1.1" xmlns="http://www.w3.org/2000/svg" xmlns:xlink="http://www.w3.org/1999/xlink" x="0px" y="0px" width="378px"
	 height="140px" viewBox="0 0 378 140" style="enable-background:new 0 0 378 140;" xml:space="preserve">
<g id="Layer_2">
	<rect x="1.037" y="0.472" style="fill:#FFFFFF;" width="374.278" height="138.621"/>
</g>
<g id="D&#xE9;co_f&#xEA;te">
	<path style="fill:none;stroke:#868881;stroke-width:0.5198;stroke-linecap:round;stroke-linejoin:round;" d="M1.037,39.055
		c17.097,2.772,73.469-17.79,78.552-38.583"/>
	<path style="fill:none;stroke:#868881;stroke-width:0.5198;stroke-linecap:round;stroke-linejoin:round;" d="M54.175,1.165
		c79.938,54.062,154.794,31.883,215.788,0"/>
	<path style="fill:none;stroke:#868881;stroke-width:0.5198;stroke-linecap:round;stroke-linejoin:round;" d="M374.391,24.73
		C302.308,54.765,226.414,10.044,213.59,0.472"/>
	<polygon style="fill:#56C9EB;" points="15.796,38 29.655,34.341 27.837,50.606 	"/>
	<polygon style="fill:#93C83E;" points="-2.686,39.126 11.634,38.5 6.396,54.005 	"/>
	<polygon style="fill:#FAED00;" points="36.127,31.994 49.391,26.557 49.711,42.919 	"/>
	<polygon style="fill:#EE3C7A;" points="54.61,24.138 66.591,16.27 70.029,32.27 	"/>
	<polygon style="fill:#56C9EB;" points="230.673,19.015 243.95,13.615 244.226,29.979 	"/>
	<polygon style="fill:#93C83E;" points="213.108,24.683 226.806,20.46 225.654,36.785 	"/>
	<polygon style="fill:#FAED00;" points="250.928,10.523 263.84,4.299 265.144,20.612 	"/>
	<polygon style="fill:#00AD65;" points="72.631,11.662 80.2,-0.511 90.04,12.566 	"/>
	<polygon style="fill:#56C9EB;" points="318.448,35.351 332.739,34.25 328.017,49.921 	"/>
	<polygon style="fill:#93C83E;" points="254.809,21.682 268.337,26.419 257.714,38.87 	"/>
	<polygon style="fill:#439DD7;" points="236.3,13.653 249.393,19.488 237.78,31.021 	"/>
	<polygon style="fill:#FFF200;" points="218.026,3.554 230.448,10.708 217.709,20.983 	"/>
	<polygon style="fill:#FAED00;" points="337.96,33.91 352.129,31.737 348.601,47.719 	"/>
	<polygon style="fill:#EE3C7A;" points="276.963,28.882 290.946,32.03 281.828,45.621 	"/>
	<polygon style="fill:#FBAB37;" points="298.68,33.302 312.943,34.72 305.551,49.321 	"/>
	<polygon style="fill:#00AD65;" points="356.361,31.138 370.062,26.922 368.901,43.247 	"/>
	<polygon style="fill:#56C9EB;" points="153.951,33.904 168.277,33.46 162.842,48.898 	"/>
	<polygon style="fill:#93C83E;" points="90.607,21.244 104.331,25.928 93.311,38.934 	"/>
	<polygon style="fill:#439DD7;" points="72.755,12.434 85.612,18.771 73.562,29.846 	"/>
	<polygon style="fill:#FFF200;" points="55.134,1.766 67.277,9.381 54.161,19.17 	"/>
	<polygon style="fill:#FAED00;" points="173.463,33.015 187.631,30.842 184.103,46.824 	"/>
	<polygon style="fill:#EE3C7A;" points="110.82,27.937 124.804,31.085 115.686,44.675 	"/>
	<polygon style="fill:#FBAB37;" points="133.179,32.298 147.443,33.717 140.051,48.318 	"/>
	<polygon style="fill:#00AD65;" points="191.646,30.302 205.576,26.924 203.43,43.148 	"/>
</g>
<g id="horizon">
	<path style="fill:none;stroke:#76C151;stroke-width:0.6931;" d="M2.77,74.634c2.665,0.072,42.798-1.085,51.98-1.732
		c11.325-0.8,54.96-1.743,75.205-1.743c28.23,0,156.074,1.434,169.117,1.398c12.473-0.035,68.081,2.944,75.03,2.944"/>
</g>
<g id="Layer_5">
	<path style="fill:none;stroke:#868881;stroke-width:1.3862;stroke-linecap:round;stroke-linejoin:round;" d="M239.881,71.909
		c-0.156-0.627-9.683-17.043-9.683-24.885s0.535-19.865,5.129-26.334"/>
	<path style="fill:#FFFFFF;stroke:#868881;stroke-width:1.3862;stroke-linecap:round;stroke-linejoin:round;" d="M235.327,20.69
		c-3.559-4.306-3.979-11.264-3.821-17.421c1.553,4.562,2.849,5.927,2.835,7.453c0.089-1.04,0.601-8.128,0.831-9.065
		c0.646,0.997,1.639,7.943,1.476,9.211c0.239-1.291,0.552-6.979,1.361-7.971c0.436,1.335-0.653,16.628,4.394,5.296
		c-1.372,6.922-5.088,11.984-6.593,12.789"/>
	<path style="fill:#FFFFFF;stroke:#868881;stroke-width:1.3862;stroke-linecap:round;stroke-linejoin:round;" d="M226.615,43.163
		c0,10.041,6.226,18.178,13.879,18.178c7.658,0,13.889-8.137,13.889-18.178c0-10.037-6.23-18.175-13.889-18.175
		C232.841,24.988,226.615,33.125,226.615,43.163z"/>
	<path style="fill:none;stroke:#868881;stroke-width:1.3862;stroke-linecap:round;stroke-linejoin:round;" d="M240.151,62.064
		c0.065,12.687-1.707,50.205,0.722,62.383c1.191,5.954,2.02,7.661,2.171,10.484"/>
	<path style="fill:#F3AB1D;" d="M257.236,4.728l-2.716,31.787c-11.107,0-20.095-4.541-20.095-10.151L257.236,4.728z"/>
	<path style="fill:none;stroke:#5DCCF5;stroke-width:1.3862;stroke-linecap:round;stroke-linejoin:round;" d="M254.521,36.515
		c-11.107,0-20.095-4.541-20.095-10.151"/>
	<path style="fill:none;stroke:#F04E2C;stroke-width:0.6931;" d="M252.336,38.7"/>
	<path style="fill:none;stroke:#F04E2C;stroke-width:0.6931;" d="M232.241,28.549"/>
	<polygon style="fill:#F5EE76;" points="252.437,19.742 251.021,19.083 249.673,19.876 249.863,18.324 248.692,17.289 
		250.226,16.989 250.849,15.556 251.607,16.923 253.163,17.072 252.098,18.216 	"/>
	<polygon style="fill:#F5EE76;" points="243.518,28.575 241.358,27.482 239.237,28.64 239.609,26.25 237.854,24.589 240.24,24.206 
		241.276,22.021 242.38,24.173 244.779,24.483 243.07,26.198 	"/>
	<polygon style="fill:#F5EE76;" points="251.665,31.759 250.254,30.391 248.326,30.779 249.19,29.013 248.226,27.3 250.171,27.577 
		251.505,26.129 251.842,28.066 253.629,28.886 251.894,29.805 	"/>
	<circle style="fill:#5DCCF5;" cx="257.236" cy="4.728" r="2.583"/>
	<g>
		<path style="fill:none;stroke:#868881;stroke-width:1.3862;stroke-linecap:round;stroke-linejoin:round;" d="M239.881,71.909
			c3.754,3.754,19.9-5.58,22.378-10.212c3.864-7.225,5.314-19.73,4.647-28.938"/>
		<path style="fill:#FFFFFF;stroke:#868881;stroke-width:1.3862;stroke-linecap:round;stroke-linejoin:round;" d="M266.906,32.758
			c-3.693-4.19-4.337-11.132-4.374-17.29c1.697,4.509,3.036,5.833,3.07,7.358c0.056-1.042,0.342-8.143,0.541-9.087
			c0.68,0.975,1.892,7.886,1.77,9.159c0.198-1.297,0.329-6.993,1.107-8.009c0.477,1.32-0.123,16.641,4.56,5.154
			c-1.151,6.963-4.705,12.14-6.182,12.992"/>
	</g>
	<path style="fill:none;stroke:#868881;stroke-width:1.3862;stroke-linecap:round;stroke-linejoin:round;" d="M110.935,76.498
		c0.146-0.581,8.978-15.803,8.978-23.073s-0.496-18.419-4.755-24.417"/>
	<path style="fill:#FFFFFF;stroke:#868881;stroke-width:1.3862;stroke-linecap:round;stroke-linejoin:round;" d="M115.158,29.008
		c3.299-3.992,3.689-10.444,3.543-16.152c-1.44,4.229-2.641,5.495-2.628,6.91c-0.083-0.964-0.558-7.537-0.771-8.405
		c-0.6,0.924-1.52,7.365-1.368,8.541c-0.222-1.197-0.513-6.471-1.263-7.39c-0.403,1.237,0.605,15.418-4.073,4.911
		c1.271,6.418,4.718,11.111,6.112,11.857"/>
	<path style="fill:#FFFFFF;stroke:#868881;stroke-width:1.3862;stroke-linecap:round;stroke-linejoin:round;" d="M123.235,49.844
		c0,9.31-5.772,16.854-12.868,16.854c-7.101,0-12.877-7.544-12.877-16.854c0-9.306,5.776-16.852,12.877-16.852
		C117.462,32.993,123.235,40.538,123.235,49.844z"/>
	<path style="fill:none;stroke:#868881;stroke-width:1.3862;stroke-linecap:round;stroke-linejoin:round;" d="M110.685,67.369
		c-0.061,11.764,1.583,46.55-0.669,57.842c-1.104,5.52-1.873,7.104-2.013,9.721"/>
	<path style="fill:#EF5A74;" d="M94.844,14.208l2.518,29.473c10.298,0,18.631-4.21,18.631-9.412L94.844,14.208z"/>
	<path style="fill:none;stroke:#88CA8F;stroke-width:1.3862;stroke-linecap:round;stroke-linejoin:round;" d="M97.362,43.681
		c10.298,0,18.631-4.21,18.631-9.412"/>
	<path style="fill:none;stroke:#F04E2C;stroke-width:0.6931;" d="M99.388,45.707"/>
	<path style="fill:none;stroke:#F04E2C;stroke-width:0.6931;" d="M118.019,36.294"/>
	<polygon style="fill:#F5EE76;" points="108.236,36.256 109.428,35.793 110.485,36.513 110.413,35.235 111.424,34.452 
		110.187,34.126 109.756,32.922 109.063,33.998 107.785,34.037 108.594,35.028 	"/>
	<polygon style="fill:#F5EE76;" points="100.012,30.664 101.697,29.879 103.296,30.823 103.072,28.978 104.464,27.747 
		102.64,27.392 101.899,25.688 100.996,27.312 99.148,27.49 100.414,28.85 	"/>
	<polygon style="fill:#F5EE76;" points="100.501,21.989 99.854,21.145 100.182,20.133 99.18,20.488 98.319,19.863 98.346,20.926 
		97.486,21.552 98.505,21.854 98.835,22.866 99.438,21.989 	"/>
	<polygon style="fill:#F5EE76;" points="100.284,39.786 101.883,38.875 103.542,39.674 103.169,37.872 104.441,36.542 
		102.613,36.339 101.741,34.717 100.985,36.396 99.171,36.722 100.533,37.962 	"/>
	<circle style="fill:#88CA8F;" cx="94.844" cy="14.208" r="2.395"/>
	<g>
		<path style="fill:none;stroke:#868881;stroke-width:1.3862;stroke-linecap:round;stroke-linejoin:round;" d="M110.935,76.498
			c-3.48,3.479-18.452-5.175-20.748-9.469c-3.583-6.699-4.928-18.294-4.309-26.832"/>
		<path style="fill:#FFFFFF;stroke:#868881;stroke-width:1.3862;stroke-linecap:round;stroke-linejoin:round;" d="M85.878,40.197
			c3.424-3.885,4.02-10.321,4.055-16.031c-1.574,4.181-2.815,5.408-2.847,6.823c-0.052-0.966-0.318-7.551-0.502-8.425
			c-0.63,0.903-1.754,7.312-1.641,8.491c-0.184-1.203-0.305-6.483-1.027-7.426c-0.442,1.224,0.115,15.429-4.227,4.779
			c1.067,6.456,4.362,11.256,5.731,12.046"/>
	</g>
</g>
<g id="Layer_4">
	<path style="fill:none;stroke:#868881;stroke-width:1.3862;stroke-linecap:round;stroke-linejoin:round;" d="M198.697,79.362
		c5.81,8.356,12.005-5.939,12.005-12.183c0-6.242-3.326-32.003-2.568-37.693"/>
	<path style="fill:#FFFFFF;stroke:#868881;stroke-width:1.3862;stroke-linecap:round;stroke-linejoin:round;" d="M208.134,29.486
		c3.664-4.216,4.265-11.161,4.259-17.318c-1.666,4.52-2.997,5.851-3.021,7.377c-0.063-1.041-0.395-8.14-0.601-9.082
		c-0.674,0.979-1.84,7.898-1.71,9.171c-0.206-1.298-0.376-6.991-1.16-8.003c-0.469,1.324,0.233,16.639-4.524,5.183
		c1.195,6.956,4.783,12.109,6.266,12.951"/>
	<path style="fill:#FFFFFF;stroke:#868881;stroke-width:2.7724;stroke-linecap:round;stroke-linejoin:round;" d="M207.18,69.503
		c-2.363,2.357-5.308,3.756-8.507,3.746c-7.842-0.027-14.177-8.374-14.141-18.653c0.036-10.27,6.43-18.574,14.271-18.546
		c7.849,0.027,13.953,8.215,13.994,18.485c0.016,3.604-0.752,6.985-2.093,9.854"/>
	<path style="fill:none;stroke:#868881;stroke-width:2.7724;stroke-linecap:round;stroke-linejoin:round;" d="M198.671,73.929
		c-0.029,3.271,0.065,8.307,0.172,14.125l0.168,10.441c0.055,4.301,0.083,8.7,0.051,12.9c-0.066,8.61,0.038,16.326-0.833,20.655
		c-0.223,1.118-0.469,2.063-0.731,2.881"/>
	<path style="fill:#71D0F6;" d="M176.171,16.577l7.737,33.025c11.686-1.706,20.444-7.862,19.582-13.765L176.171,16.577z"/>
	<path style="fill:none;stroke:#EF6C5F;stroke-width:1.3862;stroke-linecap:round;stroke-linejoin:round;" d="M183.908,49.602
		c11.686-1.706,20.444-7.862,19.582-13.765"/>
	<path style="fill:none;stroke:#F04E2C;stroke-width:0.6931;" d="M186.542,51.565"/>
	<path style="fill:none;stroke:#F04E2C;stroke-width:0.6931;" d="M206.125,37.8"/>
	<polygon style="fill:#F5EE76;" points="180.921,31.809 181.984,31.112 183.16,31.593 182.825,30.367 183.646,29.396 
		182.376,29.335 181.707,28.255 181.257,29.444 180.023,29.747 181.014,30.542 	"/>
	<polygon style="fill:#F5EE76;" points="183.879,24.469 183.005,23.619 183.21,22.416 182.131,22.984 181.051,22.418 181.257,23.62 
		180.386,24.472 181.592,24.646 182.133,25.74 182.672,24.646 	"/>
	<polygon style="fill:#F5EE76;" points="198.822,38.551 199.672,37.952 200.646,38.312 200.34,37.319 200.984,36.504 
		199.943,36.488 199.367,35.624 199.032,36.607 198.031,36.889 198.864,37.512 	"/>
	<polygon style="fill:#F5EE76;" points="196.138,44.004 196.766,43.188 197.795,43.244 197.213,42.393 197.584,41.432 
		196.596,41.723 195.796,41.073 195.767,42.103 194.901,42.663 195.872,43.008 	"/>
	<circle style="fill:#EF6C5F;" cx="176.171" cy="16.577" r="2.746"/>
	<path style="fill:none;stroke:#868881;stroke-width:1.3862;stroke-linecap:round;stroke-linejoin:round;" d="M210.613,64.572
		c-5.168,0-8.957-0.761-8.957-2.066c0,3.619,2.663,6.547,5.954,6.547"/>
	<path style="fill:none;stroke:#868881;stroke-width:1.3862;stroke-linecap:round;stroke-linejoin:round;" d="M148.457,84.26
		c-5.969,8.585-12.23-12.524-12.23-18.938c0-6.414,3.417-32.881,2.639-38.727"/>
	<path style="fill:#FFFFFF;stroke:#868881;stroke-width:1.3862;stroke-linecap:round;stroke-linejoin:round;" d="M138.865,26.594
		c-3.765-4.332-4.381-11.467-4.375-17.793c1.712,4.644,3.079,6.011,3.103,7.58c0.065-1.069,0.407-8.364,0.618-9.332
		c0.693,1.005,1.891,8.115,1.757,9.423c0.211-1.333,0.387-7.183,1.192-8.223c0.481,1.36-0.239,17.095,4.648,5.325
		c-1.228,7.146-4.913,12.441-6.437,13.306"/>
	<path style="fill:#FFFFFF;stroke:#868881;stroke-width:1.3862;stroke-linecap:round;stroke-linejoin:round;" d="M148.585,71.558
		c8.058,0,14.566-8.604,14.53-19.165c-0.037-10.551-6.606-19.083-14.663-19.055c-8.064,0.027-14.364,8.44-14.379,18.992
		C134.058,63.371,140.62,71.558,148.585,71.558z"/>
	<path style="fill:none;stroke:#868881;stroke-width:1.3862;stroke-linecap:round;stroke-linejoin:round;" d="M148.588,72.256
		c0.03,3.361-0.067,8.534-0.178,14.512l-0.172,10.728c-0.056,4.419-0.086,8.939-0.052,13.256c0.069,8.846-0.039,16.772,0.855,21.222
		c0.229,1.147,0.482,2.119,0.752,2.959"/>
	<path style="fill:#9CCC55;" d="M171.705,13.331l-7.949,33.931c-12.007-1.752-21.005-8.078-20.12-14.143L171.705,13.331z"/>
	<path style="fill:none;stroke:#FAED00;stroke-width:1.3862;stroke-linecap:round;stroke-linejoin:round;" d="M163.755,47.262
		c-12.007-1.752-21.005-8.078-20.12-14.143"/>
	<path style="fill:none;stroke:#F04E2C;stroke-width:0.6931;" d="M168.729,49.278"/>
	<path style="fill:none;stroke:#F04E2C;stroke-width:0.6931;" d="M140.929,35.136"/>
	<polygon style="fill:#F5EE76;" points="166.824,28.98 165.732,28.265 164.523,28.759 164.867,27.499 164.024,26.501 
		165.329,26.439 166.017,25.33 166.479,26.551 167.747,26.862 166.729,27.679 	"/>
	<polygon style="fill:#F5EE76;" points="163.785,21.439 164.683,20.565 164.472,19.331 165.582,19.915 166.691,19.333 
		166.479,20.568 167.374,21.443 166.135,21.622 165.578,22.745 165.025,21.621 	"/>
	<polygon style="fill:#F5EE76;" points="148.432,35.907 147.56,35.292 146.558,35.663 146.873,34.643 146.211,33.805 147.28,33.789 
		147.872,32.9 148.217,33.911 149.244,34.2 148.389,34.84 	"/>
	<polygon style="fill:#F5EE76;" points="172.075,39.375 171.939,39.418 171.9,39.555 171.815,39.439 171.673,39.443 171.757,39.328 
		171.709,39.194 171.845,39.238 171.958,39.151 171.958,39.294 	"/>
	<polygon style="fill:#F5EE76;" points="151.19,41.511 150.545,40.671 149.487,40.729 150.085,39.855 149.704,38.868 150.72,39.166 
		151.542,38.499 151.572,39.557 152.46,40.132 151.463,40.487 	"/>
	<circle style="fill:#FAED00;" cx="171.704" cy="13.331" r="2.821"/>
	<path style="fill:#FFFFFF;stroke:#868881;stroke-width:1.3862;stroke-linecap:round;stroke-linejoin:round;" d="M207.197,89.52
		c0,2.967-2.399,5.376-5.372,5.376c-2.972,0-5.387-2.409-5.387-5.376c0-2.971,2.415-5.38,5.387-5.38
		C204.798,84.14,207.197,86.549,207.197,89.52z"/>
	<path style="fill:none;stroke:#868881;stroke-width:1.3862;stroke-linecap:round;stroke-linejoin:round;" d="M198.697,79.362
		c-5.811,8.356-7.054,7.788-9.135,3.627c-2.793-5.583,0.956-29.269,0.198-34.958"/>
	<path style="fill:#FFFFFF;stroke:#868881;stroke-width:1.3862;stroke-linecap:round;stroke-linejoin:round;" d="M190.252,47.753
		c3.664-4.216,4.264-11.161,4.259-17.318c-1.667,4.52-2.997,5.851-3.021,7.377c-0.063-1.041-0.396-8.14-0.602-9.082
		c-0.674,0.978-1.84,7.898-1.709,9.171c-0.207-1.298-0.376-6.991-1.16-8.003c-0.469,1.323,0.233,16.639-4.524,5.183
		c1.195,6.956,4.783,12.109,6.265,12.951"/>
	<path style="fill:none;stroke:#868881;stroke-width:1.3862;stroke-linecap:round;stroke-linejoin:round;" d="M148.457,84.26
		c5.97,8.585,7.351,4.39,9.489,0.114c2.87-5.735-0.981-32.881-0.204-38.727"/>
	<path style="fill:#FFFFFF;stroke:#868881;stroke-width:1.3862;stroke-linecap:round;stroke-linejoin:round;" d="M157.237,45.362
		c-3.765-4.331-4.381-11.467-4.375-17.793c1.712,4.644,3.08,6.011,3.104,7.58c0.065-1.069,0.406-8.364,0.618-9.331
		c0.692,1.005,1.89,8.115,1.756,9.423c0.212-1.333,0.386-7.183,1.191-8.223c0.482,1.36-0.239,17.095,4.649,5.325
		c-1.228,7.147-4.914,12.441-6.438,13.306"/>
</g>
</svg>
