<?xml version="1.0" encoding="iso-8859-1"?>
<!-- Generator: Adobe Illustrator 13.0.0, SVG Export Plug-In . SVG Version: 6.00 Build 14948)  -->
<!DOCTYPE svg PUBLIC "-//W3C//DTD SVG 1.1//EN" "http://www.w3.org/Graphics/SVG/1.1/DTD/svg11.dtd">
<svg version="1.1" xmlns="http://www.w3.org/2000/svg" xmlns:xlink="http://www.w3.org/1999/xlink" x="0px" y="0px" width="540px"
	 height="200px" viewBox="0 0 540 200" style="enable-background:new 0 0 540 200;" xml:space="preserve">
<g id="Layer_2">
	<g>
		<rect style="fill:none;" width="540" height="200"/>
		<rect style="fill:#FFFFFF;" width="540" height="200"/>
	</g>
</g>
<g id="Layer_3">
	<g>
		<path style="fill:#944138;" d="M274.759,92.108c1.179,1.001,7.836,0.306,9.88,0.481c3.6,0.301,7.265,0.216,10.929,0.216
			c8.604,0,18.018,1.533,26.191-0.948c-1.563,1.057,1.393,7.053,1.489,8.627c0.119,2.092-0.963,76.836-0.958,78.791
			c-1.864,1.881-15.595,4.853-23.799,4.853c-4.035,0-24.142-3.156-25.325-4.83c-0.994-1.396-1.008-77.633-0.748-79.508
			c0.353-2.543,2.422-5.718,2.866-7.898c-0.019,0.299-0.157,0.442-0.286,0.682"/>
		<g>
			<path style="fill:#A52008;stroke:#A52008;stroke-width:1.1896;stroke-linecap:round;stroke-linejoin:round;" d="M298.386,33.859
				h7.384c-0.005-4.942,0-14.932,0-18.532h-7.334"/>
			<path style="fill:#A52008;stroke:#A52008;stroke-width:1.1896;stroke-linecap:round;stroke-linejoin:round;" d="M298.436,33.859
				h-7.382c0.01-4.942,0.104-14.932,0.104-18.532h7.334"/>
		</g>
		<g>
			<path style="fill:none;stroke:#156E27;stroke-width:1.1896;stroke-linecap:round;stroke-linejoin:round;" d="M298.436,184.127
				c7.979,0,21.263-2.256,23.854-4.853c1.243-1.234,0.958-55.883,0.958-76.698c0-5.994-2.41-15.034-6.562-22.521
				c-3.57-6.455-6.441-17.363-8.577-24.52c-2.254-7.55-2.339-17.683-2.339-21.677"/>
			<path style="fill:none;stroke:#156E27;stroke-width:1.1896;stroke-linecap:round;stroke-linejoin:round;" d="M298.491,184.127
				c-7.979,0-22.218-1.973-24.812-4.562c-1.234-1.241-0.9-56.173-0.9-76.988c0-5.994,3.311-15.034,7.463-22.521
				c3.567-6.455,6.636-17.358,8.776-24.52c2.174-7.29,2.086-17.844,2.035-21.677h14.668"/>
		</g>
		<path style="fill:#FFFFE8;stroke:#156E27;stroke-width:0.9914;" d="M318,163.852c0,0-12.256,1.206-20.116,1.206
			c-7.336,0-20.121-1.206-20.121-1.206v-59.864c0,0,12.967,1.473,20.121,1.473c7.326,0.005,20.116-1.473,20.116-1.473V163.852z"/>
		<path style="fill:#944138;" d="M260.124,101.764c-5.502,20.464-9.346,26.166-20.685,26.166c-11.344,0-18.033-10.262-20.36-26.131
			c-0.092-0.638,9.017-0.707,20.36-0.707C250.778,101.092,260.287,101.145,260.124,101.764z"/>
		<path style="fill:none;stroke:#C2E6EA;stroke-width:0.9914;" d="M216.793,85.316c0,3.039,2.949,22.724,4.754,27.189
			c2.246,5.562,6.367,15.427,18.017,15.427c12.34,0,14.589-8.111,17.423-15.34c2.965-7.552,5.787-21.361,4.1-27.645
			c-0.604-2.253-13.613-5.361-21.522-5.361C232.267,79.586,218.526,81.729,216.793,85.316c-1.351,2.799,17.773,4.061,22.771,4.061
			c6.125,0,19.932-0.654,21.522-4.429"/>
		<path style="fill:none;stroke:#C2E6EA;stroke-width:1.9828;stroke-linecap:round;stroke-linejoin:round;" d="M236.483,178.718
			c0.356,0.095,0.643,0.12,0.994,0.217c2.809-4.981,2.088-39.683,2.088-39.683l-0.002-10.722"/>
		
			<ellipse style="fill:none;stroke:#C2E6EA;stroke-width:0.9914;stroke-linecap:round;stroke-linejoin:round;" cx="239.584" cy="179.254" rx="21.193" ry="5.419"/>
		<path style="fill:none;stroke:#C2E6EA;stroke-width:1.9828;stroke-linecap:round;stroke-linejoin:round;" d="M239.563,159.583
			c0.66,9.196,0,14.762,2.656,19.353c0.438-0.144,0.575-0.113,0.928-0.217"/>
		<g>
			<g>
				<path style="fill:none;stroke:#BFBDB9;stroke-width:0.5949;stroke-linecap:round;stroke-linejoin:round;" d="M287.348,110.525
					c-0.08-0.234-0.177-0.465-0.285-0.679c-2.548-0.519-5.209,2.811-4.1,5.285c1.537,3.438,6.349-1.925,5.741-4.588
					c-1.826,0.638-2.332,4.885-3.016,6.678c0.677-1.399,1.724-2.859,3.264-3.347c-0.076,0.771-0.612,2.375,0.256,2.725
					c0.248,0.1,0.48,0.095,0.699,0.019"/>
				<path style="fill:none;stroke:#BFBDB9;stroke-width:0.5949;stroke-linecap:round;stroke-linejoin:round;" d="M302.966,116.583
					c-0.814,0.005-1.34,0.034-1.869-0.624c-0.124,0.339-0.566,0.707-0.695,1.062c-0.635-0.608-0.867-0.732-0.451-1.743
					c-0.645,1.441-2.831,2.646-2.345,0.198c0.082,1.098-0.463,1.938-1.594,1.774c-0.025-1.088,0.444-2.145,1.559-2.27
					c0.419,2.424-4.53,3.177-3.648,0.673c1.048-2.975,3.006,2.127-0.746,1.162"/>
				<path style="fill:none;stroke:#BFBDB9;stroke-width:0.5949;stroke-linecap:round;stroke-linejoin:round;" d="M292.711,115.886
					c0.405-1.793,1.016-3.679,0.933-5.534c-0.141,2.003-1.435,6.036-0.468,6.464"/>
				<path style="fill:none;stroke:#BFBDB9;stroke-width:0.5949;stroke-linecap:round;stroke-linejoin:round;" d="M293.176,113.086
					c0.312,0,0.624,0,0.935,0"/>
				<path style="fill:none;stroke:#BFBDB9;stroke-width:0.5949;stroke-linecap:round;stroke-linejoin:round;" d="M299.078,127.342
					c0.117,0.244,0.32,0.463,0.619,0.629c1.742,0.95,2.29-1.584,2.799-2.305c0.59-0.843,4.093-6.139,0.933-6.264
					c-1.979-0.075-1.211,8.292-1.126,9.783c0.753-0.877,1.114-2.191,2.076-2.845c0.546,1.53,2.035,1.892,2.323-0.15
					c-0.539,2.569,1.978,2.417,1.849,0.021c0.119,0.479,0.531,0.824,0.704,1.247c0.124-0.09,0.354-0.474,0.479-0.607
					c0.127,0.205,0.412,0.607,0.684,0.716c0.173-0.205,0.7-0.481,0.941-0.707c0.253,0.268,0.944,0.468,1.223,0.885
					c0.433,0.024,0.209-0.337,0.407-0.442"/>
				<path style="fill:none;stroke:#BFBDB9;stroke-width:0.5949;stroke-linecap:round;stroke-linejoin:round;" d="M300.602,125.241
					c-1.162-0.141-1.965,1.16-1.523,2.102"/>
				<path style="fill:none;stroke:#BFBDB9;stroke-width:0.5949;stroke-linecap:round;stroke-linejoin:round;" d="M290.145,126.606
					c0.074-0.357,0.005-0.668-0.214-0.938c-1.581,0.09-2.166,2.571-0.198,2.362c2.721-0.285,1.557-7.412,1.103-8.95
					c-0.198,1.524,0.511,4.813,1.66,6.137c0.573-2.723,0.854-5.101,3.694-6.685c-1.467,1.833-2.887,4.691-2.546,7.159
					c0.136,0.999-0.382,1.82,0.877,2.1c1.206,0.265,1.876-0.863,1.932-1.937c0.168-3.462-2.926-0.78-1.888,1.17
					c1.1,2.064,1.652-0.868,1.694-1.978c0.168,1.922,1.641,2.59,2.828,2.295"/>
				<path style="fill:none;stroke:#BFBDB9;stroke-width:0.5949;stroke-linecap:round;stroke-linejoin:round;" d="M307.864,122.644
					c-0.334,0.178-0.633,0.378-0.914,0.619c0.069-0.099,0.15-0.195,0.242-0.285c-0.263,0.051-0.356,0.26-0.497,0.366"/>
				<g>
					<path style="fill:none;stroke:#BFBDB9;stroke-width:0.5949;stroke-linecap:round;stroke-linejoin:round;" d="M291.491,115.5
						c0.195-1.034-1.961-0.481-1.6,0.729c0.309,1.018,1.365-0.398,1.65-0.845c-0.037,0.309-0.232,0.67,0.002,0.953
						c0.265,0.312,0.919,0.202,1.253,0.051"/>
					<path style="fill:none;stroke:#BFBDB9;stroke-width:0.5949;stroke-linecap:round;stroke-linejoin:round;" d="M290.016,114.083
						c0.511-0.104,0.921-0.524,1.199-0.946c0.066,0.297-0.292,0.809,0.219,0.824"/>
				</g>
				<path style="fill:none;stroke:#BFBDB9;stroke-width:0.5949;stroke-linecap:round;stroke-linejoin:round;" d="M283.621,156.208
					c1.591-3.644,2.302-13.02-0.99-15.696c0.804,1.45,3.67,0.436,5.06-0.748c-1.478-0.191-2.288,0.557-2.285,2.061
					c1.646,0.304,3.437,0.428,3.492-1.319c-0.834,0.686-0.792,1.077-0.682,2.366c0.129-0.022,0.769-0.005,0.897,0.046
					c-4.044,1.8-1.678,10.994-1.569,14.665c1.116-3.02,0.363-7.287,1.756-10.448c1.269,1.4,0.442,3.394,2.359,4.157
					c1.314-2.239,1.43-5.453,0.617-7.925c-0.838,2.93-1.324,8.114-0.185,11.1c2.203-2.5,1.316-8.036,1.319-11.349
					c-0.129,3.308,0.058,7.938,1.028,11.021c2.344-1.908,1.409-7.55,1.418-10.484c0.008,2.955-0.025,5.818,0.426,8.749
					c1.136-2.023,1.078-5.946,0.963-8.409c0.396,2.639-0.067,7.276,2.456,8.731c1.544-2.111,1.325-5.37,1.401-7.921
					c-0.195,2.724,0.688,10.299,4.841,8.664c0,0.486,0.154,1.121,0.106,1.593c2.274-2.38,4.972-15.194,0.976-15.947
					c-0.265,0.419-0.426,0.9-0.642,1.303c1.747,0.571,5.883,1.565,6.539-0.255c-2.661,2.29-4.647,9.295-3.105,12.529
					c1.646-0.763,2.986-3.875,1.847-5.185c-0.383,3.506-1.557,6.696-1.474,10.372c-0.014-4.856-0.35-11.171-0.35-15.364
					c0,4.222-2.021,13.678,3.443,14.729c0.525-2.863-1.434-5.596-1.646-8.323c1.676-0.58,3.396-0.933,5.246-0.753
					c-0.709,0.577-1.029,2.587-1.099,4.201"/>
				<path style="fill:none;stroke:#BFBDB9;stroke-width:0.5949;stroke-linecap:round;stroke-linejoin:round;" d="M280.125,149.919
					c-0.546-0.276-1.089-0.767-1.623-1.068c2.368,0.446,3.148-1.849,5.416-1.323c0.076,0.443,0.053,0.881,0.051,1.342"/>
			</g>
			<g>
				<path style="fill:none;stroke:#BFBDB9;stroke-width:0.5949;stroke-linecap:round;stroke-linejoin:round;" d="M288.513,133.835
					c0.092-0.338,0.073-0.662-0.06-0.971c-1.06,1.222-1.743,2.79-1.635,4.415c6.406-0.473,12.982-0.361,19.483-0.7
					c-2.3-7.214-14.102-0.731-15.453-4.661c-0.38,0.658-0.57,1.404-0.57,2.178c-0.268-1.034-0.419-2.061-0.361-3.131
					c-0.361,0.769-0.283,2.04-0.32,2.767c1.238,0.118,14.711-0.614,14.614-1.611c0.168,1.772,0.361,3.455,0.992,5.102
					c0.318-0.18,0.309-0.643,0.532-0.905c0.044,0.042,0.856,0.938,0.84,0.935c-0.209,0.083-1.065,0.351-1.222,0.488
					c-0.12,2.539,0.243,5.004,0.294,7.522c0.147-2.152-0.438-4.21-0.348-6.362c0,4.106,0,8.211,0,12.322
					c-0.073-0.385-0.041-0.894-0.062-1.277c-0.203,0.446-0.812,1.471-0.931,2.051c0.935-3.526,1.338-11.436-1.809-13.966
					c-3.175-2.551-9.742-0.937-13.657,0.741c-0.511-0.06-0.18-0.439-0.41-0.725c-0.05,0.363-0.241,1.885-0.267,1.779
					c-0.076-0.553,0.041-1.156,0.073-1.688c3.587,2.229,1.533,7.64,0.695,10.982c0.555-1.441,0.193-3.151-0.071-4.691
					c-0.158,0.814,0.014,1.834,0.058,2.643c2.152-0.856,5.101-7.548,6.586-7.693c0.267-0.025,4.261,3.041,5.893,3.253
					c-0.178,2.166,1.978,3.011,2.521,5.209c0.389,1.574,0.069,3.598,0.276,5.124c-1.482-1.445-1.699-2.504-2.141-4.095
					c-0.343-1.245,1.063-2.427-0.865-3.591c-3.642-2.205-4.072,4.948-2.878,7.251c-0.053-1.582-0.265-3.331,0.617-4.354
					c1.057,2.861,2.271,5.75,3.306,8.365c-3.35,0.2-6.774-1.984-9.846-1.316c1.867,2.025,12.285,1.903,14.2-0.705
					c-2.258,0.127-4.392,1.789-6.851,2.065c-3.508,0.4-7.009-0.447-10.425,0.699c4.634-2.064,9.709-2.852,14.985-1.922
					c2.334-3.179-1.031-7.389-2.571-10.31c0.066,0.214,0.239,0.594,0.281,0.72c-1.881-0.172-13.878-3.652-13.903-0.025
					c0.709,0.198,1.277,0.434,2.11,0.258c-0.251-0.304-0.377-0.603-0.817-1.003c3.474,0.051,8.969,0.741,11.719-1.604
					c0.39,1.777,4.199,3.531,5.578,4.422"/>
			</g>
		</g>
	</g>
</g>
</svg>
