<?xml version="1.0" encoding="iso-8859-1"?>
<!-- Generator: Adobe Illustrator 13.0.0, SVG Export Plug-In . SVG Version: 6.00 Build 14948)  -->
<!DOCTYPE svg PUBLIC "-//W3C//DTD SVG 1.1//EN" "http://www.w3.org/Graphics/SVG/1.1/DTD/svg11.dtd">
<svg version="1.1" xmlns="http://www.w3.org/2000/svg" xmlns:xlink="http://www.w3.org/1999/xlink" x="0px" y="0px" width="378px"
	 height="140px" viewBox="0 0 378 140" style="enable-background:new 0 0 378 140;" xml:space="preserve">
<g id="fond">
	<rect style="fill:#FFFFFF;" width="378" height="140"/>
</g>
<g id="Layer_3">
	<polygon style="fill:none;stroke:#D5312C;stroke-width:1.1278;stroke-linecap:round;stroke-linejoin:round;" points="
		229.822,46.571 229.822,46.571 227.229,44.452 227.229,44.452 230.729,40.167 230.729,40.167 233.324,42.286 233.324,42.286 	"/>
	<polygon style="fill:none;stroke:#D5312C;stroke-width:1.1278;stroke-linecap:round;stroke-linejoin:round;" points="
		218.996,62.303 218.996,62.303 213.974,58.2 213.974,58.2 219.771,51.103 219.771,51.103 224.793,55.206 224.793,55.206 	"/>
	<path style="fill:#D5312C;" d="M205.412,43.833c5.543-6.784,16.61-6.912,24.72-0.286c8.108,6.625,10.191,17.496,4.65,24.279
		L205.412,43.833z"/>
	<polygon style="fill:none;stroke:#D5312C;stroke-width:1.1278;stroke-linecap:round;stroke-linejoin:round;" points="
		151.738,46.571 151.738,46.571 154.331,44.452 154.331,44.452 150.831,40.167 150.831,40.167 148.236,42.286 148.236,42.286 	"/>
	<polygon style="fill:none;stroke:#D5312C;stroke-width:1.1278;stroke-linecap:round;stroke-linejoin:round;" points="
		162.564,62.303 162.564,62.303 167.586,58.2 167.586,58.2 161.789,51.103 161.789,51.103 156.767,55.206 156.767,55.206 	"/>
	<path style="fill:#D5312C;" d="M176.147,43.833c-5.542-6.784-16.609-6.912-24.719-0.286c-8.109,6.625-10.191,17.496-4.65,24.279
		L176.147,43.833z"/>
</g>
<g id="reveil">
	<polygon style="fill:#D5312C;" points="220.608,104.424 234.496,131.562 226.712,131.562 213.162,113.171 	"/>
	<polygon style="fill:#D5312C;" points="161.072,104.424 147.186,131.562 154.969,131.562 168.519,113.171 	"/>
	<circle style="fill:#D5312C;" cx="190.72" cy="87.318" r="38.865"/>
	
		<circle style="fill:#FFFFFF;stroke:#777768;stroke-width:1.1278;stroke-linecap:round;stroke-linejoin:round;" cx="190.721" cy="87.318" r="34.212"/>
	<g>
		
			<line style="fill:none;stroke:#777768;stroke-width:1.1278;stroke-linecap:round;stroke-linejoin:round;" x1="175.025" y1="60.131" x2="176.365" y2="62.452"/>
		
			<line style="fill:none;stroke:#777768;stroke-width:1.1278;stroke-linecap:round;stroke-linejoin:round;" x1="163.536" y1="71.621" x2="165.855" y2="72.961"/>
		
			<line style="fill:none;stroke:#777768;stroke-width:1.1278;stroke-linecap:round;stroke-linejoin:round;" x1="159.331" y1="87.317" x2="162.009" y2="87.318"/>
		
			<line style="fill:none;stroke:#777768;stroke-width:1.1278;stroke-linecap:round;stroke-linejoin:round;" x1="163.536" y1="103.014" x2="165.856" y2="101.675"/>
		
			<line style="fill:none;stroke:#777768;stroke-width:1.1278;stroke-linecap:round;stroke-linejoin:round;" x1="175.025" y1="114.504" x2="176.366" y2="112.185"/>
		
			<line style="fill:none;stroke:#777768;stroke-width:1.1278;stroke-linecap:round;stroke-linejoin:round;" x1="190.723" y1="118.709" x2="190.723" y2="116.03"/>
		
			<line style="fill:none;stroke:#777768;stroke-width:1.1278;stroke-linecap:round;stroke-linejoin:round;" x1="206.418" y1="114.504" x2="205.079" y2="112.182"/>
		
			<line style="fill:none;stroke:#777768;stroke-width:1.1278;stroke-linecap:round;stroke-linejoin:round;" x1="217.907" y1="103.014" x2="215.588" y2="101.672"/>
		
			<line style="fill:none;stroke:#777768;stroke-width:1.1278;stroke-linecap:round;stroke-linejoin:round;" x1="222.113" y1="87.318" x2="219.435" y2="87.316"/>
		
			<line style="fill:none;stroke:#777768;stroke-width:1.1278;stroke-linecap:round;stroke-linejoin:round;" x1="217.908" y1="71.621" x2="215.587" y2="72.961"/>
		
			<line style="fill:none;stroke:#777768;stroke-width:1.1278;stroke-linecap:round;stroke-linejoin:round;" x1="206.418" y1="60.131" x2="205.077" y2="62.45"/>
		
			<line style="fill:none;stroke:#777768;stroke-width:1.1278;stroke-linecap:round;stroke-linejoin:round;" x1="190.721" y1="55.926" x2="190.721" y2="58.604"/>
	</g>
	
		<line style="fill:none;stroke:#777768;stroke-width:2.2557;stroke-linecap:round;stroke-linejoin:round;" x1="190.721" y1="87.318" x2="190.721" y2="62.975"/>
	
		<line style="fill:none;stroke:#777768;stroke-width:2.2557;stroke-linecap:round;stroke-linejoin:round;" x1="190.721" y1="87.318" x2="184.236" y2="99.912"/>
</g>
<g id="Layer_4">
	<path style="fill:none;stroke:#777768;stroke-width:2;stroke-linecap:round;stroke-linejoin:round;" d="M119.673,74.109
		c-7.505-9.97-9.814-23.484-4.925-35.953c4.947-12.615,16.027-21.005,28.485-23.095"/>
	<path style="fill:none;stroke:#777768;stroke-width:2;stroke-linecap:round;stroke-linejoin:round;" d="M127.683,66.101
		c-4.52-6.825-5.754-15.669-2.54-23.868c3.216-8.199,10.135-13.847,18.089-15.78"/>
	<path style="fill:none;stroke:#777768;stroke-width:2;stroke-linecap:round;stroke-linejoin:round;" d="M262.471,74.109
		c7.505-9.97,9.814-23.484,4.925-35.953c-4.947-12.615-16.027-21.005-28.485-23.095"/>
	<path style="fill:none;stroke:#777768;stroke-width:2;stroke-linecap:round;stroke-linejoin:round;" d="M254.461,66.101
		c4.52-6.825,5.754-15.669,2.539-23.868c-3.216-8.199-10.135-13.847-18.09-15.78"/>
</g>
</svg>
