<?xml version="1.0" encoding="utf-8"?>
<!-- Generator: Adobe Illustrator 16.0.0, SVG Export Plug-In . SVG Version: 6.00 Build 0)  -->
<!DOCTYPE svg PUBLIC "-//W3C//DTD SVG 1.1//EN" "http://www.w3.org/Graphics/SVG/1.1/DTD/svg11.dtd">
<svg version="1.1" id="Calque_1" xmlns="http://www.w3.org/2000/svg" xmlns:xlink="http://www.w3.org/1999/xlink" x="0px" y="0px"
	 width="378px" height="140px" viewBox="0 0 378 140" enable-background="new 0 0 378 140" xml:space="preserve">
<g id="Layer_2">
	<g>
		<rect fill="none" width="378" height="140"/>
		<rect fill="#FFFFFF" width="378" height="140"/>
	</g>
</g>
<g id="Layer_3">
	<g>
		<path fill="#65B724" d="M234,124.38c0,1.171-0.74,2.119-1.652,2.119h-13.635c-0.91,0-1.652-0.948-1.652-2.119V33.284
			c0-1.169,0.742-2.118,1.652-2.118h13.635c0.912,0,1.652,0.949,1.652,2.118V124.38z"/>
		<rect x="101.666" y="2.166" fill="none" stroke="#383838" stroke-width="1.0242" width="174.667" height="135.667"/>
		
			<text transform="matrix(1 0 0 1 114.665 44.501)" fill="#65B724" font-family="'MyriadPro-Regular'" font-size="12" letter-spacing="33">  </text>
		
			<text transform="matrix(1 0 0 1 114.665 44.501)" fill="none" stroke="#FF9934" stroke-width="0.5" font-family="'MyriadPro-Regular'" font-size="12" letter-spacing="33">  </text>
		<text transform="matrix(1 0 0 1 186.665 44.501)" fill="#65B724" font-family="'MyriadPro-Regular'" font-size="12">   </text>
		
			<text transform="matrix(1 0 0 1 186.665 44.501)" fill="none" stroke="#FF9934" stroke-width="0.5" font-family="'MyriadPro-Regular'" font-size="12">   </text>
		<text transform="matrix(1 0 0 1 114.665 63.9014)" fill="#65B724" font-family="'MyriadPro-Regular'" font-size="12">04  05  06  07  08  09  </text>
		<text transform="matrix(1 0 0 1 114.665 63.9014)" fill="#73A04B" font-family="'MyriadPro-Regular'" font-size="12">04  05  06  07  08  09  </text>
		<text transform="matrix(1 0 0 1 219.0605 63.9014)" fill="#FFFFFF" font-family="'MyriadPro-Regular'" font-size="12">10</text>
		<text transform="matrix(1 0 0 1 219.0605 63.9014)" fill="#FFFFFF" font-family="'MyriadPro-Regular'" font-size="12">10</text>
		<text transform="matrix(1 0 0 1 114.665 83.3008)" fill="#65B724" font-family="'MyriadPro-Regular'" font-size="12">11  12  13  14  15  16  </text>
		<text transform="matrix(1 0 0 1 114.665 83.3008)" fill="#73A04B" font-family="'MyriadPro-Regular'" font-size="12">11  12  13  14  15  16  </text>
		<text transform="matrix(1 0 0 1 219.0605 83.3008)" fill="#FFFFFF" font-family="'MyriadPro-Regular'" font-size="12">17</text>
		<text transform="matrix(1 0 0 1 219.0605 83.3008)" fill="#FFFFFF" font-family="'MyriadPro-Regular'" font-size="12">17</text>
		<text transform="matrix(1 0 0 1 114.665 102.7012)" fill="#65B724" font-family="'MyriadPro-Regular'" font-size="12">18  19  20  21  22  23  </text>
		<text transform="matrix(1 0 0 1 114.665 102.7012)" fill="#73A04B" font-family="'MyriadPro-Regular'" font-size="12">18  19  20  21  22  23  </text>
		<text transform="matrix(1 0 0 1 219.0605 102.7012)" fill="#FFFFFF" font-family="'MyriadPro-Regular'" font-size="12">24</text>
		<text transform="matrix(1 0 0 1 219.0605 102.7012)" fill="#FFFFFF" font-family="'MyriadPro-Regular'" font-size="12">24</text>
		<text transform="matrix(1 0 0 1 114.665 122.1006)" fill="#65B724" font-family="'MyriadPro-Regular'" font-size="12">25  26  27  28  29  30  </text>
		<text transform="matrix(1 0 0 1 114.665 122.1006)" fill="#73A04B" font-family="'MyriadPro-Regular'" font-size="12">25  26  27  28  29  30  </text>
		<text transform="matrix(1 0 0 1 219.0605 122.1006)" fill="#FFFFFF" font-family="'MyriadPro-Regular'" font-size="12">31</text>
		<text transform="matrix(1 0 0 1 219.0605 122.1006)" fill="#FFFFFF" font-family="'MyriadPro-Regular'" font-size="12">31</text>
		<text transform="matrix(1 0 0 1 179.2969 44.501)" fill="#65B724" font-family="'MyriadPro-Regular'" font-size="12">  01  02  </text>
		<text transform="matrix(1 0 0 1 179.2969 44.501)" fill="#73A04B" font-family="'MyriadPro-Regular'" font-size="12">  01  02  </text>
		<text transform="matrix(1 0 0 1 219.1836 44.501)" fill="#FFFFFF" font-family="'MyriadPro-Regular'" font-size="12">03</text>
		<text transform="matrix(1 0 0 1 219.1836 44.501)" fill="#FFFFFF" font-family="'MyriadPro-Regular'" font-size="12">03</text>
	</g>
</g>
</svg>
