<?xml version="1.0" encoding="iso-8859-1"?>
<!-- Generator: Adobe Illustrator 13.0.0, SVG Export Plug-In . SVG Version: 6.00 Build 14948)  -->
<!DOCTYPE svg PUBLIC "-//W3C//DTD SVG 1.1//EN" "http://www.w3.org/Graphics/SVG/1.1/DTD/svg11.dtd">
<svg version="1.1" xmlns="http://www.w3.org/2000/svg" xmlns:xlink="http://www.w3.org/1999/xlink" x="0px" y="0px" width="378px"
	 height="140px" viewBox="0 0 378 140" style="enable-background:new 0 0 378 140;" xml:space="preserve">
<g id="Layer_2">
	<g>
		<rect style="fill:none;" width="378" height="140"/>
		<rect style="fill:#FFFFFF;" width="378" height="140"/>
	</g>
</g>
<g id="Layer_3">
	<path style="fill:none;stroke:#FFAE00;stroke-width:10;stroke-linecap:round;stroke-linejoin:round;" d="M99.834,34.5
		c-2.892-13.796,20.363-25.383,30.565-27.232c31.749-5.754,23.581,26.548,5.712,40.186c27.325-1.041,36.778,27.171,31.055,50.507
		c-4.188,17.074-17.694,36.035-37.707,33.377c-13.089-1.736-24.914-14.805-28.438-27.109"/>
	<path style="fill:none;stroke:#FFAE00;stroke-width:10;stroke-linecap:round;stroke-linejoin:round;" d="M193.002,48.951
		c-4.502,1.506-7.003-2.387-8.275-6.077c-3.24-9.396,6.456-23.633,12.94-29.359c10.971-9.689,25.078-9.566,33.985,2.623
		c15.284,20.918,6.883,45.918-3.32,66.159c-5.863,11.635-12.558,25.535-20.191,36.029c-1.747,2.402-12.746,12.516-16.57,13.148
		c-10.164,1.682-6.063-15.195-3.384-21.539c3.893-9.217,11.203-16.436,21.308-15.107c4.854,3.396,9.707,6.795,14.561,10.191
		c14.106,11.127,33.332,23.963,46.86,23.963c13.529,0,18.007-5.793,22.535-13.529"/>
</g>
</svg>
