<?xml version="1.0" encoding="iso-8859-1"?>
<!-- Generator: Adobe Illustrator 13.0.0, SVG Export Plug-In . SVG Version: 6.00 Build 14948)  -->
<!DOCTYPE svg PUBLIC "-//W3C//DTD SVG 1.1//EN" "http://www.w3.org/Graphics/SVG/1.1/DTD/svg11.dtd">
<svg version="1.1" xmlns="http://www.w3.org/2000/svg" xmlns:xlink="http://www.w3.org/1999/xlink" x="0px" y="0px" width="540px"
	 height="200px" viewBox="0 0 540 200" style="enable-background:new 0 0 540 200;" xml:space="preserve">
<g id="Layer_2">
	<g>
		<rect style="fill:none;" width="540" height="200"/>
		<rect style="fill:#FFFFFF;" width="540" height="200"/>
	</g>
</g>
<g id="Layer_3">
	<g>
		<g>
			<path style="fill:#FFFF4A;stroke:#DEDEDE;stroke-width:2.7151;" d="M459.89,102.248c0,44.308-84.767,80.229-189.334,80.229
				c-104.562,0-189.329-35.921-189.329-80.229c0-44.307,84.767-80.218,189.329-80.218C375.123,22.03,459.89,57.941,459.89,102.248z"
				/>
			<path style="fill:#FFFF4A;stroke:#DEDEDE;stroke-width:1.9471;" d="M406.328,98.729c0,31.772-60.787,57.532-135.772,57.532
				c-74.98,0-135.768-25.76-135.768-57.532c0-31.773,60.788-57.527,135.768-57.527C345.541,41.203,406.328,66.957,406.328,98.729z"
				/>
		</g>
		<path style="fill:#8ECC37;stroke:#1B9531;stroke-width:1.1283;stroke-linecap:round;stroke-linejoin:round;" d="M297.852,85.044
			c14.512-1.237,18.746-20.41,21.448-32.346c1.557-6.881,3.189-12.778,6.354-19.177c2.064-4.183,3.666-8.874,3.438-13.351
			c2.88,4.863,6.146,10.821,8.042,16.292c1.187,3.423-0.314,10.02,4.406,9.938c2.764-0.05,8.037-4.371,9.619-6.683
			c2.596-3.793,2.454-8.265,4.021-12.301c1.963-5.061,7.616-10.846,13.058-10.182c5.07,0.614,9.193,3.185,7.241,8.265
			c-0.786,2.049-3.094,3.61-2.308,5.628c1.09,2.814,7.723,1.268,10.035,1.024c8.366-0.872,19.188-7.438,23.589,3.479
			c0.938,2.322-0.482,5.882,0.283,7.941c3.55,9.452,15.618,10.892,22.555,16.206c-0.761-2.951-5.192-7.002-8.564-4.827
			c-3.26,2.099-2.819,9.087-2.267,11.901c2.333,11.871,14.381,18.777,14.614,31.616c0.162,9.198-8.895,18.214-17.768,20.557
			c-3.388,0.893-16.15-1.76-12.921-7.119c-0.192,5.831-0.912,12.393-3.083,18.219c-2.642,7.073-5.232,11.556-2.991,18.538
			c1.187,3.717,1.846,4.64-1.471,8.524c-3.823,4.482-11.389,8.62-16.916,9.624c-13.325,2.424-9.689-16.16-16.89-22.605
			c-5.964-5.334-10.284-0.259-16.724,2.941c-8.97,4.457-15.329,5.354-22.579,0.365c-2.155-1.481-4.889-2.252-6.775-4.067
			c-2.246-2.17-2.88-5.669-6.328-6.53c-5.912-1.476-15.055,3.377-21.145,5.01c0.477-7.5,1.612-10.994-1.714-17.383
			c-0.405-0.791-1.658-1.531-1.86-2.327c-0.873-3.423,3.077-7.632,3.352-10.659c0.324-3.483-0.984-5.385-2.246-8.331
			c-1.582-3.681-3.788-8.356-0.467-12.651C287.74,86.879,294.135,84.359,297.852,85.044"/>
		<path style="fill:#8ECC37;stroke:#1B9531;stroke-width:1.1283;stroke-linecap:round;stroke-linejoin:round;" d="M260.292,99.155
			c4.087,4.975,3.367,16.764-0.005,21.028c-3.97,5.025-13.092,6.627-18.666,9.284c-13.021,6.207-28.33,16.368-23.675,33.7
			c8.463,5.436,12.058-6.466,19.562-6.293c7.363,0.167,9.67,14.73,20.46,9.689c8.356-3.914,5.897-11.784,17.748-6.581
			c4.741,2.084,8.939,6.688,13.731,8.144c4.224,1.277,9.594,0.974,13.944,1.232c3.58-11.962,9.695-8.631,16.546-3.605
			c8.665,6.358,22.59,6.449,29.982-2.662c2.043-2.521,1.668-7.236,4.579-9.112c4.254-2.738,4.974,1.237,9.284,2.353
			c6.684,1.719,14.273-2.839,15.658-10.02c2.079-10.75-12.246-14.4-21.043-14.715c-10.811-0.386-13.442-2.383-19.35-10.04
			c-7.434-9.649-11.115-2.353-22.402-3.093c-12.008-0.786-26.783-14.832-32.422-24.086c-0.457,6.952-5.74,8.772-11.612,5.628
			c-0.613,0.578-1.06,1.47-1.506,2.16c-0.7-0.426-1.486-1.15-2.328-1.541c-1.785,0.882-4.208,1.521-5.4,2.394"/>
		<path style="fill:#8ECC37;stroke:#1B9531;stroke-width:1.1283;stroke-linecap:round;stroke-linejoin:round;" d="M181.971,89.338
			c2.353,5.994-1.967,16.987-6.49,19.999c-5.324,3.55-14.502,2.272-20.617,3.073c-14.31,1.887-32.001-8.509-32.924,9.411
			c6.379,7.788,13.462-2.424,20.551,0.056c6.952,2.429-8.641,32.336,3.184,30.865c9.158-1.141,22.534-9.391,32.199-0.781
			c3.869,3.438,6.439,9.117,10.552,11.978c3.615,2.52,8.823,3.889,12.88,5.477c7.099-10.269,11.88-5.213,16.85,1.678
			c6.283,8.717,19.502,13.108,29.339,6.719c2.728-1.765,3.823-6.368,7.17-7.251c4.888-1.293,4.351,2.718,8.103,5.102
			c5.826,3.701,14.452,1.703,17.991-4.695c5.294-9.589-7.205-17.474-15.48-20.496c-10.167-3.701-12.043-6.409-15.299-15.517
			c-4.097-11.475-9.847-5.669-20.354-9.857c-11.186-4.452-20.901-22.371-23.416-32.914c-2.576,6.47-8.164,6.577-12.778,1.765
			c-0.761,0.37-1.46,1.07-2.099,1.597c-0.533-0.624-1.06-1.552-1.734-2.19c-1.978,0.294-4.478,0.152-5.877,0.614"/>
		<path style="fill:#8ECC37;stroke:#1B9531;stroke-width:1.1283;stroke-linecap:round;stroke-linejoin:round;" d="M271.874,83.558
			c-8.641,5.38-20.851,6.541-31.099,8.514c-10.243,1.972-20.156,4.65-29.841,7.109c2.251,6.069,3.291,8.727,8.316,13.128
			c-2.966,5.284-9.792,5.061-7.236,12.185c3.266,9.107,9.274,3.342,14.756,2.606c6.069-0.816,8.95,2.104,12.834,4.306
			c2.738,1.551,1.409,3.026,5.202,3.975c3.56,0.883,13.397-2.89,16.272-6.216c4.599-5.324,1.435-8.307,7.515-13.164
			c7.206-5.76,13.513-8.777,19.669-15.278c2.616-2.764,8.371-5.015,6.835-8.493c-2.408-5.456-12.372-0.325-12.524-7.819
			C279.146,85.789,275.008,85.13,271.874,83.558"/>
		<g>
			<path style="fill:#DE0900;stroke:#FC6243;stroke-width:1.984;stroke-linecap:round;stroke-linejoin:round;" d="M313.646,52.688
				C301.933,54.194,235,67.104,235,67.104c-3.884-17.717,10.466-35.916,32.062-40.651c21.59-4.736,42.244,5.78,46.133,23.502
				C313.393,50.862,313.545,51.775,313.646,52.688"/>
			<path style="fill:#FFBA00;" d="M256.109,36.457c0.38-0.755,1.11-1.156,1.627-0.893s0.629,1.085,0.249,1.841
				c-0.38,0.75-1.11,1.146-1.628,0.887C255.84,38.033,255.729,37.202,256.109,36.457z"/>
			<path style="fill:#FFBA00;" d="M241.034,52.81c0.421-0.73,1.171-1.085,1.673-0.801c0.502,0.294,0.568,1.125,0.142,1.856
				c-0.416,0.725-1.167,1.085-1.668,0.791C240.679,54.371,240.613,53.54,241.034,52.81z"/>
			<path style="fill:#FFBA00;" d="M247.555,44.321c0.101-0.837,0.654-1.46,1.227-1.39c0.578,0.076,0.963,0.812,0.857,1.653
				c-0.102,0.832-0.654,1.455-1.232,1.379C247.834,45.893,247.454,45.163,247.555,44.321z"/>
			<path style="fill:#FFBA00;" d="M254.177,45.33c0.334-0.771,1.04-1.212,1.572-0.979c0.527,0.233,0.69,1.044,0.35,1.82
				c-0.334,0.776-1.04,1.212-1.572,0.979C253.995,46.917,253.838,46.106,254.177,45.33z"/>
			<path style="fill:#FFBA00;" d="M249.117,48.55c0.294-0.796,0.969-1.277,1.511-1.08c0.548,0.198,0.75,1.004,0.466,1.8
				c-0.294,0.791-0.968,1.268-1.511,1.075C249.036,50.142,248.828,49.341,249.117,48.55z"/>
			<path style="fill:#FFBA00;" d="M302.866,42.8c0.664,0.522,1.49,0.578,1.855,0.127c0.355-0.457,0.111-1.252-0.548-1.78
				c-0.659-0.517-1.49-0.578-1.846-0.122C301.963,41.481,302.212,42.272,302.866,42.8z"/>
			<path style="fill:#FFBA00;" d="M298.937,39.625c0.329,0.781,1.024,1.227,1.557,1.004c0.537-0.224,0.704-1.035,0.385-1.815
				c-0.329-0.771-1.024-1.227-1.562-1.004C298.779,38.039,298.611,38.845,298.937,39.625z"/>
			<path style="fill:#FFBA00;" d="M294.57,40.746c0.446,0.715,1.207,1.05,1.699,0.746c0.491-0.304,0.532-1.136,0.086-1.856
				c-0.446-0.715-1.207-1.044-1.699-0.74C294.165,39.2,294.124,40.031,294.57,40.746z"/>
			<path style="fill:#FFBA00;" d="M300.863,44.884c0.634,0.563,1.455,0.669,1.841,0.233c0.385-0.431,0.188-1.242-0.446-1.8
				c-0.629-0.558-1.45-0.664-1.836-0.233C300.036,43.52,300.234,44.326,300.863,44.884z"/>
			<path style="fill:#FFBA00;" d="M295.604,35.965c0.594,0.598,1.41,0.755,1.82,0.345c0.411-0.406,0.269-1.222-0.329-1.826
				c-0.599-0.593-1.41-0.75-1.825-0.345C294.864,34.555,295.007,35.366,295.604,35.965z"/>
			<path style="fill:#FFBA00;" d="M285.383,37.06c-0.386,0.755-1.116,1.156-1.633,0.892c-0.518-0.258-0.629-1.085-0.244-1.835
				c0.381-0.75,1.105-1.151,1.623-0.893C285.646,35.488,285.763,36.314,285.383,37.06z"/>
			<path style="fill:#FFBA00;" d="M289.783,31.776c-0.42,0.73-1.171,1.09-1.673,0.801c-0.502-0.294-0.568-1.115-0.147-1.846
				c0.421-0.73,1.172-1.09,1.674-0.801S290.204,31.046,289.783,31.776z"/>
			<path style="fill:#FFBA00;" d="M273.816,35.645c-0.102,0.837-0.654,1.46-1.232,1.384c-0.573-0.071-0.953-0.806-0.852-1.643
				c0.106-0.837,0.659-1.46,1.231-1.39C273.537,34.068,273.923,34.809,273.816,35.645z"/>
			<path style="fill:#FFBA00;" d="M284.368,32.273c-0.34,0.776-1.045,1.212-1.577,0.984c-0.532-0.233-0.685-1.05-0.35-1.825
				c0.335-0.771,1.045-1.207,1.572-0.974C284.551,30.686,284.703,31.502,284.368,32.273z"/>
			<path style="fill:#FFBA00;" d="M279.262,31.482c-0.289,0.791-0.969,1.273-1.511,1.075c-0.543-0.203-0.756-1.004-0.462-1.795
				c0.289-0.791,0.964-1.278,1.506-1.075C279.343,29.88,279.551,30.686,279.262,31.482z"/>
			<path style="fill:#FFBA00;" d="M272.351,32.121c0.659,0.527,1.491,0.588,1.851,0.132c0.36-0.457,0.117-1.252-0.547-1.775
				c-0.66-0.527-1.486-0.578-1.852-0.126C271.443,30.803,271.691,31.604,272.351,32.121z"/>
			<path style="fill:#FFBA00;" d="M260.86,34.509c0.689,0.492,1.521,0.502,1.856,0.025c0.334-0.472,0.045-1.248-0.639-1.739
				c-0.689-0.482-1.521-0.497-1.855-0.025C259.887,33.247,260.171,34.022,260.86,34.509z"/>
			<path style="fill:#FFBA00;" d="M265.044,37.993c0.451,0.72,1.207,1.05,1.698,0.746c0.497-0.31,0.533-1.136,0.092-1.856
				c-0.446-0.715-1.207-1.049-1.704-0.74C264.643,36.451,264.603,37.273,265.044,37.993z"/>
			<path style="fill:#FFBA00;" d="M277.062,36.005c0.634,0.558,1.455,0.664,1.841,0.228c0.385-0.431,0.188-1.237-0.441-1.8
				c-0.629-0.558-1.455-0.664-1.841-0.233C276.234,34.636,276.433,35.442,277.062,36.005z"/>
			<path style="fill:#FFBA00;" d="M266.971,32.659c0.593,0.598,1.415,0.75,1.82,0.345c0.416-0.406,0.264-1.227-0.33-1.826
				c-0.593-0.598-1.405-0.75-1.82-0.345C266.225,31.244,266.377,32.06,266.971,32.659z"/>
			<path style="fill:#FFBA00;" d="M243.336,48.347c0.183-0.821,0.786-1.395,1.349-1.268c0.568,0.122,0.882,0.893,0.7,1.714
				s-0.781,1.395-1.349,1.268C243.468,49.939,243.154,49.168,243.336,48.347z"/>
			<path style="fill:#FFBA00;" d="M289.966,36.735c0.427,0.725,1.177,1.075,1.679,0.781c0.502-0.289,0.562-1.115,0.132-1.846
				c-0.426-0.725-1.177-1.08-1.679-0.786C289.602,35.174,289.54,36.005,289.966,36.735z"/>
			<path style="fill:#FFBA00;" d="M261.51,39.347c-0.279,0.796-0.943,1.293-1.496,1.101c-0.553-0.193-0.766-0.994-0.492-1.79
				c0.279-0.796,0.943-1.293,1.491-1.101C261.56,37.75,261.783,38.551,261.51,39.347z"/>
			<path style="fill:#FFBA00;" d="M252.261,41.066c0.725,0.436,1.552,0.375,1.846-0.122c0.299-0.497-0.051-1.252-0.776-1.683
				c-0.72-0.431-1.552-0.375-1.851,0.122C251.186,39.879,251.53,40.64,252.261,41.066z"/>
			<path style="fill:#FFBA00;" d="M241.095,59.467c0.335-0.776,1.045-1.212,1.572-0.979c0.532,0.229,0.689,1.045,0.355,1.815
				c-0.34,0.776-1.044,1.217-1.572,0.984C240.913,61.054,240.76,60.238,241.095,59.467z"/>
		</g>
		<g>
			<path style="fill:#DE0900;stroke:#FC6243;stroke-width:1.984;stroke-linecap:round;stroke-linejoin:round;" d="M176.302,37.486
				c11.774-0.923,79.27-10.466,79.27-10.466c2.997,17.889-12.256,35.353-34.06,39.003c-21.799,3.651-41.899-7.9-44.896-25.789
				C176.464,39.316,176.357,38.398,176.302,37.486"/>
			<path style="fill:#FFBA00;" d="M232.952,56.577c-0.416,0.735-1.162,1.095-1.668,0.806c-0.502-0.284-0.573-1.116-0.157-1.846
				c0.426-0.73,1.166-1.095,1.673-0.806C233.307,55.02,233.372,55.847,232.952,56.577z"/>
			<path style="fill:#FFBA00;" d="M248.833,40.995c-0.457,0.71-1.228,1.029-1.714,0.715c-0.487-0.314-0.507-1.141-0.051-1.851
				c0.456-0.71,1.217-1.029,1.709-0.715C249.264,39.458,249.289,40.285,248.833,40.995z"/>
			<path style="fill:#FFBA00;" d="M241.896,49.148c-0.152,0.832-0.73,1.42-1.303,1.323c-0.573-0.101-0.913-0.857-0.766-1.688
				c0.142-0.832,0.72-1.42,1.298-1.318C241.693,47.561,242.038,48.317,241.896,49.148z"/>
			<path style="fill:#FFBA00;" d="M235.335,47.81c-0.381,0.75-1.105,1.156-1.623,0.903c-0.522-0.264-0.639-1.085-0.264-1.835
				c0.375-0.761,1.105-1.162,1.623-0.903C235.588,46.233,235.71,47.054,235.335,47.81z"/>
			<path style="fill:#FFBA00;" d="M240.542,44.849c-0.329,0.781-1.029,1.227-1.562,1.004c-0.532-0.229-0.7-1.045-0.37-1.815
				c0.325-0.781,1.024-1.227,1.562-1.004C240.705,43.261,240.872,44.073,240.542,44.849z"/>
			<path style="fill:#FFBA00;" d="M186.575,47.901c-0.639-0.558-1.46-0.659-1.846-0.223c-0.38,0.436-0.178,1.248,0.456,1.805
				c0.634,0.553,1.456,0.649,1.841,0.213C187.407,49.26,187.204,48.459,186.575,47.901z"/>
			<path style="fill:#FFBA00;" d="M190.337,51.263c-0.284-0.791-0.953-1.278-1.501-1.08c-0.547,0.193-0.76,0.999-0.477,1.795
				c0.294,0.791,0.963,1.278,1.511,1.075C190.419,52.86,190.622,52.059,190.337,51.263z"/>
			<path style="fill:#FFBA00;" d="M194.759,50.365c-0.416-0.74-1.151-1.11-1.664-0.832c-0.507,0.284-0.588,1.105-0.177,1.846
				s1.151,1.11,1.658,0.832C195.083,51.927,195.165,51.105,194.759,50.365z"/>
			<path style="fill:#FFBA00;" d="M188.68,45.913c-0.604-0.588-1.415-0.735-1.826-0.324c-0.411,0.416-0.249,1.232,0.35,1.825
				c0.603,0.588,1.419,0.735,1.825,0.325C189.435,47.323,189.283,46.506,188.68,45.913z"/>
			<path style="fill:#FFBA00;" d="M193.486,55.086c-0.562-0.624-1.374-0.821-1.8-0.436c-0.437,0.391-0.325,1.212,0.238,1.841
				c0.562,0.629,1.369,0.821,1.8,0.436C194.156,56.536,194.049,55.71,193.486,55.086z"/>
			<path style="fill:#FFBA00;" d="M203.754,54.503c0.416-0.73,1.167-1.095,1.668-0.806s0.573,1.116,0.152,1.851
				c-0.416,0.73-1.162,1.09-1.668,0.801C203.405,56.065,203.333,55.233,203.754,54.503z"/>
			<path style="fill:#FFBA00;" d="M199.089,59.563c0.457-0.71,1.222-1.029,1.709-0.715c0.492,0.314,0.512,1.141,0.056,1.851
				s-1.227,1.029-1.714,0.71C198.653,61.1,198.633,60.269,199.089,59.563z"/>
			<path style="fill:#FFBA00;" d="M215.229,56.501c0.147-0.832,0.725-1.43,1.298-1.329c0.573,0.102,0.918,0.857,0.771,1.693
				c-0.147,0.832-0.725,1.42-1.298,1.319C215.427,58.083,215.083,57.333,215.229,56.501z"/>
			<path style="fill:#FFBA00;" d="M204.525,59.335c0.375-0.755,1.1-1.161,1.623-0.897c0.517,0.258,0.634,1.075,0.258,1.835
				c-0.375,0.755-1.1,1.156-1.623,0.897C204.267,60.912,204.15,60.091,204.525,59.335z"/>
			<path style="fill:#FFBA00;" d="M209.586,60.385c0.324-0.775,1.024-1.222,1.562-0.994c0.538,0.223,0.7,1.035,0.375,1.815
				c-0.335,0.776-1.035,1.222-1.562,0.994C209.424,61.977,209.256,61.166,209.586,60.385z"/>
			<path style="fill:#FFBA00;" d="M216.522,60.091c-0.639-0.558-1.46-0.659-1.846-0.223s-0.183,1.248,0.457,1.805
				c0.628,0.548,1.46,0.649,1.84,0.213C217.354,61.45,217.151,60.648,216.522,60.091z"/>
			<path style="fill:#FFBA00;" d="M228.114,58.281c-0.669-0.522-1.491-0.573-1.856-0.117c-0.355,0.456-0.112,1.248,0.558,1.77
				c0.659,0.518,1.491,0.573,1.846,0.117C229.021,59.594,228.773,58.803,228.114,58.281z"/>
			<path style="fill:#FFBA00;" d="M224.108,54.594c-0.411-0.74-1.151-1.116-1.663-0.832c-0.507,0.284-0.583,1.105-0.173,1.846
				c0.406,0.74,1.146,1.11,1.653,0.832C224.433,56.156,224.514,55.334,224.108,54.594z"/>
			<path style="fill:#FFBA00;" d="M212.01,55.979c-0.604-0.593-1.42-0.735-1.831-0.324c-0.411,0.411-0.249,1.232,0.35,1.82
				c0.604,0.593,1.42,0.74,1.831,0.324C212.76,57.383,212.608,56.572,212.01,55.979z"/>
			<path style="fill:#FFBA00;" d="M221.918,59.827c-0.568-0.629-1.369-0.827-1.806-0.436c-0.426,0.385-0.324,1.207,0.244,1.835
				c0.558,0.629,1.369,0.822,1.8,0.436C222.587,61.277,222.48,60.451,221.918,59.827z"/>
			<path style="fill:#FFBA00;" d="M246.308,45.335c-0.223,0.822-0.852,1.359-1.41,1.202c-0.563-0.147-0.836-0.933-0.614-1.75
				c0.218-0.812,0.857-1.349,1.415-1.197C246.257,43.743,246.531,44.524,246.308,45.335z"/>
			<path style="fill:#FFBA00;" d="M199.155,54.604c-0.39-0.746-1.121-1.136-1.638-0.872c-0.512,0.269-0.619,1.095-0.223,1.846
				c0.385,0.745,1.121,1.136,1.633,0.867C199.444,56.176,199.546,55.355,199.155,54.604z"/>
			<path style="fill:#FFBA00;" d="M227.708,53.418c0.314-0.781,1.009-1.237,1.546-1.024c0.542,0.218,0.715,1.035,0.4,1.815
				c-0.314,0.781-1.004,1.237-1.546,1.019C227.577,55.01,227.394,54.199,227.708,53.418z"/>
			<path style="fill:#FFBA00;" d="M237.033,52.16c-0.705-0.466-1.536-0.451-1.855,0.031c-0.32,0.487-0.01,1.257,0.694,1.724
				c0.7,0.466,1.531,0.456,1.851-0.031C238.042,53.397,237.733,52.627,237.033,52.16z"/>
			<path style="fill:#FFBA00;" d="M249.102,34.347c-0.375,0.755-1.101,1.161-1.618,0.897c-0.522-0.253-0.639-1.08-0.264-1.835
				c0.375-0.75,1.105-1.156,1.623-0.897C249.36,32.77,249.477,33.592,249.102,34.347z"/>
		</g>
		<g>
			<path style="fill:#DE0900;stroke:#FC6243;stroke-width:1.984;stroke-linecap:round;stroke-linejoin:round;" d="M273.172,62.195
				c-11.723-1.506-78.651-14.416-78.651-14.416c-3.889,17.717,10.466,35.921,32.062,40.657c21.591,4.736,42.244-5.791,46.133-23.508
				C272.913,64.016,273.065,63.108,273.172,62.195"/>
			<path style="fill:#FFBA00;" d="M215.63,78.426c0.38,0.756,1.11,1.156,1.628,0.893c0.522-0.264,0.629-1.085,0.249-1.835
				c-0.385-0.75-1.111-1.151-1.628-0.893C215.361,76.854,215.25,77.681,215.63,78.426z"/>
			<path style="fill:#FFBA00;" d="M200.555,62.074c0.421,0.73,1.171,1.09,1.674,0.796c0.502-0.284,0.562-1.116,0.146-1.846
				c-0.426-0.73-1.171-1.085-1.673-0.801C200.195,60.517,200.134,61.349,200.555,62.074z"/>
			<path style="fill:#FFBA00;" d="M207.071,70.562c0.111,0.836,0.659,1.455,1.237,1.384c0.573-0.071,0.953-0.807,0.852-1.643
				c-0.102-0.842-0.654-1.46-1.232-1.389C207.354,68.985,206.969,69.725,207.071,70.562z"/>
			<path style="fill:#FFBA00;" d="M213.693,69.553c0.345,0.771,1.044,1.217,1.577,0.984c0.533-0.233,0.685-1.05,0.35-1.826
				c-0.335-0.771-1.045-1.207-1.572-0.979C213.521,67.966,213.358,68.782,213.693,69.553z"/>
			<path style="fill:#FFBA00;" d="M208.643,66.338c0.284,0.791,0.963,1.278,1.506,1.075c0.548-0.198,0.756-1.004,0.462-1.795
				c-0.284-0.791-0.964-1.278-1.506-1.075C208.557,64.746,208.349,65.547,208.643,66.338z"/>
			<path style="fill:#FFBA00;" d="M262.387,72.088c0.664-0.527,1.491-0.583,1.856-0.132c0.36,0.457,0.117,1.253-0.548,1.775
				c-0.664,0.527-1.486,0.583-1.851,0.132C261.484,73.406,261.732,72.61,262.387,72.088z"/>
			<path style="fill:#FFBA00;" d="M258.457,75.257c0.324-0.776,1.024-1.227,1.557-1.009c0.532,0.229,0.705,1.04,0.38,1.815
				c-0.325,0.781-1.024,1.227-1.552,1.004C258.3,76.844,258.132,76.033,258.457,75.257z"/>
			<path style="fill:#FFBA00;" d="M254.086,74.137c0.446-0.72,1.207-1.05,1.704-0.74c0.497,0.304,0.527,1.131,0.086,1.851
				c-0.446,0.715-1.207,1.05-1.699,0.746C253.686,75.683,253.645,74.856,254.086,74.137z"/>
			<path style="fill:#FFBA00;" d="M260.384,69.999c0.629-0.558,1.45-0.669,1.841-0.233c0.385,0.431,0.188,1.242-0.441,1.805
				c-0.634,0.558-1.455,0.659-1.84,0.228C259.552,71.368,259.755,70.557,260.384,69.999z"/>
			<path style="fill:#FFBA00;" d="M255.121,78.918c0.598-0.599,1.41-0.756,1.825-0.345c0.411,0.411,0.264,1.222-0.334,1.821
				c-0.588,0.598-1.41,0.755-1.815,0.345C254.38,80.333,254.532,79.512,255.121,78.918z"/>
			<path style="fill:#FFBA00;" d="M244.898,77.823c-0.375-0.756-1.105-1.156-1.627-0.888c-0.518,0.254-0.629,1.08-0.244,1.836
				c0.38,0.75,1.111,1.146,1.627,0.887C245.172,79.4,245.283,78.568,244.898,77.823z"/>
			<path style="fill:#FFBA00;" d="M249.305,83.106c-0.421-0.735-1.172-1.09-1.674-0.796c-0.502,0.284-0.562,1.116-0.147,1.846
				c0.426,0.73,1.171,1.085,1.673,0.796C249.665,84.664,249.725,83.837,249.305,83.106z"/>
			<path style="fill:#FFBA00;" d="M233.337,79.238c-0.102-0.842-0.654-1.46-1.227-1.389c-0.578,0.076-0.963,0.811-0.857,1.653
				c0.106,0.832,0.654,1.45,1.232,1.379C233.063,80.81,233.443,80.08,233.337,79.238z"/>
			<path style="fill:#FFBA00;" d="M243.884,82.61c-0.334-0.776-1.04-1.212-1.572-0.984c-0.533,0.233-0.69,1.05-0.35,1.826
				s1.04,1.212,1.572,0.979C244.066,84.197,244.224,83.38,243.884,82.61z"/>
			<path style="fill:#FFBA00;" d="M238.783,83.406c-0.294-0.791-0.968-1.278-1.511-1.075c-0.547,0.198-0.75,1.004-0.466,1.795
				c0.294,0.791,0.963,1.272,1.511,1.075C238.864,84.998,239.072,84.197,238.783,83.406z"/>
			<path style="fill:#FFBA00;" d="M231.866,82.757c0.665-0.517,1.491-0.578,1.856-0.122c0.36,0.451,0.112,1.247-0.547,1.774
				c-0.659,0.518-1.491,0.578-1.846,0.122C230.964,84.08,231.212,83.284,231.866,82.757z"/>
			<path style="fill:#FFBA00;" d="M220.381,80.374c0.689-0.487,1.521-0.497,1.856-0.02c0.33,0.466,0.045,1.247-0.644,1.734
				c-0.685,0.487-1.516,0.497-1.851,0.025C219.402,81.641,219.697,80.86,220.381,80.374z"/>
			<path style="fill:#FFBA00;" d="M224.564,76.895c0.446-0.72,1.207-1.055,1.699-0.75c0.492,0.31,0.533,1.136,0.086,1.856
				c-0.446,0.715-1.207,1.044-1.694,0.74C224.159,78.437,224.118,77.605,224.564,76.895z"/>
			<path style="fill:#FFBA00;" d="M236.582,78.883c0.629-0.563,1.455-0.669,1.841-0.233c0.385,0.431,0.188,1.237-0.441,1.8
				s-1.455,0.664-1.84,0.233C235.756,80.247,235.953,79.44,236.582,78.883z"/>
			<path style="fill:#FFBA00;" d="M226.491,82.229c0.599-0.604,1.41-0.755,1.826-0.35c0.406,0.411,0.264,1.227-0.334,1.821
				c-0.594,0.603-1.41,0.76-1.82,0.345C225.751,83.639,225.893,82.828,226.491,82.229z"/>
			<path style="fill:#FFBA00;" d="M202.852,66.541c0.183,0.821,0.791,1.389,1.354,1.262c0.573-0.122,0.882-0.887,0.699-1.719
				c-0.177-0.821-0.786-1.389-1.354-1.263C202.984,64.943,202.68,65.714,202.852,66.541z"/>
			<path style="fill:#FFBA00;" d="M249.482,78.153c0.431-0.73,1.181-1.085,1.684-0.786c0.497,0.289,0.558,1.121,0.132,1.851
				c-0.426,0.72-1.176,1.075-1.679,0.781C249.117,79.709,249.056,78.878,249.482,78.153z"/>
			<path style="fill:#FFBA00;" d="M221.025,75.536c-0.274-0.796-0.943-1.288-1.491-1.095c-0.547,0.183-0.771,0.989-0.492,1.785
				c0.279,0.801,0.948,1.293,1.496,1.096C221.086,77.133,221.304,76.332,221.025,75.536z"/>
			<path style="fill:#FFBA00;" d="M211.776,73.812c0.73-0.426,1.552-0.375,1.856,0.127c0.294,0.497-0.051,1.252-0.781,1.684
				c-0.72,0.431-1.552,0.38-1.851-0.122C210.707,74.999,211.056,74.248,211.776,73.812z"/>
			<path style="fill:#FFBA00;" d="M200.616,55.416c0.334,0.776,1.04,1.217,1.577,0.984c0.527-0.233,0.685-1.044,0.35-1.82
				c-0.339-0.776-1.044-1.212-1.577-0.979C200.433,53.833,200.276,54.645,200.616,55.416z"/>
		</g>
		<g>
			<path style="fill:#DE0900;stroke:#FC6243;stroke-width:1.984;stroke-linecap:round;stroke-linejoin:round;" d="M348.046,44.564
				c-11.643,2.013-79.407,9.36-79.407,9.36c1.496,18.072,20.566,31.251,42.599,29.43c22.032-1.825,38.675-17.96,37.179-36.042
				C348.34,46.39,348.218,45.472,348.046,44.564"/>
			<path style="fill:#FFBA00;" d="M297.826,77.007c0.588,0.608,1.399,0.781,1.82,0.375c0.42-0.406,0.278-1.222-0.31-1.831
				c-0.578-0.604-1.395-0.776-1.815-0.37C297.105,75.587,297.242,76.403,297.826,77.007z"/>
			<path style="fill:#FFBA00;" d="M278.607,65.811c0.619,0.573,1.44,0.7,1.836,0.274s0.213-1.237-0.405-1.815
				c-0.619-0.568-1.44-0.689-1.836-0.264C277.807,64.426,277.989,65.238,278.607,65.811z"/>
			<path style="fill:#FFBA00;" d="M287.334,72.007c0.351,0.771,1.061,1.197,1.588,0.963c0.527-0.238,0.68-1.055,0.324-1.825
				c-0.335-0.771-1.045-1.202-1.582-0.963C287.142,70.42,286.995,71.236,287.334,72.007z"/>
			<path style="fill:#FFBA00;" d="M293.363,69.096c0.553,0.639,1.359,0.852,1.795,0.477c0.441-0.386,0.355-1.207-0.197-1.846
				c-0.553-0.644-1.354-0.852-1.79-0.477C292.729,67.631,292.816,68.458,293.363,69.096z"/>
			<path style="fill:#FFBA00;" d="M287.588,67.504c0.512,0.674,1.298,0.943,1.76,0.588c0.467-0.355,0.426-1.181-0.086-1.856
				c-0.508-0.669-1.293-0.928-1.76-0.578C287.04,66.008,287.081,66.835,287.588,67.504z"/>
			<path style="fill:#FFBA00;" d="M340.652,57.19c0.477-0.695,1.253-0.994,1.734-0.659c0.477,0.325,0.477,1.156,0,1.851
				c-0.481,0.695-1.252,0.994-1.734,0.665C340.176,58.722,340.176,57.89,340.652,57.19z"/>
			<path style="fill:#FFBA00;" d="M337.823,61.379c0.086-0.842,0.618-1.471,1.196-1.42c0.578,0.061,0.979,0.786,0.903,1.623
				c-0.087,0.842-0.619,1.476-1.197,1.42S337.742,62.221,337.823,61.379z"/>
			<path style="fill:#FFBA00;" d="M333.32,61.597c0.218-0.816,0.847-1.364,1.41-1.212c0.558,0.142,0.842,0.928,0.629,1.745
				c-0.219,0.821-0.848,1.359-1.41,1.207C333.392,63.194,333.107,62.408,333.32,61.597z"/>
			<path style="fill:#FFBA00;" d="M338.122,55.791c0.437-0.72,1.192-1.065,1.688-0.766c0.497,0.299,0.548,1.131,0.106,1.851
				c-0.44,0.72-1.191,1.065-1.688,0.761C337.732,57.337,337.682,56.511,338.122,55.791z"/>
			<path style="fill:#FFBA00;" d="M335.719,65.861c0.391-0.75,1.121-1.136,1.638-0.872c0.518,0.274,0.614,1.095,0.224,1.846
				c-0.396,0.74-1.126,1.136-1.644,0.862C335.425,67.428,335.328,66.606,335.719,65.861z"/>
			<path style="fill:#FFBA00;" d="M325.623,67.818c-0.588-0.608-1.399-0.771-1.815-0.37c-0.415,0.401-0.284,1.222,0.305,1.831
				c0.583,0.609,1.399,0.771,1.815,0.365C326.343,69.244,326.211,68.427,325.623,67.818z"/>
			<path style="fill:#FFBA00;" d="M331.389,71.571c-0.619-0.568-1.44-0.695-1.831-0.264c-0.4,0.421-0.218,1.227,0.401,1.805
				c0.613,0.573,1.435,0.695,1.83,0.274C332.185,72.96,332.002,72.149,331.389,71.571z"/>
			<path style="fill:#FFBA00;" d="M314.99,72.575c-0.35-0.771-1.061-1.207-1.588-0.963c-0.527,0.238-0.674,1.055-0.324,1.826
				c0.345,0.771,1.05,1.197,1.582,0.963C315.188,74.157,315.335,73.346,314.99,72.575z"/>
			<path style="fill:#FFBA00;" d="M326.06,72.691c-0.548-0.639-1.349-0.847-1.785-0.472c-0.446,0.375-0.354,1.202,0.198,1.846
				c0.547,0.639,1.354,0.847,1.789,0.467C326.703,74.157,326.617,73.331,326.06,72.691z"/>
			<path style="fill:#FFBA00;" d="M321.414,74.958c-0.507-0.674-1.298-0.933-1.754-0.588c-0.467,0.354-0.426,1.176,0.081,1.855
				c0.512,0.669,1.298,0.933,1.765,0.578C321.967,76.459,321.927,75.627,321.414,74.958z"/>
			<path style="fill:#FFBA00;" d="M314.62,76.368c0.481-0.689,1.257-0.994,1.733-0.659c0.477,0.325,0.477,1.156,0,1.856
				c-0.477,0.689-1.252,0.989-1.729,0.659C314.148,77.899,314.148,77.067,314.62,76.368z"/>
			<path style="fill:#FFBA00;" d="M302.938,77.473c0.517-0.669,1.308-0.923,1.77-0.573c0.461,0.35,0.41,1.181-0.107,1.851
				c-0.507,0.664-1.298,0.923-1.759,0.568C302.379,78.964,302.43,78.138,302.938,77.473z"/>
			<path style="fill:#FFBA00;" d="M305.918,72.91c0.214-0.822,0.842-1.359,1.4-1.207c0.567,0.142,0.842,0.923,0.629,1.745
				c-0.214,0.816-0.842,1.354-1.405,1.207C305.979,74.507,305.7,73.726,305.918,72.91z"/>
			<path style="fill:#FFBA00;" d="M317.986,71.277c0.437-0.72,1.197-1.065,1.694-0.761c0.491,0.294,0.537,1.126,0.101,1.851
				c-0.436,0.72-1.191,1.06-1.688,0.76C317.597,72.829,317.551,71.997,317.986,71.277z"/>
			<path style="fill:#FFBA00;" d="M309.326,77.443c0.391-0.75,1.125-1.136,1.638-0.867c0.512,0.269,0.613,1.095,0.218,1.841
				c-0.385,0.75-1.125,1.136-1.633,0.862C309.032,79.015,308.936,78.193,309.326,77.443z"/>
			<path style="fill:#FFBA00;" d="M282.117,69.4c0.415,0.73,1.166,1.101,1.668,0.812c0.507-0.284,0.583-1.105,0.162-1.846
				c-0.416-0.73-1.161-1.095-1.663-0.812C281.777,67.839,281.706,68.666,282.117,69.4z"/>
			<path style="fill:#FFBA00;" d="M330.105,66.784c0.193-0.821,0.807-1.379,1.374-1.242c0.563,0.126,0.862,0.908,0.67,1.729
				c-0.198,0.821-0.807,1.379-1.374,1.237C330.207,68.381,329.913,67.605,330.105,66.784z"/>
			<path style="fill:#FFBA00;" d="M302.136,72.656c-0.497-0.68-1.277-0.954-1.755-0.609c-0.466,0.34-0.436,1.177,0.062,1.856
				c0.497,0.68,1.282,0.953,1.749,0.608S302.633,73.335,302.136,72.656z"/>
			<path style="fill:#FFBA00;" d="M292.791,73.731c0.562-0.624,1.374-0.811,1.805-0.426c0.431,0.39,0.319,1.217-0.248,1.84
				c-0.568,0.624-1.375,0.816-1.806,0.421C292.116,75.181,292.228,74.36,292.791,73.731z"/>
			<path style="fill:#FFBA00;" d="M276.711,59.432c0.548,0.639,1.35,0.852,1.785,0.477c0.446-0.375,0.355-1.207-0.192-1.846
				c-0.553-0.639-1.354-0.852-1.795-0.477C276.067,57.971,276.158,58.793,276.711,59.432z"/>
		</g>
		<g>
			<path style="fill:#DE0900;stroke:#FC6243;stroke-width:1.984;stroke-linecap:round;stroke-linejoin:round;" d="M211.351,109.591
				c11.678-1.785,79.569-7.85,79.569-7.85c-1.151-18.097-19.969-31.631-42.031-30.226s-39.009,17.225-37.853,35.323
				C211.092,107.766,211.198,108.688,211.351,109.591"/>
			<path style="fill:#FFBA00;" d="M262.179,78.112c-0.578-0.619-1.389-0.801-1.815-0.406c-0.426,0.39-0.304,1.212,0.274,1.835
				c0.568,0.614,1.379,0.796,1.805,0.4C262.869,79.552,262.747,78.726,262.179,78.112z"/>
			<path style="fill:#FFBA00;" d="M281.184,89.673c-0.608-0.588-1.43-0.725-1.836-0.304c-0.4,0.411-0.232,1.227,0.376,1.815
				c0.604,0.583,1.42,0.72,1.825,0.304C281.954,91.073,281.787,90.256,281.184,89.673z"/>
			<path style="fill:#FFBA00;" d="M272.574,83.314c-0.335-0.781-1.035-1.227-1.572-0.994c-0.527,0.223-0.689,1.04-0.365,1.815
				c0.335,0.776,1.034,1.222,1.566,0.994C272.736,84.896,272.898,84.085,272.574,83.314z"/>
			<path style="fill:#FFBA00;" d="M266.484,86.108c-0.538-0.649-1.333-0.877-1.78-0.512c-0.451,0.375-0.375,1.197,0.162,1.851
				c0.538,0.654,1.339,0.877,1.785,0.507S267.021,86.758,266.484,86.108z"/>
			<path style="fill:#FFBA00;" d="M272.229,87.802c-0.496-0.685-1.277-0.958-1.744-0.614c-0.471,0.34-0.446,1.167,0.051,1.851
				c0.497,0.679,1.278,0.958,1.744,0.613C272.751,89.313,272.726,88.487,272.229,87.802z"/>
			<path style="fill:#FFBA00;" d="M218.987,97.107c-0.497,0.689-1.278,0.974-1.744,0.639c-0.477-0.339-0.457-1.171,0.03-1.856
				c0.492-0.689,1.268-0.974,1.744-0.634C219.484,95.596,219.474,96.427,218.987,97.107z"/>
			<path style="fill:#FFBA00;" d="M221.887,92.979c-0.101,0.836-0.644,1.46-1.222,1.394c-0.573-0.066-0.963-0.801-0.867-1.638
				c0.102-0.836,0.645-1.46,1.222-1.399C221.598,91.407,221.989,92.138,221.887,92.979z"/>
			<path style="fill:#FFBA00;" d="M226.39,92.848c-0.228,0.811-0.862,1.349-1.425,1.187c-0.563-0.163-0.822-0.943-0.593-1.76
				c0.233-0.812,0.867-1.344,1.425-1.182C226.354,91.25,226.623,92.036,226.39,92.848z"/>
			<path style="fill:#FFBA00;" d="M221.487,98.562c-0.452,0.715-1.212,1.04-1.704,0.735c-0.492-0.314-0.522-1.146-0.071-1.856
				s1.212-1.04,1.704-0.73C221.908,97.021,221.938,97.852,221.487,98.562z"/>
			<path style="fill:#FFBA00;" d="M224.078,88.537c-0.406,0.741-1.146,1.116-1.653,0.837s-0.588-1.105-0.183-1.846
				c0.406-0.735,1.146-1.11,1.653-0.832C224.402,86.976,224.483,87.802,224.078,88.537z"/>
			<path style="fill:#FFBA00;" d="M234.209,86.773c0.578,0.619,1.39,0.801,1.815,0.406c0.421-0.396,0.299-1.217-0.274-1.836
				s-1.379-0.801-1.81-0.406C233.52,85.333,233.636,86.154,234.209,86.773z"/>
			<path style="fill:#FFBA00;" d="M228.52,82.909c0.604,0.588,1.42,0.72,1.826,0.304c0.406-0.416,0.238-1.227-0.365-1.821
				c-0.608-0.583-1.43-0.72-1.831-0.299C227.749,81.509,227.911,82.321,228.52,82.909z"/>
			<path style="fill:#FFBA00;" d="M244.934,82.219c0.33,0.776,1.029,1.222,1.567,0.994c0.527-0.229,0.695-1.045,0.365-1.821
				c-0.334-0.775-1.034-1.222-1.566-0.989C244.766,80.627,244.604,81.438,244.934,82.219z"/>
			<path style="fill:#FFBA00;" d="M233.864,81.885c0.538,0.659,1.339,0.882,1.785,0.517c0.446-0.375,0.371-1.197-0.172-1.851
				c-0.532-0.649-1.328-0.877-1.774-0.507C233.25,80.414,233.327,81.241,233.864,81.885z"/>
			<path style="fill:#FFBA00;" d="M238.55,79.714c0.497,0.68,1.277,0.958,1.749,0.619c0.472-0.345,0.446-1.166-0.045-1.856
				c-0.502-0.679-1.288-0.953-1.754-0.613C238.032,78.203,238.053,79.035,238.55,79.714z"/>
			<path style="fill:#FFBA00;" d="M245.375,78.426c-0.497,0.69-1.278,0.974-1.744,0.634c-0.477-0.34-0.457-1.167,0.03-1.856
				c0.492-0.685,1.273-0.969,1.745-0.629C245.876,76.916,245.861,77.747,245.375,78.426z"/>
			<path style="fill:#FFBA00;" d="M257.073,77.554c-0.533,0.659-1.324,0.897-1.78,0.533c-0.446-0.36-0.386-1.192,0.142-1.851
				c0.527-0.654,1.319-0.892,1.77-0.527C257.661,76.063,257.6,76.895,257.073,77.554z"/>
			<path style="fill:#FFBA00;" d="M254.015,82.057c-0.233,0.811-0.872,1.338-1.43,1.181c-0.558-0.157-0.821-0.948-0.593-1.759
				c0.229-0.812,0.867-1.339,1.425-1.182C253.975,80.455,254.238,81.246,254.015,82.057z"/>
			<path style="fill:#FFBA00;" d="M241.911,83.457c-0.451,0.715-1.212,1.044-1.708,0.73c-0.487-0.304-0.517-1.136-0.071-1.851
				c0.456-0.715,1.217-1.04,1.708-0.725C242.332,81.915,242.363,82.747,241.911,83.457z"/>
			<path style="fill:#FFBA00;" d="M250.688,77.458c-0.405,0.74-1.146,1.11-1.653,0.836c-0.512-0.284-0.598-1.105-0.188-1.846
				c0.4-0.74,1.146-1.115,1.653-0.832C251.013,75.891,251.094,76.718,250.688,77.458z"/>
			<path style="fill:#FFBA00;" d="M277.735,86.012c-0.4-0.74-1.136-1.121-1.647-0.842c-0.513,0.274-0.604,1.101-0.198,1.841
				c0.396,0.745,1.136,1.121,1.648,0.847C278.05,87.584,278.142,86.758,277.735,86.012z"/>
			<path style="fill:#FFBA00;" d="M229.711,87.716c-0.208,0.821-0.837,1.369-1.395,1.222c-0.558-0.142-0.852-0.923-0.639-1.739
				c0.208-0.816,0.832-1.364,1.395-1.222C229.635,86.124,229.919,86.905,229.711,87.716z"/>
			<path style="fill:#FFBA00;" d="M257.788,82.382c0.487,0.689,1.257,0.979,1.734,0.639c0.477-0.335,0.466-1.166-0.021-1.856
				c-0.487-0.685-1.263-0.974-1.739-0.639C257.291,80.86,257.301,81.692,257.788,82.382z"/>
			<path style="fill:#FFBA00;" d="M267.148,81.479c-0.578,0.619-1.389,0.791-1.81,0.396s-0.299-1.217,0.279-1.835
				c0.578-0.614,1.395-0.791,1.815-0.391C267.853,80.044,267.726,80.871,267.148,81.479z"/>
			<path style="fill:#FFBA00;" d="M282.959,96.083c-0.538-0.649-1.339-0.872-1.785-0.507c-0.446,0.37-0.375,1.196,0.162,1.846
				c0.543,0.649,1.339,0.882,1.785,0.507C283.567,97.563,283.496,96.731,282.959,96.083z"/>
		</g>
		<g>
			<path style="fill:#DE0900;stroke:#FC6243;stroke-width:1.984;stroke-linecap:round;stroke-linejoin:round;" d="M331.981,80.708
				c-11.063,4.128-73.301,31.925-73.301,31.925c-7.819-16.368,2.018-37.36,21.966-46.883c19.948-9.523,42.462-3.976,50.275,12.397
				C331.322,78.984,331.678,79.841,331.981,80.708"/>
			<path style="fill:#FFBA00;" d="M272.26,77.985c0.202-0.816,0.821-1.374,1.384-1.237c0.563,0.137,0.857,0.918,0.659,1.739
				c-0.197,0.812-0.816,1.369-1.384,1.232C272.36,79.583,272.062,78.802,272.26,77.985z"/>
			<path style="fill:#FFBA00;" d="M261.302,97.345c0.243-0.812,0.893-1.329,1.445-1.161c0.558,0.167,0.811,0.958,0.567,1.77
				c-0.248,0.806-0.892,1.324-1.45,1.156C261.307,98.942,261.058,98.151,261.302,97.345z"/>
			<path style="fill:#FFBA00;" d="M265.718,87.594c-0.086-0.842,0.304-1.572,0.882-1.633s1.115,0.573,1.207,1.41
				c0.091,0.842-0.304,1.572-0.882,1.633S265.81,88.436,265.718,87.594z"/>
			<path style="fill:#FFBA00;" d="M272.396,87.067c0.157-0.821,0.735-1.41,1.313-1.308c0.567,0.101,0.902,0.862,0.75,1.693
				c-0.152,0.827-0.735,1.415-1.308,1.309C272.584,88.659,272.239,87.898,272.396,87.067z"/>
			<path style="fill:#FFBA00;" d="M268.203,91.352c0.101-0.836,0.649-1.465,1.227-1.395c0.578,0.071,0.964,0.812,0.862,1.648
				c-0.102,0.837-0.649,1.456-1.227,1.39C268.487,92.923,268.102,92.188,268.203,91.352z"/>
			<path style="fill:#FFBA00;" d="M319.234,73.528c0.766,0.36,1.582,0.223,1.835-0.294c0.244-0.527-0.172-1.247-0.933-1.607
				c-0.766-0.36-1.582-0.228-1.836,0.299C318.058,72.448,318.474,73.168,319.234,73.528z"/>
			<path style="fill:#FFBA00;" d="M314.69,71.333c0.492,0.685,1.273,0.963,1.745,0.624c0.466-0.334,0.445-1.166-0.046-1.855
				c-0.492-0.68-1.272-0.958-1.744-0.619C314.174,69.821,314.193,70.648,314.69,71.333z"/>
			<path style="fill:#FFBA00;" d="M310.685,73.417c0.604,0.599,1.42,0.75,1.826,0.34c0.415-0.411,0.264-1.227-0.335-1.826
				c-0.599-0.593-1.41-0.745-1.82-0.339C309.944,72.007,310.097,72.818,310.685,73.417z"/>
			<path style="fill:#FFBA00;" d="M317.759,76.013c0.745,0.406,1.566,0.325,1.846-0.192c0.278-0.507-0.102-1.248-0.842-1.653
				c-0.745-0.396-1.567-0.314-1.841,0.198C316.638,74.872,317.019,75.617,317.759,76.013z"/>
			<path style="fill:#FFBA00;" d="M310.604,68.528c0.721,0.446,1.552,0.416,1.856-0.081c0.31-0.487-0.021-1.252-0.74-1.699
				c-0.71-0.451-1.542-0.411-1.846,0.076C309.564,67.316,309.894,68.082,310.604,68.528z"/>
			<path style="fill:#FFBA00;" d="M300.898,71.921c-0.192,0.816-0.816,1.374-1.379,1.232c-0.563-0.132-0.862-0.913-0.659-1.729
				c0.202-0.816,0.821-1.374,1.379-1.232C300.808,70.323,301.102,71.104,300.898,71.921z"/>
			<path style="fill:#FFBA00;" d="M303.992,65.77c-0.244,0.812-0.893,1.329-1.451,1.156c-0.558-0.163-0.806-0.954-0.562-1.765
				c0.243-0.801,0.893-1.324,1.445-1.156C303.981,64.173,304.235,64.969,303.992,65.77z"/>
			<path style="fill:#FFBA00;" d="M289.322,73.168c0.086,0.842-0.31,1.572-0.883,1.633c-0.578,0.056-1.12-0.573-1.206-1.41
				c-0.092-0.836,0.304-1.567,0.882-1.627C288.693,71.703,289.23,72.332,289.322,73.168z"/>
			<path style="fill:#FFBA00;" d="M298.824,67.484c-0.151,0.832-0.734,1.42-1.308,1.318s-0.908-0.862-0.756-1.693
				s0.74-1.42,1.309-1.309C298.637,65.902,298.981,66.663,298.824,67.484z"/>
			<path style="fill:#FFBA00;" d="M293.673,67.875c-0.097,0.836-0.649,1.46-1.222,1.394c-0.578-0.071-0.964-0.811-0.862-1.647
				c0.102-0.837,0.649-1.456,1.228-1.385C293.394,66.297,293.774,67.038,293.673,67.875z"/>
			<path style="fill:#FFBA00;" d="M287.091,70.075c0.766,0.36,1.582,0.228,1.831-0.299c0.248-0.517-0.173-1.237-0.934-1.603
				c-0.76-0.355-1.582-0.223-1.83,0.299S286.33,69.715,287.091,70.075z"/>
			<path style="fill:#FFBA00;" d="M276.447,75.014c0.781,0.32,1.593,0.137,1.811-0.4c0.219-0.538-0.238-1.227-1.02-1.546
				c-0.78-0.314-1.592-0.137-1.814,0.4C275.211,74.005,275.667,74.694,276.447,75.014z"/>
			<path style="fill:#FFBA00;" d="M281.315,77.453c0.599,0.598,1.41,0.75,1.82,0.334c0.411-0.406,0.259-1.222-0.34-1.82
				c-0.593-0.593-1.409-0.746-1.82-0.34C280.565,76.038,280.717,76.854,281.315,77.453z"/>
			<path style="fill:#FFBA00;" d="M292.562,72.783c0.74,0.401,1.572,0.314,1.846-0.198c0.273-0.507-0.102-1.247-0.842-1.653
				c-0.74-0.396-1.566-0.314-1.846,0.192C291.447,71.637,291.822,72.382,292.562,72.783z"/>
			<path style="fill:#FFBA00;" d="M281.975,71.819c0.71,0.446,1.542,0.411,1.851-0.081c0.31-0.492-0.025-1.252-0.735-1.699
				c-0.715-0.446-1.541-0.416-1.851,0.081C280.93,70.612,281.26,71.368,281.975,71.819z"/>
			<path style="fill:#FFBA00;" d="M262.523,92.472c-0.01-0.842,0.452-1.531,1.029-1.542c0.583-0.01,1.06,0.669,1.07,1.511
				c0.015,0.842-0.446,1.536-1.024,1.542C263.016,93.993,262.539,93.314,262.523,92.472z"/>
			<path style="fill:#FFBA00;" d="M305.29,70.557c0.583,0.608,1.395,0.781,1.815,0.386c0.42-0.401,0.294-1.217-0.295-1.836
				c-0.578-0.608-1.389-0.781-1.805-0.38C304.58,69.127,304.712,69.943,305.29,70.557z"/>
			<path style="fill:#FFBA00;" d="M278.172,79.572c-0.081,0.842-0.619,1.471-1.202,1.41c-0.578-0.056-0.974-0.791-0.887-1.627
				c0.091-0.837,0.628-1.465,1.206-1.41C277.867,78.005,278.263,78.736,278.172,79.572z"/>
			<path style="fill:#FFBA00;" d="M269.562,83.355c0.801,0.254,1.598,0.01,1.775-0.542c0.172-0.553-0.335-1.212-1.146-1.465
				c-0.801-0.253-1.592-0.01-1.765,0.547C268.249,82.442,268.755,83.102,269.562,83.355z"/>
			<path style="fill:#FFBA00;" d="M262.879,103.811c0.152-0.832,0.735-1.42,1.303-1.309c0.573,0.102,0.913,0.862,0.761,1.688
				c-0.157,0.832-0.74,1.415-1.313,1.313C263.061,105.397,262.727,104.642,262.879,103.811z"/>
		</g>
		<g>
			<path style="fill:#DE0900;stroke:#FC6243;stroke-width:1.984;" d="M143.271,62.585c-2.201,1.39-4.675,4.756-7.931,10.01
				c-4.204,6.815-9.862,40.981,20.881,51.153c48.344,15.982,57.07-26.013,58.658-28.746c-1.815,1.399-15.451,20.866-46.225,9.01
				C124.059,86.823,143.373,62.423,143.271,62.585"/>
			<path style="fill:#DE0900;stroke:#FC6243;stroke-width:1.984;" d="M215.559,93.284c4.097-12.875-9.655-28.746-30.708-35.444
				c-21.059-6.703-41.453-1.693-45.545,11.176c-4.097,12.879,9.645,28.751,30.708,35.45
				C191.068,111.163,211.462,106.158,215.559,93.284z"/>
			<path style="fill:#DE0900;stroke:#FC6243;stroke-width:1.984;" d="M171.074,80.556c-5.654-0.593-11.217-2.358-16.754-3.641
				c-3.26-0.761-9.365-3.017-11.069,0.989c-1.557,3.656,1.045,6.647,3.758,8.98c3.382,2.896,6.252,6.278,9.644,9.117
				c4.888,4.082,11.84,1.395,14.822-3.681c1.39-2.363,2.728-4.828,2.708-7.591c-0.016-1.171,0.056-2.003-0.877-2.916
				C172.499,81.028,171.88,81.2,171.074,80.556"/>
			<path style="fill:#DE0900;stroke:#FC6243;stroke-width:1.984;" d="M182.306,81.499c2.505-1.693,4.3-4.345,6.744-6.176
				c2.758-2.074,4.812-2.799,8.184-3.438c3.012-0.568,5.259-1.435,8.093,0.289c2.769,1.688,4.868,4.401,5.522,7.57
				c0.917,4.442-0.862,17.21-7.743,15.405c-1.785-0.472-3.56-1.876-5.238-2.637c-2.718-1.232-5.633-1.846-8.321-3.012
				c-1.896-0.827-5.684-2.226-7.109-3.712c-0.355-0.365-1.369-1.871-1.349-2.328C181.129,82.519,181.986,82.28,182.306,81.499"/>
			<path style="fill:#DE0900;stroke:#FC6243;stroke-width:1.984;stroke-linecap:round;stroke-linejoin:round;" d="M172.601,78.376
				c1.5-3.737-1.02-12.839-2.353-15.704c-1.678-3.59-8.539-2.814-11.85-2.186c-4.092,0.781-12.033,2.398-13.473,6.846
				c-1.694,5.253,5.162,6.597,8.955,6.865c3.818,0.264,6.034,1.876,9.756,2.845C165.217,77.453,172.032,81.357,172.601,78.376"/>
			<path style="fill:#DE0900;stroke:#FC6243;stroke-width:1.984;" d="M177.174,83.112c-0.7,3.818-2.769,7.991-4.776,11.353
				c-1.166,1.952-2.216,4.949-0.142,6.714c1.643,1.395,5.669,1.998,7.718,2.804c4.614,1.815,12.373,1.876,15.876-2.403
				c3.884-4.736-3.818-10.334-7.551-11.967c-2.353-1.029-3.833-2.495-5.852-4.066c-1.227-0.954-3.762-3.063-5.283-3.144
				c-0.208,0.385-0.102,0.705,0.071,1.136"/>
			<path style="fill:#DE0900;stroke:#FC6243;stroke-width:1.984;" d="M174.385,57.814c3.722-1.485,10.521,1.567,13.681,3.443
				c4.138,2.449,5.142,5.953,2.267,9.928c-1.618,2.241-3.757,3.691-5.877,5.395c-1.141,0.913-3.616,3.813-5.03,4.057
				c-0.923,0.162-3.281-1.257-3.869-1.957c-1.06-1.273-1.537-4.65-1.942-6.293c-0.761-3.088-1.754-6.541-2.119-9.629
				c-0.259-2.241,0.598-5.476,3.367-5.263"/>
			<path style="fill:#FFBA00;" d="M161.455,85.414c-0.771,0.339-1.592,0.182-1.826-0.35c-0.228-0.532,0.213-1.232,0.984-1.577
				c0.771-0.334,1.587-0.182,1.82,0.355C162.667,84.369,162.226,85.079,161.455,85.414z"/>
			<path style="fill:#FFBA00;" d="M179.547,66.652c-0.264,0.801-0.923,1.308-1.47,1.125c-0.548-0.182-0.786-0.979-0.522-1.78
				c0.259-0.801,0.918-1.303,1.471-1.125C179.578,65.055,179.811,65.851,179.547,66.652z"/>
			<path style="fill:#FFBA00;" d="M177.732,62.525c-0.253,0.811-0.913,1.318-1.46,1.141c-0.558-0.177-0.791-0.968-0.538-1.774
				s0.913-1.313,1.46-1.136C177.752,60.933,177.99,61.724,177.732,62.525z"/>
			<path style="fill:#FFBA00;" d="M180.46,75.227c-0.274,0.796-0.933,1.303-1.48,1.115c-0.553-0.188-0.781-0.979-0.513-1.78
				c0.269-0.801,0.928-1.298,1.476-1.115C180.495,73.629,180.724,74.431,180.46,75.227z"/>
			<path style="fill:#FFBA00;" d="M186.935,66.384c-0.431,0.725-1.181,1.08-1.678,0.786c-0.507-0.299-0.558-1.125-0.132-1.856
				c0.426-0.72,1.187-1.075,1.684-0.775C187.305,64.837,187.361,65.659,186.935,66.384z"/>
			<path style="fill:#FFBA00;" d="M188.562,85.972c-0.841-0.071-1.48-0.604-1.43-1.182c0.051-0.573,0.776-0.983,1.618-0.908
				c0.836,0.076,1.476,0.609,1.425,1.187C190.125,85.647,189.399,86.053,188.562,85.972z"/>
			<path style="fill:#FFBA00;" d="M204.292,91.093c-0.837-0.122-1.445-0.685-1.364-1.257c0.086-0.578,0.827-0.943,1.668-0.821
				c0.832,0.126,1.44,0.689,1.354,1.262C205.869,90.85,205.124,91.215,204.292,91.093z"/>
			<path style="fill:#FFBA00;" d="M200.165,83.999c-0.822,0.218-1.597-0.066-1.745-0.634c-0.147-0.558,0.396-1.187,1.217-1.399
				c0.816-0.213,1.592,0.071,1.744,0.634C201.523,83.163,200.976,83.791,200.165,83.999z"/>
			<path style="fill:#FFBA00;" d="M192.487,81.641c-0.842-0.03-1.511-0.522-1.491-1.105c0.021-0.578,0.72-1.024,1.562-0.994
				c0.842,0.025,1.511,0.517,1.491,1.101C194.029,81.226,193.329,81.672,192.487,81.641z"/>
			<path style="fill:#FFBA00;" d="M203.978,78.771c-0.842,0.02-1.542-0.431-1.562-1.009c-0.01-0.583,0.659-1.07,1.501-1.09
				c0.842-0.025,1.541,0.426,1.557,1.004C205.489,78.254,204.819,78.741,203.978,78.771z"/>
			<path style="fill:#FFBA00;" d="M190.743,101.001c0.497,0.68,0.527,1.506,0.056,1.846c-0.472,0.345-1.252,0.071-1.749-0.608
				c-0.497-0.685-0.518-1.511-0.056-1.851C189.465,100.043,190.246,100.322,190.743,101.001z"/>
			<path style="fill:#FFBA00;" d="M177.711,98.902c-0.471,0.7-1.248,1.004-1.724,0.679c-0.486-0.324-0.486-1.156-0.015-1.851
				c0.472-0.695,1.243-0.999,1.724-0.68C178.178,97.375,178.183,98.207,177.711,98.902z"/>
			<path style="fill:#FFBA00;" d="M188.411,96.529c-0.781-0.314-1.248-0.999-1.035-1.542c0.208-0.538,1.015-0.72,1.806-0.416
				c0.781,0.305,1.247,0.994,1.034,1.537S189.197,96.833,188.411,96.529z"/>
			<path style="fill:#FFBA00;" d="M181.332,89.643c0.102,0.842-0.289,1.577-0.862,1.643c-0.578,0.071-1.125-0.553-1.227-1.389
				c-0.097-0.842,0.294-1.572,0.862-1.643C180.683,88.183,181.23,88.811,181.332,89.643z"/>
			<path style="fill:#FFBA00;" d="M159.082,91.296c-0.518,0.669-1.309,0.923-1.765,0.568c-0.461-0.355-0.416-1.187,0.096-1.851
				c0.517-0.669,1.303-0.928,1.765-0.573S159.594,90.626,159.082,91.296z"/>
			<path style="fill:#FFBA00;" d="M151.912,83.254c-0.842,0-1.531-0.467-1.531-1.045c0-0.583,0.679-1.055,1.526-1.06
				c0.847,0,1.526,0.466,1.526,1.05C153.438,82.777,152.754,83.249,151.912,83.254z"/>
			<path style="fill:#FFBA00;" d="M166.845,91.935c-0.441,0.72-1.192,1.065-1.689,0.761c-0.497-0.299-0.547-1.125-0.111-1.846
				c0.436-0.73,1.197-1.065,1.693-0.766C167.235,90.383,167.276,91.215,166.845,91.935z"/>
			<path style="fill:#FFBA00;" d="M169.203,86.691c-0.492,0.69-1.273,0.964-1.745,0.629c-0.466-0.334-0.456-1.166,0.041-1.856
				c0.487-0.679,1.273-0.963,1.745-0.628C169.715,85.181,169.7,86.002,169.203,86.691z"/>
			<path style="fill:#FFBA00;" d="M185.262,71.749c-0.264,0.801-0.923,1.308-1.476,1.125c-0.548-0.177-0.781-0.979-0.522-1.78
				c0.259-0.801,0.923-1.308,1.471-1.125C185.287,70.151,185.521,70.947,185.262,71.749z"/>
			<path style="fill:#FFBA00;" d="M156.486,65.587c0.507,0.68,1.293,0.938,1.754,0.588c0.466-0.345,0.426-1.177-0.081-1.856
				c-0.507-0.669-1.288-0.933-1.755-0.588C155.938,64.086,155.979,64.918,156.486,65.587z"/>
			<path style="fill:#FFBA00;" d="M153.535,70.811c0.542,0.639,1.344,0.862,1.785,0.486c0.446-0.375,0.365-1.196-0.183-1.846
				c-0.537-0.644-1.338-0.862-1.785-0.487C152.906,69.34,152.987,70.161,153.535,70.811z"/>
			<path style="fill:#FFBA00;" d="M161.739,70.577c0.244,0.806,0.903,1.318,1.45,1.146c0.558-0.172,0.801-0.963,0.553-1.775
				c-0.249-0.801-0.902-1.313-1.455-1.141C161.734,68.98,161.485,69.771,161.739,70.577z"/>
			<path style="fill:#FFBA00;" d="M167.783,75.855c0.472,0.705,1.242,1.009,1.724,0.69c0.487-0.32,0.497-1.151,0.025-1.856
				c-0.466-0.705-1.237-1.009-1.719-0.685C167.327,74.324,167.316,75.156,167.783,75.855z"/>
			<path style="fill:#FFBA00;" d="M164.173,64.583c0.426,0.725,1.176,1.08,1.673,0.791c0.507-0.294,0.568-1.125,0.142-1.851
				c-0.426-0.725-1.171-1.085-1.673-0.791C163.812,63.021,163.747,63.848,164.173,64.583z"/>
		</g>
	</g>
</g>
</svg>
