<?xml version="1.0" encoding="iso-8859-1"?>
<!-- Generator: Adobe Illustrator 13.0.0, SVG Export Plug-In . SVG Version: 6.00 Build 14948)  -->
<!DOCTYPE svg PUBLIC "-//W3C//DTD SVG 1.1//EN" "http://www.w3.org/Graphics/SVG/1.1/DTD/svg11.dtd">
<svg version="1.1" xmlns="http://www.w3.org/2000/svg" xmlns:xlink="http://www.w3.org/1999/xlink" x="0px" y="0px" width="378px"
	 height="140px" viewBox="0 0 378 140" style="enable-background:new 0 0 378 140;" xml:space="preserve">
<g id="Layer_2">
	<g>
		<rect style="fill:#FFFFFF;" width="378" height="140"/>
	</g>
</g>
<g id="Layer_1">
	<g>
		<g>
			<path style="fill:#FFFFFF;stroke:#92938B;stroke-width:1.1995;" d="M122.404,17.457c0,5.284,3.271,9.569,7.309,9.569
				c4.031,0,7.305-4.285,7.305-9.569c0-5.285-3.274-9.567-7.305-9.567C125.675,7.89,122.404,12.172,122.404,17.457z"/>
			<path style="fill:none;stroke:#92938B;stroke-width:1.1995;" d="M129.527,27.408c0.012,2.265,0.104,10.443,0.227,20.459"/>
			<path style="fill:#92938B;stroke:#92938B;stroke-width:1.1995;stroke-linecap:round;stroke-linejoin:round;" d="M129.821,30.051
				c0.898-0.35,1.842-1.174,2.768-1.211c-0.066,1.483-0.503,3.027-0.558,4.54c-1.147-0.444-1.554-2.181-2.477-2.907
				c-0.383-0.302-0.728-0.675-1.183-0.951c-0.516-0.315-0.947-0.748-1.531-0.91c-0.045,0.598,0.108,1.325-0.039,1.907
				c-0.152,0.595-1.156,1.436-0.875,2.091c0.365,0.86,3.244-1.676,3.627-2.336"/>
			<path style="fill:none;stroke:#92938B;stroke-width:1.1995;stroke-linecap:round;stroke-linejoin:round;" d="M123.161,47.869
				c0.312-1.167,0.623-2.221,0.876-2.788c1.267-2.838,3.36-9.146,5.553-11.246"/>
		</g>
	</g>
	<g>
		<g>
			<g>
				<path style="fill:#CE4E43;" d="M358.4,76.137h-16.607c-0.982,0-1.78,0.796-1.78,1.779c0,0,0-0.983,0,0
					c0,0.982,0.798,1.779,1.78,1.779H358.4"/>
				<path style="fill:none;stroke:#FFFFFF;stroke-width:0.9618;" d="M358.4,76.137h-16.607c-0.982,0-1.78,0.796-1.78,1.779
					c0,0,0-0.983,0,0c0,0.982,0.798,1.779,1.78,1.779H358.4"/>
			</g>
		</g>
		<g>
			<rect x="178.075" y="73.435" style="fill:#78B432;stroke:#FFFFFF;stroke-width:0.9618;" width="3.834" height="50.971"/>
			<path style="fill:#78B432;stroke:#FFFFFF;stroke-width:0.9618;" d="M191.158,76.227H168.82v-5.586c0,0,5.298-2.444,10.883-2.444
				s11.455,2.444,11.455,2.444V76.227z"/>
			<rect x="172.834" y="112.32" style="fill:#78B432;stroke:#FFFFFF;stroke-width:0.6412;" width="14.313" height="1.309"/>
		</g>
		
			<line style="fill:none;stroke:#78B432;stroke-width:2.3989;stroke-linecap:round;" x1="18.7" y1="47.633" x2="159.616" y2="47.633"/>
		
			<line style="fill:none;stroke:#78B432;stroke-width:2.3989;stroke-linecap:square;" x1="159.616" y1="47.633" x2="159.616" y2="64.464"/>
		
			<line style="fill:none;stroke:#78B432;stroke-width:2.3989;stroke-linecap:square;" x1="159.616" y1="64.464" x2="152.403" y2="64.464"/>
		
			<line style="fill:none;stroke:#78B432;stroke-width:2.3989;stroke-linecap:square;" x1="152.403" y1="64.464" x2="152.403" y2="123.772"/>
		<line style="fill:none;stroke:#78B432;stroke-width:2.3989;" x1="152.403" y1="123.772" x2="358.4" y2="123.772"/>
		<g>
			<g>
				
					<line style="fill:none;stroke:#78B432;stroke-width:2.9986;stroke-linecap:round;stroke-linejoin:round;" x1="324.402" y1="68.186" x2="324.402" y2="95.205"/>
				
					<line style="fill:none;stroke:#78B432;stroke-width:2.9986;stroke-linecap:round;stroke-linejoin:round;" x1="324.402" y1="95.205" x2="351.418" y2="95.205"/>
				
					<line style="fill:none;stroke:#78B432;stroke-width:2.9986;stroke-linecap:round;stroke-linejoin:round;" x1="351.418" y1="95.205" x2="324.372" y2="122.252"/>
				
					<line style="fill:none;stroke:#78B432;stroke-width:2.9986;stroke-linecap:round;stroke-linejoin:round;" x1="324.372" y1="122.252" x2="339.95" y2="122.252"/>
			</g>
		</g>
	</g>
</g>
<g id="Layer_3">
	<g>
		<g>
			<g>
				<path style="fill:#FFFFFF;stroke:#92938B;stroke-width:1.1995;stroke-linecap:round;stroke-linejoin:round;" d="M163.43,23.968
					c0,6.067-3.758,10.984-8.391,10.984c-4.63,0-8.386-4.917-8.386-10.984c0-6.064,3.756-10.981,8.386-10.981
					C159.672,12.986,163.43,17.903,163.43,23.968z"/>
				<path style="fill:none;stroke:#92938B;stroke-width:1.1995;stroke-linecap:round;stroke-linejoin:round;" d="M155.293,49.857
					c0.124,7.747,0.113,16.044-0.651,19.841c-1.198,5.994-3.594,3.601-2.399,11.984c1.506,10.509,5.592,19.175,4.399,24.366
					c-6.543,28.348-6.793,29.158-0.401,28.358"/>
				<path style="fill:none;stroke:#92938B;stroke-width:1.1995;stroke-linecap:round;stroke-linejoin:round;" d="M155.039,35.349
					c-0.007,1.896,0.058,4.798,0.13,8.149"/>
				<path style="fill:#FFFFFF;stroke:#92938B;stroke-width:1.1995;stroke-linecap:round;stroke-linejoin:round;" d="M160.047,46.744
					c0,1.873-1.521,3.4-3.396,3.4c-1.872,0-3.392-1.527-3.392-3.4c0-1.876,1.52-3.394,3.392-3.394
					C158.525,43.351,160.047,44.868,160.047,46.744z"/>
			</g>
		</g>
		<g>
			<path style="fill:none;stroke:#92938B;stroke-width:1.1995;stroke-linecap:round;stroke-linejoin:round;" d="M202.926,75.133
				c0,1.059,0.865,1.915,1.919,1.915c1.053,0,1.914-0.856,1.914-1.915c0-1.058-0.861-1.91-1.914-1.91
				C203.791,73.223,202.926,74.075,202.926,75.133z"/>
			<path style="fill:#FFFFFF;stroke:#92938B;stroke-width:1.7991;stroke-linecap:round;stroke-linejoin:round;" d="M195.926,17.186
				c0,5.93,3.669,10.734,8.197,10.734c4.521,0,8.193-4.805,8.193-10.734c0-5.927-3.672-10.732-8.193-10.732
				C199.595,6.453,195.926,11.258,195.926,17.186z"/>
			<path style="fill:none;stroke:#92938B;stroke-width:1.7991;stroke-linecap:round;stroke-linejoin:round;" d="M203.918,28.347
				c0.035,7.492-1.012,29.645,0.425,36.836c1.286,6.422,1.858,4.477,0.57,13.469c-1.606,11.267,2.011,22.258,2.401,27.961
				c1.992,29.555,2.173,28.813-4.686,27.958"/>
		</g>
	</g>
</g>
</svg>
