<?xml version="1.0" encoding="iso-8859-1"?>
<!-- Generator: Adobe Illustrator 13.0.0, SVG Export Plug-In . SVG Version: 6.00 Build 14948)  -->
<!DOCTYPE svg PUBLIC "-//W3C//DTD SVG 1.1//EN" "http://www.w3.org/Graphics/SVG/1.1/DTD/svg11.dtd">
<svg version="1.1" xmlns="http://www.w3.org/2000/svg" xmlns:xlink="http://www.w3.org/1999/xlink" x="0px" y="0px" width="378px"
	 height="140px" viewBox="0 0 378 140" style="enable-background:new 0 0 378 140;" xml:space="preserve">
<g id="Layer_2">
	<g>
		<rect style="fill:none;" width="378" height="140"/>
		<rect style="fill:#FFFFFF;" width="378" height="140"/>
	</g>
</g>
<g id="Layer_3">
	<g>
		<g>
			<rect x="121.5" y="2.5" style="fill:none;" width="135" height="135"/>
			<path style="fill:#406FA9;" d="M256.5,125.963c0,6.373-5.164,11.537-11.537,11.537H133.037c-6.371,0-11.537-5.164-11.537-11.537
				V14.037c0-6.371,5.166-11.537,11.537-11.537h111.926c6.373,0,11.537,5.166,11.537,11.537V125.963z"/>
			<path style="fill:none;stroke:#FFFFFF;stroke-width:4.0703;" d="M251.018,121.418c0,5.854-4.746,10.6-10.602,10.6H137.585
				c-5.855,0-10.602-4.746-10.602-10.6V18.586c0-5.854,4.746-10.602,10.602-10.602h102.831c5.855,0,10.602,4.748,10.602,10.602
				V121.418z"/>
		</g>
		<g>
			<path style="fill:#FFFFFF;" d="M183.862,87.921c0.132,0.908-0.105,1.508-0.589,1.39c-2.305-0.541-4.609-0.344-6.914,0.592
				c-0.487,0.206-0.705-0.421-0.556-1.448c0.443-3.144,0.443-6.288,0-9.432c-0.149-1.025,0.069-1.654,0.556-1.448
				c2.305,0.936,4.609,1.133,6.914,0.592c0.484-0.118,0.721,0.483,0.589,1.39C183.469,82.344,183.469,85.133,183.862,87.921z"/>
		</g>
		<g>
			<g>
				<g>
					<polygon style="fill:#FFFFFF;" points="202.939,85.639 209.908,87.256 219.707,85.639 219.707,81.457 209.908,80.221 
						202.939,81.457 185.082,81.457 185.082,85.639 					"/>
					<g>
						<path style="fill:#FFFFFF;" d="M159.451,89.918c-0.641,0-1.156-0.516-1.156-1.154V78.713c0-0.637,0.516-1.154,1.156-1.154
							h17.271c0.639,0,1.156,0.518,1.156,1.154v10.051c0,0.639-0.518,1.154-1.156,1.154H159.451z"/>
						<g>
							<path style="fill:none;stroke:#406FA9;stroke-width:0.5088;" d="M160.361,81.154c-0.625,0-1.129-0.518-1.129-1.152v-0.283
								c0-0.637,0.504-1.154,1.129-1.154h15.57c0.627,0,1.133,0.518,1.133,1.154v0.283c0,0.635-0.506,1.152-1.133,1.152H160.361z"/>
							<path style="fill:none;stroke:#406FA9;stroke-width:0.5088;" d="M160.361,85.033c-0.625,0-1.129-0.516-1.129-1.152V83.6
								c0-0.639,0.504-1.156,1.129-1.156h15.57c0.627,0,1.133,0.518,1.133,1.156v0.281c0,0.637-0.506,1.152-1.133,1.152H160.361z"/>
							<path style="fill:none;stroke:#406FA9;stroke-width:0.5088;" d="M160.361,88.914c-0.625,0-1.129-0.518-1.129-1.154v-0.281
								c0-0.639,0.504-1.154,1.129-1.154h15.57c0.627,0,1.133,0.516,1.133,1.154v0.281c0,0.637-0.506,1.154-1.133,1.154H160.361z"/>
						</g>
					</g>
				</g>
				<g>
					<g>
						<path style="fill:#FFFFFF;" d="M218.168,100.736c0.633-0.631-4.033-5.787-8.617-4.918c0.369,1.678,1.574,5.508,1.889,6.863
							C212.854,102.709,216.758,102.146,218.168,100.736z"/>
						<path style="fill:#FFFFFF;" d="M211.908,106.779c-1.824-1.826-4.592-13.512-5.119-14.979c-0.959,0.352-2.314,1.33-3.168,1.99
							c-0.936,0.721-1.977,2.451-3.029,2.939c-1.117,0.516-5.09,1.264-5.09,1.264c-0.764,1.789,0,9.295,0,9.295
							c0.049,0.037,1.945,0.082,1.945,0.082c0.713,0.281,2.912,1.594,3.461,2.143c1.135,1.137,2.684,2.775,4.111,3.498
							c2.193,1.109,5.545,2.684,9.723,0.826c2.107-0.938,5.268-5.191,4.75-8.729C219.492,105.109,214.643,106.779,211.908,106.779z"
							/>
						<path style="fill:#FFFFFF;" d="M165.58,107.289c-5.283,0-7.285-1.379-7.285-4.402c0-3.025,2.002-4.893,7.285-4.893h29.922
							v9.295H165.58z"/>
						<path style="fill:#406FA9;" d="M162.642,105.006c-1.303,0-2.365-1.057-2.365-2.365c0-1.305,1.062-2.363,2.365-2.363
							c1.305,0,2.365,1.059,2.365,2.363C165.007,103.949,163.947,105.006,162.642,105.006z"/>
					</g>
					<g>
						
							<rect x="200.06" y="99.926" transform="matrix(0.2839 0.9589 -0.9589 0.2839 244.5112 -121.059)" style="fill:#406FA9;" width="6.488" height="6.485"/>
						<g>
							<path style="fill:#FFFFFF;" d="M201.828,103.225c-0.588,0.176-1.209-0.162-1.385-0.752l0,0
								c-0.174-0.59,0.164-1.207,0.752-1.383l2.742-0.812c0.594-0.172,1.213,0.16,1.385,0.752l0,0
								c0.174,0.59-0.16,1.209-0.752,1.383L201.828,103.225z"/>
							<path style="fill:#FFFFFF;" d="M202.668,106.059c-0.59,0.176-1.211-0.158-1.383-0.748l0,0
								c-0.176-0.592,0.16-1.211,0.752-1.385l2.744-0.812c0.588-0.174,1.209,0.164,1.383,0.752l0,0
								c0.176,0.59-0.162,1.207-0.752,1.383L202.668,106.059z"/>
						</g>
					</g>
				</g>
			</g>
			<g>
				<path style="fill:#FFFFFF;" d="M138.277,39.525c0.012,2.043-0.525,3.959,0.262,5.887c0.641,1.568,1.439,2.742,1.719,4.646
					c0.285,1.92,0.547,3.809,0.922,5.719c0.512,2.602,3.061,2.262,5.225,2.584c0,0,1.316,8.15,8.785,8.15s8.609-8.15,8.609-8.15
					c0.725,0,43.459-0.342,46.567,0c0,0,2.154,7.947,8.969,7.947c6.809,0,9.264-7.947,9.264-7.947c4.162,0,7.275,0,10.605,0
					c-0.096-5.678,1.943-15.395-0.584-17.924c-0.293-0.293-16.877-0.781-18.793-3.111c-0.629-0.762-6.42-11.986-8.754-11.988
					c-4.221-0.002-27.319-0.002-32.252-0.002c-4.213,0-5.988-0.529-8.521,2.594c-1.547,1.908-5.871,9.803-6.426,10.281
					C162.666,39.248,140.378,38.227,138.277,39.525"/>
				<path style="fill:#406FA9;" d="M174.96,28.127c2.414,0,13.639,0,13.639,0c0.412,0,0.746,0.336,0.746,0.748v9.879
					c0,0.414-0.334,0.748-0.746,0.748c0,0-17.064,0-20.252,0C165.162,39.502,172.544,28.127,174.96,28.127z"/>
				<path style="fill:#406FA9;" d="M207.451,28.127c-2.416,0-13.641,0-13.641,0c-0.414,0-0.748,0.336-0.748,0.748v9.879
					c0,0.414,0.334,0.748,0.748,0.748c0,0,17.068,0,20.252,0S209.869,28.127,207.451,28.127z"/>
				<circle style="fill:#406FA9;" cx="154.75" cy="57.098" r="4.661"/>
				<path style="fill:#406FA9;" d="M224.211,57.098c0,2.572-2.084,4.658-4.66,4.658c-2.574,0-4.658-2.086-4.658-4.658
					c0-2.574,2.084-4.66,4.658-4.66C222.127,52.438,224.211,54.523,224.211,57.098z"/>
			</g>
		</g>
	</g>
</g>
</svg>
