<?xml version="1.0" encoding="iso-8859-1"?>
<!-- Generator: Adobe Illustrator 13.0.0, SVG Export Plug-In . SVG Version: 6.00 Build 14948)  -->
<!DOCTYPE svg PUBLIC "-//W3C//DTD SVG 1.1//EN" "http://www.w3.org/Graphics/SVG/1.1/DTD/svg11.dtd">
<svg version="1.1" xmlns="http://www.w3.org/2000/svg" xmlns:xlink="http://www.w3.org/1999/xlink" x="0px" y="0px" width="378px"
	 height="140px" viewBox="0 0 378 140" style="enable-background:new 0 0 378 140;" xml:space="preserve">
<g id="fond">
	<rect style="fill:#FFFFFF;" width="378" height="140"/>
</g>
<g id="tong">
	<g>
		<path style="fill:#FFFFFF;stroke:#777768;stroke-width:0.5;stroke-linecap:round;stroke-linejoin:round;" d="M146.125,91.062
			c0.168-8.665-3.468-31.152-3.792-38.812c-0.75-17.75,7.333-38.417,25.167-38.417c15.167,0,15.062,19.333,14.667,23.042
			c-0.194,1.823-2.333,18.791-4.333,35.458s10.09,48.857-10,52C145.188,127.875,145.749,110.479,146.125,91.062z"/>
		<path style="fill:#FFFFFF;stroke:#777768;stroke-width:0.5;stroke-linecap:round;stroke-linejoin:round;" d="M169.75,34.25
			c0,0-1.726-6.024-4-3.75c-1.375,1.375,1.417,4.5,1.417,5.167S169.75,34.25,169.75,34.25z"/>
		<path style="fill:#FFFFFF;stroke:#777768;stroke-width:0.5;stroke-linecap:round;stroke-linejoin:round;" d="M149.979,64.688
			c0,0-1.812,8.021-0.479,14.396c1.176,5.623,5.133,12.854,2.417,14.084c-2.438,1.104-3.23-1.317-3.75-3.417
			c-0.334-1.352-1.976-8.89-1.333-12.916s1.51-9.47,1.51-9.47L149.979,64.688z"/>
		<path style="fill:#FFFFFF;stroke:#777768;stroke-width:0.5;stroke-linecap:round;stroke-linejoin:round;" d="M184.667,70.049
			c-0.5,3.701-4.25,17.597-7.792,21.139c-2.312,2.312-3.781,2.281-4.594,1.469s0.242-7.662,5.344-15.156
			c5.594-8.218,6.438-15.312,6.438-22.688S185.167,66.348,184.667,70.049z"/>
		<path style="fill:#FFFFFF;stroke:#777768;stroke-width:0.5;stroke-linecap:round;stroke-linejoin:round;" d="M168.385,33.677
			c1.906-0.239,8.092,2.26,11.948,7.656c8.495,11.887,3.833,31.333,3.833,31.333s1.444-15.712-5.229-24.604
			c-5.062-6.746-8.416-8.249-9.271-7.729c-8.604,5.229-20.667,24.042-22.833,36.5c0,0,1.126-18.608,6.5-27.167
			C157.867,42.445,165.062,34.094,168.385,33.677z"/>
	</g>
	<g>
		<path style="fill:#FFFFFF;stroke:#777768;stroke-width:0.5;stroke-linecap:round;stroke-linejoin:round;" d="M232.604,91.062
			c-0.168-8.665,3.468-31.152,3.791-38.812c0.75-17.75-7.333-38.417-25.166-38.417c-15.167,0-15.062,19.333-14.667,23.042
			c0.194,1.823,2.333,18.791,4.333,35.458s-10.09,48.857,10,52C233.541,127.875,232.979,110.479,232.604,91.062z"/>
		<path style="fill:#FFFFFF;stroke:#777768;stroke-width:0.5;stroke-linecap:round;stroke-linejoin:round;" d="M231.865,63.802
			c0,0-0.428,8.135-2.637,15.281c-1.276,4.129-4.562,12.854-2.417,14.084c2.321,1.331,3.43-2.465,3.949-4.564
			c0.335-1.352,0.947-8.02,1.134-11.769c0.202-4.072,0.442-6.71,0.442-6.71L231.865,63.802z"/>
		<path style="fill:#FFFFFF;stroke:#777768;stroke-width:0.5;stroke-linecap:round;stroke-linejoin:round;" d="M197.34,72.168
			c0.5,3.701,0.971,14.624,4.514,18.166c2.312,2.312,4.228,1.24,4.228-2.026c0-1.094-0.208-3.977-3.278-12.507
			c-4.245-11.794-4.137-13.613-4.137-20.988S196.84,68.467,197.34,72.168z"/>
		<path style="fill:#FFFFFF;stroke:#777768;stroke-width:0.5;stroke-linecap:round;stroke-linejoin:round;" d="M215.176,34.941
			c0,0,0.533-6.243-2.402-4.929c-1.774,0.795-0.278,4.709-0.517,5.332C212.02,35.968,215.176,34.941,215.176,34.941z"/>
		<path style="fill:#FFFFFF;stroke:#777768;stroke-width:0.5;stroke-linecap:round;stroke-linejoin:round;" d="M214.344,33.677
			c-1.906-0.239-8.093,2.26-11.949,7.656c-8.494,11.887-4.811,32.5-4.811,32.5s-0.466-16.878,6.207-25.771
			c5.062-6.746,8.278-7.856,9.271-7.729c12.26,1.573,16.666,24.042,18.832,36.5c0,0,1.96-18.574-1.655-28.012
			C225.706,36.989,217.666,34.094,214.344,33.677z"/>
	</g>
</g>
</svg>
