<?xml version="1.0" encoding="iso-8859-1"?>
<!-- Generator: Adobe Illustrator 13.0.0, SVG Export Plug-In . SVG Version: 6.00 Build 14948)  -->
<!DOCTYPE svg PUBLIC "-//W3C//DTD SVG 1.1//EN" "http://www.w3.org/Graphics/SVG/1.1/DTD/svg11.dtd">
<svg version="1.1" xmlns="http://www.w3.org/2000/svg" xmlns:xlink="http://www.w3.org/1999/xlink" x="0px" y="0px" width="378px"
	 height="140px" viewBox="0 0 378 140" style="enable-background:new 0 0 378 140;" xml:space="preserve">
<pattern  x="-81" y="170" width="538" height="200" patternUnits="userSpaceOnUse" id="New_Pattern_Swatch_3" viewBox="0 -200 538 200" style="overflow:visible;">
	<g>
		<polygon style="fill:none;" points="0,0 538,0 538,-200 0,-200 		"/>
		<polygon style="fill:#FFFFFF;" points="0,0 538,0 538,-200 0,-200 		"/>
	</g>
</pattern>
<g id="fond">
	<rect style="fill:#FFFFFF;" width="378" height="140"/>
</g>
<g id="decor_plage">
	
		<line id="horizon_mer" style="fill:none;stroke:#33CCFF;stroke-width:0.5;stroke-linecap:round;stroke-linejoin:round;" x1="46.834" y1="48.541" x2="312.833" y2="48.541"/>
	<path style="fill:url(#New_Pattern_Swatch_3);stroke:#777768;stroke-width:0.5;stroke-linecap:round;stroke-linejoin:round;" d="
		M5.667,16.333c3.197,0.205,6.993,3.389,8.584,8.117s4.305,12.726,13.999,12.726c9.75,0,11.132,4.287,16.457,6.428
		c8.168,3.285,8.246,9.444,11.137,11.22c7.823,4.805,5.352,13.634,10.004,16.426s5.909,16.25,5.909,16.25
		c-1.94,1.94-45.634,17.995-47.837,15.792s-13.782,2.812-17.585,4.51"/>
	<path style="fill:#FFFFFF;stroke:#777768;stroke-width:0.5;stroke-linecap:round;stroke-linejoin:round;" d="M375,16.333
		c-11.843,0-28.782,4.051-36.1,3.992c-9.056-0.073-17.672,11.267-20.574,18.91c-2.573,6.772-12.631,9.802-19.201,14.265
		c-6.396,4.344-21.776,9.944-30.387,12.094c-4.72,1.178-7.713,4.188-10.392,8.073c-1.843,2.673-2.792,2.964-6.151,7.689
		s5.738,3.895,9.809,4.019c4.116,0.125,8.323,0.125,12.31,0.125c10.666,0,40.48,6.805,51.062,6.375
		c9.971-0.405,15.491-7.665,25.976-7.132c3.452,0.176,6.729-0.071,10.241-0.076c3.693-0.005,8.471,0.521,13.471,0.521"/>
	<path style="fill:none;stroke:#33CCFF;stroke-linecap:round;stroke-linejoin:round;" d="M5.361,118.311
		c10.392-0.32,8.878,10.741,16.519,13.168c8.013,2.545,27.528-10,34.458-10.625c9.334-0.842,2.548,8.399,12.125,10.125
		c6.814,1.228,22.537-20.312,39.204-13.312c25.973,10.908,39.339,8.902,68.661-5.518c14.732-7.245,28.604,10.561,37.739,6.146
		c7.5-3.625,9.322-10.837,12.572-15.587c3.553-5.192,11.291-5.5,18.213-1.743c9.983,5.418,19.561,9.781,32.73,7.22
		c12.454-2.422-4.263-23.668,25.904-18.752"/>
</g>
<g id="homme">
	<g>
		<path style="fill:none;stroke:#777768;stroke-width:1.199;stroke-linecap:round;stroke-linejoin:round;" d="M224.704,73.147
			c0,1.059,0.864,1.915,1.918,1.915c1.053,0,1.914-0.856,1.914-1.915s-0.861-1.911-1.914-1.911
			C225.568,71.236,224.704,72.089,224.704,73.147z"/>
		<path style="fill:#FFFFFF;stroke:#787768;stroke-width:1.199;stroke-linecap:round;stroke-linejoin:round;" d="M217.704,15.2
			c0,5.929,3.668,10.734,8.197,10.734c4.521,0,8.193-4.805,8.193-10.734c0-5.927-3.673-10.732-8.193-10.732
			C221.372,4.468,217.704,9.273,217.704,15.2z"/>
		<path style="fill:none;stroke:#777768;stroke-width:1.199;stroke-linecap:round;stroke-linejoin:round;" d="M225.695,26.361
			c0.035,7.493-1.012,29.645,0.425,36.837c1.287,6.422,1.858,4.477,0.571,13.469c-1.606,11.266,2.01,22.258,2.401,27.961
			c1.992,29.556,2.173,28.813-4.687,27.957"/>
	</g>
</g>
<g id="femme">
	<path style="fill:url(#New_Pattern_Swatch_3);stroke:#777768;stroke-width:1.799;stroke-linecap:round;stroke-linejoin:round;" d="
		M146.571,33.04c-0.011,1.939,0.057,4.926,0.131,8.376"/>
	
		<ellipse style="fill:url(#New_Pattern_Swatch_3);stroke:#777768;stroke-width:1.799;stroke-linecap:round;stroke-linejoin:round;" cx="146.57" cy="21.603" rx="8.425" ry="11.033"/>
	<path style="fill:none;stroke:#777768;stroke-width:1.799;stroke-linecap:round;stroke-linejoin:round;" d="M146.823,47.608
		c0.126,7.778,0.111,16.11-0.658,19.93c-1.197,6.016-3.608,3.611-2.403,12.035c1.507,10.555,5.617,19.256,4.411,24.469
		c-6.567,28.473-6.817,29.287-0.403,28.484"/>
	<path style="fill:#FFFFFF;stroke:#787768;stroke-width:1.199;stroke-linecap:round;stroke-linejoin:round;" d="M151.599,44.482
		c0,1.882-1.521,3.409-3.406,3.409s-3.416-1.527-3.416-3.409c0-1.883,1.531-3.411,3.416-3.411S151.599,42.599,151.599,44.482z"/>
</g>
<g id="Layer_6">
	<path style="display:none;fill:#FFFFFF;stroke:#777768;stroke-width:0.5;stroke-linecap:round;stroke-linejoin:round;" d="
		M184.175,21.63c-0.237,1.118-1.566,1.974-3.171,1.974c-1.771,0-3.208-1.044-3.208-2.333c0-0.114,0.012-0.227,0.034-0.337
		c0,0-1.008,1.67-2.95,1.69c-1.703,0.018-3.084-1.25-3.084-2.792c0-1.492,1.293-2.711,2.92-2.788l0.003,0.038
		c0.092-1.418,1.36-2.542,2.911-2.542c1,0,1.883,0.468,2.408,1.181l-0.001,0.026c0.495-0.337,1.139-0.544,1.842-0.54
		c3.678,0.021,3.312,2.813,3.312,2.813c0.269-0.095,0.552-0.25,0.854-0.25c1.381,0,2.5,1.082,2.5,2.417s-1.119,2.417-2.5,2.417
		C184.942,22.604,184.175,21.63,184.175,21.63z"/>
	<polygon style="display:none;fill:#FFFFFF;stroke:#777768;stroke-width:0.5;stroke-linecap:round;stroke-linejoin:round;" points="
		198.281,49.562 203.688,44.031 199.438,43.812 201.688,39.229 197.688,39.188 195.5,45.625 199.906,45.75 	"/>
	<path style="display:none;fill:#FFFFFF;stroke:#777768;stroke-width:0.5;stroke-linecap:round;stroke-linejoin:round;" d="
		M203.008,40.13c-0.237,1.118-1.566,1.974-3.171,1.974c-1.771,0-3.208-1.044-3.208-2.333c0-0.114,0.012-0.227,0.034-0.337
		c0,0-1.008,1.67-2.95,1.69c-1.703,0.018-3.084-1.25-3.084-2.792c0-1.492,1.293-2.711,2.92-2.788l0.003,0.038
		c0.092-1.418,1.36-2.542,2.911-2.542c1,0,1.883,0.468,2.408,1.181l-0.001,0.026c0.495-0.337,1.139-0.544,1.842-0.54
		c3.678,0.021,3.312,2.813,3.312,2.813c0.269-0.095,0.552-0.25,0.854-0.25c1.381,0,2.5,1.082,2.5,2.417s-1.119,2.417-2.5,2.417
		C203.774,41.104,203.008,40.13,203.008,40.13z"/>
	<g style="display:none;">
		<path style="display:inline;fill:#FFFFFF;stroke:#777768;stroke-width:0.3984;stroke-linecap:round;stroke-linejoin:round;" d="
			M170.772,27.294c0,0,1.442,3.071,0.047,3.071C169.422,30.365,170.772,27.294,170.772,27.294z"/>
		<path style="display:inline;fill:#FFFFFF;stroke:#777768;stroke-width:0.3984;stroke-linecap:round;stroke-linejoin:round;" d="
			M181.092,26.52c0,0,1.442,3.071,0.046,3.071C179.742,29.591,181.092,26.52,181.092,26.52z"/>
		<path style="display:inline;fill:#FFFFFF;stroke:#777768;stroke-width:0.3984;stroke-linecap:round;stroke-linejoin:round;" d="
			M179.183,30.67c0,0,1.442,3.071,0.046,3.071C177.833,33.741,179.183,30.67,179.183,30.67z"/>
		<path style="display:inline;fill:#FFFFFF;stroke:#777768;stroke-width:0.3984;stroke-linecap:round;stroke-linejoin:round;" d="
			M173.262,31.223c0,0,1.442,3.071,0.047,3.071C171.912,34.294,173.262,31.223,173.262,31.223z"/>
		<path style="display:inline;fill:#FFFFFF;stroke:#777768;stroke-width:0.3984;stroke-linecap:round;stroke-linejoin:round;" d="
			M168.42,30.725c0,0,1.442,3.071,0.047,3.071C167.071,33.796,168.42,30.725,168.42,30.725z"/>
		<path style="display:inline;fill:#FFFFFF;stroke:#777768;stroke-width:0.3984;stroke-linecap:round;stroke-linejoin:round;" d="
			M176.139,28.069c0,0,1.442,3.071,0.047,3.071C174.79,31.14,176.139,28.069,176.139,28.069z"/>
		<path style="display:inline;fill:#FFFFFF;stroke:#777768;stroke-width:0.3984;stroke-linecap:round;stroke-linejoin:round;" d="
			M166.484,26.464c0,0,1.442,3.071,0.047,3.071C165.134,29.535,166.484,26.464,166.484,26.464z"/>
		<path style="display:inline;fill:#FFFFFF;stroke:#777768;stroke-width:0.3984;stroke-linecap:round;stroke-linejoin:round;" d="
			M176.471,33.408c0,0,1.442,3.071,0.047,3.071C175.122,36.479,176.471,33.408,176.471,33.408z"/>
		<path style="display:inline;fill:#FFFFFF;stroke:#777768;stroke-width:0.664;stroke-linecap:round;stroke-linejoin:round;" d="
			M179.901,23.621c-0.315,1.484-2.08,2.621-4.211,2.621c-2.352,0-4.26-1.387-4.26-3.098c0-0.152,0.016-0.302,0.045-0.447
			c0,0-1.338,2.217-3.918,2.245c-2.261,0.024-4.095-1.66-4.095-3.707c0-1.981,1.717-3.6,3.877-3.702l0.004,0.051
			c0.122-1.883,1.807-3.375,3.866-3.375c1.328,0,2.5,0.621,3.198,1.568l-0.001,0.034c0.658-0.447,1.512-0.722,2.446-0.717
			c4.884,0.028,4.399,3.736,4.399,3.736c0.356-0.126,0.733-0.332,1.135-0.332c1.833,0,3.32,1.437,3.32,3.209
			c0,1.772-1.486,3.209-3.32,3.209C180.919,24.915,179.901,23.621,179.901,23.621z"/>
	</g>
</g>
<g id="Layer_7">
</g>
<g id="Layer_8">
	<g>
		<polygon style="fill:#FFEC00;" points="187.272,27.12 180.746,25.698 183.444,31.81 178.327,27.517 177.875,34.181 175.34,28.002 
			171.843,33.694 172.469,27.042 166.727,30.458 170.374,24.86 163.703,25.216 169.532,21.955 163.459,19.169 170.138,18.989 
			166.055,13.702 172.052,16.646 170.895,10.067 174.834,15.46 176.867,9.097 177.851,15.704 182.608,11.016 180.409,17.323 
			186.8,15.38 181.922,19.943 188.482,21.191 182.042,22.966 		"/>
		<polygon style="fill:#FFAA00;" points="185.894,29.563 179.896,26.625 181.06,33.203 177.113,27.816 175.087,34.179 
			174.096,27.575 169.343,32.269 171.536,25.959 165.149,27.909 170.022,23.341 163.459,22.098 169.896,20.319 164.664,16.166 
			171.191,17.583 168.485,11.476 173.609,15.762 174.052,9.097 176.595,15.273 180.086,9.579 179.466,16.229 185.202,12.808 
			181.564,18.409 188.236,18.046 182.409,21.315 188.484,24.093 181.808,24.28 		"/>
		<circle style="fill:#FFEC00;" cx="175.971" cy="21.64" r="5.66"/>
	</g>
</g>
</svg>
