<?xml version="1.0" encoding="iso-8859-1"?>
<!-- Generator: Adobe Illustrator 13.0.0, SVG Export Plug-In . SVG Version: 6.00 Build 14948)  -->
<!DOCTYPE svg PUBLIC "-//W3C//DTD SVG 1.1//EN" "http://www.w3.org/Graphics/SVG/1.1/DTD/svg11.dtd">
<svg version="1.1" xmlns="http://www.w3.org/2000/svg" xmlns:xlink="http://www.w3.org/1999/xlink" x="0px" y="0px" width="540px"
	 height="200px" viewBox="0 0 540 200" style="enable-background:new 0 0 540 200;" xml:space="preserve">
<g id="Layer_2">
	<g>
		<rect style="fill:none;" width="540" height="200"/>
		<rect style="fill:#FFFFFF;" width="540" height="200"/>
	</g>
</g>
<g id="Layer_5">
	<path style="opacity:0.65;fill:none;stroke:#65B724;stroke-width:4;stroke-linecap:round;stroke-linejoin:round;" d="M26,195
		c11.874-11.888,26.721-18.967,42.51-26.51c7.893-3.771,34.665-9.126,77.488-14.49c44.345-5.555,88.948-26.843,93.274-27.663
		c21.616-4.1,53.845-27.059,59.866-30.522c8.466-4.87,50.605-18.815,90.093-31.069c32.394-10.053,63.002-18.967,71.77-20.797
		c12.434-2.595,32.147-10.424,39-21.948"/>
	<path style="opacity:0.65;fill:none;stroke:#F5B724;stroke-width:4;stroke-linecap:round;stroke-linejoin:round;" d="M25,89
		c5.655-3.742,16.534-1.09,23-1.023c11.804,0.122,26.344-7.687,36.583-14.668c15.22-10.378,20.439-24.772,40.417-24.36
		c17.746,0.366,34.082,17.395,47,27.055c8.368,6.258,14.159,13.813,22.226,20.023c10.167,7.827,35.136,22.509,45.046,30.31
		c8.51,6.698,45.474,28.333,82.688,31.663c29.04,2.599,65.105-12.719,87.04-11.023c18.25,1.41,112-0.263,112-21.977
		c0-40-42.01-55.99-60-81.052c-4.424-6.163-20.367-31.114-26-33.948"/>
	<path style="opacity:0.65;fill:none;stroke:#3FA2FF;stroke-width:4;stroke-linecap:round;stroke-linejoin:round;" d="M60,18
		c4.826,6.979,5.275,16.187,8.251,24.223c3.625,9.788,10.862,22.241,16.332,31.086C96.633,92.795,84.031,104.131,101,118
		c11.571,9.458,32.999,26.987,44.998,36c19.479,14.633,60.589,7.178,83.784,11.777c15.115,2.998,37.691,2.561,50.02,11.445
		c3.866,2.786,9.91,11.956,10.199,16.777"/>
	<path style="opacity:0.65;fill:none;stroke:#0A12C0;stroke-width:4;stroke-linecap:round;stroke-linejoin:round;" d="M281,21
		c2.915,7.331,6.576,15.623,6.052,24c-0.502,8.022-0.968,41.609,12.086,50.814c15.559,10.972,102.163,44.707,109.862,51.162
		c6.537,5.479,18.998,40.675,27,43.023"/>
	<path style="opacity:0.65;fill:none;stroke:#DF1800;stroke-width:4;stroke-linecap:round;stroke-linejoin:round;" d="M533,137
		c-6.067-6.067-12-12-12-12c-30.397-10.632-84.33-43.639-131.77-60.255C337.034,46.463,292.334,45,287.052,45
		c-19.303,0-65.168-22.565-83.246-14.975C187.567,36.843,184.338,63.681,172,76.003c-6.251,6.243-62.606,35.328-71,41.997
		c-14.425,11.46-10.678,9.584-28,20.023c-6.835,4.119-16.214,9.574-24.003,10.973C40.235,150.569,28.202,149.426,22,151"/>
</g>
<g id="Layer_4">
	
		<circle style="fill:#FFFFFF;stroke:#9C9C9C;stroke-width:2;stroke-linecap:round;stroke-linejoin:round;" cx="145.998" cy="154" r="7.039"/>
	
		<circle style="fill:#FFFFFF;stroke:#9C9C9C;stroke-width:2;stroke-linecap:round;stroke-linejoin:round;" cx="461" cy="43.948" r="7.039"/>
	
		<circle style="fill:#FFFFFF;stroke:#9C9C9C;stroke-width:2;stroke-linecap:round;stroke-linejoin:round;" cx="521" cy="125" r="7.039"/>
	
		<circle style="fill:#FFFFFF;stroke:#9C9C9C;stroke-width:2;stroke-linecap:round;stroke-linejoin:round;" cx="389.23" cy="64.745" r="7.039"/>
	
		<circle style="fill:#FFFFFF;stroke:#9C9C9C;stroke-width:2;stroke-linecap:round;stroke-linejoin:round;" cx="287.052" cy="45" r="7.039"/>
	
		<circle style="fill:#FFFFFF;stroke:#9C9C9C;stroke-width:2;stroke-linecap:round;stroke-linejoin:round;" cx="299.138" cy="95.814" r="7.039"/>
	
		<circle style="fill:#FFFFFF;stroke:#9C9C9C;stroke-width:2;stroke-linecap:round;stroke-linejoin:round;" cx="409" cy="146.977" r="7.039"/>
	
		<circle style="fill:#FFFFFF;stroke:#9C9C9C;stroke-width:2;stroke-linecap:round;stroke-linejoin:round;" cx="239.272" cy="126.337" r="7.039"/>
	
		<circle style="fill:#FFFFFF;stroke:#9C9C9C;stroke-width:2;stroke-linecap:round;stroke-linejoin:round;" cx="172" cy="76.003" r="7.039"/>
	
		<circle style="fill:#FFFFFF;stroke:#9C9C9C;stroke-width:2;stroke-linecap:round;stroke-linejoin:round;" cx="101" cy="118" r="7.039"/>
	
		<circle style="fill:#FFFFFF;stroke:#9C9C9C;stroke-width:2;stroke-linecap:round;stroke-linejoin:round;" cx="84.583" cy="73.309" r="7.039"/>
	<circle style="fill:#FFFFFF;stroke:#9C9C9C;stroke-width:2;stroke-linecap:round;stroke-linejoin:round;" cx="435" cy="10" r="5"/>
	<circle style="fill:#FFFFFF;stroke:#9C9C9C;stroke-width:2;stroke-linecap:round;stroke-linejoin:round;" cx="500" cy="22" r="5"/>
	
		<circle style="fill:#FFFFFF;stroke:#9C9C9C;stroke-width:2;stroke-linecap:round;stroke-linejoin:round;" cx="475.035" cy="144.274" r="5"/>
	
		<circle style="fill:#FFFFFF;stroke:#9C9C9C;stroke-width:2;stroke-linecap:round;stroke-linejoin:round;" cx="334.752" cy="50.353" r="5"/>
	
		<circle style="fill:#FFFFFF;stroke:#9C9C9C;stroke-width:2;stroke-linecap:round;stroke-linejoin:round;" cx="480.635" cy="106.731" r="5"/>
	
		<circle style="fill:#FFFFFF;stroke:#9C9C9C;stroke-width:2;stroke-linecap:round;stroke-linejoin:round;" cx="348.298" cy="119.312" r="5"/>
	
		<circle style="fill:#FFFFFF;stroke:#9C9C9C;stroke-width:2;stroke-linecap:round;stroke-linejoin:round;" cx="348.924" cy="156.518" r="5"/>
	
		<circle style="fill:#FFFFFF;stroke:#9C9C9C;stroke-width:2;stroke-linecap:round;stroke-linejoin:round;" cx="284.76" cy="149.406" r="5"/>
	
		<circle style="fill:#FFFFFF;stroke:#9C9C9C;stroke-width:2;stroke-linecap:round;stroke-linejoin:round;" cx="205.985" cy="163.984" r="5"/>
	
		<circle style="fill:#FFFFFF;stroke:#9C9C9C;stroke-width:2;stroke-linecap:round;stroke-linejoin:round;" cx="279.801" cy="177.223" r="5"/>
	
		<circle style="fill:#FFFFFF;stroke:#9C9C9C;stroke-width:2;stroke-linecap:round;stroke-linejoin:round;" cx="246.929" cy="35.242" r="5"/>
	
		<circle style="fill:#FFFFFF;stroke:#9C9C9C;stroke-width:2;stroke-linecap:round;stroke-linejoin:round;" cx="196.8" cy="34.816" r="5"/>
	
		<circle style="fill:#FFFFFF;stroke:#9C9C9C;stroke-width:2;stroke-linecap:round;stroke-linejoin:round;" cx="427.883" cy="80.748" r="5"/>
	
		<circle style="fill:#FFFFFF;stroke:#9C9C9C;stroke-width:2;stroke-linecap:round;stroke-linejoin:round;" cx="495.344" cy="76.631" r="5"/>
	
		<circle style="fill:#FFFFFF;stroke:#9C9C9C;stroke-width:2;stroke-linecap:round;stroke-linejoin:round;" cx="273.008" cy="112.013" r="5"/>
	
		<circle style="fill:#FFFFFF;stroke:#9C9C9C;stroke-width:2;stroke-linecap:round;stroke-linejoin:round;" cx="139.144" cy="95.814" r="5"/>
	
		<circle style="fill:#FFFFFF;stroke:#9C9C9C;stroke-width:2;stroke-linecap:round;stroke-linejoin:round;" cx="125" cy="48.948" r="5"/>
	
		<circle style="fill:#FFFFFF;stroke:#9C9C9C;stroke-width:2;stroke-linecap:round;stroke-linejoin:round;" cx="93.199" cy="162.027" r="5"/>
	
		<circle style="fill:#FFFFFF;stroke:#9C9C9C;stroke-width:2;stroke-linecap:round;stroke-linejoin:round;" cx="63.288" cy="143.549" r="5"/>
	
		<circle style="fill:#FFFFFF;stroke:#9C9C9C;stroke-width:2;stroke-linecap:round;stroke-linejoin:round;" cx="43.93" cy="87.723" r="5"/>
	
		<circle style="fill:#FFFFFF;stroke:#9C9C9C;stroke-width:2;stroke-linecap:round;stroke-linejoin:round;" cx="436" cy="190" r="5"/>
	<circle style="fill:#FFFFFF;stroke:#9C9C9C;stroke-width:2;stroke-linecap:round;stroke-linejoin:round;" cx="60" cy="18" r="5"/>
</g>
<g id="Layer_3">
	<g>
		<path style="fill:none;stroke:#595959;stroke-width:1.2953;stroke-linecap:round;stroke-linejoin:round;" d="M355.807,111.999
			c-0.025,1.298,0.997,2.373,2.3,2.398c1.29,0.025,2.378-1.01,2.398-2.308c0.03-1.295-1.015-2.37-2.302-2.396
			C356.896,109.669,355.832,110.704,355.807,111.999z"/>
		<path style="fill:none;stroke:#595959;stroke-width:1.2953;stroke-linecap:round;stroke-linejoin:round;" d="M348.604,40.662
			c-0.147,7.281,4.25,13.271,9.8,13.383c5.558,0.106,10.191-5.702,10.334-12.983c0.143-7.28-4.257-13.271-9.812-13.38
			C353.375,27.572,348.746,33.387,348.604,40.662z"/>
		<path style="fill:none;stroke:#595959;stroke-width:1.2953;stroke-linecap:round;stroke-linejoin:round;" d="M358.146,54.566
			c-0.131,9.198-1.95,36.382-0.366,45.244c1.425,7.923,2.168,5.545,0.377,16.561c-2.247,13.798,1.928,27.383,2.267,34.391
			c1.732,36.352,1.973,35.448-6.428,34.224"/>
	</g>
	<g>
		<path style="fill:#FFFFFF;stroke:#595959;stroke-width:1.5113;stroke-linecap:round;stroke-linejoin:round;" d="M328.912,53.16
			c2.787,1.4,5.031,2.736,7.025,5.203c0.77-3.059,2.887-5.229,4.506-7.936c2.201,1.705,4.533,4.153,6.937,5.54
			c2.155-3.267,6.138-5.581,8.05-8.813c1.311,2.455,2.803,5.515,4.615,7.695c1.861-3.385,6.285-5.966,9.738-7.17
			c1.221,2.479-0.074,6.75-0.479,9.411c-0.791,5.202-1.729,10.405-1.902,15.667c-0.242,7.456-0.781,14.734-1.447,22.081
			c-1.053,0.022-5.512,2.982-7.317,4.511c-0.448-2.982-2.427-6.734-3.776-9.241c-0.248,3.084-2.199,8.796-4.613,10.972
			c0,0-3.185-4.686-5.656-6.588c0.238,3.898-2.365,8.536-3.695,12.131c-2.594-1.766-7.499-7.486-8.135-10.359
			C332.262,93.986,329.711,55.576,328.912,53.16"/>
		
			<line style="fill:#FFFFFF;stroke:#595959;stroke-width:1.5113;stroke-linecap:round;stroke-linejoin:round;" x1="360.045" y1="54.85" x2="358.638" y2="99.35"/>
		
			<line style="fill:#FFFFFF;stroke:#595959;stroke-width:1.5113;stroke-linecap:round;stroke-linejoin:round;" x1="355.43" y1="47.154" x2="354.861" y2="90.108"/>
		
			<line style="fill:#FFFFFF;stroke:#595959;stroke-width:1.5113;stroke-linecap:round;stroke-linejoin:round;" x1="347.38" y1="55.968" x2="350.248" y2="101.08"/>
		
			<line style="fill:#FFFFFF;stroke:#595959;stroke-width:1.5113;stroke-linecap:round;stroke-linejoin:round;" x1="340.443" y1="50.428" x2="344.592" y2="94.492"/>
		
			<line style="fill:#FFFFFF;stroke:#595959;stroke-width:1.5113;stroke-linecap:round;stroke-linejoin:round;" x1="335.938" y1="58.363" x2="340.896" y2="106.623"/>
	</g>
	<path style="fill:none;stroke:#595959;stroke-width:1.7046;stroke-linecap:round;stroke-linejoin:round;" d="M367.997,65.379
		c-0.567,0.091-1.128,0.213-1.698,0.321c-0.332,0.063-0.627,0.229-0.949,0.275"/>
	<path style="fill:none;stroke:#595959;stroke-width:1.7046;stroke-linecap:round;stroke-linejoin:round;" d="M367.602,68.805
		c-0.11-0.229-0.678-0.294-0.904-0.375c-0.225-0.081-0.432-0.192-0.652-0.248"/>
	<path style="fill:none;stroke:#595959;stroke-width:1.7046;stroke-linecap:round;stroke-linejoin:round;" d="M367.436,71.111
		c-0.205-0.105-1.069-0.498-1.438-0.592"/>
	<path style="fill:none;stroke:#595959;stroke-width:1.7046;stroke-linecap:round;stroke-linejoin:round;" d="M366.015,72.649
		c0.302,0.173,0.56,0.405,0.848,0.603c0.099,0.068,0.511,0.356,0.407,0.344"/>
	<path style="fill:none;stroke:#595959;stroke-width:1.7046;stroke-linecap:round;stroke-linejoin:round;" d="M330.809,70.719
		c0.625,0.397,1.03,0.273,1.473,0.474"/>
	<path style="fill:none;stroke:#595959;stroke-width:1.7046;stroke-linecap:round;stroke-linejoin:round;" d="M331.077,72.711
		c0.536,0.298,1.185,0.395,1.675,0.678"/>
	<path style="fill:none;stroke:#595959;stroke-width:1.7046;stroke-linecap:round;stroke-linejoin:round;" d="M331.067,74.557
		c0.362,0.221,0.845,0.258,1.282,0.271"/>
	<path style="fill:none;stroke:#595959;stroke-width:1.7046;stroke-linecap:round;stroke-linejoin:round;" d="M330.754,68.174
		c0.896,0.474,1.387,0.609,2.1,1.121"/>
	<g>
		<path style="fill:#FFFFFF;stroke:#595959;stroke-linecap:round;stroke-linejoin:round;" d="M376.707,20.408
			c-1.921-3.928,5.917-5.483,4.902,0.359c-0.694,4.004-6.039,5.534-6.868,9.658"/>
		
			<line style="fill:#FFFFFF;stroke:#595959;stroke-linecap:round;stroke-linejoin:round;" x1="374.029" y1="33.36" x2="373.202" y2="33.524"/>
	</g>
	<g>
		<path style="fill:#FFFFFF;stroke:#595959;stroke-linecap:round;stroke-linejoin:round;" d="M366.209,15.893
			c-2.164-6.068,7.719-5.931,4.734,0.895c-0.892,2.04-3.168,2.256-3.615,4.879c-0.164,0.968,0.581,2.31,0.356,3.77"/>
		
			<line style="fill:#FFFFFF;stroke:#595959;stroke-linecap:round;stroke-linejoin:round;" x1="367.425" y1="28.765" x2="366.975" y2="28.217"/>
	</g>
	<g>
		<path style="fill:#FFFFFF;stroke:#595959;stroke-linecap:round;stroke-linejoin:round;" d="M388.379,34.141
			c1.237-4.104,6.407-2.717,5.042,0.758c-1.75,4.453-8.874,1.344-12.132,5.303"/>
		
			<line style="fill:#FFFFFF;stroke:#595959;stroke-linecap:round;stroke-linejoin:round;" x1="379.553" y1="43.021" x2="379.759" y2="42.353"/>
	</g>
</g>
</svg>
