<?xml version="1.0" encoding="iso-8859-1"?>
<!-- Generator: Adobe Illustrator 15.0.2, SVG Export Plug-In . SVG Version: 6.00 Build 0)  -->
<!DOCTYPE svg PUBLIC "-//W3C//DTD SVG 1.1//EN" "http://www.w3.org/Graphics/SVG/1.1/DTD/svg11.dtd">
<svg version="1.1" xmlns="http://www.w3.org/2000/svg" xmlns:xlink="http://www.w3.org/1999/xlink" x="0px" y="0px" width="378px"
	 height="140px" viewBox="0 0 378 140" style="enable-background:new 0 0 378 140;" xml:space="preserve">
<g id="Layer_2">
	<rect style="fill:#FFFFFF;" width="377.999" height="140"/>
</g>
<g id="Layer_6">
	<rect style="fill:#22427A;" width="378" height="73.578"/>
	<path style="fill:#FFFFFF;stroke:#70BF46;stroke-width:0.7;stroke-linejoin:round;" d="M-0.164,73.578
		c3.258-2.818,34.348,0.488,42.595,0c20.907-1.239,43.557-3.419,64.529-4.689c39.136-2.372,78.453-4.098,117.678-4.098
		c27.477,0,54.836-0.163,82.086,1.99c12.714,1.004,25.438,0.448,38.195,1.032c4.634,0.211,31.186,4.466,33.429,5.766"/>
	<path style="fill:#F0DD8C;" d="M320.367,33.133c0,11.211-9.089,20.3-20.301,20.3c-11.211,0-20.3-9.089-20.3-20.3
		c0-11.211,9.089-20.3,20.3-20.3C313.367,12.833,320.367,21.922,320.367,33.133z M295.401,13.376
		c-4.349,3.723-5.602,7.75-5.602,13.924c0,11.212,9.089,20.3,20.3,20.3c1.637,0,3.643,0.549,4.751-0.559
		c1.237-1.237,3.493-5.064,4.585-7.813c1.881-4.737,2.937-9.631-2.576-18.369C311.355,12.135,297.16,11.871,295.401,13.376z"/>
</g>
<g id="Layer_5">
	<path style="fill:none;stroke:#868881;stroke-width:1.4;stroke-linecap:round;stroke-linejoin:round;" d="M217.77,72.147
		c0.159-0.633,2.955-0.308,2.955,1.78c0.711,9.529,5.244,41.471-4.948,38.049c-6.789-2.279-12.914-6.404-17.553-12.938"/>
	<path style="fill:#FFFFFF;stroke:#868881;stroke-width:1.4;stroke-linecap:round;stroke-linejoin:round;" d="M204.372,43.115
		c0,10.141,6.287,18.358,14.017,18.358c7.734,0,14.026-8.217,14.026-18.358c0-10.137-6.292-18.355-14.026-18.355
		C210.659,24.76,204.372,32.979,204.372,43.115z"/>
	<path style="fill:none;stroke:#868881;stroke-width:1.4;stroke-linecap:round;stroke-linejoin:round;" d="M218.043,62.205
		c0.065,12.814-1.725,50.704,0.729,63.003c1.203,6.014,2.039,7.738,2.192,10.589"/>
</g>
<g id="Layer_4">
	<g>
		<path style="fill:#F7EF73;" d="M122.87,27.084c-1.371,0.181-4.072,1.223-5.552,1.977c-0.127-0.268-0.372-0.525-0.695-0.695
			c0.072-0.042,0.148-0.09,0.212-0.124c0.878-0.461,3.476-1.151,4.251-1.289c0.776-0.138,3.027-0.08,2.546-0.529
			c-0.479-0.448-1.693-0.08-2.741-0.123c-0.705-0.029-2.854,0.788-4.589,1.932c1.164-0.941,2.539-1.987,3.386-2.405
			c1.69-0.834,3.641-1.562,3.357-1.817c-0.286-0.254-1.99,0.507-3.321,1.125c-0.81,0.376-2.498,1.814-3.809,3.056
			c-0.228-0.001-0.467,0.035-0.717,0.153c-1.24,0.587-2.198,2.222-2.198,2.222c0.365-0.496,1.262-1.303,2.104-1.583
			c-0.45,0.456-0.786,0.828-0.914,1.024c0,0,0.165-0.144,0.432-0.374c-0.126,0.144-0.244,0.289-0.341,0.435
			c0,0,0.771-0.626,1.542-1.175c0.382,0.054,0.702,0.265,0.955,0.46c-0.188,0.112-0.331,0.211-0.412,0.292
			c0,0,0.116-0.086,0.482-0.237c0.099,0.078,0.189,0.151,0.264,0.204c-0.207,0.06-0.35,0.108-0.406,0.139c0,0,0.2-0.025,0.536-0.067
			c0.052,0.02,0.097,0.021,0.128-0.017c1.083-0.136,3.291-0.408,5.054-0.602c2.434-0.266,3.273,0.412,3.696,0.088
			c0.423-0.323-0.579-0.559-1.969-0.725c-1.135-0.137-5.088,0.668-6.738,1.102c0.001-0.011,0.006-0.013,0.008-0.025
			c0.011-0.091-0.006-0.192-0.037-0.294c0.332-0.114,0.753-0.245,1.315-0.393c1.83-0.484,4.505-1.214,5.648-1.086
			c1.142,0.128,2.087,0.042,1.967-0.184C126.192,27.322,124.668,26.848,122.87,27.084z"/>
		<path style="fill:#F7EF73;" d="M100.912,35.447c0.022,0.026,0.049,0.048,0.091,0.049c0.4,0.011,1.584-1.439,3.607-2.214
			c2.022-0.773,4.081-1.801,4.081-1.801c-0.262-0.147-2.026,0.4-3.676,1.003c0.183-0.147,0.292-0.236,0.292-0.236
			c-0.271-0.084-1.151,0.345-2.267,1.01c-0.321,0.137-0.593,0.261-0.771,0.356c-0.339,0.181-0.614,0.414-0.834,0.654
			c-2.902,1.909-6.224,4.471-5.539,4.452c1.115-0.033,1.944-1.67,4.001-2.697C100.21,35.867,100.555,35.667,100.912,35.447z"/>
		<path style="fill:#F7EF73;" d="M128.213,31.489c-0.82-1.013-6.33-1.854-7.571-1.634c0,0,2.138,0.779,4.086,0.93
			c1.946,0.151,2.823,1.484,3.742,2.149C129.387,33.598,129.033,32.503,128.213,31.489z"/>
		<path style="fill:#F7EF73;" d="M129.154,29.584c-1.016-0.316-2.455-0.309-2.455-0.309c0.586,0.144,1.799,0.673,2.428,1.059
			c0.629,0.384,0.954,1.319,1.334,0.755C130.841,30.526,130.169,29.9,129.154,29.584z"/>
		<path style="fill:#F7EF73;" d="M125.241,33.673c-1.069-0.645-7.275-1.77-6.429-1.506c0.847,0.263,4.361,1.128,6.232,2.203
			c1.871,1.075,1.985,1.717,2.338,1.902c0.353,0.186,0.387-0.069-0.206-0.708C126.583,34.925,126.226,34.269,125.241,33.673z"/>
		<path style="fill:#F7EF73;" d="M127.914,37.915c0.22,0.789,0.773,2.098,0.944,3.061c0.171,0.963,0.433,1.993,0.687,1.616
			c0.253-0.376,0.144-2.343-0.4-3.156C128.6,38.622,127.914,37.915,127.914,37.915z"/>
		<path style="fill:#F7EF73;" d="M125.044,42.481c0.071-0.509-0.257-1.609-1.775-3.244c-1.056-1.137-2.655-2.371-3.908-3.293
			c0.048,0.014,0.095,0.023,0.121-0.006c0.172-0.19-0.231-0.825-0.81-1.579c0.474,0.333,0.956,0.681,1.346,0.987
			c1.208,0.944,3.307,3.302,3.674,3.569c0.367,0.265,0.253-0.376-0.017-0.991c-0.269-0.614-1.979-2.13-3.094-3.009
			c-0.68-0.534-1.741-1.06-2.602-1.423c-0.124-0.15-0.248-0.301-0.372-0.449c-1.019-1.227-3.833-1.305-4.777-1.221
			c0,0,3.451,0.961,4.214,1.653c0.542,0.491,1.402,1.663,1.954,2.203c-0.688-0.501-1.234-0.888-1.431-1.055
			c0,0,1.34,1.246,2.35,1.978c1.011,0.731,3.083,2.934,3.289,3.642C123.413,40.95,124.975,42.989,125.044,42.481z"/>
		<path style="fill:#F7EF73;" d="M124.807,43.847c0.016,0.991,0.19,2.863,0.536,3.464c0.347,0.6,0.253-0.376,0.083-1.339
			C125.254,45.009,124.807,43.847,124.807,43.847z"/>
		<path style="fill:#F7EF73;" d="M96.765,35.168c0.492-0.547,1.501-1.4,2.02-1.706c0,0-1.38,0.404-2.262,0.997
			c-0.882,0.593-1.343,1.383-0.817,1.814C96.234,36.707,96.276,35.718,96.765,35.168z"/>
		<path style="fill:#F7EF73;" d="M99.354,40.099c-0.384,0.782-0.276,1.016,0.007,0.737c0.285-0.279,0.698-1.475,2.179-3.038
			c0.759-0.801,1.946-1.671,3.023-2.397c-0.448,0.958-0.658,1.75-0.155,1.252c0.495-0.488,0.795-1.244,1.16-1.911
			c0.583-0.375,1.07-0.676,1.303-0.833c0.249-0.167-0.296,0.098-1.142,0.558c0.198-0.325,0.42-0.617,0.706-0.821
			c0.386-0.276,1.145-0.663,1.897-1.018c-0.145,0.112-0.271,0.222-0.341,0.327c-0.443,0.658-1.352,1.399-0.717,1.369
			c0.635-0.03,1.239-1.131,1.789-1.642c0.55-0.511,2.028-1.188,2.028-1.188c-0.108-0.018-0.305,0.018-0.537,0.081
			c-0.202-0.138-0.833-0.54-1.632-0.857c-0.164-0.242-0.327-0.492-0.503-0.755c0.765,0.464,1.686,0.924,1.686,0.924
			s-1.035-0.88-2.281-1.773c-0.411-0.556-0.926-1.187-1.661-1.95c-1.57-1.628-3.619-3.705-3.785-3.294
			c-0.15,0.368,2.725,3.051,3.906,4.228c-0.776-0.461-1.511-0.801-2.022-0.826c-0.345-0.017-0.645-0.039-0.918-0.062
			c-0.874-0.683-1.716-1.296-1.982-1.405c-0.518-0.213-0.387,0.069-0.153,0.484c0,0,0.645,0.427,1.283,0.851
			c-0.492-0.033-0.733-0.013-0.698,0.189c0.045,0.252,0.757,0.281,1.525,0.361c0.751,0.505,3.32,2.592,3.32,2.592
			s-0.325-0.476-1.193-1.313c-0.294-0.283-0.802-0.715-1.359-1.167c0.096,0.02,0.193,0.038,0.282,0.063
			c0.896,0.246,2.309,0.94,3.133,1.482c0.578,0.579,1.168,1.15,1.38,1.355c-0.735-0.288-1.594-0.492-2.386-0.317
			c-0.557,0.123-1.125,0.327-1.632,0.547c-2.292-0.259-6.167-0.711-7.554-0.465c-1.396,0.248-3.397,1.596-2.748,1.646
			c0.65,0.051,2.03-1.188,3.948-1.198c1.789-0.009,5.807,0.018,6.342,0.021c-0.219,0.095-0.42,0.19-0.607,0.288
			c-1.499,0.157-2.981,0.377-3.559,0.628c-0.759,0.329-2.224,1.167-1.563,1.116c0.457-0.036,1.479-0.645,3.366-1.199
			c0.423-0.124,0.879-0.228,1.343-0.316c-0.487,0.294-0.734,0.536-0.485,0.559c0.422,0.038,2.173-0.621,3.413-0.935
			c0.852-0.068,1.44-0.083,1.44-0.083c-0.114-0.025-0.52-0.021-1.08,0.005c0.269-0.056,0.511-0.094,0.671-0.081
			c0.758,0.059,2.266,0.528,2.711,0.671c-0.198,0.056-0.422,0.136-0.657,0.229c-1.146,0.26-3.535,0.909-4.28,1.875
			c-0.274,0.355-0.561,0.838-0.807,1.317c-1.023,0.582-2.187,1.283-2.996,1.868c0.082-0.08,0.165-0.162,0.246-0.236
			c1.93-1.749,3.556-2.949,3.556-2.949c-0.79,0.058-4.74,3.491-6,4.957c-1.26,1.465-3.027,3.682-2.329,3.558
			c0.487-0.086,1.673-1.9,3-3.584C99.885,39.154,99.609,39.577,99.354,40.099z"/>
		<path style="fill:#F7EF73;" d="M99.818,42.014c0,0-0.452,0.872-0.737,1.806c-0.287,0.935,0.178,2.851,0.53,3.138
			c0.352,0.287,0.305-0.772,0.19-1.743C99.686,44.244,99.837,42.832,99.818,42.014z"/>
		<path style="fill:#F7EF73;" d="M107.096,38.47c0.755-0.988,1.448-2.607,1.448-2.607c-0.402,0.62-2.743,3.745-3.893,6.089
			c-0.981,2-0.977,3.147-0.763,3.614c0.214,0.469,1.12-1.932,1.113-2.669C104.993,42.16,106.34,39.459,107.096,38.47z"/>
		<path style="fill:#F7EF73;" d="M104.536,49.02c0.115,0.97,0.308,1.932,0.467,1.258c0.158-0.675-0.22-2.518-0.491-3.47
			C104.512,46.808,104.42,48.048,104.536,49.02z"/>
		<path style="fill:#F7EF73;" d="M110.181,37.175c-0.216,1.032-1.323,5.616-1.361,7.195c-0.04,1.579,0.302,3.505,0.669,3.771
			s-0.224-2.609,0.041-4.725C109.794,41.3,110.181,37.175,110.181,37.175z"/>
		<path style="fill:#F7EF73;" d="M114.33,45.211c0.4-0.898-0.452-3.892-1.034-6.271c-0.583-2.38-0.689-2.526-0.689-2.526
			c-0.013,0.829,0.004,1.819,0.351,3.33C113.306,41.256,113.929,46.11,114.33,45.211z"/>
		<path style="fill:#F7EF73;" d="M117.118,38.841c-0.546-0.814-2.277-2.906-2.277-2.906c0.305,0.36,2.61,4.336,3.277,6.287
			c0.667,1.951,0.952,3.555,1.425,3.968c0.474,0.412-0.125-2.957-0.861-4.399C117.945,40.349,117.663,39.654,117.118,38.841z"/>
		<path style="fill:#F7EF73;" d="M109.07,48.091c-0.055,0.589-0.765,2.453-0.487,3.562c0.277,1.11,0.801,2.258,0.884,1.83
			c0.084-0.429-0.199-1.124-0.292-2.1C109.082,50.406,109.07,48.091,109.07,48.091z"/>
		<path style="fill:#F7EF73;" d="M114.649,47.515c0.128,0.722,0.395,2.396,0.408,3.651c0.015,1.468,0.687,3.089,0.887,2.739
			c0.221-0.387-0.118-2.462-0.203-2.942C115.655,50.48,114.649,47.515,114.649,47.515z"/>
		<path style="fill:#F7EF73;" d="M119.956,45.413c0.177,0.548,0.63,1.295,0.893,2.324c0.262,1.029,0.223,2.609,0.893,2.325
			c0.669-0.284-0.152-2.208-0.59-2.875C120.712,46.52,119.956,45.413,119.956,45.413z"/>
		<path style="fill:#F7EF73;" d="M122.007,31.683c3.399,0.223,4.573,1.421,4.642,0.912c0.069-0.508-1.227-0.609-2.379-1.231
			c-0.577-0.312-2.458-0.497-4.343-0.546c-0.327-0.269-0.76-0.559-1.17-0.767c-1.156-0.586-5.221,0.419-6.205,1.102
			c0,0,2.714-0.482,4.372-0.611c0.631-0.049,1.189,0.083,1.67,0.265c-1.368,0.013-2.56,0.104-3.013,0.279
			C115.581,31.085,118.605,31.458,122.007,31.683z"/>
		<path style="fill:#F7EF73;" d="M116.152,42.275c0.009-0.391-0.033-0.945-0.156-1.637c-0.327-1.846-3.625-7.798-3.942-8.238
			c0,0,0.518,1.563,1.339,3.485c0.105,0.245,0.218,0.53,0.336,0.841c0.133,0.63,0.3,1.352,0.469,1.888
			c0.369,1.177,2.243,8.127,2.568,8.151c0.324,0.026,0.387-0.979,0.066-2.329C116.742,44.055,116.485,43.25,116.152,42.275z"/>
		<path style="fill:#F7EF73;" d="M111.709,42.361c0.03,0.09,0.06,0.182,0.077,0.241c0.19,0.628,0.295-0.135,0.096-1.259
			c-0.07-0.392-0.157-1.44-0.234-2.681c0.02-0.356,0.051-0.633,0.102-0.771c0,0-0.062,0.028-0.139,0.121
			c-0.11-1.994-0.181-4.258-0.103-5.149c-0.099,0.836-0.45,3.784-0.641,5.019c-0.136,0.888,0.169,2.225,0.469,3.272
			c0.087,2.521,0.026,6.866,0.502,7.15c0.537,0.317,0.429-0.739,0.201-2.022C111.934,45.689,111.796,44.045,111.709,42.361z"/>
		<path style="fill:#F7EF73;" d="M109.479,34.57c-0.347,0.468-2.303,5.954-2.109,7.492c0.194,1.538,0.627-0.525,0.618-1.021
			c0,0,0.295-1.045,0.82-3.042C109.333,36.003,110.092,33.742,109.479,34.57z"/>
		<path style="fill:#F7EF73;" d="M112.571,32.613c0,0,1.161,1.669,1.909,2.64c0.728,0.946,3.696,4.144,3.888,4.772
			c0.19,0.628,0.282-0.216-0.286-1.605C117.516,37.031,113.403,32.796,112.571,32.613z"/>
		<path style="fill:#F7EF73;" d="M111.508,32.862c0.016-0.143,0.027-0.231,0.027-0.231
			C111.523,32.691,111.515,32.773,111.508,32.862z"/>
		<path style="fill:#F7EF73;" d="M111.462,32.132c0.118-0.06,0.204-0.104,0.204-0.104C111.632,32.034,111.556,32.076,111.462,32.132
			z"/>
		<path style="fill:#F7EF73;" d="M105.217,38.058c0.276,0.198,1.199-0.461,1.585-1.44c0.534-1.354,3.774-3.951,4.66-4.486
			c-0.623,0.317-2.604,1.352-3.262,2.003C107.539,34.791,104.942,37.858,105.217,38.058z"/>
		<path style="fill:#F7EF73;" d="M103.939,40.768c-0.715,1.29-2.206,4.695-2.401,5.393c-0.197,0.697,0.099,0.562,0.571,0.063
			c0,0,0.603-2.01,0.96-3.149c0.358-1.14,2.34-4.388,2.34-4.388S104.636,39.51,103.939,40.768z"/>
		<path style="fill:#F7EF73;" d="M119.989,39.343c0.683,1.424,1.46,3.303,1.729,4.226c0.412,1.416,0.407,2.742,0.772,2.097
			c0.366-0.644-1.298-4.156-1.885-5.209C120.422,40.126,120.203,39.731,119.989,39.343z"/>
		<path style="fill:#F7EF73;" d="M119.989,39.343c-0.364-0.76-0.703-1.398-0.919-1.677C119.07,37.666,119.519,38.487,119.989,39.343
			z"/>
		<path style="fill:#F7EF73;" d="M112.629,54.56c-0.082,1.339,0.57,3.209,1.08,4.278c0.51,1.067,0.811,3.663,1.29,2.75
			c0.479-0.914-0.669-2.861-1.391-4.223C112.886,56.005,112.629,54.56,112.629,54.56z"/>
		<path style="fill:#F7EF73;" d="M120.698,54.948c0.327,0.935,0.697,3.021,0.53,3.878c-0.168,0.858-0.7,3.269,0.104,3.292
			s0.389-3.214,0.162-4.497C121.266,56.336,120.698,54.948,120.698,54.948z"/>
		<path style="fill:#F7EF73;" d="M105.754,35.67c-0.486,0.418-1.703,2.123-2.505,3.012c-0.803,0.887-1.948,2.994-2.292,4.214
			c-0.343,1.219-0.735,2.614-0.208,2.436c0.529-0.176,0.934-2.399,1.277-3.619C102.371,40.492,105.754,35.67,105.754,35.67z"/>
		<path style="fill:#F7EF73;" d="M119.744,38.316c1.153,1.533,1.24,2.925,1.494,2.549c0.252-0.376-1.312-3.326-2.838-4.71
			c-1.525-1.384-2.88-1.806-2.88-1.806C115.964,34.601,118.593,36.783,119.744,38.316z"/>
		<path style="fill:#F7EF73;" d="M110.275,26.944c0.076,0.134,0.13,0.229,0.13,0.229C110.373,27.109,110.328,27.031,110.275,26.944z
			"/>
		<path style="fill:#F7EF73;" d="M106.123,21.984c0.163,0.107,0.389,0.314,0.652,0.581c-0.349,0.116,0.939,1.6,1.628,2.511
			c-0.624,0.116-0.943,0.416-0.382,0.384c0.198-0.011,0.52,0.134,0.864,0.331c0.065,0.106,0.139,0.232,0.212,0.358
			c0.172,0.72,0.376,1.533,0.561,2.262c-0.532-0.55-1.107-1.096-1.484-1.371c-0.593-1.719-0.673-1.256-1.19-2.464
			c-0.547-1.276-1.791-2.428-1.881-2.031c-0.088,0.398,1.039,1.341,1.376,1.892c0,0,0.584,1.041,0.949,1.738
			c0.07,0.135,0.181,0.365,0.314,0.647c-0.359-0.11-0.284-0.113-0.014,0.596c0.073,0.192,0.331,0.491,0.677,0.839
			c0.437,0.958,0.844,1.866,0.844,1.866s-0.174-0.437-0.573-1.6c0.403,0.387,0.879,0.813,1.323,1.215
			c0.119,0.458,0.195,0.75,0.195,0.75s-0.034-0.272-0.085-0.65c0.706,0.641,1.303,1.204,1.341,1.419c0,0-0.324-0.934-0.572-1.424
			c-0.002-0.004-0.01-0.013-0.012-0.018c-0.103-0.378-0.515-1.87-0.888-2.797c-0.079-0.195-0.221-0.474-0.403-0.794
			c0.157,0.108,0.301,0.211,0.432,0.308c0.104,0.152,0.196,0.292,0.269,0.411c-0.055-0.097-0.124-0.218-0.21-0.368
			c0.266,0.197,0.455,0.347,0.455,0.347c-0.22-0.577-0.692-1.351-1.239-1.7c-0.008-0.013-0.016-0.026-0.023-0.04
			c-0.374-1.757-0.809-3.685-0.953-3.969c-0.247-0.491-0.31,0.055-0.231,0.498c0,0,0.367,1.306,0.599,2.498
			c-0.074-0.121-0.149-0.244-0.218-0.353c-0.779-1.234-2.634-3.117-3.268-3.081C104.554,20.813,105.216,21.382,106.123,21.984z
			 M108.834,25.014c-0.072-0.111-0.146-0.222-0.22-0.334c0.068,0.085,0.136,0.17,0.203,0.254
			C108.823,24.961,108.828,24.986,108.834,25.014z M110.856,29.804c-0.11-0.197-0.466-0.618-0.909-1.091
			c-0.036-0.236-0.073-0.469-0.11-0.677c-0.029-0.166-0.088-0.469-0.165-0.851C110.175,28.126,110.672,29.163,110.856,29.804z"/>
		<path style="fill:#F7EF73;" d="M100.885,22.228c-0.813,0.374-0.14,0.561,1.233,1.079c1.372,0.519,5.028,3.988,5.598,4.498
			c0,0-1.608-1.851-2.439-2.923C104.447,23.807,101.699,21.854,100.885,22.228z"/>
		<path style="fill:#F7EF73;" d="M99.249,28.774c1.643,0.242,5.137,0.993,5.137,0.993c-0.827-0.157-4.583-1.474-5.94-1.46
			c-1.357,0.013-3.258,0.121-2.96,0.449C95.784,29.083,97.605,28.531,99.249,28.774z"/>
		<path style="fill:#F7EF73;" d="M107.773,20.013c0,0-0.24-1.5-0.629-2.346c-0.391-0.846-0.429-1.355-0.973-1.717
			c-0.544-0.361-0.296,0.129-0.05,0.62C106.368,17.06,107.25,18.428,107.773,20.013z"/>
		<path style="fill:#F7EF73;" d="M109.52,15.888c0.012-0.383,0.021-1.682-0.444-1.599c-0.465,0.083,0.138,3.026,0.229,3.544
			C109.305,17.834,109.508,16.272,109.52,15.888z"/>
		<path style="fill:#F7EF73;" d="M113.425,15.348c-0.337-0.093-0.706,2.337-0.755,2.956c0,0,0.194-0.262,0.541-1.011
			C113.557,16.544,113.761,15.44,113.425,15.348z"/>
		<path style="fill:#F7EF73;" d="M117.926,15.922c0.077-0.472-0.401-0.006-1.15,0.279c-0.519,0.198-1.866,2.744-2.189,3.44
			c0,0,1.302-1.681,1.972-2.41C117.23,16.502,117.851,16.393,117.926,15.922z"/>
		<path style="fill:#F7EF73;" d="M112.173,25.405c-0.685,0.866-0.931,3.329-0.832,3.89c0,0,0.103-0.782,0.41-1.751
			c0.093-0.292,0.198-0.557,0.309-0.804c-0.018,0.15-0.038,0.282-0.064,0.379c0,0,0.035-0.167,0.091-0.433
			c0.089-0.194,0.181-0.37,0.278-0.527c-0.343,1.408-0.603,2.794-0.595,3.289c0,0,0.595-2.232,1.021-3.825
			c0.04-0.036,0.079-0.087,0.118-0.115c0.366-0.262,0.612-0.502,0.034-0.45c0.095-0.352,0.173-0.641,0.221-0.815
			c0.168-0.609,1.1-1.468,1.587-2.025c-0.638,1.497-1.705,5.545-2.156,6.474c0,0,0.426-0.757,0.554-0.932
			c0.129-0.176,1.152-3.873,1.718-4.735c0.567-0.862,1.751-2.75,1.48-2.932c-0.272-0.181-0.773,1.053-1.314,1.606
			c-0.583-0.582-1.15,0.281-1.575,1.043c-0.243,0.436-0.542,1.342-0.82,2.358c-0.015,0.003-0.024,0.003-0.04,0.006
			c-0.068,0.012-0.133,0.042-0.196,0.082c0.182-0.876,0.383-1.841,0.5-2.423c0.254-1.266,0.999-3.382,1.088-3.778
			c0.089-0.397-0.632,0.494-1.259,2.817C112.377,23.112,112.251,24.396,112.173,25.405z"/>
		<path style="fill:#F7EF73;" d="M109.731,22.029c0.404,1.378,0.997,5.163,1.22,6.42c0,0,0.036-1.15-0.162-2.718
			c-0.199-1.566-1.011-5.236-1.18-5.74C109.439,19.489,109.327,20.652,109.731,22.029z"/>
		<path style="fill:#F7EF73;" d="M103.506,20.313c0.596,0.657,1.44,1.804,1.44,1.804c-0.313-0.859-0.989-2.418-1.702-2.825
			c-0.712-0.408-1.657-0.775-1.437-0.432C102.028,19.204,102.908,19.657,103.506,20.313z"/>
		<path style="fill:#F7EF73;" d="M100.268,20.551l2.098,1c1.01,0.736,1.968,1.175,1.968,1.175c-0.83-1.072-2.878-2.692-3.589-2.642
			S99.763,20.412,100.268,20.551z"/>
		<path style="fill:#F7EF73;" d="M97.993,22.605c0.62-0.11,1.267-0.073,1.837-0.021c0,0-0.558-0.435-0.804-0.467
			c-0.246-0.033-0.983-0.131-1.527-0.034C96.957,22.179,97.373,22.715,97.993,22.605z"/>
		<path style="fill:#F7EF73;" d="M98.061,24.789c0.829,0.158,2.059,0.779,2.059,0.779c-0.637-0.878-2.074-1.768-2.837-1.556
			c-0.762,0.213-1.436,0.027-1.046,0.416C96.625,24.815,97.233,24.632,98.061,24.789z"/>
		<path style="fill:#F7EF73;" d="M121.889,16.111c-0.848,0.02-2.182,1.294-2.821,1.797c-0.638,0.504-0.936,1.6-0.936,1.6
			c0.463-0.514,2.38-2.024,2.872-2.468C121.498,16.596,122.736,16.091,121.889,16.111z"/>
		<path style="fill:#F7EF73;" d="M118.498,21.389c0,0,0.916-0.697,2.84-1.574c1.925-0.876,2.093-0.83,2.118-1.138
			c0.025-0.31-0.673-0.186-1.487,0.187C121.156,19.237,118.716,20.815,118.498,21.389z"/>
		<path style="fill:#F7EF73;" d="M127.299,24.096c1.01,0.277,1.735,0.759,1.889,0.273c0.155-0.484-2.616-1.212-3.467-1.061
			c-0.855,0.152-1.358,0.47-1.358,0.47C125.06,23.654,126.29,23.817,127.299,24.096z"/>
		<path style="fill:#F7EF73;" d="M115.802,24.231c-0.658,0.774-1.683,2.992-2.349,4.524c-0.764,0.847-1.351,1.671-1.306,1.922
			c0,0,0.1-0.119,0.252-0.298c-0.259,0.691-0.193,1.083-0.193,1.083c0.007-0.415,1.034-1.839,1.689-2.205
			c0.458-0.255,0.584-0.568,0.394-0.639c0.174-0.226,0.372-0.481,0.588-0.757c0.827-0.514,2.179-0.916,2.612-1.338
			c0.477-0.466-0.156-0.43-1.5,0.114c-0.076,0.031-0.169,0.095-0.253,0.14c0.262-0.325,0.506-0.62,0.69-0.829
			c0.799-0.905,1.494-1.875,1.804-2.456c0.54-1.012,1.78-1.69,1.378-2.151c-0.402-0.463-0.8,0.447-1.574,1.5
			c-0.057,0.078-0.148,0.208-0.263,0.373C117.682,22.914,116.741,23.127,115.802,24.231z M113.954,28.656
			c0.194-0.198,0.371-0.363,0.528-0.5c-0.1,0.157-0.196,0.307-0.286,0.448C114.132,28.604,114.051,28.622,113.954,28.656z
			 M115.102,27.203c-0.366,0.283-0.746,0.622-1.117,0.996c0.166-0.297,0.325-0.584,0.455-0.828c0.54-1.01,1.609-2.284,1.855-2.618
			c0.233-0.314,0.718-0.647,1.073-0.947C116.759,24.699,115.877,26.018,115.102,27.203z"/>
		<path style="fill:#F7EF73;" d="M111.527,25.829c0,0-0.098-2.346-0.164-3.174c-0.068-0.827,0.127-5.133,0.06-5.959
			c-0.066-0.828-0.233,0.041-0.372,1.057c-0.14,1.016,0.173,6.834,0.437,8.313L111.527,25.829z"/>
		<path style="fill:#F7EF73;" d="M117.617,25.892c0,0,2.671-2.534,3.445-3.128c0.774-0.595,1.484-1.104,2.723-1.781
			c1.24-0.678-0.53-0.288-1.615,0.364C121.086,21.996,118.198,25.102,117.617,25.892z"/>
		<path style="fill:#F7EF73;" d="M122.581,40.544c-0.53-0.734-1.23-1.52-1.23-1.52c0.694,1.202,1.839,3.15,1.892,4.795
			c0.052,1.646,0.592,3.785,0.98,3.716c0.388-0.07-0.307-1.271-0.599-3.37C123.331,42.065,123.111,41.277,122.581,40.544z"/>
		<path style="fill:#F7EF73;" d="M107.746,43.51c0,0-0.5,0.338-0.649,3.095c-0.15,2.757,0.529,3.879,0.643,4.521
			c0.114,0.642,0.302-0.551,0.074-1.835C107.585,48.007,107.424,44.395,107.746,43.51z"/>
	</g>
	<path style="fill:#FFFFFF;stroke:#868881;stroke-width:2.8;stroke-linecap:round;stroke-linejoin:round;" d="M222.567,57.547
		c-1.456,10.277-9.005,17.813-16.844,16.642c-7.833-1.171-12.947-10.437-11.413-20.704c1.534-10.258,9.135-17.624,16.967-16.453
		C219.118,38.204,224.023,47.277,222.567,57.547z"/>
	<path style="fill:none;stroke:#868881;stroke-width:2.8;stroke-linecap:round;stroke-linejoin:round;" d="M205.621,74.868
		c-0.506,3.265-1.146,8.311-1.888,14.141l-1.354,10.459c-0.573,4.306-1.186,8.707-1.831,12.9c-1.322,8.595-2.966,16.147-3.845,20.52
		c-0.226,1.129-0.475,2.084-0.739,2.909"/>
	<path style="fill:none;stroke:#868881;stroke-width:1.4;stroke-linecap:round;stroke-linejoin:round;" d="M204.045,86.562
		c-7.025,7.504-9.644,22.081,2.964,26.874c6.477,2.463,8.316-7.812,11.039-12.93"/>
	<path style="fill:#FFFFFF;stroke:#868881;stroke-width:1.4;stroke-linecap:round;stroke-linejoin:round;" d="M218.614,100.566
		c5.487-1.308,10.062-6.658,13.678-11.719c-4.025,2.732-5.9,3.044-6.816,4.283c0.56-0.893,4.46-6.918,4.845-7.812
		c-1.129,0.408-6.154,5.405-6.795,6.527c0.593-1.188,3.8-5.963,3.752-7.255c-1.164,0.812-9.59,13.802-6.763,1.597
		c-3.107,6.415-3.19,12.757-2.467,14.319"/>
	<g>
		<path style="fill:#F26649;" d="M101.329,21.458c1.121,0.331,2.083,0.415,2.002,0.165c-0.081-0.248-1.521-0.994-3.364-1.077
			c-1.404-0.063-4.294,0.5-5.91,0.991c-0.08-0.29-0.279-0.591-0.572-0.818c0.08-0.03,0.164-0.063,0.234-0.086
			c0.961-0.306,3.685-0.535,4.485-0.535c0.801,0,3.044,0.459,2.643-0.077c-0.401-0.534-1.682-0.381-2.723-0.611
			c-0.701-0.154-2.996,0.282-4.936,1.117c1.332-0.735,2.894-1.537,3.815-1.804c1.842-0.535,3.924-0.917,3.685-1.222
			c-0.241-0.305-2.083,0.153-3.524,0.535c-0.878,0.232-2.824,1.372-4.358,2.381c-0.228-0.042-0.474-0.048-0.746,0.026
			c-1.346,0.367-2.595,1.833-2.595,1.833c0.453-0.432,1.494-1.081,2.387-1.211c-0.531,0.376-0.934,0.689-1.097,0.864
			c0,0,0.189-0.115,0.496-0.295c-0.151,0.121-0.293,0.244-0.416,0.372c0,0,0.883-0.489,1.752-0.901
			c0.374,0.123,0.656,0.389,0.875,0.63c-0.208,0.079-0.369,0.153-0.464,0.218c0,0,0.131-0.065,0.524-0.151
			c0.085,0.096,0.163,0.185,0.228,0.251c-0.218,0.022-0.37,0.045-0.432,0.066c0,0,0.205,0.01,0.549,0.028
			c0.049,0.029,0.094,0.039,0.131,0.006c1.108,0.057,3.366,0.177,5.167,0.297c2.483,0.166,3.204,0.994,3.685,0.746
			c0.48-0.249-0.48-0.663-1.842-1.077c-1.112-0.338-5.212-0.235-6.942-0.095c0.004-0.011,0.009-0.012,0.013-0.024
			c0.027-0.09,0.028-0.193,0.015-0.302c0.353-0.055,0.797-0.11,1.387-0.159C97.399,21.382,100.208,21.126,101.329,21.458z"/>
		<path style="fill:#F26649;" d="M76.496,25.013c0.018,0.03,0.041,0.056,0.083,0.065c0.4,0.083,1.842-1.159,4.005-1.575
			c2.163-0.414,4.405-1.077,4.405-1.077c-0.235-0.195-2.101,0.04-3.86,0.35c0.21-0.115,0.335-0.185,0.335-0.185
			c-0.258-0.133-1.22,0.14-2.466,0.613c-0.338,0.079-0.625,0.153-0.818,0.215c-0.37,0.12-0.686,0.303-0.948,0.503
			c-3.245,1.396-7.029,3.373-6.341,3.475c1.122,0.165,2.244-1.326,4.486-1.989C75.719,25.309,76.1,25.17,76.496,25.013z"/>
		<path style="fill:#F26649;" d="M97.243,22.924c0,0,2.002,1.16,3.925,1.657c1.922,0.497,2.563,1.988,3.364,2.817
			c0.801,0.828,0.64-0.332,0-1.492C103.892,24.747,98.525,22.924,97.243,22.924z"/>
		<path style="fill:#F26649;" d="M105.813,24.167c-0.96-0.497-2.402-0.746-2.402-0.746c0.561,0.249,1.682,0.995,2.243,1.493
			c0.561,0.497,0.72,1.491,1.201,0.994S106.774,24.664,105.813,24.167z"/>
		<path style="fill:#F26649;" d="M102.77,29.801c-0.48-0.745-0.721-1.465-1.602-2.237c-0.956-0.835-6.969-3.065-6.168-2.65
			c0.802,0.414,4.166,1.905,5.847,3.313c1.682,1.409,1.682,2.072,2.003,2.32C103.171,30.795,103.25,30.546,102.77,29.801z"/>
		<path style="fill:#F26649;" d="M103.09,32.287c0.081,0.829,0.401,2.237,0.401,3.231c0,0.995,0.079,2.072,0.4,1.74
			c0.32-0.332,0.561-2.32,0.16-3.231C103.651,33.115,103.09,32.287,103.09,32.287z"/>
		<path style="fill:#F26649;" d="M94.896,28.809c0.04,0.016,0.076,0.021,0.104-0.002c0.206-0.159-0.085-0.866-0.53-1.724
			c0.415,0.418,0.835,0.852,1.171,1.227c1.041,1.16,2.723,3.894,3.043,4.226c0.321,0.331,0.321-0.332,0.16-0.995
			c-0.16-0.663-1.602-2.485-2.562-3.562c-0.585-0.656-1.555-1.371-2.352-1.888c-0.097-0.172-0.195-0.345-0.292-0.516
			c-0.801-1.409-3.605-1.988-4.565-2.072c0,0,3.284,1.575,3.925,2.403c0.447,0.579,1.089,1.881,1.545,2.532
			c-0.593-0.618-1.059-1.089-1.225-1.289c0,0,1.12,1.486,2,2.397c0.882,0.912,2.565,3.485,2.645,4.231s1.281,3.065,1.441,2.568
			c0.161-0.497,0.027-1.655-1.201-3.562C97.356,31.467,95.982,29.952,94.896,28.809z"/>
		<path style="fill:#F26649;" d="M98.845,41.235c0.241,0.663,0.321-0.331,0.321-1.325c0-0.995-0.241-2.238-0.241-2.238
			C98.765,38.667,98.605,40.572,98.845,41.235z"/>
		<path style="fill:#F26649;" d="M72.395,23.998c0.589-0.461,1.751-1.136,2.325-1.35c0,0-1.454,0.159-2.442,0.596
			c-0.988,0.437-1.591,1.146-1.14,1.671C71.589,25.442,71.807,24.459,72.395,23.998z"/>
		<path style="fill:#F26649;" d="M74.109,29.393c-0.523,0.714-0.457,0.968-0.123,0.739c0.334-0.228,0.961-1.351,2.722-2.653
			c0.902-0.667,2.246-1.328,3.453-1.864c-0.62,0.879-0.972,1.637-0.379,1.228c0.583-0.401,1.019-1.106,1.503-1.71
			c0.657-0.274,1.188-0.484,1.451-0.6c0.279-0.124-0.313,0.046-1.241,0.355c0.256-0.29,0.529-0.543,0.851-0.696
			c0.436-0.208,1.264-0.459,2.079-0.681c-0.164,0.086-0.309,0.175-0.398,0.267c-0.561,0.581-1.602,1.16-0.96,1.243
			s1.442-0.912,2.082-1.326c0.641-0.414,2.243-0.829,2.243-0.829c-0.105-0.036-0.309-0.036-0.553-0.015
			c-0.178-0.175-0.738-0.688-1.481-1.147c-0.121-0.271-0.24-0.551-0.37-0.845c0.683,0.601,1.522,1.225,1.522,1.225
			s-0.878-1.065-1.967-2.18c-0.312-0.63-0.716-1.354-1.317-2.249c-1.282-1.909-2.964-4.353-3.204-3.971
			c-0.215,0.341,2.186,3.541,3.159,4.928c-0.695-0.6-1.371-1.071-1.878-1.187c-0.342-0.078-0.639-0.154-0.909-0.226
			c-0.753-0.839-1.487-1.603-1.734-1.759c-0.48-0.306-0.4,0-0.24,0.458c0,0,0.57,0.542,1.134,1.081
			c-0.487-0.122-0.734-0.144-0.734,0.064c0,0.261,0.709,0.417,1.464,0.634c0.667,0.644,2.861,3.185,2.861,3.185
			s-0.241-0.534-0.961-1.527c-0.244-0.335-0.675-0.858-1.152-1.41c0.092,0.036,0.186,0.072,0.271,0.112
			c0.854,0.406,2.146,1.353,2.874,2.042c0.477,0.683,0.965,1.36,1.141,1.602c-0.686-0.418-1.51-0.776-2.333-0.742
			c-0.581,0.024-1.192,0.124-1.742,0.254c-2.249-0.667-6.039-1.806-7.469-1.806c-1.441,0-3.685,0.995-3.044,1.16
			c0.642,0.166,2.243-0.828,4.166-0.497c1.783,0.308,5.762,1.042,6.333,1.147c-0.233,0.056-0.454,0.117-0.656,0.18
			c-1.526-0.108-3.044-0.151-3.665-0.002c-0.818,0.194-2.434,0.772-1.764,0.839c0.464,0.046,1.595-0.382,3.583-0.601
			c0.441-0.048,0.911-0.071,1.385-0.078c-0.54,0.208-0.815,0.406-0.57,0.473c0.416,0.113,2.285-0.235,3.582-0.33
			c0.866,0.084,1.458,0.173,1.458,0.173c-0.112-0.046-0.532-0.117-1.117-0.192c0.301-0.011,0.554,0,0.721,0.043
			c0.748,0.194,2.173,0.931,2.594,1.153c-0.206,0.021-0.441,0.061-0.689,0.111c-1.2,0.057-3.713,0.286-4.628,1.118
			c-0.337,0.307-0.71,0.739-1.042,1.175c-1.127,0.4-2.415,0.896-3.329,1.336c0.096-0.065,0.192-0.132,0.286-0.191
			c2.243-1.408,4.084-2.32,4.084-2.32c-0.801-0.083-5.367,2.652-6.888,3.895c-1.521,1.242-3.685,3.148-2.965,3.148
			c0.502,0,2.01-1.602,3.637-3.052C74.807,28.543,74.457,28.918,74.109,29.393z"/>
		<path style="fill:#F26649;" d="M73.147,36.306c0.301,0.351,0.443-0.719,0.5-1.712c0.057-0.992,0.459-2.379,0.586-3.201
			c0,0-0.607,0.793-1.06,1.677C72.722,33.955,72.846,35.955,73.147,36.306z"/>
		<path style="fill:#F26649;" d="M84.063,26.787c-0.513,0.549-3.412,3.261-4.981,5.404c-1.337,1.828-1.537,2.976-1.406,3.483
			c0.131,0.506,1.465-1.735,1.588-2.475c0.123-0.74,1.952-3.204,2.885-4.06C83.082,28.284,84.063,26.787,84.063,26.787z"/>
		<path style="fill:#F26649;" d="M77.71,39.245c-0.057,0.993-0.035,1.99,0.244,1.343c0.278-0.646,0.228-2.559,0.125-3.561
			C78.08,37.027,77.768,38.252,77.71,39.245z"/>
		<path style="fill:#F26649;" d="M82.826,35.353c-0.321,1.574-0.321,3.562,0,3.894c0.32,0.331,0.24-2.652,0.881-4.723
			c0.64-2.071,1.762-6.131,1.762-6.131C85.069,29.387,83.146,33.778,82.826,35.353z"/>
		<path style="fill:#F26649;" d="M88.192,37.176c0.561-0.829,0.24-3.978,0.081-6.463c-0.16-2.486-0.241-2.652-0.241-2.652
			c-0.161,0.829-0.32,1.823-0.24,3.397C87.872,33.033,87.632,38.004,88.192,37.176z"/>
		<path style="fill:#F26649;" d="M92.118,31.292c-0.401-0.912-1.763-3.314-1.763-3.314c0.24,0.414,1.842,4.806,2.163,6.877
			c0.32,2.071,0.32,3.729,0.721,4.226c0.401,0.497,0.401-2.983-0.08-4.558C92.678,32.95,92.518,32.204,92.118,31.292z"/>
		<path style="fill:#F26649;" d="M81.854,44.592c0.161-0.414,0-1.161,0.081-2.154c0.08-0.996,0.48-3.316,0.48-3.316
			c-0.159,0.58-1.201,2.32-1.121,3.48C81.374,43.763,81.694,45.006,81.854,44.592z"/>
		<path style="fill:#F26649;" d="M87.862,43.266c-0.246,1.472,0.139,3.214,0.401,2.9c0.29-0.349,0.32-2.486,0.32-2.983
			c0-0.498-0.48-3.646-0.48-3.646C88.103,40.283,88.073,42.007,87.862,43.266z"/>
		<path style="fill:#F26649;" d="M93.79,38.377c0.079,0.58,0.4,1.409,0.48,2.486c0.08,1.077-0.241,2.652,0.48,2.486
			c0.72-0.166,0.24-2.238-0.08-2.984C94.35,39.621,93.79,38.377,93.79,38.377z"/>
		<path style="fill:#F26649;" d="M91.958,23.255c0,0,2.963,0.912,6.328,1.741c3.364,0.828,4.325,2.237,4.485,1.74
			c0.16-0.497-1.121-0.829-2.163-1.657c-0.522-0.416-2.373-0.935-4.251-1.319c-0.28-0.327-0.662-0.695-1.035-0.976
			c-1.053-0.792-5.301-0.509-6.408,0c0,0,2.803,0,4.485,0.166c0.641,0.063,1.176,0.295,1.625,0.562
			C93.652,23.281,92.442,23.161,91.958,23.255z"/>
		<path style="fill:#F26649;" d="M90.541,34.559c0.079-0.39,0.135-0.953,0.135-1.667c0-1.905-2.243-8.451-2.483-8.949
			c0,0,0.24,1.657,0.721,3.729c0.062,0.264,0.124,0.57,0.187,0.902c0.021,0.655,0.061,1.406,0.134,1.973
			c0.16,1.243,0.8,8.535,1.121,8.617c0.32,0.083,0.561-0.911,0.481-2.32C90.813,36.447,90.7,35.595,90.541,34.559z"/>
		<path style="fill:#F26649;" d="M85.229,25.659c-0.431,0.407-3.365,5.551-3.444,7.125c-0.08,1.574,0.72-0.415,0.8-0.912
			c0,0,0.481-0.994,1.362-2.9C84.828,27.067,85.99,24.938,85.229,25.659z"/>
		<path style="fill:#F26649;" d="M88.673,24.25c0,0,0.866,1.877,1.442,2.983c0.561,1.077,2.964,4.806,3.044,5.469
			c0.08,0.663,0.32-0.166,0-1.657C92.838,29.552,89.474,24.581,88.673,24.25z"/>
		<path style="fill:#F26649;" d="M86.03,29.221c-0.294,0.865-0.227,2.257-0.112,3.359c-0.362,2.538-1.195,6.879-0.769,7.247
			c0.481,0.414,0.561-0.664,0.561-1.989c0-0.611,0.154-2.281,0.367-3.984c0.014,0.096,0.027,0.194,0.035,0.255
			c0.079,0.663,0.32-0.083,0.32-1.243c0-0.405,0.099-1.472,0.243-2.729c0.083-0.352,0.163-0.623,0.237-0.751
			c0,0-0.066,0.017-0.16,0.096c0.256-2.114,0.609-4.512,0.846-5.284C87.41,24.819,86.462,27.954,86.03,29.221z"/>
		<path style="fill:#F26649;" d="M87.597,24.199c0.021-0.069,0.035-0.116,0.035-0.116C87.621,24.113,87.608,24.162,87.597,24.199z"
			/>
		<path style="fill:#F26649;" d="M80.343,28.393c0.241,0.248,1.282-0.249,1.842-1.16c0.777-1.262,4.487-3.288,5.465-3.663
			c-0.692,0.211-2.853,0.894-3.624,1.426C83.248,25.534,80.103,28.144,80.343,28.393z"/>
		<path style="fill:#F26649;" d="M87.872,23.503c-0.036,0-0.118,0.027-0.221,0.066C87.787,23.528,87.872,23.503,87.872,23.503z"/>
		<path style="fill:#F26649;" d="M78.581,30.878c-0.945,1.165-3.043,4.309-3.363,4.972c-0.321,0.663,0,0.58,0.561,0.165
			c0,0,0.961-1.905,1.521-2.982c0.561-1.077,3.124-3.977,3.124-3.977S79.502,29.744,78.581,30.878z"/>
		<path style="fill:#F26649;" d="M94.912,32.334c-0.233-0.842-0.462-1.548-0.632-1.87C94.28,30.464,94.589,31.384,94.912,32.334z"/>
		<path style="fill:#F26649;" d="M94.912,32.334c0.427,1.542,0.866,3.545,0.97,4.51c0.16,1.491-0.08,2.817,0.401,2.238
			c0.48-0.58-0.561-4.392-0.961-5.552C95.199,33.175,95.054,32.752,94.912,32.334z"/>
		<path style="fill:#F26649;" d="M84.828,46.232c-0.32,1.325,0,3.314,0.32,4.474c0.321,1.16,0.16,3.812,0.801,2.983
			c0.641-0.829-0.161-2.983-0.641-4.475C84.828,47.724,84.828,46.232,84.828,46.232z"/>
		<path style="fill:#F26649;" d="M92.677,52.033c-0.32,0.828-1.281,3.148-0.48,3.314c0.801,0.166,0.962-3.148,0.962-4.474
			c0-1.326-0.321-2.817-0.321-2.817C92.998,49.05,92.998,51.204,92.677,52.033z"/>
		<path style="fill:#F26649;" d="M81.304,26.098c-0.56,0.331-2.082,1.822-3.043,2.568c-0.961,0.746-2.482,2.651-3.043,3.812
			c-0.561,1.159-1.202,2.485-0.641,2.402c0.561-0.083,1.361-2.236,1.922-3.397C77.059,30.324,81.304,26.098,81.304,26.098z"/>
		<path style="fill:#F26649;" d="M95.882,34.053c0.32-0.332-0.721-3.563-2.003-5.221c-1.281-1.657-2.562-2.32-2.562-2.32
			c0.4,0.331,2.643,2.983,3.524,4.723C95.722,32.975,95.561,34.384,95.882,34.053z"/>
		<path style="fill:#F26649;" d="M87.383,18.167c0.052,0.147,0.089,0.251,0.089,0.251C87.451,18.348,87.42,18.262,87.383,18.167z"/>
		<path style="fill:#F26649;" d="M78.821,11.774c-0.88,0.229-0.24,0.535,1.042,1.298c1.281,0.764,4.325,4.887,4.805,5.499
			c0,0-1.281-2.138-1.922-3.36C82.105,13.989,79.702,11.545,78.821,11.774z"/>
		<path style="fill:#F26649;" d="M80.983,19.945c-0.8-0.305-4.325-2.291-5.687-2.52c-1.362-0.229-3.284-0.458-3.044-0.076
			c0.241,0.382,2.163,0.153,3.765,0.688C77.62,18.571,80.983,19.945,80.983,19.945z"/>
		<path style="fill:#F26649;" d="M86.11,10.781c0,0,0.027-1.544-0.212-2.46c-0.241-0.917-0.189-1.434-0.669-1.893
			c-0.48-0.458-0.32,0.077-0.16,0.612C85.229,7.575,85.87,9.102,86.11,10.781z"/>
		<path style="fill:#F26649;" d="M88.593,6.963c0.08-0.381,0.32-1.68-0.161-1.68c-0.48,0-0.4,3.054-0.4,3.589
			C88.032,8.872,88.513,7.345,88.593,6.963z"/>
		<path style="fill:#F26649;" d="M92.598,7.116c-0.321-0.153-1.122,2.215-1.282,2.826c0,0,0.241-0.229,0.721-0.917
			C92.518,8.337,92.918,7.269,92.598,7.116z"/>
		<path style="fill:#F26649;" d="M97.003,8.491c0.161-0.458-0.401-0.077-1.201,0.076c-0.556,0.106-2.356,2.415-2.804,3.055
			c0,0,1.602-1.451,2.402-2.062C96.202,8.949,96.843,8.949,97.003,8.491z"/>
		<path style="fill:#F26649;" d="M87.792,19.792c0,0,0.24-1.145,0.321-2.75c0.08-1.603-0.081-5.421-0.161-5.956
			c-0.081-0.534-0.4,0.611-0.24,2.062C87.872,14.6,87.792,18.494,87.792,19.792z"/>
		<path style="fill:#F26649;" d="M81.785,10.323c0.48,0.764,1.121,2.062,1.121,2.062c-0.16-0.916-0.56-2.597-1.201-3.131
			c-0.641-0.534-1.521-1.069-1.362-0.687C80.503,8.949,81.304,9.56,81.785,10.323z"/>
		<path style="fill:#F26649;" d="M84.668,16.89c0.046,0.147,0.117,0.397,0.2,0.704c-0.339-0.173-0.264-0.163-0.119,0.595
			c0.039,0.206,0.244,0.551,0.527,0.96c0.268,1.038,0.514,2.019,0.514,2.019s-0.097-0.468-0.289-1.705
			c0.335,0.459,0.735,0.971,1.108,1.452c0.037,0.479,0.062,0.786,0.062,0.786s0.014-0.278,0.031-0.666
			c0.592,0.767,1.09,1.438,1.09,1.659c0,0-0.16-0.993-0.32-1.527c-0.002-0.006-0.006-0.016-0.009-0.022
			c-0.036-0.399-0.184-1.963-0.392-2.957c-0.044-0.21-0.137-0.514-0.262-0.867c0.139,0.136,0.263,0.264,0.377,0.384
			c0.077,0.171,0.146,0.329,0.196,0.461c-0.038-0.107-0.085-0.242-0.145-0.407c0.231,0.245,0.394,0.428,0.394,0.428
			c-0.118-0.616-0.452-1.475-0.937-1.921c-0.006-0.015-0.011-0.03-0.017-0.045c-0.062-1.825-0.154-3.832-0.247-4.142
			c-0.161-0.535-0.32,0-0.32,0.458c0,0,0.135,1.372,0.156,2.606c-0.053-0.134-0.106-0.27-0.156-0.392
			c-0.561-1.374-2.083-3.589-2.723-3.665c-0.641-0.077-0.081,0.611,0.72,1.375c0.143,0.136,0.333,0.384,0.55,0.698
			c-0.369,0.054,0.656,1.769,1.184,2.804c-0.646,0.004-1.017,0.249-0.451,0.316c0.2,0.024,0.497,0.228,0.807,0.485
			c0.046,0.118,0.097,0.257,0.148,0.396c0.045,0.75,0.104,1.599,0.16,2.361c-0.433-0.641-0.914-1.29-1.241-1.634
			c-0.291-1.854-0.451-1.371-0.755-2.678c-0.321-1.375-1.362-2.749-1.522-2.368c-0.16,0.382,0.801,1.527,1.041,2.139
			C84.027,14.981,84.428,16.127,84.668,16.89z M86.281,15.895c0.001,0.027,0.001,0.054,0.003,0.083
			c-0.053-0.125-0.106-0.249-0.161-0.373C86.176,15.702,86.229,15.798,86.281,15.895z M86.737,18.299
			c0.335,1.029,0.647,2.152,0.719,2.828c-0.081-0.221-0.362-0.705-0.715-1.248c0.006-0.243,0.01-0.483,0.01-0.698
			C86.75,19.01,86.746,18.695,86.737,18.299z"/>
		<path style="fill:#F26649;" d="M78.501,9.985l1.922,1.375c0.88,0.917,1.762,1.527,1.762,1.527
			c-0.64-1.222-2.403-3.207-3.123-3.284C78.341,9.527,78.021,9.755,78.501,9.985z"/>
		<path style="fill:#F26649;" d="M75.857,11.637c0.641,0,1.281,0.153,1.843,0.306c0,0-0.481-0.535-0.722-0.611
			c-0.24-0.077-0.96-0.306-1.521-0.306C74.896,11.026,75.217,11.637,75.857,11.637z"/>
		<path style="fill:#F26649;" d="M75.537,13.836c0.802,0.305,1.922,1.146,1.922,1.146c-0.481-0.993-1.762-2.139-2.563-2.062
			c-0.801,0.077-1.442-0.229-1.122,0.229C74.096,13.607,74.736,13.531,75.537,13.836z"/>
		<path style="fill:#F26649;" d="M99.887,10.158c0.572-0.356,1.901-0.641,1.05-0.772c-0.853-0.131-2.414,0.907-3.143,1.298
			c-0.729,0.392-1.222,1.435-1.222,1.435C97.127,11.688,99.314,10.515,99.887,10.158z"/>
		<path style="fill:#F26649;" d="M96.602,14.065c0,0,1.042-0.535,3.124-1.069c2.083-0.535,2.243-0.458,2.323-0.764
			c0.081-0.305-0.641-0.305-1.522-0.076C99.647,12.385,96.924,13.531,96.602,14.065z"/>
		<path style="fill:#F26649;" d="M104.933,18.342c0.961,0.458,1.602,1.068,1.842,0.61c0.241-0.458-2.402-1.68-3.283-1.68
			c-0.882,0-1.442,0.229-1.442,0.229C102.77,17.501,103.972,17.883,104.933,18.342z"/>
		<path style="fill:#F26649;" d="M89.234,14.065c0.08-0.84,1.041-5.117,1.121-5.957c0.081-0.84-0.24,0-0.561,0.993
			c-0.32,0.992-1.041,6.873-1.041,8.4l0.08-0.229C88.833,17.272,89.154,14.905,89.234,14.065z"/>
		<path style="fill:#F26649;" d="M94.92,18.418c0,0,3.124-2.062,4.005-2.521c0.881-0.458,1.682-0.84,3.043-1.298
			c1.362-0.459-0.48-0.382-1.682,0.076C99.086,15.134,95.642,17.73,94.92,18.418z"/>
		<path style="fill:#F26649;" d="M88.032,20.709c0,0,0.241-0.765,0.721-1.681c0.145-0.276,0.298-0.522,0.453-0.751
			c-0.045,0.148-0.089,0.276-0.133,0.37c0,0,0.065-0.162,0.169-0.419c0.123-0.177,0.247-0.337,0.371-0.477
			c-0.594,1.348-1.1,2.689-1.181,3.187c0,0,0.992-2.128,1.704-3.647c0.046-0.029,0.094-0.073,0.139-0.095
			c0.413-0.197,0.702-0.394,0.114-0.445c0.157-0.335,0.287-0.61,0.367-0.777c0.276-0.581,1.362-1.275,1.949-1.746
			c-0.905,1.384-2.693,5.249-3.31,6.099c0,0,0.561-0.683,0.72-0.835c0.161-0.153,1.843-3.671,2.563-4.435
			c0.721-0.764,2.243-2.443,2.003-2.672c-0.24-0.229-0.961,0.917-1.602,1.374c-0.481-0.687-1.202,0.077-1.763,0.764
			c-0.321,0.394-0.781,1.248-1.241,2.216c-0.016,0-0.025-0.001-0.042-0.001c-0.071,0-0.141,0.018-0.211,0.046
			c0.339-0.844,0.712-1.775,0.933-2.337c0.48-1.222,1.602-3.208,1.762-3.589c0.16-0.383-0.721,0.381-1.762,2.596
			c-0.588,1.249-0.942,2.512-1.2,3.509C88.717,17.707,88.032,20.128,88.032,20.709z"/>
		<path style="fill:#F26649;" d="M97.684,37.781c0.08-2.154,0-2.983-0.4-3.811c-0.4-0.829-0.961-1.741-0.961-1.741
			c0.481,1.326,1.281,3.48,1.042,5.137c-0.24,1.657-0.08,3.895,0.32,3.895S97.604,39.935,97.684,37.781z"/>
		<path style="fill:#F26649;" d="M80.704,37.284c-0.641,2.734-0.161,3.977-0.161,4.641c0,0.663,0.4-0.498,0.4-1.824
			c0-1.326,0.481-4.971,0.961-5.8C81.905,34.3,81.344,34.549,80.704,37.284z"/>
		<path style="fill:#F26649;" d="M90.595,21.126c0.504-0.173,0.687-0.464,0.509-0.57c0.215-0.195,0.458-0.415,0.723-0.653
			c0.919-0.368,2.345-0.528,2.853-0.875c0.561-0.381-0.08-0.458-1.522-0.153c-0.078,0.017-0.163,0.042-0.25,0.071
			c0.309-0.268,0.596-0.512,0.81-0.682c0.961-0.763,1.829-1.612,2.243-2.137c0.721-0.917,2.083-1.375,1.762-1.909
			c-0.32-0.535-0.88,0.305-1.842,1.222c-0.071,0.068-0.186,0.182-0.33,0.327c-0.038-0.319-1.018-0.272-2.154,0.666
			c-0.795,0.657-2.213,2.691-3.152,4.107c-0.919,0.713-1.653,1.437-1.653,1.696c0,0,0.121-0.102,0.306-0.254
			c-0.383,0.646-0.387,1.05-0.387,1.05C88.593,22.618,89.875,21.375,90.595,21.126z M90.761,20.534
			c0.229-0.164,0.436-0.298,0.618-0.407c-0.129,0.139-0.252,0.272-0.367,0.398C90.949,20.514,90.865,20.517,90.761,20.534z
			 M91.477,19.334c0.72-0.916,2.018-2,2.323-2.292c0.289-0.274,0.834-0.521,1.243-0.758c-0.763,0.781-1.87,1.933-2.852,2.975
			c-0.416,0.217-0.868,0.502-1.307,0.811C91.099,19.807,91.306,19.551,91.477,19.334z"/>
	</g>
	<path style="fill:#71D0F6;" d="M235.297,4.299l-2.742,32.103c-11.218,0-20.295-4.585-20.295-10.252L235.297,4.299z"/>
	<path style="fill:none;stroke:#EF6C5F;stroke-width:1.4;stroke-linecap:round;stroke-linejoin:round;" d="M232.555,36.402
		c-11.218,0-20.295-4.585-20.295-10.252"/>
	<circle style="fill:#EF6C5F;" cx="235.297" cy="4.299" r="2.608"/>
	<path style="fill:#71D0F6;" d="M191.501,14.271l2.915,34.132c11.928,0,21.578-4.875,21.578-10.9L191.501,14.271z"/>
	<path style="fill:none;stroke:#EF6C5F;stroke-width:1.4;stroke-linecap:round;stroke-linejoin:round;" d="M194.416,48.403
		c11.928,0,21.578-4.875,21.578-10.9"/>
	<path style="fill:none;stroke:#F04E2C;stroke-width:0.7;" d="M196.763,50.75"/>
	<path style="fill:none;stroke:#F04E2C;stroke-width:0.7;" d="M218.34,39.849"/>
	<circle style="fill:#EF6C5F;" cx="191.501" cy="14.271" r="2.773"/>
	<path style="fill:#FFFFFF;stroke:#868881;stroke-width:1.4;stroke-linecap:round;stroke-linejoin:round;" d="M198.224,99.039
		c-4.891-2.812-7.755-9.243-9.786-15.121c3.085,3.764,4.794,4.595,5.321,6.043c-0.284-1.015-2.312-7.9-2.427-8.867
		c0.966,0.713,4.365,6.931,4.66,8.188c-0.23-1.306-1.951-6.795-1.536-8.021c0.884,1.108,5.274,15.958,6.031,3.452
		c1.155,7.033-0.565,13.138-1.703,14.431"/>
	<path style="fill:#FFFFFF;stroke:#868881;stroke-width:0.7;stroke-linecap:round;stroke-linejoin:round;" d="M116.504,123.715
		c0,3.287-2.665,5.953-5.953,5.953H37.057c-3.288,0-5.953-2.666-5.953-5.953V91.521c0-3.288,2.665-5.953,5.953-5.953h73.494
		c3.288,0,5.953,2.665,5.953,5.953V123.715z"/>
	<g>
		<path style="fill:#FFFFFF;stroke:#868881;stroke-width:0.7;stroke-linecap:round;stroke-linejoin:round;" d="M42.144,113.032
			c0.699,0.42,2.294,1.12,4.03,1.12c3.134,0,4.142-1.987,4.114-3.526c-0.028-2.547-2.323-3.638-4.702-3.638h-1.371v-1.848h1.371
			c1.791,0,4.058-0.923,4.058-3.078c0-1.455-0.923-2.742-3.19-2.742c-1.456,0-2.854,0.644-3.638,1.203l-0.671-1.791
			c0.979-0.699,2.826-1.399,4.785-1.399c3.582,0,5.205,2.127,5.205,4.338c0,1.903-1.147,3.498-3.358,4.31v0.056
			c2.239,0.42,4.058,2.1,4.058,4.646c0,2.91-2.295,5.457-6.632,5.457c-2.043,0-3.834-0.644-4.729-1.231L42.144,113.032z"/>
		<path style="fill:#FFFFFF;stroke:#868881;stroke-width:0.7;stroke-linecap:round;stroke-linejoin:round;" d="M61.256,99.936H61.2
			l-3.162,1.707l-0.476-1.875l3.974-2.127h2.099v18.19h-2.378V99.936z"/>
		<path style="fill:#FFFFFF;stroke:#868881;stroke-width:0.7;stroke-linecap:round;stroke-linejoin:round;" d="M68.979,116.95
			l7.78-20.289h1.931l-7.835,20.289H68.979z"/>
		<path style="fill:#FFFFFF;stroke:#868881;stroke-width:0.7;stroke-linecap:round;stroke-linejoin:round;" d="M85.209,99.936
			h-0.056l-3.162,1.707l-0.476-1.875l3.974-2.127h2.099v18.19h-2.378V99.936z"/>
		<path style="fill:#FFFFFF;stroke:#868881;stroke-width:0.7;stroke-linecap:round;stroke-linejoin:round;" d="M94.219,115.831
			v-1.511l1.931-1.875c4.645-4.422,6.772-6.772,6.772-9.516c0-1.847-0.867-3.554-3.582-3.554c-1.651,0-3.022,0.84-3.862,1.539
			l-0.784-1.734c1.231-1.036,3.05-1.848,5.149-1.848c3.89,0,5.541,2.687,5.541,5.289c0,3.358-2.435,6.073-6.269,9.767l-1.427,1.344
			v0.056h8.144v2.043H94.219z"/>
	</g>
	<path style="fill:#FFFFFF;stroke:#868881;stroke-width:0.7;stroke-linecap:round;stroke-linejoin:round;" d="M352.45,123.715
		c0,3.287-2.665,5.953-5.953,5.953h-73.494c-3.288,0-5.953-2.666-5.953-5.953V91.521c0-3.288,2.665-5.953,5.953-5.953h73.494
		c3.288,0,5.953,2.665,5.953,5.953V123.715z"/>
	<g>
		<path style="fill:#FFFFFF;stroke:#868881;stroke-width:0.7;stroke-linecap:round;stroke-linejoin:round;" d="M283.294,116.139
			c-3.554,0-5.988-3.33-6.044-9.347c0-6.129,2.658-9.459,6.353-9.459c3.806,0,6.017,3.414,6.017,9.207
			c0,6.185-2.323,9.599-6.297,9.599H283.294z M283.406,114.236c2.49,0,3.694-2.938,3.694-7.584c0-4.478-1.12-7.416-3.694-7.416
			c-2.238,0-3.694,2.854-3.694,7.416c-0.056,4.729,1.399,7.584,3.666,7.584H283.406z"/>
		<path style="fill:#FFFFFF;stroke:#868881;stroke-width:0.7;stroke-linecap:round;stroke-linejoin:round;" d="M297.201,99.936
			h-0.056l-3.163,1.707l-0.476-1.875l3.974-2.127h2.1v18.19h-2.379V99.936z"/>
		<path style="fill:#FFFFFF;stroke:#868881;stroke-width:0.7;stroke-linecap:round;stroke-linejoin:round;" d="M304.923,116.95
			l7.78-20.289h1.931l-7.836,20.289H304.923z"/>
		<path style="fill:#FFFFFF;stroke:#868881;stroke-width:0.7;stroke-linecap:round;stroke-linejoin:round;" d="M321.601,116.139
			c-3.554,0-5.988-3.33-6.044-9.347c0-6.129,2.658-9.459,6.353-9.459c3.806,0,6.017,3.414,6.017,9.207
			c0,6.185-2.323,9.599-6.297,9.599H321.601z M321.713,114.236c2.49,0,3.694-2.938,3.694-7.584c0-4.478-1.12-7.416-3.694-7.416
			c-2.238,0-3.694,2.854-3.694,7.416c-0.056,4.729,1.399,7.584,3.666,7.584H321.713z"/>
		<path style="fill:#FFFFFF;stroke:#868881;stroke-width:0.7;stroke-linecap:round;stroke-linejoin:round;" d="M335.508,99.936
			h-0.056l-3.163,1.707l-0.476-1.875l3.974-2.127h2.1v18.19h-2.379V99.936z"/>
	</g>
	<circle style="fill:#F5EE76;" cx="195.672" cy="22.28" r="1.256"/>
	<circle style="fill:#F5EE76;" cx="195.763" cy="33.169" r="1.347"/>
	<circle style="fill:#F5EE76;" cx="204.084" cy="36.578" r="1.121"/>
	<circle style="fill:#F5EE76;" cx="198.778" cy="42.22" r="2.015"/>
	<circle style="fill:#F5EE76;" cx="200.926" cy="29.076" r="0.76"/>
	<circle style="fill:#F5EE76;" cx="209.408" cy="38.483" r="0.875"/>
	<circle style="fill:#F5EE76;" cx="232.253" cy="12.322" r="1.364"/>
	<circle style="fill:#F5EE76;" cx="223.795" cy="23.186" r="1.454"/>
	<circle style="fill:#F5EE76;" cx="223.138" cy="30.598" r="0.797"/>
	<circle style="fill:#F5EE76;" cx="230.166" cy="25.219" r="1.832"/>
	<circle style="fill:#F5EE76;" cx="217.989" cy="27.71" r="1.23"/>
</g>
</svg>
