<?xml version="1.0" encoding="iso-8859-1"?>
<!-- Generator: Adobe Illustrator 13.0.0, SVG Export Plug-In . SVG Version: 6.00 Build 14948)  -->
<!DOCTYPE svg PUBLIC "-//W3C//DTD SVG 1.1//EN" "http://www.w3.org/Graphics/SVG/1.1/DTD/svg11.dtd">
<svg version="1.1" xmlns="http://www.w3.org/2000/svg" xmlns:xlink="http://www.w3.org/1999/xlink" x="0px" y="0px" width="540px"
	 height="200px" viewBox="0 0 540 200" style="enable-background:new 0 0 540 200;" xml:space="preserve">
<g id="Layer_2">
	<g>
		<rect style="fill:none;" width="540" height="200"/>
		<rect style="fill:#FFFFFF;" width="540" height="200"/>
	</g>
</g>
<g id="Layer_5">
	<g>
		<path style="fill:#C7C7C7;stroke:#055587;stroke-width:0.626;stroke-linecap:round;stroke-linejoin:round;" d="M229.922,123.947
			c-9.623-1.27-16.716-4.657-19.63-10.74c47.683-42.771,114.973-61.622,185.03-44.238c14.664,3.642,27.963,5.328,43.223,1.566
			c16.68-4.109,26.488-13.886,40.061-22.467c-6.348,7.162-17.594,24.623-16.156,29.451c0.928,3.13,19.615,4.092,25.988,6.823
			c6.646,2.854,13.148,2.537,19.441,5.295c-26.102,1.936-43.6-1.258-65.08,6.812c-8.992,3.375-29.893,21.885-44.961,29.834
			c-28.252,14.898-60.896,22.7-92.541,25.123c-16.439,1.261-31.178-1.3-46.106-5.895c-11.195-3.444-21.017-7.589-30.745-12.304
			c-7.141-3.459-22.344-13.244-16.749-16.527C216.259,119.616,224.8,123.007,229.922,123.947"/>
		<path style="fill:#896477;stroke:#055587;stroke-width:1.8773;stroke-linecap:round;stroke-linejoin:round;" d="M250.544,101.978
			c-2.685-1.887-6.488-3.15-8.372,2.037c-0.581,6.191,10.465,3.606,7.188-2.776"/>
		<path style="fill:none;stroke:#055587;stroke-width:1.2513;stroke-linecap:round;stroke-linejoin:round;" d="M248.909,142.022
			c26.435-27.339,4.759-37.813,3.513-38.496c-0.503-0.485-1.149-1.036-1.877-1.549"/>
		<path style="fill:#C7C7C7;stroke:#055587;stroke-width:0.626;stroke-linecap:round;stroke-linejoin:round;" d="M428.316,74.016
			c-0.596,0.539-1.135,1.042-1.51,1.687c1.492-2.13,5.766-1.731,6.916,0.719c1.615,3.42-3.246,6.164-5.305,7.59
			c1.848,0.093,6-2.289,7.844-0.959c3.582,2.573-3.152,8.156-5.199,9.288c2.754-3.693,8.959-2.765,6.078,2.923
			c-1.18,2.343-3.646,4.909-5.996,5.766"/>
		<path style="fill:#C7C7C7;stroke:#055587;stroke-width:0.6113;stroke-linecap:round;stroke-linejoin:round;" d="M422.209,74.097
			c8.41-2.678,10.93,4.405,2.633,6.274c7.184-3.507,8.832,7.814-0.461,8.545c10.848-7.083,12.076,7.985,4.586,7.341
			c7.721-4.016,7.256,9.387-1.205,8.159"/>
		<path style="fill:#C7C7C7;stroke:#055587;stroke-width:0.5861;stroke-linecap:round;stroke-linejoin:round;" d="M415.141,72.422
			c6.033,0.233,7.51-1.775,11.58,5.257c2.455,4.244-3.256,4.268-5.727,6.967c10.729-2.873,7.66,12.064,0.098,10.633
			c7.529-1.944,10.604,7.227,2.828,7.967c1.314-1.178,3.387-1.066,4.502,0.275c2.545,3.049-2.381,4.247-5.154,4.966"/>
		<path style="fill:#C7C7C7;stroke:#055587;stroke-width:0.6113;stroke-linecap:round;stroke-linejoin:round;" d="M407.725,73.183
			c2.508-0.548,13.107-0.194,13.682,2.447c1.621,7.526-9.625,6.85-13.088,7.8c3.943,0.859,12.869-4.344,14.428,0.889
			c2.449,8.228-6.188,10.02-10.484,10.983c3.373,0.898,9.014-3.259,11.576-0.245c3.709,4.343-4.055,8.581-7.508,9.512
			c2.604-1.38,7.09-0.706,6.811,3.112c-0.219,2.821-5.508,5.209-7.707,5.799c-0.225-0.378-0.232-0.731-0.398-1.123"/>
		<path style="fill:#C7C7C7;stroke:#055587;stroke-width:0.6113;stroke-linecap:round;stroke-linejoin:round;" d="M397.799,70.916
			c2.412-1.588,13.691,1.701,14.934,5.879c0.852,2.869,1.662,3.064-7.379,7.661c3.756-0.041,10.213-3.785,10,3.017
			c-0.176,5.389-7.67,6.679-12.279,7.967c3.686,1.393,12.256-5.034,13.637-0.39c1.797,6.036-4.85,10.441-8.783,11.13
			c4.432,0.324,9.156-4.444,9.043,3.522c-0.057,3.993-6.82,11.07-9.557,6.661"/>
		<path style="fill:#C7C7C7;stroke:#055587;stroke-width:0.6113;stroke-linecap:round;stroke-linejoin:round;" d="M387.178,68.854
			c-0.199-0.374-0.295-0.767-0.283-1.186c3.189-1.468,10.684,2.303,12.975,4.676c6.775,7.023-1.725,11.103-7.291,12.738
			c3.625-0.345,9.418-3.148,11.502,0.973c3.256,6.445-6.271,10.729-10.852,11.804c2.359-1.467,11.451-2.723,13.371,0.013
			c3.312,4.714-4.963,9.188-8.848,10.033c3.09,0.228,9.398-2.288,10.225,1.723c0.775,3.737-5.238,9.054-8.691,7.91
			c2.184,0.533,7.648-2.615,9.117-0.591c2.158,2.969-5.658,5.667-5.834,6.518"/>
		<path style="fill:#C7C7C7;stroke:#055587;stroke-width:0.6113;stroke-linecap:round;stroke-linejoin:round;" d="M386.453,127.389
			c9.498,1.27,15.797-1.62,15.695-7.206c-1.252-8.404-7.818-7.045-12.543-4.592c3.98-2.36,13.139-2.187,10.377-11.475
			c-2.461-8.257-12.402-3.387-15.861-2.959c3.025-1.552,13.301-4.16,11.438-10.426c-2.621-8.803-10.684-6.068-14.371-4.858
			c3.439-0.835,10.734-5.567,11.615-8.787c-1.461-4.903-11.33-3.238-14.607-4.247c1.791-0.482,8.926,0.619,9.795-0.962
			c1.936-3.531-6.904-7.949-8.285-5.148"/>
		<path style="fill:#C7C7C7;stroke:#055587;stroke-width:0.6113;stroke-linecap:round;stroke-linejoin:round;" d="M371.277,66.624
			c3.348-5.512,21.094,8.551,3.934,11.444c4.396-0.684,9.713-1.432,10.457,4.729c0.541,4.442-3.779,7.449-7.873,8.524
			c3.516,1.013,9.225-1.09,10.105,4.738c0.764,5.05-7.111,12.182-11.965,10.498c3.465,1.692,13.133,0.604,13.393,6.056
			c0.172,3.499-4.469,4.925-7.295,5.631c5.24-0.09,10.033-1.281,9.395,5.493c-0.57,6.135-5.309,6.862-10.016,9.078"/>
		<path style="fill:#C7C7C7;stroke:#055587;stroke-width:0.6113;stroke-linecap:round;stroke-linejoin:round;" d="M362.094,65.009
			c8.236-4.576,18.664,11.918,2.924,15.222c12.17-1.507,18.297,10.552,3.816,14.619c3.555,1.884,7.604,0.623,8.77,6.026
			c1.516,7.041-3.428,6.032-7.709,8.806c4.695,0.749,10.215,0.551,12.066,5.972c1.863,5.476-2.186,9.36-7.225,9.231
			c3.176-1.468,10.178,0.306,9.564,5.176c-0.475,3.734-8.693,4.48-11.682,5.373"/>
		<path style="fill:#C7C7C7;stroke:#055587;stroke-width:0.6113;stroke-linecap:round;stroke-linejoin:round;" d="M362.008,140.157
			c2.672,0.186,10.422-3.777,11.23-5.847c1.721-4.412-6.947-6.736-10.781-5.355c2.949,1.519,10.818-2.288,11.238-5.682
			c0.748-6.113-6.164-7.341-10.35-7.748c4.48-0.075,10.902-1.731,9.381-7.641c-1.658-6.458-11.52-7.335-16.463-7.354
			c5.148-0.743,18.002-0.584,14.598-9.069c-1.6-3.995-7.33-6.616-11.238-4.828c4.088-1.642,9.078-0.59,9.633-6.649
			c0.631-7.044-6.215-9.884-11.729-8.838c2.488-0.656,7.801-0.387,5.818-4.706c-1.393-3.021-11.061-3.812-11.686-1.374"/>
		<path style="fill:#C7C7C7;stroke:#055587;stroke-width:0.6113;stroke-linecap:round;stroke-linejoin:round;" d="M343.797,63.494
			c3.969-0.926,8.473-1.153,10.986,2.726c4.133,6.395-4.373,13.759-10.621,12.234c5.877-0.961,14.697-6.347,15.266,4.205
			c0.324,6.054-6.34,8.923-10.842,8.443c4.688,0.27,11.262-0.146,10.535,6.68c-0.453,4.244-5.92,7.784-9.857,8.476
			c3.354-0.674,9.252,0.359,10.605,3.896c2.045,5.355-5.006,8.743-9.617,9.737c4.65-1.384,8.916-2.812,13.414-1.617
			c0.773,6.574-3.488,15.536-11.055,15.344c4.771,0.516,10.482,1.123,6.887,7.455c0,0-6.285,2.621-9.869,1.926"/>
		<path style="fill:#C7C7C7;stroke:#055587;stroke-width:0.6113;stroke-linecap:round;stroke-linejoin:round;" d="M340.354,145.47
			c4.34-0.035,9.805-1.455,10.775-6.586c0.885-4.634-7.176-8.194-9.674-5.49c4.619-2.055,13.568-3.391,12.619-10.647
			c-0.633-4.855-6.191-6.296-10.279-6.176c9.871-1.356,9.193-15.212-1.93-13.774c4.732-1.417,8.533-2.181,8.848-7.77
			c0.32-5.69-3.598-7.374-8.809-6.619c9.684-2.612,8.857-20.732-3.445-16.455c2.182-1.432,9.033-0.192,7.121-5.532
			c-1.111-3.094-7.365-4.115-9.574-2.782"/>
		<path style="fill:#C7C7C7;stroke:#055587;stroke-width:0.6113;stroke-linecap:round;stroke-linejoin:round;" d="M327.012,64.138
			c2.762-2.243,8.746-0.728,10.094,1.737c2.701,4.941-2.012,9.758-6.469,11.114c3.773-1.719,7.578-0.515,9.045,3.421
			c2.172,5.808-3.031,7.515-7.697,9.309c3.273,1.689,8.625-1.851,10.893,2.771c2.561,5.232-5.348,9.069-8.107,11.547
			c2.836,0.422,7.227-0.807,7.691,3.036c0.506,4.179-7.822,11.711-10.854,11.367c2.932,0.835,7.002-0.677,8.764,2.219
			c2.018,3.319-2.348,9.821-5.77,10.834c2.457,0.803,6.67-0.794,8.07,2.519c2.967,7.065-9.453,11.456-11.873,13.005"/>
		<path style="fill:#C7C7C7;stroke:#055587;stroke-width:0.6113;stroke-linecap:round;stroke-linejoin:round;" d="M319.98,148.87
			c13.564,3.178,14.389-14.129,3.16-13.015c11.055,4.325,11.869-18.171-0.199-13.948c5.051-0.626,8.049-0.826,9.277-6.613
			c0.855-4.034-0.064-11.552-5.5-11.42c3.469,3.447,8.527-1.86,8.186-5.928c-0.395-4.69-4.9-9.174-9.545-8.048
			c2.627-2.094,6.031-4.085,5.711-7.817c-0.418-4.867-4.631-5.394-8.322-4.944c14.631-2.669,3.207-18.399-3.406-12.454"/>
		<path style="fill:#C7C7C7;stroke:#055587;stroke-width:0.6113;stroke-linecap:round;stroke-linejoin:round;" d="M306.133,149.502
			c5.305,1.611,13.875,1.704,15.342-4.939c0.971-4.396-4.514-15.099-9.326-10.276c2.287,0.183,9.182-2.794,10.697-4.921
			c2.883-4.025-0.814-12.531-6.115-9.914c3.553-2.019,8.709-2.764,9.779-7.389c1.012-4.412-2.963-9.917-7.678-8.932
			c3.385-1.228,8.387-3.192,8.553-7.229c0.191-4.745-4.572-10.13-9.445-8.603c4.225-0.865,9.283-5.182,7.256-10.085
			c-1.896-4.585-8.381-4.019-11.383-4.357c2.912-0.89,8.537-2.324,5.434-6.742c-1.723-2.453-5.637-1.33-7.736,0.027"/>
		<path style="fill:#C7C7C7;stroke:#055587;stroke-width:0.6113;stroke-linecap:round;stroke-linejoin:round;" d="M297.439,146.063
			c3,10.42,12.615,4.259,13.055-1.178c0.352-4.372-5.203-7.784-8.9-6.934c3.557,0.138,10.203-4.64,11.453-8.306
			c1.207-3.549-2.125-12.016-7.119-9.614c3.719-1.351,8.68-0.7,10.439-5.157c1.52-3.843-1.865-9.536-5.965-9.923
			c7.062,5.505,10.002-13.355,0.006-10.614c3.191-1.54,9.42-3.124,9.434-7.596c0.012-3.337-7.16-9.024-10.531-8.555
			c10.678-1.865,9.924-17.171-8.793-9.938"/>
		<path style="fill:#C7C7C7;stroke:#055587;stroke-width:0.6113;stroke-linecap:round;stroke-linejoin:round;" d="M291.475,150.886
			c3.904,1.794,11.139,1.82,10.98-4.305c-0.113-4.433-7.146-6.344-11.559-4.663c7.191-1.636,11.754-2.45,13.117-6.167
			c1.062-2.902-5.803-10.558-10.025-7.919c4.182-0.695,18.021-3.717,14.379-10.597c-1.277-2.408-4.148-2.834-6.652-2.495
			c3.66-1.016,8.033-4.534,8.701-8.519c0.684-4.061-2.459-10.051-7.057-7.958c15.51,0.707,7.584-19.662-2.527-14.577
			c3.805-1.156,9.293-1.225,7.658-6.715c-1.414-4.747-8.68-1.003-12.836-0.396c23.094-4.983,3.896-11.037-2.934-6.64"/>
		<path style="fill:#C7C7C7;stroke:#055587;stroke-width:0.6113;stroke-linecap:round;stroke-linejoin:round;" d="M281.846,149.337
			c9.279,7.722,13.758-8.91,4.756-10.947c3.059,0.048,6.85-0.536,8.246-3.98c1.275-3.157-1.387-8.736-5.205-8.688
			c5.094-1.687,10.113-2.145,13.154-9.642c1.049-3.205-5.447-6.284-8.836-8.659c-0.658,0.569-1.141,1.066-1.398,1.726
			c4.311-1.414,10.211-0.851,12.148-6.164c1.662-4.576-1.52-9.555-6.113-10.402c14.242-1.991,1.398-17.851-8.17-11.429
			c10.992-4.793,3.252-13.4-5.203-9.297"/>
		<path style="fill:#C7C7C7;stroke:#055587;stroke-width:0.6113;stroke-linecap:round;stroke-linejoin:round;" d="M279.049,74.066
			c4.094-2.393,11.283-2.465,11.621,3.954c0.191,3.672-2.881,5.256-6.018,7.361c2.016-1.965,7.959-1.309,9.834,1.36
			c3.92,5.579-2.131,13.942-8.51,12.747c2.756,0.152,6.943-0.608,8.68,1.94c5.625,8.27-8.994,10.091-9.117,15.7
			c7.572,1.546,10.404,8.51-2.662,11.07c2.709,1,6.127,3.604,4.881,7.691c-0.686,2.262-4.334,4.229-4.014,5.113"/>
		<path style="fill:#C7C7C7;stroke:#055587;stroke-width:0.626;stroke-linecap:round;stroke-linejoin:round;" d="M270.402,77.295
			c4.733-1.965,10.237,0.569,11.782,3.214c5.113,8.752-2.684,8.222-6.684,9.414"/>
		<path style="fill:#C7C7C7;stroke:#055587;stroke-width:0.626;stroke-linecap:round;stroke-linejoin:round;" d="M277.146,104.225
			c4.232-1.171,13.455-3.008,10.408-10.201c-1.998-4.727-8.174-3.693-12.055-4.101"/>
		<path style="fill:#C7C7C7;stroke:#055587;stroke-width:0.626;stroke-linecap:round;stroke-linejoin:round;" d="M277.404,116.777
			c4.855,3.333,11.84-0.723,11.633-6.437c-0.152-4.302-6.428-9.088-10.172-6.188"/>
		<path style="fill:#C7C7C7;stroke:#055587;stroke-width:0.626;stroke-linecap:round;stroke-linejoin:round;" d="M276.932,131.282
			c4.398,1.117,8.592,0.797,9.51-4.735c0.77-4.66-3.963-9.306-8.424-8.901"/>
		<path style="fill:#C7C7C7;stroke:#055587;stroke-width:0.626;stroke-linecap:round;stroke-linejoin:round;" d="M272.996,147.857
			c7.469,2.621,12.494,1.401,13.004-4.906c0.299-3.689-5.01-11.082-9.068-11.669"/>
	</g>
</g>
<g id="Layer_3">
	<g>
		<path style="fill-rule:evenodd;clip-rule:evenodd;fill:#DC1408;" d="M162.843,34.171c-2.521,3.115-12.399,7.09-16.248,8.728
			c-5.826,2.48-14.404,4.84-20.208,7.41c-6.239,2.765-12.852,5.421-19.516,7.086c-7.404,1.851-11.011,2.986-17.237,7.033
			c-5.705,3.705-10.408,5.721-16.347,8.431c-6.49,2.962-12.927,9.545-18.117,14.635c-5.573,5.456-8.445,12.279-11.017,19.485
			c-2.138,5.987-2.51,12.316,0.57,18.338c1.914,3.751,4.485,8.576,6.894,12.032c2.36,3.391,3.397,5.487,7.335,7.485
			c3.592,1.821,3.793,2.626,7.203,5.043c2.819,1.995,5.505,4.221,8.332,6.241c2.448,1.752,7.291,0.659,10.472,0.687
			c3.954,0.032,10.401-0.449,14.086-1.758c7.056-2.508,11.169-2.76,17.326-7.839c11.74-9.686,8.332-19.979,6.143-33.083
			c-1.018-6.087-4.391-12.594-2.94-18.516c1.596-6.518,3.046-12.215,6.473-17.833c4.307-7.06,12.785-12.24,18.632-17.794
			c6.755-6.412,17.39-10.578,26.231-12.634c0.065-2.44-3.418-5.336-4.577-7.157c-0.908-1.432-1.378-3.882-2.698-5.469
			c-0.209,0.306-0.414,0.449-0.686,0.587c-0.136-0.44-0.443-0.722-0.898-0.743"/>
		<path style="fill:#FFFFFF;stroke:#000000;stroke-width:1.4169;stroke-linecap:round;stroke-linejoin:round;" d="M163.405,32.218
			c-8.967,2.109-19.183,5.981-22.724,7.063c-3.978,1.213-21.153,6.396-24.696,7.637c-3.909,1.369-21.28,7.764-25.659,9.848
			c-4.705,2.24-15.379,7.68-20.04,10.066c-17.019,8.716-25.408,15.347-33.851,32.473c-2.941,5.967-4.992,17.23-4.103,24.165
			c0.781,6.08,6.106,15.586,9.91,21.39c4.077,6.21,9.692,12.125,18.045,16.44c6.683,3.454,18.573,7.09,26.066,6.397
			c16.83-1.561,41.445-10.228,43.597-29.139c0.839-7.335-2.472-14.994-3.963-22.464c-2.033-10.203-2.497-20.71-1.794-24.28
			c2.159-10.902,12.334-22.703,19.211-30.508c5.411-6.143,19.078-13.753,27.504-13.958c0.138-2.401-2.543-5.07-3.61-7.248
			C166.009,37.466,164.994,34.572,163.405,32.218c2.234,5.313,3.391,10.837,7.504,15.131c-7.097,1.223-13.739,4.344-19.769,8.031
			c-5.976,3.653-11.147,9.326-16.479,13.705c-10.806,8.88-15.235,16.968-15.254,30.828c-0.015,13.121,11.376,33.271-0.551,45.198
			c-4.436,4.433-13.517,8.381-19.812,9.936c-6.267,1.544-12.535,2.486-18.714,1.171c-4.097-0.875-17.146-8.075-19.572-9.932
			c-5.586-4.273-11.069-10.489-14.418-16.706c-2.831-5.264-3.259-14.089-2.541-20.286c0.779-6.735,3.457-12.318,7.714-17.588
			c13.699-16.957,31.505-24.934,51.099-32.651c7.966-3.139,15.547-5.943,23.774-8.746c7.841-2.675,12.965-5.134,20.208-7.41
			c6.119-1.923,12.81-3.575,18.615-5.954"/>
		<path style="fill:#FFFFFF;stroke:#000000;stroke-width:1.4169;stroke-linecap:round;stroke-linejoin:round;" d="M70.936,90.014
			c-12.672-0.629-13.64,26.579-7.044,33.594c5.763,6.131,11.627,3.57,15.059-3.091c3.113-6.042,4.014-10.226,1.881-16.594
			C79.215,99.102,76.297,91.568,70.936,90.014"/>
	</g>
</g>
</svg>
