<?xml version="1.0" encoding="iso-8859-1"?>
<!-- Generator: Adobe Illustrator 13.0.0, SVG Export Plug-In . SVG Version: 6.00 Build 14948)  -->
<!DOCTYPE svg PUBLIC "-//W3C//DTD SVG 1.1//EN" "http://www.w3.org/Graphics/SVG/1.1/DTD/svg11.dtd">
<svg version="1.1" xmlns="http://www.w3.org/2000/svg" xmlns:xlink="http://www.w3.org/1999/xlink" x="0px" y="0px"
	 width="539.999px" height="200px" viewBox="0 0 539.999 200" style="enable-background:new 0 0 539.999 200;" xml:space="preserve"
	>
<g id="Layer_2">
	<rect style="fill:#FFFFFF;" width="539.999" height="200"/>
</g>
<g id="Layer_1">
	<path style="fill:none;stroke:#79B423;stroke-linejoin:round;" d="M27.141,104.415c11.906,1.334,24.304,0.879,36.085,0.181
		c29.868-1.771,59.614-4.368,89.575-6.184c55.909-3.389,112.076-5.854,168.112-5.854c39.252,0,78.336-0.232,117.266,2.844
		c18.162,1.435,36.338,0.64,54.564,1.474c6.619,0.302,13.461,1.471,20.115,1.858"/>
	<g>
		<path style="fill:none;stroke:#92938B;stroke-width:2;stroke-linecap:round;stroke-linejoin:round;" d="M313.042,86.235
			c-2.814-0.898-4.336,3.066-4.336,6.601c0,30.529-11.826,63.947-43.842,75.2"/>
		<path style="fill:#FFFFFF;stroke:#92938B;stroke-width:2;stroke-linecap:round;stroke-linejoin:round;" d="M264.864,168.036
			c-6.859,6.645-18.664,8.302-29.178,8.862c7.564-3.262,9.717-5.654,12.318-5.837c-1.783-0.012-13.936,0.071-15.562-0.193
			c1.609-1.238,13.316-3.865,15.5-3.759c-2.232-0.233-11.969,0-13.77-1.245c2.217-0.923,28.432-1.13,8.436-8.203
			c11.984,1.404,21.113,7.057,22.688,9.511"/>
		<path style="fill:#FFFFFF;stroke:#92938B;stroke-width:4;stroke-linecap:round;stroke-linejoin:round;" d="M196.886,56.632
			c0,17.574-10.867,31.809-24.289,31.809c-13.407,0-24.29-14.234-24.29-31.809c0-17.561,10.883-31.798,24.29-31.798
			C186.019,24.833,196.886,39.071,196.886,56.632z"/>
		<path style="fill:none;stroke:#92938B;stroke-width:4;stroke-linecap:round;stroke-linejoin:round;" d="M173.326,131.606
			c0.362,22.426,0.318,46.451-1.896,57.464c-0.381,1.911-0.804,3.528-1.252,4.925"/>
		<path style="fill:none;stroke:#92938B;stroke-width:4;stroke-linecap:round;stroke-linejoin:round;" d="M172.597,89.605
			c-0.029,5.592,0.162,14.201,0.38,24.148"/>
		<path style="fill:#FFFFFF;stroke:#92938B;stroke-width:2;stroke-linecap:round;stroke-linejoin:round;" d="M187.092,122.597
			c0,5.423-4.386,9.827-9.821,9.827c-5.432,0-9.847-4.404-9.847-9.827c0-5.431,4.415-9.834,9.847-9.834
			C182.706,112.763,187.092,117.166,187.092,122.597z"/>
		<path style="fill:#FFFFFF;stroke:#92938B;stroke-width:2;stroke-linecap:round;stroke-linejoin:round;" d="M290.358,37.082
			c0,17.169,10.645,31.082,23.73,31.082c13.096,0,23.748-13.913,23.748-31.082c0-17.162-10.652-31.077-23.748-31.077
			C301.003,6.005,290.358,19.92,290.358,37.082z"/>
		<path style="fill:none;stroke:#92938B;stroke-width:2;stroke-linecap:round;stroke-linejoin:round;" d="M313.503,69.401
			c0.111,21.694-2.918,85.844,1.234,106.668c2.037,10.18,3.453,13.1,3.711,17.926"/>
		<path style="fill:none;stroke:#92938B;stroke-width:2;stroke-linecap:round;stroke-linejoin:round;" d="M172.886,109.58
			c-14.962,21.68,26.016,55.959,54.91,57.184"/>
		<path style="fill:#FFFFFF;stroke:#92938B;stroke-width:2;stroke-linecap:round;stroke-linejoin:round;" d="M228.12,167.673
			c6.008,7.422,17.525,10.496,27.896,12.315c-7.117-4.149-8.965-6.784-11.525-7.277c1.771,0.203,13.824,1.753,15.471,1.687
			c-1.447-1.426-12.754-5.444-14.934-5.603c2.246,0.036,11.883,1.441,13.82,0.425c-2.09-1.185-28.088-4.552-7.383-9.159
			c-12.068-0.056-21.812,4.455-23.67,6.703"/>
	</g>
	<path style="fill:#F4E18C;" d="M457.667,47.333c0,16.016-12.983,29-29,29s-29-12.984-29-29s12.983-29,29-29
		C447.667,18.333,457.667,31.317,457.667,47.333z"/>
	<path style="fill:#FFFFFF;" d="M472,39c0,16.017-12.983,29-29,29s-29-12.983-29-29s12.983-29,29-29C462,10,472,22.983,472,39z"/>
</g>
<g id="Layer_3" style="display:none;">
	<g style="display:inline;">
		<path style="fill:#EBA745;stroke:#EBA745;" d="M59.941,104.779c7.485,0,42.904-2.885,42.904-2.885
			c-1.255-3.194-3.262-6.149-6.003-8.586c-9.312-8.278-23.571-7.44-31.85,1.871C62.465,98.022,60.788,101.325,59.941,104.779"/>
		<path style="fill:#EBA745;stroke:#EBA745;" d="M67.135,79.835C62.826,67.567,52.866,58.233,49.83,44.326"/>
		<path style="fill:#F1C63F;stroke:#F1C63F;" d="M51.164,92.948C44.856,86.451,36.026,79.6,27.142,73.755"/>
		<path style="fill:#FFEE7A;stroke:#FFEE7A;" d="M98.092,75.733c1.712-12.674,8.898-30.97,17.399-40.591"/>
		<path style="fill:#E58844;stroke:#E58844;" d="M115.319,94.393c8.262-4.52,21.353-3.537,30.665-5.915"/>
	</g>
</g>
</svg>
