<?xml version="1.0" encoding="iso-8859-1"?>
<!-- Generator: Adobe Illustrator 13.0.0, SVG Export Plug-In . SVG Version: 6.00 Build 14948)  -->
<!DOCTYPE svg PUBLIC "-//W3C//DTD SVG 1.1//EN" "http://www.w3.org/Graphics/SVG/1.1/DTD/svg11.dtd">
<svg version="1.1" xmlns="http://www.w3.org/2000/svg" xmlns:xlink="http://www.w3.org/1999/xlink" x="0px" y="0px" width="540px"
	 height="200px" viewBox="0 0 540 200" style="enable-background:new 0 0 540 200;" xml:space="preserve">
<g id="Layer_2">
	<g>
		<rect style="fill:none;" width="540" height="200"/>
		<rect style="fill:#FFFFFF;" width="540" height="200"/>
	</g>
	<g>
	</g>
</g>
<g id="Layer_4">
	<g>
		<path style="fill:#F661AE;stroke:#FAA7D2;stroke-width:1.2117;stroke-linecap:round;stroke-linejoin:round;" d="M234.254,154.77
			c0,4.186,1.673,6.236,1.673,6.236c2.667,3.732,4.246,5.166,8.774,8.278c6.357,4.369,12.066,6.429,19.622,7.414
			c11.276,1.463,19.413,1.437,30.098-3.575c3.348-1.57,7.668-4.391,9.857-7.17c2.158-2.729,6.744-9.143,7.027-12.019"/>
		<path style="fill:#F661AE;stroke:#FAA7D2;stroke-width:1.2117;" d="M265.754,22.536c-5.559,0-73.652,2.057-80.677,53.896
			c-3.481,25.693,36.367,66.796,44.392,74.423c14.565,13.842,37.663,20.519,57.451,15.665c11.281-2.77,21.434-9.146,29.697-17.409
			c5.605-5.605,16.332-16.43,21.271-22.682c9.287-11.762,16.35-39.598,17.117-46.298C357.701,56.476,318.699,20.879,265.754,22.536"
			/>
		<path style="fill:#FFFFFF;" d="M212.415,81.854c-2.225,0-1.8-1.686-4.573-0.49c-2.334,1.006-3.287,3.791-4.266,6.019
			c-0.868,1.974-0.493,1.927-2.275,2.879c-0.218,0.115-1.968,1.771-2.492,1.998c-0.673,0.289-1.588,0.587-1.396,1.26
			c0.307,1.073-0.051,2.693-0.693,3.434c1.853,3.505,1.87,14.739,4.755,17.383c2.399,2.204,3.635,2.912,8.32,6.562
			c5.487,4.266,12.078,6.807,18.646,9.57c4.871,2.054,8.753,3.387,12.96,3.995c4.715,0.688,11.379,2.478,16.035,2.714
			c12.408,0.62,23.055,1.121,32.733-1.021c12.316-2.732,22.502-6.151,33.08-11.09c6.326-2.95,13.094-9.842,15.26-16.981
			c1.381-4.553-1.404-8.942-3.529-12.89c-2.266-4.201-5.404-8.341-5.865-13.149c-0.123-1.331,0.42-3.195-0.283-4.42
			c-0.713-1.238-1.953-1.056-2.949-1.971c-1.906-1.758-1.889-4.759-3.441-6.814c-1.398-1.859-3.066-3.686-4.672-5.29
			c-2.166-2.156-3.541-2.068-6.514-2.847c-5.539-1.446-8.701-7.432-13.988-9.671c-4.389-1.862-8.375-2.213-12.146-4.966
			c-1.891-1.378-0.754-1.888-2.85-2.699c-2.537-0.985-4.902-0.419-7.324-1.54c-2.797-1.289-2.682-2.658-4.397-4.62
			c-1.39-1.59-6.401-1.283-8.429-0.812c-3.974,0.927-7.511,3.248-11.845,3.676c-2.375,0.233-3.892-0.705-6.069,0.718
			c-1.685,1.1-3.622,3.168-4.921,4.693c-1.528,1.8-1.726,4.401-3.083,6.305c-1.228,1.726-3.632,4.34-5.718,5.065
			c0.679,0.337,0.962,0.912,1.646,1.201c0.003,0.472-0.038,1.174-0.224,1.619c-2.821-7.83-11.271,1.195-13.77,4.756
			c-1.94,2.771-3.404,5.157-4.112,8.217c-0.785,3.41-2.13,6.331-1.442,9.261"/>
		<path style="fill:#FFFFFF;stroke:#A6A6A6;stroke-width:1.2117;stroke-linecap:round;stroke-linejoin:round;" d="M196.454,96.077
			c3.372-1.829-1.083-3.676-0.313-5.856c1.384-3.924,7.338,2.785,8.332,3.856c-8.021-8.827-4.181-8.016,4.82-5.886
			c-2.064-0.682-11.211-1.785-6.381-6.113c2.479-2.219,7.163-0.829,9.91,0.068c-0.729-4.166-6.217-2.484-7.004-6.573
			c-0.986-5.128,3.797-1.933,6.057-1.452c-1.998-1.767-6.376-3.977-6.937-6.52c-1.073-4.889,3.328-3.175,4.933-0.971
			c-0.793-1.812-4.289-8.777-1.634-9.733c2.174-0.781,5.207,4.255,6.104,5.703c-0.844-1.938-1.359-5.927,0.897-7.316
			c3.059-1.882,6.242,2.67,3.773,4.936c1.905-1.938,2.416-8.479,5.779-6.765c3.233,1.658-0.254,9.718,4.34,9.226
			c0.832,0.307,1.812,0.156,2.717-0.328c0.334-1.775,0.398-2.619-0.521-4.115c-1.146-1.864-5.893-3.198-3.697-5.909
			c2.522-0.546,4.549,1.927,6.01,3.741c-0.505-1.564-2.941-8.739,1.475-8.335c2.379,0.216,2.936,5.481,3.55,7.237
			c-0.274-0.316-0.593-0.295-0.915-0.484"/>
		<path style="fill:#FFFFFF;stroke:#A6A6A6;stroke-width:1.2117;stroke-linecap:round;stroke-linejoin:round;" d="M242.433,47.752
			c-0.354,2.311-8.529-0.188-5.553-4.334c3.254-4.54,7.951,0.042,11.075,1.378c0.953-2.74,4.396-5.971,7.656-4.363
			c1.324,0.652,2.065,2.915,1.407,4.328c-0.909,1.956-3.562,1.997-5.213,2.699"/>
		<path style="fill:#FFFFFF;stroke:#A6A6A6;stroke-width:1.2117;stroke-linecap:round;stroke-linejoin:round;" d="M267.622,45.117
			c-2.613,0.865-5.499-4.558-2.864-6.092c1.985-1.156,6.187,2.039,7.213,3.346c-0.605-2-1.127-7.192,2.092-7.22
			c3.531-0.026,3.156,5.633,3.266,7.872c1.074-0.251,4.951,0.324,4.941,0.345"/>
		<path style="fill:#FFFFFF;stroke:#A6A6A6;stroke-width:1.2117;stroke-linecap:round;stroke-linejoin:round;" d="M282.264,47.752
			c0-2.142-0.428-8.036,2.109-8.727c3.658-0.997,3.102,5.181,1.74,6.649c1.021-2.171,4.912-6.855,6.703-4.065
			c2.131,3.316-1.525,6.443-3.988,7.636c1.906-1.363,7.713-5.706,9.193-1.434c1.652,4.771-6.051,4.26-8.436,4.042"/>
		<path style="fill:#FFFFFF;stroke:#A6A6A6;stroke-width:1.2117;stroke-linecap:round;stroke-linejoin:round;" d="M300.131,55.954
			c0.064-2.369-0.289-9.896,3.74-8.42c3.408,1.251,2.555,6.299,2.115,8.476c-0.018-2.982,1.893-5.242,4.465-2.699
			c1.959,1.936,1.688,5.585,1.688,8.119c-0.059-2.248,2.873-5.824,5.559-4.617c2.791,1.251,0.578,5.366-0.379,7.004
			c2.213-3.407,5.688-0.927,6.822,2.08c0.523,1.381,0.838,7.257-0.289,6.458"/>
		<path style="fill:#FFFFFF;stroke:#A6A6A6;stroke-width:1.2117;stroke-linecap:round;stroke-linejoin:round;" d="M322.676,75.868
			c1.947-1.915,4.225-3.794,6.738-1.762c3.004,2.426,0.52,4.08-1.758,5.275"/>
		<path style="fill:#FFFFFF;stroke:#A6A6A6;stroke-width:1.2117;stroke-linecap:round;stroke-linejoin:round;" d="M243.02,41.309
			c0.587-1.767-0.478-5.413,2.06-5.505c1.318-0.044,3.768,3.01,4.635,3.953c0.932-7.927,8.467-3.442,9.712,2.057
			c-0.065-3.511-0.21-7.151,3.794-8.633c3.729-1.377,4.95,2.007,7.328,4.027"/>
		<path style="fill:#FFFFFF;stroke:#A6A6A6;stroke-width:1.2117;stroke-linecap:round;stroke-linejoin:round;" d="M194.99,72.354
			c-0.274,1.351-1.613,8.753,2.284,5.865c1.775-1.319,0.48-5.443-0.591-6.706c-0.879,0.654-1.221,1.829-1.401,2.888"/>
		<path style="fill:#FFFFFF;stroke:#A6A6A6;stroke-width:1.2117;stroke-linecap:round;stroke-linejoin:round;" d="M305.402,38.675
			c-3.225,2.194,4.027,10.712,4.459,3.87c0.193-3.207-6.172-6.969-5.338-2.112"/>
		<path style="fill:#FFFFFF;stroke:#A6A6A6;stroke-width:1.2117;stroke-linecap:round;stroke-linejoin:round;" d="M210.514,103.396
			c-1.136-1.791-5.019-3.696-6.738-1.761c-2.068,2.321,2.242,4.826,4.393,4.69"/>
		<path style="fill:#FFFFFF;stroke:#A6A6A6;stroke-width:1.2117;stroke-linecap:round;stroke-linejoin:round;" d="M217.539,95.49
			c-1.879,1.127-9.937-0.266-8.732-3.464c1.021-2.705,7.369,0.204,8.732,0.537"/>
		<path style="fill:#FFFFFF;stroke:#A6A6A6;stroke-width:1.2117;stroke-linecap:round;stroke-linejoin:round;" d="M223.398,84.069
			c-2.239-1.498-0.254-7.251,2.26-2.619c0.54,0.988,0.652,2.067,0.896,3.207c0.198,0.908,0.319,3.026,0.649,2.342"/>
		<path style="fill:#FFFFFF;stroke:#A6A6A6;stroke-width:1.2117;stroke-linecap:round;stroke-linejoin:round;" d="M233.647,84.946
			c-1.717-0.095-5.829,1.437-5.293,3.814c0.591,2.587,6.166,2.352,7.052-0.006"/>
		<path style="fill:#FFFFFF;stroke:#A6A6A6;stroke-width:1.2117;stroke-linecap:round;stroke-linejoin:round;" d="M241.261,74.112
			c-1.062,3.322,2.897,2.242,4.175,1.461c1.315-0.803,2.95-2.546,3.366-4.099c1.077-4-2.773-3.714-5.198-1.755"/>
		<path style="fill:#FFFFFF;stroke:#A6A6A6;stroke-width:1.2117;stroke-linecap:round;stroke-linejoin:round;" d="M231.012,70.304
			c-1.472-2.938-8.768,1.623-5.785,4.978c2.467,2.772,4.605-0.753,6.372-2.635"/>
		<path style="fill:#FFFFFF;stroke:#A6A6A6;stroke-width:1.2117;stroke-linecap:round;stroke-linejoin:round;" d="M238.335,70.012
			c-1.871-1.731-4.125,1.038-2.644,2.855c1.206,1.479,4.068,0.479,5.635,0.145c8.207-1.755-1.44-4.602-5.293-4.13
			c-0.073,0.295,0,0.543-0.041,0.838"/>
		<path style="fill:#FFFFFF;stroke:#A6A6A6;stroke-width:1.2117;stroke-linecap:round;stroke-linejoin:round;" d="M251.221,77.331
			c-2.015-0.142-5.537-0.121-5.874,2.62c-0.587,4.782,6.182,0.924,7.046-1.448"/>
		<path style="fill:#FFFFFF;stroke:#A6A6A6;stroke-width:1.2117;stroke-linecap:round;stroke-linejoin:round;" d="M257.957,68.546
			c-0.003-0.266,0.004-0.531,0.012-0.797c-2.003,1.823-3.076,3.381-2.949,6.435c0.056,1.251,0.527,5.369,2.651,4.638
			c1.747-0.596,1.476-10.193-0.596-9.396"/>
		<path style="fill:#FFFFFF;stroke:#A6A6A6;stroke-width:1.2117;stroke-linecap:round;stroke-linejoin:round;" d="M247.705,88.171
			c-2.466,0.133-5.93,4.752-2.327,5.274c1.988,0.286,5.396-3.442,4.62-5.228c-1.109-0.496-2.26-0.321-2.877,0.829"/>
		<path style="fill:#FFFFFF;stroke:#A6A6A6;stroke-width:1.2117;stroke-linecap:round;stroke-linejoin:round;" d="M232.771,98.712
			c-1.679,0.711-5.016,4.026-4.057,6.151c1.959,4.34,5.083-1.986,5.812-3.514"/>
		<path style="fill:#FFFFFF;stroke:#A6A6A6;stroke-width:1.2117;stroke-linecap:round;stroke-linejoin:round;" d="M223.985,110.427
			c-1.997-2.858-5.753,0.717-7.865,1.499c-0.841,3.732,5.464,2.505,7.278,1.794c2.439-0.956,3.727-4.328,0-3.88"/>
		<path style="fill:#FFFFFF;stroke:#A6A6A6;stroke-width:1.2117;stroke-linecap:round;stroke-linejoin:round;" d="M238.042,119.213
			c-1.949-1.892-5.661,1.065-4.269,3.446c1.947,3.345,5.986-0.346,7.195-2.275"/>
		<path style="fill:#FFFFFF;stroke:#A6A6A6;stroke-width:1.2117;stroke-linecap:round;stroke-linejoin:round;" d="M253.269,111.891
			c-1.101-2.222-3.357-6.694-0.015-8.515c3.965-2.153,5.251,5.189,4.41,7.639"/>
		<path style="fill:#FFFFFF;stroke:#A6A6A6;stroke-width:1.2117;stroke-linecap:round;stroke-linejoin:round;" d="M264.4,115.112
			c-1.775-1.13-3.693-0.292-5.552-0.145c-0.8,0.946-1.071,2.162-0.743,3.357c2.209,0.882,5.039,1.029,7.172,0.009"/>
		<path style="fill:#FFFFFF;stroke:#A6A6A6;stroke-width:1.2117;stroke-linecap:round;stroke-linejoin:round;" d="M295.15,122.143
			c-0.014-4.567-10.08-7.68-7.312-2.36c0.754,1.457,3.146,4.166,4.967,4.121c2.357-0.053,2.691-2.289,1.172-3.812"/>
		<path style="fill:#FFFFFF;stroke:#A6A6A6;stroke-width:1.2117;stroke-linecap:round;stroke-linejoin:round;" d="M266.743,84.069
			c-1.841-1.387-6.54-1.746-6.966,1.464c-0.619,4.685,4.553,2.401,6.671,1.466"/>
		<path style="fill:#FFFFFF;stroke:#A6A6A6;stroke-width:1.2117;stroke-linecap:round;stroke-linejoin:round;" d="M276.408,74.992
			c-3.727-4.352-12.289,1.516-8.202,3.826c3.995,2.257,12.344-6.287,4.977-5.585"/>
		<path style="fill:#FFFFFF;stroke:#A6A6A6;stroke-width:1.2117;stroke-linecap:round;stroke-linejoin:round;" d="M280.801,72.646
			c-0.275-2.006,2.277-6.119,4.619-4.927c3.611,1.841-1.365,8.019-2.568,9.611"/>
		<path style="fill:#FFFFFF;stroke:#A6A6A6;stroke-width:1.2117;stroke-linecap:round;stroke-linejoin:round;" d="M270.548,72.646
			c-1.914-0.496,4.178-11.011,3.805,0.587"/>
		<path style="fill:#FFFFFF;stroke:#A6A6A6;stroke-width:1.2117;stroke-linecap:round;stroke-linejoin:round;" d="M283.727,81.433
			c-0.439-0.225-0.902-0.313-1.383-0.269c-0.865,1.469-1.631,6.88,0.799,6.953c2.17,0.065,3.387-4.588,3.514-6.101"/>
		<path style="fill:#FFFFFF;stroke:#A6A6A6;stroke-width:1.2117;stroke-linecap:round;stroke-linejoin:round;" d="M295.443,84.657
			c-1.91,2.439,2.336,8.992,4.629,5.867c2.34-3.186-4.188-6.679-6.34-7.597c-0.143,1.006,0.156,1.985,0.832,2.605"/>
		<path style="fill:#FFFFFF;stroke:#A6A6A6;stroke-width:1.2117;stroke-linecap:round;stroke-linejoin:round;" d="M306.865,85.533
			c1.016-2.195,3.75-6.394,6.672-4.998c3.6,1.714,0.779,6.998-2.572,6.756"/>
		<path style="fill:#FFFFFF;stroke:#A6A6A6;stroke-width:1.2117;stroke-linecap:round;stroke-linejoin:round;" d="M251.806,54.487
			c0.389-2.938,5.092-5.051,6.588-2.038c1.77,3.561-2.779,4.242-5.417,4.968"/>
		<path style="fill:#FFFFFF;stroke:#A6A6A6;stroke-width:1.2117;stroke-linecap:round;stroke-linejoin:round;" d="M265.277,60.347
			c-2.322-2.473-10.529-1.139-7.329,2.343c3.16,3.431,9.565-2.841,5.573-2.638"/>
		<path style="fill:#FFFFFF;stroke:#A6A6A6;stroke-width:1.2117;stroke-linecap:round;stroke-linejoin:round;" d="M276.992,58.589
			c-2.623-2.918-5.844-0.269-8.45,0.637c-0.806,3.349,3.684,3.269,5.811,2.6c2.039-0.641,4.623-3.874,0.881-3.821"/>
		<path style="fill:#FFFFFF;stroke:#A6A6A6;stroke-width:1.2117;stroke-linecap:round;stroke-linejoin:round;" d="M239.214,63.273
			c-1.03-2.136-2.553,0.416-4.102,0.661c-2.056,0.318-3.342-0.82-1.787-3.213c0.803-1.236,3.838-2.505,5.302-2.426
			c1.758,0.098,3.767,1.626,1.171,2.638"/>
		<path style="fill:#FFFFFF;stroke:#A6A6A6;stroke-width:1.2117;stroke-linecap:round;stroke-linejoin:round;" d="M269.672,54.782
			c0.575-1.943-0.073-6.721,3.218-6.44c2.066,0.178,2.592,4.729,2.092,6.335c0.727-1.422,0.518-8.468,3.49-7.465
			c1.908,0.644,1.941,7.598,1.154,9.034"/>
		<path style="fill:#FFFFFF;stroke:#A6A6A6;stroke-width:1.2117;stroke-linecap:round;stroke-linejoin:round;" d="M245.95,65.032
			c-0.959-1.14-6.234-3.605-4.481-5.939c1.625-2.159,6.39,2.322,6.824,3.889"/>
		<path style="fill:#FFFFFF;stroke:#A6A6A6;stroke-width:1.2117;stroke-linecap:round;stroke-linejoin:round;" d="M297.201,61.518
			c-0.074,0.435-0.033,1.01,0.051,1.438c2.445-0.416,4.029-4.325,6.982-3.134c2.512,1.007,2.062,3.797-0.086,4.874
			c-3.209-1.502-8.006,3.133-3.141,5.243c4.896,2.118,7.666-4.845,2.637-4.906"/>
		<path style="fill:#FFFFFF;stroke:#A6A6A6;stroke-width:1.2117;stroke-linecap:round;stroke-linejoin:round;" d="M313.891,66.495
			c-1.34-0.941-4.119-0.936-3.535,1.472c0.438,1.785,3.664,1.776,4.998,2.03c1.039,0.191,3.199,1.384,4.184,0.387
			c1.801-1.835-1.322-3.562-2.715-4.181"/>
		<path style="fill:#FFFFFF;stroke:#A6A6A6;stroke-width:1.2117;stroke-linecap:round;stroke-linejoin:round;" d="M329.414,78.798
			c0.449-1.239,3.146-8.866,4.98-8.193c2.012,0.741,1.021,5.538,0.295,6.727c-2.289,3.768-6.826,3.21-8.662,7.367
			c1.08-5.782,13.383-2.057,3.152,2.038c2.295,0.159,5.629,2.522,5.799,4.945c0.213,2.959-4.637,4.292-6.125,1.847
			c1.281,1.486,5.754,5.785,2.91,8.054c-3.062,2.443-6.49-3.171-7.623-4.921"/>
		<path style="fill:#FFFFFF;stroke:#A6A6A6;stroke-width:1.2117;stroke-linecap:round;stroke-linejoin:round;" d="M332.637,96.077
			c2.779-2.534,6.047,0.959,6.891,3.594c0.604,1.894,0.242,3.191-0.354,4.974c-0.26,0.779-5.156,6.889-5.959,7.03
			c-4.461,0.809,20.314-12.686,0.324,5.216"/>
		<path style="fill:#FFFFFF;stroke:#A6A6A6;stroke-width:1.2117;stroke-linecap:round;stroke-linejoin:round;" d="M254.443,124.777
			c-1.067,0.521-9.438,5.292-3.809,6.756c2.325,0.607,6.756-4.936,8.783-5.906c6.467,5.006-8.134,10.627-3.219,2.956"/>
		<path style="fill:#FFFFFF;stroke:#A6A6A6;stroke-width:1.2117;" d="M334.689,104.863c-3.877-1.817-4.318,4.968-1.475,6.812
			C336.736,113.962,337.174,107.329,334.689,104.863"/>
		<path style="fill:#FFFFFF;stroke:#A6A6A6;stroke-width:1.2117;stroke-linecap:round;stroke-linejoin:round;" d="M200.185,99.526
			c-0.156-1.299-1.74-1.682-2.693-2.258c-0.569-0.348-3.101-2.147-3.664-0.613c-0.54,1.481,1.8,2.779,2.832,3.172
			c0.861,0.327,2.576,0.18,3.166,0.817c-0.587-0.121-1.189-0.019-1.782,0.088c-1.21,0.213-3.496,0.156-3.092,1.886
			c0.239,1.044,1.511,1.982,2.508,2.191c0.537,0.112,1.106-0.124,1.584-0.348c0.59-0.274,1.121-0.734,1.776-0.832
			c-0.053,0.064-0.068,0.098-0.106,0.168c-2.095,0.685-2.563,2.635-1.894,4.591c0.307,0.905,0.729,1.974,1.826,1.431
			c0.793-0.396,1.475-1.352,1.731-2.184c0.139-0.445,0.021-1.191,0.354-1.501c0.05,0.091-0.048,0.094-0.048,0.115"/>
		<path style="fill:#FFFFFF;stroke:#A6A6A6;stroke-width:1.2117;stroke-linecap:round;stroke-linejoin:round;" d="M201.731,114.398
			c-0.896-0.85-1.667-3.033-1.475-4.213"/>
		<path style="fill:none;stroke:#FAA7D2;stroke-width:1.2117;" d="M355.006,80.131c0,31.848-38.082,57.666-85.053,57.666
			c-46.974,0-85.056-25.818-85.056-57.666c0-31.845,38.082-57.665,85.056-57.665C316.924,22.466,355.006,48.286,355.006,80.131z"/>
	</g>
</g>
</svg>
