<?xml version="1.0" encoding="iso-8859-1"?>
<!-- Generator: Adobe Illustrator 13.0.0, SVG Export Plug-In . SVG Version: 6.00 Build 14948)  -->
<!DOCTYPE svg PUBLIC "-//W3C//DTD SVG 1.1//EN" "http://www.w3.org/Graphics/SVG/1.1/DTD/svg11.dtd">
<svg version="1.1" xmlns="http://www.w3.org/2000/svg" xmlns:xlink="http://www.w3.org/1999/xlink" x="0px" y="0px" width="378px"
	 height="140px" viewBox="0 0 378 140" style="enable-background:new 0 0 378 140;" xml:space="preserve">
<g id="Layer_1">
	<rect style="fill:#FFFFFF;" width="378" height="140"/>
	<rect style="fill:#FFFFFF;" width="378" height="140"/>
</g>
<g id="bar" style="display:none;">
	<g style="display:inline;">
		<g>
			
				<rect x="299.342" y="70.946" style="fill:#CE4E42;stroke:#FFFFFF;stroke-width:0.6412;stroke-linecap:square;" width="3.137" height="45.07"/>
			<g>
				<path style="fill:#CE4E42;" d="M274.336,69.958c0,0.983,0.797,1.781,1.781,1.781h49.58c0.984,0,1.781-0.797,1.781-1.781
					c0-0.982-0.797-1.778-1.781-1.778h-49.58C275.133,68.179,274.336,68.975,274.336,69.958
					C274.336,69.958,274.336,68.975,274.336,69.958z"/>
				<path style="fill:none;stroke:#FFFFFF;stroke-width:0.9618;" d="M274.336,69.958c0,0.983,0.797,1.781,1.781,1.781h49.58
					c0.984,0,1.781-0.797,1.781-1.781c0-0.982-0.797-1.778-1.781-1.778h-49.58C275.133,68.179,274.336,68.975,274.336,69.958
					C274.336,69.958,274.336,68.975,274.336,69.958z"/>
			</g>
		</g>
		<g>
			<rect x="112.402" y="65.476" style="fill:#78B332;stroke:#FFFFFF;stroke-width:0.9618;" width="3.834" height="50.971"/>
			<path style="fill:#78B332;stroke:#FFFFFF;stroke-width:0.9618;" d="M125.485,68.269h-22.338v-5.586c0,0,5.298-2.444,10.883-2.444
				s11.455,2.444,11.455,2.444V68.269z"/>
			<rect x="107.161" y="104.363" style="fill:#78B332;stroke:#FFFFFF;stroke-width:0.6412;" width="14.313" height="1.309"/>
		</g>
		
			<line style="fill:none;stroke:#78B332;stroke-width:2.3989;stroke-linecap:round;" x1="18.699" y1="39.676" x2="93.943" y2="39.676"/>
		
			<line style="fill:none;stroke:#78B332;stroke-width:2.3989;stroke-linecap:square;" x1="93.943" y1="39.676" x2="93.943" y2="56.507"/>
		
			<line style="fill:none;stroke:#78B332;stroke-width:2.3989;stroke-linecap:square;" x1="93.943" y1="56.507" x2="86.729" y2="56.507"/>
		
			<line style="fill:none;stroke:#78B332;stroke-width:2.3989;stroke-linecap:square;" x1="86.729" y1="56.507" x2="86.729" y2="115.814"/>
		
			<line style="fill:none;stroke:#78B332;stroke-width:2.3989;stroke-linecap:round;" x1="86.729" y1="115.814" x2="358.701" y2="115.814"/>
		<g>
			<g>
				
					<line style="fill:none;stroke:#78B332;stroke-width:2.9986;stroke-linecap:round;stroke-linejoin:round;" x1="258.725" y1="60.229" x2="258.725" y2="87.248"/>
				
					<line style="fill:none;stroke:#78B332;stroke-width:2.9986;stroke-linecap:round;stroke-linejoin:round;" x1="258.725" y1="87.248" x2="285.742" y2="87.248"/>
				
					<line style="fill:none;stroke:#78B332;stroke-width:2.9986;stroke-linecap:round;stroke-linejoin:round;" x1="285.742" y1="87.248" x2="258.695" y2="114.295"/>
				
					<line style="fill:none;stroke:#78B332;stroke-width:2.9986;stroke-linecap:round;stroke-linejoin:round;" x1="258.695" y1="114.295" x2="274.273" y2="114.295"/>
			</g>
			<g>
				
					<line style="fill:none;stroke:#78B332;stroke-width:2.9986;stroke-linecap:round;stroke-linejoin:round;" x1="349.555" y1="60.229" x2="349.555" y2="87.248"/>
				
					<line style="fill:none;stroke:#78B332;stroke-width:2.9986;stroke-linecap:round;stroke-linejoin:round;" x1="349.555" y1="87.248" x2="322.541" y2="87.248"/>
				
					<line style="fill:none;stroke:#78B332;stroke-width:2.9986;stroke-linecap:round;stroke-linejoin:round;" x1="322.541" y1="87.248" x2="349.582" y2="114.295"/>
				
					<line style="fill:none;stroke:#78B332;stroke-width:2.9986;stroke-linecap:round;stroke-linejoin:round;" x1="349.582" y1="114.295" x2="334.006" y2="114.295"/>
			</g>
		</g>
	</g>
</g>
<g id="liquide">
	<path style="fill:#99CCFF;" d="M189.631,65.332c0.921-0.757,2.389-1.122,3.624-1.397c1.968-0.438,3.985-0.365,5.989-0.37
		c1.915-0.004,3.782,0.281,5.696,0.377c1.325,0.066,3.239-0.702,4.331-0.058c2.785,1.643,0.945,3.536-0.342,5.449
		c-0.271,0.404-0.811,0.822-1.032,1.225c-0.221,0.401-0.007,1.091-0.225,1.474c-0.472,0.83-1.645,1.436-2.558,1.599
		c-0.762,0.136-1.875,0.344-2.61-0.04c-0.458-0.24-0.812-0.8-1.288-1.052c-1.432-0.76-2.898-1.283-4.399-1.863
		c-1.231-0.476-2.41-1.134-3.538-1.808c-1.083-0.647-2.009-1.681-2.997-2.234L189.631,65.332z"/>
</g>
<g id="verre_01">
	<path style="fill:none;stroke:#5C68AE;stroke-width:2;stroke-linecap:round;stroke-linejoin:round;" d="M201.52,52.648
		c0.322,1.723,9.542,12.211,9.779,13.012c0.253,0.828-1.479,3.37-2.798,5.17c-1.132,1.542-2.682,3.349-3.518,3.449
		c-0.663,0.08-13.389-6.746-14.516-7.055c1.374-1.162,3.938-3.878,5.577-6.058C198.096,58.449,200.354,54.903,201.52,52.648
		c-1.139-0.862-5.827,3.428-7.502,5.711c-1.719,2.343-3.517,5.134-3.91,6.538c-0.149,0.534-0.763,2.75,0.36,2.327"/>
</g>
<g id="main">
	<path style="fill:none;stroke:#919289;stroke-width:2.8335;stroke-linecap:round;stroke-linejoin:round;" d="M196.119,71.828
		c2.421,0.589,5.637-0.262,9.509-1.081"/>
</g>
<g id="doigts_02">
	<path style="fill:none;stroke:#919289;stroke-width:2.8335;stroke-linecap:round;stroke-linejoin:round;" d="M204.045,71.088
		c0.175-0.126,3.856-5.535,3.766-6.549c-0.123-1.371-0.105-8.144-1.71-8.393"/>
	<path style="fill:none;stroke:#919289;stroke-width:2.8335;stroke-linecap:round;stroke-linejoin:round;" d="M206.389,70.748
		c1.573-3.394,1.864-8.032,1.217-9.813"/>
</g>
<g id="bras">
	<path style="fill:none;stroke:#919289;stroke-width:2.8335;stroke-linecap:round;stroke-linejoin:round;" d="M170.838,99.666
		c17.658,0,28.637,34.398,52.383,28.24c3.586-18.352-5.891-39.812-15.205-53.295c-0.688-0.996-1.327-2.457-1.932-4.168"/>
</g>
<g id="femme">
	<path style="fill:#FFFFFF;stroke:#919289;stroke-width:3.5811;stroke-linecap:round;stroke-linejoin:round;" d="M191.62,43.671
		c2.059,17.929-7.362,33.728-21.056,35.3c-13.68,1.571-26.453-11.679-28.513-29.609c-2.058-17.917,7.38-33.719,21.06-35.29
		C176.806,12.5,189.562,25.753,191.62,43.671z"/>
	<path style="fill:none;stroke:#919289;stroke-width:3.5811;stroke-linecap:round;stroke-linejoin:round;" d="M171.313,123.308
		c0.062,3.876,0.113,7.799,0.144,11.697"/>
	<path style="fill:none;stroke:#919289;stroke-width:3.5811;stroke-linecap:round;stroke-linejoin:round;" d="M170.564,80.168
		c-0.031,5.743,0.167,14.586,0.388,24.803"/>
	<path style="fill:#FFFFFF;stroke:#919289;stroke-width:2.8335;stroke-linecap:round;stroke-linejoin:round;" d="M185.452,114.052
		c0,5.57-4.506,10.094-10.087,10.094c-5.582,0-10.114-4.523-10.114-10.094c0-5.579,4.532-10.101,10.114-10.101
		C180.946,103.951,185.452,108.473,185.452,114.052z"/>
</g>
</svg>
