<?xml version="1.0" encoding="iso-8859-1"?>
<!-- Generator: Adobe Illustrator 13.0.0, SVG Export Plug-In . SVG Version: 6.00 Build 14948)  -->
<!DOCTYPE svg PUBLIC "-//W3C//DTD SVG 1.1//EN" "http://www.w3.org/Graphics/SVG/1.1/DTD/svg11.dtd">
<svg version="1.1" xmlns="http://www.w3.org/2000/svg" xmlns:xlink="http://www.w3.org/1999/xlink" x="0px" y="0px" width="378px"
	 height="140px" viewBox="0 0 378 140" style="enable-background:new 0 0 378 140;" xml:space="preserve">
<g id="fond">
	<rect style="fill:#FFFFFF;" width="378" height="140"/>
</g>
<g id="dune">
</g>
<g id="fond_sable">
	<path style="fill:#FFFFFF;stroke:#FFCC66;stroke-linecap:round;stroke-linejoin:round;" d="M13.667,56.667
		c2.667,0,157,9,179.333,13.667"/>
	<path style="fill:#FFFFFF;stroke:#FFCC66;stroke-linecap:round;stroke-linejoin:round;" d="M94.667,62c0,0,80.667-9.667,113.333-6
		s67.001,9.999,90.667,13.333"/>
	<path style="fill:#FFFFFF;stroke:#FFCC66;stroke-linecap:round;stroke-linejoin:round;" d="M241.5,60.333
		c0,0,29.508-4.017,55.833-4.667c40.5-1,51.334,13.333,71.334,16.333"/>
</g>
<g id="Layer_4">
	
		<rect x="120.001" y="81.666" style="fill:#FFFFFF;stroke:#FFCC66;stroke-linecap:round;stroke-linejoin:round;" width="77.999" height="27.333"/>
	<g>
		<polygon style="fill:#FFFFFF;stroke:#FFCC66;stroke-linecap:round;stroke-linejoin:round;" points="222.115,108.999 
			181.116,108.999 186.782,70.666 216.447,70.666 		"/>
		<polygon style="fill:#FFFFFF;stroke:#FFCC66;stroke-width:1.1453;stroke-linecap:round;stroke-linejoin:round;" points="
			219.512,72.868 219.512,61.797 214.398,61.797 214.398,67.285 209.285,67.285 209.285,61.797 204.172,61.797 204.172,67.285 
			199.059,67.285 199.059,61.797 193.945,61.797 193.945,67.285 188.833,67.285 188.833,61.797 183.719,61.797 183.719,72.868 		"/>
	</g>
	<polygon style="fill:#FFFFFF;stroke:#FFCC66;stroke-linecap:round;stroke-linejoin:round;" points="138.334,108.999 
		97.334,108.999 103.001,70.666 132.667,70.666 	"/>
	<polygon style="fill:#FFFFFF;stroke:#FFCC66;stroke-width:1.1453;stroke-linecap:round;stroke-linejoin:round;" points="
		135.731,72.868 135.731,61.797 130.618,61.797 130.618,67.285 125.505,67.285 125.505,61.797 120.392,61.797 120.392,67.285 
		115.278,67.285 115.278,61.797 110.165,61.797 110.165,67.285 105.051,67.285 105.051,61.797 99.938,61.797 99.938,72.868 	"/>
	<polygon style="fill:#FFFFFF;stroke:#FFCC66;stroke-width:1.0769;stroke-linecap:round;stroke-linejoin:round;" points="
		184.971,82.917 185.967,76.18 178.151,76.18 178.151,79.52 170.722,79.52 170.722,76.18 163.293,76.18 163.293,79.52 
		155.864,79.52 155.864,76.18 148.435,76.18 148.435,79.52 141.007,79.52 141.007,76.18 133.482,76.18 134.479,82.917 	"/>
</g>
<g id="Layer_5">
	<path style="fill:#FFFFFF;stroke:#FFCC66;" d="M351.667,119c-61-18.333-44.333-25.999-106.333-12.666
		c-62,13.333-96.667,28.334-122.667,22S83.333,116.667,40,119"/>
</g>
</svg>
