<?xml version="1.0" encoding="iso-8859-1"?>
<!-- Generator: Adobe Illustrator 13.0.0, SVG Export Plug-In . SVG Version: 6.00 Build 14948)  -->
<!DOCTYPE svg PUBLIC "-//W3C//DTD SVG 1.1//EN" "http://www.w3.org/Graphics/SVG/1.1/DTD/svg11.dtd">
<svg version="1.1" xmlns="http://www.w3.org/2000/svg" xmlns:xlink="http://www.w3.org/1999/xlink" x="0px" y="0px" width="540px"
	 height="200px" viewBox="0 0 540 200" style="enable-background:new 0 0 540 200;" xml:space="preserve">
<g id="FOND">
	<g>
		<rect style="fill:#FFFFFF;" width="540" height="200"/>
	</g>
</g>
<g id="Layer_1">
	<g>
		<g>
			
				<rect x="427.633" y="100.724" style="fill:#CE4E43;stroke:#FFFFFF;stroke-width:0.916;stroke-linecap:square;" width="4.48" height="64.386"/>
			<g>
				<path style="fill:#CE4E43;" d="M391.91,99.312c0,1.404,1.139,2.543,2.543,2.543h70.83c1.404,0,2.543-1.139,2.543-2.543
					s-1.139-2.542-2.543-2.542h-70.83C393.049,96.771,391.91,97.908,391.91,99.312C391.91,99.312,391.91,97.908,391.91,99.312z"/>
				<path style="fill:none;stroke:#FFFFFF;stroke-width:1.374;" d="M391.91,99.312c0,1.404,1.139,2.543,2.543,2.543h70.83
					c1.404,0,2.543-1.139,2.543-2.543s-1.139-2.542-2.543-2.542h-70.83C393.049,96.771,391.91,97.908,391.91,99.312
					C391.91,99.312,391.91,97.908,391.91,99.312z"/>
			</g>
		</g>
		<g>
			<rect x="160.573" y="92.91" style="fill:#78B432;stroke:#FFFFFF;stroke-width:1.374;" width="5.479" height="72.816"/>
			<path style="fill:#78B432;stroke:#FFFFFF;stroke-width:1.374;" d="M179.264,96.899h-31.912V88.92c0,0,7.568-3.492,15.547-3.492
				s16.365,3.492,16.365,3.492V96.899z"/>
			<rect x="153.086" y="148.463" style="fill:#78B432;stroke:#FFFFFF;stroke-width:0.916;" width="20.447" height="1.869"/>
		</g>
		
			<line style="fill:none;stroke:#78B432;stroke-width:3.427;stroke-linecap:round;" x1="26.713" y1="56.053" x2="134.204" y2="56.053"/>
		
			<line style="fill:none;stroke:#78B432;stroke-width:3.427;stroke-linecap:square;" x1="134.204" y1="56.053" x2="134.204" y2="80.097"/>
		
			<line style="fill:none;stroke:#78B432;stroke-width:3.427;stroke-linecap:square;" x1="134.204" y1="80.097" x2="123.899" y2="80.097"/>
		
			<line style="fill:none;stroke:#78B432;stroke-width:3.427;stroke-linecap:square;" x1="123.899" y1="80.097" x2="123.899" y2="164.822"/>
		
			<line style="fill:none;stroke:#78B432;stroke-width:3.427;stroke-linecap:round;" x1="123.899" y1="164.822" x2="512.43" y2="164.822"/>
		<g>
			<g>
				
					<line style="fill:none;stroke:#78B432;stroke-width:4.2837;stroke-linecap:round;stroke-linejoin:round;" x1="369.607" y1="85.414" x2="369.607" y2="124.011"/>
				
					<line style="fill:none;stroke:#78B432;stroke-width:4.2837;stroke-linecap:round;stroke-linejoin:round;" x1="369.607" y1="124.011" x2="408.203" y2="124.011"/>
				
					<line style="fill:none;stroke:#78B432;stroke-width:4.2837;stroke-linecap:round;stroke-linejoin:round;" x1="408.203" y1="124.011" x2="369.566" y2="162.65"/>
				
					<line style="fill:none;stroke:#78B432;stroke-width:4.2837;stroke-linecap:round;stroke-linejoin:round;" x1="369.566" y1="162.65" x2="391.82" y2="162.65"/>
			</g>
			<g>
				
					<line style="fill:none;stroke:#78B432;stroke-width:4.2837;stroke-linecap:round;stroke-linejoin:round;" x1="499.365" y1="85.414" x2="499.365" y2="124.011"/>
				
					<line style="fill:none;stroke:#78B432;stroke-width:4.2837;stroke-linecap:round;stroke-linejoin:round;" x1="499.365" y1="124.011" x2="460.773" y2="124.011"/>
				
					<line style="fill:none;stroke:#78B432;stroke-width:4.2837;stroke-linecap:round;stroke-linejoin:round;" x1="460.773" y1="124.011" x2="499.404" y2="162.65"/>
				
					<line style="fill:none;stroke:#78B432;stroke-width:4.2837;stroke-linecap:round;stroke-linejoin:round;" x1="499.404" y1="162.65" x2="477.152" y2="162.65"/>
			</g>
		</g>
	</g>
</g>
<g id="Layer_2">
	<g>
		<g>
			<g>
				<path style="fill:none;stroke:#92938B;stroke-width:1.7135;stroke-linecap:round;stroke-linejoin:round;" d="M236.209,34.24
					c0,8.668-5.37,15.692-11.985,15.692s-11.982-7.024-11.982-15.692c0-8.664,5.367-15.688,11.982-15.688
					S236.209,25.576,236.209,34.24z"/>
				<path style="fill:none;stroke:#92938B;stroke-width:1.7135;stroke-linecap:round;stroke-linejoin:round;" d="M224.585,71.225
					c0.177,11.067,0.16,22.92-0.931,28.344c-1.71,8.564-5.134,5.145-3.425,17.121c2.149,15.013,7.986,27.394,6.281,34.808
					c-9.348,40.498-9.702,41.655-0.57,40.513"/>
				<path style="fill:none;stroke:#92938B;stroke-width:1.7135;stroke-linecap:round;stroke-linejoin:round;" d="M224.224,50.499
					c-0.012,2.709,0.08,6.854,0.184,11.641"/>
				<path style="fill:none;stroke:#92938B;stroke-width:1.7135;stroke-linecap:round;stroke-linejoin:round;" d="M231.375,66.778
					c0,2.675-2.174,4.857-4.851,4.857c-2.676,0-4.847-2.182-4.847-4.857c0-2.682,2.171-4.848,4.847-4.848
					C229.201,61.93,231.375,64.096,231.375,66.778z"/>
			</g>
		</g>
		<g>
			<path style="fill:none;stroke:#92938B;stroke-width:1.7135;stroke-linecap:round;stroke-linejoin:round;" d="M292.631,107.332
				c0,1.513,1.234,2.736,2.74,2.736c1.503,0,2.734-1.224,2.734-2.736c0-1.511-1.231-2.729-2.734-2.729
				C293.865,104.603,292.631,105.821,292.631,107.332z"/>
			<path style="fill:none;stroke:#92938B;stroke-width:2.5702;stroke-linecap:round;stroke-linejoin:round;" d="M282.631,24.551
				c0,8.47,5.24,15.334,11.708,15.334c6.459,0,11.706-6.864,11.706-15.334c0-8.468-5.247-15.332-11.706-15.332
				C287.871,9.219,282.631,16.083,282.631,24.551z"/>
			<path style="fill:none;stroke:#92938B;stroke-width:2.5702;stroke-linecap:round;stroke-linejoin:round;" d="M294.046,40.495
				c0.052,10.704-1.444,42.35,0.607,52.625c1.839,9.175,2.655,6.396,0.815,19.241c-2.295,16.095,2.873,31.797,3.432,39.944
				c2.845,42.222,3.103,41.162-6.695,39.939"/>
		</g>
	</g>
</g>
</svg>
