<?xml version="1.0" encoding="iso-8859-1"?>
<!-- Generator: Adobe Illustrator 13.0.0, SVG Export Plug-In . SVG Version: 6.00 Build 14948)  -->
<!DOCTYPE svg PUBLIC "-//W3C//DTD SVG 1.1//EN" "http://www.w3.org/Graphics/SVG/1.1/DTD/svg11.dtd">
<svg version="1.1" xmlns="http://www.w3.org/2000/svg" xmlns:xlink="http://www.w3.org/1999/xlink" x="0px" y="0px" width="378px"
	 height="140px" viewBox="0 0 378 140" style="enable-background:new 0 0 378 140;" xml:space="preserve">
<g id="Layer_2">
	<g>
		<rect style="fill:none;" width="378" height="140"/>
		<rect style="fill:#FFFFFF;" width="378" height="140"/>
	</g>
</g>
<g id="Layer_3">
	<g>
		<g>
			<path style="fill:#406FA9;" d="M309.403,130.199c0,4.033-3.266,7.301-7.295,7.301H75.896c-4.029,0-7.298-3.268-7.298-7.301V9.797
				c0-4.031,3.269-7.297,7.298-7.297h226.213c4.029,0,7.295,3.266,7.295,7.297V130.199z"/>
			<path style="fill:none;stroke:#FFFFFF;stroke-width:5.1485;" d="M303.931,125.318c0,3.705-3.117,6.707-6.964,6.707H81.036
				c-3.846,0-6.966-3.002-6.966-6.707V14.678c0-3.703,3.12-6.705,6.966-6.705h215.931c3.847,0,6.964,3.002,6.964,6.705V125.318z"/>
		</g>
		<path style="fill:#FFFFFF;" d="M174.901,115.17c0,0.641-0.516,1.158-1.151,1.158h-4.666c-0.639,0-1.154-0.518-1.154-1.158V24.826
			c0-0.639,0.516-1.156,1.154-1.156h4.666c0.636,0,1.151,0.518,1.151,1.156V115.17z"/>
		<g>
			<path style="fill:#FFFFFF;" d="M211.863,30.641c0,3.85-3.119,6.973-6.969,6.973c-3.851,0-6.974-3.123-6.974-6.973
				c0-3.848,3.123-6.971,6.974-6.971C208.744,23.67,211.863,26.793,211.863,30.641z"/>
			<path style="fill:#FFFFFF;" d="M208.075,116.328c0.294-5.447,1.717-30.305,1.717-30.305h9.319c0-8.045-0.928-10.943-2.521-16.461
				c-0.795-2.748-3.494-6.25-4.276-8.637c-0.848-2.578,1.413-7.557,2.499-9.627c1.153,3.33,3.946,17.887,4.195,20.84h4.478
				c-0.688-7.447-0.402-17.24-3.481-24.68c-1.469-3.539-3.882-6.605-7.08-7.393c-2.345-0.578-3.572-0.83-8.029-0.83
				c-4.459,0.002-5.684,0.252-8.029,0.83c-3.2,0.787-5.616,3.854-7.079,7.393c-3.082,7.439-2.796,17.232-3.484,24.68h4.479
				c0.244-2.953,3.04-17.51,4.193-20.84c1.086,2.07,3.347,7.049,2.502,9.627c-0.784,2.387-3.484,5.889-4.279,8.637
				c-1.596,5.518-2.519,8.416-2.519,16.461h9.214c0,0,1.423,24.857,1.714,30.305H208.075z"/>
		</g>
		<g>
			<path style="fill:#FFFFFF;" d="M278.819,30.641c0,3.85-3.122,6.973-6.974,6.973c-3.847,0-6.969-3.123-6.969-6.973
				c0-3.848,3.122-6.971,6.969-6.971C275.697,23.67,278.819,26.793,278.819,30.641z"/>
			<path style="fill:#FFFFFF;" d="M271.846,39.479c4.233,0,6.993,0.527,10.075,1.717c2.095,0.807,4.583,4.592,5.428,6.779
				c1.528,3.938,0.519,28.158,0.519,28.158c-1.102,0-5.402,0-5.402,0l-0.903-24.84l-0.814,2.504l-1.704,62.531h-4.915l-1.433-39.467
				h-0.787h-0.118h-0.792l-1.428,39.467h-4.914l-1.707-62.531l-0.814-2.504l-0.9,24.84c0,0-4.302,0-5.402,0
				c0,0-1.011-24.221,0.518-28.158c0.848-2.182,3.334-5.973,5.428-6.777c3.079-1.191,5.84-1.719,10.073-1.719H271.846z"/>
		</g>
		<path style="fill:#FFFFFF;" d="M241.857,115.17c0,0.641-0.516,1.158-1.151,1.158h-4.666c-0.639,0-1.154-0.518-1.154-1.158V24.826
			c0-0.639,0.516-1.156,1.154-1.156h4.666c0.636,0,1.151,0.518,1.151,1.156V115.17z"/>
		<g>
			<path style="fill:#FFFFFF;" d="M118.438,34.248c0,4.531-3.675,8.203-8.205,8.203c-4.535,0-8.211-3.672-8.211-8.203
				s3.676-8.209,8.211-8.209C114.764,26.039,118.438,29.717,118.438,34.248z"/>
			<polyline style="fill:none;stroke:#FFFFFF;stroke-width:4.5382;stroke-linecap:round;stroke-linejoin:round;" points="
				105.542,36.297 114.437,78.705 144.53,79.389 155.474,99.912 161.628,97.178 			"/>
			<path style="fill:none;stroke:#FFFFFF;stroke-width:3.89;stroke-linecap:round;" d="M105.135,69.012
				C96.286,72.746,90.084,81.5,90.084,91.713c0,13.59,11.028,24.615,24.624,24.615c13.598,0,24.626-11.025,24.626-24.615
				c0-2.379-0.344-4.678-0.973-6.85"/>
			
				<line style="fill:none;stroke:#FFFFFF;stroke-width:4.5382;stroke-linecap:round;" x1="111.018" y1="59.559" x2="132.909" y2="59.559"/>
		</g>
	</g>
</g>
</svg>
