<?xml version="1.0" encoding="iso-8859-1"?>
<!-- Generator: Adobe Illustrator 13.0.0, SVG Export Plug-In . SVG Version: 6.00 Build 14948)  -->
<!DOCTYPE svg PUBLIC "-//W3C//DTD SVG 1.1//EN" "http://www.w3.org/Graphics/SVG/1.1/DTD/svg11.dtd">
<svg version="1.1" xmlns="http://www.w3.org/2000/svg" xmlns:xlink="http://www.w3.org/1999/xlink" x="0px" y="0px" width="378px"
	 height="140px" viewBox="0 0 378 140" style="enable-background:new 0 0 378 140;" xml:space="preserve">
<pattern  x="-81" y="170" width="538" height="200" patternUnits="userSpaceOnUse" id="New_Pattern_Swatch_3" viewBox="0 -200 538 200" style="overflow:visible;">
	<g>
		<polygon style="fill:none;" points="0,0 538,0 538,-200 0,-200 		"/>
		<polygon style="fill:#FFFFFF;" points="0,0 538,0 538,-200 0,-200 		"/>
	</g>
</pattern>
<g id="fond">
	<rect style="fill:#FFFFFF;" width="378" height="140"/>
</g>
<g id="homme">
	<g>
		<path style="fill:none;stroke:#777768;stroke-width:1.1995;stroke-linecap:round;stroke-linejoin:round;" d="M224.704,73.147
			c0,1.059,0.864,1.915,1.918,1.915c1.053,0,1.914-0.856,1.914-1.915s-0.861-1.911-1.914-1.911
			C225.568,71.236,224.704,72.089,224.704,73.147z"/>
		<path style="fill:none;stroke:#787768;stroke-width:1.799;stroke-linecap:round;stroke-linejoin:round;" d="M217.704,15.2
			c0,5.929,3.668,10.734,8.197,10.734c4.521,0,8.193-4.805,8.193-10.734c0-5.927-3.673-10.732-8.193-10.732
			C221.372,4.468,217.704,9.273,217.704,15.2z"/>
		<path style="fill:none;stroke:#777768;stroke-width:1.799;stroke-linecap:round;stroke-linejoin:round;" d="M225.695,26.361
			c0.035,7.493-1.012,29.645,0.425,36.837c1.287,6.422,1.858,4.477,0.571,13.469c-1.606,11.266,2.01,22.258,2.401,27.961
			c1.992,29.556,2.173,28.813-4.687,27.957"/>
	</g>
</g>
<g id="femme">
	<path style="fill:url(#New_Pattern_Swatch_3);stroke:#777768;stroke-width:1.199;stroke-linecap:round;stroke-linejoin:round;" d="
		M146.571,33.04c-0.011,1.939,0.057,4.926,0.131,8.376"/>
	
		<ellipse style="fill:url(#New_Pattern_Swatch_3);stroke:#777768;stroke-width:1.199;stroke-linecap:round;stroke-linejoin:round;" cx="146.57" cy="21.603" rx="8.425" ry="11.033"/>
	<path style="fill:none;stroke:#777768;stroke-width:1.199;stroke-linecap:round;stroke-linejoin:round;" d="M146.823,47.608
		c0.126,7.778,0.111,16.11-0.658,19.93c-1.197,6.016-3.608,3.611-2.403,12.035c1.507,10.555,5.617,19.256,4.411,24.469
		c-6.567,28.473-6.817,29.287-0.403,28.484"/>
	<path style="fill:#FFFFFF;stroke:#787768;stroke-width:1.1995;stroke-linecap:round;stroke-linejoin:round;" d="M151.599,44.482
		c0,1.882-1.521,3.409-3.406,3.409s-3.416-1.527-3.416-3.409c0-1.883,1.531-3.411,3.416-3.411S151.599,42.599,151.599,44.482z"/>
</g>
<g id="Layer_4">
	<g>
		<g>
			
				<line style="fill:none;stroke:#777768;stroke-width:0.5;stroke-linecap:round;stroke-linejoin:round;" x1="173.969" y1="19.693" x2="182.348" y2="28.072"/>
			
				<rect x="170.681" y="20.941" transform="matrix(-0.7071 0.7072 -0.7072 -0.7071 312.3895 -83.2692)" style="fill:#E07717;stroke:#777768;stroke-width:0.5;stroke-linecap:round;stroke-linejoin:round;" width="5.522" height="4.256"/>
		</g>
		<g>
			<path style="fill:#777768;stroke:#777768;stroke-width:0.5;stroke-linecap:round;stroke-linejoin:round;" d="M195.053,34.883
				c-0.201-6.321-3.297-11.342-7.084-11.342c-3.79,0-6.883,5.021-7.088,11.342H195.053z"/>
			
				<circle style="fill:#777768;stroke:#777768;stroke-width:0.5;stroke-linecap:round;stroke-linejoin:round;" cx="187.968" cy="18.5" r="3.979"/>
		</g>
		<g>
			
				<line style="fill:none;stroke:#777768;stroke-width:0.5;stroke-linecap:round;stroke-linejoin:round;" x1="201.891" y1="19.693" x2="193.512" y2="28.072"/>
			
				<rect x="199.659" y="20.941" transform="matrix(0.7071 0.7072 -0.7072 0.7071 75.6097 -136.3837)" style="fill:#65B724;stroke:#777768;stroke-width:0.5;stroke-linecap:round;stroke-linejoin:round;" width="5.522" height="4.256"/>
		</g>
	</g>
	<g>
		<g>
			<path style="fill:#FFFFFF;stroke:#777768;stroke-width:0.5;stroke-linecap:round;stroke-linejoin:round;" d="M189.188,56.671
				c0.205-6.321,3.299-11.342,7.086-11.342c3.789,0,6.883,5.021,7.088,11.342H189.188z"/>
			
				<circle style="fill:#FFFFFF;stroke:#777768;stroke-width:0.5;stroke-linecap:round;stroke-linejoin:round;" cx="196.275" cy="40.289" r="3.979"/>
		</g>
		<g>
			
				<line style="fill:none;stroke:#777768;stroke-width:0.5;stroke-linecap:round;stroke-linejoin:round;" x1="210.273" y1="41.481" x2="201.895" y2="49.86"/>
			
				<rect x="208.041" y="42.73" transform="matrix(0.7071 0.7072 -0.7072 0.7071 93.4725 -135.9283)" style="fill:#E07717;stroke:#777768;stroke-width:0.5;stroke-linecap:round;stroke-linejoin:round;" width="5.522" height="4.255"/>
		</g>
		<g>
			<path style="fill:#FFFFFF;stroke:#777768;stroke-width:0.5;stroke-linecap:round;stroke-linejoin:round;" d="M186.671,56.671
				c-0.203-6.321-3.298-11.342-7.085-11.342c-3.789,0-6.883,5.021-7.087,11.342H186.671z"/>
			
				<circle style="fill:#FFFFFF;stroke:#777768;stroke-width:0.5;stroke-linecap:round;stroke-linejoin:round;" cx="179.585" cy="40.289" r="3.979"/>
		</g>
		<g>
			
				<line style="fill:none;stroke:#777768;stroke-width:0.5;stroke-linecap:round;stroke-linejoin:round;" x1="165.586" y1="41.481" x2="173.965" y2="49.86"/>
			
				<rect x="162.297" y="42.729" transform="matrix(-0.7071 0.7071 -0.7071 -0.7071 313.4898 -40.1374)" style="fill:#65B724;stroke:#777768;stroke-width:0.5;stroke-linecap:round;stroke-linejoin:round;" width="5.522" height="4.256"/>
		</g>
	</g>
</g>
</svg>
