<?xml version="1.0" encoding="iso-8859-1"?>
<!-- Generator: Adobe Illustrator 13.0.0, SVG Export Plug-In . SVG Version: 6.00 Build 14948)  -->
<!DOCTYPE svg PUBLIC "-//W3C//DTD SVG 1.1//EN" "http://www.w3.org/Graphics/SVG/1.1/DTD/svg11.dtd">
<svg version="1.1" xmlns="http://www.w3.org/2000/svg" xmlns:xlink="http://www.w3.org/1999/xlink" x="0px" y="0px" width="378px"
	 height="140px" viewBox="0 0 378 140" style="enable-background:new 0 0 378 140;" xml:space="preserve">
<g id="Layer_2">
	<g>
		<rect style="fill:none;" width="378" height="140"/>
		<rect style="fill:#FFFFFF;" width="378" height="140"/>
	</g>
</g>
<g id="Layer_3">
	<g>
		<path style="fill:none;stroke:#404040;stroke-width:1.7771;stroke-linecap:round;" d="M256.5,70.002
			c0,37.277-30.221,67.498-67.498,67.498c-37.275,0-67.502-30.221-67.502-67.498c0-37.283,30.227-67.502,67.502-67.502
			C226.279,2.5,256.5,32.719,256.5,70.002z"/>
		
			<line style="fill:none;stroke:#404040;stroke-width:1.7771;stroke-linecap:round;" x1="189.002" y1="2.5" x2="189.002" y2="10.561"/>
		
			<line style="fill:none;stroke:#404040;stroke-width:1.7771;stroke-linecap:round;" x1="189.002" y1="137.5" x2="189.002" y2="129.439"/>
		
			<line style="fill:none;stroke:#404040;stroke-width:1.7771;stroke-linecap:round;" x1="121.5" y1="70.002" x2="129.561" y2="70.002"/>
		
			<line style="fill:none;stroke:#404040;stroke-width:1.7771;stroke-linecap:round;" x1="256.5" y1="70.002" x2="248.439" y2="70.002"/>
		<line style="fill:none;stroke:#404040;stroke-width:0.8882;" x1="226.211" y1="13.68" x2="223.719" y2="17.711"/>
		<line style="fill:none;stroke:#404040;stroke-width:0.8882;" x1="248.264" y1="38.078" x2="244.32" y2="40.705"/>
		<line style="fill:none;stroke:#404040;stroke-width:0.8882;" x1="248.857" y1="101.227" x2="244.826" y2="99.213"/>
		<line style="fill:none;stroke:#404040;stroke-width:0.8882;" x1="224.297" y1="127.553" x2="221.967" y2="123.521"/>
		<line style="fill:none;stroke:#404040;stroke-width:0.8882;" x1="150.366" y1="125.355" x2="153.586" y2="121.324"/>
		<line style="fill:none;stroke:#404040;stroke-width:0.8882;" x1="128.948" y1="99.893" x2="132.977" y2="97.533"/>
		<line style="fill:none;stroke:#404040;stroke-width:0.8882;" x1="128.293" y1="40.49" x2="132.323" y2="42.957"/>
		<line style="fill:none;stroke:#404040;stroke-width:0.8882;" x1="150.157" y1="14.793" x2="152.926" y2="18.822"/>
		
			<line style="fill:none;stroke:#404040;stroke-width:7.1083;stroke-linecap:round;stroke-linejoin:round;" x1="189.002" y1="70.002" x2="148.762" y2="78.367"/>
		
			<line style="fill:none;stroke:#404040;stroke-width:7.1083;stroke-linecap:round;stroke-linejoin:round;" x1="189.002" y1="70.002" x2="135.821" y2="70.279"/>
	</g>
</g>
</svg>
