<?xml version="1.0" encoding="iso-8859-1"?>
<!-- Generator: Adobe Illustrator 13.0.0, SVG Export Plug-In . SVG Version: 6.00 Build 14948)  -->
<!DOCTYPE svg PUBLIC "-//W3C//DTD SVG 1.1//EN" "http://www.w3.org/Graphics/SVG/1.1/DTD/svg11.dtd">
<svg version="1.1" xmlns="http://www.w3.org/2000/svg" xmlns:xlink="http://www.w3.org/1999/xlink" x="0px" y="0px" width="378px"
	 height="140px" viewBox="0 0 378 140" style="enable-background:new 0 0 378 140;" xml:space="preserve">
<g id="Layer_2">
	<g>
		<rect style="fill:none;" width="378" height="140"/>
		<rect style="fill:#FFFFFF;" width="378" height="140"/>
	</g>
</g>
<g id="Layer_4">
	<path style="fill:#FFFFFF;stroke:#777768;stroke-width:1.1991;stroke-linecap:round;stroke-linejoin:round;" d="M166.578,64.003
		c0,0.789-0.636,1.431-1.426,1.431c-0.783,0-1.428-0.642-1.428-1.431c0-0.786,0.646-1.425,1.428-1.425
		C165.942,62.578,166.578,63.217,166.578,64.003z"/>
	<path style="fill:#FFFFFF;stroke:#777768;stroke-width:1.799;stroke-linecap:round;stroke-linejoin:round;" d="M171.804,20.798
		c0,4.421-2.74,8.003-6.11,8.003c-3.373,0-6.116-3.583-6.116-8.003c0-4.419,2.743-8.003,6.116-8.003
		C169.064,12.795,171.804,16.379,171.804,20.798z"/>
	<path style="fill:none;stroke:#777768;stroke-width:1.799;stroke-linecap:round;stroke-linejoin:round;" d="M165.844,29.12
		c-0.029,5.585,0.75,22.104-0.318,27.467c-0.957,4.789-1.383,3.336-0.427,10.042c1.198,8.401-1.499,16.596-1.786,20.846
		c-1.487,22.039-1.622,21.486,3.489,20.846"/>
	<path style="fill:none;stroke:#777768;stroke-width:1.1991;stroke-linecap:round;stroke-linejoin:round;" d="M166.176,34.125
		c1.989,1.77,4.219,3.142,6.246,4.946c2.991,2.665,5.8,5.9,9.284,7.916c2.038,1.179,6.784,4.383,9.206,4.215
		c1.545-0.107,4.776-3.041,5.364-3.01c0.892,0.53-1.599,2.104-0.451,1.75c0.537-0.166,3.778-0.036,3.778,0.449
		c0.127,0.344-0.393,0.684-0.393,0.684s1.072,0.191,1.072,0.662c0,0.44-0.74,0.289-0.74,0.289s0.703,0.449,0.703,0.797
		c0,0.1-0.928,0.086-0.928,0.086s0.449,0.266,0.1,0.616c-1.77-0.065-7.729-2.001-8.855-2.323"/>
</g>
<g id="Layer_3">
	<polyline style="fill:#FFFFFF;stroke:#777768;stroke-width:0.6389;stroke-linecap:round;stroke-linejoin:round;" points="
		202.371,8.281 180.734,8.281 180.734,102.758 216.452,113.466 	"/>
	<g>
		
			<line style="fill:none;stroke:#777768;stroke-width:0.6389;stroke-linecap:round;stroke-linejoin:round;" x1="216.452" y1="113.466" x2="345.719" y2="113.466"/>
		<polyline style="fill:#FFFFFF;stroke:#777768;stroke-width:0.6389;stroke-linecap:round;stroke-linejoin:round;" points="
			163.452,8.281 163.452,113.466 163.452,113.466 32.283,113.466 		"/>
		<polyline style="fill:none;stroke:#777768;stroke-width:0.6389;stroke-linecap:round;stroke-linejoin:round;" points="
			216.452,113.466 216.452,8.281 163.452,8.281 		"/>
		<polyline style="fill:none;stroke:#777768;stroke-width:0.6389;stroke-linecap:round;stroke-linejoin:round;" points="
			182.462,56.096 180.734,56.586 184.638,58.295 		"/>
	</g>
</g>
<g id="Layer_5">
	<path style="fill:none;stroke:#777768;stroke-width:1.199;stroke-linecap:round;stroke-linejoin:round;" d="M196.305,40.224
		c0.011,1.779-0.052,4.518-0.12,7.682"/>
	<path style="fill:#FFFFFF;stroke:#777768;stroke-width:1.199;stroke-linecap:round;stroke-linejoin:round;" d="M188.578,29.733
		c0,5.591,3.457,10.12,7.727,10.12c4.266,0,7.729-4.529,7.729-10.12c0-5.585-3.463-10.115-7.729-10.115
		C192.035,19.619,188.578,24.148,188.578,29.733z"/>
	<path style="fill:none;stroke:#777768;stroke-width:1.199;stroke-linecap:round;stroke-linejoin:round;" d="M196.073,53.585
		c-0.115,7.135-0.102,14.776,0.604,18.28c1.097,5.517,3.31,3.312,2.204,11.038c-1.383,9.68-5.152,17.661-4.045,22.441
		c6.022,26.114,6.251,26.861,0.369,26.124"/>
	<path style="fill:#FFFFFF;stroke:#777768;stroke-width:1.1991;stroke-linecap:round;stroke-linejoin:round;" d="M191.692,50.718
		c0,1.726,1.396,3.127,3.126,3.127c1.729,0,3.133-1.401,3.133-3.127c0-1.727-1.404-3.128-3.133-3.128
		C193.089,47.59,191.692,48.992,191.692,50.718z"/>
	<g>
		
			<rect x="128.621" y="8.281" style="fill:#777768;stroke:#777768;stroke-width:0.8711;stroke-linecap:round;stroke-linejoin:round;" width="2.879" height="8.758"/>
		
			<rect x="128.621" y="11.566" style="fill:#777768;stroke:#777768;stroke-width:0.8711;stroke-linecap:round;stroke-linejoin:round;" width="14.969" height="30.049"/>
		<g>
			<path style="fill:#FFFFFF;" d="M137.529,32.576c0,0.131-0.077,0.236-0.17,0.236h-2.52c-0.093,0-0.171-0.105-0.171-0.236v-1.134
				c0-0.131,0.078-0.236,0.171-0.236h2.52c0.093,0,0.17,0.105,0.17,0.236V32.576z"/>
			<path style="fill:#FFFFFF;" d="M133.446,32.576c0,0.131-0.077,0.236-0.17,0.236h-2.521c-0.094,0-0.171-0.105-0.171-0.236v-1.134
				c0-0.131,0.077-0.236,0.171-0.236h2.521c0.093,0,0.17,0.105,0.17,0.236V32.576z"/>
			<path style="fill:#FFFFFF;" d="M141.613,32.576c0,0.131-0.077,0.236-0.17,0.236h-2.521c-0.094,0-0.17-0.105-0.17-0.236v-1.134
				c0-0.131,0.077-0.236,0.17-0.236h2.521c0.094,0,0.17,0.105,0.17,0.236V32.576z"/>
		</g>
		<g>
			<path style="fill:#FFFFFF;" d="M137.529,35.516c0,0.131-0.077,0.236-0.17,0.236h-2.52c-0.093,0-0.171-0.105-0.171-0.236v-1.135
				c0-0.131,0.078-0.236,0.171-0.236h2.52c0.093,0,0.17,0.105,0.17,0.236V35.516z"/>
			<path style="fill:#FFFFFF;" d="M133.446,35.516c0,0.131-0.077,0.236-0.17,0.236h-2.521c-0.094,0-0.171-0.105-0.171-0.236v-1.135
				c0-0.131,0.077-0.236,0.171-0.236h2.521c0.093,0,0.17,0.105,0.17,0.236V35.516z"/>
			<path style="fill:#FFFFFF;" d="M141.613,35.516c0,0.131-0.077,0.236-0.17,0.236h-2.521c-0.094,0-0.17-0.105-0.17-0.236v-1.135
				c0-0.131,0.077-0.236,0.17-0.236h2.521c0.094,0,0.17,0.105,0.17,0.236V35.516z"/>
		</g>
		<g>
			<path style="fill:#FFFFFF;" d="M137.529,38.455c0,0.131-0.077,0.236-0.17,0.236h-2.52c-0.093,0-0.171-0.105-0.171-0.236V37.32
				c0-0.13,0.078-0.236,0.171-0.236h2.52c0.093,0,0.17,0.106,0.17,0.236V38.455z"/>
			<path style="fill:#FFFFFF;" d="M133.446,38.455c0,0.131-0.077,0.236-0.17,0.236h-2.521c-0.094,0-0.171-0.105-0.171-0.236V37.32
				c0-0.13,0.077-0.236,0.171-0.236h2.521c0.093,0,0.17,0.106,0.17,0.236V38.455z"/>
			<path style="fill:#FFFFFF;" d="M141.613,38.455c0,0.131-0.077,0.236-0.17,0.236h-2.521c-0.094,0-0.17-0.105-0.17-0.236V37.32
				c0-0.13,0.077-0.236,0.17-0.236h2.521c0.094,0,0.17,0.106,0.17,0.236V38.455z"/>
		</g>
		<g>
			<path style="fill:#FFFFFF;" d="M137.529,29.637c0,0.131-0.077,0.236-0.17,0.236h-2.52c-0.093,0-0.171-0.105-0.171-0.236v-1.134
				c0-0.131,0.078-0.237,0.171-0.237h2.52c0.093,0,0.17,0.106,0.17,0.237V29.637z"/>
			<path style="fill:#FFFFFF;" d="M133.446,29.637c0,0.131-0.077,0.236-0.17,0.236h-2.521c-0.094,0-0.171-0.105-0.171-0.236v-1.134
				c0-0.131,0.077-0.237,0.171-0.237h2.521c0.093,0,0.17,0.106,0.17,0.237V29.637z"/>
			<path style="fill:#FFFFFF;" d="M141.613,29.637c0,0.131-0.077,0.236-0.17,0.236h-2.521c-0.094,0-0.17-0.105-0.17-0.236v-1.134
				c0-0.131,0.077-0.237,0.17-0.237h2.521c0.094,0,0.17,0.106,0.17,0.237V29.637z"/>
		</g>
		<path style="fill:#FFFFFF;" d="M141.613,25.16c0,0.165-0.079,0.298-0.173,0.298H130.8c-0.096,0-0.172-0.133-0.172-0.298V14.652
			c0-0.165,0.077-0.298,0.172-0.298h10.64c0.095,0,0.173,0.133,0.173,0.298V25.16z"/>
	</g>
</g>
</svg>
