<?xml version="1.0" encoding="iso-8859-1"?>
<!-- Generator: Adobe Illustrator 13.0.0, SVG Export Plug-In . SVG Version: 6.00 Build 14948)  -->
<!DOCTYPE svg PUBLIC "-//W3C//DTD SVG 1.1//EN" "http://www.w3.org/Graphics/SVG/1.1/DTD/svg11.dtd">
<svg version="1.1" xmlns="http://www.w3.org/2000/svg" xmlns:xlink="http://www.w3.org/1999/xlink" x="0px" y="0px" width="378px"
	 height="140px" viewBox="0 0 378 140" style="enable-background:new 0 0 378 140;" xml:space="preserve">
<g id="Layer_2">
	<g>
		<rect style="fill:none;" width="378" height="140"/>
		<rect style="fill:#FFFFFF;" width="378" height="140"/>
	</g>
</g>
<g id="Layer_3">
	<g>
		<path style="opacity:0.65;fill:#FFFFFF;stroke:#777768;stroke-linecap:round;stroke-linejoin:round;" d="M189.806,16.25
			c0,7.594-5.009,13.748-11.189,13.748c-6.175,0-11.184-6.154-11.184-13.748c0-7.598,5.009-13.75,11.184-13.75
			C184.797,2.5,189.806,8.653,189.806,16.25z"/>
		<path style="opacity:0.65;fill:none;stroke:#777768;stroke-linecap:round;stroke-linejoin:round;" d="M178.616,29.999
			c0,5.312-0.239,31.504-1.856,47.535c-1.483,14.682-9.327,50.674-15.143,58.48h-5.641"/>
		<path style="opacity:0.65;fill:#FFFFFF;stroke:#777768;stroke-linecap:round;stroke-linejoin:round;" d="M176.728,75.463
			c-0.94,9.717,6.856,51.947,10.125,61.445c0,0-0.295,0,5.285,0.295"/>
		<path style="opacity:0.65;fill:none;stroke:#777768;stroke-linecap:round;stroke-linejoin:round;" d="M163.392,84.105
			c-2.812-8.014,7.059-37.156,15.19-36.728c5.283,0.266,20.696-7.487,25.782-5.762"/>
		<path style="opacity:0.65;fill:#FFFFFF;stroke:#777768;stroke-linecap:round;stroke-linejoin:round;" d="M174.425,14.614
			c0.559-0.785,0.609-1.136,0.134-1.071c-0.186,0.566-0.08,0.973-0.134,1.54"/>
		<path style="opacity:0.65;fill:#FFFFFF;stroke:#777768;stroke-linecap:round;stroke-linejoin:round;" d="M182.841,14.614
			c-0.552-0.785-0.604-1.136-0.139-1.071c0.189,0.566,0.092,0.973,0.139,1.54"/>
		<path style="opacity:0.65;fill:#FFFFFF;stroke:#777768;stroke-linecap:round;stroke-linejoin:round;" d="M175.358,23.01
			c2.066,1.135,4.604,2.777,6.052,0.459"/>
		<path style="opacity:0.65;fill:#777768;stroke:#777768;stroke-width:0.7195;stroke-linecap:round;stroke-linejoin:round;" d="
			M179.378,21.091c-0.623-0.245-0.648,0.718,0.196,0.84c0.619,0.088,1.135,0.041,1.704,0.267c0.954,0.384,2.241,1.317,2.609-0.311
			c-1.123,1.923-3.942-2.516-4.769-0.739"/>
		<path style="opacity:0.65;fill:#777768;stroke:#777768;stroke-width:0.7195;stroke-linecap:round;stroke-linejoin:round;" d="
			M177.756,21.091c0.621-0.245,0.656,0.718-0.197,0.84c-0.609,0.088-1.132,0.041-1.693,0.267c-0.958,0.384-2.245,1.317-2.615-0.311
			c1.123,1.923,3.945-2.516,4.765-0.739"/>
	</g>
	<g>
		<path style="fill:#FFFFFF;stroke:#777768;stroke-width:1.5;" d="M208.776,26.178c0,6.309-4.342,11.43-9.699,11.43
			c-5.355,0-9.702-5.121-9.702-11.43c0-6.311,4.347-11.425,9.702-11.425C204.435,14.753,208.776,19.868,208.776,26.178z"/>
		<path style="fill:#FFFFFF;stroke:#777768;stroke-width:1.5;" d="M199.749,37.871c0,7.274,1.251,14.312,1.325,21.532
			c0.042,4.317-0.519,8.646-0.78,12.939c-0.399,6.535-4.497,12.105-7.454,17.875c-2.476,4.828-4.788,9.67-7.444,14.406
			c-1.617,2.879-3.97,5.914-4.626,9.209c13.35-0.344,28.445-6.504,41.253-2.141c-2.462-3.771-6.054-7.111-8.727-10.84
			c-4.036-5.668-6.952-10.479-9.019-17.09c-1.045-3.34-1.744-6.732-2.414-10.01c-0.414-1.986-1.245-4.016-1.051-6.131"/>
		<path style="fill:none;stroke:#777768;stroke-width:1.5;stroke-linecap:round;stroke-linejoin:round;" d="M198.896,111.42
			c0.552,5.072,1.199,22.945,0.799,25.783c-0.566,0.568-1.84,0.049-2.872,0.297"/>
		<path style="fill:none;stroke:#777768;stroke-width:1.5;stroke-linecap:round;stroke-linejoin:round;" d="M205.585,110.668
			c0.132,2.703,1.744,24.631,2.656,25.541c0.688,0.684,1.436,0.457,3.409-0.078"/>
		<g>
			<path style="fill:none;stroke:#777768;stroke-width:0.9636;stroke-linecap:round;stroke-linejoin:round;" d="M195.494,23.857
				c-0.067,0.18-0.067,0.34,0.031,0.483c0.04-0.119,0.056-0.226,0.044-0.352c-0.004,0.048-0.021,0.142-0.035,0.204
				c0-0.085-0.001-0.172,0-0.25"/>
			<path style="fill:none;stroke:#777768;stroke-width:0.2167;stroke-linecap:round;stroke-linejoin:round;" d="M195.177,23.811
				c-0.107-0.19-0.203-0.4-0.219-0.621"/>
			<path style="fill:none;stroke:#777768;stroke-width:0.2167;stroke-linecap:round;stroke-linejoin:round;" d="M195.274,22.988
				c0.087,0.132,0.087,0.621,0.087,0.782"/>
			<path style="fill:none;stroke:#777768;stroke-width:0.2167;stroke-linecap:round;stroke-linejoin:round;" d="M195.534,23.77
				c-0.009-0.271,0.177-0.465,0.191-0.744"/>
			<path style="fill:none;stroke:#777768;stroke-width:0.2167;stroke-linecap:round;stroke-linejoin:round;" d="M195.668,23.77
				c0.208-0.143,0.402-0.396,0.359-0.632"/>
		</g>
		<g>
			<path style="fill:none;stroke:#777768;stroke-width:0.9636;stroke-linecap:round;stroke-linejoin:round;" d="M203.109,23.857
				c0.062,0.18,0.062,0.34-0.04,0.483c-0.029-0.119-0.054-0.226-0.043-0.352c0.014,0.048,0.029,0.142,0.04,0.204
				c0-0.085,0-0.172,0-0.25"/>
			<path style="fill:none;stroke:#777768;stroke-width:0.2167;stroke-linecap:round;stroke-linejoin:round;" d="M203.424,23.811
				c0.105-0.19,0.206-0.371,0.357-0.597"/>
			<path style="fill:none;stroke:#777768;stroke-width:0.2167;stroke-linecap:round;stroke-linejoin:round;" d="M203.518,22.988
				c-0.08,0.132-0.276,0.621-0.276,0.782"/>
			<path style="fill:none;stroke:#777768;stroke-width:0.2167;stroke-linecap:round;stroke-linejoin:round;" d="M203.066,23.77
				c0.003-0.271-0.104-0.578-0.113-0.857"/>
			<path style="fill:none;stroke:#777768;stroke-width:0.2167;stroke-linecap:round;stroke-linejoin:round;" d="M202.929,23.77
				c-0.239-0.255-0.277-0.33-0.429-0.67"/>
		</g>
		<path style="fill:#DE1608;stroke:#DE1608;stroke-width:0.25;stroke-linecap:round;stroke-linejoin:round;" d="M195.938,31.174
			c0.439,0.196,0.732,0.469,1.282,0.314c0.208-0.049,0.368-0.228,0.571-0.274c0.357-0.094,0.312,0.104,0.577,0.143
			c0.288,0.04,0.231-0.196,0.536-0.186c0.139,0.003,0.41,0.269,0.574,0.313c0.484,0.113,1.262,0.104,1.673-0.128
			c-0.769,0.617-1.381,2.02-2.604,1.713c-0.568-0.149-1.011-0.522-1.415-0.906c-0.236-0.234-0.831-0.614-0.931-0.862"/>
		<path style="fill:none;stroke:#777768;stroke-width:1.5;stroke-linecap:round;stroke-linejoin:round;" d="M194.694,86.402
			c-0.079-4.619-1.473-9.469-1.691-14.211c-0.243-5.389,0.257-9.76,1.255-14.934c0.771-4.047,1.687-13.025,5.597-15.449
			c2.178,2.178,4.398,7.492,6.076,11.559c2.597,6.266,2.569,7.077,3.197,13.741c0.436,4.615,1.693,14.336,0.596,16.793"/>
	</g>
	<g>
		<path style="fill:none;stroke:#777768;stroke-width:0.4261;stroke-linecap:round;stroke-linejoin:round;" d="M163.199,84.342
			c0.404,3.857,1.481,8.541,3.523,11.785c-2.446-5.283-3.017-10.135-3.376-11.932c1.32,3.164,4.689,7.344,6.468,10.236
			c-1.507-2.09-4.45-8.395-5.988-9.598c1.891,0.682,7.576,5.668,9.252,7.344c-2.829-2.256-6.773-6.238-9.731-7.982
			c2.832-0.213,6.981,3.365,9.046,4.91c-1.033-0.615-6.653-4.811-8.89-5.127c1.513-0.367,5.978-1.098,6.284-1.123"/>
	</g>
	<g>
		<path style="fill:none;stroke:#777768;stroke-width:0.75;stroke-linecap:round;stroke-linejoin:round;" d="M209.724,83.9
			c-0.403,3.855-1.48,8.541-3.522,11.785c2.444-5.285,3.018-10.137,3.375-11.934c-1.32,3.164-4.687,7.346-6.467,10.236
			c1.506-2.088,4.45-8.395,5.987-9.596c-1.891,0.682-7.576,5.668-9.253,7.342c2.832-2.256,6.773-6.236,9.732-7.982
			c-2.832-0.211-6.982,3.367-9.047,4.91c1.036-0.613,6.655-4.809,8.891-5.127c-1.514-0.365-5.976-1.096-6.284-1.121"/>
	</g>
</g>
</svg>
