<?xml version="1.0" encoding="iso-8859-1"?>
<!-- Generator: Adobe Illustrator 13.0.0, SVG Export Plug-In . SVG Version: 6.00 Build 14948)  -->
<!DOCTYPE svg PUBLIC "-//W3C//DTD SVG 1.1//EN" "http://www.w3.org/Graphics/SVG/1.1/DTD/svg11.dtd">
<svg version="1.1" xmlns="http://www.w3.org/2000/svg" xmlns:xlink="http://www.w3.org/1999/xlink" x="0px" y="0px" width="378px"
	 height="140px" viewBox="0 0 378 140" style="enable-background:new 0 0 378 140;" xml:space="preserve">
<g id="fond">
	<g>
		<rect style="fill:#FFFFFF;" width="378" height="140"/>
	</g>
</g>
<g id="feuille">
	<rect x="150.121" y="12.682" style="fill:none;stroke:#7E7A64;stroke-width:0.25;" width="77.758" height="113.662"/>
	
		<line style="fill:none;stroke:#7E7A64;stroke-width:0.8748;stroke-linecap:round;stroke-linejoin:round;" x1="219.992" y1="21.32" x2="196.569" y2="21.32"/>
	
		<line style="fill:none;stroke:#7E7A64;stroke-width:0.8748;stroke-linecap:round;stroke-linejoin:round;" x1="219.992" y1="46.75" x2="196.569" y2="46.75"/>
	
		<line style="fill:none;stroke:#7E7A64;stroke-width:0.8748;stroke-linecap:round;stroke-linejoin:round;" x1="219.992" y1="24.569" x2="196.569" y2="24.569"/>
</g>
<g id="tableau">
	<g>
		
			<line style="fill:#D6D4D2;stroke:#7E7A64;stroke-width:0.2002;stroke-linecap:round;stroke-linejoin:round;" x1="154.875" y1="53.25" x2="225.137" y2="53.25"/>
		<g>
			<rect x="154.875" y="58.07" style="fill:#D6D4D2;" width="70.25" height="4.875"/>
			
				<line style="fill:none;stroke:#7E7A64;stroke-width:0.2002;stroke-linecap:round;stroke-linejoin:round;" x1="156.167" y1="60.508" x2="178" y2="60.508"/>
			
				<line style="fill:none;stroke:#7E7A64;stroke-width:0.2002;stroke-linecap:round;stroke-linejoin:round;" x1="180.51" y1="60.508" x2="185.01" y2="60.508"/>
			
				<line style="fill:none;stroke:#7E7A64;stroke-width:0.2002;stroke-linecap:round;stroke-linejoin:round;" x1="187.521" y1="60.508" x2="192.021" y2="60.508"/>
			
				<line style="fill:none;stroke:#7E7A64;stroke-width:0.2002;stroke-linecap:round;stroke-linejoin:round;" x1="194.531" y1="60.508" x2="199.031" y2="60.508"/>
			
				<line style="fill:none;stroke:#7E7A64;stroke-width:0.2002;stroke-linecap:round;stroke-linejoin:round;" x1="201.542" y1="60.508" x2="206.042" y2="60.508"/>
			
				<line style="fill:none;stroke:#7E7A64;stroke-width:0.2002;stroke-linecap:round;stroke-linejoin:round;" x1="208.552" y1="60.508" x2="213.052" y2="60.508"/>
			
				<line style="fill:none;stroke:#7E7A64;stroke-width:0.2002;stroke-linecap:round;stroke-linejoin:round;" x1="215.562" y1="60.508" x2="220.062" y2="60.508"/>
		</g>
		<g>
			
				<line style="fill:none;stroke:#7E7A64;stroke-width:0.2002;stroke-linecap:round;stroke-linejoin:round;" x1="156.167" y1="65.312" x2="178" y2="65.312"/>
			
				<line style="fill:none;stroke:#7E7A64;stroke-width:0.2002;stroke-linecap:round;stroke-linejoin:round;" x1="180.51" y1="65.312" x2="185.01" y2="65.312"/>
			
				<line style="fill:none;stroke:#7E7A64;stroke-width:0.2002;stroke-linecap:round;stroke-linejoin:round;" x1="187.521" y1="65.312" x2="192.021" y2="65.312"/>
			
				<line style="fill:none;stroke:#7E7A64;stroke-width:0.2002;stroke-linecap:round;stroke-linejoin:round;" x1="194.531" y1="65.312" x2="199.031" y2="65.312"/>
			
				<line style="fill:none;stroke:#7E7A64;stroke-width:0.2002;stroke-linecap:round;stroke-linejoin:round;" x1="201.542" y1="65.312" x2="206.042" y2="65.312"/>
			
				<line style="fill:none;stroke:#7E7A64;stroke-width:0.2002;stroke-linecap:round;stroke-linejoin:round;" x1="208.552" y1="65.312" x2="213.052" y2="65.312"/>
			
				<line style="fill:none;stroke:#7E7A64;stroke-width:0.2002;stroke-linecap:round;stroke-linejoin:round;" x1="215.562" y1="65.312" x2="220.062" y2="65.312"/>
		</g>
		<g>
			<rect x="154.875" y="67.688" style="fill:#D6D4D2;" width="70.25" height="4.875"/>
			
				<line style="fill:none;stroke:#7E7A64;stroke-width:0.2002;stroke-linecap:round;stroke-linejoin:round;" x1="156.167" y1="70.125" x2="178" y2="70.125"/>
			
				<line style="fill:none;stroke:#7E7A64;stroke-width:0.2002;stroke-linecap:round;stroke-linejoin:round;" x1="180.51" y1="70.125" x2="185.01" y2="70.125"/>
			
				<line style="fill:none;stroke:#7E7A64;stroke-width:0.2002;stroke-linecap:round;stroke-linejoin:round;" x1="187.521" y1="70.125" x2="192.021" y2="70.125"/>
			
				<line style="fill:none;stroke:#7E7A64;stroke-width:0.2002;stroke-linecap:round;stroke-linejoin:round;" x1="194.531" y1="70.125" x2="199.031" y2="70.125"/>
			
				<line style="fill:none;stroke:#7E7A64;stroke-width:0.2002;stroke-linecap:round;stroke-linejoin:round;" x1="201.542" y1="70.125" x2="206.042" y2="70.125"/>
			
				<line style="fill:none;stroke:#7E7A64;stroke-width:0.2002;stroke-linecap:round;stroke-linejoin:round;" x1="208.552" y1="70.125" x2="213.052" y2="70.125"/>
			
				<line style="fill:none;stroke:#7E7A64;stroke-width:0.2002;stroke-linecap:round;stroke-linejoin:round;" x1="215.562" y1="70.125" x2="220.062" y2="70.125"/>
		</g>
		<g>
			
				<line style="fill:none;stroke:#7E7A64;stroke-width:0.2002;stroke-linecap:round;stroke-linejoin:round;" x1="156.167" y1="75" x2="178" y2="75"/>
			
				<line style="fill:none;stroke:#7E7A64;stroke-width:0.2002;stroke-linecap:round;stroke-linejoin:round;" x1="180.51" y1="75" x2="185.01" y2="75"/>
			
				<line style="fill:none;stroke:#7E7A64;stroke-width:0.2002;stroke-linecap:round;stroke-linejoin:round;" x1="187.521" y1="75" x2="192.021" y2="75"/>
			
				<line style="fill:none;stroke:#7E7A64;stroke-width:0.2002;stroke-linecap:round;stroke-linejoin:round;" x1="194.531" y1="75" x2="199.031" y2="75"/>
			
				<line style="fill:none;stroke:#7E7A64;stroke-width:0.2002;stroke-linecap:round;stroke-linejoin:round;" x1="201.542" y1="75" x2="206.042" y2="75"/>
			
				<line style="fill:none;stroke:#7E7A64;stroke-width:0.2002;stroke-linecap:round;stroke-linejoin:round;" x1="208.552" y1="75" x2="213.052" y2="75"/>
			
				<line style="fill:none;stroke:#7E7A64;stroke-width:0.2002;stroke-linecap:round;stroke-linejoin:round;" x1="215.562" y1="75" x2="220.062" y2="75"/>
		</g>
		<g>
			<rect x="154.875" y="77.375" style="fill:#D6D4D2;" width="70.25" height="4.875"/>
			
				<line style="fill:none;stroke:#7E7A64;stroke-width:0.2002;stroke-linecap:round;stroke-linejoin:round;" x1="156.167" y1="79.812" x2="178" y2="79.812"/>
			
				<line style="fill:none;stroke:#7E7A64;stroke-width:0.2002;stroke-linecap:round;stroke-linejoin:round;" x1="180.51" y1="79.812" x2="185.01" y2="79.812"/>
			
				<line style="fill:none;stroke:#7E7A64;stroke-width:0.2002;stroke-linecap:round;stroke-linejoin:round;" x1="187.521" y1="79.812" x2="192.021" y2="79.812"/>
			
				<line style="fill:none;stroke:#7E7A64;stroke-width:0.2002;stroke-linecap:round;stroke-linejoin:round;" x1="194.531" y1="79.812" x2="199.031" y2="79.812"/>
			
				<line style="fill:none;stroke:#7E7A64;stroke-width:0.2002;stroke-linecap:round;stroke-linejoin:round;" x1="201.542" y1="79.812" x2="206.042" y2="79.812"/>
			
				<line style="fill:none;stroke:#7E7A64;stroke-width:0.2002;stroke-linecap:round;stroke-linejoin:round;" x1="208.552" y1="79.812" x2="213.052" y2="79.812"/>
			
				<line style="fill:none;stroke:#7E7A64;stroke-width:0.2002;stroke-linecap:round;stroke-linejoin:round;" x1="215.562" y1="79.812" x2="220.062" y2="79.812"/>
		</g>
		<g>
			
				<line style="fill:none;stroke:#7E7A64;stroke-width:0.2002;stroke-linecap:round;stroke-linejoin:round;" x1="156.167" y1="84.625" x2="178" y2="84.625"/>
			
				<line style="fill:none;stroke:#7E7A64;stroke-width:0.2002;stroke-linecap:round;stroke-linejoin:round;" x1="180.51" y1="84.625" x2="185.01" y2="84.625"/>
			
				<line style="fill:none;stroke:#7E7A64;stroke-width:0.2002;stroke-linecap:round;stroke-linejoin:round;" x1="187.521" y1="84.625" x2="192.021" y2="84.625"/>
			
				<line style="fill:none;stroke:#7E7A64;stroke-width:0.2002;stroke-linecap:round;stroke-linejoin:round;" x1="194.531" y1="84.625" x2="199.031" y2="84.625"/>
			
				<line style="fill:none;stroke:#7E7A64;stroke-width:0.2002;stroke-linecap:round;stroke-linejoin:round;" x1="201.542" y1="84.625" x2="206.042" y2="84.625"/>
			
				<line style="fill:none;stroke:#7E7A64;stroke-width:0.2002;stroke-linecap:round;stroke-linejoin:round;" x1="208.552" y1="84.625" x2="213.052" y2="84.625"/>
			
				<line style="fill:none;stroke:#7E7A64;stroke-width:0.2002;stroke-linecap:round;stroke-linejoin:round;" x1="215.562" y1="84.625" x2="220.062" y2="84.625"/>
		</g>
		<g>
			<rect x="154.875" y="86.938" style="fill:#D6D4D2;" width="70.25" height="4.875"/>
			
				<line style="fill:none;stroke:#7E7A64;stroke-width:0.2002;stroke-linecap:round;stroke-linejoin:round;" x1="156.167" y1="89.375" x2="178" y2="89.375"/>
			
				<line style="fill:none;stroke:#7E7A64;stroke-width:0.2002;stroke-linecap:round;stroke-linejoin:round;" x1="180.51" y1="89.375" x2="185.01" y2="89.375"/>
			
				<line style="fill:none;stroke:#7E7A64;stroke-width:0.2002;stroke-linecap:round;stroke-linejoin:round;" x1="187.521" y1="89.375" x2="192.021" y2="89.375"/>
			
				<line style="fill:none;stroke:#7E7A64;stroke-width:0.2002;stroke-linecap:round;stroke-linejoin:round;" x1="194.531" y1="89.375" x2="199.031" y2="89.375"/>
			
				<line style="fill:none;stroke:#7E7A64;stroke-width:0.2002;stroke-linecap:round;stroke-linejoin:round;" x1="201.542" y1="89.375" x2="206.042" y2="89.375"/>
			
				<line style="fill:none;stroke:#7E7A64;stroke-width:0.2002;stroke-linecap:round;stroke-linejoin:round;" x1="208.552" y1="89.375" x2="213.052" y2="89.375"/>
			
				<line style="fill:none;stroke:#7E7A64;stroke-width:0.2002;stroke-linecap:round;stroke-linejoin:round;" x1="215.562" y1="89.375" x2="220.062" y2="89.375"/>
		</g>
		<g>
			
				<line style="fill:none;stroke:#7E7A64;stroke-width:0.2002;stroke-linecap:round;stroke-linejoin:round;" x1="156.167" y1="94.25" x2="178" y2="94.25"/>
			
				<line style="fill:none;stroke:#7E7A64;stroke-width:0.2002;stroke-linecap:round;stroke-linejoin:round;" x1="180.51" y1="94.25" x2="185.01" y2="94.25"/>
			
				<line style="fill:none;stroke:#7E7A64;stroke-width:0.2002;stroke-linecap:round;stroke-linejoin:round;" x1="187.521" y1="94.25" x2="192.021" y2="94.25"/>
			
				<line style="fill:none;stroke:#7E7A64;stroke-width:0.2002;stroke-linecap:round;stroke-linejoin:round;" x1="194.531" y1="94.25" x2="199.031" y2="94.25"/>
			
				<line style="fill:none;stroke:#7E7A64;stroke-width:0.2002;stroke-linecap:round;stroke-linejoin:round;" x1="201.542" y1="94.25" x2="206.042" y2="94.25"/>
			
				<line style="fill:none;stroke:#7E7A64;stroke-width:0.2002;stroke-linecap:round;stroke-linejoin:round;" x1="208.552" y1="94.25" x2="213.052" y2="94.25"/>
			
				<line style="fill:none;stroke:#7E7A64;stroke-width:0.2002;stroke-linecap:round;stroke-linejoin:round;" x1="215.562" y1="94.25" x2="220.062" y2="94.25"/>
		</g>
		<g>
			<rect x="154.875" y="96.625" style="fill:#D6D4D2;" width="70.25" height="4.875"/>
			
				<line style="fill:none;stroke:#7E7A64;stroke-width:0.2002;stroke-linecap:round;stroke-linejoin:round;" x1="156.167" y1="99.062" x2="178" y2="99.062"/>
			
				<line style="fill:none;stroke:#7E7A64;stroke-width:0.2002;stroke-linecap:round;stroke-linejoin:round;" x1="180.51" y1="99.062" x2="185.01" y2="99.062"/>
			
				<line style="fill:none;stroke:#7E7A64;stroke-width:0.2002;stroke-linecap:round;stroke-linejoin:round;" x1="187.521" y1="99.062" x2="192.021" y2="99.062"/>
			
				<line style="fill:none;stroke:#7E7A64;stroke-width:0.2002;stroke-linecap:round;stroke-linejoin:round;" x1="194.531" y1="99.062" x2="199.031" y2="99.062"/>
			
				<line style="fill:none;stroke:#7E7A64;stroke-width:0.2002;stroke-linecap:round;stroke-linejoin:round;" x1="201.542" y1="99.062" x2="206.042" y2="99.062"/>
			
				<line style="fill:none;stroke:#7E7A64;stroke-width:0.2002;stroke-linecap:round;stroke-linejoin:round;" x1="208.552" y1="99.062" x2="213.052" y2="99.062"/>
			
				<line style="fill:none;stroke:#7E7A64;stroke-width:0.2002;stroke-linecap:round;stroke-linejoin:round;" x1="215.562" y1="99.062" x2="220.062" y2="99.062"/>
		</g>
		<g>
			
				<line style="fill:none;stroke:#7E7A64;stroke-width:0.2002;stroke-linecap:round;stroke-linejoin:round;" x1="156.167" y1="103.938" x2="178" y2="103.938"/>
			
				<line style="fill:none;stroke:#7E7A64;stroke-width:0.2002;stroke-linecap:round;stroke-linejoin:round;" x1="180.51" y1="103.938" x2="185.01" y2="103.938"/>
			
				<line style="fill:none;stroke:#7E7A64;stroke-width:0.2002;stroke-linecap:round;stroke-linejoin:round;" x1="187.521" y1="103.938" x2="192.021" y2="103.938"/>
			
				<line style="fill:none;stroke:#7E7A64;stroke-width:0.2002;stroke-linecap:round;stroke-linejoin:round;" x1="194.531" y1="103.938" x2="199.031" y2="103.938"/>
			
				<line style="fill:none;stroke:#7E7A64;stroke-width:0.2002;stroke-linecap:round;stroke-linejoin:round;" x1="201.542" y1="103.938" x2="206.042" y2="103.938"/>
			
				<line style="fill:none;stroke:#7E7A64;stroke-width:0.2002;stroke-linecap:round;stroke-linejoin:round;" x1="208.552" y1="103.938" x2="213.052" y2="103.938"/>
			
				<line style="fill:none;stroke:#7E7A64;stroke-width:0.2002;stroke-linecap:round;stroke-linejoin:round;" x1="215.562" y1="103.938" x2="220.062" y2="103.938"/>
		</g>
		<g>
			<rect x="154.875" y="106.312" style="fill:#D6D4D2;" width="70.25" height="4.875"/>
			
				<line style="fill:none;stroke:#7E7A64;stroke-width:0.2002;stroke-linecap:round;stroke-linejoin:round;" x1="156.167" y1="108.75" x2="178" y2="108.75"/>
			
				<line style="fill:none;stroke:#7E7A64;stroke-width:0.2002;stroke-linecap:round;stroke-linejoin:round;" x1="180.51" y1="108.75" x2="185.01" y2="108.75"/>
			
				<line style="fill:none;stroke:#7E7A64;stroke-width:0.2002;stroke-linecap:round;stroke-linejoin:round;" x1="187.521" y1="108.75" x2="192.021" y2="108.75"/>
			
				<line style="fill:none;stroke:#7E7A64;stroke-width:0.2002;stroke-linecap:round;stroke-linejoin:round;" x1="194.531" y1="108.75" x2="199.031" y2="108.75"/>
			
				<line style="fill:none;stroke:#7E7A64;stroke-width:0.2002;stroke-linecap:round;stroke-linejoin:round;" x1="201.542" y1="108.75" x2="206.042" y2="108.75"/>
			
				<line style="fill:none;stroke:#7E7A64;stroke-width:0.2002;stroke-linecap:round;stroke-linejoin:round;" x1="208.552" y1="108.75" x2="213.052" y2="108.75"/>
			
				<line style="fill:none;stroke:#7E7A64;stroke-width:0.2002;stroke-linecap:round;stroke-linejoin:round;" x1="215.562" y1="108.75" x2="220.062" y2="108.75"/>
		</g>
		<g>
			
				<line style="fill:none;stroke:#7E7A64;stroke-width:0.2002;stroke-linecap:round;stroke-linejoin:round;" x1="156.167" y1="113.625" x2="178" y2="113.625"/>
			
				<line style="fill:none;stroke:#7E7A64;stroke-width:0.2002;stroke-linecap:round;stroke-linejoin:round;" x1="180.51" y1="113.625" x2="185.01" y2="113.625"/>
			
				<line style="fill:none;stroke:#7E7A64;stroke-width:0.2002;stroke-linecap:round;stroke-linejoin:round;" x1="187.521" y1="113.625" x2="192.021" y2="113.625"/>
			
				<line style="fill:none;stroke:#7E7A64;stroke-width:0.2002;stroke-linecap:round;stroke-linejoin:round;" x1="194.531" y1="113.625" x2="199.031" y2="113.625"/>
			
				<line style="fill:none;stroke:#7E7A64;stroke-width:0.2002;stroke-linecap:round;stroke-linejoin:round;" x1="201.542" y1="113.625" x2="206.042" y2="113.625"/>
			
				<line style="fill:none;stroke:#7E7A64;stroke-width:0.2002;stroke-linecap:round;stroke-linejoin:round;" x1="208.552" y1="113.625" x2="213.052" y2="113.625"/>
			
				<line style="fill:none;stroke:#7E7A64;stroke-width:0.2002;stroke-linecap:round;stroke-linejoin:round;" x1="215.562" y1="113.625" x2="220.062" y2="113.625"/>
		</g>
		<g>
			<rect x="154.875" y="116" style="fill:#D6D4D2;" width="70.25" height="4.875"/>
			
				<line style="fill:none;stroke:#7E7A64;stroke-width:0.2002;stroke-linecap:round;stroke-linejoin:round;" x1="156.167" y1="118.438" x2="178" y2="118.438"/>
			
				<line style="fill:none;stroke:#7E7A64;stroke-width:0.2002;stroke-linecap:round;stroke-linejoin:round;" x1="180.51" y1="118.438" x2="185.01" y2="118.438"/>
			
				<line style="fill:none;stroke:#7E7A64;stroke-width:0.2002;stroke-linecap:round;stroke-linejoin:round;" x1="187.521" y1="118.438" x2="192.021" y2="118.438"/>
			
				<line style="fill:none;stroke:#7E7A64;stroke-width:0.2002;stroke-linecap:round;stroke-linejoin:round;" x1="194.531" y1="118.438" x2="199.031" y2="118.438"/>
			
				<line style="fill:none;stroke:#7E7A64;stroke-width:0.2002;stroke-linecap:round;stroke-linejoin:round;" x1="201.542" y1="118.438" x2="206.042" y2="118.438"/>
			
				<line style="fill:none;stroke:#7E7A64;stroke-width:0.2002;stroke-linecap:round;stroke-linejoin:round;" x1="208.552" y1="118.438" x2="213.052" y2="118.438"/>
			
				<line style="fill:none;stroke:#7E7A64;stroke-width:0.2002;stroke-linecap:round;stroke-linejoin:round;" x1="215.562" y1="118.438" x2="220.062" y2="118.438"/>
		</g>
		<g>
			<path style="fill:none;stroke:#7E7A64;stroke-width:0.2002;stroke-linecap:round;stroke-linejoin:round;" d="M213.052,113.625"/>
			<path style="fill:none;stroke:#7E7A64;stroke-width:0.2002;stroke-linecap:round;stroke-linejoin:round;" d="M208.552,113.625"/>
			<path style="fill:none;stroke:#7E7A64;stroke-width:0.2002;stroke-linecap:round;stroke-linejoin:round;" d="M220.062,113.625"/>
			<path style="fill:none;stroke:#7E7A64;stroke-width:0.2002;stroke-linecap:round;stroke-linejoin:round;" d="M215.562,113.625"/>
		</g>
		<g>
			
				<line style="fill:none;stroke:#7E7A64;stroke-width:0.2002;stroke-linecap:round;stroke-linejoin:round;" x1="156.167" y1="55.688" x2="178" y2="55.688"/>
			
				<line style="fill:none;stroke:#7E7A64;stroke-width:0.2002;stroke-linecap:round;stroke-linejoin:round;" x1="180.51" y1="55.688" x2="185.01" y2="55.688"/>
			
				<line style="fill:none;stroke:#7E7A64;stroke-width:0.2002;stroke-linecap:round;stroke-linejoin:round;" x1="187.521" y1="55.688" x2="192.021" y2="55.688"/>
			
				<line style="fill:none;stroke:#7E7A64;stroke-width:0.2002;stroke-linecap:round;stroke-linejoin:round;" x1="194.531" y1="55.688" x2="199.031" y2="55.688"/>
			
				<line style="fill:none;stroke:#7E7A64;stroke-width:0.2002;stroke-linecap:round;stroke-linejoin:round;" x1="201.542" y1="55.688" x2="206.042" y2="55.688"/>
			
				<line style="fill:none;stroke:#7E7A64;stroke-width:0.2002;stroke-linecap:round;stroke-linejoin:round;" x1="208.552" y1="55.688" x2="213.052" y2="55.688"/>
			
				<line style="fill:none;stroke:#7E7A64;stroke-width:0.2002;stroke-linecap:round;stroke-linejoin:round;" x1="215.562" y1="55.688" x2="220.062" y2="55.688"/>
		</g>
	</g>
</g>
<g id="Layer_5">
	<g>
		<g>
			<rect x="154.909" y="16.59" style="fill:none;" width="32.087" height="32.086"/>
			<path style="fill:#3585BB;" d="M186.996,45.934c0,1.515-1.226,2.742-2.743,2.742h-26.601c-1.514,0-2.743-1.227-2.743-2.742
				V19.333c0-1.514,1.229-2.742,2.743-2.742h26.601c1.518,0,2.743,1.229,2.743,2.742V45.934z"/>
			<path style="fill:none;stroke:#FFFFFF;stroke-width:0.9674;" d="M185.693,44.854c0,1.389-1.128,2.52-2.52,2.52h-24.438
				c-1.394,0-2.521-1.131-2.521-2.52v-24.44c0-1.392,1.127-2.52,2.521-2.52h24.438c1.392,0,2.52,1.128,2.52,2.52V44.854z"/>
		</g>
		<g>
			<g>
				<path style="fill:none;stroke:#FFFFFF;stroke-width:1.3824;" d="M163.415,44.579c0,0,2.098-4.356,5.535-6.576"/>
				<path style="fill:none;stroke:#FFFFFF;stroke-width:1.3824;" d="M178.492,44.579c0,0-2.097-4.356-5.534-6.576"/>
				<line style="fill:none;stroke:#FFFFFF;stroke-width:1.3824;" x1="166.108" y1="40.552" x2="175.76" y2="40.552"/>
				<line style="fill:none;stroke:#FFFFFF;stroke-width:1.3824;" x1="164.564" y1="42.607" x2="177.223" y2="42.607"/>
			</g>
			<path style="fill:#FFFFFF;" d="M170.952,38.854c2.622,0,5.194-0.01,5.545-0.044c2.024-0.201,2.417-3.148,2.479-4.566
				c0.04-0.947-0.038-1.926,0.005-2.795c0.049-0.919-0.131-9.35-0.54-9.837c-0.53-0.634-0.98-0.923-2.359-0.923
				c-0.091,0-5.039,0-5.129,0h0.001c-0.087,0-5.038,0-5.129,0c-1.377,0-1.829,0.29-2.361,0.923
				c-0.405,0.487-0.584,8.917-0.537,9.837c0.045,0.869-0.034,1.848,0.005,2.795c0.061,1.418,0.455,4.365,2.477,4.566
				c0.352,0.034,2.925,0.044,5.545,0.044H170.952z"/>
			<g>
				<path style="fill:#3585BB;" d="M177.573,30.471c0,0.255-0.205,0.461-0.462,0.461h-12.316c-0.255,0-0.462-0.206-0.462-0.461
					v-5.34c0-0.254,0.207-0.459,0.462-0.459h12.316c0.258,0,0.462,0.206,0.462,0.459V30.471z"/>
			</g>
			<g>
				<path style="fill:#3585BB;" d="M167.909,36.117c0,0.254-0.207,0.46-0.461,0.46h-1.747c-0.254,0-0.46-0.207-0.46-0.46v-1.646
					c0-0.252,0.206-0.459,0.46-0.459h1.747c0.254,0,0.461,0.207,0.461,0.459V36.117z"/>
				<path style="fill:#3585BB;" d="M176.665,36.117c0,0.254-0.205,0.46-0.46,0.46h-1.746c-0.257,0-0.463-0.207-0.463-0.46v-1.646
					c0-0.252,0.206-0.459,0.463-0.459h1.746c0.255,0,0.46,0.207,0.46,0.459V36.117z"/>
			</g>
		</g>
	</g>
</g>
</svg>
