<?xml version="1.0" encoding="iso-8859-1"?>
<!-- Generator: Adobe Illustrator 13.0.0, SVG Export Plug-In . SVG Version: 6.00 Build 14948)  -->
<!DOCTYPE svg PUBLIC "-//W3C//DTD SVG 1.1//EN" "http://www.w3.org/Graphics/SVG/1.1/DTD/svg11.dtd">
<svg version="1.1" xmlns="http://www.w3.org/2000/svg" xmlns:xlink="http://www.w3.org/1999/xlink" x="0px" y="0px" width="378px"
	 height="140px" viewBox="0 0 378 140" style="enable-background:new 0 0 378 140;" xml:space="preserve">
<g id="fond">
	<rect style="fill:#FFFFFF;" width="378" height="140"/>
</g>
<g id="Layer_3">
	<path style="fill:#00BDFF;stroke:#00BDFF;stroke-width:0.9924;" d="M245.952,88.249c-0.134-0.039-18.069-8.01-17.818-8.896
		c0.395-1.404,1.007-3.198,1.007-3.198l28.58,7.329l2.886,0.461l29.935,2.019c0,0,0.033,4.561-0.185,5.014"/>
</g>
<g id="bikini">
	<g>
		<g>
			<path style="fill:none;" d="M147.132,103.111c-24.625,2.67-9.034-35.35,27.931-30.875"/>
			<path style="fill:#00BDFF;" d="M147.882,101.812c-3.741,0.336-7.856,0.069-10.432-3.012c-2.833-3.391-1.246-8.938,0.986-12.121
				c7.843-11.189,23.078-14.521,35.876-13.145c0.588,0.062,1.322-2.618,1.5-2.598c-14.685-1.58-30.145,3.176-38.131,16.289
				c-2.062,3.386-3.767,7.345-3.015,11.375c1.012,5.421,7.215,6.214,11.715,5.81C147.111,104.345,147.521,101.845,147.882,101.812
				L147.882,101.812z"/>
		</g>
	</g>
	<g>
		<g>
			<path style="fill:none;" d="M175.84,92.01c1.891-0.649,14.166-5.13,14.166-5.13"/>
			<path style="fill:#00BDFF;" d="M175.09,93.309c4.744-1.646,9.449-3.408,14.166-5.13c0.821-0.3,0.951-2.397,1.5-2.598
				c-4.717,1.722-9.422,3.484-14.166,5.13C175.771,90.995,175.631,93.121,175.09,93.309L175.09,93.309z"/>
		</g>
	</g>
	<path style="fill:#FF7300;stroke:#FF7300;stroke-width:0.9457;stroke-linecap:round;stroke-linejoin:round;" d="M152.971,64.033
		l25.004,28.369c0,0-4.25,5.091-14.271,9.029c-10.02,3.94-16.792,3.149-16.792,3.149L152.971,64.033z"/>
	<g>
		<g>
			<path style="fill:none;" d="M220.778,78.535c12.351-10.51-7.779-10.039-13.604-9.365c-12.396,1.438-27.061-4.867-33.424-12.416"
				/>
			<path style="fill:#00BDFF;" d="M220.09,79.808c2.318-2.067,4.478-4.521,5.333-7.579c1.14-4.075-7.022-4.463-9.22-4.598
				c-6.411-0.393-12.572,0.842-18.993-0.23c-8.387-1.401-17.013-5.562-22.71-11.945c0.055,0.062-1.842,2.215-1.5,2.598
				c8.492,9.515,22.163,13.436,34.554,12.305c4.062-0.371,22.182-0.469,13.913,6.905C220.817,77.842,220.462,79.476,220.09,79.808
				L220.09,79.808z"/>
		</g>
	</g>
	<path style="fill:#FF7300;stroke:#FF7300;stroke-width:0.9457;stroke-linecap:round;stroke-linejoin:round;" d="M192.543,50.427
		l-2.272,37.747c0,0,6.483,1.401,16.808-1.655c10.324-3.055,15.177-7.843,15.177-7.843L192.543,50.427z"/>
	<g>
		<g>
			<path style="fill:none;" d="M152.581,64.833c-2.059-1.661-4.414-3.885-6.69-5.273c-2.27-1.385-3.929-4.431-3.733-7.104
				c0.442-6.023,7.44-11.852,12.202-14.908c6.967-4.471,16.348-5.96,22.796-4.126c5.437,1.546,9.315,4.209,12.972,9.431
				c1.674,2.389,2.379,5.333,2.53,8.159"/>
			<path style="fill:#00BDFF;" d="M153.331,63.534c-5.367-4.456-14.528-9.259-8.267-17.353c4.489-5.803,11.646-9.733,18.628-11.462
				c12.41-3.073,27.012,3.803,28.208,17.525c-0.028-0.328,1.584-1.683,1.516-2.466c-0.726-8.321-6.502-14.444-14.182-17.246
				c-7.927-2.891-17.214-0.459-24.186,3.742c-5.135,3.094-9.584,7.578-12.28,12.952c-4.15,8.27,3.427,12.226,9.063,16.905
				C151.879,66.172,153.625,63.779,153.331,63.534L153.331,63.534z"/>
		</g>
	</g>
	<g>
		<g>
			<path style="fill:none;" d="M162.566,34.369c-1.103-2.442-3.915-4.624-3.658-7.709c0.279-3.351,6.359-3.565,5.449-0.574
				c-0.477,1.565-0.829,3.011-1.294,4.5c-0.21,0.675-0.335,1.37-0.482,2.061c-0.036,0.166-0.068,0.332-0.114,0.495
				c-0.059,0.213-0.051,0.21-0.254,0.245c-0.308,0.055-0.647,0.061-0.869,0.321c-0.363,0.425-0.006,0.812,0.446,0.904
				c0.391,0.079,1.312,0.055,1.354-0.511c0.021-0.293-0.342-0.4-0.569-0.443c-0.195-0.037-0.198-0.043-0.29,0.116
				c-0.102,0.176-0.146,0.414-0.226,0.603c-0.483-2.083-1.789-2.953-3.915-3.164c-1.18-0.117-5.779-0.423-5.524,1.403
				c0.195,1.397,3.695,2.224,4.869,2.126c1.306-0.109,2.281-0.9,3.583-0.361"/>
			<path style="fill:#00BDFF;" d="M163.316,33.07c-0.929-1.852-2.363-3.375-3.238-5.259c-0.161-0.381-0.279-0.774-0.356-1.18
				c-0.019-0.401-0.038-0.803-0.056-1.204c-0.709,0.812-0.799,0.987-0.271,0.524c0.594-0.473,1.387-0.616,2.121-0.666
				c1.294-0.088,2.379,0.665,2.084,2.034c-0.49,2.269-1.084,4.93-1.918,7.097c0.488-0.794,0.976-1.589,1.463-2.383
				c-1.35,0.416-1.833,1.236-2.422,2.542c-0.638,1.413,1.054,1.879,1.809,0.829c0.484-0.673,2.084-2.606,0.793-3.042
				c-0.75-0.254-1.785,2.583-1.979,3.102c0.488-0.794,0.976-1.589,1.463-2.383c-0.762-2.646-2.811-3.155-5.312-3.251
				c-1.686-0.065-3.495-0.041-4.495,1.479c-0.872,1.324-1.781,2.635-0.178,3.726c0.912,0.62,2.158,0.849,3.228,0.99
				c1.5,0.198,2.744-0.709,4.27-0.342c0.473,0.114,1.448-2.61,1.5-2.598c-1.749-0.421-3.357,0.534-5.164,0.198
				c-0.821-0.152-1.6-0.457-2.334-0.847c-0.243-0.139-0.459-0.311-0.65-0.514c-0.503-0.467-2.182,1.232-0.479,0.718
				c2.977-0.899,7.169-0.241,8.114,3.038c-0.051-0.176,1.32-2,1.463-2.383c-1.254,3.342-1.188,0.774-0.378,2.107
				c0.142-0.342,0.284-0.684,0.425-1.026c-0.058,0.11-0.116,0.22-0.174,0.33c0.337-0.515,0.675-1.03,1.013-1.546
				c-0.313,0.141-1.96,0.456-1.601-0.534c-0.467,0.786-0.935,1.571-1.402,2.356c1.15-0.68,1.361-0.625,2.063-1.922
				c0.721-1.332,0.848-2.86,1.282-4.298c0.692-2.291,2.641-6.322-1.361-6.048c-2.162,0.147-3.364,2.249-4.158,4.009
				c-1.497,3.318,1.985,6.257,3.334,8.945C161.667,35.369,163.636,33.707,163.316,33.07L163.316,33.07z"/>
		</g>
	</g>
	<g>
		<g>
			<path style="fill:none;" d="M162.281,34.315c2.659,1.496-0.06,3.687-0.068,5.524c-0.008,2.136,1.872,3.845,3.11,5.263"/>
			<path style="fill:#00BDFF;" d="M161.531,35.614c2.053,1.406,0.478,3.178-0.03,5.028c-0.598,2.181,1.808,4.346,3.071,5.759
				c-0.055-0.062,1.842-2.216,1.5-2.598c-1.639-1.833-3.894-3.933-2.696-6.596c0.727-1.618,1.399-2.998-0.346-4.191
				C162.905,32.93,161.285,35.446,161.531,35.614L161.531,35.614z"/>
		</g>
	</g>
	<g>
		<g>
			<path style="fill:none;" d="M162.291,34.251c1.314,0.717,3.221,1.26,3.737,2.715c0.219,0.607-0.018,1.494,0.276,2.281
				c1.107,2.957,5.097,3.381,7.45,5.563"/>
			<path style="fill:#00BDFF;" d="M161.541,35.55c1.255,0.639,2.556,1.105,3.483,2.21c0.725,0.866,0.362,2.65,1.033,3.731
				c1.433,2.307,4.94,2.906,6.947,4.617c0.037,0.032,1.801-2.342,1.5-2.598c-2.016-1.718-4.734-2.33-6.619-4.211
				c-1.021-1.019-0.863-2.333-1.107-3.633c-0.272-1.458-2.625-2.15-3.737-2.715C162.794,32.827,161.385,35.471,161.541,35.55
				L161.541,35.55z"/>
		</g>
	</g>
	<path style="fill:#FF7300;stroke:#FF7300;" d="M260.417,86.742l30.168,2.034c0,0-0.438,5.013-0.792,4.956
		c-30.736-4.962-31.923,28.637-31.923,28.637l-3.3-0.527l-2.441-0.391l-3.303-0.527c0,0,8.331-32.456-21.41-37.156
		c-0.354-0.056,0.792-4.957,0.792-4.957l29.301,7.466L260.417,86.742z"/>
</g>
</svg>
