<?xml version="1.0" encoding="iso-8859-1"?>
<!-- Generator: Adobe Illustrator 13.0.0, SVG Export Plug-In . SVG Version: 6.00 Build 14948)  -->
<!DOCTYPE svg PUBLIC "-//W3C//DTD SVG 1.1//EN" "http://www.w3.org/Graphics/SVG/1.1/DTD/svg11.dtd">
<svg version="1.1" xmlns="http://www.w3.org/2000/svg" xmlns:xlink="http://www.w3.org/1999/xlink" x="0px" y="0px" width="540px"
	 height="200px" viewBox="0 0 540 200" style="enable-background:new 0 0 540 200;" xml:space="preserve">
<g id="FOND">
	<rect style="fill:#FFFFFF;" width="540" height="200"/>
</g>
<g id="porte">
	<g>
		
			<line style="fill:none;stroke:#92938B;stroke-linecap:round;stroke-linejoin:round;" x1="313.711" y1="178.289" x2="516.046" y2="178.289"/>
		
			<line style="fill:none;stroke:#92938B;stroke-linecap:round;stroke-linejoin:round;" x1="25.439" y1="178.289" x2="230.752" y2="178.289"/>
		<polyline style="fill:none;stroke:#92938B;stroke-linecap:round;stroke-linejoin:round;" points="313.711,178.289 313.711,13.648 
			230.753,13.648 230.753,178.289 		"/>
		
			<line style="fill:none;stroke:#92938B;stroke-linecap:round;stroke-linejoin:round;" x1="257.804" y1="13.648" x2="257.804" y2="161.528"/>
		
			<line style="fill:none;stroke:#92938B;stroke-linecap:round;stroke-linejoin:round;" x1="257.804" y1="161.528" x2="313.711" y2="178.289"/>
		<polyline style="fill:none;stroke:#92938B;stroke-linecap:round;stroke-linejoin:round;" points="260.509,88.489 257.804,89.257 
			263.913,91.932 		"/>
	</g>
</g>
<g id="Layer_1">
	<path style="fill:#FFFFFF;stroke:#92938B;stroke-width:1.713;stroke-linecap:round;stroke-linejoin:round;" d="M234.911,66.152
		c-2.453,6.645-8.548,10.51-13.622,8.636c-5.07-1.871-7.199-8.772-4.746-15.416c2.451-6.64,8.554-10.505,13.623-8.633
		C235.241,52.612,237.362,59.512,234.911,66.152z"/>
	<path style="fill:none;stroke:#92938B;stroke-width:1.713;stroke-linecap:round;stroke-linejoin:round;" d="M218.638,91.511
		c-1.426,8.926-3.124,18.458-4.774,22.673c-2.585,6.646-4.181,4.781-2.78,14.567c1.75,12.266,6.526,22.377,5.125,28.436
		c-7.631,33.081-7.923,34.029-0.47,33.099"/>
	<path style="fill:none;stroke:#92938B;stroke-width:1.713;stroke-linecap:round;stroke-linejoin:round;" d="M221.289,74.788
		c-0.405,2.218-0.93,5.649-1.541,9.612"/>
	<path style="fill:#FFFFFF;stroke:#92938B;stroke-width:1.713;stroke-linecap:round;stroke-linejoin:round;" d="M224.732,88.896
		c-0.38,2.153-2.429,3.595-4.586,3.214c-2.156-0.38-3.601-2.438-3.22-4.59c0.38-2.157,2.44-3.595,4.597-3.215
		C223.679,84.687,225.112,86.741,224.732,88.896z"/>
	<path style="fill:none;stroke:#92938B;stroke-width:1.713;stroke-linecap:round;stroke-linejoin:round;" d="M220.614,81.799
		c4.964-3.454,14.629,14.762,12.96,21.312c-3.521,3.521-13.968,0.163-18.778-5.255c1.081,0.386,2.908,1.377,3.57,2.23
		c-0.308-2.436-3.53-3.297-4.68-5.284c1.319,0.796,2.651,1.55,3.391,2.851c-0.052-1.729-1.652-3.544-2.369-5.024
		c0.804,1.204,3.977,7.754,4.783,8.961c-0.257-0.478-2.587-9.406-2.838-9.865c0.912,2.533,2.158,7.25,2.838,9.865
		c-0.071-0.615,0.455-4.864,0.29-5.766"/>
</g>
<g id="Layer_4">
	<g>
		<path style="fill:#FFFFFF;stroke:#92938B;stroke-width:2.57;stroke-linecap:round;stroke-linejoin:round;" d="M311.34,53.513
			c0,6.919,4.288,12.527,9.563,12.527c5.278,0,9.571-5.608,9.571-12.527c0-6.918-4.293-12.526-9.571-12.526
			C315.628,40.987,311.34,46.595,311.34,53.513z"/>
		<path style="fill:none;stroke:#92938B;stroke-width:2.57;stroke-linecap:round;stroke-linejoin:round;" d="M320.667,66.538
			c0.045,8.743-1.175,34.599,0.498,42.992c1.498,7.496,3.915,6.473,2.494,13.894c-2.498,13.045,0.521,27.804,0.97,34.455
			c2.328,34.497,2.539,33.632-5.462,32.628"/>
	</g>
	<path style="fill:none;stroke:#92938B;stroke-width:1.713;stroke-linecap:round;stroke-linejoin:round;" d="M320.147,74.372
		c-6.437,1.355-12.84,17.914-16.521,20.435c-2.606,1.785-18.405,6.56-22.196,6.296c-2.419-0.167-7.478-4.759-8.398-4.711
		c-1.395,0.829,2.501,3.292,0.706,2.738c-0.841-0.26-5.914-0.057-5.914,0.702c-0.197,0.539,0.615,1.07,0.615,1.07
		s-1.68,0.3-1.68,1.037c0,0.689,1.16,0.452,1.16,0.452s-1.101,0.702-1.101,1.247c0,0.157,1.454,0.136,1.454,0.136
		s-0.705,0.417-0.157,0.964c2.769-0.102,12.098-3.132,13.861-3.636"/>
	<path style="fill:#FFFFFF;stroke:#92938B;stroke-width:1.713;stroke-linecap:round;stroke-linejoin:round;" d="M322.17,81.931
		c-0.38,2.152-2.429,3.594-4.586,3.215c-2.156-0.381-3.602-2.439-3.221-4.59c0.381-2.157,2.44-3.596,4.598-3.215
		C321.117,77.722,322.55,79.776,322.17,81.931z"/>
	<path style="fill:none;stroke:#8C8F84;stroke-width:1.713;stroke-linecap:round;stroke-linejoin:round;" d="M320.561,74.271
		c1.77,2.926,2.819,4.049,1.465,7.683c-0.979,2.624-3.815,16.519-7.406,20.109c-3.631,1.467-13.069-5.199-17.045-8.618"/>
	<path style="fill:none;stroke:#8C8F84;stroke-width:1.713;stroke-linecap:round;stroke-linejoin:round;" d="M297.67,93.157
		c-1.018-1.486-0.874-4.725-0.958-6.512c-0.05-1.061,0.253-4.791,0.029-6.062c-0.21,1.749-0.672,5.165-0.412,6.923
		c0.27,1.823-0.264,4.899,1.532,6.033"/>
</g>
</svg>
