<?xml version="1.0" encoding="iso-8859-1"?>
<!-- Generator: Adobe Illustrator 13.0.0, SVG Export Plug-In . SVG Version: 6.00 Build 14948)  -->
<!DOCTYPE svg PUBLIC "-//W3C//DTD SVG 1.1//EN" "http://www.w3.org/Graphics/SVG/1.1/DTD/svg11.dtd">
<svg version="1.1" xmlns="http://www.w3.org/2000/svg" xmlns:xlink="http://www.w3.org/1999/xlink" x="0px" y="0px"
	 width="540.001px" height="200px" viewBox="0 0 540.001 200" style="enable-background:new 0 0 540.001 200;" xml:space="preserve"
	>
<g id="fond">
	<g>
		<rect style="fill:none;" width="540.001" height="200"/>
		<rect style="fill:#FFFFFF;" width="540.001" height="200"/>
		<rect x="0.475" y="0.429" style="fill:#FFFFFF;" width="539.049" height="199.144"/>
	</g>
</g>
<g id="Layer_2">
	<polygon style="fill:#FF0000;stroke:#D5312C;stroke-width:0.6594;stroke-linecap:round;stroke-linejoin:round;" points="
		349.529,156.295 295.717,137.847 303.897,134.562 356.34,152.776 	"/>
	<polygon style="fill:#FF0000;stroke:#D5312C;stroke-width:0.6594;stroke-linecap:round;stroke-linejoin:round;" points="
		252.63,186.113 198.815,167.664 206.999,164.382 259.441,182.6 	"/>
	<g>
		<polygon style="fill:#FF0000;stroke:#D5312C;stroke-width:0.6594;stroke-linecap:round;stroke-linejoin:round;" points="
			327.762,148.863 317.767,145.316 317.767,40.619 327.762,43.252 		"/>
		<polygon style="fill:#FF0000;stroke:#D5312C;stroke-width:0.6594;stroke-linecap:round;stroke-linejoin:round;" points="
			336.18,145.316 327.762,148.863 327.762,43.252 336.18,40.619 		"/>
	</g>
	<g>
		<polygon style="fill:#FF0000;stroke:#D5312C;stroke-width:0.6594;stroke-linecap:round;stroke-linejoin:round;" points="
			230.433,178.324 220.438,174.779 220.438,70.081 230.433,72.713 		"/>
		<polygon style="fill:#FF0000;stroke:#D5312C;stroke-width:0.6594;stroke-linecap:round;stroke-linejoin:round;" points="
			238.851,174.779 230.433,178.324 230.433,72.713 238.851,70.081 		"/>
	</g>
	<g>
		<polygon style="fill:#FFFFFF;stroke:#D5312C;stroke-width:4.0348;stroke-linecap:round;stroke-linejoin:round;" points="
			408.503,50.75 251.427,101.288 133.255,64.215 300.76,21.899 		"/>
		<polygon style="fill:#FF0000;" points="407.947,49.414 252.118,99.766 134.016,63.206 301.415,20.035 		"/>
	</g>
</g>
</svg>
