<?xml version="1.0" encoding="iso-8859-1"?>
<!-- Generator: Adobe Illustrator 13.0.0, SVG Export Plug-In . SVG Version: 6.00 Build 14948)  -->
<!DOCTYPE svg PUBLIC "-//W3C//DTD SVG 1.1//EN" "http://www.w3.org/Graphics/SVG/1.1/DTD/svg11.dtd">
<svg version="1.1" xmlns="http://www.w3.org/2000/svg" xmlns:xlink="http://www.w3.org/1999/xlink" x="0px" y="0px" width="378px"
	 height="140px" viewBox="0 0 378 140" style="enable-background:new 0 0 378 140;" xml:space="preserve">
<g id="Layer_2">
	<g>
		<rect style="fill:none;" width="378" height="140"/>
		<rect style="fill:#FFFFFF;" width="378" height="140"/>
	</g>
</g>
<g id="Layer_3">
	<g>
		<g>
			<g>
				
					<rect x="305.333" y="69.848" style="fill:#D5312C;stroke:#FFFFFF;stroke-width:0.6742;stroke-linecap:square;" width="3.298" height="47.388"/>
				<g>
					<path style="fill:#D5312C;" d="M279.041,68.809c0,1.034,0.838,1.872,1.872,1.872h52.131c1.033,0,1.872-0.838,1.872-1.872
						c0-1.033-0.839-1.87-1.872-1.87h-52.131C279.879,66.938,279.041,67.775,279.041,68.809
						C279.041,68.809,279.041,67.775,279.041,68.809z"/>
					<path style="fill:none;stroke:#FFFFFF;stroke-width:1.0113;" d="M279.041,68.809c0,1.034,0.838,1.872,1.872,1.872h52.131
						c1.033,0,1.872-0.838,1.872-1.872c0-1.033-0.839-1.87-1.872-1.87h-52.131C279.879,66.938,279.041,67.775,279.041,68.809
						C279.041,68.809,279.041,67.775,279.041,68.809z"/>
				</g>
			</g>
			<g>
				<rect x="108.778" y="64.097" style="fill:#65B62C;stroke:#FFFFFF;stroke-width:1.0113;" width="4.031" height="53.593"/>
				<path style="fill:#65B62C;stroke:#FFFFFF;stroke-width:1.0113;" d="M122.533,67.033H99.047V61.16c0,0,5.571-2.57,11.443-2.57
					c5.872,0,12.043,2.57,12.043,2.57V67.033z"/>
				<rect x="103.267" y="104.983" style="fill:#65B62C;stroke:#FFFFFF;stroke-width:0.6742;" width="15.051" height="1.376"/>
			</g>
			
				<line style="fill:none;stroke:#65B62C;stroke-width:2.5223;stroke-linecap:round;" x1="10.256" y1="36.97" x2="89.37" y2="36.97"/>
			
				<line style="fill:none;stroke:#65B62C;stroke-width:2.5223;stroke-linecap:square;" x1="89.37" y1="36.97" x2="89.37" y2="54.666"/>
			
				<line style="fill:none;stroke:#65B62C;stroke-width:2.5223;stroke-linecap:square;" x1="89.37" y1="54.666" x2="81.785" y2="54.666"/>
			
				<line style="fill:none;stroke:#65B62C;stroke-width:2.5223;stroke-linecap:square;" x1="81.785" y1="54.666" x2="81.785" y2="117.024"/>
			
				<line style="fill:none;stroke:#65B62C;stroke-width:2.5223;stroke-linecap:round;" x1="81.785" y1="117.024" x2="367.744" y2="117.024"/>
			<g>
				<g>
					
						<line style="fill:none;stroke:#65B62C;stroke-width:3.1528;stroke-linecap:round;stroke-linejoin:round;" x1="262.627" y1="58.58" x2="262.627" y2="86.987"/>
					
						<line style="fill:none;stroke:#65B62C;stroke-width:3.1528;stroke-linecap:round;stroke-linejoin:round;" x1="262.627" y1="86.987" x2="291.033" y2="86.987"/>
					
						<line style="fill:none;stroke:#65B62C;stroke-width:3.1528;stroke-linecap:round;stroke-linejoin:round;" x1="291.033" y1="86.987" x2="262.597" y2="115.426"/>
					
						<line style="fill:none;stroke:#65B62C;stroke-width:3.1528;stroke-linecap:round;stroke-linejoin:round;" x1="262.597" y1="115.426" x2="278.976" y2="115.426"/>
				</g>
				<g>
					
						<line style="fill:none;stroke:#65B62C;stroke-width:3.1528;stroke-linecap:round;stroke-linejoin:round;" x1="358.128" y1="58.58" x2="358.128" y2="86.987"/>
					
						<line style="fill:none;stroke:#65B62C;stroke-width:3.1528;stroke-linecap:round;stroke-linejoin:round;" x1="358.128" y1="86.987" x2="329.725" y2="86.987"/>
					
						<line style="fill:none;stroke:#65B62C;stroke-width:3.1528;stroke-linecap:round;stroke-linejoin:round;" x1="329.725" y1="86.987" x2="358.157" y2="115.426"/>
					
						<line style="fill:none;stroke:#65B62C;stroke-width:3.1528;stroke-linecap:round;stroke-linejoin:round;" x1="358.157" y1="115.426" x2="341.779" y2="115.426"/>
				</g>
			</g>
		</g>
		<g>
			<g>
				<g>
					<path style="fill:none;stroke:#777768;stroke-width:1.2611;stroke-linecap:round;stroke-linejoin:round;" d="M164.445,20.916
						c0,6.38-3.952,11.549-8.822,11.549c-4.868,0-8.817-5.169-8.817-11.549c0-6.377,3.949-11.548,8.817-11.548
						C160.493,9.368,164.445,14.539,164.445,20.916z"/>
					<path style="fill:none;stroke:#777768;stroke-width:1.2611;stroke-linecap:round;stroke-linejoin:round;" d="M155.89,48.137
						c0.13,8.145,0.118,16.869-0.685,20.86c-1.26,6.304-3.778,3.787-2.521,12.602c1.583,11.049,5.879,20.161,4.623,25.618
						c-6.879,29.807-7.141,30.658-0.42,29.817"/>
					<path style="fill:none;stroke:#777768;stroke-width:1.2611;stroke-linecap:round;stroke-linejoin:round;" d="M155.623,32.882
						c-0.009,1.994,0.06,5.045,0.136,8.568"/>
					<path style="fill:none;stroke:#777768;stroke-width:1.2611;stroke-linecap:round;stroke-linejoin:round;" d="M160.888,44.863
						c0,1.969-1.601,3.575-3.571,3.575c-1.969,0-3.566-1.606-3.566-3.575c0-1.974,1.598-3.568,3.566-3.568
						C159.287,41.295,160.888,42.89,160.888,44.863z"/>
				</g>
			</g>
			<g>
				<path style="fill:none;stroke:#777768;stroke-width:1.2611;stroke-linecap:round;stroke-linejoin:round;" d="M205.972,74.711
					c0,1.114,0.908,2.015,2.017,2.015c1.106,0,2.013-0.9,2.013-2.015c0-1.111-0.906-2.009-2.013-2.009
					C206.88,72.702,205.972,73.6,205.972,74.711z"/>
				<path style="fill:none;stroke:#777768;stroke-width:1.8917;stroke-linecap:round;stroke-linejoin:round;" d="M198.611,13.784
					c0,6.234,3.857,11.287,8.617,11.287c4.754,0,8.616-5.053,8.616-11.287c0-6.231-3.862-11.284-8.616-11.284
					C202.469,2.5,198.611,7.553,198.611,13.784z"/>
				<path style="fill:none;stroke:#777768;stroke-width:1.8917;stroke-linecap:round;stroke-linejoin:round;" d="M207.014,25.519
					c0.037,7.878-1.063,31.17,0.446,38.732c1.354,6.752,1.954,4.707,0.601,14.161c-1.689,11.846,2.114,23.402,2.525,29.399
					c2.094,31.075,2.283,30.295-4.928,29.396"/>
			</g>
		</g>
	</g>
</g>
</svg>
