<?xml version="1.0" encoding="iso-8859-1"?>
<!-- Generator: Adobe Illustrator 13.0.0, SVG Export Plug-In . SVG Version: 6.00 Build 14948)  -->
<!DOCTYPE svg PUBLIC "-//W3C//DTD SVG 1.1//EN" "http://www.w3.org/Graphics/SVG/1.1/DTD/svg11.dtd">
<svg version="1.1" xmlns="http://www.w3.org/2000/svg" xmlns:xlink="http://www.w3.org/1999/xlink" x="0px" y="0px"
	 width="378.29px" height="140.056px" viewBox="0 0 378.29 140.056" style="enable-background:new 0 0 378.29 140.056;"
	 xml:space="preserve">
<g id="Layer_2">
	<rect y="0.056" style="fill:#FFFFFF;" width="378" height="140"/>
</g>
<g id="Layer_4">
	<path style="fill:none;stroke:#92938B;stroke-width:1.4;stroke-linecap:round;stroke-linejoin:round;" d="M261.134,60.42
		c-1.971-0.629-3.035,2.146-3.035,4.621c0,21.371-8.279,44.763-30.689,52.641"/>
	<path style="fill:#FFFFFF;stroke:#92938B;stroke-width:1.4;stroke-linecap:round;stroke-linejoin:round;" d="M227.409,117.682
		c-4.802,4.65-13.065,5.811-20.425,6.203c5.294-2.283,6.802-3.959,8.623-4.086c-1.247-0.008-9.756,0.05-10.894-0.135
		c1.125-0.867,9.322-2.706,10.85-2.632c-1.563-0.163-8.379,0-9.639-0.871c1.553-0.646,19.902-0.791,5.904-5.742
		c8.391,0.982,14.781,4.939,15.882,6.657"/>
	<path style="fill:#FFFFFF;stroke:#92938B;stroke-width:2.8;stroke-linecap:round;stroke-linejoin:round;" d="M179.825,39.698
		c0,12.302-7.607,22.266-17.002,22.266c-9.383,0-17.002-9.964-17.002-22.266c0-12.293,7.619-22.259,17.002-22.259
		C172.218,17.439,179.825,27.405,179.825,39.698z"/>
	<path style="fill:none;stroke:#92938B;stroke-width:2.8;stroke-linecap:round;stroke-linejoin:round;" d="M163.335,92.18
		c0.252,15.698,0.221,32.517-1.329,40.225c-0.267,1.339-0.562,2.471-0.876,3.448"/>
	<path style="fill:none;stroke:#92938B;stroke-width:2.8;stroke-linecap:round;stroke-linejoin:round;" d="M162.823,62.779
		c-0.021,3.915,0.113,9.941,0.266,16.904"/>
	<path style="fill:#FFFFFF;stroke:#92938B;stroke-width:1.4;stroke-linecap:round;stroke-linejoin:round;" d="M172.97,85.873
		c0,3.797-3.07,6.879-6.875,6.879c-3.803,0-6.893-3.082-6.893-6.879c0-3.802,3.09-6.885,6.893-6.885
		C169.899,78.988,172.97,82.071,172.97,85.873z"/>
	<path style="fill:#FFFFFF;stroke:#92938B;stroke-width:1.4;stroke-linecap:round;stroke-linejoin:round;" d="M245.255,26.013
		c0,12.019,7.451,21.758,16.611,21.758c9.168,0,16.624-9.739,16.624-21.758c0-12.013-7.456-21.753-16.624-21.753
		C252.706,4.259,245.255,14,245.255,26.013z"/>
	<path style="fill:none;stroke:#92938B;stroke-width:1.4;stroke-linecap:round;stroke-linejoin:round;" d="M261.455,48.637
		c0.079,15.185-2.041,60.091,0.864,74.667c1.427,7.126,2.418,9.17,2.598,12.549"/>
	<path style="fill:none;stroke:#92938B;stroke-width:1.4;stroke-linecap:round;stroke-linejoin:round;" d="M163.026,76.762
		c-10.475,15.176,18.209,39.171,38.435,40.028"/>
	<path style="fill:#FFFFFF;stroke:#92938B;stroke-width:1.4;stroke-linecap:round;stroke-linejoin:round;" d="M201.688,117.427
		c4.205,5.195,12.268,7.348,19.527,8.621c-4.982-2.904-6.275-4.749-8.068-5.095c1.24,0.143,9.678,1.228,10.83,1.181
		c-1.013-0.998-8.928-3.811-10.453-3.922c1.57,0.025,8.318,1.01,9.674,0.298c-1.463-0.829-19.661-3.187-5.169-6.412
		c-8.448-0.038-15.269,3.118-16.568,4.692"/>
	<g>
		<circle style="fill:#FBED79;" cx="350.615" cy="24.619" r="18.433"/>
		<path style="fill:none;stroke:#FBED79;stroke-width:0.7;" d="M325.161,35.152c-9.291,5.152-20.439,5.445-29.844,12.289"/>
		<path style="fill:none;stroke:#FBED79;stroke-width:0.7;" d="M322.527,18.475c-12.101,0.892-28.864-1.319-40.376-4.389"/>
		<path style="fill:none;stroke:#FBED79;stroke-width:0.7;" d="M341.838,54.463c-5.835,8.668-11.379,23.741-11.411,34.232"/>
		<path style="fill:none;stroke:#FBED79;stroke-width:0.7;" d="M362.486,52.42c2.591,7.245,11.118,13.752,15.514,20.259"/>
		<path style="fill:none;stroke:#FBED79;stroke-width:0.7;" d="M333.938,6.187c-0.715-1.876-1.615-3.694-2.661-5.432"/>
		<path style="fill:none;stroke:#FBED79;stroke-width:0.7;" d="M362.904,3.554c0.018-1.225,0.114-2.372,0.295-3.498"/>
		<path style="fill:none;stroke:#FBED79;stroke-width:0.7;" d="M372.56,12.331c1.687-0.071,3.37-0.175,5.052-0.312"/>
		<path style="fill:none;stroke:#FBED79;stroke-width:0.7;" d="M373.538,31.743c1.215,0.494,2.581,1.177,4.017,1.964"/>
	</g>
</g>
</svg>
