<?xml version="1.0" encoding="iso-8859-1"?>
<!-- Generator: Adobe Illustrator 13.0.0, SVG Export Plug-In . SVG Version: 6.00 Build 14948)  -->
<!DOCTYPE svg PUBLIC "-//W3C//DTD SVG 1.1//EN" "http://www.w3.org/Graphics/SVG/1.1/DTD/svg11.dtd">
<svg version="1.1" xmlns="http://www.w3.org/2000/svg" xmlns:xlink="http://www.w3.org/1999/xlink" x="0px" y="0px" width="378px"
	 height="140px" viewBox="0 0 378 140" style="enable-background:new 0 0 378 140;" xml:space="preserve">
<g id="Layer_2">
	<g>
		<rect style="fill:none;" width="378" height="140"/>
		<rect style="fill:#FFFFFF;" width="378" height="140"/>
	</g>
</g>
<g id="Layer_3">
	<path style="fill:#669933;" d="M39.333,133.667c4.526,0,19.938-7.42,37.618-17.007C96.146,106.252,110.405,98.023,121.5,95
		c10.109-2.755,20.551-17.268,22.59-19.678c1.923-2.273,4.879-3.879,6.047-6.767c0.596-1.474,7.673-3.331,7.92-4.9
		c0.539-3.419,1.981-4.767,3.608-7.49c2.779-4.65,2.548-9.232,7.052-12.999c5.251-4.393,8.477-17.225,12.66-22.918
		c1.822-2.48,4.653-6.471,7.307-8.441c3.359-2.494,7.888,9.231,9.441,12.359c3.059,6.159,1.191,7.271,5.16,12.985
		c1.658,2.387,2.809,4.687,5.066,6.75c6.531,5.97,6.262,8.142,8.832,12.514c1.551,2.635,1.754,5.745,3.371,8.418
		c2.359,3.899,5.967,5.59,9.082,8.833c3.41,3.55,22.722,16.601,30.363,19.666s15.333,17.239,34.572,17.239
		c8.083,0,15.201,10.314,21.814,10.314S344,133.667,344,133.667"/>
	<path style="fill:#F2FFFF;stroke:#CFFFFF;" d="M172.126,46.75c-2.9-0.308-8.994,6.124-8.994,5.115c0-1.865,0.759-4.932,5.263-8.699
		c5.251-4.393,8.477-17.225,12.659-22.918c1.822-2.48,4.653-6.471,7.307-8.441c3.359-2.494,7.889,9.231,9.441,12.359
		c3.058,6.159,1.191,7.271,5.16,12.985c1.658,2.387,2.809,4.687,5.065,6.75c6.532,5.97,6.841,7.084,6.841,8.633
		c0,1.075-6.773-5.316-8.93-3.16c-0.938,0.937-3.544,4.868-4.125,3.125c-3.375-10.125-3.5-1.5-6-0.875
		c-0.965,0.241-2.045-4.875-3.688-4.875c-4.562,0-4.427,5.375-7.312,5.375c-5.312,0-4.246-10.965-6.188-7.375
		C174.063,53.188,174.59,47.012,172.126,46.75z"/>
</g>
</svg>
