<?xml version="1.0" encoding="iso-8859-1"?>
<!-- Generator: Adobe Illustrator 13.0.0, SVG Export Plug-In . SVG Version: 6.00 Build 14948)  -->
<!DOCTYPE svg PUBLIC "-//W3C//DTD SVG 1.1//EN" "http://www.w3.org/Graphics/SVG/1.1/DTD/svg11.dtd">
<svg version="1.1" xmlns="http://www.w3.org/2000/svg" xmlns:xlink="http://www.w3.org/1999/xlink" x="0px" y="0px" width="540px"
	 height="200px" viewBox="0 0 540 200" style="enable-background:new 0 0 540 200;" xml:space="preserve">
<g id="Layer_2">
	<rect style="fill:#FFFFFF;" width="540" height="200"/>
</g>
<g id="img02">
	<g>
		<g>
			
				<rect x="427.158" y="101.149" style="fill:#CE4E43;stroke:#FFFFFF;stroke-width:0.9159;stroke-linecap:square;" width="4.482" height="64.389"/>
			<g>
				<path style="fill:#CE4E43;" d="M391.435,99.739c0,1.404,1.139,2.543,2.543,2.543h70.83c1.404,0,2.543-1.139,2.543-2.543
					s-1.139-2.543-2.543-2.543h-70.83C392.574,97.196,391.435,98.335,391.435,99.739C391.435,99.739,391.435,98.335,391.435,99.739z
					"/>
				<path style="fill:none;stroke:#FFFFFF;stroke-width:1.374;" d="M391.435,99.739c0,1.404,1.139,2.543,2.543,2.543h70.83
					c1.404,0,2.543-1.139,2.543-2.543s-1.139-2.543-2.543-2.543h-70.83C392.574,97.196,391.435,98.335,391.435,99.739
					C391.435,99.739,391.435,98.335,391.435,99.739z"/>
			</g>
		</g>
		<g>
			<rect x="160.098" y="93.337" style="fill:#78B432;stroke:#FFFFFF;stroke-width:1.374;" width="5.479" height="72.818"/>
			<path style="fill:#78B432;stroke:#FFFFFF;stroke-width:1.374;" d="M178.789,97.325h-31.912v-7.978c0,0,7.568-3.493,15.547-3.493
				s16.365,3.493,16.365,3.493V97.325z"/>
			<rect x="152.611" y="148.891" style="fill:#78B432;stroke:#FFFFFF;stroke-width:0.9159;" width="20.447" height="1.869"/>
		</g>
		
			<line style="fill:none;stroke:#78B432;stroke-width:3.427;stroke-linecap:round;" x1="26.239" y1="56.479" x2="133.729" y2="56.479"/>
		
			<line style="fill:none;stroke:#78B432;stroke-width:3.427;stroke-linecap:square;" x1="133.729" y1="56.479" x2="133.729" y2="80.524"/>
		
			<line style="fill:none;stroke:#78B432;stroke-width:3.427;stroke-linecap:square;" x1="133.729" y1="80.524" x2="123.424" y2="80.524"/>
		
			<line style="fill:none;stroke:#78B432;stroke-width:3.427;stroke-linecap:square;" x1="123.424" y1="80.524" x2="123.424" y2="165.251"/>
		
			<line style="fill:none;stroke:#78B432;stroke-width:3.427;stroke-linecap:round;" x1="123.424" y1="165.251" x2="511.955" y2="165.251"/>
		<g>
			<g>
				
					<line style="fill:none;stroke:#78B432;stroke-width:4.2837;stroke-linecap:round;stroke-linejoin:round;" x1="369.134" y1="85.841" x2="369.134" y2="124.438"/>
				
					<line style="fill:none;stroke:#78B432;stroke-width:4.2837;stroke-linecap:round;stroke-linejoin:round;" x1="369.134" y1="124.438" x2="407.73" y2="124.438"/>
				
					<line style="fill:none;stroke:#78B432;stroke-width:4.2837;stroke-linecap:round;stroke-linejoin:round;" x1="407.73" y1="124.438" x2="369.093" y2="163.079"/>
				
					<line style="fill:none;stroke:#78B432;stroke-width:4.2837;stroke-linecap:round;stroke-linejoin:round;" x1="369.093" y1="163.079" x2="391.347" y2="163.079"/>
			</g>
			<g>
				
					<line style="fill:none;stroke:#78B432;stroke-width:4.2837;stroke-linecap:round;stroke-linejoin:round;" x1="498.89" y1="85.841" x2="498.89" y2="124.438"/>
				
					<line style="fill:none;stroke:#78B432;stroke-width:4.2837;stroke-linecap:round;stroke-linejoin:round;" x1="498.89" y1="124.438" x2="460.298" y2="124.438"/>
				
					<line style="fill:none;stroke:#78B432;stroke-width:4.2837;stroke-linecap:round;stroke-linejoin:round;" x1="460.298" y1="124.438" x2="498.931" y2="163.079"/>
				
					<line style="fill:none;stroke:#78B432;stroke-width:4.2837;stroke-linecap:round;stroke-linejoin:round;" x1="498.931" y1="163.079" x2="476.677" y2="163.079"/>
			</g>
		</g>
	</g>
	<g>
		<g>
			<path style="fill:none;stroke:#92938B;stroke-width:1.7135;stroke-linecap:round;stroke-linejoin:round;" d="M301.148,107.329
				c0,1.522,1.242,2.751,2.758,2.751c1.512,0,2.75-1.229,2.75-2.751c0-1.521-1.238-2.744-2.75-2.744
				C302.39,104.585,301.148,105.809,301.148,107.329z"/>
			<path style="fill:none;stroke:#92938B;stroke-width:2.5702;stroke-linecap:round;stroke-linejoin:round;" d="M291.085,24.044
				c0,8.523,5.273,15.428,11.779,15.428c6.498,0,11.781-6.904,11.781-15.428c0-8.52-5.283-15.425-11.781-15.425
				C296.359,8.619,291.085,15.524,291.085,24.044z"/>
			<path style="fill:none;stroke:#92938B;stroke-width:2.5702;stroke-linecap:round;stroke-linejoin:round;" d="M302.57,40.085
				c0.055,10.769-1.451,42.609,0.613,52.946c1.85,9.229,2.672,6.433,0.82,19.356c-2.309,16.193,2.891,31.992,3.451,40.188
				c2.863,42.479,3.123,41.414-6.734,40.183"/>
		</g>
		<path style="fill:none;stroke:#92938B;stroke-width:1.7135;stroke-linecap:round;stroke-linejoin:round;" d="M302.283,62.159
			c-18.125-11.051-23.064-17.593-35.085-32.771c0.088,0.337,0.285,1.909,0.5,2.636c-0.262-1.844-1.516-9.379-3.439-10.01
			c-3.268-1.074-4.126,1.9-3.514,4.757c1.348-4.55,3.098-11.362,5.688-15.065c0.158,4.707,0.215,9.714,1.945,14.139
			c2.373-2.078,2.394-6.486,2.283-9.748c2.592,3.23,0.885,10.261,0.461,14.365"/>
	</g>
	<g>
		<g>
			
				<ellipse style="fill:none;stroke:#92938B;stroke-width:1.7135;stroke-linecap:round;stroke-linejoin:round;" cx="196.104" cy="32.786" rx="12.151" ry="15.91"/>
			<path style="fill:none;stroke:#92938B;stroke-width:1.7135;stroke-linecap:round;stroke-linejoin:round;" d="M196.469,70.286
				c0.18,11.223,0.162,23.239-0.943,28.738c-1.734,8.685-5.205,5.215-3.475,17.36c2.182,15.222,8.1,27.774,6.369,35.292
				c-9.477,41.063-9.836,42.237-0.578,41.079"/>
			<path style="fill:none;stroke:#92938B;stroke-width:1.7135;stroke-linecap:round;stroke-linejoin:round;" d="M196.102,49.271
				c-0.012,2.748,0.083,6.95,0.187,11.805"/>
			<path style="fill:none;stroke:#92938B;stroke-width:1.7135;stroke-linecap:round;stroke-linejoin:round;" d="M203.355,65.778
				c0,2.711-2.205,4.924-4.921,4.924c-2.712,0-4.914-2.213-4.914-4.924c0-2.719,2.202-4.918,4.914-4.918
				C201.15,60.86,203.355,63.06,203.355,65.778z"/>
		</g>
	</g>
</g>
</svg>
