<?xml version="1.0" encoding="iso-8859-1"?>
<!-- Generator: Adobe Illustrator 13.0.0, SVG Export Plug-In . SVG Version: 6.00 Build 14948)  -->
<!DOCTYPE svg PUBLIC "-//W3C//DTD SVG 1.1//EN" "http://www.w3.org/Graphics/SVG/1.1/DTD/svg11.dtd">
<svg version="1.1" xmlns="http://www.w3.org/2000/svg" xmlns:xlink="http://www.w3.org/1999/xlink" x="0px" y="0px" width="378px"
	 height="140px" viewBox="0 0 378 140" style="enable-background:new 0 0 378 140;" xml:space="preserve">
<g id="Layer_2">
	<g>
		<rect style="fill:none;" width="378" height="140"/>
		<rect style="fill:#FFFFFF;" width="378" height="140"/>
	</g>
</g>
<g id="Layer_3">
	<g>
		<g>
			<rect x="121.5" y="2.5" style="fill:none;" width="135" height="135"/>
			<path style="fill:#406FA9;" d="M256.5,125.963c0,6.373-5.164,11.537-11.537,11.537H133.037c-6.371,0-11.537-5.164-11.537-11.537
				V14.037c0-6.371,5.166-11.537,11.537-11.537h111.926c6.373,0,11.537,5.166,11.537,11.537V125.963z"/>
			<path style="fill:none;stroke:#FFFFFF;stroke-width:4.0703;" d="M251.018,121.418c0,5.854-4.746,10.6-10.602,10.6H137.585
				c-5.855,0-10.602-4.746-10.602-10.6V18.586c0-5.854,4.746-10.602,10.602-10.602h102.831c5.855,0,10.602,4.748,10.602,10.602
				V121.418z"/>
		</g>
		<g style="display:none;">
			<path style="display:inline;fill:#FFFFFF;" d="M198.039,36.258c1.217,1.768,1.928,3.906,1.928,6.215
				c0,6.055-4.908,10.967-10.967,10.967c-6.057,0-10.967-4.912-10.967-10.967c0-2.062,0.568-3.994,1.561-5.643"/>
			<polygon style="display:inline;fill:#FFFFFF;" points="170.828,40.861 200.281,40.861 200.281,33.969 176.466,33.969 			"/>
			<polygon style="display:inline;fill:#FFFFFF;" points="173.414,23.906 202.631,25.547 200.596,32.283 176.466,32.018 			"/>
		</g>
		<path style="display:none;fill:#FFFFFF;" d="M171.093,122.016v-4.701h-8.773c0,0-4.488-39.688-3.709-45.111
			c0.621-4.301,2.49-8.988,6.35-11.516c4.598-3.014,10.641-2.727,15.824-4.131L189,70l8.217-13.443
			c5.184,1.404,11.225,1.117,15.824,4.131c3.859,2.527,5.729,7.215,6.348,11.516c0.781,5.424-3.709,45.111-3.709,45.111h-8.771
			v4.701H171.093z"/>
		<rect x="171.146" y="103.215" style="display:none;fill:#406FA9;" width="35.94" height="5.955"/>
		
			<line style="display:none;fill:none;stroke:#406FA9;stroke-width:6.1055;stroke-linecap:square;" x1="177.472" y1="103.215" x2="207.607" y2="58.484"/>
	</g>
</g>
<g id="hopital">
	<rect x="147.5" y="22" style="fill:#FFFFFF;" width="25" height="94"/>
	<rect x="208" y="22" style="fill:#FFFFFF;" width="25" height="94"/>
	<rect x="151" y="57" style="fill:#FFFFFF;" width="77" height="20"/>
</g>
</svg>
