<?xml version="1.0" encoding="iso-8859-1"?>
<!-- Generator: Adobe Illustrator 13.0.0, SVG Export Plug-In . SVG Version: 6.00 Build 14948)  -->
<!DOCTYPE svg PUBLIC "-//W3C//DTD SVG 1.1//EN" "http://www.w3.org/Graphics/SVG/1.1/DTD/svg11.dtd">
<svg version="1.1" xmlns="http://www.w3.org/2000/svg" xmlns:xlink="http://www.w3.org/1999/xlink" x="0px" y="0px" width="378px"
	 height="140px" viewBox="0 0 378 140" style="enable-background:new 0 0 378 140;" xml:space="preserve">
<g id="Layer_2">
	<g>
		<rect style="fill:none;" width="378" height="140"/>
		<rect style="fill:#FFFFFF;" width="378" height="140"/>
	</g>
</g>
<g id="Layer_3">
	<g>
		<path style="fill:none;stroke:#404040;stroke-width:1.7771;stroke-linecap:round;" d="M256.503,70.004
			c0,37.275-30.22,67.496-67.503,67.496s-67.504-30.221-67.504-67.496C121.496,32.721,151.717,2.5,189,2.5
			S256.503,32.721,256.503,70.004z"/>
		<line style="fill:none;stroke:#404040;stroke-width:1.7771;stroke-linecap:round;" x1="189" y1="2.5" x2="189" y2="10.561"/>
		<line style="fill:none;stroke:#404040;stroke-width:1.7771;stroke-linecap:round;" x1="189" y1="137.5" x2="189" y2="129.439"/>
		
			<line style="fill:none;stroke:#404040;stroke-width:1.7771;stroke-linecap:round;" x1="121.496" y1="70.004" x2="129.557" y2="70.004"/>
		
			<line style="fill:none;stroke:#404040;stroke-width:1.7771;stroke-linecap:round;" x1="256.503" y1="70.004" x2="248.442" y2="70.004"/>
		<line style="fill:none;stroke:#404040;stroke-width:0.8882;" x1="226.209" y1="13.681" x2="223.722" y2="17.711"/>
		<line style="fill:none;stroke:#404040;stroke-width:0.8882;" x1="248.261" y1="38.078" x2="244.318" y2="40.707"/>
		<line style="fill:none;stroke:#404040;stroke-width:0.8882;" x1="248.854" y1="101.228" x2="244.823" y2="99.213"/>
		<line style="fill:none;stroke:#404040;stroke-width:0.8882;" x1="224.288" y1="127.553" x2="221.97" y2="123.522"/>
		<line style="fill:none;stroke:#404040;stroke-width:0.8882;" x1="150.368" y1="125.355" x2="153.576" y2="121.325"/>
		<line style="fill:none;stroke:#404040;stroke-width:0.8882;" x1="128.95" y1="99.894" x2="132.98" y2="97.534"/>
		<line style="fill:none;stroke:#404040;stroke-width:0.8882;" x1="128.29" y1="40.491" x2="132.32" y2="42.957"/>
		<line style="fill:none;stroke:#404040;stroke-width:0.8882;" x1="150.152" y1="14.793" x2="152.923" y2="18.823"/>
		
			<line style="fill:none;stroke:#404040;stroke-width:7.1083;stroke-linecap:round;stroke-linejoin:round;" x1="188.67" y1="68.258" x2="148.643" y2="77.599"/>
		
			<line style="fill:none;stroke:#404040;stroke-width:7.1083;stroke-linecap:round;stroke-linejoin:round;" x1="189" y1="70.004" x2="188.986" y2="123.186"/>
	</g>
</g>
</svg>
