<?xml version="1.0" encoding="iso-8859-1"?>
<!-- Generator: Adobe Illustrator 13.0.0, SVG Export Plug-In . SVG Version: 6.00 Build 14948)  -->
<!DOCTYPE svg PUBLIC "-//W3C//DTD SVG 1.1//EN" "http://www.w3.org/Graphics/SVG/1.1/DTD/svg11.dtd">
<svg version="1.1" xmlns="http://www.w3.org/2000/svg" xmlns:xlink="http://www.w3.org/1999/xlink" x="0px" y="0px" width="378px"
	 height="140px" viewBox="0 0 378 140" style="enable-background:new 0 0 378 140;" xml:space="preserve">
<g id="Layer_2">
	<g>
		<rect style="fill:none;" width="378" height="140"/>
		<rect style="fill:#FFFFFF;" width="378" height="140"/>
	</g>
</g>
<g id="Layer_3">
	<g>
		
			<line style="fill:none;stroke:#404040;stroke-width:1.7771;stroke-linecap:round;" x1="189.007" y1="2.5" x2="189.007" y2="10.559"/>
		
			<line style="fill:none;stroke:#404040;stroke-width:1.7771;stroke-linecap:round;" x1="189.007" y1="137.5" x2="189.007" y2="129.441"/>
		<line style="fill:none;stroke:#404040;stroke-width:1.7771;stroke-linecap:round;" x1="121.507" y1="70" x2="129.564" y2="70"/>
		<line style="fill:none;stroke:#404040;stroke-width:1.7771;stroke-linecap:round;" x1="256.507" y1="70" x2="248.448" y2="70"/>
		<line style="fill:none;stroke:#404040;stroke-width:0.8885;" x1="226.217" y1="13.68" x2="223.729" y2="17.709"/>
		<line style="fill:none;stroke:#404040;stroke-width:0.8885;" x1="248.267" y1="38.069" x2="244.325" y2="40.706"/>
		<line style="fill:none;stroke:#404040;stroke-width:0.8885;" x1="248.858" y1="101.23" x2="244.836" y2="99.213"/>
		<line style="fill:none;stroke:#404040;stroke-width:0.8885;" x1="224.293" y1="127.545" x2="221.973" y2="123.522"/>
		<line style="fill:none;stroke:#404040;stroke-width:0.8885;" x1="150.37" y1="125.352" x2="153.585" y2="121.323"/>
		<line style="fill:none;stroke:#404040;stroke-width:0.8885;" x1="128.953" y1="99.886" x2="132.988" y2="97.531"/>
		<line style="fill:none;stroke:#404040;stroke-width:0.8885;" x1="128.293" y1="40.491" x2="132.329" y2="42.953"/>
		<line style="fill:none;stroke:#404040;stroke-width:0.8885;" x1="150.161" y1="14.796" x2="152.926" y2="18.818"/>
		<path style="fill:none;stroke:#404040;stroke-width:1.7771;stroke-linecap:round;" d="M256.493,70c0,37.278-30.222,67.5-67.5,67.5
			s-67.5-30.222-67.5-67.5c0-37.285,30.222-67.5,67.5-67.5S256.493,32.715,256.493,70z"/>
		<g>
			
				<line style="fill:none;stroke:#404040;stroke-width:7.1083;stroke-linecap:round;stroke-linejoin:round;" x1="189.033" y1="70" x2="188.953" y2="113.628"/>
			
				<line style="fill:none;stroke:#404040;stroke-width:7.1083;stroke-linecap:round;stroke-linejoin:round;" x1="188.993" y1="70" x2="188.993" y2="16.813"/>
		</g>
	</g>
</g>
</svg>
