<?xml version="1.0" encoding="iso-8859-1"?>
<!-- Generator: Adobe Illustrator 13.0.0, SVG Export Plug-In . SVG Version: 6.00 Build 14948)  -->
<!DOCTYPE svg PUBLIC "-//W3C//DTD SVG 1.1//EN" "http://www.w3.org/Graphics/SVG/1.1/DTD/svg11.dtd">
<svg version="1.1" xmlns="http://www.w3.org/2000/svg" xmlns:xlink="http://www.w3.org/1999/xlink" x="0px" y="0px" width="378px"
	 height="140px" viewBox="0 0 378 140" style="enable-background:new 0 0 378 140;" xml:space="preserve">
<pattern  x="-81" y="170" width="538" height="200" patternUnits="userSpaceOnUse" id="New_Pattern_Swatch_3" viewBox="0 -200 538 200" style="overflow:visible;">
	<g>
		<polygon style="fill:none;" points="0,0 538,0 538,-200 0,-200 		"/>
		<polygon style="fill:#FFFFFF;" points="0,0 538,0 538,-200 0,-200 		"/>
	</g>
</pattern>
<g id="fond">
	<rect style="fill:#FFFFFF;" width="378" height="140"/>
</g>
<g id="decor_plage">
	
		<line id="horizon_mer" style="fill:none;stroke:#33CCFF;stroke-width:0.5;stroke-linecap:round;stroke-linejoin:round;" x1="46.834" y1="48.541" x2="312.833" y2="48.541"/>
	<path style="fill:url(#New_Pattern_Swatch_3);stroke:#777768;stroke-width:0.5;stroke-linecap:round;stroke-linejoin:round;" d="
		M5.667,16.333c3.197,0.205,6.993,3.389,8.584,8.117s4.305,12.726,13.999,12.726c9.75,0,11.132,4.287,16.457,6.428
		c8.168,3.285,8.246,9.444,11.137,11.22c7.823,4.805,5.352,13.634,10.004,16.426s5.909,16.25,5.909,16.25
		c-1.94,1.94-45.634,17.995-47.837,15.792s-13.782,2.812-17.585,4.51"/>
	<path style="fill:#FFFFFF;stroke:#777768;stroke-width:0.5;stroke-linecap:round;stroke-linejoin:round;" d="M375,16.333
		c-11.843,0-28.782,4.051-36.1,3.992c-9.056-0.073-17.672,11.267-20.574,18.91c-2.573,6.772-12.631,9.802-19.201,14.265
		c-6.396,4.344-21.776,9.944-30.387,12.094c-4.72,1.178-7.713,4.188-10.392,8.073c-1.843,2.673-2.792,2.964-6.151,7.689
		s5.738,3.895,9.809,4.019c4.116,0.125,8.323,0.125,12.31,0.125c10.666,0,40.48,6.805,51.062,6.375
		c9.971-0.405,15.491-7.665,25.976-7.132c3.452,0.176,6.729-0.071,10.241-0.076c3.693-0.005,8.471,0.521,13.471,0.521"/>
	<path style="fill:none;stroke:#33CCFF;stroke-linecap:round;stroke-linejoin:round;" d="M5.361,118.311
		c10.392-0.32,8.878,10.741,16.519,13.168c8.013,2.545,27.528-10,34.458-10.625c9.334-0.842,2.548,8.399,12.125,10.125
		c6.814,1.228,22.537-20.312,39.204-13.312c25.973,10.908,39.339,8.902,68.661-5.518c14.732-7.245,28.604,10.561,37.739,6.146
		c7.5-3.625,9.322-10.837,12.572-15.587c3.553-5.192,11.291-5.5,18.213-1.743c9.983,5.418,19.561,9.781,32.73,7.22
		c12.454-2.422-4.263-23.668,25.904-18.752"/>
</g>
<g id="homme">
	<g>
		<path style="fill:none;stroke:#777768;stroke-width:1.199;stroke-linecap:round;stroke-linejoin:round;" d="M224.704,73.147
			c0,1.059,0.864,1.915,1.918,1.915c1.053,0,1.914-0.856,1.914-1.915s-0.861-1.911-1.914-1.911
			C225.568,71.236,224.704,72.089,224.704,73.147z"/>
		<path style="fill:#FFFFFF;stroke:#787768;stroke-width:1.199;stroke-linecap:round;stroke-linejoin:round;" d="M217.704,15.2
			c0,5.929,3.668,10.734,8.197,10.734c4.521,0,8.193-4.805,8.193-10.734c0-5.927-3.673-10.732-8.193-10.732
			C221.372,4.468,217.704,9.273,217.704,15.2z"/>
		<path style="fill:none;stroke:#777768;stroke-width:1.199;stroke-linecap:round;stroke-linejoin:round;" d="M225.695,26.361
			c0.035,7.493-1.012,29.645,0.425,36.837c1.287,6.422,1.858,4.477,0.571,13.469c-1.606,11.266,2.01,22.258,2.401,27.961
			c1.992,29.556,2.173,28.813-4.687,27.957"/>
	</g>
</g>
<g id="femme">
	<path style="fill:url(#New_Pattern_Swatch_3);stroke:#777768;stroke-width:1.799;stroke-linecap:round;stroke-linejoin:round;" d="
		M146.571,33.04c-0.011,1.939,0.057,4.926,0.131,8.376"/>
	
		<ellipse style="fill:url(#New_Pattern_Swatch_3);stroke:#777768;stroke-width:1.799;stroke-linecap:round;stroke-linejoin:round;" cx="146.57" cy="21.603" rx="8.425" ry="11.033"/>
	<path style="fill:none;stroke:#777768;stroke-width:1.799;stroke-linecap:round;stroke-linejoin:round;" d="M146.823,47.608
		c0.126,7.778,0.111,16.11-0.658,19.93c-1.197,6.016-3.608,3.611-2.403,12.035c1.507,10.555,5.617,19.256,4.411,24.469
		c-6.567,28.473-6.817,29.287-0.403,28.484"/>
	<path style="fill:#FFFFFF;stroke:#787768;stroke-width:1.1995;stroke-linecap:round;stroke-linejoin:round;" d="M151.599,44.482
		c0,1.882-1.521,3.409-3.406,3.409s-3.416-1.527-3.416-3.409c0-1.883,1.531-3.411,3.416-3.411S151.599,42.599,151.599,44.482z"/>
</g>
<g id="Layer_5">
	<path style="fill:none;stroke:#D5312C;stroke-linecap:round;stroke-linejoin:round;" d="M191.231,32.529
		c0,0-1.693-3.496-4.097-3.496c-2.404,0-3.988,3.168-6.666,3.168c-2.676,0-2.349-3.223-5.354-3.223
		c-3.004,0-2.676,3.223-5.354,3.223c-2.677,0-4.261-3.168-6.665-3.168c-2.403,0-4.097,3.496-4.097,3.496"/>
	<path style="fill:none;stroke:#D5312C;stroke-linecap:round;stroke-linejoin:round;" d="M191.613,37.08
		c0,0-1.693-3.496-4.098-3.496c-2.403,0-3.987,3.168-6.664,3.168c-2.678,0-2.35-3.223-5.354-3.223c-3.005,0-2.678,3.223-5.354,3.223
		c-2.677,0-4.261-3.168-6.665-3.168c-2.404,0-4.098,3.496-4.098,3.496"/>
	<polygon style="fill:#D5312C;" points="175.799,9.311 187.517,14.064 175.826,19.09 	"/>
	<rect x="174.236" y="8.656" style="fill:#FFFFFF;stroke:#D5312C;stroke-width:0.6307;" width="1.73" height="20.158"/>
</g>
</svg>
