<?xml version="1.0" encoding="utf-8"?>
<!-- Generator: Adobe Illustrator 16.0.0, SVG Export Plug-In . SVG Version: 6.00 Build 0)  -->
<!DOCTYPE svg PUBLIC "-//W3C//DTD SVG 1.1//EN" "http://www.w3.org/Graphics/SVG/1.1/DTD/svg11.dtd">
<svg version="1.1" id="Calque_1" xmlns="http://www.w3.org/2000/svg" xmlns:xlink="http://www.w3.org/1999/xlink" x="0px" y="0px"
	 width="378px" height="140px" viewBox="0 0 378 140" enable-background="new 0 0 378 140" xml:space="preserve">
<g id="Layer_2">
	<g>
		<rect y="-1" fill="none" width="378" height="140"/>
		<rect y="-1" fill="#FFFFFF" width="378" height="140"/>
	</g>
</g>
<g id="Layer_3">
	<g>
		<path fill="#65B724" d="M129,125.499c0,1.171-0.67,0-1.496,0h-12.343c-0.826,0-1.496-0.948-1.496-2.119V32.284
			c0-1.169,0.67-2.118,1.496-2.118h12.343c0.826,0,1.496,0.949,1.496,2.118V125.499z"/>
		<rect x="101.666" y="1.166" fill="none" stroke="#383838" stroke-width="1.0242" width="174.667" height="135.667"/>
		
			<text transform="matrix(1 0 0 1 114.665 43.501)" fill="#65B724" font-family="'MyriadPro-Regular'" font-size="12" letter-spacing="33">  </text>
		
			<text transform="matrix(1 0 0 1 114.665 43.501)" fill="none" stroke="#FF9934" stroke-width="0.5" font-family="'MyriadPro-Regular'" font-size="12" letter-spacing="33">  </text>
		<text transform="matrix(1 0 0 1 186.665 43.501)" fill="#65B724" font-family="'MyriadPro-Regular'" font-size="12">   </text>
		
			<text transform="matrix(1 0 0 1 186.665 43.501)" fill="none" stroke="#FF9934" stroke-width="0.5" font-family="'MyriadPro-Regular'" font-size="12">   </text>
		
			<text transform="matrix(1 0 0 1 179.2969 43.501)" fill="none" stroke="#648943" stroke-width="0.5" font-family="'MyriadPro-Regular'" font-size="12">  </text>
		<text transform="matrix(1 0 0 1 184.3848 43.501)" fill="#65B724" font-family="'MyriadPro-Regular'" font-size="12">01  02  03</text>
		<text transform="matrix(1 0 0 1 114.665 62.9014)" fill="#FFFFFF" font-family="'MyriadPro-Regular'" font-size="12">04</text>
		<text transform="matrix(1 0 0 1 126.9771 62.9014)" fill="#65B724" font-family="'MyriadPro-Regular'" font-size="12">  05  06  07  08  09  10</text>
		<text transform="matrix(1 0 0 1 114.665 82.3008)" fill="#FFFFFF" font-family="'MyriadPro-Regular'" font-size="12">11</text>
		
			<text transform="matrix(1 0 0 1 126.9771 82.3008)" fill="none" stroke="#65B724" stroke-width="0.5" font-family="'MyriadPro-Regular'" font-size="12">  </text>
		<text transform="matrix(1 0 0 1 132.0649 82.3008)" fill="#65B724" font-family="'MyriadPro-Regular'" font-size="12">12  13  14  15  16  17</text>
		<text transform="matrix(1 0 0 1 114.665 101.7012)" fill="#FFFFFF" font-family="'MyriadPro-Regular'" font-size="12">18</text>
		
			<text transform="matrix(1 0 0 1 126.9771 101.7012)" fill="none" stroke="#65B724" stroke-width="0.5" font-family="'MyriadPro-Regular'" font-size="12">  </text>
		<text transform="matrix(1 0 0 1 132.0649 101.7012)" fill="#65B724" font-family="'MyriadPro-Regular'" font-size="12">19  20  21  22  23  24</text>
		<text transform="matrix(1 0 0 1 114.665 121.1006)" fill="#FFFFFF" font-family="'MyriadPro-Regular'" font-size="12">25</text>
		
			<text transform="matrix(1 0 0 1 126.9771 121.1006)" fill="none" stroke="#65B724" stroke-width="0.5" font-family="'MyriadPro-Regular'" font-size="12">  </text>
		<text transform="matrix(1 0 0 1 132.0649 121.1006)" fill="#65B724" font-family="'MyriadPro-Regular'" font-size="12">26  27  28  29  30  31</text>
	</g>
</g>
</svg>
