<?xml version="1.0" encoding="iso-8859-1"?>
<!-- Generator: Adobe Illustrator 13.0.0, SVG Export Plug-In . SVG Version: 6.00 Build 14948)  -->
<!DOCTYPE svg PUBLIC "-//W3C//DTD SVG 1.1//EN" "http://www.w3.org/Graphics/SVG/1.1/DTD/svg11.dtd">
<svg version="1.1" xmlns="http://www.w3.org/2000/svg" xmlns:xlink="http://www.w3.org/1999/xlink" x="0px" y="0px" width="378px"
	 height="140px" viewBox="0 0 378 140" style="enable-background:new 0 0 378 140;" xml:space="preserve">
<g id="Layer_2">
	<g>
		<rect style="fill:none;" width="378" height="140"/>
		<rect style="fill:#FFFFFF;" width="378" height="140"/>
	</g>
</g>
<g id="Layer_3">
	<g>
		
			<ellipse style="fill:none;stroke:#1FFFE2;stroke-width:10;stroke-linecap:round;stroke-linejoin:round;" cx="300.765" cy="70" rx="42.667" ry="62.499"/>
		<path style="fill:none;stroke:#1FFFE2;stroke-width:10;stroke-linecap:round;stroke-linejoin:round;" d="M242.211,70.001
			c0,34.516-19.104,62.498-42.666,62.498c-23.563,0-42.668-27.982-42.668-62.498c0-34.52,19.104-62.501,42.668-62.501
			C223.107,7.5,242.211,35.481,242.211,70.001z"/>
		<path style="fill:none;stroke:#1FFFE2;stroke-width:10;stroke-linecap:round;stroke-linejoin:round;" d="M140.99,70.001
			c0,34.516-19.104,62.498-42.667,62.498s-42.667-27.982-42.667-62.498C55.656,35.481,74.76,7.5,98.323,7.5
			S140.99,35.481,140.99,70.001z"/>
		<path style="fill:none;stroke:#1FFFE2;stroke-width:10;stroke-linecap:round;stroke-linejoin:round;" d="M35.062,7.499
			c-1.067,20.926-0.772,107.247,4.717,125.001"/>
	</g>
</g>
</svg>
