<?xml version="1.0" encoding="iso-8859-1"?>
<!-- Generator: Adobe Illustrator 13.0.0, SVG Export Plug-In . SVG Version: 6.00 Build 14948)  -->
<!DOCTYPE svg PUBLIC "-//W3C//DTD SVG 1.1//EN" "http://www.w3.org/Graphics/SVG/1.1/DTD/svg11.dtd">
<svg version="1.1" xmlns="http://www.w3.org/2000/svg" xmlns:xlink="http://www.w3.org/1999/xlink" x="0px" y="0px" width="378px"
	 height="140px" viewBox="0 0 378 140" style="enable-background:new 0 0 378 140;" xml:space="preserve">
<pattern  x="-81" y="170" width="538" height="200" patternUnits="userSpaceOnUse" id="New_Pattern_Swatch_3" viewBox="0 -200 538 200" style="overflow:visible;">
	<g>
		<polygon style="fill:none;" points="0,0 538,0 538,-200 0,-200 		"/>
		<polygon style="fill:#FFFFFF;" points="0,0 538,0 538,-200 0,-200 		"/>
	</g>
</pattern>
<g id="fond">
	<g>
		<rect style="fill:#FFFFFF;" width="378" height="140"/>
	</g>
</g>
<g id="guides">
</g>
<g id="wc">
	
		<rect x="281.172" y="75.208" style="fill:#FFFFFF;stroke:#777768;stroke-width:0.3264;stroke-linecap:round;stroke-linejoin:round;" width="1.568" height="1.833"/>
	<path style="fill:#FFFFFF;stroke:#777768;stroke-width:0.75;stroke-linecap:round;stroke-linejoin:round;" d="M282.486,98.48h5.668
		c0.553,0,1-0.39,1-0.872l3.27-17.986c0-0.482-0.447-0.872-1-0.872h-8.938h-1.062h-8.938c-0.553,0-1,0.39-1,0.872l3.271,17.986
		c0,0.482,0.447,0.872,1,0.872h5.666H282.486z"/>
	<path style="fill:#FFFFFF;stroke:#777768;stroke-width:0.75;stroke-linecap:round;stroke-linejoin:round;" d="M277.262,111.923
		c-3.799-1.891-6.432-6.002-6.432-10.771h22.25c0,4.768-2.632,8.878-6.43,10.769v-0.001l1.951,13.857h-13.291l1.952-13.858
		L277.262,111.923z"/>
	<path style="fill:#FFFFFF;stroke:#777768;stroke-width:0.75;stroke-linecap:round;stroke-linejoin:round;" d="M293.08,99.646
		c0-1.843-4.98-3.337-11.125-3.337s-11.125,1.494-11.125,3.337H293.08z"/>
	<path style="fill:#FFFFFF;stroke:#777768;stroke-width:0.75;stroke-linecap:round;stroke-linejoin:round;" d="M292.102,78.832
		c0-0.989-4.542-1.791-10.146-1.791c-5.604,0-10.146,0.802-10.146,1.791H292.102z"/>
	<path style="fill:#FFFFFF;stroke:#777768;stroke-width:0.75;stroke-linecap:round;stroke-linejoin:round;" d="M294.705,100.438
		c0,0.438-0.615,0.791-1.375,0.791h-22.75c-0.76,0-1.375-0.354-1.375-0.791l0,0c0-0.438,0.615-0.792,1.375-0.792h22.75
		C294.09,99.646,294.705,100.001,294.705,100.438L294.705,100.438z"/>
</g>
<g id="_evier_x2B_miroir">
	<g id="robinet">
		<polygon style="fill:#FFFFFF;stroke:#777768;stroke-width:0.4;stroke-linecap:round;stroke-linejoin:round;" points="
			237.613,78.866 235.068,78.866 234.01,83.207 238.67,83.207 		"/>
		<path style="fill:#FFFFFF;stroke:#777768;stroke-width:0.4;stroke-linecap:round;stroke-linejoin:round;" d="M237.631,80.559
			c0,0,0.039-0.702,0.086-1.546s-0.24-1.363-0.686-1.363c-0.113,0-1.268,0-1.381,0c-0.447,0-0.732,0.52-0.686,1.363
			s0.086,1.546,0.086,1.546H237.631z"/>
	</g>
	<g id="robinet2">
		<g>
			
				<rect x="227.138" y="79.375" style="fill:#FFFFFF;stroke:#777768;stroke-width:0.4;stroke-linecap:round;stroke-linejoin:round;" width="2.719" height="2.602"/>
			<g>
				
					<line style="fill:none;stroke:#777768;stroke-width:0.4;stroke-linecap:round;stroke-linejoin:round;" x1="227.903" y1="79.375" x2="227.903" y2="81.977"/>
				
					<line style="fill:none;stroke:#777768;stroke-width:0.4;stroke-linecap:round;stroke-linejoin:round;" x1="229.091" y1="79.375" x2="229.091" y2="81.977"/>
			</g>
			
				<rect x="227.853" y="81.977" style="fill:#FFFFFF;stroke:#777768;stroke-width:0.4;stroke-linecap:round;stroke-linejoin:round;" width="1.289" height="1.23"/>
		</g>
		<g>
			
				<rect x="242.823" y="79.375" style="fill:#FFFFFF;stroke:#777768;stroke-width:0.4;stroke-linecap:round;stroke-linejoin:round;" width="2.719" height="2.602"/>
			<g>
				
					<line style="fill:none;stroke:#777768;stroke-width:0.4;stroke-linecap:round;stroke-linejoin:round;" x1="243.589" y1="79.375" x2="243.589" y2="81.977"/>
				
					<line style="fill:none;stroke:#777768;stroke-width:0.4;stroke-linecap:round;stroke-linejoin:round;" x1="244.776" y1="79.375" x2="244.776" y2="81.977"/>
			</g>
			
				<rect x="243.538" y="81.977" style="fill:#FFFFFF;stroke:#777768;stroke-width:0.4;stroke-linecap:round;stroke-linejoin:round;" width="1.289" height="1.23"/>
		</g>
	</g>
	
		<path id="base_evier" style="fill:url(#New_Pattern_Swatch_3);stroke:#777768;stroke-width:0.75;stroke-linecap:round;stroke-linejoin:round;" d="
		M250.637,89.407c0.134,0.396,0.203,0.802,0.203,1.216c0,3.365-4.586,6.195-10.804,7.012l0.005,0.073l1.883,27.915h-11.167
		l1.883-27.915l0.005-0.072c-6.218-0.817-10.805-3.647-10.805-7.013c0-0.404,0.066-0.801,0.193-1.188"/>
	
		<path id="evier_1_" style="fill:url(#New_Pattern_Swatch_3);stroke:#777768;stroke-width:0.75;stroke-linecap:round;stroke-linejoin:round;" d="
		M218.59,89.632c0,0.409,0.447,0.741,1,0.741h33.5c0.553,0,1-0.332,1-0.741v-5.684c0-0.409-0.447-0.741-1-0.741h-33.5
		c-0.553,0-1,0.332-1,0.741V89.632z"/>
	
		<path id="miroir" style="fill:url(#New_Pattern_Swatch_3);stroke:#777768;stroke-width:0.75;stroke-linecap:round;stroke-linejoin:round;" d="
		M249.715,74.834c0,0.553-0.447,1-1,1h-24.75c-0.553,0-1-0.447-1-1V37.75c0-0.552,0.447-1,1-1h24.75c0.553,0,1,0.448,1,1V74.834z"/>
	
		<ellipse style="fill:url(#New_Pattern_Swatch_3);stroke:#777768;stroke-width:0.5;stroke-linecap:round;stroke-linejoin:round;" cx="248.667" cy="76.436" rx="1.271" ry="1.396"/>
	
		<ellipse style="fill:url(#New_Pattern_Swatch_3);stroke:#777768;stroke-width:0.5;stroke-linecap:round;stroke-linejoin:round;" cx="224.013" cy="76.436" rx="1.271" ry="1.396"/>
	
		<rect id="plateau_2_" x="221.496" y="74.531" style="fill:#FFFFFF;stroke:#777768;stroke-width:0.75;stroke-linecap:round;stroke-linejoin:round;" width="29.688" height="1.595"/>
	
		<rect id="verre" x="240.043" y="67.812" style="fill:url(#New_Pattern_Swatch_3);stroke:#777768;stroke-width:0.5;stroke-linecap:round;stroke-linejoin:round;" width="4.594" height="6.719"/>
</g>
<g id="scene_x2B_porte">
	<polyline style="fill:#FFFFFF;stroke:#CCCCCC;stroke-width:0.5;stroke-linecap:round;stroke-linejoin:round;" points="31,11 
		31,132.75 226.5,132.75 226.5,25 298,25 298,132.75 341,132.75 341,11 	"/>
	
		<line style="fill:none;stroke:#CCCCCC;stroke-width:0.5;stroke-linecap:round;stroke-linejoin:round;" x1="341" y1="132.75" x2="351" y2="136.667"/>
</g>
<g id="lit">
	
		<rect x="39" y="88.434" style="fill:#FFFFFF;stroke:#9C9C9C;stroke-width:0.5;stroke-linecap:round;stroke-linejoin:round;" width="6.913" height="45.414"/>
	
		<rect x="154.334" y="127.991" style="fill:#FFFFFF;stroke:#9C9C9C;stroke-width:0.5;stroke-linecap:round;stroke-linejoin:round;" width="6.913" height="5.856"/>
	
		<rect x="45.913" y="114.934" style="fill:#FFFFFF;stroke:#9C9C9C;stroke-width:0.5;stroke-linecap:round;stroke-linejoin:round;" width="117.421" height="13.058"/>
	
		<rect x="45.913" y="101.875" style="fill:#FFFFFF;stroke:#9C9C9C;stroke-width:0.5;stroke-linecap:round;stroke-linejoin:round;" width="117.421" height="13.058"/>
	
		<rect x="60.1" y="100.667" style="fill:#FFFFFF;stroke:#9C9C9C;stroke-width:0.5;stroke-linecap:round;stroke-linejoin:round;" width="14.594" height="14.121"/>
	
		<circle style="fill:#FFFFFF;stroke:#9C9C9C;stroke-width:0.5;stroke-linecap:round;stroke-linejoin:round;" cx="51.77" cy="96.834" r="5.041"/>
	
		<ellipse transform="matrix(0.5367 -0.8438 0.8438 0.5367 -49.018 96.0985)" style="fill:#FFFFFF;stroke:#9C9C9C;stroke-width:0.5;stroke-linecap:round;stroke-linejoin:round;" cx="62.995" cy="92.684" rx="5.227" ry="12.25"/>
</g>
</svg>
