<?xml version="1.0" encoding="iso-8859-1"?>
<!-- Generator: Adobe Illustrator 13.0.0, SVG Export Plug-In . SVG Version: 6.00 Build 14948)  -->
<!DOCTYPE svg PUBLIC "-//W3C//DTD SVG 1.1//EN" "http://www.w3.org/Graphics/SVG/1.1/DTD/svg11.dtd">
<svg version="1.1" xmlns="http://www.w3.org/2000/svg" xmlns:xlink="http://www.w3.org/1999/xlink" x="0px" y="0px" width="540px"
	 height="200px" viewBox="0 0 540 200" style="enable-background:new 0 0 540 200;" xml:space="preserve">
<g id="Layer_2">
	<g>
		<rect style="fill:none;" width="540" height="200"/>
		<rect style="fill:#FFFFFF;" width="540" height="200"/>
	</g>
</g>
<g id="Layer_3">
	<g>
		<g>
			<path style="fill:#FFFFFF;stroke:#777768;stroke-width:1.7135;stroke-linecap:round;stroke-linejoin:round;" d="M246.852,31.251
				c0,8.668-5.369,15.692-11.986,15.692c-6.614,0-11.981-7.024-11.981-15.692c0-8.664,5.367-15.688,11.981-15.688
				C241.483,15.563,246.852,22.587,246.852,31.251z"/>
			<path style="fill:none;stroke:#777768;stroke-width:1.7135;stroke-linecap:round;stroke-linejoin:round;" d="M235.227,68.237
				c0.178,11.066,0.161,22.919-0.931,28.344c-1.709,8.564-5.133,5.144-3.425,17.121c2.15,15.012,7.987,27.393,6.282,34.807
				c-9.348,40.5-9.703,41.656-0.57,40.514"/>
			<path style="fill:none;stroke:#777768;stroke-width:1.7135;stroke-linecap:round;stroke-linejoin:round;" d="M234.866,47.511
				c-0.012,2.709,0.081,6.854,0.185,11.641"/>
			<path style="fill:#FFFFFF;stroke:#777768;stroke-width:1.7135;stroke-linecap:round;stroke-linejoin:round;" d="M242.017,63.79
				c0,2.675-2.173,4.856-4.85,4.856c-2.676,0-4.847-2.182-4.847-4.856c0-2.682,2.171-4.849,4.847-4.849
				C239.844,58.941,242.017,61.108,242.017,63.79z"/>
		</g>
	</g>
	<g>
		<path style="fill:#FFFFFF;stroke:#777768;stroke-width:1.7135;stroke-linecap:round;stroke-linejoin:round;" d="M303.273,104.344
			c0,1.514,1.234,2.736,2.74,2.736c1.504,0,2.734-1.223,2.734-2.736c0-1.512-1.23-2.729-2.734-2.729
			C304.508,101.615,303.273,102.832,303.273,104.344z"/>
		<path style="fill:#FFFFFF;stroke:#777768;stroke-width:2.5702;stroke-linecap:round;stroke-linejoin:round;" d="M293.273,21.563
			c0,8.47,5.24,15.335,11.709,15.335c6.459,0,11.705-6.865,11.705-15.335c0-8.468-5.246-15.332-11.705-15.332
			C298.514,6.231,293.273,13.095,293.273,21.563z"/>
		<path style="fill:none;stroke:#777768;stroke-width:2.5702;stroke-linecap:round;stroke-linejoin:round;" d="M304.689,37.506
			c0.051,10.704-1.445,42.351,0.607,52.624c1.838,9.175,2.654,6.396,0.814,19.243c-2.295,16.094,2.873,31.797,3.432,39.943
			c2.846,42.223,3.104,41.162-6.695,39.939"/>
	</g>
	<g>
		<path style="fill:#777768;stroke:#777768;stroke-width:1.7135;stroke-linecap:round;stroke-linejoin:round;" d="M281.58,44.245
			c-0.097-0.15-0.172-0.25-0.226-0.291c-1.405,0.721-4.866-1.442-6.334-2.021c0.708,0.084,2.633,0.801,3.279,1.088
			c-1.195-1.121-1.595-2.439-3.418-3.982c0.895,0.778,1.407,0.945,2.582,1.571c-0.53-1.415-0.579-2.22-1.758-4.069
			c1.298,1.681,2.299,2.537,2.86,2.976c0.142-1.02-0.128-1.728-0.803-3.38c1.136,1.921,1.924,3.374,3.117,5.215
			c0.399-0.814,0.456-3.898,0.499-5.022c0.33,1.286,0.511,6.94-0.025,7.625"/>
		<path style="fill:none;stroke:#777768;stroke-width:1.7135;stroke-linecap:round;stroke-linejoin:round;" d="M304.268,45.711
			c-0.12,0.202,0.15,0.326-0.186,0.402c-0.439-0.475-1.957-2.85-2.466-2.892c-1.124-0.091-8.941,32.998-13.45,32.998
			c-5.676,0-4.538-28.775-6.586-31.976"/>
	</g>
	<g>
		<path style="fill:#777768;stroke:#777768;stroke-width:1.7135;stroke-linecap:round;stroke-linejoin:round;" d="M293.752,46.478
			c0.097-0.148,0.158-0.256,0.183-0.314c-0.708-0.501,0.411-4.001,0.641-5.291c0.03,0.51-0.238,2.178-0.362,2.765
			c0.658-1.425,1.563-2.443,2.446-4.521c-0.448,1.031-0.504,1.462-0.804,2.587c0.959-1.16,1.538-1.656,2.728-3.488
			c-1.052,1.814-1.543,2.959-1.789,3.577c0.76-0.494,1.238-1.077,2.352-2.468c-1.247,1.846-3.382,5.641-3.382,5.032
			c0.645-0.208,2.894-1.946,3.716-2.565c-0.891,0.955-4.978,4.327-5.545,4.372"/>
		<path style="fill:none;stroke:#777768;stroke-width:1.7135;stroke-linecap:round;stroke-linejoin:round;" d="M304.268,45.711
			c-0.066,0.202,0.083,0.326-0.102,0.402c-0.241-0.475,3.398-2.438,3.654-2.319c1.795,0.837-9.917,32.425-12.393,32.425
			c-3.115,0-2.959-28.895-0.901-32.071"/>
	</g>
	<g>
		<g>
			<path style="fill:none;stroke:#777768;stroke-linecap:round;stroke-linejoin:round;" d="M282.75,8.096
				c-0.41,3.893-0.685,8.48-0.687,11.511"/>
			
				<line style="fill:none;stroke:#777768;stroke-linecap:round;stroke-linejoin:round;" x1="282.292" y1="22.987" x2="281.449" y2="23.874"/>
		</g>
		<g>
			<path style="fill:none;stroke:#777768;stroke-linecap:round;stroke-linejoin:round;" d="M287.174,8.548
				c-0.283,2.663-0.867,5.276-1.124,7.945c-0.104,1.075-0.285,2.505-0.433,3.359"/>
			<path style="fill:none;stroke:#777768;stroke-linecap:round;stroke-linejoin:round;" d="M285.372,23.785
				c-0.133-0.015-0.208-0.118-0.082,0.257c0.104-0.089,0.102-0.202,0.163-0.339"/>
		</g>
	</g>
</g>
</svg>
