<?xml version="1.0" encoding="iso-8859-1"?>
<!-- Generator: Adobe Illustrator 13.0.0, SVG Export Plug-In . SVG Version: 6.00 Build 14948)  -->
<!DOCTYPE svg PUBLIC "-//W3C//DTD SVG 1.1//EN" "http://www.w3.org/Graphics/SVG/1.1/DTD/svg11.dtd">
<svg version="1.1" xmlns="http://www.w3.org/2000/svg" xmlns:xlink="http://www.w3.org/1999/xlink" x="0px" y="0px"
	 width="408.896px" height="152.689px" viewBox="0 0 408.896 152.689" style="enable-background:new 0 0 408.896 152.689;"
	 xml:space="preserve">
<g id="Layer_2">
	<g>
		<rect x="30.896" y="12.689" style="fill:#FFFFFF;" width="378" height="140"/>
	</g>
</g>
<g id="Layer_1" style="display:none;">
	<g style="display:inline;">
		<g>
			<path style="fill:#5E5E5E;stroke:#5E5E5E;stroke-width:3;" d="M1.352,64.513c0,0,4.552-9.451,12.015-14.267"/>
			<path style="fill:#5E5E5E;stroke:#5E5E5E;stroke-width:3;" d="M34.073,64.513c0,0-4.552-9.451-12.015-14.267"/>
			<line style="fill:none;stroke:#5E5E5E;stroke-width:3;" x1="7.2" y1="55.775" x2="28.141" y2="55.775"/>
			<line style="fill:none;stroke:#5E5E5E;stroke-width:3;" x1="3.849" y1="60.235" x2="31.32" y2="60.235"/>
		</g>
		<path style="fill:#90A9C4;" d="M17.71,52.089c5.688,0,11.272-0.021,12.034-0.096c4.393-0.434,5.246-6.83,5.377-9.912
			c0.087-2.051-0.087-4.172,0.012-6.057c0.104-1.995-0.286-20.296-1.169-21.35c-1.155-1.379-2.13-2.009-5.123-2.009
			c-0.198,0-10.935,0-11.131,0h0.004c-0.196,0-10.933,0-11.131,0c-2.993,0-3.968,0.629-5.123,2.009
			c-0.883,1.054-1.273,19.354-1.169,21.35c0.099,1.885-0.075,4.006,0.012,6.057c0.131,3.083,0.984,9.478,5.377,9.912
			c0.762,0.075,6.347,0.095,12.034,0.096H17.71z"/>
		<g>
			<path style="fill:#FFFFFF;" d="M32.078,33.899c0,0.552-0.447,1-1,1H4.346c-0.553,0-1-0.448-1-1V22.312c0-0.552,0.447-1,1-1
				h26.732c0.553,0,1,0.448,1,1V33.899z"/>
		</g>
		<g>
			<path style="fill:#FFFFFF;" d="M11.107,46.149c0,0.552-0.447,1-1,1H6.316c-0.553,0-1-0.448-1-1v-3.568c0-0.552,0.447-1,1-1h3.791
				c0.553,0,1,0.448,1,1V46.149z"/>
			<path style="fill:#FFFFFF;" d="M30.107,46.149c0,0.552-0.447,1-1,1h-3.791c-0.553,0-1-0.448-1-1v-3.568c0-0.552,0.447-1,1-1
				h3.791c0.553,0,1,0.448,1,1V46.149z"/>
		</g>
	</g>
	<g style="display:inline;">
		<g>
			<path style="fill:#5E5E5E;stroke:#5E5E5E;stroke-width:3;" d="M97.774,64.513c0,0,4.552-9.451,12.015-14.267"/>
			<path style="fill:#5E5E5E;stroke:#5E5E5E;stroke-width:3;" d="M130.496,64.513c0,0-4.552-9.451-12.015-14.267"/>
			<line style="fill:none;stroke:#5E5E5E;stroke-width:3;" x1="103.623" y1="55.775" x2="124.563" y2="55.775"/>
			<line style="fill:none;stroke:#5E5E5E;stroke-width:3;" x1="100.271" y1="60.235" x2="127.743" y2="60.235"/>
		</g>
		<path style="fill:#90A9C4;" d="M114.133,52.089c5.688,0,11.272-0.021,12.034-0.096c4.393-0.434,5.246-6.83,5.377-9.912
			c0.087-2.051-0.087-4.172,0.012-6.057c0.104-1.995-0.286-20.296-1.169-21.35c-1.155-1.379-2.13-2.009-5.123-2.009
			c-0.198,0-10.935,0-11.131,0h0.004c-0.196,0-10.933,0-11.131,0c-2.993,0-3.968,0.629-5.123,2.009
			c-0.883,1.054-1.273,19.354-1.169,21.35c0.099,1.885-0.075,4.006,0.012,6.057c0.131,3.083,0.984,9.478,5.377,9.912
			c0.762,0.075,6.347,0.095,12.034,0.096H114.133z"/>
		<g>
			<path style="fill:#FFFFFF;" d="M128.501,33.899c0,0.552-0.447,1-1,1h-26.732c-0.553,0-1-0.448-1-1V22.312c0-0.552,0.447-1,1-1
				h26.732c0.553,0,1,0.448,1,1V33.899z"/>
		</g>
		<g>
			<path style="fill:#FFFFFF;" d="M107.53,46.149c0,0.552-0.447,1-1,1h-3.791c-0.553,0-1-0.448-1-1v-3.568c0-0.552,0.447-1,1-1
				h3.791c0.553,0,1,0.448,1,1V46.149z"/>
			<path style="fill:#FFFFFF;" d="M126.53,46.149c0,0.552-0.447,1-1,1h-3.791c-0.553,0-1-0.448-1-1v-3.568c0-0.552,0.447-1,1-1
				h3.791c0.553,0,1,0.448,1,1V46.149z"/>
		</g>
	</g>
	<g style="display:inline;">
		<g>
			<path style="fill:#5E5E5E;stroke:#5E5E5E;stroke-width:3;" d="M194.198,64.513c0,0,4.552-9.451,12.015-14.267"/>
			<path style="fill:#5E5E5E;stroke:#5E5E5E;stroke-width:3;" d="M226.92,64.513c0,0-4.553-9.451-12.015-14.267"/>
			<line style="fill:none;stroke:#5E5E5E;stroke-width:3;" x1="200.046" y1="55.775" x2="220.986" y2="55.775"/>
			<line style="fill:none;stroke:#5E5E5E;stroke-width:3;" x1="196.695" y1="60.235" x2="224.166" y2="60.235"/>
		</g>
		<path style="fill:#90A9C4;" d="M210.556,52.089c5.688,0,11.272-0.021,12.034-0.096c4.393-0.434,5.246-6.83,5.377-9.912
			c0.088-2.051-0.086-4.172,0.012-6.057c0.105-1.995-0.285-20.296-1.168-21.35c-1.156-1.379-2.131-2.009-5.123-2.009
			c-0.199,0-10.935,0-11.131,0h0.004c-0.196,0-10.933,0-11.131,0c-2.993,0-3.968,0.629-5.123,2.009
			c-0.883,1.054-1.273,19.354-1.169,21.35c0.099,1.885-0.075,4.006,0.012,6.057c0.131,3.083,0.984,9.478,5.377,9.912
			c0.762,0.075,6.347,0.095,12.034,0.096H210.556z"/>
		<g>
			<path style="fill:#FFFFFF;" d="M224.924,33.899c0,0.552-0.447,1-1,1h-26.732c-0.553,0-1-0.448-1-1V22.312c0-0.552,0.447-1,1-1
				h26.732c0.553,0,1,0.448,1,1V33.899z"/>
		</g>
		<g>
			<path style="fill:#FFFFFF;" d="M203.954,46.149c0,0.552-0.447,1-1,1h-3.791c-0.553,0-1-0.448-1-1v-3.568c0-0.552,0.447-1,1-1
				h3.791c0.553,0,1,0.448,1,1V46.149z"/>
			<path style="fill:#FFFFFF;" d="M222.953,46.149c0,0.552-0.447,1-1,1h-3.791c-0.553,0-1-0.448-1-1v-3.568c0-0.552,0.447-1,1-1
				h3.791c0.553,0,1,0.448,1,1V46.149z"/>
		</g>
	</g>
</g>
<g id="Layer_5">
	<g>
		<path style="fill:#FFFFFF;stroke:#777768;stroke-width:1.7991;stroke-linecap:round;stroke-linejoin:round;" d="M285.511,36.042
			c1.712,5.948,6.786,9.705,11.327,8.397c4.54-1.307,6.834-7.187,5.121-13.136c-1.713-5.943-6.785-9.702-11.323-8.394
			C286.095,24.218,283.799,30.098,285.511,36.042z"/>
		<path style="fill:none;stroke:#777768;stroke-width:1.7991;stroke-linecap:round;stroke-linejoin:round;" d="M299.099,59.474
			c1.185,7.815,2.599,16.157,4.009,19.845c2.216,5.828,4.246,3.421,3.025,11.97c-1.531,10.717-5.7,19.56-4.485,24.854
			c6.677,28.914,6.931,29.742,0.411,28.928"/>
		<path style="fill:none;stroke:#777768;stroke-width:1.7991;stroke-linecap:round;stroke-linejoin:round;" d="M296.904,44.839
			c0.326,1.907,0.752,4.836,1.246,8.219"/>
		<path style="fill:#FFFFFF;stroke:#777768;stroke-width:0.9564;stroke-linecap:round;stroke-linejoin:round;" d="M293.794,57.148
			c0.316,1.882,2.104,3.163,3.987,2.846c1.888-0.317,3.158-2.11,2.841-3.992c-0.316-1.889-2.102-3.158-3.987-2.841
			C294.75,53.477,293.477,55.26,293.794,57.148z"/>
		<g>
			<path style="fill:none;stroke:#777768;stroke-width:1.1274;stroke-linecap:round;stroke-linejoin:round;" d="M297.638,49.559
				c-1.651-4.754-14.979,9.942-17.057,15.171c0.648,4.094,13.505,8.334,19.393,7.037c-0.916-0.269-2.632-0.496-3.495-0.245
				c1.398-1.49,3.992-0.495,5.736-1.271c-1.275-0.108-2.545-0.25-3.677,0.263c0.88-1.139,2.847-1.58,4.052-2.226
				c-1.13,0.418-6.472,3.278-7.603,3.699c0.406-0.198,6.342-5.072,6.734-5.259c-1.853,1.26-4.998,3.827-6.734,5.259
				c0.347-0.382,2.071-3.5,2.625-4.027"/>
		</g>
	</g>
</g>
<g id="Layer_3" style="display:none;">
	<g style="display:inline;">
		<path style="fill:none;stroke:#777768;stroke-width:1.7135;stroke-linecap:round;stroke-linejoin:round;" d="M285.086,76.696
			c0,1.217,0.993,2.201,2.204,2.201c1.21,0,2.2-0.983,2.2-2.201c0-1.216-0.99-2.195-2.2-2.195
			C286.079,74.501,285.086,75.479,285.086,76.696z"/>
		<path style="fill:#FFFFFF;stroke:#777768;stroke-width:2.5702;stroke-linecap:round;stroke-linejoin:round;" d="M268.124,15.567
			c1.499,6.646,6.826,11.105,11.901,9.961c5.068-1.144,7.971-7.458,6.472-14.104c-1.497-6.645-6.828-11.103-11.896-9.96
			C269.523,2.608,266.626,8.922,268.124,15.567z"/>
		<path style="fill:none;stroke:#777768;stroke-width:2.5702;stroke-linecap:round;stroke-linejoin:round;" d="M280.025,25.528
			c0.041,8.61,5.037,31.471,6.688,39.734c1.478,7.38,2.135,5.145,0.655,15.479c-1.846,12.945,2.311,25.577,2.76,32.131
			c2.289,33.962,2.497,33.109-5.386,32.125"/>
		<g>
			<path style="fill:none;stroke:#777768;stroke-width:1.6106;stroke-linecap:round;stroke-linejoin:round;" d="M280.393,35.652
				c-2.253-5.149-15.812,12.371-17.672,18.373c1.078,4.501,15.758,8.105,22.201,6.15c-1.043-0.22-2.973-0.323-3.912,0.032
				c1.428-1.781,4.4-0.898,6.276-1.913c-1.431-0.01-2.854-0.059-4.071,0.611c0.881-1.344,3.03-2.006,4.318-2.83
				c-1.223,0.563-6.921,4.212-8.145,4.778c0.436-0.255,6.62-6.197,7.042-6.439c-1.953,1.563-5.232,4.695-7.042,6.439
				c0.354-0.454,2.003-4.076,2.573-4.711"/>
		</g>
	</g>
</g>
<g id="Layer_4">
	<g>
		<path style="fill:none;stroke:#777768;stroke-width:1.1995;stroke-linecap:round;stroke-linejoin:round;" d="M242.617,85.414
			c0,1.062-0.857,1.925-1.922,1.925c-1.056,0-1.923-0.863-1.923-1.925c0-1.061,0.867-1.922,1.923-1.922
			C241.76,83.492,242.617,84.353,242.617,85.414z"/>
		<path style="fill:none;stroke:#777768;stroke-width:1.1995;stroke-linecap:round;stroke-linejoin:round;" d="M249.655,27.212
			c0,5.955-3.692,10.781-8.231,10.781c-4.541,0-8.236-4.826-8.236-10.781c0-5.953,3.695-10.779,8.236-10.779
			C245.963,16.434,249.655,21.26,249.655,27.212z"/>
		<path style="fill:none;stroke:#777768;stroke-width:1.1995;stroke-linecap:round;stroke-linejoin:round;" d="M241.629,38.422
			c-0.039,7.524,1.012,29.776-0.43,36.998c-1.289,6.452-1.863,4.497-0.577,13.53c1.616,11.314-2.015,22.354-2.403,28.078
			c-2.004,29.688-2.185,28.946,4.699,28.082"/>
	</g>
</g>
</svg>
