<?xml version="1.0" encoding="iso-8859-1"?>
<!-- Generator: Adobe Illustrator 13.0.0, SVG Export Plug-In . SVG Version: 6.00 Build 14948)  -->
<!DOCTYPE svg PUBLIC "-//W3C//DTD SVG 1.1//EN" "http://www.w3.org/Graphics/SVG/1.1/DTD/svg11.dtd">
<svg version="1.1" id="Layer_1" xmlns="http://www.w3.org/2000/svg" xmlns:xlink="http://www.w3.org/1999/xlink" x="0px" y="0px"
	 width="540px" height="200px" viewBox="0 0 540 200" style="enable-background:new 0 0 540 200;" xml:space="preserve">
<g>
	<rect style="fill:#FFFFFF;" width="540" height="200"/>
</g>
<g>
	<path style="fill:none;stroke:#777768;stroke-width:1.713;stroke-linecap:round;stroke-linejoin:round;" d="M231.55,93.701
		c0.43-0.863,2.207-4.993,2.792-6.055"/>
	<path style="fill:none;stroke:#777768;stroke-width:1.713;stroke-linecap:round;stroke-linejoin:round;" d="M225.577,55.806
		c10.436,4.369,7.887,32.169,9.07,33.56c0.516,0.605,0.765,1.012,1.457,1.431c1.113,0.675,1.742,0.294,2.979,0.722
		c1.106,0.385,1.982,1.638,2.324,2.992"/>
	<g>
		<g>
			<path style="fill:#FCCF3D;" d="M232.438,99.741c0,1.074,2.592,1.074,4.637,1.074s4.438-0.152,4.445-1.074
				c0.012-0.92,0.001-10.913,0.001-10.913s-0.97,0.884-4.525,0.884c-3.559,0-4.559-1.025-4.559-1.025S232.438,98.667,232.438,99.741
				z"/>
			<path style="fill:#FFFFD9;" d="M232.433,88.313c0,0.154-0.023,0.654-0.023,1.186c0,0.49,2.908,0.693,4.559,0.693
				c1.516,0,3.334-0.312,4.158-0.52c0.527-0.137,0.365-1.182,0.365-1.359c0-0.451-2.023-0.818-4.529-0.818
				C234.462,87.495,232.433,87.862,232.433,88.313z"/>
			<g>
				<path style="fill:none;stroke:#FFFFFF;stroke-width:0.1624;" d="M240.554,89.581c0,0.086,0.079,0.152,0.171,0.152
					c0.09,0,0.166-0.066,0.166-0.152c0-0.084-0.076-0.15-0.166-0.15C240.633,89.431,240.554,89.497,240.554,89.581z"/>
				<path style="fill:none;stroke:#FFFFFF;stroke-width:0.1624;" d="M240.148,94.616c0,0.084,0.075,0.154,0.165,0.154
					c0.096,0,0.167-0.07,0.167-0.154c0-0.082-0.071-0.152-0.167-0.152C240.224,94.464,240.148,94.534,240.148,94.616z"/>
				<ellipse style="fill:none;stroke:#FFFFFF;stroke-width:0.1624;" cx="237.296" cy="95.71" rx="0.167" ry="0.152"/>
				<path style="fill:none;stroke:#FFFFFF;stroke-width:0.1624;" d="M238.597,94.347c0,0.082,0.075,0.15,0.171,0.15
					c0.093,0,0.168-0.068,0.168-0.15c0-0.088-0.075-0.156-0.168-0.156C238.672,94.19,238.597,94.259,238.597,94.347z"/>
				<ellipse style="fill:none;stroke:#FFFFFF;stroke-width:0.1624;" cx="236.278" cy="93.677" rx="0.167" ry="0.15"/>
				<path style="fill:none;stroke:#FFFFFF;stroke-width:0.1624;" d="M240.392,91.644c0,0.082,0.072,0.15,0.162,0.15
					c0.099,0,0.171-0.068,0.171-0.15c0-0.084-0.072-0.152-0.171-0.152C240.464,91.491,240.392,91.56,240.392,91.644z"/>
				<path style="fill:none;stroke:#FFFFFF;stroke-width:0.1624;" d="M236.083,91.339c0,0.084,0.072,0.152,0.167,0.152
					c0.09,0,0.163-0.068,0.163-0.152c0-0.082-0.073-0.15-0.163-0.15C236.155,91.188,236.083,91.257,236.083,91.339z"/>
				<path style="fill:none;stroke:#FFFFFF;stroke-width:0.1624;" d="M235.781,89.37c0,0.082,0.072,0.15,0.164,0.15
					c0.094,0,0.166-0.068,0.166-0.15c0-0.086-0.072-0.152-0.166-0.152C235.854,89.218,235.781,89.284,235.781,89.37z"/>
				<ellipse style="fill:none;stroke:#FFFFFF;stroke-width:0.1624;" cx="237.69" cy="89.171" rx="0.167" ry="0.152"/>
				<path style="fill:none;stroke:#FFFFFF;stroke-width:0.1624;" d="M239.206,92.612c0,0.086,0.075,0.156,0.168,0.156
					c0.09,0,0.167-0.07,0.167-0.156c0-0.082-0.077-0.15-0.167-0.15C239.281,92.462,239.206,92.53,239.206,92.612z"/>
				<path style="fill:none;stroke:#FFFFFF;stroke-width:0.1624;" d="M238.055,90.913c0,0.086,0.075,0.154,0.164,0.154
					c0.09,0,0.172-0.068,0.172-0.154c0-0.08-0.082-0.15-0.172-0.15C238.13,90.763,238.055,90.833,238.055,90.913z"/>
				<path style="fill:none;stroke:#FFFFFF;stroke-width:0.1624;" d="M236.871,92.431c0,0.086,0.072,0.154,0.166,0.154
					c0.092,0,0.165-0.068,0.165-0.154c0-0.082-0.073-0.15-0.165-0.15C236.943,92.28,236.871,92.349,236.871,92.431z"/>
				<path style="fill:none;stroke:#FFFFFF;stroke-width:0.1624;" d="M239.531,88.491c0,0.082,0.074,0.15,0.168,0.15
					c0.09,0,0.164-0.068,0.164-0.15c0-0.086-0.074-0.152-0.164-0.152C239.605,88.339,239.531,88.405,239.531,88.491z"/>
			</g>
			<path style="fill:none;stroke:#FFFFFF;stroke-width:0.1624;" d="M238.918,99.97c-0.081-0.02-0.164,0.037-0.186,0.127
				c-0.02,0.088,0.026,0.18,0.107,0.199c0.082,0.02,0.166-0.037,0.186-0.127C239.052,100.081,239.003,99.993,238.918,99.97z"/>
			<path style="fill:none;stroke:#FFFFFF;stroke-width:0.1624;" d="M234.131,98.368c-0.081-0.021-0.166,0.035-0.188,0.125
				c-0.023,0.088,0.025,0.178,0.106,0.197c0.081,0.021,0.165-0.035,0.187-0.127C234.256,98.476,234.212,98.388,234.131,98.368z"/>
			<path style="fill:none;stroke:#FFFFFF;stroke-width:0.1624;" d="M233.792,95.177c-0.081-0.023-0.165,0.033-0.186,0.123
				c-0.023,0.09,0.023,0.18,0.106,0.199c0.082,0.02,0.166-0.037,0.189-0.125C233.922,95.284,233.873,95.194,233.792,95.177z"/>
			<path style="fill:none;stroke:#FFFFFF;stroke-width:0.1624;" d="M234.766,96.931c-0.084-0.021-0.164,0.035-0.188,0.125
				s0.028,0.18,0.106,0.199c0.085,0.02,0.169-0.037,0.188-0.127C234.896,97.038,234.848,96.95,234.766,96.931z"/>
			<path style="fill:none;stroke:#FFFFFF;stroke-width:0.1624;" d="M233.965,91.136c-0.08-0.02-0.164,0.035-0.188,0.125
				c-0.023,0.088,0.029,0.178,0.109,0.201c0.078,0.018,0.163-0.039,0.184-0.129C234.09,91.243,234.047,91.157,233.965,91.136z"/>
			<path style="fill:none;stroke:#FFFFFF;stroke-width:0.1624;" d="M236.955,99.317c-0.078-0.021-0.159,0.033-0.182,0.123
				c-0.021,0.09,0.022,0.178,0.104,0.201c0.081,0.018,0.166-0.041,0.189-0.129C237.089,99.423,237.037,99.337,236.955,99.317z"/>
			<path style="fill:none;stroke:#FFFFFF;stroke-width:0.1624;" d="M233.646,88.509c-0.081-0.018-0.165,0.037-0.183,0.127
				c-0.022,0.09,0.023,0.18,0.104,0.199c0.084,0.02,0.166-0.037,0.188-0.127C233.777,88.618,233.729,88.53,233.646,88.509z"/>
			<path style="fill:none;stroke:#FFFFFF;stroke-width:0.1624;" d="M233.932,93.302c-0.085-0.02-0.166,0.037-0.187,0.127
				c-0.022,0.09,0.023,0.176,0.102,0.199c0.085,0.018,0.169-0.037,0.188-0.127C234.059,93.411,234.01,93.321,233.932,93.302z"/>
			<path style="fill:none;stroke:#FFFFFF;stroke-width:0.1624;" d="M240.049,97.124c-0.084-0.021-0.168,0.037-0.191,0.125
				s0.027,0.178,0.107,0.199c0.084,0.021,0.166-0.037,0.189-0.127C240.174,97.233,240.127,97.144,240.049,97.124z"/>
			<path style="fill:none;stroke:#FFFFFF;stroke-width:0.1624;" d="M236.297,97.935c-0.08-0.02-0.165,0.035-0.188,0.125
				c-0.021,0.09,0.028,0.178,0.113,0.199c0.075,0.018,0.162-0.037,0.187-0.127C236.43,98.042,236.381,97.954,236.297,97.935z"/>
			<path style="fill:none;stroke:#FFFFFF;stroke-width:0.1624;" d="M238.226,97.22c-0.081-0.02-0.165,0.037-0.188,0.129
				c-0.023,0.088,0.026,0.178,0.107,0.195c0.081,0.021,0.164-0.035,0.188-0.125C238.354,97.331,238.307,97.241,238.226,97.22z"/>
			<path style="fill:none;stroke:#FFFFFF;stroke-width:0.1624;" d="M236.051,96.249c-0.078-0.02-0.166,0.035-0.183,0.127
				c-0.024,0.09,0.023,0.178,0.104,0.197s0.164-0.037,0.188-0.123C236.182,96.358,236.135,96.269,236.051,96.249z"/>
			<path style="fill:none;stroke:#FFFFFF;stroke-width:0.1624;" d="M240.227,99.237c-0.078-0.023-0.162,0.035-0.186,0.123
				c-0.021,0.09,0.025,0.18,0.107,0.199c0.08,0.021,0.165-0.035,0.186-0.125C240.357,99.347,240.311,99.257,240.227,99.237z"/>
			<path style="fill:none;stroke:#A8D0DA;stroke-width:0.3679;stroke-linecap:round;stroke-linejoin:round;" d="M241.482,83.831
				c0.037,6.832,0.037,10.383,0.037,15.828c0,1.156-2.143,1.156-4.445,1.156c-2.241,0-4.637,0.045-4.637-1.074
				c0-4.457,0-11.475,0.041-15.91"/>
			
				<ellipse style="fill:none;stroke:#A8D0DA;stroke-width:0.3679;stroke-linecap:round;stroke-linejoin:round;" cx="236.98" cy="83.831" rx="4.502" ry="0.85"/>
			<path style="fill:none;stroke:#A8D0DA;stroke-width:0.2453;stroke-linecap:round;stroke-linejoin:round;" d="M241.52,89.007
				c-1.224-0.572-0.783,4.738-0.826,5.537c-0.1,2.006,0.075,4.145,0.084,5.943"/>
			<path style="fill:none;stroke:#A8D0DA;stroke-width:0.2453;stroke-linecap:round;stroke-linejoin:round;" d="M239.869,100.649
				c0-1.477-0.164-2.873-0.164-4.373c0-1.748,0.344-3.418-0.064-5.119c-0.104-0.434-0.311-1.877-0.995-1.82
				c-0.47,0.037-0.765,1.279-0.841,1.652c-0.354,1.822-0.096,4.002,0,5.859c0.064,1.26,0.166,2.809,0.166,3.885"/>
			<path style="fill:none;stroke:#A8D0DA;stroke-width:0.2453;stroke-linecap:round;stroke-linejoin:round;" d="M236.981,100.733
				c0-2-0.191-3.916-0.084-5.943c0.09-1.656,0.389-3.75-0.427-5.188c-1.615-0.465-1.227,9.898-1.227,11.131"/>
			<path style="fill:none;stroke:#A8D0DA;stroke-width:0.2453;stroke-linecap:round;stroke-linejoin:round;" d="M233.018,100.487
				c0-1.652-0.041-7.596,0.081-9.088c0.062-0.74,0.946-3.771,1.493-1.729c0.375,1.414,0.128,2.805-0.006,4.209
				c-0.215,2.203-0.234,4.777-0.248,6.77"/>
		</g>
	</g>
	<path style="fill:none;stroke:#777768;stroke-width:1.713;stroke-linecap:round;stroke-linejoin:round;" d="M231.55,93.701
		c0.518,1.435,2.685,2.864,3.887,2.636"/>
	<path style="fill:none;stroke:#777768;stroke-width:1.713;stroke-linecap:round;stroke-linejoin:round;" d="M240.452,97.022
		c1.371-1.305,1.066-1.743,1.615-2.836c-0.283,0.574-2.34-0.222-2.738,0.404c0.461-0.845,2.26-1.912,2.41-2.871
		c-0.452,0.725-1.82-0.529-2.525-0.287c0.729-0.631,1.844-1.965,2.306-2.426"/>
</g>
<g>
	<g>
		
			<rect x="427.631" y="100.724" style="fill:#D5312C;stroke:#FFFFFF;stroke-width:0.916;stroke-linecap:square;" width="4.48" height="64.386"/>
		<g>
			<path style="fill:#D5312C;" d="M391.909,99.313c0,1.404,1.139,2.542,2.543,2.542h70.83c1.404,0,2.543-1.138,2.543-2.542
				c0-1.405-1.139-2.542-2.543-2.542h-70.83C393.047,96.771,391.909,97.908,391.909,99.313
				C391.909,99.313,391.909,97.908,391.909,99.313z"/>
			<path style="fill:none;stroke:#FFFFFF;stroke-width:1.374;" d="M391.909,99.313c0,1.404,1.139,2.542,2.543,2.542h70.83
				c1.404,0,2.543-1.138,2.543-2.542c0-1.405-1.139-2.542-2.543-2.542h-70.83C393.047,96.771,391.909,97.908,391.909,99.313
				C391.909,99.313,391.909,97.908,391.909,99.313z"/>
		</g>
	</g>
	<g>
		<rect x="160.573" y="92.911" style="fill:#65B724;stroke:#FFFFFF;stroke-width:1.374;" width="5.478" height="72.816"/>
		<path style="fill:#65B724;stroke:#FFFFFF;stroke-width:1.374;" d="M179.264,96.9h-31.912v-7.979c0,0,7.568-3.492,15.547-3.492
			c7.979,0,16.365,3.492,16.365,3.492V96.9z"/>
		<rect x="153.085" y="148.463" style="fill:#65B724;stroke:#FFFFFF;stroke-width:0.916;" width="20.449" height="1.869"/>
	</g>
	<line style="fill:none;stroke:#65B724;stroke-width:3.427;" x1="26.712" y1="56.053" x2="134.204" y2="56.053"/>
	
		<line style="fill:none;stroke:#65B724;stroke-width:3.427;stroke-linecap:square;" x1="134.204" y1="56.053" x2="134.204" y2="80.097"/>
	
		<line style="fill:none;stroke:#65B724;stroke-width:3.427;stroke-linecap:square;" x1="134.204" y1="80.097" x2="123.898" y2="80.097"/>
	
		<line style="fill:none;stroke:#65B724;stroke-width:3.427;stroke-linecap:square;" x1="123.898" y1="80.097" x2="123.898" y2="164.822"/>
	
		<line style="fill:none;stroke:#65B724;stroke-width:3.427;stroke-linecap:round;" x1="123.898" y1="164.822" x2="512.431" y2="164.822"/>
	<g>
		<g>
			
				<line style="fill:none;stroke:#65B724;stroke-width:4.2837;stroke-linecap:round;stroke-linejoin:round;" x1="369.609" y1="85.415" x2="369.609" y2="124.012"/>
			
				<line style="fill:none;stroke:#65B724;stroke-width:4.2837;stroke-linecap:round;stroke-linejoin:round;" x1="369.609" y1="124.012" x2="408.202" y2="124.012"/>
			
				<line style="fill:none;stroke:#65B724;stroke-width:4.2837;stroke-linecap:round;stroke-linejoin:round;" x1="408.202" y1="124.012" x2="369.568" y2="162.65"/>
			
				<line style="fill:none;stroke:#65B724;stroke-width:4.2837;stroke-linecap:round;stroke-linejoin:round;" x1="369.568" y1="162.65" x2="391.819" y2="162.65"/>
		</g>
		<g>
			
				<line style="fill:none;stroke:#65B724;stroke-width:4.2837;stroke-linecap:round;stroke-linejoin:round;" x1="499.365" y1="85.415" x2="499.365" y2="124.012"/>
			
				<line style="fill:none;stroke:#65B724;stroke-width:4.2837;stroke-linecap:round;stroke-linejoin:round;" x1="499.365" y1="124.012" x2="460.773" y2="124.012"/>
			
				<line style="fill:none;stroke:#65B724;stroke-width:4.2837;stroke-linecap:round;stroke-linejoin:round;" x1="460.773" y1="124.012" x2="499.406" y2="162.65"/>
			
				<line style="fill:none;stroke:#65B724;stroke-width:4.2837;stroke-linecap:round;stroke-linejoin:round;" x1="499.406" y1="162.65" x2="477.152" y2="162.65"/>
		</g>
	</g>
</g>
<g>
	<g>
		<g>
			<path style="fill:none;stroke:#777768;stroke-width:1.7135;stroke-linecap:round;stroke-linejoin:round;" d="M237.494,33.383
				c0,8.668-5.369,15.692-11.986,15.692c-6.614,0-11.98-7.024-11.98-15.692c0-8.664,5.366-15.688,11.98-15.688
				C232.125,17.694,237.494,24.719,237.494,33.383z"/>
			<path style="fill:none;stroke:#777768;stroke-width:1.7135;stroke-linecap:round;stroke-linejoin:round;" d="M225.869,70.368
				c0.178,11.066,0.161,22.919-0.931,28.344c-1.71,8.564-5.134,5.144-3.425,17.121c2.15,15.012,7.987,27.393,6.282,34.807
				c-9.348,40.499-9.702,41.656-0.57,40.514"/>
			<path style="fill:none;stroke:#777768;stroke-width:1.7135;stroke-linecap:round;stroke-linejoin:round;" d="M225.507,49.642
				c-0.012,2.709,0.081,6.854,0.185,11.641"/>
			<path style="fill:#FFFFFF;stroke:#777768;stroke-width:1.7135;stroke-linecap:round;stroke-linejoin:round;" d="M232.659,65.921
				c0,2.675-2.173,4.856-4.85,4.856c-2.676,0-4.847-2.182-4.847-4.856c0-2.682,2.171-4.849,4.847-4.849
				C230.486,61.072,232.659,63.239,232.659,65.921z"/>
		</g>
	</g>
	<g>
		<path style="fill:none;stroke:#777768;stroke-width:1.7135;stroke-linecap:round;stroke-linejoin:round;" d="M293.915,106.476
			c0,1.513,1.235,2.735,2.74,2.735c1.504,0,2.734-1.223,2.734-2.735c0-1.512-1.23-2.729-2.734-2.729
			C295.15,103.746,293.915,104.964,293.915,106.476z"/>
		<path style="fill:none;stroke:#777768;stroke-width:2.5702;stroke-linecap:round;stroke-linejoin:round;" d="M283.915,23.694
			c0,8.47,5.24,15.334,11.71,15.334c6.459,0,11.705-6.864,11.705-15.334c0-8.468-5.246-15.332-11.705-15.332
			C289.155,8.362,283.915,15.227,283.915,23.694z"/>
		<path style="fill:none;stroke:#777768;stroke-width:2.5702;stroke-linecap:round;stroke-linejoin:round;" d="M295.331,39.638
			c0.051,10.704-1.445,42.351,0.607,52.624c1.838,9.175,2.654,6.396,0.815,19.242c-2.295,16.094,2.872,31.797,3.431,39.944
			c2.846,42.222,3.104,41.162-6.695,39.938"/>
	</g>
</g>
<g>
	<path style="fill:none;stroke:#777768;stroke-width:1.3087;stroke-linecap:round;stroke-linejoin:round;" d="M274.722,93.031
		c0.111,0.318,0.267,0.625,0.443,0.914c0.161,0.273,0.475,0.531,0.482,0.858c-1.235-1.352-1.684-3.431-1.323-5.249
		c0.134-0.676,0.353-0.806,0.494-1.479c0.043-0.2,5.372-1.404,5.5-1.553"/>
	<path style="fill:none;stroke:#777768;stroke-width:1.713;stroke-linecap:round;stroke-linejoin:round;" d="M295.266,45.713
		c-15.566,31.012-14.043,40.939-15.457,41.908"/>
	<path style="fill:none;stroke:#777768;stroke-width:1.3087;stroke-linecap:round;stroke-linejoin:round;" d="M282.467,88.828
		c0.44,1.357,1.627,2.011,1.95,2.846"/>
	<g>
		<path style="fill:#FCCF3D;" d="M274.726,99.322c0,1.053,2.538,1.053,4.541,1.053c2.002,0,4.345-0.149,4.354-1.053
			c0.011-0.9,0-11.242,0-11.242s-0.953,0.572-4.436,0.572c-3.485,0-4.459-0.743-4.459-0.743S274.726,98.268,274.726,99.322z"/>
		<path style="fill:#FFFFD9;" d="M274.749,87.297c0,0.152-0.022,0.642-0.022,1.162c0,0.481,2.848,0.679,4.464,0.679
			c1.485,0,3.266-0.305,4.073-0.508c0.517-0.132,0.357-1.157,0.357-1.332c0-0.44-1.982-0.801-4.437-0.801
			C276.736,86.496,274.749,86.857,274.749,87.297z"/>
		<g>
			<path style="fill:none;stroke:#FFFFFF;stroke-width:0.1591;" d="M282.674,89.373c0,0.08,0.077,0.148,0.168,0.148
				c0.088,0,0.161-0.068,0.161-0.148c0-0.085-0.073-0.147-0.161-0.147C282.751,89.226,282.674,89.288,282.674,89.373z"/>
			<path style="fill:none;stroke:#FFFFFF;stroke-width:0.1591;" d="M282.277,94.304c0,0.083,0.074,0.151,0.161,0.151
				c0.095,0,0.166-0.068,0.166-0.151c0-0.082-0.071-0.147-0.166-0.147C282.351,94.156,282.277,94.222,282.277,94.304z"/>
			<path style="fill:none;stroke:#FFFFFF;stroke-width:0.1591;" d="M279.321,95.371c0,0.086,0.07,0.154,0.161,0.154
				s0.165-0.068,0.165-0.154c0-0.078-0.074-0.146-0.165-0.146S279.321,95.293,279.321,95.371z"/>
			<path style="fill:none;stroke:#FFFFFF;stroke-width:0.1591;" d="M280.757,94.037c0,0.082,0.073,0.147,0.168,0.147
				c0.091,0,0.164-0.065,0.164-0.147c0-0.086-0.073-0.15-0.164-0.15C280.831,93.887,280.757,93.951,280.757,94.037z"/>
			<path style="fill:none;stroke:#FFFFFF;stroke-width:0.1591;" d="M278.324,93.384c0,0.079,0.073,0.147,0.164,0.147
				s0.162-0.068,0.162-0.147c0-0.085-0.071-0.151-0.162-0.151S278.324,93.299,278.324,93.384z"/>
			<path style="fill:none;stroke:#FFFFFF;stroke-width:0.1591;" d="M282.515,91.391c0,0.082,0.071,0.146,0.159,0.146
				c0.097,0,0.168-0.064,0.168-0.146c0-0.08-0.071-0.148-0.168-0.148C282.586,91.242,282.515,91.311,282.515,91.391z"/>
			<path style="fill:none;stroke:#FFFFFF;stroke-width:0.1591;" d="M278.294,91.095c0,0.079,0.071,0.147,0.166,0.147
				c0.088,0,0.159-0.068,0.159-0.147c0-0.083-0.071-0.147-0.159-0.147C278.366,90.947,278.294,91.012,278.294,91.095z"/>
			<ellipse style="fill:none;stroke:#FFFFFF;stroke-width:0.1591;" cx="278.162" cy="89.163" rx="0.162" ry="0.147"/>
			<ellipse style="fill:none;stroke:#FFFFFF;stroke-width:0.1591;" cx="279.871" cy="88.971" rx="0.163" ry="0.146"/>
			<path style="fill:none;stroke:#FFFFFF;stroke-width:0.1591;" d="M281.354,92.342c0,0.082,0.074,0.15,0.165,0.15
				c0.088,0,0.164-0.068,0.164-0.15c0-0.083-0.076-0.148-0.164-0.148C281.428,92.193,281.354,92.259,281.354,92.342z"/>
			<path style="fill:none;stroke:#FFFFFF;stroke-width:0.1591;" d="M280.227,90.678c0,0.082,0.073,0.15,0.161,0.15
				c0.089,0,0.168-0.068,0.168-0.15c0-0.08-0.079-0.148-0.168-0.148C280.3,90.529,280.227,90.598,280.227,90.678z"/>
			<path style="fill:none;stroke:#FFFFFF;stroke-width:0.1591;" d="M279.068,92.162c0,0.086,0.071,0.15,0.162,0.15
				s0.161-0.064,0.161-0.15c0-0.079-0.07-0.146-0.161-0.146S279.068,92.083,279.068,92.162z"/>
			<ellipse style="fill:none;stroke:#FFFFFF;stroke-width:0.1591;" cx="281.835" cy="88.303" rx="0.163" ry="0.147"/>
		</g>
		<path style="fill:none;stroke:#FFFFFF;stroke-width:0.1591;" d="M281.073,99.547c-0.079-0.021-0.162,0.036-0.182,0.124
			c-0.02,0.086,0.025,0.177,0.105,0.193c0.079,0.021,0.161-0.034,0.182-0.125C281.203,99.654,281.156,99.57,281.073,99.547z"/>
		<path style="fill:none;stroke:#FFFFFF;stroke-width:0.1591;" d="M276.383,97.979c-0.079-0.022-0.162,0.034-0.185,0.119
			c-0.022,0.089,0.026,0.177,0.105,0.196s0.162-0.037,0.182-0.125S276.463,97.995,276.383,97.979z"/>
		<path style="fill:none;stroke:#FFFFFF;stroke-width:0.1591;" d="M276.051,94.85c-0.08-0.021-0.161,0.033-0.181,0.125
			c-0.023,0.085,0.022,0.176,0.104,0.193c0.079,0.02,0.162-0.035,0.185-0.123C276.179,94.957,276.13,94.869,276.051,94.85z"/>
		<path style="fill:none;stroke:#FFFFFF;stroke-width:0.1591;" d="M277.005,96.57c-0.082-0.023-0.162,0.033-0.185,0.123
			c-0.022,0.087,0.029,0.172,0.105,0.194c0.082,0.018,0.165-0.036,0.185-0.125C277.133,96.676,277.085,96.588,277.005,96.57z"/>
		<path style="fill:none;stroke:#FFFFFF;stroke-width:0.1591;" d="M276.221,90.893c-0.079-0.02-0.161,0.037-0.184,0.123
			c-0.022,0.088,0.028,0.176,0.107,0.198c0.076,0.017,0.159-0.04,0.179-0.125C276.344,90.998,276.301,90.912,276.221,90.893z"/>
		<path style="fill:none;stroke:#FFFFFF;stroke-width:0.1591;" d="M279.15,98.904c-0.076-0.017-0.155,0.034-0.179,0.125
			c-0.021,0.086,0.023,0.17,0.103,0.193c0.08,0.02,0.161-0.037,0.184-0.125C279.281,99.013,279.23,98.928,279.15,98.904z"/>
		<path style="fill:none;stroke:#FFFFFF;stroke-width:0.1591;" d="M275.91,88.321c-0.08-0.019-0.162,0.036-0.179,0.124
			c-0.022,0.088,0.022,0.176,0.103,0.196c0.082,0.017,0.161-0.037,0.184-0.125C276.038,88.431,275.989,88.342,275.91,88.321z"/>
		<path style="fill:none;stroke:#FFFFFF;stroke-width:0.1591;" d="M276.187,93.015c-0.081-0.017-0.161,0.036-0.182,0.125
			c-0.022,0.087,0.023,0.173,0.101,0.192c0.081,0.02,0.164-0.033,0.184-0.122C276.312,93.123,276.265,93.037,276.187,93.015z"/>
		<path style="fill:none;stroke:#FFFFFF;stroke-width:0.1591;" d="M282.18,96.758c-0.083-0.02-0.164,0.037-0.187,0.125
			c-0.023,0.084,0.024,0.172,0.104,0.193c0.083,0.022,0.162-0.034,0.186-0.125C282.302,96.865,282.256,96.777,282.18,96.758z"/>
		<path style="fill:none;stroke:#FFFFFF;stroke-width:0.1591;" d="M278.505,97.553c-0.079-0.02-0.162,0.035-0.185,0.123
			c-0.02,0.087,0.029,0.173,0.11,0.195c0.074,0.017,0.159-0.037,0.182-0.125C278.636,97.658,278.587,97.57,278.505,97.553z"/>
		<path style="fill:none;stroke:#FFFFFF;stroke-width:0.1591;" d="M280.394,96.854c-0.079-0.022-0.162,0.034-0.185,0.125
			c-0.023,0.086,0.025,0.174,0.105,0.193c0.079,0.018,0.162-0.034,0.185-0.125C280.519,96.963,280.473,96.875,280.394,96.854z"/>
		<path style="fill:none;stroke:#FFFFFF;stroke-width:0.1591;" d="M278.264,95.9c-0.077-0.018-0.162,0.037-0.179,0.125
			c-0.023,0.088,0.022,0.176,0.102,0.193c0.08,0.022,0.163-0.035,0.186-0.12C278.392,96.008,278.346,95.922,278.264,95.9z"/>
		<path style="fill:none;stroke:#FFFFFF;stroke-width:0.1591;" d="M282.354,98.828c-0.077-0.02-0.159,0.037-0.182,0.121
			c-0.021,0.086,0.025,0.178,0.104,0.193c0.08,0.023,0.161-0.033,0.183-0.121C282.482,98.934,282.436,98.848,282.354,98.828z"/>
		<path style="fill:none;stroke:#A8D0DA;stroke-width:0.3603;stroke-linecap:round;stroke-linejoin:round;" d="M283.583,83.74
			c0.037,6.689,0.037,10.166,0.037,15.502c0,1.133-2.1,1.133-4.354,1.133c-2.196,0-4.541,0.043-4.541-1.053
			c0-4.365,0-11.238,0.039-15.582"/>
		
			<ellipse style="fill:none;stroke:#A8D0DA;stroke-width:0.3603;stroke-linecap:round;stroke-linejoin:round;" cx="279.174" cy="83.74" rx="4.409" ry="0.832"/>
		<path style="fill:none;stroke:#A8D0DA;stroke-width:0.2402;stroke-linecap:round;stroke-linejoin:round;" d="M283.621,88.809
			c-1.198-0.56-0.767,4.641-0.811,5.424c-0.096,1.963,0.074,4.059,0.083,5.82"/>
		<path style="fill:none;stroke:#A8D0DA;stroke-width:0.2402;stroke-linecap:round;stroke-linejoin:round;" d="M282.004,100.211
			c0-1.445-0.162-2.812-0.162-4.283c0-1.712,0.338-3.348-0.062-5.016c-0.102-0.422-0.304-1.837-0.974-1.783
			c-0.461,0.04-0.75,1.256-0.824,1.622c-0.346,1.786-0.093,3.919,0,5.739c0.062,1.233,0.162,2.75,0.162,3.804"/>
		<path style="fill:none;stroke:#A8D0DA;stroke-width:0.2402;stroke-linecap:round;stroke-linejoin:round;" d="M279.176,100.294
			c0-1.958-0.188-3.838-0.083-5.819c0.088-1.625,0.38-3.676-0.417-5.084c-1.583-0.455-1.201,9.695-1.201,10.903"/>
		<path style="fill:none;stroke:#A8D0DA;stroke-width:0.2402;stroke-linecap:round;stroke-linejoin:round;" d="M275.292,100.053
			c0-1.619-0.039-7.441,0.08-8.901c0.06-0.728,0.927-3.692,1.463-1.692c0.366,1.386,0.125,2.746-0.006,4.123
			c-0.21,2.158-0.229,4.681-0.244,6.629"/>
	</g>
	<path style="fill:none;stroke:#777768;stroke-width:1.3087;stroke-linecap:round;stroke-linejoin:round;" d="M284.417,91.674
		c0,0.693-0.161,1.113-0.502,1.865c-0.564,1.242-2.743,4.003-5.374,3.272"/>
	<path style="fill:none;stroke:#777768;stroke-width:1.3087;stroke-linecap:round;stroke-linejoin:round;" d="M276.83,93.855
		c-0.724-0.523-1.189-1.293-1.852-2.283c-0.198-0.299-0.61-0.952-0.744-1.35c-0.31,0.42,0.329,1.32,0.323,1.85
		c-0.005,0.332,0.893,4.52,1,4.827"/>
	<path style="fill:none;stroke:#777768;stroke-width:1.3087;stroke-linecap:round;stroke-linejoin:round;" d="M274.243,89.811
		c0.591,0.301,1.014,0.529,1.724,0.594c0.56,0.051,1.366,0.071,1.82-0.23"/>
</g>
</svg>
