<?xml version="1.0" encoding="iso-8859-1"?>
<!-- Generator: Adobe Illustrator 13.0.0, SVG Export Plug-In . SVG Version: 6.00 Build 14948)  -->
<!DOCTYPE svg PUBLIC "-//W3C//DTD SVG 1.1//EN" "http://www.w3.org/Graphics/SVG/1.1/DTD/svg11.dtd">
<svg version="1.1" xmlns="http://www.w3.org/2000/svg" xmlns:xlink="http://www.w3.org/1999/xlink" x="0px" y="0px" width="378px"
	 height="140px" viewBox="0 0 378 140" style="enable-background:new 0 0 378 140;" xml:space="preserve">
<g id="fond">
	<g>
		<rect style="fill:none;" width="378" height="140"/>
		<rect style="fill:#FFFFFF;" width="378" height="140"/>
	</g>
</g>
<g id="WAITER">
	
		<ellipse style="fill:none;stroke:#777768;stroke-width:1.799;stroke-linecap:round;stroke-linejoin:round;" cx="183.554" cy="18.153" rx="7.528" ry="9.857"/>
	<path style="fill:none;stroke:#777768;stroke-width:1.799;stroke-linecap:round;stroke-linejoin:round;" d="M183.372,28.403
		c0.053,10.395,0.887,70.139,0.936,71.876c0.711,26.025,1.872,24.86-2.95,24.86"/>
	<path style="fill:none;stroke:#777768;stroke-width:0.8343;" d="M182.035,74.885c0,0.974,0.786,1.759,1.761,1.759
		c0.963,0,1.752-0.785,1.752-1.759c0-0.968-0.789-1.756-1.752-1.756C182.821,73.129,182.035,73.917,182.035,74.885z"/>
	<path style="fill:#777768;stroke:#777768;stroke-width:1.2512;stroke-linecap:round;stroke-linejoin:round;" d="M183.673,31.125
		c0.918-0.358,1.892-1.207,2.852-1.247c-0.07,1.526-0.525,3.122-0.582,4.677c-1.184-0.455-1.595-2.249-2.547-2.992
		c-0.397-0.313-0.753-0.697-1.218-0.981c-0.532-0.324-0.977-0.769-1.58-0.938c-0.049,0.619,0.112,1.368-0.039,1.969
		c-0.165,0.61-1.193,1.476-0.896,2.15c0.371,0.886,3.335-1.724,3.729-2.405"/>
	<path style="fill:none;stroke:#777768;stroke-width:1.1991;stroke-linecap:round;stroke-linejoin:round;" d="M178.895,48.07
		c24.447,25.672,13.418-10.565,4.583-13.045"/>
	<path style="fill:#FFFFFF;stroke:#777768;stroke-width:0.8343;stroke-linecap:round;stroke-linejoin:round;" d="M174.065,38.211
		c2.49,2.039,4.73,4.236,6.713,6.64c-0.769,1.598-2.159,4.05-3.644,5.048c-1.486-0.83-5.029-3.433-6.579-4.457
		C170.666,43.138,172.992,40.146,174.065,38.211"/>
</g>
<g id="Restaurant">
	<g>
		<g>
			
				<rect x="156.278" y="77.862" style="fill:#D5312C;stroke:#FFFFFF;stroke-width:0.6339;stroke-linecap:square;" width="3.693" height="52.223"/>
			<g>
				<path style="fill:#D5312C;" d="M126.834,76.72c0,1.139,0.938,2.061,2.096,2.061h58.382c1.158,0,2.097-0.922,2.097-2.061
					c0-1.141-0.939-2.062-2.097-2.062H128.93C127.772,74.657,126.834,75.579,126.834,76.72
					C126.834,76.72,126.834,75.579,126.834,76.72z"/>
				<path style="fill:none;stroke:#FFFFFF;stroke-width:0.9509;" d="M126.834,76.72c0,1.139,0.938,2.061,2.096,2.061h58.382
					c1.158,0,2.097-0.922,2.097-2.061c0-1.141-0.939-2.062-2.097-2.062H128.93C127.772,74.657,126.834,75.579,126.834,76.72
					C126.834,76.72,126.834,75.579,126.834,76.72z"/>
			</g>
		</g>
		<g>
			<g>
				
					<line style="fill:none;stroke:#65B724;stroke-width:2.9988;stroke-linecap:round;stroke-linejoin:round;" x1="108.452" y1="65.445" x2="108.452" y2="96.751"/>
				
					<line style="fill:none;stroke:#65B724;stroke-width:2.9988;stroke-linecap:round;stroke-linejoin:round;" x1="108.452" y1="96.751" x2="140.263" y2="96.751"/>
				
					<line style="fill:none;stroke:#65B724;stroke-width:2.9988;stroke-linecap:round;stroke-linejoin:round;" x1="140.263" y1="96.751" x2="108.419" y2="128.089"/>
				
					<line style="fill:none;stroke:#65B724;stroke-width:2.9988;stroke-linecap:round;stroke-linejoin:round;" x1="108.419" y1="128.089" x2="126.759" y2="128.089"/>
			</g>
			<g>
				
					<line style="fill:none;stroke:#65B724;stroke-width:2.9988;stroke-linecap:round;stroke-linejoin:round;" x1="215.404" y1="65.445" x2="215.404" y2="96.751"/>
				
					<line style="fill:none;stroke:#65B724;stroke-width:2.9988;stroke-linecap:round;stroke-linejoin:round;" x1="215.404" y1="96.751" x2="183.596" y2="96.751"/>
				
					<line style="fill:none;stroke:#65B724;stroke-width:2.9988;stroke-linecap:round;stroke-linejoin:round;" x1="183.596" y1="96.751" x2="215.439" y2="128.089"/>
				
					<line style="fill:none;stroke:#65B724;stroke-width:2.9988;stroke-linecap:round;stroke-linejoin:round;" x1="215.439" y1="128.089" x2="197.096" y2="128.089"/>
			</g>
		</g>
	</g>
</g>
<g id="Layer_3">
	<g id="femme_2_">
		<path style="fill:none;stroke:#777768;stroke-width:1.1991;stroke-linecap:round;stroke-linejoin:round;" d="M123.241,43.533
			c0,6.157-3.845,11.15-8.59,11.15c-4.738,0-8.59-4.994-8.59-11.15c0-6.158,3.853-11.147,8.59-11.147
			C119.396,32.386,123.241,37.375,123.241,43.533z"/>
		<path style="fill:none;stroke:#777768;stroke-width:1.1991;stroke-linecap:round;stroke-linejoin:round;" d="M114.909,69.809
			c0.126,7.854,0.112,5.309-0.662,9.17c-1.232,6.08-2.456,6.618-2.456,12.16c0,8.963,32.395-2.697,31.175,2.571
			c-6.697,28.769-6.956,34.867-0.416,34.052"/>
		<path style="fill:none;stroke:#777768;stroke-width:1.1991;stroke-linecap:round;stroke-linejoin:round;" d="M115.521,60.564
			c9.846,13.661,8.708,16.325,23.366,0.159"/>
		<path style="fill:none;stroke:#777768;stroke-width:1.1991;stroke-linecap:round;stroke-linejoin:round;" d="M114.65,55.087
			c-0.011,1.962,0.058,4.98,0.133,8.465"/>
		<path style="fill:#FFFFFF;stroke:#777768;stroke-width:1.1991;" d="M119.777,66.652c0,1.902-1.554,3.442-3.474,3.442
			c-1.922,0-3.478-1.54-3.478-3.442c0-1.906,1.556-3.449,3.478-3.449C118.223,63.203,119.777,64.746,119.777,66.652z"/>
		<path style="fill:none;stroke:#777768;stroke-width:1.1991;stroke-linecap:round;stroke-linejoin:round;" d="M208.344,57.014
			c-4.436,17.43-3.33,28.911-16.678,13.341"/>
	</g>
	<g id="homme_2_">
		<path style="fill:none;stroke:#777768;stroke-width:1.1991;" d="M207.41,92.667c0,1.056,0.863,1.908,1.928,1.908
			c1.061,0,1.928-0.853,1.928-1.908c0-1.053-0.867-1.91-1.928-1.91C208.273,90.757,207.41,91.614,207.41,92.667z"/>
		<path style="fill:none;stroke:#777768;stroke-width:1.1991;stroke-linecap:round;stroke-linejoin:round;" d="M200.359,37.435
			c0,5.918,3.697,10.707,8.252,10.707s8.25-4.788,8.25-10.707c0-5.916-3.695-10.709-8.25-10.709S200.359,31.52,200.359,37.435z"/>
		<path style="fill:none;stroke:#777768;stroke-width:1.1991;stroke-linecap:round;stroke-linejoin:round;" d="M208.398,48.572
			c0.047,7.474-0.541,23.996,0.9,31.173c1.293,6.404,4.879,13.883,0.039,14.83c-9.398,1.849-31.15-6.464-30.771-0.773
			c2.014,29.487,1.422,35.581-5.479,34.725"/>
		<path style="fill:none;stroke:#777768;stroke-width:1.1991;stroke-linecap:round;stroke-linejoin:round;" d="M115.032,61.32
			c4.435,17.43,5.847,22.758,19.591,6.37"/>
	</g>
</g>
<g id="menu_2_">
	<g id="menu_7_">
		<path style="fill:none;stroke:#777768;stroke-width:0.4039;stroke-linecap:round;stroke-linejoin:round;" d="M140.32,51.829
			c-0.115,0.953,0.794-6.377,0.318-5.978c1.961,2.827,11.14,5.096,13.795,7.738"/>
		<path style="fill:#FFFFFF;stroke:#777768;stroke-width:0.4039;stroke-linecap:round;stroke-linejoin:round;" d="M134.322,71.739
			c0.558-7.509,3.125-15.05,4.796-21.941c4.564,1.56,11.344,1.383,15.54,4.149c-1.846,5.005-6.256,15.688-7.92,20.2
			C146.738,74.146,140.958,73.538,134.322,71.739z"/>
	</g>
	<path style="fill:#FFFFFF;stroke:#777768;stroke-width:0.4039;stroke-linecap:round;stroke-linejoin:round;" d="M186.5,52.193
		c0.005,0.959-0.06-6.427,0.367-5.975c-2.272,2.584-11.649,3.791-14.588,6.112"/>
	<path style="fill:#FFFFFF;stroke:#777768;stroke-width:0.4039;stroke-linecap:round;stroke-linejoin:round;" d="M190.186,72.656
		c0.302-7.522-1.387-15.308-2.261-22.344c-4.713,1.029-11.428,0.079-15.912,2.347c1.262,5.184,4.424,16.301,5.562,20.973
		C177.576,73.632,183.387,73.688,190.186,72.656z"/>
</g>
<g id="main">
	<path style="display:none;fill:#FFFFFF;stroke:#777768;stroke-width:0.7735;stroke-linecap:round;stroke-linejoin:round;" d="
		M130.166,70.355c2.411,0.281,4.919-1.338,6.851-3.021c-1.913,0.582-2.725,0.425-3.212,0.833c0.308-0.309,2.438-2.378,2.672-2.716
		c-0.507,0.003-3.025,1.438-3.386,1.836c0.345-0.435,2.082-2.056,2.167-2.64c-0.555,0.178-5.153,4.636-2.97-0.355
		c-1.828,2.367-2.381,5.179-2.205,5.988L130.166,70.355z"/>
	<path style="fill:#FFFFFF;stroke:#777768;stroke-width:0.7735;stroke-linecap:round;stroke-linejoin:round;" d="M133.114,69.283
		c2.363,0.555,5.04-0.768,7.15-2.22c-1.967,0.36-2.756,0.111-3.286,0.461c0.341-0.272,2.693-2.084,2.964-2.394
		c-0.504-0.055-3.169,1.083-3.573,1.438c0.393-0.393,2.154-1.994,2.305-2.563c-0.572,0.114-3.801,2.376-3.385,0.288
		c-2.087,2.143-2.333,4.083-2.25,4.906L133.114,69.283z"/>
	<path style="fill:#FFFFFF;stroke:#777768;stroke-width:0.7735;stroke-linecap:round;stroke-linejoin:round;" d="M191.666,70.355
		c-2.412,0.281-4.92-1.338-6.851-3.021c1.914,0.582,2.726,0.425,3.211,0.833c-0.308-0.309-2.438-2.378-2.671-2.716
		c0.507,0.003,3.025,1.438,3.385,1.836c-0.345-0.435-1.912-2.226-1.998-2.81c0.555,0.178,3.505,2.794,3.331,0.672
		c1.829,2.367,1.851,4.321,1.675,5.131L191.666,70.355z"/>
</g>
<g id="couverts">
	<g>
		<path style="fill:#B58247;stroke:#B58247;stroke-width:1.6486;stroke-linecap:round;stroke-linejoin:round;" d="M153.791,27.535
			c0,0.527-0.427,0.954-0.954,0.954h-13.076c-0.527,0-0.953-0.427-0.953-0.954l0,0c0-0.527,0.426-0.954,0.953-0.954h13.076
			C153.364,26.581,153.791,27.008,153.791,27.535L153.791,27.535z"/>
		<polyline style="fill:none;stroke:#65B724;stroke-width:1.6486;stroke-linecap:round;stroke-linejoin:round;" points="
			135.175,26.536 137.9,29.261 154.108,29.261 156.832,26.536 		"/>
	</g>
	<g id="exclamation_88_">
		<path style="fill:none;stroke:#777768;stroke-width:0.7;stroke-linecap:round;stroke-linejoin:round;" d="M166.241,21.987
			c-0.068-0.261-0.173-0.402-0.115-0.676c0.161-0.067,0.258-0.185,0.395-0.248c0.323,0.542,0.041,0.677-0.42,0.923"/>
		
			<line style="fill:none;stroke:#777768;stroke-width:0.7;stroke-linecap:round;stroke-linejoin:round;" x1="167.108" y1="18.153" x2="169.113" y2="6.122"/>
	</g>
	<g id="chaleur">
	</g>
	<g>
		<g>
			<path style="fill:#B58247;stroke:#777768;stroke-width:1.0855;stroke-linecap:round;stroke-linejoin:round;" d="M134.503,17.196
				c0,0-1.211-1.839,0-2.737c1.21-0.897,0-2.565,0-2.565"/>
			<path style="fill:#B58247;stroke:#777768;stroke-width:1.0855;stroke-linecap:round;stroke-linejoin:round;" d="M141.547,17.196
				c0,0-1.21-1.839,0-2.737c1.211-0.897,0-2.565,0-2.565"/>
			<path style="fill:#B58247;stroke:#777768;stroke-width:1.0855;stroke-linecap:round;stroke-linejoin:round;" d="M137.927,17.196
				c0,0-1.21-1.839,0-2.737c1.211-0.897,0-2.565,0-2.565"/>
		</g>
		<g id="_x2B__2_">
			
				<line style="fill:none;stroke:#777768;stroke-width:0.7267;stroke-linecap:round;stroke-linejoin:round;" x1="146.156" y1="12.758" x2="146.156" y2="16.333"/>
			
				<line style="fill:none;stroke:#777768;stroke-width:0.7068;stroke-linecap:round;stroke-linejoin:round;" x1="148.215" y1="14.33" x2="143.977" y2="14.33"/>
		</g>
		<g>
			<path style="fill:#D5312C;stroke:#D5312C;stroke-width:0.6748;stroke-linecap:round;stroke-linejoin:round;" d="M154.205,11.389
				c-0.943,0.511-0.395,1.191-1.21,1.833c-0.802,0.632-0.8,2.392-1.19,2.63c-0.754,0.461-1.385,3.064-1.385,3.064
				s2.392-1.317,2.584-2.456c0.093-0.551,1.302-0.539,1.542-1.467c0.156-0.718,1.938-0.307,1.989-1.958
				C156.563,12.116,155.168,10.867,154.205,11.389z"/>
			<path style="fill:none;stroke:#65B724;stroke-width:0.6748;stroke-linecap:round;stroke-linejoin:round;" d="M155.141,10.994
				c0.085,0.112,0.285,0.187,0.41,0.292c0.111,0.093,0.206,0.23,0.29,0.349c0.14,0.196,0.272,0.612,0.527,0.638
				c0.235,0.024,0.146-0.191,0.057-0.368c-0.159-0.32-0.333-0.456-0.55-0.74c-0.233-0.306-0.622-0.208-0.954-0.186
				c0.206-0.013,0.579,0.01,0.742,0.105c0.232,0.137,0.381,0.13,0.562-0.068c0.468-0.512,1.092-0.937,1.683-0.824"/>
		</g>
		<g>
			<path style="fill:#D5312C;stroke:#D5312C;stroke-width:0.6748;stroke-linecap:round;stroke-linejoin:round;" d="M160.789,11.389
				c-0.943,0.511-0.395,1.191-1.211,1.833c-0.802,0.632-0.799,2.392-1.189,2.63c-0.754,0.461-1.385,3.064-1.385,3.064
				s2.393-1.317,2.585-2.456c0.093-0.551,1.301-0.539,1.542-1.467c0.156-0.718,1.938-0.307,1.989-1.958
				C163.147,12.116,161.751,10.867,160.789,11.389z"/>
			<path style="fill:none;stroke:#65B724;stroke-width:0.6748;stroke-linecap:round;stroke-linejoin:round;" d="M161.725,10.994
				c0.085,0.112,0.285,0.187,0.41,0.292c0.111,0.093,0.206,0.23,0.29,0.349c0.141,0.196,0.273,0.612,0.527,0.638
				c0.235,0.024,0.146-0.191,0.058-0.368c-0.16-0.32-0.334-0.456-0.551-0.74c-0.232-0.306-0.621-0.208-0.954-0.186
				c0.206-0.013,0.58,0.01,0.743,0.105c0.232,0.137,0.38,0.13,0.562-0.068c0.468-0.512,1.092-0.937,1.682-0.824"/>
		</g>
	</g>
</g>
</svg>
