<?xml version="1.0" encoding="iso-8859-1"?>
<!-- Generator: Adobe Illustrator 13.0.0, SVG Export Plug-In . SVG Version: 6.00 Build 14948)  -->
<!DOCTYPE svg PUBLIC "-//W3C//DTD SVG 1.1//EN" "http://www.w3.org/Graphics/SVG/1.1/DTD/svg11.dtd">
<svg version="1.1" xmlns="http://www.w3.org/2000/svg" xmlns:xlink="http://www.w3.org/1999/xlink" x="0px" y="0px" width="378px"
	 height="140px" viewBox="0 0 378 140" style="enable-background:new 0 0 378 140;" xml:space="preserve">
<g id="FOND">
	<g>
		<rect style="fill:none;" width="378" height="140"/>
		<rect style="fill:#FFFFFF;" width="378" height="140"/>
	</g>
</g>
<g id="Layer_5">
	<path style="fill:#CCCCCC;stroke:#777768;stroke-width:1.6039;stroke-linecap:round;stroke-linejoin:round;" d="M139.187,98.15
		c4.149-1.631,8.787-7.945,16.465-10.963c12.207-4.797,34.696-14.15,35.192-14.346c6.049-2.376,11.584-0.252,17.918-1.223
		c6.334-0.972,35.273-14.824,35.273-14.824s-30.482,11.634-31.188,9.841c-0.307-0.783,5.318-3.698,11.914-6.42
		c8.621-3.559,7.975-3.509,17.369-7.358c0,0-9.178,3.459-17.918,6.541c-1.152,0.407-12.371,4.676-12.822,3.528l-0.068-0.171
		c-0.451-1.147,10.674-5.659,11.795-6.146c8.5-3.692,17.576-7.408,17.576-7.408c-9.502,3.577-8.992,3.173-17.73,6.438
		c-6.684,2.496-12.789,4.191-13.098,3.408c-0.705-1.793,29.541-14.026,29.541-14.026s-30.625,9.56-35.926,13.16
		c-5.3,3.601-7.908,8.926-13.957,11.304c-0.496,0.194-23.336,8.656-35.542,13.453c-7.678,3.018-15.374,1.549-19.523,3.18
		c-4.149,1.631-6.787,4.717-5.132,8.926C130.98,99.252,135.038,99.781,139.187,98.15z"/>
</g>
</svg>
