<?xml version="1.0" encoding="iso-8859-1"?>
<!-- Generator: Adobe Illustrator 13.0.0, SVG Export Plug-In . SVG Version: 6.00 Build 14948)  -->
<!DOCTYPE svg PUBLIC "-//W3C//DTD SVG 1.1//EN" "http://www.w3.org/Graphics/SVG/1.1/DTD/svg11.dtd">
<svg version="1.1" xmlns="http://www.w3.org/2000/svg" xmlns:xlink="http://www.w3.org/1999/xlink" x="0px" y="0px" width="540px"
	 height="200px" viewBox="0 0 540 200" style="enable-background:new 0 0 540 200;" xml:space="preserve">
<g id="Layer_2">
	<g>
		<rect style="fill:#FFFFFF;" width="540" height="200"/>
	</g>
</g>
<g id="Layer_1">
	<g>
		<g>
			
				<rect x="427.633" y="100.724" style="fill:#CE4E43;stroke:#FFFFFF;stroke-width:0.916;stroke-linecap:square;" width="4.48" height="64.385"/>
			<g>
				<path style="fill:#CE4E43;" d="M391.91,99.312c0,1.404,1.139,2.542,2.543,2.542h70.83c1.404,0,2.543-1.139,2.543-2.542
					c0-1.404-1.139-2.542-2.543-2.542h-70.83C393.049,96.771,391.91,97.908,391.91,99.312
					C391.91,99.312,391.91,97.908,391.91,99.312z"/>
				<path style="fill:none;stroke:#FFFFFF;stroke-width:1.374;" d="M391.91,99.312c0,1.404,1.139,2.542,2.543,2.542h70.83
					c1.404,0,2.543-1.139,2.543-2.542c0-1.404-1.139-2.542-2.543-2.542h-70.83C393.049,96.771,391.91,97.908,391.91,99.312
					C391.91,99.312,391.91,97.908,391.91,99.312z"/>
			</g>
		</g>
		<g>
			<rect x="160.574" y="92.91" style="fill:#78B432;stroke:#FFFFFF;stroke-width:1.374;" width="5.478" height="72.816"/>
			<path style="fill:#78B432;stroke:#FFFFFF;stroke-width:1.374;" d="M179.264,96.899h-31.912V88.92c0,0,7.569-3.492,15.547-3.492
				s16.364,3.492,16.364,3.492V96.899z"/>
			<rect x="153.086" y="148.462" style="fill:#78B432;stroke:#FFFFFF;stroke-width:0.916;" width="20.448" height="1.869"/>
		</g>
		
			<line style="fill:none;stroke:#78B432;stroke-width:3.427;stroke-linecap:round;" x1="26.713" y1="56.053" x2="134.205" y2="56.053"/>
		
			<line style="fill:none;stroke:#78B432;stroke-width:3.427;stroke-linecap:square;" x1="134.205" y1="56.053" x2="134.205" y2="80.097"/>
		
			<line style="fill:none;stroke:#78B432;stroke-width:3.427;stroke-linecap:square;" x1="134.205" y1="80.097" x2="123.899" y2="80.097"/>
		
			<line style="fill:none;stroke:#78B432;stroke-width:3.427;stroke-linecap:square;" x1="123.899" y1="80.097" x2="123.899" y2="164.822"/>
		
			<line style="fill:none;stroke:#78B432;stroke-width:3.427;stroke-linecap:round;" x1="123.899" y1="164.822" x2="512.43" y2="164.822"/>
		<g>
			<g>
				
					<line style="fill:none;stroke:#78B432;stroke-width:4.2837;stroke-linecap:round;stroke-linejoin:round;" x1="369.607" y1="85.414" x2="369.607" y2="124.011"/>
				
					<line style="fill:none;stroke:#78B432;stroke-width:4.2837;stroke-linecap:round;stroke-linejoin:round;" x1="369.607" y1="124.011" x2="408.203" y2="124.011"/>
				
					<line style="fill:none;stroke:#78B432;stroke-width:4.2837;stroke-linecap:round;stroke-linejoin:round;" x1="408.203" y1="124.011" x2="369.566" y2="162.65"/>
				
					<line style="fill:none;stroke:#78B432;stroke-width:4.2837;stroke-linecap:round;stroke-linejoin:round;" x1="369.566" y1="162.65" x2="391.82" y2="162.65"/>
			</g>
			<g>
				
					<line style="fill:none;stroke:#78B432;stroke-width:4.2837;stroke-linecap:round;stroke-linejoin:round;" x1="499.365" y1="85.414" x2="499.365" y2="124.011"/>
				
					<line style="fill:none;stroke:#78B432;stroke-width:4.2837;stroke-linecap:round;stroke-linejoin:round;" x1="499.365" y1="124.011" x2="460.773" y2="124.011"/>
				
					<line style="fill:none;stroke:#78B432;stroke-width:4.2837;stroke-linecap:round;stroke-linejoin:round;" x1="460.773" y1="124.011" x2="499.404" y2="162.65"/>
				
					<line style="fill:none;stroke:#78B432;stroke-width:4.2837;stroke-linecap:round;stroke-linejoin:round;" x1="499.404" y1="162.65" x2="477.152" y2="162.65"/>
			</g>
		</g>
	</g>
	
		<circle style="fill:none;stroke:#787768;stroke-width:0.8575;stroke-linecap:round;stroke-linejoin:round;" cx="284.793" cy="42.812" r="22.469"/>
	<path style="fill:none;stroke:#787768;stroke-width:0.8575;stroke-linecap:round;stroke-linejoin:round;" d="M277.777,21.463
		c1.56,0.529,2.876,1.396,4.194,2.456c-1.209,2.439,0,0-0.611,3.164c-0.091,0.462,0.997,1.676,0.519,2.884
		c-1.703,4.299-9.188,1.434-10.118,7.259c-0.681,4.266,3.309,3.914,4.2,6.981c1.164,4.007-2.419,5.352-4.185,8.149
		c-1.466,2.323-0.488,4.713-2.214,6.972c0.634-2.822-3.199-3.989-2.898-7.366c0.286-3.205,1.103-6.211-2.216-8.358
		c0.601-1.724,3.017-2.56,3.934-4.109c0.899-1.519,0.736-3.948,0.792-5.827c0.055-1.896-1.687-1.118-0.908-3.192
		c0.929-2.476-0.605-0.743,0.683-3.596"/>
	<path style="fill:none;stroke:#787768;stroke-width:0.8575;stroke-linecap:round;stroke-linejoin:round;" d="M300.21,26.471
		c-3.61-2.385-5.021-3.96-7.751-2.801c0.043-1.22-2.125-0.13-2.984-1.124c-2.825,0.743-3.422,5.11-0.608,6.217
		c-0.717,1.074-1.554-0.281-2.369,0.832"/>
	<path style="fill:none;stroke:#787768;stroke-width:0.8575;stroke-linecap:round;stroke-linejoin:round;" d="M286.497,29.596
		c-1.936,1.398-0.829-0.523-1.936,1.398c0.473,0.123,2.119,3.703,2.929,3.605c-1.643-0.075-2.314,1.044-5.092,3.821
		c5.678,2.592,5.261-0.927,7.289-0.87c-1.435,0.484,8.253,1.778,8.695,3.277c2.312,0.327-5.984,1.565-8.599,0.369
		c-2.51-1.146-4.27,0.999-6.707,0.618c-1.949,8.562,7.126,5.45,7.583,11.179c-0.989,0.986-0.573,5.711,0.695,7.584
		c1.452,2.144,5.5,0.865,6.468-1.256c1.075-2.35-0.861-4.302-0.578-6.37c0.455-3.325,3.77-2.926,6.173-3.762
		c0.264,1.554,0.286,1.006,1.242,1.579c0.028-0.388,0.09-0.856,0.16-1.255c0.913-0.052,0.818-1.699,1.568-1.931"/>
	<g>
		<path style="fill:none;stroke:#787768;stroke-width:0.8678;stroke-linecap:round;stroke-linejoin:round;" d="M251.174,13.139
			c-4.635-6.272,5.127-11.085,6.233-3.117c0.48,3.454-2.495,5.488-3.895,8.229c-0.93,1.826-3.422,8.582-2.339,7.359"/>
		<path style="fill:none;stroke:#787768;stroke-width:0.8678;stroke-linecap:round;stroke-linejoin:round;" d="M249.997,32.239
			c-0.253,0.571-0.511,1.137-0.767,1.708"/>
	</g>
	<g>
		<path style="fill:none;stroke:#92938B;stroke-width:2.5702;stroke-linecap:round;stroke-linejoin:round;" d="M235.741,29.152
			c0,8.708-5.385,15.761-12.035,15.761c-6.643,0-12.036-7.054-12.036-15.761c0-8.701,5.393-15.756,12.036-15.756
			C230.356,13.396,235.741,20.451,235.741,29.152z"/>
		<path style="fill:none;stroke:#92938B;stroke-width:2.5702;stroke-linecap:round;stroke-linejoin:round;" d="M224.068,66.303
			c0.179,11.112,0.158,23.015-0.94,28.472c-1.711,8.596-5.155,5.16-3.434,17.193c2.152,15.078,8.024,27.508,6.302,34.957
			c-9.382,40.672-9.74,41.836-0.577,40.691"/>
		<path style="fill:none;stroke:#92938B;stroke-width:2.5702;stroke-linecap:round;stroke-linejoin:round;" d="M223.707,45.491
			c-0.015,2.771,0.081,7.037,0.188,11.966"/>
		<path style="fill:none;stroke:#92938B;stroke-width:1.7135;stroke-linecap:round;stroke-linejoin:round;" d="M230.889,61.837
			c0,2.688-2.174,4.87-4.866,4.87s-4.879-2.182-4.879-4.87c0-2.691,2.187-4.873,4.879-4.873S230.889,59.146,230.889,61.837z"/>
	</g>
	<path style="fill:none;stroke:#92938B;stroke-width:1.7135;stroke-linecap:round;stroke-linejoin:round;" d="M334.559,104.271
		c0,1.516,1.225,2.748,2.746,2.748c1.506,0,2.744-1.232,2.744-2.748c0-1.518-1.238-2.746-2.744-2.746
		C335.783,101.525,334.559,102.753,334.559,104.271z"/>
	<path style="fill:none;stroke:#92938B;stroke-width:1.7135;stroke-linecap:round;stroke-linejoin:round;" d="M324.502,21.126
		c0,8.507,5.275,15.401,11.76,15.401c6.488,0,11.766-6.894,11.766-15.401c0-8.504-5.277-15.399-11.766-15.399
		C329.777,5.728,324.502,12.622,324.502,21.126z"/>
	<path style="fill:none;stroke:#92938B;stroke-width:1.7135;stroke-linecap:round;stroke-linejoin:round;" d="M335.971,37.14
		c0.055,10.75-1.445,42.537,0.611,52.855c1.844,9.216,2.662,6.423,0.824,19.329c-2.309,16.162,2.881,31.936,3.436,40.111
		c2.863,42.41,3.121,41.35-6.715,40.115"/>
</g>
</svg>
