<?xml version="1.0" encoding="iso-8859-1"?>
<!-- Generator: Adobe Illustrator 13.0.0, SVG Export Plug-In . SVG Version: 6.00 Build 14948)  -->
<!DOCTYPE svg PUBLIC "-//W3C//DTD SVG 1.1//EN" "http://www.w3.org/Graphics/SVG/1.1/DTD/svg11.dtd">
<svg version="1.1" xmlns="http://www.w3.org/2000/svg" xmlns:xlink="http://www.w3.org/1999/xlink" x="0px" y="0px" width="378px"
	 height="140px" viewBox="0 0 378 140" style="enable-background:new 0 0 378 140;" xml:space="preserve">
<g id="fond">
	<rect style="fill:#FFFFFF;" width="378" height="140"/>
</g>
<g id="Layer_3">
	<g>
		<defs>
			<path id="SVGID_1_" d="M189,52.677c0,0-20.817,0.358-62.167-10.628C85.239,30.998,35.582,7.615,35.582,43.033
				c0,35.418,28.874,61.981,61.31,67.229c32.437,5.247,52.509-1.296,62.914-12.956C173.799,81.626,180.063,74.274,189,73.346"/>
		</defs>
		<clipPath id="SVGID_2_">
			<use xlink:href="#SVGID_1_"  style="overflow:visible;"/>
		</clipPath>
		
			<path style="clip-path:url(#SVGID_2_);fill:#FFFFFF;stroke:#777768;stroke-width:1.1171;stroke-linecap:round;stroke-linejoin:round;" d="
			M27.661,22.999c0,0,122.148,12.736,143.046,22.013c14.621,6.487,20.601,18.638,24.437,27.823
			c6.005,14.381,11.121,33.838,5.307,36.723c-3.77,1.871-10.276,3.288-12.877-5.864c-5.368-18.884-15.268-46.197-25.211-53.932
			c-5.938-4.618-60.078-11.653-79.581-14.631c-33.15-5.057-57.442-7.726-57.442-7.726L27.661,22.999z"/>
		<path style="clip-path:url(#SVGID_2_);fill:none;stroke:#777768;stroke-width:1.1171;stroke-linecap:round;" d="M189.85,59.534
			c-3.144,4.512-5.283,9.201-6.994,13.301c-0.406,0.974-0.809,1.97-1.203,2.982"/>
	</g>
	<path style="fill:#FFFFFF;stroke:#777768;stroke-width:1.1171;stroke-linecap:round;stroke-linejoin:round;" d="M109.782,32.83"/>
	<path style="fill:#FFFFFF;stroke:#777768;stroke-width:1.1171;stroke-linecap:round;stroke-linejoin:round;" d="M36.897,23.975"/>
	<path style="fill:none;stroke:#777768;stroke-width:1.1171;stroke-linecap:round;stroke-linejoin:round;" d="M198.005,80.277
		c4.536,12.912,7.301,26.874,2.445,29.28c-3.77,1.871-10.276,3.288-12.877-5.864c-2.003-7.05-4.639-15.273-7.673-23.213"/>
	<path style="fill:none;stroke:#777768;stroke-width:1.1171;stroke-linecap:round;stroke-linejoin:round;" d="M110.665,33.161
		c26.712,3.804,51.612,8.109,60.042,11.851c2.748,1.219,5.192,2.639,7.374,4.202"/>
	<path style="fill:none;stroke:#777768;stroke-width:1.1171;stroke-linecap:round;stroke-linejoin:round;" d="M27.661,22.999
		c0,0,3.423,0.356,9.22,0.994"/>
	<path style="fill:#FFFFFF;stroke:#777768;stroke-width:1.1171;stroke-linecap:round;stroke-linejoin:round;" d="M179.996,80.277
		c-4.538,12.912-7.301,26.874-2.447,29.28c3.77,1.871,10.276,3.288,12.877-5.864c2.003-7.05,4.639-15.273,7.671-23.213"/>
</g>
<g id="Layer_4">
	<g>
		<defs>
			<path id="SVGID_3_" d="M189,52.677c0,0,20.817,0.358,62.166-10.628c41.595-11.051,91.251-34.435,91.251,0.984
				c0,35.418-28.871,61.981-61.309,67.229c-32.438,5.247-52.51-1.296-62.914-12.956C204.201,81.626,197.938,74.274,189,73.346"/>
		</defs>
		<clipPath id="SVGID_4_">
			<use xlink:href="#SVGID_3_"  style="overflow:visible;"/>
		</clipPath>
		
			<path style="clip-path:url(#SVGID_4_);fill:#FFFFFF;stroke:#777768;stroke-width:1.1171;stroke-linecap:round;stroke-linejoin:round;" d="
			M350.338,22.999c0,0-122.147,12.736-143.045,22.013c-14.621,6.487-20.602,18.638-24.437,27.823
			c-6.005,14.381-11.122,33.838-5.307,36.723c3.77,1.871,10.276,3.288,12.877-5.864c5.368-18.884,15.27-46.197,25.209-53.932
			c5.94-4.618,60.081-11.653,79.582-14.631c33.152-5.057,57.443-7.726,57.443-7.726L350.338,22.999z"/>
	</g>
	<path style="fill:#FFFFFF;stroke:#777768;stroke-width:1.1171;stroke-linecap:round;stroke-linejoin:round;" d="M268.218,32.83"/>
	<path style="fill:#FFFFFF;stroke:#777768;stroke-width:1.1171;stroke-linecap:round;stroke-linejoin:round;" d="M341.104,23.975"/>
	<path style="fill:none;stroke:#777768;stroke-width:1.1171;stroke-linecap:round;stroke-linejoin:round;" d="M267.334,33.161
		c-26.711,3.804-51.61,8.109-60.041,11.851c-2.749,1.219-5.193,2.639-7.375,4.202"/>
	<path style="fill:none;stroke:#777768;stroke-width:1.1171;stroke-linecap:round;stroke-linejoin:round;" d="M350.338,22.999
		c0,0-3.422,0.356-9.219,0.994"/>
	<path style="fill:none;stroke:#777768;stroke-width:1.1171;stroke-linecap:round;stroke-linejoin:round;" d="M189,75.765
		c-6.33,0-12.557,7.529-26.998,25.506c-9.025,11.235-31.838,20.67-65.724,14.711c-32.241-5.669-61.11-33.25-63.838-70.552
		c-0.138-1.903-4.567-3.285-5.424-5.04c-1.676-3.43-3.656-13.66-0.931-16.385c3.352-3.352,8.275,3.775,8.984,2.531
		c11.407-20.001,55.07,1.186,92.487,11.992c43.196,12.474,59.302,11.535,60.512,11.543c1.209,0.008,19.176,0.931,62.373-11.543
		c37.417-10.806,81.08-31.993,92.487-11.992c0.709,1.244,5.632-5.882,8.982-2.531c2.728,2.725,0.746,12.955-0.929,16.385
		c-0.858,1.754-5.285,3.137-5.425,5.04c-2.728,37.302-31.598,64.883-63.837,70.552c-33.886,5.959-56.699-3.476-65.724-14.711
		C201.557,83.294,195.33,75.765,189,75.765"/>
	<g>
		<defs>
			<path id="SVGID_5_" d="M189,73.346c-8.937,0.929-15.201,8.28-29.195,23.961c-10.404,11.66-30.477,18.203-62.914,12.956
				c-32.437-5.248-61.31-31.812-61.31-67.229c0-35.418,49.658-12.035,91.252-0.984C168.183,53.036,189,52.677,189,52.677
				s20.817,0.358,62.166-10.628c41.595-11.051,91.251-34.435,91.251,0.984c0,35.418-28.871,61.981-61.309,67.229
				c-32.438,5.247-52.51-1.296-62.914-12.956C204.201,81.626,197.938,74.274,189,73.346z"/>
		</defs>
		<clipPath id="SVGID_6_">
			<use xlink:href="#SVGID_5_"  style="overflow:visible;"/>
		</clipPath>
		<path style="clip-path:url(#SVGID_6_);fill:#CCCCCC;stroke:#777768;stroke-width:0.8545;" d="M209.348,82.033
			c-4.152-3.854-3.34-8.192-7.924-7.025c-3.482,0.889-1.082,7.039,2.64,11.471c3.72,4.429,7.877,6.964,9.385,5.799
			C215.943,90.352,214.269,86.599,209.348,82.033z"/>
		<path style="clip-path:url(#SVGID_6_);fill:#CCCCCC;stroke:#777768;stroke-width:0.8545;" d="M168.652,82.033
			c4.152-3.854,3.34-8.192,7.924-7.025c3.482,0.889,1.083,7.039-2.64,11.471c-3.72,4.429-7.877,6.964-9.385,5.799
			C162.056,90.352,163.731,86.599,168.652,82.033z"/>
	</g>
	<path style="opacity:0.56;" d="M189,73.346c-8.937,0.929-15.201,8.28-29.195,23.961c-10.404,11.66-30.477,18.203-62.914,12.956
		c-32.437-5.248-61.31-31.812-61.31-67.229c0-35.418,49.658-12.035,91.252-0.984C168.183,53.036,189,52.677,189,52.677
		s20.817,0.358,62.166-10.628c41.595-11.051,91.251-34.435,91.251,0.984c0,35.418-28.871,61.981-61.309,67.229
		c-32.438,5.247-52.51-1.296-62.914-12.956C204.201,81.626,197.938,74.274,189,73.346z"/>
</g>
</svg>
