<?xml version="1.0" encoding="iso-8859-1"?>
<!-- Generator: Adobe Illustrator 13.0.0, SVG Export Plug-In . SVG Version: 6.00 Build 14948)  -->
<!DOCTYPE svg PUBLIC "-//W3C//DTD SVG 1.1//EN" "http://www.w3.org/Graphics/SVG/1.1/DTD/svg11.dtd">
<svg version="1.1" xmlns="http://www.w3.org/2000/svg" xmlns:xlink="http://www.w3.org/1999/xlink" x="0px" y="0px" width="378px"
	 height="140px" viewBox="0 0 378 140" style="enable-background:new 0 0 378 140;" xml:space="preserve">
<g id="Layer_2">
	<g>
		<rect style="fill:none;" width="378" height="140"/>
		<rect style="fill:#FFFFFF;" width="378" height="140"/>
	</g>
</g>
<g id="Layer_3">
	<g>
		<g>
			<rect x="121.5" y="2.5" style="fill:none;" width="135" height="135"/>
			<path style="fill:#406FA9;" d="M256.5,125.963c0,6.372-5.165,11.537-11.537,11.537H133.037c-6.372,0-11.537-5.165-11.537-11.537
				V14.037c0-6.372,5.165-11.537,11.537-11.537h111.926c6.372,0,11.537,5.165,11.537,11.537V125.963z"/>
			<path style="fill:none;stroke:#FFFFFF;stroke-width:4.0703;" d="M251.017,121.418c0,5.853-4.746,10.599-10.601,10.599H137.584
				c-5.854,0-10.601-4.746-10.601-10.599V18.585c0-5.854,4.746-10.602,10.601-10.602h102.832c5.854,0,10.601,4.748,10.601,10.602
				V121.418z"/>
		</g>
		<g>
			<g>
				<path style="fill:#FFFFFF;" d="M146.897,115.517c0,0.638-0.517,1.155-1.152,1.155h-5.326c-0.637,0-1.153-0.518-1.153-1.155
					V50.157c0-0.638,0.517-1.154,1.153-1.154h5.326c0.636,0,1.152,0.517,1.152,1.154V115.517z"/>
				<g>
					<path style="fill:#FFFFFF;" d="M238.734,116.202c0,0.259-0.517,0.47-1.153,0.47h-5.326c-0.636,0-1.152-0.211-1.152-0.47V89.666
						c0-0.259,0.517-0.469,1.152-0.469h5.326c0.637,0,1.153,0.21,1.153,0.469V116.202z"/>
					<path style="fill:#FFFFFF;" d="M238.734,99.235c0,0.638-0.517,1.155-1.153,1.155h-97.162c-0.637,0-1.153-0.518-1.153-1.155
						v-8.884c0-0.638,0.517-1.154,1.153-1.154h97.162c0.637,0,1.153,0.517,1.153,1.154V99.235z"/>
				</g>
			</g>
			<path style="fill:none;stroke:#FFFFFF;stroke-width:4.0703;" d="M143.845,71.39c10.569-2.035,18.316,5.823,22.896,12.72"/>
			<path style="fill:#FFFFFF;" d="M238.479,83.716c0-0.063-0.517-0.115-1.152-0.115h-92.329c-0.637,0-1.153,0.052-1.153,0.115v2.822
				c0,0.063,0.517,0.115,1.153,0.115h92.329c0.636,0,1.152-0.052,1.152-0.115V83.716z"/>
			<circle style="fill:#FFFFFF;" cx="159.617" cy="61.723" r="8.649"/>
			<path style="fill:#FFFFFF;" d="M238.479,82.561c0,0.638-0.517,1.155-1.152,1.155c0,0-64.463,0.115-68.448,0
				c-3.984-0.115-3.671-3.035-3.671-3.671c0,0,3.279-10.435,4.022-12.672c0.743-2.238,2.477-3.148,7.686-2.66
				c5.209,0.489,52.68,5.15,54.949,5.15s6.105,2.224,6.36,4.324C238.479,76.288,238.479,82.561,238.479,82.561z"/>
		</g>
		<path style="fill:#406FA9;" d="M172.734,66.438l-5.08,17.162h10.431l4.134-16.319c0,0-9.484-0.843-9.438-0.799"/>
		<g>
			<path style="fill:#F1E170;" d="M168.144,17.086c-3.033,6.125-2.101,13.849,3.001,18.952c5.12,5.118,12.783,6.142,18.921,3.073
				v-0.006c-0.771,1.54-1.797,2.986-3.081,4.271c-6.401,6.399-16.777,6.399-23.178,0c-6.401-6.399-6.401-16.778-0.002-23.178
				C165.108,18.895,166.577,17.857,168.144,17.086z"/>
		</g>
		<g>
			<circle style="fill:#F2E503;" cx="222.189" cy="33.227" r="8.973"/>
			
				<line style="fill:none;stroke:#F2E503;stroke-width:2.0352;stroke-linecap:round;stroke-linejoin:round;" x1="226.157" y1="44.843" x2="229.101" y2="53.373"/>
			
				<line style="fill:none;stroke:#F2E503;stroke-width:2.0352;stroke-linecap:round;stroke-linejoin:round;" x1="218.218" y1="44.843" x2="212.629" y2="53.373"/>
			
				<line style="fill:none;stroke:#F2E503;stroke-width:2.0352;stroke-linecap:round;stroke-linejoin:round;" x1="212.629" y1="40.725" x2="204.101" y2="44.843"/>
			
				<line style="fill:none;stroke:#F2E503;stroke-width:2.0352;stroke-linecap:round;stroke-linejoin:round;" x1="209.394" y1="31.902" x2="200.276" y2="28.961"/>
			
				<line style="fill:none;stroke:#F2E503;stroke-width:2.0352;stroke-linecap:round;stroke-linejoin:round;" x1="213.512" y1="22.492" x2="209.832" y2="19.399"/>
			
				<line style="fill:none;stroke:#F2E503;stroke-width:2.0352;stroke-linecap:round;stroke-linejoin:round;" x1="230.345" y1="16.343" x2="227.851" y2="20.405"/>
			
				<line style="fill:none;stroke:#F2E503;stroke-width:2.0352;stroke-linecap:round;stroke-linejoin:round;" x1="235.056" y1="25.357" x2="239.102" y2="21.901"/>
			
				<line style="fill:none;stroke:#F2E503;stroke-width:2.0352;stroke-linecap:round;stroke-linejoin:round;" x1="234.981" y1="33.665" x2="242.335" y2="32.783"/>
			
				<line style="fill:none;stroke:#F2E503;stroke-width:2.0352;stroke-linecap:round;stroke-linejoin:round;" x1="233.808" y1="39.843" x2="239.102" y2="47.784"/>
		</g>
		
			<line style="fill:none;stroke:#F2E503;stroke-width:2.0352;stroke-linecap:round;stroke-linejoin:round;" x1="220.527" y1="20.162" x2="219.358" y2="15.488"/>
	</g>
</g>
</svg>
