<?xml version="1.0" encoding="iso-8859-1"?>
<!-- Generator: Adobe Illustrator 13.0.0, SVG Export Plug-In . SVG Version: 6.00 Build 14948)  -->
<!DOCTYPE svg PUBLIC "-//W3C//DTD SVG 1.1//EN" "http://www.w3.org/Graphics/SVG/1.1/DTD/svg11.dtd">
<svg version="1.1" xmlns="http://www.w3.org/2000/svg" xmlns:xlink="http://www.w3.org/1999/xlink" x="0px" y="0px" width="378px"
	 height="140px" viewBox="0 0 378 140" style="enable-background:new 0 0 378 140;" xml:space="preserve">
<g id="Layer_2">
	<g>
		<rect style="fill:none;" width="378" height="140"/>
		<rect style="fill:#FFFFFF;" width="378" height="140"/>
	</g>
</g>
<g id="Layer_3">
	<g>
		<g>
			<rect x="121.5" y="2.5" style="fill:none;" width="135" height="135"/>
			<path style="fill:#406FA9;" d="M256.5,125.966c0,6.369-5.166,11.534-11.537,11.534H133.04c-6.375,0-11.54-5.165-11.54-11.534
				V14.04c0-6.375,5.165-11.54,11.54-11.54h111.923c6.371,0,11.537,5.165,11.537,11.54V125.966z"/>
			<path style="fill:#FFFFFF;" d="M251.015,121.421c0,5.851-4.746,10.598-10.598,10.598H137.586
				c-5.854,0-10.602-4.747-10.602-10.598V18.589c0-5.857,4.747-10.601,10.602-10.601h102.831c5.852,0,10.598,4.743,10.598,10.601
				V121.421z"/>
		</g>
		<g>
			<path style="fill:#3F6EA8;" d="M228.498,120.298c0,3.511-2.844,6.351-6.354,6.351l-69.143-0.152
				c-2.846,0-2.846-0.512-2.846-2.647V19.593c0-2.254,0.254-2.514,2.846-2.514h69.143c3.51,0,6.354,2.846,6.354,6.355V120.298z"/>
		</g>
		<g>
			<path style="fill:none;stroke:#FFFFFF;stroke-width:1.5875;stroke-linecap:round;stroke-linejoin:round;" d="M159.324,23.215"/>
			<path style="fill:none;stroke:#FFFFFF;stroke-width:1.5875;stroke-linecap:round;stroke-linejoin:round;" d="M158.409,25.5
				c-3.909,2.71-3.875-5.029-1.51-3.776"/>
			<path style="fill:none;stroke:#FFFFFF;stroke-width:1.5875;stroke-linecap:round;stroke-linejoin:round;" d="M168.604,23.422
				c0.021-0.127,0.186-0.21-0.031-0.533c-0.348-0.111-0.912-0.08-1.265-0.012c-0.031,0.75,0.08,1.463,0.164,2.207
				c0.031-0.971,0.13-1.984-0.754-2.418"/>
			<path style="fill:none;stroke:#FFFFFF;stroke-width:1.5875;stroke-linecap:round;stroke-linejoin:round;" d="M172.191,23.044
				c-1.069-0.019-4.53,0.382-2.924,1.947c1.562,1.51,2.961-0.757,4.103-1.178c1.45-0.534,3.091,0.378,4.598,0.855
				c0.744,0.235,2.896,1.253,3.643,0.583c1.039-0.931-0.127-2.673-1.373-2.533c0.731,0.117,1.501,0.027,2.235,0.012
				c0.108,0.419,0.304,1.008,0.251,1.451c0.831-0.201,1.213-1.112,1.507-1.68c0.729,1.112,0.171,2.911,1.554,3.187
				c1.842,0.366,1.919-1.739,0.251-2.123c0.359-0.168,1.052-0.286,1.464-0.311c0.024,0.279,0.198,0.487,0.146,0.862
				c0.784-0.676,1.65-1.688,2.658-0.909c-0.639-0.104-0.98,0.844-1.141,1.715c0.148,0.521,0.117-0.024,0.209,0.013"/>
			<path style="fill:none;stroke:#FFFFFF;stroke-width:1.5875;stroke-linecap:round;stroke-linejoin:round;" d="M160.676,24.365
				c0.013-0.847,0.68-1.253,1.535-1.306c1.386,1.274-1.005,2.037-0.229,3.209c1.116,1.675,1.702-2.48,0.844-3.584
				c0.855,1.085,3.389-0.155,2.759,2.626"/>
			<path style="fill:none;stroke:#FFFFFF;stroke-width:1.5875;stroke-linecap:round;stroke-linejoin:round;" d="M196.169,20.78
				c0.027,0.019,0.192-0.226-0.007,0.36c-0.26,0.024-0.511-0.031-0.75-0.174"/>
			<path style="fill:none;stroke:#FFFFFF;stroke-width:1.5875;stroke-linecap:round;stroke-linejoin:round;" d="M193.527,25.311
				c0.843,0.04,1.497,0.028,2.207-0.391c-0.942-0.065-1.913,0.084-2.774,0.391"/>
			<path style="fill:none;stroke:#FFFFFF;stroke-width:1.5875;stroke-linecap:round;stroke-linejoin:round;" d="M192.96,22.666
				c0.083-0.229,0.148-0.469,0.188-0.713c0.068,0.03,0.292,0.099,0.348,0.12c0.174-0.322-0.096-0.201-0.161-0.35"/>
			<path style="fill:none;stroke:#FFFFFF;stroke-width:1.5875;stroke-linecap:round;stroke-linejoin:round;" d="M196.358,22.858
				c0.177-0.149,0.372-0.218,0.592-0.195c0.192,0.982,0.422,2.074,0.716,3.001c0.5-0.375,1.269-0.902,2.062-0.704
				c-0.062,0.627,0.068,0.676-0.316,1.092c-0.105-0.729,0.288-0.646,0.723-0.931"/>
			<path style="fill:none;stroke:#FFFFFF;stroke-width:1.5875;stroke-linecap:round;stroke-linejoin:round;" d="M210.894,23.422
				c-0.224-0.257-0.326-0.508-0.72-0.539c-0.468,0.794-0.009,1.799,0.111,2.604c-0.127-0.726,0.184-1.749-0.191-2.62
				c-0.137,0.63-0.4,1.538-1.102,1.863c-0.024-0.406-0.391-1.029-0.399-1.476c-0.235-0.059-0.602-0.068-0.844-0.031
				c1.752,1.501-0.837,2.989-2.087,3.231c2.546-0.081,0.218-3.728,0.54-4.53c0.971,0.351,0.815,1.243,0.059,1.584
				c0.06-3.296-2.04,0.657-2.394,1.055c-0.455,0.509-0.84,1.259-1.671,0.958c-2.13-0.769,0.769-2.279,0.787-2.17
				c-0.505-2.899-2.756,0.883-3.938-0.67c0,0.297-0.074,0.573-0.003,0.871c0.189-0.366,0.115-0.657,0.146-1.073"/>
			<path style="fill:none;stroke:#FFFFFF;stroke-width:1.5875;stroke-linecap:round;stroke-linejoin:round;" d="M222.598,23.044
				c-3.591-0.576-0.512,5.333,0.192,1.234c0.599-3.47-3.113-1.234-3.212,1.357c-0.044-0.917-0.084-1.885,0.161-2.734
				c-0.279-0.354-0.831-0.686-1.25-0.781c-1.24,1.349-0.288,2.57,0.174,3.733c-0.686,0.006-2.328-0.221-2.726-0.868
				c-0.613-1.011,0.564-1.458,0.98-2.493c-0.342,0.077-0.965,0.391-1.287,0.602c0.639,0.639,1.352,1.358,1.082,2.375
				c-2.059,1.029-3.423-1.082-3.048-2.639c-1.256-0.148-1.494,1.783-1.283,2.806c-0.432-0.17-0.406-0.399-0.543-0.7"/>
			<path style="fill:none;stroke:#FFFFFF;stroke-width:1.5875;stroke-linecap:round;stroke-linejoin:round;" d="M162.564,33.238
				c0.853-1.041,0.13-3.268,0.18-4.191c0.108,0.93,0.362,1.916,0.945,2.666c0.282-0.316,0.939-0.607,1.3-0.911
				c0.214,1.017-0.385,1.888-0.515,2.827c0.372-0.012,0.985,0.301,1.457,0.205c-0.081,0.573-0.093,1.039-0.518,1.52
				c0.087-0.868,0.294-1.759,0.914-2.329c0.198,0.198,0.552,0.354,0.732,0.608c0.056-0.921-0.075-1.895-0.515-2.657
				c0.812-0.348,1.649-1.277,0.552-1.675c1.135,0.676,1.19,1.916,1.159,3.159c1.987-0.148,0.248,2.862-1.066,1.398
				c0.7-1.283,2.489-0.639,2.207,0.872c0.797-0.537,1.455-3.153,0.543-3.042c0.982-0.121,1.355,0.552,1.119,1.507
				c0.013-0.778-0.111-1.662,0.187-2.248c0.347,0.735,0.161,1.932,0.229,2.862c0.515-0.906,1.122-1.83,2.195-2.239
				c-0.438,0.862-1.278,1.575-1.458,2.589c0.521,0.022,1.166,0.108,1.532,0.1c0.167-0.319,0.694-0.604,0.858-0.952
				c0.227,0.105,0.599,0.195,0.772,0.279c-0.177-0.769-0.918-1.358-1.619-1.817c1.901-0.104,2.815,0.59,2.577,2.549
				c0.431-1.104-0.543-2.576-1.116-3.476c0.564-0.443,1.076-0.955,1.628-1.404c-0.794,0.89-0.62,2.406-0.168,3.438
				c0.794,1.82,1.327,1.286,3.008,0.921c-0.496,0.211-0.639,0.211-1.098,0.521c0.31-0.731,0.013-1.463-0.311-2.157
				c-0.502,2.766,2.413,2.104,3.572,0.71c-0.431-0.456-0.763-1.021-0.964-1.622c0.642,1.895-0.376,1.742,1.317,2.359
				c0.794,0.288,1.615,0.841,1.668-0.338c-0.238,0.118-0.607,0.177-0.887,0.329c0.158-0.894,0.382-2.177,1.063-2.8
				c0.205,1.854,0.388,3.668,0.961,5.447c-0.443-0.372-0.937-0.663-1.46-0.961c-0.093-1.514,0.899-3.355,2.604-3.206
				c-0.311-0.456-0.435-1.042-0.878-1.457c2.301-0.071,1.355,1.829,1.095,3.169c0.295-0.034,0.596-0.097,0.868-0.252
				c-0.214,0.214-0.254,0.319-0.509,0.462c-0.613-0.65-0.688-1.587-0.539-2.431c2.264-0.418,2.164,0.552,1.692,2.195
				c1.346,0.614,3.009-1.522,1.117-2.083c0.463,0.154,1.236,0.278,1.854,0.067c0.124,1.029-0.354,2.221-1.073,2.902
				c-0.01-0.1-0.043-0.812-0.031-0.468"/>
			<path style="fill:none;stroke:#FFFFFF;stroke-width:1.5875;stroke-linecap:round;stroke-linejoin:round;" d="M193.527,34.373
				c-0.279,0.229-0.391,0.224-0.332-0.016c0.325-0.486,0.71-0.948,1.039-1.438c0.105,0.369,0.515,0.657,0.613,0.865
				c0.934-0.713,1.361-1.594,1.349-2.784c0.184-0.074,0.884-0.205,1.067-0.195c0.226,0.573,0.312,1.212,0.257,1.839
				c0.573-0.248,0.549,0.111,1.026-0.478c-0.462,0.93-0.509,1.925-1.377,2.598c0.744-0.006,1.507-0.31,2.18-0.613
				c0.081-0.459,0.075-0.887-0.151-1.271c-0.189,0.13-0.403,0.279-0.608,0.483c0.726-0.769,2.152-1.178,2.065,0.242
				c-0.254-0.778-0.081-2.013-0.31-2.964c0.837,0.598,1.184,1.609,0.731,2.552c2.009,1.913,2.679-2,0.815-1.653
				c0.828-0.006,1.55-0.402,2.368-0.344c-0.09,0.248-0.214,0.803-0.362,1.045c0.316-0.884,0.146-1.885-0.186-2.71
				c-0.091,0.359,0.154,0.533,0.195,0.688"/>
			<path style="fill:none;stroke:#FFFFFF;stroke-width:1.5875;stroke-linecap:round;stroke-linejoin:round;" d="M207.12,31.731
				c-0.131-1.246-1.256-1.156-1.86-0.198c-0.593,0.937,0.858,1.935-0.564,2.633c0.264-0.562,1.045-0.686,1.829-0.524
				c-0.09,0.356,0.143,0.911,0.056,1.269c0.187,0.049,0.363-0.016,0.54,0.027"/>
			<path style="fill:none;stroke:#FFFFFF;stroke-width:1.5875;stroke-linecap:round;stroke-linejoin:round;" d="M209.005,33.617
				c-0.325-0.308-0.639-0.623-0.918-0.971c0.583,0.04,1.777,0.592,1.696,1.86c2.121-1.37-0.313-4.806-1.336-2.791
				c2.542-1.386,1.326,0.85,2.973,1.504c0.475-0.409,0.76-1.017,0.772-1.605c-0.341-0.003-0.351,0.012-0.679,0.124
				c2.521-0.282,1.063,1.953,0.545,2.954c0.812-1.674,3.848-0.04,4.478-1.856c0.524-1.514-1.832-2.152-2.412-1.364
				c3.24-1.864,2.304,1.99,4.307,2.307c-0.04-0.438-0.369-0.316-0.552-0.54"/>
		</g>
		<path style="fill:#FFFFFF;stroke:#FFFFFF;stroke-width:0.7937;stroke-linecap:round;stroke-linejoin:round;" d="M181.254,56.647
			c-0.161-0.663-0.301-1.377-0.523-1.978c0.003,1.153,0.003,2.846-1.33,3.097c-0.198-0.639-0.341-1.262-0.435-1.929
			c0.174,1.517,0.391,3.095,0.564,4.567c-0.666-0.056-0.955,0.053-1.467-0.335c0.76,0.744,2.087,0.395,1.901-0.868
			c0.111,0.453,0.526,1.036,0.669,1.408c0.285-0.881,0.775-1.594,1.725-1.532c0.006-0.099-0.016-0.422,0.027-0.489
			c-0.019,0.744-0.071,1.531,0.177,2.18c0.763-0.822,1.705-2.503,2.642-0.76c-3.813-0.235-1.779,3.255-0.198,1.562
			c-0.422,3.801-3.312,0.354-4.282-0.366c-0.033,0.521-0.468,0.949-0.586,1.34c-0.496-0.261-1.069-0.642-1.36-1.156
			c0.307,0.846,0.458,1.851,0.238,2.759c-0.679-0.356-1.271-0.794-1.575-1.441c-1.314,1.023-0.05,2.573,1.532,1.866
			c0.012,3.005-2.456,2.71-1.938,1.042c0.533,0.322,1.082,1.122,0.841,1.792c-0.57,1.575-1.194,0.1-1.765-0.006
			c-0.794-0.146-2.409,0.133-1.906-1.123c0.951,1.641,2.294,1.594,3.578,2.422c-0.68,0.446-1.421,0.679-2.078,1.132
			c0.974,0.651,0.686,1.414-0.312,1.761c-0.549-0.988-1.525-1.116-1.736-2.278c-0.289,0.229-0.543,0.576-0.67,0.896
			c2.974-0.021,4.616-0.254,2.607,2.971c0.564,0.043,1.029,0.539,1.358,0.663c-0.192,0.161-0.316,0.429-0.422,0.527
			c2.158-0.626,1.005,0.056,2.275,0.757c0.694,0.384,0.648,1.079,1.668,0.391c0.413,1.125-0.855,1.963-1.687,2.496
			c-0.338-0.45-0.924-0.838-1.283-1.29c0.431,1.113,2.945,2.449,3.916,1.312c0.068,2.316-1.976,1.761-3.066,2.964
			c0.272-0.747,2.834-1.457,3.605-1.29c0.958,0.208,1.026,1.142,2.264,1.116c0.927-0.019,1.851-0.272,1.423-1.199
			c-0.512,0.229-0.961,0.555-1.256,1.045c1.458,0.167,4.053-2.09,3.525,0.75c-0.272,1.464-1.959,2.238,0.62,3.159
			c0.205-0.645,0.329-1.392,0.792-1.86c0.846,1.398,1.454,2.927-0.137,3.736c1.025-0.558,1.38-1.811,2.422-2.378
			c1.771,3.326,3.51-1.56-0.564-0.62c-0.388-1.206,0.986-2.335,1.692-3.228c-0.037,0.356,0.084,0.79,0.06,1.144
			c1.008-0.425,0.771-1.547,0.697-2.492c1.193,0.645,1.24,1.652,1.427,2.821c0.186-0.161,0.492-0.345,0.639-0.496
			c-0.112,0.676-0.094,0.905-0.608,1.436c1.19-1.008,3.839-1.578,3.51-3.513c0.559,0.344,0.781,0.97,0.757,1.708
			c0.757-0.301,1.612-0.415,1.681,0.645c-0.319-0.917-0.484-1.938-0.363-2.904c0.875-0.196,1.693-0.859,1.179-1.69
			c0.05-0.093,0.13-0.137,0.235-0.124c-1.702,0-2.291-1.396-1.423-2.679c-0.54,0.676-1.122,1.317-1.842,1.776
			c-0.62-0.828-0.905-1.876-0.884-2.898c1.863-1.414,1.361,0.124,2.366,0.502c0.901,0.341,1.578-0.217,2.616,0.502
			c0.189-1.451,1.393-1.519,2.071-0.536c0.27-0.629,0.267-1.386,0.028-2.037c-1.619,0.18-3.222,0.171-4.871,0.143
			c-0.065-1.352,1.761-2.192,2.604-3.193c1.181,1.773,2.378,1.333,3.695,0.016c0.146,0.232,0.332,0.456,0.446,0.704
			c0.044-0.906-0.347-1.743-1.317-1.482c-0.325-0.8-0.248-0.998,0.483-1.306c-1.677,0.289-3.537-1.06-3.178-2.806
			c-1.9,0.385-3.069,1.023-5.045,0.316c0.1-0.862,0.772-1.702,1.646-1.829c0.273,1.975,1.619,0.639,2.44-0.004
			c0.307,0.76,0.915,1.213,1.708,1.089c0.661-1.358-0.093-2.586-1.594-1.736c-0.468-0.803,0.707-1.584,1.234-1.681
			c-0.518-0.8-1.51-2.716-0.399-3.138c0.096,0.214,0.13,0.422,0.244,0.633c-0.226-1.284-1.438-1.619-1.565-1.78
			c-0.183,1.42-2.235,4.366-3.222,1.944c-0.781,0.921-1.364,1.86-1.302,3.116c-1.113,0.257-1.836,1.634-1.86,2.803
			c0.056-0.093,0.08-0.335,0.148-0.459c0.227,1.454-0.068,4.012-2.019,2.76c-1.153-0.738-1.262-4.843-0.958-6.264
			c0.379-1.773,1.823-1.553,2.45-2.821c0.542-1.095,0.056-2.902-0.937-3.565c-1.086,1.156-0.363,3.587-2.81,3.773
			c-0.031-0.183-0.027-0.345-0.062-0.53c-0.255,0.348-0.872,0.459-1.198,0.726c-0.34-0.428-0.482-0.747-0.439-1.28
			c0.195-0.01,0.318,0.083,0.502,0.096c0.316-0.576-0.254-1.228-0.303-1.098c0.039-0.108-0.262-0.496-0.203-0.731
			c0.078-0.316,0.811-0.224,0.879-0.416c0.275-0.781,1.172-1.909-0.479-2.231c-0.359,1.454-0.931,3.242-0.443,4.706
			c-0.896,0.05-0.853,0.031-1.142-0.7c-0.988,0.043-2.037,0.849-2.766,1.562c-0.232-0.255-0.858-0.559-0.964-0.683
			c0.161,2.506,4.086,1.575,5.283,0.862c0.189,0.734,0.42,1.333,0.391,2.17c0.242-0.021,0.453-0.056,0.698-0.143
			c-0.08,1.461-2.311,1.135-2.658-0.198c-1.336,0.986-1.156,1.389-0.803,2.573c0.192,0.651,1.182,0.794,0.859,1.619
			c-0.416,1.054-1.52,0.161-1.762-0.611c-0.204,0.356-0.84,0.766-1.035,1.113c-0.478-0.766-0.487-1.718-0.803-1.687"/>
		<path style="fill:none;stroke:#FFFFFF;stroke-width:1.5875;stroke-linecap:round;stroke-linejoin:round;" d="M193.905,31.539
			c0-0.806-0.019-1.627,0.025-2.424c0.558-0.236,1.146-0.261,1.674-0.028"/>
		<path style="fill:none;stroke:#FFFFFF;stroke-width:1.5875;stroke-linecap:round;stroke-linejoin:round;" d="M193.527,23.236
			c0.523-0.348,1.178-0.509,1.507-0.378"/>
		<path style="fill:none;stroke:#FFFFFF;stroke-width:1.905;stroke-linecap:round;stroke-linejoin:round;" d="M168.418,106.867
			c-0.663,0.874-0.378,2.304-0.378,3.4c0,0.564,0,2.797,0,2.264"/>
		<path style="fill:none;stroke:#FFFFFF;stroke-width:1.905;stroke-linecap:round;stroke-linejoin:round;" d="M171.246,109.133
			c0.493-0.973-0.397-1.811-1.321-2.077"/>
		<path style="fill:none;stroke:#FFFFFF;stroke-width:1.905;stroke-linecap:round;stroke-linejoin:round;" d="M172.759,112.721
			c-0.087-1.476,0.717-4.037,1.079-5.467c0.806,1.485,0.844,4.021,1.94,5.089"/>
		<path style="fill:none;stroke:#FFFFFF;stroke-width:1.905;stroke-linecap:round;stroke-linejoin:round;" d="M180.876,107.812
			c-0.771-1.312-3.222-1.021-1.892,0.952c0.409,0.604,1.662,0.552,1.854,1.544c0.242,1.249-0.744,1.668-1.852,1.845"/>
		<path style="fill:none;stroke:#FFFFFF;stroke-width:1.905;stroke-linecap:round;stroke-linejoin:round;" d="M185.974,107.245
			c-1.048-0.772-2.599-0.279-3.393,0.642c0.496,1.243,2.995,1.11,3.179,2.431c0.18,1.3-1.554,1.076-2.428,1.269"/>
		<path style="fill:none;stroke:#FFFFFF;stroke-width:1.905;stroke-linecap:round;stroke-linejoin:round;" d="M195.412,107.998
			c0.533,0.59,0.496,1.337,0,2.078"/>
		<path style="fill:none;stroke:#FFFFFF;stroke-width:1.905;stroke-linecap:round;stroke-linejoin:round;" d="M192.206,107.056
			c0.608,1.383,0.878,3.585,0.754,5.098"/>
		<path style="fill:none;stroke:#FFFFFF;stroke-width:1.905;stroke-linecap:round;stroke-linejoin:round;" d="M190.507,112.153
			c-0.827-0.195-2.295-0.261-2.834,0.189"/>
		<path style="fill:none;stroke:#FFFFFF;stroke-width:1.905;stroke-linecap:round;stroke-linejoin:round;" d="M188.236,111.021
			c-0.301-0.979-0.006-1.811-0.563-2.645"/>
		<path style="fill:none;stroke:#FFFFFF;stroke-width:1.905;stroke-linecap:round;stroke-linejoin:round;" d="M190.507,106.678
			c-1.032-0.322-1.737,0.238-2.834,0.189"/>
		<path style="fill:none;stroke:#FFFFFF;stroke-width:1.905;stroke-linecap:round;stroke-linejoin:round;" d="M190.507,109.887
			c0.038-0.443-0.167-0.676-0.571-0.754"/>
		<path style="fill:none;stroke:#FFFFFF;stroke-width:1.905;stroke-linecap:round;stroke-linejoin:round;" d="M199.188,107.245
			c-2.124-0.837-2.102,3.426-0.76,4.338c2.394,1.631,3.188-3.089,1.327-3.96"/>
		<path style="fill:none;stroke:#FFFFFF;stroke-width:1.905;stroke-linecap:round;stroke-linejoin:round;" d="M202.776,106.678
			c-0.143,1.789,0.703,3.441,0.567,5.228c0.034-1.225-0.905-4.059,0.561-4.475c2.18-0.62,2.053,2.484,0.533,3.008
			c1.058,0.325,2.224,1.061,2.868,1.904"/>
		<path style="fill:none;stroke:#FFFFFF;stroke-width:1.905;stroke-linecap:round;stroke-linejoin:round;" d="M210.518,112.343
			c-0.399-1.293-0.297-2.657-0.567-3.966"/>
		<path style="fill:none;stroke:#FFFFFF;stroke-width:1.905;stroke-linecap:round;stroke-linejoin:round;" d="M207.306,107.623
			c1.578,0.047,2.958-0.518,4.533-0.378"/>
	</g>
</g>
</svg>
