<?xml version="1.0" encoding="iso-8859-1"?>
<!-- Generator: Adobe Illustrator 13.0.0, SVG Export Plug-In . SVG Version: 6.00 Build 14948)  -->
<!DOCTYPE svg PUBLIC "-//W3C//DTD SVG 1.1//EN" "http://www.w3.org/Graphics/SVG/1.1/DTD/svg11.dtd">
<svg version="1.1" xmlns="http://www.w3.org/2000/svg" xmlns:xlink="http://www.w3.org/1999/xlink" x="0px" y="0px" width="540px"
	 height="200px" viewBox="0 0 540 200" style="enable-background:new 0 0 540 200;" xml:space="preserve">
<g id="Layer_2">
	<g>
		<rect style="fill:#FFFFFF;" width="540" height="200"/>
	</g>
</g>
<g id="Layer_1">
	<g>
		<g>
			
				<rect x="427.633" y="100.724" style="fill:#CE4E43;stroke:#FFFFFF;stroke-width:0.916;stroke-linecap:square;" width="4.48" height="64.386"/>
			<g>
				<path style="fill:#CE4E43;" d="M391.91,99.312c0,1.404,1.139,2.543,2.543,2.543h70.83c1.405,0,2.543-1.139,2.543-2.543
					s-1.138-2.542-2.543-2.542h-70.83C393.049,96.771,391.91,97.908,391.91,99.312C391.91,99.312,391.91,97.908,391.91,99.312z"/>
				<path style="fill:none;stroke:#FFFFFF;stroke-width:1.374;" d="M391.91,99.312c0,1.404,1.139,2.543,2.543,2.543h70.83
					c1.405,0,2.543-1.139,2.543-2.543s-1.138-2.542-2.543-2.542h-70.83C393.049,96.771,391.91,97.908,391.91,99.312
					C391.91,99.312,391.91,97.908,391.91,99.312z"/>
			</g>
		</g>
		<g>
			<rect x="160.574" y="92.91" style="fill:#79B423;stroke:#FFFFFF;stroke-width:1.374;" width="5.478" height="72.816"/>
			<path style="fill:#79B423;stroke:#FFFFFF;stroke-width:1.374;" d="M179.264,96.899h-31.912V88.92c0,0,7.569-3.492,15.547-3.492
				s16.364,3.492,16.364,3.492V96.899z"/>
			<rect x="153.086" y="148.463" style="fill:#79B423;stroke:#FFFFFF;stroke-width:0.916;" width="20.448" height="1.869"/>
		</g>
		
			<line style="fill:none;stroke:#79B423;stroke-width:3.427;stroke-linecap:round;" x1="26.713" y1="56.053" x2="134.205" y2="56.053"/>
		
			<line style="fill:none;stroke:#79B423;stroke-width:3.427;stroke-linecap:square;" x1="134.205" y1="56.053" x2="134.205" y2="80.097"/>
		
			<line style="fill:none;stroke:#79B423;stroke-width:3.427;stroke-linecap:square;" x1="134.205" y1="80.097" x2="123.899" y2="80.097"/>
		
			<line style="fill:none;stroke:#79B423;stroke-width:3.427;stroke-linecap:square;" x1="123.899" y1="80.097" x2="123.899" y2="164.822"/>
		
			<line style="fill:none;stroke:#79B423;stroke-width:3.427;stroke-linecap:round;" x1="123.899" y1="164.822" x2="512.43" y2="164.822"/>
		<g>
			<g>
				
					<line style="fill:none;stroke:#79B423;stroke-width:4.2837;stroke-linecap:round;stroke-linejoin:round;" x1="369.608" y1="85.414" x2="369.608" y2="124.011"/>
				
					<line style="fill:none;stroke:#79B423;stroke-width:4.2837;stroke-linecap:round;stroke-linejoin:round;" x1="369.608" y1="124.011" x2="408.203" y2="124.011"/>
				
					<line style="fill:none;stroke:#79B423;stroke-width:4.2837;stroke-linecap:round;stroke-linejoin:round;" x1="408.203" y1="124.011" x2="369.567" y2="162.65"/>
				
					<line style="fill:none;stroke:#79B423;stroke-width:4.2837;stroke-linecap:round;stroke-linejoin:round;" x1="369.567" y1="162.65" x2="391.821" y2="162.65"/>
			</g>
			<g>
				
					<line style="fill:none;stroke:#79B423;stroke-width:4.2837;stroke-linecap:round;stroke-linejoin:round;" x1="499.365" y1="85.414" x2="499.365" y2="124.011"/>
				
					<line style="fill:none;stroke:#79B423;stroke-width:4.2837;stroke-linecap:round;stroke-linejoin:round;" x1="499.365" y1="124.011" x2="460.773" y2="124.011"/>
				
					<line style="fill:none;stroke:#79B423;stroke-width:4.2837;stroke-linecap:round;stroke-linejoin:round;" x1="460.773" y1="124.011" x2="499.405" y2="162.65"/>
				
					<line style="fill:none;stroke:#79B423;stroke-width:4.2837;stroke-linecap:round;stroke-linejoin:round;" x1="499.405" y1="162.65" x2="477.152" y2="162.65"/>
			</g>
		</g>
	</g>
	<g>
		<path style="fill:none;stroke:#92938B;stroke-width:2.5702;stroke-linecap:round;stroke-linejoin:round;" d="M237.5,33.311
			c0,8.708-5.385,15.761-12.035,15.761c-6.643,0-12.036-7.054-12.036-15.761c0-8.701,5.393-15.756,12.036-15.756
			C232.115,17.555,237.5,24.61,237.5,33.311z"/>
		<path style="fill:none;stroke:#92938B;stroke-width:2.5702;stroke-linecap:round;stroke-linejoin:round;" d="M225.826,70.461
			c0.179,11.112,0.158,23.015-0.94,28.472c-1.711,8.595-5.155,5.159-3.434,17.192c2.152,15.079,8.024,27.509,6.302,34.957
			c-9.382,40.673-9.74,41.837-0.577,40.691"/>
		<path style="fill:none;stroke:#92938B;stroke-width:2.5702;stroke-linecap:round;stroke-linejoin:round;" d="M225.465,49.649
			c-0.015,2.771,0.081,7.037,0.188,11.966"/>
		<path style="fill:none;stroke:#92938B;stroke-width:1.7135;stroke-linecap:round;stroke-linejoin:round;" d="M232.647,65.996
			c0,2.688-2.174,4.87-4.866,4.87s-4.879-2.182-4.879-4.87c0-2.691,2.187-4.873,4.879-4.873S232.647,63.305,232.647,65.996z"/>
	</g>
	<g>
		<path style="fill:none;stroke:#92938B;stroke-width:1.7135;stroke-linecap:round;stroke-linejoin:round;" d="M293.871,106.769
			c0,1.517,1.225,2.749,2.746,2.749c1.506,0,2.745-1.232,2.745-2.749s-1.239-2.746-2.745-2.746
			C295.096,104.022,293.871,105.252,293.871,106.769z"/>
		<path style="fill:none;stroke:#92938B;stroke-width:1.7135;stroke-linecap:round;stroke-linejoin:round;" d="M283.815,23.624
			c0,8.507,5.274,15.401,11.759,15.401c6.489,0,11.767-6.894,11.767-15.401c0-8.504-5.277-15.399-11.767-15.399
			C289.09,8.225,283.815,15.12,283.815,23.624z"/>
		<path style="fill:none;stroke:#92938B;stroke-width:1.7135;stroke-linecap:round;stroke-linejoin:round;" d="M295.283,39.637
			c0.055,10.75-1.444,42.537,0.612,52.855c1.844,9.216,2.662,6.423,0.823,19.329c-2.308,16.162,2.881,31.936,3.436,40.112
			c2.863,42.41,3.122,41.35-6.714,40.115"/>
	</g>
</g>
</svg>
