<?xml version="1.0" encoding="iso-8859-1"?>
<!-- Generator: Adobe Illustrator 13.0.0, SVG Export Plug-In . SVG Version: 6.00 Build 14948)  -->
<!DOCTYPE svg PUBLIC "-//W3C//DTD SVG 1.1//EN" "http://www.w3.org/Graphics/SVG/1.1/DTD/svg11.dtd">
<svg version="1.1" xmlns="http://www.w3.org/2000/svg" xmlns:xlink="http://www.w3.org/1999/xlink" x="0px" y="0px" width="540px"
	 height="200px" viewBox="0 0 540 200" style="enable-background:new 0 0 540 200;" xml:space="preserve">
<g id="Layer_2">
	<rect style="fill:#FFFFFF;" width="540" height="200"/>
</g>
<g id="Layer_1">
	<path style="fill:#FFFFFF;stroke:#92938B;stroke-width:4;stroke-linecap:round;stroke-linejoin:round;" d="M222.827,45.155
		c0,17.955-11.11,32.506-24.819,32.506c-13.691,0-24.815-14.551-24.815-32.506c0-17.951,11.124-32.501,24.815-32.501
		C211.717,12.653,222.827,27.204,222.827,45.155z"/>
	<path style="fill:none;stroke:#92938B;stroke-width:4;stroke-linecap:round;stroke-linejoin:round;" d="M198.629,78.951
		c-0.11,22.689,3.112,84.625-0.754,108.396"/>
	<path style="fill:#FFFFFF;stroke:#92938B;stroke-width:2;stroke-linecap:round;stroke-linejoin:round;" d="M319.637,127.497
		c4.994,2.343,10.898,12.387,21.148,14.143c9.754,1.672,9.881,6.027,13.701,9.34c1.426,1.237-0.137,4.165,1.977,5.112
		c2.33,1.043,3.278-0.705,3.684-2.532c0.861-3.88-4.743-13.78-7.68-15.186c3.023-0.82,12.926-2.137,14.047-5.438
		c2.258-6.652-9.163-3.05-11.668-2.716c1.716-0.841,11.591,0.184,9.303-4.661c-1.568-3.319-8.543-0.531-11.115,0.005
		c2.601-0.413,5.098-0.117,7.392-1.621c0.388-5.169-7.052-4.7-10.384-3.829c5.936-0.138,6.489-3.616,0.723-4.821
		c-3.709-0.773-8.812,0.121-12.281,1.638C331.684,119.904,328.387,127.015,319.637,127.497"/>
	<path style="fill:none;stroke:#92938B;stroke-width:2;stroke-linecap:round;stroke-linejoin:round;" d="M198.914,88.171
		c14.06-10.633,41.689,34.851,57.617,38.411c20.457,4.573,46.828-0.182,63.105,0.915"/>
	
		<circle style="fill:#FFFFFF;stroke:#92938B;stroke-width:2;stroke-linecap:round;stroke-linejoin:round;" cx="204.454" cy="102.195" r="9.68"/>
</g>
</svg>
