<?xml version="1.0" encoding="iso-8859-1"?>
<!-- Generator: Adobe Illustrator 13.0.0, SVG Export Plug-In . SVG Version: 6.00 Build 14948)  -->
<!DOCTYPE svg PUBLIC "-//W3C//DTD SVG 1.1//EN" "http://www.w3.org/Graphics/SVG/1.1/DTD/svg11.dtd">
<svg version="1.1" xmlns="http://www.w3.org/2000/svg" xmlns:xlink="http://www.w3.org/1999/xlink" x="0px" y="0px" width="378px"
	 height="140px" viewBox="0 0 378 140" style="enable-background:new 0 0 378 140;" xml:space="preserve">
<g id="Layer_5">
	<rect style="fill:#FFFFFF;" width="378" height="140"/>
</g>
<g id="ordi">
	<g>
		<path style="fill:none;stroke:#92938B;stroke-width:0.3101;stroke-linecap:round;stroke-linejoin:round;" d="M129.826,39.892
			c2.486-2.485,13.291-10.385,14.374-10.62c3.13-0.678,10.026,3.734,13.807,4.986c-1.242,0.581-17.86,8.375-19.74,9.058"/>
		<path style="fill:none;stroke:#92938B;stroke-width:0.3101;stroke-linecap:round;stroke-linejoin:round;" d="M139.706,57.213
			c-1.466-0.769-5.779-2.608-7.454-3.348c0,0,1.486-3.123,1.467-3.271c-0.246-2.024-1.862-4.514-3.893-10.703
			c1.329,0.186,6.191,3.141,8.441,3.424c0.091,2.207,2.304,6.351,2.717,9.658c0.224,1.803-1.116,3.354-1.245,4.214
			c6.417,0,14.65-1.111,19.043-1.111"/>
		<path style="fill:none;stroke:#92938B;stroke-width:0.3101;stroke-linecap:round;stroke-linejoin:round;" d="M158.007,34.258
			c1.651,7.083,1.943,14.772,0.776,21.819"/>
	</g>
	<g>
		<path style="fill:none;stroke:#92938B;stroke-width:0.3101;stroke-linecap:round;stroke-linejoin:round;" d="M255.127,39.892
			c2.486-2.485,13.29-10.385,14.374-10.62c3.13-0.678,10.026,3.734,13.807,4.986c-1.242,0.581-17.859,8.375-19.739,9.058"/>
		<path style="fill:none;stroke:#92938B;stroke-width:0.3101;stroke-linecap:round;stroke-linejoin:round;" d="M265.006,57.213
			c-1.466-0.769-5.778-2.608-7.453-3.348c0,0,1.485-3.123,1.467-3.271c-0.245-2.024-1.862-4.514-3.893-10.703
			c1.329,0.186,6.19,3.141,8.441,3.424c0.091,2.207,2.304,6.351,2.718,9.658c0.223,1.803-1.117,3.354-1.246,4.214
			c6.418,0,14.651-1.111,19.044-1.111"/>
		<path style="fill:none;stroke:#92938B;stroke-width:0.3101;stroke-linecap:round;stroke-linejoin:round;" d="M283.308,34.258
			c1.651,7.083,1.943,14.772,0.776,21.819"/>
	</g>
	<g>
		<path style="fill:none;stroke:#92938B;stroke-width:0.3101;stroke-linecap:round;stroke-linejoin:round;" d="M12.681,34.642
			c2.689-2.282,6.796-5.135,7.879-5.37c3.13-0.678,10.026,3.734,13.807,4.986c-1.242,0.581-17.859,8.375-19.739,9.058"/>
		<path style="fill:none;stroke:#92938B;stroke-width:0.3101;stroke-linecap:round;stroke-linejoin:round;" d="M12.686,42.742
			c0.739,0.292,1.413,0.507,1.943,0.573c0.091,2.207,2.304,6.351,2.717,9.658c0.223,1.803-1.117,3.354-1.246,4.214
			c6.417,0,14.651-1.111,19.043-1.111"/>
		<path style="fill:none;stroke:#92938B;stroke-width:0.3101;stroke-linecap:round;stroke-linejoin:round;" d="M16.066,57.213
			c-0.689-0.362-2.008-0.96-3.386-1.569"/>
		<path style="fill:none;stroke:#92938B;stroke-width:0.3101;stroke-linecap:round;stroke-linejoin:round;" d="M34.368,34.258
			c1.651,7.084,1.943,14.772,0.776,21.819"/>
	</g>
</g>
<g id="vitre">
	<line style="fill:none;stroke:#F29400;stroke-width:0.9304;" x1="159.043" y1="54.31" x2="204.429" y2="54.31"/>
	<line style="fill:none;stroke:#F29400;stroke-width:0.9304;" x1="35.404" y1="54.31" x2="79.391" y2="54.31"/>
	<line style="fill:none;stroke:#F29400;stroke-width:0.9304;" x1="284.343" y1="54.31" x2="329.283" y2="54.31"/>
	<g>
		<path style="fill:none;stroke:#CCE8F3;stroke-width:0.9304;stroke-linecap:round;stroke-linejoin:round;" d="M153.683,62.769
			c0-6.849,0-10.057,0-15.86c0-17.579,11.359-31.833,25.375-31.833c14.011,0,25.372,14.254,25.372,31.833c0,5.776,0,9.041,0,15.86"
			/>
		
			<line style="fill:none;stroke:#CCE8F3;stroke-width:0.9285;stroke-linecap:round;stroke-linejoin:round;" x1="153.683" y1="62.769" x2="79.483" y2="62.769"/>
		
			<line style="fill:none;stroke:#CCE8F3;stroke-width:0.9344;stroke-linecap:round;stroke-linejoin:round;" x1="204.429" y1="62.769" x2="278.629" y2="62.769"/>
	</g>
	<g style="opacity:0.47;">
		<g>
			<line style="fill:none;" x1="150.387" y1="62.769" x2="130.792" y2="49.66"/>
			<path style="fill:#CCE8F3;" d="M150.654,62.388c-6.532-4.37-13.063-8.739-19.595-13.108c-0.498-0.333-1.033,0.428-0.533,0.762
				c6.532,4.37,13.063,8.739,19.595,13.108C150.619,63.483,151.153,62.722,150.654,62.388L150.654,62.388z"/>
		</g>
	</g>
	<g style="opacity:0.47;">
		<g>
			<line style="fill:none;" x1="153.683" y1="60.616" x2="128.058" y2="38.127"/>
			<path style="fill:#CCE8F3;" d="M153.949,60.235c-8.542-7.496-17.083-14.992-25.625-22.488c-0.451-0.396-0.979,0.37-0.533,0.762
				c8.542,7.496,17.083,14.992,25.625,22.488C153.867,61.393,154.396,60.626,153.949,60.235L153.949,60.235z"/>
		</g>
	</g>
	<g style="opacity:0.47;">
		<g>
			<line style="fill:none;" x1="153.683" y1="52.758" x2="127.69" y2="32.706"/>
			<path style="fill:#CCE8F3;" d="M153.949,52.377c-8.664-6.684-17.328-13.368-25.992-20.052c-0.476-0.367-1.007,0.396-0.533,0.762
				c8.664,6.684,17.328,13.368,25.992,20.052C153.892,53.506,154.423,52.742,153.949,52.377L153.949,52.377z"/>
		</g>
	</g>
	<g style="opacity:0.47;">
		<g>
			<line style="fill:none;" x1="153.724" y1="45.11" x2="130.792" y2="23.403"/>
			<path style="fill:#CCE8F3;" d="M154.079,44.809c-7.644-7.236-15.288-14.471-22.932-21.707c-0.431-0.408-1.146,0.189-0.71,0.602
				c7.644,7.236,15.288,14.471,22.932,21.707C153.799,45.818,154.515,45.222,154.079,44.809L154.079,44.809z"/>
		</g>
	</g>
	<g style="opacity:0.47;">
		<g>
			<line style="fill:none;" x1="154.505" y1="38.853" x2="131.412" y2="18.648"/>
			<path style="fill:#CCE8F3;" d="M154.772,38.472c-7.698-6.735-15.396-13.47-23.093-20.204c-0.451-0.396-0.98,0.371-0.533,0.762
				c7.698,6.735,15.396,13.47,23.093,20.204C154.69,39.629,155.219,38.862,154.772,38.472L154.772,38.472z"/>
		</g>
	</g>
	<g style="opacity:0.47;">
		<g>
			<line style="fill:none;" x1="156.341" y1="32.712" x2="132.444" y2="7.277"/>
			<path style="fill:#CCE8F3;" d="M156.696,32.412c-7.966-8.479-15.931-16.957-23.896-25.436c-0.409-0.436-1.122,0.163-0.71,0.602
				c7.966,8.479,15.931,16.957,23.896,25.436C156.395,33.449,157.108,32.85,156.696,32.412L156.696,32.412z"/>
		</g>
	</g>
	<g style="opacity:0.47;">
		<g>
			<line style="fill:none;" x1="141.541" y1="62.769" x2="120.246" y2="47.386"/>
			<path style="fill:#CCE8F3;" d="M141.808,62.388c-7.098-5.128-14.196-10.255-21.295-15.383c-0.487-0.352-1.02,0.411-0.533,0.762
				c7.098,5.128,14.196,10.255,21.295,15.383C141.761,63.501,142.294,62.739,141.808,62.388L141.808,62.388z"/>
		</g>
	</g>
	<g style="opacity:0.47;">
		<g>
			<line style="fill:none;" x1="133.686" y1="62.769" x2="112.391" y2="48.417"/>
			<path style="fill:#CCE8F3;" d="M133.952,62.388c-7.098-4.784-14.196-9.568-21.294-14.352c-0.497-0.335-1.032,0.426-0.533,0.762
				c7.098,4.784,14.196,9.568,21.294,14.352C133.916,63.485,134.451,62.723,133.952,62.388L133.952,62.388z"/>
		</g>
	</g>
	<g style="opacity:0.47;">
		<g>
			<line style="fill:none;" x1="125.416" y1="62.769" x2="109.29" y2="54.62"/>
			<path style="fill:#CCE8F3;" d="M125.577,62.332c-5.375-2.716-10.751-5.433-16.126-8.149c-0.536-0.271-0.852,0.605-0.323,0.873
				c5.375,2.716,10.751,5.433,16.126,8.149C125.79,63.476,126.105,62.6,125.577,62.332L125.577,62.332z"/>
		</g>
	</g>
	<g style="opacity:0.47;">
		<g>
			<line style="fill:none;" x1="111.771" y1="62.769" x2="100.399" y2="52.346"/>
			<path style="fill:#CCE8F3;" d="M112.125,62.468c-3.791-3.475-7.581-6.949-11.371-10.423c-0.436-0.399-1.152,0.196-0.71,0.602
				c3.791,3.475,7.581,6.949,11.371,10.423C111.852,63.469,112.568,62.873,112.125,62.468L112.125,62.468z"/>
		</g>
	</g>
	<g style="opacity:0.47;">
		<g>
			<line style="fill:none;" x1="160.014" y1="25.874" x2="146.917" y2="14.512"/>
			<path style="fill:#CCE8F3;" d="M160.28,25.493c-4.365-3.788-8.73-7.575-13.096-11.362c-0.453-0.394-0.982,0.373-0.533,0.762
				c4.365,3.788,8.73,7.575,13.096,11.362C160.2,26.648,160.729,25.882,160.28,25.493L160.28,25.493z"/>
		</g>
	</g>
	<g style="opacity:0.47;">
		<g>
			<line style="fill:none;" x1="164.54" y1="20.8" x2="152.705" y2="11.616"/>
			<path style="fill:#CCE8F3;" d="M164.806,20.419c-3.945-3.062-7.89-6.123-11.835-9.184c-0.475-0.369-1.006,0.395-0.533,0.762
				c3.945,3.062,7.89,6.123,11.835,9.184C164.748,21.549,165.279,20.786,164.806,20.419L164.806,20.419z"/>
		</g>
	</g>
	<g style="opacity:0.47;">
		<g>
			<line style="fill:none;" x1="170.837" y1="16.783" x2="157.668" y2="6.657"/>
			<path style="fill:#CCE8F3;" d="M171.104,16.402c-4.39-3.375-8.779-6.751-13.169-10.126c-0.477-0.367-1.008,0.397-0.533,0.762
				c4.39,3.375,8.779,6.751,13.169,10.126C171.047,17.53,171.579,16.767,171.104,16.402L171.104,16.402z"/>
		</g>
	</g>
	<path style="fill:none;stroke:#CCE8F3;stroke-width:0.9304;stroke-linecap:round;stroke-linejoin:round;" d="M278.629,62.769
		c0-6.85,0-10.058,0-15.861c0-17.579,11.359-31.833,25.375-31.833c14.011,0,25.371,14.253,25.371,31.833c0,5.776,0,9.042,0,15.861"
		/>
	<path style="fill:none;stroke:#CCE8F3;stroke-width:0.9304;stroke-linecap:round;stroke-linejoin:round;" d="M28.737,62.769
		c0-6.85,0-10.059,0-15.861c0-17.579,11.36-31.833,25.375-31.833c14.011,0,25.371,14.254,25.371,31.833c0,5.775,0,9.042,0,15.861"/>
	<g>
		<g style="opacity:0.47;">
			<g>
				<line style="fill:none;" x1="274.44" y1="62.769" x2="254.845" y2="49.66"/>
				<path style="fill:#CCE8F3;" d="M274.707,62.388c-6.531-4.37-13.063-8.739-19.596-13.109c-0.498-0.333-1.033,0.428-0.533,0.762
					c6.531,4.37,13.063,8.739,19.596,13.109C274.672,63.483,275.207,62.722,274.707,62.388L274.707,62.388z"/>
			</g>
		</g>
		<g style="opacity:0.47;">
			<g>
				<line style="fill:none;" x1="278.629" y1="60.615" x2="249.91" y2="38.127"/>
				<path style="fill:#CCE8F3;" d="M278.896,60.234c-9.572-7.496-19.146-14.992-28.719-22.488c-0.473-0.371-1.004,0.393-0.533,0.762
					c9.572,7.496,19.146,14.992,28.719,22.488C278.835,61.367,279.366,60.603,278.896,60.234L278.896,60.234z"/>
			</g>
		</g>
		<g style="opacity:0.47;">
			<g>
				<line style="fill:none;" x1="278.629" y1="53.651" x2="251.743" y2="32.706"/>
				<path style="fill:#CCE8F3;" d="M278.896,53.271c-8.962-6.982-17.924-13.964-26.886-20.945c-0.474-0.37-1.005,0.395-0.533,0.762
					c8.962,6.982,17.924,13.964,26.886,20.945C278.836,54.402,279.367,53.638,278.896,53.271L278.896,53.271z"/>
			</g>
		</g>
		<g style="opacity:0.47;">
			<g>
				<line style="fill:none;" x1="278.629" y1="45.962" x2="253.153" y2="25.094"/>
				<path style="fill:#CCE8F3;" d="M278.896,45.581c-8.491-6.956-16.983-13.912-25.476-20.868c-0.465-0.381-0.995,0.384-0.533,0.762
					c8.491,6.956,16.983,13.912,25.476,20.868C278.827,46.724,279.357,45.959,278.896,45.581L278.896,45.581z"/>
			</g>
		</g>
		<g style="opacity:0.47;">
			<g>
				<line style="fill:none;" x1="279.307" y1="39.602" x2="255.465" y2="18.648"/>
				<path style="fill:#CCE8F3;" d="M279.573,39.221c-7.947-6.985-15.895-13.969-23.842-20.954c-0.45-0.396-0.979,0.37-0.533,0.762
					c7.947,6.985,15.895,13.969,23.842,20.954C279.49,40.378,280.02,39.612,279.573,39.221L279.573,39.221z"/>
			</g>
		</g>
		<g style="opacity:0.47;">
			<g>
				<line style="fill:none;" x1="281.039" y1="33.358" x2="254.942" y2="8.831"/>
				<path style="fill:#CCE8F3;" d="M281.394,33.058c-8.698-8.176-17.397-16.352-26.097-24.528c-0.432-0.406-1.146,0.19-0.709,0.602
					c8.698,8.176,17.397,16.352,26.097,24.528C281.116,34.065,281.831,33.469,281.394,33.058L281.394,33.058z"/>
			</g>
		</g>
		<g style="opacity:0.47;">
			<g>
				<line style="fill:none;" x1="265.593" y1="62.769" x2="244.299" y2="47.385"/>
				<path style="fill:#CCE8F3;" d="M265.859,62.388c-7.098-5.128-14.195-10.256-21.294-15.383c-0.486-0.352-1.02,0.411-0.533,0.762
					c7.098,5.128,14.195,10.256,21.294,15.383C265.812,63.501,266.346,62.739,265.859,62.388L265.859,62.388z"/>
			</g>
		</g>
		<g style="opacity:0.47;">
			<g>
				<line style="fill:none;" x1="257.738" y1="62.769" x2="236.442" y2="48.417"/>
				<path style="fill:#CCE8F3;" d="M258.005,62.388c-7.099-4.784-14.197-9.568-21.296-14.352c-0.497-0.335-1.031,0.426-0.533,0.762
					c7.099,4.784,14.197,9.568,21.296,14.352C257.969,63.485,258.503,62.723,258.005,62.388L258.005,62.388z"/>
			</g>
		</g>
		<g style="opacity:0.47;">
			<g>
				<line style="fill:none;" x1="249.468" y1="62.769" x2="233.342" y2="52.738"/>
				<path style="fill:#CCE8F3;" d="M249.734,62.388c-5.375-3.344-10.75-6.687-16.126-10.03c-0.508-0.316-1.044,0.444-0.533,0.762
					c5.375,3.344,10.75,6.687,16.126,10.03C249.709,63.465,250.245,62.705,249.734,62.388L249.734,62.388z"/>
			</g>
		</g>
		<g style="opacity:0.47;">
			<g>
				<line style="fill:none;" x1="235.823" y1="62.769" x2="224.451" y2="52.346"/>
				<path style="fill:#CCE8F3;" d="M236.178,62.468c-3.79-3.475-7.581-6.949-11.372-10.423c-0.436-0.399-1.151,0.196-0.709,0.602
					c3.79,3.475,7.581,6.949,11.372,10.423C235.904,63.469,236.62,62.873,236.178,62.468L236.178,62.468z"/>
			</g>
		</g>
		<g style="opacity:0.47;">
			<g>
				<line style="fill:none;" x1="284.066" y1="25.874" x2="270.97" y2="14.512"/>
				<path style="fill:#CCE8F3;" d="M284.333,25.493c-4.365-3.787-8.73-7.574-13.097-11.361c-0.453-0.394-0.982,0.373-0.533,0.762
					c4.365,3.787,8.73,7.574,13.097,11.361C284.253,26.648,284.782,25.882,284.333,25.493L284.333,25.493z"/>
			</g>
		</g>
		<g style="opacity:0.47;">
			<g>
				<line style="fill:none;" x1="288.592" y1="20.799" x2="276.757" y2="11.615"/>
				<path style="fill:#CCE8F3;" d="M288.858,20.418c-3.944-3.062-7.89-6.123-11.835-9.184c-0.475-0.369-1.006,0.395-0.533,0.762
					c3.944,3.062,7.89,6.123,11.835,9.184C288.8,21.549,289.331,20.785,288.858,20.418L288.858,20.418z"/>
			</g>
		</g>
		<g style="opacity:0.47;">
			<g>
				<line style="fill:none;" x1="294.112" y1="17.584" x2="281.72" y2="6.656"/>
				<path style="fill:#CCE8F3;" d="M294.379,17.204c-4.131-3.643-8.262-7.286-12.393-10.928c-0.45-0.397-0.979,0.369-0.533,0.762
					c4.131,3.643,8.262,7.286,12.393,10.928C294.296,18.362,294.824,17.596,294.379,17.204L294.379,17.204z"/>
			</g>
		</g>
	</g>
	
		<line style="fill:none;stroke:#CCE8F3;stroke-width:0.9285;stroke-linejoin:round;" x1="28.737" y1="62.769" x2="12.681" y2="62.769"/>
	
		<line style="fill:none;stroke:#CCE8F3;stroke-width:0.9178;stroke-linecap:round;stroke-linejoin:round;" x1="365.319" y1="62.677" x2="329.375" y2="62.769"/>
	<line style="fill:none;stroke:#F29400;stroke-width:0.9286;stroke-linecap:round;" x1="12.681" y1="70" x2="365.319" y2="69.908"/>
	<g>
		<g style="opacity:0.47;">
			<g>
				<line style="fill:none;" x1="24.548" y1="62.769" x2="12.999" y2="55.042"/>
				<path style="fill:#CCE8F3;" d="M24.815,62.388c-3.85-2.576-7.699-5.151-11.549-7.726c-0.498-0.333-1.033,0.428-0.533,0.762
					c3.85,2.576,7.699,5.151,11.549,7.726C24.78,63.483,25.314,62.722,24.815,62.388L24.815,62.388z"/>
			</g>
		</g>
		<g style="opacity:0.47;">
			<g>
				<line style="fill:none;" x1="28.737" y1="60.615" x2="13.093" y2="48.365"/>
				<path style="fill:#CCE8F3;" d="M29.003,60.234c-5.214-4.083-10.429-8.167-15.644-12.25c-0.473-0.371-1.004,0.393-0.533,0.762
					c5.214,4.083,10.429,8.167,15.644,12.25C28.943,61.367,29.475,60.603,29.003,60.234L29.003,60.234z"/>
			</g>
		</g>
		<g style="opacity:0.47;">
			<g>
				<line style="fill:none;" x1="28.737" y1="53.651" x2="13.022" y2="41.484"/>
				<path style="fill:#CCE8F3;" d="M29.003,53.27c-5.238-4.056-10.476-8.111-15.714-12.167c-0.475-0.368-1.006,0.396-0.533,0.762
					c5.238,4.056,10.476,8.111,15.714,12.167C28.945,54.4,29.477,53.636,29.003,53.27L29.003,53.27z"/>
			</g>
		</g>
		<g style="opacity:0.47;">
			<g>
				<line style="fill:none;" x1="28.737" y1="45.962" x2="12.952" y2="33.032"/>
				<path style="fill:#CCE8F3;" d="M29.003,45.581c-5.261-4.31-10.523-8.62-15.785-12.93c-0.465-0.381-0.995,0.384-0.533,0.762
					c5.261,4.31,10.523,8.62,15.785,12.93C28.935,46.724,29.465,45.959,29.003,45.581L29.003,45.581z"/>
			</g>
		</g>
		<g style="opacity:0.47;">
			<g>
				<line style="fill:none;" x1="29.415" y1="39.602" x2="13.073" y2="25.24"/>
				<path style="fill:#CCE8F3;" d="M29.682,39.221c-5.447-4.788-10.895-9.575-16.342-14.362c-0.451-0.396-0.979,0.37-0.533,0.762
					c5.447,4.788,10.895,9.575,16.342,14.362C29.599,40.378,30.128,39.612,29.682,39.221L29.682,39.221z"/>
			</g>
		</g>
		<g style="opacity:0.47;">
			<g>
				<line style="fill:none;" x1="31.147" y1="33.358" x2="13.276" y2="16.582"/>
				<path style="fill:#CCE8F3;" d="M31.502,33.057c-5.958-5.592-11.915-11.184-17.872-16.776c-0.432-0.406-1.147,0.191-0.71,0.602
					c5.958,5.592,11.915,11.184,17.872,16.776C31.225,34.064,31.94,33.468,31.502,33.057L31.502,33.057z"/>
			</g>
		</g>
		<g style="opacity:0.47;">
			<g>
				<line style="fill:none;" x1="15.701" y1="62.769" x2="13.089" y2="60.881"/>
				<path style="fill:#CCE8F3;" d="M15.967,62.388c-0.871-0.629-1.741-1.258-2.612-1.887c-0.487-0.352-1.02,0.411-0.533,0.762
					c0.871,0.629,1.741,1.258,2.612,1.887C15.921,63.501,16.454,62.739,15.967,62.388L15.967,62.388z"/>
			</g>
		</g>
		<g style="opacity:0.47;">
			<g>
				<line style="fill:none;" x1="34.174" y1="25.874" x2="21.078" y2="14.512"/>
				<path style="fill:#CCE8F3;" d="M34.441,25.493c-4.365-3.788-8.73-7.575-13.096-11.362c-0.453-0.394-0.982,0.373-0.533,0.762
					c4.365,3.788,8.73,7.575,13.096,11.362C34.361,26.648,34.89,25.882,34.441,25.493L34.441,25.493z"/>
			</g>
		</g>
		<g style="opacity:0.47;">
			<g>
				<line style="fill:none;" x1="38.7" y1="20.799" x2="26.865" y2="11.615"/>
				<path style="fill:#CCE8F3;" d="M38.966,20.418c-3.945-3.062-7.89-6.123-11.834-9.184c-0.475-0.369-1.006,0.395-0.533,0.762
					c3.945,3.062,7.89,6.123,11.834,9.184C38.908,21.548,39.439,20.785,38.966,20.418L38.966,20.418z"/>
			</g>
		</g>
		<g style="opacity:0.47;">
			<g>
				<line style="fill:none;" x1="44.22" y1="17.584" x2="31.828" y2="6.656"/>
				<path style="fill:#CCE8F3;" d="M44.487,17.203c-4.13-3.643-8.261-7.285-12.392-10.928c-0.45-0.397-0.979,0.369-0.533,0.762
					c4.13,3.643,8.261,7.285,12.392,10.928C44.403,18.362,44.932,17.596,44.487,17.203L44.487,17.203z"/>
			</g>
		</g>
	</g>
</g>
<g id="caissier">
	<path style="fill:none;stroke:#7E7A64;stroke-width:1.119;" d="M179.057,54.073c0-5.157-0.236-10.673-0.236-15.504"/>
	<path style="fill:none;stroke:#7E7A64;stroke-width:1.119;" d="M185.87,29.055c0,5.258-3.208,9.514-7.165,9.514
		c-3.958,0-7.168-4.256-7.168-9.514c0-5.256,3.211-9.515,7.168-9.515C182.662,19.54,185.87,23.799,185.87,29.055z"/>
	<g>
		<g>
			<path style="fill:#5CADDC;stroke:#007ABD;stroke-width:0.2326;stroke-linecap:round;stroke-linejoin:round;" d="M171.339,25.512
				c-0.144,0.837-1.354,3.995,10.605,2.951c4.198-0.368,4.792-3.058,3.821-3.437"/>
			<path style="fill:#5CADDC;stroke:#007ABD;stroke-width:0.2326;stroke-linecap:round;stroke-linejoin:round;" d="M171.339,25.673
				c0-0.919,0.26-2.661,0.417-3.563c0.214-1.222,0.473-2.02,0.735-3.049c0.759-0.019,11.131-0.497,11.393-0.015
				c0.481,0.89,0.777,2.029,1.114,2.99c0.286,0.813,0.88,2.72,0.978,3.197C185.101,25.433,172.031,25.411,171.339,25.673"/>
		</g>
		<path style="fill:#5CADDC;stroke:#007ABD;stroke-width:0.2326;stroke-linecap:round;stroke-linejoin:round;" d="M179.575,40.319
			c-1.041-0.187-2.097-0.798-2.962-0.634c0.225,1.133,0.163,2.439,0.238,3.682c0.641-0.263,1.333-1.484,2.004-1.67
			c0.944-0.267,1.967,0.71,3.071,0.727c0.149-1.188-0.251-2.271-0.24-3.458C180.951,39.427,180.173,39.723,179.575,40.319
			c0.125-0.243,0.045-0.401-0.994-0.419c-0.498,0.352-0.613,1.581,0.274,1.797"/>
	</g>
</g>
<g id="voyageur">
	<g>
		<path style="fill:none;stroke:#7E7A65;stroke-width:1.0764;stroke-linecap:round;stroke-linejoin:round;" d="M189.948,79.505
			c0,0.95,0.775,1.718,1.721,1.718s1.719-0.768,1.719-1.718s-0.773-1.715-1.719-1.715S189.948,78.555,189.948,79.505z"/>
		<path style="fill:#FFFFFF;stroke:#7F7B65;stroke-width:1.6145;stroke-linecap:round;stroke-linejoin:round;" d="M183.667,27.504
			c0,5.321,3.291,9.632,7.355,9.632c4.057,0,7.353-4.312,7.353-9.632c0-5.319-3.296-9.631-7.353-9.631
			C186.958,17.873,183.667,22.185,183.667,27.504z"/>
		<path style="fill:none;stroke:#7E7A65;stroke-width:1.6145;stroke-linecap:round;stroke-linejoin:round;" d="M190.838,37.52
			c0.032,6.724-0.908,26.603,0.382,33.057c1.154,5.763,1.667,4.018,0.512,12.087c-1.441,10.109,1.805,19.974,2.155,25.092
			c1.788,26.522,1.95,25.856-4.206,25.088"/>
	</g>
</g>
</svg>
