<?xml version="1.0" encoding="utf-8"?>
<!-- Generator: Adobe Illustrator 16.0.0, SVG Export Plug-In . SVG Version: 6.00 Build 0)  -->
<!DOCTYPE svg PUBLIC "-//W3C//DTD SVG 1.1//EN" "http://www.w3.org/Graphics/SVG/1.1/DTD/svg11.dtd">
<svg version="1.1" id="Calque_1" xmlns="http://www.w3.org/2000/svg" xmlns:xlink="http://www.w3.org/1999/xlink" x="0px" y="0px"
	 width="378px" height="140px" viewBox="0 0 378 140" enable-background="new 0 0 378 140" xml:space="preserve">
<g id="Layer_4" display="none">
	<rect x="6.057" y="8" display="inline" fill="none" stroke="#383838" width="59.223" height="56"/>
	<rect x="67.39" y="8" display="inline" fill="none" stroke="#383838" width="59.224" height="56"/>
	<rect x="128.723" y="8" display="inline" fill="none" stroke="#383838" width="59.223" height="56"/>
	<rect x="190.055" y="8" display="inline" fill="none" stroke="#383838" width="59.223" height="56"/>
	<rect x="251.387" y="8" display="inline" fill="none" stroke="#383838" width="59.226" height="56"/>
	<rect x="312.719" y="8" display="inline" fill="none" stroke="#383838" width="59.228" height="56"/>
	<rect x="6.057" y="76.001" display="inline" fill="none" stroke="#383838" width="59.223" height="56"/>
	<rect x="67.39" y="76.001" display="inline" fill="none" stroke="#383838" width="59.224" height="56"/>
	<rect x="128.723" y="76.001" display="inline" fill="none" stroke="#383838" width="59.223" height="56"/>
	<rect x="190.055" y="76.001" display="inline" fill="none" stroke="#383838" width="59.223" height="56"/>
	<rect x="251.387" y="76.001" display="inline" fill="none" stroke="#383838" width="59.226" height="56"/>
	<rect x="312.719" y="76.001" display="inline" fill="none" stroke="#383838" width="59.228" height="56"/>
</g>
<g id="Layer_2">
	<g>
		<rect fill="#FFFFFF" width="378" height="140"/>
		<rect fill="#FFFFFF" width="378" height="140"/>
	</g>
</g>
<g id="Layer_3">
	<text transform="matrix(1 0 0 1 71.7969 89.4883)" fill="#669900" font-family="'MyriadPro-Regular'" font-size="4.0688">01  02  03  04  05  06  07</text>
	<text transform="matrix(1 0 0 1 71.7969 89.4883)" fill="#669900" font-family="'MyriadPro-Regular'" font-size="4.0688">01  02  03  04  05  06  07</text>
	<text transform="matrix(1 0 0 1 71.7969 97.3711)" fill="#669900" font-family="'MyriadPro-Regular'" font-size="4.0688">08  09  10  11  12  13  14</text>
	<text transform="matrix(1 0 0 1 71.7969 97.3711)" fill="#669900" font-family="'MyriadPro-Regular'" font-size="4.0688">08  09  10  11  12  13  14</text>
	<text transform="matrix(1 0 0 1 71.7969 105.2539)" fill="#669900" font-family="'MyriadPro-Regular'" font-size="4.0688">15  16  17  18  19  20  21  </text>
	<text transform="matrix(1 0 0 1 71.7969 105.2539)" fill="#669900" font-family="'MyriadPro-Regular'" font-size="4.0688">15  16  17  18  19  20  21  </text>
	<text transform="matrix(1 0 0 1 71.7969 113.1348)" fill="#669900" font-family="'MyriadPro-Regular'" font-size="4.0688">22  23  24  25  26  27  28  </text>
	<text transform="matrix(1 0 0 1 71.7969 113.1348)" fill="#669900" font-family="'MyriadPro-Regular'" font-size="4.0688">22  23  24  25  26  27  28  </text>
	<text transform="matrix(1 0 0 1 71.7969 121.0186)" fill="#669900" font-family="'MyriadPro-Regular'" font-size="4.0688">29  30  31</text>
	<text transform="matrix(1 0 0 1 71.7969 121.0186)" fill="#669900" font-family="'MyriadPro-Regular'" font-size="4.0688">29  30  31</text>
	
		<text transform="matrix(1 0 0 1 10.4639 89.4883)" fill="#669900" font-family="'MyriadPro-Regular'" font-size="4.0688" letter-spacing="31"> </text>
	
		<text transform="matrix(1 0 0 1 10.4639 89.4883)" fill="#669900" font-family="'MyriadPro-Regular'" font-size="4.0688" letter-spacing="31"> </text>
	
		<text transform="matrix(1 0 0 1 10.4639 89.4883)" fill="#669900" font-family="'MyriadPro-Regular'" font-size="4.0688" letter-spacing="31"> </text>
	<text transform="matrix(1 0 0 1 45.856 89.4883)" fill="#669900" font-family="'MyriadPro-Regular'" font-size="4.0688">01  02  03</text>
	<text transform="matrix(1 0 0 1 45.856 89.4883)" fill="#669900" font-family="'MyriadPro-Regular'" font-size="4.0688">01  02  03</text>
	<text transform="matrix(1 0 0 1 10.4639 97.3711)" fill="#669900" font-family="'MyriadPro-Regular'" font-size="4.0688">04  05  06  07  08  09  10</text>
	<text transform="matrix(1 0 0 1 10.4639 97.3711)" fill="#669900" font-family="'MyriadPro-Regular'" font-size="4.0688">04  05  06  07  08  09  10</text>
	<text transform="matrix(1 0 0 1 10.4639 105.2539)" fill="#669900" font-family="'MyriadPro-Regular'" font-size="4.0688">11  12  13  14  15  16  17</text>
	<text transform="matrix(1 0 0 1 10.4639 105.2539)" fill="#669900" font-family="'MyriadPro-Regular'" font-size="4.0688">11  12  13  14  15  16  17</text>
	<text transform="matrix(1 0 0 1 10.4639 113.1348)" fill="#669900" font-family="'MyriadPro-Regular'" font-size="4.0688">18  19  20  21  22  23  24</text>
	<text transform="matrix(1 0 0 1 10.4639 113.1348)" fill="#669900" font-family="'MyriadPro-Regular'" font-size="4.0688">18  19  20  21  22  23  24</text>
	<text transform="matrix(1 0 0 1 10.4639 121.0186)" fill="#669900" font-family="'MyriadPro-Regular'" font-size="4.0688">25  26  27  28  29  30  31</text>
	<text transform="matrix(1 0 0 1 10.4639 121.0186)" fill="#669900" font-family="'MyriadPro-Regular'" font-size="4.0688">25  26  27  28  29  30  31</text>
	
		<text transform="matrix(1 0 0 1 133.1299 89.4883)" fill="#669900" font-family="'MyriadPro-Regular'" font-size="4.0688" letter-spacing="19"> </text>
	
		<text transform="matrix(1 0 0 1 133.1299 89.4883)" fill="#669900" font-family="'MyriadPro-Regular'" font-size="4.0688" letter-spacing="19"> </text>
	
		<text transform="matrix(1 0 0 1 133.1299 89.4883)" fill="#669900" font-family="'MyriadPro-Regular'" font-size="4.0688" letter-spacing="19"> </text>
	<text transform="matrix(1 0 0 1 156.3721 89.4883)" fill="#669900" font-family="'MyriadPro-Regular'" font-size="4.0688">01  02  03  04  </text>
	<text transform="matrix(1 0 0 1 156.3721 89.4883)" fill="#669900" font-family="'MyriadPro-Regular'" font-size="4.0688">01  02  03  04  </text>
	<text transform="matrix(1 0 0 1 133.1299 97.3711)" fill="#669900" font-family="'MyriadPro-Regular'" font-size="4.0688">05  06  07  08  09  10  11  </text>
	<text transform="matrix(1 0 0 1 133.1299 97.3711)" fill="#669900" font-family="'MyriadPro-Regular'" font-size="4.0688">05  06  07  08  09  10  11  </text>
	<text transform="matrix(1 0 0 1 133.1299 105.2539)" fill="#669900" font-family="'MyriadPro-Regular'" font-size="4.0688">12  13  14  15  16  17  18  </text>
	<text transform="matrix(1 0 0 1 133.1299 105.2539)" fill="#669900" font-family="'MyriadPro-Regular'" font-size="4.0688">12  13  14  15  16  17  18  </text>
	<text transform="matrix(1 0 0 1 133.1299 113.1348)" fill="#669900" font-family="'MyriadPro-Regular'" font-size="4.0688">19  20  21  22  23  24  25  </text>
	<text transform="matrix(1 0 0 1 133.1299 113.1348)" fill="#669900" font-family="'MyriadPro-Regular'" font-size="4.0688">19  20  21  22  23  24  25  </text>
	<text transform="matrix(1 0 0 1 133.1299 121.0186)" fill="#669900" font-family="'MyriadPro-Regular'" font-size="4.0688">26  27  28  29  30  </text>
	<text transform="matrix(1 0 0 1 133.1299 121.0186)" fill="#669900" font-family="'MyriadPro-Regular'" font-size="4.0688">26  27  28  29  30  </text>
	
		<text transform="matrix(1 0 0 1 194.4619 89.4883)" fill="#669900" font-family="'MyriadPro-Regular'" font-size="4.0688" letter-spacing="37"> </text>
	
		<text transform="matrix(1 0 0 1 194.4619 89.4883)" fill="#669900" font-family="'MyriadPro-Regular'" font-size="4.0688" letter-spacing="37"> </text>
	
		<text transform="matrix(1 0 0 1 194.4619 89.4883)" fill="#669900" font-family="'MyriadPro-Regular'" font-size="4.0688" letter-spacing="37"> </text>
	<text transform="matrix(1 0 0 1 235.7529 89.4883)" fill="#669900" font-family="'MyriadPro-Regular'" font-size="4.0688">01  02</text>
	<text transform="matrix(1 0 0 1 235.7529 89.4883)" fill="#669900" font-family="'MyriadPro-Regular'" font-size="4.0688">01  02</text>
	<text transform="matrix(1 0 0 1 194.4619 97.3711)" fill="#669900" font-family="'MyriadPro-Regular'" font-size="4.0688">03  04  05  06  07  08  09  </text>
	<text transform="matrix(1 0 0 1 194.4619 97.3711)" fill="#669900" font-family="'MyriadPro-Regular'" font-size="4.0688">03  04  05  06  07  08  09  </text>
	<text transform="matrix(1 0 0 1 194.4619 105.2539)" fill="#669900" font-family="'MyriadPro-Regular'" font-size="4.0688">10  11  12  13  14  15  16  </text>
	<text transform="matrix(1 0 0 1 194.4619 105.2539)" fill="#669900" font-family="'MyriadPro-Regular'" font-size="4.0688">10  11  12  13  14  15  16  </text>
	<text transform="matrix(1 0 0 1 194.4619 113.1348)" fill="#669900" font-family="'MyriadPro-Regular'" font-size="4.0688">17  18  19  20  21  22  23  </text>
	<text transform="matrix(1 0 0 1 194.4619 113.1348)" fill="#669900" font-family="'MyriadPro-Regular'" font-size="4.0688">17  18  19  20  21  22  23  </text>
	<text transform="matrix(1 0 0 1 194.4619 121.0186)" fill="#669900" font-family="'MyriadPro-Regular'" font-size="4.0688">24  25  26  27  28  29  30</text>
	<text transform="matrix(1 0 0 1 194.4619 121.0186)" fill="#669900" font-family="'MyriadPro-Regular'" font-size="4.0688">24  25  26  27  28  29  30</text>
	<text transform="matrix(1 0 0 1 194.4619 128.9004)" fill="#FFFFFF" font-family="'MyriadPro-Regular'" font-size="4.0688">31</text>
	<text transform="matrix(1 0 0 1 194.4619 128.9004)" fill="#669900" font-family="'MyriadPro-Regular'" font-size="4.0688">31</text>
	
		<text transform="matrix(1 0 0 1 255.7949 89.4883)" fill="#669900" font-family="'MyriadPro-Regular'" font-size="4.0688" letter-spacing="13"> </text>
	
		<text transform="matrix(1 0 0 1 255.7949 89.4883)" fill="#669900" font-family="'MyriadPro-Regular'" font-size="4.0688" letter-spacing="13"> </text>
	
		<text transform="matrix(1 0 0 1 255.7949 89.4883)" fill="#669900" font-family="'MyriadPro-Regular'" font-size="4.0688" letter-spacing="13"> </text>
	<text transform="matrix(1 0 0 1 273.6523 89.4883)" fill="#669900" font-family="'MyriadPro-Regular'" font-size="4.0688">01  02  03  04  05  06</text>
	<text transform="matrix(1 0 0 1 273.6523 89.4883)" fill="#669900" font-family="'MyriadPro-Regular'" font-size="4.0688">01  02  03  04  05  06</text>
	<text transform="matrix(1 0 0 1 255.7949 97.3711)" fill="#669900" font-family="'MyriadPro-Regular'" font-size="4.0688">07  08  09  10  11  12  13  </text>
	<text transform="matrix(1 0 0 1 255.7949 97.3711)" fill="#669900" font-family="'MyriadPro-Regular'" font-size="4.0688">07  08  09  10  11  12  13  </text>
	<text transform="matrix(1 0 0 1 255.7949 105.2539)" fill="#669900" font-family="'MyriadPro-Regular'" font-size="4.0688">14  15  16  17  18  19  20  </text>
	<text transform="matrix(1 0 0 1 255.7949 105.2539)" fill="#669900" font-family="'MyriadPro-Regular'" font-size="4.0688">14  15  16  17  18  19  20  </text>
	<text transform="matrix(1 0 0 1 255.7949 113.1348)" fill="#669900" font-family="'MyriadPro-Regular'" font-size="4.0688">21  22  23  24  25  26  27  </text>
	<text transform="matrix(1 0 0 1 255.7949 113.1348)" fill="#669900" font-family="'MyriadPro-Regular'" font-size="4.0688">21  22  23  24  25  26  27  </text>
	<text transform="matrix(1 0 0 1 255.7949 121.0186)" fill="#669900" font-family="'MyriadPro-Regular'" font-size="4.0688">28  29  30 </text>
	<text transform="matrix(1 0 0 1 255.7949 121.0186)" fill="#669900" font-family="'MyriadPro-Regular'" font-size="4.0688">28  29  30 </text>
	
		<text transform="matrix(1 0 0 1 317.127 89.4883)" fill="#669900" font-family="'MyriadPro-Regular'" font-size="4.0688" letter-spacing="19"> </text>
	
		<text transform="matrix(1 0 0 1 317.127 89.4883)" fill="#669900" font-family="'MyriadPro-Regular'" font-size="4.0688" letter-spacing="19"> </text>
	
		<text transform="matrix(1 0 0 1 317.127 89.4883)" fill="#669900" font-family="'MyriadPro-Regular'" font-size="4.0688" letter-spacing="19"> </text>
	<text transform="matrix(1 0 0 1 340.3691 89.4883)" fill="#669900" font-family="'MyriadPro-Regular'" font-size="4.0688">01  02  03  04  </text>
	<text transform="matrix(1 0 0 1 340.3691 89.4883)" fill="#669900" font-family="'MyriadPro-Regular'" font-size="4.0688">01  02  03  04  </text>
	<text transform="matrix(1 0 0 1 317.127 97.3711)" fill="#669900" font-family="'MyriadPro-Regular'" font-size="4.0688">05  06  07  08  09  10  11  </text>
	<text transform="matrix(1 0 0 1 317.127 97.3711)" fill="#669900" font-family="'MyriadPro-Regular'" font-size="4.0688">05  06  07  08  09  10  11  </text>
	<text transform="matrix(1 0 0 1 317.127 105.2539)" fill="#669900" font-family="'MyriadPro-Regular'" font-size="4.0688">12  13  14  15  16  17  18  </text>
	<text transform="matrix(1 0 0 1 317.127 105.2539)" fill="#669900" font-family="'MyriadPro-Regular'" font-size="4.0688">12  13  14  15  16  17  18  </text>
	<text transform="matrix(1 0 0 1 317.127 113.1348)" fill="#669900" font-family="'MyriadPro-Regular'" font-size="4.0688">19  20  21  22  23  24  25  </text>
	<text transform="matrix(1 0 0 1 317.127 113.1348)" fill="#669900" font-family="'MyriadPro-Regular'" font-size="4.0688">19  20  21  22  23  24  25  </text>
	<text transform="matrix(1 0 0 1 317.127 121.0186)" fill="#669900" font-family="'MyriadPro-Regular'" font-size="4.0688">26  27  28  29  30  31</text>
	<text transform="matrix(1 0 0 1 317.127 121.0186)" fill="#669900" font-family="'MyriadPro-Regular'" font-size="4.0688">26  27  28  29  30  31</text>
	<text transform="matrix(1 0 0 1 71.7969 21.4863)" fill="#669900" font-family="'MyriadPro-Regular'" font-size="4.0688">01  02  03  04  05  06  07</text>
	<text transform="matrix(1 0 0 1 71.7969 21.4863)" fill="#669900" font-family="'MyriadPro-Regular'" font-size="4.0688">01  02  03  04  05  06  07</text>
	<text transform="matrix(1 0 0 1 71.7969 29.3691)" fill="#669900" font-family="'MyriadPro-Regular'" font-size="4.0688">08  09  10  11  12  13  14</text>
	<text transform="matrix(1 0 0 1 71.7969 29.3691)" fill="#669900" font-family="'MyriadPro-Regular'" font-size="4.0688">08  09  10  11  12  13  14</text>
	<text transform="matrix(1 0 0 1 71.7969 37.252)" fill="#669900" font-family="'MyriadPro-Regular'" font-size="4.0688">15  </text>
	<text transform="matrix(1 0 0 1 71.7969 37.252)" fill="#669900" font-family="'MyriadPro-Regular'" font-size="4.0688">15  </text>
	<text transform="matrix(1 0 0 1 77.6958 37.252)" fill="#669900" font-family="'MyriadPro-Regular'" font-size="4.0688">16  17  </text>
	<text transform="matrix(1 0 0 1 77.6958 37.252)" fill="#669900" font-family="'MyriadPro-Regular'" font-size="4.0688">16  17  </text>
	<text transform="matrix(1 0 0 1 89.4961 37.252)" fill="#669900" font-family="'MyriadPro-Regular'" font-size="4.0688">18  19  20  21  </text>
	<text transform="matrix(1 0 0 1 89.4961 37.252)" fill="#669900" font-family="'MyriadPro-Regular'" font-size="4.0688">18  19  20  21  </text>
	<text transform="matrix(1 0 0 1 71.7969 45.1338)" fill="#669900" font-family="'MyriadPro-Regular'" font-size="4.0688">22  23  24  25  26  27  28  </text>
	<text transform="matrix(1 0 0 1 71.7969 45.1338)" fill="#669900" font-family="'MyriadPro-Regular'" font-size="4.0688">22  23  24  25  26  27  28  </text>
	<text transform="matrix(1 0 0 1 71.7969 53.0166)" fill="#669900" font-family="'MyriadPro-Regular'" font-size="4.0688">29</text>
	<text transform="matrix(1 0 0 1 71.7969 53.0166)" fill="#669900" font-family="'MyriadPro-Regular'" font-size="4.0688">29</text>
	
		<text transform="matrix(1 0 0 1 10.4639 21.4863)" fill="#93AC9A" font-family="'MyriadPro-Regular'" font-size="4.0688" letter-spacing="31"> </text>
	
		<text transform="matrix(1 0 0 1 10.4639 21.4863)" fill="#93AC9A" font-family="'MyriadPro-Regular'" font-size="4.0688" letter-spacing="31"> </text>
	
		<text transform="matrix(1 0 0 1 10.4639 21.4863)" fill="none" stroke="#65B724" stroke-width="0.1695" font-family="'MyriadPro-Regular'" font-size="4.0688" letter-spacing="31"> </text>
	<text transform="matrix(1 0 0 1 45.856 21.4863)" fill="#93AC9A" font-family="'MyriadPro-Regular'" font-size="4.0688">01  02  03</text>
	<text transform="matrix(1 0 0 1 45.856 21.4863)" fill="#669900" font-family="'MyriadPro-Regular'" font-size="4.0688">01  02  03</text>
	<text transform="matrix(1 0 0 1 10.4639 29.3691)" fill="#93AC9A" font-family="'MyriadPro-Regular'" font-size="4.0688">04  05  06  07  08  09  10</text>
	<text transform="matrix(1 0 0 1 10.4639 29.3691)" fill="#669900" font-family="'MyriadPro-Regular'" font-size="4.0688">04  05  06  07  08  09  10</text>
	<text transform="matrix(1 0 0 1 10.4639 37.252)" fill="#93AC9A" font-family="'MyriadPro-Regular'" font-size="4.0688">11  12  13  14  15  16  17</text>
	<text transform="matrix(1 0 0 1 10.4639 37.252)" fill="#669900" font-family="'MyriadPro-Regular'" font-size="4.0688">11  12  13  14  15  16  17</text>
	<text transform="matrix(1 0 0 1 10.4639 45.1338)" fill="#93AC9A" font-family="'MyriadPro-Regular'" font-size="4.0688">18  19  20  21  22  23  24</text>
	<text transform="matrix(1 0 0 1 10.4639 45.1338)" fill="#669900" font-family="'MyriadPro-Regular'" font-size="4.0688">18  19  20  21  22  23  24</text>
	<text transform="matrix(1 0 0 1 10.4639 53.0166)" fill="#93AC9A" font-family="'MyriadPro-Regular'" font-size="4.0688">25  26  27  28  29  30  31</text>
	<text transform="matrix(1 0 0 1 10.4639 53.0166)" fill="#669900" font-family="'MyriadPro-Regular'" font-size="4.0688">25  26  27  28  29  30  31</text>
	
		<text transform="matrix(1 0 0 1 133.1299 21.4863)" fill="#669900" font-family="'MyriadPro-Regular'" font-size="4.0688" letter-spacing="4"> </text>
	
		<text transform="matrix(1 0 0 1 133.1299 21.4863)" fill="#669900" font-family="'MyriadPro-Regular'" font-size="4.0688" letter-spacing="4"> </text>
	
		<text transform="matrix(1 0 0 1 133.1299 21.4863)" fill="#669900" font-family="'MyriadPro-Regular'" font-size="4.0688" letter-spacing="4"> </text>
	<text transform="matrix(1 0 0 1 140.8638 21.4863)" fill="#669900" font-family="'MyriadPro-Regular'" font-size="4.0688">01  02  03  04  05  06  </text>
	<text transform="matrix(1 0 0 1 140.8638 21.4863)" fill="#669900" font-family="'MyriadPro-Regular'" font-size="4.0688">01  02  03  04  05  06  </text>
	<text transform="matrix(1 0 0 1 133.1299 29.3691)" fill="#669900" font-family="'MyriadPro-Regular'" font-size="4.0688">07  08  09  10  11  12  13  </text>
	<text transform="matrix(1 0 0 1 133.1299 29.3691)" fill="#669900" font-family="'MyriadPro-Regular'" font-size="4.0688">07  08  09  10  11  12  13  </text>
	<text transform="matrix(1 0 0 1 133.1299 37.252)" fill="#669900" font-family="'MyriadPro-Regular'" font-size="4.0688">14  15  16  17  18  19  20  </text>
	<text transform="matrix(1 0 0 1 133.1299 37.252)" fill="#669900" font-family="'MyriadPro-Regular'" font-size="4.0688">14  15  16  17  18  19  20  </text>
	<text transform="matrix(1 0 0 1 133.1299 45.1338)" fill="#669900" font-family="'MyriadPro-Regular'" font-size="4.0688">21  22  23  24  25  26  27  </text>
	<text transform="matrix(1 0 0 1 133.1299 45.1338)" fill="#669900" font-family="'MyriadPro-Regular'" font-size="4.0688">21  22  23  24  25  26  27  </text>
	<text transform="matrix(1 0 0 1 133.1299 53.0166)" fill="#669900" font-family="'MyriadPro-Regular'" font-size="4.0688">28  29  30  31</text>
	<text transform="matrix(1 0 0 1 133.1299 53.0166)" fill="#669900" font-family="'MyriadPro-Regular'" font-size="4.0688">28  29  30  31</text>
	
		<text transform="matrix(1 0 0 1 194.4619 21.4863)" fill="#669900" font-family="'MyriadPro-Regular'" font-size="4.0688" letter-spacing="31"> </text>
	
		<text transform="matrix(1 0 0 1 194.4619 21.4863)" fill="#669900" font-family="'MyriadPro-Regular'" font-size="4.0688" letter-spacing="31"> </text>
	
		<text transform="matrix(1 0 0 1 194.4619 21.4863)" fill="#669900" font-family="'MyriadPro-Regular'" font-size="4.0688" letter-spacing="31"> </text>
	<text transform="matrix(1 0 0 1 229.8535 21.4863)" fill="#669900" font-family="'MyriadPro-Regular'" font-size="4.0688">01  02  03</text>
	<text transform="matrix(1 0 0 1 229.8535 21.4863)" fill="#669900" font-family="'MyriadPro-Regular'" font-size="4.0688">01  02  03</text>
	<text transform="matrix(1 0 0 1 194.4619 29.3691)" fill="#669900" font-family="'MyriadPro-Regular'" font-size="4.0688">04  05  06  07  08  09  10</text>
	<text transform="matrix(1 0 0 1 194.4619 29.3691)" fill="#669900" font-family="'MyriadPro-Regular'" font-size="4.0688">04  05  06  07  08  09  10</text>
	<text transform="matrix(1 0 0 1 194.4619 37.252)" fill="#669900" font-family="'MyriadPro-Regular'" font-size="4.0688">11  12  13  14  15  16  17</text>
	<text transform="matrix(1 0 0 1 194.4619 37.252)" fill="#669900" font-family="'MyriadPro-Regular'" font-size="4.0688">11  12  13  14  15  16  17</text>
	<text transform="matrix(1 0 0 1 194.4619 45.1338)" fill="#669900" font-family="'MyriadPro-Regular'" font-size="4.0688">18  19  20  21  22  23  24</text>
	<text transform="matrix(1 0 0 1 194.4619 45.1338)" fill="#669900" font-family="'MyriadPro-Regular'" font-size="4.0688">18  19  20  21  22  23  24</text>
	<text transform="matrix(1 0 0 1 194.4619 53.0166)" fill="#669900" font-family="'MyriadPro-Regular'" font-size="4.0688">25  26  27  28  29  30</text>
	<text transform="matrix(1 0 0 1 194.4619 53.0166)" fill="#669900" font-family="'MyriadPro-Regular'" font-size="4.0688">25  26  27  28  29  30</text>
	
		<text transform="matrix(1 0 0 1 255.7949 21.4863)" fill="#669900" font-family="'MyriadPro-Regular'" font-size="4.0688" letter-spacing="42"> </text>
	
		<text transform="matrix(1 0 0 1 255.7949 21.4863)" fill="#669900" font-family="'MyriadPro-Regular'" font-size="4.0688" letter-spacing="42"> </text>
	
		<text transform="matrix(1 0 0 1 255.7949 21.4863)" fill="#669900" font-family="'MyriadPro-Regular'" font-size="4.0688" letter-spacing="42"> </text>
	<text transform="matrix(1 0 0 1 302.3711 21.4863)" fill="#669900" font-family="'MyriadPro-Regular'" font-size="4.0688">01  </text>
	<text transform="matrix(1 0 0 1 302.3711 21.4863)" fill="#669900" font-family="'MyriadPro-Regular'" font-size="4.0688">01  </text>
	<text transform="matrix(1 0 0 1 255.7949 29.3691)" fill="#669900" font-family="'MyriadPro-Regular'" font-size="4.0688">02  03  04  05  06  07  08  </text>
	<text transform="matrix(1 0 0 1 255.7949 29.3691)" fill="#669900" font-family="'MyriadPro-Regular'" font-size="4.0688">02  03  04  05  06  07  08  </text>
	<text transform="matrix(1 0 0 1 255.7949 37.252)" fill="#669900" font-family="'MyriadPro-Regular'" font-size="4.0688">09  10  11  12  13  14  15  </text>
	<text transform="matrix(1 0 0 1 255.7949 37.252)" fill="#669900" font-family="'MyriadPro-Regular'" font-size="4.0688">09  10  11  12  13  14  15  </text>
	<text transform="matrix(1 0 0 1 255.7949 45.1338)" fill="#669900" font-family="'MyriadPro-Regular'" font-size="4.0688">16  17  18  19  20  21  22  </text>
	<text transform="matrix(1 0 0 1 255.7949 45.1338)" fill="#669900" font-family="'MyriadPro-Regular'" font-size="4.0688">16  17  18  19  20  21  22  </text>
	<text transform="matrix(1 0 0 1 255.7949 53.0166)" fill="#669900" font-family="'MyriadPro-Regular'" font-size="4.0688">23  24  25  26  27  28  29  </text>
	<text transform="matrix(1 0 0 1 255.7949 53.0166)" fill="#669900" font-family="'MyriadPro-Regular'" font-size="4.0688">23  24  25  26  27  28  29  </text>
	<text transform="matrix(1 0 0 1 255.7949 60.8994)" fill="#669900" font-family="'MyriadPro-Regular'" font-size="4.0688">30  31</text>
	<text transform="matrix(1 0 0 1 255.7949 60.8994)" fill="#669900" font-family="'MyriadPro-Regular'" font-size="4.0688">30  31</text>
	
		<text transform="matrix(1 0 0 1 317.127 21.4863)" fill="#669900" font-family="'MyriadPro-Regular'" font-size="4.0688" letter-spacing="13"> </text>
	
		<text transform="matrix(1 0 0 1 317.127 21.4863)" fill="#669900" font-family="'MyriadPro-Regular'" font-size="4.0688" letter-spacing="13"> </text>
	
		<text transform="matrix(1 0 0 1 317.127 21.4863)" fill="#669900" font-family="'MyriadPro-Regular'" font-size="4.0688" letter-spacing="13"> </text>
	<text transform="matrix(1 0 0 1 332.4805 21.4863)" fill="#669900" font-family="'MyriadPro-Regular'" font-size="4.0688">01  02  03  04  05  </text>
	<text transform="matrix(1 0 0 1 332.4805 21.4863)" fill="#669900" font-family="'MyriadPro-Regular'" font-size="4.0688">01  02  03  04  05  </text>
	<text transform="matrix(1 0 0 1 317.127 29.3691)" fill="#669900" font-family="'MyriadPro-Regular'" font-size="4.0688">06  07  08  09  10  11  12  </text>
	<text transform="matrix(1 0 0 1 317.127 29.3691)" fill="#669900" font-family="'MyriadPro-Regular'" font-size="4.0688">06  07  08  09  10  11  12  </text>
	<text transform="matrix(1 0 0 1 317.127 37.252)" fill="#669900" font-family="'MyriadPro-Regular'" font-size="4.0688">13  14  15  16  17  18  19  </text>
	<text transform="matrix(1 0 0 1 317.127 37.252)" fill="#669900" font-family="'MyriadPro-Regular'" font-size="4.0688">13  14  15  16  17  18  19  </text>
	<text transform="matrix(1 0 0 1 317.127 45.1338)" fill="#669900" font-family="'MyriadPro-Regular'" font-size="4.0688">20  21  22  23  24  25  26  </text>
	<text transform="matrix(1 0 0 1 317.127 45.1338)" fill="#669900" font-family="'MyriadPro-Regular'" font-size="4.0688">20  21  22  23  24  25  26  </text>
	<text transform="matrix(1 0 0 1 317.127 53.0166)" fill="#669900" font-family="'MyriadPro-Regular'" font-size="4.0688">27  28  29  30 </text>
	<text transform="matrix(1 0 0 1 317.127 53.0166)" fill="#669900" font-family="'MyriadPro-Regular'" font-size="4.0688">27  28  29  30 </text>
	<g>
		<text transform="matrix(1 0 0 1 10.5967 14.7266)" fill="#93AC9A" font-family="'MyriadPro-Regular'" font-size="6">1</text>
		<text transform="matrix(1 0 0 1 10.5967 14.7266)" fill="#66CC33" font-family="'MyriadPro-Regular'" font-size="6">1</text>
		<text transform="matrix(1 0 0 1 10.5967 14.7266)" fill="#669900" font-family="'MyriadPro-Regular'" font-size="6">1</text>
	</g>
	<g>
		<text transform="matrix(1 0 0 1 71.7969 14.5918)" fill="#669900" font-family="'MyriadPro-Regular'" font-size="6">2</text>
		<text transform="matrix(1 0 0 1 71.7969 14.5918)" fill="#669900" font-family="'MyriadPro-Regular'" font-size="6">2</text>
	</g>
	<g>
		<text transform="matrix(1 0 0 1 133.1299 14.7266)" fill="#669900" font-family="'MyriadPro-Regular'" font-size="6">3</text>
		<text transform="matrix(1 0 0 1 133.1299 14.7266)" fill="#669900" font-family="'MyriadPro-Regular'" font-size="6">3</text>
		<text transform="matrix(1 0 0 1 133.1299 14.7266)" fill="#669900" font-family="'MyriadPro-Regular'" font-size="6">3</text>
	</g>
	<text transform="matrix(1 0 0 1 194.4619 14.7266)" fill="#669900" font-family="'MyriadPro-Regular'" font-size="6">4</text>
	<text transform="matrix(1 0 0 1 194.4619 14.7266)" fill="#669900" font-family="'MyriadPro-Regular'" font-size="6">4</text>
	<text transform="matrix(1 0 0 1 255.7949 14.7266)" fill="#669900" font-family="'MyriadPro-Regular'" font-size="6">5</text>
	<text transform="matrix(1 0 0 1 255.7949 14.7266)" fill="#669900" font-family="'MyriadPro-Regular'" font-size="6">5</text>
	<text transform="matrix(1 0 0 1 255.7949 14.7266)" fill="#669900" font-family="'MyriadPro-Regular'" font-size="6">5</text>
	<text transform="matrix(1 0 0 1 316.9932 14.7266)" fill="#669900" font-family="'MyriadPro-Regular'" font-size="6">6</text>
	<text transform="matrix(1 0 0 1 316.9932 14.7266)" fill="#669900" font-family="'MyriadPro-Regular'" font-size="6">6</text>
	<text transform="matrix(1 0 0 1 316.9932 14.7266)" fill="#669900" font-family="'MyriadPro-Regular'" font-size="6">6</text>
	<text transform="matrix(1 0 0 1 10.4639 83.1367)" fill="#669900" font-family="'MyriadPro-Regular'" font-size="6">7</text>
	<text transform="matrix(1 0 0 1 10.4639 83.1367)" fill="#669900" font-family="'MyriadPro-Regular'" font-size="6">7</text>
	<text transform="matrix(1 0 0 1 10.4639 83.1367)" fill="#669900" font-family="'MyriadPro-Regular'" font-size="6">7</text>
	<text transform="matrix(1 0 0 1 71.7969 83.1367)" fill="#669900" font-family="'MyriadPro-Regular'" font-size="6">8</text>
	<text transform="matrix(1 0 0 1 71.7969 83.1367)" fill="#669900" font-family="'MyriadPro-Regular'" font-size="6">8</text>
	<text transform="matrix(1 0 0 1 71.7969 83.1367)" fill="#669900" font-family="'MyriadPro-Regular'" font-size="6">8</text>
	<text transform="matrix(1 0 0 1 133.1299 83.1367)" fill="#669900" font-family="'MyriadPro-Regular'" font-size="6">9</text>
	<text transform="matrix(1 0 0 1 133.1299 83.1367)" fill="#669900" font-family="'MyriadPro-Regular'" font-size="6">9</text>
	<text transform="matrix(1 0 0 1 133.1299 83.1367)" fill="#669900" font-family="'MyriadPro-Regular'" font-size="6">9</text>
	<text transform="matrix(1 0 0 1 194.4619 83.1367)" fill="#669900" font-family="'MyriadPro-Regular'" font-size="6">10</text>
	<text transform="matrix(1 0 0 1 194.4619 83.1367)" fill="#669900" font-family="'MyriadPro-Regular'" font-size="6">10</text>
	<text transform="matrix(1 0 0 1 194.4619 83.1367)" fill="#669900" font-family="'MyriadPro-Regular'" font-size="6">10</text>
	<text transform="matrix(1 0 0 1 255.7949 83.1367)" fill="#669900" font-family="'MyriadPro-Regular'" font-size="6">11</text>
	<text transform="matrix(1 0 0 1 255.7949 83.1367)" fill="#669900" font-family="'MyriadPro-Regular'" font-size="6">11</text>
	<text transform="matrix(1 0 0 1 255.7949 83.1367)" fill="#669900" font-family="'MyriadPro-Regular'" font-size="6">11</text>
	<text transform="matrix(1 0 0 1 316.9971 83.1367)" fill="#669900" font-family="'MyriadPro-Regular'" font-size="6">12</text>
	<text transform="matrix(1 0 0 1 316.9971 83.1367)" fill="#669900" font-family="'MyriadPro-Regular'" font-size="6">12</text>
	<text transform="matrix(1 0 0 1 316.9971 83.1367)" fill="#669900" font-family="'MyriadPro-Regular'" font-size="6">12</text>
	<path fill="none" stroke="#383838" d="M65.281,62c0,1.104-0.896,2-2,2H8.058c-1.104,0-2-0.896-2-2V10c0-1.104,0.896-2,2-2h55.223
		c1.104,0,2,0.896,2,2V62z"/>
</g>
</svg>
