<?xml version="1.0" encoding="iso-8859-1"?>
<!-- Generator: Adobe Illustrator 13.0.0, SVG Export Plug-In . SVG Version: 6.00 Build 14948)  -->
<!DOCTYPE svg PUBLIC "-//W3C//DTD SVG 1.1//EN" "http://www.w3.org/Graphics/SVG/1.1/DTD/svg11.dtd">
<svg version="1.1" xmlns="http://www.w3.org/2000/svg" xmlns:xlink="http://www.w3.org/1999/xlink" x="0px" y="0px" width="378px"
	 height="140px" viewBox="0 0 378 140" style="enable-background:new 0 0 378 140;" xml:space="preserve">
<g id="fond">
	<rect style="fill:#FFFFFF;" width="378" height="140"/>
</g>
<g id="Layer_2">
	<path style="fill:#FFFFFF;stroke:#777768;stroke-width:0.7059;stroke-linecap:round;stroke-linejoin:round;" d="M115.823,123.818
		c-9.736-23.794-0.028-51.195-62.233-64.284c45.229-3.461,104.954,1.223,133.849-15.896c4.775-2.009,9.7-3.877,14.755-5.635
		c20.221-7.031,42.553-12.266,68.903-17.807c-3.716,11.521,9.584,22.843,28.606,32.006c3.876,1.871,8.028,3.701,12.387,5.508
		c8.714,3.617,18.247,7.143,28.026,10.745c6.774,3.668,15.164,10.811,15.164,10.811s-52.298,3.215-73.751,2.7
		c-7.147-0.171-14.221-0.227-21.033,0.052c-5.558,0.245-10.712,0.822-15.564,1.64c-4.847,0.819-9.391,1.88-13.712,3.101
		c-33.976,11.139-63.756,23.551-97.668,33.748C122.485,122.584,115.823,123.818,115.823,123.818z"/>
	<g>
		<defs>
			<path id="SVGID_1_" d="M120.056,119.583c0.198-22.185,1.686-46.092-50.522-59.065c52.992,0.352,96.631,0.518,131.153-17.968
				c3.513-1.88,13.864-4.536,18.451-6.044c4.582-1.507,9.286-2.981,14.209-4.386c9.167-2.684,22.263-4.127,32.382-6.002
				c-4.792,12.704,18.628,22.15,35.872,30.344c4.37,1.838,8.839,3.665,13.224,5.515c8.772,3.696,17.229,7.484,23.969,11.65
				c1.9,1.618,0.702,4.792-4.294,4.732c-12.061,0.925-27.39,0.813-52.851,1.614c-5.973,0.188-11.963-0.046-17.802,0.181
				c-5.938,0.36-11.6,0.981-17.034,1.809c-5.43,0.824-10.634,1.855-15.624,3.024c-32.622,7.743-57.406,20.215-87.805,29.372
				C129.229,117.887,120.056,119.583,120.056,119.583z"/>
		</defs>
		<clipPath id="SVGID_2_">
			<use xlink:href="#SVGID_1_"  style="overflow:visible;"/>
		</clipPath>
		
			<path style="clip-path:url(#SVGID_2_);fill:#EAD4AD;stroke:#777768;stroke-width:0.7059;stroke-linecap:round;stroke-linejoin:round;" d="
			M147.641,52.167c24.325,17.917,52.948,40.186,37.512,61.119c-3.32,1.757-7.643,3.433-12.547,4.982
			c-9.81,3.097-21.958,5.684-33.032,7.429c-11.763,1.795-20.607,3.126-20.607,3.126s-2.12-1.767-5.337-4.853
			c-3.908-1.969-5.685-5.578-4.486-8.755c13.878-30.148-34.034-47.852-83.02-64.374c37.958,0.839,76.991,0.495,114.271,1.378
			C145.043,52.219,147.641,52.167,147.641,52.167z"/>
		
			<path style="clip-path:url(#SVGID_2_);fill:#11AAD3;stroke:#777768;stroke-width:0.7059;stroke-linecap:round;stroke-linejoin:round;" d="
			M168.235,104.248c9.39-12.563-19.027-22.065-11.262-34.335c0.124-1.994,13.093-1.443,18.214-3.377
			c2.355,10.396,39.569,23.192,7.559,32.349C175.139,101.651,168.235,104.248,168.235,104.248z"/>
		
			<path style="clip-path:url(#SVGID_2_);fill:#CC9933;stroke:#777768;stroke-width:0.7059;stroke-linecap:round;stroke-linejoin:round;" d="
			M121.548,56.045c25.101,2.977,23.407,14.125,32.905,22.213c23.586-9.296,41.896-21.114,43.143-34.26
			c-0.217-2.086-0.906-3.717-3.156-5.797"/>
		
			<path style="clip-path:url(#SVGID_2_);fill:#774D0B;stroke:#777768;stroke-width:0.7059;stroke-linecap:round;stroke-linejoin:round;" d="
			M277.865,71.952c-11.127,2.146-21.784,4.656-31.886,7.493c-5.056,1.419-9.965,2.917-14.707,4.488
			c-31.756,9.604-56.662,24.067-94.994,29.205c14.293-4.621,11.938-15.015-1.733-20.358c4.998,0.058,10.945,0.926,15.944,0.982
			c1.198-3.176,0.371-5.977-2.478-8.401c26.02,15.853,69.145-1.988,92.713-9.287c3.756-1.049,7.542-2.095,11.276-3.215
			c3.745-1.122,7.437-2.312,11.013-3.655"/>
		<path style="clip-path:url(#SVGID_2_);fill:#66CC66;" d="M273.506,66.954c-1.366,3.017,6.221,4.502,14.342,4.975
			c1.776-0.294-1.167-1.604-2.782-2.642C281.146,67.887,275.921,66.855,273.506,66.954z"/>
		
			<path style="clip-path:url(#SVGID_2_);fill:#66CC66;stroke:#777768;stroke-width:0.7059;stroke-linecap:round;stroke-linejoin:round;" d="
			M268.179,64.75c13.037,1.823,29.931,3.618,30.412,9.38"/>
		
			<path style="clip-path:url(#SVGID_2_);fill:#66CC66;stroke:#777768;stroke-width:0.7059;stroke-linecap:round;stroke-linejoin:round;" d="
			M269.938,66.628c-7.331-0.575-14.949-1.609-21.559-3.196c-6.897-1.309-13.795-2.987-15.571-6.595
			c7.971,0.492,18.918,1.417,25.561,4.063c7.088,2.484,13.446,5.534,20.938,7.188"/>
		
			<path style="clip-path:url(#SVGID_2_);fill:#66CC66;stroke:#777768;stroke-width:0.7059;stroke-linecap:round;stroke-linejoin:round;" d="
			M274.163,67.752c-5.868-2.292-13.263-4.089-21.319-5.022c-8.053-0.934-16.785-1.02-25.366,0.066
			c4.776,3.011,12.414,4.793,20.815,5.759c8.404,0.967,17.566,1.122,25.423,0.905"/>
		
			<path style="clip-path:url(#SVGID_2_);fill:#66CC66;stroke:#777768;stroke-width:0.7059;stroke-linecap:round;stroke-linejoin:round;" d="
			M288.95,69.589c6.157,1.469,16.032,3.577,17.806,7.187c-0.124,1.993-3.223,3.551-7.268,4.302
			c-16.07,1.011-6.526-7.654-16.758-10.591"/>
		
			<path style="clip-path:url(#SVGID_2_);fill:#66CC66;stroke:#777768;stroke-width:0.7059;stroke-linecap:round;stroke-linejoin:round;" d="
			M274.624,68.747c-5.232-0.143-14.074-1.487-15.991-0.294c0.373,3.141,4.812,5.657,11.098,6.926
			c6.293,1.27,14.585,1.247,22.073-0.491c2.209-1.285-2.503-2.303-4.257-3.349"/>
	</g>
	<polygon style="fill:#EAEA1C;stroke:#777768;stroke-width:0.7059;stroke-linecap:round;stroke-linejoin:round;" points="
		235.535,55.074 237.964,50.066 231.118,53.192 235.911,48.95 227.522,50.87 234.314,47.64 224.853,48.208 233.264,46.206 
		223.188,45.309 232.837,44.733 222.682,42.323 233.084,43.311 223.575,39.46 234.036,42.04 226.113,36.971 235.656,41.005 
		230.313,35.066 237.847,40.281 235.774,33.846 240.442,39.916 241.85,33.374 243.232,39.937 247.922,33.706 246.006,40.342 
		253.493,34.852 248.562,41.111 258.22,36.75 250.757,42.187 261.927,39.248 252.481,43.498 264.563,42.14 253.656,44.948 
		266.158,45.193 254.234,46.442 266.693,48.196 254.188,47.885 266.08,50.974 253.516,49.185 264.205,53.379 252.236,50.271 
		261.044,55.292 250.413,51.077 256.76,56.604 248.162,51.56 251.647,57.239 245.622,51.694 246.122,57.17 242.968,51.478 
		240.626,56.427 240.362,50.924 	"/>
	<path style="fill:none;stroke:#777768;stroke-width:0.7059;stroke-linecap:round;stroke-linejoin:round;" d="M120.198,119.804
		c-1.019-21.222,2.493-45.506-50.665-59.286c50.356-0.143,101.029-0.018,131.153-17.968c4.885-1.67,9.794-3.319,14.812-4.906
		c15.052-4.758,31.063-8.959,50.23-11.527c-3.594,9.528,7.805,19.233,24.346,27.018c4.232,2.03,8.794,4.014,13.51,5.979
		c14.146,5.892,29.641,11.606,41.982,18.18c-20.976,2.391-41.792,2.103-62.515,2.664c-6.875,0.188-13.684,0.463-20.337,0.949
		c-5.769,0.565-11.344,1.316-16.758,2.215c-5.411,0.901-10.656,1.951-15.744,3.112c-32.72,7.681-59.403,18.536-86.71,28.344
		C129.362,118.105,120.198,119.804,120.198,119.804z"/>
</g>
</svg>
