<?xml version="1.0" encoding="iso-8859-1"?>
<!-- Generator: Adobe Illustrator 13.0.0, SVG Export Plug-In . SVG Version: 6.00 Build 14948)  -->
<!DOCTYPE svg PUBLIC "-//W3C//DTD SVG 1.1//EN" "http://www.w3.org/Graphics/SVG/1.1/DTD/svg11.dtd">
<svg version="1.1" xmlns="http://www.w3.org/2000/svg" xmlns:xlink="http://www.w3.org/1999/xlink" x="0px" y="0px" width="540px"
	 height="200px" viewBox="0 0 540 200" style="enable-background:new 0 0 540 200;" xml:space="preserve">
<g id="Layer_2">
	<g>
		<rect style="fill:#FFFFFF;" width="540" height="200"/>
	</g>
</g>
<g id="Layer_1">
	<g>
		<g>
			<path style="fill:#FFFFFF;stroke:#92938B;stroke-width:1.7135;" d="M64.705,17.219c0,6.747,4.177,12.218,9.333,12.218
				c5.148,0,9.329-5.471,9.329-12.218C83.366,10.47,79.186,5,74.038,5C68.882,5,64.705,10.47,64.705,17.219z"/>
			<path style="fill:none;stroke:#92938B;stroke-width:1.7135;" d="M73.8,29.924c0.015,2.894,0.134,13.337,0.291,26.128"/>
			<path style="fill:#92938B;stroke:#92938B;stroke-width:1.7135;stroke-linecap:round;stroke-linejoin:round;" d="M74.175,33.3
				c1.147-0.446,2.352-1.5,3.534-1.545c-0.084,1.893-0.643,3.866-0.712,5.797c-1.465-0.568-1.985-2.787-3.163-3.712
				c-0.49-0.386-0.93-0.863-1.511-1.215c-0.658-0.401-1.208-0.954-1.955-1.163c-0.057,0.765,0.138,1.692-0.05,2.436
				c-0.194,0.759-1.476,1.834-1.117,2.67c0.466,1.099,4.143-2.14,4.632-2.983"/>
			<path style="fill:none;stroke:#92938B;stroke-width:1.7135;stroke-linecap:round;stroke-linejoin:round;" d="M65.67,56.054
				c0.399-1.49,0.796-2.836,1.119-3.561c1.618-3.625,4.292-11.68,7.091-14.361"/>
		</g>
	</g>
	<g>
		<g>
			
				<rect x="488.035" y="100.724" style="fill:#CE4E43;stroke:#FFFFFF;stroke-width:0.916;stroke-linecap:square;" width="4.48" height="64.386"/>
			<g>
				<path style="fill:#CE4E43;" d="M512.854,96.771h-57.997c-1.406,0-2.545,1.138-2.545,2.542c0,0,0-1.404,0,0
					s1.139,2.543,2.545,2.543h57.997"/>
				<path style="fill:none;stroke:#FFFFFF;stroke-width:1.374;" d="M512.854,96.771h-57.997c-1.406,0-2.545,1.138-2.545,2.542
					c0,0,0-1.404,0,0s1.139,2.543,2.545,2.543h57.997"/>
			</g>
		</g>
		<g>
			<rect x="220.973" y="92.911" style="fill:#78B432;stroke:#FFFFFF;stroke-width:1.374;" width="5.478" height="72.815"/>
			<path style="fill:#78B432;stroke:#FFFFFF;stroke-width:1.374;" d="M239.663,96.9h-31.911v-7.98c0,0,7.568-3.492,15.547-3.492
				s16.364,3.492,16.364,3.492V96.9z"/>
			<rect x="213.486" y="148.463" style="fill:#78B432;stroke:#FFFFFF;stroke-width:0.916;" width="20.448" height="1.869"/>
		</g>
		
			<line style="fill:none;stroke:#78B432;stroke-width:3.427;stroke-linecap:round;" x1="26.713" y1="56.052" x2="194.604" y2="56.052"/>
		
			<line style="fill:none;stroke:#78B432;stroke-width:3.427;stroke-linecap:square;" x1="194.604" y1="56.052" x2="194.604" y2="80.097"/>
		
			<line style="fill:none;stroke:#78B432;stroke-width:3.427;stroke-linecap:square;" x1="194.604" y1="80.097" x2="184.298" y2="80.097"/>
		
			<line style="fill:none;stroke:#78B432;stroke-width:3.427;stroke-linecap:square;" x1="184.298" y1="80.097" x2="184.298" y2="164.822"/>
		<line style="fill:none;stroke:#78B432;stroke-width:3.427;" x1="184.298" y1="164.822" x2="512.854" y2="164.822"/>
		<g>
			<g>
				
					<line style="fill:none;stroke:#78B432;stroke-width:4.2837;stroke-linecap:round;stroke-linejoin:round;" x1="430.011" y1="85.414" x2="430.011" y2="124.012"/>
				
					<line style="fill:none;stroke:#78B432;stroke-width:4.2837;stroke-linecap:round;stroke-linejoin:round;" x1="430.011" y1="124.012" x2="468.604" y2="124.012"/>
				
					<line style="fill:none;stroke:#78B432;stroke-width:4.2837;stroke-linecap:round;stroke-linejoin:round;" x1="468.604" y1="124.012" x2="429.97" y2="162.65"/>
				
					<line style="fill:none;stroke:#78B432;stroke-width:4.2837;stroke-linecap:round;stroke-linejoin:round;" x1="429.97" y1="162.65" x2="452.223" y2="162.65"/>
			</g>
		</g>
	</g>
</g>
<g id="Layer_3">
	<g>
		<g>
			<path style="fill:#FFFFFF;stroke:#92938B;stroke-width:2.5702;stroke-linecap:round;stroke-linejoin:round;" d="M204.68,32.003
				c0,8.039-4.971,14.55-11.109,14.55c-6.132,0-11.111-6.511-11.111-14.55c0-8.033,4.979-14.545,11.111-14.545
				C199.709,17.458,204.68,23.97,204.68,32.003z"/>
			<path style="fill:none;stroke:#92938B;stroke-width:2.5702;stroke-linecap:round;stroke-linejoin:round;" d="M193.904,66.297
				c0.166,10.258,0.145,21.247-0.868,26.282c-1.58,7.934-4.759,4.763-3.169,15.871c1.986,13.92,7.406,25.395,5.817,32.27
				c-8.661,37.547-8.991,38.621-0.533,37.563"/>
			<path style="fill:none;stroke:#92938B;stroke-width:2.5702;stroke-linecap:round;stroke-linejoin:round;" d="M193.571,47.085
				c-0.014,2.558,0.074,6.496,0.173,11.047"/>
			<path style="fill:#FFFFFF;stroke:#92938B;stroke-width:1.7135;stroke-linecap:round;stroke-linejoin:round;" d="M200.201,62.176
				c0,2.48-2.007,4.495-4.492,4.495s-4.504-2.015-4.504-4.495c0-2.484,2.019-4.498,4.504-4.498S200.201,59.692,200.201,62.176z"/>
		</g>
		<g>
			<path style="fill:#FFFFFF;stroke:#92938B;stroke-width:1.7135;stroke-linecap:round;stroke-linejoin:round;" d="M256.718,99.812
				c0,1.399,1.13,2.537,2.535,2.537c1.391,0,2.535-1.138,2.535-2.537c0-1.4-1.145-2.535-2.535-2.535
				C257.849,97.277,256.718,98.412,256.718,99.812z"/>
			<path style="fill:#FFFFFF;stroke:#92938B;stroke-width:1.7135;stroke-linecap:round;stroke-linejoin:round;" d="M247.436,23.061
				c0,7.852,4.869,14.216,10.854,14.216c5.99,0,10.863-6.364,10.863-14.216c0-7.851-4.873-14.215-10.863-14.215
				C252.305,8.846,247.436,15.21,247.436,23.061z"/>
			<path style="fill:none;stroke:#92938B;stroke-width:1.7135;stroke-linecap:round;stroke-linejoin:round;" d="M258.022,37.843
				c0.051,9.923-1.333,39.267,0.565,48.791c1.703,8.506,2.458,5.928,0.76,17.842c-2.13,14.92,2.66,29.48,3.171,37.029
				c2.643,39.149,2.882,38.171-6.197,37.031"/>
		</g>
	</g>
</g>
</svg>
