<?xml version="1.0" encoding="iso-8859-1"?>
<!-- Generator: Adobe Illustrator 13.0.0, SVG Export Plug-In . SVG Version: 6.00 Build 14948)  -->
<!DOCTYPE svg PUBLIC "-//W3C//DTD SVG 1.1//EN" "http://www.w3.org/Graphics/SVG/1.1/DTD/svg11.dtd">
<svg version="1.1" xmlns="http://www.w3.org/2000/svg" xmlns:xlink="http://www.w3.org/1999/xlink" x="0px" y="0px" width="378px"
	 height="140px" viewBox="0 0 378 140" style="enable-background:new 0 0 378 140;" xml:space="preserve">
<g id="fond">
	<g>
		<rect style="fill:none;" width="378" height="140"/>
		<rect style="fill:#FFFFFF;" width="378" height="140"/>
	</g>
</g>
<g id="Restaurant">
	<g>
		<g>
			
				<rect x="156.278" y="77.861" style="fill:#D5312C;stroke:#FFFFFF;stroke-width:0.6339;stroke-linecap:square;" width="3.693" height="52.223"/>
			<g>
				<path style="fill:#D5312C;" d="M126.834,76.719c0,1.139,0.938,2.061,2.096,2.061h58.382c1.158,0,2.097-0.922,2.097-2.061
					c0-1.141-0.939-2.062-2.097-2.062H128.93C127.772,74.656,126.834,75.578,126.834,76.719
					C126.834,76.719,126.834,75.578,126.834,76.719z"/>
				<path style="fill:none;stroke:#FFFFFF;stroke-width:0.9509;" d="M126.834,76.719c0,1.139,0.938,2.061,2.096,2.061h58.382
					c1.158,0,2.097-0.922,2.097-2.061c0-1.141-0.939-2.062-2.097-2.062H128.93C127.772,74.656,126.834,75.578,126.834,76.719
					C126.834,76.719,126.834,75.578,126.834,76.719z"/>
			</g>
		</g>
		<g>
			<g>
				
					<line style="fill:none;stroke:#65B724;stroke-width:2.9988;stroke-linecap:round;stroke-linejoin:round;" x1="108.452" y1="65.445" x2="108.452" y2="96.75"/>
				
					<line style="fill:none;stroke:#65B724;stroke-width:2.9988;stroke-linecap:round;stroke-linejoin:round;" x1="108.452" y1="96.75" x2="140.263" y2="96.75"/>
				
					<line style="fill:none;stroke:#65B724;stroke-width:2.9988;stroke-linecap:round;stroke-linejoin:round;" x1="140.263" y1="96.75" x2="108.419" y2="128.088"/>
				
					<line style="fill:none;stroke:#65B724;stroke-width:2.9988;stroke-linecap:round;stroke-linejoin:round;" x1="108.419" y1="128.088" x2="126.759" y2="128.088"/>
			</g>
			<g>
				
					<line style="fill:none;stroke:#65B724;stroke-width:2.9988;stroke-linecap:round;stroke-linejoin:round;" x1="215.404" y1="65.445" x2="215.404" y2="96.75"/>
				
					<line style="fill:none;stroke:#65B724;stroke-width:2.9988;stroke-linecap:round;stroke-linejoin:round;" x1="215.404" y1="96.75" x2="183.596" y2="96.75"/>
				
					<line style="fill:none;stroke:#65B724;stroke-width:2.9988;stroke-linecap:round;stroke-linejoin:round;" x1="183.596" y1="96.75" x2="215.439" y2="128.088"/>
				
					<line style="fill:none;stroke:#65B724;stroke-width:2.9988;stroke-linecap:round;stroke-linejoin:round;" x1="215.439" y1="128.088" x2="197.096" y2="128.088"/>
			</g>
		</g>
	</g>
</g>
<g id="WAITER">
	<ellipse style="fill:none;stroke:#777768;stroke-width:1.05;" cx="264.202" cy="18.714" rx="6.722" ry="8.8"/>
	<path style="fill:none;stroke:#777768;stroke-width:1.05;stroke-linecap:round;stroke-linejoin:round;" d="M264.039,27.866
		c0.047,9.281,0.793,62.622,0.836,64.175c0.635,23.236,1.672,22.197-2.635,22.197"/>
	<path style="fill:none;stroke:#777768;stroke-width:0.8343;" d="M262.846,69.368c0,0.87,0.701,1.569,1.572,1.569
		c0.861,0,1.564-0.699,1.564-1.569c0-0.865-0.703-1.568-1.564-1.568C263.547,67.799,262.846,68.503,262.846,69.368z"/>
	<path style="fill:#777768;stroke:#777768;stroke-width:1.2512;stroke-linecap:round;stroke-linejoin:round;" d="M264.309,30.296
		c0.82-0.32,1.689-1.078,2.547-1.113c-0.062,1.362-0.469,2.787-0.52,4.176c-1.057-0.407-1.426-2.008-2.275-2.672
		c-0.354-0.279-0.672-0.622-1.088-0.875c-0.475-0.29-0.871-0.687-1.41-0.838c-0.043,0.552,0.1,1.221-0.033,1.757
		c-0.148,0.545-1.066,1.318-0.801,1.919c0.33,0.792,2.979-1.539,3.328-2.147"/>
	<g>
		<path style="fill:none;stroke:#777768;stroke-width:0.4039;stroke-linecap:round;stroke-linejoin:round;" d="M259.025,43.651
			c-2.193-0.17-3.25-0.791-4.4,0.129c2.131,2.212,4.768,11.613,6.615,14.4"/>
		<path style="fill:#FFFFFF;stroke:#777768;stroke-width:0.4039;stroke-linecap:round;stroke-linejoin:round;" d="M276.152,43.705
			c-6.67-0.825-13.631-1.401-19.957-1.144c0.566,4.269,3.631,11.722,5.318,15.88c4.494,0.635,14.523,2.275,18.256,0.703
			C279.77,59.144,278.639,48.425,276.152,43.705"/>
	</g>
	<g>
		<path style="fill:none;stroke:#777768;stroke-width:1.05;stroke-linecap:round;stroke-linejoin:round;" d="M268.092,62.503
			c0.824-0.634-1.941-26.795-3.957-28.725"/>
		<path style="fill:#FFFFFF;stroke:#777768;stroke-width:0.8343;stroke-linecap:round;stroke-linejoin:round;" d="M263.184,72.111
			c-0.443-2.838-0.629-5.634-0.521-8.414c1.463-0.607,3.848-1.413,5.43-1.195c0.496,1.437,1.307,5.278,1.73,6.881
			C268.379,70.853,265.051,71.461,263.184,72.111"/>
	</g>
</g>
<g id="Layer_3">
	<g>
		<path style="fill:none;stroke:#A8CFD5;stroke-width:0.7386;stroke-linejoin:round;" d="M146.287,63.822
			c-0.637-0.209-0.703-0.271-1.56-0.153c-1.794,0.245-1.859,5.579-0.937,7.383c0.569,1.13,2.316,1.249,2.693,1.101"/>
		<g>
			<path style="fill:#FBCF3D;" d="M146.287,74.182c0,0.867,2.088,0.867,3.734,0.867c1.651,0,3.578-0.119,3.582-0.867
				c0.01-0.736,0-10.359,0-10.359s-0.779,0.558-3.645,0.558c-2.869,0-3.671-0.558-3.671-0.558S146.287,73.32,146.287,74.182z"/>
			<path style="fill:#F6F9D7;" d="M146.308,62.866c0,0.126-0.021,0.529-0.021,0.956c0,0.398,2.341,0.558,3.671,0.558
				c1.224,0,2.688-0.25,3.348-0.417c0.43-0.108,0.296-0.953,0.296-1.097c0-0.362-1.631-0.657-3.648-0.657
				C147.94,62.209,146.308,62.504,146.308,62.866z"/>
			<g>
				<path style="fill:none;stroke:#FFFFFF;stroke-width:0.131;" d="M152.825,65.998c0,0.067,0.065,0.125,0.14,0.125
					c0.073,0,0.134-0.057,0.134-0.125c0-0.066-0.061-0.12-0.134-0.12C152.89,65.878,152.825,65.932,152.825,65.998z"/>
				<path style="fill:none;stroke:#FFFFFF;stroke-width:0.131;" d="M152.498,70.054c0,0.069,0.062,0.126,0.133,0.126
					c0.077,0,0.134-0.058,0.134-0.126c0-0.065-0.057-0.121-0.134-0.121C152.561,69.933,152.498,69.989,152.498,70.054z"/>
				<path style="fill:none;stroke:#FFFFFF;stroke-width:0.131;" d="M150.065,70.935c0,0.072,0.062,0.127,0.132,0.127
					c0.075,0,0.137-0.055,0.137-0.127c0-0.066-0.062-0.121-0.137-0.121C150.128,70.813,150.065,70.868,150.065,70.935z"/>
				<path style="fill:none;stroke:#FFFFFF;stroke-width:0.131;" d="M151.247,69.836c0,0.069,0.06,0.125,0.14,0.125
					c0.074,0,0.135-0.056,0.135-0.125c0-0.068-0.062-0.123-0.135-0.123C151.307,69.713,151.247,69.768,151.247,69.836z"/>
				<path style="fill:none;stroke:#FFFFFF;stroke-width:0.131;" d="M149.246,69.301c0,0.065,0.062,0.12,0.135,0.12
					c0.075,0,0.136-0.055,0.136-0.12c0-0.071-0.062-0.123-0.136-0.123C149.307,69.178,149.246,69.229,149.246,69.301z"/>
				<path style="fill:none;stroke:#FFFFFF;stroke-width:0.131;" d="M152.694,67.662c0,0.065,0.059,0.121,0.13,0.121
					c0.08,0,0.14-0.056,0.14-0.121s-0.06-0.126-0.14-0.126C152.753,67.535,152.694,67.597,152.694,67.662z"/>
				<path style="fill:none;stroke:#FFFFFF;stroke-width:0.131;" d="M149.225,67.416c0,0.067,0.055,0.12,0.135,0.12
					c0.068,0,0.13-0.052,0.13-0.12c0-0.068-0.062-0.123-0.13-0.123C149.28,67.293,149.225,67.347,149.225,67.416z"/>
				<path style="fill:none;stroke:#FFFFFF;stroke-width:0.131;" d="M148.977,65.831c0,0.063,0.062,0.119,0.135,0.119
					c0.074,0,0.134-0.056,0.134-0.119c0-0.069-0.06-0.125-0.134-0.125C149.039,65.705,148.977,65.761,148.977,65.831z"/>
				<path style="fill:none;stroke:#FFFFFF;stroke-width:0.131;" d="M150.384,65.669c0,0.07,0.063,0.125,0.132,0.125
					c0.076,0,0.134-0.054,0.134-0.125c0-0.068-0.058-0.124-0.134-0.124C150.447,65.545,150.384,65.601,150.384,65.669z"/>
				<path style="fill:none;stroke:#FFFFFF;stroke-width:0.131;" d="M151.738,68.441c0,0.071,0.062,0.126,0.136,0.126
					c0.074,0,0.138-0.056,0.138-0.126c0-0.064-0.064-0.123-0.138-0.123C151.799,68.318,151.738,68.376,151.738,68.441z"/>
				<path style="fill:none;stroke:#FFFFFF;stroke-width:0.131;" d="M150.811,67.074c0,0.068,0.062,0.124,0.133,0.124
					c0.073,0,0.138-0.056,0.138-0.124c0-0.065-0.065-0.125-0.138-0.125C150.872,66.949,150.811,67.009,150.811,67.074z"/>
				<ellipse style="fill:none;stroke:#FFFFFF;stroke-width:0.131;" cx="149.994" cy="68.296" rx="0.134" ry="0.123"/>
				<path style="fill:none;stroke:#FFFFFF;stroke-width:0.131;" d="M151.999,65.12c0,0.067,0.061,0.121,0.14,0.121
					c0.07,0,0.134-0.054,0.134-0.121c0-0.068-0.063-0.121-0.134-0.121C152.06,64.999,151.999,65.052,151.999,65.12z"/>
			</g>
			<path style="fill:none;stroke:#FFFFFF;stroke-width:0.131;" d="M151.512,74.365c-0.073-0.014-0.138,0.035-0.154,0.107
				c-0.017,0.068,0.022,0.145,0.087,0.162c0.066,0.012,0.131-0.031,0.15-0.107C151.617,74.459,151.577,74.387,151.512,74.365z"/>
			<path style="fill:none;stroke:#FFFFFF;stroke-width:0.131;" d="M147.649,73.08c-0.065-0.02-0.133,0.027-0.147,0.094
				c-0.022,0.076,0.017,0.146,0.082,0.162c0.065,0.021,0.135-0.029,0.152-0.098C147.751,73.162,147.715,73.096,147.649,73.08z"/>
			<path style="fill:none;stroke:#FFFFFF;stroke-width:0.131;" d="M147.377,70.508c-0.063-0.021-0.132,0.025-0.152,0.099
				c-0.015,0.072,0.021,0.147,0.089,0.161c0.065,0.016,0.128-0.031,0.15-0.103C147.481,70.594,147.442,70.521,147.377,70.508z"/>
			<path style="fill:none;stroke:#FFFFFF;stroke-width:0.131;" d="M148.16,71.924c-0.066-0.02-0.131,0.023-0.148,0.1
				c-0.019,0.074,0.021,0.141,0.082,0.158c0.07,0.016,0.138-0.029,0.154-0.104C148.269,72.008,148.229,71.934,148.16,71.924z"/>
			<path style="fill:none;stroke:#FFFFFF;stroke-width:0.131;" d="M147.517,67.252c-0.067-0.019-0.133,0.028-0.152,0.099
				c-0.017,0.072,0.022,0.146,0.09,0.164c0.062,0.011,0.13-0.032,0.145-0.103C147.617,67.338,147.584,67.269,147.517,67.252z"/>
			<path style="fill:none;stroke:#FFFFFF;stroke-width:0.131;" d="M149.927,73.844c-0.065-0.016-0.131,0.027-0.147,0.096
				c-0.02,0.074,0.016,0.146,0.082,0.162c0.066,0.02,0.132-0.031,0.154-0.102C150.032,73.926,149.991,73.859,149.927,73.844z"/>
			<path style="fill:none;stroke:#FFFFFF;stroke-width:0.131;" d="M147.257,65.135c-0.059-0.015-0.131,0.029-0.146,0.103
				c-0.017,0.071,0.021,0.144,0.087,0.162c0.065,0.013,0.13-0.032,0.149-0.106C147.364,65.225,147.325,65.15,147.257,65.135z"/>
			<path style="fill:none;stroke:#FFFFFF;stroke-width:0.131;" d="M147.491,68.995c-0.07-0.014-0.135,0.031-0.149,0.104
				c-0.021,0.07,0.015,0.143,0.079,0.158c0.07,0.015,0.135-0.028,0.154-0.099C147.593,69.084,147.553,69.012,147.491,68.995z"/>
			<path style="fill:none;stroke:#FFFFFF;stroke-width:0.131;" d="M152.416,72.078c-0.067-0.018-0.13,0.027-0.152,0.1
				c-0.015,0.07,0.021,0.143,0.084,0.162c0.067,0.016,0.137-0.033,0.154-0.102C152.523,72.16,152.477,72.09,152.416,72.078z"/>
			<path style="fill:none;stroke:#FFFFFF;stroke-width:0.131;" d="M149.396,72.727c-0.062-0.016-0.131,0.033-0.153,0.104
				c-0.015,0.072,0.021,0.143,0.095,0.16c0.058,0.01,0.13-0.029,0.147-0.105C149.5,72.814,149.463,72.748,149.396,72.727z"/>
			<path style="fill:none;stroke:#FFFFFF;stroke-width:0.131;" d="M150.95,72.152c-0.067-0.014-0.132,0.033-0.151,0.104
				c-0.018,0.07,0.021,0.143,0.083,0.16c0.067,0.014,0.134-0.029,0.154-0.1C151.056,72.24,151.017,72.17,150.95,72.152z"/>
			<path style="fill:none;stroke:#FFFFFF;stroke-width:0.131;" d="M149.195,71.371c-0.06-0.014-0.13,0.029-0.146,0.102
				c-0.021,0.07,0.022,0.143,0.086,0.158c0.066,0.02,0.129-0.027,0.148-0.1C149.303,71.461,149.264,71.387,149.195,71.371z"/>
			<path style="fill:none;stroke:#FFFFFF;stroke-width:0.131;" d="M152.561,73.775c-0.062-0.02-0.13,0.029-0.148,0.105
				c-0.018,0.07,0.02,0.143,0.085,0.158c0.068,0.02,0.133-0.029,0.151-0.105C152.667,73.863,152.629,73.797,152.561,73.775z"/>
			<path style="fill:none;stroke:#A8CFD5;stroke-width:0.2964;stroke-linecap:round;stroke-linejoin:round;" d="M153.574,61.365
				c0.029,5.504,0.029,8.367,0.029,12.756c0,0.928-1.726,0.928-3.582,0.928c-1.806,0-3.734,0.033-3.734-0.867
				c0-3.587,0-9.241,0.031-12.817"/>
			<path style="fill:none;stroke:#A8CFD5;stroke-width:0.2964;stroke-linecap:round;stroke-linejoin:round;" d="M146.318,61.365
				c0,0.378,1.624,0.685,3.625,0.685c2.005,0,3.631-0.306,3.631-0.685c0-0.374-1.626-0.68-3.631-0.68
				C147.941,60.685,146.318,60.991,146.318,61.365z"/>
			<path style="fill:none;stroke:#A8CFD5;stroke-width:0.1976;stroke-linecap:round;stroke-linejoin:round;" d="M153.603,65.536
				c-0.988-0.46-0.631,3.82-0.665,4.463c-0.08,1.613,0.06,3.335,0.065,4.785"/>
			<path style="fill:none;stroke:#A8CFD5;stroke-width:0.1976;stroke-linecap:round;stroke-linejoin:round;" d="M152.277,74.912
				c0-1.188-0.132-2.312-0.132-3.521c0-1.407,0.271-2.752-0.056-4.122c-0.082-0.349-0.248-1.512-0.804-1.468
				c-0.376,0.032-0.614,1.031-0.676,1.332c-0.285,1.47-0.076,3.226,0,4.723c0.055,1.014,0.134,2.262,0.134,3.125"/>
			<path style="fill:none;stroke:#A8CFD5;stroke-width:0.1976;stroke-linecap:round;stroke-linejoin:round;" d="M149.947,74.98
				c0-1.607-0.154-3.148-0.067-4.785c0.07-1.332,0.312-3.021-0.347-4.179c-1.3-0.375-0.986,7.974-0.986,8.964"/>
			<path style="fill:none;stroke:#A8CFD5;stroke-width:0.1976;stroke-linecap:round;stroke-linejoin:round;" d="M146.752,74.783
				c0-1.332-0.032-6.117,0.067-7.317c0.049-0.6,0.761-3.041,1.201-1.394c0.303,1.137,0.105,2.259-0.004,3.39
				c-0.171,1.776-0.187,3.851-0.199,5.45"/>
		</g>
	</g>
	<g>
		<path style="fill:#FBCF3D;" d="M174.304,74.17c0,0.875,2.107,0.875,3.769,0.875c1.662,0,3.606-0.123,3.617-0.875
			c0.008-0.74,0-10.453,0-10.453s-0.789,0.562-3.681,0.562c-2.893,0-3.704-0.562-3.704-0.562S174.304,73.295,174.304,74.17z"/>
		<path style="fill:#F6F9D7;" d="M174.325,62.753c0,0.126-0.021,0.531-0.021,0.964c0,0.401,2.365,0.562,3.704,0.562
			c1.237,0,2.715-0.253,3.38-0.42c0.431-0.11,0.301-0.96,0.301-1.105c0-0.362-1.648-0.666-3.687-0.666
			C175.975,62.088,174.325,62.391,174.325,62.753z"/>
		<g>
			<path style="fill:none;stroke:#FFFFFF;stroke-width:0.1321;" d="M180.9,65.914c0,0.067,0.064,0.123,0.142,0.123
				c0.071,0,0.13-0.056,0.13-0.123c0-0.072-0.06-0.122-0.13-0.122C180.964,65.792,180.9,65.842,180.9,65.914z"/>
			<path style="fill:none;stroke:#FFFFFF;stroke-width:0.1321;" d="M180.567,70.009c0,0.063,0.063,0.125,0.137,0.125
				c0.08,0,0.138-0.061,0.138-0.125c0-0.071-0.058-0.126-0.138-0.126C180.63,69.882,180.567,69.938,180.567,70.009z"/>
			<path style="fill:none;stroke:#FFFFFF;stroke-width:0.1321;" d="M178.118,70.894c0,0.066,0.061,0.127,0.135,0.127
				c0.075,0,0.136-0.061,0.136-0.127c0-0.068-0.062-0.124-0.136-0.124C178.178,70.77,178.118,70.825,178.118,70.894z"/>
			<path style="fill:none;stroke:#FFFFFF;stroke-width:0.1321;" d="M179.309,69.785c0,0.069,0.061,0.124,0.142,0.124
				c0.076,0,0.138-0.055,0.138-0.124c0-0.072-0.062-0.126-0.138-0.126C179.37,69.659,179.309,69.713,179.309,69.785z"/>
			<path style="fill:none;stroke:#FFFFFF;stroke-width:0.1321;" d="M177.29,69.244c0,0.062,0.06,0.122,0.136,0.122
				c0.074,0,0.137-0.059,0.137-0.122c0-0.074-0.063-0.126-0.137-0.126C177.35,69.118,177.29,69.17,177.29,69.244z"/>
			<path style="fill:none;stroke:#FFFFFF;stroke-width:0.1321;" d="M180.772,67.588c0,0.07,0.058,0.124,0.128,0.124
				c0.08,0,0.142-0.054,0.142-0.124c0-0.066-0.062-0.125-0.142-0.125C180.83,67.463,180.772,67.522,180.772,67.588z"/>
			<ellipse style="fill:none;stroke:#FFFFFF;stroke-width:0.1321;" cx="177.402" cy="67.344" rx="0.136" ry="0.12"/>
			<path style="fill:none;stroke:#FFFFFF;stroke-width:0.1321;" d="M177.021,65.739c0,0.067,0.059,0.124,0.132,0.124
				c0.077,0,0.136-0.057,0.136-0.124c0-0.066-0.059-0.122-0.136-0.122C177.08,65.617,177.021,65.673,177.021,65.739z"/>
			<path style="fill:none;stroke:#FFFFFF;stroke-width:0.1321;" d="M178.438,65.579c0,0.071,0.063,0.124,0.136,0.124
				c0.074,0,0.137-0.053,0.137-0.124c0-0.067-0.063-0.124-0.137-0.124C178.501,65.456,178.438,65.512,178.438,65.579z"/>
			<ellipse style="fill:none;stroke:#FFFFFF;stroke-width:0.1321;" cx="179.943" cy="68.375" rx="0.137" ry="0.125"/>
			<ellipse style="fill:none;stroke:#FFFFFF;stroke-width:0.1321;" cx="179.005" cy="66.997" rx="0.134" ry="0.123"/>
			<path style="fill:none;stroke:#FFFFFF;stroke-width:0.1321;" d="M177.909,68.229c0,0.071,0.057,0.124,0.13,0.124
				c0.079,0,0.139-0.053,0.139-0.124c0-0.064-0.061-0.12-0.139-0.12C177.966,68.109,177.909,68.165,177.909,68.229z"/>
			<path style="fill:none;stroke:#FFFFFF;stroke-width:0.1321;" d="M180.068,65.025c0,0.068,0.065,0.121,0.137,0.121
				c0.077,0,0.135-0.052,0.135-0.121c0-0.067-0.058-0.125-0.135-0.125C180.133,64.9,180.068,64.958,180.068,65.025z"/>
		</g>
		<path style="fill:none;stroke:#FFFFFF;stroke-width:0.1321;" d="M179.572,74.357c-0.067-0.016-0.136,0.031-0.157,0.104
			c-0.011,0.072,0.029,0.146,0.09,0.162c0.07,0.016,0.138-0.037,0.155-0.104C179.677,74.449,179.64,74.377,179.572,74.357z"/>
		<path style="fill:none;stroke:#FFFFFF;stroke-width:0.1321;" d="M175.684,73.059c-0.067-0.023-0.141,0.023-0.158,0.096
			c-0.018,0.072,0.02,0.152,0.09,0.162c0.067,0.012,0.13-0.031,0.147-0.1C175.783,73.139,175.747,73.068,175.684,73.059z"/>
		<path style="fill:none;stroke:#FFFFFF;stroke-width:0.1321;" d="M175.403,70.458c-0.065-0.013-0.135,0.029-0.146,0.105
			c-0.019,0.069,0.015,0.146,0.086,0.158c0.063,0.018,0.131-0.027,0.151-0.102C175.509,70.55,175.467,70.476,175.403,70.458z"/>
		<path style="fill:none;stroke:#FFFFFF;stroke-width:0.1321;" d="M176.197,71.887c-0.07-0.02-0.133,0.029-0.154,0.102
			c-0.016,0.074,0.024,0.145,0.087,0.166c0.067,0.008,0.138-0.035,0.154-0.107C176.303,71.973,176.263,71.902,176.197,71.887z"/>
		<path style="fill:none;stroke:#FFFFFF;stroke-width:0.1321;" d="M175.543,67.175c-0.066-0.019-0.131,0.033-0.148,0.103
			c-0.022,0.073,0.021,0.144,0.088,0.165c0.061,0.018,0.134-0.032,0.15-0.104C175.645,67.261,175.61,67.192,175.543,67.175z"/>
		<path style="fill:none;stroke:#FFFFFF;stroke-width:0.1321;" d="M177.979,73.826c-0.064-0.016-0.134,0.027-0.148,0.102
			c-0.02,0.068,0.014,0.143,0.083,0.158c0.068,0.016,0.134-0.027,0.151-0.1C178.087,73.916,178.039,73.842,177.979,73.826z"/>
		<path style="fill:none;stroke:#FFFFFF;stroke-width:0.1321;" d="M175.285,65.04c-0.065-0.014-0.132,0.034-0.146,0.105
			c-0.021,0.073,0.016,0.146,0.083,0.162c0.068,0.016,0.137-0.029,0.154-0.103C175.395,65.133,175.348,65.06,175.285,65.04z"/>
		<path style="fill:none;stroke:#FFFFFF;stroke-width:0.1321;" d="M175.517,68.937c-0.067-0.016-0.132,0.031-0.151,0.104
			c-0.021,0.07,0.019,0.141,0.083,0.158c0.067,0.017,0.134-0.028,0.149-0.101C175.622,69.024,175.583,68.956,175.517,68.937z"/>
		<path style="fill:none;stroke:#FFFFFF;stroke-width:0.1321;" d="M180.492,72.041c-0.066-0.014-0.14,0.033-0.156,0.105
			c-0.019,0.068,0.02,0.148,0.09,0.156c0.066,0.021,0.131-0.029,0.149-0.098C180.592,72.133,180.554,72.057,180.492,72.041z"/>
		<path style="fill:none;stroke:#FFFFFF;stroke-width:0.1321;" d="M177.44,72.697c-0.067-0.012-0.133,0.033-0.15,0.107
			c-0.017,0.076,0.021,0.143,0.086,0.164c0.064,0.014,0.134-0.035,0.155-0.107C177.55,72.791,177.51,72.719,177.44,72.697z"/>
		<path style="fill:none;stroke:#FFFFFF;stroke-width:0.1321;" d="M179.011,72.123c-0.066-0.02-0.14,0.031-0.153,0.102
			c-0.02,0.072,0.021,0.146,0.087,0.162c0.066,0.012,0.134-0.031,0.15-0.105C179.108,72.211,179.072,72.139,179.011,72.123z"/>
		<path style="fill:none;stroke:#FFFFFF;stroke-width:0.1321;" d="M177.246,71.33c-0.071-0.014-0.141,0.029-0.155,0.105
			c-0.013,0.068,0.018,0.146,0.084,0.158c0.071,0.02,0.135-0.027,0.157-0.096C177.35,71.42,177.307,71.35,177.246,71.33z"/>
		<path style="fill:none;stroke:#FFFFFF;stroke-width:0.1321;" d="M180.638,73.762c-0.07-0.018-0.136,0.029-0.153,0.098
			c-0.014,0.072,0.02,0.15,0.083,0.164c0.07,0.016,0.137-0.029,0.155-0.104C180.743,73.846,180.704,73.779,180.638,73.762z"/>
		<path style="fill:none;stroke:#A8CFD5;stroke-width:0.2989;stroke-linecap:round;stroke-linejoin:round;" d="M181.656,61.24
			c0.033,5.552,0.033,8.438,0.033,12.862c0,0.943-1.747,0.943-3.617,0.943c-1.823,0-3.769,0.035-3.769-0.875
			c0-3.62,0-9.326,0.033-12.93"/>
		<path style="fill:none;stroke:#A8CFD5;stroke-width:0.2989;stroke-linecap:round;stroke-linejoin:round;" d="M174.336,61.24
			c0,0.38,1.638,0.691,3.662,0.691c2.017,0,3.658-0.311,3.658-0.691c0-0.382-1.642-0.688-3.658-0.688
			C175.975,60.552,174.336,60.858,174.336,61.24z"/>
		<path style="fill:none;stroke:#A8CFD5;stroke-width:0.1996;stroke-linecap:round;stroke-linejoin:round;" d="M181.689,65.444
			c-1-0.463-0.639,3.852-0.672,4.502c-0.083,1.627,0.058,3.37,0.063,4.831"/>
		<path style="fill:none;stroke:#A8CFD5;stroke-width:0.1996;stroke-linecap:round;stroke-linejoin:round;" d="M180.344,74.906
			c0-1.199-0.136-2.334-0.136-3.551c0-1.422,0.285-2.782-0.048-4.164c-0.083-0.349-0.255-1.525-0.809-1.478
			c-0.386,0.032-0.622,1.038-0.685,1.343c-0.285,1.484-0.077,3.253,0,4.765c0.055,1.021,0.136,2.279,0.136,3.156"/>
		<path style="fill:none;stroke:#A8CFD5;stroke-width:0.1996;stroke-linecap:round;stroke-linejoin:round;" d="M177.998,74.979
			c0-1.627-0.156-3.188-0.068-4.834c0.072-1.345,0.313-3.047-0.346-4.215c-1.315-0.381-0.999,8.045-0.999,9.049"/>
		<path style="fill:none;stroke:#A8CFD5;stroke-width:0.1996;stroke-linecap:round;stroke-linejoin:round;" d="M174.775,74.777
			c0-1.344-0.035-6.176,0.064-7.388c0.053-0.601,0.771-3.064,1.213-1.404c0.309,1.151,0.105,2.281-0.003,3.423
			c-0.174,1.793-0.188,3.883-0.198,5.498"/>
	</g>
	<path style="fill:#FFFFFF;stroke:#777768;stroke-width:1.199;" d="M115.032,60.62c9.846,13.661,2.83,17.368,25.518,12.972"/>
	<g>
		<path style="fill:none;stroke:#777768;stroke-width:1.799;stroke-linecap:round;stroke-linejoin:round;" d="M123.241,43.533
			c0,6.157-3.845,11.15-8.59,11.15c-4.738,0-8.59-4.994-8.59-11.15c0-6.158,3.853-11.147,8.59-11.147
			C119.396,32.386,123.241,37.375,123.241,43.533z"/>
		<path style="fill:none;stroke:#777768;stroke-width:1.799;stroke-linecap:round;stroke-linejoin:round;" d="M114.909,69.809
			c0.126,7.853,0.112,5.308-0.662,9.169c-1.232,6.08-2.456,6.619-2.456,12.16c0,8.963,32.395-2.697,31.175,2.572
			c-6.697,28.768-6.956,34.867-0.416,34.051"/>
		<path style="fill:none;stroke:#777768;stroke-width:1.799;stroke-linecap:round;stroke-linejoin:round;" d="M114.65,55.087
			c-0.011,1.962,0.058,4.98,0.133,8.465"/>
		<path style="fill:#FFFFFF;stroke:#777768;stroke-width:1.199;" d="M119.777,66.652c0,1.902-1.554,3.442-3.474,3.442
			c-1.922,0-3.478-1.54-3.478-3.442c0-1.906,1.556-3.449,3.478-3.449C118.223,63.203,119.777,64.746,119.777,66.652z"/>
	</g>
	<g>
		<path style="fill:none;stroke:#777768;stroke-width:1.199;" d="M207.41,92.666c0,1.057,0.863,1.908,1.928,1.908
			c1.061,0,1.928-0.852,1.928-1.908c0-1.053-0.867-1.91-1.928-1.91C208.273,90.756,207.41,91.613,207.41,92.666z"/>
		<path style="fill:none;stroke:#777768;stroke-width:1.199;" d="M200.359,37.435c0,5.918,3.697,10.707,8.252,10.707
			s8.25-4.788,8.25-10.707c0-5.916-3.695-10.709-8.25-10.709S200.359,31.52,200.359,37.435z"/>
		<path style="fill:none;stroke:#777768;stroke-width:1.199;stroke-linecap:round;stroke-linejoin:round;" d="M208.398,48.572
			c0.047,7.474-0.541,23.995,0.9,31.172c1.293,6.404,4.879,13.883,0.039,14.83c-9.398,1.85-31.15-6.463-30.771-0.773
			c2.014,29.488,1.422,35.582-5.479,34.725"/>
	</g>
	<path style="fill:#FFFFFF;stroke:#777768;stroke-width:1.199;" d="M114.409,59.72c17.346-4.463,21.41-13.317,28.035-28.128
		c-0.198,0.038-0.289,0.456-0.602,0.511c-0.263-2.691,0.526-4.21,0.617-6.954c0.072,3.174-2.417,6.529-1.368,9.451
		c0.244-2.718,3.539-9.612,3.542-12.367c-0.166,1.234-2.982,9.526-2.791,10.698c1.53-1.37,3.003-7.5,3.968-9.506
		c-0.259,1.751-3.24,7.063-3.968,8.678c1.513-1.44,4.363-3.573,5.186-5.464c-2.391,4.27-3.075,4.04-5.937,7.96"/>
</g>
</svg>
