<?xml version="1.0" encoding="iso-8859-1"?>
<!-- Generator: Adobe Illustrator 13.0.0, SVG Export Plug-In . SVG Version: 6.00 Build 14948)  -->
<!DOCTYPE svg PUBLIC "-//W3C//DTD SVG 1.1//EN" "http://www.w3.org/Graphics/SVG/1.1/DTD/svg11.dtd">
<svg version="1.1" xmlns="http://www.w3.org/2000/svg" xmlns:xlink="http://www.w3.org/1999/xlink" x="0px" y="0px" width="378px"
	 height="140px" viewBox="0 0 378 140" style="enable-background:new 0 0 378 140;" xml:space="preserve">
<g id="Layer_2">
	<g>
		<rect style="fill:none;" width="378" height="140"/>
		<rect style="fill:#FFFFFF;" width="378" height="140"/>
	</g>
</g>
<g id="Layer_4">
	<g>
		<path style="opacity:0.65;fill:none;stroke:#777768;stroke-linecap:round;stroke-linejoin:round;" d="M149.724,16.545
			c0,7.594-5.008,13.749-11.188,13.749c-6.175,0-11.184-6.155-11.184-13.749c0-7.596,5.009-13.749,11.184-13.749
			C144.716,2.796,149.724,8.949,149.724,16.545z"/>
		<path style="opacity:0.65;fill:none;stroke:#777768;stroke-linecap:round;stroke-linejoin:round;" d="M138.535,30.294
			c0,5.313-0.238,31.505-1.855,47.536c-1.485,14.68-9.328,50.672-15.144,58.479h-5.64"/>
		<path style="opacity:0.65;fill:none;stroke:#777768;stroke-linecap:round;stroke-linejoin:round;" d="M136.646,75.758
			c-0.94,9.718,6.857,51.947,10.127,61.444c0,0-0.296,0,5.286,0.298"/>
		<path style="opacity:0.65;fill:none;stroke:#777768;stroke-linecap:round;stroke-linejoin:round;" d="M134.898,86.137
			c-4.754-8.013-4.53-38.891,3.602-38.463c5.284,0.266,20.697-7.488,25.785-5.763"/>
		<path style="opacity:0.65;fill:none;stroke:#777768;stroke-linecap:round;stroke-linejoin:round;" d="M134.343,14.91
			c0.56-0.785,0.609-1.136,0.134-1.073c-0.186,0.568-0.079,0.974-0.134,1.542"/>
		<path style="opacity:0.65;fill:none;stroke:#777768;stroke-linecap:round;stroke-linejoin:round;" d="M142.761,14.91
			c-0.552-0.785-0.605-1.136-0.138-1.073c0.188,0.568,0.091,0.974,0.138,1.542"/>
		<path style="opacity:0.65;fill:none;stroke:#777768;stroke-linecap:round;stroke-linejoin:round;" d="M135.277,23.305
			c2.064,1.136,4.604,2.778,6.05,0.461"/>
		<path style="opacity:0.65;fill:#777768;stroke:#777768;stroke-width:0.7195;stroke-linecap:round;stroke-linejoin:round;" d="
			M139.298,21.386c-0.623-0.245-0.648,0.718,0.195,0.84c0.619,0.086,1.134,0.041,1.704,0.266c0.954,0.384,2.242,1.317,2.609-0.31
			c-1.122,1.921-3.942-2.517-4.767-0.74"/>
		<path style="opacity:0.65;fill:#777768;stroke:#777768;stroke-width:0.7195;stroke-linecap:round;stroke-linejoin:round;" d="
			M137.675,21.386c0.622-0.245,0.657,0.718-0.199,0.84c-0.609,0.086-1.13,0.041-1.691,0.266c-0.959,0.384-2.246,1.317-2.615-0.31
			c1.122,1.921,3.946-2.517,4.765-0.74"/>
	</g>
	<g>
		<path style="fill:none;stroke:#777768;stroke-width:1.5;stroke-linecap:round;stroke-linejoin:round;" d="M168.694,26.178
			c0,6.307-4.343,11.428-9.698,11.428c-5.356,0-9.701-5.122-9.701-11.428c0-6.311,4.345-11.424,9.701-11.424
			C164.352,14.754,168.694,19.868,168.694,26.178z"/>
		<path style="fill:none;stroke:#777768;stroke-width:1.5;stroke-linecap:round;stroke-linejoin:round;" d="M159.666,37.871
			c0,7.275,1.255,14.311,1.329,21.531c0.04,4.317-0.521,8.647-0.78,12.94c-0.402,6.535-4.5,12.106-7.454,17.875
			c-2.478,4.827-4.791,9.669-7.448,14.405c-1.614,2.879-3.968,5.914-4.624,9.208c13.35-0.344,28.443-6.502,41.254-2.141
			c-2.465-3.769-6.054-7.11-8.729-10.838c-4.034-5.668-6.953-10.479-9.02-17.09c-1.041-3.339-1.743-6.734-2.414-10.012
			c-0.414-1.986-1.242-4.013-1.049-6.127"/>
		<path style="fill:none;stroke:#777768;stroke-width:1.5;stroke-linecap:round;stroke-linejoin:round;" d="M158.814,111.418
			c0.552,5.074,1.199,22.946,0.797,25.786c-0.564,0.566-1.834,0.048-2.867,0.296"/>
		<path style="fill:none;stroke:#777768;stroke-width:1.5;stroke-linecap:round;stroke-linejoin:round;" d="M165.504,110.668
			c0.134,2.704,1.743,24.629,2.658,25.54c0.687,0.685,1.432,0.458,3.407-0.076"/>
		<g>
			<path style="fill:none;stroke:#777768;stroke-width:0.9636;stroke-linecap:round;stroke-linejoin:round;" d="M155.415,23.855
				c-0.071,0.181-0.071,0.341,0.027,0.485c0.043-0.12,0.059-0.227,0.047-0.353c-0.004,0.049-0.023,0.144-0.035,0.205
				c0-0.085-0.004-0.171,0-0.25"/>
			<path style="fill:none;stroke:#777768;stroke-width:0.2169;stroke-linecap:round;stroke-linejoin:round;" d="M155.096,23.812
				c-0.107-0.191-0.201-0.4-0.218-0.622"/>
			<path style="fill:none;stroke:#777768;stroke-width:0.2169;stroke-linecap:round;stroke-linejoin:round;" d="M155.194,22.987
				c0.086,0.132,0.086,0.622,0.086,0.781"/>
			<path style="fill:none;stroke:#777768;stroke-width:0.2169;stroke-linecap:round;stroke-linejoin:round;" d="M155.454,23.769
				c-0.012-0.271,0.178-0.463,0.189-0.744"/>
			<path style="fill:none;stroke:#777768;stroke-width:0.2169;stroke-linecap:round;stroke-linejoin:round;" d="M155.588,23.769
				c0.205-0.14,0.402-0.395,0.359-0.631"/>
		</g>
		<g>
			<path style="fill:none;stroke:#777768;stroke-width:0.9636;stroke-linecap:round;stroke-linejoin:round;" d="M163.03,23.855
				c0.06,0.181,0.06,0.341-0.043,0.485c-0.027-0.12-0.051-0.227-0.043-0.353c0.016,0.049,0.031,0.144,0.039,0.205
				c0-0.085,0-0.171,0-0.25"/>
			<path style="fill:none;stroke:#777768;stroke-width:0.2169;stroke-linecap:round;stroke-linejoin:round;" d="M163.343,23.812
				c0.106-0.191,0.205-0.373,0.358-0.598"/>
			<path style="fill:none;stroke:#777768;stroke-width:0.2169;stroke-linecap:round;stroke-linejoin:round;" d="M163.437,22.987
				c-0.082,0.132-0.275,0.622-0.275,0.781"/>
			<path style="fill:none;stroke:#777768;stroke-width:0.2169;stroke-linecap:round;stroke-linejoin:round;" d="M162.983,23.769
				c0.004-0.271-0.103-0.576-0.11-0.856"/>
			<path style="fill:none;stroke:#777768;stroke-width:0.2169;stroke-linecap:round;stroke-linejoin:round;" d="M162.85,23.769
				c-0.241-0.254-0.28-0.33-0.431-0.668"/>
		</g>
		<path style="fill:#DE1608;stroke:#DE1608;stroke-width:0.0533;stroke-linecap:round;stroke-linejoin:round;" d="M155.856,31.175
			c0.438,0.195,0.733,0.467,1.286,0.312c0.205-0.047,0.366-0.225,0.567-0.272c0.359-0.095,0.312,0.103,0.58,0.142
			c0.284,0.04,0.229-0.197,0.536-0.188c0.139,0.006,0.406,0.27,0.572,0.315c0.485,0.113,1.262,0.104,1.672-0.128
			c-0.769,0.617-1.38,2.02-2.603,1.711c-0.568-0.147-1.014-0.522-1.416-0.905c-0.237-0.233-0.832-0.615-0.931-0.862"/>
		<path style="fill:none;stroke:#777768;stroke-width:1.5;stroke-linecap:round;stroke-linejoin:round;" d="M154.614,86.4
			c-0.079-4.618-1.476-9.466-1.692-14.211c-0.24-5.387,0.257-9.759,1.255-14.934c0.772-4.047,1.688-13.023,5.596-15.447
			c2.178,2.177,6.41,18.636,7.038,25.297c0.438,4.617,11.568,18.892,14.027,21.351"/>
	</g>
</g>
<g id="Layer_3">
	<g style="opacity:0.65;">
		<path style="fill:none;stroke:#777768;stroke-linecap:round;stroke-linejoin:round;" d="M211.633,45.076
			c0,5.214-3.589,9.448-8.019,9.448c-4.427,0-8.021-4.234-8.021-9.448c0-5.217,3.594-9.444,8.021-9.444
			C208.044,35.632,211.633,39.859,211.633,45.076z"/>
		<path style="fill:none;stroke:#777768;stroke-linecap:round;stroke-linejoin:round;" d="M204.168,54.743
			c0,6.013,0.168,6.1,0.229,12.068c0.034,3.569-9.896,39.205-12.094,43.119c-1.337,2.381-3.282,4.891-3.823,7.614
			c11.034-0.284,22.244-0.113,34.105-1.771c-2.036-3.117-2.659-8.125-4.869-11.207c-3.336-4.688-4.675-9.042-6.384-14.507
			c-0.862-2.762-6.382-20.539-6.936-23.249"/>
		<path style="fill:none;stroke:#777768;stroke-linecap:round;stroke-linejoin:round;" d="M203.554,117.431
			c0.46,4.193-0.312,17.693-0.646,20.041c0,0-1.53,0-2.372,0"/>
		<path style="fill:none;stroke:#777768;stroke-linecap:round;stroke-linejoin:round;" d="M209.038,117.22
			c0.108,2.234-0.082,20.252,0.983,20.252c0.557,0,0.624,0.064,2.27,0"/>
		<g>
			<path style="fill:none;stroke:#777768;stroke-linecap:round;stroke-linejoin:round;" d="M200.653,43.157
				c-0.057,0.148-0.057,0.281,0.023,0.4c0.035-0.1,0.048-0.188,0.039-0.293c-0.004,0.041-0.02,0.12-0.03,0.17
				c0-0.07-0.003-0.144,0-0.206"/>
		</g>
		<g>
			<path style="fill:none;stroke:#777768;stroke-linecap:round;stroke-linejoin:round;" d="M206.947,43.157
				c0.052,0.148,0.052,0.281-0.032,0.4c-0.026-0.1-0.042-0.188-0.036-0.293c0.01,0.041,0.025,0.12,0.032,0.17
				c0-0.07,0-0.144,0-0.206"/>
		</g>
		<path style="fill:none;stroke:#777768;stroke-width:0.75;stroke-linecap:round;stroke-linejoin:round;" d="M201.02,49.206
			c0.186,0.085,1.321,0.668,2.34,0.708c0.961,0.037,1.806-0.465,1.97-0.558c-0.634,0.51-1.141,1.672-2.152,1.416
			c-0.471-0.123-1.856-1.255-1.938-1.459"/>
		<path style="fill:none;stroke:#777768;stroke-linecap:round;stroke-linejoin:round;" d="M180.838,88.457
			c3.753,0,15.991-7.981,16.813-12.257c0.64-3.347,3.372-16.198,6.606-18.202c1.799,1.799,3.637,13.274,5.022,16.637
			c2.146,5.181,8.559,12.592,10.592,14.625"/>
	</g>
	<g style="opacity:0.65;">
		<path style="fill:none;stroke:#777768;stroke-linecap:round;stroke-linejoin:round;" d="M248.539,36.897
			c0,6.277-4.142,11.366-9.25,11.366c-5.107,0-9.25-5.088-9.25-11.366c0-6.281,4.143-11.368,9.25-11.368
			C244.397,25.529,248.539,30.616,248.539,36.897z"/>
		<path style="fill:none;stroke:#777768;stroke-linecap:round;stroke-linejoin:round;" d="M239.289,48.263
			c0,4.394-0.198,26.048-1.535,39.301c-1.229,12.137-7.718,43.238-12.526,49.692h-4.662"/>
		<path style="fill:none;stroke:#777768;stroke-linecap:round;stroke-linejoin:round;" d="M237.865,86.385
			c-0.778,8.052,4.521,43.031,7.221,50.871c0,0-0.245,0,4.37,0.245"/>
		<path style="fill:none;stroke:#777768;stroke-linecap:round;stroke-linejoin:round;" d="M219.872,89.26
			c6.009-3.107,13.139-10.514,14.383-13.888c0.965-2.617,1.399-20.131,4.967-19.943c4.37,0.221,6.068,32.629,6.28,38.113"/>
		<path style="fill:none;stroke:#777768;stroke-linecap:round;stroke-linejoin:round;" d="M235.824,35.543
			c0.461-0.647,0.502-0.938,0.109-0.886c-0.153,0.467-0.066,0.806-0.109,1.274"/>
		<path style="fill:none;stroke:#777768;stroke-linecap:round;stroke-linejoin:round;" d="M242.782,35.543
			c-0.458-0.647-0.502-0.938-0.115-0.886c0.156,0.467,0.076,0.806,0.115,1.274"/>
		<path style="fill:none;stroke:#777768;stroke-linecap:round;stroke-linejoin:round;" d="M236.595,42.483
			c1.707,0.94,2.789,1.339,5.001,0.382"/>
	</g>
</g>
</svg>
