<?xml version="1.0" encoding="iso-8859-1"?>
<!-- Generator: Adobe Illustrator 13.0.0, SVG Export Plug-In . SVG Version: 6.00 Build 14948)  -->
<!DOCTYPE svg PUBLIC "-//W3C//DTD SVG 1.1//EN" "http://www.w3.org/Graphics/SVG/1.1/DTD/svg11.dtd">
<svg version="1.1" xmlns="http://www.w3.org/2000/svg" xmlns:xlink="http://www.w3.org/1999/xlink" x="0px" y="0px" width="378px"
	 height="140px" viewBox="0 0 378 140" style="enable-background:new 0 0 378 140;" xml:space="preserve">
<pattern  x="-81" y="170" width="538" height="200" patternUnits="userSpaceOnUse" id="New_Pattern_Swatch_3" viewBox="0 -200 538 200" style="overflow:visible;">
	<g>
		<polygon style="fill:none;" points="0,0 538,0 538,-200 0,-200 		"/>
		<polygon style="fill:#FFFFFF;" points="0,0 538,0 538,-200 0,-200 		"/>
	</g>
</pattern>
<g id="fond">
	<rect style="fill:#FFFFFF;" width="378" height="140"/>
</g>
<g id="decor_plage">
	
		<line id="horizon_mer" style="fill:none;stroke:#33CCFF;stroke-width:0.5;stroke-linecap:round;stroke-linejoin:round;" x1="46.834" y1="48.541" x2="312.833" y2="48.541"/>
	<path style="fill:url(#New_Pattern_Swatch_3);stroke:#777768;stroke-width:0.5;stroke-linecap:round;stroke-linejoin:round;" d="
		M5.667,16.333c3.197,0.205,6.993,3.389,8.584,8.117s4.305,12.726,13.999,12.726c9.75,0,11.132,4.287,16.457,6.428
		c8.168,3.285,8.246,9.444,11.137,11.22c7.823,4.805,5.352,13.634,10.004,16.426s5.909,16.25,5.909,16.25
		c-1.94,1.94-45.634,17.995-47.837,15.792s-13.782,2.812-17.585,4.51"/>
	<path style="fill:#FFFFFF;stroke:#777768;stroke-width:0.5;stroke-linecap:round;stroke-linejoin:round;" d="M375,16.333
		c-11.843,0-28.782,4.051-36.1,3.992c-9.056-0.073-17.672,11.267-20.574,18.91c-2.573,6.772-12.631,9.802-19.201,14.265
		c-6.396,4.344-21.776,9.944-30.387,12.094c-4.72,1.178-7.713,4.188-10.392,8.073c-1.843,2.673-2.792,2.964-6.151,7.689
		s5.738,3.895,9.809,4.019c4.116,0.125,8.323,0.125,12.31,0.125c10.666,0,40.48,6.805,51.062,6.375
		c9.971-0.405,15.491-7.665,25.976-7.132c3.452,0.176,6.729-0.071,10.241-0.076c3.693-0.005,8.471,0.521,13.471,0.521"/>
	<path style="fill:none;stroke:#33CCFF;stroke-linecap:round;stroke-linejoin:round;" d="M5.361,118.311
		c10.392-0.32,8.878,10.741,16.519,13.168c8.013,2.545,27.528-10,34.458-10.625c9.334-0.842,2.548,8.399,12.125,10.125
		c6.814,1.228,22.537-20.312,39.204-13.312c25.973,10.908,39.339,8.902,68.661-5.518c14.732-7.245,28.604,10.561,37.739,6.146
		c7.5-3.625,9.322-10.837,12.572-15.587c3.553-5.192,11.291-5.5,18.213-1.743c9.983,5.418,19.561,9.781,32.73,7.22
		c12.454-2.422-4.263-23.668,25.904-18.752"/>
</g>
<g id="homme">
	<g>
		<path style="fill:none;stroke:#777768;stroke-width:1.199;stroke-linecap:round;stroke-linejoin:round;" d="M224.704,73.147
			c0,1.059,0.864,1.915,1.918,1.915c1.053,0,1.914-0.856,1.914-1.915s-0.861-1.911-1.914-1.911
			C225.568,71.236,224.704,72.089,224.704,73.147z"/>
		<path style="fill:#FFFFFF;stroke:#787768;stroke-width:1.199;stroke-linecap:round;stroke-linejoin:round;" d="M217.704,15.2
			c0,5.929,3.668,10.734,8.197,10.734c4.521,0,8.193-4.805,8.193-10.734c0-5.927-3.673-10.732-8.193-10.732
			C221.372,4.468,217.704,9.273,217.704,15.2z"/>
		<path style="fill:none;stroke:#777768;stroke-width:1.199;stroke-linecap:round;stroke-linejoin:round;" d="M225.695,26.361
			c0.035,7.493-1.012,29.645,0.425,36.837c1.287,6.422,1.858,4.477,0.571,13.469c-1.606,11.266,2.01,22.258,2.401,27.961
			c1.992,29.556,2.173,28.813-4.687,27.957"/>
	</g>
</g>
<g id="femme">
	<path style="fill:url(#New_Pattern_Swatch_3);stroke:#777768;stroke-width:1.799;stroke-linecap:round;stroke-linejoin:round;" d="
		M146.571,33.04c-0.011,1.939,0.057,4.926,0.131,8.376"/>
	
		<ellipse style="fill:url(#New_Pattern_Swatch_3);stroke:#777768;stroke-width:1.799;stroke-linecap:round;stroke-linejoin:round;" cx="146.57" cy="21.603" rx="8.425" ry="11.033"/>
	<path style="fill:none;stroke:#777768;stroke-width:1.799;stroke-linecap:round;stroke-linejoin:round;" d="M146.823,47.608
		c0.126,7.778,0.111,16.11-0.658,19.93c-1.197,6.016-3.608,3.611-2.403,12.035c1.507,10.555,5.617,19.256,4.411,24.469
		c-6.567,28.473-6.817,29.287-0.403,28.484"/>
	<path style="fill:#FFFFFF;stroke:#787768;stroke-width:1.199;stroke-linecap:round;stroke-linejoin:round;" d="M151.599,44.482
		c0,1.882-1.521,3.409-3.406,3.409s-3.416-1.527-3.416-3.409c0-1.883,1.531-3.411,3.416-3.411S151.599,42.599,151.599,44.482z"/>
</g>
<g id="Layer_6">
	<g>
		
			<line style="fill:none;stroke:#4696CC;stroke-width:0.1997;stroke-linecap:round;stroke-linejoin:round;" x1="205.915" y1="20.802" x2="203.227" y2="27.938"/>
		
			<line style="fill:none;stroke:#4696CC;stroke-width:0.1997;stroke-linecap:round;stroke-linejoin:round;" x1="204.895" y1="20.802" x2="202.207" y2="27.938"/>
		
			<line style="fill:none;stroke:#4696CC;stroke-width:0.1997;stroke-linecap:round;stroke-linejoin:round;" x1="206.936" y1="20.802" x2="204.248" y2="27.938"/>
		
			<line style="fill:none;stroke:#4696CC;stroke-width:0.1997;stroke-linecap:round;stroke-linejoin:round;" x1="207.957" y1="20.802" x2="205.269" y2="27.938"/>
		
			<line style="fill:none;stroke:#4696CC;stroke-width:0.1997;stroke-linecap:round;stroke-linejoin:round;" x1="195.707" y1="20.802" x2="193.02" y2="27.938"/>
		
			<line style="fill:none;stroke:#4696CC;stroke-width:0.1997;stroke-linecap:round;stroke-linejoin:round;" x1="194.687" y1="20.802" x2="191.998" y2="27.938"/>
		
			<line style="fill:none;stroke:#4696CC;stroke-width:0.1997;stroke-linecap:round;stroke-linejoin:round;" x1="196.729" y1="20.802" x2="194.04" y2="27.938"/>
		
			<line style="fill:none;stroke:#4696CC;stroke-width:0.1997;stroke-linecap:round;stroke-linejoin:round;" x1="197.749" y1="20.802" x2="195.061" y2="27.938"/>
		
			<line style="fill:none;stroke:#4696CC;stroke-width:0.1997;stroke-linecap:round;stroke-linejoin:round;" x1="199.791" y1="20.802" x2="197.102" y2="27.938"/>
		
			<line style="fill:none;stroke:#4696CC;stroke-width:0.1997;stroke-linecap:round;stroke-linejoin:round;" x1="198.77" y1="20.802" x2="196.082" y2="27.938"/>
		
			<line style="fill:none;stroke:#4696CC;stroke-width:0.1997;stroke-linecap:round;stroke-linejoin:round;" x1="200.812" y1="20.802" x2="198.123" y2="27.938"/>
		
			<line style="fill:none;stroke:#4696CC;stroke-width:0.1997;stroke-linecap:round;stroke-linejoin:round;" x1="202.853" y1="20.802" x2="200.164" y2="27.938"/>
		
			<line style="fill:none;stroke:#4696CC;stroke-width:0.1997;stroke-linecap:round;stroke-linejoin:round;" x1="201.832" y1="20.802" x2="199.145" y2="27.938"/>
		
			<line style="fill:none;stroke:#4696CC;stroke-width:0.1997;stroke-linecap:round;stroke-linejoin:round;" x1="203.873" y1="20.802" x2="201.186" y2="27.938"/>
		<g>
			<path style="fill:#7A7A7A;" d="M206.577,15.34c-0.095,0-0.189,0.006-0.282,0.013c-0.53-1.448-2.153-2.502-4.074-2.502
				c-1.842,0-3.405,0.97-4,2.325c-2.387,0.281-4.219,1.919-4.219,3.897c0,2.176,2.217,3.94,4.95,3.94
				c0.533,0,1.046-0.068,1.526-0.191c0.685,0.743,1.785,1.229,3.029,1.229c1.975,0,3.591-1.216,3.747-2.762
				c1.479-0.288,2.59-1.495,2.59-2.941C209.845,16.687,208.382,15.34,206.577,15.34z"/>
		</g>
		<g>
			<path style="fill:#9C9C9C;" d="M201.596,20.533c0.188-0.166,0.297-0.356,0.297-0.559c0-0.567-0.834-1.035-1.923-1.117
				c0.023-0.097,0.038-0.195,0.038-0.297c0-0.989-1.139-1.791-2.545-1.791c-1.272,0-2.324,0.659-2.512,1.518
				c-1.6,0.101-2.859,1.154-2.859,2.44c0,1.353,1.393,2.45,3.109,2.45c0.429,0,0.838-0.068,1.209-0.192
				c0.545,0.672,1.654,1.134,2.938,1.134c1.821,0,3.298-0.928,3.298-2.073C202.646,21.449,202.241,20.911,201.596,20.533z"/>
		</g>
	</g>
	<g>
		<polygon style="fill:#FFEC00;" points="173.75,23.153 169.994,22.334 171.547,25.851 168.602,23.381 168.342,27.216 
			166.882,23.66 164.87,26.935 165.231,23.108 161.926,25.073 164.024,21.852 160.186,22.057 163.54,20.18 160.045,18.577 
			163.888,18.473 161.539,15.43 164.99,17.124 164.324,13.338 166.592,16.442 167.762,12.78 168.328,16.582 171.065,13.884 
			169.8,17.513 173.478,16.396 170.671,19.021 174.446,19.741 170.74,20.761 		"/>
		<polygon style="fill:#FFAA00;" points="172.958,24.558 169.505,22.868 170.175,26.653 167.903,23.553 166.737,27.215 
			166.167,23.415 163.432,26.116 164.694,22.484 161.018,23.606 163.822,20.978 160.045,20.262 163.75,19.238 160.738,16.848 
			164.495,17.663 162.938,14.148 165.886,16.616 166.142,12.78 167.605,16.334 169.614,13.057 169.258,16.884 172.559,14.915 
			170.465,18.139 174.304,17.93 170.951,19.812 174.447,21.41 170.605,21.518 		"/>
		<circle style="fill:#FFEC00;" cx="167.246" cy="19.999" r="3.258"/>
	</g>
	<path style="display:none;fill:#FFFFFF;stroke:#777768;stroke-width:0.5;stroke-linecap:round;stroke-linejoin:round;" d="
		M184.175,21.63c-0.237,1.118-1.566,1.974-3.171,1.974c-1.771,0-3.208-1.044-3.208-2.333c0-0.114,0.012-0.227,0.034-0.337
		c0,0-1.008,1.67-2.95,1.69c-1.703,0.018-3.084-1.25-3.084-2.792c0-1.492,1.293-2.711,2.92-2.788l0.003,0.038
		c0.092-1.418,1.36-2.542,2.911-2.542c1,0,1.883,0.468,2.408,1.181l-0.001,0.026c0.495-0.337,1.139-0.544,1.842-0.54
		c3.678,0.021,3.312,2.813,3.312,2.813c0.269-0.095,0.552-0.25,0.854-0.25c1.381,0,2.5,1.082,2.5,2.417s-1.119,2.417-2.5,2.417
		C184.942,22.604,184.175,21.63,184.175,21.63z"/>
	<polygon style="display:none;fill:#FFFFFF;stroke:#777768;stroke-width:0.5;stroke-linecap:round;stroke-linejoin:round;" points="
		198.281,49.562 203.688,44.031 199.438,43.812 201.688,39.229 197.688,39.188 195.5,45.625 199.906,45.75 	"/>
	<path style="display:none;fill:#FFFFFF;stroke:#777768;stroke-width:0.5;stroke-linecap:round;stroke-linejoin:round;" d="
		M203.008,40.13c-0.237,1.118-1.566,1.974-3.171,1.974c-1.771,0-3.208-1.044-3.208-2.333c0-0.114,0.012-0.227,0.034-0.337
		c0,0-1.008,1.67-2.95,1.69c-1.703,0.018-3.084-1.25-3.084-2.792c0-1.492,1.293-2.711,2.92-2.788l0.003,0.038
		c0.092-1.418,1.36-2.542,2.911-2.542c1,0,1.883,0.468,2.408,1.181l-0.001,0.026c0.495-0.337,1.139-0.544,1.842-0.54
		c3.678,0.021,3.312,2.813,3.312,2.813c0.269-0.095,0.552-0.25,0.854-0.25c1.381,0,2.5,1.082,2.5,2.417s-1.119,2.417-2.5,2.417
		C203.774,41.104,203.008,40.13,203.008,40.13z"/>
</g>
<g id="Layer_7">
</g>
<g id="Layer_8">
	<g>
		
			<line style="fill:none;stroke:#777768;stroke-width:1.1205;stroke-linecap:round;stroke-linejoin:round;" x1="176.708" y1="20.254" x2="187.864" y2="20.254"/>
		
			<line style="fill:none;stroke:#777768;stroke-width:1.1205;stroke-linecap:round;stroke-linejoin:round;" x1="184.229" y1="16.542" x2="188.766" y2="20.254"/>
		
			<line style="fill:none;stroke:#777768;stroke-width:1.1205;stroke-linecap:round;stroke-linejoin:round;" x1="184.229" y1="23.966" x2="188.766" y2="20.254"/>
	</g>
</g>
</svg>
