<?xml version="1.0" encoding="iso-8859-1"?>
<!-- Generator: Adobe Illustrator 13.0.0, SVG Export Plug-In . SVG Version: 6.00 Build 14948)  -->
<!DOCTYPE svg PUBLIC "-//W3C//DTD SVG 1.1//EN" "http://www.w3.org/Graphics/SVG/1.1/DTD/svg11.dtd">
<svg version="1.1" xmlns="http://www.w3.org/2000/svg" xmlns:xlink="http://www.w3.org/1999/xlink" x="0px" y="0px" width="540px"
	 height="200px" viewBox="0 0 540 200" style="enable-background:new 0 0 540 200;" xml:space="preserve">
<g id="Layer_2">
	<g>
		<rect style="fill:none;" width="540" height="200"/>
		<rect style="fill:#FFFFFF;" width="540" height="200"/>
	</g>
</g>
<g id="Layer_3">
	<g>
		<g>
			<path style="fill:#F1C555;stroke:#AA2F19;stroke-width:7.7934;stroke-linecap:round;stroke-linejoin:round;" d="M428.799,56.502
				c32.317,23.89,35.909,117.767-18.299,112.549c-32.859-3.159-56.993-29.666-81.51-60.53
				C274.904,40.404,393.536,16.447,428.799,56.502"/>
			<path style="fill:#FEE895;" d="M417.511,115.298c-0.433,1.353,0.559,2.902,2.23,3.44c1.672,0.542,3.386-0.118,3.827-1.475
				c0.441-1.361-0.562-2.903-2.234-3.445C419.666,113.281,417.952,113.94,417.511,115.298z"/>
			<path style="fill:#FEE895;" d="M404.156,78.788c-0.533,1.209,0.009,2.634,1.219,3.171c1.222,0.542,2.646-0.008,3.18-1.218
				c0.542-1.214-0.013-2.634-1.223-3.176C406.122,77.028,404.698,77.574,404.156,78.788z"/>
			<path style="fill:#FEE895;" d="M386.639,88.013c-0.235,1.307,0.471,2.533,1.601,2.735c1.117,0.206,2.214-0.689,2.453-1.995
				c0.235-1.307-0.483-2.529-1.592-2.735C387.975,85.812,386.874,86.707,386.639,88.013z"/>
			<path style="fill:#FEE895;" d="M389.108,146.212c-0.55,1.415,0.635,3.188,2.647,3.97c2.003,0.769,4.07,0.248,4.62-1.164
				c0.542-1.411-0.643-3.184-2.646-3.961C391.722,144.279,389.659,144.805,389.108,146.212z"/>
			<path style="fill:#FEE895;" d="M363.613,90.609c-0.252,1.307,0.454,2.538,1.571,2.752c1.118,0.214,2.231-0.668,2.483-1.975
				c0.243-1.302-0.458-2.533-1.58-2.748C364.971,88.425,363.861,89.307,363.613,90.609z"/>
			<path style="fill:#FEE895;" d="M350.957,61.379c-1.24,0.458-1.987,1.546-1.66,2.437c0.324,0.895,1.601,1.244,2.849,0.786
				c1.243-0.454,1.991-1.546,1.663-2.437C353.485,61.274,352.208,60.921,350.957,61.379z"/>
			<path style="fill:#FEE895;" d="M372.481,55.565c-1.63,0.525-2.521,2.264-1.986,3.89c0.521,1.625,2.264,2.516,3.886,1.987
				c1.63-0.521,2.521-2.264,1.999-3.89C375.851,55.931,374.104,55.036,372.481,55.565z"/>
			<path style="fill:#FEE895;" d="M326.482,77.435c-0.349,1.088,0.697,2.386,2.314,2.907c1.63,0.517,3.23,0.059,3.57-1.025
				c0.345-1.084-0.688-2.386-2.318-2.907C328.428,75.894,326.831,76.352,326.482,77.435z"/>
			<path style="fill:#FEE895;" d="M353.742,111.164c-1.878,0.987-2.773,2.991-1.992,4.474c0.782,1.487,2.937,1.874,4.818,0.887
				c1.883-0.996,2.785-3,2-4.474C357.783,110.563,355.632,110.173,353.742,111.164z"/>
			<path style="fill:#FEE895;" d="M393.397,113.445c0.223-1.407-0.802-2.739-2.289-2.979c-1.495-0.244-2.89,0.705-3.117,2.104
				c-0.227,1.411,0.798,2.743,2.298,2.979C391.78,115.789,393.18,114.848,393.397,113.445z"/>
			<path style="fill:#FEE895;" d="M385.273,53.058c-1.668,0.681-2.529,2.44-1.924,3.936c0.613,1.491,2.457,2.151,4.129,1.475
				c1.672-0.681,2.533-2.445,1.924-3.936C388.789,53.041,386.945,52.377,385.273,53.058z"/>
			<path style="fill:#FEE895;" d="M335.039,88.433c-1.47,0.865-2.121,2.495-1.449,3.638c0.672,1.147,2.412,1.378,3.878,0.513
				c1.479-0.861,2.13-2.491,1.457-3.638C338.258,87.799,336.514,87.572,335.039,88.433z"/>
			<path style="fill:#FEE895;" d="M426.102,82.963c-0.584,1.807,0.416,3.739,2.214,4.323c1.811,0.58,3.743-0.412,4.327-2.218
				c0.584-1.807-0.412-3.743-2.214-4.323C428.618,80.166,426.686,81.157,426.102,82.963z"/>
			<path style="fill:#FEE895;" d="M425.572,137.672c-1.294,0.659-2.146,1.6-1.891,2.112c0.257,0.504,1.517,0.383,2.819-0.272
				c1.298-0.664,2.143-1.613,1.886-2.113C428.131,136.886,426.866,137.008,425.572,137.672z"/>
			<path style="fill:#FEE895;" d="M373.221,131.021c-0.47,1.643-0.121,3.188,0.79,3.449c0.912,0.272,2.033-0.845,2.517-2.483
				c0.475-1.63,0.126-3.184-0.786-3.444C374.83,128.274,373.704,129.383,373.221,131.021z"/>
			<path style="fill:#FEE895;" d="M404.976,130.06c0.281-0.853,1.201-1.323,2.062-1.046c0.853,0.285,1.319,1.205,1.042,2.059
				c-0.281,0.86-1.197,1.323-2.059,1.046C405.169,131.841,404.698,130.921,404.976,130.06z"/>
			<rect x="424.174" y="143.536" style="fill:#FEE895;" width="0" height="0"/>
		</g>
		<path style="fill:#E7A546;" d="M326.646,47.365c-3.433-7.696-41.551-18.215-112.428-18.215
			c-49.444,0-104.207,20.084-104.619,30.708c-0.239,6.163,9.562,26.927,11.977,32.775c2.982,7.217,9.838,14.422,14.384,20.963
			c6.843,9.851,16.375,16.892,26.323,23.437c14.068,9.25,26.894,11.157,43.462,11.321c14.027,0.134,25.886,0.882,39.698-2.093
			c16.4-3.532,33.405-3.163,49.961-6.292c10.485-1.971,21.235-2.378,29.83-9.326c6.289-5.083,16.048-9.675,19.652-17.14
			c3.642-7.554,3.873-18.333-0.118-25.667c-3.037-5.57-8.876-9.12-8.237-16.005"/>
		<path style="fill:#AA2F19;stroke:#7F3D1F;stroke-width:2.5978;stroke-linecap:round;stroke-linejoin:round;" d="M312.809,39.867
			c42.781-0.718,56.926,57.396,49.293,86.353c-9.074,34.393-22.29,40.875-58.262,44.604c-39.131,4.05-83.572,2.365-123.128,0.421
			c-34.04-1.672-88.655-9.238-92.499-50.923c-4.47-48.491,19.513-72.003,33.674-71.709c30.494,0.63,59.001,46.512,79.842,65.375
			c-5.238-27.398-27.671-55.238-46.911-76.443c12.855-10.649,47.29-9.688,53.674-7.112c15.271,6.154,48.566,48.1,54.977,63.609
			c-0.639-23.122-2.407-45.239-17.354-65.559c5.579-5.579,30.797,3.676,30.797,3.676c17.833,11.422,54.443,57.329,52.334,79.236
			C329.536,96.797,324.096,39.867,312.809,39.867"/>
	</g>
</g>
</svg>
