<?xml version="1.0" encoding="iso-8859-1"?>
<!-- Generator: Adobe Illustrator 13.0.0, SVG Export Plug-In . SVG Version: 6.00 Build 14948)  -->
<!DOCTYPE svg PUBLIC "-//W3C//DTD SVG 1.1//EN" "http://www.w3.org/Graphics/SVG/1.1/DTD/svg11.dtd">
<svg version="1.1" xmlns="http://www.w3.org/2000/svg" xmlns:xlink="http://www.w3.org/1999/xlink" x="0px" y="0px" width="378px"
	 height="140px" viewBox="0 0 378 140" style="enable-background:new 0 0 378 140;" xml:space="preserve">
<g id="Layer_2">
	<g>
		<rect style="fill:none;" width="378" height="140"/>
		<rect style="fill:#FFFFFF;" width="378" height="140"/>
	</g>
</g>
<g id="Layer_3">
	<g>
		<g>
			<g>
				<path style="fill:none;stroke:#777768;stroke-width:1.9447;" d="M73.089,24.812c0.072,13.559,0.005,2.32,0.224,20.242"/>
				<path style="fill:none;stroke:#777768;stroke-width:1.9447;stroke-linecap:round;stroke-linejoin:round;" d="M66.79,45.056
					c0.31-1.154,0.617-2.199,0.867-2.76c1.254-2.807,3.325-9.049,5.495-11.125"/>
				<path style="fill:none;stroke:#777768;stroke-width:1.9447;" d="M66.042,14.966c0,5.229,3.236,9.467,7.231,9.467
					c3.988,0,7.227-4.238,7.227-9.467c0-5.229-3.239-9.466-7.227-9.466C69.278,5.5,66.042,9.737,66.042,14.966z"/>
				<path style="fill:#777768;stroke:#777768;stroke-width:1.2966;stroke-linecap:round;stroke-linejoin:round;" d="M73.38,27.427
					c0.889-0.348,1.822-1.162,2.738-1.199c-0.066,1.469-0.498,2.996-0.552,4.492c-1.135-0.439-1.537-2.158-2.449-2.875
					c-0.38-0.301-0.721-0.67-1.172-0.941c-0.51-0.312-0.936-0.74-1.514-0.902c-0.044,0.594,0.106,1.312-0.04,1.889
					c-0.15,0.588-1.144,1.422-0.864,2.068c0.362,0.852,3.209-1.658,3.589-2.311"/>
			</g>
		</g>
		<g>
			<g>
				<g>
					<path style="fill:#D5312C;" d="M372.835,75.889h-4.966c-1.062,0-1.924,0.861-1.924,1.924c0,0,0-1.062,0,0
						s0.861,1.924,1.924,1.924h4.966"/>
					<path style="fill:none;stroke:#FFFFFF;stroke-width:1.0397;" d="M372.835,75.889h-4.966c-1.062,0-1.924,0.861-1.924,1.924
						c0,0,0-1.062,0,0s0.861,1.924,1.924,1.924h4.966"/>
				</g>
			</g>
			<g>
				<rect x="190.896" y="72.969" style="fill:#65B724;stroke:#FFFFFF;stroke-width:1.0397;" width="4.145" height="55.1"/>
				<path style="fill:#65B724;stroke:#FFFFFF;stroke-width:1.0397;" d="M205.038,75.988h-24.147v-6.04c0,0,5.727-2.643,11.765-2.643
					c6.037,0,12.383,2.643,12.383,2.643V75.988z"/>
				<rect x="185.229" y="115.004" style="fill:#65B724;stroke:#FFFFFF;stroke-width:0.6931;" width="15.474" height="1.416"/>
			</g>
			
				<line style="fill:none;stroke:#65B724;stroke-width:2.5932;stroke-linecap:square;" x1="170.941" y1="45.08" x2="170.941" y2="63.273"/>
			
				<line style="fill:none;stroke:#65B724;stroke-width:2.5932;stroke-linecap:square;" x1="170.941" y1="63.273" x2="163.144" y2="63.273"/>
			
				<line style="fill:none;stroke:#65B724;stroke-width:2.5932;stroke-linecap:square;" x1="163.144" y1="63.273" x2="163.144" y2="127.383"/>
			<line style="fill:none;stroke:#65B724;stroke-width:2.5932;" x1="163.144" y1="127.383" x2="372.835" y2="127.383"/>
			<g>
				<g>
					
						<line style="fill:none;stroke:#65B724;stroke-width:3.2414;stroke-linecap:round;stroke-linejoin:round;" x1="349.071" y1="67.294" x2="349.071" y2="96.502"/>
					
						<line style="fill:none;stroke:#65B724;stroke-width:3.2414;stroke-linejoin:round;" x1="349.071" y1="96.502" x2="372.834" y2="96.502"/>
					<path style="fill:none;stroke:#65B724;stroke-width:3.2414;stroke-linejoin:round;" d="M372.835,101.941
						c-0.577,0-23.795,23.799-23.795,23.799"/>
					
						<line style="fill:none;stroke:#65B724;stroke-width:3.2414;stroke-linecap:round;stroke-linejoin:round;" x1="349.04" y1="125.74" x2="365.877" y2="125.74"/>
				</g>
			</g>
			
				<line style="fill:none;stroke:#65B724;stroke-width:2.5932;stroke-linecap:round;" x1="5.165" y1="45.08" x2="170.941" y2="45.08"/>
		</g>
		<g>
			
				<ellipse style="fill:none;stroke:#777768;stroke-width:1.2966;stroke-linecap:round;stroke-linejoin:round;" cx="138.292" cy="25.845" rx="8.217" ry="10.762"/>
			<path style="fill:none;stroke:#777768;stroke-width:1.2966;stroke-linecap:round;stroke-linejoin:round;" d="M138.045,51.21
				c-0.122,7.586-0.107,15.713,0.643,19.439c1.168,5.87,3.519,3.524,2.344,11.739c-1.47,10.295-5.479,18.781-4.302,23.867
				c6.405,27.77,6.649,28.564,0.393,27.781"/>
			<path style="fill:none;stroke:#777768;stroke-width:1.2966;stroke-linecap:round;stroke-linejoin:round;" d="M138.291,37.001
				c0.012,1.891-0.055,4.805-0.128,8.17"/>
			<path style="fill:#FFFFFF;stroke:#777768;stroke-width:1.2966;stroke-linecap:round;stroke-linejoin:round;" d="M133.389,48.162
				c0,1.836,1.482,3.326,3.321,3.326s3.332-1.49,3.332-3.326c0-1.838-1.493-3.326-3.332-3.326S133.389,46.324,133.389,48.162z"/>
		</g>
		<g>
			<path style="fill:#FFFFFF;stroke:#777768;stroke-width:1.2966;stroke-linecap:round;stroke-linejoin:round;" d="M189.094,75.998
				c0,1.037,0.836,1.877,1.875,1.877c1.027,0,1.874-0.84,1.874-1.877c0-1.033-0.847-1.873-1.874-1.873
				C189.93,74.125,189.094,74.965,189.094,75.998z"/>
			<path style="fill:none;stroke:#777768;stroke-width:1.2966;stroke-linecap:round;stroke-linejoin:round;" d="M182.228,19.232
				c0,5.809,3.602,10.516,8.028,10.516c4.43,0,8.033-4.707,8.033-10.516c0-5.807-3.604-10.514-8.033-10.514
				C185.829,8.718,182.228,13.425,182.228,19.232z"/>
			<path style="fill:none;stroke:#777768;stroke-width:1.2966;stroke-linecap:round;stroke-linejoin:round;" d="M190.058,30.166
				c0.037,7.338-0.987,29.043,0.417,36.086c1.26,6.293,1.818,4.387,0.563,13.198c-1.576,11.035,1.967,21.805,2.345,27.387
				c1.956,28.957,2.132,28.232-4.584,27.391"/>
		</g>
		<g>
			<g>
				<path style="fill:none;stroke:#FFFFFF;stroke-width:0.1229;" d="M152.661,40.714c0,0.059,0.052,0.105,0.112,0.105
					c0.065,0,0.114-0.047,0.114-0.105c0-0.055-0.049-0.104-0.114-0.104C152.713,40.611,152.661,40.66,152.661,40.714z"/>
				<path style="fill:none;stroke:#FFFFFF;stroke-width:0.1229;" d="M151.602,40.531c0,0.055,0.052,0.104,0.116,0.104
					c0.063,0,0.115-0.049,0.115-0.104c0-0.061-0.052-0.107-0.115-0.107C151.653,40.423,151.602,40.47,151.602,40.531z"/>
				<path style="fill:none;stroke:#FFFFFF;stroke-width:0.1229;" d="M152.827,38.685c0,0.057,0.05,0.104,0.11,0.104
					c0.067,0,0.116-0.047,0.116-0.104s-0.049-0.104-0.116-0.104C152.877,38.582,152.827,38.628,152.827,38.685z"/>
			</g>
			
				<ellipse transform="matrix(0.2365 -0.9716 0.9716 0.2365 73.1896 175.5525)" style="fill:none;stroke:#FFFFFF;stroke-width:0.1229;" cx="148.294" cy="41.208" rx="0.114" ry="0.104"/>
			
				<ellipse transform="matrix(0.2526 -0.9676 0.9676 0.2526 72.8687 179.4094)" style="fill:none;stroke:#FFFFFF;stroke-width:0.1229;" cx="152.564" cy="42.538" rx="0.114" ry="0.104"/>
			<path style="fill:none;stroke:#FFFFFF;stroke-width:0.1229;" d="M149.863,41.83c-0.053-0.014-0.114,0.023-0.124,0.086
				c-0.018,0.061,0.016,0.123,0.071,0.135c0.055,0.014,0.112-0.025,0.127-0.084C149.953,41.904,149.921,41.843,149.863,41.83z"/>
			<path style="fill:none;stroke:#A8D0DA;stroke-width:0.2784;stroke-linecap:round;stroke-linejoin:round;" d="M153.571,33.351
				c0.026,4.666,0.026,7.09,0.026,10.807c0,0.789-1.463,0.789-3.035,0.789c-1.53,0-3.166,0.031-3.166-0.732
				c0-3.043,0-7.834,0.028-10.863"/>
			
				<ellipse style="fill:none;stroke:#A8D0DA;stroke-width:0.2784;stroke-linecap:round;stroke-linejoin:round;" cx="150.498" cy="33.351" rx="3.073" ry="0.58"/>
			<path style="fill:none;stroke:#A8D0DA;stroke-width:0.1856;stroke-linecap:round;stroke-linejoin:round;" d="M153.598,36.884
				c-0.836-0.391-0.535,3.236-0.564,3.781c-0.067,1.369,0.051,2.83,0.057,4.057"/>
			<path style="fill:none;stroke:#A8D0DA;stroke-width:0.1856;stroke-linecap:round;stroke-linejoin:round;" d="M152.471,44.833
				c0-1.008-0.112-1.961-0.112-2.984c0-1.195,0.234-2.334-0.044-3.496c-0.071-0.297-0.212-1.281-0.679-1.242
				c-0.321,0.025-0.522,0.873-0.575,1.127c-0.241,1.244-0.065,2.732,0,4c0.044,0.861,0.113,1.92,0.113,2.654"/>
			<path style="fill:none;stroke:#A8D0DA;stroke-width:0.1856;stroke-linecap:round;stroke-linejoin:round;" d="M150.499,44.892
				c0-1.367-0.131-2.674-0.058-4.059c0.062-1.131,0.266-2.561-0.291-3.541c-1.103-0.318-0.838,6.758-0.838,7.6"/>
			<path style="fill:none;stroke:#A8D0DA;stroke-width:0.1856;stroke-linecap:round;stroke-linejoin:round;" d="M147.793,44.722
				c0-1.127-0.028-5.186,0.055-6.203c0.043-0.506,0.646-2.576,1.02-1.182c0.256,0.967,0.087,1.916-0.005,2.875
				c-0.146,1.504-0.159,3.262-0.168,4.621"/>
		</g>
		<g>
			<path style="fill:none;stroke:#A8D0DA;stroke-width:0.2726;stroke-linecap:round;stroke-linejoin:round;" d="M163.129,33.046
				c0.025,4.566,0.025,6.941,0.025,10.584c0,0.773-1.434,0.773-2.973,0.773c-1.499,0-3.1,0.029-3.1-0.719
				c0-2.98,0-7.674,0.026-10.639"/>
			
				<ellipse style="fill:none;stroke:#A8D0DA;stroke-width:0.2726;stroke-linecap:round;stroke-linejoin:round;" cx="160.119" cy="33.046" rx="3.01" ry="0.568"/>
			<path style="fill:none;stroke:#A8D0DA;stroke-width:0.1818;stroke-linecap:round;stroke-linejoin:round;" d="M163.154,36.507
				c-0.817-0.383-0.523,3.168-0.553,3.701c-0.066,1.342,0.05,2.771,0.056,3.975"/>
			<path style="fill:none;stroke:#A8D0DA;stroke-width:0.1818;stroke-linecap:round;stroke-linejoin:round;" d="M162.051,44.291
				c0-0.986-0.11-1.918-0.11-2.924c0-1.168,0.23-2.285-0.043-3.424c-0.069-0.287-0.207-1.254-0.665-1.217
				c-0.314,0.027-0.512,0.857-0.562,1.107c-0.236,1.219-0.063,2.676,0,3.918c0.043,0.842,0.11,1.877,0.11,2.598"/>
			<path style="fill:none;stroke:#A8D0DA;stroke-width:0.1818;stroke-linecap:round;stroke-linejoin:round;" d="M160.12,44.349
				c0-1.338-0.129-2.621-0.057-3.975c0.06-1.109,0.259-2.51-0.285-3.471c-1.08-0.311-0.82,6.619-0.82,7.445"/>
			<path style="fill:none;stroke:#A8D0DA;stroke-width:0.1818;stroke-linecap:round;stroke-linejoin:round;" d="M157.469,44.183
				c0-1.105-0.026-5.08,0.055-6.076c0.04-0.498,0.633-2.521,0.999-1.156c0.25,0.945,0.085,1.875-0.005,2.814
				c-0.143,1.475-0.156,3.195-0.167,4.525"/>
		</g>
		<polygon style="fill:#1B96C3;" points="104.513,45.648 95.973,45.648 99.58,43.693 108.12,43.693 		"/>
		<polygon style="fill:#1B96C3;" points="107.332,44.72 98.792,44.72 102.399,42.765 110.939,42.765 		"/>
		<path style="fill:none;stroke:#777768;stroke-width:1.2966;stroke-linecap:round;stroke-linejoin:round;" d="M138.114,43.152
			c-2.412-0.904-14.688-4.545-18.501-4.742c-2.732-0.141-13.763,4.281-15.326,5.018"/>
	</g>
</g>
<g id="Layer_4">
</g>
</svg>
