<?xml version="1.0" encoding="iso-8859-1"?>
<!-- Generator: Adobe Illustrator 13.0.0, SVG Export Plug-In . SVG Version: 6.00 Build 14948)  -->
<!DOCTYPE svg PUBLIC "-//W3C//DTD SVG 1.1//EN" "http://www.w3.org/Graphics/SVG/1.1/DTD/svg11.dtd">
<svg version="1.1" xmlns="http://www.w3.org/2000/svg" xmlns:xlink="http://www.w3.org/1999/xlink" x="0px" y="0px" width="378px"
	 height="140px" viewBox="0 0 378 140" style="enable-background:new 0 0 378 140;" xml:space="preserve">
<g id="fond">
	<rect style="fill:#FFFFFF;" width="378" height="140"/>
</g>
<g id="Layer_3">
	<g>
		
			<rect x="138.807" y="84.938" style="fill:#FFFFFF;stroke:#777768;stroke-linecap:round;stroke-linejoin:round;" width="39.522" height="45.766"/>
		
			<rect x="137.25" y="130.86" style="fill:#FFFFFF;stroke:#777768;stroke-linecap:round;stroke-linejoin:round;" width="42.635" height="3.973"/>
		<path style="fill:#FFFFFF;stroke:#777768;stroke-linecap:round;stroke-linejoin:round;" d="M175.216,42.033
			c0,0.526-0.363,0.954-0.812,0.954h-22.738c-0.449,0-0.812-0.427-0.812-0.954V24.554c0-0.527,0.363-0.954,0.812-0.954h22.738
			c0.449,0,0.812,0.427,0.812,0.954V42.033z"/>
		<polyline style="fill:#FFFFFF;stroke:#777768;stroke-linecap:round;stroke-linejoin:round;" points="138.671,54.904 
			194.572,54.904 194.572,70.04 183.235,70.04 183.235,89.585 138.807,89.704 138.671,54.904 		"/>
		<path style="fill:#FFFFFF;stroke:#777768;stroke-linecap:round;stroke-linejoin:round;" d="M177.11,28.685
			c0,0.526-0.363,0.953-0.812,0.953H149.77c-0.449,0-0.812-0.427-0.812-0.953V6.121c0-0.527,0.363-0.954,0.812-0.954h26.528
			c0.449,0,0.812,0.427,0.812,0.954V28.685z"/>
		<polygon style="fill:#FFFFFF;stroke:#777768;stroke-linecap:round;stroke-linejoin:round;" points="194.572,41.08 185.908,41.08 
			150.447,41.08 138.671,54.904 185.096,54.904 194.572,54.904 		"/>
	</g>
	<g>
		
			<line style="fill:#FFFFFF;stroke:#777768;stroke-linecap:round;stroke-linejoin:round;" x1="156.7" y1="12" x2="156.7" y2="23.798"/>
		
			<line style="fill:#FFFFFF;stroke:#777768;stroke-linecap:round;stroke-linejoin:round;" x1="160.922" y1="12" x2="160.922" y2="23.798"/>
		
			<line style="fill:#FFFFFF;stroke:#777768;stroke-linecap:round;stroke-linejoin:round;" x1="165.146" y1="12" x2="165.146" y2="23.798"/>
		
			<line style="fill:#FFFFFF;stroke:#777768;stroke-linecap:round;stroke-linejoin:round;" x1="169.369" y1="12" x2="169.369" y2="23.798"/>
		
			<line style="fill:#FFFFFF;stroke:#777768;stroke-linecap:round;stroke-linejoin:round;" x1="173.591" y1="12" x2="173.591" y2="23.798"/>
		
			<line style="fill:#FFFFFF;stroke:#777768;stroke-linecap:round;stroke-linejoin:round;" x1="152.477" y1="12" x2="152.477" y2="23.798"/>
	</g>
</g>
<g id="Layer_5">
	<g>
		
			<rect x="213.588" y="84.938" style="fill:#FFFFFF;stroke:#777768;stroke-linecap:round;stroke-linejoin:round;" width="39.523" height="45.766"/>
		
			<rect x="212.032" y="130.86" style="fill:#FFFFFF;stroke:#777768;stroke-linecap:round;stroke-linejoin:round;" width="42.635" height="3.973"/>
		<path style="fill:#FFFFFF;stroke:#777768;stroke-linecap:round;stroke-linejoin:round;" d="M216.701,42.033
			c0,0.526,0.363,0.954,0.812,0.954h22.74c0.448,0,0.812-0.427,0.812-0.954V24.554c0-0.527-0.363-0.954-0.812-0.954h-22.74
			c-0.448,0-0.812,0.427-0.812,0.954V42.033z"/>
		<polyline style="fill:#FFFFFF;stroke:#777768;stroke-linecap:round;stroke-linejoin:round;" points="253.245,54.904 
			197.346,54.904 197.346,70.04 208.682,70.04 208.682,89.585 253.111,89.704 253.245,54.904 		"/>
		<path style="fill:#FFFFFF;stroke:#777768;stroke-linecap:round;stroke-linejoin:round;" d="M214.807,28.685
			c0,0.526,0.362,0.953,0.812,0.953h26.528c0.449,0,0.812-0.427,0.812-0.953V6.121c0-0.527-0.363-0.954-0.812-0.954h-26.528
			c-0.449,0-0.812,0.427-0.812,0.954V28.685z"/>
		<polygon style="fill:#FFFFFF;stroke:#777768;stroke-linecap:round;stroke-linejoin:round;" points="197.346,41.08 206.009,41.08 
			241.47,41.08 253.245,54.904 206.82,54.904 197.346,54.904 		"/>
	</g>
	<g>
		
			<line style="fill:#FFFFFF;stroke:#777768;stroke-linecap:round;stroke-linejoin:round;" x1="235.217" y1="12" x2="235.217" y2="23.798"/>
		
			<line style="fill:#FFFFFF;stroke:#777768;stroke-linecap:round;stroke-linejoin:round;" x1="230.993" y1="12" x2="230.993" y2="23.798"/>
		
			<line style="fill:#FFFFFF;stroke:#777768;stroke-linecap:round;stroke-linejoin:round;" x1="226.771" y1="12" x2="226.771" y2="23.798"/>
		
			<line style="fill:#FFFFFF;stroke:#777768;stroke-linecap:round;stroke-linejoin:round;" x1="222.549" y1="12" x2="222.549" y2="23.798"/>
		
			<line style="fill:#FFFFFF;stroke:#777768;stroke-linecap:round;stroke-linejoin:round;" x1="218.325" y1="12" x2="218.325" y2="23.798"/>
		
			<line style="fill:#FFFFFF;stroke:#777768;stroke-linecap:round;stroke-linejoin:round;" x1="239.44" y1="12" x2="239.44" y2="23.798"/>
	</g>
</g>
<g id="Layer_4">
	<path style="fill:#FFFFFF;stroke:#777768;stroke-linecap:round;stroke-linejoin:round;" d="M206.77,94.589
		c0,0.46-0.363,0.832-0.812,0.832h-20.099c-0.448,0-0.812-0.372-0.812-0.832V71.078c0-0.46,0.364-0.833,0.812-0.833h20.099
		c0.449,0,0.812,0.373,0.812,0.833V94.589z"/>
	<path style="fill:#FFFFFF;stroke:#777768;stroke-linecap:round;stroke-linejoin:round;" d="M206.059,40.133
		c0,0.527-0.362,0.954-0.812,0.954h-18.679c-0.449,0-0.812-0.427-0.812-0.954v-6.038c0-0.527,0.363-0.954,0.812-0.954h18.679
		c0.449,0,0.812,0.427,0.812,0.954V40.133z"/>
	<g>
		
			<line style="fill:#FFFFFF;stroke:#777768;stroke-linecap:round;stroke-linejoin:round;" x1="187.824" y1="75" x2="187.824" y2="90.667"/>
		
			<line style="fill:#FFFFFF;stroke:#777768;stroke-linecap:round;stroke-linejoin:round;" x1="191.058" y1="75" x2="191.058" y2="90.667"/>
		
			<line style="fill:#FFFFFF;stroke:#777768;stroke-linecap:round;stroke-linejoin:round;" x1="194.291" y1="75" x2="194.291" y2="90.667"/>
		
			<line style="fill:#FFFFFF;stroke:#777768;stroke-linecap:round;stroke-linejoin:round;" x1="197.524" y1="75" x2="197.524" y2="90.667"/>
		
			<line style="fill:#FFFFFF;stroke:#777768;stroke-linecap:round;stroke-linejoin:round;" x1="200.758" y1="75" x2="200.758" y2="90.667"/>
		
			<line style="fill:#FFFFFF;stroke:#777768;stroke-linecap:round;stroke-linejoin:round;" x1="203.991" y1="75" x2="203.991" y2="90.667"/>
	</g>
</g>
</svg>
