<?xml version="1.0" encoding="iso-8859-1"?>
<!-- Generator: Adobe Illustrator 13.0.0, SVG Export Plug-In . SVG Version: 6.00 Build 14948)  -->
<!DOCTYPE svg PUBLIC "-//W3C//DTD SVG 1.1//EN" "http://www.w3.org/Graphics/SVG/1.1/DTD/svg11.dtd">
<svg version="1.1" xmlns="http://www.w3.org/2000/svg" xmlns:xlink="http://www.w3.org/1999/xlink" x="0px" y="0px" width="378px"
	 height="140px" viewBox="0 0 378 140" style="enable-background:new 0 0 378 140;" xml:space="preserve">
<g id="Layer_2">
	<g>
		<rect style="fill:none;" width="378" height="140"/>
		<rect style="fill:#FFFFFF;" width="378" height="140"/>
	</g>
</g>
<g id="Layer_3">
	<g>
		<g>
			<path style="fill:none;stroke:#777768;stroke-width:1.2749;" d="M16.959,14.808c0,5.142,3.183,9.31,7.11,9.31
				c3.922,0,7.107-4.168,7.107-9.31S27.991,5.5,24.069,5.5C20.142,5.5,16.959,9.666,16.959,14.808z"/>
			<path style="fill:none;stroke:#777768;stroke-width:1.2749;" d="M23.889,24.489c0.012,2.204,0.102,10.16,0.22,19.905"/>
			<path style="fill:#777768;stroke:#777768;stroke-width:1.2749;stroke-linecap:round;stroke-linejoin:round;" d="M24.175,27.061
				c0.874-0.341,1.792-1.143,2.692-1.178c-0.065,1.442-0.49,2.946-0.543,4.416c-1.116-0.431-1.512-2.123-2.409-2.827
				c-0.374-0.294-0.709-0.657-1.152-0.926c-0.501-0.306-0.92-0.727-1.489-0.886c-0.043,0.582,0.105,1.289-0.039,1.857
				c-0.148,0.577-1.124,1.396-0.85,2.033c0.355,0.837,3.155-1.631,3.529-2.273"/>
			<path style="fill:none;stroke:#777768;stroke-width:1.2749;stroke-linecap:round;stroke-linejoin:round;" d="M17.695,44.396
				c0.305-1.135,0.606-2.161,0.853-2.713c1.232-2.761,3.27-8.896,5.403-10.94"/>
		</g>
	</g>
	<g>
		<g>
			<g>
				<path style="fill:#D5312C;" d="M369.766,74.636h-4.883c-1.045,0-1.893,0.847-1.893,1.892c0,0,0-1.045,0,0
					s0.848,1.892,1.893,1.892h4.883"/>
				<path style="fill:none;stroke:#FFFFFF;stroke-width:1.0223;" d="M369.766,74.636h-4.883c-1.045,0-1.893,0.847-1.893,1.892
					c0,0,0-1.045,0,0s0.848,1.892,1.893,1.892h4.883"/>
			</g>
		</g>
		<g>
			<rect x="190.863" y="71.765" style="fill:#65B724;stroke:#FFFFFF;stroke-width:1.0223;" width="4.076" height="54.179"/>
			<path style="fill:#65B724;stroke:#FFFFFF;stroke-width:1.0223;" d="M204.771,74.733h-23.744v-5.938c0,0,5.631-2.598,11.568-2.598
				c5.937,0,12.176,2.598,12.176,2.598V74.733z"/>
			<rect x="185.293" y="113.098" style="fill:#65B724;stroke:#FFFFFF;stroke-width:0.6816;" width="15.215" height="1.391"/>
		</g>
		
			<line style="fill:none;stroke:#65B724;stroke-width:2.5499;stroke-linecap:round;" x1="8.235" y1="44.341" x2="171.243" y2="44.341"/>
		
			<line style="fill:none;stroke:#65B724;stroke-width:2.5499;stroke-linecap:square;" x1="171.243" y1="44.341" x2="171.243" y2="62.229"/>
		
			<line style="fill:none;stroke:#65B724;stroke-width:2.5499;stroke-linecap:square;" x1="171.243" y1="62.229" x2="163.576" y2="62.229"/>
		
			<line style="fill:none;stroke:#65B724;stroke-width:2.5499;stroke-linecap:square;" x1="163.576" y1="62.229" x2="163.576" y2="125.27"/>
		<line style="fill:none;stroke:#65B724;stroke-width:2.5499;" x1="163.576" y1="125.27" x2="369.766" y2="125.27"/>
		<g>
			<g>
				
					<line style="fill:none;stroke:#65B724;stroke-width:3.1873;stroke-linecap:round;stroke-linejoin:round;" x1="346.398" y1="66.186" x2="346.398" y2="94.904"/>
				
					<line style="fill:none;stroke:#65B724;stroke-width:3.1873;stroke-linejoin:round;" x1="346.398" y1="94.904" x2="369.764" y2="94.904"/>
				<path style="fill:none;stroke:#65B724;stroke-width:3.1873;stroke-linejoin:round;" d="M369.766,100.253
					c-0.567,0-23.398,23.4-23.398,23.4"/>
				
					<line style="fill:none;stroke:#65B724;stroke-width:3.1873;stroke-linecap:round;stroke-linejoin:round;" x1="346.367" y1="123.653" x2="362.924" y2="123.653"/>
			</g>
		</g>
	</g>
	<path style="fill:#FFFFFF;stroke:#777768;stroke-width:1.2749;stroke-linecap:round;stroke-linejoin:round;" d="M190.896,75.302
		c0,1.048,0.845,1.899,1.897,1.899c1.04,0,1.896-0.852,1.896-1.899c0-1.047-0.856-1.897-1.896-1.897
		C191.74,73.404,190.896,74.255,190.896,75.302z"/>
	<path style="fill:none;stroke:#777768;stroke-width:2;stroke-linecap:round;stroke-linejoin:round;" d="M184.307,17.934
		c0,5.986,3.712,10.838,8.274,10.838c4.565,0,8.279-4.852,8.279-10.838c0-5.983-3.714-10.835-8.279-10.835
		C188.019,7.099,184.307,11.95,184.307,17.934z"/>
	<path style="fill:none;stroke:#777768;stroke-width:2;stroke-linecap:round;stroke-linejoin:round;" d="M191.871,28.92
		c0.037,7.427-0.999,29.389,0.422,36.518c1.274,6.369,1.84,4.438,0.569,13.354c-1.595,11.166,1.99,22.064,2.373,27.713
		c1.979,29.303,2.157,28.57-4.639,27.717"/>
	<g>
		<path style="fill:none;stroke:#777768;stroke-width:0.9737;stroke-linecap:round;stroke-linejoin:round;" d="M158.389,38.709
			c0.077,0.225,0.188,0.44,0.312,0.644c0.113,0.192,0.334,0.374,0.339,0.604c-0.869-0.951-1.182-2.415-0.931-3.693
			c0.095-0.476,0.278-1.083,0.378-1.556c0.03-0.141,3.391,0.3,3.48,0.194c-0.003,0.067-3.391-0.317-3.406-0.25"/>
		<path style="fill:none;stroke:#777768;stroke-width:1.2746;stroke-linecap:round;stroke-linejoin:round;" d="M192.294,32.59
			c-10.953,21.821-28.862,2.312-30.327,2.312"/>
		<g>
			<path style="fill:none;stroke:#A8D0DA;stroke-width:0.2681;stroke-linecap:round;stroke-linejoin:round;" d="M164.623,32.172
				c0.026,4.707,0.026,7.153,0.026,10.908c0,0.797-1.478,0.797-3.063,0.797c-1.545,0-3.195,0.03-3.195-0.74
				c0-3.071,0-7.908,0.027-10.965"/>
			
				<ellipse style="fill:none;stroke:#A8D0DA;stroke-width:0.2681;stroke-linecap:round;stroke-linejoin:round;" cx="161.521" cy="32.172" rx="3.103" ry="0.585"/>
			<path style="fill:none;stroke:#A8D0DA;stroke-width:0.1787;stroke-linecap:round;stroke-linejoin:round;" d="M164.649,35.738
				c-0.843-0.394-0.539,3.266-0.57,3.816c-0.067,1.381,0.052,2.855,0.059,4.096"/>
			<path style="fill:none;stroke:#A8D0DA;stroke-width:0.1787;stroke-linecap:round;stroke-linejoin:round;" d="M163.512,43.762
				c0-1.017-0.113-1.979-0.113-3.014c0-1.205,0.237-2.355-0.044-3.53c-0.072-0.296-0.214-1.292-0.686-1.254
				c-0.324,0.027-0.527,0.884-0.58,1.141c-0.243,1.257-0.065,2.759,0,4.039c0.044,0.867,0.114,1.936,0.114,2.677"/>
			<path style="fill:none;stroke:#A8D0DA;stroke-width:0.1787;stroke-linecap:round;stroke-linejoin:round;" d="M161.522,43.82
				c0-1.378-0.133-2.701-0.059-4.096c0.062-1.144,0.268-2.586-0.293-3.577c-1.115-0.32-0.846,6.822-0.846,7.673"/>
			<path style="fill:none;stroke:#A8D0DA;stroke-width:0.1787;stroke-linecap:round;stroke-linejoin:round;" d="M158.789,43.65
				c0-1.14-0.026-5.236,0.057-6.264c0.042-0.512,0.652-2.599,1.029-1.191c0.258,0.976,0.088,1.933-0.004,2.901
				c-0.147,1.52-0.162,3.294-0.172,4.665"/>
		</g>
		<path style="fill:none;stroke:#777768;stroke-width:0.9737;stroke-linecap:round;stroke-linejoin:round;" d="M165.211,37.754
			c0,0.488-0.113,0.784-0.354,1.312c-0.398,0.874-0.993,1.786-2.464,2.142"/>
		<path style="fill:none;stroke:#777768;stroke-width:0.9737;stroke-linecap:round;stroke-linejoin:round;" d="M159.871,39.289
			c-0.51-0.368-0.837-0.91-1.303-1.605c-0.14-0.211-0.429-0.67-0.523-0.951c-0.218,0.297,0.23,0.93,0.228,1.303
			c-0.004,0.233,0.628,3.18,0.703,3.396"/>
		<path style="fill:none;stroke:#777768;stroke-width:0.9737;stroke-linecap:round;stroke-linejoin:round;" d="M158.051,36.443
			c0.415,0.212,0.713,0.372,1.213,0.417c0.394,0.036,0.961,0.051,1.28-0.161"/>
	</g>
	<g>
		<path style="fill:none;stroke:#777768;stroke-width:1.2746;stroke-linecap:round;stroke-linejoin:round;" d="M138.955,39.432
			c-0.302-0.607-1.947-2.41-2.18-3.051"/>
		<path style="fill:none;stroke:#777768;stroke-width:1.2746;stroke-linecap:round;stroke-linejoin:round;" d="M145.768,42.813
			c-7.344,3.074-7.708-6.433-8.992-6.433c-0.788,0-1.581-0.144-2.151-0.144c-0.916,0-2.435,0.156-2.676,0.042"/>
		<g>
			<path style="fill:none;stroke:#777768;stroke-width:1.2746;stroke-linecap:round;stroke-linejoin:round;" d="M137.555,24.55
				c0,6.017,3.72,10.889,8.314,10.889c4.589,0,8.315-4.872,8.315-10.889c0-6.012-3.727-10.886-8.315-10.886
				C141.274,13.664,137.555,18.538,137.555,24.55z"/>
			<path style="fill:none;stroke:#777768;stroke-width:1.2746;stroke-linecap:round;stroke-linejoin:round;" d="M145.619,50.217
				c-0.123,7.678-0.108,15.901,0.65,19.671c1.182,5.938,3.561,3.565,2.372,11.878c-1.486,10.418-5.543,19.006-4.354,24.152
				c6.481,28.101,6.729,28.906,0.397,28.114"/>
			<path style="fill:none;stroke:#777768;stroke-width:1.2746;stroke-linecap:round;stroke-linejoin:round;" d="M145.869,35.838
				c0.011,1.913-0.056,4.861-0.13,8.267"/>
			<path style="fill:#FFFFFF;stroke:#777768;stroke-width:1.2746;stroke-linecap:round;stroke-linejoin:round;" d="M140.907,47.132
				c0,1.857,1.501,3.364,3.361,3.364c1.861,0,3.372-1.507,3.372-3.364c0-1.859-1.511-3.367-3.372-3.367
				C142.408,43.765,140.907,45.272,140.907,47.132z"/>
		</g>
		<g>
			<g>
				<ellipse style="fill:none;stroke:#FFFFFF;stroke-width:0.1208;" cx="132.788" cy="40.075" rx="0.117" ry="0.108"/>
				<ellipse style="fill:none;stroke:#FFFFFF;stroke-width:0.1208;" cx="133.877" cy="39.885" rx="0.119" ry="0.106"/>
				<path style="fill:none;stroke:#FFFFFF;stroke-width:0.1208;" d="M132.733,37.983c0,0.058-0.051,0.105-0.113,0.105
					c-0.07,0-0.121-0.048-0.121-0.105c0-0.059,0.051-0.107,0.121-0.107C132.683,37.876,132.733,37.925,132.733,37.983z"/>
			</g>
			
				<ellipse transform="matrix(-0.2346 -0.9721 0.9721 -0.2346 130.1971 183.6734)" style="fill:none;stroke:#FFFFFF;stroke-width:0.1208;" cx="137.405" cy="40.582" rx="0.117" ry="0.107"/>
			<path style="fill:none;stroke:#FFFFFF;stroke-width:0.1208;" d="M132.975,41.84c0.06-0.015,0.118,0.025,0.135,0.088
				c0.016,0.062-0.019,0.125-0.075,0.14c-0.06,0.016-0.117-0.026-0.134-0.089C132.887,41.916,132.92,41.854,132.975,41.84z"/>
			
				<ellipse transform="matrix(-0.2327 -0.9725 0.9725 -0.2327 127.223 183.0447)" style="fill:none;stroke:#FFFFFF;stroke-width:0.1208;" cx="135.815" cy="41.338" rx="0.117" ry="0.104"/>
			<path style="fill:none;stroke:#A8D0DA;stroke-width:0.2737;stroke-linecap:round;stroke-linejoin:round;" d="M131.966,32.485
				c-0.026,4.809-0.026,7.307-0.026,11.139c0,0.813,1.508,0.813,3.128,0.813c1.578,0,3.264,0.031,3.264-0.756
				c0-3.137,0-8.075-0.029-11.196"/>
			
				<ellipse style="fill:none;stroke:#A8D0DA;stroke-width:0.2737;stroke-linecap:round;stroke-linejoin:round;" cx="135.134" cy="32.485" rx="3.168" ry="0.599"/>
			<path style="fill:none;stroke:#A8D0DA;stroke-width:0.1825;stroke-linecap:round;stroke-linejoin:round;" d="M131.939,36.128
				c0.861-0.403,0.551,3.334,0.581,3.896c0.07,1.411-0.052,2.917-0.059,4.183"/>
			<path style="fill:none;stroke:#A8D0DA;stroke-width:0.1825;stroke-linecap:round;stroke-linejoin:round;" d="M133.101,44.32
				c0-1.039,0.116-2.021,0.116-3.077c0-1.23-0.242-2.404,0.045-3.603c0.073-0.305,0.219-1.32,0.701-1.28
				c0.329,0.025,0.537,0.899,0.591,1.162c0.249,1.282,0.067,2.816,0,4.124c-0.045,0.886-0.117,1.976-0.117,2.733"/>
			<path style="fill:none;stroke:#A8D0DA;stroke-width:0.1825;stroke-linecap:round;stroke-linejoin:round;" d="M135.133,44.38
				c0-1.407,0.135-2.756,0.06-4.183c-0.062-1.166-0.273-2.639,0.301-3.65c1.136-0.327,0.863,6.965,0.863,7.833"/>
			<path style="fill:none;stroke:#A8D0DA;stroke-width:0.1825;stroke-linecap:round;stroke-linejoin:round;" d="M137.923,44.207
				c0-1.164,0.028-5.346-0.058-6.396c-0.043-0.52-0.666-2.653-1.051-1.216c-0.264,0.995-0.09,1.974,0.004,2.962
				c0.151,1.551,0.165,3.361,0.175,4.764"/>
		</g>
		<path style="fill:none;stroke:#777768;stroke-width:1.2746;stroke-linecap:round;stroke-linejoin:round;" d="M138.955,39.432
			c-0.364,1.009-1.89,2.016-2.735,1.854"/>
		<path style="fill:none;stroke:#777768;stroke-width:1.2746;stroke-linecap:round;stroke-linejoin:round;" d="M132.69,41.769
			c-0.965-0.919-0.75-1.227-1.136-1.996c0.199,0.404,1.646-0.156,1.927,0.284c-0.325-0.594-1.591-1.345-1.696-2.021
			c0.318,0.51,1.28-0.372,1.777-0.202c-0.513-0.443-1.298-1.382-1.623-1.706"/>
	</g>
</g>
</svg>
