<?xml version="1.0" encoding="utf-8"?>
<!-- Generator: Adobe Illustrator 16.0.0, SVG Export Plug-In . SVG Version: 6.00 Build 0)  -->
<!DOCTYPE svg PUBLIC "-//W3C//DTD SVG 1.1//EN" "http://www.w3.org/Graphics/SVG/1.1/DTD/svg11.dtd">
<svg version="1.1" id="Calque_1" xmlns="http://www.w3.org/2000/svg" xmlns:xlink="http://www.w3.org/1999/xlink" x="0px" y="0px"
	 width="378px" height="140px" viewBox="0 0 378 140" enable-background="new 0 0 378 140" xml:space="preserve">
<g id="Layer_4" display="none">
	<rect x="6.057" y="8" display="inline" fill="none" stroke="#383838" width="59.223" height="56"/>
	<rect x="67.39" y="8" display="inline" fill="none" stroke="#383838" width="59.224" height="56"/>
	<rect x="128.723" y="8" display="inline" fill="none" stroke="#383838" width="59.223" height="56"/>
	<rect x="190.055" y="8" display="inline" fill="none" stroke="#383838" width="59.223" height="56"/>
	<rect x="251.387" y="8" display="inline" fill="none" stroke="#383838" width="59.224" height="56"/>
	<rect x="312.719" y="8" display="inline" fill="none" stroke="#383838" width="59.226" height="56"/>
	<rect x="6.057" y="76.001" display="inline" fill="none" stroke="#383838" width="59.223" height="56"/>
	<rect x="67.39" y="76.001" display="inline" fill="none" stroke="#383838" width="59.224" height="56"/>
	<rect x="128.723" y="76.001" display="inline" fill="none" stroke="#383838" width="59.223" height="56"/>
	<rect x="190.055" y="76.001" display="inline" fill="none" stroke="#383838" width="59.223" height="56"/>
	<rect x="251.387" y="76.001" display="inline" fill="none" stroke="#383838" width="59.224" height="56"/>
	<rect x="312.719" y="76.001" display="inline" fill="none" stroke="#383838" width="59.226" height="56"/>
</g>
<g id="Layer_2">
	<g>
		<rect y="-1" fill="#FFFFFF" width="378" height="140"/>
		<rect y="-1" fill="#FFFFFF" width="378" height="140"/>
	</g>
</g>
<g id="Layer_3">
	<text transform="matrix(1 0 0 1 71.7969 88.4883)" fill="#669900" font-family="'MyriadPro-Regular'" font-size="4.0688">01  02  03  04  05  06  07</text>
	<text transform="matrix(1 0 0 1 71.7969 88.4883)" fill="#669900" font-family="'MyriadPro-Regular'" font-size="4.0688">01  02  03  04  05  06  07</text>
	<text transform="matrix(1 0 0 1 71.7969 96.3711)" fill="#669900" font-family="'MyriadPro-Regular'" font-size="4.0688">08  09  10  11  12  13  14</text>
	<text transform="matrix(1 0 0 1 71.7969 96.3711)" fill="#669900" font-family="'MyriadPro-Regular'" font-size="4.0688">08  09  10  11  12  13  14</text>
	<text transform="matrix(1 0 0 1 71.7969 104.2539)" fill="#669900" font-family="'MyriadPro-Regular'" font-size="4.0688">15  16  17  18  19  20  21  </text>
	<text transform="matrix(1 0 0 1 71.7969 104.2539)" fill="#669900" font-family="'MyriadPro-Regular'" font-size="4.0688">15  16  17  18  19  20  21  </text>
	<text transform="matrix(1 0 0 1 71.7969 112.1348)" fill="#669900" font-family="'MyriadPro-Regular'" font-size="4.0688">22  23  24  25  26  27  28  </text>
	<text transform="matrix(1 0 0 1 71.7969 112.1348)" fill="#669900" font-family="'MyriadPro-Regular'" font-size="4.0688">22  23  24  25  26  27  28  </text>
	<text transform="matrix(1 0 0 1 71.7969 120.0186)" fill="#669900" font-family="'MyriadPro-Regular'" font-size="4.0688">29  30  31</text>
	<text transform="matrix(1 0 0 1 71.7969 120.0186)" fill="#669900" font-family="'MyriadPro-Regular'" font-size="4.0688">29  30  31</text>
	
		<text transform="matrix(1 0 0 1 10.4639 88.4883)" fill="#669900" font-family="'MyriadPro-Regular'" font-size="4.0688" letter-spacing="31"> </text>
	
		<text transform="matrix(1 0 0 1 10.4639 88.4883)" fill="#669900" font-family="'MyriadPro-Regular'" font-size="4.0688" letter-spacing="31"> </text>
	
		<text transform="matrix(1 0 0 1 10.4639 88.4883)" fill="#669900" font-family="'MyriadPro-Regular'" font-size="4.0688" letter-spacing="31"> </text>
	<text transform="matrix(1 0 0 1 45.856 88.4883)" fill="#669900" font-family="'MyriadPro-Regular'" font-size="4.0688">01  02  03</text>
	<text transform="matrix(1 0 0 1 45.856 88.4883)" fill="#669900" font-family="'MyriadPro-Regular'" font-size="4.0688">01  02  03</text>
	<text transform="matrix(1 0 0 1 10.4639 96.3711)" fill="#669900" font-family="'MyriadPro-Regular'" font-size="4.0688">04  05  06  07  08  09  10</text>
	<text transform="matrix(1 0 0 1 10.4639 96.3711)" fill="#669900" font-family="'MyriadPro-Regular'" font-size="4.0688">04  05  06  07  08  09  10</text>
	<text transform="matrix(1 0 0 1 10.4639 104.2539)" fill="#669900" font-family="'MyriadPro-Regular'" font-size="4.0688">11  12  13  14  15  16  17</text>
	<text transform="matrix(1 0 0 1 10.4639 104.2539)" fill="#669900" font-family="'MyriadPro-Regular'" font-size="4.0688">11  12  13  14  15  16  17</text>
	<text transform="matrix(1 0 0 1 10.4639 112.1348)" fill="#669900" font-family="'MyriadPro-Regular'" font-size="4.0688">18  19  20  21  22  23  24</text>
	<text transform="matrix(1 0 0 1 10.4639 112.1348)" fill="#669900" font-family="'MyriadPro-Regular'" font-size="4.0688">18  19  20  21  22  23  24</text>
	<text transform="matrix(1 0 0 1 10.4639 120.0186)" fill="#669900" font-family="'MyriadPro-Regular'" font-size="4.0688">25  26  27  28  29  30  31</text>
	<text transform="matrix(1 0 0 1 10.4639 120.0186)" fill="#669900" font-family="'MyriadPro-Regular'" font-size="4.0688">25  26  27  28  29  30  31</text>
	
		<text transform="matrix(1 0 0 1 133.1299 88.4883)" fill="#669900" font-family="'MyriadPro-Regular'" font-size="4.0688" letter-spacing="19"> </text>
	
		<text transform="matrix(1 0 0 1 133.1299 88.4883)" fill="#669900" font-family="'MyriadPro-Regular'" font-size="4.0688" letter-spacing="19"> </text>
	
		<text transform="matrix(1 0 0 1 133.1299 88.4883)" fill="#669900" font-family="'MyriadPro-Regular'" font-size="4.0688" letter-spacing="19"> </text>
	<text transform="matrix(1 0 0 1 156.3721 88.4883)" fill="#669900" font-family="'MyriadPro-Regular'" font-size="4.0688">01  02  03  04  </text>
	<text transform="matrix(1 0 0 1 156.3721 88.4883)" fill="#669900" font-family="'MyriadPro-Regular'" font-size="4.0688">01  02  03  04  </text>
	<text transform="matrix(1 0 0 1 133.1299 96.3711)" fill="#669900" font-family="'MyriadPro-Regular'" font-size="4.0688">05  06  07  08  09  10  11  </text>
	<text transform="matrix(1 0 0 1 133.1299 96.3711)" fill="#669900" font-family="'MyriadPro-Regular'" font-size="4.0688">05  06  07  08  09  10  11  </text>
	<text transform="matrix(1 0 0 1 133.1299 104.2539)" fill="#669900" font-family="'MyriadPro-Regular'" font-size="4.0688">12  13  14  15  16  17  18  </text>
	<text transform="matrix(1 0 0 1 133.1299 104.2539)" fill="#669900" font-family="'MyriadPro-Regular'" font-size="4.0688">12  13  14  15  16  17  18  </text>
	<text transform="matrix(1 0 0 1 133.1299 112.1348)" fill="#669900" font-family="'MyriadPro-Regular'" font-size="4.0688">19  20  21  22  23  24  25  </text>
	<text transform="matrix(1 0 0 1 133.1299 112.1348)" fill="#669900" font-family="'MyriadPro-Regular'" font-size="4.0688">19  20  21  22  23  24  25  </text>
	<text transform="matrix(1 0 0 1 133.1299 120.0186)" fill="#669900" font-family="'MyriadPro-Regular'" font-size="4.0688">26  27  28  29  30  </text>
	<text transform="matrix(1 0 0 1 133.1299 120.0186)" fill="#669900" font-family="'MyriadPro-Regular'" font-size="4.0688">26  27  28  29  30  </text>
	
		<text transform="matrix(1 0 0 1 194.4619 88.4883)" fill="#669900" font-family="'MyriadPro-Regular'" font-size="4.0688" letter-spacing="37"> </text>
	
		<text transform="matrix(1 0 0 1 194.4619 88.4883)" fill="#669900" font-family="'MyriadPro-Regular'" font-size="4.0688" letter-spacing="37"> </text>
	
		<text transform="matrix(1 0 0 1 194.4619 88.4883)" fill="#669900" font-family="'MyriadPro-Regular'" font-size="4.0688" letter-spacing="37"> </text>
	<text transform="matrix(1 0 0 1 235.7529 88.4883)" fill="#669900" font-family="'MyriadPro-Regular'" font-size="4.0688">01  02</text>
	<text transform="matrix(1 0 0 1 235.7529 88.4883)" fill="#669900" font-family="'MyriadPro-Regular'" font-size="4.0688">01  02</text>
	<text transform="matrix(1 0 0 1 194.4619 96.3711)" fill="#669900" font-family="'MyriadPro-Regular'" font-size="4.0688">03  04  05  06  07  08  09  </text>
	<text transform="matrix(1 0 0 1 194.4619 96.3711)" fill="#669900" font-family="'MyriadPro-Regular'" font-size="4.0688">03  04  05  06  07  08  09  </text>
	<text transform="matrix(1 0 0 1 194.4619 104.2539)" fill="#669900" font-family="'MyriadPro-Regular'" font-size="4.0688">10  11  12  13  14  15  16  </text>
	<text transform="matrix(1 0 0 1 194.4619 104.2539)" fill="#669900" font-family="'MyriadPro-Regular'" font-size="4.0688">10  11  12  13  14  15  16  </text>
	<text transform="matrix(1 0 0 1 194.4619 112.1348)" fill="#669900" font-family="'MyriadPro-Regular'" font-size="4.0688">17  18  19  20  21  22  23  </text>
	<text transform="matrix(1 0 0 1 194.4619 112.1348)" fill="#669900" font-family="'MyriadPro-Regular'" font-size="4.0688">17  18  19  20  21  22  23  </text>
	<text transform="matrix(1 0 0 1 194.4619 120.0186)" fill="#669900" font-family="'MyriadPro-Regular'" font-size="4.0688">24  25  26  27  28  29  30</text>
	<text transform="matrix(1 0 0 1 194.4619 120.0186)" fill="#669900" font-family="'MyriadPro-Regular'" font-size="4.0688">24  25  26  27  28  29  30</text>
	<text transform="matrix(1 0 0 1 194.4619 127.9004)" fill="#FFFFFF" font-family="'MyriadPro-Regular'" font-size="4.0688">31</text>
	<text transform="matrix(1 0 0 1 194.4619 127.9004)" fill="#669900" font-family="'MyriadPro-Regular'" font-size="4.0688">31</text>
	
		<text transform="matrix(1 0 0 1 255.7949 88.4883)" fill="#669900" font-family="'MyriadPro-Regular'" font-size="4.0688" letter-spacing="13"> </text>
	
		<text transform="matrix(1 0 0 1 255.7949 88.4883)" fill="#669900" font-family="'MyriadPro-Regular'" font-size="4.0688" letter-spacing="13"> </text>
	
		<text transform="matrix(1 0 0 1 255.7949 88.4883)" fill="#669900" font-family="'MyriadPro-Regular'" font-size="4.0688" letter-spacing="13"> </text>
	<text transform="matrix(1 0 0 1 273.6523 88.4883)" fill="#669900" font-family="'MyriadPro-Regular'" font-size="4.0688">01  02  03  04  05  06</text>
	<text transform="matrix(1 0 0 1 273.6523 88.4883)" fill="#669900" font-family="'MyriadPro-Regular'" font-size="4.0688">01  02  03  04  05  06</text>
	<text transform="matrix(1 0 0 1 255.7949 96.3711)" fill="#669900" font-family="'MyriadPro-Regular'" font-size="4.0688">07  08  09  10  11  12  13  </text>
	<text transform="matrix(1 0 0 1 255.7949 96.3711)" fill="#669900" font-family="'MyriadPro-Regular'" font-size="4.0688">07  08  09  10  11  12  13  </text>
	<text transform="matrix(1 0 0 1 255.7949 104.2539)" fill="#669900" font-family="'MyriadPro-Regular'" font-size="4.0688">14  15  16  17  18  19  20  </text>
	<text transform="matrix(1 0 0 1 255.7949 104.2539)" fill="#669900" font-family="'MyriadPro-Regular'" font-size="4.0688">14  15  16  17  18  19  20  </text>
	<text transform="matrix(1 0 0 1 255.7949 112.1348)" fill="#669900" font-family="'MyriadPro-Regular'" font-size="4.0688">21  22  23  24  25  26  27  </text>
	<text transform="matrix(1 0 0 1 255.7949 112.1348)" fill="#669900" font-family="'MyriadPro-Regular'" font-size="4.0688">21  22  23  24  25  26  27  </text>
	<text transform="matrix(1 0 0 1 255.7949 120.0186)" fill="#669900" font-family="'MyriadPro-Regular'" font-size="4.0688">28  29  30 </text>
	<text transform="matrix(1 0 0 1 255.7949 120.0186)" fill="#669900" font-family="'MyriadPro-Regular'" font-size="4.0688">28  29  30 </text>
	
		<text transform="matrix(1 0 0 1 317.127 88.4883)" fill="#669900" font-family="'MyriadPro-Regular'" font-size="4.0688" letter-spacing="19"> </text>
	
		<text transform="matrix(1 0 0 1 317.127 88.4883)" fill="#669900" font-family="'MyriadPro-Regular'" font-size="4.0688" letter-spacing="19"> </text>
	
		<text transform="matrix(1 0 0 1 317.127 88.4883)" fill="#669900" font-family="'MyriadPro-Regular'" font-size="4.0688" letter-spacing="19"> </text>
	<text transform="matrix(1 0 0 1 340.3691 88.4883)" fill="#669900" font-family="'MyriadPro-Regular'" font-size="4.0688">01  02  03  04  </text>
	<text transform="matrix(1 0 0 1 340.3691 88.4883)" fill="#669900" font-family="'MyriadPro-Regular'" font-size="4.0688">01  02  03  04  </text>
	<text transform="matrix(1 0 0 1 317.127 96.3711)" fill="#669900" font-family="'MyriadPro-Regular'" font-size="4.0688">05  06  07  08  09  10  11  </text>
	<text transform="matrix(1 0 0 1 317.127 96.3711)" fill="#669900" font-family="'MyriadPro-Regular'" font-size="4.0688">05  06  07  08  09  10  11  </text>
	<text transform="matrix(1 0 0 1 317.127 104.2539)" fill="#669900" font-family="'MyriadPro-Regular'" font-size="4.0688">12  13  14  15  16  17  18  </text>
	<text transform="matrix(1 0 0 1 317.127 104.2539)" fill="#669900" font-family="'MyriadPro-Regular'" font-size="4.0688">12  13  14  15  16  17  18  </text>
	<text transform="matrix(1 0 0 1 317.127 112.1348)" fill="#669900" font-family="'MyriadPro-Regular'" font-size="4.0688">19  20  21  22  23  24  25  </text>
	<text transform="matrix(1 0 0 1 317.127 112.1348)" fill="#669900" font-family="'MyriadPro-Regular'" font-size="4.0688">19  20  21  22  23  24  25  </text>
	<text transform="matrix(1 0 0 1 317.127 120.0186)" fill="#669900" font-family="'MyriadPro-Regular'" font-size="4.0688">26  27  28  29  30  31</text>
	<text transform="matrix(1 0 0 1 317.127 120.0186)" fill="#669900" font-family="'MyriadPro-Regular'" font-size="4.0688">26  27  28  29  30  31</text>
	<text transform="matrix(1 0 0 1 71.7969 20.4863)" fill="#669900" font-family="'MyriadPro-Regular'" font-size="4.0688">01  02  03  04  05  06  07</text>
	<text transform="matrix(1 0 0 1 71.7969 20.4863)" fill="#669900" font-family="'MyriadPro-Regular'" font-size="4.0688">01  02  03  04  05  06  07</text>
	<text transform="matrix(1 0 0 1 71.7969 28.3691)" fill="#669900" font-family="'MyriadPro-Regular'" font-size="4.0688">08  09  10  11  12  13  14</text>
	<text transform="matrix(1 0 0 1 71.7969 28.3691)" fill="#669900" font-family="'MyriadPro-Regular'" font-size="4.0688">08  09  10  11  12  13  14</text>
	<text transform="matrix(1 0 0 1 71.7969 36.252)" fill="#669900" font-family="'MyriadPro-Regular'" font-size="4.0688">15  </text>
	<text transform="matrix(1 0 0 1 71.7969 36.252)" fill="#669900" font-family="'MyriadPro-Regular'" font-size="4.0688">15  </text>
	<text transform="matrix(1 0 0 1 77.6958 36.252)" fill="#669900" font-family="'MyriadPro-Regular'" font-size="4.0688">16  17  </text>
	<text transform="matrix(1 0 0 1 77.6958 36.252)" fill="#669900" font-family="'MyriadPro-Regular'" font-size="4.0688">16  17  </text>
	<text transform="matrix(1 0 0 1 89.4961 36.252)" fill="#669900" font-family="'MyriadPro-Regular'" font-size="4.0688">18  19  20  21  </text>
	<text transform="matrix(1 0 0 1 89.4961 36.252)" fill="#669900" font-family="'MyriadPro-Regular'" font-size="4.0688">18  19  20  21  </text>
	<text transform="matrix(1 0 0 1 71.7969 44.1338)" fill="#669900" font-family="'MyriadPro-Regular'" font-size="4.0688">22  23  24  25  26  27  28  </text>
	<text transform="matrix(1 0 0 1 71.7969 44.1338)" fill="#669900" font-family="'MyriadPro-Regular'" font-size="4.0688">22  23  24  25  26  27  28  </text>
	<text transform="matrix(1 0 0 1 71.7969 52.0166)" fill="#669900" font-family="'MyriadPro-Regular'" font-size="4.0688">29</text>
	<text transform="matrix(1 0 0 1 71.7969 52.0166)" fill="#669900" font-family="'MyriadPro-Regular'" font-size="4.0688">29</text>
	
		<text transform="matrix(1 0 0 1 10.4639 20.4863)" fill="#93AC9A" font-family="'MyriadPro-Regular'" font-size="4.0688" letter-spacing="31"> </text>
	
		<text transform="matrix(1 0 0 1 10.4639 20.4863)" fill="#93AC9A" font-family="'MyriadPro-Regular'" font-size="4.0688" letter-spacing="31"> </text>
	
		<text transform="matrix(1 0 0 1 10.4639 20.4863)" fill="none" stroke="#65B724" stroke-width="0.1695" font-family="'MyriadPro-Regular'" font-size="4.0688" letter-spacing="31"> </text>
	<text transform="matrix(1 0 0 1 45.856 20.4863)" fill="#93AC9A" font-family="'MyriadPro-Regular'" font-size="4.0688">01  02  03</text>
	<text transform="matrix(1 0 0 1 45.856 20.4863)" fill="#669900" font-family="'MyriadPro-Regular'" font-size="4.0688">01  02  03</text>
	<text transform="matrix(1 0 0 1 10.4639 28.3691)" fill="#93AC9A" font-family="'MyriadPro-Regular'" font-size="4.0688">04  05  06  07  08  09  10</text>
	<text transform="matrix(1 0 0 1 10.4639 28.3691)" fill="#669900" font-family="'MyriadPro-Regular'" font-size="4.0688">04  05  06  07  08  09  10</text>
	<text transform="matrix(1 0 0 1 10.4639 36.252)" fill="#93AC9A" font-family="'MyriadPro-Regular'" font-size="4.0688">11  12  13  14  15  16  17</text>
	<text transform="matrix(1 0 0 1 10.4639 36.252)" fill="#669900" font-family="'MyriadPro-Regular'" font-size="4.0688">11  12  13  14  15  16  17</text>
	<text transform="matrix(1 0 0 1 10.4639 44.1338)" fill="#93AC9A" font-family="'MyriadPro-Regular'" font-size="4.0688">18  19  20  21  22  23  24</text>
	<text transform="matrix(1 0 0 1 10.4639 44.1338)" fill="#669900" font-family="'MyriadPro-Regular'" font-size="4.0688">18  19  20  21  22  23  24</text>
	<text transform="matrix(1 0 0 1 10.4639 52.0166)" fill="#93AC9A" font-family="'MyriadPro-Regular'" font-size="4.0688">25  26  27  28  29  30  31</text>
	<text transform="matrix(1 0 0 1 10.4639 52.0166)" fill="#669900" font-family="'MyriadPro-Regular'" font-size="4.0688">25  26  27  28  29  30  31</text>
	
		<text transform="matrix(1 0 0 1 133.1299 20.4863)" fill="#669900" font-family="'MyriadPro-Regular'" font-size="4.0688" letter-spacing="4"> </text>
	
		<text transform="matrix(1 0 0 1 133.1299 20.4863)" fill="#669900" font-family="'MyriadPro-Regular'" font-size="4.0688" letter-spacing="4"> </text>
	
		<text transform="matrix(1 0 0 1 133.1299 20.4863)" fill="#669900" font-family="'MyriadPro-Regular'" font-size="4.0688" letter-spacing="4"> </text>
	<text transform="matrix(1 0 0 1 140.8638 20.4863)" fill="#669900" font-family="'MyriadPro-Regular'" font-size="4.0688">01  02  03  04  05  06  </text>
	<text transform="matrix(1 0 0 1 140.8638 20.4863)" fill="#669900" font-family="'MyriadPro-Regular'" font-size="4.0688">01  02  03  04  05  06  </text>
	<text transform="matrix(1 0 0 1 133.1299 28.3691)" fill="#669900" font-family="'MyriadPro-Regular'" font-size="4.0688">07  08  09  10  11  12  13  </text>
	<text transform="matrix(1 0 0 1 133.1299 28.3691)" fill="#669900" font-family="'MyriadPro-Regular'" font-size="4.0688">07  08  09  10  11  12  13  </text>
	<text transform="matrix(1 0 0 1 133.1299 36.252)" fill="#669900" font-family="'MyriadPro-Regular'" font-size="4.0688">14  15  16  17  18  19  20  </text>
	<text transform="matrix(1 0 0 1 133.1299 36.252)" fill="#669900" font-family="'MyriadPro-Regular'" font-size="4.0688">14  15  16  17  18  19  20  </text>
	<text transform="matrix(1 0 0 1 133.1299 44.1338)" fill="#669900" font-family="'MyriadPro-Regular'" font-size="4.0688">21  22  23  24  25  26  27  </text>
	<text transform="matrix(1 0 0 1 133.1299 44.1338)" fill="#669900" font-family="'MyriadPro-Regular'" font-size="4.0688">21  22  23  24  25  26  27  </text>
	<text transform="matrix(1 0 0 1 133.1299 52.0166)" fill="#669900" font-family="'MyriadPro-Regular'" font-size="4.0688">28  29  30  31</text>
	<text transform="matrix(1 0 0 1 133.1299 52.0166)" fill="#669900" font-family="'MyriadPro-Regular'" font-size="4.0688">28  29  30  31</text>
	
		<text transform="matrix(1 0 0 1 194.4619 20.4863)" fill="#669900" font-family="'MyriadPro-Regular'" font-size="4.0688" letter-spacing="31"> </text>
	
		<text transform="matrix(1 0 0 1 194.4619 20.4863)" fill="#669900" font-family="'MyriadPro-Regular'" font-size="4.0688" letter-spacing="31"> </text>
	
		<text transform="matrix(1 0 0 1 194.4619 20.4863)" fill="#669900" font-family="'MyriadPro-Regular'" font-size="4.0688" letter-spacing="31"> </text>
	<text transform="matrix(1 0 0 1 229.8535 20.4863)" fill="#669900" font-family="'MyriadPro-Regular'" font-size="4.0688">01  02  03</text>
	<text transform="matrix(1 0 0 1 229.8535 20.4863)" fill="#669900" font-family="'MyriadPro-Regular'" font-size="4.0688">01  02  03</text>
	<text transform="matrix(1 0 0 1 194.4619 28.3691)" fill="#669900" font-family="'MyriadPro-Regular'" font-size="4.0688">04  05  06  07  08  09  10</text>
	<text transform="matrix(1 0 0 1 194.4619 28.3691)" fill="#669900" font-family="'MyriadPro-Regular'" font-size="4.0688">04  05  06  07  08  09  10</text>
	<text transform="matrix(1 0 0 1 194.4619 36.252)" fill="#669900" font-family="'MyriadPro-Regular'" font-size="4.0688">11  12  13  14  15  16  17</text>
	<text transform="matrix(1 0 0 1 194.4619 36.252)" fill="#669900" font-family="'MyriadPro-Regular'" font-size="4.0688">11  12  13  14  15  16  17</text>
	<text transform="matrix(1 0 0 1 194.4619 44.1338)" fill="#669900" font-family="'MyriadPro-Regular'" font-size="4.0688">18  19  20  21  22  23  24</text>
	<text transform="matrix(1 0 0 1 194.4619 44.1338)" fill="#669900" font-family="'MyriadPro-Regular'" font-size="4.0688">18  19  20  21  22  23  24</text>
	<text transform="matrix(1 0 0 1 194.4619 52.0166)" fill="#669900" font-family="'MyriadPro-Regular'" font-size="4.0688">25  26  27  28  29  30</text>
	<text transform="matrix(1 0 0 1 194.4619 52.0166)" fill="#669900" font-family="'MyriadPro-Regular'" font-size="4.0688">25  26  27  28  29  30</text>
	
		<text transform="matrix(1 0 0 1 255.7949 20.4863)" fill="#669900" font-family="'MyriadPro-Regular'" font-size="4.0688" letter-spacing="42"> </text>
	
		<text transform="matrix(1 0 0 1 255.7949 20.4863)" fill="#669900" font-family="'MyriadPro-Regular'" font-size="4.0688" letter-spacing="42"> </text>
	
		<text transform="matrix(1 0 0 1 255.7949 20.4863)" fill="#669900" font-family="'MyriadPro-Regular'" font-size="4.0688" letter-spacing="42"> </text>
	<text transform="matrix(1 0 0 1 302.3711 20.4863)" fill="#669900" font-family="'MyriadPro-Regular'" font-size="4.0688">01  </text>
	<text transform="matrix(1 0 0 1 302.3711 20.4863)" fill="#669900" font-family="'MyriadPro-Regular'" font-size="4.0688">01  </text>
	<text transform="matrix(1 0 0 1 255.7949 28.3691)" fill="#669900" font-family="'MyriadPro-Regular'" font-size="4.0688">02  03  04  05  06  07  08  </text>
	<text transform="matrix(1 0 0 1 255.7949 28.3691)" fill="#669900" font-family="'MyriadPro-Regular'" font-size="4.0688">02  03  04  05  06  07  08  </text>
	<text transform="matrix(1 0 0 1 255.7949 36.252)" fill="#669900" font-family="'MyriadPro-Regular'" font-size="4.0688">09  10  11  12  13  14  15  </text>
	<text transform="matrix(1 0 0 1 255.7949 36.252)" fill="#669900" font-family="'MyriadPro-Regular'" font-size="4.0688">09  10  11  12  13  14  15  </text>
	<text transform="matrix(1 0 0 1 255.7949 44.1338)" fill="#669900" font-family="'MyriadPro-Regular'" font-size="4.0688">16  17  18  19  20  21  22  </text>
	<text transform="matrix(1 0 0 1 255.7949 44.1338)" fill="#669900" font-family="'MyriadPro-Regular'" font-size="4.0688">16  17  18  19  20  21  22  </text>
	<text transform="matrix(1 0 0 1 255.7949 52.0166)" fill="#669900" font-family="'MyriadPro-Regular'" font-size="4.0688">23  24  25  26  27  28  29  </text>
	<text transform="matrix(1 0 0 1 255.7949 52.0166)" fill="#669900" font-family="'MyriadPro-Regular'" font-size="4.0688">23  24  25  26  27  28  29  </text>
	<text transform="matrix(1 0 0 1 255.7949 59.8994)" fill="#669900" font-family="'MyriadPro-Regular'" font-size="4.0688">30  31</text>
	<text transform="matrix(1 0 0 1 255.7949 59.8994)" fill="#669900" font-family="'MyriadPro-Regular'" font-size="4.0688">30  31</text>
	
		<text transform="matrix(1 0 0 1 317.127 20.4863)" fill="#669900" font-family="'MyriadPro-Regular'" font-size="4.0688" letter-spacing="13"> </text>
	
		<text transform="matrix(1 0 0 1 317.127 20.4863)" fill="#669900" font-family="'MyriadPro-Regular'" font-size="4.0688" letter-spacing="13"> </text>
	
		<text transform="matrix(1 0 0 1 317.127 20.4863)" fill="#669900" font-family="'MyriadPro-Regular'" font-size="4.0688" letter-spacing="13"> </text>
	<text transform="matrix(1 0 0 1 332.4805 20.4863)" fill="#669900" font-family="'MyriadPro-Regular'" font-size="4.0688">01  02  03  04  05  </text>
	<text transform="matrix(1 0 0 1 332.4805 20.4863)" fill="#669900" font-family="'MyriadPro-Regular'" font-size="4.0688">01  02  03  04  05  </text>
	<text transform="matrix(1 0 0 1 317.127 28.3691)" fill="#669900" font-family="'MyriadPro-Regular'" font-size="4.0688">06  07  08  09  10  11  12  </text>
	<text transform="matrix(1 0 0 1 317.127 28.3691)" fill="#669900" font-family="'MyriadPro-Regular'" font-size="4.0688">06  07  08  09  10  11  12  </text>
	<text transform="matrix(1 0 0 1 317.127 36.252)" fill="#669900" font-family="'MyriadPro-Regular'" font-size="4.0688">13  14  15  16  17  18  19  </text>
	<text transform="matrix(1 0 0 1 317.127 36.252)" fill="#669900" font-family="'MyriadPro-Regular'" font-size="4.0688">13  14  15  16  17  18  19  </text>
	<text transform="matrix(1 0 0 1 317.127 44.1338)" fill="#669900" font-family="'MyriadPro-Regular'" font-size="4.0688">20  21  22  23  24  25  26  </text>
	<text transform="matrix(1 0 0 1 317.127 44.1338)" fill="#669900" font-family="'MyriadPro-Regular'" font-size="4.0688">20  21  22  23  24  25  26  </text>
	<text transform="matrix(1 0 0 1 317.127 52.0166)" fill="#669900" font-family="'MyriadPro-Regular'" font-size="4.0688">27  28  29  30 </text>
	<text transform="matrix(1 0 0 1 317.127 52.0166)" fill="#669900" font-family="'MyriadPro-Regular'" font-size="4.0688">27  28  29  30 </text>
	<g>
		<text transform="matrix(1 0 0 1 10.5967 13.7266)" fill="#93AC9A" font-family="'MyriadPro-Regular'" font-size="6">1</text>
		<text transform="matrix(1 0 0 1 10.5967 13.7266)" fill="#66CC33" font-family="'MyriadPro-Regular'" font-size="6">1</text>
		<text transform="matrix(1 0 0 1 10.5967 13.7266)" fill="#669900" font-family="'MyriadPro-Regular'" font-size="6">1</text>
	</g>
	<g>
		<text transform="matrix(1 0 0 1 71.7969 13.5918)" fill="#669900" font-family="'MyriadPro-Regular'" font-size="6">2</text>
		<text transform="matrix(1 0 0 1 71.7969 13.5918)" fill="#669900" font-family="'MyriadPro-Regular'" font-size="6">2</text>
	</g>
	<g>
		<text transform="matrix(1 0 0 1 133.1299 13.7266)" fill="#669900" font-family="'MyriadPro-Regular'" font-size="6">3</text>
		<text transform="matrix(1 0 0 1 133.1299 13.7266)" fill="#669900" font-family="'MyriadPro-Regular'" font-size="6">3</text>
		<text transform="matrix(1 0 0 1 133.1299 13.7266)" fill="#669900" font-family="'MyriadPro-Regular'" font-size="6">3</text>
	</g>
	<text transform="matrix(1 0 0 1 194.4619 13.7266)" fill="#669900" font-family="'MyriadPro-Regular'" font-size="6">4</text>
	<text transform="matrix(1 0 0 1 194.4619 13.7266)" fill="#669900" font-family="'MyriadPro-Regular'" font-size="6">4</text>
	<text transform="matrix(1 0 0 1 255.7949 13.7266)" fill="#669900" font-family="'MyriadPro-Regular'" font-size="6">5</text>
	<text transform="matrix(1 0 0 1 255.7949 13.7266)" fill="#669900" font-family="'MyriadPro-Regular'" font-size="6">5</text>
	<text transform="matrix(1 0 0 1 255.7949 13.7266)" fill="#669900" font-family="'MyriadPro-Regular'" font-size="6">5</text>
	<text transform="matrix(1 0 0 1 316.9932 13.7266)" fill="#669900" font-family="'MyriadPro-Regular'" font-size="6">6</text>
	<text transform="matrix(1 0 0 1 316.9932 13.7266)" fill="#669900" font-family="'MyriadPro-Regular'" font-size="6">6</text>
	<text transform="matrix(1 0 0 1 316.9932 13.7266)" fill="#669900" font-family="'MyriadPro-Regular'" font-size="6">6</text>
	<text transform="matrix(1 0 0 1 10.4639 82.1367)" fill="#669900" font-family="'MyriadPro-Regular'" font-size="6">7</text>
	<text transform="matrix(1 0 0 1 10.4639 82.1367)" fill="#669900" font-family="'MyriadPro-Regular'" font-size="6">7</text>
	<text transform="matrix(1 0 0 1 10.4639 82.1367)" fill="#669900" font-family="'MyriadPro-Regular'" font-size="6">7</text>
	<text transform="matrix(1 0 0 1 71.7969 82.1367)" fill="#669900" font-family="'MyriadPro-Regular'" font-size="6">8</text>
	<text transform="matrix(1 0 0 1 71.7969 82.1367)" fill="#669900" font-family="'MyriadPro-Regular'" font-size="6">8</text>
	<text transform="matrix(1 0 0 1 71.7969 82.1367)" fill="#669900" font-family="'MyriadPro-Regular'" font-size="6">8</text>
	<text transform="matrix(1 0 0 1 133.1299 82.1367)" fill="#669900" font-family="'MyriadPro-Regular'" font-size="6">9</text>
	<text transform="matrix(1 0 0 1 133.1299 82.1367)" fill="#669900" font-family="'MyriadPro-Regular'" font-size="6">9</text>
	<text transform="matrix(1 0 0 1 133.1299 82.1367)" fill="#669900" font-family="'MyriadPro-Regular'" font-size="6">9</text>
	<text transform="matrix(1 0 0 1 194.4619 82.1367)" fill="#669900" font-family="'MyriadPro-Regular'" font-size="6">10</text>
	<text transform="matrix(1 0 0 1 194.4619 82.1367)" fill="#669900" font-family="'MyriadPro-Regular'" font-size="6">10</text>
	<text transform="matrix(1 0 0 1 194.4619 82.1367)" fill="#669900" font-family="'MyriadPro-Regular'" font-size="6">10</text>
	<text transform="matrix(1 0 0 1 255.7949 82.1367)" fill="#669900" font-family="'MyriadPro-Regular'" font-size="6">11</text>
	<text transform="matrix(1 0 0 1 255.7949 82.1367)" fill="#669900" font-family="'MyriadPro-Regular'" font-size="6">11</text>
	<text transform="matrix(1 0 0 1 255.7949 82.1367)" fill="#669900" font-family="'MyriadPro-Regular'" font-size="6">11</text>
	<text transform="matrix(1 0 0 1 316.9971 82.1367)" fill="#669900" font-family="'MyriadPro-Regular'" font-size="6">12</text>
	<text transform="matrix(1 0 0 1 316.9971 82.1367)" fill="#669900" font-family="'MyriadPro-Regular'" font-size="6">12</text>
	<text transform="matrix(1 0 0 1 316.9971 82.1367)" fill="#669900" font-family="'MyriadPro-Regular'" font-size="6">12</text>
	<path fill="none" stroke="#383838" d="M310.281,61c0,1.104-0.896,2-2,2h-55.223c-1.104,0-2-0.896-2-2V9c0-1.104,0.896-2,2-2h55.223
		c1.104,0,2,0.896,2,2V61z"/>
</g>
</svg>
