<?xml version="1.0" encoding="utf-8"?>
<!-- Generator: Adobe Illustrator 16.0.0, SVG Export Plug-In . SVG Version: 6.00 Build 0)  -->
<!DOCTYPE svg PUBLIC "-//W3C//DTD SVG 1.1//EN" "http://www.w3.org/Graphics/SVG/1.1/DTD/svg11.dtd">
<svg version="1.1" id="Calque_1" xmlns="http://www.w3.org/2000/svg" xmlns:xlink="http://www.w3.org/1999/xlink" x="0px" y="0px"
	 width="378px" height="140px" viewBox="0 0 378 140" enable-background="new 0 0 378 140" xml:space="preserve">
<g id="Layer_3">
	<g>
		<path fill="#65B724" d="M199.695,125.38c0,1.171-0.756,2.119-1.688,2.119h-13.905c-0.931,0-1.686-0.948-1.686-2.119V34.284
			c0-1.169,0.755-2.118,1.686-2.118h13.905c0.932,0,1.688,0.949,1.688,2.118V125.38z"/>
		<rect x="101.666" y="2.166" fill="none" stroke="#383838" stroke-width="1.0242" width="174.667" height="135.667"/>
		
			<text transform="matrix(1 0 0 1 114.665 44.501)" fill="#65B724" font-family="'MyriadPro-Regular'" font-size="12" letter-spacing="33">  </text>
		
			<text transform="matrix(1 0 0 1 114.665 44.501)" fill="none" stroke="#FF9934" stroke-width="0.5" font-family="'MyriadPro-Regular'" font-size="12" letter-spacing="33">  </text>
		<text transform="matrix(1 0 0 1 186.665 44.501)" fill="#65B724" font-family="'MyriadPro-Regular'" font-size="12">   </text>
		
			<text transform="matrix(1 0 0 1 186.665 44.501)" fill="none" stroke="#FF9934" stroke-width="0.5" font-family="'MyriadPro-Regular'" font-size="12">   </text>
		<text transform="matrix(1 0 0 1 194.2969 44.501)" fill="#FF9934" font-family="'MyriadPro-Regular'" font-size="12">  </text>
		
			<text transform="matrix(1 0 0 1 194.2969 44.501)" fill="none" stroke="#65B724" stroke-width="0.5" font-family="'MyriadPro-Regular'" font-size="12">  </text>
		<text transform="matrix(1 0 0 1 184.3848 44.501)" fill="#FFFFFF" font-family="'MyriadPro-Regular'" font-size="12">01</text>
		<text transform="matrix(1 0 0 1 184.3848 44.501)" fill="#FFFFFF" font-family="'MyriadPro-Regular'" font-size="12">01</text>
		<text transform="matrix(1 0 0 1 211.6953 44.501)" fill="#FF9934" font-family="'MyriadPro-Regular'" font-size="12">  </text>
		
			<text transform="matrix(1 0 0 1 197.6953 44.501)" fill="none" stroke="#65B724" stroke-width="0.5" font-family="'MyriadPro-Regular'" font-size="12">  </text>
		<text transform="matrix(1 0 0 1 202.7832 44.501)" fill="#588431" font-family="'MyriadPro-Regular'" font-size="12">02  03</text>
		<text transform="matrix(1 0 0 1 202.7832 44.501)" fill="#65B724" font-family="'MyriadPro-Regular'" font-size="12">02  03</text>
		<text transform="matrix(1 0 0 1 202.7832 44.501)" fill="#65B724" font-family="'MyriadPro-Regular'" font-size="12">02  03</text>
		<text transform="matrix(1 0 0 1 114.665 63.9014)" fill="#588431" font-family="'MyriadPro-Regular'" font-size="12">04  05  06  07  </text>
		<text transform="matrix(1 0 0 1 114.665 63.9014)" fill="#65B724" font-family="'MyriadPro-Regular'" font-size="12">04  05  06  07  </text>
		<text transform="matrix(1 0 0 1 184.2632 63.9014)" fill="#FFFFFF" font-family="'MyriadPro-Regular'" font-size="12">08</text>
		<text transform="matrix(1 0 0 1 184.2632 63.9014)" fill="#FFFFFF" font-family="'MyriadPro-Regular'" font-size="12">08</text>
		
			<text transform="matrix(1 0 0 1 196.5742 63.9014)" fill="none" stroke="#65B724" stroke-width="0.5" font-family="'MyriadPro-Regular'" font-size="12">  </text>
		<text transform="matrix(1 0 0 1 201.6621 63.9014)" fill="#588431" font-family="'MyriadPro-Regular'" font-size="12">09  10</text>
		<text transform="matrix(1 0 0 1 201.6621 63.9014)" fill="#65B724" font-family="'MyriadPro-Regular'" font-size="12">09  10</text>
		<text transform="matrix(1 0 0 1 114.665 83.3008)" fill="#588431" font-family="'MyriadPro-Regular'" font-size="12">11  12  13  14  </text>
		<text transform="matrix(1 0 0 1 114.665 83.3008)" fill="#65B724" font-family="'MyriadPro-Regular'" font-size="12">11  12  13  14  </text>
		<text transform="matrix(1 0 0 1 184.2632 83.3008)" fill="#FFFFFF" font-family="'MyriadPro-Regular'" font-size="12">15</text>
		<text transform="matrix(1 0 0 1 184.2632 83.3008)" fill="#FFFFFF" font-family="'MyriadPro-Regular'" font-size="12">15</text>
		
			<text transform="matrix(1 0 0 1 196.5742 83.3008)" fill="none" stroke="#65B724" stroke-width="0.5" font-family="'MyriadPro-Regular'" font-size="12">  </text>
		<text transform="matrix(1 0 0 1 201.6621 83.3008)" fill="#588431" font-family="'MyriadPro-Regular'" font-size="12">16  17</text>
		<text transform="matrix(1 0 0 1 201.6621 83.3008)" fill="#65B724" font-family="'MyriadPro-Regular'" font-size="12">16  17</text>
		<text transform="matrix(1 0 0 1 114.665 102.7012)" fill="#588431" font-family="'MyriadPro-Regular'" font-size="12">18  19  20  21</text>
		<text transform="matrix(1 0 0 1 114.665 102.7012)" fill="#65B724" font-family="'MyriadPro-Regular'" font-size="12">18  19  20  21</text>
		
			<text transform="matrix(1 0 0 1 179.1748 102.7012)" fill="none" stroke="#65B724" stroke-width="0.5" font-family="'MyriadPro-Regular'" font-size="12">  </text>
		<text transform="matrix(1 0 0 1 184.2632 102.7012)" fill="#FFFFFF" font-family="'MyriadPro-Regular'" font-size="12">22</text>
		<text transform="matrix(1 0 0 1 184.2632 102.7012)" fill="#FFFFFF" font-family="'MyriadPro-Regular'" font-size="12">22</text>
		
			<text transform="matrix(1 0 0 1 196.5742 102.7012)" fill="none" stroke="#65B724" stroke-width="0.5" font-family="'MyriadPro-Regular'" font-size="12">  </text>
		<text transform="matrix(1 0 0 1 201.6621 102.7012)" fill="#588431" font-family="'MyriadPro-Regular'" font-size="12">23  24</text>
		<text transform="matrix(1 0 0 1 201.6621 102.7012)" fill="#65B724" font-family="'MyriadPro-Regular'" font-size="12">23  24</text>
		<text transform="matrix(1 0 0 1 114.665 122.1006)" fill="#588431" font-family="'MyriadPro-Regular'" font-size="12">25  26  27  28</text>
		<text transform="matrix(1 0 0 1 114.665 122.1006)" fill="#65B724" font-family="'MyriadPro-Regular'" font-size="12">25  26  27  28</text>
		
			<text transform="matrix(1 0 0 1 179.1748 122.1006)" fill="none" stroke="#65B724" stroke-width="0.5" font-family="'MyriadPro-Regular'" font-size="12">  </text>
		<text transform="matrix(1 0 0 1 184.2632 122.1006)" fill="#FFFFFF" font-family="'MyriadPro-Regular'" font-size="12">29</text>
		<text transform="matrix(1 0 0 1 184.2632 122.1006)" fill="#FFFFFF" font-family="'MyriadPro-Regular'" font-size="12">29</text>
		
			<text transform="matrix(1 0 0 1 196.5742 122.1006)" fill="none" stroke="#65B724" stroke-width="0.5" font-family="'MyriadPro-Regular'" font-size="12">  </text>
		<text transform="matrix(1 0 0 1 201.6621 122.1006)" fill="#588431" font-family="'MyriadPro-Regular'" font-size="12">30  31</text>
		<text transform="matrix(1 0 0 1 201.6621 122.1006)" fill="#65B724" font-family="'MyriadPro-Regular'" font-size="12">30  31</text>
	</g>
</g>
<rect fill="none" width="378" height="137.833"/>
</svg>
