<?xml version="1.0" encoding="iso-8859-1"?>
<!-- Generator: Adobe Illustrator 13.0.0, SVG Export Plug-In . SVG Version: 6.00 Build 14948)  -->
<!DOCTYPE svg PUBLIC "-//W3C//DTD SVG 1.1//EN" "http://www.w3.org/Graphics/SVG/1.1/DTD/svg11.dtd">
<svg version="1.1" xmlns="http://www.w3.org/2000/svg" xmlns:xlink="http://www.w3.org/1999/xlink" x="0px" y="0px" width="378px"
	 height="140px" viewBox="0 0 378 140" style="enable-background:new 0 0 378 140;" xml:space="preserve">
<g id="fond">
	<g>
		<rect style="fill:#FFFFFF;" width="378" height="140"/>
	</g>
</g>
<g id="scene">
	
		<line style="fill:none;stroke:#D6D4D2;stroke-width:0.8813;stroke-linecap:round;stroke-linejoin:round;" x1="15.5" y1="113.312" x2="366.807" y2="113.312"/>
	
		<line style="fill:none;stroke:#D6D4D2;stroke-width:0.8424;stroke-linecap:round;stroke-linejoin:round;" x1="330.581" y1="10.5" x2="366.65" y2="10.5"/>
	
		<line style="fill:none;stroke:#D6D4D2;stroke-width:0.8424;stroke-linecap:round;stroke-linejoin:round;" x1="330.581" y1="10.5" x2="330.581" y2="113.312"/>
	
		<line style="fill:none;stroke:#D6D4D2;stroke-width:0.7382;stroke-linecap:round;stroke-linejoin:round;" x1="330.581" y1="18.9" x2="249.803" y2="18.9"/>
	
		<line style="fill:none;stroke:#D6D4D2;stroke-width:0.7382;stroke-linecap:round;stroke-linejoin:round;" x1="249.803" y1="113.312" x2="249.803" y2="18.9"/>
	<polyline style="fill:none;stroke:#D6D4D2;stroke-width:0.8424;stroke-linecap:round;stroke-linejoin:round;" points="
		249.803,33.5 214.5,33.5 214.5,19.25 153.25,19.25 153.25,113 	"/>
	<polyline style="fill:none;stroke:#D6D4D2;stroke-width:0.8424;stroke-linecap:round;stroke-linejoin:round;" points="153.25,26.5 
		88,26.5 88,113.312 	"/>
	<polyline style="fill:none;stroke:#D6D4D2;stroke-width:0.8813;stroke-linecap:round;stroke-linejoin:round;" points="88,26.5 
		88,10.75 15.5,10.75 	"/>
</g>
<g id="MAN">
	<g>
		<g>
			<path style="fill:#FFFFFF;stroke:#7E7A64;stroke-width:1.6849;stroke-linecap:round;stroke-linejoin:round;" d="M170.246,53.028
				c0,4.279,2.653,7.747,5.916,7.747c3.263,0,5.918-3.468,5.918-7.747c0-4.277-2.655-7.745-5.918-7.745
				C172.899,45.283,170.246,48.751,170.246,53.028z"/>
			<path style="fill:none;stroke:#7E7A64;stroke-width:1.6849;stroke-linecap:round;stroke-linejoin:round;" d="M176.014,61.083
				c0.005,0.966-0.542,22.321,0.308,26.584c0.576,2.878,0.953,3.428,0.935,4.983"/>
		</g>
	</g>
	<path style="fill:none;stroke:#7E7A65;stroke-width:1.05;stroke-linecap:round;stroke-linejoin:round;" d="M175.596,65.029
		c-9.409,9.409-12.104,8.173-19.894-0.591"/>
</g>
<g id="WOMAN">
	<g>
		<path style="fill:#FFFFFF;stroke:#7E7A64;stroke-width:1.05;stroke-linecap:round;stroke-linejoin:round;" d="M130.103,55.006
			c0,4.248,2.626,7.686,5.869,7.686c3.24,0,5.87-3.438,5.87-7.686c0-4.242-2.63-7.683-5.87-7.683
			C132.729,47.323,130.103,50.764,130.103,55.006z"/>
		<path style="fill:none;stroke:#7E7A64;stroke-width:1.05;stroke-linecap:round;stroke-linejoin:round;" d="M135.972,62.973
			c0.009,1.351-0.038,3.433-0.089,5.837l-0.085,4.312c-0.09,5.42-0.077,11.224,0.456,13.885"/>
	</g>
</g>
<g id="Layer_5">
	<path style="fill:#F7D75E;" d="M35.531,74.791c4.612-2.847,53.498-0.605,56.146-2.883c1.219-1.05,10.703-18.365,14.094-22.551
		c5.56-6.855,9.452-5.691,18.695-5.691c27.564,0,76.449,0.013,70.746,0.008c5.114,0,17.819,24.621,19.198,26.293
		c4.197,5.109,26.446,2.575,35.403,6.822c7.085,3.362,9.354,26.628,5.457,36.23c-3.262,2.004-102.636,3.087-111.767,3.087l0,0
		c-4.744-0.706-100.482,0.038-101.603-5.665c-0.824-4.197-1.398-8.335-2.022-12.544c-0.613-4.178-2.366-6.757-3.77-10.197
		C34.381,83.474,35.559,79.271,35.531,74.791 M101.489,74.738c6.995,0,44.423,0,44.423,0c0.907,0,1.639-0.733,1.639-1.64v-21.67
		c0-0.903-0.731-1.641-1.639-1.641c0,0-24.616,0-29.914,0C110.698,49.788,94.506,74.738,101.489,74.738z M187.266,49.788
		c-5.3,0-29.922,0-29.922,0c-0.908,0-1.642,0.738-1.642,1.641v21.67c0,0.906,0.733,1.64,1.642,1.64c0,0,37.437,0,44.423,0
		C208.749,74.738,192.567,49.788,187.266,49.788z"/>
	<path style="fill:none;stroke:#7E7A65;stroke-width:1.05;stroke-linecap:round;stroke-linejoin:round;" d="M175.938,65.437
		c0,0-0.608,0.967-1.544,2.282c-1.988,2.793-5.454,7.157-7.707,7.157c-4.188,0-11.375-4.516-10.875-4.062"/>
	<polygon style="fill:#F7D75E;stroke:#F7D75E;stroke-width:2.1824;stroke-linecap:round;stroke-linejoin:round;" points="
		140.149,44.638 146.564,34.89 152.975,44.638 	"/>
	<g>
		<circle style="fill:#999999;" cx="72.536" cy="117.027" r="17.681"/>
		<path style="fill:#FFFFFF;" d="M82.76,117.027c0,5.64-4.578,10.218-10.224,10.218c-5.646,0-10.224-4.578-10.224-10.218
			c0-5.644,4.578-10.222,10.224-10.222C78.182,106.806,82.76,111.384,82.76,117.027z"/>
	</g>
	<g>
		<circle style="fill:#999999;" cx="213.683" cy="117.027" r="17.681"/>
		<path style="fill:#FFFFFF;" d="M223.907,117.027c0,5.64-4.578,10.218-10.224,10.218c-5.646,0-10.224-4.578-10.224-10.218
			c0-5.644,4.577-10.222,10.224-10.222C219.329,106.806,223.907,111.384,223.907,117.027z"/>
	</g>
</g>
<g id="Layer_8">
	<path style="fill:#FFFFFF;stroke:#7E7A65;stroke-width:0.3924;stroke-linecap:round;stroke-linejoin:round;" d="M157.511,71.851
		c-1.866,0.386-3.938-0.706-5.563-1.889c1.536,0.322,2.16,0.145,2.568,0.43c-0.262-0.221-2.07-1.691-2.276-1.939
		c0.396-0.033,2.463,0.915,2.773,1.201c-0.3-0.316-1.648-1.607-1.756-2.057c0.446,0.1,2.933,1.941,2.65,0.295
		c1.594,1.723,1.745,3.25,1.664,3.895L157.511,71.851z"/>
	<path style="fill:none;stroke:#7E7A64;stroke-width:0.4;stroke-linecap:round;stroke-linejoin:round;" d="M178.833,51.007
		c0.134,0.447-0.942,3.146-1.063,3.485c-0.432,1.208,0.068,2.235,0.52,2.441c0.995,0.453,1.836-0.768,1.655-1.915
		C179.838,54.343,178.833,51.007,178.833,51.007z"/>
</g>
<g id="vitesse">
	
		<line style="fill:none;stroke:#7E7A65;stroke-width:1.05;stroke-linecap:round;stroke-linejoin:round;" x1="266.75" y1="103.875" x2="321" y2="103.875"/>
	
		<line style="fill:none;stroke:#7E7A65;stroke-width:1.05;stroke-linecap:round;stroke-linejoin:round;" x1="267.625" y1="89.25" x2="344.625" y2="89.25"/>
	
		<line style="fill:none;stroke:#7E7A65;stroke-width:1.05;stroke-linecap:round;stroke-linejoin:round;" x1="240.125" y1="64.25" x2="301" y2="64.25"/>
	
		<line style="fill:none;stroke:#7E7A65;stroke-width:1.05;stroke-linecap:round;stroke-linejoin:round;" x1="226.375" y1="44.875" x2="356.875" y2="44.875"/>
</g>
</svg>
