<?xml version="1.0" encoding="utf-8"?>
<!-- Generator: Adobe Illustrator 16.0.0, SVG Export Plug-In . SVG Version: 6.00 Build 0)  -->
<!DOCTYPE svg PUBLIC "-//W3C//DTD SVG 1.1//EN" "http://www.w3.org/Graphics/SVG/1.1/DTD/svg11.dtd">
<svg version="1.1" id="Calque_1" xmlns="http://www.w3.org/2000/svg" xmlns:xlink="http://www.w3.org/1999/xlink" x="0px" y="0px"
	 width="378px" height="140px" viewBox="0 0 378 140" enable-background="new 0 0 378 140" xml:space="preserve">
<g id="Layer_2">
	<g>
		<rect y="-1" fill="none" width="378" height="140"/>
		<rect y="-1" fill="#FFFFFF" width="378" height="140"/>
	</g>
</g>
<g id="Layer_3">
	<g>
		<path fill="#65B724" d="M147.376,123.547c0,1.171-0.694,2.119-1.549,2.119h-12.776c-0.855,0-1.549-0.948-1.549-2.119V32.451
			c0-1.169,0.694-2.118,1.549-2.118h12.776c0.855,0,1.549,0.949,1.549,2.118V123.547z"/>
		<rect x="102.666" y="1.333" fill="none" stroke="#383838" stroke-width="1.0242" width="174.667" height="135.667"/>
		
			<text transform="matrix(1 0 0 1 115.665 43.668)" fill="#65B724" font-family="'MyriadPro-Regular'" font-size="12" letter-spacing="33">  </text>
		
			<text transform="matrix(1 0 0 1 115.665 43.668)" fill="none" stroke="#FF9934" stroke-width="0.5" font-family="'MyriadPro-Regular'" font-size="12" letter-spacing="33">  </text>
		<text transform="matrix(1 0 0 1 187.665 43.668)" fill="#65B724" font-family="'MyriadPro-Regular'" font-size="12">   </text>
		
			<text transform="matrix(1 0 0 1 187.665 43.668)" fill="none" stroke="#FF9934" stroke-width="0.5" font-family="'MyriadPro-Regular'" font-size="12">   </text>
		
			<text transform="matrix(1 0 0 1 180.2969 43.668)" fill="none" stroke="#6C9945" stroke-width="0.5" font-family="'MyriadPro-Regular'" font-size="12"> </text>
		<text transform="matrix(1 0 0 1 182.8408 43.668)" fill="#65B724" font-family="'MyriadPro-Regular'" font-size="12"> 01  02  03</text>
		<text transform="matrix(1 0 0 1 182.8408 43.668)" fill="#65B724" font-family="'MyriadPro-Regular'" font-size="12"> 01  02  03</text>
		<text transform="matrix(1 0 0 1 115.665 63.0684)" fill="#65B724" font-family="'MyriadPro-Regular'" font-size="12">04</text>
		<text transform="matrix(1 0 0 1 115.665 63.0684)" fill="#65B724" font-family="'MyriadPro-Regular'" font-size="12">04</text>
		
			<text transform="matrix(1 0 0 1 127.9771 63.0684)" fill="none" stroke="#65B724" stroke-width="0.5" font-family="'MyriadPro-Regular'" font-size="12">  </text>
		<text transform="matrix(1 0 0 1 133.064 63.0684)" fill="#FFFFFF" font-family="'MyriadPro-Regular'" font-size="12">05</text>
		<text transform="matrix(1 0 0 1 133.064 63.0684)" fill="#FFFFFF" font-family="'MyriadPro-Regular'" font-size="12">05</text>
		
			<text transform="matrix(1 0 0 1 145.376 63.0684)" fill="none" stroke="#65B724" stroke-width="0.5" font-family="'MyriadPro-Regular'" font-size="12">  </text>
		<text transform="matrix(1 0 0 1 150.4639 63.0684)" fill="#65B724" font-family="'MyriadPro-Regular'" font-size="12">06  07  08  09  10</text>
		<text transform="matrix(1 0 0 1 150.4639 63.0684)" fill="#65B724" font-family="'MyriadPro-Regular'" font-size="12">06  07  08  09  10</text>
		<text transform="matrix(1 0 0 1 115.665 82.4678)" fill="#65B724" font-family="'MyriadPro-Regular'" font-size="12">11</text>
		<text transform="matrix(1 0 0 1 115.665 82.4678)" fill="#65B724" font-family="'MyriadPro-Regular'" font-size="12">11</text>
		
			<text transform="matrix(1 0 0 1 127.9771 82.4678)" fill="none" stroke="#65B724" stroke-width="0.5" font-family="'MyriadPro-Regular'" font-size="12">  </text>
		<text transform="matrix(1 0 0 1 133.064 82.4678)" fill="#FFFFFF" font-family="'MyriadPro-Regular'" font-size="12">12</text>
		<text transform="matrix(1 0 0 1 133.064 82.4678)" fill="#FFFFFF" font-family="'MyriadPro-Regular'" font-size="12">12</text>
		
			<text transform="matrix(1 0 0 1 145.376 82.4678)" fill="none" stroke="#65B724" stroke-width="0.5" font-family="'MyriadPro-Regular'" font-size="12">  </text>
		<text transform="matrix(1 0 0 1 150.4639 82.4678)" fill="#65B724" font-family="'MyriadPro-Regular'" font-size="12">13  14  15  16  17</text>
		<text transform="matrix(1 0 0 1 150.4639 82.4678)" fill="#65B724" font-family="'MyriadPro-Regular'" font-size="12">13  14  15  16  17</text>
		<text transform="matrix(1 0 0 1 115.665 101.8682)" fill="#65B724" font-family="'MyriadPro-Regular'" font-size="12">18</text>
		<text transform="matrix(1 0 0 1 115.665 101.8682)" fill="#65B724" font-family="'MyriadPro-Regular'" font-size="12">18</text>
		
			<text transform="matrix(1 0 0 1 127.9771 101.8682)" fill="none" stroke="#65B724" stroke-width="0.5" font-family="'MyriadPro-Regular'" font-size="12">  </text>
		<text transform="matrix(1 0 0 1 133.064 101.8682)" fill="#FFFFFF" font-family="'MyriadPro-Regular'" font-size="12">19</text>
		<text transform="matrix(1 0 0 1 133.064 101.8682)" fill="#FFFFFF" font-family="'MyriadPro-Regular'" font-size="12">19</text>
		
			<text transform="matrix(1 0 0 1 145.376 101.8682)" fill="none" stroke="#65B724" stroke-width="0.5" font-family="'MyriadPro-Regular'" font-size="12">  </text>
		<text transform="matrix(1 0 0 1 150.4639 101.8682)" fill="#65B724" font-family="'MyriadPro-Regular'" font-size="12">20  21  22  23  24</text>
		<text transform="matrix(1 0 0 1 150.4639 101.8682)" fill="#65B724" font-family="'MyriadPro-Regular'" font-size="12">20  21  22  23  24</text>
		<text transform="matrix(1 0 0 1 115.665 121.2676)" fill="#65B724" font-family="'MyriadPro-Regular'" font-size="12">25</text>
		<text transform="matrix(1 0 0 1 115.665 121.2676)" fill="#65B724" font-family="'MyriadPro-Regular'" font-size="12">25</text>
		
			<text transform="matrix(1 0 0 1 127.9771 121.2676)" fill="none" stroke="#65B724" stroke-width="0.5" font-family="'MyriadPro-Regular'" font-size="12">  </text>
		<text transform="matrix(1 0 0 1 133.064 121.2676)" fill="#FFFFFF" font-family="'MyriadPro-Regular'" font-size="12">26</text>
		<text transform="matrix(1 0 0 1 133.064 121.2676)" fill="#FFFFFF" font-family="'MyriadPro-Regular'" font-size="12">26</text>
		
			<text transform="matrix(1 0 0 1 145.376 121.2676)" fill="none" stroke="#65B724" stroke-width="0.5" font-family="'MyriadPro-Regular'" font-size="12">  </text>
		<text transform="matrix(1 0 0 1 150.4639 121.2676)" fill="#65B724" font-family="'MyriadPro-Regular'" font-size="12">27  28  29  30  31</text>
		<text transform="matrix(1 0 0 1 150.4639 121.2676)" fill="#65B724" font-family="'MyriadPro-Regular'" font-size="12">27  28  29  30  31</text>
	</g>
</g>
</svg>
