<?xml version="1.0" encoding="iso-8859-1"?>
<!-- Generator: Adobe Illustrator 13.0.0, SVG Export Plug-In . SVG Version: 6.00 Build 14948)  -->
<!DOCTYPE svg PUBLIC "-//W3C//DTD SVG 1.1//EN" "http://www.w3.org/Graphics/SVG/1.1/DTD/svg11.dtd">
<svg version="1.1" xmlns="http://www.w3.org/2000/svg" xmlns:xlink="http://www.w3.org/1999/xlink" x="0px" y="0px" width="378px"
	 height="140px" viewBox="0 0 378 140" style="enable-background:new 0 0 378 140;" xml:space="preserve">
<g id="Layer_2">
	<g>
		<rect style="fill:none;" width="378" height="140"/>
		<rect style="fill:#FFFFFF;" width="378" height="140"/>
	</g>
</g>
<g id="Layer_4">
	<rect x="121.087" y="2.5" style="fill:none;" width="135" height="135"/>
	<path style="fill:#406FA9;" d="M256.087,125.965c0,6.369-5.166,11.535-11.539,11.535H132.626c-6.375,0-11.539-5.166-11.539-11.535
		V14.042c0-6.375,5.164-11.541,11.539-11.541h111.922c6.373,0,11.539,5.166,11.539,11.541V125.965z"/>
	<path style="fill:#FFFFFF;" d="M250.602,121.416c0,5.852-4.746,10.598-10.599,10.598H137.174c-5.855,0-10.602-4.746-10.602-10.598
		V18.584c0-5.855,4.746-10.598,10.602-10.598h102.829c5.853,0,10.599,4.742,10.599,10.598V121.416z"/>
</g>
<g id="Layer_3">
	<g>
		<g>
			<path style="fill:#3F6EA8;" d="M236.5,107.863c0,2.742-2.225,4.965-4.968,4.965l-54.053-0.121c-2.223,0-2.223-0.396-2.223-2.068
				v-81.5c0-1.766,0.199-1.967,2.223-1.967h54.053c2.743,0,4.968,2.225,4.968,4.967V107.863z"/>
		</g>
		<g>
			<path style="fill:none;stroke:#FFFFFF;stroke-width:1.2411;stroke-linecap:round;stroke-linejoin:round;" d="M182.422,31.969"/>
			<path style="fill:none;stroke:#FFFFFF;stroke-width:1.2411;stroke-linecap:round;stroke-linejoin:round;" d="M181.708,33.754
				c-3.057,2.119-3.026-3.932-1.179-2.951"/>
			<path style="fill:none;stroke:#FFFFFF;stroke-width:1.2411;stroke-linecap:round;stroke-linejoin:round;" d="M189.678,32.133
				c0.02-0.102,0.146-0.164-0.025-0.42c-0.271-0.086-0.714-0.061-0.988-0.008c-0.022,0.586,0.065,1.143,0.129,1.727
				c0.024-0.76,0.103-1.551-0.589-1.891"/>
			<path style="fill:none;stroke:#FFFFFF;stroke-width:1.2411;stroke-linecap:round;stroke-linejoin:round;" d="M192.483,31.838
				c-0.835-0.018-3.54,0.297-2.283,1.518c1.22,1.182,2.312-0.588,3.203-0.916c1.136-0.42,2.418,0.291,3.595,0.666
				c0.583,0.184,2.263,0.98,2.849,0.455c0.81-0.727-0.101-2.09-1.074-1.979c0.571,0.09,1.172,0.02,1.748,0.01
				c0.085,0.326,0.238,0.789,0.198,1.133c0.648-0.158,0.945-0.871,1.179-1.314c0.565,0.871,0.131,2.277,1.212,2.494
				c1.438,0.287,1.501-1.359,0.196-1.662c0.281-0.133,0.819-0.223,1.142-0.244c0.02,0.219,0.155,0.383,0.118,0.674
				c0.61-0.527,1.284-1.316,2.073-0.709c-0.497-0.08-0.767,0.66-0.892,1.34c0.118,0.41,0.095-0.018,0.165,0.008"/>
			<path style="fill:none;stroke:#FFFFFF;stroke-width:1.2411;stroke-linecap:round;stroke-linejoin:round;" d="M183.478,32.87
				c0.013-0.664,0.533-0.98,1.202-1.021c1.086,0.996-0.784,1.594-0.176,2.51c0.869,1.307,1.327-1.939,0.658-2.807
				c0.666,0.854,2.647-0.117,2.157,2.057"/>
			<path style="fill:none;stroke:#FFFFFF;stroke-width:1.2411;stroke-linecap:round;stroke-linejoin:round;" d="M211.225,30.067
				c0.022,0.014,0.15-0.178-0.005,0.277c-0.204,0.023-0.397-0.021-0.583-0.129"/>
			<path style="fill:none;stroke:#FFFFFF;stroke-width:1.2411;stroke-linecap:round;stroke-linejoin:round;" d="M209.16,33.608
				c0.662,0.031,1.172,0.023,1.725-0.307c-0.736-0.051-1.493,0.066-2.169,0.307"/>
			<path style="fill:none;stroke:#FFFFFF;stroke-width:1.2411;stroke-linecap:round;stroke-linejoin:round;" d="M208.716,31.542
				c0.067-0.182,0.118-0.367,0.15-0.559c0.053,0.023,0.229,0.076,0.271,0.096c0.136-0.254-0.077-0.16-0.128-0.275"/>
			<path style="fill:none;stroke:#FFFFFF;stroke-width:1.2411;stroke-linecap:round;stroke-linejoin:round;" d="M211.375,31.69
				c0.136-0.117,0.289-0.168,0.461-0.152c0.15,0.768,0.331,1.623,0.561,2.348c0.392-0.293,0.992-0.707,1.611-0.551
				c-0.048,0.49,0.053,0.527-0.247,0.852c-0.083-0.568,0.225-0.502,0.566-0.727"/>
			<path style="fill:none;stroke:#FFFFFF;stroke-width:1.2411;stroke-linecap:round;stroke-linejoin:round;" d="M222.738,32.133
				c-0.176-0.205-0.256-0.4-0.562-0.426c-0.367,0.623-0.008,1.408,0.088,2.037c-0.104-0.564,0.141-1.363-0.153-2.047
				c-0.105,0.492-0.312,1.201-0.86,1.455c-0.018-0.316-0.304-0.805-0.312-1.154c-0.184-0.045-0.47-0.049-0.658-0.02
				c1.37,1.17-0.654,2.334-1.635,2.523c1.991-0.064,0.171-2.916,0.425-3.541c0.76,0.273,0.637,0.971,0.046,1.238
				c0.045-2.576-1.597,0.516-1.871,0.822c-0.356,0.4-0.655,0.984-1.31,0.752c-1.664-0.604,0.604-1.779,0.616-1.697
				c-0.393-2.264-2.152,0.689-3.077-0.525c0,0.234-0.058,0.447,0,0.684c0.148-0.285,0.091-0.518,0.113-0.842"/>
			<path style="fill:none;stroke:#FFFFFF;stroke-width:1.2411;stroke-linecap:round;stroke-linejoin:round;" d="M231.885,31.838
				c-2.806-0.453-0.397,4.168,0.153,0.961c0.467-2.711-2.434-0.961-2.512,1.062c-0.035-0.717-0.065-1.473,0.123-2.139
				c-0.216-0.275-0.646-0.533-0.976-0.609c-0.968,1.055-0.224,2.012,0.136,2.92c-0.533,0.002-1.82-0.174-2.129-0.682
				c-0.48-0.789,0.439-1.137,0.764-1.945c-0.267,0.061-0.754,0.301-1.005,0.467c0.5,0.5,1.058,1.066,0.847,1.855
				c-1.608,0.805-2.675-0.846-2.383-2.062c-0.98-0.115-1.167,1.398-1.001,2.195c-0.339-0.133-0.319-0.311-0.427-0.551"/>
			<path style="fill:none;stroke:#FFFFFF;stroke-width:1.2411;stroke-linecap:round;stroke-linejoin:round;" d="M184.956,39.807
				c0.669-0.816,0.101-2.559,0.141-3.277c0.086,0.727,0.284,1.498,0.739,2.084c0.219-0.25,0.736-0.475,1.016-0.717
				c0.169,0.799-0.297,1.479-0.402,2.215c0.292-0.01,0.774,0.234,1.142,0.158c-0.065,0.451-0.075,0.814-0.407,1.188
				c0.067-0.678,0.229-1.373,0.714-1.818c0.158,0.154,0.433,0.273,0.573,0.475c0.045-0.721-0.061-1.482-0.402-2.08
				c0.634-0.268,1.287-0.996,0.433-1.309c0.89,0.533,0.93,1.502,0.905,2.471c1.553-0.111,0.195,2.24-0.835,1.094
				c0.548-1.004,1.945-0.5,1.729,0.686c0.621-0.424,1.137-2.467,0.423-2.381c0.769-0.094,1.056,0.432,0.874,1.178
				c0.011-0.607-0.088-1.301,0.146-1.76c0.271,0.578,0.125,1.514,0.178,2.238c0.402-0.709,0.878-1.432,1.718-1.75
				c-0.342,0.674-0.998,1.232-1.142,2.025c0.407,0.016,0.915,0.086,1.196,0.076c0.131-0.246,0.546-0.473,0.674-0.744
				c0.177,0.08,0.468,0.156,0.604,0.221c-0.138-0.604-0.719-1.064-1.265-1.422c1.486-0.08,2.202,0.463,2.014,1.99
				c0.34-0.859-0.425-2.012-0.875-2.715c0.443-0.348,0.843-0.746,1.275-1.098c-0.621,0.695-0.483,1.883-0.134,2.688
				c0.626,1.424,1.041,1.004,2.354,0.721c-0.388,0.164-0.501,0.164-0.857,0.404c0.244-0.568,0.008-1.141-0.246-1.684
				c-0.39,2.162,1.888,1.645,2.795,0.553c-0.337-0.355-0.599-0.797-0.752-1.268c0.498,1.484-0.294,1.363,1.028,1.846
				c0.621,0.227,1.263,0.654,1.303-0.264c-0.187,0.09-0.473,0.139-0.689,0.256c0.121-0.695,0.297-1.701,0.83-2.189
				c0.158,1.451,0.305,2.865,0.752,4.258c-0.35-0.289-0.734-0.518-1.145-0.748c-0.07-1.188,0.702-2.625,2.037-2.506
				c-0.242-0.357-0.335-0.814-0.685-1.139c1.798-0.059,1.059,1.428,0.853,2.475c0.231-0.027,0.465-0.074,0.682-0.197
				c-0.166,0.17-0.201,0.25-0.4,0.361c-0.479-0.508-0.535-1.24-0.417-1.9c1.768-0.326,1.687,0.432,1.322,1.719
				c1.049,0.479,2.349-1.191,0.87-1.631c0.362,0.123,0.968,0.219,1.453,0.053c0.093,0.805-0.279,1.734-0.84,2.268
				c-0.008-0.076-0.035-0.633-0.025-0.365"/>
			<path style="fill:none;stroke:#FFFFFF;stroke-width:1.2411;stroke-linecap:round;stroke-linejoin:round;" d="M209.16,40.692
				c-0.219,0.18-0.304,0.176-0.259-0.01c0.254-0.381,0.559-0.744,0.812-1.125c0.083,0.285,0.402,0.512,0.479,0.676
				c0.729-0.559,1.063-1.248,1.054-2.176c0.144-0.059,0.691-0.16,0.835-0.154c0.179,0.447,0.244,0.947,0.198,1.439
				c0.45-0.193,0.433,0.084,0.805-0.377c-0.362,0.727-0.397,1.506-1.076,2.029c0.581,0,1.177-0.238,1.704-0.475
				c0.063-0.361,0.059-0.695-0.12-0.996c-0.144,0.104-0.314,0.219-0.476,0.379c0.566-0.6,1.685-0.924,1.614,0.191
				c-0.196-0.611-0.062-1.576-0.238-2.32c0.653,0.467,0.922,1.26,0.57,1.994c1.571,1.496,2.094-1.564,0.636-1.287
				c0.648-0.01,1.215-0.318,1.854-0.271c-0.068,0.193-0.169,0.627-0.284,0.814c0.246-0.689,0.112-1.475-0.146-2.117
				c-0.07,0.281,0.123,0.418,0.153,0.537"/>
			<path style="fill:none;stroke:#FFFFFF;stroke-width:1.2411;stroke-linecap:round;stroke-linejoin:round;" d="M219.787,38.625
				c-0.101-0.971-0.98-0.902-1.455-0.154c-0.461,0.736,0.671,1.516-0.44,2.061c0.206-0.438,0.817-0.537,1.431-0.412
				c-0.07,0.281,0.113,0.713,0.043,0.992c0.146,0.039,0.283-0.012,0.422,0.023"/>
			<path style="fill:none;stroke:#FFFFFF;stroke-width:1.2411;stroke-linecap:round;stroke-linejoin:round;" d="M221.261,40.102
				c-0.254-0.238-0.501-0.488-0.72-0.76c0.455,0.033,1.391,0.465,1.328,1.455c1.659-1.07-0.244-3.756-1.046-2.182
				c1.991-1.084,1.038,0.664,2.325,1.174c0.372-0.318,0.593-0.791,0.604-1.254c-0.267-0.002-0.274,0.01-0.53,0.096
				c1.971-0.221,0.829,1.527,0.427,2.312c0.634-1.312,3.01-0.033,3.5-1.453c0.409-1.182-1.434-1.682-1.886-1.068
				c2.534-1.455,1.8,1.559,3.366,1.805c-0.03-0.342-0.289-0.244-0.433-0.42"/>
		</g>
		<path style="fill:#FFFFFF;stroke:#FFFFFF;stroke-width:0.6204;stroke-linecap:round;stroke-linejoin:round;" d="M199.567,58.106
			c-0.126-0.518-0.236-1.078-0.41-1.551c0.003,0.906,0.003,2.23-1.04,2.424c-0.156-0.498-0.27-0.984-0.34-1.508
			c0.139,1.189,0.307,2.42,0.442,3.572c-0.521-0.043-0.746,0.043-1.146-0.264c0.594,0.582,1.632,0.309,1.486-0.678
			c0.085,0.355,0.409,0.811,0.525,1.1c0.221-0.689,0.603-1.242,1.345-1.197c0.008-0.078-0.013-0.328,0.022-0.381
			c-0.013,0.58-0.056,1.195,0.136,1.703c0.599-0.641,1.335-1.957,2.069-0.592c-2.984-0.184-1.393,2.543-0.158,1.221
			c-0.325,2.969-2.59,0.273-3.347-0.287c-0.027,0.408-0.367,0.74-0.457,1.049c-0.39-0.205-0.838-0.506-1.063-0.908
			c0.238,0.664,0.356,1.451,0.186,2.16c-0.53-0.279-0.995-0.621-1.229-1.129c-1.03,0.799-0.04,2.012,1.194,1.459
			c0.013,2.35-1.921,2.121-1.514,0.814c0.418,0.254,0.845,0.879,0.656,1.402c-0.444,1.234-0.933,0.08-1.377-0.006
			c-0.621-0.115-1.886,0.105-1.493-0.879c0.746,1.287,1.795,1.25,2.798,1.895c-0.53,0.348-1.111,0.533-1.624,0.885
			c0.764,0.508,0.535,1.107-0.247,1.379c-0.425-0.775-1.191-0.875-1.354-1.779c-0.227,0.176-0.425,0.447-0.523,0.695
			c2.323-0.018,3.607-0.199,2.037,2.322c0.439,0.039,0.807,0.42,1.062,0.521c-0.15,0.125-0.246,0.332-0.329,0.412
			c1.685-0.49,0.784,0.043,1.777,0.588c0.543,0.303,0.508,0.848,1.308,0.309c0.321,0.879-0.671,1.531-1.322,1.949
			c-0.264-0.352-0.722-0.654-1.001-1.008c0.335,0.871,2.301,1.916,3.06,1.025c0.053,1.812-1.543,1.377-2.393,2.318
			c0.211-0.586,2.209-1.139,2.815-1.008c0.746,0.16,0.802,0.893,1.77,0.871c0.724-0.014,1.448-0.213,1.111-0.938
			c-0.399,0.182-0.754,0.436-0.983,0.816c1.139,0.131,3.168-1.633,2.758,0.586c-0.213,1.146-1.53,1.75,0.485,2.473
			c0.161-0.506,0.257-1.092,0.618-1.457c0.662,1.094,1.137,2.289-0.107,2.92c0.805-0.436,1.078-1.416,1.893-1.857
			c1.386,2.602,2.743-1.221-0.439-0.484c-0.305-0.941,0.769-1.826,1.324-2.523c-0.032,0.279,0.063,0.619,0.043,0.895
			c0.787-0.334,0.604-1.211,0.548-1.949c0.933,0.504,0.968,1.291,1.114,2.207c0.146-0.129,0.385-0.27,0.5-0.391
			c-0.088,0.527-0.075,0.707-0.478,1.121c0.933-0.787,3.004-1.232,2.745-2.742c0.438,0.27,0.613,0.756,0.591,1.334
			c0.593-0.236,1.26-0.326,1.314,0.504c-0.249-0.719-0.379-1.516-0.286-2.27c0.687-0.154,1.327-0.672,0.925-1.32
			c0.038-0.076,0.101-0.105,0.184-0.098c-1.33,0-1.792-1.092-1.111-2.096c-0.425,0.529-0.88,1.031-1.44,1.389
			c-0.485-0.648-0.706-1.467-0.693-2.266c1.455-1.105,1.068,0.096,1.85,0.391c0.704,0.266,1.234-0.166,2.044,0.395
			c0.151-1.131,1.089-1.188,1.622-0.42c0.211-0.492,0.208-1.082,0.02-1.591c-1.262,0.141-2.517,0.137-3.806,0.111
			c-0.051-1.057,1.378-1.715,2.036-2.496c0.923,1.385,1.857,1.043,2.889,0.012c0.115,0.182,0.262,0.357,0.352,0.551
			c0.03-0.707-0.273-1.365-1.033-1.16c-0.254-0.625-0.193-0.781,0.377-1.02c-1.307,0.223-2.763-0.83-2.483-2.193
			c-1.483,0.303-2.398,0.801-3.942,0.248c0.076-0.674,0.602-1.334,1.285-1.432c0.216,1.545,1.267,0.5,1.91-0.002
			c0.242,0.594,0.715,0.949,1.335,0.85c0.516-1.061-0.072-2.021-1.247-1.357c-0.366-0.627,0.554-1.236,0.966-1.312
			c-0.404-0.623-1.182-2.125-0.312-2.453c0.072,0.168,0.101,0.332,0.188,0.492c-0.176-1-1.121-1.262-1.222-1.387
			c-0.144,1.107-1.75,3.408-2.517,1.518c-0.611,0.719-1.068,1.453-1.021,2.434c-0.87,0.203-1.438,1.281-1.456,2.191
			c0.046-0.07,0.065-0.26,0.118-0.355c0.176,1.135-0.053,3.137-1.578,2.156c-0.903-0.578-0.983-3.785-0.75-4.895
			c0.297-1.391,1.429-1.215,1.916-2.207c0.425-0.857,0.045-2.268-0.734-2.789c-0.845,0.906-0.278,2.807-2.191,2.951
			c-0.025-0.145-0.023-0.271-0.048-0.414c-0.201,0.273-0.685,0.357-0.938,0.568c-0.266-0.334-0.379-0.586-0.344-1.004
			c0.153-0.004,0.249,0.066,0.392,0.076c0.249-0.447-0.198-0.961-0.238-0.855c0.032-0.088-0.201-0.391-0.156-0.572
			c0.061-0.25,0.631-0.176,0.687-0.324c0.216-0.613,0.915-1.494-0.372-1.748c-0.279,1.137-0.729,2.535-0.347,3.682
			c-0.701,0.035-0.666,0.021-0.893-0.549c-0.774,0.035-1.594,0.664-2.162,1.223c-0.184-0.201-0.674-0.438-0.754-0.533
			c0.125,1.957,3.195,1.23,4.128,0.674c0.15,0.572,0.329,1.041,0.304,1.693c0.191-0.014,0.357-0.045,0.548-0.113
			c-0.062,1.145-1.808,0.893-2.076-0.152c-1.043,0.771-0.902,1.086-0.626,2.014c0.148,0.51,0.923,0.621,0.669,1.264
			c-0.322,0.824-1.187,0.127-1.375-0.477c-0.159,0.275-0.656,0.598-0.812,0.869c-0.369-0.598-0.38-1.342-0.626-1.316"/>
		<path style="fill:none;stroke:#FFFFFF;stroke-width:1.2411;stroke-linecap:round;stroke-linejoin:round;" d="M209.455,38.481
			c0.005-0.635-0.013-1.277,0.022-1.9c0.435-0.182,0.897-0.201,1.307-0.021"/>
		<path style="fill:none;stroke:#FFFFFF;stroke-width:1.2411;stroke-linecap:round;stroke-linejoin:round;" d="M209.16,31.985
			c0.41-0.271,0.923-0.398,1.18-0.295"/>
		<path style="fill:none;stroke:#FFFFFF;stroke-width:1.4892;stroke-linecap:round;stroke-linejoin:round;" d="M189.531,97.365
			c-0.518,0.684-0.296,1.801-0.296,2.656c0,0.443,0,2.188,0,1.77"/>
		<path style="fill:none;stroke:#FFFFFF;stroke-width:1.4892;stroke-linecap:round;stroke-linejoin:round;" d="M191.744,99.137
			c0.385-0.762-0.312-1.416-1.031-1.623"/>
		<path style="fill:none;stroke:#FFFFFF;stroke-width:1.4892;stroke-linecap:round;stroke-linejoin:round;" d="M192.926,101.939
			c-0.065-1.15,0.561-3.154,0.845-4.273c0.628,1.162,0.658,3.145,1.516,3.977"/>
		<path style="fill:none;stroke:#FFFFFF;stroke-width:1.4892;stroke-linecap:round;stroke-linejoin:round;" d="M199.271,98.102
			c-0.604-1.023-2.517-0.797-1.476,0.746c0.316,0.473,1.297,0.432,1.448,1.207c0.188,0.975-0.583,1.303-1.448,1.439"/>
		<path style="fill:none;stroke:#FFFFFF;stroke-width:1.4892;stroke-linecap:round;stroke-linejoin:round;" d="M203.255,97.66
			c-0.816-0.605-2.028-0.221-2.651,0.502c0.39,0.973,2.343,0.869,2.483,1.896c0.144,1.02-1.212,0.844-1.896,0.994"/>
		<path style="fill:none;stroke:#FFFFFF;stroke-width:1.4892;stroke-linecap:round;stroke-linejoin:round;" d="M210.637,98.246
			c0.412,0.463,0.387,1.047,0,1.627"/>
		<path style="fill:none;stroke:#FFFFFF;stroke-width:1.4892;stroke-linecap:round;stroke-linejoin:round;" d="M208.127,97.514
			c0.476,1.08,0.687,2.797,0.589,3.98"/>
		<path style="fill:none;stroke:#FFFFFF;stroke-width:1.4892;stroke-linecap:round;stroke-linejoin:round;" d="M206.8,101.494
			c-0.646-0.152-1.792-0.203-2.215,0.148"/>
		<path style="fill:none;stroke:#FFFFFF;stroke-width:1.4892;stroke-linecap:round;stroke-linejoin:round;" d="M205.025,100.609
			c-0.234-0.764-0.003-1.414-0.44-2.066"/>
		<path style="fill:none;stroke:#FFFFFF;stroke-width:1.4892;stroke-linecap:round;stroke-linejoin:round;" d="M206.8,97.217
			c-0.807-0.254-1.357,0.186-2.215,0.148"/>
		<path style="fill:none;stroke:#FFFFFF;stroke-width:1.4892;stroke-linecap:round;stroke-linejoin:round;" d="M206.8,99.725
			c0.03-0.35-0.131-0.529-0.444-0.588"/>
		<path style="fill:none;stroke:#FFFFFF;stroke-width:1.4892;stroke-linecap:round;stroke-linejoin:round;" d="M213.588,97.66
			c-1.662-0.652-1.642,2.678-0.594,3.391c1.871,1.273,2.489-2.414,1.036-3.096"/>
		<path style="fill:none;stroke:#FFFFFF;stroke-width:1.4892;stroke-linecap:round;stroke-linejoin:round;" d="M216.391,97.217
			c-0.113,1.4,0.551,2.689,0.442,4.084c0.028-0.957-0.706-3.172,0.442-3.496c1.702-0.482,1.602,1.943,0.415,2.35
			c0.824,0.258,1.737,0.83,2.242,1.488"/>
		<path style="fill:none;stroke:#FFFFFF;stroke-width:1.4892;stroke-linecap:round;stroke-linejoin:round;" d="M222.441,101.643
			c-0.312-1.01-0.23-2.076-0.442-3.1"/>
		<path style="fill:none;stroke:#FFFFFF;stroke-width:1.4892;stroke-linecap:round;stroke-linejoin:round;" d="M219.933,97.955
			c1.232,0.035,2.313-0.404,3.543-0.295"/>
		<path style="fill:#406FA9;stroke:#FFFFFF;stroke-width:1.2872;" d="M190.804,91.723c0,1.209-0.933,2.189-2.087,2.189h-47.956
			c-1.151,0-2.087-0.98-2.087-2.189V61.35c0-1.209,0.936-2.189,2.087-2.189h47.956c1.154,0,2.087,0.98,2.087,2.189V91.723z"/>
		
			<line style="fill:none;stroke:#FFFFFF;stroke-width:2.5743;stroke-linecap:round;" x1="143.682" y1="59.346" x2="142.465" y2="61.594"/>
		
			<line style="fill:none;stroke:#FFFFFF;stroke-width:2.5743;stroke-linecap:round;" x1="148.036" y1="59.346" x2="146.819" y2="61.594"/>
		
			<line style="fill:none;stroke:#FFFFFF;stroke-width:2.5743;stroke-linecap:round;" x1="152.391" y1="59.346" x2="151.171" y2="61.594"/>
		
			<line style="fill:none;stroke:#FFFFFF;stroke-width:2.5743;stroke-linecap:round;" x1="156.744" y1="59.346" x2="155.525" y2="61.594"/>
		
			<line style="fill:none;stroke:#FFFFFF;stroke-width:2.5743;stroke-linecap:round;" x1="161.096" y1="59.346" x2="159.877" y2="61.594"/>
		
			<line style="fill:none;stroke:#FFFFFF;stroke-width:2.5743;stroke-linecap:round;" x1="165.45" y1="59.346" x2="164.231" y2="61.594"/>
		
			<line style="fill:none;stroke:#FFFFFF;stroke-width:2.5743;stroke-linecap:round;" x1="169.805" y1="59.346" x2="168.585" y2="61.594"/>
		
			<line style="fill:none;stroke:#FFFFFF;stroke-width:2.5743;stroke-linecap:round;" x1="174.156" y1="59.346" x2="172.939" y2="61.594"/>
		
			<line style="fill:none;stroke:#FFFFFF;stroke-width:2.5743;stroke-linecap:round;" x1="178.511" y1="59.346" x2="177.294" y2="61.594"/>
		
			<line style="fill:none;stroke:#FFFFFF;stroke-width:2.5743;stroke-linecap:round;" x1="182.864" y1="59.346" x2="181.647" y2="61.594"/>
		
			<line style="fill:none;stroke:#FFFFFF;stroke-width:2.5743;stroke-linecap:round;" x1="187.219" y1="59.346" x2="186.002" y2="61.594"/>
		
			<rect x="172.235" y="66.944" style="fill:none;stroke:#FFFFFF;stroke-width:0.6436;stroke-linecap:round;" width="15.606" height="21.138"/>
		<path style="fill:none;stroke:#FFFFFF;stroke-width:0.6436;stroke-linecap:round;stroke-linejoin:round;" d="M172.791,82.881
			c-0.168-1.799,2.029-3.119,3.585-3.689s4.658-0.895,6.941-0.418c2.694,0.562,3.336,3.027,3.336,4.879"/>
		<path style="fill:none;stroke:#FFFFFF;stroke-width:0.6436;stroke-linecap:round;" d="M184.191,74.359
			c0,2.016-1.412,3.652-3.157,3.652c-1.739,0-3.152-1.637-3.152-3.652s1.413-3.652,3.152-3.652
			C182.779,70.707,184.191,72.344,184.191,74.359z"/>
		<path style="fill:none;stroke:#FFFFFF;stroke-width:1.2872;stroke-linecap:round;stroke-linejoin:round;" d="M145.135,67.696
			c-0.545-0.758-1.744-0.713-2.001,0.326c-0.352,1.43,4.802,2.664,0.712,3.351"/>
		<path style="fill:none;stroke:#FFFFFF;stroke-width:1.2872;stroke-linecap:round;stroke-linejoin:round;" d="M151.938,67.512
			c0.445,0.115,0.151,2.242-0.163,3.074c-1.26-0.201-1.063-1.914-1.491-2.89"/>
		<path style="fill:none;stroke:#FFFFFF;stroke-width:1.2872;stroke-linecap:round;stroke-linejoin:round;" d="M146.604,67.512
			c0.93,0,2.277-0.162,2.946,0.184"/>
		<path style="fill:none;stroke:#FFFFFF;stroke-width:1.2872;stroke-linecap:round;stroke-linejoin:round;" d="M148.127,70.422
			c0.422-1.32-0.106-1.357-0.234-2.726"/>
		<path style="fill:none;stroke:#FFFFFF;stroke-width:1.2872;stroke-linecap:round;stroke-linejoin:round;" d="M154.331,67.325
			c0.12,1.021,0.257,2.066,0.141,3.087c-0.241-0.689-0.46-2.544,0.548-2.775c1.589-0.359,1.086,2.143-0.875,2.265"/>
		<path style="fill:none;stroke:#FFFFFF;stroke-width:1.2872;stroke-linecap:round;stroke-linejoin:round;" d="M158.56,67.879
			c-0.377,0.881-0.478,1.832-0.354,2.779c0.95-0.033,1.772-0.332,2.692-0.021c-0.332,0.197-0.47,0.047-0.865,0.002"/>
		<path style="fill:none;stroke:#FFFFFF;stroke-width:1.2872;stroke-linecap:round;stroke-linejoin:round;" d="M159.666,67.879
			c-0.35-0.172-0.715-0.232-1.106-0.184"/>
		<path style="fill:none;stroke:#FFFFFF;stroke-width:1.2872;stroke-linecap:round;stroke-linejoin:round;" d="M162.607,70.822
			c0.002-1.138-0.038-2.285,0.027-3.421c0.505,0.98,0.558,2.199,1.169,3.126c0.765-0.808,0.8-2.267,0.827-3.382"/>
		<path style="fill:none;stroke:#FFFFFF;stroke-width:1.2872;stroke-linecap:round;stroke-linejoin:round;" d="M158.56,69.167
			c0.628,0.225,1.348,0.268,2.026,0.186"/>
		<path style="fill:none;stroke:#FFFFFF;stroke-width:1.2872;stroke-linecap:round;stroke-linejoin:round;" d="M167.021,67.696
			c-0.193,0.934,0.086,1.791,0,2.757"/>
		<path style="fill:none;stroke:#FFFFFF;stroke-width:1.2872;stroke-linecap:round;stroke-linejoin:round;" d="M165.92,67.145
			c0.702,0.195,1.474,0.256,2.208,0.18"/>
		<path style="fill:none;stroke:#FFFFFF;stroke-width:1.2872;stroke-linecap:round;stroke-linejoin:round;" d="M143.846,75.971
			c0.54-0.09,0.776,0.406,1.148-0.34c1.687,1.146,5.772-0.127,7.598-0.131c2.247-0.002,6.279,1.066,8.14-0.053
			c0.648,0.564,2.434,0.539,3.349,0.523"/>
		<path style="fill:none;stroke:#FFFFFF;stroke-width:1.2872;stroke-linecap:round;stroke-linejoin:round;" d="M144.215,79.281
			c0.915-0.234,1.855-0.061,2.725-0.484c0.473,0.914,1.657,0.859,2.424,0.279c1.114,1.221,4.206,0.303,5.525,0.502
			c1.3,0.193,3.626,0.271,4.958,0.807"/>
		<path style="fill:none;stroke:#FFFFFF;stroke-width:1.2872;stroke-linecap:round;stroke-linejoin:round;" d="M144.396,84.432
			c1.028-0.291,3.08,0.293,3.23-0.891c2.521-0.195,3.847,0.666,6.117,0.854c0.799,0.066,1.385-0.332,2.051-0.346
			c1.795-0.047,4.219,0.285,6.119,0.396c0.709,0.043,1.094-0.449,1.981-0.014"/>
		<rect x="176.472" y="50.094" style="fill:#406FA9;" width="12.472" height="8.422"/>
	</g>
</g>
</svg>
