<?xml version="1.0" encoding="iso-8859-1"?>
<!-- Generator: Adobe Illustrator 13.0.0, SVG Export Plug-In . SVG Version: 6.00 Build 14948)  -->
<!DOCTYPE svg PUBLIC "-//W3C//DTD SVG 1.1//EN" "http://www.w3.org/Graphics/SVG/1.1/DTD/svg11.dtd">
<svg version="1.1" xmlns="http://www.w3.org/2000/svg" xmlns:xlink="http://www.w3.org/1999/xlink" x="0px" y="0px" width="378px"
	 height="140px" viewBox="0 0 378 140" style="enable-background:new 0 0 378 140;" xml:space="preserve">
<g id="Layer_2">
	<g>
		<rect style="fill:none;" width="378" height="140"/>
		<rect style="fill:#FFFFFF;" width="378" height="140"/>
	</g>
</g>
<g id="Layer_3">
	<g>
		<path style="fill:none;stroke:#4990C0;stroke-width:10;stroke-linecap:round;stroke-linejoin:round;" d="M141.508,47.266
			c9.863-13.589,12.235-24.527,16.335-39.766c-5.096,49.81-2.927,94.634-2.927,125"/>
		<path style="fill:none;stroke:#4990C0;stroke-width:10;stroke-linecap:round;stroke-linejoin:round;" d="M187.212,46.225
			c-7.146-11.61,10.129-42.518,24.407-38.339c12.816,3.752,15.011,27.287,13.901,37.894c-0.913,8.749-8.405,26.215-19.512,26.068
			c-11.183-0.148-1.645-6.658,3.881-7.372c11.482-1.482,21.188,7.046,24.425,17.5c4.143,13.383,3.065,38.051-9.325,47.041
			c-15.121,10.971-40.627-6.003-42.494-22.829"/>
	</g>
</g>
</svg>
