<?xml version="1.0" encoding="iso-8859-1"?>
<!-- Generator: Adobe Illustrator 13.0.0, SVG Export Plug-In . SVG Version: 6.00 Build 14948)  -->
<!DOCTYPE svg PUBLIC "-//W3C//DTD SVG 1.1//EN" "http://www.w3.org/Graphics/SVG/1.1/DTD/svg11.dtd">
<svg version="1.1" xmlns="http://www.w3.org/2000/svg" xmlns:xlink="http://www.w3.org/1999/xlink" x="0px" y="0px" width="378px"
	 height="140.001px" viewBox="0 0 378 140.001" style="enable-background:new 0 0 378 140.001;" xml:space="preserve">
<g id="fond">
	<g>
		<rect style="fill:none;" width="378" height="140.001"/>
		<rect style="fill:#FFFFFF;" width="378" height="140.001"/>
	</g>
</g>
<g id="WAITER">
	<ellipse style="fill:none;stroke:#777768;stroke-width:1.1991;" cx="183.554" cy="18.153" rx="7.528" ry="9.857"/>
	<path style="fill:none;stroke:#777768;stroke-width:1.1991;stroke-linecap:round;stroke-linejoin:round;" d="M183.372,28.403
		c0.053,10.395,0.887,70.138,0.936,71.877c0.711,26.025,1.872,24.859-2.95,24.859"/>
	<path style="fill:none;stroke:#777768;stroke-width:1.199;" d="M182.035,74.886c0,0.974,0.786,1.758,1.761,1.758
		c0.963,0,1.752-0.784,1.752-1.758c0-0.97-0.789-1.757-1.752-1.757C182.821,73.129,182.035,73.916,182.035,74.886z"/>
	<path style="fill:#777768;stroke:#777768;stroke-width:1.2512;stroke-linecap:round;stroke-linejoin:round;" d="M183.673,31.125
		c0.918-0.358,1.892-1.207,2.852-1.247c-0.07,1.526-0.525,3.122-0.582,4.677c-1.184-0.455-1.595-2.249-2.547-2.992
		c-0.397-0.313-0.753-0.697-1.218-0.981c-0.532-0.324-0.977-0.769-1.58-0.938c-0.049,0.619,0.112,1.368-0.039,1.969
		c-0.165,0.61-1.193,1.476-0.896,2.15c0.371,0.886,3.335-1.724,3.729-2.405"/>
	<g>
		<path style="fill:none;stroke:#777768;stroke-width:1.1991;stroke-linecap:round;stroke-linejoin:round;" d="M187.91,67.197
			c0.924-0.71-2.174-30.01-4.432-32.172"/>
		<path style="fill:#FFFFFF;stroke:#777768;stroke-width:0.8343;stroke-linecap:round;stroke-linejoin:round;" d="M182.414,77.96
			c-0.499-3.18-0.706-6.312-0.584-9.425c1.638-0.68,4.308-1.583,6.08-1.338c0.556,1.609,1.465,5.911,1.938,7.706
			C188.231,76.549,184.504,77.231,182.414,77.96"/>
	</g>
</g>
<g id="Restaurant">
	<g>
		<g>
			
				<rect x="156.278" y="77.863" style="fill:#D5312C;stroke:#FFFFFF;stroke-width:0.6339;stroke-linecap:square;" width="3.693" height="52.222"/>
			<g>
				<path style="fill:#D5312C;" d="M126.834,76.719c0,1.139,0.938,2.062,2.096,2.062h58.382c1.158,0,2.097-0.923,2.097-2.062
					c0-1.141-0.939-2.062-2.097-2.062H128.93C127.772,74.656,126.834,75.578,126.834,76.719
					C126.834,76.719,126.834,75.578,126.834,76.719z"/>
				<path style="fill:none;stroke:#FFFFFF;stroke-width:0.9509;" d="M126.834,76.719c0,1.139,0.938,2.062,2.096,2.062h58.382
					c1.158,0,2.097-0.923,2.097-2.062c0-1.141-0.939-2.062-2.097-2.062H128.93C127.772,74.656,126.834,75.578,126.834,76.719
					C126.834,76.719,126.834,75.578,126.834,76.719z"/>
			</g>
		</g>
		<g>
			<g>
				
					<line style="fill:none;stroke:#65B724;stroke-width:2.9988;stroke-linecap:round;stroke-linejoin:round;" x1="108.452" y1="65.445" x2="108.452" y2="96.751"/>
				
					<line style="fill:none;stroke:#65B724;stroke-width:2.9988;stroke-linecap:round;stroke-linejoin:round;" x1="108.452" y1="96.751" x2="140.263" y2="96.751"/>
				
					<line style="fill:none;stroke:#65B724;stroke-width:2.9988;stroke-linecap:round;stroke-linejoin:round;" x1="140.263" y1="96.751" x2="108.419" y2="128.089"/>
				
					<line style="fill:none;stroke:#65B724;stroke-width:2.9988;stroke-linecap:round;stroke-linejoin:round;" x1="108.419" y1="128.089" x2="126.759" y2="128.089"/>
			</g>
			<g>
				
					<line style="fill:none;stroke:#65B724;stroke-width:2.9988;stroke-linecap:round;stroke-linejoin:round;" x1="215.405" y1="65.445" x2="215.405" y2="96.751"/>
				
					<line style="fill:none;stroke:#65B724;stroke-width:2.9988;stroke-linecap:round;stroke-linejoin:round;" x1="215.405" y1="96.751" x2="183.596" y2="96.751"/>
				
					<line style="fill:none;stroke:#65B724;stroke-width:2.9988;stroke-linecap:round;stroke-linejoin:round;" x1="183.596" y1="96.751" x2="215.438" y2="128.089"/>
				
					<line style="fill:none;stroke:#65B724;stroke-width:2.9988;stroke-linecap:round;stroke-linejoin:round;" x1="215.438" y1="128.089" x2="197.095" y2="128.089"/>
			</g>
		</g>
	</g>
</g>
<g id="Layer_3">
	<g>
		<path style="fill:none;stroke:#A8CFD5;stroke-width:0.7386;stroke-linejoin:round;" d="M149.907,63.702
			c-0.637-0.209-0.703-0.272-1.56-0.153c-1.794,0.245-1.859,5.579-0.937,7.383c0.569,1.132,2.316,1.249,2.692,1.1"/>
		<g>
			<path style="fill:#FBCF3D;" d="M149.907,74.063c0,0.864,2.088,0.864,3.733,0.864c1.651,0,3.578-0.117,3.582-0.864
				c0.01-0.737,0-10.361,0-10.361s-0.779,0.558-3.644,0.558c-2.869,0-3.671-0.558-3.671-0.558S149.907,73.202,149.907,74.063z"/>
			<path style="fill:#F6F9D7;" d="M149.928,62.746c0,0.126-0.021,0.529-0.021,0.956c0,0.398,2.341,0.558,3.671,0.558
				c1.224,0,2.688-0.25,3.348-0.417c0.43-0.108,0.296-0.953,0.296-1.097c0-0.362-1.631-0.657-3.648-0.657
				C151.56,62.089,149.928,62.384,149.928,62.746z"/>
			<g>
				<path style="fill:none;stroke:#FFFFFF;stroke-width:0.131;" d="M156.445,65.878c0,0.067,0.065,0.125,0.14,0.125
					c0.073,0,0.134-0.058,0.134-0.125c0-0.066-0.061-0.12-0.134-0.12C156.51,65.758,156.445,65.812,156.445,65.878z"/>
				<path style="fill:none;stroke:#FFFFFF;stroke-width:0.131;" d="M156.118,69.934c0,0.069,0.062,0.126,0.133,0.126
					c0.077,0,0.134-0.057,0.134-0.126c0-0.065-0.057-0.121-0.134-0.121C156.18,69.812,156.118,69.869,156.118,69.934z"/>
				<path style="fill:none;stroke:#FFFFFF;stroke-width:0.131;" d="M153.685,70.814c0,0.071,0.063,0.125,0.132,0.125
					c0.075,0,0.137-0.054,0.137-0.125c0-0.065-0.062-0.122-0.137-0.122C153.748,70.692,153.685,70.749,153.685,70.814z"/>
				<path style="fill:none;stroke:#FFFFFF;stroke-width:0.131;" d="M154.867,69.716c0,0.069,0.06,0.125,0.14,0.125
					c0.074,0,0.135-0.056,0.135-0.125c0-0.068-0.062-0.123-0.135-0.123C154.927,69.593,154.867,69.647,154.867,69.716z"/>
				<path style="fill:none;stroke:#FFFFFF;stroke-width:0.131;" d="M152.866,69.18c0,0.065,0.062,0.121,0.135,0.121
					c0.074,0,0.136-0.056,0.136-0.121c0-0.071-0.062-0.123-0.136-0.123C152.927,69.057,152.866,69.109,152.866,69.18z"/>
				<path style="fill:none;stroke:#FFFFFF;stroke-width:0.131;" d="M156.314,67.541c0,0.065,0.059,0.121,0.13,0.121
					c0.08,0,0.14-0.056,0.14-0.121s-0.06-0.126-0.14-0.126C156.373,67.415,156.314,67.476,156.314,67.541z"/>
				<path style="fill:none;stroke:#FFFFFF;stroke-width:0.131;" d="M152.845,67.295c0,0.068,0.055,0.12,0.135,0.12
					c0.067,0,0.13-0.052,0.13-0.12c0-0.068-0.062-0.122-0.13-0.122C152.9,67.173,152.845,67.227,152.845,67.295z"/>
				<path style="fill:none;stroke:#FFFFFF;stroke-width:0.131;" d="M152.597,65.71c0,0.063,0.062,0.119,0.135,0.119
					c0.075,0,0.134-0.056,0.134-0.119c0-0.07-0.06-0.126-0.134-0.126C152.658,65.584,152.597,65.641,152.597,65.71z"/>
				<path style="fill:none;stroke:#FFFFFF;stroke-width:0.131;" d="M154.004,65.549c0,0.07,0.063,0.125,0.132,0.125
					c0.077,0,0.134-0.054,0.134-0.125c0-0.068-0.058-0.124-0.134-0.124C154.067,65.425,154.004,65.48,154.004,65.549z"/>
				<path style="fill:none;stroke:#FFFFFF;stroke-width:0.131;" d="M155.358,68.32c0,0.071,0.062,0.126,0.136,0.126
					c0.074,0,0.138-0.055,0.138-0.126c0-0.064-0.064-0.122-0.138-0.122C155.419,68.198,155.358,68.256,155.358,68.32z"/>
				<path style="fill:none;stroke:#FFFFFF;stroke-width:0.131;" d="M154.43,66.953c0,0.068,0.062,0.125,0.133,0.125
					c0.073,0,0.138-0.056,0.138-0.125c0-0.065-0.065-0.125-0.138-0.125C154.492,66.829,154.43,66.888,154.43,66.953z"/>
				<path style="fill:none;stroke:#FFFFFF;stroke-width:0.131;" d="M153.479,68.175c0,0.071,0.058,0.123,0.131,0.123
					c0.074,0,0.137-0.052,0.137-0.123c0-0.067-0.063-0.121-0.137-0.121C153.537,68.055,153.479,68.108,153.479,68.175z"/>
				<path style="fill:none;stroke:#FFFFFF;stroke-width:0.131;" d="M155.619,65c0,0.066,0.061,0.121,0.14,0.121
					c0.07,0,0.134-0.054,0.134-0.121c0-0.068-0.063-0.121-0.134-0.121C155.68,64.879,155.619,64.932,155.619,65z"/>
			</g>
			<path style="fill:none;stroke:#FFFFFF;stroke-width:0.131;" d="M155.132,74.245c-0.073-0.014-0.138,0.035-0.154,0.108
				c-0.017,0.068,0.022,0.145,0.087,0.161c0.066,0.013,0.131-0.029,0.149-0.105C155.237,74.34,155.197,74.268,155.132,74.245z"/>
			<path style="fill:none;stroke:#FFFFFF;stroke-width:0.131;" d="M151.27,72.96c-0.065-0.021-0.133,0.029-0.147,0.096
				c-0.023,0.075,0.017,0.146,0.082,0.162c0.065,0.019,0.135-0.032,0.152-0.099C151.371,73.043,151.335,72.975,151.27,72.96z"/>
			<path style="fill:none;stroke:#FFFFFF;stroke-width:0.131;" d="M150.997,70.388c-0.062-0.021-0.132,0.024-0.152,0.098
				c-0.014,0.073,0.022,0.147,0.09,0.161c0.065,0.016,0.128-0.031,0.15-0.103C151.101,70.474,151.062,70.4,150.997,70.388z"/>
			<path style="fill:none;stroke:#FFFFFF;stroke-width:0.131;" d="M151.78,71.803c-0.066-0.018-0.131,0.025-0.148,0.1
				c-0.02,0.076,0.021,0.143,0.082,0.161c0.07,0.014,0.138-0.032,0.154-0.104C151.889,71.887,151.849,71.814,151.78,71.803z"/>
			<path style="fill:none;stroke:#FFFFFF;stroke-width:0.131;" d="M151.137,67.132c-0.067-0.019-0.133,0.028-0.152,0.098
				c-0.017,0.073,0.022,0.146,0.089,0.164c0.063,0.011,0.131-0.031,0.145-0.103C151.237,67.218,151.205,67.149,151.137,67.132z"/>
			<path style="fill:none;stroke:#FFFFFF;stroke-width:0.131;" d="M153.547,73.725c-0.064-0.016-0.131,0.027-0.146,0.095
				c-0.02,0.075,0.016,0.146,0.082,0.162c0.066,0.021,0.132-0.03,0.153-0.103C153.652,73.807,153.611,73.74,153.547,73.725z"/>
			<path style="fill:none;stroke:#FFFFFF;stroke-width:0.131;" d="M150.877,65.015c-0.06-0.015-0.131,0.029-0.146,0.103
				c-0.017,0.071,0.021,0.144,0.087,0.162c0.065,0.013,0.13-0.033,0.149-0.106C150.984,65.104,150.945,65.03,150.877,65.015z"/>
			<path style="fill:none;stroke:#FFFFFF;stroke-width:0.131;" d="M151.111,68.875c-0.07-0.015-0.135,0.031-0.15,0.104
				c-0.021,0.07,0.015,0.143,0.08,0.158c0.07,0.015,0.135-0.028,0.154-0.098C151.213,68.964,151.173,68.892,151.111,68.875z"/>
			<path style="fill:none;stroke:#FFFFFF;stroke-width:0.131;" d="M156.036,71.96c-0.068-0.021-0.131,0.025-0.152,0.098
				c-0.015,0.071,0.021,0.144,0.084,0.161c0.068,0.018,0.137-0.03,0.155-0.1C156.144,72.041,156.097,71.969,156.036,71.96z"/>
			<path style="fill:none;stroke:#FFFFFF;stroke-width:0.131;" d="M153.015,72.606c-0.062-0.014-0.131,0.033-0.152,0.104
				c-0.015,0.07,0.021,0.143,0.094,0.158c0.058,0.012,0.13-0.026,0.147-0.104C153.12,72.694,153.083,72.627,153.015,72.606z"/>
			<path style="fill:none;stroke:#FFFFFF;stroke-width:0.131;" d="M154.57,72.031c-0.068-0.012-0.133,0.034-0.151,0.104
				s0.021,0.145,0.083,0.161c0.068,0.014,0.135-0.031,0.154-0.102C154.676,72.122,154.637,72.049,154.57,72.031z"/>
			<path style="fill:none;stroke:#FFFFFF;stroke-width:0.131;" d="M152.815,71.251c-0.06-0.015-0.13,0.029-0.146,0.103
				c-0.021,0.07,0.022,0.141,0.086,0.157c0.066,0.021,0.129-0.028,0.147-0.101C152.923,71.34,152.884,71.269,152.815,71.251z"/>
			<path style="fill:none;stroke:#FFFFFF;stroke-width:0.131;" d="M156.18,73.656c-0.062-0.021-0.13,0.028-0.147,0.104
				c-0.018,0.07,0.02,0.142,0.085,0.158c0.067,0.021,0.133-0.028,0.151-0.104C156.288,73.744,156.25,73.677,156.18,73.656z"/>
			<path style="fill:none;stroke:#A8CFD5;stroke-width:0.2964;stroke-linecap:round;stroke-linejoin:round;" d="M157.194,61.245
				c0.028,5.504,0.028,8.367,0.028,12.757c0,0.926-1.725,0.926-3.582,0.926c-1.806,0-3.733,0.036-3.733-0.864
				c0-3.59,0-9.243,0.03-12.819"/>
			<path style="fill:none;stroke:#A8CFD5;stroke-width:0.2964;stroke-linecap:round;stroke-linejoin:round;" d="M149.938,61.245
				c0,0.378,1.624,0.685,3.625,0.685c2.005,0,3.631-0.306,3.631-0.685c0-0.375-1.626-0.68-3.631-0.68
				C151.562,60.564,149.938,60.87,149.938,61.245z"/>
			<path style="fill:none;stroke:#A8CFD5;stroke-width:0.1976;stroke-linecap:round;stroke-linejoin:round;" d="M157.223,65.416
				c-0.988-0.46-0.631,3.82-0.664,4.463c-0.08,1.612,0.06,3.336,0.064,4.784"/>
			<path style="fill:none;stroke:#A8CFD5;stroke-width:0.1976;stroke-linecap:round;stroke-linejoin:round;" d="M155.896,74.794
				c0-1.188-0.132-2.312-0.132-3.521c0-1.409,0.271-2.754-0.056-4.124c-0.082-0.349-0.248-1.512-0.804-1.468
				c-0.376,0.032-0.614,1.031-0.676,1.332c-0.284,1.47-0.076,3.226,0,4.724c0.055,1.015,0.134,2.262,0.134,3.124"/>
			<path style="fill:none;stroke:#A8CFD5;stroke-width:0.1976;stroke-linecap:round;stroke-linejoin:round;" d="M153.567,74.86
				c0-1.607-0.154-3.148-0.067-4.785c0.07-1.333,0.312-3.021-0.347-4.179c-1.3-0.375-0.986,7.974-0.986,8.964"/>
			<path style="fill:none;stroke:#A8CFD5;stroke-width:0.1976;stroke-linecap:round;stroke-linejoin:round;" d="M150.372,74.662
				c0-1.33-0.032-6.116,0.067-7.316c0.049-0.6,0.761-3.041,1.2-1.394c0.304,1.138,0.105,2.259-0.004,3.39
				c-0.171,1.777-0.187,3.852-0.2,5.452"/>
		</g>
	</g>
	<g>
		<path style="fill:#FBCF3D;" d="M160.455,74.281c0,0.874,2.103,0.874,3.761,0.874c1.659,0,3.6-0.124,3.61-0.874
			c0.008-0.738,0-10.434,0-10.434s-0.788,0.561-3.674,0.561c-2.888,0-3.697-0.561-3.697-0.561S160.455,73.406,160.455,74.281z"/>
		<path style="fill:#F6F9D7;" d="M160.475,62.884c0,0.126-0.021,0.53-0.021,0.963c0,0.399,2.36,0.561,3.697,0.561
			c1.234,0,2.709-0.252,3.374-0.42c0.431-0.109,0.301-0.958,0.301-1.104c0-0.362-1.645-0.664-3.681-0.664
			C162.122,62.22,160.475,62.522,160.475,62.884z"/>
		<g>
			<path style="fill:none;stroke:#FFFFFF;stroke-width:0.1319;" d="M167.038,66.039c0,0.067,0.064,0.122,0.142,0.122
				c0.071,0,0.13-0.055,0.13-0.122c0-0.071-0.059-0.122-0.13-0.122C167.103,65.917,167.038,65.968,167.038,66.039z"/>
			<path style="fill:none;stroke:#FFFFFF;stroke-width:0.1319;" d="M166.708,70.126c0,0.064,0.062,0.125,0.136,0.125
				c0.08,0,0.137-0.061,0.137-0.125c0-0.07-0.058-0.126-0.137-0.126C166.77,70,166.708,70.056,166.708,70.126z"/>
			<path style="fill:none;stroke:#FFFFFF;stroke-width:0.1319;" d="M164.261,71.011c0,0.066,0.06,0.126,0.134,0.126
				c0.075,0,0.136-0.06,0.136-0.126c0-0.069-0.061-0.124-0.136-0.124C164.321,70.887,164.261,70.941,164.261,71.011z"/>
			<path style="fill:none;stroke:#FFFFFF;stroke-width:0.1319;" d="M165.45,69.903c0,0.069,0.062,0.124,0.142,0.124
				c0.076,0,0.137-0.055,0.137-0.124c0-0.072-0.061-0.126-0.137-0.126C165.511,69.777,165.45,69.832,165.45,69.903z"/>
			<path style="fill:none;stroke:#FFFFFF;stroke-width:0.1319;" d="M163.435,69.363c0,0.062,0.06,0.122,0.136,0.122
				c0.073,0,0.136-0.059,0.136-0.122c0-0.073-0.062-0.125-0.136-0.125C163.495,69.237,163.435,69.29,163.435,69.363z"/>
			<path style="fill:none;stroke:#FFFFFF;stroke-width:0.1319;" d="M166.91,67.71c0,0.07,0.058,0.124,0.128,0.124
				c0.081,0,0.142-0.053,0.142-0.124c0-0.065-0.062-0.125-0.142-0.125C166.968,67.585,166.91,67.645,166.91,67.71z"/>
			<ellipse style="fill:none;stroke:#FFFFFF;stroke-width:0.1319;" cx="163.547" cy="67.466" rx="0.136" ry="0.119"/>
			<path style="fill:none;stroke:#FFFFFF;stroke-width:0.1319;" d="M163.167,65.865c0,0.067,0.059,0.124,0.132,0.124
				c0.077,0,0.136-0.056,0.136-0.124c0-0.066-0.059-0.122-0.136-0.122C163.226,65.743,163.167,65.799,163.167,65.865z"/>
			<path style="fill:none;stroke:#FFFFFF;stroke-width:0.1319;" d="M164.582,65.705c0,0.071,0.062,0.123,0.136,0.123
				c0.073,0,0.137-0.052,0.137-0.123c0-0.068-0.064-0.124-0.137-0.124C164.644,65.582,164.582,65.637,164.582,65.705z"/>
			<path style="fill:none;stroke:#FFFFFF;stroke-width:0.1319;" d="M165.947,68.496c0,0.07,0.06,0.125,0.133,0.125
				c0.075,0,0.14-0.055,0.14-0.125c0-0.066-0.065-0.119-0.14-0.119C166.007,68.377,165.947,68.43,165.947,68.496z"/>
			<path style="fill:none;stroke:#FFFFFF;stroke-width:0.1319;" d="M165.013,67.12c0,0.067,0.055,0.123,0.132,0.123
				c0.075,0,0.136-0.056,0.136-0.123c0-0.065-0.061-0.123-0.136-0.123C165.068,66.998,165.013,67.055,165.013,67.12z"/>
			<path style="fill:none;stroke:#FFFFFF;stroke-width:0.1319;" d="M164.053,68.35c0,0.07,0.058,0.124,0.13,0.124
				c0.079,0,0.139-0.053,0.139-0.124c0-0.064-0.06-0.12-0.139-0.12C164.111,68.23,164.053,68.286,164.053,68.35z"/>
			<ellipse style="fill:none;stroke:#FFFFFF;stroke-width:0.1319;" cx="166.344" cy="65.152" rx="0.136" ry="0.12"/>
		</g>
		<path style="fill:none;stroke:#FFFFFF;stroke-width:0.1319;" d="M165.713,74.469c-0.066-0.017-0.136,0.029-0.157,0.102
			c-0.01,0.073,0.029,0.147,0.091,0.162c0.07,0.016,0.137-0.034,0.154-0.102C165.818,74.56,165.781,74.488,165.713,74.469z"/>
		<path style="fill:none;stroke:#FFFFFF;stroke-width:0.1319;" d="M161.832,73.172c-0.067-0.023-0.141,0.021-0.158,0.097
			c-0.017,0.071,0.021,0.15,0.09,0.159c0.067,0.014,0.13-0.03,0.147-0.097C161.931,73.251,161.895,73.182,161.832,73.172z"/>
		<path style="fill:none;stroke:#FFFFFF;stroke-width:0.1319;" d="M161.552,70.575c-0.064-0.013-0.135,0.028-0.146,0.104
			c-0.02,0.069,0.015,0.147,0.085,0.157c0.064,0.019,0.131-0.025,0.151-0.102C161.658,70.667,161.616,70.593,161.552,70.575z"/>
		<path style="fill:none;stroke:#FFFFFF;stroke-width:0.1319;" d="M162.345,72.002c-0.07-0.02-0.132,0.028-0.154,0.101
			c-0.015,0.074,0.024,0.145,0.087,0.167c0.067,0.007,0.138-0.034,0.154-0.109C162.449,72.089,162.41,72.019,162.345,72.002z"/>
		<path style="fill:none;stroke:#FFFFFF;stroke-width:0.1319;" d="M161.691,67.298c-0.066-0.019-0.131,0.032-0.148,0.102
			c-0.023,0.072,0.021,0.144,0.088,0.164c0.06,0.018,0.133-0.031,0.149-0.104C161.792,67.384,161.759,67.314,161.691,67.298z"/>
		<path style="fill:none;stroke:#FFFFFF;stroke-width:0.1319;" d="M164.123,73.937c-0.064-0.014-0.135,0.028-0.147,0.104
			c-0.021,0.067,0.013,0.142,0.083,0.158c0.068,0.013,0.133-0.028,0.151-0.101C164.23,74.027,164.183,73.953,164.123,73.937z"/>
		<path style="fill:none;stroke:#FFFFFF;stroke-width:0.1319;" d="M161.434,65.167c-0.064-0.014-0.132,0.034-0.145,0.105
			c-0.021,0.073,0.017,0.145,0.083,0.161c0.068,0.016,0.137-0.029,0.154-0.104C161.543,65.26,161.496,65.187,161.434,65.167z"/>
		<path style="fill:none;stroke:#FFFFFF;stroke-width:0.1319;" d="M161.665,69.056c-0.067-0.015-0.132,0.031-0.15,0.104
			c-0.021,0.07,0.018,0.141,0.083,0.158c0.067,0.016,0.133-0.029,0.149-0.101C161.77,69.144,161.731,69.075,161.665,69.056z"/>
		<path style="fill:none;stroke:#FFFFFF;stroke-width:0.1319;" d="M166.631,72.156c-0.066-0.016-0.139,0.032-0.155,0.104
			c-0.019,0.069,0.02,0.148,0.089,0.158c0.066,0.02,0.131-0.032,0.149-0.099C166.731,72.247,166.693,72.17,166.631,72.156z"/>
		<path style="fill:none;stroke:#FFFFFF;stroke-width:0.1319;" d="M163.585,72.813c-0.067-0.015-0.134,0.03-0.15,0.104
			c-0.017,0.076,0.021,0.143,0.086,0.164c0.064,0.012,0.134-0.034,0.155-0.108C163.695,72.905,163.655,72.832,163.585,72.813z"/>
		<path style="fill:none;stroke:#FFFFFF;stroke-width:0.1319;" d="M165.153,72.236c-0.066-0.018-0.14,0.033-0.153,0.104
			c-0.021,0.071,0.021,0.146,0.087,0.162c0.066,0.01,0.133-0.033,0.15-0.107C165.25,72.327,165.214,72.252,165.153,72.236z"/>
		<path style="fill:none;stroke:#FFFFFF;stroke-width:0.1319;" d="M163.391,71.445c-0.071-0.015-0.141,0.032-0.155,0.105
			c-0.013,0.068,0.018,0.147,0.084,0.159c0.071,0.019,0.135-0.028,0.157-0.096C163.495,71.535,163.451,71.465,163.391,71.445z"/>
		<path style="fill:none;stroke:#FFFFFF;stroke-width:0.1319;" d="M166.777,73.873c-0.069-0.017-0.136,0.029-0.153,0.099
			c-0.014,0.072,0.02,0.147,0.083,0.164c0.069,0.016,0.136-0.032,0.154-0.104C166.882,73.957,166.843,73.89,166.777,73.873z"/>
		<path style="fill:none;stroke:#A8CFD5;stroke-width:0.2983;stroke-linecap:round;stroke-linejoin:round;" d="M167.794,61.374
			c0.032,5.542,0.032,8.422,0.032,12.837c0,0.944-1.743,0.944-3.61,0.944c-1.819,0-3.761,0.033-3.761-0.874
			c0-3.615,0-9.31,0.032-12.908"/>
		<path style="fill:none;stroke:#A8CFD5;stroke-width:0.2983;stroke-linecap:round;stroke-linejoin:round;" d="M160.487,61.374
			c0,0.379,1.635,0.689,3.655,0.689c2.013,0,3.652-0.31,3.652-0.689c0-0.381-1.639-0.687-3.652-0.687
			C162.122,60.687,160.487,60.992,160.487,61.374z"/>
		<path style="fill:none;stroke:#A8CFD5;stroke-width:0.1992;stroke-linecap:round;stroke-linejoin:round;" d="M167.826,65.57
			c-0.998-0.463-0.638,3.845-0.671,4.494c-0.082,1.625,0.058,3.363,0.063,4.822"/>
		<path style="fill:none;stroke:#A8CFD5;stroke-width:0.1992;stroke-linecap:round;stroke-linejoin:round;" d="M166.483,75.016
			c0-1.196-0.136-2.33-0.136-3.546c0-1.418,0.284-2.776-0.048-4.155c-0.083-0.348-0.255-1.522-0.807-1.475
			c-0.385,0.032-0.621,1.037-0.684,1.341c-0.285,1.481-0.077,3.247,0,4.754c0.056,1.021,0.136,2.275,0.136,3.153"/>
		<path style="fill:none;stroke:#A8CFD5;stroke-width:0.1992;stroke-linecap:round;stroke-linejoin:round;" d="M164.142,75.089
			c0-1.624-0.157-3.183-0.069-4.826c0.072-1.343,0.313-3.042-0.345-4.208c-1.312-0.38-0.997,8.031-0.997,9.034"/>
		<path style="fill:none;stroke:#A8CFD5;stroke-width:0.1992;stroke-linecap:round;stroke-linejoin:round;" d="M160.925,74.887
			c0-1.34-0.035-6.165,0.063-7.375c0.053-0.6,0.77-3.059,1.211-1.401c0.308,1.148,0.105,2.276-0.002,3.417
			c-0.175,1.788-0.189,3.878-0.199,5.488"/>
	</g>
	<path style="fill:none;stroke:#777768;stroke-width:1.799;stroke-linecap:round;stroke-linejoin:round;" d="M123.241,43.533
		c0,6.157-3.845,11.15-8.59,11.15c-4.738,0-8.59-4.994-8.59-11.15c0-6.158,3.853-11.147,8.59-11.147
		C119.396,32.386,123.241,37.375,123.241,43.533z"/>
	<path style="fill:none;stroke:#777768;stroke-width:1.799;stroke-linecap:round;stroke-linejoin:round;" d="M114.909,69.809
		c0.126,7.853,0.112,5.309-0.662,9.169c-1.232,6.082-2.456,6.619-2.456,12.161c0,8.963,32.395-2.698,31.175,2.571
		c-6.697,28.768-6.956,34.867-0.416,34.051"/>
	<path style="fill:none;stroke:#777768;stroke-width:1.799;stroke-linecap:round;stroke-linejoin:round;" d="M114.65,55.087
		c-0.011,1.962,0.058,4.98,0.133,8.465"/>
	<path style="fill:#FFFFFF;stroke:#777768;stroke-width:1.1991;" d="M119.777,66.652c0,1.902-1.554,3.442-3.474,3.442
		c-1.922,0-3.478-1.54-3.478-3.442c0-1.906,1.556-3.449,3.478-3.449C118.223,63.203,119.777,64.746,119.777,66.652z"/>
	<g>
		<path style="fill:none;stroke:#777768;stroke-width:1.1991;" d="M207.408,92.668c0,1.055,0.865,1.906,1.931,1.906
			c1.059,0,1.927-0.852,1.927-1.906c0-1.054-0.868-1.911-1.927-1.911C208.273,90.757,207.408,91.614,207.408,92.668z"/>
		<path style="fill:none;stroke:#777768;stroke-width:1.1991;" d="M200.36,37.435c0,5.918,3.696,10.707,8.25,10.707
			c4.555,0,8.25-4.788,8.25-10.707c0-5.916-3.695-10.709-8.25-10.709C204.057,26.726,200.36,31.52,200.36,37.435z"/>
		<path style="fill:none;stroke:#777768;stroke-width:1.1991;stroke-linecap:round;stroke-linejoin:round;" d="M208.398,48.572
			c0.047,7.474-0.542,23.995,0.9,31.172c1.294,6.405,4.879,13.883,0.04,14.83c-9.399,1.85-31.151-6.463-30.771-0.772
			c2.014,29.488,1.422,35.581-5.479,34.725"/>
	</g>
</g>
<g id="couverts">
	<g style="display:none;">
		
			<line style="display:inline;fill:none;stroke:#65B724;stroke-width:0.5567;stroke-linecap:round;stroke-linejoin:round;" x1="141.625" y1="72.264" x2="137.377" y2="65.774"/>
		<path style="display:inline;fill:none;stroke:#65B724;stroke-width:0.5567;stroke-linecap:round;stroke-linejoin:round;" d="
			M142.666,71.582c-0.516-0.787-1.64-2.249-2.563-1.645c-0.923,0.605-0.113,2.416,0.337,3.103"/>
	</g>
	<path style="fill:#B58247;stroke:#B58247;stroke-width:1.5924;stroke-linecap:round;stroke-linejoin:round;" d="M149.224,72.99
		c0,0.509-0.412,0.921-0.921,0.921h-12.63c-0.509,0-0.921-0.412-0.921-0.921l0,0c0-0.509,0.412-0.922,0.921-0.922h12.63
		C148.812,72.068,149.224,72.481,149.224,72.99L149.224,72.99z"/>
	<path style="fill:#B58247;stroke:#B58247;stroke-width:1.5924;stroke-linecap:round;stroke-linejoin:round;" d="M183.955,72.99
		c0,0.509-0.412,0.921-0.921,0.921h-12.629c-0.509,0-0.921-0.412-0.921-0.921l0,0c0-0.509,0.412-0.922,0.921-0.922h12.629
		C183.543,72.068,183.955,72.481,183.955,72.99L183.955,72.99z"/>
	<path style="display:none;fill:none;stroke:#65B724;stroke-width:1.5924;stroke-linecap:round;stroke-linejoin:round;" d="
		M168.606,74.656h15.655H168.606z"/>
	<polyline style="fill:none;stroke:#65B724;stroke-width:1.5924;stroke-linecap:round;stroke-linejoin:round;" points="
		131.243,72.026 133.875,74.656 149.53,74.656 152.161,72.026 	"/>
	<path style="fill:none;stroke:#65B724;stroke-width:1.5924;stroke-linecap:round;stroke-linejoin:round;" d="M168.606,74.656
		h15.655H168.606z"/>
	<polyline style="fill:none;stroke:#65B724;stroke-width:1.5924;stroke-linecap:round;stroke-linejoin:round;" points="
		165.975,72.026 168.606,74.656 184.261,74.656 186.893,72.026 	"/>
	<g id="exclamation">
		<path style="fill:none;stroke:#777768;stroke-width:0.7;stroke-linecap:round;stroke-linejoin:round;" d="M142.021,18.318
			c-1.857-6.613,9.976-7.375,8.404-0.009c-0.521,2.442-3.029,3.513-4.331,5.473c-1.203,1.81-1.616,3.562-1.623,5.736"/>
		<path style="fill:none;stroke:#777768;stroke-width:0.7;stroke-linecap:round;stroke-linejoin:round;" d="M143.771,34.068
			c-0.084-0.326-0.218-0.502-0.144-0.844c0.201-0.084,0.322-0.231,0.493-0.31c0.403,0.678,0.05,0.846-0.524,1.154"/>
	</g>
</g>
<g id="Layer_7">
	<path style="fill:#CCCCCC;stroke:#777768;stroke-width:0.3741;stroke-linecap:round;stroke-linejoin:round;" d="M133.639,23.951
		l3.022-13.567c0,0,1.237,7.519,0.423,10.114c-0.132,0.423-0.066,0.48-2.244,3.634L133.639,23.951z"/>
	<polygon style="fill:#FE9F34;stroke:#FD8631;stroke-width:0.3741;" points="133.639,23.951 131.902,31.571 133.443,31.812 
		134.84,24.132 	"/>
</g>
</svg>
