<?xml version="1.0" encoding="iso-8859-1"?>
<!-- Generator: Adobe Illustrator 13.0.0, SVG Export Plug-In . SVG Version: 6.00 Build 14948)  -->
<!DOCTYPE svg PUBLIC "-//W3C//DTD SVG 1.1//EN" "http://www.w3.org/Graphics/SVG/1.1/DTD/svg11.dtd">
<svg version="1.1" xmlns="http://www.w3.org/2000/svg" xmlns:xlink="http://www.w3.org/1999/xlink" x="0px" y="0px" width="378px"
	 height="171.715px" viewBox="0 0 378 171.715" style="enable-background:new 0 0 378 171.715;" xml:space="preserve">
<style type="text/css">
<![CDATA[
]]>
</style>
<g id="fond">
	<rect style="fill:#FFFFFF;" width="378" height="140"/>
</g>
<g id="Layer_3">
	<g>
		<g>
			<rect x="121.5" y="2.5" style="fill:none;" width="135" height="135"/>
			<path style="fill:#406FA9;" d="M256.5,125.963c0,6.373-5.164,11.537-11.537,11.537H133.037c-6.371,0-11.537-5.164-11.537-11.537
				V14.037c0-6.371,5.166-11.537,11.537-11.537h111.926c6.373,0,11.537,5.166,11.537,11.537V125.963z"/>
			<path style="fill:none;stroke:#FFFFFF;stroke-width:4.0703;" d="M251.018,121.418c0,5.854-4.746,10.6-10.602,10.6H137.585
				c-5.855,0-10.602-4.746-10.602-10.6V18.586c0-5.854,4.746-10.602,10.602-10.602h102.831c5.855,0,10.602,4.748,10.602,10.602
				V121.418z"/>
		</g>
	</g>
	<path style="fill:#FFFFFF;" d="M189,109.667L189,109.667L189,109.667z"/>
</g>
<g id="Layer_5">
	<text transform="matrix(1 0 0 1 148.98 114)" style="fill:#FFFFFF; font-family:'Helvetica-Bold'; font-size:120;">P</text>
</g>
</svg>
