<?xml version="1.0" encoding="iso-8859-1"?>
<!-- Generator: Adobe Illustrator 13.0.0, SVG Export Plug-In . SVG Version: 6.00 Build 14948)  -->
<!DOCTYPE svg PUBLIC "-//W3C//DTD SVG 1.1//EN" "http://www.w3.org/Graphics/SVG/1.1/DTD/svg11.dtd">
<svg version="1.1" xmlns="http://www.w3.org/2000/svg" xmlns:xlink="http://www.w3.org/1999/xlink" x="0px" y="0px" width="378px"
	 height="140px" viewBox="0 0 378 140" style="enable-background:new 0 0 378 140;" xml:space="preserve">
<pattern  x="-81" y="170" width="538" height="200" patternUnits="userSpaceOnUse" id="New_Pattern_Swatch_3" viewBox="0 -200 538 200" style="overflow:visible;">
	<g>
		<polygon style="fill:none;" points="0,0 538,0 538,-200 0,-200 		"/>
		<polygon style="fill:#FFFFFF;" points="0,0 538,0 538,-200 0,-200 		"/>
	</g>
</pattern>
<g id="fond">
	<rect style="fill:#FFFFFF;" width="378" height="140"/>
</g>
<g id="Layer_3">
	
		<line id="horizon_mer" style="fill:none;stroke:#33CCFF;stroke-width:0.5;stroke-linecap:round;stroke-linejoin:round;" x1="46.834" y1="48.542" x2="312.833" y2="48.542"/>
</g>
<g id="Layer_4">
	<path style="fill:url(#New_Pattern_Swatch_3);stroke:#777768;stroke-width:0.5;stroke-linecap:round;stroke-linejoin:round;" d="
		M5.667,16.333c3.197,0.205,6.993,3.389,8.584,8.117s4.305,12.726,13.999,12.726c9.75,0,11.132,4.287,16.457,6.428
		c8.168,3.285,8.246,9.444,11.137,11.22c7.823,4.806,5.352,13.634,10.004,16.426s5.909,16.25,5.909,16.25
		c-1.94,1.94-45.634,17.995-47.837,15.792s-13.782,2.812-17.585,4.51"/>
	<path style="fill:#FFFFFF;stroke:#777768;stroke-width:0.5;stroke-linecap:round;stroke-linejoin:round;" d="M375,16.333
		c-11.843,0-28.782,4.051-36.1,3.992c-9.056-0.073-17.672,11.267-20.574,18.91c-2.573,6.772-12.631,9.802-19.201,14.265
		c-6.396,4.344-21.776,9.944-30.387,12.094c-4.72,1.178-7.713,4.188-10.392,8.073c-1.843,2.673-2.792,2.964-6.151,7.689
		s5.738,3.895,9.809,4.019c4.116,0.125,8.323,0.125,12.31,0.125c10.666,0,40.48,6.805,51.062,6.375
		c9.971-0.405,15.491-7.665,25.976-7.132c3.452,0.176,6.729-0.071,10.241-0.076c3.693-0.005,8.471,0.521,13.471,0.521"/>
</g>
<g id="Layer_2">
	<path style="fill:none;stroke:#33CCFF;stroke-linecap:round;stroke-linejoin:round;" d="M5.361,118.311
		c10.392-0.32,8.878,10.741,16.519,13.168c8.013,2.545,27.528-10,34.458-10.625c9.334-0.842,2.548,8.399,12.125,10.125
		c6.814,1.228,22.537-20.312,39.204-13.312c25.973,10.908,39.339,8.902,68.661-5.518c14.732-7.245,28.604,10.561,37.739,6.146
		c7.5-3.625,9.322-10.837,12.572-15.587c3.553-5.192,11.291-5.5,18.213-1.743c9.983,5.418,19.561,9.781,32.73,7.22
		c12.454-2.422-4.263-23.668,25.904-18.752"/>
</g>
</svg>
