<?xml version="1.0" encoding="iso-8859-1"?>
<!-- Generator: Adobe Illustrator 13.0.0, SVG Export Plug-In . SVG Version: 6.00 Build 14948)  -->
<!DOCTYPE svg PUBLIC "-//W3C//DTD SVG 1.1//EN" "http://www.w3.org/Graphics/SVG/1.1/DTD/svg11.dtd">
<svg version="1.1" xmlns="http://www.w3.org/2000/svg" xmlns:xlink="http://www.w3.org/1999/xlink" x="0px" y="0px" width="540px"
	 height="200px" viewBox="0 0 540 200" style="enable-background:new 0 0 540 200;" xml:space="preserve">
<g id="Layer_2">
	<rect style="fill:#FFFFFF;" width="540" height="200"/>
</g>
<g id="Layer_3">
	<path style="fill:#FFFFFF;stroke:#92938B;stroke-width:4;stroke-linecap:round;stroke-linejoin:round;" d="M248.439,45.154
		c0,17.956-11.109,32.506-24.818,32.506c-13.691,0-24.814-14.551-24.814-32.506c0-17.95,11.123-32.501,24.814-32.501
		C237.33,12.653,248.439,27.204,248.439,45.154z"/>
	<path style="fill:none;stroke:#92938B;stroke-width:4;stroke-linecap:round;stroke-linejoin:round;" d="M224.242,78.952
		c-0.11,22.688,3.112,84.624-0.754,108.395"/>
	<path style="fill:none;stroke:#92938B;stroke-width:2;stroke-linecap:round;stroke-linejoin:round;" d="M366.806,57.806
		c-1.302,2.825-3.663,4.071-4.358,4.766c-3.445,1.614-11.45,1.642-13.107-2.267"/>
	<path style="fill:none;stroke:#92938B;stroke-width:2;stroke-linecap:round;stroke-linejoin:round;" d="M349.066,63.707
		c0-12.885,2.57-20.627,6.719-31.53c-1.876,9.398-6.108,18.596-6.377,26.374c0-12.995,8.615-19.057,10.977-28.756
		c-2.361,9.699-6.582,16.233-10.977,28.756c1.997-4.005,6.148-8.857,7.375-9.185c1.035,0,5.578,3.229,6.178,3.829
		c0.443,0.726,0.695,3.551,0.777,5.413"/>
	<path style="fill:none;stroke:#92938B;stroke-width:2;stroke-linecap:round;stroke-linejoin:round;" d="M223.947,90.907
		c5.159,0,8.122,0.251,14.891,3.122c9.476,4.019,54.345,52.218,68.949,45.825c11.764-5.149,40.791-67.726,41.279-76.148"/>
	<path style="fill:none;stroke:#92938B;stroke-width:2;stroke-linecap:round;stroke-linejoin:round;" d="M351.096,37.092
		c0.225,2.888-2.301,20.695-1.908,24.051c0.148,0.179,0.061-0.086,0.148-0.16"/>
	
		<circle style="fill:#FFFFFF;stroke:#92938B;stroke-width:2;stroke-linecap:round;stroke-linejoin:round;" cx="230.613" cy="106" r="9.68"/>
</g>
</svg>
