<?xml version="1.0" encoding="iso-8859-1"?>
<!-- Generator: Adobe Illustrator 13.0.0, SVG Export Plug-In . SVG Version: 6.00 Build 14948)  -->
<!DOCTYPE svg PUBLIC "-//W3C//DTD SVG 1.1//EN" "http://www.w3.org/Graphics/SVG/1.1/DTD/svg11.dtd">
<svg version="1.1" xmlns="http://www.w3.org/2000/svg" xmlns:xlink="http://www.w3.org/1999/xlink" x="0px" y="0px" width="378px"
	 height="140px" viewBox="0 0 378 140" style="enable-background:new 0 0 378 140;" xml:space="preserve">
<pattern  x="-81" y="170" width="538" height="200" patternUnits="userSpaceOnUse" id="New_Pattern_Swatch_3" viewBox="0 -200 538 200" style="overflow:visible;">
	<g>
		<polygon style="fill:none;" points="0,0 538,0 538,-200 0,-200 		"/>
		<polygon style="fill:#FFFFFF;" points="0,0 538,0 538,-200 0,-200 		"/>
	</g>
</pattern>
<g id="fond">
	<g>
		<rect style="fill:#FFFFFF;" width="378" height="140"/>
	</g>
</g>
<g id="trains">
	<g>
		<g>
			<path style="fill:#5E5E5E;stroke:#5E5E5E;stroke-width:2.1;" d="M36.019,57.276c0,0,3.186-6.616,8.41-9.986"/>
			<path style="fill:#5E5E5E;stroke:#5E5E5E;stroke-width:2.1;" d="M58.924,57.276c0,0-3.187-6.616-8.41-9.986"/>
			<line style="fill:none;stroke:#5E5E5E;stroke-width:2.1;" x1="40.113" y1="51.16" x2="54.771" y2="51.16"/>
			<line style="fill:none;stroke:#5E5E5E;stroke-width:2.1;" x1="37.767" y1="54.282" x2="56.997" y2="54.282"/>
		</g>
		<path style="fill:#90A9C4;" d="M47.469,48.58c3.981,0,7.891-0.014,8.424-0.067c3.075-0.304,3.672-4.781,3.764-6.938
			c0.061-1.436-0.061-2.92,0.008-4.24c0.073-1.396-0.2-14.207-0.818-14.945c-0.809-0.966-1.491-1.406-3.586-1.406
			c-0.139,0-7.654,0-7.792,0h0.003c-0.137,0-7.653,0-7.792,0c-2.095,0-2.777,0.44-3.586,1.406
			c-0.618,0.738-0.891,13.548-0.818,14.945c0.069,1.319-0.053,2.804,0.008,4.24c0.092,2.158,0.689,6.635,3.764,6.938
			c0.533,0.053,4.442,0.067,8.424,0.067H47.469z"/>
		<g>
			<path style="fill:#FFFFFF;" d="M57.527,35.847c0,0.387-0.313,0.7-0.7,0.7H38.114c-0.387,0-0.7-0.313-0.7-0.7v-8.111
				c0-0.386,0.313-0.7,0.7-0.7h18.713c0.387,0,0.7,0.313,0.7,0.7V35.847z"/>
		</g>
		<g>
			<path style="fill:#FFFFFF;" d="M42.848,44.422c0,0.387-0.313,0.7-0.7,0.7h-2.653c-0.387,0-0.7-0.313-0.7-0.7v-2.498
				c0-0.386,0.313-0.7,0.7-0.7h2.653c0.387,0,0.7,0.313,0.7,0.7V44.422z"/>
			<path style="fill:#FFFFFF;" d="M56.147,44.422c0,0.387-0.313,0.7-0.7,0.7h-2.654c-0.387,0-0.7-0.313-0.7-0.7v-2.498
				c0-0.386,0.313-0.7,0.7-0.7h2.654c0.387,0,0.7,0.313,0.7,0.7V44.422z"/>
		</g>
	</g>
	<g>
		<g>
			<path style="fill:#5E5E5E;stroke:#5E5E5E;stroke-width:2.1;" d="M103.515,57.276c0,0,3.186-6.616,8.41-9.986"/>
			<path style="fill:#5E5E5E;stroke:#5E5E5E;stroke-width:2.1;" d="M126.42,57.276c0,0-3.187-6.616-8.411-9.986"/>
			<line style="fill:none;stroke:#5E5E5E;stroke-width:2.1;" x1="107.608" y1="51.16" x2="122.267" y2="51.16"/>
			<line style="fill:none;stroke:#5E5E5E;stroke-width:2.1;" x1="105.263" y1="54.282" x2="124.493" y2="54.282"/>
		</g>
		<path style="fill:#90A9C4;" d="M114.965,48.58c3.981,0,7.891-0.014,8.424-0.067c3.075-0.304,3.672-4.781,3.764-6.938
			c0.061-1.436-0.061-2.92,0.008-4.24c0.073-1.396-0.201-14.207-0.818-14.945c-0.809-0.966-1.491-1.406-3.586-1.406
			c-0.139,0-7.654,0-7.792,0h0.003c-0.138,0-7.653,0-7.792,0c-2.095,0-2.778,0.44-3.586,1.406
			c-0.618,0.738-0.891,13.548-0.818,14.945c0.069,1.319-0.052,2.804,0.008,4.24c0.092,2.158,0.689,6.635,3.764,6.938
			c0.533,0.053,4.442,0.067,8.424,0.067H114.965z"/>
		<g>
			<path style="fill:#FFFFFF;" d="M125.023,35.847c0,0.387-0.313,0.7-0.7,0.7H105.61c-0.387,0-0.7-0.313-0.7-0.7v-8.111
				c0-0.386,0.313-0.7,0.7-0.7h18.713c0.387,0,0.7,0.313,0.7,0.7V35.847z"/>
		</g>
		<g>
			<path style="fill:#FFFFFF;" d="M110.344,44.422c0,0.387-0.313,0.7-0.7,0.7h-2.654c-0.387,0-0.7-0.313-0.7-0.7v-2.498
				c0-0.386,0.313-0.7,0.7-0.7h2.654c0.387,0,0.7,0.313,0.7,0.7V44.422z"/>
			<path style="fill:#FFFFFF;" d="M123.644,44.422c0,0.387-0.313,0.7-0.7,0.7h-2.654c-0.387,0-0.7-0.313-0.7-0.7v-2.498
				c0-0.386,0.313-0.7,0.7-0.7h2.654c0.387,0,0.7,0.313,0.7,0.7V44.422z"/>
		</g>
	</g>
	<g>
		<g>
			<path style="fill:#5E5E5E;stroke:#5E5E5E;stroke-width:2.1;" d="M171.011,57.276c0,0,3.187-6.616,8.41-9.986"/>
			<path style="fill:#5E5E5E;stroke:#5E5E5E;stroke-width:2.1;" d="M193.916,57.276c0,0-3.187-6.616-8.41-9.986"/>
			<line style="fill:none;stroke:#5E5E5E;stroke-width:2.1;" x1="175.105" y1="51.16" x2="189.763" y2="51.16"/>
			<line style="fill:none;stroke:#5E5E5E;stroke-width:2.1;" x1="172.759" y1="54.282" x2="191.988" y2="54.282"/>
		</g>
		<path style="fill:#90A9C4;" d="M182.462,48.58c3.981,0,7.891-0.014,8.424-0.067c3.074-0.304,3.672-4.781,3.764-6.938
			c0.062-1.436-0.061-2.92,0.008-4.24c0.074-1.396-0.199-14.207-0.817-14.945c-0.81-0.966-1.491-1.406-3.586-1.406
			c-0.14,0-7.655,0-7.792,0h0.002c-0.137,0-7.653,0-7.792,0c-2.095,0-2.777,0.44-3.586,1.406
			c-0.618,0.738-0.892,13.548-0.818,14.945c0.069,1.319-0.053,2.804,0.008,4.24c0.091,2.158,0.689,6.635,3.764,6.938
			c0.533,0.053,4.443,0.067,8.424,0.067H182.462z"/>
		<g>
			<path style="fill:#FFFFFF;" d="M192.52,35.847c0,0.387-0.313,0.7-0.7,0.7h-18.712c-0.387,0-0.7-0.313-0.7-0.7v-8.111
				c0-0.386,0.313-0.7,0.7-0.7h18.712c0.387,0,0.7,0.313,0.7,0.7V35.847z"/>
		</g>
		<g>
			<path style="fill:#FFFFFF;" d="M177.84,44.422c0,0.387-0.313,0.7-0.7,0.7h-2.654c-0.387,0-0.7-0.313-0.7-0.7v-2.498
				c0-0.386,0.313-0.7,0.7-0.7h2.654c0.387,0,0.7,0.313,0.7,0.7V44.422z"/>
			<path style="fill:#FFFFFF;" d="M191.14,44.422c0,0.387-0.313,0.7-0.7,0.7h-2.653c-0.387,0-0.7-0.313-0.7-0.7v-2.498
				c0-0.386,0.313-0.7,0.7-0.7h2.653c0.387,0,0.7,0.313,0.7,0.7V44.422z"/>
		</g>
	</g>
</g>
<g id="Layer_4">
	<path style="display:none;fill:none;stroke:#777768;stroke-width:1.1991;stroke-linecap:round;stroke-linejoin:round;" d="
		M259.108,31.049c-2.481,0.095-13.954,10.39-15.431,9.362c-2.369-1.648-7.8-4.958-10.225-5.282c-2.402-0.321-3.34,0.382-5.562-0.546
		c2.264,0.128,2.085,0.438,4.515,0.459c-0.832-0.015-3.574-1.627-4.49-1.617c0.845,0.241,3.682,1.212,4.529,0.901
		c-0.315-0.111-5.608-2.5-5.771-2.585c-1.395-0.734,5.144,0.721,7.1,3.433"/>
</g>
<g id="controleuse">
	<path style="fill:none;stroke:#777768;stroke-width:1.799;stroke-linecap:round;stroke-linejoin:round;" d="M210.571,32.875
		c-0.011,1.939,0.057,4.926,0.131,8.376"/>
	
		<ellipse style="fill:url(#New_Pattern_Swatch_3);stroke:#777768;stroke-width:1.799;stroke-linecap:round;stroke-linejoin:round;" cx="210.57" cy="21.438" rx="8.425" ry="11.033"/>
	<path style="fill:none;stroke:#777768;stroke-width:1.799;stroke-linecap:round;stroke-linejoin:round;" d="M210.823,47.443
		c0.126,7.778,0.111,16.11-0.658,19.93c-1.197,6.016-3.608,3.611-2.403,12.035c1.507,10.555,5.617,19.256,4.411,24.469
		c-6.567,28.473-6.817,29.287-0.403,28.484"/>
	<g>
		<g>
			<path style="fill:#FFFFFF;stroke:#787768;stroke-width:1.1995;stroke-linecap:round;stroke-linejoin:round;" d="M215.599,44.317
				c0,1.882-1.521,3.409-3.406,3.409s-3.416-1.527-3.416-3.409c0-1.883,1.531-3.411,3.416-3.411S215.599,42.434,215.599,44.317z"/>
			<path style="fill:#4FAADF;stroke:#007EC3;stroke-width:0.3323;stroke-linecap:round;stroke-linejoin:round;" d="M211.893,36.045
				c-1.487-0.266-2.995-1.141-4.232-0.905c0.321,1.618,0.233,3.484,0.341,5.26c0.915-0.375,1.904-2.12,2.863-2.386
				c1.349-0.381,2.811,1.015,4.387,1.039c0.213-1.697-0.358-3.246-0.343-4.939C213.857,34.771,212.746,35.193,211.893,36.045
				c0.178-0.347,0.064-0.572-1.42-0.598c-0.711,0.502-0.875,2.258,0.392,2.566"/>
		</g>
		<path style="fill:#4FAADF;stroke:#007EC3;stroke-width:0.3323;stroke-linecap:round;stroke-linejoin:round;" d="M218.411,15.657
			l3.916,1.458c0,0-7.146,1.354-8.916,0.542c-1.449-0.665-4.417-2.125-4.417-2.125l4.875-0.833L218.411,15.657z"/>
		<polygon style="fill:#4FAADF;stroke:#007EC3;stroke-width:0.3323;stroke-linecap:round;stroke-linejoin:round;" points="
			203.965,9.325 216.75,8 218.411,15.657 202.405,15.99 		"/>
	</g>
	<g>
		<path style="fill:none;stroke:#777768;stroke-width:1.1995;stroke-linecap:round;stroke-linejoin:round;" d="M210.528,39.5
			c-0.696,2.591-1.214,2.834-0.266,5.377c0.686,1.836,3.004,16.529,5.518,19.042c2.542,1.027,9.118-7.542,10.839-10.998"/>
		<path style="fill:none;stroke:#777768;stroke-width:1.1995;stroke-linecap:round;stroke-linejoin:round;" d="M226.552,52.72
			c0.712-1.04,0.612-3.307,0.671-4.558c0.034-0.743-0.178-3.354-0.021-4.243c0.146,1.225,0.47,3.616,0.288,4.847
			c-0.188,1.276,0.185,3.429-1.072,4.223"/>
	</g>
</g>
<g id="voyageur">
	<g>
		<path style="fill:none;stroke:#777768;stroke-width:1.1995;stroke-linecap:round;stroke-linejoin:round;" d="M256.465,63.542
			c0,0.853,0.698,1.545,1.565,1.545c0.858,0,1.566-0.693,1.566-1.545c0-0.853-0.708-1.545-1.566-1.545
			C257.163,61.998,256.465,62.689,256.465,63.542z"/>
		<path style="fill:#FFFFFF;stroke:#777768;stroke-width:1.1995;stroke-linecap:round;stroke-linejoin:round;" d="M250.729,16.786
			c0,4.783,3.008,8.66,6.707,8.66c3.7,0,6.709-3.877,6.709-8.66s-3.009-8.66-6.709-8.66
			C253.737,8.126,250.729,12.003,250.729,16.786z"/>
		<path style="fill:none;stroke:#777768;stroke-width:1.1995;stroke-linecap:round;stroke-linejoin:round;" d="M257.27,25.791
			c0.032,6.045-0.824,23.92,0.349,29.723c1.053,5.183,1.519,3.612,0.47,10.869c-1.315,9.089,1.644,17.958,1.96,22.558
			c1.633,23.85,1.779,23.252-3.83,22.559"/>
	</g>
</g>
</svg>
