<?xml version="1.0" encoding="utf-8"?>
<!-- Generator: Adobe Illustrator 16.0.0, SVG Export Plug-In . SVG Version: 6.00 Build 0)  -->
<!DOCTYPE svg PUBLIC "-//W3C//DTD SVG 1.1//EN" "http://www.w3.org/Graphics/SVG/1.1/DTD/svg11.dtd">
<svg version="1.1" id="Calque_1" xmlns="http://www.w3.org/2000/svg" xmlns:xlink="http://www.w3.org/1999/xlink" x="0px" y="0px"
	 width="378px" height="140px" viewBox="0 0 378 140" enable-background="new 0 0 378 140" xml:space="preserve">
<g id="Layer_2">
	<g>
		<rect fill="none" width="378" height="140"/>
		<rect fill="none" width="378" height="140"/>
	</g>
</g>
<g id="Layer_3">
	<g>
		<path fill="#65B724" d="M164.004,124.38c0,1.171-0.723,2.119-1.614,2.119h-13.312c-0.891,0-1.614-0.948-1.614-2.119V33.284
			c0-1.169,0.723-2.118,1.614-2.118h13.312c0.891,0,1.614,0.949,1.614,2.118V124.38z"/>
		<rect x="101.666" y="2.166" fill="none" stroke="#383838" stroke-width="1.0242" width="174.667" height="135.667"/>
		
			<text transform="matrix(1 0 0 1 114.665 44.501)" fill="#65B724" font-family="'MyriadPro-Regular'" font-size="12" letter-spacing="33">  </text>
		
			<text transform="matrix(1 0 0 1 114.665 44.501)" fill="none" stroke="#FF9934" stroke-width="0.5" font-family="'MyriadPro-Regular'" font-size="12" letter-spacing="33">  </text>
		<text transform="matrix(1 0 0 1 186.665 44.501)" fill="#65B724" font-family="'MyriadPro-Regular'" font-size="12">   </text>
		
			<text transform="matrix(1 0 0 1 186.665 44.501)" fill="none" stroke="#FF9934" stroke-width="0.5" font-family="'MyriadPro-Regular'" font-size="12">   </text>
		
			<text transform="matrix(1 0 0 1 180.2969 44.501)" fill="none" stroke="#668C44" stroke-width="0.5" font-family="'MyriadPro-Regular'" font-size="12">  </text>
		<text transform="matrix(1 0 0 1 185.3848 44.501)" fill="#65B724" font-family="'MyriadPro-Regular'" font-size="12">01  02  03</text>
		<text transform="matrix(1 0 0 1 185.3848 44.501)" fill="#65B724" font-family="'MyriadPro-Regular'" font-size="12">01  02  03</text>
		<text transform="matrix(1 0 0 1 114.665 63.9014)" fill="#65B724" font-family="'MyriadPro-Regular'" font-size="12">04  05</text>
		<text transform="matrix(1 0 0 1 114.665 63.9014)" fill="#65B724" font-family="'MyriadPro-Regular'" font-size="12">04  05</text>
		
			<text transform="matrix(1 0 0 1 144.376 63.9014)" fill="none" stroke="#65B724" stroke-width="0.5" font-family="'MyriadPro-Regular'" font-size="12">  </text>
		<text transform="matrix(1 0 0 1 149.4639 63.9014)" fill="#FFFFFF" font-family="'MyriadPro-Regular'" font-size="12">06</text>
		<text transform="matrix(1 0 0 1 149.4639 63.9014)" fill="#FFFFFF" font-family="'MyriadPro-Regular'" font-size="12">06</text>
		
			<text transform="matrix(1 0 0 1 161.7749 63.9014)" fill="none" stroke="#65B724" stroke-width="0.5" font-family="'MyriadPro-Regular'" font-size="12">  </text>
		<text transform="matrix(1 0 0 1 166.8628 63.9014)" fill="#65B724" font-family="'MyriadPro-Regular'" font-size="12">07  08  09  10</text>
		<text transform="matrix(1 0 0 1 166.8628 63.9014)" fill="#65B724" font-family="'MyriadPro-Regular'" font-size="12">07  08  09  10</text>
		<text transform="matrix(1 0 0 1 114.665 83.3008)" fill="#65B724" font-family="'MyriadPro-Regular'" font-size="12">11  12 </text>
		<text transform="matrix(1 0 0 1 114.665 83.3008)" fill="#65B724" font-family="'MyriadPro-Regular'" font-size="12">11  12 </text>
		
			<text transform="matrix(1 0 0 1 146.9199 83.3008)" fill="none" stroke="#65B724" stroke-width="0.5" font-family="'MyriadPro-Regular'" font-size="12"> </text>
		<text transform="matrix(1 0 0 1 149.4639 83.3008)" fill="#FFFFFF" font-family="'MyriadPro-Regular'" font-size="12">13</text>
		<text transform="matrix(1 0 0 1 149.4639 83.3008)" fill="#FFFFFF" font-family="'MyriadPro-Regular'" font-size="12">13</text>
		
			<text transform="matrix(1 0 0 1 161.7749 83.3008)" fill="none" stroke="#65B724" stroke-width="0.5" font-family="'MyriadPro-Regular'" font-size="12">  </text>
		<text transform="matrix(1 0 0 1 166.8628 83.3008)" fill="#65B724" font-family="'MyriadPro-Regular'" font-size="12">14  15  16  17</text>
		<text transform="matrix(1 0 0 1 166.8628 83.3008)" fill="#65B724" font-family="'MyriadPro-Regular'" font-size="12">14  15  16  17</text>
		<text transform="matrix(1 0 0 1 114.665 102.7012)" fill="#65B724" font-family="'MyriadPro-Regular'" font-size="12">18  19</text>
		<text transform="matrix(1 0 0 1 114.665 102.7012)" fill="#65B724" font-family="'MyriadPro-Regular'" font-size="12">18  19</text>
		
			<text transform="matrix(1 0 0 1 144.376 102.7012)" fill="none" stroke="#65B724" stroke-width="0.5" font-family="'MyriadPro-Regular'" font-size="12">  </text>
		<text transform="matrix(1 0 0 1 149.4639 102.7012)" fill="#FFFFFF" font-family="'MyriadPro-Regular'" font-size="12">20</text>
		<text transform="matrix(1 0 0 1 149.4639 102.7012)" fill="#FFFFFF" font-family="'MyriadPro-Regular'" font-size="12">20</text>
		
			<text transform="matrix(1 0 0 1 161.7749 102.7012)" fill="none" stroke="#65B724" stroke-width="0.5" font-family="'MyriadPro-Regular'" font-size="12">  </text>
		<text transform="matrix(1 0 0 1 166.8628 102.7012)" fill="#65B724" font-family="'MyriadPro-Regular'" font-size="12">21  22  23  24</text>
		<text transform="matrix(1 0 0 1 166.8628 102.7012)" fill="#65B724" font-family="'MyriadPro-Regular'" font-size="12">21  22  23  24</text>
		<text transform="matrix(1 0 0 1 114.665 122.1006)" fill="#65B724" font-family="'MyriadPro-Regular'" font-size="12">25  26  </text>
		<text transform="matrix(1 0 0 1 114.665 122.1006)" fill="#65B724" font-family="'MyriadPro-Regular'" font-size="12">25  26  </text>
		<text transform="matrix(1 0 0 1 149.4639 122.1006)" fill="#FFFFFF" font-family="'MyriadPro-Regular'" font-size="12">27</text>
		<text transform="matrix(1 0 0 1 149.4639 122.1006)" fill="#FFFFFF" font-family="'MyriadPro-Regular'" font-size="12">27</text>
		
			<text transform="matrix(1 0 0 1 161.7749 122.1006)" fill="none" stroke="#65B724" stroke-width="0.5" font-family="'MyriadPro-Regular'" font-size="12">  </text>
		<text transform="matrix(1 0 0 1 166.8628 122.1006)" fill="#65B724" font-family="'MyriadPro-Regular'" font-size="12">28  29  30  31</text>
		<text transform="matrix(1 0 0 1 166.8628 122.1006)" fill="#65B724" font-family="'MyriadPro-Regular'" font-size="12">28  29  30  31</text>
	</g>
</g>
</svg>
