<?xml version="1.0" encoding="iso-8859-1"?>
<!-- Generator: Adobe Illustrator 13.0.0, SVG Export Plug-In . SVG Version: 6.00 Build 14948)  -->
<!DOCTYPE svg PUBLIC "-//W3C//DTD SVG 1.1//EN" "http://www.w3.org/Graphics/SVG/1.1/DTD/svg11.dtd">
<svg version="1.1" xmlns="http://www.w3.org/2000/svg" xmlns:xlink="http://www.w3.org/1999/xlink" x="0px" y="0px" width="378px"
	 height="140px" viewBox="0 0 378 140" style="enable-background:new 0 0 378 140;" xml:space="preserve">
<g id="fond">
	<rect style="fill:#FFFFFF;" width="378" height="140"/>
</g>
<g id="Layer_6">
	<g>
		
			<line style="fill:none;stroke:#777768;stroke-width:1.6231;stroke-linecap:round;stroke-linejoin:round;" x1="184" y1="58.333" x2="184" y2="127.583"/>
		
			<line style="fill:none;stroke:#777768;stroke-width:1.5;stroke-linecap:round;stroke-linejoin:round;" x1="184" y1="26" x2="184" y2="18.583"/>
		<path style="fill:none;stroke:#777768;stroke-width:0.5;stroke-linecap:round;stroke-linejoin:round;" d="M247.228,58.333
			C247.228,48.724,218.824,26,184,26c-34.825,0-63.228,22.724-63.228,32.333H247.228z"/>
		<path style="fill:#FFFFFF;stroke:#777768;stroke-width:0.5;stroke-linecap:round;stroke-linejoin:round;" d="M232.241,58.333
			C232.241,48.724,208.003,26,184,26s-48.241,22.724-48.241,32.333H232.241z"/>
		<path style="fill:none;stroke:#777768;stroke-width:0.5;stroke-linecap:round;stroke-linejoin:round;" d="M184,26
			c13.702,0,23.835,22.724,23.835,32.333h-47.67C160.165,48.724,170.299,26,184,26z"/>
	</g>
	<g>
		
			<line style="fill:none;stroke:#777768;stroke-width:1.0371;stroke-linecap:round;stroke-linejoin:round;" x1="260.697" y1="99.775" x2="183.748" y2="126.941"/>
		
			<line style="display:none;fill:none;stroke:#777768;stroke-width:0.9584;stroke-linecap:round;stroke-linejoin:round;" x1="296.625" y1="87.091" x2="304.867" y2="84.182"/>
	</g>
	
		<ellipse transform="matrix(0.9967 0.0809 -0.0809 0.9967 8.3882 -21.8739)" style="fill:#777768;stroke:#777768;stroke-width:0.4208;stroke-linecap:round;stroke-linejoin:round;" cx="274.25" cy="92.625" rx="62.568" ry="13.094"/>
</g>
</svg>
