<?xml version="1.0" encoding="iso-8859-1"?>
<!-- Generator: Adobe Illustrator 13.0.0, SVG Export Plug-In . SVG Version: 6.00 Build 14948)  -->
<!DOCTYPE svg PUBLIC "-//W3C//DTD SVG 1.1//EN" "http://www.w3.org/Graphics/SVG/1.1/DTD/svg11.dtd">
<svg version="1.1" xmlns="http://www.w3.org/2000/svg" xmlns:xlink="http://www.w3.org/1999/xlink" x="0px" y="0px" width="540px"
	 height="200px" viewBox="0 0 540 200" style="enable-background:new 0 0 540 200;" xml:space="preserve">
<g id="FOND">
	<g>
		<rect style="fill:#FFFFFF;" width="540" height="200"/>
	</g>
</g>
<g id="Layer_3">
	<line style="fill:none;stroke:#79B423;stroke-width:1.4573;" x1="59.111" y1="76.11" x2="39.858" y2="76.085"/>
	<g>
		<g>
			
				<rect x="369.283" y="95.118" style="fill:#D2031D;stroke:#FFFFFF;stroke-width:0.3895;stroke-linecap:square;" width="1.905" height="27.38"/>
			<g>
				<path style="fill:#92938B;stroke:#FFFFFF;stroke-width:3.1233;" d="M354.091,94.52c0,0.598,0.485,1.08,1.085,1.08h30.113
					c0.603,0,1.087-0.482,1.087-1.08s-0.484-1.079-1.087-1.079h-30.113C354.576,93.441,354.091,93.922,354.091,94.52
					C354.091,94.52,354.091,93.922,354.091,94.52z"/>
				<path style="fill:#D2031D;stroke:#FFFFFF;stroke-width:0.5844;" d="M354.091,94.52c0,0.598,0.485,1.08,1.085,1.08h30.113
					c0.603,0,1.087-0.482,1.087-1.08s-0.484-1.079-1.087-1.079h-30.113C354.576,93.441,354.091,93.922,354.091,94.52
					C354.091,94.52,354.091,93.922,354.091,94.52z"/>
			</g>
		</g>
		<g>
			<g>
				
					<line style="fill:none;stroke:#79B423;stroke-width:1.8215;stroke-linecap:round;stroke-linejoin:round;" x1="344.608" y1="88.609" x2="344.608" y2="105.021"/>
				
					<line style="fill:none;stroke:#79B423;stroke-width:1.8215;stroke-linecap:round;stroke-linejoin:round;" x1="344.608" y1="105.021" x2="361.021" y2="105.021"/>
				
					<line style="fill:none;stroke:#79B423;stroke-width:1.8215;stroke-linecap:round;stroke-linejoin:round;" x1="361.021" y1="105.021" x2="344.592" y2="121.452"/>
				
					<line style="fill:none;stroke:#79B423;stroke-width:1.8215;stroke-linecap:round;stroke-linejoin:round;" x1="344.592" y1="121.452" x2="354.054" y2="121.452"/>
			</g>
			<g>
				
					<line style="fill:none;stroke:#79B423;stroke-width:1.8215;stroke-linecap:round;stroke-linejoin:round;" x1="399.783" y1="88.609" x2="399.783" y2="105.021"/>
				
					<line style="fill:none;stroke:#79B423;stroke-width:1.8215;stroke-linecap:round;stroke-linejoin:round;" x1="399.783" y1="105.021" x2="383.377" y2="105.021"/>
				
					<line style="fill:none;stroke:#79B423;stroke-width:1.8215;stroke-linecap:round;stroke-linejoin:round;" x1="383.377" y1="105.021" x2="399.799" y2="121.452"/>
				
					<line style="fill:none;stroke:#79B423;stroke-width:1.8215;stroke-linecap:round;stroke-linejoin:round;" x1="399.799" y1="121.452" x2="390.341" y2="121.452"/>
			</g>
		</g>
	</g>
	<g>
		<g>
			
				<rect x="455.578" y="95.118" style="fill:#D2031D;stroke:#FFFFFF;stroke-width:0.3895;stroke-linecap:square;" width="1.906" height="27.38"/>
			<g>
				<path style="fill:#92938B;stroke:#FFFFFF;stroke-width:3.1233;" d="M440.386,94.52c0,0.598,0.485,1.08,1.086,1.08h30.112
					c0.602,0,1.087-0.482,1.087-1.08s-0.485-1.079-1.087-1.079h-30.112C440.871,93.441,440.386,93.922,440.386,94.52
					C440.386,94.52,440.386,93.922,440.386,94.52z"/>
				<path style="fill:#D2031D;stroke:#FFFFFF;stroke-width:0.5844;" d="M440.386,94.52c0,0.598,0.485,1.08,1.086,1.08h30.112
					c0.602,0,1.087-0.482,1.087-1.08s-0.485-1.079-1.087-1.079h-30.112C440.871,93.441,440.386,93.922,440.386,94.52
					C440.386,94.52,440.386,93.922,440.386,94.52z"/>
			</g>
		</g>
		<g>
			<g>
				
					<line style="fill:none;stroke:#79B423;stroke-width:1.8215;stroke-linecap:round;stroke-linejoin:round;" x1="430.903" y1="88.609" x2="430.903" y2="105.021"/>
				
					<line style="fill:none;stroke:#79B423;stroke-width:1.8215;stroke-linecap:round;stroke-linejoin:round;" x1="430.903" y1="105.021" x2="447.315" y2="105.021"/>
				
					<line style="fill:none;stroke:#79B423;stroke-width:1.8215;stroke-linecap:round;stroke-linejoin:round;" x1="447.315" y1="105.021" x2="430.889" y2="121.452"/>
				
					<line style="fill:none;stroke:#79B423;stroke-width:1.8215;stroke-linecap:round;stroke-linejoin:round;" x1="430.889" y1="121.452" x2="440.35" y2="121.452"/>
			</g>
			<g>
				
					<line style="fill:none;stroke:#79B423;stroke-width:1.8215;stroke-linecap:round;stroke-linejoin:round;" x1="486.08" y1="88.609" x2="486.08" y2="105.021"/>
				
					<line style="fill:none;stroke:#79B423;stroke-width:1.8215;stroke-linecap:round;stroke-linejoin:round;" x1="486.08" y1="105.021" x2="469.672" y2="105.021"/>
				
					<line style="fill:none;stroke:#79B423;stroke-width:1.8215;stroke-linecap:round;stroke-linejoin:round;" x1="469.672" y1="105.021" x2="486.094" y2="121.452"/>
				
					<line style="fill:none;stroke:#79B423;stroke-width:1.8215;stroke-linecap:round;stroke-linejoin:round;" x1="486.094" y1="121.452" x2="476.637" y2="121.452"/>
			</g>
		</g>
	</g>
	<g>
		<rect x="255.723" y="91.799" style="fill:#79B423;stroke:#FFFFFF;stroke-width:0.5844;" width="2.328" height="30.96"/>
		<path style="fill:#79B423;stroke:#FFFFFF;stroke-width:0.5844;" d="M263.668,93.496h-13.57v-3.394c0,0,3.218-1.486,6.612-1.486
			c3.393,0,6.958,1.486,6.958,1.486V93.496z"/>
		<rect x="252.539" y="115.419" style="fill:#79B423;stroke:#FFFFFF;stroke-width:0.3895;" width="8.693" height="0.796"/>
	</g>
	<line style="fill:none;stroke:#79B423;stroke-width:1.4573;" x1="234.964" y1="76.126" x2="244.508" y2="76.126"/>
	<path style="fill:none;stroke:#92938B;stroke-width:1.4573;" d="M234.964,76.126"/>
	<line style="fill:none;stroke:#79B423;stroke-width:1.4573;" x1="59.032" y1="76.126" x2="221.913" y2="76.126"/>
	
		<line style="fill:none;stroke:#79B423;stroke-width:1.4573;stroke-linecap:square;" x1="244.508" y1="76.126" x2="244.508" y2="86.35"/>
	
		<line style="fill:none;stroke:#79B423;stroke-width:1.4573;stroke-linecap:square;" x1="244.508" y1="86.35" x2="240.129" y2="86.35"/>
	
		<line style="fill:none;stroke:#79B423;stroke-width:1.4573;stroke-linecap:square;" x1="240.129" y1="86.35" x2="240.129" y2="122.376"/>
	<line style="fill:none;stroke:#79B423;stroke-width:1.4573;" x1="323.365" y1="122.376" x2="506.151" y2="122.376"/>
	<path style="fill:none;stroke:#92938B;stroke-width:1.4573;stroke-linecap:round;stroke-linejoin:round;" d="M323.365,122.126"/>
	<path style="fill:none;stroke:#92938B;stroke-width:1.4573;stroke-linecap:round;stroke-linejoin:round;" d="M259.994,122.376"/>
	
		<line style="fill:none;stroke:#79B423;stroke-width:1.4573;stroke-linecap:round;stroke-linejoin:round;" x1="240.129" y1="122.376" x2="259.994" y2="122.376"/>
	<g>
		
			<rect x="323.638" y="15.987" style="opacity:0.45;fill:#FFFFFF;stroke:#92938B;stroke-width:0.7808;" width="182.81" height="132.316"/>
		<polyline style="fill:none;stroke:#92938B;stroke-width:0.7808;" points="506.447,122.397 506.447,148.304 323.638,148.304 
			323.638,15.987 506.447,15.987 506.447,122.397 		"/>
	</g>
	<g>
		
			<rect x="39.495" y="15.987" style="opacity:0.45;fill:none;stroke:#92938B;stroke-width:0.7808;" width="182.809" height="132.316"/>
		<polyline style="opacity:0.45;fill:#FFFFFF;stroke:#92938B;stroke-width:0.7808;" points="222.304,75.702 222.304,148.304 
			39.495,148.304 39.495,15.987 222.304,15.987 222.304,70.639 		"/>
		<line style="opacity:0.45;fill:none;stroke:#92938B;stroke-width:0.7808;" x1="222.304" y1="70.639" x2="222.304" y2="75.702"/>
	</g>
	<g>
		<g style="opacity:0.47;">
			<g>
				<line style="fill:none;" x1="470.655" y1="147.667" x2="434.298" y2="122.685"/>
				<path style="fill:#BDD9E9;" d="M471.04,147.117c-12.119-8.327-24.238-16.655-36.357-24.982c-0.714-0.49-1.484,0.608-0.77,1.1
					c12.119,8.327,24.238,16.655,36.357,24.982C470.984,148.707,471.755,147.608,471.04,147.117L471.04,147.117z"/>
			</g>
		</g>
		<g style="opacity:0.47;">
			<g>
				<line style="fill:none;" x1="474.665" y1="142.53" x2="429.476" y2="101.797"/>
				<path style="fill:#BDD9E9;" d="M475.05,141.98c-15.062-13.578-30.126-27.155-45.189-40.733c-0.643-0.579-1.405,0.527-0.77,1.1
					c15.062,13.578,30.126,27.155,45.189,40.733C474.923,143.659,475.686,142.553,475.05,141.98L475.05,141.98z"/>
			</g>
		</g>
		<g style="opacity:0.47;">
			<g>
				<line style="fill:none;" x1="484.276" y1="137.91" x2="428.827" y2="91.977"/>
				<path style="fill:#BDD9E9;" d="M484.661,137.36c-18.482-15.312-36.966-30.622-55.449-45.933c-0.667-0.553-1.433,0.551-0.77,1.1
					c18.482,15.311,36.966,30.622,55.449,45.933C484.559,139.014,485.324,137.909,484.661,137.36L484.661,137.36z"/>
			</g>
		</g>
		<g style="opacity:0.47;">
			<g>
				<line style="fill:none;" x1="474.739" y1="114.442" x2="434.298" y2="75.128"/>
				<path style="fill:#BDD9E9;" d="M475.251,114.008c-13.48-13.104-26.961-26.209-40.441-39.314
					c-0.614-0.597-1.646,0.264-1.023,0.869c13.48,13.104,26.961,26.208,40.441,39.314
					C474.842,115.475,475.873,114.613,475.251,114.008L475.251,114.008z"/>
			</g>
		</g>
		<g style="opacity:0.47;">
			<g>
				<line style="fill:none;" x1="476.117" y1="103.108" x2="435.387" y2="66.515"/>
				<path style="fill:#BDD9E9;" d="M476.502,102.559c-13.576-12.198-27.153-24.396-40.73-36.594c-0.644-0.579-1.406,0.528-0.77,1.1
					c13.576,12.198,27.153,24.396,40.73,36.594C476.376,104.236,477.139,103.13,476.502,102.559L476.502,102.559z"/>
			</g>
		</g>
		<g style="opacity:0.47;">
			<g>
				<line style="fill:none;" x1="488.07" y1="100.707" x2="445.931" y2="54.634"/>
				<path style="fill:#BDD9E9;" d="M488.582,100.272c-14.046-15.357-28.093-30.715-42.14-46.072
					c-0.582-0.637-1.61,0.228-1.023,0.869c14.046,15.357,28.093,30.715,42.14,46.072
					C488.141,101.777,489.169,100.914,488.582,100.272L488.582,100.272z"/>
			</g>
		</g>
		<g style="opacity:0.47;">
			<g>
				<line style="fill:none;" x1="453.255" y1="146.429" x2="415.699" y2="118.566"/>
				<path style="fill:#BDD9E9;" d="M453.64,145.879c-12.519-9.287-25.037-18.575-37.556-27.862c-0.696-0.517-1.465,0.584-0.77,1.1
					c12.519,9.287,25.037,18.575,37.556,27.862C453.566,147.495,454.335,146.395,453.64,145.879L453.64,145.879z"/>
			</g>
		</g>
		<g style="opacity:0.47;">
			<g>
				<line style="fill:none;" x1="439.397" y1="146.429" x2="401.842" y2="120.436"/>
				<path style="fill:#BDD9E9;" d="M439.782,145.879c-12.519-8.664-25.037-17.329-37.556-25.993c-0.712-0.493-1.482,0.606-0.77,1.1
					c12.519,8.664,25.037,17.329,37.556,25.993C439.725,147.472,440.495,146.372,439.782,145.879L439.782,145.879z"/>
			</g>
		</g>
		<g style="opacity:0.47;">
			<g>
				<line style="fill:none;" x1="424.816" y1="146.429" x2="396.371" y2="131.67"/>
				<path style="fill:#BDD9E9;" d="M425.05,145.799c-9.482-4.919-18.964-9.839-28.445-14.759c-0.77-0.398-1.224,0.866-0.467,1.26
					c9.482,4.92,18.964,9.839,28.445,14.759C425.353,147.457,425.807,146.192,425.05,145.799L425.05,145.799z"/>
			</g>
		</g>
		<g style="opacity:0.47;">
			<g>
				<line style="fill:none;" x1="400.744" y1="146.429" x2="380.693" y2="127.549"/>
				<path style="fill:#BDD9E9;" d="M401.256,145.994c-6.684-6.293-13.367-12.586-20.051-18.88c-0.622-0.586-1.655,0.274-1.023,0.869
					c6.684,6.293,13.367,12.586,20.051,18.88C400.854,147.449,401.888,146.589,401.256,145.994L401.256,145.994z"/>
			</g>
		</g>
		<g style="opacity:0.47;">
			<g>
				<line style="fill:none;" x1="496.152" y1="89.921" x2="462.736" y2="59.024"/>
				<path style="fill:#BDD9E9;" d="M496.664,89.486c-11.139-10.299-22.277-20.598-33.416-30.897c-0.627-0.58-1.66,0.281-1.023,0.869
					c11.139,10.299,22.277,20.598,33.416,30.897C496.268,90.935,497.301,90.075,496.664,89.486L496.664,89.486z"/>
			</g>
		</g>
		<g style="opacity:0.47;">
			<g>
				<line style="fill:none;" x1="493.813" y1="70.41" x2="472.942" y2="53.772"/>
				<path style="fill:#BDD9E9;" d="M494.198,69.86c-6.957-5.546-13.914-11.092-20.871-16.638c-0.678-0.541-1.444,0.562-0.77,1.1
					c6.957,5.546,13.914,11.092,20.871,16.638C494.106,71.5,494.873,70.397,494.198,69.86L494.198,69.86z"/>
			</g>
		</g>
		<g style="opacity:0.47;">
			<g>
				<line style="fill:none;" x1="504.921" y1="63.138" x2="481.692" y2="44.792"/>
				<path style="fill:#BDD9E9;" d="M505.306,62.588c-7.742-6.116-15.485-12.231-23.229-18.347c-0.681-0.538-1.447,0.565-0.77,1.1
					c7.742,6.116,15.485,12.231,23.229,18.347C505.217,64.226,505.983,63.123,505.306,62.588L505.306,62.588z"/>
			</g>
		</g>
	</g>
	<g>
		<g style="opacity:0.47;">
			<g>
				<line style="fill:none;" x1="182.396" y1="148.304" x2="140.055" y2="119.207"/>
				<path style="fill:#BDD9E9;" d="M182.781,147.754c-14.114-9.699-28.228-19.397-42.341-29.097c-0.714-0.49-1.485,0.608-0.771,1.1
					c14.114,9.699,28.228,19.397,42.341,29.097C182.725,149.344,183.496,148.245,182.781,147.754L182.781,147.754z"/>
			</g>
		</g>
		<g style="opacity:0.47;">
			<g>
				<line style="fill:none;" x1="187.066" y1="142.322" x2="134.438" y2="94.879"/>
				<path style="fill:#BDD9E9;" d="M187.452,141.772c-17.543-15.814-35.085-31.629-52.628-47.443
					c-0.643-0.579-1.405,0.527-0.771,1.1c17.543,15.814,35.085,31.628,52.628,47.443
					C187.324,143.451,188.086,142.345,187.452,141.772L187.452,141.772z"/>
			</g>
		</g>
		<g style="opacity:0.47;">
			<g>
				<line style="fill:none;" x1="198.26" y1="136.938" x2="133.683" y2="83.448"/>
				<path style="fill:#BDD9E9;" d="M198.645,136.388c-21.526-17.83-43.052-35.66-64.577-53.489c-0.668-0.553-1.433,0.551-0.771,1.1
					c21.526,17.829,43.052,35.659,64.577,53.489C198.542,138.041,199.308,136.937,198.645,136.388L198.645,136.388z"/>
			</g>
		</g>
		<g style="opacity:0.47;">
			<g>
				<line style="fill:none;" x1="187.152" y1="109.608" x2="140.055" y2="63.821"/>
				<path style="fill:#BDD9E9;" d="M187.664,109.174c-15.699-15.262-31.398-30.524-47.097-45.787
					c-0.615-0.597-1.646,0.264-1.024,0.869c15.699,15.262,31.398,30.525,47.097,45.787
					C187.254,110.641,188.286,109.779,187.664,109.174L187.664,109.174z"/>
			</g>
		</g>
		<g style="opacity:0.47;">
			<g>
				<line style="fill:none;" x1="188.759" y1="96.409" x2="141.323" y2="53.79"/>
				<path style="fill:#BDD9E9;" d="M189.144,95.859c-15.812-14.207-31.624-28.413-47.436-42.619c-0.644-0.579-1.406,0.528-0.771,1.1
					c15.812,14.207,31.624,28.413,47.436,42.619C189.018,97.537,189.78,96.43,189.144,95.859L189.144,95.859z"/>
			</g>
		</g>
		<g style="opacity:0.47;">
			<g>
				<line style="fill:none;" x1="202.679" y1="93.612" x2="153.603" y2="39.958"/>
				<path style="fill:#BDD9E9;" d="M203.191,93.177c-16.359-17.885-32.718-35.77-49.076-53.654c-0.583-0.637-1.61,0.228-1.024,0.869
					c16.359,17.885,32.718,35.77,49.076,53.654C202.749,94.683,203.777,93.819,203.191,93.177L203.191,93.177z"/>
			</g>
		</g>
		<g style="opacity:0.47;">
			<g>
				<line style="fill:none;" x1="162.13" y1="146.861" x2="118.395" y2="114.409"/>
				<path style="fill:#BDD9E9;" d="M162.516,146.312c-14.579-10.817-29.157-21.635-43.736-32.452
					c-0.697-0.517-1.465,0.584-0.771,1.1c14.579,10.817,29.157,21.635,43.736,32.452
					C162.442,147.928,163.21,146.827,162.516,146.312L162.516,146.312z"/>
			</g>
		</g>
		<g style="opacity:0.47;">
			<g>
				<line style="fill:none;" x1="145.994" y1="146.861" x2="102.257" y2="116.59"/>
				<path style="fill:#BDD9E9;" d="M146.379,146.312c-14.579-10.091-29.158-20.181-43.737-30.271
					c-0.712-0.493-1.483,0.606-0.771,1.1c14.579,10.091,29.158,20.181,43.737,30.271
					C146.321,147.904,147.092,146.805,146.379,146.312L146.379,146.312z"/>
			</g>
		</g>
		<g style="opacity:0.47;">
			<g>
				<line style="fill:none;" x1="129.011" y1="146.861" x2="95.884" y2="129.672"/>
				<path style="fill:#BDD9E9;" d="M129.244,146.231c-11.042-5.729-22.084-11.459-33.127-17.189
					c-0.769-0.398-1.223,0.866-0.466,1.26c11.042,5.729,22.084,11.459,33.127,17.189
					C129.547,147.89,130.001,146.625,129.244,146.231L129.244,146.231z"/>
			</g>
		</g>
		<g style="opacity:0.47;">
			<g>
				<line style="fill:none;" x1="100.978" y1="146.861" x2="77.627" y2="124.874"/>
				<path style="fill:#BDD9E9;" d="M101.49,146.427c-7.784-7.329-15.567-14.658-23.351-21.987c-0.623-0.586-1.655,0.274-1.024,0.869
					c7.784,7.329,15.567,14.658,23.351,21.987C101.088,147.882,102.121,147.021,101.49,146.427L101.49,146.427z"/>
			</g>
		</g>
		<g style="opacity:0.47;">
			<g>
				<line style="fill:none;" x1="212.092" y1="81.051" x2="173.175" y2="45.067"/>
				<path style="fill:#BDD9E9;" d="M212.604,80.617c-12.973-11.995-25.945-23.989-38.917-35.984c-0.627-0.58-1.66,0.281-1.024,0.869
					c12.973,11.995,25.945,23.989,38.917,35.984C212.207,82.065,213.24,81.205,212.604,80.617L212.604,80.617z"/>
			</g>
		</g>
		<g style="opacity:0.47;">
			<g>
				<line style="fill:none;" x1="209.369" y1="58.328" x2="185.059" y2="38.955"/>
				<path style="fill:#BDD9E9;" d="M209.754,57.778c-8.104-6.458-16.207-12.916-24.31-19.374c-0.679-0.541-1.445,0.562-0.771,1.1
					c8.104,6.458,16.207,12.916,24.31,19.374C209.663,59.419,210.429,58.315,209.754,57.778L209.754,57.778z"/>
			</g>
		</g>
		<g style="opacity:0.47;">
			<g>
				<line style="fill:none;" x1="222.304" y1="49.861" x2="195.249" y2="28.499"/>
				<path style="fill:#BDD9E9;" d="M222.689,49.311c-9.019-7.121-18.037-14.242-27.055-21.362c-0.681-0.538-1.447,0.565-0.771,1.1
					c9.019,7.121,18.037,14.242,27.055,21.362C222.6,50.948,223.366,49.846,222.689,49.311L222.689,49.311z"/>
			</g>
		</g>
	</g>
	<rect x="259.913" y="77.842" style="fill:#FFFFFF;" width="9.132" height="36.009"/>
	
		<line style="fill:none;stroke:#92938B;stroke-width:1.4907;stroke-linecap:round;stroke-linejoin:round;" x1="309.862" y1="162.469" x2="513.5" y2="162.469"/>
	
		<line style="fill:none;stroke:#92938B;stroke-width:1.4907;stroke-linecap:round;stroke-linejoin:round;" x1="26.5" y1="162.469" x2="235.746" y2="162.469"/>
	<polyline style="fill:none;stroke:#92938B;stroke-width:1.4907;stroke-linecap:round;stroke-linejoin:round;" points="
		309.862,162.469 309.862,15.374 235.746,15.374 235.746,162.469 	"/>
	<polyline style="fill:none;stroke:#92938B;stroke-width:1.4907;stroke-linecap:round;stroke-linejoin:round;" points="
		262.33,82.24 259.913,82.923 265.371,85.315 	"/>
	
		<line style="fill:none;stroke:#92938B;stroke-width:1.4907;stroke-linecap:round;stroke-linejoin:round;" x1="259.913" y1="15.374" x2="259.913" y2="147.496"/>
	
		<line style="fill:none;stroke:#92938B;stroke-width:1.4907;stroke-linecap:round;stroke-linejoin:round;" x1="259.913" y1="147.496" x2="309.862" y2="162.469"/>
</g>
<g id="Layer_2">
	<g>
		<path style="fill:#FFFFFF;stroke:#92938B;stroke-width:1.2;stroke-linecap:round;stroke-linejoin:round;" d="M179.474,122.483
			c0,1.225,0.984,2.218,2.208,2.218c1.214,0,2.211-0.993,2.211-2.218c0-1.221-0.998-2.212-2.211-2.212
			C180.458,120.271,179.474,121.263,179.474,122.483z"/>
		<path style="fill:#FFFFFF;stroke:#92938B;stroke-width:1.2;stroke-linecap:round;stroke-linejoin:round;" d="M171.367,55.492
			c0,6.852,4.251,12.406,9.48,12.406c5.222,0,9.479-5.555,9.479-12.406c0-6.858-4.258-12.412-9.479-12.412
			C175.618,43.08,171.367,48.634,171.367,55.492z"/>
		<path style="fill:none;stroke:#92938B;stroke-width:1.2;stroke-linecap:round;stroke-linejoin:round;" d="M180.61,68.398
			c0.041,8.658-1.164,34.27,0.494,42.578c1.485,7.428,2.144,5.182,0.663,15.581c-1.856,13.025,2.32,25.734,2.767,32.323
			c2.306,34.171,2.517,33.318-5.408,32.321"/>
	</g>
	<g>
		<path style="fill:#FFFFFF;stroke:#92938B;stroke-width:2.5;stroke-linecap:round;stroke-linejoin:round;" d="M105.662,68.013
			c-2.43,6.581-8.469,10.409-13.495,8.553c-5.022-1.853-7.131-8.688-4.701-15.27c2.428-6.581,8.474-10.409,13.496-8.557
			C105.988,54.6,108.09,61.435,105.662,68.013z"/>
		<path style="fill:none;stroke:#92938B;stroke-width:2.5;stroke-linecap:round;stroke-linejoin:round;" d="M89.541,93.134
			c-1.414,8.841-3.094,18.283-4.731,22.46c-2.562,6.585-4.139,4.738-2.753,14.432c1.735,12.151,6.465,22.165,5.078,28.171
			c-7.559,32.771-7.849,33.709-0.465,32.785"/>
		<path style="fill:none;stroke:#92938B;stroke-width:2.5;stroke-linecap:round;stroke-linejoin:round;" d="M92.167,76.565
			c-0.4,2.195-0.921,5.598-1.527,9.521"/>
		<path style="fill:#FFFFFF;stroke:#92938B;stroke-width:1.9044;stroke-linecap:round;stroke-linejoin:round;" d="M95.578,90.543
			c-0.375,2.131-2.404,3.559-4.543,3.18c-2.137-0.373-3.566-2.408-3.189-4.545c0.377-2.131,2.417-3.559,4.554-3.18
			C94.536,86.37,95.956,88.409,95.578,90.543z"/>
		<path style="fill:none;stroke:#92938B;stroke-width:1.2;stroke-linecap:round;stroke-linejoin:round;" d="M91.5,83.509
			c4.916-3.419,14.492,14.624,12.838,21.117c-3.488,3.487-13.837,0.159-18.603-5.208c1.072,0.382,2.882,1.366,3.538,2.212
			c-0.304-2.415-3.495-3.267-4.637-5.235c1.307,0.788,2.627,1.539,3.36,2.82c-0.054-1.711-1.639-3.511-2.347-4.979
			c0.796,1.197,3.94,7.685,4.738,8.881c-0.255-0.473-2.563-9.316-2.812-9.777c0.903,2.514,2.137,7.188,2.812,9.777
			c-0.069-0.604,0.45-4.815,0.286-5.711"/>
	</g>
</g>
</svg>
