<?xml version="1.0" encoding="iso-8859-1"?>
<!-- Generator: Adobe Illustrator 13.0.0, SVG Export Plug-In . SVG Version: 6.00 Build 14948)  -->
<!DOCTYPE svg PUBLIC "-//W3C//DTD SVG 1.1//EN" "http://www.w3.org/Graphics/SVG/1.1/DTD/svg11.dtd">
<svg version="1.1" xmlns="http://www.w3.org/2000/svg" xmlns:xlink="http://www.w3.org/1999/xlink" x="0px" y="0px" width="378px"
	 height="140px" viewBox="0 0 378 140" style="enable-background:new 0 0 378 140;" xml:space="preserve">
<g id="Layer_2">
	<rect style="fill:#FFFFFF;" width="378" height="140"/>
</g>
<g id="Layer_1">
	<g>
		<g>
			<rect x="121.5" y="2.5" style="fill:none;" width="135" height="135"/>
			<path style="fill:#C8CACE;" d="M256.5,125.963c0,6.372-5.166,11.537-11.538,11.537H133.039c-6.374,0-11.54-5.165-11.54-11.537
				V14.039c0-6.374,5.166-11.539,11.54-11.539h111.923c6.372,0,11.538,5.165,11.538,11.539V125.963z"/>
			<path style="fill:#74AC2F;" d="M253.899,123.809c0,6.126-4.966,11.092-11.094,11.092H135.194
				c-6.127,0-11.095-4.966-11.095-11.092V16.194c0-6.126,4.967-11.094,11.095-11.094h107.611c6.128,0,11.094,4.967,11.094,11.094
				V123.809z"/>
		</g>
		<g style="display:none;">
			<rect x="174.076" y="26.924" style="display:inline;fill:#74AC2F;" width="29.849" height="86.155"/>
			<rect x="145.924" y="55.076" style="display:inline;fill:#74AC2F;" width="86.154" height="29.849"/>
		</g>
	</g>
</g>
<g id="Layer_4">
	<rect id="porte" x="230.087" y="27.15" style="fill:#FFFFFF;" width="23.812" height="82.077"/>
	<g id="homme">
		<path style="fill:#FFFFFF;" d="M158.178,57.55c-0.45,0.796-3.513,6.201-4.678,8.256c-0.278,0.491-0.72,0.599-1.161,0.288
			s-3.576-2.521-4.074-2.875c-0.609-0.433-0.341-0.893,0.069-1.65c1.557-2.876,5.343-9.87,5.832-10.773
			c0.618-1.141,2.178-3.047,5.164-3.047c2.558,0,14.379-0.382,20.003-0.539c1.753-0.049,4.957,1.128,6.723,3.318
			c1.429,1.772,7.269,9.488,9.447,12.188c0.514,0.637,1.58,1.06,2.643,1.114c1.035,0.053,6.192,0.089,8.525,0.102
			c0.678,0.004,1.25,0.191,1.274,1.162s0.116,3.479,0.116,4.041c0,0.829-0.362,1.083-0.999,1.094
			c-2.933,0.048-11.206,0.183-11.791,0.208c-0.712,0.03-1.739-0.238-2.215-0.723c-1.975-2.014-7.102-7.243-7.591-7.731
			c-0.607-0.606-1.515-0.576-1.953,0.331c-0.347,0.718-3.647,7.552-5.009,10.372c-0.359,0.743-0.173,1.97,0.115,2.506
			c0.238,0.442,7.387,13.734,9.885,18.382c0.531,0.987,0.886,1.91,1.074,3.761c0.162,1.598,1.824,17.993,2.274,22.438
			c0.071,0.702-0.071,1.105-1.415,1.107s-4.563,0.008-5.25,0.008s-0.743-0.383-0.842-1.049c-0.619-4.178-4.102-19.457-4.274-20.622
			c-0.2-1.351-0.755-3.065-1.368-4.026c-2.114-3.316-6.857-10.758-7.197-11.291c-0.438-0.688-1.069-0.793-1.323,0.235
			c-1.025,4.139-3.619,14.615-3.828,15.457c-0.261,1.052-1.16,1.651-2.417,1.665c-5.545,0.06-20.561-0.136-24.533-0.189
			c-0.624-0.009-0.968-0.137-0.922-0.948s0.24-4.248,0.269-4.747s0.37-1.134,0.906-1.184c3.411-0.317,16.061-1.498,17.428-1.669
			c1.696-0.212,2.498-1.149,2.558-3.057c0.115-3.638,0.435-9.962,0.435-11.336c0-1.882,0.729-5.075,1.576-6.836
			c2.245-4.668,6.39-13.291,6.747-14.033c0.491-1.022-0.016-1.607-1.087-1.629c-2.108-0.042-5.336-0.104-5.938-0.104
			C159.438,55.522,158.735,56.564,158.178,57.55z"/>
		<circle style="fill:#FFFFFF;" cx="184.756" cy="37.749" r="7.147"/>
	</g>
	<g id="fleche" style="display:none;">
		<rect x="145.25" y="46.306" style="display:inline;fill:#FFFFFF;" width="39.625" height="42"/>
		<polygon style="display:inline;fill:#FFFFFF;" points="213,67.336 184.125,99.118 184.125,35.493 		"/>
	</g>
</g>
</svg>
