<?xml version="1.0" encoding="iso-8859-1"?>
<!-- Generator: Adobe Illustrator 13.0.0, SVG Export Plug-In . SVG Version: 6.00 Build 14948)  -->
<!DOCTYPE svg PUBLIC "-//W3C//DTD SVG 1.1//EN" "http://www.w3.org/Graphics/SVG/1.1/DTD/svg11.dtd">
<svg version="1.1" xmlns="http://www.w3.org/2000/svg" xmlns:xlink="http://www.w3.org/1999/xlink" x="0px" y="0px" width="378px"
	 height="140px" viewBox="0 0 378 140" style="enable-background:new 0 0 378 140;" xml:space="preserve">
<g id="fond">
	<g>
		<rect style="fill:none;" width="378" height="140"/>
		<rect style="fill:#FFFFFF;" width="378" height="140"/>
	</g>
</g>
<g id="persos">
	<g id="femme">
		<g>
			<path style="fill:#FFFFFF;stroke:#777768;stroke-width:1.192;stroke-linecap:round;stroke-linejoin:round;" d="M166.3,22.05
				c0,6.068-3.758,10.984-8.39,10.984c-4.629,0-8.387-4.916-8.387-10.984c0-6.065,3.757-10.982,8.387-10.982
				C162.542,11.068,166.3,15.985,166.3,22.05z"/>
			<path style="fill:none;stroke:#777768;stroke-width:1.192;stroke-linecap:round;stroke-linejoin:round;" d="M158.163,47.939
				c0.124,7.747,0.113,16.044-0.651,19.841c-1.196,5.995-3.593,3.601-2.398,11.985c1.505,10.508,5.592,19.174,4.398,24.365
				c-6.543,28.35-6.792,29.158-0.399,28.359"/>
			<path style="fill:none;stroke:#777768;stroke-width:1.192;stroke-linecap:round;stroke-linejoin:round;" d="M157.91,33.432
				c-0.008,1.896,0.057,4.798,0.13,8.148"/>
			<path style="fill:#FFFFFF;stroke:#777768;stroke-width:1.192;stroke-linecap:round;stroke-linejoin:round;" d="M162.916,44.827
				c0,1.873-1.521,3.4-3.395,3.4s-3.394-1.527-3.394-3.4c0-1.877,1.521-3.394,3.394-3.394S162.916,42.949,162.916,44.827z"/>
		</g>
	</g>
	<g id="homme">
		<path style="fill:#FFFFFF;stroke:#777768;stroke-width:1.1995;stroke-linecap:round;stroke-linejoin:round;" d="M205.796,73.215
			c0,1.061,0.864,1.916,1.918,1.916c1.053,0,1.914-0.855,1.914-1.916c0-1.059-0.861-1.91-1.914-1.91
			C206.66,71.305,205.796,72.156,205.796,73.215z"/>
		<g>
			<path style="fill:#FFFFFF;stroke:#777768;stroke-width:1.774;stroke-linecap:round;stroke-linejoin:round;" d="M198.796,15.268
				c0,5.93,3.668,10.735,8.196,10.735c4.521,0,8.193-4.806,8.193-10.735c0-5.927-3.672-10.732-8.193-10.732
				C202.464,4.535,198.796,9.341,198.796,15.268z"/>
			<path style="fill:none;stroke:#777768;stroke-width:1.774;stroke-linecap:round;stroke-linejoin:round;" d="M206.787,26.428
				c0.036,7.494-1.012,29.646,0.425,36.837c1.287,6.422,1.858,4.476,0.57,13.471c-1.606,11.266,2.012,22.258,2.402,27.961
				c1.992,29.555,2.172,28.812-4.687,27.957"/>
		</g>
		<path style="fill:none;stroke:#777768;stroke-width:1.1991;stroke-linecap:round;stroke-linejoin:round;" d="M206.349,34.08
			c1.994,1.994-7.898,13.615-10.953,16.67c-2.25,2.25-9.999,11.256-10.811,12.068"/>
		<g>
			<path style="fill:#D5312C;" d="M183.994,66.021c0,0-1.232,3.861,0.19,3.621C185.606,69.402,183.994,66.021,183.994,66.021z"/>
			<path style="fill:#D5312C;" d="M183.994,73.092c0,0-1.232,3.863,0.19,3.621C185.606,76.473,183.994,73.092,183.994,73.092z"/>
		</g>
	</g>
	<path style="display:none;fill:none;stroke:#777768;stroke-width:1.107;stroke-linecap:round;stroke-linejoin:round;" d="
		M158.741,39.344c3.758,1.132,5.132,18.532,9.188,18.532c3.252,0,6.615-16.226,6.762-17.426c0.183-1.484,0.172-3.355,0.382-5.079
		c0.346-2.828,2.323-6.748,2.323-6.748l-2.144,5.699c0.496-0.321,1.043-0.763,1.465-1.148c-0.181,0.7,0,1.324-0.467,2.097
		c0.452-0.505,1.211-1.348,1.697-1.776c0.199,1.116-0.288,2.199-1.189,3.053c-1.086,0.551-1.504,0.781-1.847,0.735"/>
</g>
<g id="exclamation">
	<g style="display:none;">
		<path style="display:inline;fill:#FFFFFF;stroke:#777768;stroke-width:0.7;stroke-linecap:round;stroke-linejoin:round;" d="
			M234.459,19.417c0.865-2.873,4.484-1.902,3.528,0.53c-1.225,3.117-6.211,0.941-8.491,3.713"/>
		
			<line style="display:inline;fill:#FFFFFF;stroke:#777768;stroke-width:0.7;stroke-linecap:round;stroke-linejoin:round;" x1="228.28" y1="25.633" x2="228.425" y2="25.166"/>
	</g>
	<g style="display:none;">
		<path style="display:inline;fill:#FFFFFF;stroke:#777768;stroke-width:0.7;stroke-linecap:round;stroke-linejoin:round;" d="
			M218.94,6.644c-1.516-4.248,5.402-4.151,3.313,0.626c-0.624,1.428-2.218,1.58-2.53,3.416c-0.115,0.677,0.406,1.617,0.248,2.639"/>
		
			<line style="display:inline;fill:#FFFFFF;stroke:#777768;stroke-width:0.7;stroke-linecap:round;stroke-linejoin:round;" x1="219.79" y1="15.655" x2="219.476" y2="15.271"/>
	</g>
	<g style="display:none;">
		<path style="display:inline;fill:#FFFFFF;stroke:#777768;stroke-width:0.7;stroke-linecap:round;stroke-linejoin:round;" d="
			M226.288,9.805c-1.345-2.75,4.142-3.837,3.432,0.251c-0.486,2.803-4.227,3.874-4.808,6.761"/>
		
			<line style="display:inline;fill:#FFFFFF;stroke:#777768;stroke-width:0.7;stroke-linecap:round;stroke-linejoin:round;" x1="224.414" y1="18.871" x2="223.835" y2="18.985"/>
	</g>
	<g>
		<path style="fill:none;stroke:#777768;stroke-width:1.1228;stroke-linecap:round;stroke-linejoin:round;" d="M298.211,33.53
			c-3.199-6.648,9.191-5.504,5.537,0.5c-2.02,3.319-4.203,3.751-3.564,8.481"/>
		<path style="fill:none;stroke:#777768;stroke-width:1.1228;stroke-linecap:round;stroke-linejoin:round;" d="M300.258,45.084
			l-0.26,0.94c0,0,0.525-0.906,0.178-0.845"/>
	</g>
	<path style="fill:none;stroke:#777768;stroke-width:1.1228;stroke-linecap:round;stroke-linejoin:round;" d="M305.854,47.852
		l-0.26,0.94c0,0,0.525-0.906,0.178-0.845"/>
	
		<line style="fill:none;stroke:#777768;stroke-width:1.1228;stroke-linecap:round;stroke-linejoin:round;" x1="307.519" y1="44.242" x2="312.418" y2="29.892"/>
</g>
<g id="medecin">
	<g>
		<g>
			<rect x="227.603" y="7.797" style="fill:none;" width="60.14" height="60.145"/>
			<path style="fill:#406FA9;" d="M287.742,62.802c0,2.839-2.299,5.14-5.135,5.14H232.74c-2.836,0-5.138-2.3-5.138-5.14V12.937
				c0-2.839,2.302-5.14,5.138-5.14h49.867c2.836,0,5.135,2.3,5.135,5.14V62.802z"/>
			<path style="fill:none;stroke:#FFFFFF;stroke-width:1.8134;" d="M285.301,60.777c0,2.606-2.114,4.722-4.724,4.722h-45.81
				c-2.606,0-4.721-2.116-4.721-4.722V14.962c0-2.608,2.114-4.721,4.721-4.721h45.81c2.609,0,4.724,2.113,4.724,4.721V60.777z"/>
		</g>
		<path style="fill:#FFFFFF;" d="M257.765,62.757c-2.788-0.005-4.824-0.026-7.53-0.026c-0.117-2.359,0.028-20.436-0.036-22.838
			c-0.052-1.723-1.894-1.723-1.894,0.212c0,3.548-0.02,12.865-0.088,15.826c-0.039,1.972-0.758,3.639-2.671,3.639
			c-2.018,0-2.69-1.588-2.69-3.668c0-2.323-0.133-20.319-0.133-21.462c0-2.666,1.214-4.74,3.732-4.74c0.998,0,6.101,0,11.219,0
			c5.119,0,10.222,0,11.219,0c2.519,0,3.733,2.074,3.733,4.74c0,1.143-0.133,19.14-0.133,21.462c0,2.081-0.674,3.668-2.694,3.668
			c-1.91,0-2.629-1.667-2.674-3.639c-0.059-2.961-0.084-12.277-0.084-15.826c0-1.935-1.84-1.935-1.892-0.212
			c-0.064,2.402,0.444,20.479,0.324,22.838c-2.707,0-4.74,0.021-7.531,0.026"/>
		<path style="fill:#FFFFFF;" d="M263.641,19.836c0.113,0.452,0.176,0.923,0.176,1.404c0,3.278-2.746,5.936-6.143,5.936
			c-3.39,0-6.142-2.658-6.142-5.936c0-0.481,0.062-0.952,0.175-1.404c0.654-2.596,3.076-4.529,5.967-4.529
			C260.565,15.307,262.993,17.237,263.641,19.836"/>
		<path style="fill:none;stroke:#406FA9;stroke-width:0.9067;stroke-linecap:round;stroke-linejoin:round;" d="M253.708,29.281
			c-2.665,2.993,0.79,5.767,2.068,8.35c1.447,2.919,1.661,5.619,1.619,8.305c0.042-2.686-1.208-6.1,1.279-8.174
			c2.233-1.865,5.964-5.289,3.27-8.34"/>
		<ellipse style="fill:#406FA9;" cx="257.502" cy="46.3" rx="1.269" ry="0.879"/>
	</g>
	<path style="fill:#D5312C;" d="M188.837,129.033c1.216-0.354,1.334,0.811,0.211,0.99c-0.858,0.14-1.77-0.224-2.576,0.189
		c-0.339,0.175,0.073,0.268,0.484,0.334c0.674,0.109,0.91,0.444,0.172,0.676c-0.87,0.277-2.09,0.144-2.992,0.052
		c-0.522-0.054-0.921-0.149-1.289-0.468c-0.928-0.814-0.277-2.033,0.811-2.471C184.868,127.852,187.554,129.029,188.837,129.033"/>
	<path style="fill:#FFFFFF;stroke:#777768;stroke-width:0.8;stroke-linecap:round;stroke-linejoin:round;" d="M184.101,129.335
		c-2.215,1.958-5.85,2.086-8.953,1.748c2.318-0.749,3.021-1.473,3.793-1.403c-0.524-0.096-4.094-0.681-4.563-0.854
		c0.509-0.352,4.025-0.668,4.663-0.523c-0.648-0.192-3.462-0.892-3.952-1.418c0.679-0.207,8.73,1.961,2.759-2.139
		c3.476,1.092,5.898,3.526,6.285,4.456L184.101,129.335z"/>
</g>
</svg>
