<?xml version="1.0" encoding="iso-8859-1"?>
<!-- Generator: Adobe Illustrator 13.0.0, SVG Export Plug-In . SVG Version: 6.00 Build 14948)  -->
<!DOCTYPE svg PUBLIC "-//W3C//DTD SVG 1.1//EN" "http://www.w3.org/Graphics/SVG/1.1/DTD/svg11.dtd">
<svg version="1.1" xmlns="http://www.w3.org/2000/svg" xmlns:xlink="http://www.w3.org/1999/xlink" x="0px" y="0px" width="378px"
	 height="140px" viewBox="0 0 378 140" style="enable-background:new 0 0 378 140;" xml:space="preserve">
<g id="fond">
	<g>
		<rect style="fill:none;" width="378" height="140"/>
		<rect style="fill:#FFFFFF;" width="378" height="140"/>
	</g>
</g>
<g id="persos">
	<g id="femme">
		<g>
			<path style="fill:#FFFFFF;stroke:#777768;stroke-width:1.199;stroke-linecap:round;stroke-linejoin:round;" d="M166.3,22.05
				c0,6.068-3.758,10.984-8.39,10.984c-4.629,0-8.387-4.916-8.387-10.984c0-6.065,3.757-10.982,8.387-10.982
				C162.542,11.068,166.3,15.985,166.3,22.05z"/>
			<path style="fill:none;stroke:#777768;stroke-width:1.199;stroke-linecap:round;stroke-linejoin:round;" d="M158.163,47.939
				c0.124,7.747,0.113,16.044-0.651,19.841c-1.196,5.995-3.593,3.601-2.398,11.985c1.505,10.508,5.592,19.174,4.398,24.365
				c-6.543,28.35-6.792,29.158-0.399,28.359"/>
			<path style="fill:none;stroke:#777768;stroke-width:1.199;stroke-linecap:round;stroke-linejoin:round;" d="M157.91,33.432
				c-0.008,1.896,0.057,4.798,0.13,8.148"/>
			<path style="fill:#FFFFFF;stroke:#777768;stroke-width:1.199;stroke-linecap:round;stroke-linejoin:round;" d="M162.916,44.827
				c0,1.873-1.521,3.4-3.395,3.4s-3.394-1.527-3.394-3.4c0-1.877,1.521-3.394,3.394-3.394S162.916,42.949,162.916,44.827z"/>
		</g>
	</g>
	<path style="fill:#FFFFFF;stroke:#777768;stroke-width:1.1995;stroke-linecap:round;stroke-linejoin:round;" d="M205.796,73.215
		c0,1.061,0.864,1.916,1.918,1.916c1.053,0,1.914-0.855,1.914-1.916c0-1.059-0.861-1.91-1.914-1.91
		C206.66,71.305,205.796,72.156,205.796,73.215z"/>
	<g>
		<path style="fill:#FFFFFF;stroke:#777768;stroke-width:1.774;stroke-linecap:round;stroke-linejoin:round;" d="M198.796,15.268
			c0,5.93,3.668,10.735,8.196,10.735c4.521,0,8.193-4.806,8.193-10.735c0-5.927-3.672-10.732-8.193-10.732
			C202.464,4.535,198.796,9.341,198.796,15.268z"/>
		<path style="fill:none;stroke:#777768;stroke-width:1.774;stroke-linecap:round;stroke-linejoin:round;" d="M206.787,26.428
			c0.036,7.494-1.012,29.646,0.425,36.837c1.287,6.422,1.858,4.476,0.57,13.471c-1.606,11.266,2.012,22.258,2.402,27.961
			c1.992,29.555,2.172,28.812-4.687,27.957"/>
	</g>
</g>
<g id="exclamation">
	<g>
		<path style="fill:none;stroke:#777768;stroke-width:1.1228;stroke-linecap:round;stroke-linejoin:round;" d="M235.979,9.938
			c-3.199-6.648,9.191-5.504,5.537,0.5c-2.02,3.319-4.203,3.751-3.564,8.481"/>
		<path style="fill:none;stroke:#777768;stroke-width:1.1228;stroke-linecap:round;stroke-linejoin:round;" d="M238.025,21.492
			l-0.26,0.94c0,0,0.525-0.906,0.178-0.845"/>
	</g>
	<g id="bras_x2B_feuille">
		<path style="fill:none;stroke:#777768;stroke-width:1.199;stroke-linecap:round;stroke-linejoin:round;" d="M206.705,32.554
			c7.018,5.04-2.366,19.461-5.28,22.376c-1.019,1.019-8.914-0.402-12.894-1.272c-1.225-0.268-5.87,0.719-5.631,0.643"/>
		<polygon style="fill:#FFFFFF;stroke:#777768;stroke-width:0.5;stroke-linecap:round;stroke-linejoin:round;" points="
			170.891,49.834 178.14,46.846 189.386,50.821 182.646,54.151 		"/>
		<path style="fill:none;stroke:#777768;stroke-width:1.199;stroke-linecap:round;stroke-linejoin:round;" d="M188.384,53.051
			c-0.059-0.9-0.843-1.499-2.198-1.844c-0.602-0.153-1.738-0.102-2.583-0.062"/>
	</g>
	<g id="bras_x2B_stylo">
		<polygon style="fill:#FFFFFF;stroke:#777768;stroke-width:0.5;stroke-linecap:round;stroke-linejoin:round;" points="
			176.428,43.784 177.01,44.717 177.707,43.477 		"/>
		<polygon style="fill:#FFFFFF;stroke:#777768;stroke-width:0.5;stroke-linecap:round;stroke-linejoin:round;" points="
			177.431,35.717 177.459,34.963 176.185,35.194 176.146,36.124 		"/>
		<path style="fill:none;stroke:#777768;stroke-width:1.1991;stroke-linecap:round;stroke-linejoin:round;" d="M177.57,39.626
			c13.619,8.815,16.395,9.587,26.9-5.282c0.294-0.417,1.306-1.285,2.052-1.285"/>
		<polygon style="fill:#FFFFFF;stroke:#777768;stroke-width:0.5;stroke-linecap:round;stroke-linejoin:round;" points="
			177.707,43.477 177.431,35.717 176.146,36.124 176.428,43.784 		"/>
	</g>
	<path style="fill:#FFFFFF;stroke:#777768;stroke-width:0.5;stroke-linecap:round;stroke-linejoin:round;" d="M178.117,43.001"/>
	<path style="fill:none;stroke:#777768;stroke-width:1.1228;stroke-linecap:round;stroke-linejoin:round;" d="M219.345,22.621
		c1.153-1.636,1.057-4.191,2.22-5.623c0.398,0.766,0.94,4.138,1.898,4.353c0.969,0.217,1.326-1.728,2.014-2.128
		c0.195,0.445,0.558,1.684,1.118,1.871c0.73,0.244,0.541-0.61,0.997-0.582c1.044,0.066,1.286,1.443,2.503,0.483"/>
	<path style="fill:none;stroke:#777768;stroke-width:1.1228;stroke-linecap:round;stroke-linejoin:round;" d="M232.845,21.871
		c0-0.083,0-0.167,0-0.25"/>
	<path style="fill:none;stroke:#777768;stroke-width:1.1228;stroke-linecap:round;stroke-linejoin:round;" d="M235.053,22.246
		c-0.041-0.232,0-0.441,0.125-0.625"/>
</g>
</svg>
