<?xml version="1.0" encoding="utf-8"?>
<!-- Generator: Adobe Illustrator 16.0.0, SVG Export Plug-In . SVG Version: 6.00 Build 0)  -->
<!DOCTYPE svg PUBLIC "-//W3C//DTD SVG 1.1//EN" "http://www.w3.org/Graphics/SVG/1.1/DTD/svg11.dtd">
<svg version="1.1" id="Calque_1" xmlns="http://www.w3.org/2000/svg" xmlns:xlink="http://www.w3.org/1999/xlink" x="0px" y="0px"
	 width="540px" height="200px" viewBox="0 0 540 200" enable-background="new 0 0 540 200" xml:space="preserve">
<g id="FOND">
	<g>
		<rect fill="#FFFFFF" width="540" height="200"/>
	</g>
</g>
<g id="Layer_3" display="none">
	<g display="inline">
		<g>
			
				<rect x="427.631" y="100.725" fill="#D5312C" stroke="#FFFFFF" stroke-width="0.916" stroke-linecap="square" width="4.48" height="64.385"/>
			<g>
				<path fill="#D5312C" d="M391.909,99.313c0,1.404,1.139,2.542,2.543,2.542h70.83c1.403,0,2.543-1.139,2.543-2.542
					c0-1.405-1.14-2.542-2.543-2.542h-70.83C393.047,96.771,391.909,97.908,391.909,99.313
					C391.909,99.313,391.909,97.908,391.909,99.313z"/>
				<path fill="none" stroke="#FFFFFF" stroke-width="1.374" d="M391.909,99.313c0,1.404,1.139,2.542,2.543,2.542h70.83
					c1.403,0,2.543-1.139,2.543-2.542c0-1.405-1.14-2.542-2.543-2.542h-70.83C393.047,96.771,391.909,97.908,391.909,99.313
					C391.909,99.313,391.909,97.908,391.909,99.313z"/>
			</g>
		</g>
		<g>
			<rect x="160.573" y="92.911" fill="#65B724" stroke="#FFFFFF" stroke-width="1.374" width="5.478" height="72.815"/>
			<path fill="#65B724" stroke="#FFFFFF" stroke-width="1.374" d="M179.264,96.9h-31.912v-7.979c0,0,7.568-3.492,15.547-3.492
				s16.365,3.492,16.365,3.492V96.9z"/>
			<rect x="153.085" y="148.463" fill="#65B724" stroke="#FFFFFF" stroke-width="0.916" width="20.449" height="1.869"/>
		</g>
		
			<line fill="none" stroke="#65B724" stroke-width="3.427" stroke-linecap="round" x1="26.712" y1="56.053" x2="134.204" y2="56.053"/>
		
			<line fill="none" stroke="#65B724" stroke-width="3.427" stroke-linecap="square" x1="134.204" y1="56.053" x2="134.204" y2="80.097"/>
		
			<line fill="none" stroke="#65B724" stroke-width="3.427" stroke-linecap="square" x1="134.204" y1="80.097" x2="123.898" y2="80.097"/>
		
			<line fill="none" stroke="#65B724" stroke-width="3.427" stroke-linecap="square" x1="123.898" y1="80.097" x2="123.898" y2="164.822"/>
		
			<line fill="none" stroke="#65B724" stroke-width="3.427" stroke-linecap="round" x1="123.898" y1="164.822" x2="512.431" y2="164.822"/>
		<g>
			<g>
				
					<line fill="none" stroke="#65B724" stroke-width="4.2837" stroke-linecap="round" stroke-linejoin="round" x1="369.609" y1="85.415" x2="369.609" y2="124.012"/>
				
					<line fill="none" stroke="#65B724" stroke-width="4.2837" stroke-linecap="round" stroke-linejoin="round" x1="369.609" y1="124.012" x2="408.202" y2="124.012"/>
				
					<line fill="none" stroke="#65B724" stroke-width="4.2837" stroke-linecap="round" stroke-linejoin="round" x1="408.202" y1="124.012" x2="369.568" y2="162.65"/>
				
					<line fill="none" stroke="#65B724" stroke-width="4.2837" stroke-linecap="round" stroke-linejoin="round" x1="369.568" y1="162.65" x2="391.819" y2="162.65"/>
			</g>
			<g>
				
					<line fill="none" stroke="#65B724" stroke-width="4.2837" stroke-linecap="round" stroke-linejoin="round" x1="499.365" y1="85.415" x2="499.365" y2="124.012"/>
				
					<line fill="none" stroke="#65B724" stroke-width="4.2837" stroke-linecap="round" stroke-linejoin="round" x1="499.365" y1="124.012" x2="460.773" y2="124.012"/>
				
					<line fill="none" stroke="#65B724" stroke-width="4.2837" stroke-linecap="round" stroke-linejoin="round" x1="460.773" y1="124.012" x2="499.406" y2="162.65"/>
				
					<line fill="none" stroke="#65B724" stroke-width="4.2837" stroke-linecap="round" stroke-linejoin="round" x1="499.406" y1="162.65" x2="477.152" y2="162.65"/>
			</g>
		</g>
	</g>
	<g display="inline">
		<path fill="none" stroke="#777768" stroke-width="1.713" stroke-linecap="round" stroke-linejoin="round" d="M231.549,93.701
			c0.43-0.863,0.743-1.788,1.073-2.698c0.203-0.56,1.044-2.25,0.82-2.642"/>
		<path fill="none" stroke="#777768" stroke-width="1.713" stroke-linecap="round" stroke-linejoin="round" d="M225.576,55.806
			c10.437,4.369,7.888,32.17,9.071,33.561c0.516,0.605,0.766,1.012,1.457,1.431c1.113,0.675,1.742,0.294,2.979,0.722
			c1.106,0.385,1.981,1.638,2.323,2.992"/>
		<g>
			<g>
				<path fill="#FCCF3D" d="M232.438,99.741c0,1.073,2.592,1.073,4.637,1.073c2.044,0,4.438-0.151,4.445-1.073
					c0.011-0.92,0-11.402,0-11.402s-0.86,0.903-4.414,0.903c-3.559,0-4.668-0.641-4.668-0.641S232.438,98.667,232.438,99.741z"/>
				<path fill="#FFFFD9" d="M232.46,87.523c0,0.154-0.022,0.654-0.022,1.186c0,0.49,2.908,0.693,4.559,0.693
					c1.516,0,3.333-0.312,4.158-0.52c0.526-0.137,0.365-1.182,0.365-1.359c0-0.451-2.023-0.818-4.53-0.818
					C234.49,86.705,232.46,87.072,232.46,87.523z"/>
				<g>
					<path fill="none" stroke="#FFFFFF" stroke-width="0.1624" d="M240.552,89.581c0,0.086,0.081,0.152,0.173,0.152
						c0.089,0,0.166-0.066,0.166-0.152c0-0.084-0.077-0.15-0.166-0.15C240.633,89.431,240.552,89.497,240.552,89.581z"/>
					<path fill="none" stroke="#FFFFFF" stroke-width="0.1624" d="M240.148,94.616c0,0.084,0.074,0.154,0.165,0.154
						c0.096,0,0.167-0.07,0.167-0.154c0-0.082-0.071-0.152-0.167-0.152C240.222,94.464,240.148,94.534,240.148,94.616z"/>
					<ellipse fill="none" stroke="#FFFFFF" stroke-width="0.1624" cx="237.296" cy="95.71" rx="0.167" ry="0.152"/>
					<path fill="none" stroke="#FFFFFF" stroke-width="0.1624" d="M238.596,94.347c0,0.082,0.075,0.15,0.171,0.15
						c0.092,0,0.168-0.068,0.168-0.15c0-0.088-0.076-0.156-0.168-0.156C238.671,94.19,238.596,94.259,238.596,94.347z"/>
					<ellipse fill="none" stroke="#FFFFFF" stroke-width="0.1624" cx="236.279" cy="93.677" rx="0.167" ry="0.15"/>
					<path fill="none" stroke="#FFFFFF" stroke-width="0.1624" d="M240.391,91.644c0,0.082,0.072,0.15,0.161,0.15
						c0.1,0,0.173-0.068,0.173-0.15c0-0.084-0.073-0.152-0.173-0.152C240.463,91.491,240.391,91.56,240.391,91.644z"/>
					<path fill="none" stroke="#FFFFFF" stroke-width="0.1624" d="M236.083,91.339c0,0.084,0.072,0.152,0.168,0.152
						c0.089,0,0.162-0.068,0.162-0.152c0-0.082-0.073-0.15-0.162-0.15C236.155,91.188,236.083,91.257,236.083,91.339z"/>
					<path fill="none" stroke="#FFFFFF" stroke-width="0.1624" d="M235.781,89.37c0,0.082,0.073,0.15,0.165,0.15
						c0.093,0,0.166-0.068,0.166-0.15c0-0.086-0.073-0.152-0.166-0.152C235.854,89.218,235.781,89.284,235.781,89.37z"/>
					<path fill="none" stroke="#FFFFFF" stroke-width="0.1624" d="M237.523,89.171c0,0.086,0.077,0.152,0.166,0.152
						c0.092,0,0.169-0.066,0.169-0.152c0-0.084-0.077-0.15-0.169-0.15C237.6,89.021,237.523,89.087,237.523,89.171z"/>
					<path fill="none" stroke="#FFFFFF" stroke-width="0.1624" d="M239.205,92.612c0,0.086,0.076,0.156,0.168,0.156
						c0.091,0,0.169-0.07,0.169-0.156c0-0.082-0.078-0.15-0.169-0.15C239.281,92.462,239.205,92.53,239.205,92.612z"/>
					<path fill="none" stroke="#FFFFFF" stroke-width="0.1624" d="M238.055,90.913c0,0.086,0.074,0.154,0.163,0.154
						c0.091,0,0.173-0.068,0.173-0.154c0-0.08-0.082-0.15-0.173-0.15C238.129,90.763,238.055,90.833,238.055,90.913z"/>
					<path fill="none" stroke="#FFFFFF" stroke-width="0.1624" d="M236.872,92.431c0,0.086,0.071,0.154,0.166,0.154
						c0.092,0,0.163-0.068,0.163-0.154c0-0.082-0.071-0.15-0.163-0.15C236.943,92.28,236.872,92.349,236.872,92.431z"/>
					<path fill="none" stroke="#FFFFFF" stroke-width="0.1624" d="M239.531,88.491c0,0.082,0.074,0.15,0.169,0.15
						c0.089,0,0.163-0.068,0.163-0.15c0-0.086-0.074-0.152-0.163-0.152C239.605,88.339,239.531,88.405,239.531,88.491z"/>
				</g>
				<path fill="none" stroke="#FFFFFF" stroke-width="0.1624" d="M238.917,99.97c-0.082-0.02-0.163,0.037-0.185,0.127
					c-0.02,0.088,0.025,0.18,0.106,0.199c0.082,0.02,0.166-0.037,0.187-0.127C239.05,100.081,239.001,99.993,238.917,99.97z"/>
				<path fill="none" stroke="#FFFFFF" stroke-width="0.1624" d="M234.13,98.368c-0.081-0.021-0.166,0.035-0.188,0.125
					c-0.022,0.088,0.025,0.178,0.106,0.197c0.081,0.021,0.165-0.035,0.188-0.127C234.255,98.476,234.21,98.388,234.13,98.368z"/>
				<path fill="none" stroke="#FFFFFF" stroke-width="0.1624" d="M233.792,95.177c-0.081-0.023-0.165,0.033-0.187,0.123
					c-0.022,0.09,0.024,0.18,0.108,0.199c0.082,0.02,0.166-0.037,0.188-0.125C233.921,95.284,233.873,95.194,233.792,95.177z"/>
				<path fill="none" stroke="#FFFFFF" stroke-width="0.1624" d="M234.766,96.931c-0.085-0.021-0.165,0.035-0.188,0.125
					c-0.023,0.09,0.026,0.18,0.105,0.199c0.086,0.02,0.17-0.037,0.188-0.127C234.897,97.038,234.847,96.95,234.766,96.931z"/>
				<path fill="none" stroke="#FFFFFF" stroke-width="0.1624" d="M233.964,91.136c-0.08-0.02-0.164,0.035-0.188,0.125
					c-0.022,0.088,0.029,0.178,0.11,0.201c0.077,0.018,0.162-0.039,0.184-0.129C234.089,91.243,234.046,91.157,233.964,91.136z"/>
				<path fill="none" stroke="#FFFFFF" stroke-width="0.1624" d="M236.955,99.317c-0.078-0.021-0.159,0.033-0.182,0.123
					c-0.021,0.09,0.022,0.178,0.104,0.201c0.081,0.018,0.166-0.041,0.19-0.129C237.088,99.423,237.038,99.337,236.955,99.317z"/>
				<path fill="none" stroke="#FFFFFF" stroke-width="0.1624" d="M233.647,88.509c-0.083-0.018-0.167,0.037-0.184,0.127
					c-0.021,0.09,0.023,0.18,0.104,0.199c0.084,0.02,0.166-0.037,0.188-0.127S233.729,88.53,233.647,88.509z"/>
				<path fill="none" stroke="#FFFFFF" stroke-width="0.1624" d="M233.931,93.302c-0.085-0.02-0.165,0.037-0.188,0.127
					c-0.021,0.09,0.023,0.176,0.103,0.199c0.085,0.018,0.17-0.037,0.188-0.127C234.059,93.411,234.009,93.321,233.931,93.302z"/>
				<path fill="none" stroke="#FFFFFF" stroke-width="0.1624" d="M240.049,97.124c-0.085-0.021-0.169,0.037-0.191,0.125
					c-0.023,0.088,0.026,0.178,0.106,0.199c0.085,0.021,0.166-0.037,0.19-0.127C240.174,97.233,240.126,97.144,240.049,97.124z"/>
				<path fill="none" stroke="#FFFFFF" stroke-width="0.1624" d="M236.296,97.935c-0.079-0.02-0.166,0.035-0.188,0.125
					c-0.02,0.09,0.029,0.178,0.113,0.199c0.075,0.018,0.162-0.037,0.188-0.127C236.43,98.042,236.38,97.954,236.296,97.935z"/>
				<path fill="none" stroke="#FFFFFF" stroke-width="0.1624" d="M238.225,97.22c-0.08-0.02-0.165,0.037-0.188,0.129
					c-0.024,0.088,0.025,0.178,0.107,0.195c0.08,0.021,0.164-0.035,0.188-0.125C238.354,97.331,238.306,97.241,238.225,97.22z"/>
				<path fill="none" stroke="#FFFFFF" stroke-width="0.1624" d="M236.05,96.249c-0.078-0.02-0.166,0.035-0.183,0.127
					c-0.024,0.09,0.023,0.178,0.104,0.197c0.08,0.02,0.165-0.037,0.188-0.123C236.181,96.358,236.134,96.269,236.05,96.249z"/>
				<path fill="none" stroke="#FFFFFF" stroke-width="0.1624" d="M240.226,99.237c-0.078-0.023-0.162,0.035-0.185,0.123
					c-0.021,0.09,0.025,0.18,0.106,0.199c0.081,0.021,0.165-0.035,0.187-0.125C240.358,99.347,240.31,99.257,240.226,99.237z"/>
				<path fill="none" stroke="#A8D0DA" stroke-width="0.3679" stroke-linecap="round" stroke-linejoin="round" d="M241.483,83.831
					c0.037,6.832,0.037,10.383,0.037,15.828c0,1.155-2.144,1.155-4.445,1.155c-2.242,0-4.637,0.045-4.637-1.073
					c0-4.457,0-11.475,0.041-15.91"/>
				
					<ellipse fill="none" stroke="#A8D0DA" stroke-width="0.3679" stroke-linecap="round" stroke-linejoin="round" cx="236.981" cy="83.831" rx="4.502" ry="0.85"/>
				<path fill="none" stroke="#A8D0DA" stroke-width="0.2453" stroke-linecap="round" stroke-linejoin="round" d="M241.52,89.007
					c-1.225-0.572-0.783,4.738-0.827,5.537c-0.1,2.006,0.074,4.145,0.084,5.943"/>
				<path fill="none" stroke="#A8D0DA" stroke-width="0.2453" stroke-linecap="round" stroke-linejoin="round" d="M239.869,100.648
					c0-1.477-0.164-2.873-0.164-4.373c0-1.748,0.345-3.418-0.063-5.119c-0.106-0.434-0.312-1.877-0.996-1.82
					c-0.47,0.037-0.765,1.279-0.84,1.652c-0.354,1.822-0.096,4.002,0,5.859c0.063,1.26,0.166,2.809,0.166,3.884"/>
				<path fill="none" stroke="#A8D0DA" stroke-width="0.2453" stroke-linecap="round" stroke-linejoin="round" d="M236.98,100.732
					c0-2-0.191-3.916-0.083-5.942c0.09-1.656,0.388-3.75-0.426-5.188c-1.616-0.465-1.228,9.898-1.228,11.13"/>
				<path fill="none" stroke="#A8D0DA" stroke-width="0.2453" stroke-linecap="round" stroke-linejoin="round" d="M233.017,100.487
					c0-1.652-0.041-7.596,0.08-9.088c0.062-0.74,0.948-3.771,1.495-1.729c0.375,1.414,0.126,2.805-0.007,4.209
					c-0.214,2.203-0.234,4.777-0.247,6.77"/>
			</g>
		</g>
		<path fill="none" stroke="#777768" stroke-width="1.713" stroke-linecap="round" stroke-linejoin="round" d="M231.549,93.701
			c0.518,1.435,2.685,2.864,3.886,2.636"/>
		<path fill="none" stroke="#777768" stroke-width="1.713" stroke-linecap="round" stroke-linejoin="round" d="M240.451,97.022
			c1.371-1.305,1.066-1.743,1.616-2.836c-0.283,0.574-2.341-0.222-2.738,0.404c0.46-0.845,2.26-1.912,2.409-2.871
			c-0.45,0.725-1.82-0.529-2.524-0.287c0.729-0.631,1.843-1.965,2.307-2.426"/>
	</g>
	<g display="inline">
		<path fill="none" stroke="#777768" stroke-width="1.3087" stroke-linecap="round" stroke-linejoin="round" d="M274.721,93.031
			c0.112,0.318,0.268,0.625,0.443,0.914c0.161,0.273,0.475,0.531,0.482,0.858c-1.234-1.352-1.681-3.431-1.322-5.249
			c0.134-0.676,0.352-1.338,0.492-2.01c0.045-0.2,0.059-0.399,0.187-0.549c-0.006,0.096,5.267-0.305,5.245-0.209"/>
		<path fill="none" stroke="#777768" stroke-width="1.713" stroke-linecap="round" stroke-linejoin="round" d="M295.266,45.714
			c-15.565,31.011-14.043,40.938-15.457,41.907"/>
		<path fill="none" stroke="#777768" stroke-width="1.3087" stroke-linecap="round" stroke-linejoin="round" d="M282.467,88.828
			c0.44,1.357,1.626,2.011,1.95,2.846"/>
		<g>
			<path fill="#FCCF3D" d="M274.727,99.322c0,1.053,2.537,1.053,4.541,1.053c2,0,4.344-0.149,4.354-1.053
				c0.01-0.9,0.002-10.783,0.002-10.783s-0.955,0.75-4.438,0.75c-3.484,0-4.459-0.641-4.459-0.641S274.727,98.268,274.727,99.322z"
				/>
			<path fill="#FFFFD9" d="M274.748,87.564c0,0.152-0.021,0.643-0.021,1.162c0,0.481,2.848,0.679,4.463,0.679
				c1.486,0,3.267-0.306,4.074-0.509c0.518-0.131,0.357-1.156,0.357-1.332c0-0.439-1.982-0.801-4.438-0.801
				C276.734,86.764,274.748,87.125,274.748,87.564z"/>
			<g>
				<path fill="none" stroke="#FFFFFF" stroke-width="0.1591" d="M282.673,89.373c0,0.08,0.077,0.148,0.169,0.148
					c0.088,0,0.161-0.068,0.161-0.148c0-0.085-0.073-0.147-0.161-0.147C282.75,89.226,282.673,89.288,282.673,89.373z"/>
				<path fill="none" stroke="#FFFFFF" stroke-width="0.1591" d="M282.275,94.304c0,0.083,0.076,0.151,0.162,0.151
					c0.096,0,0.166-0.068,0.166-0.151c0-0.082-0.07-0.147-0.166-0.147C282.352,94.156,282.275,94.222,282.275,94.304z"/>
				<path fill="none" stroke="#FFFFFF" stroke-width="0.1591" d="M279.32,95.371c0,0.086,0.07,0.154,0.16,0.154
					c0.092,0,0.166-0.068,0.166-0.154c0-0.078-0.074-0.146-0.166-0.146C279.391,95.225,279.32,95.293,279.32,95.371z"/>
				<path fill="none" stroke="#FFFFFF" stroke-width="0.1591" d="M280.756,94.037c0,0.082,0.073,0.147,0.169,0.147
					c0.091,0,0.163-0.065,0.163-0.147c0-0.086-0.072-0.15-0.163-0.15C280.83,93.887,280.756,93.951,280.756,94.037z"/>
				<path fill="none" stroke="#FFFFFF" stroke-width="0.1591" d="M278.323,93.384c0,0.079,0.073,0.147,0.165,0.147
					c0.091,0,0.162-0.068,0.162-0.147c0-0.085-0.071-0.151-0.162-0.151C278.396,93.233,278.323,93.299,278.323,93.384z"/>
				<path fill="none" stroke="#FFFFFF" stroke-width="0.1591" d="M282.514,91.391c0,0.082,0.071,0.146,0.159,0.146
					c0.099,0,0.169-0.064,0.169-0.146c0-0.08-0.07-0.148-0.169-0.148C282.585,91.242,282.514,91.311,282.514,91.391z"/>
				<path fill="none" stroke="#FFFFFF" stroke-width="0.1591" d="M278.293,91.095c0,0.079,0.071,0.147,0.166,0.147
					c0.088,0,0.159-0.068,0.159-0.147c0-0.083-0.071-0.146-0.159-0.146C278.365,90.947,278.293,91.012,278.293,91.095z"/>
				<ellipse fill="none" stroke="#FFFFFF" stroke-width="0.1591" cx="278.161" cy="89.163" rx="0.162" ry="0.147"/>
				<ellipse fill="none" stroke="#FFFFFF" stroke-width="0.1591" cx="279.87" cy="88.971" rx="0.164" ry="0.147"/>
				<path fill="none" stroke="#FFFFFF" stroke-width="0.1591" d="M281.354,92.342c0,0.082,0.073,0.15,0.164,0.15
					c0.088,0,0.166-0.068,0.166-0.15c0-0.083-0.078-0.148-0.166-0.148C281.427,92.193,281.354,92.259,281.354,92.342z"/>
				<path fill="none" stroke="#FFFFFF" stroke-width="0.1591" d="M280.227,90.678c0,0.082,0.073,0.15,0.162,0.15
					c0.088,0,0.166-0.068,0.166-0.15c0-0.08-0.078-0.147-0.166-0.147C280.3,90.53,280.227,90.598,280.227,90.678z"/>
				<path fill="none" stroke="#FFFFFF" stroke-width="0.1591" d="M279.066,92.162c0,0.086,0.072,0.15,0.164,0.15
					c0.09,0,0.16-0.064,0.16-0.15c0-0.079-0.07-0.146-0.16-0.146C279.139,92.016,279.066,92.083,279.066,92.162z"/>
				<ellipse fill="none" stroke="#FFFFFF" stroke-width="0.1591" cx="281.834" cy="88.303" rx="0.163" ry="0.147"/>
			</g>
			<path fill="none" stroke="#FFFFFF" stroke-width="0.1591" d="M281.072,99.547c-0.079-0.021-0.162,0.036-0.182,0.124
				c-0.02,0.086,0.025,0.177,0.105,0.193c0.079,0.021,0.161-0.034,0.181-0.125C281.202,99.654,281.154,99.57,281.072,99.547z"/>
			<path fill="none" stroke="#FFFFFF" stroke-width="0.1591" d="M276.383,97.979c-0.078-0.022-0.162,0.034-0.186,0.119
				c-0.022,0.089,0.027,0.177,0.105,0.196c0.079,0.019,0.162-0.037,0.182-0.125S276.463,97.995,276.383,97.979z"/>
			<path fill="none" stroke="#FFFFFF" stroke-width="0.1591" d="M276.05,94.85c-0.079-0.021-0.161,0.033-0.18,0.125
				c-0.024,0.085,0.021,0.176,0.104,0.193c0.078,0.02,0.161-0.035,0.184-0.123C276.18,94.957,276.129,94.869,276.05,94.85z"/>
			<path fill="none" stroke="#FFFFFF" stroke-width="0.1591" d="M277.004,96.57c-0.082-0.023-0.162,0.033-0.184,0.123
				c-0.023,0.087,0.029,0.172,0.104,0.194c0.083,0.018,0.166-0.036,0.186-0.125C277.133,96.676,277.084,96.588,277.004,96.57z"/>
			<path fill="none" stroke="#FFFFFF" stroke-width="0.1591" d="M276.221,90.893c-0.078-0.02-0.162,0.037-0.184,0.123
				c-0.023,0.088,0.027,0.176,0.105,0.198c0.078,0.017,0.16-0.04,0.18-0.125C276.343,90.998,276.3,90.912,276.221,90.893z"/>
			<path fill="none" stroke="#FFFFFF" stroke-width="0.1591" d="M279.15,98.904c-0.077-0.017-0.156,0.034-0.18,0.125
				c-0.021,0.086,0.022,0.17,0.103,0.193c0.081,0.02,0.161-0.037,0.184-0.125C279.279,99.013,279.23,98.928,279.15,98.904z"/>
			<path fill="none" stroke="#FFFFFF" stroke-width="0.1591" d="M275.909,88.321c-0.079-0.019-0.162,0.036-0.179,0.124
				c-0.021,0.088,0.022,0.176,0.104,0.195c0.081,0.018,0.16-0.037,0.184-0.125C276.038,88.431,275.988,88.342,275.909,88.321z"/>
			<path fill="none" stroke="#FFFFFF" stroke-width="0.1591" d="M276.188,93.015c-0.082-0.017-0.162,0.036-0.184,0.125
				c-0.021,0.087,0.023,0.173,0.102,0.192c0.082,0.02,0.164-0.033,0.184-0.122C276.312,93.123,276.264,93.037,276.188,93.015z"/>
			<path fill="none" stroke="#FFFFFF" stroke-width="0.1591" d="M282.18,96.758c-0.084-0.02-0.164,0.037-0.188,0.125
				c-0.021,0.084,0.023,0.172,0.104,0.193c0.084,0.022,0.163-0.034,0.188-0.125C282.301,96.865,282.255,96.777,282.18,96.758z"/>
			<path fill="none" stroke="#FFFFFF" stroke-width="0.1591" d="M278.504,97.553c-0.079-0.02-0.162,0.035-0.184,0.123
				c-0.021,0.087,0.029,0.173,0.109,0.195c0.073,0.017,0.158-0.037,0.182-0.125S278.587,97.57,278.504,97.553z"/>
			<path fill="none" stroke="#FFFFFF" stroke-width="0.1591" d="M280.393,96.854c-0.078-0.022-0.162,0.034-0.184,0.125
				c-0.023,0.086,0.023,0.174,0.104,0.193c0.08,0.018,0.162-0.034,0.187-0.125C280.518,96.963,280.473,96.875,280.393,96.854z"/>
			<path fill="none" stroke="#FFFFFF" stroke-width="0.1591" d="M278.264,95.9c-0.076-0.018-0.162,0.037-0.18,0.125
				c-0.021,0.088,0.023,0.176,0.104,0.193c0.08,0.022,0.162-0.035,0.185-0.12C278.393,96.008,278.346,95.922,278.264,95.9z"/>
			<path fill="none" stroke="#FFFFFF" stroke-width="0.1591" d="M282.354,98.828c-0.078-0.02-0.16,0.037-0.183,0.121
				c-0.021,0.086,0.024,0.178,0.104,0.193c0.08,0.023,0.162-0.033,0.184-0.121S282.436,98.848,282.354,98.828z"/>
			<path fill="none" stroke="#A8D0DA" stroke-width="0.3603" stroke-linecap="round" stroke-linejoin="round" d="M283.583,83.74
				c0.037,6.689,0.037,10.166,0.037,15.502c0,1.133-2.101,1.133-4.354,1.133c-2.195,0-4.541,0.043-4.541-1.053
				c0-4.365,0-11.238,0.039-15.582"/>
			
				<ellipse fill="none" stroke="#A8D0DA" stroke-width="0.3603" stroke-linecap="round" stroke-linejoin="round" cx="279.174" cy="83.74" rx="4.41" ry="0.832"/>
			<path fill="none" stroke="#A8D0DA" stroke-width="0.2402" stroke-linecap="round" stroke-linejoin="round" d="M283.621,88.809
				c-1.199-0.56-0.768,4.641-0.812,5.424c-0.096,1.963,0.075,4.059,0.084,5.82"/>
			<path fill="none" stroke="#A8D0DA" stroke-width="0.2402" stroke-linecap="round" stroke-linejoin="round" d="M282.004,100.211
				c0-1.445-0.162-2.812-0.162-4.283c0-1.712,0.338-3.348-0.062-5.016c-0.103-0.422-0.303-1.837-0.975-1.783
				c-0.459,0.04-0.75,1.256-0.824,1.622c-0.346,1.786-0.092,3.919,0,5.739c0.062,1.233,0.162,2.75,0.162,3.804"/>
			<path fill="none" stroke="#A8D0DA" stroke-width="0.2402" stroke-linecap="round" stroke-linejoin="round" d="M279.175,100.294
				c0-1.958-0.188-3.838-0.083-5.819c0.088-1.625,0.381-3.676-0.417-5.084c-1.583-0.455-1.2,9.695-1.2,10.903"/>
			<path fill="none" stroke="#A8D0DA" stroke-width="0.2402" stroke-linecap="round" stroke-linejoin="round" d="M275.292,100.053
				c0-1.619-0.039-7.441,0.079-8.901c0.061-0.728,0.928-3.692,1.463-1.692c0.366,1.386,0.125,2.746-0.005,4.123
				c-0.211,2.158-0.229,4.681-0.245,6.629"/>
		</g>
		<path fill="none" stroke="#777768" stroke-width="1.3087" stroke-linecap="round" stroke-linejoin="round" d="M284.417,91.674
			c0,0.693-0.162,1.113-0.503,1.865c-0.562,1.242-2.743,4.003-5.373,3.272"/>
		<path fill="none" stroke="#777768" stroke-width="1.3087" stroke-linecap="round" stroke-linejoin="round" d="M276.83,93.855
			c-0.725-0.523-1.189-1.293-1.854-2.283c-0.197-0.299-0.608-0.952-0.742-1.35c-0.311,0.42,0.328,1.32,0.322,1.85
			c-0.006,0.332,0.894,4.52,1,4.827"/>
		<path fill="none" stroke="#777768" stroke-width="1.3087" stroke-linecap="round" stroke-linejoin="round" d="M274.243,89.811
			c0.591,0.301,1.013,0.529,1.724,0.594c0.561,0.051,1.365,0.071,1.82-0.23"/>
	</g>
</g>
<g id="COUPLE">
	<g>
		<g>
			<path fill="none" stroke="#777768" stroke-width="1.5949" stroke-linecap="round" stroke-linejoin="round" d="M210.932,44.347
				c0,8.068-4.997,14.606-11.157,14.606c-6.157,0-11.151-6.538-11.151-14.606c0-8.064,4.995-14.603,11.151-14.603
				C205.935,29.744,210.932,36.283,210.932,44.347z"/>
			<path fill="none" stroke="#777768" stroke-width="1.5949" stroke-linecap="round" stroke-linejoin="round" d="M200.111,78.772
				c0.167,10.3,0.151,21.332-0.865,26.382c-1.592,7.971-4.778,4.787-3.188,15.937c2.001,13.974,7.435,25.496,5.848,32.397
				c-8.702,37.695-9.032,38.771-0.531,37.709"/>
			<path fill="none" stroke="#777768" stroke-width="1.5949" stroke-linecap="round" stroke-linejoin="round" d="M199.775,59.481
				c-0.01,2.521,0.076,6.379,0.172,10.835"/>
			<path fill="#FFFFFF" stroke="#777768" stroke-width="1.5949" stroke-linecap="round" stroke-linejoin="round" d="M206.432,74.633
				c0,2.489-2.023,4.52-4.514,4.52c-2.49,0-4.511-2.031-4.511-4.52c0-2.497,2.021-4.513,4.511-4.513
				C204.409,70.12,206.432,72.136,206.432,74.633z"/>
		</g>
	</g>
	<g>
		<g>
			<path fill="none" stroke="#777768" stroke-width="1.5949" stroke-linecap="round" stroke-linejoin="round" d="M320.683,112.38
				c0,1.408,1.15,2.547,2.553,2.547c1.398,0,2.544-1.139,2.544-2.547c0-1.407-1.146-2.541-2.544-2.541
				C321.833,109.839,320.683,110.973,320.683,112.38z"/>
			<path fill="none" stroke="#777768" stroke-width="2.3923" stroke-linecap="round" stroke-linejoin="round" d="M311.375,35.329
				c0,7.883,4.879,14.272,10.899,14.272c6.013,0,10.896-6.389,10.896-14.272c0-7.882-4.883-14.271-10.896-14.271
				C316.254,21.058,311.375,27.447,311.375,35.329z"/>
			<path fill="none" stroke="#777768" stroke-width="2.3923" stroke-linecap="round" stroke-linejoin="round" d="M322,50.168
				c0.048,9.963-1.345,39.419,0.566,48.981c1.711,8.541,2.471,5.953,0.759,17.912c-2.136,14.979,2.674,29.596,3.193,37.18
				c2.648,39.299,2.891,38.312-6.232,37.175"/>
		</g>
		<path fill="none" stroke="#777768" stroke-width="1.5944" stroke-linecap="round" stroke-linejoin="round" d="M321.942,55.824
			c-2.799,1.141-17.948-3.712-22.022-7.692c-2.699-2.635-1.48-16.85,1.596-23.88c3.471-7.936,22.955-4.315,19.684,3.359
			c-0.83-1.119-1.417-4.017-2.487-4.73c-1.075-0.709-3.854-0.233-5.223-0.516c0.376,0.879,2.335,1.323,2.22,2.342
			c-0.204,1.849-2.592,1.163-3.605,0.455c0.476,0.421,0.799,1.158,1.182,1.576c-1.273-0.148-2.519-1.01-3.661-1.664
			c0.046,0.131,0.122,0.236,0.229,0.325c-1.203-0.635-2.248-3.855-3.429-5.065"/>
		<g>
			<g>
				<path fill="none" stroke="#777768" stroke-width="0.9308" stroke-linecap="round" stroke-linejoin="round" d="M335.629,16.398
					c0.514,1.349,0.128,2.881,0.062,4.281c-0.095,1.919,0.039,3.925,0.653,5.759"/>
				<path fill="none" stroke="#777768" stroke-width="0.9308" stroke-linecap="round" stroke-linejoin="round" d="M337.298,30.17
					c-0.061-0.108-0.123-0.217-0.185-0.327c0.105-0.162,0.091,0.082,0.146,0.189"/>
			</g>
			<g>
				<path fill="none" stroke="#777768" stroke-width="0.9308" stroke-linecap="round" stroke-linejoin="round" d="M337.957,17.64
					c0.896,0.59,0.533,1.75-0.404,0.702c-1.357-1.514,0.744-4.128,2.342-1.851c0.743,1.063,0.874,2.58,0.351,3.764
					c-0.433,0.974-1.257,0.932-1.644,1.495c-1.126,1.644,0.182,4.99,0.769,6.766"/>
				<path fill="none" stroke="#777768" stroke-width="0.9308" stroke-linecap="round" stroke-linejoin="round" d="M340.731,31.085
					c-0.195,0.182-0.365,0.309-0.636,0.317c-0.315-0.464-0.254-0.738-0.021-1.015"/>
			</g>
			<g>
				<path fill="none" stroke="#777768" stroke-width="0.9308" stroke-linecap="round" stroke-linejoin="round" d="M341.923,24.937
					c0.452-2.949,2.813-6.003,3.852-8.869"/>
				<path fill="none" stroke="#777768" stroke-width="0.9308" stroke-linecap="round" stroke-linejoin="round" d="M341.844,28.229
					c-0.105,0.256,0.05,0.342-0.15,0.516c-0.303-0.215-0.126-0.41-0.125-0.433"/>
			</g>
		</g>
	</g>
</g>
<g id="BLABLA">
	<g>
		
			<rect x="235.586" y="19.363" fill="none" stroke="#9C9C9C" stroke-width="0.75" stroke-linecap="round" stroke-linejoin="round" width="19.191" height="19.192"/>
		
			<rect x="241.916" y="15.076" fill="none" stroke="#9C9C9C" stroke-width="0.75" stroke-linecap="round" stroke-linejoin="round" width="19.191" height="19.192"/>
		
			<line fill="none" stroke="#9C9C9C" stroke-width="0.75" stroke-linecap="round" stroke-linejoin="round" x1="235.586" y1="19.363" x2="241.916" y2="15.076"/>
		
			<line fill="none" stroke="#9C9C9C" stroke-width="0.75" stroke-linecap="round" stroke-linejoin="round" x1="254.777" y1="19.363" x2="261.106" y2="15.076"/>
		
			<line fill="none" stroke="#9C9C9C" stroke-width="0.75" stroke-linecap="round" stroke-linejoin="round" x1="254.777" y1="38.555" x2="261.106" y2="34.268"/>
		
			<line fill="none" stroke="#9C9C9C" stroke-width="0.75" stroke-linecap="round" stroke-linejoin="round" x1="235.586" y1="38.555" x2="241.916" y2="34.268"/>
	</g>
</g>
</svg>
