<?xml version="1.0" encoding="iso-8859-1"?>
<!-- Generator: Adobe Illustrator 13.0.0, SVG Export Plug-In . SVG Version: 6.00 Build 14948)  -->
<!DOCTYPE svg PUBLIC "-//W3C//DTD SVG 1.1//EN" "http://www.w3.org/Graphics/SVG/1.1/DTD/svg11.dtd">
<svg version="1.1" xmlns="http://www.w3.org/2000/svg" xmlns:xlink="http://www.w3.org/1999/xlink" x="0px" y="0px" width="378px"
	 height="140px" viewBox="0 0 378 140" style="enable-background:new 0 0 378 140;" xml:space="preserve">
<g id="Layer_1">
	<rect style="fill:#FFFFFF;" width="378" height="140"/>
	<rect style="fill:#FFFFFF;" width="378" height="140"/>
</g>
<g id="Layer_5">
	<g>
		<g>
			
				<rect x="299.342" y="70.946" style="fill:#CE4E42;stroke:#FFFFFF;stroke-width:0.6412;stroke-linecap:square;" width="3.137" height="45.07"/>
			<g>
				<path style="fill:#CE4E42;" d="M274.336,69.958c0,0.983,0.797,1.781,1.781,1.781h49.58c0.984,0,1.781-0.797,1.781-1.781
					c0-0.982-0.797-1.778-1.781-1.778h-49.58C275.133,68.179,274.336,68.975,274.336,69.958
					C274.336,69.958,274.336,68.975,274.336,69.958z"/>
				<path style="fill:none;stroke:#FFFFFF;stroke-width:0.9618;" d="M274.336,69.958c0,0.983,0.797,1.781,1.781,1.781h49.58
					c0.984,0,1.781-0.797,1.781-1.781c0-0.982-0.797-1.778-1.781-1.778h-49.58C275.133,68.179,274.336,68.975,274.336,69.958
					C274.336,69.958,274.336,68.975,274.336,69.958z"/>
			</g>
		</g>
		<g>
			<rect x="112.402" y="65.476" style="fill:#78B332;stroke:#FFFFFF;stroke-width:0.9618;" width="3.834" height="50.971"/>
			<path style="fill:#78B332;stroke:#FFFFFF;stroke-width:0.9618;" d="M125.485,68.269h-22.338v-5.586c0,0,5.298-2.444,10.883-2.444
				s11.455,2.444,11.455,2.444V68.269z"/>
			<rect x="107.161" y="104.363" style="fill:#78B332;stroke:#FFFFFF;stroke-width:0.6412;" width="14.313" height="1.309"/>
		</g>
		
			<line style="fill:none;stroke:#78B332;stroke-width:2.3989;stroke-linecap:round;" x1="18.699" y1="39.676" x2="93.943" y2="39.676"/>
		
			<line style="fill:none;stroke:#78B332;stroke-width:2.3989;stroke-linecap:square;" x1="93.943" y1="39.676" x2="93.943" y2="56.507"/>
		
			<line style="fill:none;stroke:#78B332;stroke-width:2.3989;stroke-linecap:square;" x1="93.943" y1="56.507" x2="86.729" y2="56.507"/>
		
			<line style="fill:none;stroke:#78B332;stroke-width:2.3989;stroke-linecap:square;" x1="86.729" y1="56.507" x2="86.729" y2="115.814"/>
		
			<line style="fill:none;stroke:#78B332;stroke-width:2.3989;stroke-linecap:round;" x1="86.729" y1="115.814" x2="358.701" y2="115.814"/>
		<g>
			<g>
				
					<line style="fill:none;stroke:#78B332;stroke-width:2.9986;stroke-linecap:round;stroke-linejoin:round;" x1="258.725" y1="60.229" x2="258.725" y2="87.248"/>
				
					<line style="fill:none;stroke:#78B332;stroke-width:2.9986;stroke-linecap:round;stroke-linejoin:round;" x1="258.725" y1="87.248" x2="285.742" y2="87.248"/>
				
					<line style="fill:none;stroke:#78B332;stroke-width:2.9986;stroke-linecap:round;stroke-linejoin:round;" x1="285.742" y1="87.248" x2="258.695" y2="114.295"/>
				
					<line style="fill:none;stroke:#78B332;stroke-width:2.9986;stroke-linecap:round;stroke-linejoin:round;" x1="258.695" y1="114.295" x2="274.273" y2="114.295"/>
			</g>
			<g>
				
					<line style="fill:none;stroke:#78B332;stroke-width:2.9986;stroke-linecap:round;stroke-linejoin:round;" x1="349.555" y1="60.229" x2="349.555" y2="87.248"/>
				
					<line style="fill:none;stroke:#78B332;stroke-width:2.9986;stroke-linecap:round;stroke-linejoin:round;" x1="349.555" y1="87.248" x2="322.541" y2="87.248"/>
				
					<line style="fill:none;stroke:#78B332;stroke-width:2.9986;stroke-linecap:round;stroke-linejoin:round;" x1="322.541" y1="87.248" x2="349.582" y2="114.295"/>
				
					<line style="fill:none;stroke:#78B332;stroke-width:2.9986;stroke-linecap:round;stroke-linejoin:round;" x1="349.582" y1="114.295" x2="334.006" y2="114.295"/>
			</g>
		</g>
	</g>
</g>
<g id="Layer_3">
	<path style="fill:none;stroke:#919289;stroke-width:1.1921;stroke-linecap:round;stroke-linejoin:round;" d="M165.67,24.517
		c0,6.008-3.715,10.875-8.304,10.875c-4.583,0-8.305-4.867-8.305-10.875c0-6.004,3.721-10.872,8.305-10.872
		C161.955,13.646,165.67,18.513,165.67,24.517z"/>
	<path style="fill:none;stroke:#919289;stroke-width:1.1921;stroke-linecap:round;stroke-linejoin:round;" d="M157.616,50.151
		c0.124,7.667,0.109,15.88-0.649,19.646c-1.181,5.93-3.557,3.561-2.369,11.864c1.485,10.404,5.537,18.98,4.348,24.119
		c-6.474,28.064-6.721,28.867-0.398,28.078"/>
	<path style="fill:none;stroke:#919289;stroke-width:1.1921;stroke-linecap:round;stroke-linejoin:round;" d="M157.366,35.791
		c-0.01,1.912,0.056,4.855,0.129,8.256"/>
	<path style="fill:#FFFFFF;stroke:#919289;stroke-width:0.9432;stroke-linecap:round;stroke-linejoin:round;" d="M162.322,47.07
		c0,1.854-1.5,3.36-3.358,3.36s-3.367-1.506-3.367-3.36c0-1.857,1.509-3.362,3.367-3.362S162.322,45.213,162.322,47.07z"/>
	<path style="fill:none;stroke:#919289;stroke-width:1.1921;stroke-linecap:round;stroke-linejoin:round;" d="M201.104,75.152
		c0,1.055,0.852,1.912,1.91,1.912c1.047,0,1.907-0.857,1.907-1.912s-0.86-1.909-1.907-1.909
		C201.956,73.243,201.104,74.098,201.104,75.152z"/>
	<path style="fill:#FFFFFF;stroke:#919289;stroke-width:1.774;stroke-linecap:round;stroke-linejoin:round;" d="M198.232,17.338
		c0,5.915,3.667,10.709,8.177,10.709c4.512,0,8.181-4.794,8.181-10.709c0-5.914-3.669-10.708-8.181-10.708
		C201.899,6.63,198.232,11.425,198.232,17.338z"/>
	<path style="fill:none;stroke:#919289;stroke-width:1.774;stroke-linecap:round;stroke-linejoin:round;" d="M206.206,28.473
		c0.039,7.475-5.125,29.578-3.694,36.753c1.282,6.409,1.851,4.466,0.572,13.44c-1.604,11.239,4.91,22.207,6.51,27.893
		c8.005,28.452,2.17,28.753-4.67,27.894"/>
	<path style="fill:none;stroke:#919289;stroke-width:0.9432;stroke-linecap:round;stroke-linejoin:round;" d="M206.113,35.124
		c-1.052-0.577-1.494-0.673-2.078-0.235c-0.458,0.281-6.222,8.059-8.908,8.059c-1.036,0-1.458-19.059-2.808-22.9"/>
	<path style="fill:#FFFFFF;stroke:#919289;stroke-width:0.9432;stroke-linecap:round;stroke-linejoin:round;" d="M192.319,20.047
		c-1.922-1.983-2.4-5.397-2.562-8.438c0.942,2.187,1.635,2.81,1.688,3.562c0.003-0.515-0.021-4.029,0.056-4.5
		c0.358,0.465,1.117,3.852,1.087,4.482c0.067-0.646,0-3.461,0.359-3.982c0.268,0.643,0.327,8.222,2.372,2.439
		c-0.405,3.467-2.04,6.106-2.749,6.561"/>
	<g>
		<path style="fill:none;stroke:#919289;stroke-width:0.9432;stroke-linecap:round;stroke-linejoin:round;" d="M206.113,35.124
			c0.561,0.561,0.804,0.418,1.389,1.003s5.459,22.085,8.151,22.085c1.036,0,1.458-19.059,2.808-22.9"/>
		<path style="fill:#FFFFFF;stroke:#919289;stroke-width:0.9432;stroke-linecap:round;stroke-linejoin:round;" d="M218.461,35.312
			c1.922-1.983,2.4-5.397,2.562-8.438c-0.942,2.187-1.635,2.81-1.688,3.562c-0.003-0.515,0.021-4.029-0.056-4.5
			c-0.358,0.465-1.117,3.852-1.087,4.482c-0.067-0.646,0-3.461-0.359-3.982c-0.268,0.643-0.327,8.222-2.372,2.439
			c0.405,3.467,2.04,6.106,2.749,6.561"/>
	</g>
</g>
</svg>
