<?xml version="1.0" encoding="iso-8859-1"?>
<!-- Generator: Adobe Illustrator 13.0.0, SVG Export Plug-In . SVG Version: 6.00 Build 14948)  -->
<!DOCTYPE svg PUBLIC "-//W3C//DTD SVG 1.1//EN" "http://www.w3.org/Graphics/SVG/1.1/DTD/svg11.dtd">
<svg version="1.1" xmlns="http://www.w3.org/2000/svg" xmlns:xlink="http://www.w3.org/1999/xlink" x="0px" y="0px" width="378px"
	 height="140px" viewBox="0 0 378 140" style="enable-background:new 0 0 378 140;" xml:space="preserve">
<g id="Layer_2">
	<g>
		<rect style="fill:none;" width="378" height="140"/>
		<rect style="fill:#FFFFFF;" width="378" height="140"/>
	</g>
</g>
<g id="Layer_3">
	<g>
		<path style="fill:none;stroke:#777768;stroke-width:1.3189;stroke-linecap:round;stroke-linejoin:round;" d="M110.507,40
			c-0.698,2.605-1.22,2.851-0.266,5.407c0.687,1.846,3.186,10.361,5.713,12.888c2.555,1.032,6.254-3.164,9.05-5.57"/>
		<path style="fill:none;stroke:#777768;stroke-width:1.3189;stroke-linecap:round;stroke-linejoin:round;" d="M124.939,52.522
			c0.713-1.044,0.612-3.324,0.672-4.583c0.035-0.747-0.178-3.373-0.022-4.268c0.149,1.233,0.474,3.636,0.292,4.873
			c-0.192,1.284,0.186,3.45-1.081,4.249"/>
	</g>
	<g>
		<path style="fill:#FFFFFF;stroke:#777768;stroke-width:1.8834;stroke-linecap:round;stroke-linejoin:round;" d="M119.224,20.882
			c0,6.382-3.944,11.551-8.819,11.551c-4.868,0-8.819-5.169-8.819-11.551c0-6.377,3.951-11.547,8.819-11.547
			C115.279,9.335,119.224,14.505,119.224,20.882z"/>
		<path style="fill:none;stroke:#777768;stroke-width:1.8834;stroke-linecap:round;stroke-linejoin:round;" d="M110.669,48.106
			c0.132,8.143,0.117,16.865-0.688,20.864c-1.254,6.297-3.777,3.778-2.517,12.598c1.578,11.05,5.881,20.157,4.618,25.617
			c-6.875,29.804-7.137,30.658-0.422,29.817"/>
		<path style="fill:none;stroke:#777768;stroke-width:1.8834;stroke-linecap:round;stroke-linejoin:round;" d="M110.404,32.854
			c-0.01,2.03,0.059,5.156,0.139,8.769"/>
		<path style="fill:#FFFFFF;stroke:#777768;stroke-width:1.2557;stroke-linecap:round;stroke-linejoin:round;" d="M115.669,44.833
			c0,1.97-1.594,3.57-3.566,3.57c-1.974,0-3.575-1.601-3.575-3.57c0-1.971,1.602-3.569,3.575-3.569
			C114.075,41.264,115.669,42.862,115.669,44.833z"/>
	</g>
	<g>
		<path style="fill:none;stroke:#777768;stroke-width:1.2557;stroke-linecap:round;stroke-linejoin:round;" d="M200.537,74.711
			c0,1.11,0.898,2.016,2.012,2.016c1.104,0,2.013-0.905,2.013-2.016s-0.908-2.012-2.013-2.012
			C201.436,72.699,200.537,73.601,200.537,74.711z"/>
		<path style="fill:#FFFFFF;stroke:#777768;stroke-width:1.2557;stroke-linecap:round;stroke-linejoin:round;" d="M193.17,13.784
			c0,6.231,3.863,11.285,8.614,11.285c4.757,0,8.624-5.054,8.624-11.285c0-6.233-3.867-11.285-8.624-11.285
			C197.033,2.499,193.17,7.551,193.17,13.784z"/>
		<path style="fill:none;stroke:#777768;stroke-width:1.2557;stroke-linecap:round;stroke-linejoin:round;" d="M201.572,25.519
			c0.04,7.876-1.059,31.169,0.448,38.73c1.351,6.755,1.951,4.708,0.603,14.165c-1.689,11.844,2.112,23.401,2.519,29.395
			c2.099,31.078,2.287,30.302-4.92,29.396"/>
	</g>
	<g>
		<path style="fill:none;stroke:#777768;stroke-width:1.3189;stroke-linecap:round;stroke-linejoin:round;" d="M110.486,39.021
			c-1.653,1.652-1.603,4.696-0.648,7.251c0.688,1.847,2.34,11.628,4.869,14.155c2.555,1.033,9.2-3.66,11.998-6.066"/>
		<path style="fill:none;stroke:#777768;stroke-width:1.3189;stroke-linecap:round;stroke-linejoin:round;" d="M126.638,54.159
			c0.715-1.045,0.614-3.325,0.674-4.583c0.035-0.747-0.182-3.373-0.022-4.268c0.147,1.232,0.472,3.636,0.289,4.873
			c-0.19,1.284,0.188,3.45-1.078,4.249"/>
	</g>
	<path style="fill:none;stroke:#777768;stroke-width:1.2557;stroke-linecap:round;stroke-linejoin:round;" d="M201.494,30.407
		c6.984,6.984-7.718,24.771-11.486,25.7c-3.759,0.926-22.217,1.79-25.717-1.71"/>
</g>
</svg>
