<?xml version="1.0" encoding="iso-8859-1"?>
<!-- Generator: Adobe Illustrator 15.0.2, SVG Export Plug-In . SVG Version: 6.00 Build 0)  -->
<!DOCTYPE svg PUBLIC "-//W3C//DTD SVG 1.1//EN" "http://www.w3.org/Graphics/SVG/1.1/DTD/svg11.dtd">
<svg version="1.1" xmlns="http://www.w3.org/2000/svg" xmlns:xlink="http://www.w3.org/1999/xlink" x="0px" y="0px" width="540px"
	 height="200px" viewBox="0 0 540 200" style="enable-background:new 0 0 540 200;" xml:space="preserve">
<g id="Layer_2">
	<g>
		<rect style="fill:none;" width="540" height="200"/>
		<rect style="fill:#FFFFFF;" width="540" height="200"/>
	</g>
</g>
<g id="Layer_3">
	<g>
		<path style="fill:none;stroke:#C9C9C9;stroke-width:1.6304;stroke-linecap:round;stroke-linejoin:round;" d="M490.137,100
			c0,41.491-98.562,75.12-220.138,75.12c-121.577,0-220.136-33.629-220.136-75.12c0-41.487,98.559-75.119,220.136-75.119
			C391.574,24.881,490.137,58.513,490.137,100z"/>
		<path style="fill:none;stroke:#C9C9C9;stroke-width:1.0868;stroke-linecap:round;stroke-linejoin:round;" d="M409.705,100
			c0,26.331-62.548,47.679-139.706,47.679c-77.161,0-139.708-21.348-139.708-47.679c0-26.327,62.547-47.674,139.708-47.674
			C347.157,52.326,409.705,73.673,409.705,100z"/>
	</g>
	<g>
		<g>
			<path style="fill:none;stroke:#59B54E;stroke-width:0.671;stroke-linecap:round;stroke-linejoin:round;" d="M98.659,109.065
				c0.096-3.736,33.219,7.028,39.83,4.55"/>
			<path style="fill:none;stroke:#59B54E;stroke-width:0.671;stroke-linecap:round;stroke-linejoin:round;" d="M173.423,97.177
				c-7.698,2.461-13.775,8.238-20.951,11.779c-3.568,1.764-9.417,3.791-18.961,5.777c-4.755,0.984-9.236,1.726-13.44,4.348
				c-6.549,4.092-9.503,11.893-15.929,15.896"/>
			<path style="fill:none;stroke:#59B54E;stroke-width:0.671;stroke-linecap:round;stroke-linejoin:round;" d="M129.949,151.555
				c-2.28-7.281-0.314-20.995,4.44-27.236c3.422-4.506,7.585-5.723,9.141-11.745"/>
			<path style="fill:none;stroke:#59B54E;stroke-width:0.671;stroke-linecap:round;stroke-linejoin:round;" d="M155.081,107.309
				c-9.39,5.812-21.228-7.322-31.537-4.601"/>
			<path style="fill:none;stroke:#59B54E;stroke-width:0.671;stroke-linecap:round;stroke-linejoin:round;" d="M116.974,121.942
				c-6.522,1.911-18.5-0.667-23.135,4.297"/>
			<path style="fill:none;stroke:#59B54E;stroke-width:0.671;stroke-linecap:round;stroke-linejoin:round;" d="M128.09,117.194
				c-8.327,4.744-5.374,15.067-11.69,21.091"/>
		</g>
		<g>
			<path style="fill:none;stroke:#59B54E;stroke-width:0.671;stroke-linecap:round;stroke-linejoin:round;" d="M100.057,116.5
				c-0.284-3.722,33.762,3.593,40.086,0.448"/>
			<path style="fill:none;stroke:#59B54E;stroke-width:0.671;stroke-linecap:round;stroke-linejoin:round;" d="M173.211,97.013
				c-7.407,3.24-12.866,9.609-19.638,13.864c-3.367,2.127-8.977,4.738-18.271,7.691c-4.621,1.47-9.01,2.666-12.914,5.705
				c-6.102,4.741-8.241,12.802-14.22,17.443"/>
			<path style="fill:none;stroke:#59B54E;stroke-width:0.671;stroke-linecap:round;stroke-linejoin:round;" d="M135.535,155.567
				c-3.015-7.014-2.461-20.861,1.627-27.558c2.946-4.837,6.959-6.468,7.889-12.613"/>
			<path style="fill:none;stroke:#59B54E;stroke-width:0.671;stroke-linecap:round;stroke-linejoin:round;" d="M156,108.977
				c-8.744,6.741-21.867-5.11-31.841-1.35"/>
			<path style="fill:none;stroke:#59B54E;stroke-width:0.671;stroke-linecap:round;stroke-linejoin:round;" d="M119.592,127.432
				c-6.29,2.574-18.472,1.23-22.571,6.642"/>
			<path style="fill:none;stroke:#59B54E;stroke-width:0.671;stroke-linecap:round;stroke-linejoin:round;" d="M130.161,121.576
				c-7.793,5.565-3.801,15.536-9.465,22.178"/>
		</g>
		<g>
			<path style="fill:none;stroke:#59B54E;stroke-width:0.671;stroke-linecap:round;stroke-linejoin:round;" d="M110.277,139.095
				c2.604,2.67,19.597-27.732,26.133-30.405"/>
			<path style="fill:none;stroke:#59B54E;stroke-width:0.671;stroke-linecap:round;stroke-linejoin:round;" d="M173.211,97.013
				c-7.322,3.426-11.967,11.599-19.638,13.864c-3.812,1.132-13.226-4.655-21.58,0.376c-4.157,2.506-7.951,5.012-12.812,5.938
				c-7.589,1.453-15.054-2.266-22.492-0.837"/>
			<path style="fill:none;stroke:#59B54E;stroke-width:0.671;stroke-linecap:round;stroke-linejoin:round;" d="M105.601,101.778
				c5.739-6.766,12.801,0.495,20.534,1.853c5.568,0.974,9.448-0.964,14.678,2.399"/>
			<path style="fill:none;stroke:#59B54E;stroke-width:0.671;stroke-linecap:round;stroke-linejoin:round;" d="M156.608,110.32
				c-10.839,2.116-14.346,11.522-23.753,16.527"/>
			<path style="fill:none;stroke:#59B54E;stroke-width:0.671;stroke-linecap:round;stroke-linejoin:round;" d="M114.964,117.201
				c-6.084,3.028-13.126,13.064-19.895,12.569"/>
			<path style="fill:none;stroke:#59B54E;stroke-width:0.671;stroke-linecap:round;stroke-linejoin:round;" d="M126.347,113.13
				c-9.332,2.181-14.183-7.4-22.913-7.53"/>
		</g>
	</g>
	<g>
		<path style="fill:#F2EA03;stroke:#FDCC12;stroke-width:0.5037;stroke-linecap:round;stroke-linejoin:round;" d="M149.628,82.875
			c1.056,0.957,24.557,20.314,47.189,1.678c25.306-20.834,4.177-49.212,1.856-50.039c0.667,4.662,7.873,19.408-16.062,38.25
			c-18.356,14.445-35.708,7.91-36.405,6.562C146.596,80.141,147.95,81.754,149.628,82.875"/>
		<path style="fill:#FFFFCF;stroke:#FDCC12;stroke-width:0.5072;stroke-linecap:round;stroke-linejoin:round;" d="M197.689,33.912
			c7.014,7.858,1.217,24.498-12.972,37.173c-14.179,12.672-31.359,16.575-38.38,8.714c-7.021-7.855-1.217-24.492,12.959-37.164
			C173.484,29.96,190.665,26.06,197.689,33.912z"/>
		<path style="fill:#FFFF7F;stroke:#FFFFCF;stroke-width:0.5072;stroke-linecap:round;stroke-linejoin:round;" d="M170.053,57.143
			c-0.151,0.267-0.411,0.205-0.264,0.591c-1.921,1.415-3.38,3.661-5.138,5.391c-1.75,1.736-3.315,3.521-5.038,5.261
			c-1.61,1.624-3.808,3.839-4.352,6.122c-0.762,3.199,1.456,3.265,3.982,3.281c2.229,0.007,3.753,0.729,5.784-0.772
			c1.285-0.957,1.121-1.682,1.436-3.11c0.26-1.173,0.875-2.055,1.347-3.138c0.937-2.144,1.521-4.704,2.044-6.892
			c0.527-2.198,1.969-4.812,1.826-7.113c-1.073,0.079-2.379,0.537-2.485,1.774"/>
		<path style="fill:#FFFF7F;stroke:#FFFFCF;stroke-width:0.5072;stroke-linecap:round;stroke-linejoin:round;" d="M175.036,52.63
			c0.629,0.827,9.134-4.833,10.679-5.12c2.472-0.469,11.226-3.022,10.221-6.659c-0.455-1.647-2.399-4.854-3.856-5.564
			c-1.873-0.93-4.957,2.249-6.18,3.562c-1.709,1.825-3.069,3.931-4.854,5.694C178.831,46.733,176.732,50.053,175.036,52.63"/>
		<path style="fill:#FFFF7F;stroke:#FFFFCF;stroke-width:0.5072;stroke-linecap:round;stroke-linejoin:round;" d="M172.568,56.492
			c0.431,1.282-0.677,2.191-1.21,3.166c-0.561,1.032-0.636,2.133-0.783,3.251c-0.362,2.771-1.22,5.507-1.521,8.323
			c-0.239,2.338-1.535,5.845,2.01,4.847c2.673-0.745,4.669-2.529,7.007-3.896c1.668-0.978,3.767-1.47,3.121-3.698
			c-0.53-1.84-1.528-3.562-2.382-5.224c-0.889-1.716-1.723-3.411-2.79-5.028c-0.458-0.687-0.786-1.5-1.395-2.062
			c-0.458-0.42-2.02-1.559-1.736-0.017c-0.133,0.208-0.267,0.338-0.359,0.551c0.133,0.479-0.027,0.841-0.284,1.261"/>
		<path style="fill:#FFFF7F;stroke:#FFFFCF;stroke-width:0.5072;stroke-linecap:round;stroke-linejoin:round;" d="M171.136,53.348
			c-1.672-1.203-4.475-2.245-6.081-3.538c-1.952-1.559-3.863-3.281-1.347-5.397c1.86-1.565,3.873-2.97,5.961-4.371
			c0.623-0.424,2.4-1.904,3.152-1.911c1.839-0.007,0.868,1.935,0.827,3.042c-0.089,2.42,0.42,4.937,0.417,7.343
			C174.065,49.352,173.163,55.132,171.136,53.348"/>
		<path style="fill:#FFFF7F;stroke:#FFFFCF;stroke-width:0.5072;stroke-linecap:round;stroke-linejoin:round;" d="M176.109,53.717
			c2.69,0.287,5.203,0.875,7.804,1.032c2.047,0.127,4.235-0.003,6.225,0.731c2.998,1.104,0.913,3.429-0.39,5.148
			c-1.477,1.945-2.711,4.334-4.656,5.776c-2.017,1.49-2.632,0.096-3.842-1.429c-1.162-1.456-2.41-2.885-3.534-4.365
			c-1.063-1.397-2.321-3.448-2.81-5.186c-0.533-1.866,1.128-2.994,2.482-1.463"/>
		<path style="fill:#FFFF7F;stroke:#FFFFCF;stroke-width:0.5072;stroke-linecap:round;stroke-linejoin:round;" d="M149.628,71.608
			c-1.364-1.535-2.082-4.643-0.735-6.311c0.687-0.848,2.174-1.354,3.11-1.914c1.173-0.707,2.311-1.395,3.49-2.082
			c2.126-1.233,4.581-1.76,6.881-2.81c2.109-0.96,4.259-2.126,6.423-2.574c2.451,1.364-2.252,4.29-3.08,5.189
			c-1.655,1.809-3.309,3.784-4.902,5.681c-1.62,1.936-3.312,3.973-4.998,5.65c-1.083,1.077-3.972,4.447-4.991,1.439"/>
		<path style="fill:#FFFF7F;stroke:#FFFFCF;stroke-width:0.5072;stroke-linecap:round;stroke-linejoin:round;" d="M152.117,60.355
			c-1.606-1.982,5.855-9.965,7.708-11.15c2.017-1.289,3.691,0.937,5.312,1.897c0.858,0.502,1.9,0.851,2.81,1.356
			c1.022,0.567,2.198,1.552,3.042,2.181c-0.551,1.196-3.774,1.33-5.032,1.887c-1.785,0.787-3.504,1.146-5.333,1.771
			c-1.764,0.602-3.572,1.552-5.387,1.996c-0.636,0.157-5.104,1.021-3.507-0.424"/>
		<path style="fill:#FFFF7F;stroke:#FFFFCF;stroke-width:0.5072;stroke-linecap:round;stroke-linejoin:round;" d="M174.537,52.445
			c-1.06-1.046-0.615-2.803-0.557-4.047c0.058-1.189-0.147-2.458-0.079-3.61c0.137-2.406,0.349-5.688,1.497-7.704
			c1.45-2.529,3.565-3.549,6.361-4.055c1.692-0.314,4.974-1.579,6.417,0.253c1.518,1.908-0.992,3.788-2.157,5.012
			c-1.446,1.528-2.796,3.281-4.324,4.792c-1.518,1.504-2.667,3.398-3.924,5.104C176.629,49.755,175.098,50.691,174.537,52.445"/>
		<path style="fill:#FFFF7F;stroke:#FFFFCF;stroke-width:0.5072;stroke-linecap:round;stroke-linejoin:round;" d="M183.603,53.778
			c1.083-0.666,3.374,0.444,4.615,0.496c1.593,0.064,3.685,0.898,5.223-0.011c1.606-0.95,1.688-3.22,2.102-4.946
			c0.393-1.657,1.853-4.07,0.065-5.138c-6.515,2.592-12.805,4.889-19.218,8.279c-0.116,1.552,2.851,1.121,3.781,1.066
			c1.265-0.075,2.974,0.485,4.181,0.079"/>
	</g>
	<g>
		<g>
			<path style="fill:none;stroke:#59B54E;stroke-width:0.671;stroke-linecap:round;stroke-linejoin:round;" d="M178.458,34.783
				c3.654,0.783-13.03,31.355-11.813,38.309"/>
			<path style="fill:none;stroke:#59B54E;stroke-width:0.671;stroke-linecap:round;stroke-linejoin:round;" d="M176.362,110.457
				c-1.001-8.016-5.558-15.058-7.718-22.763c-1.073-3.835-1.989-9.954-2.181-19.703c-0.092-4.854,0.003-9.396-1.798-14.008
				c-2.816-7.191-9.937-11.533-12.685-18.588"/>
			<path style="fill:none;stroke:#59B54E;stroke-width:0.671;stroke-linecap:round;stroke-linejoin:round;" d="M130.927,57.71
				c7.575-0.902,20.694,3.562,25.958,9.379c3.794,4.198,4.222,8.512,9.852,11.147"/>
			<path style="fill:none;stroke:#59B54E;stroke-width:0.671;stroke-linecap:round;stroke-linejoin:round;" d="M169.782,90.562
				c-3.975-10.303,11.113-19.515,10.337-30.149"/>
			<path style="fill:none;stroke:#59B54E;stroke-width:0.671;stroke-linecap:round;stroke-linejoin:round;" d="M162.423,50.411
				c-0.677-6.765,4.068-18.062,0.048-23.534"/>
			<path style="fill:none;stroke:#59B54E;stroke-width:0.671;stroke-linecap:round;stroke-linejoin:round;" d="M165.042,62.211
				c-3.125-9.062-13.817-8.06-18.575-15.378"/>
		</g>
		<g>
			<path style="fill:none;stroke:#59B54E;stroke-width:0.671;stroke-linecap:round;stroke-linejoin:round;" d="M170.89,34.787
				c3.712,0.403-9.749,32.521-7.825,39.316"/>
			<path style="fill:none;stroke:#59B54E;stroke-width:0.671;stroke-linecap:round;stroke-linejoin:round;" d="M176.561,110.275
				c-1.819-7.875-7.069-14.415-10.009-21.853c-1.463-3.702-3.001-9.698-4.191-19.375c-0.591-4.816-0.957-9.349-3.227-13.748
				c-3.535-6.867-11.062-10.457-14.524-17.19"/>
			<path style="fill:none;stroke:#59B54E;stroke-width:0.671;stroke-linecap:round;stroke-linejoin:round;" d="M125.957,62.461
				c7.448-1.675,20.954,1.422,26.785,6.673c4.205,3.787,5.073,8.032,10.945,10.08"/>
			<path style="fill:none;stroke:#59B54E;stroke-width:0.671;stroke-linecap:round;stroke-linejoin:round;" d="M167.978,91.157
				c-5.015-9.834,9.048-20.551,7.192-31.048"/>
			<path style="fill:none;stroke:#59B54E;stroke-width:0.671;stroke-linecap:round;stroke-linejoin:round;" d="M156.543,51.974
				c-1.367-6.658,2.195-18.383-2.369-23.411"/>
			<path style="fill:none;stroke:#59B54E;stroke-width:0.671;stroke-linecap:round;stroke-linejoin:round;" d="M160.355,63.445
				c-4.037-8.696-14.572-6.604-20.055-13.396"/>
		</g>
		<g>
			<path style="fill:none;stroke:#59B54E;stroke-width:0.671;stroke-linecap:round;stroke-linejoin:round;" d="M146.801,40.666
				c-3.107,2.071,23.644,24.372,25.066,31.287"/>
			<path style="fill:none;stroke:#59B54E;stroke-width:0.671;stroke-linecap:round;stroke-linejoin:round;" d="M176.561,110.275
				c-2.014-7.824-9.188-13.898-10.009-21.853c-0.407-3.955,7.014-12.142,3.61-21.279c-1.696-4.546-3.459-8.74-3.473-13.687
				c-0.027-7.725,5.001-14.381,4.967-21.952"/>
			<path style="fill:none;stroke:#59B54E;stroke-width:0.671;stroke-linecap:round;stroke-linejoin:round;" d="M184.337,42.949
				c5.592,6.892-2.844,12.49-5.599,19.84c-1.986,5.295-0.796,9.462-5.069,13.987"/>
			<path style="fill:none;stroke:#59B54E;stroke-width:0.671;stroke-linecap:round;stroke-linejoin:round;" d="M166.545,91.51
				c-0.082-11.045-8.683-16.224-11.868-26.396"/>
			<path style="fill:none;stroke:#59B54E;stroke-width:0.671;stroke-linecap:round;stroke-linejoin:round;" d="M167.455,49.308
				c-1.856-6.539-10.419-15.307-8.686-21.87"/>
			<path style="fill:none;stroke:#59B54E;stroke-width:0.671;stroke-linecap:round;stroke-linejoin:round;" d="M169.358,61.244
				c-0.42-9.571,9.889-12.572,11.625-21.128"/>
		</g>
	</g>
	<g>
		<path style="fill:#F2EA03;stroke:#FDCC12;stroke-width:0.5916;stroke-linecap:round;stroke-linejoin:round;" d="M115.938,37.515
			c-1.425,0.875-31.021,20.961-17.505,52.647c15.116,35.428,54.101,20.988,55.8,18.647c-5.479-0.79-24.485,2.45-37.806-30.769
			c-10.214-25.469,2.899-42.871,4.646-43.213C120.03,34.999,117.76,35.993,115.938,37.515"/>
		<path style="fill:#FFFFCF;stroke:#FDCC12;stroke-width:0.5961;stroke-linecap:round;stroke-linejoin:round;" d="M155.238,107.9
			c-11.185,5.309-28.023-6.737-37.618-26.926c-9.595-20.182-8.31-40.842,2.875-46.157c11.181-5.312,28.02,6.73,37.614,26.912
			C167.708,81.918,166.416,102.578,155.238,107.9z"/>
		<path style="fill:#FFFF7F;stroke:#FFFFCF;stroke-width:0.5961;stroke-linecap:round;stroke-linejoin:round;" d="M138.188,69.052
			c-0.246-0.26-0.089-0.526-0.574-0.492c-0.96-2.633-3.008-5.025-4.382-7.568c-1.371-2.554-2.868-4.902-4.259-7.432
			c-1.292-2.345-3.062-5.558-5.462-6.929c-3.356-1.911-4.163,0.564-5.014,3.411c-0.749,2.499-2.068,3.982-1.04,6.772
			c0.65,1.764,1.521,1.818,3.025,2.648c1.237,0.681,2.027,1.665,3.093,2.557c2.109,1.768,4.799,3.269,7.093,4.581
			c2.304,1.322,4.775,3.814,7.417,4.413c0.26-1.234,0.178-2.858-1.176-3.392"/>
		<path style="fill:#FFFF7F;stroke:#FFFFCF;stroke-width:0.5961;stroke-linecap:round;stroke-linejoin:round;" d="M141.633,76.172
			c-1.138,0.434,2.42,11.885,2.239,13.728c-0.291,2.946-0.311,13.656,4.119,13.725c2.01,0.034,6.276-1.098,7.558-2.499
			c1.658-1.809-0.902-6.334-1.972-8.152c-1.491-2.53-3.418-4.759-4.816-7.356C147.021,82.396,143.975,78.934,141.633,76.172"/>
		<path style="fill:#FFFF7F;stroke:#FFFFCF;stroke-width:0.5961;stroke-linecap:round;stroke-linejoin:round;" d="M138.092,72.107
			c-1.586,0.062-2.242-1.49-3.166-2.413c-0.978-0.971-2.198-1.422-3.408-1.956c-3.005-1.333-5.804-3.199-8.877-4.471
			c-2.557-1.046-6.078-3.664-6.132,0.663c-0.044,3.254,1.306,6.099,2.075,9.188c0.543,2.201,0.414,4.734,3.141,4.737
			c2.243,0.014,4.516-0.54,6.672-0.957c2.226-0.431,4.417-0.807,6.59-1.479c0.926-0.284,1.956-0.39,2.783-0.893
			c0.629-0.376,2.427-1.757,0.598-1.948c-0.188-0.219-0.297-0.417-0.502-0.585c-0.588-0.01-0.94-0.308-1.333-0.738"/>
		<path style="fill:#FFFF7F;stroke:#FFFFCF;stroke-width:0.5961;stroke-linecap:round;stroke-linejoin:round;" d="M142.108,71.529
			c1.911-1.486,4.016-4.293,6.006-5.685c2.406-1.682,4.977-3.268,6.529,0.273c1.148,2.608,2.068,5.343,2.96,8.163
			c0.27,0.845,1.347,3.336,1.104,4.188c-0.598,2.075-2.471,0.338-3.695-0.075c-2.701-0.906-5.712-1.159-8.423-1.959
			C145.646,76.158,139.432,73.229,142.108,71.529"/>
		<path style="fill:#FFFF7F;stroke:#FFFFCF;stroke-width:0.5961;stroke-linecap:round;stroke-linejoin:round;" d="M140.05,77.016
			c-1.213,2.94-2.704,5.575-3.75,8.457c-0.817,2.27-1.392,4.771-2.882,6.778c-2.235,3.012-4.167-0.109-5.671-2.144
			c-1.709-2.311-3.986-4.491-4.97-7.164c-1.019-2.762,0.759-2.994,2.878-3.859c2.023-0.824,4.047-1.754,6.091-2.533
			c1.928-0.741,4.656-1.477,6.775-1.463c2.276,0.021,3.001,2.267,0.827,3.288"/>
		<path style="fill:#FFFF7F;stroke:#FFFFCF;stroke-width:0.5961;stroke-linecap:round;stroke-linejoin:round;" d="M128.644,41.24
			c2.178-1.028,5.924-0.81,7.356,1.258c0.725,1.057,0.803,2.902,1.131,4.144c0.407,1.555,0.803,3.069,1.189,4.621
			c0.687,2.81,0.468,5.75,0.892,8.689c0.383,2.693,0.984,5.503,0.772,8.091c-2.348,2.317-4.092-3.958-4.833-5.186
			c-1.487-2.468-3.172-4.99-4.778-7.407c-1.645-2.465-3.384-5.053-4.714-7.503c-0.854-1.579-3.706-5.951,0.027-6.105"/>
		<path style="fill:#FFFF7F;stroke:#FFFFCF;stroke-width:0.5961;stroke-linecap:round;stroke-linejoin:round;" d="M140.505,47.77
			c2.762-1.152,9.298,9.899,10.019,12.381c0.79,2.7-2.28,3.849-3.897,5.359c-0.851,0.8-1.589,1.866-2.458,2.722
			c-0.978,0.964-2.475,1.965-3.466,2.703c-1.166-1.015-0.25-4.693-0.458-6.3c-0.304-2.267-0.137-4.327-0.236-6.59
			c-0.092-2.188-0.571-4.54-0.472-6.734c0.038-0.772,0.543-6.091,1.644-3.814"/>
		<path style="fill:#FFFF7F;stroke:#FFFFCF;stroke-width:0.5961;stroke-linecap:round;stroke-linejoin:round;" d="M142.006,75.662
			c1.535-0.848,3.36,0.236,4.744,0.718c1.323,0.458,2.82,0.643,4.099,1.101c2.667,0.954,6.296,2.273,8.187,4.239
			c2.373,2.468,2.82,5.195,2.472,8.511c-0.212,2.014,0.137,6.133-2.41,7.151c-2.656,1.08-3.948-2.372-4.942-4.088
			c-1.237-2.137-2.772-4.239-3.969-6.461c-1.196-2.215-2.943-4.129-4.454-6.111C144.347,78.913,143.793,76.879,142.006,75.662"/>
		<path style="fill:#FFFF7F;stroke:#FFFFCF;stroke-width:0.5961;stroke-linecap:round;stroke-linejoin:round;" d="M137.5,85.441
			c0.393,1.446-1.617,3.661-2.082,5.042c-0.602,1.771-2.239,3.85-1.723,5.89c0.547,2.123,3.073,2.975,4.881,4.011
			c1.743,0.991,3.979,3.438,5.777,1.777c-0.766-8.211-1.275-16.062-2.974-24.41c-1.716-0.646-2.208,2.841-2.454,3.907
			c-0.335,1.456-1.538,3.192-1.47,4.689"/>
	</g>
	<g>
		<g>
			<path style="fill:none;stroke:#59B54E;stroke-width:0.671;stroke-linecap:round;stroke-linejoin:round;" d="M389.387,70.641
				c0.526,3.699-33.923-1.432-40.027,2.109"/>
			<path style="fill:none;stroke:#59B54E;stroke-width:0.671;stroke-linecap:round;stroke-linejoin:round;" d="M317.624,94.75
				c7.185-3.706,12.23-10.405,18.711-15.089c3.228-2.331,8.662-5.298,17.748-8.839c4.519-1.761,8.819-3.234,12.524-6.512
				c5.783-5.124,7.411-13.304,13.085-18.318"/>
			<path style="fill:none;stroke:#59B54E;stroke-width:0.671;stroke-linecap:round;stroke-linejoin:round;" d="M351.492,33.919
				c3.452,6.802,3.787,20.659,0.137,27.602c-2.633,5.008-6.536,6.898-7.069,13.096"/>
			<path style="fill:none;stroke:#59B54E;stroke-width:0.671;stroke-linecap:round;stroke-linejoin:round;" d="M334.038,81.72
				c8.3-7.288,22.15,3.701,31.865-0.688"/>
			<path style="fill:none;stroke:#59B54E;stroke-width:0.671;stroke-linecap:round;stroke-linejoin:round;" d="M369.191,60.974
				c6.119-2.967,18.363-2.406,22.109-8.063"/>
			<path style="fill:none;stroke:#59B54E;stroke-width:0.671;stroke-linecap:round;stroke-linejoin:round;" d="M359.019,67.499
				c7.432-6.057,2.804-15.751,8.04-22.738"/>
		</g>
		<g>
			<path style="fill:none;stroke:#59B54E;stroke-width:0.671;stroke-linecap:round;stroke-linejoin:round;" d="M386.782,63.534
				c0.896,3.627-33.896,2.058-39.611,6.204"/>
			<path style="fill:none;stroke:#59B54E;stroke-width:0.671;stroke-linecap:round;stroke-linejoin:round;" d="M317.87,94.873
				c6.761-4.417,11.089-11.602,17.063-16.928c2.967-2.646,8.067-6.152,16.743-10.61c4.313-2.215,8.449-4.122,11.793-7.763
				c5.229-5.685,6.009-13.99,11.137-19.562"/>
			<path style="fill:none;stroke:#59B54E;stroke-width:0.671;stroke-linecap:round;stroke-linejoin:round;" d="M345.318,30.894
				c4.137,6.412,5.88,20.161,2.96,27.445c-2.099,5.25-5.79,7.526-5.688,13.748"/>
			<path style="fill:none;stroke:#59B54E;stroke-width:0.671;stroke-linecap:round;stroke-linejoin:round;" d="M332.855,80.229
				c7.507-8.099,22.41,1.415,31.626-3.948"/>
			<path style="fill:none;stroke:#59B54E;stroke-width:0.671;stroke-linecap:round;stroke-linejoin:round;" d="M365.698,55.993
				c5.783-3.582,18.014-4.275,21.166-10.292"/>
			<path style="fill:none;stroke:#59B54E;stroke-width:0.671;stroke-linecap:round;stroke-linejoin:round;" d="M356.25,63.521
				c6.762-6.781,1.176-15.949,5.661-23.438"/>
		</g>
		<g>
			<path style="fill:none;stroke:#59B54E;stroke-width:0.671;stroke-linecap:round;stroke-linejoin:round;" d="M372.959,42.949
				c-3.016-2.201-14.733,30.594-20.735,34.312"/>
			<path style="fill:none;stroke:#59B54E;stroke-width:0.671;stroke-linecap:round;stroke-linejoin:round;" d="M317.87,94.873
				c6.645-4.588,9.879-13.413,17.063-16.928c3.576-1.743,13.816,2.4,21.221-3.944c3.685-3.155,7.015-6.256,11.649-7.979
				c7.24-2.683,15.225-0.26,22.321-2.898"/>
			<path style="fill:none;stroke:#59B54E;stroke-width:0.671;stroke-linecap:round;stroke-linejoin:round;" d="M383.753,78.971
				c-4.546,7.627-12.709,1.638-20.557,1.583c-5.654-0.041-9.161,2.513-14.877,0.059"/>
			<path style="fill:none;stroke:#59B54E;stroke-width:0.671;stroke-linecap:round;stroke-linejoin:round;" d="M332.035,79.005
				c10.337-3.883,12.237-13.741,20.688-20.235"/>
			<path style="fill:none;stroke:#59B54E;stroke-width:0.671;stroke-linecap:round;stroke-linejoin:round;" d="M371.96,65.318
				c5.504-3.999,10.781-15.058,17.536-15.693"/>
			<path style="fill:none;stroke:#59B54E;stroke-width:0.671;stroke-linecap:round;stroke-linejoin:round;" d="M361.412,71.219
				c8.846-3.699,15.211,4.949,23.846,3.63"/>
		</g>
	</g>
	<g>
		<g>
			<path style="fill:none;stroke:#59B54E;stroke-width:0.671;stroke-linecap:round;stroke-linejoin:round;" d="M367.961,135.476
				c-3.466,1.395-6.713-33.28-11.608-38.37"/>
			<path style="fill:none;stroke:#59B54E;stroke-width:0.671;stroke-linecap:round;stroke-linejoin:round;" d="M327.414,71.547
				c5.312,6.091,13.023,9.387,19.121,14.568c3.035,2.577,7.213,7.141,12.818,15.119c2.79,3.969,5.244,7.797,9.318,10.614
				c6.352,4.389,14.685,4.009,20.906,8.319"/>
			<path style="fill:none;stroke:#59B54E;stroke-width:0.671;stroke-linecap:round;stroke-linejoin:round;" d="M394.568,89.906
				c-5.776,4.98-19.155,8.607-26.771,6.724c-5.489-1.36-8.252-4.7-14.397-3.739"/>
			<path style="fill:none;stroke:#59B54E;stroke-width:0.671;stroke-linecap:round;stroke-linejoin:round;" d="M343.985,84.372
				c9.059,6.316,1.695,22.39,8.279,30.778"/>
			<path style="fill:none;stroke:#59B54E;stroke-width:0.671;stroke-linecap:round;stroke-linejoin:round;" d="M372.521,113.558
				c4.348,5.233,6.72,17.255,13.119,19.538"/>
			<path style="fill:none;stroke:#59B54E;stroke-width:0.671;stroke-linecap:round;stroke-linejoin:round;" d="M363.764,105.237
				c7.649,5.763,15.963-1.039,23.996,2.372"/>
		</g>
		<g>
			<path style="fill:none;stroke:#59B54E;stroke-width:0.671;stroke-linecap:round;stroke-linejoin:round;" d="M374.237,131.243
				c-3.31,1.736-10.091-32.419-15.485-36.979"/>
			<path style="fill:none;stroke:#59B54E;stroke-width:0.671;stroke-linecap:round;stroke-linejoin:round;" d="M327.353,71.807
				c5.906,5.517,13.912,8.006,20.509,12.534c3.282,2.25,7.903,6.361,14.303,13.725c3.186,3.665,6.016,7.22,10.357,9.599
				c6.768,3.719,15.02,2.488,21.65,6.14"/>
			<path style="fill:none;stroke:#59B54E;stroke-width:0.671;stroke-linecap:round;stroke-linejoin:round;" d="M396.032,83.189
				c-5.237,5.544-18.172,10.528-25.938,9.431c-5.605-0.789-8.695-3.832-14.712-2.246"/>
			<path style="fill:none;stroke:#59B54E;stroke-width:0.671;stroke-linecap:round;stroke-linejoin:round;" d="M345.147,82.868
				c9.653,5.356,3.979,22.099,11.39,29.767"/>
			<path style="fill:none;stroke:#59B54E;stroke-width:0.671;stroke-linecap:round;stroke-linejoin:round;" d="M376.534,108.977
				c4.847,4.759,8.45,16.473,15.04,18.09"/>
			<path style="fill:none;stroke:#59B54E;stroke-width:0.671;stroke-linecap:round;stroke-linejoin:round;" d="M366.963,101.594
				c8.197,4.949,15.765-2.67,24.112-0.1"/>
		</g>
		<g>
			<path style="fill:none;stroke:#59B54E;stroke-width:0.671;stroke-linecap:round;stroke-linejoin:round;" d="M390.925,112.908
				c1.422-3.453-33.226-7.001-38.271-11.94"/>
			<path style="fill:none;stroke:#59B54E;stroke-width:0.671;stroke-linecap:round;stroke-linejoin:round;" d="M327.353,71.807
				c6.036,5.366,15.382,6.392,20.509,12.534c2.544,3.053,0.971,13.988,8.901,19.662c3.938,2.827,7.746,5.319,10.528,9.411
				c4.334,6.392,3.883,14.719,8.143,20.98"/>
			<path style="fill:none;stroke:#59B54E;stroke-width:0.671;stroke-linecap:round;stroke-linejoin:round;" d="M358.52,131.988
				c-8.483-2.587-4.614-11.946-6.439-19.579c-1.306-5.504-4.629-8.3-3.61-14.433"/>
			<path style="fill:none;stroke:#59B54E;stroke-width:0.671;stroke-linecap:round;stroke-linejoin:round;" d="M346.146,81.777
				c6.235,9.109,16.265,8.604,24.591,15.256"/>
			<path style="fill:none;stroke:#59B54E;stroke-width:0.671;stroke-linecap:round;stroke-linejoin:round;" d="M368.966,117.283
				c5.196,4.386,17.201,6.871,19.43,13.28"/>
			<path style="fill:none;stroke:#59B54E;stroke-width:0.671;stroke-linecap:round;stroke-linejoin:round;" d="M360.721,108.447
				c5.702,7.701-1.176,15.953,2.168,24.017"/>
		</g>
	</g>
	<g>
		<g>
			<path style="fill:none;stroke:#59B54E;stroke-width:0.671;stroke-linecap:round;stroke-linejoin:round;" d="M418.866,91.567
				c-0.568,3.691-32.043-11.212-38.928-9.599"/>
			<path style="fill:none;stroke:#59B54E;stroke-width:0.671;stroke-linecap:round;stroke-linejoin:round;" d="M343.199,93.813
				c7.944-1.46,14.712-6.413,22.28-9.011c3.767-1.292,9.824-2.557,19.546-3.309c4.84-0.369,9.379-0.533,13.878-2.599
				c7.021-3.22,10.952-10.579,17.836-13.728"/>
			<path style="fill:none;stroke:#59B54E;stroke-width:0.671;stroke-linecap:round;stroke-linejoin:round;" d="M393.256,45.428
				c1.333,7.51-2.372,20.865-7.882,26.454c-3.966,4.026-8.252,4.703-10.562,10.477"/>
			<path style="fill:none;stroke:#59B54E;stroke-width:0.671;stroke-linecap:round;stroke-linejoin:round;" d="M362.684,86.102
				c10.057-4.56,20.119,9.975,30.688,8.594"/>
			<path style="fill:none;stroke:#59B54E;stroke-width:0.671;stroke-linecap:round;stroke-linejoin:round;" d="M402.342,76.455
				c6.721-1.062,18.268,3.025,23.497-1.306"/>
			<path style="fill:none;stroke:#59B54E;stroke-width:0.671;stroke-linecap:round;stroke-linejoin:round;" d="M390.713,79.743
				c8.867-3.637,7.261-14.254,14.288-19.422"/>
		</g>
		<g>
			<path style="fill:none;stroke:#59B54E;stroke-width:0.671;stroke-linecap:round;stroke-linejoin:round;" d="M418.435,84.01
				c-0.198,3.729-33.033-7.869-39.706-5.559"/>
			<path style="fill:none;stroke:#59B54E;stroke-width:0.671;stroke-linecap:round;stroke-linejoin:round;" d="M343.391,94.001
				c7.753-2.266,13.98-7.886,21.248-11.246c3.609-1.671,9.503-3.552,19.094-5.295c4.779-0.864,9.277-1.49,13.544-4.006
				c6.658-3.924,9.803-11.646,16.332-15.491"/>
			<path style="fill:none;stroke:#59B54E;stroke-width:0.671;stroke-linecap:round;stroke-linejoin:round;" d="M388.231,40.741
				c2.092,7.336-0.226,20.998-5.135,27.12c-3.541,4.417-7.725,5.524-9.434,11.506"/>
			<path style="fill:none;stroke:#59B54E;stroke-width:0.671;stroke-linecap:round;stroke-linejoin:round;" d="M361.986,84.334
				c9.529-5.568,21.035,7.859,31.406,5.404"/>
			<path style="fill:none;stroke:#59B54E;stroke-width:0.671;stroke-linecap:round;stroke-linejoin:round;" d="M400.448,70.672
				c6.569-1.747,18.479,1.142,23.237-3.706"/>
			<path style="fill:none;stroke:#59B54E;stroke-width:0.671;stroke-linecap:round;stroke-linejoin:round;" d="M389.216,75.136
				c8.45-4.525,5.756-14.924,12.224-20.79"/>
		</g>
		<g>
			<path style="fill:none;stroke:#59B54E;stroke-width:0.671;stroke-linecap:round;stroke-linejoin:round;" d="M411.175,60.301
				c-2.242-2.984-22.978,25.001-29.794,26.819"/>
			<path style="fill:none;stroke:#59B54E;stroke-width:0.671;stroke-linecap:round;stroke-linejoin:round;" d="M343.391,94.001
				c7.698-2.461,13.345-9.971,21.248-11.246c3.924-0.632,12.518,6.307,21.446,2.383c4.443-1.948,8.524-3.951,13.461-4.252
				c7.712-0.469,14.644,4.17,22.205,3.701"/>
			<path style="fill:none;stroke:#59B54E;stroke-width:0.671;stroke-linecap:round;stroke-linejoin:round;" d="M411.052,97.905
				c-6.557,5.979-12.634-2.123-20.127-4.454c-5.4-1.679-9.496-0.253-14.254-4.26"/>
			<path style="fill:none;stroke:#59B54E;stroke-width:0.671;stroke-linecap:round;stroke-linejoin:round;" d="M361.556,82.93
				c11.021-0.722,15.696-9.603,25.671-13.365"/>
			<path style="fill:none;stroke:#59B54E;stroke-width:0.671;stroke-linecap:round;stroke-linejoin:round;" d="M403.736,81.415
				c6.427-2.229,14.685-11.28,21.337-9.927"/>
			<path style="fill:none;stroke:#59B54E;stroke-width:0.671;stroke-linecap:round;stroke-linejoin:round;" d="M391.93,83.996
				c9.537-0.968,13.119,9.154,21.761,10.398"/>
		</g>
	</g>
</g>
<g id="Layer_4">
	<path style="fill:#C7C7C7;stroke:#055587;stroke-width:0.657;stroke-linecap:round;stroke-linejoin:round;" d="M137.538,125.928
		c-10.111-1.336-17.556-4.895-20.619-11.276c50.078-44.923,120.753-64.722,194.326-46.469c15.409,3.829,29.37,5.596,45.388,1.648
		c17.522-4.317,27.824-14.583,42.086-23.597c-6.673,7.521-18.486,25.859-16.976,30.932c0.978,3.285,20.599,4.294,27.299,7.165
		c6.986,2.994,13.816,2.666,20.42,5.558c-27.414,2.038-45.798-1.315-68.358,7.158c-9.44,3.542-31.386,22.981-47.22,31.332
		c-29.668,15.646-63.95,23.839-97.186,26.382c-17.27,1.319-32.744-1.363-48.423-6.19c-11.755-3.616-22.068-7.968-32.292-12.917
		c-7.496-3.631-23.463-13.913-17.587-17.358C123.185,121.378,132.158,124.94,137.538,125.928"/>
	<path style="fill:#F0F0F0;stroke:#055587;stroke-width:1.9714;stroke-linecap:round;stroke-linejoin:round;" d="M159.196,102.852
		c-2.824-1.982-6.816-3.306-8.795,2.14c-0.612,6.501,10.993,3.787,7.551-2.919"/>
	<path style="fill:none;stroke:#055587;stroke-width:1.3144;stroke-linecap:round;stroke-linejoin:round;" d="M157.473,144.906
		c27.767-28.71,5.004-39.717,3.692-40.428c-0.526-0.51-1.207-1.094-1.969-1.627"/>
</g>
<g id="Layer_5">
	<path style="fill:#C7C7C7;stroke:#055587;stroke-width:0.657;stroke-linecap:round;stroke-linejoin:round;" d="M335.104,72.639
		c0.38,2.697-5.081,5.013-8.627,5.443c6.394,0.32,12.749-3.466,13.762,5.775c0.455,4.155-8.444,8.992-12.886,8.947
		c7.942-2.123,15.399-0.819,16.633,6.831c0.911,5.648-3.478,10.821-9.947,14.782"/>
	<path style="fill:#C7C7C7;stroke:#055587;stroke-width:0.657;stroke-linecap:round;stroke-linejoin:round;" d="M315.135,69.489
		c3.763-0.387,12.504,2.173,12.279,5.999c-0.222,3.768-1.576,6.006-7.966,7.097c6.39-1.091,10.721,0.577,12.587,10.22
		c0.794,4.104,1.321,11.483-8.548,12.111c7.941-2.124,10.474-3.482,11.562,5.263c0.707,5.679-5.75,8.405-10.803,11.888"/>
	<path style="fill:#C7C7C7;stroke:#055587;stroke-width:0.657;stroke-linecap:round;stroke-linejoin:round;" d="M315.117,69.673
		c0.38,2.697-3.192,5.872-6.738,6.302c6.394,0.32,15.732,0.917,13.55,9.237c-1.061,4.043-9.108,9.706-13.55,9.661
		c7.942-2.123,15.509,0.984,16.742,8.634c0.911,5.648,1.972,13.147-10.021,13.776c6.011,0.738,8.541,0.738,9.147,4.783"/>
	<path style="fill:#C7C7C7;stroke:#055587;stroke-width:0.657;stroke-linecap:round;stroke-linejoin:round;" d="M300.653,65.812
		c6.394,0.32,9.586,4.22,9.198,9.068c-0.333,4.167-3.477,10.417-7.918,10.372c7.941-2.123,11.102,1.868,13.166,8.269
		c1.756,5.445-4.199,13.47-16.193,14.098c12.998-0.628,16.167,1.065,16.193,9.664c0.02,6.521-11.442,9.783-11.442,9.783
		c9.074-1.711,9.074-1.711,11.442,0.654"/>
	<path style="fill:#C7C7C7;stroke:#055587;stroke-width:0.657;stroke-linecap:round;stroke-linejoin:round;" d="M300.653,65.812
		c0.734,4.797-3.691,7.279-7.265,8.44c6.393,0.32,13.837,4.393,11.654,12.714c-1.061,4.043-4.074,9.245-8.516,9.201
		c7.941-2.124,9.974,3.804,11.062,12.549c0.707,5.679-5.354,10.027-8.533,10.32c5.411,1.478,7.307,0.809,6.807,9.394
		c-0.225,3.876-3.916,6.816-8.901,7.497"/>
	<path style="fill:#C7C7C7;stroke:#055587;stroke-width:0.657;stroke-linecap:round;stroke-linejoin:round;" d="M280.688,63.344
		c6.393,0.32,15.424,3.93,13.241,12.25c-1.061,4.043-7.917,10.372-12.358,10.327c7.941-2.123,13.58,1.217,14.67,9.963
		c0.707,5.678-10.076,12.156-13.257,12.449c5.411,1.479,15.347,2.861,16.193,11.418c0.835,8.434-12.9,10.471-12.9,10.471
		c9.118-3.45,8.75-1.635,10.686,5.706"/>
	<path style="fill:#C7C7C7;stroke:#055587;stroke-width:0.657;stroke-linecap:round;stroke-linejoin:round;" d="M286.276,50.035"/>
	<path style="fill:#C7C7C7;stroke:#055587;stroke-width:0.657;stroke-linecap:round;stroke-linejoin:round;" d="M273.19,62.043
		c3.763-0.387,8.701,1.088,10.25,4.593c1.501,3.396-0.818,9.754-4.653,11.332c6.394,0.32,12.938,1.523,12.318,10.477
		c-0.289,4.17-7.326,12.486-11.768,12.441c7.941-2.123,13.226,0.562,14.314,9.309c0.707,5.678-8.525,12.471-11.705,12.764
		c5.412,1.479,10.479-1.635,9.979,6.949c-0.225,3.877-3.891,10.063-8.877,10.743"/>
	<path style="fill:#C7C7C7;stroke:#055587;stroke-width:0.657;stroke-linecap:round;stroke-linejoin:round;" d="M273.19,62.043
		c0.38,2.697-3.192,5.872-6.738,6.302c6.394,0.32,15.424,3.93,13.241,12.25c-1.061,4.043-7.917,10.372-12.358,10.327
		c7.942-2.123,13.581,1.217,14.67,9.963c0.707,5.678-1.264,11.821-13.257,12.449c12.998-0.628,16.167,2.819,16.193,11.418
		c0.02,6.521-15.856,7.116-15.856,7.116c7.285,0,12.029,1.44,13.963,8.781"/>
	<path style="fill:#C7C7C7;stroke:#055587;stroke-width:0.657;stroke-linecap:round;stroke-linejoin:round;" d="M259.292,61.442
		c3.762-0.387,10.706,2.958,10.706,6.473c0,8.189-3.014,10.443-7.506,14.189c6.394,0.32,14.576,2.258,12.395,10.579
		c-1.061,4.043-3.994,10.868-8.435,10.824c7.941-2.124,11.197,0.023,12.287,8.769c0.707,5.679-6.66,12.185-9.84,12.478
		c4.292-0.829,8.314,1.263,8.324,8.343c0.005,3.883-1.525,8.621-7.225,12.477"/>
	<path style="fill:#C7C7C7;stroke:#055587;stroke-width:0.657;stroke-linecap:round;stroke-linejoin:round;" d="M259.292,61.442
		c1.654,6.777-0.979,7.562-5.472,11.308c6.394,0.32,9.644,3.151,11.663,11.108c1.028,4.051-3.3,13.774-7.741,13.729
		c6.44,0,10.285-1.096,11.375,7.65c0.707,5.678-6.195,12.003-9.375,12.296c5.412,1.479,10.939-1.379,10.965,7.22
		c0.02,6.521-10.718,13.661-10.718,13.661c7.27,0,8.075-0.18,10.009,7.158"/>
	<path style="fill:#C7C7C7;stroke:#055587;stroke-width:0.657;stroke-linecap:round;stroke-linejoin:round;" d="M242.237,61.686
		c3.762-0.387,8.622,1.207,10.719,4.414c4.482,6.854,0.423,17.157-4.069,20.902c6.394,0.32,11.349,5.771,11.718,10.975
		c0.296,4.17-5.057,12.524-9.498,12.48c7.69,0,10.24,0.163,11.33,8.908c0.707,5.679-5.462,10.612-8.643,10.905
		c5.412,1.478,8.167,2.699,7.668,11.284c-0.226,3.876-2.431,7.225-7.417,7.905"/>
	<path style="fill:#C7C7C7;stroke:#055587;stroke-width:0.657;stroke-linecap:round;stroke-linejoin:round;" d="M243.465,62.005
		c1.654,6.777-2.121,10.412-6.613,14.157c6.394,0.32,15.424,3.93,13.242,12.25c-1.061,4.043-7.917,10.372-12.358,10.327
		c7.941-2.123,13.581,1.217,14.67,9.963c0.707,5.678-1.263,11.821-13.257,12.449c12.998-0.628,16.167,2.819,16.193,11.418
		c0.02,6.521-15.856,7.116-15.856,7.116c7.285,0,12.625,2.434,14.56,9.774"/>
	<path style="fill:#C7C7C7;stroke:#055587;stroke-width:0.657;stroke-linecap:round;stroke-linejoin:round;" d="M226.519,63.567
		c3.762-0.387,10.683,4.287,12.78,7.494c4.482,6.854-1.176,12.979-5.668,16.725c6.394,0.32,13.837,4.393,11.655,12.714
		c-1.061,4.043-4.075,9.245-8.516,9.201c7.941-2.124,9.974,3.804,11.063,12.549c0.707,5.679-5.354,10.027-8.534,10.32
		c5.412,1.478,7.307,0.809,6.808,9.394c-0.226,3.876-3.435,9.303-8.421,9.983"/>
	<path style="fill:#C7C7C7;stroke:#055587;stroke-width:0.657;stroke-linecap:round;stroke-linejoin:round;" d="M226.519,63.567
		c1.654,6.777-1.097,9.563-5.589,13.309c6.394,0.32,15.424,3.93,13.242,12.25c-1.061,4.043-7.917,10.372-12.358,10.327
		c7.941-2.123,13.581,1.217,14.67,9.963c0.707,5.678-10.077,12.156-13.257,12.449c5.412,1.479,15.347,2.861,16.193,11.418
		c0.834,8.434-12.9,10.471-12.9,10.471c9.119-3.45,9.231,0.852,11.167,8.192"/>
	<path style="fill:#C7C7C7;stroke:#055587;stroke-width:0.657;stroke-linecap:round;stroke-linejoin:round;" d="M212.935,70.979
		c3.762-0.387,8.622,1.207,10.719,4.414c4.482,6.854-1.054,10.587-5.546,14.333c6.394,0.32,15.424,3.93,13.242,12.251
		c-1.061,4.043-7.327,12.486-11.768,12.441c7.941-2.123,13.226,0.562,14.315,9.309c0.707,5.678-8.525,12.471-11.706,12.764
		c5.412,1.479,10.479-1.635,9.979,6.949c-0.226,3.877-3.891,10.063-8.877,10.743"/>
	<path style="fill:#C7C7C7;stroke:#055587;stroke-width:0.657;stroke-linecap:round;stroke-linejoin:round;" d="M211.939,66.175
		c1.654,6.777-0.752,11.957-5.245,15.703c6.394,0.32,15.424,3.93,13.242,12.25c-1.061,4.043-7.917,10.372-12.358,10.327
		c7.941-2.123,13.581,1.217,14.67,9.963c0.707,5.678-1.263,11.821-13.257,12.449c12.998-0.628,16.167,2.819,16.193,11.418
		c0.02,6.521-15.856,7.116-15.856,7.116c7.285,0,12.029,1.44,13.964,8.781"/>
	<path style="fill:#C7C7C7;stroke:#055587;stroke-width:0.657;stroke-linecap:round;stroke-linejoin:round;" d="M197.985,69.69
		c3.762-0.387,9.059,3.879,11.156,7.086c4.482,6.854-1.176,12.979-5.668,16.725c6.394,0.32,13.837,4.393,11.655,12.714
		c-1.061,4.043-4.075,9.245-8.516,9.201c7.941-2.124,9.974,3.804,11.063,12.549c0.707,5.679-5.354,10.027-8.534,10.32
		c5.412,1.478,7.307,0.809,6.808,9.394c-0.226,3.876-4.269,6.728-9.254,7.408"/>
	<path style="fill:#C7C7C7;stroke:#055587;stroke-width:0.657;stroke-linecap:round;stroke-linejoin:round;" d="M199.013,69.395
		c1.654,6.777-2.061,8.737-6.553,12.483c6.394,0.32,15.424,3.93,13.242,12.25c-1.061,4.043-7.917,10.372-12.358,10.327
		c7.941-2.123,13.581,1.217,14.67,9.963c0.707,5.678-10.077,12.156-13.257,12.449c5.412,1.479,16.167,2.819,16.193,11.418
		c0.02,6.521-15.856,7.116-15.856,7.116c7.285,0,12.316,2.414,14.251,9.755"/>
	<path style="fill:#C7C7C7;stroke:#055587;stroke-width:0.657;stroke-linecap:round;stroke-linejoin:round;" d="M182.48,75.218
		c3.762-0.387,8.622,1.207,10.719,4.414c4.482,6.854-1.054,10.587-5.546,14.333c6.394,0.32,15.424,3.93,13.242,12.25
		c-1.061,4.043-7.917,10.371-12.358,10.327c7.941-2.124,13.816,2.678,14.905,11.423c0.707,5.679-10.312,10.696-13.492,10.989
		c5.412,1.478,12.265,0.14,11.766,8.725c-0.226,3.876-5.428,5.315-10.414,5.996"/>
</g>
</svg>
