<?xml version="1.0" encoding="iso-8859-1"?>
<!-- Generator: Adobe Illustrator 13.0.0, SVG Export Plug-In . SVG Version: 6.00 Build 14948)  -->
<!DOCTYPE svg PUBLIC "-//W3C//DTD SVG 1.1//EN" "http://www.w3.org/Graphics/SVG/1.1/DTD/svg11.dtd">
<svg version="1.1" xmlns="http://www.w3.org/2000/svg" xmlns:xlink="http://www.w3.org/1999/xlink" x="0px" y="0px" width="378px"
	 height="140px" viewBox="0 0 378 140" style="enable-background:new 0 0 378 140;" xml:space="preserve">
<g id="Layer_2">
	<g>
		<rect style="fill:none;" width="378" height="140"/>
		<rect style="fill:#FFFFFF;" width="378" height="140"/>
	</g>
</g>
<g id="Layer_3">
	<g>
		
			<ellipse style="fill:none;stroke:#FF00FF;stroke-width:10;stroke-linecap:round;stroke-linejoin:round;" cx="285.575" cy="70" rx="42.667" ry="62.5"/>
		
			<ellipse style="fill:none;stroke:#FF00FF;stroke-width:10;stroke-linecap:round;stroke-linejoin:round;" cx="185.008" cy="70.001" rx="42.667" ry="62.499"/>
		<path style="fill:none;stroke:#FF00FF;stroke-width:10;stroke-linecap:round;stroke-linejoin:round;" d="M94.836,57.594
			c-2.189,6.378-15.602,2.736-19.188-0.611c-10.27-9.588-2.256-27.641,4.359-36.641c7.913-10.765,21.022-21.274,26.114-2.555
			c6.372,23.422-7.166,55.558-18.869,75.327c-5.135,8.675-18.87,28.125-31.55,25.87c-3.994-0.711-5.018-1.349-5.772-5.267
			c-1.863-9.678,11.852-10.027,16.605-9.872c6.991,1.399,13.981,2.798,20.972,4.197c8.087,1.095,22.62,23.554,31.505,24.395
			c7.417,0.701,18.681-4.617,19.208-12.969"/>
	</g>
</g>
</svg>
