<?xml version="1.0" encoding="iso-8859-1"?>
<!-- Generator: Adobe Illustrator 13.0.0, SVG Export Plug-In . SVG Version: 6.00 Build 14948)  -->
<!DOCTYPE svg PUBLIC "-//W3C//DTD SVG 1.1//EN" "http://www.w3.org/Graphics/SVG/1.1/DTD/svg11.dtd">
<svg version="1.1" xmlns="http://www.w3.org/2000/svg" xmlns:xlink="http://www.w3.org/1999/xlink" x="0px" y="0px" width="378px"
	 height="140px" viewBox="0 0 378 140" style="enable-background:new 0 0 378 140;" xml:space="preserve">
<g id="Layer_2">
	<g>
		<rect style="fill:none;" width="378" height="140"/>
		<rect style="fill:#FFFFFF;" width="378" height="140"/>
	</g>
</g>
<g id="Layer_4">
	<path style="fill:#FFFFFF;stroke:#777768;stroke-width:1.1991;stroke-linecap:round;stroke-linejoin:round;" d="M166.578,64.003
		c0,0.789-0.636,1.431-1.426,1.431c-0.783,0-1.428-0.642-1.428-1.431c0-0.786,0.646-1.425,1.428-1.425
		C165.942,62.578,166.578,63.217,166.578,64.003z"/>
	<path style="fill:#FFFFFF;stroke:#777768;stroke-width:1.799;stroke-linecap:round;stroke-linejoin:round;" d="M171.804,20.798
		c0,4.421-2.74,8.003-6.11,8.003c-3.373,0-6.116-3.583-6.116-8.003c0-4.419,2.743-8.003,6.116-8.003
		C169.064,12.795,171.804,16.379,171.804,20.798z"/>
	<path style="fill:none;stroke:#777768;stroke-width:1.799;stroke-linecap:round;stroke-linejoin:round;" d="M165.844,29.12
		c-0.029,5.585,0.75,22.104-0.318,27.467c-0.957,4.789-1.383,3.336-0.427,10.042c1.198,8.401-1.499,16.596-1.786,20.846
		c-1.487,22.039-1.622,21.486,3.489,20.846"/>
	<path style="fill:none;stroke:#777768;stroke-width:1.1991;stroke-linecap:round;stroke-linejoin:round;" d="M166.176,34.125
		c1.989,1.77,4.219,3.142,6.246,4.946c2.991,2.665,5.8,5.9,9.284,7.916c2.038,1.179,6.784,4.383,9.206,4.215
		c1.545-0.107,4.776-3.041,5.364-3.01c0.892,0.53-1.599,2.104-0.451,1.75c0.537-0.166,3.778-0.036,3.778,0.449
		c0.127,0.344-0.393,0.684-0.393,0.684s1.072,0.191,1.072,0.662c0,0.44-0.74,0.289-0.74,0.289s0.703,0.449,0.703,0.797
		c0,0.1-0.928,0.086-0.928,0.086s0.449,0.266,0.1,0.616c-1.77-0.065-7.729-2.001-8.855-2.323"/>
</g>
<g id="Layer_3">
	<polyline style="fill:#FFFFFF;stroke:#777768;stroke-width:0.6389;stroke-linecap:round;stroke-linejoin:round;" points="
		202.371,8.281 180.734,8.281 180.734,102.758 216.452,113.466 	"/>
	<g>
		
			<line style="fill:none;stroke:#777768;stroke-width:0.6389;stroke-linecap:round;stroke-linejoin:round;" x1="216.452" y1="113.466" x2="345.719" y2="113.466"/>
		<polyline style="fill:#FFFFFF;stroke:#777768;stroke-width:0.6389;stroke-linecap:round;stroke-linejoin:round;" points="
			163.452,8.281 163.452,113.466 163.452,113.466 32.283,113.466 		"/>
		<polyline style="fill:none;stroke:#777768;stroke-width:0.6389;stroke-linecap:round;stroke-linejoin:round;" points="
			216.452,113.466 216.452,8.281 163.452,8.281 		"/>
		<polyline style="fill:none;stroke:#777768;stroke-width:0.6389;stroke-linecap:round;stroke-linejoin:round;" points="
			182.462,56.096 180.734,56.586 184.638,58.295 		"/>
	</g>
</g>
<g id="Layer_5">
	<path style="fill:none;stroke:#777768;stroke-width:1.199;stroke-linecap:round;stroke-linejoin:round;" d="M196.305,40.224
		c0.011,1.779-0.052,4.518-0.12,7.682"/>
	<path style="fill:#FFFFFF;stroke:#777768;stroke-width:1.199;stroke-linecap:round;stroke-linejoin:round;" d="M188.578,29.733
		c0,5.591,3.457,10.12,7.727,10.12c4.266,0,7.729-4.529,7.729-10.12c0-5.585-3.463-10.115-7.729-10.115
		C192.035,19.619,188.578,24.148,188.578,29.733z"/>
	<path style="fill:none;stroke:#777768;stroke-width:1.199;stroke-linecap:round;stroke-linejoin:round;" d="M196.073,53.585
		c-0.115,7.135-0.102,14.776,0.604,18.28c1.097,5.517,3.31,3.312,2.204,11.038c-1.383,9.68-5.152,17.661-4.045,22.441
		c6.022,26.114,6.251,26.861,0.369,26.124"/>
	<path style="fill:#FFFFFF;stroke:#777768;stroke-width:1.1991;stroke-linecap:round;stroke-linejoin:round;" d="M191.692,50.718
		c0,1.726,1.396,3.127,3.126,3.127c1.729,0,3.133-1.401,3.133-3.127c0-1.727-1.404-3.128-3.133-3.128
		C193.089,47.59,191.692,48.992,191.692,50.718z"/>
	<g>
		
			<line style="fill:none;stroke:#CCCCCC;stroke-width:0.5;stroke-linecap:round;stroke-linejoin:round;" x1="124.441" y1="39.082" x2="127.408" y2="39.082"/>
		
			<line style="fill:none;stroke:#CCCCCC;stroke-width:0.5;stroke-linecap:round;stroke-linejoin:round;" x1="80.812" y1="39.082" x2="84.512" y2="39.082"/>
		
			<polyline id="grande_ville" style="fill:none;stroke:#CCCCCC;stroke-width:0.5;stroke-linecap:round;stroke-linejoin:round;" points="
			84.511,38.97 84.483,26.179 86.733,26.179 86.733,15.836 89.401,15.836 89.401,30.167 90.521,30.167 90.521,11.086 94.181,11.086 
			94.181,33.033 95.41,33.033 95.41,16.396 98.646,16.396 98.646,25.896 99.675,25.896 99.675,21.77 102.428,21.77 102.428,30.541 
			104.49,30.541 104.49,18.965 107,18.965 107,24.017 108.095,24.017 108.095,15.651 111.636,15.651 111.636,29.917 112.619,29.917 
			112.619,10.281 116.304,10.281 116.304,25.361 117.839,25.361 117.839,13.743 121.645,13.743 121.645,31.455 124.441,31.455 
			124.441,39.009 		"/>
		
			<line style="fill:none;stroke:#CCCCCC;stroke-width:0.5;stroke-linecap:round;stroke-linejoin:round;" x1="80.812" y1="39.082" x2="71.065" y2="39.082"/>
		<g id="arbres_2_">
			<path style="fill:none;stroke:#65B724;stroke-width:0.2333;stroke-linecap:round;stroke-linejoin:round;" d="M49.464,39.083
				c-1.604,0-1.699-0.898-1.699-1.712c0-0.477,1.059-0.725,1.201-1.185c0.175-0.564,0.072-1.409-0.21-2.291
				c-0.342-1.068-0.955-1.873-1.177-3.049c-0.12,0.771-0.723,1.443-1.144,2.126c-0.204,0.331-0.204,1.435-0.292,1.697
				c-0.206,0.612-0.534,0.749-0.212,1.427c0.134,0.283,0.859,0.941,0.9,0.902c0.34,0.266,0.18,1.178,0.119,1.505
				c-0.067,0.364-0.517,0.579-1.163,0.579"/>
			<path style="fill:none;stroke:#65B724;stroke-width:0.2333;stroke-linecap:round;stroke-linejoin:round;" d="M54.771,38.943
				c-1.396,0.043-1.2-0.855-1.2-1.669c0-0.477,1.059-0.725,1.202-1.185c0.175-0.564,0.072-1.409-0.21-2.291
				c-0.341-1.068-0.955-1.873-1.177-3.049c-0.12,0.771-0.723,1.443-1.144,2.127c-0.204,0.33-0.203,1.434-0.292,1.696
				c-0.206,0.612-0.534,0.75-0.212,1.427c0.134,0.283,0.859,0.941,0.9,0.903c0.34,0.265,0.18,1.177,0.119,1.505
				c-0.068,0.363-0.517,0.424-1.163,0.424"/>
			<path style="fill:none;stroke:#65B724;stroke-width:0.2333;stroke-linecap:round;stroke-linejoin:round;" d="M70.337,38.814
				c-1.396,0.043-1.2-0.855-1.2-1.669c0-0.478,1.059-0.726,1.202-1.185c0.175-0.564,0.072-1.41-0.21-2.291
				c-0.341-1.068-0.955-1.873-1.177-3.049c-0.119,0.771-0.723,1.442-1.144,2.126c-0.205,0.331-0.204,1.434-0.292,1.696
				c-0.206,0.613-0.534,0.75-0.212,1.428c0.134,0.283,0.86,0.94,0.9,0.902c0.34,0.266,0.18,1.178,0.119,1.504
				c-0.068,0.364-0.751,0.534-1.397,0.534"/>
			<path style="fill:none;stroke:#65B724;stroke-width:0.2333;stroke-linecap:round;stroke-linejoin:round;" d="M74.042,39.001
				c-1.396,0.043-1.2-0.855-1.2-1.669c0-0.478,1.059-0.726,1.202-1.185c0.063-0.203,0.236-0.896-0.21-2.291
				c-0.342-1.068-0.955-1.873-1.177-3.049c-0.12,0.771-0.723,1.443-1.144,2.126c-0.204,0.331-0.204,1.435-0.292,1.696
				c-0.206,0.613-0.534,0.75-0.212,1.428c0.134,0.283,0.859,0.941,0.9,0.902c0.34,0.266,0.18,1.178,0.119,1.505
				c-0.067,0.363-0.637,0.476-1.283,0.476"/>
		</g>
		<polyline style="fill:#FFFFFF;stroke:#777768;stroke-width:0.5;stroke-linecap:round;stroke-linejoin:round;" points="
			49.644,39.082 49.644,35.838 51.199,34.283 52.783,35.866 52.783,39.082 55.088,39.082 55.088,35.949 56.588,34.477 
			59.505,34.477 61.005,35.977 61.005,39.082 63.394,39.082 63.394,35.644 65.45,33.977 67.506,35.699 67.506,39.082 68.596,39.082 
			68.596,37.095 69.721,35.761 71.023,37.095 71.023,39.082 		"/>
		<g>
			
				<line style="fill:none;stroke:#D5312C;stroke-width:1.5;stroke-linecap:round;stroke-linejoin:round;" x1="57.994" y1="35.972" x2="48.272" y2="21.706"/>
			
				<line style="fill:none;stroke:#D5312C;stroke-width:1.5;stroke-linecap:round;stroke-linejoin:round;" x1="50.452" y1="33.044" x2="57.994" y2="35.972"/>
			
				<line style="fill:none;stroke:#D5312C;stroke-width:1.5;stroke-linecap:round;stroke-linejoin:round;" x1="58.08" y1="27.847" x2="58.047" y2="35.935"/>
		</g>
	</g>
</g>
</svg>
