<?xml version="1.0" encoding="iso-8859-1"?>
<!-- Generator: Adobe Illustrator 13.0.0, SVG Export Plug-In . SVG Version: 6.00 Build 14948)  -->
<!DOCTYPE svg PUBLIC "-//W3C//DTD SVG 1.1//EN" "http://www.w3.org/Graphics/SVG/1.1/DTD/svg11.dtd">
<svg version="1.1" xmlns="http://www.w3.org/2000/svg" xmlns:xlink="http://www.w3.org/1999/xlink" x="0px" y="0px" width="378px"
	 height="140px" viewBox="0 0 378 140" style="enable-background:new 0 0 378 140;" xml:space="preserve">
<pattern  x="-81" y="170" width="538" height="200" patternUnits="userSpaceOnUse" id="New_Pattern_Swatch_3" viewBox="0 -200 538 200" style="overflow:visible;">
	<g>
		<polygon style="fill:none;" points="0,0 538,0 538,-200 0,-200 		"/>
		<polygon style="fill:#FFFFFF;" points="0,0 538,0 538,-200 0,-200 		"/>
	</g>
</pattern>
<g id="fond">
	<rect style="fill:#FFFFFF;" width="378" height="140"/>
</g>
<g id="comptoir">
	<g>
		<rect x="23.833" y="52.292" style="fill:none;" width="330.512" height="81.697"/>
		<polyline style="fill:none;stroke:#3399FF;stroke-linecap:round;stroke-linejoin:round;" points="24.333,126.875 172,126.875 
			172,60.458 157.333,60.458 157.333,52.792 183.818,52.792 178.329,133.489 353.846,133.489 		"/>
	</g>
</g>
<g id="client">
	<g id="valises">
		<g>
			<path style="fill:#CDCBCB;" d="M239.87,130.913c0,1.095-0.892,1.982-1.991,1.982h-34.302c-1.101,0-1.993-0.888-1.993-1.982
				v-25.058c0-1.096,0.893-1.983,1.993-1.983h34.302c1.1,0,1.991,0.888,1.991,1.983V130.913z"/>
			<path style="fill:none;stroke:#CCCCCC;stroke-width:0.9638;" d="M225.988,105.171c0,0.878-0.712,1.587-1.592,1.587h-6.647
				c-0.883,0-1.594-0.709-1.594-1.587v-5.22c0-0.876,0.711-1.585,1.594-1.585h6.647c0.88,0,1.592,0.709,1.592,1.585V105.171z"/>
			<path style="fill:#4271AA;" d="M218.094,106.401l-1.568-1.665h-0.812l-1.709,1.665v4.445c0,0.691,0.441,1.251,0.985,1.251h2.116
				c0.548,0,0.987-0.56,0.987-1.251V106.401z"/>
		</g>
		<g>
			<path style="fill:#9C9C9C;" d="M252.231,131.645c0,0.69-0.562,1.251-1.259,1.251h-21.65c-0.695,0-1.258-0.561-1.258-1.251V115.83
				c0-0.693,0.562-1.254,1.258-1.254h21.65c0.696,0,1.259,0.561,1.259,1.254V131.645z"/>
			<path style="fill:none;stroke:#9C9C9C;stroke-width:0.6083;" d="M243.47,115.397c0,0.552-0.45,1-1.006,1h-4.196
				c-0.556,0-1.006-0.448-1.006-1v-3.295c0-0.552,0.45-1,1.006-1h4.196c0.556,0,1.006,0.448,1.006,1V115.397z"/>
			<path style="fill:#4271AA;" d="M239.024,117.153l-1.569-1.666h-0.81l-1.712,1.666v4.445c0,0.691,0.443,1.251,0.985,1.251h2.117
				c0.547,0,0.988-0.56,0.988-1.251V117.153z"/>
		</g>
	</g>
	<g>
		<path style="fill:none;stroke:#777768;stroke-width:1.1995;stroke-linecap:round;stroke-linejoin:round;" d="M224.704,73.147
			c0,1.059,0.864,1.915,1.918,1.915c1.053,0,1.914-0.856,1.914-1.915s-0.861-1.911-1.914-1.911
			C225.568,71.236,224.704,72.089,224.704,73.147z"/>
		<path style="fill:#FFFFFF;stroke:#787768;stroke-width:1.1995;stroke-linecap:round;stroke-linejoin:round;" d="M217.704,15.2
			c0,5.929,3.668,10.734,8.197,10.734c4.521,0,8.193-4.805,8.193-10.734c0-5.927-3.673-10.732-8.193-10.732
			C221.372,4.468,217.704,9.273,217.704,15.2z"/>
		<path style="fill:none;stroke:#787768;stroke-width:1.1995;stroke-linecap:round;stroke-linejoin:round;" d="M225.695,26.361
			c0.035,7.493-1.012,29.645,0.425,36.837c1.287,6.422,1.858,4.477,0.571,13.469c-1.606,11.266,2.01,22.258,2.401,27.961
			c1.992,29.556,2.173,28.813-4.687,27.957"/>
	</g>
</g>
<g id="hotesse">
	<path style="fill:none;stroke:#777768;stroke-width:1.7991;stroke-linecap:round;stroke-linejoin:round;" d="M146.571,26.875
		c-0.011,1.939,0.057,4.926,0.131,8.376"/>
	
		<ellipse style="fill:url(#New_Pattern_Swatch_3);stroke:#777768;stroke-width:1.7991;stroke-linecap:round;stroke-linejoin:round;" cx="146.57" cy="15.438" rx="8.425" ry="11.033"/>
	<path style="fill:none;stroke:#777768;stroke-width:1.7991;stroke-linecap:round;stroke-linejoin:round;" d="M146.823,41.443
		c0.126,7.778,0.111,16.11-0.658,19.93c-1.197,6.016-3.608,3.611-2.403,12.035c1.507,10.555,5.617,19.256,4.411,24.469
		c-6.567,28.473-6.817,29.287-0.403,28.484"/>
	<path style="fill:#FFFFFF;stroke:#787768;stroke-width:1.1995;stroke-linecap:round;stroke-linejoin:round;" d="M151.599,38.317
		c0,1.882-1.521,3.409-3.406,3.409s-3.416-1.527-3.416-3.409c0-1.883,1.531-3.411,3.416-3.411S151.599,36.434,151.599,38.317z"/>
</g>
<g id="lits">
	<g>
		
			<rect x="165.833" y="6.333" style="fill:none;stroke:#787768;stroke-width:0.25;stroke-linecap:round;stroke-linejoin:round;" width="18.5" height="34.667"/>
		<path style="fill:none;stroke:#787768;stroke-width:0.25;stroke-linecap:round;stroke-linejoin:round;" d="M181.083,14.613
			c0,0.552-0.448,1-1,1h-10c-0.552,0-1-0.448-1-1V8.48c0-0.552,0.448-1,1-1h10c0.552,0,1,0.448,1,1V14.613z"/>
		<polygon style="fill:#FFFFFF;stroke:#787768;stroke-width:0.25;stroke-linecap:round;stroke-linejoin:round;" points="
			184.333,22.083 184.333,41 165.833,41 165.833,15.125 176.083,15.125 		"/>
		<polyline style="fill:none;stroke:#787768;stroke-width:0.25;stroke-linecap:round;stroke-linejoin:round;" points="
			176.083,15.125 176.083,22.083 184.333,22.083 		"/>
	</g>
	<g>
		
			<rect x="189.1" y="6.333" style="fill:none;stroke:#787768;stroke-width:0.25;stroke-linecap:round;stroke-linejoin:round;" width="18.5" height="34.667"/>
		<path style="fill:none;stroke:#787768;stroke-width:0.25;stroke-linecap:round;stroke-linejoin:round;" d="M204.35,14.613
			c0,0.552-0.447,1-1,1h-10c-0.552,0-1-0.448-1-1V8.48c0-0.552,0.448-1,1-1h10c0.553,0,1,0.448,1,1V14.613z"/>
		<polygon style="fill:#FFFFFF;stroke:#787768;stroke-width:0.25;stroke-linecap:round;stroke-linejoin:round;" points="
			207.6,22.083 207.6,41 189.1,41 189.1,15.125 199.35,15.125 		"/>
		<polyline style="fill:none;stroke:#787768;stroke-width:0.25;stroke-linecap:round;stroke-linejoin:round;" points="
			199.35,15.125 199.35,22.083 207.6,22.083 		"/>
	</g>
</g>
</svg>
