<?xml version="1.0" encoding="iso-8859-1"?>
<!-- Generator: Adobe Illustrator 13.0.0, SVG Export Plug-In . SVG Version: 6.00 Build 14948)  -->
<!DOCTYPE svg PUBLIC "-//W3C//DTD SVG 1.1//EN" "http://www.w3.org/Graphics/SVG/1.1/DTD/svg11.dtd">
<svg version="1.1" xmlns="http://www.w3.org/2000/svg" xmlns:xlink="http://www.w3.org/1999/xlink" x="0px" y="0px" width="378px"
	 height="140px" viewBox="0 0 378 140" style="enable-background:new 0 0 378 140;" xml:space="preserve">
<g id="Layer_2">
	<g>
		<rect style="fill:none;" width="378" height="140"/>
		<rect style="fill:#FFFFFF;" width="378" height="140"/>
	</g>
</g>
<g id="Layer_3">
	<g>
		<g>
			<g>
				<path style="fill:none;stroke:#777768;stroke-width:1.2611;stroke-linecap:round;stroke-linejoin:round;" d="M214.231,74.712
					c0,1.113,0.909,2.013,2.017,2.013s2.013-0.899,2.013-2.013c0-1.112-0.905-2.009-2.013-2.009S214.231,73.6,214.231,74.712z"/>
				<path style="fill:#FFFFFF;stroke:#777768;stroke-width:1.8917;stroke-linecap:round;stroke-linejoin:round;" d="M206.871,13.785
					c0,6.234,3.857,11.286,8.619,11.286c4.754,0,8.615-5.052,8.615-11.286c0-6.232-3.861-11.285-8.615-11.285
					C210.729,2.5,206.871,7.552,206.871,13.785z"/>
				<path style="fill:none;stroke:#777768;stroke-width:1.8917;stroke-linecap:round;stroke-linejoin:round;" d="M215.273,25.519
					c0.038,7.877-1.063,31.169,0.447,38.731c1.353,6.753,1.954,4.707,0.601,14.163c-1.689,11.844,2.113,23.401,2.524,29.398
					c2.095,31.075,2.285,30.296-4.928,29.395"/>
			</g>
			<path style="fill:none;stroke:#777768;stroke-width:1.2611;stroke-linecap:round;stroke-linejoin:round;" d="M215.304,31.644
				c-3.986-0.487-9.271,21.758-16.598,19.583c-2.753-10.213,6.563-17.098,8.525-27.352"/>
		</g>
		<g>
			<g>
				<g>
					<path style="fill:#FFFFFF;stroke:#777768;stroke-width:1.2611;stroke-linecap:round;stroke-linejoin:round;" d="
						M174.683,22.489c0.96,6.308,5.646,10.823,10.46,10.09c4.812-0.733,7.938-6.439,6.978-12.746
						c-0.96-6.303-5.643-10.82-10.455-10.087C176.851,10.479,173.723,16.186,174.683,22.489z"/>
					<path style="fill:none;stroke:#777768;stroke-width:1.2611;stroke-linecap:round;stroke-linejoin:round;" d="M184.939,48.246
						c-0.131,8.145,0.238,16.812,0.685,20.861c0.777,7.073,0.777,3.785-0.48,12.601c-1.583,11.049-3.285,20.033-2.882,25.618
						c2.146,29.807,2.26,30.84-4.461,29.998"/>
					<path style="fill:none;stroke:#777768;stroke-width:1.2611;stroke-linecap:round;stroke-linejoin:round;" d="M185.205,32.991
						c0.009,1.993-0.059,5.045-0.135,8.568"/>
					<path style="fill:none;stroke:#777768;stroke-width:1.2611;stroke-linecap:round;stroke-linejoin:round;" d="M179.941,44.973
						c0,1.969,1.6,3.575,3.57,3.575c1.97,0,3.566-1.606,3.566-3.575c0-1.974-1.597-3.568-3.566-3.568
						C181.541,41.404,179.941,42.999,179.941,44.973z"/>
				</g>
			</g>
			<g>
				<path style="fill:none;stroke:#777768;stroke-width:0.736;stroke-linecap:round;stroke-linejoin:round;" d="M166.904,5.109
					c1.461,2.25,2.615,7.569,2.615,10.848"/>
				<path style="fill:none;stroke:#777768;stroke-width:0.736;stroke-linecap:round;stroke-linejoin:round;" d="M170.552,18.667
					c-0.39-0.043-0.755-0.158-1.099-0.343"/>
			</g>
			<g>
				<path style="fill:none;stroke:#777768;stroke-width:0.736;stroke-linecap:round;stroke-linejoin:round;" d="M157.04,13.341
					c0.697,2.592,3.879,7.006,6.318,9.199"/>
				<path style="fill:none;stroke:#777768;stroke-width:0.736;stroke-linecap:round;stroke-linejoin:round;" d="M164.684,25.119
					c0.227-0.318,0.387-0.667,0.479-1.046"/>
			</g>
			<g>
				<path style="fill:none;stroke:#777768;stroke-width:0.736;stroke-linecap:round;stroke-linejoin:round;" d="M162.808,8.517
					c0.943-3.069-3.314-5.618-4.586-1.887c-1.046,3.076,5.071,5.987,5.527,9.935"/>
				<path style="fill:none;stroke:#777768;stroke-width:0.736;stroke-linecap:round;stroke-linejoin:round;" d="M163.506,18.873
					c0,0,1.045-0.368,1.227,0"/>
			</g>
			<g>
				<path style="fill:none;stroke:#777768;stroke-width:0.736;stroke-linecap:round;stroke-linejoin:round;" d="M153.894,13.476
					c0.696,2.592,3.879,7.006,6.316,9.199"/>
				<path style="fill:none;stroke:#777768;stroke-width:0.736;stroke-linecap:round;stroke-linejoin:round;" d="M161.535,25.253
					c0.229-0.318,0.389-0.667,0.479-1.045"/>
			</g>
			<g>
				<path style="fill:none;stroke:#777768;stroke-width:0.736;stroke-linecap:round;stroke-linejoin:round;" d="M165.04,111.38
					c1.033,1.594,1.852,5.358,1.852,7.68"/>
				<path style="fill:none;stroke:#777768;stroke-width:0.736;stroke-linecap:round;stroke-linejoin:round;" d="M167.622,120.978
					c-0.276-0.03-0.535-0.111-0.778-0.242"/>
			</g>
			<g>
				<path style="fill:none;stroke:#777768;stroke-width:0.736;stroke-linecap:round;stroke-linejoin:round;" d="M158.057,117.208
					c0.493,1.835,2.746,4.96,4.472,6.512"/>
				<path style="fill:none;stroke:#777768;stroke-width:0.736;stroke-linecap:round;stroke-linejoin:round;" d="M163.468,125.547
					c0.16-0.227,0.274-0.473,0.339-0.741"/>
			</g>
			<g>
				<path style="fill:none;stroke:#777768;stroke-width:0.736;stroke-linecap:round;stroke-linejoin:round;" d="M162.139,113.793
					c0.669-2.174-2.346-3.978-3.245-1.337c-0.742,2.179,3.591,4.239,3.912,7.034"/>
				<path style="fill:none;stroke:#777768;stroke-width:0.736;stroke-linecap:round;stroke-linejoin:round;" d="M162.634,121.125
					c0,0,0.74-0.262,0.868,0"/>
			</g>
			<g>
				<path style="fill:none;stroke:#777768;stroke-width:0.736;stroke-linecap:round;stroke-linejoin:round;" d="M155.829,117.304
					c0.492,1.834,2.745,4.959,4.472,6.513"/>
				<path style="fill:none;stroke:#777768;stroke-width:0.736;stroke-linecap:round;stroke-linejoin:round;" d="M161.239,125.642
					c0.161-0.226,0.274-0.472,0.338-0.74"/>
			</g>
			<path style="fill:none;stroke:#777768;stroke-width:1.472;stroke-linecap:round;stroke-linejoin:round;" d="M172.604,125.528
				c-0.751,2.469-2.253,2.175-4.166,1.813"/>
			<path style="fill:none;stroke:#777768;stroke-width:1.2611;stroke-linecap:round;stroke-linejoin:round;" d="M185.624,69.107
				c0.382,3.481,0.577,4.454,0.525,5.594c-0.053,1.176-16.071,14.307-15.363,19.86c2.48,19.481,2.817,27.677,1.818,30.967"/>
		</g>
	</g>
</g>
</svg>
