<?xml version="1.0" encoding="iso-8859-1"?>
<!-- Generator: Adobe Illustrator 13.0.0, SVG Export Plug-In . SVG Version: 6.00 Build 14948)  -->
<!DOCTYPE svg PUBLIC "-//W3C//DTD SVG 1.1//EN" "http://www.w3.org/Graphics/SVG/1.1/DTD/svg11.dtd">
<svg version="1.1" xmlns="http://www.w3.org/2000/svg" xmlns:xlink="http://www.w3.org/1999/xlink" x="0px" y="0px" width="378px"
	 height="140px" viewBox="0 0 378 140" style="enable-background:new 0 0 378 140;" xml:space="preserve">
<g id="Layer_1">
	<rect style="fill:#FFFFFF;" width="378" height="140"/>
	<rect style="fill:#FFFFFF;" width="378" height="140"/>
</g>
<g id="Layer_5">
	<g>
		<g>
			
				<rect x="299.342" y="70.946" style="fill:#CE4E42;stroke:#FFFFFF;stroke-width:0.6412;stroke-linecap:square;" width="3.137" height="45.07"/>
			<g>
				<path style="fill:#CE4E42;" d="M274.336,69.958c0,0.983,0.797,1.781,1.781,1.781h49.58c0.984,0,1.781-0.797,1.781-1.781
					c0-0.982-0.797-1.778-1.781-1.778h-49.58C275.133,68.179,274.336,68.975,274.336,69.958
					C274.336,69.958,274.336,68.975,274.336,69.958z"/>
				<path style="fill:none;stroke:#FFFFFF;stroke-width:0.9618;" d="M274.336,69.958c0,0.983,0.797,1.781,1.781,1.781h49.58
					c0.984,0,1.781-0.797,1.781-1.781c0-0.982-0.797-1.778-1.781-1.778h-49.58C275.133,68.179,274.336,68.975,274.336,69.958
					C274.336,69.958,274.336,68.975,274.336,69.958z"/>
			</g>
		</g>
		<g>
			<rect x="112.402" y="65.476" style="fill:#78B332;stroke:#FFFFFF;stroke-width:0.9618;" width="3.834" height="50.971"/>
			<path style="fill:#78B332;stroke:#FFFFFF;stroke-width:0.9618;" d="M125.485,68.269h-22.338v-5.586c0,0,5.298-2.444,10.883-2.444
				s11.455,2.444,11.455,2.444V68.269z"/>
			<rect x="107.161" y="104.363" style="fill:#78B332;stroke:#FFFFFF;stroke-width:0.6412;" width="14.313" height="1.309"/>
		</g>
		
			<line style="fill:none;stroke:#78B332;stroke-width:2.3989;stroke-linecap:round;" x1="18.699" y1="39.676" x2="93.943" y2="39.676"/>
		
			<line style="fill:none;stroke:#78B332;stroke-width:2.3989;stroke-linecap:square;" x1="93.943" y1="39.676" x2="93.943" y2="56.507"/>
		
			<line style="fill:none;stroke:#78B332;stroke-width:2.3989;stroke-linecap:square;" x1="93.943" y1="56.507" x2="86.729" y2="56.507"/>
		
			<line style="fill:none;stroke:#78B332;stroke-width:2.3989;stroke-linecap:square;" x1="86.729" y1="56.507" x2="86.729" y2="115.814"/>
		
			<line style="fill:none;stroke:#78B332;stroke-width:2.3989;stroke-linecap:round;" x1="86.729" y1="115.814" x2="358.701" y2="115.814"/>
		<g>
			<g>
				
					<line style="fill:none;stroke:#78B332;stroke-width:2.9986;stroke-linecap:round;stroke-linejoin:round;" x1="258.725" y1="60.229" x2="258.725" y2="87.248"/>
				
					<line style="fill:none;stroke:#78B332;stroke-width:2.9986;stroke-linecap:round;stroke-linejoin:round;" x1="258.725" y1="87.248" x2="285.742" y2="87.248"/>
				
					<line style="fill:none;stroke:#78B332;stroke-width:2.9986;stroke-linecap:round;stroke-linejoin:round;" x1="285.742" y1="87.248" x2="258.695" y2="114.295"/>
				
					<line style="fill:none;stroke:#78B332;stroke-width:2.9986;stroke-linecap:round;stroke-linejoin:round;" x1="258.695" y1="114.295" x2="274.273" y2="114.295"/>
			</g>
			<g>
				
					<line style="fill:none;stroke:#78B332;stroke-width:2.9986;stroke-linecap:round;stroke-linejoin:round;" x1="349.555" y1="60.229" x2="349.555" y2="87.248"/>
				
					<line style="fill:none;stroke:#78B332;stroke-width:2.9986;stroke-linecap:round;stroke-linejoin:round;" x1="349.555" y1="87.248" x2="322.541" y2="87.248"/>
				
					<line style="fill:none;stroke:#78B332;stroke-width:2.9986;stroke-linecap:round;stroke-linejoin:round;" x1="322.541" y1="87.248" x2="349.582" y2="114.295"/>
				
					<line style="fill:none;stroke:#78B332;stroke-width:2.9986;stroke-linecap:round;stroke-linejoin:round;" x1="349.582" y1="114.295" x2="334.006" y2="114.295"/>
			</g>
		</g>
	</g>
</g>
<g id="Layer_3">
	<path style="fill:none;stroke:#919289;stroke-width:1.1921;stroke-linecap:round;stroke-linejoin:round;" d="M165.67,24.517
		c0,6.008-3.715,10.875-8.304,10.875c-4.583,0-8.305-4.867-8.305-10.875c0-6.004,3.721-10.872,8.305-10.872
		C161.955,13.646,165.67,18.513,165.67,24.517z"/>
	<path style="fill:none;stroke:#919289;stroke-width:1.1921;stroke-linecap:round;stroke-linejoin:round;" d="M157.616,50.151
		c0.124,7.667,0.109,15.88-0.649,19.646c-1.181,5.93-3.557,3.561-2.369,11.864c1.485,10.404,5.537,18.98,4.348,24.119
		c-6.474,28.064-6.721,28.867-0.398,28.078"/>
	<path style="fill:none;stroke:#919289;stroke-width:1.1921;stroke-linecap:round;stroke-linejoin:round;" d="M157.366,35.791
		c-0.01,1.912,0.056,4.855,0.129,8.256"/>
	<path style="fill:#FFFFFF;stroke:#919289;stroke-width:0.9432;stroke-linecap:round;stroke-linejoin:round;" d="M162.322,47.07
		c0,1.854-1.5,3.36-3.358,3.36s-3.367-1.506-3.367-3.36c0-1.857,1.509-3.362,3.367-3.362S162.322,45.213,162.322,47.07z"/>
	<path style="fill:none;stroke:#919289;stroke-width:1.1921;stroke-linecap:round;stroke-linejoin:round;" d="M205.225,75.152
		c0,1.055,0.852,1.912,1.91,1.912c1.047,0,1.907-0.857,1.907-1.912s-0.86-1.909-1.907-1.909
		C206.076,73.243,205.225,74.098,205.225,75.152z"/>
	<path style="fill:#FFFFFF;stroke:#919289;stroke-width:1.774;stroke-linecap:round;stroke-linejoin:round;" d="M198.232,17.338
		c0,5.915,3.667,10.709,8.177,10.709c4.512,0,8.181-4.794,8.181-10.709c0-5.914-3.669-10.708-8.181-10.708
		C201.899,6.63,198.232,11.425,198.232,17.338z"/>
	<path style="fill:none;stroke:#919289;stroke-width:1.774;stroke-linecap:round;stroke-linejoin:round;" d="M206.206,28.473
		c0.039,7.475-1.005,29.578,0.426,36.753c1.282,6.409,1.851,4.466,0.572,13.44c-1.604,11.239,2.004,22.207,2.39,27.893
		c1.991,29.489,2.17,28.753-4.67,27.894"/>
	<g>
		
			<circle style="fill-rule:evenodd;clip-rule:evenodd;fill:none;stroke:#BDBDBD;stroke-width:0.5778;" cx="238.193" cy="22.854" r="8.91"/>
		
			<path style="fill-rule:evenodd;clip-rule:evenodd;fill:none;stroke:#BDBDBD;stroke-width:1.1556;stroke-linecap:round;stroke-linejoin:round;" d="
			M235.764,21.324c0.006,1.164-0.163,3.646,0.706,4.877c1.276-0.574,1.364-2.611,1.832-3.812c-0.09,0.881,0.55,2.828,0.999,3.944
			c1.614-0.212,2.354-4.107,2.223-5.549"/>
		
			<path style="fill-rule:evenodd;clip-rule:evenodd;fill:none;stroke:#BDBDBD;stroke-width:1.1556;stroke-linecap:round;stroke-linejoin:round;" d="
			M241.729,21.324c0.006,1.164-0.163,3.646,0.707,4.877c1.275-0.574,1.363-2.611,1.832-3.812c-0.09,0.881,0.549,2.828,0.998,3.944
			c1.614-0.212,2.354-4.107,2.224-5.549"/>
		
			<path style="fill-rule:evenodd;clip-rule:evenodd;fill:none;stroke:#BDBDBD;stroke-width:1.1556;stroke-linecap:round;stroke-linejoin:round;" d="
			M247.747,21.324c0.005,1.164-0.163,3.646,0.706,4.877c1.275-0.574,1.364-2.611,1.832-3.812c-0.09,0.881,0.549,2.828,0.998,3.944
			c1.614-0.212,2.354-4.107,2.224-5.549"/>
	</g>
	<g>
		
			<path style="fill-rule:evenodd;clip-rule:evenodd;fill:none;stroke:#BDBDBD;stroke-width:0.2889;stroke-linecap:round;stroke-linejoin:round;" d="
			M267.641,25.697c0,0.16-0.13,0.289-0.289,0.289h-8.048c-0.159,0-0.288-0.129-0.288-0.289v-5.949c0-0.16,0.129-0.289,0.288-0.289
			h8.048c0.159,0,0.289,0.129,0.289,0.289V25.697z"/>
		
			<line style="fill:none;stroke:#BDBDBD;stroke-width:0.2889;stroke-linecap:round;stroke-linejoin:round;" x1="259.304" y1="19.459" x2="263.382" y2="23.608"/>
		
			<line style="fill:none;stroke:#BDBDBD;stroke-width:0.2889;stroke-linecap:round;stroke-linejoin:round;" x1="267.352" y1="19.459" x2="263.382" y2="23.608"/>
		
			<line style="fill:none;stroke:#BDBDBD;stroke-width:0.2889;stroke-linecap:round;stroke-linejoin:round;" x1="259.128" y1="25.92" x2="262.102" y2="22.611"/>
		
			<line style="fill:none;stroke:#BDBDBD;stroke-width:0.2889;stroke-linecap:round;stroke-linejoin:round;" x1="267.528" y1="25.92" x2="264.485" y2="22.479"/>
	</g>
	
		<path style="fill-rule:evenodd;clip-rule:evenodd;fill:none;stroke:#BDBDBD;stroke-width:1.1556;stroke-linecap:round;stroke-linejoin:round;" d="
		M279.591,20.031c-0.293-0.621-1.562-0.822-2.33-0.269c-0.745,0.536-1.271,2.39-0.719,3.358c0.588,1.032,2.155,0.069,2.443-0.532
		C279.258,22.019,279.591,20.031,279.591,20.031c0.158,0.303-0.225,1.021-0.26,1.338c-0.041,0.384-0.266,1.22-0.015,1.552
		c0.391,0.515,1.305,0.163,1.683-0.079c0.875-0.562,2.06-1.882,1.593-3.5c-1.478-5.113-9.228-1.976-9.447,2.577
		c-0.328,6.784,7.384,5.21,10.005,2.509"/>
	<g>
		<path style="fill:none;stroke:#BDBDBD;stroke-width:0.4876;stroke-linecap:round;stroke-linejoin:round;" d="M299.295,19.975
			c-0.249-1.126,1.374-1.004,1.648-0.132c0.208,0.659-0.979,2.084-1.598,1.071"/>
		
			<ellipse style="fill:#FFFFFF;stroke:#BDBDBD;stroke-width:0.1625;stroke-linecap:round;stroke-linejoin:round;" cx="296.978" cy="24.739" rx="8.334" ry="1.898"/>
		
			<ellipse style="fill:#FFFFFF;stroke:#BDBDBD;stroke-width:0.1625;stroke-linecap:round;stroke-linejoin:round;" cx="296.979" cy="24.739" rx="2.939" ry="0.745"/>
		<path style="fill:#FFFFFF;stroke:#BDBDBD;stroke-width:0.1625;stroke-linecap:round;stroke-linejoin:round;" d="M294.393,18.252
			c0,1.273,0.004,5.208,0.004,6.682c0.219,0.217,3.975,0.689,5.246-0.09c0,0,0,0.043,0,0c0-1.719-0.046-3.955-0.131-6.592"/>
		
			<ellipse style="fill:#FFFFFF;stroke:#BDBDBD;stroke-width:0.1625;stroke-linecap:round;stroke-linejoin:round;" cx="296.952" cy="18.252" rx="2.56" ry="0.397"/>
	</g>
</g>
<g id="Layer_4" style="display:none;">
	<g style="display:inline;">
		
			<circle style="fill:none;stroke:#777768;stroke-width:0.8575;stroke-linecap:round;stroke-linejoin:round;" cx="119.622" cy="29.301" r="19.376"/>
		<path style="fill:none;stroke:#777768;stroke-width:0.8575;stroke-linecap:round;stroke-linejoin:round;" d="M113.571,10.892
			c1.345,0.456,2.48,1.204,3.618,2.119c-1.043,2.103,0,0-0.528,2.728c-0.077,0.398,0.86,1.445,0.447,2.487
			c-1.469,3.707-7.923,1.236-8.725,6.259c-0.587,3.679,2.853,3.375,3.622,6.02c1.004,3.455-2.085,4.616-3.608,7.028
			c-1.264,2.002-0.421,4.063-1.909,6.012c0.546-2.434-2.758-3.439-2.499-6.352c0.246-2.764,0.951-5.356-1.911-7.208
			c0.518-1.485,2.601-2.206,3.392-3.542c0.775-1.31,0.635-3.405,0.683-5.025c0.048-1.636-1.455-0.963-0.783-2.753
			c0.801-2.135-0.522-0.64,0.589-3.101"/>
		<path style="fill:none;stroke:#777768;stroke-width:0.8575;stroke-linecap:round;stroke-linejoin:round;" d="M132.916,15.21
			c-3.113-2.057-4.33-3.415-6.685-2.415c0.038-1.052-1.832-0.112-2.573-0.969c-2.436,0.642-2.951,4.407-0.524,5.361
			c-0.618,0.926-1.34-0.242-2.042,0.717"/>
		<path style="fill:none;stroke:#777768;stroke-width:0.8575;stroke-linecap:round;stroke-linejoin:round;" d="M121.092,17.904
			c-1.669,1.207-0.715-0.45-1.669,1.207c0.408,0.105,1.827,3.193,2.525,3.108c-1.417-0.064-1.996,0.9-4.391,3.295
			c4.896,2.235,4.536-0.8,6.285-0.75c-1.237,0.418,7.117,1.533,7.498,2.826c1.994,0.283-5.16,1.35-7.416,0.319
			c-2.164-0.989-3.681,0.861-5.782,0.532c-1.681,7.383,6.145,4.699,6.538,9.64c-0.853,0.851-0.494,4.925,0.6,6.54
			c1.251,1.849,4.742,0.746,5.577-1.083c0.926-2.026-0.744-3.709-0.5-5.493c0.393-2.867,3.251-2.524,5.324-3.245
			c0.227,1.341,0.248,0.868,1.072,1.362c0.024-0.335,0.077-0.738,0.137-1.083c0.788-0.045,0.706-1.465,1.352-1.665"/>
		<g>
			
				<rect x="115.026" y="8.999" transform="matrix(0.9715 0.237 -0.237 0.9715 5.7288 -27.3138)" style="fill:#1FDAFF;" width="2.874" height="2.342"/>
			
				<line style="fill:none;stroke:#777768;stroke-width:0.3624;stroke-linecap:round;stroke-linejoin:round;" x1="115.345" y1="8.691" x2="114.21" y2="13.344"/>
		</g>
		<g>
			
				<rect x="104.398" y="11.344" transform="matrix(-0.7071 0.7071 -0.7071 -0.7071 189.5205 -53.4722)" style="fill:#90FF7F;" width="2.874" height="2.342"/>
			
				<line style="fill:none;stroke:#777768;stroke-width:0.3624;stroke-linecap:round;stroke-linejoin:round;" x1="106.023" y1="10.671" x2="109.41" y2="14.058"/>
		</g>
		<g>
			
				<rect x="109.131" y="25.082" transform="matrix(0.9615 -0.2749 0.2749 0.9615 -2.957 31.4068)" style="fill:#8D1FFF;" width="2.874" height="2.342"/>
			
				<line style="fill:none;stroke:#777768;stroke-width:0.3624;stroke-linecap:round;stroke-linejoin:round;" x1="108.865" y1="25.522" x2="110.182" y2="30.127"/>
		</g>
		<g>
			
				<rect x="102.007" y="24.583" transform="matrix(-0.9345 0.3561 -0.3561 -0.9345 209.2797 12.988)" style="fill:#FF8900;" width="2.874" height="2.342"/>
			
				<line style="fill:none;stroke:#777768;stroke-width:0.3624;stroke-linecap:round;stroke-linejoin:round;" x1="104.371" y1="24.148" x2="106.076" y2="28.624"/>
		</g>
		<g>
			
				<rect x="108.909" y="33.278" transform="matrix(0.8853 0.465 -0.465 0.8853 28.674 -47.3598)" style="fill:#CDFF1F;" width="2.874" height="2.342"/>
			
				<line style="fill:none;stroke:#777768;stroke-width:0.3624;stroke-linecap:round;stroke-linejoin:round;" x1="109.618" y1="32.744" x2="107.392" y2="36.984"/>
		</g>
		<g>
			
				<rect x="106.373" y="27.952" transform="matrix(0.9647 0.2633 -0.2633 0.9647 11.4724 -27.3592)" style="fill:#00BF77;" width="2.874" height="2.341"/>
			
				<line style="fill:none;stroke:#777768;stroke-width:0.3624;stroke-linecap:round;stroke-linejoin:round;" x1="106.732" y1="27.615" x2="105.471" y2="32.235"/>
		</g>
		<g>
			
				<rect x="122.425" y="16.104" transform="matrix(-0.9285 0.3712 -0.3712 -0.9285 245.2853 -12.6692)" style="fill:#FF0052;" width="2.874" height="2.341"/>
			
				<line style="fill:none;stroke:#777768;stroke-width:0.3624;stroke-linecap:round;stroke-linejoin:round;" x1="124.762" y1="15.654" x2="126.54" y2="20.101"/>
		</g>
		<g>
			
				<rect x="130.312" y="30.249" transform="matrix(-0.9285 0.3712 -0.3712 -0.9285 265.7465 11.683)" style="fill:#FF0052;" width="2.874" height="2.341"/>
			
				<line style="fill:none;stroke:#777768;stroke-width:0.3624;stroke-linecap:round;stroke-linejoin:round;" x1="132.648" y1="29.799" x2="134.426" y2="34.246"/>
		</g>
		<g>
			
				<rect x="103.8" y="17.103" transform="matrix(-0.9441 0.3297 -0.3297 -0.9441 210.6156 0.8346)" style="fill:#3FB6FF;" width="2.874" height="2.342"/>
			
				<line style="fill:none;stroke:#777768;stroke-width:0.3624;stroke-linecap:round;stroke-linejoin:round;" x1="106.208" y1="16.695" x2="107.787" y2="21.216"/>
		</g>
		<g>
			
				<rect x="116.514" y="28.404" transform="matrix(-0.9716 0.2368 -0.2368 -0.9716 239.551 30.3764)" style="fill:#1FDAFF;" width="2.874" height="2.342"/>
			
				<line style="fill:none;stroke:#777768;stroke-width:0.3624;stroke-linecap:round;stroke-linejoin:round;" x1="119.07" y1="28.097" x2="120.205" y2="32.75"/>
		</g>
		<g>
			<rect x="131.667" y="21.075" style="fill:#90FF7F;" width="2.875" height="2.342"/>
			
				<line style="fill:none;stroke:#777768;stroke-width:0.3624;stroke-linecap:round;stroke-linejoin:round;" x1="131.667" y1="21.075" x2="131.667" y2="25.864"/>
		</g>
		<g>
			
				<rect x="118.673" y="20.475" transform="matrix(-0.9614 -0.2751 0.2751 -0.9614 229.6339 75.4943)" style="fill:#8D1FFF;" width="2.874" height="2.342"/>
			
				<line style="fill:none;stroke:#777768;stroke-width:0.3624;stroke-linecap:round;stroke-linejoin:round;" x1="121.814" y1="20.916" x2="120.497" y2="25.521"/>
		</g>
		<g>
			
				<rect x="126.285" y="30.357" transform="matrix(0.9345 0.356 -0.356 0.9345 19.5883 -43.3988)" style="fill:#FF8900;" width="2.874" height="2.342"/>
			
				<line style="fill:none;stroke:#777768;stroke-width:0.3624;stroke-linecap:round;stroke-linejoin:round;" x1="126.796" y1="29.922" x2="125.091" y2="34.398"/>
		</g>
		<g>
			
				<rect x="122.793" y="39.617" transform="matrix(-0.8853 0.465 -0.465 -0.8853 253.1794 19.131)" style="fill:#CDFF1F;" width="2.874" height="2.342"/>
			
				<line style="fill:none;stroke:#777768;stroke-width:0.3624;stroke-linecap:round;stroke-linejoin:round;" x1="124.958" y1="39.083" x2="127.185" y2="43.323"/>
		</g>
		<g>
			
				<rect x="127.733" y="14.271" transform="matrix(-0.9647 0.2632 -0.2632 -0.9647 257.85 -3.6568)" style="fill:#00BF77;" width="2.874" height="2.342"/>
			
				<line style="fill:none;stroke:#777768;stroke-width:0.3624;stroke-linecap:round;stroke-linejoin:round;" x1="130.248" y1="13.934" x2="131.508" y2="18.555"/>
		</g>
		<g>
			
				<rect x="138.418" y="26.95" transform="matrix(0.9441 0.3297 -0.3297 0.9441 17.0879 -44.5319)" style="fill:#3FB6FF;" width="2.874" height="2.342"/>
			
				<line style="fill:none;stroke:#777768;stroke-width:0.3624;stroke-linecap:round;stroke-linejoin:round;" x1="138.885" y1="26.542" x2="137.306" y2="31.063"/>
		</g>
	</g>
</g>
</svg>
