<?xml version="1.0" encoding="iso-8859-1"?>
<!-- Generator: Adobe Illustrator 13.0.0, SVG Export Plug-In . SVG Version: 6.00 Build 14948)  -->
<!DOCTYPE svg PUBLIC "-//W3C//DTD SVG 1.1//EN" "http://www.w3.org/Graphics/SVG/1.1/DTD/svg11.dtd">
<svg version="1.1" xmlns="http://www.w3.org/2000/svg" xmlns:xlink="http://www.w3.org/1999/xlink" x="0px" y="0px" width="378px"
	 height="140px" viewBox="0 0 378 140" style="enable-background:new 0 0 378 140;" xml:space="preserve">
<g id="Layer_2">
	<g>
		<rect style="fill:none;" width="378" height="140"/>
		<rect style="fill:#FFFFFF;" width="378" height="140"/>
	</g>
</g>
<g id="Layer_7">
	<g>
		
			<rect x="177.768" y="29.618" style="fill:#FFFFFF;stroke:#777768;stroke-width:0.8487;stroke-linecap:round;stroke-linejoin:round;" width="19.526" height="13.669"/>
		<g>
			
				<line style="fill:#FFFFFF;stroke:#777768;stroke-width:0.8487;stroke-linecap:round;stroke-linejoin:round;" x1="181.116" y1="33.174" x2="191.297" y2="33.174"/>
			
				<line style="fill:#FFFFFF;stroke:#777768;stroke-width:0.8487;stroke-linecap:round;stroke-linejoin:round;" x1="181.116" y1="36.453" x2="193.947" y2="36.453"/>
			
				<line style="fill:#FFFFFF;stroke:#65B724;stroke-width:0.8487;stroke-linecap:round;stroke-linejoin:round;" x1="181.116" y1="39.73" x2="190.043" y2="39.73"/>
		</g>
	</g>
	<path style="fill:none;stroke:#777768;stroke-width:1.2551;stroke-linecap:round;stroke-linejoin:round;" d="M214.486,32.031
		c-3.355-1.748-12.906,20.915-14.232,21.531c-5.024,2.347-7.157-5.518-7.877-9.196c-1.113-0.388-0.918-2.809-1.454-3.529"/>
	<path style="fill:none;stroke:#777768;stroke-width:1.256;stroke-linecap:round;stroke-linejoin:round;" d="M172.23,20.884
		c0,6.381-3.947,11.548-8.819,11.548c-4.867,0-8.821-5.167-8.821-11.548c0-6.377,3.954-11.547,8.821-11.547
		C168.283,9.337,172.23,14.507,172.23,20.884z"/>
	<path style="fill:none;stroke:#777768;stroke-width:1.256;stroke-linecap:round;stroke-linejoin:round;" d="M163.676,48.106
		c0.132,8.144,0.115,16.866-0.688,20.865c-1.254,6.3-3.78,3.781-2.518,12.6c1.578,11.048,5.881,20.156,4.617,25.614
		c-6.874,29.804-7.136,30.66-0.422,29.817"/>
	<path style="fill:none;stroke:#777768;stroke-width:1.256;stroke-linecap:round;stroke-linejoin:round;" d="M163.411,32.856
		c-0.012,2.029,0.058,5.155,0.139,8.769"/>
	<path style="fill:#FFFFFF;stroke:#777768;stroke-width:1.2557;stroke-linecap:round;stroke-linejoin:round;" d="M168.675,44.836
		c0,1.968-1.593,3.568-3.568,3.568c-1.972,0-3.573-1.601-3.573-3.568c0-1.974,1.602-3.571,3.573-3.571
		C167.082,41.265,168.675,42.862,168.675,44.836z"/>
	<path style="fill:none;stroke:#777768;stroke-width:1.2557;stroke-linecap:round;stroke-linejoin:round;" d="M213.539,74.711
		c0,1.115,0.898,2.017,2.012,2.017c1.104,0,2.012-0.901,2.012-2.017c0-1.107-0.908-2.011-2.012-2.011
		C214.438,72.7,213.539,73.604,213.539,74.711z"/>
	<path style="fill:none;stroke:#777768;stroke-width:1.883;stroke-linecap:round;stroke-linejoin:round;" d="M206.169,13.785
		c0,6.234,3.866,11.285,8.616,11.285c4.756,0,8.624-5.051,8.624-11.285c0-6.232-3.868-11.284-8.624-11.284
		C210.035,2.501,206.169,7.553,206.169,13.785z"/>
	<path style="fill:none;stroke:#777768;stroke-width:1.883;stroke-linecap:round;stroke-linejoin:round;" d="M214.573,25.519
		c0.04,7.878-1.059,31.173,0.448,38.733c1.352,6.753,1.952,4.705,0.603,14.164c-1.689,11.84,2.112,23.401,2.52,29.393
		c2.098,31.078,2.286,30.302-4.922,29.396"/>
</g>
</svg>
