<?xml version="1.0" encoding="iso-8859-1"?>
<!-- Generator: Adobe Illustrator 13.0.0, SVG Export Plug-In . SVG Version: 6.00 Build 14948)  -->
<!DOCTYPE svg PUBLIC "-//W3C//DTD SVG 1.1//EN" "http://www.w3.org/Graphics/SVG/1.1/DTD/svg11.dtd">
<svg version="1.1" xmlns="http://www.w3.org/2000/svg" xmlns:xlink="http://www.w3.org/1999/xlink" x="0px" y="0px" width="378px"
	 height="140px" viewBox="0 0 378 140" style="enable-background:new 0 0 378 140;" xml:space="preserve">
<g id="Layer_2">
	<g>
		<rect style="fill:none;" width="378" height="140"/>
		<rect style="fill:#FFFFFF;" width="378" height="140"/>
	</g>
</g>
<g id="Layer_3">
	<g>
		<path style="fill:none;stroke:#777768;stroke-width:1.5;" d="M155.736,16.134c0,7.526-4.966,13.629-11.093,13.629
			c-6.123,0-11.09-6.103-11.09-13.629c0-7.535,4.967-13.634,11.09-13.634C150.771,2.5,155.736,8.599,155.736,16.134z"/>
		<path style="fill:none;stroke:#777768;stroke-width:1.5;stroke-linecap:round;stroke-linejoin:round;" d="M144.644,29.763
			c0,5.268-0.238,31.238-1.841,47.128c-1.474,14.557-9.257,51.854-15.023,59.596h-5.591"/>
		<path style="fill:none;stroke:#777768;stroke-width:1.5;stroke-linecap:round;stroke-linejoin:round;" d="M142.938,75.479
			c-0.937,9.654,5.42,51.604,8.657,61.008c0,0-0.293,0,5.238,0.293"/>
		<path style="fill:none;stroke:#777768;stroke-width:1.5;stroke-linecap:round;stroke-linejoin:round;" d="M138.73,82.822
			c-4.715-7.947-2.183-36.252,5.879-35.829c5.238,0.265,7.229,27.271,7.486,33.847"/>
		<path style="fill:none;stroke:#777768;stroke-width:1.5;stroke-linecap:round;" d="M140.487,14.51
			c0.553-0.778,0.602-1.126,0.133-1.062c-0.186,0.561-0.079,0.965-0.133,1.526"/>
		<path style="fill:none;stroke:#777768;stroke-width:1.5;stroke-linecap:round;" d="M148.832,14.51
			c-0.549-0.778-0.602-1.126-0.139-1.062c0.188,0.561,0.092,0.965,0.139,1.526"/>
		<path style="fill:none;stroke:#777768;stroke-width:1.5;stroke-linecap:round;" d="M141.412,22.831
			c2.047,1.128,3.348,1.605,5.997,0.458"/>
	</g>
	<g style="opacity:0.65;">
		<g>
			<path style="fill:none;stroke:#777768;" d="M242.679,26.662c0,6.251-4.304,11.331-9.617,11.331c-5.311,0-9.618-5.08-9.618-11.331
				c0-6.257,4.308-11.327,9.618-11.327C238.375,15.335,242.679,20.405,242.679,26.662z"/>
			<path style="fill:none;stroke:#777768;" d="M233.726,38.255c0,7.21,0.201,7.313,0.272,14.471
				c0.043,4.282-11.868,47.015-14.501,51.71c-1.604,2.854-3.937,5.865-4.585,9.131c13.233-0.34,26.674-0.135,40.9-2.123
				c-2.442-3.736-3.19-9.744-5.84-13.439c-4.002-5.621-5.606-10.844-7.655-17.398c-1.034-3.312-7.653-24.63-8.319-27.88"/>
			<path style="fill:none;stroke:#777768;stroke-linecap:round;stroke-linejoin:round;" d="M232.99,113.432
				c0.549,5.029-0.374,21.217-0.776,24.033c0,0-1.833,0-2.845,0"/>
			<path style="fill:none;stroke:#777768;stroke-linecap:round;stroke-linejoin:round;" d="M239.566,113.18
				c0.13,2.678-0.098,24.285,1.178,24.285c0.669,0,0.748,0.078,2.724,0"/>
			<path style="fill:none;stroke:#777768;stroke-linecap:round;stroke-linejoin:round;" d="M224.138,81.791
				c-0.081-4.578,3.158-19.188,4.144-24.316c0.767-4.013,1.673-12.914,5.552-15.315c2.158,2.156,4.361,7.427,6.023,11.459
				c2.575,6.212,7.18,23.591,6.093,26.03"/>
		</g>
		<g>
			<path style="fill:none;stroke:#777768;stroke-width:0.993;stroke-linecap:round;stroke-linejoin:round;" d="M229.895,24.148
				c-0.07,0.187-0.07,0.352,0.031,0.5c0.042-0.124,0.059-0.234,0.047-0.364c-0.005,0.051-0.022,0.148-0.037,0.212
				c0-0.088-0.002-0.177,0-0.259"/>
			<path style="fill:none;stroke:#777768;stroke-width:0.2235;stroke-linecap:round;stroke-linejoin:round;" d="M229.568,24.104
				c-0.112-0.197-0.21-0.412-0.227-0.64"/>
			<path style="fill:none;stroke:#777768;stroke-width:0.2235;stroke-linecap:round;stroke-linejoin:round;" d="M229.667,23.254
				c0.09,0.137,0.09,0.641,0.09,0.805"/>
			<path style="fill:none;stroke:#777768;stroke-width:0.2235;stroke-linecap:round;stroke-linejoin:round;" d="M229.936,24.059
				c-0.01-0.278,0.183-0.478,0.197-0.766"/>
			<path style="fill:none;stroke:#777768;stroke-width:0.2235;stroke-linecap:round;stroke-linejoin:round;" d="M230.074,24.059
				c0.213-0.145,0.414-0.406,0.369-0.65"/>
		</g>
		<g>
			<path style="fill:none;stroke:#777768;stroke-width:0.993;stroke-linecap:round;stroke-linejoin:round;" d="M237.743,24.148
				c0.062,0.187,0.062,0.352-0.043,0.5c-0.03-0.124-0.055-0.234-0.045-0.364c0.015,0.051,0.031,0.148,0.041,0.212
				c0-0.088,0-0.177,0-0.259"/>
			<path style="fill:none;stroke:#777768;stroke-width:0.2235;stroke-linecap:round;stroke-linejoin:round;" d="M238.064,24.104
				c0.109-0.197,0.213-0.384,0.369-0.616"/>
			<path style="fill:none;stroke:#777768;stroke-width:0.2235;stroke-linecap:round;stroke-linejoin:round;" d="M238.162,23.254
				c-0.084,0.137-0.285,0.641-0.285,0.805"/>
			<path style="fill:none;stroke:#777768;stroke-width:0.2235;stroke-linecap:round;stroke-linejoin:round;" d="M237.696,24.059
				c0.004-0.278-0.105-0.593-0.116-0.882"/>
			<path style="fill:none;stroke:#777768;stroke-width:0.2235;stroke-linecap:round;stroke-linejoin:round;" d="M237.557,24.059
				c-0.248-0.262-0.287-0.339-0.441-0.688"/>
		</g>
		<path style="fill:#DE1608;stroke:#DE1608;stroke-width:0.0549;stroke-linecap:round;stroke-linejoin:round;" d="M230.353,31.691
			c0.451,0.201,0.754,0.481,1.322,0.321c0.214-0.049,0.378-0.231,0.586-0.28c0.369-0.098,0.323,0.105,0.597,0.146
			c0.295,0.041,0.238-0.203,0.553-0.192c0.143,0.006,0.421,0.278,0.592,0.325c0.5,0.115,1.299,0.107,1.724-0.133
			c-0.793,0.637-1.423,2.081-2.685,1.765c-0.586-0.152-1.043-0.539-1.459-0.933c-0.242-0.24-0.855-0.635-0.957-0.889"/>
	</g>
</g>
</svg>
