<?xml version="1.0" encoding="iso-8859-1"?>
<!-- Generator: Adobe Illustrator 13.0.0, SVG Export Plug-In . SVG Version: 6.00 Build 14948)  -->
<!DOCTYPE svg PUBLIC "-//W3C//DTD SVG 1.1//EN" "http://www.w3.org/Graphics/SVG/1.1/DTD/svg11.dtd">
<svg version="1.1" xmlns="http://www.w3.org/2000/svg" xmlns:xlink="http://www.w3.org/1999/xlink" x="0px" y="0px" width="378px"
	 height="140px" viewBox="0 0 378 140" style="enable-background:new 0 0 378 140;" xml:space="preserve">
<style type="text/css">
<![CDATA[
]]>
</style>
<g id="Layer_7">
	<g>
		<rect style="fill:#FFFFFF;" width="378" height="140"/>
	</g>
</g>
<g id="scene">
	<g id="building1">
		
			<line style="fill:none;stroke:#D6D4D2;stroke-width:0.7209;stroke-linecap:round;stroke-linejoin:round;" x1="331.659" y1="83.794" x2="331.659" y2="10.19"/>
		
			<line style="fill:none;stroke:#D6D4D2;stroke-width:0.7209;stroke-linecap:round;stroke-linejoin:round;" x1="331.659" y1="10.19" x2="374.334" y2="10.19"/>
		
			<line style="fill:none;stroke:#D6D4D2;stroke-width:0.7542;stroke-linecap:round;stroke-linejoin:round;" x1="147.785" y1="83.751" x2="374.334" y2="83.794"/>
		
			<line style="fill:none;stroke:#D6D4D2;stroke-width:0.7209;stroke-linecap:round;stroke-linejoin:round;" x1="204.485" y1="8.5" x2="264.635" y2="8.5"/>
		
			<line style="fill:none;stroke:#D6D4D2;stroke-width:0.7526;stroke-linecap:round;stroke-linejoin:round;" x1="264.635" y1="8.5" x2="264.635" y2="83.281"/>
		
			<line style="fill:none;stroke:#D6D4D2;stroke-width:0.7209;stroke-linecap:round;stroke-linejoin:round;" x1="204.485" y1="8.5" x2="204.485" y2="83.794"/>
		
			<line style="fill:none;stroke:#D6D4D2;stroke-width:0.6317;stroke-linecap:round;stroke-linejoin:round;" x1="204.485" y1="14.651" x2="147.785" y2="14.651"/>
		
			<line style="fill:none;stroke:#D6D4D2;stroke-width:0.6873;stroke-linecap:round;stroke-linejoin:round;" x1="331.659" y1="18.837" x2="264.535" y2="18.837"/>
		
			<line style="fill:none;stroke:#D6D4D2;stroke-width:0.7209;stroke-linecap:round;stroke-linejoin:round;" x1="147.785" y1="83.794" x2="147.785" y2="14.651"/>
		<polyline style="fill:none;stroke:#D6D4D2;stroke-width:0.7209;stroke-linecap:round;stroke-linejoin:round;" points="
			374.334,91.312 116.667,91.312 147.785,72.032 		"/>
	</g>
	<g id="building2">
		
			<line style="fill:none;stroke:#D6D4D2;stroke-width:0.7209;stroke-linecap:round;stroke-linejoin:round;" x1="47.227" y1="25.549" x2="5.877" y2="25.549"/>
		<path style="fill:none;stroke:#D6D4D2;stroke-width:0.7209;stroke-linecap:round;stroke-linejoin:round;" d="M66.961,39.052"/>
		<path style="fill:none;stroke:#D6D4D2;stroke-width:0.7209;stroke-linecap:round;stroke-linejoin:round;" d="M74.318,39.928"/>
		<path style="display:none;fill:none;stroke:#D6D4D2;stroke-width:0.7209;stroke-linecap:round;stroke-linejoin:round;" d="
			M49.75,36.25"/>
		<path style="fill:none;stroke:#D6D4D2;stroke-width:0.7209;stroke-linecap:round;stroke-linejoin:round;" d="M82.6,72.1"/>
		<polyline style="fill:none;stroke:#D6D4D2;stroke-width:0.7209;stroke-linecap:round;stroke-linejoin:round;" points="
			5.877,91.312 55.562,91.312 147.785,44.689 		"/>
		<polygon style="fill:none;stroke:#D6D4D2;stroke-width:0.7209;stroke-linecap:round;stroke-linejoin:round;" points="
			68.667,72.125 68.667,6.167 115.375,11.334 115.375,51.826 		"/>
		
			<line style="fill:none;stroke:#D6D4D2;stroke-width:0.7209;stroke-linecap:round;stroke-linejoin:round;" x1="46.787" y1="83.754" x2="5.877" y2="83.754"/>
		
			<line style="fill:none;stroke:#D6D4D2;stroke-width:0.7209;stroke-linecap:round;stroke-linejoin:round;" x1="5.877" y1="6.037" x2="68.667" y2="6.167"/>
		<polygon style="fill:#FFFFFF;stroke:#D6D4D2;stroke-width:0.7209;stroke-linecap:round;stroke-linejoin:round;" points="
			47.125,83.754 47.125,25.512 74.273,27.247 74.273,72.183 		"/>
	</g>
	<g id="trottoir_bas">
		
			<line style="fill:none;stroke:#D6D4D2;stroke-width:0.7209;stroke-linecap:round;stroke-linejoin:round;" x1="374.334" y1="125.25" x2="59.651" y2="125.25"/>
		
			<line style="fill:none;stroke:#D6D4D2;stroke-width:0.7209;stroke-linecap:round;stroke-linejoin:round;" x1="59.651" y1="125.25" x2="37.778" y2="138.356"/>
	</g>
	<polyline style="fill:none;stroke:#D6D4D2;stroke-width:0.7209;stroke-linecap:round;stroke-linejoin:round;" points="
		115.375,51.826 119.938,51.826 119.938,16.125 115.375,16.125 	"/>
	
		<line style="fill:none;stroke:#D6D4D2;stroke-width:0.7209;stroke-linecap:round;stroke-linejoin:round;" x1="119.938" y1="16.125" x2="147.785" y2="19.099"/>
	
		<line style="fill:none;stroke:#D6D4D2;stroke-width:0.7209;stroke-linecap:round;stroke-linejoin:round;" x1="119.938" y1="51.826" x2="147.785" y2="39.036"/>
	<g id="Layer_6" style="display:none;">
		<line style="display:inline;fill:none;stroke:#000000;stroke-width:0.5;" x1="127.84" y1="84.39" x2="37.778" y2="138.356"/>
	</g>
</g>
<g id="taxi">
	<g id="taxis_group">
		<g id="taxis">
			<g>
				<g>
					
						<ellipse style="fill:#FFFFFF;stroke:#8C8F84;stroke-width:0.4;stroke-linecap:round;stroke-linejoin:round;" cx="313.504" cy="70.519" rx="2.688" ry="3.519"/>
					<path style="fill:none;stroke:#8C8F84;stroke-width:0.4;stroke-linecap:round;stroke-linejoin:round;" d="M313.503,74.165
						c0.004,0.619-0.017,1.573-0.04,2.673l-0.039,1.975c-0.041,2.482-0.037,5.14,0.208,6.358"/>
				</g>
				<path style="fill:#F7D75E;" d="M267.51,79.577c2.113-1.303,24.499-0.278,25.71-1.319c0.56-0.481,4.901-8.41,6.455-10.327
					c2.545-3.139,4.328-2.605,8.56-2.605c4.953,0,28.156,0,32.397,0.003c2.342,0,8.159,11.273,8.791,12.041
					c1.921,2.339,12.108,1.178,16.211,3.124c3.244,1.538,4.283,12.193,2.498,16.589c-1.493,0.918-46.998,1.414-51.18,1.414l0,0
					c-2.172-0.323-46.011,0.017-46.525-2.594c-0.377-1.921-0.64-3.816-0.925-5.746c-0.28-1.913-1.084-3.093-1.729-4.668
					C266.984,83.553,267.522,81.628,267.51,79.577 M297.713,79.553c3.203,0,20.343,0,20.343,0c0.414,0,0.75-0.335,0.75-0.75v-9.924
					c0-0.414-0.336-0.751-0.75-0.751c0,0-11.272,0-13.698,0C301.931,68.128,294.517,79.553,297.713,79.553z M336.993,68.128
					c-2.427,0-13.704,0-13.704,0c-0.414,0-0.752,0.337-0.752,0.751v9.924c0,0.415,0.338,0.75,0.752,0.75c0,0,17.144,0,20.344,0
					C346.831,79.553,339.42,68.128,336.993,68.128z"/>
				<g>
					<circle style="fill:#999999;" cx="284.456" cy="98.918" r="8.096"/>
					<circle style="fill:#FFFFFF;" cx="284.457" cy="98.918" r="4.681"/>
				</g>
				<g>
					<circle style="fill:#999999;" cx="349.089" cy="98.918" r="8.096"/>
					<circle style="fill:#FFFFFF;" cx="349.089" cy="98.918" r="4.682"/>
				</g>
				<polygon style="fill:#F7D75E;stroke:#F7D75E;stroke-width:0.9993;stroke-linecap:round;stroke-linejoin:round;" points="
					315.416,65.77 318.354,61.305 321.29,65.77 				"/>
			</g>
		</g>
	</g>
</g>
<g id="panneau">
	<g id="panneau_taxi">
		<line style="fill:none;stroke:#8C8F84;stroke-width:4;stroke-linecap:round;" x1="63.783" y1="48.524" x2="63.783" y2="134.655"/>
		<g>
			<rect x="49.379" y="19.142" style="fill:none;" width="28.808" height="28.808"/>
			<path style="fill:#3585BB;" d="M78.187,45.488c0,1.359-1.102,2.462-2.462,2.462H51.841c-1.359,0-2.462-1.103-2.462-2.462V21.606
				c0-1.362,1.103-2.464,2.462-2.464h23.884c1.36,0,2.462,1.102,2.462,2.464V45.488z"/>
			<path style="fill:none;stroke:#FFFFFF;stroke-width:0.8685;" d="M77.016,44.519c0,1.25-1.011,2.26-2.261,2.26H52.812
				c-1.25,0-2.261-1.011-2.261-2.26V22.576c0-1.25,1.011-2.263,2.261-2.263h21.943c1.25,0,2.261,1.013,2.261,2.263V44.519z"/>
		</g>
		<g>
			<path style="fill:#FFFFFF;" d="M52.285,27.42c0.475-0.293,5.51-0.062,5.782-0.297c0.126-0.106,1.102-1.891,1.452-2.321
				c0.572-0.707,0.972-0.586,1.925-0.586c1.114,0,6.333,0,7.286,0c0.527,0,1.835,2.535,1.977,2.708
				c0.432,0.526,2.724,0.266,3.646,0.703c0.729,0.348,0.964,2.743,0.562,3.733c-0.336,0.206-10.57,0.316-11.512,0.316l0,0
				c-0.487-0.071-10.347,0.004-10.462-0.584c-0.085-0.431-0.144-0.857-0.208-1.29c-0.062-0.432-0.244-0.696-0.389-1.052
				C52.167,28.315,52.288,27.882,52.285,27.42 M59.078,27.415c0.72,0,4.574,0,4.574,0c0.094,0,0.17-0.075,0.17-0.168v-2.232
				c0-0.093-0.076-0.167-0.17-0.167c0,0-2.535,0-3.08,0C60.027,24.847,58.358,27.415,59.078,27.415z M67.911,24.847
				c-0.545,0-3.08,0-3.08,0c-0.094,0-0.17,0.074-0.17,0.167v2.232c0,0.093,0.076,0.168,0.17,0.168c0,0,3.854,0,4.574,0
				S68.457,24.847,67.911,24.847z"/>
			<g>
				<circle style="fill:#FFFFFF;" cx="56.096" cy="31.771" r="1.821"/>
				<circle style="fill:#3585BB;" cx="56.097" cy="31.771" r="1.053"/>
			</g>
			<g>
				<circle style="fill:#FFFFFF;" cx="70.632" cy="31.771" r="1.821"/>
				<circle style="fill:#3585BB;" cx="70.632" cy="31.771" r="1.053"/>
			</g>
			<polygon style="fill:#FFFFFF;" points="63.059,24.316 63.72,23.312 64.38,24.316 			"/>
			
				<text transform="matrix(0.9999 0 0 1 51.6587 43.6934)" style="fill:#FFFFFF; font-family:'HelveticaNeue-Bold'; font-size:10.9482;">TAXI</text>
		</g>
	</g>
</g>
<g id="homme_1_">
	<g id="homme">
		<path style="fill:none;stroke:#7E7A64;stroke-width:1.0841;stroke-linecap:round;stroke-linejoin:round;" d="M100.125,85.569
			c0,0.807-0.647,1.458-1.454,1.458c-0.797,0-1.458-0.651-1.458-1.458c0-0.802,0.66-1.455,1.458-1.455
			C99.478,84.114,100.125,84.768,100.125,85.569z"/>
		<path style="fill:#FFFFFF;stroke:#7E7A64;stroke-width:1.3346;stroke-linecap:round;stroke-linejoin:round;" d="M105.458,41.482
			c0,4.51-2.795,8.167-6.235,8.167c-3.44,0-6.238-3.657-6.238-8.167c0-4.509,2.798-8.168,6.238-8.168
			C102.663,33.314,105.458,36.974,105.458,41.482z"/>
		<path style="fill:none;stroke:#7E7A64;stroke-width:1.3346;stroke-linecap:round;stroke-linejoin:round;" d="M99.379,49.971
			c-0.031,5.704,0.764,22.558-0.324,28.031c-0.979,4.887-1.413,3.406-0.438,10.25c1.223,8.57-1.527,16.934-1.82,21.266
			c-1.519,22.493-1.655,21.933,3.558,21.277"/>
	</g>
	<path style="fill:none;stroke:#7E7A64;stroke-width:1.0841;stroke-linecap:round;stroke-linejoin:round;" d="M99.759,55.789
		c0,0,11.061-6.588,13.308-8.146c2.786-1.934,7.568-11.75,7.571-11.759c1.753-3.164,2.133-3.569,3.147-7.555
		c-0.714,3.295-0.631,2.752-1.25,6.301c0.221-1.21,1.084-1.628,1.292-2.969c-0.52,1.204-0.827,1.58-0.626,2.854
		c0.221-0.45,1.196-1.42,1.346-1.647c1.294-1.952,0.453,1.629-3.908,3.017"/>
	<g>
		<path style="fill:none;stroke:#7E7A65;stroke-width:0.6768;stroke-linecap:round;stroke-linejoin:round;" d="M107.463,19.146
			c-2.619-3.338,7.242-7.881,4.583-1.406c-1.692,4.119-5.147,7.52-3.638,9.847"/>
		<path style="fill:none;stroke:#7E7A65;stroke-width:0.6768;stroke-linecap:round;stroke-linejoin:round;" d="M108.313,30.435
			C108.775,29.943,108.153,30.105,108.313,30.435"/>
	</g>
	<g>
		
			<line style="fill:none;stroke:#7E7A65;stroke-width:0.6768;stroke-linecap:round;stroke-linejoin:round;" x1="115.844" y1="17.528" x2="112.809" y2="27.389"/>
		<path style="fill:none;stroke:#7E7A65;stroke-width:0.6768;stroke-linecap:round;stroke-linejoin:round;" d="M112.085,29.65
			C112.868,29.911,112.085,29.65,112.085,29.65"/>
	</g>
</g>
</svg>
