<?xml version="1.0" encoding="iso-8859-1"?>
<!-- Generator: Adobe Illustrator 13.0.0, SVG Export Plug-In . SVG Version: 6.00 Build 14948)  -->
<!DOCTYPE svg PUBLIC "-//W3C//DTD SVG 1.1//EN" "http://www.w3.org/Graphics/SVG/1.1/DTD/svg11.dtd">
<svg version="1.1" xmlns="http://www.w3.org/2000/svg" xmlns:xlink="http://www.w3.org/1999/xlink" x="0px" y="0px" width="378px"
	 height="140px" viewBox="0 0 378 140" style="enable-background:new 0 0 378 140;" xml:space="preserve">
<pattern  x="-81" y="170" width="538" height="200" patternUnits="userSpaceOnUse" id="New_Pattern_Swatch_3" viewBox="0 -200 538 200" style="overflow:visible;">
	<g>
		<polygon style="fill:none;" points="0,0 538,0 538,-200 0,-200 		"/>
		<polygon style="fill:#FFFFFF;" points="0,0 538,0 538,-200 0,-200 		"/>
	</g>
</pattern>
<g id="fond">
	<rect style="fill:#FFFFFF;" width="378" height="140"/>
</g>
<g id="Layer_1">
	<g>
		<g>
			<path style="fill:#5E5E5E;stroke:#5E5E5E;stroke-width:2.1;" d="M36.019,57.276c0,0,3.186-6.616,8.41-9.986"/>
			<path style="fill:#5E5E5E;stroke:#5E5E5E;stroke-width:2.1;" d="M58.924,57.276c0,0-3.187-6.616-8.41-9.986"/>
			<line style="fill:none;stroke:#5E5E5E;stroke-width:2.1;" x1="40.113" y1="51.16" x2="54.771" y2="51.16"/>
			<line style="fill:none;stroke:#5E5E5E;stroke-width:2.1;" x1="37.767" y1="54.282" x2="56.997" y2="54.282"/>
		</g>
		<path style="fill:#90A9C4;" d="M47.469,48.58c3.981,0,7.891-0.014,8.424-0.067c3.075-0.304,3.672-4.781,3.764-6.938
			c0.061-1.436-0.061-2.92,0.008-4.24c0.073-1.396-0.2-14.207-0.818-14.945c-0.809-0.966-1.491-1.406-3.586-1.406
			c-0.139,0-7.654,0-7.792,0h0.003c-0.137,0-7.653,0-7.792,0c-2.095,0-2.777,0.44-3.586,1.406
			c-0.618,0.738-0.891,13.548-0.818,14.945c0.069,1.319-0.053,2.804,0.008,4.24c0.092,2.158,0.689,6.635,3.764,6.938
			c0.533,0.053,4.442,0.067,8.424,0.067H47.469z"/>
		<g>
			<path style="fill:#FFFFFF;" d="M57.527,35.847c0,0.387-0.313,0.7-0.7,0.7H38.114c-0.387,0-0.7-0.313-0.7-0.7v-8.111
				c0-0.386,0.313-0.7,0.7-0.7h18.713c0.387,0,0.7,0.313,0.7,0.7V35.847z"/>
		</g>
		<g>
			<path style="fill:#FFFFFF;" d="M42.848,44.422c0,0.387-0.313,0.7-0.7,0.7h-2.653c-0.387,0-0.7-0.313-0.7-0.7v-2.498
				c0-0.386,0.313-0.7,0.7-0.7h2.653c0.387,0,0.7,0.313,0.7,0.7V44.422z"/>
			<path style="fill:#FFFFFF;" d="M56.147,44.422c0,0.387-0.313,0.7-0.7,0.7h-2.654c-0.387,0-0.7-0.313-0.7-0.7v-2.498
				c0-0.386,0.313-0.7,0.7-0.7h2.654c0.387,0,0.7,0.313,0.7,0.7V44.422z"/>
		</g>
	</g>
	<g>
		<g>
			<path style="fill:#5E5E5E;stroke:#5E5E5E;stroke-width:2.1;" d="M103.515,57.276c0,0,3.186-6.616,8.41-9.986"/>
			<path style="fill:#5E5E5E;stroke:#5E5E5E;stroke-width:2.1;" d="M126.42,57.276c0,0-3.187-6.616-8.411-9.986"/>
			<line style="fill:none;stroke:#5E5E5E;stroke-width:2.1;" x1="107.608" y1="51.16" x2="122.267" y2="51.16"/>
			<line style="fill:none;stroke:#5E5E5E;stroke-width:2.1;" x1="105.263" y1="54.282" x2="124.493" y2="54.282"/>
		</g>
		<path style="fill:#90A9C4;" d="M114.965,48.58c3.981,0,7.891-0.014,8.424-0.067c3.075-0.304,3.672-4.781,3.764-6.938
			c0.061-1.436-0.061-2.92,0.008-4.24c0.073-1.396-0.201-14.207-0.818-14.945c-0.809-0.966-1.491-1.406-3.586-1.406
			c-0.139,0-7.654,0-7.792,0h0.003c-0.138,0-7.653,0-7.792,0c-2.095,0-2.778,0.44-3.586,1.406
			c-0.618,0.738-0.891,13.548-0.818,14.945c0.069,1.319-0.052,2.804,0.008,4.24c0.092,2.158,0.689,6.635,3.764,6.938
			c0.533,0.053,4.442,0.067,8.424,0.067H114.965z"/>
		<g>
			<path style="fill:#FFFFFF;" d="M125.023,35.847c0,0.387-0.313,0.7-0.7,0.7H105.61c-0.387,0-0.7-0.313-0.7-0.7v-8.111
				c0-0.386,0.313-0.7,0.7-0.7h18.713c0.387,0,0.7,0.313,0.7,0.7V35.847z"/>
		</g>
		<g>
			<path style="fill:#FFFFFF;" d="M110.344,44.422c0,0.387-0.313,0.7-0.7,0.7h-2.654c-0.387,0-0.7-0.313-0.7-0.7v-2.498
				c0-0.386,0.313-0.7,0.7-0.7h2.654c0.387,0,0.7,0.313,0.7,0.7V44.422z"/>
			<path style="fill:#FFFFFF;" d="M123.644,44.422c0,0.387-0.313,0.7-0.7,0.7h-2.654c-0.387,0-0.7-0.313-0.7-0.7v-2.498
				c0-0.386,0.313-0.7,0.7-0.7h2.654c0.387,0,0.7,0.313,0.7,0.7V44.422z"/>
		</g>
	</g>
	<g>
		<g>
			<path style="fill:#5E5E5E;stroke:#5E5E5E;stroke-width:2.1;" d="M171.011,57.276c0,0,3.187-6.616,8.41-9.986"/>
			<path style="fill:#5E5E5E;stroke:#5E5E5E;stroke-width:2.1;" d="M193.916,57.276c0,0-3.187-6.616-8.41-9.986"/>
			<line style="fill:none;stroke:#5E5E5E;stroke-width:2.1;" x1="175.105" y1="51.16" x2="189.763" y2="51.16"/>
			<line style="fill:none;stroke:#5E5E5E;stroke-width:2.1;" x1="172.759" y1="54.282" x2="191.988" y2="54.282"/>
		</g>
		<path style="fill:#90A9C4;" d="M182.462,48.58c3.981,0,7.891-0.014,8.424-0.067c3.074-0.304,3.672-4.781,3.764-6.938
			c0.062-1.436-0.061-2.92,0.008-4.24c0.074-1.396-0.199-14.207-0.817-14.945c-0.81-0.966-1.491-1.406-3.586-1.406
			c-0.14,0-7.655,0-7.792,0h0.002c-0.137,0-7.653,0-7.792,0c-2.095,0-2.777,0.44-3.586,1.406
			c-0.618,0.738-0.892,13.548-0.818,14.945c0.069,1.319-0.053,2.804,0.008,4.24c0.091,2.158,0.689,6.635,3.764,6.938
			c0.533,0.053,4.443,0.067,8.424,0.067H182.462z"/>
		<g>
			<path style="fill:#FFFFFF;" d="M192.52,35.847c0,0.387-0.313,0.7-0.7,0.7h-18.712c-0.387,0-0.7-0.313-0.7-0.7v-8.111
				c0-0.386,0.313-0.7,0.7-0.7h18.712c0.387,0,0.7,0.313,0.7,0.7V35.847z"/>
		</g>
		<g>
			<path style="fill:#FFFFFF;" d="M177.84,44.422c0,0.387-0.313,0.7-0.7,0.7h-2.654c-0.387,0-0.7-0.313-0.7-0.7v-2.498
				c0-0.386,0.313-0.7,0.7-0.7h2.654c0.387,0,0.7,0.313,0.7,0.7V44.422z"/>
			<path style="fill:#FFFFFF;" d="M191.14,44.422c0,0.387-0.313,0.7-0.7,0.7h-2.653c-0.387,0-0.7-0.313-0.7-0.7v-2.498
				c0-0.386,0.313-0.7,0.7-0.7h2.653c0.387,0,0.7,0.313,0.7,0.7V44.422z"/>
		</g>
	</g>
</g>
<g id="Layer_2">
	<g>
		<path style="fill:none;stroke:#777768;stroke-width:1.1995;stroke-linecap:round;stroke-linejoin:round;" d="M258.704,73.147
			c0,1.059,0.864,1.915,1.918,1.915c1.053,0,1.914-0.856,1.914-1.915s-0.861-1.911-1.914-1.911
			C259.568,71.236,258.704,72.089,258.704,73.147z"/>
		
			<path style="fill:url(#New_Pattern_Swatch_3);stroke:#777768;stroke-width:1.7991;stroke-linecap:round;stroke-linejoin:round;" d="
			M251.704,15.2c0,5.929,3.668,10.734,8.197,10.734c4.521,0,8.193-4.805,8.193-10.734c0-5.927-3.673-10.732-8.193-10.732
			C255.372,4.468,251.704,9.273,251.704,15.2z"/>
		<path style="fill:none;stroke:#777768;stroke-width:1.7991;stroke-linecap:round;stroke-linejoin:round;" d="M259.695,26.361
			c0.035,7.493-1.012,29.645,0.425,36.837c1.287,6.422,1.858,4.477,0.571,13.469c-1.606,11.266,2.01,22.258,2.401,27.961
			c1.992,29.556,2.173,28.813-4.687,27.957"/>
	</g>
</g>
<g id="Layer_4">
	<g>
		<path style="fill:none;stroke:#777768;stroke-width:1.1995;stroke-linecap:round;stroke-linejoin:round;" d="M211.724,72.984
			c0,1.059-0.865,1.914-1.919,1.914c-1.053,0-1.914-0.855-1.914-1.914c0-1.058,0.861-1.911,1.914-1.911
			C210.858,71.073,211.724,71.927,211.724,72.984z"/>
		<path style="fill:#FFFFFF;stroke:#777768;stroke-width:1.1991;stroke-linecap:round;stroke-linejoin:round;" d="M218.724,15.037
			c0,5.929-3.669,10.734-8.197,10.734c-4.521,0-8.193-4.805-8.193-10.734c0-5.927,3.672-10.732,8.193-10.732
			C215.055,4.305,218.724,9.11,218.724,15.037z"/>
		<path style="fill:none;stroke:#777768;stroke-width:1.1991;stroke-linecap:round;stroke-linejoin:round;" d="M210.732,26.198
			c-0.036,7.493,1.012,29.645-0.426,36.837c-1.286,6.422-1.857,4.477-0.57,13.469c1.606,11.266-2.011,22.258-2.401,27.962
			c-1.992,29.554-2.174,28.813,4.687,27.956"/>
	</g>
	<path style="fill:none;stroke:#777768;stroke-width:1.1991;stroke-linecap:round;stroke-linejoin:round;" d="M259.108,31.049
		c-2.481,0.095-13.954,10.39-15.431,9.362c-2.369-1.648-7.8-4.958-10.225-5.282c-2.402-0.321-3.34,0.382-5.562-0.546
		c2.264,0.128,2.085,0.438,4.515,0.459c-0.832-0.015-3.574-1.627-4.49-1.617c0.845,0.241,3.682,1.212,4.529,0.901
		c-0.315-0.111-5.608-2.5-5.771-2.585c-1.395-0.734,5.144,0.721,7.1,3.433"/>
	<g>
		<path style="fill:none;stroke:#777768;stroke-width:1.1228;stroke-linecap:round;stroke-linejoin:round;" d="M239.49,9.148
			c-3.199-6.648,9.191-5.504,5.537,0.5c-2.02,3.319-4.203,3.751-3.564,8.481"/>
		<path style="fill:none;stroke:#777768;stroke-width:1.1228;stroke-linecap:round;stroke-linejoin:round;" d="M241.537,20.703
			l-0.26,0.939c0,0,0.525-0.906,0.178-0.845"/>
	</g>
</g>
<g id="Layer_5">
	<path style="fill:none;stroke:#777768;stroke-width:0.9221;stroke-linecap:round;stroke-linejoin:round;" d="M168.604,41.228
		c-6.933-6.933-18.434,4.098-19.334-9.822V16.403"/>
	<polygon style="fill:none;stroke:#777768;stroke-width:0.72;stroke-linecap:round;stroke-linejoin:round;" points="146.505,16.097 
		151.995,16.097 149.167,11.874 	"/>
	<polygon style="fill:none;stroke:#777768;stroke-width:0.72;stroke-linecap:round;stroke-linejoin:round;" points="157.13,15.878 
		161.012,19.76 161.997,14.773 	"/>
	<polygon style="fill:none;stroke:#777768;stroke-width:0.72;stroke-linecap:round;stroke-linejoin:round;" points="141.422,33.753 
		141.422,28.264 137.199,31.092 	"/>
	<path style="fill:none;stroke:#777768;stroke-width:0.9221;stroke-linecap:round;stroke-linejoin:round;" d="M149.271,23.415
		c0,0-2.36-4.384-4.951-2.246c-2.248,1.854,0.532,3.931,0.532,6.857c0,2.926-2.128,3.103-3.192,3.103"/>
	
		<line style="fill:none;stroke:#777768;stroke-width:0.9221;stroke-linecap:round;stroke-linejoin:round;" x1="149.271" y1="27.69" x2="158.772" y2="18.025"/>
</g>
</svg>
