<?xml version="1.0" encoding="iso-8859-1"?>
<!-- Generator: Adobe Illustrator 13.0.0, SVG Export Plug-In . SVG Version: 6.00 Build 14948)  -->
<!DOCTYPE svg PUBLIC "-//W3C//DTD SVG 1.1//EN" "http://www.w3.org/Graphics/SVG/1.1/DTD/svg11.dtd">
<svg version="1.1" xmlns="http://www.w3.org/2000/svg" xmlns:xlink="http://www.w3.org/1999/xlink" x="0px" y="0px"
	 width="378.198px" height="140px" viewBox="0 0 378.198 140" style="enable-background:new 0 0 378.198 140;" xml:space="preserve"
	>
<g id="Layer_2">
	<g>
		<rect style="fill:#FFFFFF;" width="378" height="140"/>
	</g>
</g>
<g id="decor">
	<g>
		<path style="fill:none;stroke:#8C8F84;stroke-width:0.8424;stroke-linecap:round;stroke-linejoin:round;" d="M279.127,113.312"/>
		
			<line style="fill:none;stroke:#8C8F84;stroke-width:0.7035;stroke-linecap:round;stroke-linejoin:round;" x1="9.098" y1="113.253" x2="274.046" y2="113.312"/>
		
			<line style="fill:none;stroke:#8C8F84;stroke-width:0.8424;stroke-linecap:round;stroke-linejoin:round;" x1="274.046" y1="4.25" x2="274.171" y2="113.236"/>
		<path style="fill:none;stroke:#8C8F84;stroke-width:0.7382;stroke-linecap:round;stroke-linejoin:round;" d="M151.954,18.9"/>
	</g>
	<polyline style="fill:none;stroke:#8C8F84;stroke-width:0.7035;stroke-linecap:round;stroke-linejoin:round;" points="9.098,127 
		309.848,127 274.171,86.667 	"/>
	<polyline style="fill:#FFFFFF;stroke:#8C8F84;stroke-width:0.7;stroke-linecap:round;stroke-linejoin:round;" points="
		365.848,4.25 365.848,100.5 339.532,76.816 339.532,4.25 	"/>
	
		<line style="fill:none;stroke:#8C8F84;stroke-width:0.7;stroke-linecap:round;stroke-linejoin:round;" x1="365.848" y1="100.5" x2="377.015" y2="100.5"/>
	<polyline style="fill:none;stroke:#8C8F84;stroke-width:0.7;stroke-linecap:round;stroke-linejoin:round;" points="377.848,117.5 
		357.598,117.5 315.723,72.625 	"/>
	
		<line style="fill:none;stroke:#8C8F84;stroke-width:0.7;stroke-linecap:round;stroke-linejoin:round;" x1="315.723" y1="72.625" x2="339.532" y2="72.625"/>
</g>
<g id="Layer_7">
	<g>
		<path style="fill:none;stroke:#92938B;stroke-width:1.1995;stroke-linecap:round;stroke-linejoin:round;" d="M216.821,58.099
			l-4.671,2.51c0,0,0.125,3.708,0.545,4.128"/>
		<polygon style="fill:#FFFFFF;stroke:#D2031D;stroke-width:0.66;stroke-linecap:round;stroke-linejoin:round;" points="
			216.125,63.812 212.166,60.844 212.014,68.978 216.28,71.917 		"/>
		<path style="fill:#FFFFFF;stroke:#D2031D;stroke-width:0.66;stroke-linecap:round;stroke-linejoin:round;" d="M213.032,68.529
			c0,0,2.574,1.013,3.413,3.338c0.315,0.867,1.47-6.006,0.548-8.147c-0.923-2.141-3.863-3.311-3.863-3.311L213.032,68.529z"/>
	</g>
</g>
<g id="Layer_3">
	<g id="homme">
		<path style="fill:none;stroke:#92938B;stroke-width:1.1995;stroke-linecap:round;stroke-linejoin:round;" d="M205.301,75.382
			c0,1.062,0.857,1.926,1.922,1.926c1.053,0,1.922-0.863,1.922-1.926c0-1.061-0.869-1.922-1.922-1.922
			C206.159,73.46,205.301,74.322,205.301,75.382z"/>
		<path style="fill:#FFFFFF;stroke:#92938B;stroke-width:1.199;stroke-linecap:round;stroke-linejoin:round;" d="M198.262,17.182
			c0,5.955,3.691,10.781,8.23,10.781c4.543,0,8.236-4.826,8.236-10.781c0-5.953-3.693-10.779-8.236-10.779
			C201.954,6.402,198.262,11.229,198.262,17.182z"/>
		<path style="fill:none;stroke:#92938B;stroke-width:1.199;stroke-linecap:round;stroke-linejoin:round;" d="M206.29,28.391
			c0.039,7.525-1.012,29.776,0.428,36.999c1.291,6.45,1.863,4.496,0.578,13.53c-1.617,11.312,2.016,22.355,2.402,28.078
			c2.006,29.688,2.186,28.945-4.699,28.082"/>
	</g>
	<path style="display:none;fill:none;stroke:#92938B;stroke-width:0.7;stroke-linecap:round;stroke-linejoin:round;" d="
		M328.727,61.235c-0.068-0.26-0.174-0.402-0.115-0.676c0.16-0.066,0.258-0.184,0.395-0.247c0.322,0.543,0.041,0.677-0.42,0.923"/>
	<path style="display:none;fill:none;stroke:#92938B;stroke-width:0.7;stroke-linecap:round;stroke-linejoin:round;" d="
		M331.643,61.235c-0.068-0.26-0.174-0.402-0.115-0.676c0.16-0.066,0.258-0.184,0.395-0.247c0.322,0.543,0.041,0.677-0.42,0.923"/>
	
		<line style="display:none;fill:none;stroke:#92938B;stroke-width:0.7;stroke-linecap:round;stroke-linejoin:round;" x1="328.523" y1="58.121" x2="328.582" y2="49.781"/>
	
		<line style="display:none;fill:none;stroke:#92938B;stroke-width:0.7;stroke-linecap:round;stroke-linejoin:round;" x1="332.119" y1="58.121" x2="333.477" y2="49.781"/>
	<path style="display:none;fill:none;stroke:#92938B;stroke-width:1.1995;stroke-linecap:round;stroke-linejoin:round;" d="
		M239.897,33.834c-1.861,0-5.323,2.543-6.549,3.603c-4.468,3.862-6.347,5.729-8.31,8.185c-1.027,1.285-4.607,5.876-6.129,10.237
		c-0.736,2.109-0.812,3.052-0.812,4.391"/>
	<path style="fill:none;stroke:#92938B;stroke-width:1.1995;stroke-linecap:round;stroke-linejoin:round;" d="M239.607,33.608
		c-1.757,0-11.332,10.087-13.624,12.658c-2.271,2.548-7.126,8.369-9.162,11.833c-0.849,1.443-0.74,3.251-1.754,4.713"/>
</g>
<g id="bandeau">
	<path style="fill:none;stroke:#92938B;stroke-width:1.1995;stroke-linecap:round;stroke-linejoin:round;" d="M238.975,75.382
		c0,1.062,0.857,1.926,1.922,1.926c1.053,0,1.922-0.863,1.922-1.926c0-1.061-0.869-1.922-1.922-1.922
		C239.833,73.46,238.975,74.322,238.975,75.382z"/>
	<path style="fill:none;stroke:#92938B;stroke-width:1.1995;stroke-linecap:round;stroke-linejoin:round;" d="M230.377,18.795
		c0.788,5.902,5.087,10.197,9.586,9.596c4.503-0.602,7.524-5.874,6.735-11.776c-0.788-5.9-5.088-10.195-9.591-9.594
		C232.609,7.622,229.589,12.895,230.377,18.795z"/>
	<path style="fill:none;stroke:#92938B;stroke-width:1.1995;stroke-linecap:round;stroke-linejoin:round;" d="M239.963,28.391
		c0.039,7.525-1.012,29.776,0.428,36.999c1.291,6.45,1.863,4.496,0.578,13.53c-1.617,11.312,2.016,22.355,2.402,28.078
		c2.006,29.688,2.186,28.945-4.699,28.082"/>
	<g>
		<path style="stroke:#000000;stroke-width:1.1995;stroke-linecap:round;stroke-linejoin:round;" d="M237.392,13.905
			c-1.743-2.616-6.76-1.921-6.76-1.921s-1.296,3.566-0.806,5.322c0.202,0.722,5.199,0.483,7.936-1.763
			c2.888-1.116,7.562-2.091,7.703-2.79c0.102-0.5,0.637-1.944,1.274-1.058c0.312,0.434,0.659,1.435-0.08,1.653
			c-0.462,0.135-0.438-0.165-0.695-0.366c-0.245-0.192-0.587-0.096-0.768,0.168c-0.425,0.621,0.028,1.512,0.586,1.844
			c0.287,0.171,0.854,0.433,1.201,0.335c0.911-0.254-0.634-2.238-1.076-2.432c-0.41-0.181-0.876-0.152-1.292-0.34
			C244.105,12.328,239.135,16.522,237.392,13.905z"/>
		<path style="fill:#FFFFFF;" d="M235.207,14.421c0.104,0.779-1.284,1.324-2.063,1.428c-0.779,0.104-1.938-0.069-1.985-0.433
			c-0.049-0.364,0.632-1.661,1.006-1.711C233.505,13.526,235.103,13.642,235.207,14.421z"/>
	</g>
</g>
</svg>
