<?xml version="1.0" encoding="iso-8859-1"?>
<!-- Generator: Adobe Illustrator 13.0.0, SVG Export Plug-In . SVG Version: 6.00 Build 14948)  -->
<!DOCTYPE svg PUBLIC "-//W3C//DTD SVG 1.1//EN" "http://www.w3.org/Graphics/SVG/1.1/DTD/svg11.dtd">
<svg version="1.1" xmlns="http://www.w3.org/2000/svg" xmlns:xlink="http://www.w3.org/1999/xlink" x="0px" y="0px" width="378px"
	 height="140px" viewBox="0 0 378 140" style="enable-background:new 0 0 378 140;" xml:space="preserve">
<g id="FOND">
	<g>
		<rect style="fill:none;" width="378" height="140"/>
		<rect style="fill:#FFFFFF;" width="378" height="140"/>
	</g>
</g>
<g id="cuill&#xE8;re">
	<path style="display:none;fill:#CCCCCC;stroke:#777768;stroke-width:1.6039;stroke-linecap:round;stroke-linejoin:round;" d="
		M199.061,64.959c-0.502-5.021,4.623-11.078,12.406-14.247c8.738-3.559,19.299-2.861,21.453,2.429s-4.916,13.168-13.654,16.727
		c-7.809,3.18-15.689,2.397-18.815-1.58c-0.492,0.206-22.784,10.02-34.89,15.067c-7.615,3.174-12.121,9.582-16.236,11.299
		c-4.114,1.715-8.183,1.27-9.922-2.904c-1.742-4.174,0.833-7.313,4.946-9.029c4.116-1.716,11.84-0.406,19.453-3.58
		C175.908,74.092,198.569,65.163,199.061,64.959z"/>
	<g>
		<g>
			<path style="fill:#D5312C;stroke:#D5312C;stroke-width:6.4112;stroke-linecap:round;stroke-linejoin:round;" d="M206.866,49.902
				c-10.182,0.396-8.366,8.489-18.016,10.538c-9.487,2.019-16.855,17.024-21.18,17.419c-8.366,0.765-24.672,20.298-24.672,20.298
				s25.916-1.178,32.337-10.074c3.107-4.31,13.352,0.87,19.302-6.025c4.346-5.468,17.803,5.523,25.174-8.34
				C223.906,66.004,217.262,49.5,206.866,49.902z"/>
			<path style="fill:none;stroke:#65B724;stroke-width:6.4112;stroke-linecap:round;stroke-linejoin:round;" d="M216.498,50.471
				c0.252,1.311,1.642,2.789,2.269,4.201c0.558,1.26,0.785,2.828,1.001,4.193c0.376,2.259-0.244,6.36,1.815,7.653
				c1.899,1.192,2.042-1.014,2.035-2.897c-0.018-3.393-0.932-5.288-1.585-8.617c-0.699-3.58-4.427-4.375-7.35-5.583
				c1.811,0.75,4.896,2.516,5.887,4.011c1.406,2.141,2.699,2.706,5.077,1.785c6.14-2.398,13.237-3.404,17.796,0.038"/>
		</g>
	</g>
</g>
</svg>
