<?xml version="1.0" encoding="iso-8859-1"?>
<!-- Generator: Adobe Illustrator 13.0.0, SVG Export Plug-In . SVG Version: 6.00 Build 14948)  -->
<!DOCTYPE svg PUBLIC "-//W3C//DTD SVG 1.1//EN" "http://www.w3.org/Graphics/SVG/1.1/DTD/svg11.dtd">
<svg version="1.1" xmlns="http://www.w3.org/2000/svg" xmlns:xlink="http://www.w3.org/1999/xlink" x="0px" y="0px" width="378px"
	 height="140px" viewBox="0 0 378 140" style="enable-background:new 0 0 378 140;" xml:space="preserve">
<g id="Layer_7">
	<g>
		<rect style="fill:#FFFFFF;" width="378" height="140"/>
	</g>
</g>
<g id="feuille">
	<rect x="150.121" y="12.682" style="fill:none;stroke:#7E7A64;stroke-width:0.25;" width="77.758" height="113.662"/>
	
		<line style="fill:none;stroke:#7E7A64;stroke-width:0.8748;stroke-linecap:round;stroke-linejoin:round;" x1="219.992" y1="21.32" x2="196.569" y2="21.32"/>
	
		<line style="fill:none;stroke:#7E7A64;stroke-width:0.8748;stroke-linecap:round;stroke-linejoin:round;" x1="219.992" y1="46.75" x2="196.569" y2="46.75"/>
	
		<line style="fill:none;stroke:#7E7A64;stroke-width:0.8748;stroke-linecap:round;stroke-linejoin:round;" x1="219.992" y1="24.569" x2="196.569" y2="24.569"/>
</g>
<g id="Layer_6">
	<g>
		<g>
			<path style="fill:#3D6DA5;" d="M186.962,45.897c0,1.515-1.228,2.743-2.742,2.743h-26.603c-1.515,0-2.742-1.228-2.742-2.743
				V19.296c0-1.515,1.228-2.742,2.742-2.742h26.603c1.515,0,2.742,1.228,2.742,2.742V45.897z"/>
			<path style="fill:none;stroke:#FFFFFF;stroke-width:0.6218;" d="M185.66,44.819c0,1.39-1.128,2.518-2.52,2.518h-24.441
				c-1.392,0-2.519-1.127-2.519-2.518V20.377c0-1.392,1.127-2.519,2.519-2.519h24.441c1.392,0,2.52,1.127,2.52,2.519V44.819z"/>
		</g>
		<g>
			<g>
				<path style="fill:#FFFFFF;" d="M159.53,26.949c-0.511,1.3-1.16,3.492-1.197,4.81c-0.042,1.611,0.185,2.664,0.235,4.521
					c1.046,0,3.213,0,4.229,0c-0.062,2.515,3.013,2.515,2.894,0c3.133,0,6.308,0,9.272,0c-0.348,2.515,3.342,2.515,2.788,0
					c1.137,0,3.845,0,5.734,0c-0.083-1.525,0-2.896,0-4.685c0-1.786,0.386-2.94-0.32-3.646c-1.314-1.313-5.193-1.001-8.112-1.001
					C170.865,26.949,163.392,26.822,159.53,26.949"/>
				<g>
					<g>
						<path style="fill:#3D6DA5;" d="M161.593,31.979c0,0.104-0.086,0.189-0.191,0.189h-0.738c-0.106,0-0.191-0.085-0.191-0.189
							v-3.705c0-0.105,0.085-0.191,0.191-0.191h0.738c0.105,0,0.191,0.086,0.191,0.191V31.979z"/>
						<path style="fill:#3D6DA5;" d="M163.159,31.979c0,0.104-0.085,0.189-0.189,0.189h-0.739c-0.105,0-0.19-0.085-0.19-0.189
							v-3.705c0-0.105,0.085-0.191,0.19-0.191h0.739c0.104,0,0.189,0.086,0.189,0.191V31.979z"/>
					</g>
					<g>
						<path style="fill:#3D6DA5;" d="M161.593,34.775c0,0.058-0.086,0.108-0.191,0.108h-0.738c-0.106,0-0.191-0.05-0.191-0.108
							v-2.112c0-0.058,0.085-0.107,0.191-0.107h0.738c0.105,0,0.191,0.049,0.191,0.107V34.775z"/>
						<path style="fill:#3D6DA5;" d="M163.159,34.775c0,0.058-0.085,0.108-0.189,0.108h-0.739c-0.105,0-0.19-0.05-0.19-0.108v-2.112
							c0-0.058,0.085-0.107,0.19-0.107h0.739c0.104,0,0.189,0.049,0.189,0.107V34.775z"/>
					</g>
				</g>
				<path style="fill:#3D6DA5;" d="M168.075,31.142c0,0.142-0.114,0.258-0.255,0.258h-3.481c-0.142,0-0.259-0.116-0.259-0.258
					v-2.803c0-0.141,0.117-0.256,0.259-0.256h3.481c0.141,0,0.255,0.115,0.255,0.256V31.142z"/>
				<path style="fill:#3D6DA5;" d="M172.991,31.142c0,0.142-0.115,0.258-0.257,0.258h-3.48c-0.142,0-0.257-0.116-0.257-0.258v-2.803
					c0-0.141,0.115-0.256,0.257-0.256h3.48c0.142,0,0.257,0.115,0.257,0.256V31.142z"/>
				<path style="fill:#3D6DA5;" d="M177.906,31.142c0,0.142-0.114,0.258-0.255,0.258h-3.482c-0.142,0-0.256-0.116-0.256-0.258
					v-2.803c0-0.141,0.114-0.256,0.256-0.256h3.482c0.141,0,0.255,0.115,0.255,0.256V31.142z"/>
				<path style="fill:#3D6DA5;" d="M182.809,31.142c0,0.142-0.115,0.258-0.257,0.258h-3.481c-0.142,0-0.257-0.116-0.257-0.258
					v-2.803c0-0.141,0.115-0.256,0.257-0.256h3.083c0.823,0,0.655,0.758,0.655,0.899V31.142z"/>
				<path style="fill:#3D6DA5;" d="M159.566,31.222c0,0.143-0.114,0.257-0.257,0.257c0,0-1.243,0-1.102,0l0.189-1.432l0.451-1.883
					h0.457c0.141,0,0.261,0.115,0.261,0.256V31.222z"/>
			</g>
		</g>
	</g>
</g>
<g id="tableau">
	<g>
		
			<line style="fill:#D6D4D2;stroke:#7E7A64;stroke-width:0.2002;stroke-linecap:round;stroke-linejoin:round;" x1="154.875" y1="53.25" x2="225.137" y2="53.25"/>
		<g>
			<rect x="154.875" y="58.07" style="fill:#D6D4D2;" width="70.25" height="4.875"/>
			
				<line style="fill:none;stroke:#7E7A64;stroke-width:0.2002;stroke-linecap:round;stroke-linejoin:round;" x1="156.167" y1="60.508" x2="178" y2="60.508"/>
			
				<line style="fill:none;stroke:#7E7A64;stroke-width:0.2002;stroke-linecap:round;stroke-linejoin:round;" x1="180.51" y1="60.508" x2="185.01" y2="60.508"/>
			
				<line style="fill:none;stroke:#7E7A64;stroke-width:0.2002;stroke-linecap:round;stroke-linejoin:round;" x1="187.521" y1="60.508" x2="192.021" y2="60.508"/>
			
				<line style="fill:none;stroke:#7E7A64;stroke-width:0.2002;stroke-linecap:round;stroke-linejoin:round;" x1="194.531" y1="60.508" x2="199.031" y2="60.508"/>
			
				<line style="fill:none;stroke:#7E7A64;stroke-width:0.2002;stroke-linecap:round;stroke-linejoin:round;" x1="201.542" y1="60.508" x2="206.042" y2="60.508"/>
			
				<line style="fill:none;stroke:#7E7A64;stroke-width:0.2002;stroke-linecap:round;stroke-linejoin:round;" x1="208.552" y1="60.508" x2="213.052" y2="60.508"/>
			
				<line style="fill:none;stroke:#7E7A64;stroke-width:0.2002;stroke-linecap:round;stroke-linejoin:round;" x1="215.562" y1="60.508" x2="220.062" y2="60.508"/>
		</g>
		<g>
			
				<line style="fill:none;stroke:#7E7A64;stroke-width:0.2002;stroke-linecap:round;stroke-linejoin:round;" x1="156.167" y1="65.312" x2="178" y2="65.312"/>
			
				<line style="fill:none;stroke:#7E7A64;stroke-width:0.2002;stroke-linecap:round;stroke-linejoin:round;" x1="180.51" y1="65.312" x2="185.01" y2="65.312"/>
			
				<line style="fill:none;stroke:#7E7A64;stroke-width:0.2002;stroke-linecap:round;stroke-linejoin:round;" x1="187.521" y1="65.312" x2="192.021" y2="65.312"/>
			
				<line style="fill:none;stroke:#7E7A64;stroke-width:0.2002;stroke-linecap:round;stroke-linejoin:round;" x1="194.531" y1="65.312" x2="199.031" y2="65.312"/>
			
				<line style="fill:none;stroke:#7E7A64;stroke-width:0.2002;stroke-linecap:round;stroke-linejoin:round;" x1="201.542" y1="65.312" x2="206.042" y2="65.312"/>
			
				<line style="fill:none;stroke:#7E7A64;stroke-width:0.2002;stroke-linecap:round;stroke-linejoin:round;" x1="208.552" y1="65.312" x2="213.052" y2="65.312"/>
			
				<line style="fill:none;stroke:#7E7A64;stroke-width:0.2002;stroke-linecap:round;stroke-linejoin:round;" x1="215.562" y1="65.312" x2="220.062" y2="65.312"/>
		</g>
		<g>
			<rect x="154.875" y="67.688" style="fill:#D6D4D2;" width="70.25" height="4.875"/>
			
				<line style="fill:none;stroke:#7E7A64;stroke-width:0.2002;stroke-linecap:round;stroke-linejoin:round;" x1="156.167" y1="70.125" x2="178" y2="70.125"/>
			
				<line style="fill:none;stroke:#7E7A64;stroke-width:0.2002;stroke-linecap:round;stroke-linejoin:round;" x1="180.51" y1="70.125" x2="185.01" y2="70.125"/>
			
				<line style="fill:none;stroke:#7E7A64;stroke-width:0.2002;stroke-linecap:round;stroke-linejoin:round;" x1="187.521" y1="70.125" x2="192.021" y2="70.125"/>
			
				<line style="fill:none;stroke:#7E7A64;stroke-width:0.2002;stroke-linecap:round;stroke-linejoin:round;" x1="194.531" y1="70.125" x2="199.031" y2="70.125"/>
			
				<line style="fill:none;stroke:#7E7A64;stroke-width:0.2002;stroke-linecap:round;stroke-linejoin:round;" x1="201.542" y1="70.125" x2="206.042" y2="70.125"/>
			
				<line style="fill:none;stroke:#7E7A64;stroke-width:0.2002;stroke-linecap:round;stroke-linejoin:round;" x1="208.552" y1="70.125" x2="213.052" y2="70.125"/>
			
				<line style="fill:none;stroke:#7E7A64;stroke-width:0.2002;stroke-linecap:round;stroke-linejoin:round;" x1="215.562" y1="70.125" x2="220.062" y2="70.125"/>
		</g>
		<g>
			
				<line style="fill:none;stroke:#7E7A64;stroke-width:0.2002;stroke-linecap:round;stroke-linejoin:round;" x1="156.167" y1="75" x2="178" y2="75"/>
			
				<line style="fill:none;stroke:#7E7A64;stroke-width:0.2002;stroke-linecap:round;stroke-linejoin:round;" x1="180.51" y1="75" x2="185.01" y2="75"/>
			
				<line style="fill:none;stroke:#7E7A64;stroke-width:0.2002;stroke-linecap:round;stroke-linejoin:round;" x1="187.521" y1="75" x2="192.021" y2="75"/>
			
				<line style="fill:none;stroke:#7E7A64;stroke-width:0.2002;stroke-linecap:round;stroke-linejoin:round;" x1="194.531" y1="75" x2="199.031" y2="75"/>
			
				<line style="fill:none;stroke:#7E7A64;stroke-width:0.2002;stroke-linecap:round;stroke-linejoin:round;" x1="201.542" y1="75" x2="206.042" y2="75"/>
			
				<line style="fill:none;stroke:#7E7A64;stroke-width:0.2002;stroke-linecap:round;stroke-linejoin:round;" x1="208.552" y1="75" x2="213.052" y2="75"/>
			
				<line style="fill:none;stroke:#7E7A64;stroke-width:0.2002;stroke-linecap:round;stroke-linejoin:round;" x1="215.562" y1="75" x2="220.062" y2="75"/>
		</g>
		<g>
			<rect x="154.875" y="77.375" style="fill:#D6D4D2;" width="70.25" height="4.875"/>
			
				<line style="fill:none;stroke:#7E7A64;stroke-width:0.2002;stroke-linecap:round;stroke-linejoin:round;" x1="156.167" y1="79.812" x2="178" y2="79.812"/>
			
				<line style="fill:none;stroke:#7E7A64;stroke-width:0.2002;stroke-linecap:round;stroke-linejoin:round;" x1="180.51" y1="79.812" x2="185.01" y2="79.812"/>
			
				<line style="fill:none;stroke:#7E7A64;stroke-width:0.2002;stroke-linecap:round;stroke-linejoin:round;" x1="187.521" y1="79.812" x2="192.021" y2="79.812"/>
			
				<line style="fill:none;stroke:#7E7A64;stroke-width:0.2002;stroke-linecap:round;stroke-linejoin:round;" x1="194.531" y1="79.812" x2="199.031" y2="79.812"/>
			
				<line style="fill:none;stroke:#7E7A64;stroke-width:0.2002;stroke-linecap:round;stroke-linejoin:round;" x1="201.542" y1="79.812" x2="206.042" y2="79.812"/>
			
				<line style="fill:none;stroke:#7E7A64;stroke-width:0.2002;stroke-linecap:round;stroke-linejoin:round;" x1="208.552" y1="79.812" x2="213.052" y2="79.812"/>
			
				<line style="fill:none;stroke:#7E7A64;stroke-width:0.2002;stroke-linecap:round;stroke-linejoin:round;" x1="215.562" y1="79.812" x2="220.062" y2="79.812"/>
		</g>
		<g>
			
				<line style="fill:none;stroke:#7E7A64;stroke-width:0.2002;stroke-linecap:round;stroke-linejoin:round;" x1="156.167" y1="84.625" x2="178" y2="84.625"/>
			
				<line style="fill:none;stroke:#7E7A64;stroke-width:0.2002;stroke-linecap:round;stroke-linejoin:round;" x1="180.51" y1="84.625" x2="185.01" y2="84.625"/>
			
				<line style="fill:none;stroke:#7E7A64;stroke-width:0.2002;stroke-linecap:round;stroke-linejoin:round;" x1="187.521" y1="84.625" x2="192.021" y2="84.625"/>
			
				<line style="fill:none;stroke:#7E7A64;stroke-width:0.2002;stroke-linecap:round;stroke-linejoin:round;" x1="194.531" y1="84.625" x2="199.031" y2="84.625"/>
			
				<line style="fill:none;stroke:#7E7A64;stroke-width:0.2002;stroke-linecap:round;stroke-linejoin:round;" x1="201.542" y1="84.625" x2="206.042" y2="84.625"/>
			
				<line style="fill:none;stroke:#7E7A64;stroke-width:0.2002;stroke-linecap:round;stroke-linejoin:round;" x1="208.552" y1="84.625" x2="213.052" y2="84.625"/>
			
				<line style="fill:none;stroke:#7E7A64;stroke-width:0.2002;stroke-linecap:round;stroke-linejoin:round;" x1="215.562" y1="84.625" x2="220.062" y2="84.625"/>
		</g>
		<g>
			<rect x="154.875" y="86.938" style="fill:#D6D4D2;" width="70.25" height="4.875"/>
			
				<line style="fill:none;stroke:#7E7A64;stroke-width:0.2002;stroke-linecap:round;stroke-linejoin:round;" x1="156.167" y1="89.375" x2="178" y2="89.375"/>
			
				<line style="fill:none;stroke:#7E7A64;stroke-width:0.2002;stroke-linecap:round;stroke-linejoin:round;" x1="180.51" y1="89.375" x2="185.01" y2="89.375"/>
			
				<line style="fill:none;stroke:#7E7A64;stroke-width:0.2002;stroke-linecap:round;stroke-linejoin:round;" x1="187.521" y1="89.375" x2="192.021" y2="89.375"/>
			
				<line style="fill:none;stroke:#7E7A64;stroke-width:0.2002;stroke-linecap:round;stroke-linejoin:round;" x1="194.531" y1="89.375" x2="199.031" y2="89.375"/>
			
				<line style="fill:none;stroke:#7E7A64;stroke-width:0.2002;stroke-linecap:round;stroke-linejoin:round;" x1="201.542" y1="89.375" x2="206.042" y2="89.375"/>
			
				<line style="fill:none;stroke:#7E7A64;stroke-width:0.2002;stroke-linecap:round;stroke-linejoin:round;" x1="208.552" y1="89.375" x2="213.052" y2="89.375"/>
			
				<line style="fill:none;stroke:#7E7A64;stroke-width:0.2002;stroke-linecap:round;stroke-linejoin:round;" x1="215.562" y1="89.375" x2="220.062" y2="89.375"/>
		</g>
		<g>
			
				<line style="fill:none;stroke:#7E7A64;stroke-width:0.2002;stroke-linecap:round;stroke-linejoin:round;" x1="156.167" y1="94.25" x2="178" y2="94.25"/>
			
				<line style="fill:none;stroke:#7E7A64;stroke-width:0.2002;stroke-linecap:round;stroke-linejoin:round;" x1="180.51" y1="94.25" x2="185.01" y2="94.25"/>
			
				<line style="fill:none;stroke:#7E7A64;stroke-width:0.2002;stroke-linecap:round;stroke-linejoin:round;" x1="187.521" y1="94.25" x2="192.021" y2="94.25"/>
			
				<line style="fill:none;stroke:#7E7A64;stroke-width:0.2002;stroke-linecap:round;stroke-linejoin:round;" x1="194.531" y1="94.25" x2="199.031" y2="94.25"/>
			
				<line style="fill:none;stroke:#7E7A64;stroke-width:0.2002;stroke-linecap:round;stroke-linejoin:round;" x1="201.542" y1="94.25" x2="206.042" y2="94.25"/>
			
				<line style="fill:none;stroke:#7E7A64;stroke-width:0.2002;stroke-linecap:round;stroke-linejoin:round;" x1="208.552" y1="94.25" x2="213.052" y2="94.25"/>
			
				<line style="fill:none;stroke:#7E7A64;stroke-width:0.2002;stroke-linecap:round;stroke-linejoin:round;" x1="215.562" y1="94.25" x2="220.062" y2="94.25"/>
		</g>
		<g>
			<rect x="154.875" y="96.625" style="fill:#D6D4D2;" width="70.25" height="4.875"/>
			
				<line style="fill:none;stroke:#7E7A64;stroke-width:0.2002;stroke-linecap:round;stroke-linejoin:round;" x1="156.167" y1="99.062" x2="178" y2="99.062"/>
			
				<line style="fill:none;stroke:#7E7A64;stroke-width:0.2002;stroke-linecap:round;stroke-linejoin:round;" x1="180.51" y1="99.062" x2="185.01" y2="99.062"/>
			
				<line style="fill:none;stroke:#7E7A64;stroke-width:0.2002;stroke-linecap:round;stroke-linejoin:round;" x1="187.521" y1="99.062" x2="192.021" y2="99.062"/>
			
				<line style="fill:none;stroke:#7E7A64;stroke-width:0.2002;stroke-linecap:round;stroke-linejoin:round;" x1="194.531" y1="99.062" x2="199.031" y2="99.062"/>
			
				<line style="fill:none;stroke:#7E7A64;stroke-width:0.2002;stroke-linecap:round;stroke-linejoin:round;" x1="201.542" y1="99.062" x2="206.042" y2="99.062"/>
			
				<line style="fill:none;stroke:#7E7A64;stroke-width:0.2002;stroke-linecap:round;stroke-linejoin:round;" x1="208.552" y1="99.062" x2="213.052" y2="99.062"/>
			
				<line style="fill:none;stroke:#7E7A64;stroke-width:0.2002;stroke-linecap:round;stroke-linejoin:round;" x1="215.562" y1="99.062" x2="220.062" y2="99.062"/>
		</g>
		<g>
			
				<line style="fill:none;stroke:#7E7A64;stroke-width:0.2002;stroke-linecap:round;stroke-linejoin:round;" x1="156.167" y1="103.938" x2="178" y2="103.938"/>
			
				<line style="fill:none;stroke:#7E7A64;stroke-width:0.2002;stroke-linecap:round;stroke-linejoin:round;" x1="180.51" y1="103.938" x2="185.01" y2="103.938"/>
			
				<line style="fill:none;stroke:#7E7A64;stroke-width:0.2002;stroke-linecap:round;stroke-linejoin:round;" x1="187.521" y1="103.938" x2="192.021" y2="103.938"/>
			
				<line style="fill:none;stroke:#7E7A64;stroke-width:0.2002;stroke-linecap:round;stroke-linejoin:round;" x1="194.531" y1="103.938" x2="199.031" y2="103.938"/>
			
				<line style="fill:none;stroke:#7E7A64;stroke-width:0.2002;stroke-linecap:round;stroke-linejoin:round;" x1="201.542" y1="103.938" x2="206.042" y2="103.938"/>
			
				<line style="fill:none;stroke:#7E7A64;stroke-width:0.2002;stroke-linecap:round;stroke-linejoin:round;" x1="208.552" y1="103.938" x2="213.052" y2="103.938"/>
			
				<line style="fill:none;stroke:#7E7A64;stroke-width:0.2002;stroke-linecap:round;stroke-linejoin:round;" x1="215.562" y1="103.938" x2="220.062" y2="103.938"/>
		</g>
		<g>
			<rect x="154.875" y="106.312" style="fill:#D6D4D2;" width="70.25" height="4.875"/>
			
				<line style="fill:none;stroke:#7E7A64;stroke-width:0.2002;stroke-linecap:round;stroke-linejoin:round;" x1="156.167" y1="108.75" x2="178" y2="108.75"/>
			
				<line style="fill:none;stroke:#7E7A64;stroke-width:0.2002;stroke-linecap:round;stroke-linejoin:round;" x1="180.51" y1="108.75" x2="185.01" y2="108.75"/>
			
				<line style="fill:none;stroke:#7E7A64;stroke-width:0.2002;stroke-linecap:round;stroke-linejoin:round;" x1="187.521" y1="108.75" x2="192.021" y2="108.75"/>
			
				<line style="fill:none;stroke:#7E7A64;stroke-width:0.2002;stroke-linecap:round;stroke-linejoin:round;" x1="194.531" y1="108.75" x2="199.031" y2="108.75"/>
			
				<line style="fill:none;stroke:#7E7A64;stroke-width:0.2002;stroke-linecap:round;stroke-linejoin:round;" x1="201.542" y1="108.75" x2="206.042" y2="108.75"/>
			
				<line style="fill:none;stroke:#7E7A64;stroke-width:0.2002;stroke-linecap:round;stroke-linejoin:round;" x1="208.552" y1="108.75" x2="213.052" y2="108.75"/>
			
				<line style="fill:none;stroke:#7E7A64;stroke-width:0.2002;stroke-linecap:round;stroke-linejoin:round;" x1="215.562" y1="108.75" x2="220.062" y2="108.75"/>
		</g>
		<g>
			
				<line style="fill:none;stroke:#7E7A64;stroke-width:0.2002;stroke-linecap:round;stroke-linejoin:round;" x1="156.167" y1="113.625" x2="178" y2="113.625"/>
			
				<line style="fill:none;stroke:#7E7A64;stroke-width:0.2002;stroke-linecap:round;stroke-linejoin:round;" x1="180.51" y1="113.625" x2="185.01" y2="113.625"/>
			
				<line style="fill:none;stroke:#7E7A64;stroke-width:0.2002;stroke-linecap:round;stroke-linejoin:round;" x1="187.521" y1="113.625" x2="192.021" y2="113.625"/>
			
				<line style="fill:none;stroke:#7E7A64;stroke-width:0.2002;stroke-linecap:round;stroke-linejoin:round;" x1="194.531" y1="113.625" x2="199.031" y2="113.625"/>
			
				<line style="fill:none;stroke:#7E7A64;stroke-width:0.2002;stroke-linecap:round;stroke-linejoin:round;" x1="201.542" y1="113.625" x2="206.042" y2="113.625"/>
			
				<line style="fill:none;stroke:#7E7A64;stroke-width:0.2002;stroke-linecap:round;stroke-linejoin:round;" x1="208.552" y1="113.625" x2="213.052" y2="113.625"/>
			
				<line style="fill:none;stroke:#7E7A64;stroke-width:0.2002;stroke-linecap:round;stroke-linejoin:round;" x1="215.562" y1="113.625" x2="220.062" y2="113.625"/>
		</g>
		<g>
			<rect x="154.875" y="116" style="fill:#D6D4D2;" width="70.25" height="4.875"/>
			
				<line style="fill:none;stroke:#7E7A64;stroke-width:0.2002;stroke-linecap:round;stroke-linejoin:round;" x1="156.167" y1="118.438" x2="178" y2="118.438"/>
			
				<line style="fill:none;stroke:#7E7A64;stroke-width:0.2002;stroke-linecap:round;stroke-linejoin:round;" x1="180.51" y1="118.438" x2="185.01" y2="118.438"/>
			
				<line style="fill:none;stroke:#7E7A64;stroke-width:0.2002;stroke-linecap:round;stroke-linejoin:round;" x1="187.521" y1="118.438" x2="192.021" y2="118.438"/>
			
				<line style="fill:none;stroke:#7E7A64;stroke-width:0.2002;stroke-linecap:round;stroke-linejoin:round;" x1="194.531" y1="118.438" x2="199.031" y2="118.438"/>
			
				<line style="fill:none;stroke:#7E7A64;stroke-width:0.2002;stroke-linecap:round;stroke-linejoin:round;" x1="201.542" y1="118.438" x2="206.042" y2="118.438"/>
			
				<line style="fill:none;stroke:#7E7A64;stroke-width:0.2002;stroke-linecap:round;stroke-linejoin:round;" x1="208.552" y1="118.438" x2="213.052" y2="118.438"/>
			
				<line style="fill:none;stroke:#7E7A64;stroke-width:0.2002;stroke-linecap:round;stroke-linejoin:round;" x1="215.562" y1="118.438" x2="220.062" y2="118.438"/>
		</g>
		<g>
			<path style="fill:none;stroke:#7E7A64;stroke-width:0.2002;stroke-linecap:round;stroke-linejoin:round;" d="M213.052,113.625"/>
			<path style="fill:none;stroke:#7E7A64;stroke-width:0.2002;stroke-linecap:round;stroke-linejoin:round;" d="M208.552,113.625"/>
			<path style="fill:none;stroke:#7E7A64;stroke-width:0.2002;stroke-linecap:round;stroke-linejoin:round;" d="M220.062,113.625"/>
			<path style="fill:none;stroke:#7E7A64;stroke-width:0.2002;stroke-linecap:round;stroke-linejoin:round;" d="M215.562,113.625"/>
		</g>
		<g>
			
				<line style="fill:none;stroke:#7E7A64;stroke-width:0.2002;stroke-linecap:round;stroke-linejoin:round;" x1="156.167" y1="55.688" x2="178" y2="55.688"/>
			
				<line style="fill:none;stroke:#7E7A64;stroke-width:0.2002;stroke-linecap:round;stroke-linejoin:round;" x1="180.51" y1="55.688" x2="185.01" y2="55.688"/>
			
				<line style="fill:none;stroke:#7E7A64;stroke-width:0.2002;stroke-linecap:round;stroke-linejoin:round;" x1="187.521" y1="55.688" x2="192.021" y2="55.688"/>
			
				<line style="fill:none;stroke:#7E7A64;stroke-width:0.2002;stroke-linecap:round;stroke-linejoin:round;" x1="194.531" y1="55.688" x2="199.031" y2="55.688"/>
			
				<line style="fill:none;stroke:#7E7A64;stroke-width:0.2002;stroke-linecap:round;stroke-linejoin:round;" x1="201.542" y1="55.688" x2="206.042" y2="55.688"/>
			
				<line style="fill:none;stroke:#7E7A64;stroke-width:0.2002;stroke-linecap:round;stroke-linejoin:round;" x1="208.552" y1="55.688" x2="213.052" y2="55.688"/>
			
				<line style="fill:none;stroke:#7E7A64;stroke-width:0.2002;stroke-linecap:round;stroke-linejoin:round;" x1="215.562" y1="55.688" x2="220.062" y2="55.688"/>
		</g>
	</g>
</g>
</svg>
