<?xml version="1.0" encoding="iso-8859-1"?>
<!-- Generator: Adobe Illustrator 13.0.0, SVG Export Plug-In . SVG Version: 6.00 Build 14948)  -->
<!DOCTYPE svg PUBLIC "-//W3C//DTD SVG 1.1//EN" "http://www.w3.org/Graphics/SVG/1.1/DTD/svg11.dtd">
<svg version="1.1" xmlns="http://www.w3.org/2000/svg" xmlns:xlink="http://www.w3.org/1999/xlink" x="0px" y="0px" width="540px"
	 height="200px" viewBox="0 0 540 200" style="enable-background:new 0 0 540 200;" xml:space="preserve">
<g id="Layer_2">
	<g>
		<rect style="fill:none;" width="540" height="200"/>
		<rect style="fill:#FFFFFF;" width="540" height="200"/>
	</g>
</g>
<g id="Layer_3">
	<g>
		<g>
			<path style="fill:none;stroke:#8F8F8F;stroke-width:1.7382;stroke-linecap:round;stroke-linejoin:round;" d="M152.62,146.968
				c4.014,4.019,18.697,11.156,24.324,14.424c8.954,5.202,29.501,11.645,37.683,14.814c10.427,4.035,25.351,4.366,38.676,4.366"/>
			<path style="fill:none;stroke:#8F8F8F;stroke-width:1.7382;stroke-linecap:round;stroke-linejoin:round;" d="M354.566,146.968
				c-4.022,4.019-19.278,11.156-24.901,14.424c-8.949,5.202-29.496,11.645-37.678,14.814c-10.431,4.035-25.359,4.366-38.685,4.366"
				/>
		</g>
		<path style="fill:none;stroke:#8F8F8F;stroke-width:1.7382;stroke-linecap:round;stroke-linejoin:round;" d="M312.798,101.048
			c29.832,6.756,49.556,18.477,49.556,31.81c0,20.934-48.694,37.903-108.767,37.903c-60.072,0-108.771-16.97-108.771-37.903
			c0-13.787,21.099-25.852,52.65-32.488"/>
		<g>
			<path style="fill:#E0E0E0;stroke:#C4C4C4;stroke-width:0.7426;" d="M394.724,155.442c1.748-6.148-1.52-8.945-8.996-14.491
				c-6.765-5.012-23.145-2.792-31.496-1.999c-11.415,1.087-41.162-9.276-57.755-14.406l-1.001,1.587"/>
			<path style="fill:#E0E0E0;stroke:#C4C4C4;stroke-width:0.7426;" d="M394.83,155.065c-1.77,6.148-6.115,7.171-15.409,7.923
				c-8.394,0.666-21.115-9.884-27.778-14.976c-9.904-7.571-42.062-14.619-57.962-19.024l1.795-2.855"/>
		</g>
		<path style="fill:#996452;" d="M317.406,42.656c-11.552-3.972-35.435-6.692-63.021-6.692c-17.827,0-49.094,1.957-63.585,6.751
			c0,0,10.35,4.163,13.393,4.897C205.358,47.893,275.089,59.605,317.406,42.656"/>
		<g>
			<path style="fill:none;stroke:#8F8F8F;stroke-width:1.7382;stroke-linecap:round;stroke-linejoin:round;" d="M183.853,38.141
				c0.306,8.984-0.331,17.637,0.984,26.429c1.29,8.648,3.463,16.202,6.875,24.104c3.811,8.835,9.34,18.133,14.03,26.556
				c4.408,7.928,8.16,18.502,12.34,25.657"/>
			<path style="fill:none;stroke:#8F8F8F;stroke-width:1.7382;stroke-linecap:round;stroke-linejoin:round;" d="M324.238,33.741
				c0.034,9.985,1.29,18.693-2.618,28.08c-3.374,8.131-4.545,16.164-7.677,24.346c-6.005,15.655-19.3,30.312-23.713,46.675
				c-0.688,2.524-1.252,6.45-1.774,7.706"/>
			<path style="fill:none;stroke:#8F8F8F;stroke-width:1.7382;stroke-linecap:round;stroke-linejoin:round;" d="M218.081,140.887
				c4.239,1.379,26.136,3.539,35.128,3.539c8.496,0,32.26-0.899,35.247-3.879"/>
			<path style="fill:none;stroke:#8F8F8F;stroke-width:1.7382;stroke-linecap:round;stroke-linejoin:round;" d="M324.272,35.663
				c0,8.971-31.53,16.244-70.41,16.244c-38.879,0-70.4-7.273-70.4-16.244c0-8.962,31.521-16.236,70.4-16.236
				C292.742,19.427,324.272,26.701,324.272,35.663z"/>
			<path style="fill:none;stroke:#8F8F8F;stroke-width:1.7382;stroke-linecap:round;stroke-linejoin:round;" d="M324.79,40.896
				c4.761-6.947,18.222-6.573,21.133,1.434c3.047,8.364-2.487,18.71-11,24.566c-6.467,4.439-14.78,15.095-20.437,23.11
				c-5.321,7.55-8.479,11.802-13.609,20.336"/>
			<path style="fill:none;stroke:#8F8F8F;stroke-width:1.7382;stroke-linecap:round;stroke-linejoin:round;" d="M324.272,35.663
				c18.994-13.741,34.092,7.57,25.172,24.379c-3.293,6.191-9.514,10.452-14.614,15.115c-6.026,5.5-10.771,12.396-16.101,18.617
				c-11.109,12.982-20.071,27.083-29.119,41.766"/>
		</g>
		<path style="fill:none;stroke:#8F8F8F;stroke-width:1.7382;stroke-linecap:round;stroke-linejoin:round;" d="M289.653,137.797
			c1.146,0.73,1.77,1.511,1.77,2.313c0,4.218-16.945,7.634-37.84,7.634c-20.896,0-37.836-3.416-37.836-7.634
			c0-0.62-0.331-0.646,0.365-1.227"/>
	</g>
</g>
</svg>
