<?xml version="1.0" encoding="iso-8859-1"?>
<!-- Generator: Adobe Illustrator 13.0.0, SVG Export Plug-In . SVG Version: 6.00 Build 14948)  -->
<!DOCTYPE svg PUBLIC "-//W3C//DTD SVG 1.1//EN" "http://www.w3.org/Graphics/SVG/1.1/DTD/svg11.dtd">
<svg version="1.1" xmlns="http://www.w3.org/2000/svg" xmlns:xlink="http://www.w3.org/1999/xlink" x="0px" y="0px" width="378px"
	 height="140px" viewBox="0 0 378 140" style="enable-background:new 0 0 378 140;" xml:space="preserve">
<pattern  x="-81" y="170" width="538" height="200" patternUnits="userSpaceOnUse" id="New_Pattern_Swatch_3" viewBox="0 -200 538 200" style="overflow:visible;">
	<g>
		<polygon style="fill:none;" points="0,0 538,0 538,-200 0,-200 		"/>
		<polygon style="fill:#FFFFFF;" points="0,0 538,0 538,-200 0,-200 		"/>
	</g>
</pattern>
<g id="fond">
	<rect style="fill:#FFFFFF;" width="378" height="140"/>
</g>
<g id="comptoir">
	<g>
		<rect x="23.833" y="52.292" style="fill:none;" width="330.51" height="81.697"/>
		<polyline style="fill:none;stroke:#3399FF;stroke-linecap:round;stroke-linejoin:round;" points="24.333,126.875 172,126.875 
			172,60.458 157.333,60.458 157.333,52.792 183.817,52.792 178.328,133.489 353.844,133.489 		"/>
	</g>
</g>
<g id="client">
	<g>
		<path style="fill:none;stroke:#777768;stroke-width:1.1995;stroke-linecap:round;stroke-linejoin:round;" d="M224.704,73.147
			c0,1.059,0.864,1.915,1.918,1.915c1.053,0,1.914-0.856,1.914-1.915s-0.861-1.911-1.914-1.911
			C225.568,71.236,224.704,72.089,224.704,73.147z"/>
		<path style="fill:none;stroke:#787768;stroke-width:1.799;stroke-linecap:round;stroke-linejoin:round;" d="M217.704,15.2
			c0,5.929,3.668,10.734,8.197,10.734c4.521,0,8.193-4.805,8.193-10.734c0-5.927-3.673-10.732-8.193-10.732
			C221.372,4.468,217.704,9.273,217.704,15.2z"/>
		<path style="fill:none;stroke:#787768;stroke-width:1.799;stroke-linecap:round;stroke-linejoin:round;" d="M225.695,26.361
			c0.035,7.493-1.012,29.645,0.425,36.837c1.287,6.422,1.858,4.477,0.571,13.469c-1.606,11.266,2.01,22.258,2.401,27.961
			c1.992,29.556,2.173,28.813-4.687,27.957"/>
	</g>
</g>
<g id="hotesse">
	<path style="fill:url(#New_Pattern_Swatch_3);stroke:#777768;stroke-width:1.199;stroke-linecap:round;stroke-linejoin:round;" d="
		M146.571,26.875c-0.011,1.939,0.057,4.926,0.131,8.376"/>
	
		<ellipse style="fill:url(#New_Pattern_Swatch_3);stroke:#777768;stroke-width:1.199;stroke-linecap:round;stroke-linejoin:round;" cx="146.57" cy="15.438" rx="8.425" ry="11.033"/>
	<path style="fill:url(#New_Pattern_Swatch_3);stroke:#777768;stroke-width:1.199;stroke-linecap:round;stroke-linejoin:round;" d="
		M146.823,41.443c0.126,7.778,0.111,16.11-0.658,19.93c-1.197,6.016-3.608,3.611-2.403,12.035
		c1.507,10.555,5.617,19.256,4.411,24.469c-6.567,28.473-6.817,29.287-0.403,28.484"/>
	<path style="fill:#FFFFFF;stroke:#787768;stroke-width:1.1995;stroke-linecap:round;stroke-linejoin:round;" d="M151.599,38.317
		c0,1.882-1.521,3.409-3.406,3.409s-3.416-1.527-3.416-3.409c0-1.883,1.531-3.411,3.416-3.411S151.599,36.434,151.599,38.317z"/>
</g>
<g id="Layer_5">
	
		<rect x="186.942" y="18" style="fill:#FFFFFF;stroke:#777768;stroke-width:0.1181;stroke-linecap:round;stroke-linejoin:round;" width="25.269" height="12.753"/>
	<path style="fill:#FFFFFF;stroke:#777768;stroke-width:0.1181;stroke-linecap:round;stroke-linejoin:round;" d="M203.937,30.192
		c0.089-2.813,1.468-5.047,3.152-5.047c1.687,0,3.063,2.234,3.155,5.047"/>
	
		<rect x="187.503" y="18.562" style="fill:none;stroke:#777768;stroke-width:0.1181;stroke-linecap:round;stroke-linejoin:round;" width="24.147" height="11.63"/>
	
		<circle style="fill:#FFFFFF;stroke:#777768;stroke-width:0.1181;stroke-linecap:round;stroke-linejoin:round;" cx="207.089" cy="22.9" r="1.772"/>
	
		<line style="fill:#FFFFFF;stroke:#777768;stroke-width:0.1181;stroke-linecap:round;stroke-linejoin:round;" x1="188.624" y1="20.126" x2="194.529" y2="20.126"/>
	
		<line style="fill:#FFFFFF;stroke:#777768;stroke-width:0.1181;stroke-linecap:round;stroke-linejoin:round;" x1="188.624" y1="29.543" x2="195.975" y2="29.543"/>
	
		<line style="fill:#FFFFFF;stroke:#777768;stroke-width:0.1181;stroke-linecap:round;stroke-linejoin:round;" x1="197.334" y1="29.543" x2="201.879" y2="29.543"/>
	<polygon style="fill:#FFFFFF;stroke:#777768;stroke-width:0.1181;stroke-linecap:round;stroke-linejoin:round;" points="
		190.55,28.263 188.624,24.928 190.55,21.592 194.401,21.592 196.326,24.928 194.401,28.263 	"/>
	<polygon style="fill:#FFFFFF;stroke:#777768;stroke-width:0.1181;stroke-linecap:round;stroke-linejoin:round;" points="
		199.37,27.513 197.877,24.928 199.37,22.343 202.354,22.343 203.848,24.928 202.354,27.513 	"/>
	<g>
		<path style="fill:#D85700;stroke:#777768;stroke-width:0.2362;stroke-linecap:round;stroke-linejoin:round;" d="M194.224,38.708
			v0.726c0,0.414,1.321,0.748,2.952,0.748c1.63,0,2.951-0.334,2.951-0.748v-0.777"/>
		
			<ellipse style="fill:#D85700;stroke:#777768;stroke-width:0.2362;stroke-linecap:round;stroke-linejoin:round;" cx="197.175" cy="38.708" rx="2.952" ry="0.748"/>
	</g>
	<g>
		<path style="fill:#DBDBDB;stroke:#777768;stroke-width:0.2362;stroke-linecap:round;stroke-linejoin:round;" d="M200.54,38.708
			v0.726c0,0.414,1.321,0.748,2.952,0.748c1.63,0,2.951-0.334,2.951-0.748v-0.777"/>
		
			<ellipse style="fill:#DBDBDB;stroke:#777768;stroke-width:0.2362;stroke-linecap:round;stroke-linejoin:round;" cx="203.492" cy="38.708" rx="2.952" ry="0.748"/>
	</g>
	<g>
		<path style="fill:#FFDB00;stroke:#777768;stroke-width:0.2362;stroke-linecap:round;stroke-linejoin:round;" d="M197.233,37.122
			v0.727c0,0.413,1.321,0.748,2.952,0.748c1.63,0,2.951-0.335,2.951-0.748v-0.778"/>
		
			<ellipse style="fill:#FFDB00;stroke:#777768;stroke-width:0.2362;stroke-linecap:round;stroke-linejoin:round;" cx="200.185" cy="37.122" rx="2.952" ry="0.749"/>
	</g>
	<g>
		<path style="fill:#D85700;stroke:#777768;stroke-width:0.2362;stroke-linecap:round;stroke-linejoin:round;" d="M199.905,40.698
			v0.727c0,0.413,1.321,0.747,2.952,0.747c1.63,0,2.953-0.334,2.953-0.747v-0.778"/>
		
			<ellipse style="fill:#D85700;stroke:#777768;stroke-width:0.2362;stroke-linecap:round;stroke-linejoin:round;" cx="202.858" cy="40.698" rx="2.953" ry="0.748"/>
	</g>
	<g>
		<path style="fill:#FFDB00;stroke:#777768;stroke-width:0.2362;stroke-linecap:round;stroke-linejoin:round;" d="M187.605,38.708
			v0.726c0,0.414,1.322,0.748,2.953,0.748c1.629,0,2.953-0.334,2.953-0.748v-0.777"/>
		
			<ellipse style="fill:#FFDB00;stroke:#777768;stroke-width:0.2362;stroke-linecap:round;stroke-linejoin:round;" cx="190.559" cy="38.708" rx="2.953" ry="0.748"/>
	</g>
	<g>
		<path style="fill:#DBDBDB;stroke:#777768;stroke-width:0.2362;stroke-linecap:round;stroke-linejoin:round;" d="M190.067,37.122
			v0.727c0,0.413,1.321,0.748,2.952,0.748c1.63,0,2.951-0.335,2.951-0.748v-0.778"/>
		
			<ellipse style="fill:#DBDBDB;stroke:#777768;stroke-width:0.2362;stroke-linecap:round;stroke-linejoin:round;" cx="193.019" cy="37.122" rx="2.952" ry="0.749"/>
	</g>
	<g>
		<path style="fill:#FFDB00;stroke:#777768;stroke-width:0.2362;stroke-linecap:round;stroke-linejoin:round;" d="M206.594,39.582
			v0.727c0,0.413,1.321,0.748,2.951,0.748c1.631,0,2.952-0.335,2.952-0.748v-0.778"/>
		
			<ellipse style="fill:#FFDB00;stroke:#777768;stroke-width:0.2362;stroke-linecap:round;stroke-linejoin:round;" cx="209.545" cy="39.582" rx="2.952" ry="0.748"/>
	</g>
	<g>
		<path style="fill:#DBDBDB;stroke:#777768;stroke-width:0.2362;stroke-linecap:round;stroke-linejoin:round;" d="M193.477,34.464
			v0.726c0,0.413,1.321,0.748,2.951,0.748c1.631,0,2.952-0.335,2.952-0.748v-0.777"/>
		
			<ellipse style="fill:#DBDBDB;stroke:#777768;stroke-width:0.2362;stroke-linecap:round;stroke-linejoin:round;" cx="196.428" cy="34.464" rx="2.952" ry="0.748"/>
	</g>
	<g>
		<path style="fill:#FFDB00;stroke:#777768;stroke-width:0.2362;stroke-linecap:round;stroke-linejoin:round;" d="M189.952,36.383
			l0.259,0.678c0.148,0.386,1.503,0.227,3.025-0.356c1.522-0.582,2.637-1.367,2.489-1.752l-0.277-0.727"/>
		
			<ellipse transform="matrix(0.934 -0.3573 0.3573 0.934 0.0987 71.1902)" style="fill:#FFDB00;stroke:#777768;stroke-width:0.2362;stroke-linecap:round;stroke-linejoin:round;" cx="192.709" cy="35.328" rx="2.952" ry="0.748"/>
	</g>
	<g>
		<path style="fill:#D85700;stroke:#777768;stroke-width:0.2362;stroke-linecap:round;stroke-linejoin:round;" d="M192.843,36.454
			v0.727c0,0.413,1.321,0.748,2.951,0.748s2.953-0.334,2.953-0.748v-0.779"/>
		
			<ellipse style="fill:#D85700;stroke:#777768;stroke-width:0.2362;stroke-linecap:round;stroke-linejoin:round;" cx="195.795" cy="36.454" rx="2.952" ry="0.748"/>
	</g>
	<g>
		<path style="fill:#FFDB00;stroke:#777768;stroke-width:0.2362;stroke-linecap:round;stroke-linejoin:round;" d="M199.87,34.936
			l-0.268,0.675c-0.151,0.384,0.955,1.182,2.471,1.781c1.516,0.6,2.868,0.774,3.021,0.39l0.285-0.723"/>
		
			<ellipse transform="matrix(0.9299 0.3677 -0.3677 0.9299 27.4403 -71.9798)" style="fill:#FFDB00;stroke:#777768;stroke-width:0.2362;stroke-linecap:round;stroke-linejoin:round;" cx="202.615" cy="36.021" rx="2.952" ry="0.747"/>
	</g>
	<path style="fill:none;stroke:#777768;stroke-width:0.9446;stroke-linecap:round;stroke-linejoin:round;" d="M184.434,23.794
		c0-2.522-10.115-7.605-23.458-0.48"/>
	<polyline style="fill:none;stroke:#777768;stroke-width:0.9446;stroke-linecap:round;stroke-linejoin:round;" points="
		164.557,18.551 160.62,23.471 168.139,25.164 	"/>
	<path style="fill:none;stroke:#777768;stroke-width:0.9446;stroke-linecap:round;stroke-linejoin:round;" d="M160.501,38.106
		c0,2.521,10.117,7.604,23.46,0.48"/>
	<polyline style="fill:none;stroke:#777768;stroke-width:0.9446;stroke-linecap:round;stroke-linejoin:round;" points="
		180.38,43.348 184.315,38.428 176.797,36.736 	"/>
</g>
</svg>
