<?xml version="1.0" encoding="iso-8859-1"?>
<!-- Generator: Adobe Illustrator 13.0.0, SVG Export Plug-In . SVG Version: 6.00 Build 14948)  -->
<!DOCTYPE svg PUBLIC "-//W3C//DTD SVG 1.1//EN" "http://www.w3.org/Graphics/SVG/1.1/DTD/svg11.dtd">
<svg version="1.1" xmlns="http://www.w3.org/2000/svg" xmlns:xlink="http://www.w3.org/1999/xlink" x="0px" y="0px" width="378px"
	 height="140px" viewBox="0 0 378 140" style="enable-background:new 0 0 378 140;" xml:space="preserve">
<g id="fond">
	<rect style="fill:#FFFFFF;" width="378" height="140"/>
</g>
<g id="homme">
</g>
<g id="femme">
	<g>
		<path style="fill:#FFFFFF;stroke:#787768;stroke-width:1.799;stroke-linecap:round;stroke-linejoin:round;" d="M160.27,47.864
			c0,23.278,14.4,42.142,32.182,42.142c17.747,0,32.167-18.864,32.167-42.142c0-23.27-14.42-42.135-32.167-42.135
			C174.67,5.729,160.27,24.594,160.27,47.864z"/>
		<path style="fill:none;stroke:#777768;stroke-width:1.799;stroke-linecap:round;stroke-linejoin:round;" d="M192.828,89.994
			c0.004,1.074-0.204,19.08-0.768,46.264"/>
	</g>
	<g>
		<path style="fill:none;stroke:#777768;stroke-width:1.799;stroke-linecap:round;stroke-linejoin:round;" d="M178.077,68.234
			c6.259,12.364,21.552,13.29,28.736,0"/>
		<path style="fill:none;stroke:#777768;stroke-width:1.799;stroke-linecap:round;stroke-linejoin:round;" d="M178.077,68.234
			c5.279,3.709,22.662,4.143,28.736,0"/>
	</g>
	<g>
		
			<line style="fill:none;stroke:#777768;stroke-width:3;stroke-linecap:round;stroke-linejoin:round;" x1="182.337" y1="35.178" x2="182.337" y2="43.188"/>
		
			<line style="fill:none;stroke:#777768;stroke-width:3;stroke-linecap:round;stroke-linejoin:round;" x1="202.551" y1="35.178" x2="202.551" y2="43.188"/>
	</g>
</g>
<g id="Layer_4">
</g>
</svg>
