<?xml version="1.0" encoding="iso-8859-1"?>
<!-- Generator: Adobe Illustrator 13.0.0, SVG Export Plug-In . SVG Version: 6.00 Build 14948)  -->
<!DOCTYPE svg PUBLIC "-//W3C//DTD SVG 1.1//EN" "http://www.w3.org/Graphics/SVG/1.1/DTD/svg11.dtd">
<svg version="1.1" xmlns="http://www.w3.org/2000/svg" xmlns:xlink="http://www.w3.org/1999/xlink" x="0px" y="0px" width="540px"
	 height="200px" viewBox="0 0 540 200" style="enable-background:new 0 0 540 200;" xml:space="preserve">
<g id="Layer_2">
	<g>
		<rect style="fill:none;" width="540" height="200"/>
		<rect style="fill:#FFFFFF;" width="540" height="200"/>
	</g>
</g>
<g id="Layer_4">
	<g>
		<g>
			<path style="fill:#FF3600;stroke:#FFCA00;stroke-width:0.7163;" d="M254.376,16.941c3.363,1.069,6.943,0.337,10.449,0.344
				c1.869,0.003,3.722-0.229,5.623-0.229c1.051,0,4.274,0.287,4.726-0.674c1.448,0.241,1.523,3.151,1.585,4.314
				c0.102,1.887-0.191,3.385-0.8,5.201c-0.361,1.078-0.601,2.345-1.372,3.219c-0.882,0.996-2.308,1.23-3.533,1.631
				c-4.017,1.314-8.221,1.685-12.439,1.698c-4.12,0.013-7.57-3.012-9.074-6.781c-0.863-2.158,0.634-4.41,1.73-6.23
				c0.307-0.507,1.305-2.199,1.842-1.229"/>
			<path style="fill:none;stroke:#777768;stroke-width:1.0745;stroke-linecap:round;stroke-linejoin:round;" d="M244.663,26.501
				c-0.734-3.335,17.798-13.85,20.757-13.85s22.311,11.231,21.514,13.85C285.796,28.056,245.006,28.056,244.663,26.501z"/>
			<path style="fill:none;stroke:#777768;stroke-width:1.0745;stroke-linecap:round;stroke-linejoin:round;" d="M265.42,12.652
				c-0.032-0.892-0.02-2.227,0.454-2.958c0.781-1.203,2.034-1.356,2.127-3.022c0.097-1.715-1.823-2.896-3.44-2.524
				c-0.712,0.165-1.149,0.729-1.249,1.465c-0.046,0.34-0.009,1.132,0.134,1.195"/>
			<path style="fill:#FF3600;stroke:#FFCA00;stroke-width:0.7163;stroke-linecap:round;stroke-linejoin:round;" d="M238.093,23
				c-4.02,6.542-22.364,55.588-22.364,55.588l9.16,5.756l18.678-40.714l-2.674,47.525c0,0,11.65,3.029,23.774,3.029
				s23.697-3.441,23.697-3.441L282.97,43.63l19.122,38.75l9.158-5.234c0,0-17.937-46.927-21.197-54.376
				c-2.718-6.209-12.552-7.073-15.112-6.431c0,0,0.718,9.069-9.75,9.069s-10.647-7.475-10.78-8.402
				C249.451,15.756,240.6,18.917,238.093,23z"/>
		</g>
		<path style="fill:#FFFFFF;stroke:#777768;stroke-width:0.2149;" d="M268.999,20.11l-7.88,0.18
			c-0.788,0.024-0.831-1.392-0.044-1.416l7.88-0.18C269.743,18.671,269.786,20.086,268.999,20.11z"/>
		<g>
			<path style="fill:#FFFFFF;" d="M265.175,35.581l-4.743-2.628l-2.556,0.445l-3.537,4.068l1.556,8.949
				c0.241,1.391,1.607,2.316,3.052,2.064l5.611-0.977c1.442-0.251,2.417-1.582,2.175-2.973L265.175,35.581z"/>
			<circle style="fill:#FF3600;" cx="259.473" cy="34.888" r="0.856"/>
		</g>
		<path style="fill:none;stroke:#777768;stroke-width:0.7163;stroke-linecap:round;stroke-linejoin:round;" d="M261.529,19.638
			c-0.342,2.279-1.37,4.554-1.714,6.982c-0.364,2.561-1.066,5.696-0.343,8.267"/>
		<path style="fill:none;stroke:#777768;stroke-width:0.7163;stroke-linecap:round;stroke-linejoin:round;" d="M258.995,40.126
			c-0.646,0.079-0.928-0.925-0.764-1.464c0.351-1.155,2.174-1.72,3.024-0.854c0.882,0.897,0.003,2.021-0.26,2.956
			c-0.203,0.722,0.025,1.622,0.006,2.139"/>
		<path style="fill:none;stroke:#777768;stroke-width:0.7163;stroke-linecap:round;stroke-linejoin:round;" d="M261.618,45.45
			c-0.056,0.1-0.137,0.152-0.241,0.155c0.002-0.022-0.058-0.165-0.058-0.22c0.252,0.039,0.198,0.07,0.37,0.209
			c-0.06,0.014-0.178-0.015-0.225,0.011"/>
	</g>
	<g>
		<g>
			<path style="fill:#FF1FC0;stroke:#002ADF;stroke-width:0.7163;" d="M257.91,21.767c3.363,1.069,6.943,0.337,10.449,0.344
				c1.869,0.003,3.722-0.229,5.623-0.229c1.051,0,4.274,0.287,4.726-0.674c1.448,0.241,1.523,3.151,1.585,4.314
				c0.102,1.887-0.191,3.385-0.8,5.201c-0.361,1.078-0.601,2.345-1.372,3.219c-0.882,0.996-2.308,1.23-3.533,1.631
				c-4.017,1.314-8.221,1.685-12.439,1.698c-4.12,0.013-7.57-3.012-9.074-6.781c-0.863-2.158,0.634-4.41,1.73-6.23
				c0.307-0.507,1.305-2.199,1.842-1.229"/>
			<path style="fill:none;stroke:#777768;stroke-width:1.0745;stroke-linecap:round;stroke-linejoin:round;" d="M248.197,31.328
				c-0.734-3.335,17.798-13.85,20.757-13.85s22.311,11.231,21.514,13.85C289.33,32.882,248.54,32.882,248.197,31.328z"/>
			<path style="fill:none;stroke:#777768;stroke-width:1.0745;stroke-linecap:round;stroke-linejoin:round;" d="M268.954,17.478
				c-0.032-0.892-0.02-2.227,0.454-2.958c0.781-1.203,2.034-1.356,2.127-3.022c0.097-1.715-1.823-2.896-3.44-2.524
				c-0.712,0.165-1.149,0.729-1.249,1.465c-0.046,0.34-0.009,1.132,0.134,1.195"/>
			<path style="fill:#FF1FC0;stroke:#002ADF;stroke-width:0.7163;stroke-linecap:round;stroke-linejoin:round;" d="M241.627,27.826
				c-4.02,6.542-22.363,55.589-22.363,55.589l9.159,5.756l18.678-40.715l-2.674,47.525c0,0,11.65,3.029,23.774,3.029
				s23.697-3.441,23.697-3.441l-5.395-47.113l19.122,38.75l9.158-5.234c0,0-17.937-46.928-21.197-54.376
				c-2.718-6.209-12.552-7.073-15.112-6.431c0,0,0.718,9.069-9.75,9.069s-10.647-7.475-10.78-8.402
				C252.985,20.582,244.135,23.743,241.627,27.826z"/>
		</g>
		<path style="fill:#FFFFFF;stroke:#777768;stroke-width:0.2149;" d="M272.533,24.937l-7.88,0.18
			c-0.788,0.024-0.831-1.392-0.044-1.416l7.88-0.18C273.277,23.497,273.32,24.913,272.533,24.937z"/>
		<g>
			<path style="fill:#FFFFFF;" d="M268.709,40.407l-4.743-2.628l-2.556,0.445l-3.537,4.068l1.556,8.949
				c0.241,1.391,1.607,2.316,3.052,2.064l5.611-0.977c1.442-0.252,2.417-1.582,2.175-2.973L268.709,40.407z"/>
			<circle style="fill:#FF3600;" cx="263.007" cy="39.714" r="0.856"/>
		</g>
		<path style="fill:none;stroke:#777768;stroke-width:0.7163;stroke-linecap:round;stroke-linejoin:round;" d="M265.063,24.464
			c-0.342,2.279-1.37,4.554-1.714,6.982c-0.364,2.561-1.066,5.696-0.343,8.267"/>
		<path style="fill:none;stroke:#777768;stroke-width:0.7163;stroke-linecap:round;stroke-linejoin:round;" d="M262.529,44.952
			c-0.646,0.079-0.928-0.925-0.764-1.464c0.351-1.155,2.174-1.72,3.024-0.854c0.882,0.897,0.003,2.021-0.26,2.956
			c-0.203,0.723,0.025,1.621,0.006,2.139"/>
		<path style="fill:none;stroke:#777768;stroke-width:0.7163;stroke-linecap:round;stroke-linejoin:round;" d="M265.152,50.276
			c-0.056,0.1-0.137,0.152-0.241,0.154c0.002-0.021-0.058-0.164-0.058-0.219c0.252,0.039,0.198,0.07,0.37,0.209
			c-0.06,0.014-0.178-0.016-0.225,0.01"/>
	</g>
	<g>
		<g>
			<path style="fill:#5FF0FF;stroke:#FFCA00;stroke-width:0.7163;" d="M259.66,26.593c3.363,1.069,6.943,0.337,10.449,0.344
				c1.869,0.003,3.722-0.229,5.623-0.229c1.051,0,4.274,0.287,4.726-0.674c1.448,0.241,1.523,3.151,1.585,4.314
				c0.102,1.887-0.191,3.385-0.8,5.201c-0.361,1.078-0.601,2.345-1.372,3.219c-0.882,0.996-2.308,1.23-3.533,1.631
				c-4.017,1.314-8.221,1.685-12.439,1.698c-4.12,0.013-7.57-3.012-9.074-6.781c-0.863-2.158,0.634-4.41,1.73-6.23
				c0.307-0.507,1.305-2.199,1.842-1.229"/>
			<path style="fill:none;stroke:#777768;stroke-width:1.0745;stroke-linecap:round;stroke-linejoin:round;" d="M249.947,36.154
				c-0.734-3.335,17.798-13.85,20.757-13.85s22.311,11.231,21.514,13.85C291.08,37.708,250.29,37.708,249.947,36.154z"/>
			<path style="fill:none;stroke:#777768;stroke-width:1.0745;stroke-linecap:round;stroke-linejoin:round;" d="M270.704,22.304
				c-0.032-0.892-0.02-2.227,0.454-2.958c0.781-1.203,2.034-1.356,2.127-3.022c0.097-1.715-1.823-2.896-3.44-2.524
				c-0.712,0.165-1.149,0.729-1.249,1.465c-0.046,0.34-0.009,1.132,0.134,1.195"/>
			<path style="fill:#5FF0FF;stroke:#FFCA00;stroke-width:0.7163;stroke-linecap:round;stroke-linejoin:round;" d="M243.377,32.652
				c-4.02,6.542-22.363,55.589-22.363,55.589l9.159,5.756l18.678-40.715l-2.674,47.525c0,0,11.65,3.029,23.774,3.029
				s23.697-3.441,23.697-3.441l-5.395-47.113l19.122,38.75l9.158-5.234c0,0-17.937-46.928-21.197-54.376
				c-2.718-6.209-12.552-7.073-15.112-6.431c0,0,0.718,9.069-9.75,9.069s-10.647-7.475-10.78-8.402
				C254.735,25.408,245.885,28.569,243.377,32.652z"/>
		</g>
		<path style="fill:#FFFFFF;stroke:#777768;stroke-width:0.2149;" d="M274.283,29.763l-7.88,0.18
			c-0.788,0.024-0.831-1.392-0.044-1.416l7.88-0.18C275.027,28.323,275.07,29.739,274.283,29.763z"/>
		<g>
			<path style="fill:#FFFFFF;" d="M270.459,45.233l-4.743-2.628l-2.556,0.445l-3.537,4.068l1.556,8.949
				c0.241,1.391,1.607,2.316,3.052,2.064l5.611-0.977c1.442-0.252,2.417-1.582,2.175-2.973L270.459,45.233z"/>
			<circle style="fill:#FF3600;" cx="264.757" cy="44.541" r="0.856"/>
		</g>
		<path style="fill:none;stroke:#777768;stroke-width:0.7163;stroke-linecap:round;stroke-linejoin:round;" d="M266.813,29.291
			c-0.342,2.279-1.37,4.554-1.714,6.982c-0.364,2.561-1.066,5.696-0.343,8.267"/>
		<path style="fill:none;stroke:#777768;stroke-width:0.7163;stroke-linecap:round;stroke-linejoin:round;" d="M264.279,49.778
			c-0.646,0.079-0.928-0.925-0.764-1.464c0.351-1.155,2.174-1.72,3.024-0.854c0.882,0.897,0.003,2.021-0.26,2.956
			c-0.203,0.723,0.025,1.621,0.006,2.139"/>
		<path style="fill:none;stroke:#777768;stroke-width:0.7163;stroke-linecap:round;stroke-linejoin:round;" d="M266.902,55.103
			c-0.056,0.1-0.137,0.152-0.241,0.154c0.002-0.021-0.058-0.164-0.058-0.219c0.252,0.039,0.198,0.07,0.37,0.209
			c-0.06,0.014-0.178-0.016-0.225,0.01"/>
	</g>
</g>
<g id="Layer_3">
	<g>
		<path style="fill:#FFFFFF;stroke:#777768;stroke-width:1.7135;stroke-linecap:round;stroke-linejoin:round;" d="M319.563,105.631
			c0,1.517,1.225,2.749,2.746,2.749c1.506,0,2.746-1.232,2.746-2.749c0-1.516-1.24-2.746-2.746-2.746
			C320.788,102.885,319.563,104.115,319.563,105.631z"/>
		<path style="fill:#FFFFFF;stroke:#777768;stroke-width:1.7135;stroke-linecap:round;stroke-linejoin:round;" d="M309.507,22.486
			c0,8.507,5.275,15.401,11.76,15.401c6.488,0,11.766-6.895,11.766-15.401c0-8.504-5.277-15.398-11.766-15.398
			C314.782,7.088,309.507,13.982,309.507,22.486z"/>
		<path style="fill:none;stroke:#777768;stroke-width:1.7135;stroke-linecap:round;stroke-linejoin:round;" d="M320.976,38.5
			c0.055,10.749-1.445,42.537,0.611,52.854c1.844,9.217,2.662,6.423,0.824,19.329c-2.309,16.163,2.881,31.936,3.436,40.112
			c2.863,42.411,3.121,41.351-6.715,40.116"/>
	</g>
</g>
<g id="Layer_5">
	<g>
		<g>
			<path style="fill:none;stroke:#777768;stroke-width:1.7135;stroke-linecap:round;stroke-linejoin:round;" d="M220.291,105.725
				c0,1.512-1.235,2.734-2.74,2.734c-1.504,0-2.734-1.223-2.734-2.734s1.23-2.73,2.734-2.73
				C219.056,102.994,220.291,104.213,220.291,105.725z"/>
			<path style="fill:none;stroke:#777768;stroke-width:2.5702;stroke-linecap:round;stroke-linejoin:round;" d="M230.291,22.943
				c0,8.47-5.24,15.334-11.71,15.334c-6.459,0-11.705-6.864-11.705-15.334c0-8.468,5.246-15.332,11.705-15.332
				C225.051,7.611,230.291,14.475,230.291,22.943z"/>
			<path style="fill:none;stroke:#777768;stroke-width:2.5702;stroke-linecap:round;stroke-linejoin:round;" d="M218.875,38.886
				c-0.051,10.704,1.445,42.35-0.607,52.624c-1.838,9.176-2.654,6.396-0.814,19.242c2.294,16.094-2.873,31.797-3.432,39.945
				c-2.846,42.221-3.104,41.162,6.695,39.938"/>
		</g>
	</g>
	<path style="fill:none;stroke:#777768;stroke-width:1.713;stroke-linecap:round;stroke-linejoin:round;" d="M219.144,46
		c5.22,0,15.736,34.448,24.343,34.598c4.793,0.084,15.948-15.519,19.449-18.816l7.024-7.518l-7.024,7.518
		c1.628-0.468,6.689-5.357,6.689-5.357"/>
</g>
</svg>
