<?xml version="1.0" encoding="iso-8859-1"?>
<!-- Generator: Adobe Illustrator 13.0.0, SVG Export Plug-In . SVG Version: 6.00 Build 14948)  -->
<!DOCTYPE svg PUBLIC "-//W3C//DTD SVG 1.1//EN" "http://www.w3.org/Graphics/SVG/1.1/DTD/svg11.dtd">
<svg version="1.1" xmlns="http://www.w3.org/2000/svg" xmlns:xlink="http://www.w3.org/1999/xlink" x="0px" y="0px" width="378px"
	 height="140px" viewBox="0 0 378 140" style="enable-background:new 0 0 378 140;" xml:space="preserve">
<g id="fond">
	<rect style="fill:#FFFFFF;" width="378" height="140"/>
</g>
<g id="Layer_2">
	<g>
		<path style="fill:#FFEE15;" d="M197.025,73.269c-4.625,11.447-17.654,16.979-29.102,12.354
			c-11.448-4.619-16.981-17.649-12.358-29.097c4.623-11.448,17.652-16.981,29.101-12.359
			C196.113,48.791,201.646,61.819,197.025,73.269z"/>
		<path style="fill:none;stroke:#FFEE15;stroke-width:6.6546;stroke-linecap:round;stroke-linejoin:round;" d="M144.572,70.752
			c-12.789,1.576-46.15,0.267-59.834,3.691"/>
		<path style="fill:none;stroke:#FFEE15;stroke-width:6.6546;stroke-linecap:round;stroke-linejoin:round;" d="M147.5,45.231
			c-14.015-4.494-31.863-14.592-43.415-23.273"/>
		<path style="fill:none;stroke:#FFEE15;stroke-width:6.6546;stroke-linecap:round;stroke-linejoin:round;" d="M157.171,90.171
			c-1.547,1.047-25.857,24.735-27.861,26.067"/>
		<path style="fill:none;stroke:#FFEE15;stroke-width:6.6546;stroke-linecap:round;stroke-linejoin:round;" d="M170.667,36.595
			c0.047-2.436-2.754-22.641-3.141-25.069"/>
		<path style="fill:none;stroke:#FFEE15;stroke-width:6.6546;stroke-linecap:round;stroke-linejoin:round;" d="M199.682,46.788
			c0.576-3.121,25.064-26.475,25.781-27.659"/>
		<path style="fill:none;stroke:#FFEE15;stroke-width:6.6546;stroke-linecap:round;stroke-linejoin:round;" d="M206.553,61.043
			c-1.076-0.382,38.289,7.415,57.006,2.008"/>
		<path style="fill:none;stroke:#FFEE15;stroke-width:6.6546;stroke-linecap:round;stroke-linejoin:round;" d="M198.838,83.317
			c9.002,2.784,33.508,18.83,39.449,31.625"/>
		
			<line style="fill:none;stroke:#FFEE15;stroke-width:6.6546;stroke-linecap:round;stroke-linejoin:round;" x1="188.971" y1="123.22" x2="184.813" y2="92.511"/>
	</g>
</g>
</svg>
