<?xml version="1.0" encoding="iso-8859-1"?>
<!-- Generator: Adobe Illustrator 13.0.0, SVG Export Plug-In . SVG Version: 6.00 Build 14948)  -->
<!DOCTYPE svg PUBLIC "-//W3C//DTD SVG 1.1//EN" "http://www.w3.org/Graphics/SVG/1.1/DTD/svg11.dtd">
<svg version="1.1" xmlns="http://www.w3.org/2000/svg" xmlns:xlink="http://www.w3.org/1999/xlink" x="0px" y="0px" width="378px"
	 height="140px" viewBox="0 0 378 140" style="enable-background:new 0 0 378 140;" xml:space="preserve">
<g id="Layer_2">
	<g>
		<rect style="fill:none;" width="378" height="140"/>
		<rect style="fill:#FFFFFF;" width="378" height="140"/>
	</g>
</g>
<g id="Layer_3">
	<g>
		<g>
			<rect x="158.556" y="51.556" style="fill:none;" width="60.889" height="60.889"/>
			<path style="fill:#406FA9;" d="M219.444,107.24c0,2.874-2.33,5.204-5.203,5.204h-50.48c-2.876,0-5.205-2.33-5.205-5.204V56.76
				c0-2.875,2.329-5.205,5.205-5.205h50.48c2.873,0,5.203,2.33,5.203,5.205V107.24z"/>
			<path style="fill:#FFFFFF;" d="M216.971,105.19c0,2.64-2.141,4.78-4.78,4.78h-46.379c-2.642,0-4.782-2.141-4.782-4.78V58.811
				c0-2.641,2.141-4.781,4.782-4.781h46.379c2.64,0,4.78,2.141,4.78,4.781V105.19z"/>
		</g>
		<g>
			<rect x="182.269" y="62.572" style="fill:#EF120A;" width="13.463" height="38.858"/>
			<rect x="169.571" y="75.269" style="fill:#EF120A;" width="38.858" height="13.463"/>
		</g>
	</g>
	<g>
		<polyline style="fill:none;stroke:#777768;stroke-width:3.6391;stroke-linecap:round;" points="246.5,41.025 246.5,128.25 
			131.5,128.25 131.5,41.025 		"/>
	</g>
	<g>
		<line style="stroke:#777768;stroke-width:3.6391;stroke-linecap:round;" x1="131.5" y1="41.025" x2="189.057" y2="7.439"/>
		<line style="stroke:#777768;stroke-width:3.6391;stroke-linecap:round;" x1="246.5" y1="41.025" x2="188.942" y2="7.439"/>
	</g>
</g>
<g id="Layer_4">
</g>
</svg>
