<?xml version="1.0" encoding="iso-8859-1"?>
<!-- Generator: Adobe Illustrator 13.0.0, SVG Export Plug-In . SVG Version: 6.00 Build 14948)  -->
<!DOCTYPE svg PUBLIC "-//W3C//DTD SVG 1.1//EN" "http://www.w3.org/Graphics/SVG/1.1/DTD/svg11.dtd">
<svg version="1.1" xmlns="http://www.w3.org/2000/svg" xmlns:xlink="http://www.w3.org/1999/xlink" x="0px" y="0px" width="378px"
	 height="140px" viewBox="0 0 378 140" style="enable-background:new 0 0 378 140;" xml:space="preserve">
<g id="Layer_2">
	<g>
		<rect style="fill:none;" width="378" height="140"/>
		<rect style="fill:#FFFFFF;" width="378" height="140"/>
	</g>
</g>
<g id="Layer_3">
	<g>
		<g>
			<path style="fill:none;stroke:#C756E6;stroke-width:10;stroke-linecap:round;stroke-linejoin:round;" d="M141.469,47.266
				c9.863-13.589,12.235-24.527,16.335-39.766c-5.096,49.81-2.927,94.634-2.927,124.999"/>
		</g>
		<path style="fill:none;stroke:#C756E6;stroke-width:10.0754;stroke-linecap:round;stroke-linejoin:round;" d="M194.268,43.687
			c4.53,16.562,36.515,36.139,40.973,52.692c5.681,21.093-8.307,37.277-24.182,36.057c-15.45-1.188-27.437-17.184-22.166-37.354
			c4.32-16.524,34.251-32.336,38.958-48.624c5.784-20.017-2.675-38.959-16.793-38.959C197.146,7.499,188.693,23.311,194.268,43.687z
			"/>
	</g>
</g>
</svg>
