<?xml version="1.0" encoding="iso-8859-1"?>
<!-- Generator: Adobe Illustrator 13.0.0, SVG Export Plug-In . SVG Version: 6.00 Build 14948)  -->
<!DOCTYPE svg PUBLIC "-//W3C//DTD SVG 1.1//EN" "http://www.w3.org/Graphics/SVG/1.1/DTD/svg11.dtd">
<svg version="1.1" xmlns="http://www.w3.org/2000/svg" xmlns:xlink="http://www.w3.org/1999/xlink" x="0px" y="0px" width="378px"
	 height="140px" viewBox="0 0 378 140" style="enable-background:new 0 0 378 140;" xml:space="preserve">
<g id="Layer_2">
	<rect style="fill:#FFFFFF;" width="378" height="140"/>
</g>
<g id="Layer_1">
	<path style="fill:none;stroke:#A8D0DA;stroke-width:0.6418;stroke-linejoin:round;" d="M176.755,34.486
		c-0.551-0.184-0.61-0.237-1.356-0.135c-1.553,0.212-1.613,4.849-0.813,6.415c0.497,0.981,2.013,1.086,2.339,0.958"/>
	<path style="fill:none;stroke:#777768;stroke-width:1.1991;stroke-linecap:round;stroke-linejoin:round;" d="M157.225,41.171
		c3.467-1.565,10.579,19.459,12.593,20.273c1.054-1.083,3.117-17.307,3.688-19.159c0.547-1.774,1.479-3.095,1.021-5.046
		c0.249,0.014,0.562-0.032,0.826-0.035c-0.841-0.107-1.631-0.186-2.466-0.192c0.381,0.892,1.514,1.06,2.415,1.604
		c-0.564-0.018-1.184,0.071-1.726,0.041c0.53,0.055,1.357,0.147,2.062-0.016c-0.455,0.977-1.577,1.29-2.465,1.848
		c0.734-0.222,1.496-0.288,2.232-0.444c-0.042,0.337-0.218,0.092-0.448,0.194"/>
	<g>
		<g>
			
				<rect x="299.344" y="70.506" style="fill:#D5312C;stroke:#FFFFFF;stroke-width:0.6412;stroke-linecap:square;" width="3.137" height="45.07"/>
			<g>
				<path style="fill:#D5312C;" d="M274.338,69.519c0,0.983,0.797,1.78,1.78,1.78h49.581c0.982,0,1.779-0.797,1.779-1.78
					c0-0.983-0.797-1.78-1.779-1.78h-49.581C275.135,67.739,274.338,68.535,274.338,69.519
					C274.338,69.519,274.338,68.535,274.338,69.519z"/>
				<path style="fill:none;stroke:#FFFFFF;stroke-width:0.9618;" d="M274.338,69.519c0,0.983,0.797,1.78,1.78,1.78h49.581
					c0.982,0,1.779-0.797,1.779-1.78c0-0.983-0.797-1.78-1.779-1.78h-49.581C275.135,67.739,274.338,68.535,274.338,69.519
					C274.338,69.519,274.338,68.535,274.338,69.519z"/>
			</g>
		</g>
		<g>
			<rect x="112.402" y="65.037" style="fill:#65B724;stroke:#FFFFFF;stroke-width:0.9618;" width="3.834" height="50.972"/>
			<path style="fill:#65B724;stroke:#FFFFFF;stroke-width:0.9618;" d="M125.485,67.83h-22.338v-5.585c0,0,5.298-2.444,10.883-2.444
				c5.585,0,11.455,2.444,11.455,2.444V67.83z"/>
			<rect x="107.161" y="103.924" style="fill:#65B724;stroke:#FFFFFF;stroke-width:0.6412;" width="14.314" height="1.309"/>
		</g>
		
			<line style="fill:none;stroke:#65B724;stroke-width:2.3989;stroke-linecap:round;" x1="18.7" y1="39.237" x2="93.943" y2="39.237"/>
		
			<line style="fill:none;stroke:#65B724;stroke-width:2.3989;stroke-linecap:square;" x1="93.943" y1="39.237" x2="93.943" y2="56.067"/>
		
			<line style="fill:none;stroke:#65B724;stroke-width:2.3989;stroke-linecap:square;" x1="93.943" y1="56.067" x2="86.729" y2="56.067"/>
		
			<line style="fill:none;stroke:#65B724;stroke-width:2.3989;stroke-linecap:square;" x1="86.729" y1="56.067" x2="86.729" y2="115.375"/>
		
			<line style="fill:none;stroke:#65B724;stroke-width:2.3989;stroke-linecap:round;" x1="86.729" y1="115.375" x2="358.702" y2="115.375"/>
		<g>
			<g>
				
					<line style="fill:none;stroke:#65B724;stroke-width:2.9986;stroke-linecap:round;stroke-linejoin:round;" x1="258.728" y1="59.79" x2="258.728" y2="86.808"/>
				
					<line style="fill:none;stroke:#65B724;stroke-width:2.9986;stroke-linecap:round;stroke-linejoin:round;" x1="258.728" y1="86.808" x2="285.743" y2="86.808"/>
				
					<line style="fill:none;stroke:#65B724;stroke-width:2.9986;stroke-linecap:round;stroke-linejoin:round;" x1="285.743" y1="86.808" x2="258.699" y2="113.855"/>
				
					<line style="fill:none;stroke:#65B724;stroke-width:2.9986;stroke-linecap:round;stroke-linejoin:round;" x1="258.699" y1="113.855" x2="274.275" y2="113.855"/>
			</g>
			<g>
				
					<line style="fill:none;stroke:#65B724;stroke-width:2.9986;stroke-linecap:round;stroke-linejoin:round;" x1="349.557" y1="59.79" x2="349.557" y2="86.808"/>
				
					<line style="fill:none;stroke:#65B724;stroke-width:2.9986;stroke-linecap:round;stroke-linejoin:round;" x1="349.557" y1="86.808" x2="322.543" y2="86.808"/>
				
					<line style="fill:none;stroke:#65B724;stroke-width:2.9986;stroke-linecap:round;stroke-linejoin:round;" x1="322.543" y1="86.808" x2="349.586" y2="113.855"/>
				
					<line style="fill:none;stroke:#65B724;stroke-width:2.9986;stroke-linecap:round;stroke-linejoin:round;" x1="349.586" y1="113.855" x2="334.008" y2="113.855"/>
			</g>
		</g>
	</g>
	<path style="fill:none;stroke:#777768;stroke-width:1.184;stroke-linecap:round;stroke-linejoin:round;" d="M165.718,23.75
		c0,6.096-3.768,11.033-8.423,11.033c-4.65,0-8.426-4.937-8.426-11.033c0-6.091,3.776-11.029,8.426-11.029
		C161.95,12.722,165.718,17.66,165.718,23.75z"/>
	<path style="fill:none;stroke:#777768;stroke-width:1.184;stroke-linecap:round;stroke-linejoin:round;" d="M157.548,49.756
		c0.125,7.779,0.109,16.111-0.659,19.93c-1.198,6.017-3.608,3.611-2.403,12.035c1.506,10.555,5.616,19.256,4.412,24.471
		c-6.568,28.47-6.818,29.286-0.404,28.483"/>
	<path style="fill:none;stroke:#777768;stroke-width:1.184;stroke-linecap:round;stroke-linejoin:round;" d="M157.295,35.187
		c-0.011,1.939,0.056,4.926,0.131,8.376"/>
	<path style="fill:#FFFFFF;stroke:#777768;stroke-width:1.1995;stroke-linecap:round;stroke-linejoin:round;" d="M162.322,46.63
		c0,1.882-1.521,3.409-3.405,3.409c-1.886,0-3.417-1.527-3.417-3.409c0-1.883,1.531-3.411,3.417-3.411
		C160.8,43.219,162.322,44.747,162.322,46.63z"/>
	<path style="fill:none;stroke:#777768;stroke-width:1.1995;stroke-linecap:round;stroke-linejoin:round;" d="M205.18,75.171
		c0,1.062,0.857,1.924,1.922,1.924c1.055,0,1.922-0.862,1.922-1.924s-0.867-1.923-1.922-1.923
		C206.037,73.248,205.18,74.109,205.18,75.171z"/>
	<path style="fill:none;stroke:#777768;stroke-width:1.776;stroke-linecap:round;stroke-linejoin:round;" d="M198.14,16.969
		c0,5.955,3.692,10.781,8.231,10.781c4.543,0,8.236-4.826,8.236-10.781c0-5.953-3.693-10.779-8.236-10.779
		C201.832,6.19,198.14,11.017,198.14,16.969z"/>
	<path style="fill:none;stroke:#777768;stroke-width:1.776;stroke-linecap:round;stroke-linejoin:round;" d="M206.168,28.179
		c0.038,7.524-1.012,29.776,0.428,36.998c1.291,6.452,1.863,4.496,0.577,13.531c-1.616,11.313,2.017,22.354,2.405,28.077
		c2.004,29.689,2.185,28.947-4.701,28.082"/>
	<g>
		<path style="fill:#FCCF3D;" d="M176.755,43.488c0,0.752,1.814,0.752,3.246,0.752c1.432,0,3.105-0.106,3.112-0.752
			c0.008-0.644,0-9.001,0-9.001s-0.678,0.485-3.167,0.485c-2.491,0-3.191-0.485-3.191-0.485S176.755,42.736,176.755,43.488z"/>
		<path style="fill:#FFFFD9;" d="M176.772,33.656c0,0.108-0.017,0.458-0.017,0.83c0,0.344,2.036,0.485,3.191,0.485
			c1.061,0,2.334-0.219,2.91-0.364c0.37-0.095,0.256-0.827,0.256-0.952c0-0.316-1.417-0.573-3.17-0.573
			C178.192,33.083,176.772,33.34,176.772,33.656z"/>
		<g>
			<ellipse style="fill:none;stroke:#FFFFFF;stroke-width:0.1137;" cx="182.554" cy="36.376" rx="0.118" ry="0.106"/>
			<ellipse style="fill:none;stroke:#FFFFFF;stroke-width:0.1137;" cx="182.269" cy="39.901" rx="0.116" ry="0.108"/>
			<ellipse style="fill:none;stroke:#FFFFFF;stroke-width:0.1137;" cx="180.156" cy="40.666" rx="0.117" ry="0.107"/>
			<path style="fill:none;stroke:#FFFFFF;stroke-width:0.1137;" d="M181.066,39.711c0,0.058,0.054,0.105,0.121,0.105
				c0.064,0,0.118-0.047,0.118-0.105c0-0.062-0.054-0.108-0.118-0.108C181.12,39.603,181.066,39.65,181.066,39.711z"/>
			<ellipse style="fill:none;stroke:#FFFFFF;stroke-width:0.1137;" cx="179.444" cy="39.243" rx="0.116" ry="0.105"/>
			<path style="fill:none;stroke:#FFFFFF;stroke-width:0.1137;" d="M182.323,37.819c0,0.058,0.05,0.106,0.113,0.106
				c0.07,0,0.12-0.048,0.12-0.106s-0.05-0.106-0.12-0.106C182.373,37.713,182.323,37.761,182.323,37.819z"/>
			<path style="fill:none;stroke:#FFFFFF;stroke-width:0.1137;" d="M179.307,37.607c0,0.059,0.05,0.106,0.118,0.106
				c0.062,0,0.113-0.048,0.113-0.106c0-0.058-0.051-0.105-0.113-0.105C179.357,37.501,179.307,37.549,179.307,37.607z"/>
			<ellipse style="fill:none;stroke:#FFFFFF;stroke-width:0.1137;" cx="179.211" cy="36.228" rx="0.116" ry="0.106"/>
			<ellipse style="fill:none;stroke:#FFFFFF;stroke-width:0.1137;" cx="180.432" cy="36.089" rx="0.117" ry="0.106"/>
			<path style="fill:none;stroke:#FFFFFF;stroke-width:0.1137;" d="M181.493,38.498c0,0.06,0.053,0.109,0.118,0.109
				c0.063,0,0.118-0.049,0.118-0.109c0-0.057-0.055-0.105-0.118-0.105C181.546,38.393,181.493,38.441,181.493,38.498z"/>
			<path style="fill:none;stroke:#FFFFFF;stroke-width:0.1137;" d="M180.687,37.309c0,0.06,0.053,0.107,0.116,0.107
				s0.12-0.047,0.12-0.107c0-0.056-0.057-0.105-0.12-0.105S180.687,37.252,180.687,37.309z"/>
			<ellipse style="fill:none;stroke:#FFFFFF;stroke-width:0.1137;" cx="179.974" cy="38.371" rx="0.115" ry="0.107"/>
			<ellipse style="fill:none;stroke:#FFFFFF;stroke-width:0.1137;" cx="181.837" cy="35.613" rx="0.117" ry="0.105"/>
		</g>
		<path style="fill:none;stroke:#FFFFFF;stroke-width:0.1137;" d="M181.292,43.648c-0.057-0.015-0.115,0.026-0.13,0.088
			c-0.014,0.062,0.018,0.126,0.075,0.14c0.057,0.014,0.116-0.025,0.13-0.088C181.385,43.726,181.351,43.664,181.292,43.648z"/>
		
			<ellipse transform="matrix(0.2465 -0.9692 0.9692 0.2465 92.7387 204.5543)" style="fill:none;stroke:#FFFFFF;stroke-width:0.1137;" cx="177.912" cy="42.64" rx="0.117" ry="0.106"/>
		
			<ellipse transform="matrix(0.2346 -0.9721 0.9721 0.2346 96.7077 203.6399)" style="fill:none;stroke:#FFFFFF;stroke-width:0.1137;" cx="177.675" cy="40.406" rx="0.117" ry="0.106"/>
		
			<ellipse transform="matrix(0.247 -0.969 0.969 0.247 93.9642 204.1836)" style="fill:none;stroke:#FFFFFF;stroke-width:0.1137;" cx="178.356" cy="41.634" rx="0.117" ry="0.107"/>
		
			<ellipse transform="matrix(0.2327 -0.9725 0.9725 0.2327 99.8699 201.7467)" style="fill:none;stroke:#FFFFFF;stroke-width:0.1137;" cx="177.797" cy="37.578" rx="0.117" ry="0.107"/>
		<path style="fill:none;stroke:#FFFFFF;stroke-width:0.1137;" d="M179.917,43.191c-0.055-0.014-0.112,0.024-0.127,0.087
			c-0.015,0.062,0.016,0.124,0.073,0.14c0.056,0.013,0.116-0.028,0.132-0.089C180.011,43.266,179.975,43.205,179.917,43.191z"/>
		<path style="fill:none;stroke:#FFFFFF;stroke-width:0.1137;" d="M177.602,35.625c-0.057-0.012-0.116,0.026-0.128,0.089
			c-0.016,0.063,0.017,0.126,0.074,0.14c0.059,0.013,0.116-0.027,0.131-0.089C177.693,35.702,177.658,35.641,177.602,35.625z"/>
		<path style="fill:none;stroke:#FFFFFF;stroke-width:0.1137;" d="M177.801,38.981c-0.06-0.015-0.116,0.025-0.131,0.088
			c-0.016,0.063,0.017,0.124,0.071,0.14c0.06,0.012,0.118-0.025,0.132-0.088C177.89,39.057,177.855,38.995,177.801,38.981z"/>
		
			<ellipse transform="matrix(0.2523 -0.9676 0.9676 0.2523 95.6972 207.3921)" style="fill:none;stroke:#FFFFFF;stroke-width:0.1137;" cx="182.054" cy="41.77" rx="0.117" ry="0.108"/>
		<path style="fill:none;stroke:#FFFFFF;stroke-width:0.1137;" d="M179.457,42.223c-0.057-0.014-0.116,0.025-0.133,0.088
			c-0.014,0.062,0.021,0.125,0.08,0.139c0.053,0.013,0.113-0.026,0.13-0.089C179.55,42.298,179.516,42.237,179.457,42.223z"/>
		
			<ellipse transform="matrix(0.2416 -0.9704 0.9704 0.2416 96.5124 207.1551)" style="fill:none;stroke:#FFFFFF;stroke-width:0.1137;" cx="180.778" cy="41.836" rx="0.117" ry="0.105"/>
		
			<ellipse transform="matrix(0.2342 -0.9722 0.9722 0.2342 97.2692 205.7921)" style="fill:none;stroke:#FFFFFF;stroke-width:0.1137;" cx="179.257" cy="41.156" rx="0.117" ry="0.103"/>
		<path style="fill:none;stroke:#FFFFFF;stroke-width:0.1137;" d="M182.207,43.135c-0.054-0.016-0.113,0.025-0.13,0.087
			c-0.014,0.062,0.019,0.125,0.076,0.139c0.056,0.015,0.115-0.024,0.129-0.087C182.299,43.211,182.267,43.148,182.207,43.135z"/>
		<path style="fill:none;stroke:#A8D0DA;stroke-width:0.2575;stroke-linecap:round;stroke-linejoin:round;" d="M183.086,32.351
			c0.027,4.782,0.027,7.268,0.027,11.08c0,0.809-1.5,0.809-3.112,0.809c-1.569,0-3.246,0.031-3.246-0.752
			c0-3.12,0-8.032,0.028-11.137"/>
		
			<ellipse style="fill:none;stroke:#A8D0DA;stroke-width:0.2575;stroke-linecap:round;stroke-linejoin:round;" cx="179.935" cy="32.351" rx="3.151" ry="0.595"/>
		<path style="fill:none;stroke:#A8D0DA;stroke-width:0.1717;stroke-linecap:round;stroke-linejoin:round;" d="M183.113,35.974
			c-0.857-0.4-0.548,3.317-0.578,3.876c-0.07,1.404,0.052,2.901,0.059,4.16"/>
		<path style="fill:none;stroke:#A8D0DA;stroke-width:0.1717;stroke-linecap:round;stroke-linejoin:round;" d="M181.958,44.124
			c0-1.034-0.116-2.011-0.116-3.062c0-1.224,0.242-2.393-0.044-3.583c-0.074-0.304-0.217-1.314-0.697-1.274
			c-0.328,0.026-0.535,0.896-0.588,1.157c-0.247,1.276-0.067,2.801,0,4.102c0.044,0.881,0.116,1.965,0.116,2.719"/>
		<path style="fill:none;stroke:#A8D0DA;stroke-width:0.1717;stroke-linecap:round;stroke-linejoin:round;" d="M179.936,44.182
			c0-1.399-0.134-2.74-0.059-4.16c0.063-1.159,0.272-2.625-0.298-3.631c-1.131-0.325-0.858,6.928-0.858,7.791"/>
		<path style="fill:none;stroke:#A8D0DA;stroke-width:0.1717;stroke-linecap:round;stroke-linejoin:round;" d="M177.162,44.01
			c0-1.156-0.029-5.317,0.056-6.361c0.044-0.519,0.663-2.64,1.046-1.21c0.262,0.991,0.089,1.963-0.004,2.947
			c-0.15,1.542-0.164,3.344-0.174,4.739"/>
	</g>
	<g>
		<path style="fill:none;stroke:#777768;stroke-width:0.9161;stroke-linecap:round;stroke-linejoin:round;" d="M184.576,39.057
			c0.078,0.223,0.186,0.438,0.311,0.641c0.112,0.19,0.332,0.372,0.337,0.6c-0.865-0.946-1.177-2.401-0.927-3.674
			c0.094-0.473,0.248-0.937,0.346-1.407c0.03-0.14,0.04-0.279,0.13-0.384c-0.004,0.066-0.011,0.122-0.026,0.189"/>
		<path style="fill:none;stroke:#777768;stroke-width:1.1991;stroke-linecap:round;stroke-linejoin:round;" d="M206.113,33.02
			c-5.281,8.17-11.751,25.651-14.354,24.484c-5.096-2.283-2.943-22.7-3.624-22.233"/>
		<path style="fill:none;stroke:#777768;stroke-width:0.9161;stroke-linecap:round;stroke-linejoin:round;" d="M189.997,36.115
			c0.309,0.951,1.139,1.407,1.366,1.992"/>
		<g>
			<path style="fill:#FCCF3D;" d="M184.579,43.461c0,0.737,1.776,0.737,3.179,0.737c1.401,0,3.041-0.105,3.047-0.737
				c0.007-0.63,0-8.817,0-8.817s-0.664,0.475-3.102,0.475c-2.439,0-3.124-0.475-3.124-0.475S184.579,42.723,184.579,43.461z"/>
			<path style="fill:#FFFFD9;" d="M184.593,33.831c0,0.106-0.015,0.449-0.015,0.813c0,0.337,1.993,0.475,3.124,0.475
				c1.04,0,2.286-0.213,2.852-0.356c0.361-0.092,0.25-0.81,0.25-0.932c0-0.308-1.388-0.561-3.106-0.561
				C185.985,33.27,184.593,33.523,184.593,33.831z"/>
			<g>
				<path style="fill:none;stroke:#FFFFFF;stroke-width:0.1114;" d="M190.142,36.497c0,0.056,0.055,0.103,0.118,0.103
					c0.061,0,0.113-0.047,0.113-0.103c0-0.06-0.053-0.104-0.113-0.104C190.196,36.394,190.142,36.437,190.142,36.497z"/>
				<path style="fill:none;stroke:#FFFFFF;stroke-width:0.1114;" d="M189.864,39.948c0,0.058,0.052,0.105,0.112,0.105
					c0.066,0,0.116-0.048,0.116-0.105s-0.05-0.104-0.116-0.104C189.916,39.845,189.864,39.891,189.864,39.948z"/>
				<path style="fill:none;stroke:#FFFFFF;stroke-width:0.1114;" d="M187.794,40.696c0,0.06,0.049,0.107,0.114,0.107
					c0.062,0,0.115-0.047,0.115-0.107c0-0.056-0.052-0.104-0.115-0.104C187.843,40.592,187.794,40.64,187.794,40.696z"/>
				<path style="fill:none;stroke:#FFFFFF;stroke-width:0.1114;" d="M188.8,39.761c0,0.058,0.051,0.104,0.118,0.104
					c0.063,0,0.115-0.046,0.115-0.104c0-0.06-0.052-0.105-0.115-0.105C188.851,39.656,188.8,39.701,188.8,39.761z"/>
				<path style="fill:none;stroke:#FFFFFF;stroke-width:0.1114;" d="M187.097,39.304c0,0.056,0.051,0.103,0.115,0.103
					c0.063,0,0.114-0.047,0.114-0.103c0-0.06-0.051-0.105-0.114-0.105C187.147,39.199,187.097,39.244,187.097,39.304z"/>
				<path style="fill:none;stroke:#FFFFFF;stroke-width:0.1114;" d="M190.031,37.909c0,0.057,0.049,0.103,0.11,0.103
					c0.068,0,0.118-0.046,0.118-0.103c0-0.056-0.05-0.104-0.118-0.104C190.08,37.805,190.031,37.853,190.031,37.909z"/>
				<path style="fill:none;stroke:#FFFFFF;stroke-width:0.1114;" d="M187.076,37.702c0,0.056,0.049,0.104,0.116,0.104
					c0.062,0,0.111-0.048,0.111-0.104c0-0.058-0.049-0.104-0.111-0.104C187.125,37.598,187.076,37.644,187.076,37.702z"/>
				<ellipse style="fill:none;stroke:#FFFFFF;stroke-width:0.1114;" cx="186.983" cy="36.35" rx="0.114" ry="0.104"/>
				<ellipse style="fill:none;stroke:#FFFFFF;stroke-width:0.1114;" cx="188.179" cy="36.215" rx="0.114" ry="0.103"/>
				<ellipse style="fill:none;stroke:#FFFFFF;stroke-width:0.1114;" cx="189.333" cy="38.574" rx="0.115" ry="0.105"/>
				<ellipse style="fill:none;stroke:#FFFFFF;stroke-width:0.1114;" cx="188.544" cy="37.41" rx="0.116" ry="0.105"/>
				<path style="fill:none;stroke:#FFFFFF;stroke-width:0.1114;" d="M187.618,38.449c0,0.06,0.049,0.106,0.113,0.106
					c0.063,0,0.112-0.046,0.112-0.106c0-0.055-0.049-0.103-0.112-0.103C187.667,38.346,187.618,38.394,187.618,38.449z"/>
				<ellipse style="fill:none;stroke:#FFFFFF;stroke-width:0.1114;" cx="189.554" cy="35.748" rx="0.114" ry="0.103"/>
			</g>
			<path style="fill:none;stroke:#FFFFFF;stroke-width:0.1114;" d="M189.021,43.618c-0.055-0.014-0.114,0.025-0.127,0.087
				c-0.014,0.06,0.018,0.124,0.074,0.135c0.056,0.015,0.113-0.024,0.127-0.087C189.112,43.693,189.079,43.634,189.021,43.618z"/>
			
				<ellipse transform="matrix(0.241 -0.9705 0.9705 0.241 99.5768 212.5922)" style="fill:none;stroke:#FFFFFF;stroke-width:0.1114;" cx="185.71" cy="42.631" rx="0.113" ry="0.105"/>
			
				<ellipse transform="matrix(0.2325 -0.9726 0.9726 0.2325 103.0243 211.436)" style="fill:none;stroke:#FFFFFF;stroke-width:0.1114;" cx="185.479" cy="40.441" rx="0.114" ry="0.102"/>
			
				<ellipse transform="matrix(0.2445 -0.9696 0.9696 0.2445 100.2452 211.9561)" style="fill:none;stroke:#FFFFFF;stroke-width:0.1114;" cx="186.146" cy="41.646" rx="0.115" ry="0.105"/>
			
				<ellipse transform="matrix(0.2326 -0.9726 0.9726 0.2326 105.7928 209.4195)" style="fill:none;stroke:#FFFFFF;stroke-width:0.1114;" cx="185.598" cy="37.673" rx="0.115" ry="0.106"/>
			
				<ellipse transform="matrix(0.2345 -0.9721 0.9721 0.2345 101.5716 215.5466)" style="fill:none;stroke:#FFFFFF;stroke-width:0.1114;" cx="187.648" cy="43.28" rx="0.115" ry="0.102"/>
			<path style="fill:none;stroke:#FFFFFF;stroke-width:0.1114;" d="M185.407,35.76c-0.056-0.013-0.113,0.025-0.125,0.086
				c-0.015,0.062,0.016,0.123,0.072,0.138c0.058,0.012,0.112-0.026,0.128-0.087C185.496,35.837,185.461,35.775,185.407,35.76z"/>
			<path style="fill:none;stroke:#FFFFFF;stroke-width:0.1114;" d="M185.601,39.046c-0.058-0.012-0.113,0.025-0.127,0.087
				c-0.017,0.061,0.016,0.121,0.069,0.135c0.058,0.014,0.115-0.024,0.129-0.085C185.688,39.121,185.656,39.062,185.601,39.046z"/>
			
				<ellipse transform="matrix(0.2505 -0.9681 0.9681 0.2505 101.7815 215.027)" style="fill:none;stroke:#FFFFFF;stroke-width:0.1114;" cx="189.767" cy="41.777" rx="0.115" ry="0.104"/>
			<path style="fill:none;stroke:#FFFFFF;stroke-width:0.1114;" d="M187.224,42.223c-0.056-0.014-0.114,0.024-0.13,0.085
				c-0.014,0.061,0.021,0.122,0.078,0.138c0.052,0.011,0.111-0.026,0.127-0.088C187.315,42.296,187.281,42.234,187.224,42.223z"/>
			<path style="fill:none;stroke:#FFFFFF;stroke-width:0.1114;" d="M188.546,41.733c-0.056-0.016-0.113,0.023-0.13,0.087
				c-0.016,0.06,0.018,0.121,0.074,0.135c0.056,0.013,0.114-0.024,0.13-0.087C188.633,41.809,188.601,41.748,188.546,41.733z"/>
			<path style="fill:none;stroke:#FFFFFF;stroke-width:0.1114;" d="M187.054,41.065c-0.053-0.012-0.113,0.026-0.124,0.088
				c-0.017,0.062,0.015,0.123,0.071,0.135c0.056,0.016,0.114-0.024,0.13-0.083C187.145,41.141,187.112,41.081,187.054,41.065z"/>
			
				<ellipse transform="matrix(0.2349 -0.972 0.972 0.2349 103.2658 217.6474)" style="fill:none;stroke:#FFFFFF;stroke-width:0.1114;" cx="189.891" cy="43.225" rx="0.113" ry="0.103"/>
			<path style="fill:none;stroke:#A8D0DA;stroke-width:0.2522;stroke-linecap:round;stroke-linejoin:round;" d="M190.779,32.554
				c0.025,4.683,0.025,7.116,0.025,10.851c0,0.793-1.47,0.793-3.047,0.793c-1.538,0-3.179,0.03-3.179-0.737
				c0-3.056,0-7.867,0.027-10.907"/>
			
				<ellipse style="fill:none;stroke:#A8D0DA;stroke-width:0.2522;stroke-linecap:round;stroke-linejoin:round;" cx="187.693" cy="32.554" rx="3.087" ry="0.583"/>
			<path style="fill:none;stroke:#A8D0DA;stroke-width:0.1681;stroke-linecap:round;stroke-linejoin:round;" d="M190.805,36.101
				c-0.839-0.391-0.537,3.249-0.567,3.797c-0.067,1.374,0.052,2.841,0.058,4.074"/>
			<path style="fill:none;stroke:#A8D0DA;stroke-width:0.1681;stroke-linecap:round;stroke-linejoin:round;" d="M189.672,44.083
				c0-1.012-0.113-1.968-0.113-2.998c0-1.199,0.237-2.344-0.044-3.511c-0.071-0.296-0.212-1.286-0.681-1.249
				c-0.323,0.028-0.525,0.879-0.577,1.135c-0.242,1.25-0.065,2.744,0,4.018c0.044,0.863,0.114,1.925,0.114,2.663"/>
			<path style="fill:none;stroke:#A8D0DA;stroke-width:0.1681;stroke-linecap:round;stroke-linejoin:round;" d="M187.693,44.141
				c0-1.37-0.131-2.687-0.058-4.074c0.062-1.137,0.266-2.573-0.292-3.559c-1.107-0.318-0.841,6.787-0.841,7.632"/>
			<path style="fill:none;stroke:#A8D0DA;stroke-width:0.1681;stroke-linecap:round;stroke-linejoin:round;" d="M184.975,43.972
				c0-1.133-0.027-5.209,0.056-6.231c0.041-0.509,0.648-2.584,1.024-1.185c0.255,0.97,0.087,1.922-0.004,2.887
				c-0.147,1.511-0.161,3.276-0.171,4.64"/>
		</g>
		<path style="fill:none;stroke:#777768;stroke-width:1.1991;stroke-linecap:round;stroke-linejoin:round;" d="M191.363,38.107
			c0,0.485-0.114,0.779-0.352,1.306c-0.396,0.869-0.774,0.485-1.921,2.291"/>
		<path style="fill:none;stroke:#777768;stroke-width:1.1991;stroke-linecap:round;stroke-linejoin:round;" d="M186.051,39.634
			c-0.507-0.366-0.833-0.904-1.296-1.598c-0.14-0.209-0.428-0.666-0.521-0.944c-0.217,0.294,0.229,0.925,0.226,1.294
			c-0.003,0.232,0.625,3.165,0.7,3.379"/>
		<path style="fill:none;stroke:#777768;stroke-width:1.1991;stroke-linecap:round;stroke-linejoin:round;" d="M184.239,36.803
			c0.415,0.21,0.709,0.37,1.208,0.415c0.391,0.036,0.956,0.05,1.274-0.161"/>
	</g>
</g>
</svg>
