<?xml version="1.0" encoding="iso-8859-1"?>
<!-- Generator: Adobe Illustrator 13.0.0, SVG Export Plug-In . SVG Version: 6.00 Build 14948)  -->
<!DOCTYPE svg PUBLIC "-//W3C//DTD SVG 1.1//EN" "http://www.w3.org/Graphics/SVG/1.1/DTD/svg11.dtd">
<svg version="1.1" xmlns="http://www.w3.org/2000/svg" xmlns:xlink="http://www.w3.org/1999/xlink" x="0px" y="0px" width="378px"
	 height="140px" viewBox="0 0 378 140" style="enable-background:new 0 0 378 140;" xml:space="preserve">
<g id="fond">
	<g>
		<rect style="fill:none;" width="378" height="140"/>
		<rect style="fill:#FFFFFF;" width="378" height="140"/>
	</g>
</g>
<g id="mobilier">
	<g>
		<polyline style="fill:#D5312C;stroke:#FFFFFF;stroke-width:0.9641;stroke-linecap:square;" points="183.07,133.467 183.07,91.612 
			187.788,91.612 187.788,133.467 		"/>
		<g>
			<path style="fill:#D5312C;" d="M145.474,90.128c0,1.478,1.196,2.676,2.674,2.676h74.549c1.478,0,2.678-1.198,2.678-2.676
				s-1.2-2.677-2.678-2.677h-74.549C146.67,87.452,145.474,88.651,145.474,90.128C145.474,90.128,145.474,88.651,145.474,90.128z"/>
			<path style="fill:none;stroke:#FFFFFF;stroke-width:1.4461;" d="M145.474,90.128c0,1.478,1.196,2.676,2.674,2.676h74.549
				c1.478,0,2.678-1.198,2.678-2.676s-1.2-2.677-2.678-2.677h-74.549C146.67,87.452,145.474,88.651,145.474,90.128
				C145.474,90.128,145.474,88.651,145.474,90.128z"/>
		</g>
		<g>
			
				<line style="fill:none;stroke:#65B724;stroke-width:4.5085;stroke-linecap:round;stroke-linejoin:round;" x1="122.004" y1="75.5" x2="122.004" y2="116.124"/>
			
				<line style="fill:none;stroke:#65B724;stroke-width:4.5085;stroke-linecap:round;stroke-linejoin:round;" x1="122.004" y1="116.124" x2="162.62" y2="116.124"/>
			
				<line style="fill:none;stroke:#65B724;stroke-width:4.5085;stroke-linecap:round;stroke-linejoin:round;" x1="162.62" y1="116.124" x2="145.28" y2="133.467"/>
		</g>
		<g>
			
				<line style="fill:none;stroke:#65B724;stroke-width:4.5085;stroke-linecap:round;stroke-linejoin:round;" x1="258.569" y1="75.5" x2="258.569" y2="116.124"/>
			
				<line style="fill:none;stroke:#65B724;stroke-width:4.5085;stroke-linecap:round;stroke-linejoin:round;" x1="258.569" y1="116.124" x2="217.952" y2="116.124"/>
			
				<line style="fill:none;stroke:#65B724;stroke-width:4.5085;stroke-linecap:round;stroke-linejoin:round;" x1="217.952" y1="116.124" x2="235.291" y2="133.465"/>
		</g>
	</g>
</g>
<g id="Layer_3">
	<path style="fill:none;stroke:#777768;stroke-width:1.799;stroke-linecap:round;" d="M231.663,51.039
		c-4.968-2.25-9.341,21.344-12.001,23.295c-1.025,1.032-8.699,2.437-11.188,3.673c-0.781,0.39-3.213,0.979-5.439,3.213"/>
	<path style="fill:none;stroke:#777768;stroke-width:1.799;stroke-linecap:round;" d="M232.49,51.415
		c6.967,4.354-1.686,27.749-4.467,30.09c-4.183,3.52-13.849-0.433-19.617,1.263"/>
	<g>
		
			<ellipse transform="matrix(0.9999 -0.0116 0.0116 0.9999 -0.3794 1.6304)" style="fill:#FFFFFF;stroke:#777768;stroke-width:1.599;" cx="140.021" cy="33.441" rx="11.359" ry="14.875"/>
		<path style="fill:none;stroke:#777768;stroke-width:1.599;" d="M138.877,66.114c0.017,11.691,2.452,24.787,1.553,31.339
			c-0.753,5.491-5.577,17.101,5.25,15.612c11.889-1.633,33.542-4.58,31.727,3.27c-1.556,6.74-2.907,12.396-4.011,17.133"/>
		
			<line style="fill:none;stroke:#777768;stroke-width:1.599;stroke-linecap:round;stroke-linejoin:round;" x1="139.435" y1="48.288" x2="139.188" y2="57.468"/>
	</g>
	<path style="fill:none;stroke:#777768;stroke-width:1.599;stroke-linecap:round;" d="M145.554,61.961
		c0,2.553-2.066,4.624-4.627,4.624c-2.557,0-4.624-2.071-4.624-4.624c0-2.558,2.067-4.624,4.624-4.624
		C143.488,57.337,145.554,59.403,145.554,61.961z"/>
	<path style="fill:none;stroke:#65B724;stroke-width:0.6965;stroke-linecap:round;stroke-linejoin:round;" d="M158.129,82.549"/>
	<g>
		<path style="fill:none;stroke:#777768;stroke-width:2.5;stroke-linecap:round;stroke-linejoin:round;" d="M221.37,29.206
			c0,8.144,5.038,14.74,11.254,14.74c6.208,0,11.257-6.596,11.257-14.74c0-8.14-5.049-14.737-11.257-14.737
			C226.408,14.469,221.37,21.066,221.37,29.206z"/>
	</g>
	<g>
		<path style="fill:none;stroke:#777768;stroke-width:2.5;stroke-linecap:round;stroke-linejoin:round;" d="M232.343,44.532
			c0.059,10.829-0.733,34.761,1.218,45.164c1.736,9.281,8.578,22.129,2.056,23.506c-12.663,2.674-39.612-11.377-39.103-3.135
			c0.609,9.596,1.4,17.275,2.158,23.398"/>
		<path style="fill:none;stroke:#777768;stroke-width:1.799;stroke-linecap:round;" d="M240.677,110.534
			c0,1.635-1.229,2.953-2.75,2.953s-2.75-1.318-2.75-2.953c0-1.637,1.229-2.961,2.75-2.961S240.677,108.897,240.677,110.534z"/>
	</g>
	<path style="fill:none;stroke:#777768;stroke-width:1.599;stroke-linecap:round;" d="M155.195,87.784
		c-1.157-0.432-18.423,2.796-22.68-2.801c-2.215-2.911,2.032-23.562,2.969-27.088c0.783-2.943,2.525-2.49,4.603-2.804
		c2.266-0.344,3.363,0.213,3.363,0.213c2.969,1.55,15.889,19.333,17.716,17.862c3-2.416-4.823-17.376-5.94-19.64"/>
	<rect x="112.7" y="132.301" style="fill:#FFFFFF;" width="138.366" height="5.133"/>
</g>
<g id="Layer_5">
	<path style="fill:none;stroke:#777768;stroke-width:1.8029;stroke-linecap:round;stroke-linejoin:round;" d="M217.556,51.367"/>
	<g>
		
			<line style="fill:none;stroke:#65B724;stroke-width:0.6507;stroke-linecap:round;stroke-linejoin:round;" x1="200.39" y1="85.865" x2="205.343" y2="78.263"/>
		<path style="fill:none;stroke:#65B724;stroke-width:0.6507;stroke-linecap:round;stroke-linejoin:round;" d="M199.177,85.068
			c0.601-0.922,1.912-2.635,2.989-1.928c1.075,0.709,0.133,2.83-0.396,3.636"/>
	</g>
	<g>
		
			<line style="fill:none;stroke:#65B724;stroke-width:0.6047;stroke-linecap:round;stroke-linejoin:round;" x1="150.848" y1="47.169" x2="155.626" y2="54.106"/>
		<path style="fill:none;stroke:#65B724;stroke-width:0.6047;stroke-linecap:round;stroke-linejoin:round;" d="M151.96,46.403
			c0.58,0.841,1.587,2.572,0.601,3.252c-0.987,0.679-2.474-0.878-2.979-1.614"/>
	</g>
	<g>
		
			<line style="fill:none;stroke:#65B724;stroke-width:0.814;stroke-linecap:round;stroke-linejoin:round;" x1="200.253" y1="84.57" x2="211.343" y2="82.334"/>
		
			<line style="fill:none;stroke:#65B724;stroke-width:1.0961;stroke-linecap:round;stroke-linejoin:round;" x1="200.287" y1="84.739" x2="204.61" y2="83.868"/>
	</g>
	<path style="fill:#B58247;stroke:#B58247;stroke-width:1.5924;stroke-linecap:round;stroke-linejoin:round;" d="M175.124,86.291
		c0,0.509-0.412,0.921-0.92,0.921h-12.63c-0.508,0-0.921-0.412-0.921-0.921l0,0c0-0.509,0.413-0.921,0.921-0.921h12.63
		C174.711,85.37,175.124,85.782,175.124,86.291L175.124,86.291z"/>
	<path style="fill:#B58247;stroke:#B58247;stroke-width:1.5924;stroke-linecap:round;stroke-linejoin:round;" d="M209.855,86.291
		c0,0.509-0.412,0.921-0.922,0.921h-12.629c-0.51,0-0.92-0.412-0.92-0.921l0,0c0-0.509,0.41-0.921,0.92-0.921h12.629
		C209.443,85.37,209.855,85.782,209.855,86.291L209.855,86.291z"/>
	<path style="fill:#B58247;stroke:#B58247;stroke-width:0.7478;stroke-linecap:round;stroke-linejoin:round;" d="M149.651,48.962
		c0.31,0.315,0.635,0.497,0.728,0.406l2.288-2.247c0.093-0.091-0.083-0.419-0.392-0.734l0,0c-0.31-0.315-0.635-0.497-0.728-0.406
		l-2.29,2.248C149.167,48.319,149.342,48.647,149.651,48.962L149.651,48.962z"/>
	<path style="fill:none;stroke:#65B724;stroke-width:1.5924;stroke-linecap:round;stroke-linejoin:round;" d="M194.506,87.958
		h15.655H194.506z"/>
	<polyline style="fill:none;stroke:#65B724;stroke-width:1.5924;stroke-linecap:round;stroke-linejoin:round;" points="
		157.143,85.326 159.774,87.958 175.43,87.958 178.061,85.326 	"/>
	<path style="fill:none;stroke:#65B724;stroke-width:1.5924;stroke-linecap:round;stroke-linejoin:round;" d="M194.506,87.958
		h15.655H194.506z"/>
	<polyline style="fill:none;stroke:#65B724;stroke-width:1.5924;stroke-linecap:round;stroke-linejoin:round;" points="
		191.875,85.326 194.506,87.958 210.161,87.958 212.793,85.326 	"/>
	
		<ellipse style="fill:none;stroke:#777768;stroke-width:1.2544;stroke-linecap:round;stroke-linejoin:round;" cx="188.588" cy="18.782" rx="12.468" ry="11.685"/>
	
		<line style="fill:none;stroke:#6D6D6D;stroke-width:0.8072;stroke-linecap:round;stroke-linejoin:round;" x1="188.588" y1="18.782" x2="188.528" y2="27.3"/>
	
		<line style="fill:none;stroke:#6D6D6D;stroke-width:0.8072;stroke-linecap:round;stroke-linejoin:round;" x1="188.588" y1="18.782" x2="182.994" y2="20.824"/>
	<g>
		<path style="fill:#D5312C;" d="M185.674,53.097c0-0.539-0.675-0.976-1.509-0.976l0,0c-0.833,0-1.509,0.437-1.509,0.976v14.908
			c0,0.539,0.676,0.976,1.509,0.976l0,0c0.833,0,1.509-0.437,1.509-0.976V53.097z"/>
		<g>
			<rect x="182.42" y="69.074" style="fill:#FFFFFF;stroke:#777768;stroke-width:0.6001;" width="3.49" height="17.452"/>
			<rect x="180.749" y="86.526" style="fill:#FFFFFF;stroke:#777768;stroke-width:0.6001;" width="6.833" height="1.509"/>
			<rect x="180.749" y="67.566" style="fill:#FFFFFF;stroke:#777768;stroke-width:0.6001;" width="6.833" height="1.508"/>
		</g>
		<path style="fill:none;stroke:#000000;stroke-width:0.6001;stroke-linecap:round;stroke-linejoin:round;" d="M184.161,52.213
			c-0.085,0.092,0.008-0.348,0.059-0.532"/>
		<path style="fill:#FFA63F;" d="M184.161,47.244c0.106,1.029-0.946,1.527-1.229,2.368c-0.225,0.666-0.011,1.651,0.58,2.071
			c0.728,0.517,1.467-0.138,1.479-0.947c0.008-0.515-0.304-0.886-0.419-1.362c-0.113-0.466,0.002-0.979-0.233-1.419"/>
	</g>
</g>
</svg>
