<?xml version="1.0" encoding="iso-8859-1"?>
<!-- Generator: Adobe Illustrator 13.0.0, SVG Export Plug-In . SVG Version: 6.00 Build 14948)  -->
<!DOCTYPE svg PUBLIC "-//W3C//DTD SVG 1.1//EN" "http://www.w3.org/Graphics/SVG/1.1/DTD/svg11.dtd">
<svg version="1.1" xmlns="http://www.w3.org/2000/svg" xmlns:xlink="http://www.w3.org/1999/xlink" x="0px" y="0px" width="540px"
	 height="200px" viewBox="0 0 540 200" style="enable-background:new 0 0 540 200;" xml:space="preserve">
<g id="FOND">
	<rect style="fill:#FFFFFF;" width="540" height="200"/>
</g>
<g id="porte">
	<g>
		
			<line style="fill:none;stroke:#92938B;stroke-linecap:round;stroke-linejoin:round;" x1="313.711" y1="178.289" x2="516.046" y2="178.289"/>
		
			<line style="fill:none;stroke:#92938B;stroke-linecap:round;stroke-linejoin:round;" x1="25.439" y1="178.289" x2="230.752" y2="178.289"/>
		<polyline style="fill:none;stroke:#92938B;stroke-linecap:round;stroke-linejoin:round;" points="313.711,178.289 313.711,13.648 
			230.753,13.648 230.753,178.289 		"/>
		
			<line style="fill:none;stroke:#92938B;stroke-linecap:round;stroke-linejoin:round;" x1="257.804" y1="13.648" x2="257.804" y2="161.528"/>
		
			<line style="fill:none;stroke:#92938B;stroke-linecap:round;stroke-linejoin:round;" x1="257.804" y1="161.528" x2="313.711" y2="178.289"/>
		<polyline style="fill:none;stroke:#92938B;stroke-linecap:round;stroke-linejoin:round;" points="260.509,88.489 257.804,89.257 
			263.913,91.932 		"/>
	</g>
</g>
<g id="Layer_1">
	<path style="fill:#FFFFFF;stroke:#92938B;stroke-width:1.713;stroke-linecap:round;stroke-linejoin:round;" d="M319.518,121.139
		c0,1.234,0.996,2.239,2.233,2.239c1.225,0,2.234-1.005,2.234-2.239c0-1.23-1.01-2.23-2.234-2.23
		C320.514,118.908,319.518,119.908,319.518,121.139z"/>
	<path style="fill:#FFFFFF;stroke:#92938B;stroke-width:2.57;stroke-linecap:round;stroke-linejoin:round;" d="M311.34,53.513
		c0,6.919,4.288,12.527,9.563,12.527c5.278,0,9.571-5.608,9.571-12.527c0-6.918-4.293-12.526-9.571-12.526
		C315.628,40.987,311.34,46.595,311.34,53.513z"/>
	<path style="fill:none;stroke:#92938B;stroke-width:2.57;stroke-linecap:round;stroke-linejoin:round;" d="M320.667,66.538
		c0.045,8.743-1.175,34.599,0.498,42.992c1.498,7.496,2.165,5.224,0.669,15.719c-1.876,13.148,2.346,25.979,2.795,32.63
		c2.328,34.497,2.539,33.632-5.462,32.628"/>
	<path style="fill:#FFFFFF;stroke:#92938B;stroke-width:1.713;stroke-linecap:round;stroke-linejoin:round;" d="M223.718,61.075
		c0.148,7.082-4.11,12.908-9.518,13.02c-5.404,0.115-9.909-5.53-10.058-12.61c-0.147-7.076,4.119-12.906,9.521-13.018
		C219.071,48.353,223.57,53.999,223.718,61.075z"/>
	<path style="fill:none;stroke:#92938B;stroke-width:1.713;stroke-linecap:round;stroke-linejoin:round;" d="M213.863,114.184
		c-2.585,6.646-4.181,4.781-2.78,14.567c1.75,12.266,6.526,22.377,5.125,28.436c-7.631,33.081-7.923,34.029-0.47,33.099"/>
	<path style="fill:none;stroke:#92938B;stroke-width:1.713;stroke-linecap:round;stroke-linejoin:round;" d="M214.55,91.024
		c0.177,9.038,0.964,18.945-0.687,23.16"/>
	<path style="fill:none;stroke:#92938B;stroke-width:1.713;stroke-linecap:round;stroke-linejoin:round;" d="M214.2,74.095
		c-0.006,2.255,0.084,5.725,0.184,9.733"/>
	<path style="fill:#FFFFFF;stroke:#92938B;stroke-width:1.713;stroke-linecap:round;stroke-linejoin:round;" d="M220.086,87.372
		c0.007,2.187-1.755,3.968-3.945,3.975c-2.189,0.008-3.976-1.762-3.981-3.947c-0.008-2.19,1.766-3.97,3.955-3.978
		C218.304,83.416,220.078,85.184,220.086,87.372z"/>
	<path style="fill:none;stroke:#92938B;stroke-width:1.713;stroke-linecap:round;stroke-linejoin:round;" d="M320.147,74.372
		c-3.169-3.169-15.324,16.198-18.855,19.353c-2.749,2.456-16.07,7.642-19.861,7.378c-2.419-0.167-7.478-4.759-8.398-4.711
		c-1.395,0.83,2.501,3.292,0.706,2.738c-0.841-0.26-5.914-0.057-5.914,0.703c-0.197,0.539,0.615,1.07,0.615,1.07
		s-1.68,0.299-1.68,1.037c0,0.689,1.16,0.452,1.16,0.452s-1.101,0.702-1.101,1.247c0,0.157,1.454,0.136,1.454,0.136
		s-0.705,0.417-0.157,0.964c2.769-0.102,12.098-3.132,13.861-3.636"/>
</g>
</svg>
