<?xml version="1.0" encoding="iso-8859-1"?>
<!-- Generator: Adobe Illustrator 13.0.0, SVG Export Plug-In . SVG Version: 6.00 Build 14948)  -->
<!DOCTYPE svg PUBLIC "-//W3C//DTD SVG 1.1//EN" "http://www.w3.org/Graphics/SVG/1.1/DTD/svg11.dtd">
<svg version="1.1" xmlns="http://www.w3.org/2000/svg" xmlns:xlink="http://www.w3.org/1999/xlink" x="0px" y="0px" width="378px"
	 height="140px" viewBox="0 0 378 140" style="enable-background:new 0 0 378 140;" xml:space="preserve">
<g id="Layer_2">
	<g>
		<rect style="fill:none;" width="378" height="140"/>
		<rect style="fill:#FFFFFF;" width="378" height="140"/>
	</g>
</g>
<g id="Layer_3">
	<g>
		<g>
			<path style="fill:none;stroke:#666666;stroke-width:0.9727;" d="M169.519,77.111c-21.691-0.557-48.096-0.617-54.26-0.516"/>
			<path style="fill:none;stroke:#666666;stroke-width:0.9727;" d="M192.44,77.566c-0.159,0-8.507,0.014-16.911-0.168"/>
			<path style="fill:none;stroke:#666666;stroke-width:0.9727;stroke-linecap:round;stroke-linejoin:round;" d="M244.262,79.154
				c0-14.947,0.86-69.489,0.86-75.999c-4.445-0.163-45.127-0.27-46.97-0.655c-0.62,4.716,0.006,47.737-0.141,64.422"/>
			<path style="fill:none;stroke:#666666;stroke-width:0.9727;stroke-linecap:round;stroke-linejoin:round;" d="M356.126,78.863
				c-7.107-0.014-104.365,0.291-111.864,0.291"/>
		</g>
		<path style="fill:none;stroke:#777768;stroke-width:1.2291;" d="M215.796,29.12c0.271,4.183,3.215,7.366,6.57,7.114
			c3.359-0.251,5.856-3.845,5.587-8.028c-0.273-4.181-3.214-7.368-6.57-7.117C218.026,21.346,215.524,24.94,215.796,29.12z"/>
		<path style="fill:none;stroke:#777768;stroke-width:1.2291;stroke-linecap:round;stroke-linejoin:round;" d="M222.743,36.149
			c-2.497,7.802-1.853,17.304-3.642,24.918c0.204-1.871,0.186-0.621,1.195-1.646c0.726,1.838,0.213,4.037-1.855,3.636
			c-0.173-0.761-0.321-1.876-0.166-2.644c0.261-0.053,0.506-0.171,0.685-0.358c1.684,4.354-1.45,12.03-1.602,16.917
			c-0.135,4.367-0.914,10.041-0.145,14.23c0.382,0.076,0.714-0.068,1.085-0.02"/>
		<path style="fill:#FFFFFF;stroke:#809CC9;stroke-width:1.5535;stroke-linecap:round;stroke-linejoin:round;" d="M227.879,25.025
			c-5.748-0.341-11.887-0.325-11.75-0.69c2.941-7.859-0.438-9.49,0.391-14.934c-1.429-0.868,0.34-2.272,1.574-2.272
			c2.625,0,2.22,2.395,2.385,4.922c0.163-5.243,5.178-6.329,4.917,0.298c-2.166-6.698,8.54-6.407,4.156-2.562
			C229.419,9.864,225.951,20.276,227.879,25.025"/>
		<path style="fill:#F7B71B;stroke:#F7B71B;stroke-width:1.459;stroke-linecap:round;stroke-linejoin:round;" d="M210.86,53.148
			c-0.676-0.325-1.449-5.741-1.706-6.697c-0.797-2.993-1.566-6.424-1.556-9.534c0.009-1.772,2.133-6.412,0.965-8.112
			c-1.804-2.623-2.716,2.884-2.594,4.156c0.164,1.765,1.203,3.365,1.629,4.993c-0.003,0.076-0.007,0.155-0.011,0.231"/>
		<path style="fill:none;stroke:#777768;stroke-width:1.2291;stroke-linecap:round;stroke-linejoin:round;" d="M221.924,38.836
			c-4.099-0.572-7.56,6.726-8.627,10.01c-0.289,0.896-0.946,5.025-2.437,4.302"/>
		<path style="fill:none;stroke:#FF0000;stroke-width:1.2291;stroke-linecap:round;stroke-linejoin:round;" d="M223.139,32.526
			c-1.227,0.423-3.663,1.902-4.241,0.219"/>
		<g>
			<g>
				
					<rect x="226.755" y="98.936" style="fill:#777768;stroke:#FFFFFF;stroke-width:0.4504;stroke-linecap:square;" width="2.456" height="38.02"/>
				<g>
					<path style="fill:#777768;" d="M207.18,98.098c0,0.828,0.672,1.5,1.5,1.5h38.608c0.828,0,1.5-0.672,1.5-1.5s-0.672-1.5-1.5-1.5
						H208.68C207.852,96.598,207.18,97.27,207.18,98.098C207.18,98.098,207.18,97.27,207.18,98.098z"/>
					<path style="fill:none;stroke:#FFFFFF;stroke-width:0.6759;" d="M207.18,98.098c0,0.828,0.672,1.5,1.5,1.5h38.608
						c0.828,0,1.5-0.672,1.5-1.5s-0.672-1.5-1.5-1.5H208.68C207.852,96.598,207.18,97.27,207.18,98.098
						C207.18,98.098,207.18,97.27,207.18,98.098z"/>
				</g>
			</g>
			<g>
				
					<line style="fill:none;stroke:#777768;stroke-width:2.2526;stroke-linecap:round;stroke-linejoin:round;" x1="194.952" y1="89.896" x2="194.952" y2="112.686"/>
				
					<line style="fill:none;stroke:#777768;stroke-width:2.2526;stroke-linecap:round;stroke-linejoin:round;" x1="194.952" y1="112.686" x2="216.105" y2="112.686"/>
				
					<line style="fill:none;stroke:#777768;stroke-width:2.2526;stroke-linecap:round;stroke-linejoin:round;" x1="216.105" y1="112.686" x2="194.931" y2="135.5"/>
				
					<line style="fill:none;stroke:#777768;stroke-width:2.2526;stroke-linecap:round;stroke-linejoin:round;" x1="194.931" y1="135.5" x2="207.128" y2="135.5"/>
			</g>
			<g>
				
					<line style="fill:none;stroke:#777768;stroke-width:2.2526;stroke-linecap:round;stroke-linejoin:round;" x1="263.534" y1="89.896" x2="263.534" y2="112.686"/>
				
					<line style="fill:none;stroke:#777768;stroke-width:2.2526;stroke-linecap:round;stroke-linejoin:round;" x1="263.534" y1="112.686" x2="242.381" y2="112.686"/>
				
					<line style="fill:none;stroke:#777768;stroke-width:2.2526;stroke-linecap:round;stroke-linejoin:round;" x1="242.381" y1="112.686" x2="263.554" y2="135.5"/>
				
					<line style="fill:none;stroke:#777768;stroke-width:2.2526;stroke-linecap:round;stroke-linejoin:round;" x1="263.554" y1="135.5" x2="251.355" y2="135.5"/>
			</g>
		</g>
		<g>
			<g>
				<path style="fill:#944138;" d="M226.443,86.748c0.122,0.113,0.821,0.035,1.034,0.055c0.377,0.033,0.76,0.025,1.146,0.025
					c0.9,0,1.888,0.172,2.742-0.109c-0.165,0.117,0.145,0.797,0.155,0.975c0.012,0.236-0.102,8.668-0.102,8.885
					c-0.194,0.217-1.631,0.549-2.491,0.549c-0.422,0-2.526-0.355-2.652-0.543c-0.101-0.162-0.105-8.758-0.077-8.969
					c0.035-0.287,0.255-0.648,0.3-0.891c-0.001,0.035-0.016,0.051-0.03,0.078"/>
				<g>
					<path style="fill:#A52008;stroke:#A52008;stroke-width:0.1294;stroke-linecap:round;stroke-linejoin:round;" d="
						M228.917,80.178h0.774c0-0.557,0-1.684,0-2.092h-0.77"/>
					<path style="fill:#A52008;stroke:#A52008;stroke-width:0.1294;stroke-linecap:round;stroke-linejoin:round;" d="
						M228.922,80.178h-0.772c0.003-0.557,0.012-1.684,0.012-2.092h0.767"/>
				</g>
				<g>
					<path style="fill:none;stroke:#156E27;stroke-width:0.1294;stroke-linecap:round;stroke-linejoin:round;" d="M228.922,97.127
						c0.836,0,2.229-0.256,2.497-0.549c0.132-0.139,0.102-6.301,0.102-8.648c0-0.676-0.252-1.697-0.687-2.541
						c-0.375-0.729-0.675-1.959-0.898-2.766c-0.237-0.85-0.244-1.996-0.244-2.445"/>
					<path style="fill:none;stroke:#156E27;stroke-width:0.1294;stroke-linecap:round;stroke-linejoin:round;" d="M228.928,97.127
						c-0.832,0-2.324-0.219-2.596-0.516c-0.132-0.137-0.094-6.334-0.094-8.682c0-0.676,0.344-1.697,0.782-2.541
						c0.37-0.729,0.691-1.959,0.915-2.766c0.228-0.824,0.219-2.014,0.214-2.445h1.536"/>
				</g>
				<path style="fill:#FFFFE8;stroke:#156E27;stroke-width:0.1077;" d="M230.97,94.844c0,0-1.283,0.133-2.104,0.133
					c-0.769,0-2.106-0.133-2.106-0.133v-6.756c0,0,1.354,0.164,2.106,0.164c0.765,0,2.104-0.164,2.104-0.164V94.844z"/>
				<g>
					<g>
						<path style="fill:none;stroke:#BFBDB9;stroke-width:0.0646;stroke-linecap:round;stroke-linejoin:round;" d="M227.764,88.824
							c-0.01-0.025-0.021-0.053-0.03-0.076c-0.269-0.055-0.547,0.318-0.431,0.598c0.162,0.389,0.666-0.217,0.602-0.516
							c-0.192,0.068-0.244,0.549-0.317,0.752c0.073-0.16,0.181-0.324,0.341-0.377c-0.004,0.086-0.063,0.268,0.028,0.303
							c0.025,0.016,0.053,0.012,0.074,0.004"/>
						<path style="fill:none;stroke:#BFBDB9;stroke-width:0.0646;stroke-linecap:round;stroke-linejoin:round;" d="M229.396,89.508
							c-0.086,0-0.14,0.004-0.195-0.07c-0.012,0.037-0.057,0.08-0.072,0.121c-0.068-0.066-0.091-0.084-0.047-0.199
							c-0.069,0.168-0.297,0.299-0.247,0.027c0.006,0.121-0.045,0.215-0.167,0.201c-0.002-0.129,0.048-0.244,0.165-0.26
							c0.043,0.273-0.475,0.361-0.383,0.074c0.109-0.334,0.315,0.244-0.078,0.133"/>
						<path style="fill:none;stroke:#BFBDB9;stroke-width:0.0646;stroke-linecap:round;stroke-linejoin:round;" d="M228.322,89.43
							c0.044-0.201,0.107-0.414,0.097-0.625c-0.011,0.227-0.147,0.686-0.047,0.73"/>
						<path style="fill:none;stroke:#BFBDB9;stroke-width:0.0646;stroke-linecap:round;stroke-linejoin:round;" d="M228.372,89.115
							c0.032,0,0.066,0,0.098,0"/>
						<path style="fill:none;stroke:#BFBDB9;stroke-width:0.0646;stroke-linecap:round;stroke-linejoin:round;" d="M228.988,90.723
							c0.013,0.027,0.034,0.051,0.067,0.07c0.181,0.109,0.239-0.18,0.292-0.262c0.062-0.092,0.431-0.689,0.099-0.705
							c-0.208-0.008-0.127,0.938-0.117,1.105c0.078-0.1,0.115-0.25,0.214-0.322c0.057,0.172,0.215,0.211,0.245-0.016
							c-0.056,0.287,0.207,0.273,0.193,0c0.012,0.053,0.056,0.096,0.075,0.143c0.012-0.014,0.035-0.055,0.049-0.068
							c0.015,0.021,0.045,0.068,0.072,0.082c0.018-0.027,0.072-0.057,0.098-0.08c0.027,0.029,0.099,0.051,0.129,0.098
							c0.045,0.006,0.02-0.035,0.041-0.051"/>
						<path style="fill:none;stroke:#BFBDB9;stroke-width:0.0646;stroke-linecap:round;stroke-linejoin:round;" d="M229.147,90.482
							c-0.12-0.012-0.203,0.131-0.159,0.24"/>
						<path style="fill:none;stroke:#BFBDB9;stroke-width:0.0646;stroke-linecap:round;stroke-linejoin:round;" d="M228.056,90.637
							c0.007-0.037,0-0.072-0.023-0.105c-0.165,0.012-0.229,0.293-0.021,0.27c0.285-0.033,0.162-0.836,0.114-1.012
							c-0.02,0.176,0.056,0.543,0.175,0.693c0.061-0.307,0.089-0.574,0.386-0.756c-0.153,0.209-0.302,0.531-0.268,0.811
							c0.015,0.109-0.038,0.201,0.094,0.236c0.125,0.029,0.197-0.098,0.203-0.223c0.017-0.389-0.308-0.08-0.199,0.139
							c0.115,0.23,0.174-0.102,0.178-0.227c0.019,0.217,0.174,0.295,0.297,0.26"/>
						<path style="fill:none;stroke:#BFBDB9;stroke-width:0.0646;stroke-linecap:round;stroke-linejoin:round;" d="M229.91,90.193
							c-0.034,0.018-0.065,0.045-0.097,0.068c0.005-0.01,0.018-0.021,0.023-0.031c-0.025,0.008-0.035,0.031-0.049,0.041"/>
						<g>
							<path style="fill:none;stroke:#BFBDB9;stroke-width:0.0646;stroke-linecap:round;stroke-linejoin:round;" d="M228.196,89.389
								c0.02-0.117-0.206-0.055-0.17,0.078c0.034,0.117,0.145-0.045,0.174-0.092c-0.004,0.031-0.021,0.074,0,0.105
								c0.028,0.037,0.097,0.025,0.132,0.01"/>
							<path style="fill:none;stroke:#BFBDB9;stroke-width:0.0646;stroke-linecap:round;stroke-linejoin:round;" d="M228.042,89.229
								c0.054-0.014,0.096-0.059,0.124-0.109c0.008,0.037-0.03,0.094,0.024,0.094"/>
						</g>
						<path style="fill:none;stroke:#BFBDB9;stroke-width:0.0646;stroke-linecap:round;stroke-linejoin:round;" d="M227.37,93.979
							c0.168-0.412,0.242-1.469-0.102-1.771c0.084,0.164,0.385,0.051,0.53-0.086c-0.158-0.02-0.24,0.066-0.24,0.232
							c0.175,0.037,0.357,0.051,0.365-0.146c-0.087,0.076-0.083,0.123-0.071,0.27c0.015-0.002,0.081-0.002,0.095,0.006
							c-0.422,0.199-0.176,1.24-0.167,1.65c0.117-0.34,0.041-0.822,0.186-1.178c0.132,0.158,0.046,0.383,0.247,0.469
							c0.14-0.252,0.15-0.613,0.065-0.895c-0.088,0.33-0.138,0.916-0.02,1.254c0.229-0.283,0.138-0.908,0.138-1.279
							c-0.014,0.371,0.005,0.893,0.106,1.242c0.247-0.215,0.15-0.855,0.15-1.184c0,0.332-0.005,0.656,0.045,0.988
							c0.117-0.227,0.113-0.67,0.101-0.951c0.039,0.301-0.009,0.82,0.257,0.986c0.16-0.24,0.137-0.605,0.146-0.895
							c-0.021,0.307,0.07,1.162,0.508,0.977c0,0.057,0.015,0.127,0.01,0.186c0.24-0.273,0.522-1.717,0.104-1.803
							c-0.028,0.049-0.045,0.102-0.069,0.146c0.182,0.062,0.615,0.178,0.684-0.029c-0.277,0.26-0.484,1.049-0.322,1.416
							c0.172-0.086,0.312-0.441,0.19-0.588c-0.038,0.396-0.162,0.756-0.152,1.172c-0.001-0.547-0.036-1.26-0.036-1.736
							c0,0.477-0.211,1.545,0.36,1.664c0.054-0.32-0.148-0.633-0.173-0.941c0.175-0.062,0.356-0.105,0.55-0.08
							c-0.073,0.064-0.106,0.287-0.115,0.471"/>
						<path style="fill:none;stroke:#BFBDB9;stroke-width:0.0646;stroke-linecap:round;stroke-linejoin:round;" d="M227.006,93.27
							c-0.059-0.033-0.116-0.084-0.172-0.121c0.249,0.053,0.33-0.207,0.569-0.15c0.008,0.051,0.005,0.102,0.005,0.154"/>
					</g>
					<g>
						<path style="fill:none;stroke:#BFBDB9;stroke-width:0.0646;stroke-linecap:round;stroke-linejoin:round;" d="M227.884,91.457
							c0.011-0.041,0.007-0.076-0.007-0.111c-0.111,0.141-0.183,0.314-0.172,0.496c0.673-0.051,1.36-0.039,2.043-0.078
							c-0.243-0.812-1.479-0.08-1.619-0.525c-0.042,0.074-0.061,0.156-0.061,0.248c-0.026-0.119-0.044-0.234-0.038-0.357
							c-0.037,0.09-0.03,0.236-0.033,0.314c0.129,0.014,1.541-0.07,1.531-0.184c0.015,0.201,0.038,0.389,0.102,0.58
							c0.035-0.023,0.033-0.076,0.057-0.104c0.005,0.004,0.092,0.105,0.087,0.105c-0.021,0.01-0.11,0.037-0.128,0.053
							c-0.011,0.287,0.027,0.564,0.031,0.85c0.016-0.24-0.047-0.477-0.037-0.721c0,0.467,0,0.93,0,1.393
							c-0.005-0.041-0.004-0.102-0.005-0.143c-0.021,0.051-0.085,0.164-0.097,0.227c0.097-0.393,0.139-1.287-0.19-1.57
							c-0.331-0.289-1.019-0.107-1.432,0.086c-0.052-0.01-0.019-0.055-0.04-0.086c-0.007,0.043-0.026,0.215-0.029,0.201
							c-0.009-0.064,0.004-0.131,0.008-0.191c0.376,0.25,0.16,0.863,0.073,1.24c0.058-0.162,0.02-0.359-0.006-0.531
							c-0.018,0.096,0.002,0.207,0.003,0.299c0.228-0.098,0.536-0.852,0.69-0.865c0.028-0.004,0.445,0.342,0.617,0.367
							c-0.019,0.242,0.206,0.338,0.263,0.584c0.043,0.178,0.009,0.404,0.029,0.578c-0.154-0.162-0.177-0.279-0.222-0.459
							c-0.038-0.141,0.111-0.277-0.092-0.408c-0.382-0.246-0.426,0.557-0.301,0.822c-0.008-0.18-0.026-0.379,0.063-0.492
							c0.11,0.32,0.237,0.648,0.348,0.943c-0.351,0.02-0.71-0.225-1.032-0.15c0.196,0.229,1.287,0.215,1.489-0.076
							c-0.237,0.014-0.461,0.199-0.72,0.229c-0.368,0.047-0.733-0.049-1.09,0.078c0.484-0.23,1.017-0.32,1.567-0.215
							c0.245-0.359-0.109-0.834-0.269-1.164c0.005,0.025,0.026,0.068,0.027,0.084c-0.197-0.021-1.451-0.414-1.454-0.006
							c0.074,0.023,0.135,0.051,0.222,0.029c-0.028-0.031-0.04-0.064-0.085-0.111c0.363,0.004,0.936,0.082,1.227-0.182
							c0.04,0.199,0.439,0.398,0.584,0.5"/>
					</g>
				</g>
			</g>
			<g>
				<path style="fill:#944138;" d="M220.78,87.688c-0.577,2.309-0.98,2.955-2.166,2.955c-1.188,0-1.89-1.158-2.132-2.953
					c-0.011-0.07,0.943-0.074,2.132-0.074C219.8,87.615,220.796,87.617,220.78,87.688z"/>
				<path style="fill:none;stroke:#C2E6EA;stroke-width:0.1077;" d="M216.242,85.832c0,0.344,0.308,2.566,0.496,3.066
					c0.236,0.629,0.668,1.744,1.888,1.744c1.292,0,1.526-0.918,1.822-1.732c0.312-0.852,0.524-2.801,0.431-3.121
					c-0.05-0.174-1.425-0.318-2.253-0.318C217.861,85.471,216.452,85.609,216.242,85.832c-0.209,0.223,1.626,0.338,2.271,0.338
					c0.642,0,1.973,0.049,2.366-0.381"/>
				<path style="fill:none;stroke:#C2E6EA;stroke-width:0.2154;stroke-linecap:round;stroke-linejoin:round;" d="M218.304,96.369
					c0.037,0.01,0.068,0.016,0.104,0.023c0.294-0.561,0.219-4.479,0.219-4.479v-1.207"/>
				<path style="fill:none;stroke:#C2E6EA;stroke-width:0.0776;stroke-linecap:round;stroke-linejoin:round;" d="M220.847,96.395
					c0,0.176-0.994,0.32-2.219,0.32s-2.216-0.145-2.216-0.32c0-0.172,0.991-0.311,2.216-0.311S220.847,96.223,220.847,96.395z"/>
				<path style="fill:none;stroke:#C2E6EA;stroke-width:0.2154;stroke-linecap:round;stroke-linejoin:round;" d="M218.626,94.211
					c0.068,1.037,0,1.664,0.28,2.182c0.045-0.016,0.06-0.014,0.096-0.023"/>
			</g>
			<g>
				<path style="fill:#944138;" d="M239.806,87.688c-0.576,2.309-0.979,2.955-2.167,2.955c-1.189,0-1.886-1.158-2.131-2.953
					c-0.01-0.07,0.941-0.074,2.131-0.074C238.826,87.615,239.822,87.617,239.806,87.688z"/>
				<path style="fill:none;stroke:#C2E6EA;stroke-width:0.1077;" d="M235.269,85.832c0,0.344,0.31,2.566,0.496,3.066
					c0.237,0.629,0.668,1.744,1.89,1.744c1.289,0,1.525-0.918,1.822-1.732c0.311-0.852,0.524-2.801,0.431-3.121
					c-0.053-0.174-1.427-0.318-2.253-0.318C236.888,85.471,235.476,85.609,235.269,85.832c-0.208,0.223,1.625,0.338,2.273,0.338
					c0.64,0,1.969,0.049,2.365-0.381"/>
				<path style="fill:none;stroke:#C2E6EA;stroke-width:0.2154;stroke-linecap:round;stroke-linejoin:round;" d="M237.33,96.369
					c0.037,0.01,0.067,0.016,0.105,0.023c0.294-0.561,0.219-4.479,0.219-4.479v-1.207"/>
				<path style="fill:none;stroke:#C2E6EA;stroke-width:0.0776;stroke-linecap:round;stroke-linejoin:round;" d="M239.874,96.395
					c0,0.176-0.994,0.32-2.22,0.32c-1.224,0-2.22-0.145-2.22-0.32c0-0.172,0.996-0.311,2.22-0.311
					C238.88,96.084,239.874,96.223,239.874,96.395z"/>
				<path style="fill:none;stroke:#C2E6EA;stroke-width:0.2154;stroke-linecap:round;stroke-linejoin:round;" d="M237.654,94.211
					c0.067,1.037,0,1.664,0.275,2.182c0.047-0.016,0.061-0.014,0.099-0.023"/>
			</g>
		</g>
		<g>
			<path style="fill:none;stroke:#777768;stroke-width:0.8779;" d="M203.859,75.098c0,4.52-2.618,8.184-5.848,8.184
				c-3.225,0-5.845-3.664-5.845-8.184c0-4.517,2.62-8.175,5.845-8.175C201.241,66.923,203.859,70.581,203.859,75.098z"/>
			<path style="fill:none;stroke:#777768;stroke-width:0.8779;" d="M198.187,94.371c0.086,5.768,0.08,3.896-0.453,6.727
				c-0.833,4.465-1.667,4.855-1.667,8.924c0,6.574,22.056-1.98,21.224,1.881c-4.562,21.104-4.735,25.58-0.281,24.98"/>
			<path style="fill:none;stroke:#777768;stroke-width:0.8779;" d="M198.012,83.576c-0.008,1.438,0.04,3.65,0.092,6.209"/>
			<path style="fill:none;stroke:#777768;stroke-width:0.8779;" d="M201.502,92.059c0,1.395-1.058,2.525-2.365,2.525
				c-1.307,0-2.368-1.131-2.368-2.525c0-1.398,1.062-2.531,2.368-2.531C200.444,89.527,201.502,90.66,201.502,92.059z"/>
		</g>
		<g>
			<path style="fill:none;stroke:#777768;stroke-width:0.8779;" d="M253.799,70.626c0,4.342,2.511,7.856,5.614,7.856
				c3.102,0,5.615-3.514,5.615-7.856c0-4.337-2.514-7.854-5.615-7.854C256.31,62.772,253.799,66.289,253.799,70.626z"/>
			<path style="fill:none;stroke:#777768;stroke-width:0.8779;" d="M259.271,78.797c0.029,5.482-0.371,17.598,0.615,22.863
				c0.878,4.699,3.318,10.184,0.021,10.881c-6.4,1.354-21.203-4.74-20.946-0.568c1.37,21.631,0.969,26.098-3.73,25.473"/>
			<ellipse style="fill:none;stroke:#777768;stroke-width:0.8779;" cx="261.075" cy="111.189" rx="1.39" ry="1.496"/>
		</g>
		<g>
			<g>
				<path style="fill:#FCCF3D;" d="M137.022,86.264c-0.036,0.123-0.095,0.227-0.142,0.355c0.122-0.092,0.111-0.053,0.204,0.045
					c0.016-0.021,0.065-0.055,0.133-0.035c0.034,0.012,0.046,0.043,0.069,0.09c0.041-0.117,0.139-0.082,0.213,0.016
					c0.055-0.098,0.198-0.086,0.231,0.02c0.02,0.057,0.066-0.072,0.136-0.074c0.061-0.006,0.091,0.088,0.161,0.096
					c0.006-0.02,0.058-0.111,0.122-0.127c0.059,0,0.109,0.076,0.159,0.07c0.039-0.09,0.102-0.115,0.219-0.045
					c-0.046-0.07-0.087-0.254-0.099-0.33"/>
				<path style="fill:#FCCF3D;" d="M138.146,86.186c-0.306-0.057-0.55-0.086-0.826-0.057c-0.485,0.049-0.318,0.301,0.059,0.354
					c0.124,0.021,1.194,0.111,1.051-0.154C138.365,86.215,138.294,86.225,138.146,86.186"/>
			</g>
			<g>
				<path style="fill:#FCCF3D;stroke:#000000;stroke-width:0.0887;stroke-linecap:round;stroke-linejoin:round;" d="M137.022,86.264
					c-0.036,0.123-0.095,0.227-0.142,0.355c0.122-0.092,0.111-0.053,0.204,0.045c0.016-0.021,0.065-0.055,0.133-0.035
					c0.034,0.012,0.046,0.043,0.069,0.09c0.041-0.117,0.139-0.082,0.213,0.016c0.055-0.098,0.198-0.086,0.231,0.02
					c0.02,0.057,0.066-0.072,0.136-0.074c0.061-0.006,0.091,0.088,0.161,0.096c0.006-0.02,0.058-0.111,0.122-0.127
					c0.059,0,0.109,0.076,0.159,0.07c0.039-0.09,0.102-0.115,0.219-0.045c-0.046-0.07-0.087-0.254-0.099-0.33"/>
				<path style="fill:#FCCF3D;stroke:#000000;stroke-width:0.0887;stroke-linecap:round;stroke-linejoin:round;" d="M138.146,86.186
					c-0.306-0.057-0.55-0.086-0.826-0.057c-0.485,0.049-0.318,0.301,0.059,0.354c0.124,0.021,1.194,0.111,1.051-0.154
					C138.365,86.215,138.294,86.225,138.146,86.186"/>
			</g>
			<g>
				<path style="fill:none;stroke:#5DB753;stroke-width:0.1217;" d="M137.022,86.264c-0.036,0.123-0.095,0.227-0.142,0.355
					c0.122-0.092,0.111-0.053,0.204,0.045c0.016-0.021,0.065-0.055,0.133-0.035c0.034,0.012,0.046,0.043,0.069,0.09
					c0.041-0.117,0.139-0.082,0.213,0.016c0.055-0.098,0.198-0.086,0.231,0.02c0.02,0.057,0.066-0.072,0.136-0.074
					c0.061-0.006,0.091,0.088,0.161,0.096c0.006-0.02,0.058-0.111,0.122-0.127c0.059,0,0.109,0.076,0.159,0.07
					c0.039-0.09,0.102-0.115,0.219-0.045c-0.046-0.07-0.087-0.254-0.099-0.33"/>
				<path style="fill:none;stroke:#5DB753;stroke-width:0.1217;" d="M138.146,86.186c-0.306-0.057-0.55-0.086-0.826-0.057
					c-0.485,0.049-0.318,0.301,0.059,0.354c0.124,0.021,1.194,0.111,1.051-0.154C138.365,86.215,138.294,86.225,138.146,86.186"/>
			</g>
		</g>
		<path style="fill:#FFFFD9;" d="M131.886,91.34c0,0.086,0.012,0.371,0.012,0.674c0,0.277-1.528,0.391-2.396,0.391
			c-0.8,0-1.755-0.178-2.189-0.295c-0.278-0.076-0.192-0.67-0.192-0.77c0-0.26,1.067-0.465,2.384-0.465
			C130.818,90.875,131.886,91.08,131.886,91.34z"/>
		<g>
			<path style="fill:none;stroke:#FFFFFF;stroke-width:0.0887;" d="M127.627,93.543c0,0.045-0.039,0.084-0.088,0.084
				c-0.048,0-0.087-0.039-0.087-0.084c0-0.051,0.039-0.088,0.087-0.088C127.588,93.455,127.627,93.492,127.627,93.543z"/>
			<path style="fill:none;stroke:#FFFFFF;stroke-width:0.0887;" d="M127.843,96.395c0,0.053-0.04,0.09-0.089,0.09
				c-0.047,0-0.087-0.037-0.087-0.09c0-0.047,0.04-0.086,0.087-0.086C127.803,96.309,127.843,96.348,127.843,96.395z"/>
			<circle style="fill:none;stroke:#FFFFFF;stroke-width:0.0887;" cx="129.342" cy="97.014" r="0.087"/>
			<path style="fill:none;stroke:#FFFFFF;stroke-width:0.0887;" d="M128.656,96.24c0,0.051-0.038,0.086-0.088,0.086
				c-0.049,0-0.088-0.035-0.088-0.086c0-0.047,0.039-0.084,0.088-0.084C128.618,96.156,128.656,96.193,128.656,96.24z"/>
			<path style="fill:none;stroke:#FFFFFF;stroke-width:0.0887;" d="M129.965,95.865c0,0.043-0.039,0.082-0.087,0.082
				c-0.049,0-0.088-0.039-0.088-0.082c0-0.053,0.039-0.09,0.088-0.09C129.926,95.775,129.965,95.812,129.965,95.865z"/>
			<circle style="fill:none;stroke:#FFFFFF;stroke-width:0.0887;" cx="127.627" cy="94.709" r="0.088"/>
			<path style="fill:none;stroke:#FFFFFF;stroke-width:0.0887;" d="M129.98,94.541c0,0.043-0.037,0.082-0.087,0.082
				c-0.049,0-0.087-0.039-0.087-0.082c0-0.053,0.038-0.088,0.087-0.088C129.943,94.453,129.98,94.488,129.98,94.541z"/>
			<circle style="fill:none;stroke:#FFFFFF;stroke-width:0.0887;" cx="130.053" cy="93.42" r="0.088"/>
			<circle style="fill:none;stroke:#FFFFFF;stroke-width:0.0887;" cx="129.135" cy="93.311" r="0.086"/>
			<circle style="fill:none;stroke:#FFFFFF;stroke-width:0.0887;" cx="128.249" cy="95.262" r="0.088"/>
			<circle style="fill:none;stroke:#FFFFFF;stroke-width:0.0887;" cx="128.855" cy="94.297" r="0.087"/>
			<path style="fill:none;stroke:#FFFFFF;stroke-width:0.0887;" d="M129.564,95.156c0,0.051-0.037,0.086-0.086,0.086
				c-0.05,0-0.087-0.035-0.087-0.086c0-0.045,0.037-0.086,0.087-0.086C129.527,95.07,129.564,95.111,129.564,95.156z"/>
			<path style="fill:none;stroke:#FFFFFF;stroke-width:0.0887;" d="M128.167,92.926c0,0.043-0.04,0.08-0.087,0.08
				c-0.05,0-0.089-0.037-0.089-0.08c0-0.051,0.039-0.094,0.089-0.094C128.127,92.832,128.167,92.875,128.167,92.926z"/>
		</g>
		<path style="fill:none;stroke:#FFFFFF;stroke-width:0.0887;" d="M131.184,96.709c0.044-0.01,0.087,0.02,0.101,0.074
			c0.012,0.047-0.014,0.1-0.059,0.111c-0.042,0.014-0.086-0.02-0.096-0.072C131.116,96.775,131.143,96.723,131.184,96.709z"/>
		<path style="fill:none;stroke:#FFFFFF;stroke-width:0.0887;" d="M130.675,97.707c0.041-0.012,0.086,0.016,0.096,0.07
			c0.014,0.049-0.013,0.102-0.055,0.111c-0.043,0.012-0.086-0.02-0.1-0.07C130.606,97.768,130.63,97.717,130.675,97.707z"/>
		
			<ellipse transform="matrix(-0.2158 -0.9764 0.9764 -0.2158 67.1317 242.9381)" style="fill:none;stroke:#FFFFFF;stroke-width:0.0887;" cx="131.116" cy="94.513" rx="0.095" ry="0.079"/>
		<path style="fill:none;stroke:#FFFFFF;stroke-width:0.0887;" d="M131.26,92.934c0.046-0.008,0.086,0.021,0.1,0.07
			c0.014,0.053-0.014,0.104-0.057,0.113c-0.043,0.012-0.084-0.02-0.1-0.07C131.191,92.996,131.219,92.943,131.26,92.934z"/>
		<path style="fill:none;stroke:#FFFFFF;stroke-width:0.0887;" d="M131.112,95.648c0.044-0.01,0.087,0.021,0.098,0.07
			c0.012,0.053-0.011,0.105-0.054,0.113c-0.044,0.014-0.088-0.02-0.101-0.07C131.044,95.713,131.071,95.66,131.112,95.648z"/>
		<path style="fill:none;stroke:#FFFFFF;stroke-width:0.0887;" d="M127.897,97.816c0.041-0.014,0.086,0.02,0.098,0.072
			c0.012,0.049-0.015,0.098-0.057,0.111c-0.041,0.01-0.086-0.023-0.1-0.07C127.829,97.879,127.854,97.826,127.897,97.816z"/>
		<path style="fill:none;stroke:#FFFFFF;stroke-width:0.0887;" d="M128.852,97.869c0.045-0.008,0.089,0.023,0.102,0.07
			c0.012,0.055-0.015,0.104-0.058,0.113c-0.044,0.014-0.087-0.016-0.099-0.07C128.784,97.932,128.811,97.881,128.852,97.869z"/>
		<path style="fill:none;stroke:#FFFFFF;stroke-width:0.0887;" d="M129.998,97.318c0.04-0.012,0.084,0.021,0.096,0.074
			c0.011,0.051-0.014,0.102-0.056,0.113c-0.043,0.01-0.088-0.025-0.1-0.072C129.928,97.377,129.954,97.332,129.998,97.318z"/>
		<path style="fill:none;stroke:#A8D0DA;stroke-width:0.2009;stroke-linecap:round;stroke-linejoin:round;" d="M131.875,90.281
			c0,0.27-1.059,0.484-2.367,0.484c-1.305,0-2.365-0.215-2.365-0.484c0-0.264,1.061-0.479,2.365-0.479
			C130.816,89.803,131.875,90.018,131.875,90.281z"/>
		<path style="fill:none;stroke:#A8D0DA;stroke-width:0.5358;stroke-linejoin:round;" d="M131.897,92.498
			c0.438-0.172,0.617-0.35,1.219-0.277c1.253,0.148,1.253,3.49,0.642,4.867c-0.379,0.859-1.596,0.982-1.86,0.879"/>
		<path style="fill:#FFFFD9;" d="M151.864,91.443c0,0.086-0.012,0.365-0.012,0.672c0,0.275,1.529,0.389,2.396,0.389
			c0.801,0,1.757-0.174,2.189-0.291c0.279-0.076,0.192-0.672,0.192-0.77c0-0.258-1.063-0.467-2.382-0.467
			C152.932,90.977,151.864,91.186,151.864,91.443z"/>
		<g>
			<circle style="fill:none;stroke:#FFFFFF;stroke-width:0.0887;" cx="156.211" cy="93.645" r="0.088"/>
			<circle style="fill:none;stroke:#FFFFFF;stroke-width:0.0887;" cx="155.996" cy="96.498" r="0.087"/>
			<path style="fill:none;stroke:#FFFFFF;stroke-width:0.0887;" d="M154.321,97.113c0,0.051,0.037,0.088,0.087,0.088
				c0.049,0,0.089-0.037,0.089-0.088c0-0.041-0.04-0.084-0.089-0.084C154.358,97.029,154.321,97.072,154.321,97.113z"/>
			<path style="fill:none;stroke:#FFFFFF;stroke-width:0.0887;" d="M155.095,96.346c0,0.047,0.039,0.084,0.087,0.084
				c0.049,0,0.088-0.037,0.088-0.084c0-0.053-0.039-0.09-0.088-0.09C155.134,96.256,155.095,96.293,155.095,96.346z"/>
			<path style="fill:none;stroke:#FFFFFF;stroke-width:0.0887;" d="M153.785,95.963c0,0.051,0.041,0.086,0.089,0.086
				c0.047,0,0.088-0.035,0.088-0.086c0-0.045-0.041-0.084-0.088-0.084C153.826,95.879,153.785,95.918,153.785,95.963z"/>
			<path style="fill:none;stroke:#FFFFFF;stroke-width:0.0887;" d="M156.036,94.811c0,0.049,0.04,0.09,0.087,0.09
				c0.052,0,0.089-0.041,0.089-0.09c0-0.047-0.037-0.086-0.089-0.086C156.076,94.725,156.036,94.764,156.036,94.811z"/>
			<circle style="fill:none;stroke:#FFFFFF;stroke-width:0.0887;" cx="153.857" cy="94.641" r="0.088"/>
			<path style="fill:none;stroke:#FFFFFF;stroke-width:0.0887;" d="M153.612,93.523c0,0.045,0.037,0.082,0.086,0.082
				c0.048,0,0.087-0.037,0.087-0.082c0-0.049-0.039-0.086-0.087-0.086C153.649,93.438,153.612,93.475,153.612,93.523z"/>
			<path style="fill:none;stroke:#FFFFFF;stroke-width:0.0887;" d="M154.529,93.412c0,0.047,0.037,0.086,0.086,0.086
				s0.089-0.039,0.089-0.086c0-0.051-0.04-0.088-0.089-0.088S154.529,93.361,154.529,93.412z"/>
			<path style="fill:none;stroke:#FFFFFF;stroke-width:0.0887;" d="M155.414,95.363c0,0.045,0.039,0.086,0.088,0.086
				c0.048,0,0.087-0.041,0.087-0.086c0-0.051-0.039-0.086-0.087-0.086C155.453,95.277,155.414,95.312,155.414,95.363z"/>
			<circle style="fill:none;stroke:#FFFFFF;stroke-width:0.0887;" cx="154.895" cy="94.4" r="0.086"/>
			<circle style="fill:none;stroke:#FFFFFF;stroke-width:0.0887;" cx="154.272" cy="95.262" r="0.086"/>
			<circle style="fill:none;stroke:#FFFFFF;stroke-width:0.0887;" cx="155.672" cy="93.025" r="0.086"/>
		</g>
		<path style="fill:none;stroke:#FFFFFF;stroke-width:0.0887;" d="M152.566,96.814c-0.043-0.012-0.087,0.018-0.101,0.068
			c-0.011,0.053,0.016,0.102,0.059,0.113c0.042,0.014,0.087-0.02,0.098-0.07C152.635,96.875,152.608,96.826,152.566,96.814z"/>
		<path style="fill:none;stroke:#FFFFFF;stroke-width:0.0887;" d="M153.077,97.809c-0.043-0.01-0.086,0.018-0.098,0.07
			c-0.013,0.051,0.014,0.104,0.055,0.115c0.046,0.006,0.089-0.021,0.1-0.072C153.146,97.869,153.121,97.818,153.077,97.809z"/>
		<path style="fill:none;stroke:#FFFFFF;stroke-width:0.0887;" d="M152.657,94.525c-0.046-0.012-0.087,0.021-0.101,0.068
			c-0.011,0.053,0.016,0.102,0.057,0.115c0.044,0.008,0.086-0.02,0.1-0.074C152.726,94.584,152.699,94.535,152.657,94.525z"/>
		<path style="fill:none;stroke:#FFFFFF;stroke-width:0.0887;" d="M152.491,93.039c-0.044-0.014-0.087,0.018-0.098,0.068
			c-0.014,0.053,0.011,0.104,0.056,0.113c0.042,0.012,0.085-0.02,0.098-0.072C152.56,93.1,152.533,93.047,152.491,93.039z"/>
		<path style="fill:none;stroke:#FFFFFF;stroke-width:0.0887;" d="M152.638,95.756c-0.041-0.014-0.086,0.018-0.098,0.068
			s0.012,0.102,0.057,0.111c0.041,0.012,0.087-0.018,0.099-0.068C152.706,95.812,152.68,95.764,152.638,95.756z"/>
		<path style="fill:none;stroke:#FFFFFF;stroke-width:0.0887;" d="M155.854,97.916c-0.043-0.01-0.086,0.021-0.1,0.076
			c-0.009,0.045,0.016,0.1,0.057,0.109c0.043,0.012,0.087-0.021,0.1-0.072C155.923,97.982,155.898,97.93,155.854,97.916z"/>
		<path style="fill:none;stroke:#FFFFFF;stroke-width:0.0887;" d="M154.898,97.973c-0.043-0.01-0.089,0.021-0.1,0.07
			c-0.012,0.055,0.013,0.102,0.058,0.113c0.042,0.012,0.088-0.02,0.099-0.07C154.967,98.037,154.94,97.984,154.898,97.973z"/>
		
			<ellipse transform="matrix(0.2234 -0.9747 0.9747 0.2234 24.3433 225.5804)" style="fill:none;stroke:#FFFFFF;stroke-width:0.0887;" cx="153.733" cy="97.514" rx="0.096" ry="0.079"/>
		
			<ellipse style="fill:none;stroke:#A8D0DA;stroke-width:0.2009;stroke-linecap:round;stroke-linejoin:round;" cx="154.242" cy="90.385" rx="2.366" ry="0.482"/>
		<g>
			<g>
				
					<rect x="139.668" y="98.936" style="fill:#777768;stroke:#FFFFFF;stroke-width:0.4504;stroke-linecap:square;" width="2.452" height="38.02"/>
				<g>
					<path style="fill:#777768;" d="M120.089,98.098c0,0.828,0.671,1.5,1.5,1.5h38.606c0.829,0,1.5-0.672,1.5-1.5
						s-0.671-1.5-1.5-1.5h-38.606C120.76,96.598,120.089,97.27,120.089,98.098C120.089,98.098,120.089,97.27,120.089,98.098z"/>
					<path style="fill:none;stroke:#FFFFFF;stroke-width:0.6759;" d="M120.089,98.098c0,0.828,0.671,1.5,1.5,1.5h38.606
						c0.829,0,1.5-0.672,1.5-1.5s-0.671-1.5-1.5-1.5h-38.606C120.76,96.598,120.089,97.27,120.089,98.098
						C120.089,98.098,120.089,97.27,120.089,98.098z"/>
				</g>
			</g>
			<g>
				
					<line style="fill:none;stroke:#777768;stroke-width:2.2526;stroke-linecap:round;stroke-linejoin:round;" x1="107.861" y1="89.896" x2="107.861" y2="112.686"/>
				
					<line style="fill:none;stroke:#777768;stroke-width:2.2526;stroke-linecap:round;stroke-linejoin:round;" x1="107.861" y1="112.686" x2="129.016" y2="112.686"/>
				
					<line style="fill:none;stroke:#777768;stroke-width:2.2526;stroke-linecap:round;stroke-linejoin:round;" x1="129.016" y1="112.686" x2="107.84" y2="135.5"/>
				
					<line style="fill:none;stroke:#777768;stroke-width:2.2526;stroke-linecap:round;stroke-linejoin:round;" x1="107.84" y1="135.5" x2="120.038" y2="135.5"/>
			</g>
			<g>
				
					<line style="fill:none;stroke:#777768;stroke-width:2.2526;stroke-linecap:round;stroke-linejoin:round;" x1="176.443" y1="89.896" x2="176.443" y2="112.686"/>
				
					<line style="fill:none;stroke:#777768;stroke-width:2.2526;stroke-linecap:round;stroke-linejoin:round;" x1="176.443" y1="112.686" x2="155.291" y2="112.686"/>
				
					<line style="fill:none;stroke:#777768;stroke-width:2.2526;stroke-linecap:round;stroke-linejoin:round;" x1="155.291" y1="112.686" x2="176.464" y2="135.5"/>
				
					<line style="fill:none;stroke:#777768;stroke-width:2.2526;stroke-linecap:round;stroke-linejoin:round;" x1="176.464" y1="135.5" x2="164.267" y2="135.5"/>
			</g>
		</g>
		<g>
			<path style="fill:none;stroke:#777768;stroke-width:0.8779;" d="M117.229,70.626c0,4.342-2.516,7.856-5.619,7.856
				c-3.098,0-5.613-3.514-5.613-7.856c0-4.337,2.516-7.854,5.613-7.854C114.713,62.772,117.229,66.289,117.229,70.626z"/>
			<path style="fill:none;stroke:#777768;stroke-width:0.8779;" d="M111.753,78.797c-0.026,5.482,0.373,17.598-0.611,22.863
				c-0.879,4.699-3.32,10.184-0.024,10.881c6.402,1.354,21.206-4.74,20.95-0.568c-1.372,21.631-0.97,26.098,3.729,25.473"/>
			<ellipse style="fill:none;stroke:#777768;stroke-width:0.8779;" cx="109.95" cy="111.189" rx="1.39" ry="1.496"/>
		</g>
		<g>
			<path style="fill:#5DB753;stroke:#5DB753;stroke-width:0.0887;" d="M137.698,86.543c0-0.125,0-2.732,0-2.732
				c-0.577,0-0.782,0.105-0.748,0.928c0.03,0.773,0.062,0.164,0.062,1.092c0,0.676,0.011,2.16-0.38,2.689
				c-0.147,0.205-0.787,0.855-0.828,1.502c-0.011,0.139,1.895,0.096,1.895,0.096"/>
			<path style="fill:#5DB753;stroke:#5DB753;stroke-width:0.0887;" d="M137.705,90.117c0.008-0.555-1.901-0.201-1.901-0.096
				c-0.012,1.271-0.103,7.484,0.094,7.682c0.151,0.15,1.178,0.174,1.801,0.174"/>
		</g>
		<g>
			<path style="fill:#5DB753;stroke:#5DB753;stroke-width:0.0887;" d="M137.659,86.543c0-0.125,0-2.732,0-2.732
				c0.578,0,0.783,0.105,0.75,0.928c-0.032,0.773-0.062,0.164-0.062,1.092c0,0.676-0.011,2.16,0.38,2.689
				c0.148,0.205,0.787,0.855,0.828,1.502c0.01,0.139-1.896,0.096-1.896,0.096"/>
			<path style="fill:#5DB753;stroke:#5DB753;stroke-width:0.0887;" d="M137.584,90.117c-0.007-0.555,1.971-0.201,1.971-0.096
				c0.011,1.271,0.102,7.484-0.095,7.682c-0.151,0.15-1.14,0.174-1.762,0.174"/>
		</g>
		<path style="fill:#FCCF3D;stroke:#5DB753;stroke-width:0.0887;" d="M139.118,96.215c0,0-0.8,0.275-1.42,0.275
			c-0.619,0-1.501-0.275-1.501-0.275V90.75c0,0,0.799,0.234,1.501,0.234c0.7,0,1.42-0.234,1.42-0.234V96.215z"/>
		<path style="fill:#FCCF3D;" d="M131.897,96.857c0,0.613-1.362,0.613-2.438,0.613c-1.075,0-2.331-0.094-2.34-0.613
			c-0.007-0.521,0-7.289,0-7.289s0.51,0.396,2.382,0.396s2.396-0.396,2.396-0.396S131.897,96.248,131.897,96.857z"/>
		<path style="fill:none;stroke:#FFFFFF;stroke-width:0.0887;" d="M128.485,96.988c0.046-0.012,0.088,0.021,0.103,0.074
			c0.011,0.051-0.015,0.096-0.059,0.111c-0.044,0.012-0.087-0.021-0.098-0.074C128.418,97.053,128.444,97.002,128.485,96.988z"/>
		<path style="fill:none;stroke:#FFFFFF;stroke-width:0.0887;" d="M131.009,96.082c0.043-0.016,0.087,0.018,0.098,0.072
			c0.012,0.047-0.013,0.1-0.059,0.107c-0.041,0.014-0.087-0.02-0.098-0.068C130.938,96.143,130.965,96.092,131.009,96.082z"/>
		<path style="fill:none;stroke:#FFFFFF;stroke-width:0.0887;" d="M129.521,96.619c0.043-0.012,0.086,0.02,0.098,0.072
			c0.012,0.049-0.014,0.1-0.057,0.111c-0.044,0.008-0.087-0.02-0.099-0.074C129.452,96.682,129.479,96.629,129.521,96.619z"/>
		<path style="fill:none;stroke:#FFFFFF;stroke-width:0.0887;" d="M129.866,95.834c0.045-0.01,0.088,0.021,0.099,0.07
			c0.012,0.053-0.015,0.1-0.057,0.113s-0.086-0.02-0.098-0.072C129.799,95.895,129.823,95.846,129.866,95.834z"/>
		<path style="fill:none;stroke:#FFFFFF;stroke-width:0.0887;" d="M127.801,96.57c0.043-0.012,0.087,0.023,0.097,0.074
			c0.011,0.047-0.012,0.1-0.055,0.111c-0.044,0.014-0.089-0.021-0.099-0.072C127.731,96.635,127.758,96.584,127.801,96.57z"/>
		<path style="fill:none;stroke:#A8D0DA;stroke-width:0.2009;stroke-linecap:round;stroke-linejoin:round;" d="M127.143,87.842
			c-0.023,3.869-0.023,5.883-0.023,8.969c0,0.66,1.129,0.66,2.34,0.66c1.178,0,2.438,0.023,2.438-0.613c0-2.523,0-6.504-0.022-9.016
			"/>
		<path style="fill:none;stroke:#A8D0DA;stroke-width:0.134;stroke-linecap:round;stroke-linejoin:round;" d="M127.119,90.773
			c0.644-0.322,0.414,2.688,0.435,3.141c0.053,1.137-0.038,2.348-0.044,3.365"/>
		<path style="fill:none;stroke:#A8D0DA;stroke-width:0.134;stroke-linecap:round;stroke-linejoin:round;" d="M127.988,97.375
			c0-0.84,0.086-1.631,0.086-2.479c0-0.992-0.181-1.941,0.034-2.906c0.057-0.242,0.164-1.059,0.522-1.031
			c0.247,0.025,0.402,0.729,0.441,0.941c0.188,1.031,0.052,2.268,0.003,3.318c-0.035,0.715-0.088,1.592-0.088,2.201"/>
		<path style="fill:none;stroke:#A8D0DA;stroke-width:0.134;stroke-linecap:round;stroke-linejoin:round;" d="M129.508,97.42
			c0-1.129,0.103-2.221,0.042-3.367c-0.045-0.936-0.201-2.123,0.227-2.939c0.852-0.262,0.646,5.611,0.646,6.307"/>
		<path style="fill:none;stroke:#A8D0DA;stroke-width:0.134;stroke-linecap:round;stroke-linejoin:round;" d="M131.592,97.279
			c0-0.934,0.022-4.301-0.042-5.148c-0.032-0.42-0.498-2.137-0.784-0.98c-0.198,0.805-0.068,1.592,0.001,2.389
			c0.113,1.244,0.123,2.709,0.13,3.836"/>
		<path style="fill:#FCCF3D;" d="M151.853,96.959c0,0.613,1.364,0.613,2.438,0.613c1.075,0,2.334-0.09,2.34-0.613
			c0.007-0.52,0-7.283,0-7.283s-0.509,0.389-2.382,0.389c-1.871,0-2.396-0.389-2.396-0.389S151.853,96.352,151.853,96.959z"/>
		<path style="fill:none;stroke:#FFFFFF;stroke-width:0.0887;" d="M155.265,97.09c-0.043-0.008-0.087,0.023-0.101,0.074
			c-0.011,0.049,0.014,0.1,0.059,0.113c0.042,0.01,0.088-0.021,0.099-0.074C155.333,97.152,155.306,97.105,155.265,97.09z"/>
		<path style="fill:none;stroke:#FFFFFF;stroke-width:0.0887;" d="M152.744,96.186c-0.045-0.014-0.087,0.02-0.101,0.068
			c-0.009,0.051,0.016,0.1,0.059,0.111c0.042,0.014,0.087-0.018,0.099-0.072C152.812,96.248,152.785,96.197,152.744,96.186z"/>
		<path style="fill:none;stroke:#FFFFFF;stroke-width:0.0887;" d="M154.23,96.723c-0.041-0.014-0.087,0.02-0.098,0.068
			c-0.012,0.053,0.016,0.1,0.057,0.113c0.043,0.01,0.086-0.021,0.098-0.074C154.299,96.783,154.273,96.729,154.23,96.723z"/>
		<path style="fill:none;stroke:#FFFFFF;stroke-width:0.0887;" d="M153.884,95.936c-0.042-0.008-0.087,0.021-0.099,0.07
			c-0.012,0.053,0.015,0.102,0.057,0.115c0.044,0.012,0.087-0.021,0.099-0.072C153.951,95.998,153.927,95.947,153.884,95.936z"/>
		<path style="fill:none;stroke:#FFFFFF;stroke-width:0.0887;" d="M155.951,96.676c-0.045-0.012-0.087,0.021-0.098,0.068
			c-0.012,0.051,0.011,0.102,0.055,0.113c0.043,0.014,0.089-0.02,0.1-0.072C156.02,96.736,155.993,96.691,155.951,96.676z"/>
		<path style="fill:none;stroke:#A8D0DA;stroke-width:0.2009;stroke-linecap:round;stroke-linejoin:round;" d="M156.608,87.945
			c0.022,3.871,0.022,5.883,0.022,8.969c0,0.658-1.129,0.658-2.34,0.658c-1.178,0-2.438,0.021-2.438-0.613
			c0-2.523,0-6.502,0.023-9.014"/>
		<path style="fill:none;stroke:#A8D0DA;stroke-width:0.134;stroke-linecap:round;stroke-linejoin:round;" d="M156.631,90.877
			c-0.642-0.326-0.413,2.686-0.434,3.141c-0.054,1.135,0.037,2.344,0.043,3.367"/>
		<path style="fill:none;stroke:#A8D0DA;stroke-width:0.134;stroke-linecap:round;stroke-linejoin:round;" d="M155.763,97.479
			c0-0.84-0.087-1.631-0.087-2.48c0-0.994,0.182-1.939-0.033-2.902c-0.056-0.244-0.165-1.061-0.523-1.033
			c-0.247,0.025-0.401,0.729-0.439,0.938c-0.188,1.033-0.053,2.27-0.002,3.322c0.034,0.713,0.085,1.592,0.085,2.201"/>
		<path style="fill:none;stroke:#A8D0DA;stroke-width:0.134;stroke-linecap:round;stroke-linejoin:round;" d="M154.242,97.523
			c0-1.131-0.103-2.221-0.041-3.367c0.044-0.939,0.203-2.127-0.228-2.938c-0.849-0.268-0.643,5.609-0.643,6.305"/>
		<path style="fill:none;stroke:#A8D0DA;stroke-width:0.134;stroke-linecap:round;stroke-linejoin:round;" d="M152.159,97.385
			c0-0.936-0.021-4.305,0.043-5.152c0.032-0.416,0.497-2.137,0.783-0.98c0.199,0.807,0.068,1.59-0.002,2.387
			c-0.111,1.248-0.122,2.709-0.13,3.84"/>
		<g>
			<path style="fill:none;stroke:#777768;stroke-width:0.8779;" d="M167.067,70.626c0,4.342,2.515,7.856,5.617,7.856
				c3.102,0,5.615-3.514,5.615-7.856c0-4.337-2.514-7.854-5.615-7.854C169.582,62.772,167.067,66.289,167.067,70.626z"/>
			<path style="fill:none;stroke:#777768;stroke-width:0.8779;" d="M172.541,78.797c0.028,5.482-0.37,17.598,0.613,22.863
				c0.879,4.699,3.319,10.184,0.024,10.881c-6.4,1.354-21.207-4.74-20.95-0.568c1.372,21.631,0.971,26.098-3.727,25.473"/>
			<ellipse style="fill:none;stroke:#777768;stroke-width:0.8779;" cx="174.345" cy="111.189" rx="1.389" ry="1.496"/>
		</g>
		
			<line style="fill:none;stroke:#666666;stroke-width:0.9727;stroke-linecap:round;stroke-linejoin:round;" x1="107.922" y1="76.539" x2="21.873" y2="76.453"/>
	</g>
</g>
</svg>
