<?xml version="1.0" encoding="iso-8859-1"?>
<!-- Generator: Adobe Illustrator 13.0.0, SVG Export Plug-In . SVG Version: 6.00 Build 14948)  -->
<!DOCTYPE svg PUBLIC "-//W3C//DTD SVG 1.1//EN" "http://www.w3.org/Graphics/SVG/1.1/DTD/svg11.dtd">
<svg version="1.1" xmlns="http://www.w3.org/2000/svg" xmlns:xlink="http://www.w3.org/1999/xlink" x="0px" y="0px" width="378px"
	 height="140px" viewBox="0 0 378 140" style="enable-background:new 0 0 378 140;" xml:space="preserve">
<g id="Layer_2">
	<g>
		<rect style="fill:none;" width="378" height="140"/>
		<rect style="fill:#FFFFFF;" width="378" height="140"/>
	</g>
</g>
<g id="Layer_3">
	<path style="fill:none;stroke:#65B62C;stroke-width:0.7772;stroke-linecap:round;stroke-linejoin:round;" d="M6.032,73.457
		c56.991-6.269,283.12-12.134,365.935-12.134"/>
	
		<ellipse style="fill:#FFFFFF;stroke:#777768;stroke-width:1.8961;stroke-linecap:round;stroke-linejoin:round;" cx="153.41" cy="20.407" rx="8.879" ry="11.628"/>
	<path style="fill:none;stroke:#777768;stroke-width:1.8961;stroke-linecap:round;stroke-linejoin:round;" d="M153.678,47.815
		c0.132,8.197,0.115,16.98-0.694,21.006c-1.263,6.341-3.804,3.806-2.533,12.684c1.588,11.125,5.92,20.295,4.649,25.791
		c-6.922,30.007-7.187,30.865-0.426,30.021"/>
	<path style="fill:none;stroke:#777768;stroke-width:1.8961;stroke-linecap:round;stroke-linejoin:round;" d="M153.411,32.461
		c-0.011,2.044,0.06,5.191,0.138,8.828"/>
	<path style="fill:#FFFFFF;stroke:#777768;stroke-width:1.2638;stroke-linecap:round;stroke-linejoin:round;" d="M158.71,44.521
		c0,1.982-1.604,3.592-3.591,3.592c-1.985,0-3.6-1.609-3.6-3.592c0-1.986,1.614-3.596,3.6-3.596
		C157.106,40.926,158.71,42.535,158.71,44.521z"/>
	<g>
		<path style="fill:#FFFFFF;stroke:#777768;stroke-width:1.1092;stroke-linecap:round;stroke-linejoin:round;" d="M309.209,64.049
			c0,0.821-0.664,1.491-1.488,1.491c-0.815,0-1.487-0.669-1.487-1.491c0-0.82,0.672-1.486,1.487-1.486
			C308.545,62.563,309.209,63.229,309.209,64.049z"/>
		<path style="fill:#FFFFFF;stroke:#777768;stroke-width:1.1092;stroke-linecap:round;stroke-linejoin:round;" d="M314.653,19.02
			c0,4.608-2.856,8.341-6.369,8.341c-3.514,0-6.371-3.733-6.371-8.341c0-4.606,2.857-8.34,6.371-8.34
			C311.797,10.68,314.653,14.414,314.653,19.02z"/>
		<path style="fill:none;stroke:#777768;stroke-width:1.1092;stroke-linecap:round;stroke-linejoin:round;" d="M308.443,27.692
			c-0.029,5.822,0.781,23.039-0.331,28.626c-0.999,4.992-1.443,3.479-0.446,10.468c1.25,8.754-1.562,17.296-1.86,21.725
			c-1.552,22.97-1.692,22.395,3.636,21.727"/>
	</g>
	<path style="fill:none;stroke:#777768;stroke-width:1.2638;stroke-linecap:round;stroke-linejoin:round;" d="M153.507,39.312
		c6.22,0.215,9.954-8.775,11.537-13.511c2.647-7.878,1.004-15.536-1.53-23.302c0.677,3.174,1.528,7.543,2.674,10.437
		c1.25-3.061,0.514-6.713,2.035-9.64c0.801,3.46,0.521,7.081,0.505,10.609c0.059-1.745,0.729-3.439,1.778-4.824
		c-0.848,0.972-1.206,2.047-1.775,3.173"/>
</g>
</svg>
