<?xml version="1.0" encoding="iso-8859-1"?>
<!-- Generator: Adobe Illustrator 13.0.0, SVG Export Plug-In . SVG Version: 6.00 Build 14948)  -->
<!DOCTYPE svg PUBLIC "-//W3C//DTD SVG 1.1//EN" "http://www.w3.org/Graphics/SVG/1.1/DTD/svg11.dtd">
<svg version="1.1" xmlns="http://www.w3.org/2000/svg" xmlns:xlink="http://www.w3.org/1999/xlink" x="0px" y="0px" width="378px"
	 height="140px" viewBox="0 0 378 140" style="enable-background:new 0 0 378 140;" xml:space="preserve">
<g id="Layer_2">
	<g>
		<rect style="fill:none;" width="378" height="140"/>
		<rect style="fill:#FFFFFF;" width="378" height="140"/>
	</g>
</g>
<g id="roue_arriere">
</g>
<g id="roue_avant">
</g>
<g id="cadre">
	<g>
		<g>
			<g>
				
					<line style="fill:none;stroke:#777768;stroke-width:0.3;stroke-linecap:round;stroke-linejoin:round;" x1="237.09" y1="57.933" x2="237.09" y2="106.376"/>
				
					<line style="fill:none;stroke:#777768;stroke-width:0.3;stroke-linecap:round;stroke-linejoin:round;" x1="230.819" y1="58.759" x2="243.356" y2="105.552"/>
				
					<line style="fill:none;stroke:#777768;stroke-width:0.3;stroke-linecap:round;stroke-linejoin:round;" x1="224.976" y1="61.179" x2="249.199" y2="103.132"/>
				
					<line style="fill:none;stroke:#777768;stroke-width:0.3;stroke-linecap:round;stroke-linejoin:round;" x1="219.961" y1="65.028" x2="254.217" y2="99.283"/>
				
					<line style="fill:none;stroke:#777768;stroke-width:0.3;stroke-linecap:round;stroke-linejoin:round;" x1="216.111" y1="70.045" x2="258.065" y2="94.266"/>
				
					<line style="fill:none;stroke:#777768;stroke-width:0.3;stroke-linecap:round;stroke-linejoin:round;" x1="213.69" y1="75.888" x2="260.484" y2="88.426"/>
				
					<line style="fill:none;stroke:#777768;stroke-width:0.3;stroke-linecap:round;stroke-linejoin:round;" x1="212.866" y1="82.156" x2="261.312" y2="82.158"/>
				
					<line style="fill:none;stroke:#777768;stroke-width:0.3;stroke-linecap:round;stroke-linejoin:round;" x1="213.694" y1="88.426" x2="260.487" y2="75.888"/>
				
					<line style="fill:none;stroke:#777768;stroke-width:0.3;stroke-linecap:round;stroke-linejoin:round;" x1="216.111" y1="94.269" x2="258.068" y2="70.045"/>
				
					<line style="fill:none;stroke:#777768;stroke-width:0.3;stroke-linecap:round;stroke-linejoin:round;" x1="219.961" y1="99.286" x2="254.22" y2="65.029"/>
				
					<line style="fill:none;stroke:#777768;stroke-width:0.3;stroke-linecap:round;stroke-linejoin:round;" x1="224.979" y1="103.135" x2="249.204" y2="61.18"/>
				
					<line style="fill:none;stroke:#777768;stroke-width:0.3;stroke-linecap:round;stroke-linejoin:round;" x1="230.821" y1="105.554" x2="243.361" y2="58.759"/>
				<path style="fill:none;stroke:#777768;stroke-width:3.8646;stroke-linecap:round;stroke-linejoin:round;" d="M261.85,82.156
					c0,13.671-11.087,24.76-24.76,24.76c-13.676,0-24.762-11.089-24.762-24.76c0-13.677,11.086-24.763,24.762-24.763
					C250.763,57.394,261.85,68.479,261.85,82.156z"/>
			</g>
			<circle style="fill:#777768;" cx="237.089" cy="82.155" r="4.594"/>
		</g>
		<g>
			
				<line style="fill:none;stroke:#777768;stroke-width:0.3;stroke-linecap:round;stroke-linejoin:round;" x1="147.75" y1="57.51" x2="147.75" y2="105.953"/>
			
				<line style="fill:none;stroke:#777768;stroke-width:0.3;stroke-linecap:round;stroke-linejoin:round;" x1="141.481" y1="58.336" x2="154.02" y2="105.128"/>
			
				<line style="fill:none;stroke:#777768;stroke-width:0.3;stroke-linecap:round;stroke-linejoin:round;" x1="135.639" y1="60.756" x2="159.862" y2="102.709"/>
			
				<line style="fill:none;stroke:#777768;stroke-width:0.3;stroke-linecap:round;stroke-linejoin:round;" x1="130.623" y1="64.605" x2="164.878" y2="98.86"/>
			
				<line style="fill:none;stroke:#777768;stroke-width:0.3;stroke-linecap:round;stroke-linejoin:round;" x1="126.773" y1="69.623" x2="168.727" y2="93.843"/>
			
				<line style="fill:none;stroke:#777768;stroke-width:0.3;stroke-linecap:round;stroke-linejoin:round;" x1="124.354" y1="75.465" x2="171.147" y2="88.003"/>
			
				<line style="fill:none;stroke:#777768;stroke-width:0.3;stroke-linecap:round;stroke-linejoin:round;" x1="123.529" y1="81.733" x2="171.973" y2="81.735"/>
			
				<line style="fill:none;stroke:#777768;stroke-width:0.3;stroke-linecap:round;stroke-linejoin:round;" x1="124.354" y1="88.003" x2="171.148" y2="75.465"/>
			
				<line style="fill:none;stroke:#777768;stroke-width:0.3;stroke-linecap:round;stroke-linejoin:round;" x1="126.774" y1="93.846" x2="168.73" y2="69.623"/>
			
				<line style="fill:none;stroke:#777768;stroke-width:0.3;stroke-linecap:round;stroke-linejoin:round;" x1="130.625" y1="98.862" x2="164.882" y2="64.606"/>
			
				<line style="fill:none;stroke:#777768;stroke-width:0.3;stroke-linecap:round;stroke-linejoin:round;" x1="135.641" y1="102.712" x2="159.865" y2="60.757"/>
			
				<line style="fill:none;stroke:#777768;stroke-width:0.3;stroke-linecap:round;stroke-linejoin:round;" x1="141.483" y1="105.131" x2="154.024" y2="58.336"/>
			<path style="fill:none;stroke:#777768;stroke-width:3.8646;stroke-linecap:round;stroke-linejoin:round;" d="M172.511,81.733
				c0,13.671-11.085,24.76-24.76,24.76c-13.675,0-24.761-11.089-24.761-24.76c0-13.677,11.085-24.763,24.761-24.763
				C161.426,56.97,172.511,68.056,172.511,81.733z"/>
			<path style="fill:none;stroke:#777768;stroke-width:1.5;stroke-linecap:round;stroke-linejoin:round;" d="M138.857,51.376
				c2.632-0.734,5.405-1.126,8.269-1.126c16.98,0,30.772,13.781,30.998,30.87"/>
			<path style="fill:none;stroke:#757575;stroke-width:1.5;stroke-linecap:round;stroke-linejoin:round;" d="M257.075,56.778
				c-5.24-4.092-11.815-6.528-18.953-6.528c-16.98,0-30.772,13.781-30.997,30.87"/>
		</g>
		
			<line style="fill:#777768;stroke:#000000;stroke-width:2.5;stroke-linecap:round;stroke-linejoin:round;" x1="194.646" y1="71.563" x2="199.282" y2="81.284"/>
		
			<line style="fill:#777768;stroke:#000000;stroke-width:2.5;stroke-linecap:round;stroke-linejoin:round;" x1="197.709" y1="70.619" x2="191.228" y2="70.619"/>
		<circle style="fill:#777768;stroke:#777768;" cx="199.802" cy="82.406" r="6.655"/>
		<g>
			<path style="fill:none;stroke:#777768;stroke-width:3;stroke-linecap:round;stroke-linejoin:round;" d="M147.734,80.961
				l15.777-52.565c0,0-4.564-3.697-3.888-6.58c1.42-6.056,14.955-1.047,14.955-1.047"/>
			
				<line style="fill:none;stroke:#D5312C;stroke-width:3.5;stroke-linecap:round;stroke-linejoin:round;" x1="147.734" y1="80.961" x2="162.301" y2="32.43"/>
			<path style="fill:none;stroke:#777768;stroke-width:3.5;stroke-linecap:round;stroke-linejoin:round;" d="M199.877,82.533
				l21.359-53.24L199.877,82.533z"/>
			
				<line style="fill:none;stroke:#D5312C;stroke-width:3.5;stroke-linecap:round;stroke-linejoin:round;" x1="199.877" y1="82.533" x2="218.548" y2="35.686"/>
			
				<line style="fill:none;stroke:#D5312C;stroke-width:3.5;stroke-linecap:round;stroke-linejoin:round;" x1="158.739" y1="44.297" x2="199.877" y2="82.533"/>
			<polyline style="fill:none;stroke:#D5312C;stroke-width:3.5;stroke-linecap:round;stroke-linejoin:round;" points="
				199.931,82.406 237.264,82.331 217.647,39.014 			"/>
			<path style="fill:none;stroke:#D5312C;stroke-width:3.5;stroke-linecap:round;stroke-linejoin:round;" d="M217.647,39.014H160.82
				H217.647z"/>
		</g>
		<path style="stroke:#000000;stroke-width:1.7706;stroke-linecap:round;stroke-linejoin:round;" d="M207.478,24.151
			c0-2.891,2.294-3.282,11.565-3.282c9.272,0,12.712-0.196,12.712,4.571c0,4.323-3.738,4.181-5.333,4.181
			C224.825,29.621,207.478,27.042,207.478,24.151z"/>
		<circle style="fill:#777768;stroke:#777768;stroke-width:0.74;" cx="147.737" cy="81.812" r="2.767"/>
		<path d="M182.24,24.149c-0.359,1.069-1.316,1.712-2.138,1.436l-9.567-3.217c-0.821-0.276-1.196-1.366-0.836-2.436l0.324-0.966
			c0.36-1.069,1.316-1.712,2.138-1.436l9.568,3.217c0.821,0.276,1.196,1.366,0.836,2.436L182.24,24.149z"/>
		
			<line style="fill:#777768;stroke:#000000;stroke-width:2.5;stroke-linecap:round;stroke-linejoin:round;" x1="199.877" y1="82.446" x2="204.513" y2="92.167"/>
		
			<line style="fill:#777768;stroke:#000000;stroke-width:2.713;stroke-linecap:round;stroke-linejoin:round;" x1="207.978" y1="92.696" x2="201.496" y2="92.696"/>
	</g>
	<path style="fill:#777768;" d="M143.284,44.954c0,1.918-0.413,3.064,2.857,3.064c3.271,0,5.921-1.397,5.921-3.121
		c0-1.725-2.65-3.122-5.921-3.122C142.872,41.775,143.284,43.035,143.284,44.954z"/>
	<rect x="142.924" y="41.062" style="fill:#CCCCCC;" width="2.071" height="7.792"/>
</g>
</svg>
