<?xml version="1.0" encoding="iso-8859-1"?>
<!-- Generator: Adobe Illustrator 13.0.0, SVG Export Plug-In . SVG Version: 6.00 Build 14948)  -->
<!DOCTYPE svg PUBLIC "-//W3C//DTD SVG 1.1//EN" "http://www.w3.org/Graphics/SVG/1.1/DTD/svg11.dtd">
<svg version="1.1" xmlns="http://www.w3.org/2000/svg" xmlns:xlink="http://www.w3.org/1999/xlink" x="0px" y="0px" width="378px"
	 height="140px" viewBox="0 0 378 140" style="enable-background:new 0 0 378 140;" xml:space="preserve">
<g id="fond">
	<g>
		<rect style="fill:none;" width="378" height="140"/>
		<rect style="fill:#FFFFFF;" width="378" height="140"/>
	</g>
</g>
<g id="immeuble">
	<polyline style="fill:none;stroke:#CCCCCC;stroke-width:0.75;stroke-linecap:round;stroke-linejoin:round;" points="
		134.667,46.333 42.667,46.333 42.667,135.334 	"/>
	
		<line style="fill:none;stroke:#CCCCCC;stroke-width:0.75;stroke-linecap:round;stroke-linejoin:round;" x1="42.667" y1="72.25" x2="6.333" y2="72.25"/>
	<polyline style="fill:none;stroke:#CCCCCC;stroke-width:0.75;stroke-linecap:round;stroke-linejoin:round;" points="
		285.667,29.667 367,29.667 366.864,135.334 	"/>
</g>
<g id="fenetres">
	<g>
		
			<rect x="144.833" y="11.333" style="fill:none;stroke:#CCCCCC;stroke-width:0.75;stroke-linecap:round;stroke-linejoin:round;" width="13.667" height="19.333"/>
		
			<rect x="167.7" y="11.333" style="fill:none;stroke:#CCCCCC;stroke-width:0.75;stroke-linecap:round;stroke-linejoin:round;" width="13.667" height="19.333"/>
		
			<rect x="190.566" y="11.333" style="fill:none;stroke:#CCCCCC;stroke-width:0.75;stroke-linecap:round;stroke-linejoin:round;" width="13.667" height="12.779"/>
		
			<rect x="213.433" y="11.333" style="fill:none;stroke:#CCCCCC;stroke-width:0.75;stroke-linecap:round;stroke-linejoin:round;" width="13.667" height="19.333"/>
		
			<rect x="236.3" y="11.333" style="fill:none;stroke:#CCCCCC;stroke-width:0.75;stroke-linecap:round;stroke-linejoin:round;" width="13.667" height="19.333"/>
		
			<rect x="259.166" y="11.333" style="fill:none;stroke:#CCCCCC;stroke-width:0.75;stroke-linecap:round;stroke-linejoin:round;" width="13.667" height="19.333"/>
	</g>
	
		<rect x="236.3" y="33.867" style="fill:none;stroke:#CCCCCC;stroke-width:0.75;stroke-linecap:round;stroke-linejoin:round;" width="13.667" height="19.333"/>
	
		<rect x="259.166" y="33.867" style="fill:none;stroke:#CCCCCC;stroke-width:0.75;stroke-linecap:round;stroke-linejoin:round;" width="13.667" height="19.333"/>
	<g>
		
			<rect x="144.833" y="56.4" style="fill:none;stroke:#CCCCCC;stroke-width:0.75;stroke-linecap:round;stroke-linejoin:round;" width="13.667" height="19.333"/>
		
			<rect x="167.7" y="56.4" style="fill:none;stroke:#CCCCCC;stroke-width:0.75;stroke-linecap:round;stroke-linejoin:round;" width="13.667" height="19.333"/>
		
			<rect x="190.566" y="56.4" style="fill:none;stroke:#CCCCCC;stroke-width:0.75;stroke-linecap:round;stroke-linejoin:round;" width="13.667" height="12.779"/>
		
			<rect x="213.433" y="56.4" style="fill:none;stroke:#CCCCCC;stroke-width:0.75;stroke-linecap:round;stroke-linejoin:round;" width="13.667" height="19.333"/>
		
			<rect x="236.3" y="56.4" style="fill:none;stroke:#CCCCCC;stroke-width:0.75;stroke-linecap:round;stroke-linejoin:round;" width="13.667" height="19.333"/>
		
			<rect x="259.166" y="56.4" style="fill:none;stroke:#CCCCCC;stroke-width:0.75;stroke-linecap:round;stroke-linejoin:round;" width="13.667" height="19.333"/>
	</g>
	<g>
		
			<rect x="144.833" y="78.934" style="fill:none;stroke:#CCCCCC;stroke-width:0.75;stroke-linecap:round;stroke-linejoin:round;" width="13.667" height="19.333"/>
		
			<rect x="167.7" y="78.934" style="fill:none;stroke:#CCCCCC;stroke-width:0.75;stroke-linecap:round;stroke-linejoin:round;" width="13.667" height="19.333"/>
		
			<rect x="190.566" y="78.934" style="fill:none;stroke:#CCCCCC;stroke-width:0.75;stroke-linecap:round;stroke-linejoin:round;" width="13.667" height="12.779"/>
		
			<rect x="213.433" y="78.934" style="fill:none;stroke:#CCCCCC;stroke-width:0.75;stroke-linecap:round;stroke-linejoin:round;" width="13.667" height="19.333"/>
		
			<rect x="236.3" y="78.934" style="fill:none;stroke:#CCCCCC;stroke-width:0.75;stroke-linecap:round;stroke-linejoin:round;" width="13.667" height="19.333"/>
		
			<rect x="259.166" y="78.934" style="fill:none;stroke:#CCCCCC;stroke-width:0.75;stroke-linecap:round;stroke-linejoin:round;" width="13.667" height="19.333"/>
	</g>
	<g>
		
			<rect x="144.833" y="101.467" style="fill:none;stroke:#CCCCCC;stroke-width:0.75;stroke-linecap:round;stroke-linejoin:round;" width="13.667" height="19.333"/>
		
			<rect x="167.7" y="101.467" style="fill:none;stroke:#CCCCCC;stroke-width:0.75;stroke-linecap:round;stroke-linejoin:round;" width="13.667" height="19.333"/>
		
			<rect x="190.566" y="101.467" style="fill:none;stroke:#CCCCCC;stroke-width:0.75;stroke-linecap:round;stroke-linejoin:round;" width="13.667" height="12.779"/>
		
			<rect x="213.433" y="101.467" style="fill:none;stroke:#CCCCCC;stroke-width:0.75;stroke-linecap:round;stroke-linejoin:round;" width="13.667" height="19.333"/>
		
			<rect x="236.3" y="101.467" style="fill:none;stroke:#CCCCCC;stroke-width:0.75;stroke-linecap:round;stroke-linejoin:round;" width="13.667" height="19.333"/>
		
			<rect x="259.166" y="101.467" style="fill:none;stroke:#CCCCCC;stroke-width:0.75;stroke-linecap:round;stroke-linejoin:round;" width="13.667" height="19.333"/>
	</g>
	<g>
		<polyline style="fill:none;stroke:#CCCCCC;stroke-width:0.75;stroke-linecap:round;stroke-linejoin:round;" points="
			144.833,135.334 144.833,124 158.5,124 158.5,135.334 		"/>
		<polyline style="fill:none;stroke:#CCCCCC;stroke-width:0.75;stroke-linecap:round;stroke-linejoin:round;" points="
			167.7,135.334 167.7,124 181.367,124 181.367,135.334 		"/>
		<polyline style="fill:none;stroke:#CCCCCC;stroke-width:0.75;stroke-linecap:round;stroke-linejoin:round;" points="
			190.566,135.334 190.566,124 204.233,124 204.233,135.334 		"/>
		<polyline style="fill:none;stroke:#CCCCCC;stroke-width:0.75;stroke-linecap:round;stroke-linejoin:round;" points="
			213.433,135.334 213.433,124 227.1,124 227.1,135.334 		"/>
		<polyline style="fill:none;stroke:#CCCCCC;stroke-width:0.75;stroke-linecap:round;stroke-linejoin:round;" points="
			236.3,135.334 236.3,124 249.967,124 249.967,135.334 		"/>
		<polyline style="fill:none;stroke:#CCCCCC;stroke-width:0.75;stroke-linecap:round;stroke-linejoin:round;" points="
			259.166,135.334 259.166,124 272.833,124 272.833,135.334 		"/>
	</g>
	<polyline style="fill:none;stroke:#CCCCCC;stroke-width:0.75;stroke-linecap:round;stroke-linejoin:round;" points="
		134.667,135.334 134.667,7.667 285.667,7.667 285.667,135.334 	"/>
</g>
<g id="fenetre_appart">
	
		<rect x="144.833" y="33.867" style="fill:none;stroke:#777768;stroke-linecap:round;stroke-linejoin:round;" width="13.667" height="19.333"/>
	
		<rect x="167.7" y="33.867" style="fill:none;stroke:#777768;stroke-linecap:round;stroke-linejoin:round;" width="13.667" height="19.333"/>
	
		<rect x="190.566" y="33.867" style="fill:none;stroke:#777768;stroke-linecap:round;stroke-linejoin:round;" width="13.667" height="12.779"/>
	
		<rect x="213.433" y="33.867" style="fill:none;stroke:#777768;stroke-linecap:round;stroke-linejoin:round;" width="13.667" height="19.333"/>
</g>
</svg>
