<?xml version="1.0" encoding="iso-8859-1"?>
<!-- Generator: Adobe Illustrator 13.0.0, SVG Export Plug-In . SVG Version: 6.00 Build 14948)  -->
<!DOCTYPE svg PUBLIC "-//W3C//DTD SVG 1.1//EN" "http://www.w3.org/Graphics/SVG/1.1/DTD/svg11.dtd">
<svg version="1.1" xmlns="http://www.w3.org/2000/svg" xmlns:xlink="http://www.w3.org/1999/xlink" x="0px" y="0px" width="378px"
	 height="140px" viewBox="0 0 378 140" style="enable-background:new 0 0 378 140;" xml:space="preserve">
<g id="Layer_2">
	<g>
		<rect style="fill:none;" width="378" height="140"/>
		<rect style="fill:#FFFFFF;" width="378" height="140"/>
	</g>
</g>
<g id="Layer_5">
	<g>
		
			<polyline id="grande_ville_116_" style="fill:none;stroke:#777768;stroke-width:1.5;stroke-linecap:round;stroke-linejoin:round;" points="
			171.271,121.148 184.152,121.148 184.063,79.735 191.285,79.735 191.285,46.54 199.847,46.54 199.847,92.535 203.44,92.535 
			203.44,31.294 215.188,31.294 215.188,101.735 219.132,101.735 219.132,48.338 229.519,48.338 229.519,78.83 232.821,78.83 
			232.821,65.584 241.658,65.584 241.658,93.735 261.306,93.735 261.306,56.584 269.359,56.584 269.359,72.796 272.878,72.796 
			272.878,45.946 284.241,45.946 284.241,91.735 287.396,91.735 287.396,28.71 299.226,28.71 299.226,77.108 304.153,77.108 
			304.153,39.822 316.366,39.822 316.366,96.667 325.339,96.667 325.339,121.148 335.771,121.148 		"/>
		<g id="banlieue_1">
			<polyline style="fill:#FFFFFF;stroke:#CCCCCC;stroke-width:0.7;stroke-linecap:round;stroke-linejoin:round;" points="
				65.578,112.322 65.578,90.697 75.078,90.697 75.078,118.408 			"/>
			<polyline style="fill:#FFFFFF;stroke:#CCCCCC;stroke-width:0.7;stroke-linecap:round;stroke-linejoin:round;" points="
				80.047,109.375 72.609,109.375 72.609,121.148 76.894,121.148 			"/>
			<polyline style="fill:#FFFFFF;stroke:#CCCCCC;stroke-width:0.7;stroke-linecap:round;stroke-linejoin:round;" points="
				96.984,115.062 96.984,93.438 106.484,93.438 106.484,121.148 			"/>
			<polyline style="fill:#FFFFFF;stroke:#CCCCCC;stroke-width:0.7;stroke-linecap:round;stroke-linejoin:round;" points="
				42.229,121.148 51.062,121.148 51.062,91.167 60.249,91.167 60.249,107.667 66.369,107.667 66.369,121.148 79.894,121.148 
				79.894,101.735 92.881,101.735 92.881,111.14 103.217,111.14 103.217,121.148 109.359,121.148 109.359,114.188 113.553,114.188 
				113.553,104.039 120.766,104.031 120.766,110.039 126.281,110.039 126.281,121.148 136.646,121.148 			"/>
		</g>
	</g>
</g>
</svg>
