<?xml version="1.0" encoding="iso-8859-1"?>
<!-- Generator: Adobe Illustrator 13.0.0, SVG Export Plug-In . SVG Version: 6.00 Build 14948)  -->
<!DOCTYPE svg PUBLIC "-//W3C//DTD SVG 1.1//EN" "http://www.w3.org/Graphics/SVG/1.1/DTD/svg11.dtd">
<svg version="1.1" xmlns="http://www.w3.org/2000/svg" xmlns:xlink="http://www.w3.org/1999/xlink" x="0px" y="0px" width="378px"
	 height="140px" viewBox="0 0 378 140" style="enable-background:new 0 0 378 140;" xml:space="preserve">
<g id="Layer_2">
	<g>
		<rect style="fill:#FFFFFF;" width="378" height="140"/>
	</g>
</g>
<g id="Layer_3">
	<g>
		<g>
			<g>
				<path style="fill:none;stroke:#777768;stroke-width:1.101;" d="M85.474,12.3c0,5.408,3.352,9.795,7.485,9.795
					c4.125,0,7.481-4.387,7.481-9.795c0-5.413-3.356-9.8-7.481-9.8C88.825,2.5,85.474,6.887,85.474,12.3z"/>
				<path style="fill:none;stroke:#777768;stroke-width:1.101;" d="M92.767,22.487c0.011,2.319,0.108,10.693,0.232,20.95"/>
				<path style="fill:#777768;stroke:#777768;stroke-width:1.101;stroke-linecap:round;stroke-linejoin:round;" d="M93.068,25.194
					c0.917-0.359,1.887-1.204,2.833-1.239c-0.066,1.518-0.514,3.101-0.567,4.647c-1.175-0.456-1.593-2.234-2.535-2.977
					c-0.396-0.31-0.748-0.692-1.215-0.973c-0.524-0.324-0.97-0.767-1.566-0.933c-0.049,0.613,0.109,1.354-0.04,1.955
					c-0.157,0.608-1.183,1.469-0.893,2.142c0.372,0.879,3.317-1.72,3.713-2.397"/>
				<path style="fill:none;stroke:#777768;stroke-width:1.101;stroke-linecap:round;stroke-linejoin:round;" d="M86.248,43.438
					c0.322-1.193,0.639-2.273,0.894-2.853c1.305-2.908,3.447-9.362,5.688-11.516"/>
			</g>
		</g>
		<g>
			<rect x="220.66" y="70.427" style="fill:#65B724;stroke:#FFFFFF;stroke-width:0.9421;" width="3.76" height="49.934"/>
			<path style="fill:#65B724;stroke:#FFFFFF;stroke-width:0.9421;" d="M233.484,73.165h-21.884v-5.473c0,0,5.188-2.394,10.656-2.394
				c5.472,0,11.228,2.394,11.228,2.394V73.165z"/>
			<rect x="215.53" y="108.525" style="fill:#65B724;stroke:#FFFFFF;stroke-width:0.628;" width="14.023" height="1.282"/>
		</g>
		
			<line style="fill:none;stroke:#65B724;stroke-width:1.5613;stroke-linecap:round;" x1="37.933" y1="43.438" x2="157.156" y2="43.438"/>
		
			<line style="fill:none;stroke:#65B724;stroke-width:1.5704;stroke-linecap:round;" x1="157.156" y1="43.438" x2="205.028" y2="43.438"/>
		
			<line style="fill:none;stroke:#65B724;stroke-width:1.5704;stroke-linecap:round;" x1="205.028" y1="43.438" x2="205.028" y2="59.929"/>
		
			<line style="fill:none;stroke:#65B724;stroke-width:1.5704;stroke-linecap:round;" x1="205.028" y1="59.929" x2="197.965" y2="59.929"/>
		
			<line style="fill:none;stroke:#65B724;stroke-width:1.5704;stroke-linecap:round;" x1="197.965" y1="59.929" x2="197.965" y2="118.028"/>
		<g>
			<rect x="179.211" y="70.427" style="fill:#65B724;stroke:#FFFFFF;stroke-width:0.9421;" width="3.755" height="49.934"/>
			<path style="fill:#65B724;stroke:#FFFFFF;stroke-width:0.9421;" d="M192.029,73.165h-21.88v-5.473c0,0,5.182-2.394,10.655-2.394
				c5.471,0,11.225,2.394,11.225,2.394V73.165z"/>
			<rect x="174.079" y="108.525" style="fill:#65B724;stroke:#FFFFFF;stroke-width:0.628;" width="14.017" height="1.282"/>
		</g>
		<g>
			<rect x="134.2" y="70.427" style="fill:#65B724;stroke:#FFFFFF;stroke-width:0.9421;" width="3.76" height="49.934"/>
			<path style="fill:#65B724;stroke:#FFFFFF;stroke-width:0.9421;" d="M147.022,73.165h-21.886v-5.473c0,0,5.188-2.394,10.659-2.394
				c5.47,0,11.228,2.394,11.228,2.394V73.165z"/>
			<rect x="129.068" y="108.525" style="fill:#65B724;stroke:#FFFFFF;stroke-width:0.628;" width="14.021" height="1.282"/>
		</g>
		<g>
			<rect x="89.18" y="70.427" style="fill:#65B724;stroke:#FFFFFF;stroke-width:0.9421;" width="3.761" height="49.934"/>
			<path style="fill:#65B724;stroke:#FFFFFF;stroke-width:0.9421;" d="M102.001,73.165H80.115v-5.473c0,0,5.188-2.394,10.656-2.394
				c5.476,0,11.23,2.394,11.23,2.394V73.165z"/>
			<rect x="84.049" y="108.525" style="fill:#65B724;stroke:#FFFFFF;stroke-width:0.628;" width="14.02" height="1.282"/>
		</g>
		<g>
			<circle style="fill:#FFFFFF;stroke:#848574;stroke-width:1.101;" cx="123.916" cy="80.809" r="1.817"/>
			<path style="fill:none;stroke:#848574;stroke-width:1.101;" d="M124.792,36.428c-0.033,7.104,0.954,28.122-0.407,34.943
				c-1.218,6.091-1.755,4.244-0.537,12.775c1.527,10.689-1.912,21.115-2.275,26.524c-1.896,28.033-2.063,27.336,4.44,26.523"/>
			<path style="fill:none;stroke:#848574;stroke-width:1.101;" d="M132.37,25.837c0,5.625-3.477,10.184-7.775,10.184
				c-4.292,0-7.769-4.559-7.769-10.184c0-5.624,3.477-10.177,7.769-10.177C128.894,15.66,132.37,20.213,132.37,25.837z"/>
		</g>
		<g>
			<path style="fill:#FFFFFF;stroke:#848574;stroke-width:1.101;" d="M252.291,72.211c0,0.872,0.708,1.585,1.585,1.585
				c0.871,0,1.581-0.713,1.581-1.585s-0.71-1.583-1.581-1.583C252.999,70.628,252.291,71.339,252.291,72.211z"/>
			<path style="fill:none;stroke:#848574;stroke-width:1.101;" d="M253.109,33.505c0.032,6.2-0.839,24.526,0.352,30.475
				c1.063,5.316,1.534,3.702,0.471,11.144c-1.331,9.323,1.665,18.413,1.985,23.129c1.65,24.455,1.795,23.839-3.876,23.134"/>
			<path style="fill:none;stroke:#848574;stroke-width:1.101;" d="M251.761,32.932c0.489,0.142,0.994,0.22,1.515,0.22
				c3.746,0,6.783-3.974,6.783-8.881c0-4.901-3.037-8.875-6.783-8.875c-3.509,0-6.396,3.492-6.746,7.967"/>
		</g>
		<g>
			<path style="fill:#FFFFFF;stroke:#848574;stroke-width:1.101;" d="M237.579,72.211c0,0.872-0.711,1.585-1.583,1.585
				c-0.878,0-1.582-0.713-1.582-1.585s0.704-1.583,1.582-1.583C236.868,70.628,237.579,71.339,237.579,72.211z"/>
			<path style="fill:none;stroke:#848574;stroke-width:1.101;" d="M236.762,33.505c-0.037,6.2,0.833,24.526-0.354,30.475
				c-1.062,5.316-1.54,3.702-0.474,11.144c1.332,9.323-1.665,18.413-1.981,23.129c-1.654,24.455-1.801,23.839,3.873,23.134"/>
			<path style="fill:none;stroke:#848574;stroke-width:1.101;" d="M237.968,32.97c-0.447,0.119-0.904,0.182-1.375,0.182
				c-3.748,0-6.784-3.974-6.784-8.881c0-4.901,3.036-8.875,6.784-8.875c3.494,0,6.374,3.467,6.738,7.917"/>
		</g>
		<g>
			<path style="fill:none;stroke:#848574;stroke-width:1.101;" d="M133.948,32.572c0,5.752,3.557,10.414,7.955,10.414
				c4.389,0,7.953-4.662,7.953-10.414c0-5.757-3.564-10.423-7.953-10.423C137.505,22.149,133.948,26.815,133.948,32.572z"/>
			<path style="fill:none;stroke:#848574;stroke-width:1.101;" d="M141.903,43.369c0.029,6.628-0.898,26.224,0.375,32.582
				c1.137,5.684,3.412,3.409,2.275,11.37c-1.425,9.967-5.308,18.185-4.168,23.108c6.203,26.889,6.438,27.664,0.379,26.906"/>
			<path style="fill:#FFFFFF;stroke:#848574;stroke-width:1.101;" d="M137.147,54.177c0,1.777,1.445,3.221,3.219,3.221
				c1.783,0,3.224-1.443,3.224-3.221c0-1.778-1.441-3.223-3.224-3.223C138.592,50.954,137.147,52.398,137.147,54.177z"/>
		</g>
		<g>
			<path style="fill:none;stroke:#848574;stroke-width:1.101;" d="M237.915,32.165c0,5.02,3.109,9.087,6.941,9.087
				s6.94-4.068,6.94-9.087c0-5.016-3.108-9.082-6.94-9.082S237.915,27.149,237.915,32.165z"/>
			<path style="fill:none;stroke:#848574;stroke-width:1.101;" d="M244.856,41.586c0.028,5.776-0.777,22.871,0.331,28.414
				c0.988,4.956,2.976,2.975,1.98,9.914c-1.243,8.694-4.629,15.863-3.636,20.15c5.416,23.457,5.618,24.125,0.332,23.466"/>
			<circle style="fill:#FFFFFF;stroke:#848574;stroke-width:1.101;" cx="243.521" cy="51.007" r="2.809"/>
		</g>
	</g>
</g>
</svg>
