<?xml version="1.0" encoding="iso-8859-1"?>
<!-- Generator: Adobe Illustrator 13.0.0, SVG Export Plug-In . SVG Version: 6.00 Build 14948)  -->
<!DOCTYPE svg PUBLIC "-//W3C//DTD SVG 1.1//EN" "http://www.w3.org/Graphics/SVG/1.1/DTD/svg11.dtd">
<svg version="1.1" xmlns="http://www.w3.org/2000/svg" xmlns:xlink="http://www.w3.org/1999/xlink" x="0px" y="0px" width="378px"
	 height="140px" viewBox="0 0 378 140" style="enable-background:new 0 0 378 140;" xml:space="preserve">
<g id="Layer_2">
	<g>
		<rect style="fill:none;" width="378" height="140"/>
		<rect style="fill:#FFFFFF;" width="378" height="140"/>
	</g>
</g>
<g id="Layer_4">
	<path style="fill:none;stroke:#777768;stroke-width:1.1991;stroke-linecap:round;stroke-linejoin:round;" d="M166.176,34.125
		c1.989,1.77,4.219,3.142,6.246,4.946c2.991,2.665,5.8,5.9,9.284,7.916c2.038,1.179,6.784,4.383,9.206,4.215
		c1.545-0.107,4.776-3.041,5.364-3.01c0.892,0.53-1.599,2.104-0.451,1.75c0.537-0.166,3.778-0.036,3.778,0.449
		c0.127,0.344-0.393,0.684-0.393,0.684s1.072,0.191,1.072,0.662c0,0.44-0.74,0.289-0.74,0.289s0.703,0.449,0.703,0.797
		c0,0.1-0.928,0.086-0.928,0.086s0.449,0.266,0.1,0.616c-1.77-0.065-7.729-2.001-8.855-2.323"/>
</g>
<g id="Layer_6">
	<path style="fill:none;stroke:#777768;stroke-width:1.799;stroke-linecap:round;stroke-linejoin:round;" d="M165.862,30.21
		c-0.009,1.523,0.044,3.867,0.103,6.576"/>
	
		<ellipse style="fill:#FFFFFF;stroke:#777768;stroke-width:1.799;stroke-linecap:round;stroke-linejoin:round;" cx="165.862" cy="21.23" rx="6.615" ry="8.663"/>
	<path style="fill:none;stroke:#777768;stroke-width:1.799;stroke-linecap:round;stroke-linejoin:round;" d="M166.06,41.648
		c0.099,6.107,0.087,12.649-0.517,15.648c-0.94,4.723-2.833,2.835-1.887,9.45c1.183,8.286,4.41,15.118,3.463,19.211
		c-5.156,22.354-5.353,22.994-0.317,22.363"/>
	<path style="fill:#FFFFFF;stroke:#777768;stroke-width:1.1991;stroke-linecap:round;stroke-linejoin:round;" d="M169.81,39.194
		c0,1.478-1.195,2.677-2.675,2.677s-2.682-1.199-2.682-2.677c0-1.479,1.202-2.678,2.682-2.678S169.81,37.716,169.81,39.194z"/>
</g>
<g id="Layer_3">
	<polyline style="fill:#FFFFFF;stroke:#777768;stroke-width:0.6389;stroke-linecap:round;stroke-linejoin:round;" points="
		202.371,8.281 180.734,8.281 180.734,102.758 216.452,113.466 	"/>
	<g>
		
			<line style="fill:none;stroke:#777768;stroke-width:0.6389;stroke-linecap:round;stroke-linejoin:round;" x1="216.452" y1="113.466" x2="345.719" y2="113.466"/>
		<polyline style="fill:#FFFFFF;stroke:#777768;stroke-width:0.6389;stroke-linecap:round;stroke-linejoin:round;" points="
			163.452,8.281 163.452,113.466 163.452,113.466 32.283,113.466 		"/>
		<polyline style="fill:none;stroke:#777768;stroke-width:0.6389;stroke-linecap:round;stroke-linejoin:round;" points="
			216.452,113.466 216.452,8.281 163.452,8.281 		"/>
		<polyline style="fill:none;stroke:#777768;stroke-width:0.6389;stroke-linecap:round;stroke-linejoin:round;" points="
			182.462,56.096 180.734,56.586 184.638,58.295 		"/>
	</g>
</g>
<g id="Layer_5">
	<path style="fill:#FFFFFF;stroke:#777768;stroke-width:1.1991;stroke-linecap:round;stroke-linejoin:round;" d="M195.473,78.309
		c0,0.947,0.772,1.713,1.716,1.713c0.94,0,1.712-0.766,1.712-1.713c0-0.946-0.771-1.709-1.712-1.709
		C196.245,76.6,195.473,77.362,195.473,78.309z"/>
	<path style="fill:#FFFFFF;stroke:#777768;stroke-width:1.199;stroke-linecap:round;stroke-linejoin:round;" d="M189.212,26.482
		c0,5.303,3.281,9.6,7.329,9.6c4.045,0,7.33-4.297,7.33-9.6c0-5.302-3.285-9.599-7.33-9.599
		C192.493,16.883,189.212,21.18,189.212,26.482z"/>
	<path style="fill:none;stroke:#777768;stroke-width:1.199;stroke-linecap:round;stroke-linejoin:round;" d="M196.358,36.464
		c0.032,6.7-0.903,26.514,0.38,32.946c1.151,5.744,1.662,4.004,0.51,12.047c-1.436,10.076,1.8,19.906,2.149,25.008
		c1.782,26.434,1.942,25.771-4.191,25.004"/>
</g>
</svg>
