<?xml version="1.0" encoding="iso-8859-1"?>
<!-- Generator: Adobe Illustrator 13.0.0, SVG Export Plug-In . SVG Version: 6.00 Build 14948)  -->
<!DOCTYPE svg PUBLIC "-//W3C//DTD SVG 1.1//EN" "http://www.w3.org/Graphics/SVG/1.1/DTD/svg11.dtd">
<svg version="1.1" xmlns="http://www.w3.org/2000/svg" xmlns:xlink="http://www.w3.org/1999/xlink" x="0px" y="0px" width="378px"
	 height="140px" viewBox="0 0 378 140" style="enable-background:new 0 0 378 140;" xml:space="preserve">
<g id="fond">
	<rect style="fill:#FFFFFF;" width="378" height="140"/>
</g>
<g id="Layer_1">
	<g>
		<g>
			<path style="fill:none;stroke:#92938B;stroke-width:1.1995;" d="M106.947,16.792c0,5.283,3.271,9.567,7.308,9.567
				c4.032,0,7.306-4.284,7.306-9.567c0-5.285-3.274-9.568-7.306-9.568C110.218,7.224,106.947,11.507,106.947,16.792z"/>
			<path style="fill:none;stroke:#92938B;stroke-width:1.1995;" d="M114.069,26.742c0.012,2.266,0.104,10.444,0.228,20.46"/>
			<path style="fill:#92938B;stroke:#92938B;stroke-width:1.1995;stroke-linecap:round;stroke-linejoin:round;" d="M114.363,29.385
				c0.898-0.35,1.842-1.174,2.767-1.21c-0.066,1.482-0.503,3.027-0.558,4.539c-1.146-0.445-1.554-2.183-2.476-2.907
				c-0.384-0.303-0.729-0.675-1.183-0.951c-0.516-0.314-0.946-0.747-1.531-0.911c-0.044,0.6,0.107,1.326-0.039,1.909
				c-0.153,0.594-1.157,1.436-0.875,2.09c0.365,0.86,3.244-1.675,3.627-2.336"/>
			<path style="fill:none;stroke:#92938B;stroke-width:1.1995;stroke-linecap:round;stroke-linejoin:round;" d="M107.704,47.203
				c0.312-1.167,0.623-2.221,0.876-2.788c1.267-2.838,3.36-9.146,5.552-11.246"/>
		</g>
	</g>
	<g>
		<g>
			<g>
				<path style="fill:#CE4E43;" d="M358.4,76.137h-16.607c-0.982,0-1.78,0.796-1.78,1.779c0,0,0-0.983,0,0
					c0,0.982,0.798,1.779,1.78,1.779H358.4"/>
				<path style="fill:none;stroke:#FFFFFF;stroke-width:0.9618;" d="M358.4,76.137h-16.607c-0.982,0-1.78,0.796-1.78,1.779
					c0,0,0-0.983,0,0c0,0.982,0.798,1.779,1.78,1.779H358.4"/>
			</g>
		</g>
		<g>
			<rect x="178.075" y="73.435" style="fill:#78B432;stroke:#FFFFFF;stroke-width:0.9618;" width="3.834" height="50.971"/>
			<path style="fill:#78B432;stroke:#FFFFFF;stroke-width:0.9618;" d="M191.158,76.227H168.82v-5.586c0,0,5.298-2.444,10.883-2.444
				s11.456,2.444,11.456,2.444V76.227z"/>
			<rect x="172.833" y="112.32" style="fill:#78B432;stroke:#FFFFFF;stroke-width:0.6412;" width="14.314" height="1.309"/>
		</g>
		
			<line style="fill:none;stroke:#78B432;stroke-width:2.3989;stroke-linecap:round;" x1="18.699" y1="47.633" x2="159.616" y2="47.633"/>
		
			<line style="fill:none;stroke:#78B432;stroke-width:2.3989;stroke-linecap:square;" x1="159.616" y1="47.633" x2="159.616" y2="64.464"/>
		
			<line style="fill:none;stroke:#78B432;stroke-width:2.3989;stroke-linecap:square;" x1="159.616" y1="64.464" x2="152.402" y2="64.464"/>
		
			<line style="fill:none;stroke:#78B432;stroke-width:2.3989;stroke-linecap:square;" x1="152.402" y1="64.464" x2="152.402" y2="123.772"/>
		<line style="fill:none;stroke:#78B432;stroke-width:2.3989;" x1="152.402" y1="123.772" x2="358.4" y2="123.772"/>
		<g>
			<g>
				
					<line style="fill:none;stroke:#78B432;stroke-width:2.9986;stroke-linecap:round;stroke-linejoin:round;" x1="324.402" y1="68.186" x2="324.402" y2="95.205"/>
				
					<line style="fill:none;stroke:#78B432;stroke-width:2.9986;stroke-linecap:round;stroke-linejoin:round;" x1="324.402" y1="95.205" x2="351.418" y2="95.205"/>
				
					<line style="fill:none;stroke:#78B432;stroke-width:2.9986;stroke-linecap:round;stroke-linejoin:round;" x1="351.418" y1="95.205" x2="324.372" y2="122.252"/>
				
					<line style="fill:none;stroke:#78B432;stroke-width:2.9986;stroke-linecap:round;stroke-linejoin:round;" x1="324.372" y1="122.252" x2="339.95" y2="122.252"/>
			</g>
		</g>
	</g>
</g>
<g id="Layer_3">
	<g>
		<path style="fill:none;stroke:#92938B;stroke-width:1.7755;stroke-linecap:round;stroke-linejoin:round;" d="M136.657,21.521
			c0,6.016,3.72,10.889,8.314,10.889c4.589,0,8.315-4.873,8.315-10.889c0-6.011-3.726-10.884-8.315-10.884
			C140.377,10.637,136.657,15.51,136.657,21.521z"/>
		<path style="fill:none;stroke:#92938B;stroke-width:1.7755;stroke-linecap:round;stroke-linejoin:round;" d="M144.722,47.186
			c-0.124,7.677-0.109,15.899,0.649,19.668c1.182,5.938,3.561,3.564,2.372,11.877c-1.487,10.417-5.543,19.004-4.354,24.148
			c6.481,28.098,6.729,28.902,0.398,28.11"/>
		<path style="fill:none;stroke:#92938B;stroke-width:1.7755;stroke-linecap:round;stroke-linejoin:round;" d="M144.971,32.808
			c0.01,1.915-0.056,4.862-0.129,8.267"/>
		<path style="fill:#FFFFFF;stroke:#92938B;stroke-width:1.1837;stroke-linecap:round;stroke-linejoin:round;" d="M140.009,44.101
			c0,1.856,1.502,3.364,3.362,3.364s3.371-1.508,3.371-3.364c0-1.859-1.511-3.367-3.371-3.367S140.009,42.242,140.009,44.101z"/>
	</g>
	<g>
		<path style="fill:none;stroke:#92938B;stroke-width:1.1837;stroke-linecap:round;stroke-linejoin:round;" d="M189.311,72.268
			c0,1.048,0.845,1.898,1.896,1.898c1.039,0,1.897-0.851,1.897-1.898c0-1.049-0.858-1.896-1.897-1.896
			C190.155,70.371,189.311,71.219,189.311,72.268z"/>
		<path style="fill:none;stroke:#92938B;stroke-width:1.1837;stroke-linecap:round;stroke-linejoin:round;" d="M182.362,14.829
			c0,5.877,3.645,10.64,8.124,10.64c4.481,0,8.128-4.763,8.128-10.64c0-5.875-3.646-10.638-8.128-10.638
			C186.007,4.191,182.362,8.954,182.362,14.829z"/>
		<path style="fill:none;stroke:#92938B;stroke-width:1.1837;stroke-linecap:round;stroke-linejoin:round;" d="M190.285,25.892
			c0.037,7.426-0.998,29.386,0.422,36.513c1.274,6.366,1.84,4.438,0.57,13.353c-1.596,11.165,1.99,22.062,2.372,27.71
			c1.979,29.298,2.157,28.565-4.638,27.714"/>
	</g>
	<g>
		<path style="fill:none;stroke:#92938B;stroke-width:1.1834;stroke-linecap:round;stroke-linejoin:round;" d="M144.922,39.243
			c-4.417,2.97-11.531,21.5-14.062,21.5c-3.961,0-6.378-15.269-8.338-20.249c-1.631-0.45-2.582-2.263-2.695-2.493
			c-0.342-0.343,0.604-1.071,0.818-0.721c-0.055-0.478,1.46,0.023,1.565,0.54c-0.679-2.062-1.161-6.966-2.059-9.287
			c1.16,2.521,1.336,10.206,2.37,11.961c-0.215-1.891,2.577-7.732,2.799-10.183c-0.229,3.578-2.5,6.042-3.001,8.037
			c-0.031,0.024-0.412-0.411-0.108-0.528c-0.047,1.047,1.076-1.076,0,0c0.515,1.177-2.192,0.74-1.565-0.54"/>
		<path style="fill:none;stroke:#92938B;stroke-width:1.1834;stroke-linecap:round;stroke-linejoin:round;" d="M123.281,39.558
			c-0.222-0.842-0.349-1.982,0.336-2.427c0.674,0.674-0.294,2.429-0.553,2.901"/>
	</g>
</g>
</svg>
