<?xml version="1.0" encoding="iso-8859-1"?>
<!-- Generator: Adobe Illustrator 13.0.0, SVG Export Plug-In . SVG Version: 6.00 Build 14948)  -->
<!DOCTYPE svg PUBLIC "-//W3C//DTD SVG 1.1//EN" "http://www.w3.org/Graphics/SVG/1.1/DTD/svg11.dtd">
<svg version="1.1" xmlns="http://www.w3.org/2000/svg" xmlns:xlink="http://www.w3.org/1999/xlink" x="0px" y="0px" width="378px"
	 height="140px" viewBox="0 0 378 140" style="enable-background:new 0 0 378 140;" xml:space="preserve">
<g id="fond">
	<g>
		<rect style="fill:none;" width="378" height="140"/>
		<rect style="fill:#FFFFFF;" width="378" height="140"/>
	</g>
</g>
<g id="douche">
	<path style="fill:none;stroke:#777768;stroke-width:0.5175;stroke-linecap:round;stroke-linejoin:round;" d="M364.324,121.478
		L364.324,121.478c0,2.682-1.891,4.855-4.225,4.855h-66.373c-2.334,0-4.225-2.174-4.225-4.855"/>
	
		<rect x="326.046" y="12.348" style="fill:none;stroke:#777768;stroke-width:0.4083;stroke-linecap:round;stroke-linejoin:round;" width="1.734" height="109.361"/>
	<g>
		
			<rect x="322.157" y="63.531" style="fill:#FFFFFF;stroke:#777768;stroke-width:0.5175;stroke-linecap:round;stroke-linejoin:round;" width="9.189" height="0.954"/>
		
			<circle style="fill:#FFFFFF;stroke:#777768;stroke-width:0.5175;stroke-linecap:round;stroke-linejoin:round;" cx="322.157" cy="64.008" r="2.254"/>
		
			<circle style="fill:#FFFFFF;stroke:#777768;stroke-width:0.5175;stroke-linecap:round;stroke-linejoin:round;" cx="331.669" cy="64.008" r="2.254"/>
	</g>
	<path style="fill:#FFFFFF;stroke:#777768;stroke-width:0.5175;stroke-linecap:round;stroke-linejoin:round;" d="M320.035,16.22
		c0-2.331,3.078-4.22,6.879-4.22c3.799,0,6.877,1.889,6.877,4.22H320.035z"/>
	<path style="fill:#FFFFFF;stroke:#777768;stroke-width:0.5175;stroke-linecap:round;stroke-linejoin:round;" d="M334.312,16.827
		c0,0.334-0.271,0.606-0.607,0.606h-13.582c-0.336,0-0.607-0.272-0.607-0.606l0,0c0-0.336,0.271-0.607,0.607-0.607h13.582
		C334.04,16.22,334.312,16.491,334.312,16.827L334.312,16.827z"/>
</g>
<g id="Layer_7">
	
		<line style="fill:none;stroke:#0099CC;stroke-width:0.5175;stroke-linecap:round;stroke-linejoin:round;stroke-dasharray:2.7745,4.1617;" x1="320.778" y1="19.432" x2="302.065" y2="114.443"/>
	
		<line style="fill:none;stroke:#0099CC;stroke-width:0.5175;stroke-linecap:round;stroke-linejoin:round;stroke-dasharray:2.7745,4.1617;" x1="323.214" y1="19.432" x2="314.611" y2="114.443"/>
	
		<line style="fill:none;stroke:#0099CC;stroke-width:0.5175;stroke-linecap:round;stroke-linejoin:round;stroke-dasharray:2.7745,4.1617;" x1="324.966" y1="19.432" x2="323.214" y2="114.443"/>
	
		<line style="fill:none;stroke:#0099CC;stroke-width:0.5175;stroke-linecap:round;stroke-linejoin:round;stroke-dasharray:2.7745,4.1617;" x1="332.892" y1="19.432" x2="351.606" y2="114.443"/>
	
		<line style="fill:none;stroke:#0099CC;stroke-width:0.5175;stroke-linecap:round;stroke-linejoin:round;stroke-dasharray:2.7745,4.1617;" x1="330.457" y1="19.432" x2="339.06" y2="114.443"/>
	
		<line style="fill:none;stroke:#0099CC;stroke-width:0.5175;stroke-linecap:round;stroke-linejoin:round;stroke-dasharray:2.7745,4.1617;" x1="328.706" y1="19.432" x2="330.457" y2="114.443"/>
</g>
<g id="hotel_interieur">
	
		<rect x="216.159" y="20.051" style="fill:none;stroke:#CCCCCC;stroke-width:0.5529;stroke-linecap:round;stroke-linejoin:round;" width="16.067" height="25.863"/>
	
		<rect x="161.36" y="51.202" style="fill:none;stroke:#CCCCCC;stroke-width:0.5529;stroke-linecap:round;stroke-linejoin:round;" width="16.066" height="17.138"/>
	
		<rect x="188.79" y="51.202" style="fill:none;stroke:#CCCCCC;stroke-width:0.5529;stroke-linecap:round;stroke-linejoin:round;" width="16.065" height="17.138"/>
	
		<rect x="216.22" y="51.202" style="fill:none;stroke:#CCCCCC;stroke-width:0.5529;stroke-linecap:round;stroke-linejoin:round;" width="16.065" height="17.138"/>
	
		<rect x="161.36" y="20.051" style="fill:none;stroke:#CCCCCC;stroke-width:0.5529;stroke-linecap:round;stroke-linejoin:round;" width="16.066" height="17.138"/>
	
		<rect x="188.79" y="20.051" style="fill:none;stroke:#CCCCCC;stroke-width:0.5529;stroke-linecap:round;stroke-linejoin:round;" width="16.065" height="17.138"/>
	
		<rect x="212.873" y="34.282" style="fill:#FFFFFF;stroke:#777768;stroke-width:0.8293;stroke-linecap:round;stroke-linejoin:round;" width="22.639" height="11.76"/>
	
		<rect x="212.873" y="46.042" style="fill:#FFFFFF;stroke:#777768;stroke-width:0.8293;stroke-linecap:round;stroke-linejoin:round;" width="22.639" height="1.265"/>
	
		<polyline id="porte_1_" style="fill:none;stroke:#CCCCCC;stroke-width:0.5529;stroke-linecap:round;stroke-linejoin:round;" points="
		165.164,128.2 165.164,82.257 195.826,82.257 195.826,128.2 241.332,128.2 	"/>
</g>
<g id="hotel_contour">
	<polyline style="fill:none;stroke:#CCCCCC;stroke-width:0.5529;stroke-linecap:round;stroke-linejoin:round;" points="
		261.907,128.2 241.332,128.2 241.332,10.255 152.43,10.255 152.43,128.2 120.797,128.2 	"/>
	
		<polygon id="pente_2_" style="fill:#FFFFFF;stroke:#CCCCCC;stroke-width:0.5529;stroke-linecap:round;stroke-linejoin:round;" points="
		170.749,113.802 170.749,128.2 135.14,128.2 	"/>
	<g id="escalier_2_">
		
			<rect x="158.454" y="123.45" style="fill:#FFFFFF;stroke:#CCCCCC;stroke-width:0.5529;stroke-linecap:round;stroke-linejoin:round;" width="44.083" height="4.75"/>
		
			<rect x="170.749" y="113.802" style="fill:none;stroke:#CCCCCC;stroke-width:0.5529;stroke-linecap:round;stroke-linejoin:round;" width="19.494" height="4.75"/>
		
			<rect x="165.164" y="118.699" style="fill:#FFFFFF;stroke:#CCCCCC;stroke-width:0.5529;stroke-linecap:round;stroke-linejoin:round;" width="30.662" height="4.751"/>
	</g>
	<g id="portes_2_">
		<polyline style="fill:none;stroke:#CCCCCC;stroke-width:0.5529;stroke-linecap:round;stroke-linejoin:round;" points="
			165.164,82.257 173.639,89.31 173.639,113.802 		"/>
		<polyline style="fill:none;stroke:#CCCCCC;stroke-width:0.5529;stroke-linecap:round;stroke-linejoin:round;" points="
			195.568,82.257 187.095,89.31 187.095,113.802 		"/>
	</g>
	<g id="pancarte_2_">
		
			<circle style="fill:none;stroke:#CCCCCC;stroke-width:0.5529;stroke-linecap:round;stroke-linejoin:round;" cx="219.075" cy="91.139" r="8.972"/>
		
			<rect x="208.732" y="89.769" style="fill:#FFFFFF;stroke:#CCCCCC;stroke-width:0.5529;stroke-linecap:round;stroke-linejoin:round;" width="20.682" height="16.321"/>
	</g>
	
		<rect x="138.813" y="56.395" style="fill:none;stroke:#CCCCCC;stroke-width:0.5529;stroke-linecap:round;stroke-linejoin:round;" width="8.817" height="25.862"/>
	<g>
		<polygon style="fill:#FFCC00;stroke:#CCCCCC;stroke-width:0.5529;stroke-linecap:round;stroke-linejoin:round;" points="
			143.465,59.376 144.39,61.249 146.456,61.55 144.96,63.007 145.313,65.064 143.465,64.093 141.617,65.064 141.97,63.007 
			140.474,61.55 142.541,61.249 		"/>
		<polygon style="fill:#FFCC00;stroke:#CCCCCC;stroke-width:0.5529;stroke-linecap:round;stroke-linejoin:round;" points="
			143.465,66.612 144.39,68.485 146.456,68.787 144.96,70.243 145.313,72.3 143.465,71.328 141.617,72.3 141.97,70.243 
			140.474,68.787 142.541,68.485 		"/>
		<polygon style="fill:#FFCC00;stroke:#CCCCCC;stroke-width:0.5529;stroke-linecap:round;stroke-linejoin:round;" points="
			143.102,73.848 144.026,75.72 146.093,76.021 144.597,77.478 144.951,79.535 143.102,78.563 141.254,79.535 141.607,77.478 
			140.112,76.021 142.178,75.72 		"/>
	</g>
	
		<line style="fill:#FFCC00;stroke:#CCCCCC;stroke-width:0.5529;stroke-linecap:round;stroke-linejoin:round;" x1="147.63" y1="60.117" x2="152.43" y2="60.117"/>
	
		<line style="fill:#FFCC00;stroke:#CCCCCC;stroke-width:0.5529;stroke-linecap:round;stroke-linejoin:round;" x1="147.63" y1="78.375" x2="152.43" y2="78.375"/>
</g>
<g id="baignoire">
	<g>
		<g>
			<path style="fill:#FFFFFF;stroke:#777768;stroke-width:0.6589;stroke-linecap:round;stroke-linejoin:round;" d="M55.76,92.844
				h-9.141c-4.555,0-6.413,0.065-9.895,0.065c-10.398,0-11.709-2.057-14.758-9.646c-1.286-3.2-2.16-5.538-3.972-9.931
				c-2.22-5.376-7.011-9.523-7.011-9.523h28.743"/>
			<path style="fill:#FFFFFF;stroke:#777768;stroke-width:0.6589;stroke-linecap:round;stroke-linejoin:round;" d="M55.76,60.129
				H32.715c-12.003,0-21.732,1.516-21.732,3.389c0,1.87,9.729,3.387,21.732,3.387H55.76"/>
		</g>
		<path style="fill:#FFFFFF;stroke:#777768;stroke-width:0.4392;stroke-linecap:round;stroke-linejoin:round;" d="M34.034,93
			c-3.111,0-1.467,6.309-5.499,6.309c-2.257,0-3.286,1.621-3.286,1.621l0,0c0,0,0,0,3.198,0c1.419,0,3.812-0.657,4.809-3.384
			C34.513,94.108,38.394,93,38.394,93H34.034z"/>
		<g>
			<path style="fill:#FFFFFF;stroke:#777768;stroke-width:0.6589;stroke-linecap:round;stroke-linejoin:round;" d="M55.76,92.844
				H64.9c4.556,0,6.413,0.065,9.895,0.065c10.399,0,11.709-2.057,14.759-9.646c1.285-3.2,2.16-5.538,3.972-9.931
				c2.22-5.376,7.011-9.523,7.011-9.523H71.793"/>
			<path style="fill:#FFFFFF;stroke:#777768;stroke-width:0.6589;stroke-linecap:round;stroke-linejoin:round;" d="M55.76,60.129
				h23.045c12.002,0,21.732,1.516,21.732,3.389c0,1.87-9.73,3.387-21.732,3.387H55.76"/>
		</g>
		<path style="fill:#FFFFFF;stroke:#777768;stroke-width:0.4392;stroke-linecap:round;stroke-linejoin:round;" d="M77.486,93
			c3.11,0,1.467,6.309,5.498,6.309c2.257,0,3.287,1.621,3.287,1.621l0,0c0,0,0,0-3.199,0c-1.419,0-3.812-0.657-4.81-3.384
			C77.006,94.108,73.125,93,73.125,93H77.486z"/>
	</g>
</g>
</svg>
