<?xml version="1.0" encoding="iso-8859-1"?>
<!-- Generator: Adobe Illustrator 13.0.0, SVG Export Plug-In . SVG Version: 6.00 Build 14948)  -->
<!DOCTYPE svg PUBLIC "-//W3C//DTD SVG 1.1//EN" "http://www.w3.org/Graphics/SVG/1.1/DTD/svg11.dtd">
<svg version="1.1" xmlns="http://www.w3.org/2000/svg" xmlns:xlink="http://www.w3.org/1999/xlink" x="0px" y="0px" width="378px"
	 height="140px" viewBox="0 0 378 140" style="enable-background:new 0 0 378 140;" xml:space="preserve">
<g id="Layer_2">
	<g>
		<rect style="fill:none;" width="378" height="140"/>
		<rect style="fill:#FFFFFF;" width="378" height="140"/>
	</g>
</g>
<g id="Layer_3">
	<g>
		<g>
			<g>
				<path style="fill:none;stroke:#406FA9;stroke-width:7.1656;" d="M306.796,95.111c4.84,8.011,16.323,13.62,24.299,6.79
					c5.477-4.693,4.897-11.349,5.18-17.881c0.128-3.111,0.808-27.357-0.659-31.653c-1.205-3.528-24.738-23.233-27.475-26.784"/>
				<polygon style="fill:#406FA9;" points="334.712,50.13 318.264,55.51 318.599,35.484 				"/>
			</g>
			<g>
				<path style="fill:#406FA9;" d="M311.097,118.154c0,0.75-0.608,1.354-1.354,1.354h-58.967c-0.748,0-1.354-0.604-1.354-1.354
					V5.596c0-0.748,0.605-1.355,1.354-1.355c0,0,20.382-1.74,29.482-1.74c9.096,0,29.484,1.74,29.484,1.74
					c0.746,0,1.354,0.607,1.354,1.355V118.154z"/>
				<g>
					<path style="fill:#FFFFFF;" d="M305.624,44.287c0,0.22-0.502,0.402-1.114,0.402h-48.504c-0.613,0-1.114-0.183-1.114-0.402
						V10.844c0-0.222,0.501-0.399,1.114-0.399c0,0,16.771-2.115,24.254-2.115s24.25,2.115,24.25,2.115
						c0.612,0,1.114,0.178,1.114,0.399V44.287z"/>
					<g>
						<g>
							
								<line style="fill:none;stroke:#F72D1E;stroke-width:2.3885;stroke-linecap:round;stroke-linejoin:round;" x1="262.15" y1="18.369" x2="267.54" y2="26.795"/>
							
								<line style="fill:none;stroke:#406FA9;stroke-width:1.7913;stroke-linecap:round;stroke-linejoin:round;" x1="280.26" y1="12.126" x2="280.26" y2="22.531"/>
						</g>
						<g>
							
								<line style="fill:none;stroke:#6CB61E;stroke-width:2.3885;stroke-linecap:round;stroke-linejoin:round;" x1="298.367" y1="18.369" x2="292.978" y2="26.795"/>
							
								<line style="fill:none;stroke:#406FA9;stroke-width:1.7913;stroke-linecap:round;stroke-linejoin:round;" x1="294.826" y1="18.875" x2="280.26" y2="40.657"/>
						</g>
					</g>
				</g>
			</g>
		</g>
		<g>
			<path style="fill:#BDBCBC;" d="M41.855,73.523c0.028,4.85-1.243,9.392,0.621,13.959c1.518,3.714,3.413,6.497,4.076,11.013
				c0.675,4.552,1.294,9.027,2.187,13.559c1.211,6.167,7.256,5.361,12.382,6.125c0,0,3.122,19.321,20.828,19.321
				c17.704,0,20.407-19.321,20.407-19.321c1.713,0,86.811-0.811,94.178,0c0,0,5.108,18.838,21.254,18.838
				c16.145,0,21.965-18.838,21.965-18.838c9.863,0,26.769-21.286,22.335-31.097c-8.741-10.549-20.034-11.778-27.168-14.705
				c-2.166-0.891-14.975-32.477-20.505-32.479c-10.003-0.007-64.757-0.007-76.451-0.007c-9.988,0-14.195-1.254-20.203,6.151
				c-3.663,4.521-13.915,23.233-15.229,24.37C99.671,72.871,46.839,70.448,41.855,73.523"/>
			<path style="fill:#FFFFFF;" d="M128.814,46.509c5.725,0,32.327,0,32.327,0c0.981,0,1.773,0.792,1.773,1.771V71.7
				c0,0.976-0.792,1.771-1.773,1.771c0,0-40.447,0-48.005,0C105.59,73.471,123.087,46.509,128.814,46.509z"/>
			<path style="fill:#FFFFFF;" d="M205.832,46.509c-5.728,0-32.337,0-32.337,0c-0.98,0-1.771,0.792-1.771,1.771V71.7
				c0,0.976,0.79,1.771,1.771,1.771c0,0,40.463,0,48.006,0C229.05,73.471,211.562,46.509,205.832,46.509z"/>
			<path style="fill:#FFFFFF;" d="M92.996,119.609c0,6.092-4.946,11.038-11.047,11.038c-6.103,0-11.049-4.946-11.049-11.038
				c0-6.106,4.946-11.051,11.049-11.051C88.05,108.559,92.996,113.503,92.996,119.609z"/>
			<path style="fill:#FFFFFF;" d="M228.83,119.609c0,6.092-4.933,11.038-11.037,11.038c-6.107,0-11.047-4.946-11.047-11.038
				c0-6.106,4.939-11.051,11.047-11.051C223.897,108.559,228.83,113.503,228.83,119.609z"/>
		</g>
	</g>
</g>
</svg>
