<?xml version="1.0" encoding="iso-8859-1"?>
<!-- Generator: Adobe Illustrator 13.0.0, SVG Export Plug-In . SVG Version: 6.00 Build 14948)  -->
<!DOCTYPE svg PUBLIC "-//W3C//DTD SVG 1.1//EN" "http://www.w3.org/Graphics/SVG/1.1/DTD/svg11.dtd">
<svg version="1.1" xmlns="http://www.w3.org/2000/svg" xmlns:xlink="http://www.w3.org/1999/xlink" x="0px" y="0px" width="378px"
	 height="140px" viewBox="0 0 378 140" style="enable-background:new 0 0 378 140;" xml:space="preserve">
<g id="Layer_2">
	<g>
		<rect style="fill:none;" width="378" height="140"/>
		<rect style="fill:#FFFFFF;" width="378" height="140"/>
	</g>
</g>
<g id="Layer_3">
	<g>
		<path style="fill:#FFFFFF;stroke:#777768;stroke-width:1.8834;stroke-linecap:round;stroke-linejoin:round;" d="M172.229,20.882
			c0,6.382-3.944,11.551-8.819,11.551c-4.868,0-8.819-5.169-8.819-11.551c0-6.377,3.951-11.547,8.819-11.547
			C168.284,9.335,172.229,14.505,172.229,20.882z"/>
		<path style="fill:none;stroke:#777768;stroke-width:1.8834;stroke-linecap:round;stroke-linejoin:round;" d="M163.674,48.106
			c0.132,8.143,0.117,16.865-0.688,20.864c-1.254,6.297-3.777,3.778-2.517,12.598c1.578,11.05,5.881,20.157,4.618,25.617
			c-6.875,29.804-7.137,30.658-0.422,29.817"/>
		<path style="fill:none;stroke:#777768;stroke-width:1.8834;stroke-linecap:round;stroke-linejoin:round;" d="M163.409,32.854
			c-0.01,2.03,0.059,5.156,0.139,8.769"/>
		<path style="fill:#FFFFFF;stroke:#777768;stroke-width:1.2557;stroke-linecap:round;stroke-linejoin:round;" d="M168.674,44.833
			c0,1.97-1.594,3.57-3.566,3.57c-1.974,0-3.575-1.601-3.575-3.57c0-1.971,1.602-3.569,3.575-3.569
			C167.08,41.264,168.674,42.862,168.674,44.833z"/>
	</g>
	<g>
		<path style="fill:none;stroke:#777768;stroke-width:1.2557;stroke-linecap:round;stroke-linejoin:round;" d="M213.538,74.711
			c0,1.11,0.898,2.016,2.012,2.016c1.104,0,2.013-0.905,2.013-2.016s-0.908-2.012-2.013-2.012
			C214.437,72.699,213.538,73.601,213.538,74.711z"/>
		<path style="fill:#FFFFFF;stroke:#777768;stroke-width:1.2557;stroke-linecap:round;stroke-linejoin:round;" d="M206.171,13.784
			c0,6.231,3.863,11.285,8.614,11.285c4.757,0,8.624-5.054,8.624-11.285c0-6.233-3.867-11.285-8.624-11.285
			C210.034,2.499,206.171,7.551,206.171,13.784z"/>
		<path style="fill:none;stroke:#777768;stroke-width:1.2557;stroke-linecap:round;stroke-linejoin:round;" d="M214.573,25.519
			c0.04,7.876-1.059,31.169,0.448,38.73c1.351,6.755,1.951,4.708,0.603,14.165c-1.689,11.844,2.112,23.401,2.519,29.395
			c2.099,31.078,2.287,30.302-4.92,29.396"/>
	</g>
	<path style="fill:none;stroke:#777768;stroke-width:1.3189;stroke-linecap:round;stroke-linejoin:round;" d="M163.789,38.597
		c-0.765,2.849-1.334,3.115-0.29,5.911c0.751,2.019,2.098,12.717,4.862,15.479c2.794,1.129,10.062-4.002,13.12-6.634"/>
	<path style="fill:none;stroke:#777768;stroke-width:1.3189;stroke-linecap:round;stroke-linejoin:round;" d="M181.409,53.133
		c0.781-1.143,0.67-3.636,0.735-5.012c0.039-0.816-0.195-3.688-0.023-4.667c0.162,1.347,0.517,3.977,0.317,5.329
		c-0.209,1.404,0.204,3.772-1.18,4.646"/>
</g>
</svg>
