<?xml version="1.0" encoding="iso-8859-1"?>
<!-- Generator: Adobe Illustrator 13.0.0, SVG Export Plug-In . SVG Version: 6.00 Build 14948)  -->
<!DOCTYPE svg PUBLIC "-//W3C//DTD SVG 1.1//EN" "http://www.w3.org/Graphics/SVG/1.1/DTD/svg11.dtd">
<svg version="1.1" xmlns="http://www.w3.org/2000/svg" xmlns:xlink="http://www.w3.org/1999/xlink" x="0px" y="0px" width="540px"
	 height="200px" viewBox="0 0 540 200" style="enable-background:new 0 0 540 200;" xml:space="preserve">
<g id="Layer_7">
	<g>
		<rect style="fill:#FFFFFF;" width="540" height="200"/>
	</g>
</g>
<g id="FOND">
	
		<line style="fill:none;stroke:#8C8F84;stroke-width:1.2035;stroke-linecap:round;stroke-linejoin:round;" x1="446.685" y1="161.873" x2="446.685" y2="18.298"/>
	
		<line style="fill:none;stroke:#8C8F84;stroke-width:1.2035;stroke-linecap:round;stroke-linejoin:round;" x1="446.685" y1="18.298" x2="524" y2="18.298"/>
	
		<line style="fill:none;stroke:#8C8F84;stroke-width:1.259;stroke-linecap:round;stroke-linejoin:round;" x1="184.008" y1="161.79" x2="524" y2="161.873"/>
	
		<line style="fill:none;stroke:#8C8F84;stroke-width:1.2035;stroke-linecap:round;stroke-linejoin:round;" x1="265.008" y1="15" x2="350.936" y2="15"/>
	
		<line style="fill:none;stroke:#8C8F84;stroke-width:1.2035;stroke-linecap:round;stroke-linejoin:round;" x1="350.936" y1="15" x2="350.936" y2="160.874"/>
	
		<line style="fill:none;stroke:#8C8F84;stroke-width:1.2035;stroke-linecap:round;stroke-linejoin:round;" x1="265.008" y1="15" x2="265.008" y2="161.873"/>
	
		<line style="fill:none;stroke:#8C8F84;stroke-width:1.0545;stroke-linecap:round;stroke-linejoin:round;" x1="265.008" y1="27" x2="184.008" y2="27"/>
	
		<line style="fill:none;stroke:#8C8F84;stroke-width:1.0545;stroke-linecap:round;stroke-linejoin:round;" x1="184.008" y1="161.873" x2="184.008" y2="27"/>
	
		<line style="fill:none;stroke:#8C8F84;stroke-width:1.259;stroke-linecap:round;stroke-linejoin:round;" x1="21" y1="161.75" x2="21" y2="22"/>
	
		<line style="fill:none;stroke:#8C8F84;stroke-width:1.259;stroke-linecap:round;stroke-linejoin:round;" x1="21" y1="22" x2="12" y2="22"/>
	
		<line style="fill:none;stroke:#8C8F84;stroke-width:1.259;stroke-linecap:round;stroke-linejoin:round;" x1="95.659" y1="116.531" x2="118" y2="103"/>
	
		<line style="fill:none;stroke:#8C8F84;stroke-width:1.259;stroke-linecap:round;stroke-linejoin:round;" x1="56.098" y1="57.041" x2="95.659" y2="55.788"/>
	
		<line style="fill:none;stroke:#8C8F84;stroke-width:1.259;stroke-linecap:round;stroke-linejoin:round;" x1="21" y1="161.75" x2="56.098" y2="140.492"/>
	
		<line style="fill:none;stroke:#8C8F84;stroke-width:1.259;stroke-linecap:round;stroke-linejoin:round;" x1="21" y1="22" x2="118" y2="30.996"/>
	
		<line style="fill:none;stroke:#8C8F84;stroke-width:1.259;stroke-linecap:round;stroke-linejoin:round;" x1="118" y1="30.996" x2="118" y2="103"/>
	
		<line style="fill:none;stroke:#8C8F84;stroke-width:1.259;stroke-linecap:round;" x1="29.487" y1="165.953" x2="132.711" y2="100.068"/>
	<line style="fill:none;stroke:#8C8F84;stroke-linecap:round;" x1="132.711" y1="100.068" x2="118" y2="100.068"/>
	<line style="fill:none;stroke:#8C8F84;stroke-width:1.259;stroke-linecap:round;" x1="21" y1="161.75" x2="12" y2="161.612"/>
	
		<line style="fill:none;stroke:#8C8F84;stroke-width:1.259;stroke-linecap:round;stroke-linejoin:round;" x1="29.487" y1="165.953" x2="12" y2="165.953"/>
	
		<line style="fill:none;stroke:#8C8F84;stroke-width:1.259;stroke-linecap:round;stroke-linejoin:round;" x1="95.659" y1="116.531" x2="95.659" y2="55.788"/>
	
		<line style="fill:none;stroke:#8C8F84;stroke-width:1.259;stroke-linecap:round;stroke-linejoin:round;" x1="56.098" y1="140.492" x2="56.098" y2="57.041"/>
</g>
<g id="MAN">
	<g>
		<g>
			<path style="fill:#FFFFFF;stroke:#8C8F84;stroke-width:1.5;stroke-linecap:round;stroke-linejoin:round;" d="M324.071,75.755
				c0,6.112,3.79,11.066,8.451,11.066s8.455-4.954,8.455-11.066c0-6.11-3.794-11.064-8.455-11.064S324.071,69.645,324.071,75.755z"
				/>
			<path style="fill:none;stroke:#8C8F84;stroke-width:1.5;stroke-linecap:round;stroke-linejoin:round;" d="M332.312,87.261
				c0.04,7.724-1.038,30.563,0.439,37.977c0.822,4.112,1.361,4.897,1.335,7.12"/>
		</g>
	</g>
</g>
<g id="WOMAN">
	<g>
		<path style="fill:#FFFFFF;stroke:#8C8F84;stroke-width:2.407;stroke-linecap:round;stroke-linejoin:round;" d="M253.864,78.581
			c0,6.068,3.752,10.979,8.384,10.979c4.629,0,8.387-4.912,8.387-10.979c0-6.061-3.758-10.976-8.387-10.976
			C257.616,67.605,253.864,72.52,253.864,78.581z"/>
		<path style="fill:none;stroke:#8C8F84;stroke-width:2.407;stroke-linecap:round;stroke-linejoin:round;" d="M262.249,89.962
			c0.014,1.93-0.054,4.904-0.127,8.338L262,104.46c-0.128,7.743-0.109,16.033,0.651,19.836"/>
	</g>
</g>
<g id="Layer_5">
	<path style="fill:#F7D75E;" d="M118.762,106.845c6.588-4.067,76.426-0.865,80.208-4.119c1.741-1.499,15.29-26.236,20.134-32.215
		c7.943-9.792,13.503-8.129,26.708-8.129c15.455,0,87.837,0,101.069,0.012c7.307,0,25.456,35.172,27.426,37.562
		c5.997,7.299,37.781,3.679,50.577,9.746c10.12,4.804,13.363,38.039,7.795,51.758c-4.659,2.862-146.626,4.409-159.67,4.409l0,0
		c-6.777-1.008-143.546,0.055-145.147-8.093c-1.177-5.995-1.998-11.907-2.89-17.92c-0.875-5.968-3.379-9.652-5.386-14.566
		C117.12,119.248,118.802,113.244,118.762,106.845 M212.987,106.769c9.992,0,63.462,0,63.462,0c1.297,0,2.342-1.048,2.342-2.342
		V73.469c0-1.29-1.045-2.344-2.342-2.344c0,0-35.166,0-42.734,0C226.143,71.125,203.013,106.769,212.987,106.769z M335.529,71.125
		c-7.571,0-42.747,0-42.747,0c-1.298,0-2.345,1.054-2.345,2.344v30.958c0,1.294,1.047,2.342,2.345,2.342c0,0,53.483,0,63.464,0
		C366.22,106.769,343.103,71.125,335.529,71.125z"/>
	<polygon style="fill:#F7D75E;stroke:#F7D75E;stroke-width:3.1177;stroke-linecap:round;stroke-linejoin:round;" points="
		268.217,63.769 277.382,49.843 286.54,63.769 	"/>
	<g>
		<circle style="fill:#999999;" cx="171.626" cy="167.183" r="25.258"/>
		<path style="fill:#FFFFFF;" d="M186.231,167.183c0,8.056-6.54,14.596-14.605,14.596c-8.065,0-14.605-6.54-14.605-14.596
			c0-8.062,6.54-14.603,14.605-14.603C179.691,152.58,186.231,159.12,186.231,167.183z"/>
	</g>
	<g>
		<circle style="fill:#999999;" cx="373.268" cy="167.183" r="25.258"/>
		<path style="fill:#FFFFFF;" d="M387.874,167.183c0,8.056-6.54,14.596-14.605,14.596s-14.604-6.54-14.604-14.596
			c0-8.062,6.539-14.603,14.604-14.603S387.874,159.12,387.874,167.183z"/>
	</g>
</g>
<g id="Layer_8">
	<path style="fill:none;stroke:#8C8F84;stroke-width:1.5;stroke-linecap:round;stroke-linejoin:round;" d="M262.175,95.759
		c-3.906,0.144-22.441-9.668-26.837-11.814c-1.93-0.942-3.43-1.944-5.434-3.186c-2.499-1.549-6.311-2.893-8.343-4.691
		c1.874,1.654,5.004,3.925,6.474,5.008c-0.604-0.271-2.818-0.866-3.349-1.072c0.773,0.773,2.189,1.367,3.18,2.318
		c-0.817-0.52-2.013-0.057-2.819-0.618c0.828,1.082,1.664,1.673,2.694,2.515c-0.453-0.199-1.995-0.316-2.437-0.505
		c1.146,1.5,5.496,4.077,7.686,4.077s5.144-2.208,7.215-1.394"/>
</g>
<g id="Layer_4">
	<g>
		
			<line style="fill:none;stroke:#8C8F84;stroke-width:4.7137;stroke-linecap:round;" x1="32.918" y1="91.892" x2="32.918" y2="158.437"/>
		<g>
			<rect x="22.227" y="69.327" style="fill:none;" width="22.257" height="22.257"/>
			<path style="fill:#3585BB;" d="M44.484,89.68c0,1.052-0.852,1.903-1.902,1.903H24.129c-1.051,0-1.902-0.852-1.902-1.903V71.23
				c0-1.052,0.852-1.903,1.902-1.903h18.452c1.051,0,1.902,0.852,1.902,1.903V89.68z"/>
			<path style="fill:none;stroke:#FFFFFF;stroke-width:0.671;" d="M43.579,88.932c0,0.964-0.781,1.747-1.747,1.747H24.878
				c-0.965,0-1.747-0.782-1.747-1.747V71.978c0-0.964,0.781-1.747,1.747-1.747h16.954c0.965,0,1.747,0.782,1.747,1.747V88.932z"/>
		</g>
		<g>
			<g>
				<path style="fill:none;stroke:#FFFFFF;stroke-width:0.9589;" d="M28.126,88.741c0,0,1.456-3.02,3.84-4.56"/>
				<path style="fill:none;stroke:#FFFFFF;stroke-width:0.9589;" d="M38.585,88.741c0,0-1.455-3.02-3.84-4.56"/>
				<line style="fill:none;stroke:#FFFFFF;stroke-width:0.9589;" x1="29.995" y1="85.949" x2="36.689" y2="85.949"/>
				<line style="fill:none;stroke:#FFFFFF;stroke-width:0.9589;" x1="28.925" y1="87.374" x2="37.706" y2="87.374"/>
			</g>
			<path style="fill:#FFFFFF;" d="M33.354,84.771c1.819,0,3.604-0.007,3.847-0.03c1.405-0.141,1.678-2.184,1.719-3.169
				c0.026-0.656-0.028-1.333,0.003-1.936c0.033-0.64-0.092-6.486-0.374-6.824c-0.37-0.44-0.681-0.643-1.638-0.643
				c-0.063,0-3.495,0-3.558,0h0.002c-0.063,0-3.495,0-3.558,0c-0.957,0-1.268,0.203-1.638,0.643
				c-0.282,0.338-0.406,6.184-0.373,6.824c0.031,0.603-0.024,1.28,0.002,1.936c0.042,0.985,0.315,3.029,1.719,3.169
				c0.244,0.023,2.029,0.03,3.847,0.03H33.354z"/>
			<g>
				<path style="fill:#3585BB;" d="M37.947,78.957c0,0.177-0.143,0.32-0.32,0.32h-8.545c-0.176,0-0.319-0.143-0.319-0.32v-3.703
					c0-0.177,0.143-0.322,0.319-0.322h8.545c0.177,0,0.32,0.145,0.32,0.322V78.957z"/>
			</g>
			<g>
				<path style="fill:#3585BB;" d="M31.245,82.872c0,0.175-0.144,0.318-0.32,0.318h-1.212c-0.177,0-0.32-0.143-0.32-0.318V81.73
					c0-0.175,0.143-0.317,0.32-0.317h1.212c0.176,0,0.32,0.143,0.32,0.317V82.872z"/>
				<path style="fill:#3585BB;" d="M37.318,82.872c0,0.175-0.143,0.318-0.32,0.318h-1.21c-0.177,0-0.32-0.143-0.32-0.318V81.73
					c0-0.175,0.143-0.317,0.32-0.317h1.21c0.177,0,0.32,0.143,0.32,0.317V82.872z"/>
			</g>
		</g>
	</g>
</g>
</svg>
