<?xml version="1.0" encoding="iso-8859-1"?>
<!-- Generator: Adobe Illustrator 13.0.0, SVG Export Plug-In . SVG Version: 6.00 Build 14948)  -->
<!DOCTYPE svg PUBLIC "-//W3C//DTD SVG 1.1//EN" "http://www.w3.org/Graphics/SVG/1.1/DTD/svg11.dtd">
<svg version="1.1" xmlns="http://www.w3.org/2000/svg" xmlns:xlink="http://www.w3.org/1999/xlink" x="0px" y="0px" width="378px"
	 height="140px" viewBox="0 0 378 140" style="enable-background:new 0 0 378 140;" xml:space="preserve">
<g id="Layer_2">
	<g>
		<rect style="fill:none;" width="378" height="140"/>
		<rect style="fill:#FFFFFF;" width="378" height="140"/>
	</g>
</g>
<g id="Layer_3">
	<g>
		<g>
			<rect x="121.5" y="2.5" style="fill:none;" width="135" height="135"/>
			<path style="fill:#406FA9;" d="M256.5,125.963c0,6.373-5.163,11.537-11.535,11.537H133.039c-6.372,0-11.539-5.164-11.539-11.537
				V14.037c0-6.371,5.167-11.537,11.539-11.537h111.926c6.372,0,11.535,5.166,11.535,11.537V125.963z"/>
			<path style="fill:none;stroke:#FFFFFF;stroke-width:4.0703;" d="M251.019,121.418c0,5.854-4.746,10.6-10.601,10.6H137.587
				c-5.855,0-10.602-4.746-10.602-10.6V18.586c0-5.854,4.746-10.602,10.602-10.602h102.831c5.854,0,10.601,4.748,10.601,10.602
				V121.418z"/>
		</g>
		<g>
			<path style="fill:#FFFFFF;" d="M222.943,97.221c0,1.949-1.582,3.531-3.529,3.531H158.59c-1.951,0-3.533-1.582-3.533-3.531V52.59
				c0-1.949,1.582-3.531,3.533-3.531h60.824c1.947,0,3.529,1.582,3.529,3.531V97.221z"/>
			<path style="fill:none;stroke:#FFFFFF;stroke-width:2.9894;" d="M198.331,51.373c0,1.559-1.264,2.826-2.824,2.826h-11.789
				c-1.561,0-2.824-1.268-2.824-2.826v-9.299c0-1.561,1.264-2.824,2.824-2.824h11.789c1.561,0,2.824,1.264,2.824,2.824V51.373z"/>
			<path style="fill:#406FA9;" d="M185.842,56.326l-4.408-4.697h-2.277l-4.804,4.697v12.545c0,1.953,1.24,3.533,2.769,3.533h5.95
				c1.53,0,2.771-1.58,2.771-3.533V56.326z"/>
		</g>
	</g>
</g>
</svg>
