<?xml version="1.0" encoding="iso-8859-1"?>
<!-- Generator: Adobe Illustrator 13.0.0, SVG Export Plug-In . SVG Version: 6.00 Build 14948)  -->
<!DOCTYPE svg PUBLIC "-//W3C//DTD SVG 1.1//EN" "http://www.w3.org/Graphics/SVG/1.1/DTD/svg11.dtd">
<svg version="1.1" xmlns="http://www.w3.org/2000/svg" xmlns:xlink="http://www.w3.org/1999/xlink" x="0px" y="0px" width="378px"
	 height="140px" viewBox="0 0 378 140" style="enable-background:new 0 0 378 140;" xml:space="preserve">
<g id="Layer_2">
	<g>
		<rect style="fill:none;" width="378" height="140"/>
		<rect style="fill:#FFFFFF;" width="378" height="140"/>
	</g>
</g>
<g id="Layer_3">
	<g>
		<path style="fill:none;stroke:#E31900;stroke-width:10;stroke-linecap:round;stroke-linejoin:round;" d="M154.649,58.022
			c-9.654,2.894-20.013-13.71-20.578-21.709c-0.769-10.886,12.352-32.484,25.645-28.277c18.788,5.946,0.661,44.35-4.102,54.631
			c-6.309,13.619-14.357,26.672-22.443,39.297c-3.871,6.043-9.426,17.609-17.266,19.695c-17.379,4.627-9.922-10.445-1.204-15.818
			c14.325-8.83,23.66-3.746,34.062,7.098c8.815,9.189,18.948,20.406,33.413,19.512c5.354-0.33,16.202-5.744,5.71-8.928"/>
	</g>
	<path style="fill:none;stroke:#E31900;stroke-width:10;stroke-linecap:round;stroke-linejoin:round;" d="M214.038,43.688
		c4.53,16.562,36.515,36.139,40.973,52.691c5.681,21.094-8.307,37.277-24.182,36.057c-15.45-1.188-27.437-17.184-22.165-37.354
		c4.319-16.523,34.251-32.335,38.958-48.623C253.406,26.442,244.947,7.5,230.829,7.5C216.917,7.5,208.464,23.312,214.038,43.688z"/>
</g>
</svg>
