<?xml version="1.0" encoding="iso-8859-1"?>
<!-- Generator: Adobe Illustrator 13.0.0, SVG Export Plug-In . SVG Version: 6.00 Build 14948)  -->
<!DOCTYPE svg PUBLIC "-//W3C//DTD SVG 1.1//EN" "http://www.w3.org/Graphics/SVG/1.1/DTD/svg11.dtd">
<svg version="1.1" xmlns="http://www.w3.org/2000/svg" xmlns:xlink="http://www.w3.org/1999/xlink" x="0px" y="0px" width="378px"
	 height="140px" viewBox="0 0 378 140" style="enable-background:new 0 0 378 140;" xml:space="preserve">
<g id="fond">
	<g>
		<rect style="fill:none;" width="378" height="140"/>
		<rect style="fill:#FFFFFF;" width="378" height="140"/>
	</g>
</g>
<g id="fenetres_x2B_portes">
	<g id="fenetre_2_etage">
		
			<rect x="135.946" y="20.718" style="fill:none;stroke:#CCCCCC;stroke-width:0.7;stroke-linecap:round;stroke-linejoin:round;" width="15.938" height="17"/>
		
			<rect x="163.156" y="20.718" style="fill:none;stroke:#CCCCCC;stroke-width:0.7;stroke-linecap:round;stroke-linejoin:round;" width="15.938" height="17"/>
		
			<rect x="190.365" y="20.718" style="fill:none;stroke:#CCCCCC;stroke-width:0.7;stroke-linecap:round;stroke-linejoin:round;" width="15.937" height="17"/>
		
			<rect x="217.574" y="20.718" style="fill:none;stroke:#CCCCCC;stroke-width:0.7;stroke-linecap:round;stroke-linejoin:round;" width="15.938" height="17"/>
		
			<rect x="244.783" y="20.718" style="fill:none;stroke:#CCCCCC;stroke-width:0.7;stroke-linecap:round;stroke-linejoin:round;" width="15.938" height="17"/>
	</g>
	<g id="fentre_1_etage">
		
			<rect x="135.946" y="51.619" style="fill:none;stroke:#CCCCCC;stroke-width:0.7;stroke-linecap:round;stroke-linejoin:round;" width="15.938" height="17"/>
		
			<rect x="163.156" y="51.619" style="fill:none;stroke:#CCCCCC;stroke-width:0.7;stroke-linecap:round;stroke-linejoin:round;" width="15.938" height="17"/>
		
			<rect x="190.365" y="51.619" style="fill:none;stroke:#CCCCCC;stroke-width:0.7;stroke-linecap:round;stroke-linejoin:round;" width="15.937" height="17"/>
		
			<rect x="217.574" y="51.619" style="fill:none;stroke:#CCCCCC;stroke-width:0.7;stroke-linecap:round;stroke-linejoin:round;" width="15.938" height="17"/>
		
			<rect x="244.783" y="51.619" style="fill:none;stroke:#CCCCCC;stroke-width:0.7;stroke-linecap:round;stroke-linejoin:round;" width="15.938" height="17"/>
	</g>
	<g id="fenetres_rdc">
		
			<rect x="190.365" y="82.521" style="fill:none;stroke:#777768;stroke-width:0.7;stroke-linecap:round;stroke-linejoin:round;" width="15.937" height="17"/>
		
			<rect x="217.574" y="82.521" style="fill:none;stroke:#777768;stroke-width:0.7;stroke-linecap:round;stroke-linejoin:round;" width="15.938" height="17"/>
		
			<rect x="244.783" y="82.521" style="fill:none;stroke:#777768;stroke-width:0.7;stroke-linecap:round;stroke-linejoin:round;" width="15.938" height="17"/>
	</g>
	<polyline id="porte" style="fill:none;stroke:#CCCCCC;stroke-width:0.7;stroke-linecap:round;stroke-linejoin:round;" points="
		135.751,128 135.751,82.425 166.168,82.425 166.168,128 273.548,128 	"/>
	
		<polyline id="contour_hotel" style="fill:none;stroke:#CCCCCC;stroke-width:0.7;stroke-linecap:round;stroke-linejoin:round;" points="
		318.637,128 273.548,128 273.548,11 123.119,11 123.119,128 78.029,128 	"/>
</g>
<g id="entree_x2B_etoile_x2B_pancarte">
	<polygon id="pente" style="fill:#FFFFFF;stroke:#CCCCCC;stroke-width:0.7;stroke-linecap:round;stroke-linejoin:round;" points="
		141.291,113.716 141.291,128 105.967,128 	"/>
	<g id="escalier">
		
			<rect x="129.095" y="123.288" style="fill:#FFFFFF;stroke:#CCCCCC;stroke-width:0.7;stroke-linecap:round;stroke-linejoin:round;" width="43.73" height="4.712"/>
		
			<rect x="141.291" y="113.716" style="fill:none;stroke:#CCCCCC;stroke-width:0.7;stroke-linecap:round;stroke-linejoin:round;" width="19.337" height="4.713"/>
		
			<rect x="135.751" y="118.575" style="fill:#FFFFFF;stroke:#CCCCCC;stroke-width:0.7;stroke-linecap:round;stroke-linejoin:round;" width="30.417" height="4.713"/>
	</g>
	<g id="portes" style="display:none;">
		
			<polyline style="display:inline;fill:none;stroke:#777768;stroke-width:0.7;stroke-linecap:round;stroke-linejoin:round;" points="
			135.751,82.425 144.158,89.421 144.158,113.716 		"/>
		
			<polyline style="display:inline;fill:none;stroke:#777768;stroke-width:0.7;stroke-linecap:round;stroke-linejoin:round;" points="
			165.912,82.425 157.506,89.421 157.506,113.716 		"/>
	</g>
	<g id="pancarte">
		
			<circle style="fill:none;stroke:#CCCCCC;stroke-width:0.7;stroke-linecap:round;stroke-linejoin:round;" cx="179.068" cy="91.316" r="5.248"/>
		
			<rect x="173.019" y="90.515" style="fill:#FFFFFF;stroke:#CCCCCC;stroke-width:0.7;stroke-linecap:round;stroke-linejoin:round;" width="12.098" height="9.548"/>
	</g>
	<g>
		<polygon style="fill:#FFCC00;stroke:#CCCCCC;stroke-width:0.2;stroke-linecap:round;stroke-linejoin:round;" points="
			114.226,59.728 115.143,61.585 117.193,61.883 115.709,63.329 116.06,65.37 114.226,64.406 112.393,65.37 112.743,63.329 
			111.26,61.883 113.31,61.585 		"/>
		<polygon style="fill:#FFCC00;stroke:#CCCCCC;stroke-width:0.2;stroke-linecap:round;stroke-linejoin:round;" points="
			114.226,66.905 115.143,68.763 117.193,69.061 115.709,70.506 116.06,72.548 114.226,71.583 112.393,72.548 112.743,70.506 
			111.26,69.061 113.31,68.763 		"/>
		<polygon style="fill:#FFCC00;stroke:#CCCCCC;stroke-width:0.2;stroke-linecap:round;stroke-linejoin:round;" points="
			113.866,74.082 114.783,75.939 116.833,76.238 115.35,77.684 115.7,79.726 113.866,78.761 112.033,79.726 112.383,77.684 
			110.9,76.238 112.95,75.939 		"/>
		
			<line style="fill:#FFCC00;stroke:#CCCCCC;stroke-width:0.7;stroke-linecap:round;stroke-linejoin:round;" x1="118.357" y1="78.573" x2="123.119" y2="78.573"/>
		
			<line style="fill:#FFCC00;stroke:#CCCCCC;stroke-width:0.7;stroke-linecap:round;stroke-linejoin:round;" x1="118.357" y1="60.462" x2="123.119" y2="60.462"/>
		
			<rect x="109.611" y="56.77" style="fill:none;stroke:#CCCCCC;stroke-width:0.7;stroke-linecap:round;stroke-linejoin:round;" width="8.746" height="25.655"/>
	</g>
</g>
</svg>
