<?xml version="1.0" encoding="iso-8859-1"?>
<!-- Generator: Adobe Illustrator 13.0.0, SVG Export Plug-In . SVG Version: 6.00 Build 14948)  -->
<!DOCTYPE svg PUBLIC "-//W3C//DTD SVG 1.1//EN" "http://www.w3.org/Graphics/SVG/1.1/DTD/svg11.dtd">
<svg version="1.1" id="Layer_1" xmlns="http://www.w3.org/2000/svg" xmlns:xlink="http://www.w3.org/1999/xlink" x="0px" y="0px"
	 width="540px" height="200px" viewBox="0 0 540 200" style="enable-background:new 0 0 540 200;" xml:space="preserve">
<g>
	<polyline style="fill:#FFFFFF;" points="540,200 540,0 0,0 0,200 	"/>
</g>
<g>
	<g>
		
			<rect x="427.631" y="100.724" style="fill:#D5312C;stroke:#FFFFFF;stroke-width:0.916;stroke-linecap:square;" width="4.48" height="64.386"/>
		<g>
			<path style="fill:#D5312C;" d="M391.909,99.313c0,1.404,1.139,2.542,2.543,2.542h70.83c1.404,0,2.543-1.138,2.543-2.542
				c0-1.405-1.139-2.542-2.543-2.542h-70.83C393.047,96.771,391.909,97.908,391.909,99.313
				C391.909,99.313,391.909,97.908,391.909,99.313z"/>
			<path style="fill:none;stroke:#FFFFFF;stroke-width:1.374;" d="M391.909,99.313c0,1.404,1.139,2.542,2.543,2.542h70.83
				c1.404,0,2.543-1.138,2.543-2.542c0-1.405-1.139-2.542-2.543-2.542h-70.83C393.047,96.771,391.909,97.908,391.909,99.313
				C391.909,99.313,391.909,97.908,391.909,99.313z"/>
		</g>
	</g>
	<g>
		<rect x="160.573" y="92.911" style="fill:#65B724;stroke:#FFFFFF;stroke-width:1.374;" width="5.478" height="72.816"/>
		<path style="fill:#65B724;stroke:#FFFFFF;stroke-width:1.374;" d="M179.264,96.9h-31.912v-7.979c0,0,7.568-3.492,15.547-3.492
			c7.979,0,16.365,3.492,16.365,3.492V96.9z"/>
		<rect x="153.085" y="148.463" style="fill:#65B724;stroke:#FFFFFF;stroke-width:0.916;" width="20.449" height="1.869"/>
	</g>
	
		<line style="fill:none;stroke:#65B724;stroke-width:3.427;stroke-linecap:round;" x1="26.712" y1="56.053" x2="134.204" y2="56.053"/>
	
		<line style="fill:none;stroke:#65B724;stroke-width:3.427;stroke-linecap:square;" x1="134.204" y1="56.053" x2="134.204" y2="80.097"/>
	
		<line style="fill:none;stroke:#65B724;stroke-width:3.427;stroke-linecap:square;" x1="134.204" y1="80.097" x2="123.898" y2="80.097"/>
	
		<line style="fill:none;stroke:#65B724;stroke-width:3.427;stroke-linecap:square;" x1="123.898" y1="80.097" x2="123.898" y2="164.822"/>
	
		<line style="fill:none;stroke:#65B724;stroke-width:3.427;stroke-linecap:round;" x1="123.898" y1="164.822" x2="512.431" y2="164.822"/>
	<g>
		<g>
			
				<line style="fill:none;stroke:#65B724;stroke-width:4.2837;stroke-linecap:round;stroke-linejoin:round;" x1="369.609" y1="85.415" x2="369.609" y2="124.012"/>
			
				<line style="fill:none;stroke:#65B724;stroke-width:4.2837;stroke-linecap:round;stroke-linejoin:round;" x1="369.609" y1="124.012" x2="408.202" y2="124.012"/>
			
				<line style="fill:none;stroke:#65B724;stroke-width:4.2837;stroke-linecap:round;stroke-linejoin:round;" x1="408.202" y1="124.012" x2="369.568" y2="162.65"/>
			
				<line style="fill:none;stroke:#65B724;stroke-width:4.2837;stroke-linecap:round;stroke-linejoin:round;" x1="369.568" y1="162.65" x2="391.819" y2="162.65"/>
		</g>
		<g>
			
				<line style="fill:none;stroke:#65B724;stroke-width:4.2837;stroke-linecap:round;stroke-linejoin:round;" x1="499.365" y1="85.415" x2="499.365" y2="124.012"/>
			
				<line style="fill:none;stroke:#65B724;stroke-width:4.2837;stroke-linecap:round;stroke-linejoin:round;" x1="499.365" y1="124.012" x2="460.773" y2="124.012"/>
			
				<line style="fill:none;stroke:#65B724;stroke-width:4.2837;stroke-linecap:round;stroke-linejoin:round;" x1="460.773" y1="124.012" x2="499.406" y2="162.65"/>
			
				<line style="fill:none;stroke:#65B724;stroke-width:4.2837;stroke-linecap:round;stroke-linejoin:round;" x1="499.406" y1="162.65" x2="477.152" y2="162.65"/>
		</g>
	</g>
</g>
<path style="fill:none;stroke:#777768;stroke-width:1.713;stroke-linecap:round;stroke-linejoin:round;" d="M232.342,102.394
	c0.429-0.863,2.768-3.425,3.098-4.335"/>
<path style="fill:none;stroke:#777768;stroke-width:1.713;stroke-linecap:round;stroke-linejoin:round;" d="M226.285,58.555
	c10.436,4.369,7.972,38.113,9.155,39.503c0.515,0.605,0.765,1.012,1.458,1.431c1.113,0.675,5.06-1.413,5.402-1.575"/>
<g>
	<g>
		<path style="fill:none;stroke:#777768;stroke-width:2.5702;stroke-linecap:round;stroke-linejoin:round;" d="M238.025,33.072
			c0,8.708-5.384,15.761-12.034,15.761c-6.643,0-12.036-7.053-12.036-15.761c0-8.701,5.394-15.756,12.036-15.756
			C232.641,17.316,238.025,24.371,238.025,33.072z"/>
		<path style="fill:none;stroke:#777768;stroke-width:2.5702;stroke-linecap:round;stroke-linejoin:round;" d="M226.352,70.223
			c0.179,11.112,0.157,23.016-0.94,28.472c-1.712,8.596-5.155,5.159-3.434,17.192c2.152,15.079,8.023,27.509,6.302,34.958
			c-9.382,40.672-9.74,41.837-0.577,40.691"/>
		<path style="fill:none;stroke:#777768;stroke-width:2.5702;stroke-linecap:round;stroke-linejoin:round;" d="M225.991,49.41
			c-0.016,2.771,0.08,7.037,0.188,11.967"/>
		<path style="fill:#FFFFFF;stroke:#777768;stroke-width:1.7135;stroke-linecap:round;stroke-linejoin:round;" d="M233.172,65.758
			c0,2.688-2.173,4.87-4.865,4.87c-2.693,0-4.88-2.183-4.88-4.87c0-2.691,2.187-4.873,4.88-4.873
			C231,60.885,233.172,63.066,233.172,65.758z"/>
	</g>
	<g>
		<path style="fill:none;stroke:#777768;stroke-width:1.7135;stroke-linecap:round;stroke-linejoin:round;" d="M294.397,106.529
			c0,1.517,1.225,2.749,2.746,2.749c1.506,0,2.746-1.232,2.746-2.749c0-1.516-1.24-2.746-2.746-2.746
			C295.622,103.783,294.397,105.014,294.397,106.529z"/>
		<path style="fill:none;stroke:#777768;stroke-width:1.7135;stroke-linecap:round;stroke-linejoin:round;" d="M284.34,23.385
			c0,8.507,5.275,15.401,11.76,15.401c6.488,0,11.766-6.895,11.766-15.401c0-8.504-5.277-15.398-11.766-15.398
			C289.616,7.986,284.34,14.881,284.34,23.385z"/>
		<path style="fill:none;stroke:#777768;stroke-width:1.7135;stroke-linecap:round;stroke-linejoin:round;" d="M295.809,39.398
			c0.055,10.749-1.445,42.537,0.611,52.854c1.844,9.217,2.662,6.423,0.824,19.329c-2.309,16.163,2.881,31.936,3.436,40.112
			c2.863,42.411,3.121,41.351-6.715,40.116"/>
	</g>
</g>
<g>
	<g>
		<path style="fill:#FCCF3D;" d="M233.23,108.434c0,1.074,2.592,1.074,4.637,1.074s4.438-0.152,4.445-1.074
			c0.012-0.92,0.075-7.535,0.075-7.535s-1.044,0.844-4.599,0.844c-3.559,0-4.559-0.5-4.559-0.5S233.23,107.359,233.23,108.434z"/>
		<path style="fill:#FFFFD9;" d="M233.253,100.629c0,0.154-0.023,0.655-0.023,1.186c0,0.49,2.908,0.693,4.559,0.693
			c1.516,0,3.334-0.312,4.158-0.52c0.527-0.137,0.365-1.182,0.365-1.36c0-0.451-2.023-0.818-4.529-0.818
			C235.283,99.811,233.253,100.178,233.253,100.629z"/>
		<g>
			<path style="fill:none;stroke:#FFFFFF;stroke-width:0.1624;" d="M240.941,103.309c0,0.084,0.075,0.154,0.165,0.154
				c0.096,0,0.167-0.07,0.167-0.154c0-0.082-0.071-0.152-0.167-0.152C241.016,103.156,240.941,103.227,240.941,103.309z"/>
			<ellipse style="fill:none;stroke:#FFFFFF;stroke-width:0.1624;" cx="238.088" cy="104.402" rx="0.167" ry="0.152"/>
			<path style="fill:none;stroke:#FFFFFF;stroke-width:0.1624;" d="M239.389,103.039c0,0.082,0.075,0.15,0.171,0.15
				c0.093,0,0.168-0.068,0.168-0.15c0-0.088-0.075-0.156-0.168-0.156C239.464,102.883,239.389,102.951,239.389,103.039z"/>
			<ellipse style="fill:none;stroke:#FFFFFF;stroke-width:0.1624;" cx="237.071" cy="102.369" rx="0.167" ry="0.15"/>
			<path style="fill:none;stroke:#FFFFFF;stroke-width:0.1624;" d="M241.184,100.336c0,0.082,0.072,0.15,0.162,0.15
				c0.099,0,0.171-0.068,0.171-0.15c0-0.084-0.072-0.152-0.171-0.152C241.256,100.184,241.184,100.252,241.184,100.336z"/>
			<path style="fill:none;stroke:#FFFFFF;stroke-width:0.1624;" d="M236.875,100.031c0,0.084,0.072,0.152,0.167,0.152
				c0.09,0,0.163-0.068,0.163-0.152c0-0.082-0.073-0.15-0.163-0.15C236.948,99.881,236.875,99.949,236.875,100.031z"/>
			<path style="fill:none;stroke:#FFFFFF;stroke-width:0.1624;" d="M239.999,101.305c0,0.086,0.075,0.156,0.168,0.156
				c0.09,0,0.167-0.07,0.167-0.156c0-0.082-0.077-0.15-0.167-0.15C240.074,101.154,239.999,101.223,239.999,101.305z"/>
			<path style="fill:none;stroke:#FFFFFF;stroke-width:0.1624;" d="M237.664,101.123c0,0.086,0.072,0.154,0.166,0.154
				c0.092,0,0.165-0.068,0.165-0.154c0-0.082-0.073-0.15-0.165-0.15C237.736,100.973,237.664,101.041,237.664,101.123z"/>
		</g>
		<path style="fill:none;stroke:#FFFFFF;stroke-width:0.1624;" d="M239.71,108.662c-0.081-0.02-0.164,0.037-0.186,0.127
			c-0.02,0.088,0.026,0.18,0.107,0.199c0.082,0.02,0.166-0.037,0.186-0.127C239.844,108.773,239.795,108.686,239.71,108.662z"/>
		<path style="fill:none;stroke:#FFFFFF;stroke-width:0.1624;" d="M234.923,107.061c-0.081-0.021-0.166,0.035-0.188,0.125
			c-0.023,0.088,0.025,0.178,0.106,0.197c0.081,0.021,0.165-0.035,0.187-0.127C235.048,107.168,235.004,107.08,234.923,107.061z"/>
		<path style="fill:none;stroke:#FFFFFF;stroke-width:0.1624;" d="M234.584,103.869c-0.081-0.023-0.165,0.033-0.186,0.123
			c-0.023,0.09,0.023,0.18,0.106,0.199c0.082,0.02,0.166-0.037,0.189-0.125C234.714,103.977,234.666,103.887,234.584,103.869z"/>
		<path style="fill:none;stroke:#FFFFFF;stroke-width:0.1624;" d="M235.558,105.623c-0.084-0.021-0.164,0.035-0.188,0.125
			s0.028,0.18,0.106,0.199c0.085,0.02,0.169-0.037,0.188-0.127C235.689,105.73,235.64,105.643,235.558,105.623z"/>
		<path style="fill:none;stroke:#FFFFFF;stroke-width:0.1624;" d="M237.748,108.01c-0.078-0.021-0.159,0.033-0.182,0.123
			c-0.021,0.09,0.022,0.178,0.104,0.201c0.081,0.018,0.166-0.041,0.189-0.129C237.881,108.115,237.83,108.029,237.748,108.01z"/>
		<path style="fill:none;stroke:#FFFFFF;stroke-width:0.1624;" d="M234.724,101.994c-0.085-0.02-0.166,0.037-0.187,0.127
			c-0.022,0.09,0.023,0.176,0.102,0.199c0.085,0.018,0.169-0.037,0.188-0.127C234.851,102.104,234.802,102.014,234.724,101.994z"/>
		<path style="fill:none;stroke:#FFFFFF;stroke-width:0.1624;" d="M240.841,105.816c-0.084-0.021-0.168,0.037-0.191,0.125
			s0.027,0.178,0.107,0.199c0.084,0.021,0.166-0.037,0.189-0.127C240.966,105.926,240.919,105.836,240.841,105.816z"/>
		<path style="fill:none;stroke:#FFFFFF;stroke-width:0.1624;" d="M237.089,106.627c-0.08-0.02-0.165,0.035-0.188,0.125
			c-0.021,0.09,0.028,0.178,0.113,0.199c0.075,0.018,0.162-0.037,0.187-0.127C237.222,106.734,237.173,106.646,237.089,106.627z"/>
		<path style="fill:none;stroke:#FFFFFF;stroke-width:0.1624;" d="M239.018,105.912c-0.081-0.02-0.165,0.037-0.188,0.129
			c-0.023,0.088,0.026,0.178,0.107,0.195c0.081,0.021,0.164-0.035,0.188-0.125C239.146,106.023,239.099,105.934,239.018,105.912z"/>
		<path style="fill:none;stroke:#FFFFFF;stroke-width:0.1624;" d="M236.843,104.941c-0.078-0.02-0.166,0.035-0.183,0.127
			c-0.024,0.09,0.023,0.178,0.104,0.197s0.164-0.037,0.188-0.123C236.974,105.051,236.927,104.961,236.843,104.941z"/>
		<path style="fill:none;stroke:#FFFFFF;stroke-width:0.1624;" d="M241.019,107.93c-0.078-0.023-0.162,0.035-0.186,0.123
			c-0.021,0.09,0.025,0.18,0.107,0.199c0.08,0.021,0.165-0.035,0.186-0.125C241.15,108.039,241.103,107.949,241.019,107.93z"/>
		<path style="fill:none;stroke:#A8D0DA;stroke-width:0.3679;stroke-linecap:round;stroke-linejoin:round;" d="M242.275,92.523
			c0.037,6.832,0.037,10.383,0.037,15.828c0,1.156-2.143,1.156-4.445,1.156c-2.241,0-4.637,0.045-4.637-1.074
			c0-4.457,0-11.475,0.041-15.91"/>
		
			<ellipse style="fill:none;stroke:#A8D0DA;stroke-width:0.3679;stroke-linecap:round;stroke-linejoin:round;" cx="237.773" cy="92.523" rx="4.502" ry="0.85"/>
		<path style="fill:none;stroke:#A8D0DA;stroke-width:0.2453;stroke-linecap:round;stroke-linejoin:round;" d="M242.312,97.699
			c-1.224-0.572-0.783,4.738-0.826,5.537c-0.1,2.006,0.075,4.145,0.084,5.943"/>
		<path style="fill:none;stroke:#A8D0DA;stroke-width:0.2453;stroke-linecap:round;stroke-linejoin:round;" d="M240.662,109.342
			c0-1.477-0.164-2.873-0.164-4.373c0-1.748,0.344-3.418-0.064-5.119c-0.104-0.434-0.311-1.877-0.995-1.82
			c-0.47,0.037-0.765,1.279-0.841,1.652c-0.354,1.822-0.096,4.002,0,5.859c0.064,1.26,0.166,2.809,0.166,3.885"/>
		<path style="fill:none;stroke:#A8D0DA;stroke-width:0.2453;stroke-linecap:round;stroke-linejoin:round;" d="M237.774,109.426
			c0-2-0.191-3.916-0.084-5.943c0.09-1.656,0.389-3.75-0.427-5.188c-1.615-0.465-1.227,9.898-1.227,11.131"/>
		<path style="fill:none;stroke:#A8D0DA;stroke-width:0.2453;stroke-linecap:round;stroke-linejoin:round;" d="M233.81,109.18
			c0-1.652-0.041-7.596,0.081-9.088c0.062-0.74,0.946-3.771,1.493-1.729c0.375,1.414,0.128,2.805-0.006,4.209
			c-0.215,2.203-0.234,4.777-0.248,6.77"/>
	</g>
</g>
<g>
	<path style="fill:none;stroke:#777768;stroke-width:1.3087;stroke-linecap:round;stroke-linejoin:round;" d="M278.865,91.289
		c0.111,0.318,0.267,0.625,0.443,0.914c0.161,0.273,0.475,0.531,0.482,0.858c-1.235-1.352-1.681-3.431-1.323-5.249
		c0.134-0.676,0.396-1.538,0.537-2.21c0.043-0.2,4.819,0.426,4.947,0.276c-0.005,0.096-4.82-0.451-4.843-0.355"/>
	<path style="fill:none;stroke:#777768;stroke-width:1.713;stroke-linecap:round;stroke-linejoin:round;" d="M295.692,44.213
		c-15.566,31.012-10.326,40.697-11.74,41.666"/>
	<path style="fill:none;stroke:#777768;stroke-width:1.3087;stroke-linecap:round;stroke-linejoin:round;" d="M283.952,85.879
		c0.44,1.357,4.285,3.218,4.608,4.053"/>
	<g>
		<path style="fill:#FCCF3D;" d="M278.869,97.58c0,1.053,2.538,1.053,4.541,1.053c2.002,0,4.345-0.149,4.354-1.053
			c0.011-0.9,0.005-6.993,0.005-6.993s-0.953,0.639-4.436,0.639c-3.485,0-4.464-0.999-4.464-0.999S278.869,96.525,278.869,97.58z"/>
		<path style="fill:#FFFFD9;" d="M278.874,89.74c0,0.152-0.022,0.643-0.022,1.162c0,0.48,2.848,0.678,4.464,0.678
			c1.485,0,3.266-0.305,4.073-0.508c0.517-0.131,0.357-1.156,0.357-1.332c0-0.439-1.982-0.801-4.437-0.801
			C280.861,88.939,278.874,89.301,278.874,89.74z"/>
		<g>
			<path style="fill:none;stroke:#FFFFFF;stroke-width:0.1591;" d="M286.419,92.562c0,0.083,0.074,0.151,0.161,0.151
				c0.095,0,0.166-0.068,0.166-0.151c0-0.082-0.071-0.147-0.166-0.147C286.494,92.414,286.419,92.479,286.419,92.562z"/>
			<path style="fill:none;stroke:#FFFFFF;stroke-width:0.1591;" d="M283.463,93.629c0,0.086,0.07,0.154,0.161,0.154
				s0.165-0.068,0.165-0.154c0-0.078-0.074-0.146-0.165-0.146S283.463,93.551,283.463,93.629z"/>
			<path style="fill:none;stroke:#FFFFFF;stroke-width:0.1591;" d="M284.9,92.295c0,0.082,0.073,0.147,0.168,0.147
				c0.091,0,0.164-0.065,0.164-0.147c0-0.086-0.073-0.15-0.164-0.15C284.973,92.145,284.9,92.209,284.9,92.295z"/>
			<path style="fill:none;stroke:#FFFFFF;stroke-width:0.1591;" d="M282.466,91.642c0,0.079,0.073,0.147,0.164,0.147
				s0.162-0.068,0.162-0.147c0-0.085-0.071-0.151-0.162-0.151S282.466,91.557,282.466,91.642z"/>
			<path style="fill:none;stroke:#FFFFFF;stroke-width:0.1591;" d="M286.658,89.648c0,0.082,0.071,0.146,0.159,0.146
				c0.097,0,0.168-0.064,0.168-0.146c0-0.08-0.071-0.148-0.168-0.148C286.729,89.5,286.658,89.568,286.658,89.648z"/>
			<path style="fill:none;stroke:#FFFFFF;stroke-width:0.1591;" d="M282.437,89.353c0,0.079,0.071,0.147,0.166,0.147
				c0.088,0,0.159-0.068,0.159-0.147c0-0.083-0.071-0.147-0.159-0.147C282.508,89.205,282.437,89.27,282.437,89.353z"/>
			<path style="fill:none;stroke:#FFFFFF;stroke-width:0.1591;" d="M285.497,90.6c0,0.082,0.074,0.15,0.165,0.15
				c0.088,0,0.164-0.068,0.164-0.15c0-0.083-0.076-0.148-0.164-0.148C285.571,90.451,285.497,90.517,285.497,90.6z"/>
			<path style="fill:none;stroke:#FFFFFF;stroke-width:0.1591;" d="M283.21,90.42c0,0.086,0.071,0.15,0.162,0.15
				s0.161-0.064,0.161-0.15c0-0.079-0.07-0.146-0.161-0.146S283.21,90.341,283.21,90.42z"/>
		</g>
		<path style="fill:none;stroke:#FFFFFF;stroke-width:0.1591;" d="M285.215,97.805c-0.079-0.021-0.162,0.036-0.182,0.124
			c-0.02,0.086,0.025,0.177,0.105,0.193c0.079,0.021,0.161-0.034,0.182-0.125C285.345,97.912,285.298,97.828,285.215,97.805z"/>
		<path style="fill:none;stroke:#FFFFFF;stroke-width:0.1591;" d="M280.526,96.236c-0.079-0.022-0.162,0.034-0.185,0.119
			c-0.022,0.089,0.026,0.177,0.105,0.196s0.162-0.037,0.182-0.125S280.606,96.253,280.526,96.236z"/>
		<path style="fill:none;stroke:#FFFFFF;stroke-width:0.1591;" d="M280.194,93.107c-0.08-0.021-0.161,0.033-0.181,0.125
			c-0.023,0.085,0.022,0.176,0.104,0.193c0.079,0.02,0.162-0.035,0.185-0.123C280.322,93.215,280.273,93.127,280.194,93.107z"/>
		<path style="fill:none;stroke:#FFFFFF;stroke-width:0.1591;" d="M281.148,94.828c-0.082-0.023-0.162,0.033-0.185,0.123
			c-0.022,0.087,0.029,0.172,0.105,0.194c0.082,0.018,0.165-0.036,0.185-0.125C281.276,94.934,281.228,94.846,281.148,94.828z"/>
		<path style="fill:none;stroke:#FFFFFF;stroke-width:0.1591;" d="M280.364,89.15c-0.079-0.02-0.161,0.037-0.184,0.123
			c-0.022,0.088,0.028,0.176,0.107,0.198c0.076,0.017,0.159-0.04,0.179-0.125C280.487,89.256,280.444,89.17,280.364,89.15z"/>
		<path style="fill:none;stroke:#FFFFFF;stroke-width:0.1591;" d="M283.292,97.162c-0.076-0.017-0.155,0.034-0.179,0.125
			c-0.021,0.086,0.023,0.17,0.103,0.193c0.08,0.02,0.161-0.037,0.184-0.125C283.423,97.271,283.373,97.186,283.292,97.162z"/>
		<path style="fill:none;stroke:#FFFFFF;stroke-width:0.1591;" d="M280.33,91.272c-0.081-0.017-0.161,0.036-0.182,0.125
			c-0.022,0.087,0.023,0.173,0.101,0.192c0.081,0.02,0.164-0.033,0.184-0.122C280.455,91.381,280.408,91.295,280.33,91.272z"/>
		<path style="fill:none;stroke:#FFFFFF;stroke-width:0.1591;" d="M286.323,95.016c-0.083-0.02-0.164,0.037-0.187,0.125
			c-0.023,0.084,0.024,0.172,0.104,0.193c0.083,0.022,0.162-0.034,0.186-0.125C286.445,95.123,286.399,95.035,286.323,95.016z"/>
		<path style="fill:none;stroke:#FFFFFF;stroke-width:0.1591;" d="M282.648,95.811c-0.079-0.02-0.162,0.035-0.185,0.123
			c-0.02,0.087,0.029,0.173,0.11,0.195c0.074,0.017,0.159-0.037,0.182-0.125C282.779,95.916,282.73,95.828,282.648,95.811z"/>
		<path style="fill:none;stroke:#FFFFFF;stroke-width:0.1591;" d="M284.537,95.111c-0.079-0.022-0.162,0.034-0.185,0.125
			c-0.023,0.086,0.025,0.174,0.105,0.193c0.079,0.018,0.162-0.034,0.185-0.125C284.662,95.221,284.616,95.133,284.537,95.111z"/>
		<path style="fill:none;stroke:#FFFFFF;stroke-width:0.1591;" d="M282.407,94.158c-0.077-0.018-0.162,0.037-0.179,0.125
			c-0.023,0.088,0.022,0.176,0.102,0.193c0.08,0.022,0.163-0.035,0.186-0.12C282.535,94.266,282.489,94.18,282.407,94.158z"/>
		<path style="fill:none;stroke:#FFFFFF;stroke-width:0.1591;" d="M286.497,97.086c-0.077-0.02-0.159,0.037-0.182,0.121
			c-0.021,0.086,0.025,0.178,0.104,0.193c0.08,0.023,0.161-0.033,0.183-0.121C286.625,97.191,286.579,97.105,286.497,97.086z"/>
		<path style="fill:none;stroke:#A8D0DA;stroke-width:0.3603;stroke-linecap:round;stroke-linejoin:round;" d="M287.726,81.998
			c0.037,6.689,0.037,10.166,0.037,15.502c0,1.133-2.1,1.133-4.354,1.133c-2.196,0-4.541,0.043-4.541-1.053
			c0-4.365,0-11.238,0.039-15.582"/>
		
			<ellipse style="fill:none;stroke:#A8D0DA;stroke-width:0.3603;stroke-linecap:round;stroke-linejoin:round;" cx="283.317" cy="81.998" rx="4.409" ry="0.832"/>
		<path style="fill:none;stroke:#A8D0DA;stroke-width:0.2402;stroke-linecap:round;stroke-linejoin:round;" d="M287.763,87.066
			c-1.198-0.56-0.767,4.641-0.811,5.424c-0.096,1.963,0.074,4.059,0.083,5.82"/>
		<path style="fill:none;stroke:#A8D0DA;stroke-width:0.2402;stroke-linecap:round;stroke-linejoin:round;" d="M286.147,98.469
			c0-1.445-0.162-2.812-0.162-4.283c0-1.712,0.338-3.348-0.062-5.016c-0.102-0.422-0.304-1.837-0.974-1.783
			c-0.461,0.04-0.75,1.256-0.824,1.622c-0.346,1.786-0.093,3.919,0,5.739c0.062,1.233,0.162,2.75,0.162,3.804"/>
		<path style="fill:none;stroke:#A8D0DA;stroke-width:0.2402;stroke-linecap:round;stroke-linejoin:round;" d="M283.319,98.552
			c0-1.958-0.188-3.838-0.083-5.819c0.088-1.625,0.38-3.676-0.417-5.084c-1.583-0.455-1.201,9.695-1.201,10.903"/>
		<path style="fill:none;stroke:#A8D0DA;stroke-width:0.2402;stroke-linecap:round;stroke-linejoin:round;" d="M279.435,98.311
			c0-1.619-0.039-7.441,0.08-8.901c0.06-0.728,0.927-3.692,1.463-1.692c0.366,1.386,0.125,2.746-0.006,4.123
			c-0.21,2.158-0.229,4.681-0.244,6.629"/>
	</g>
	<path style="fill:none;stroke:#777768;stroke-width:1.3087;stroke-linecap:round;stroke-linejoin:round;" d="M288.56,89.932
		c0,0.693-0.161,1.113-0.502,1.865c-0.564,1.242-1.411,2.539-3.501,3.043"/>
	<path style="fill:none;stroke:#777768;stroke-width:1.3087;stroke-linecap:round;stroke-linejoin:round;" d="M280.972,92.113
		c-0.724-0.523-1.189-1.293-1.852-2.283c-0.198-0.299-0.61-0.952-0.744-1.35c-0.31,0.42,0.329,1.32,0.323,1.85
		c-0.005,0.332,0.893,4.52,1,4.827"/>
	<path style="fill:none;stroke:#777768;stroke-width:1.3087;stroke-linecap:round;stroke-linejoin:round;" d="M278.385,88.068
		c0.591,0.301,1.014,0.529,1.724,0.594c0.56,0.051,1.366,0.071,1.82-0.23"/>
</g>
<path style="fill:none;stroke:#777768;stroke-width:1.713;stroke-linecap:round;stroke-linejoin:round;" d="M232.342,102.394
	c0.518,1.435,2.685,2.864,3.887,2.636"/>
<path style="fill:none;stroke:#777768;stroke-width:1.713;stroke-linecap:round;stroke-linejoin:round;" d="M241.245,105.715
	c1.371-1.305,1.066-1.743,1.615-2.836c-0.283,0.574-2.34-0.222-2.738,0.404c0.461-0.845,2.26-1.912,2.41-2.871
	c-0.452,0.725-1.82-0.529-2.525-0.287c0.729-0.631,1.844-1.965,2.306-2.426"/>
<path style="fill:none;stroke:#777768;stroke-width:1.713;stroke-linecap:round;stroke-linejoin:round;" d="M226.337,59.077
	c-3.125,1.644-2.144,15.368,0.097,21.488c0.118-0.261,9.333-1.118,13.928-4.853c2.797-2.273,4.594-5.528,6.002-8.787
	c0.687-1.59,1.417-3.243,1.907-4.906c0.51-1.729-0.929-2.999-2.178-3.989c0.336,0.276,0.824,0.411,1.158,0.613
	c-0.206-1.072-0.416-2.025-1.368-2.431c0.756-0.171,1.487-0.182,2.048,0.596c-0.206-0.242-0.371-0.52-0.493-0.798
	c0.493-0.207,1.215,0.221,1.21,0.8c-0.223-0.422-0.43-0.955-0.5-1.418c0.61,0.076,1.333,1.722,1.375,2.305
	c-0.069-0.742,0.343-1.382,0.325-2.107c0.705,0.894-0.067,2.98-0.388,3.924c-0.207,0.609-1.12,1.879-1.191,2.505"/>
<circle style="fill:#FFFFFF;stroke:#777768;stroke-width:0.75;stroke-linecap:round;stroke-linejoin:round;" cx="247.06" cy="65.305" r="2.512"/>
<line style="fill:none;stroke:#777768;stroke-width:0.5;stroke-linecap:round;stroke-linejoin:round;" x1="247.06" y1="65.305" x2="246.96" y2="64.125"/>
<line style="fill:none;stroke:#777768;stroke-width:0.5;stroke-linecap:round;stroke-linejoin:round;" x1="247.06" y1="65.305" x2="245.348" y2="64.586"/>
<g>
	<path style="fill:none;stroke:#777768;stroke-linecap:round;stroke-linejoin:round;" d="M246.526,31.596
		c-1.061,4.582-2.771,10.197-3.115,13.938"/>
	<path style="fill:none;stroke:#777768;stroke-linecap:round;stroke-linejoin:round;" d="M243.455,49.319
		c-0.075-0.219-0.046-0.494-0.051-0.717"/>
	<path style="fill:none;stroke:#777768;stroke-linecap:round;stroke-linejoin:round;" d="M252.715,34.239
		c-1.258,2.022-5.296,9.993-5.767,11.158"/>
	<path style="fill:none;stroke:#777768;stroke-linecap:round;stroke-linejoin:round;" d="M246.286,46.728
		c-0.125,0.417-0.348,0.701-0.29,0.647"/>
</g>
</svg>
