<?xml version="1.0" encoding="iso-8859-1"?>
<!-- Generator: Adobe Illustrator 13.0.0, SVG Export Plug-In . SVG Version: 6.00 Build 14948)  -->
<!DOCTYPE svg PUBLIC "-//W3C//DTD SVG 1.1//EN" "http://www.w3.org/Graphics/SVG/1.1/DTD/svg11.dtd">
<svg version="1.1" xmlns="http://www.w3.org/2000/svg" xmlns:xlink="http://www.w3.org/1999/xlink" x="0px" y="0px" width="540px"
	 height="200px" viewBox="0 0 540 200" style="enable-background:new 0 0 540 200;" xml:space="preserve">
<g id="Layer_2">
	<g>
		<rect style="fill:none;" width="540" height="200"/>
		<rect style="fill:#FFFFFF;" width="540" height="200"/>
	</g>
</g>
<g id="Layer_3">
	<g>
		<g>
			
				<rect x="427.635" y="100.723" style="fill:#D5312C;stroke:#FFFFFF;stroke-width:0.916;stroke-linecap:square;" width="4.482" height="64.387"/>
			<g>
				<path style="fill:#D5312C;" d="M391.913,99.313c0,1.404,1.137,2.542,2.541,2.542h70.831c1.404,0,2.545-1.138,2.545-2.542
					s-1.141-2.543-2.545-2.543h-70.831C393.05,96.77,391.913,97.909,391.913,99.313C391.913,99.313,391.913,97.909,391.913,99.313z"
					/>
				<path style="fill:none;stroke:#FFFFFF;stroke-width:1.374;" d="M391.913,99.313c0,1.404,1.137,2.542,2.541,2.542h70.831
					c1.404,0,2.545-1.138,2.545-2.542s-1.141-2.543-2.545-2.543h-70.831C393.05,96.77,391.913,97.909,391.913,99.313
					C391.913,99.313,391.913,97.909,391.913,99.313z"/>
			</g>
		</g>
		<g>
			<rect x="160.574" y="92.911" style="fill:#65B724;stroke:#FFFFFF;stroke-width:1.374;" width="5.478" height="72.816"/>
			<path style="fill:#65B724;stroke:#FFFFFF;stroke-width:1.374;" d="M179.266,96.901h-31.913v-7.98c0,0,7.567-3.492,15.547-3.492
				c7.979,0,16.366,3.492,16.366,3.492V96.901z"/>
			<rect x="153.086" y="148.464" style="fill:#65B724;stroke:#FFFFFF;stroke-width:0.916;" width="20.45" height="1.869"/>
		</g>
		
			<line style="fill:none;stroke:#65B724;stroke-width:3.427;stroke-linecap:round;" x1="26.712" y1="56.053" x2="134.205" y2="56.053"/>
		
			<line style="fill:none;stroke:#65B724;stroke-width:3.427;stroke-linecap:square;" x1="134.205" y1="56.053" x2="134.205" y2="80.096"/>
		
			<line style="fill:none;stroke:#65B724;stroke-width:3.427;stroke-linecap:square;" x1="134.205" y1="80.096" x2="123.899" y2="80.096"/>
		
			<line style="fill:none;stroke:#65B724;stroke-width:3.427;stroke-linecap:square;" x1="123.899" y1="80.096" x2="123.899" y2="164.823"/>
		
			<line style="fill:none;stroke:#65B724;stroke-width:3.427;stroke-linecap:round;" x1="123.899" y1="164.823" x2="512.436" y2="164.823"/>
		<g>
			<g>
				
					<line style="fill:none;stroke:#65B724;stroke-width:4.2837;stroke-linecap:round;stroke-linejoin:round;" x1="369.612" y1="85.414" x2="369.612" y2="124.013"/>
				
					<line style="fill:none;stroke:#65B724;stroke-width:4.2837;stroke-linecap:round;stroke-linejoin:round;" x1="369.612" y1="124.013" x2="408.204" y2="124.013"/>
				
					<line style="fill:none;stroke:#65B724;stroke-width:4.2837;stroke-linecap:round;stroke-linejoin:round;" x1="408.204" y1="124.013" x2="369.571" y2="162.651"/>
				
					<line style="fill:none;stroke:#65B724;stroke-width:4.2837;stroke-linecap:round;stroke-linejoin:round;" x1="369.571" y1="162.651" x2="391.821" y2="162.651"/>
			</g>
			<g>
				
					<line style="fill:none;stroke:#65B724;stroke-width:4.2837;stroke-linecap:round;stroke-linejoin:round;" x1="499.369" y1="85.414" x2="499.369" y2="124.013"/>
				
					<line style="fill:none;stroke:#65B724;stroke-width:4.2837;stroke-linecap:round;stroke-linejoin:round;" x1="499.369" y1="124.013" x2="460.777" y2="124.013"/>
				
					<line style="fill:none;stroke:#65B724;stroke-width:4.2837;stroke-linecap:round;stroke-linejoin:round;" x1="460.777" y1="124.013" x2="499.41" y2="162.651"/>
				
					<line style="fill:none;stroke:#65B724;stroke-width:4.2837;stroke-linecap:round;stroke-linejoin:round;" x1="499.41" y1="162.651" x2="477.156" y2="162.651"/>
			</g>
		</g>
	</g>
</g>
<g id="Layer_4">
	<g>
		<path style="fill:none;stroke:#A8CFD5;stroke-width:0.7497;stroke-linejoin:round;" d="M248.235,51.329
			c-0.644-0.214-0.71-0.272-1.582-0.153c-1.817,0.246-1.89,5.659-0.954,7.492c0.581,1.145,2.35,1.266,2.733,1.119"/>
		<path style="fill:none;stroke:#777768;stroke-width:1.513;stroke-linecap:round;stroke-linejoin:round;" d="M225.423,59.139
			c4.048-1.824,12.354,22.731,14.709,23.683c1.23-1.267,3.641-20.219,4.308-22.381c0.637-2.07,1.726-3.614,1.193-5.893
			c0.29,0.017,0.656-0.038,0.964-0.041c-0.981-0.127-1.903-0.217-2.881-0.226c0.446,1.041,1.768,1.237,2.822,1.874
			c-0.662-0.023-1.383,0.081-2.016,0.049c0.618,0.063,1.586,0.173,2.408-0.021c-0.532,1.139-1.842,1.506-2.881,2.157
			c0.86-0.257,1.75-0.335,2.609-0.518c-0.051,0.396-0.255,0.107-0.526,0.226"/>
		<g>
			<path style="fill:#FBCF3D;" d="M248.235,61.845c0,0.882,2.119,0.882,3.787,0.882c1.676,0,3.632-0.125,3.635-0.882
				c0.013-0.749,0-10.516,0-10.516s-0.792,0.57-3.695,0.57c-2.91,0-3.726-0.57-3.726-0.57S248.235,60.969,248.235,61.845z"/>
			<path style="fill:#F6F9D7;" d="M248.254,50.363c0,0.125-0.019,0.535-0.019,0.966c0,0.402,2.372,0.57,3.726,0.57
				c1.237,0,2.725-0.257,3.398-0.425c0.433-0.11,0.297-0.969,0.297-1.11c0-0.37-1.652-0.671-3.702-0.671
				C249.912,49.692,248.254,49.993,248.254,50.363z"/>
			<g>
				<ellipse style="fill:none;stroke:#FFFFFF;stroke-width:0.1328;" cx="255.008" cy="53.541" rx="0.137" ry="0.122"/>
				<ellipse style="fill:none;stroke:#FFFFFF;stroke-width:0.1328;" cx="254.673" cy="57.655" rx="0.136" ry="0.125"/>
				<path style="fill:none;stroke:#FFFFFF;stroke-width:0.1328;" d="M252.068,58.549c0,0.069,0.064,0.127,0.138,0.127
					c0.074,0,0.139-0.058,0.139-0.127c0-0.066-0.064-0.122-0.139-0.122C252.132,58.427,252.068,58.482,252.068,58.549z"/>
				<path style="fill:none;stroke:#FFFFFF;stroke-width:0.1328;" d="M253.268,57.436c0,0.066,0.063,0.122,0.142,0.122
					c0.074,0,0.139-0.055,0.139-0.122c0-0.072-0.064-0.127-0.139-0.127C253.332,57.309,253.268,57.363,253.268,57.436z"/>
				<path style="fill:none;stroke:#FFFFFF;stroke-width:0.1328;" d="M251.239,56.889c0,0.066,0.061,0.125,0.134,0.125
					c0.078,0,0.138-0.058,0.138-0.125c0-0.069-0.06-0.127-0.138-0.127C251.299,56.762,251.239,56.82,251.239,56.889z"/>
				<path style="fill:none;stroke:#FFFFFF;stroke-width:0.1328;" d="M254.736,55.224c0,0.069,0.062,0.125,0.136,0.125
					c0.078,0,0.136-0.055,0.136-0.125c0-0.063-0.058-0.124-0.136-0.124C254.797,55.1,254.736,55.16,254.736,55.224z"/>
				<path style="fill:none;stroke:#FFFFFF;stroke-width:0.1328;" d="M251.214,54.975c0,0.072,0.055,0.125,0.139,0.125
					c0.07,0,0.133-0.052,0.133-0.125c0-0.066-0.062-0.125-0.133-0.125C251.269,54.851,251.214,54.909,251.214,54.975z"/>
				<ellipse style="fill:none;stroke:#FFFFFF;stroke-width:0.1328;" cx="251.102" cy="53.365" rx="0.137" ry="0.124"/>
				<path style="fill:none;stroke:#FFFFFF;stroke-width:0.1328;" d="M252.392,53.203c0,0.072,0.063,0.127,0.138,0.127
					c0.073,0,0.134-0.055,0.134-0.127c0-0.066-0.061-0.125-0.134-0.125C252.456,53.078,252.392,53.136,252.392,53.203z"/>
				<path style="fill:none;stroke:#FFFFFF;stroke-width:0.1328;" d="M253.765,56.019c0,0.066,0.062,0.127,0.14,0.127
					c0.073,0,0.139-0.061,0.139-0.127s-0.065-0.125-0.139-0.125C253.827,55.895,253.765,55.953,253.765,56.019z"/>
				<path style="fill:none;stroke:#FFFFFF;stroke-width:0.1328;" d="M252.826,54.628c0,0.07,0.062,0.125,0.136,0.125
					c0.071,0,0.139-0.055,0.139-0.125c0-0.063-0.067-0.124-0.139-0.124C252.888,54.504,252.826,54.564,252.826,54.628z"/>
				<path style="fill:none;stroke:#FFFFFF;stroke-width:0.1328;" d="M251.856,55.869c0,0.069,0.061,0.124,0.135,0.124
					c0.077,0,0.142-0.055,0.142-0.124c0-0.066-0.064-0.122-0.142-0.122C251.917,55.747,251.856,55.802,251.856,55.869z"/>
				<path style="fill:none;stroke:#FFFFFF;stroke-width:0.1328;" d="M254.032,52.647c0,0.066,0.062,0.122,0.139,0.122
					c0.07,0,0.136-0.055,0.136-0.122c0-0.069-0.065-0.124-0.136-0.124C254.094,52.523,254.032,52.578,254.032,52.647z"/>
			</g>
			<path style="fill:none;stroke:#FFFFFF;stroke-width:0.1328;" d="M253.53,62.033c-0.067-0.018-0.135,0.032-0.147,0.104
				c-0.019,0.072,0.019,0.147,0.087,0.162c0.065,0.018,0.132-0.032,0.15-0.101C253.641,62.125,253.601,62.053,253.53,62.033z"/>
			<path style="fill:none;stroke:#FFFFFF;stroke-width:0.1328;" d="M249.62,60.723c-0.069-0.017-0.138,0.029-0.156,0.104
				c-0.019,0.072,0.021,0.145,0.087,0.159c0.069,0.018,0.137-0.029,0.156-0.101C249.721,60.81,249.684,60.741,249.62,60.723z"/>
			<path style="fill:none;stroke:#FFFFFF;stroke-width:0.1328;" d="M249.342,58.112c-0.067-0.018-0.137,0.029-0.155,0.101
				c-0.014,0.075,0.021,0.147,0.088,0.165c0.069,0.014,0.135-0.032,0.151-0.104C249.445,58.202,249.409,58.127,249.342,58.112z"/>
			<path style="fill:none;stroke:#FFFFFF;stroke-width:0.1328;" d="M250.137,59.549c-0.066-0.018-0.136,0.029-0.153,0.104
				c-0.019,0.069,0.022,0.142,0.087,0.159c0.066,0.017,0.134-0.026,0.152-0.104C250.243,59.636,250.202,59.564,250.137,59.549z"/>
			<path style="fill:none;stroke:#FFFFFF;stroke-width:0.1328;" d="M249.482,54.811c-0.066-0.015-0.136,0.029-0.153,0.101
				c-0.019,0.072,0.023,0.145,0.088,0.162c0.065,0.018,0.134-0.026,0.152-0.101C249.584,54.897,249.551,54.828,249.482,54.811z"/>
			<path style="fill:none;stroke:#FFFFFF;stroke-width:0.1328;" d="M251.926,61.498c-0.064-0.015-0.131,0.029-0.148,0.104
				c-0.019,0.069,0.018,0.142,0.084,0.162c0.067,0.017,0.137-0.032,0.154-0.104C252.035,61.585,251.991,61.519,251.926,61.498z"/>
			<path style="fill:none;stroke:#FFFFFF;stroke-width:0.1328;" d="M249.224,52.662c-0.069-0.015-0.136,0.029-0.154,0.101
				c-0.014,0.075,0.02,0.147,0.089,0.165c0.068,0.017,0.135-0.029,0.152-0.102C249.329,52.751,249.284,52.679,249.224,52.662z"/>
			<path style="fill:none;stroke:#FFFFFF;stroke-width:0.1328;" d="M249.458,56.583c-0.074-0.02-0.135,0.026-0.154,0.104
				c-0.021,0.072,0.02,0.145,0.08,0.159c0.074,0.015,0.135-0.029,0.153-0.101C249.561,56.669,249.518,56.597,249.458,56.583z"/>
			<path style="fill:none;stroke:#FFFFFF;stroke-width:0.1328;" d="M254.454,59.708c-0.066-0.018-0.132,0.029-0.15,0.101
				c-0.021,0.072,0.019,0.145,0.084,0.162c0.066,0.017,0.136-0.032,0.157-0.104C254.564,59.795,254.519,59.723,254.454,59.708z"/>
			<path style="fill:none;stroke:#FFFFFF;stroke-width:0.1328;" d="M251.386,60.368c-0.061-0.015-0.13,0.029-0.152,0.104
				c-0.019,0.072,0.022,0.147,0.093,0.162c0.06,0.014,0.133-0.032,0.151-0.102C251.498,60.457,251.454,60.385,251.386,60.368z"/>
			<path style="fill:none;stroke:#FFFFFF;stroke-width:0.1328;" d="M252.964,59.786c-0.066-0.017-0.131,0.029-0.15,0.102
				c-0.019,0.075,0.02,0.147,0.084,0.162c0.066,0.018,0.135-0.029,0.156-0.104C253.073,59.876,253.033,59.804,252.964,59.786z"/>
			<path style="fill:none;stroke:#FFFFFF;stroke-width:0.1328;" d="M251.188,58.988c-0.068-0.014-0.135,0.032-0.152,0.107
				c-0.02,0.072,0.022,0.145,0.084,0.159c0.068,0.017,0.137-0.029,0.155-0.098C251.293,59.081,251.256,59.009,251.188,58.988z"/>
			<path style="fill:none;stroke:#FFFFFF;stroke-width:0.1328;" d="M254.6,61.435c-0.062-0.021-0.129,0.029-0.147,0.101
				c-0.02,0.072,0.019,0.147,0.085,0.162c0.068,0.017,0.136-0.032,0.151-0.102C254.708,61.524,254.669,61.452,254.6,61.435z"/>
			<path style="fill:none;stroke:#A8CFD5;stroke-width:0.3007;stroke-linecap:round;stroke-linejoin:round;" d="M255.629,48.837
				c0.027,5.586,0.027,8.489,0.027,12.944c0,0.946-1.748,0.946-3.635,0.946c-1.83,0-3.787,0.035-3.787-0.882
				c0-3.643,0-9.383,0.03-13.008"/>
			<path style="fill:none;stroke:#A8CFD5;stroke-width:0.3007;stroke-linecap:round;stroke-linejoin:round;" d="M248.266,48.837
				c0,0.384,1.649,0.694,3.678,0.694c2.034,0,3.686-0.31,3.686-0.694c0-0.382-1.651-0.691-3.686-0.691
				C249.915,48.146,248.266,48.455,248.266,48.837z"/>
			<path style="fill:none;stroke:#A8CFD5;stroke-width:0.2007;stroke-linecap:round;stroke-linejoin:round;" d="M255.657,53.07
				c-1.001-0.469-0.637,3.875-0.674,4.528c-0.079,1.639,0.061,3.386,0.069,4.857"/>
			<path style="fill:none;stroke:#A8CFD5;stroke-width:0.2007;stroke-linecap:round;stroke-linejoin:round;" d="M254.309,62.588
				c0-1.206-0.136-2.345-0.136-3.574c0-1.428,0.28-2.796-0.052-4.187c-0.084-0.355-0.25-1.535-0.812-1.489
				c-0.384,0.032-0.626,1.047-0.688,1.354c-0.29,1.489-0.079,3.27,0,4.791c0.053,1.026,0.134,2.295,0.134,3.175"/>
			<path style="fill:none;stroke:#A8CFD5;stroke-width:0.2007;stroke-linecap:round;stroke-linejoin:round;" d="M251.949,62.658
				c0-1.634-0.161-3.201-0.068-4.861c0.072-1.353,0.316-3.064-0.353-4.238c-1.317-0.382-1.001,8.09-1.001,9.099"/>
			<path style="fill:none;stroke:#A8CFD5;stroke-width:0.2007;stroke-linecap:round;stroke-linejoin:round;" d="M248.706,62.455
				c0-1.35-0.033-6.21,0.069-7.428c0.05-0.607,0.77-3.085,1.221-1.414c0.301,1.157,0.103,2.293-0.007,3.441
				c-0.173,1.801-0.191,3.909-0.204,5.534"/>
		</g>
	</g>
	<g>
		<path style="fill:none;stroke:#777768;stroke-width:2.57;" d="M237.319,33.351c0,8.708-5.388,15.761-12.032,15.761
			c-6.647,0-12.04-7.052-12.04-15.761c0-8.703,5.393-15.755,12.04-15.755C231.931,17.595,237.319,24.647,237.319,33.351z"/>
		<path style="fill:none;stroke:#777768;stroke-width:2.57;stroke-linecap:round;stroke-linejoin:round;" d="M225.646,70.496
			c0.179,11.108,0.153,23.009-0.933,28.474c-1.719,8.591-5.155,5.158-3.44,17.189c2.151,15.078,8.021,27.509,6.296,34.968
			c-9.385,40.665-9.732,41.833-0.562,40.685"/>
		<path style="fill:none;stroke:#777768;stroke-width:2.57;" d="M225.287,49.687c-0.012,2.77,0.087,7.038,0.185,11.97"/>
		<path style="fill:#FFFFFF;stroke:#777768;stroke-width:1.7;" d="M232.467,66.029c0,2.689-2.178,4.872-4.875,4.872
			c-2.693,0-4.871-2.183-4.871-4.872c0-2.695,2.178-4.872,4.871-4.872C230.29,61.157,232.467,63.334,232.467,66.029z"/>
	</g>
	<g>
		<path style="fill:none;stroke:#777768;stroke-width:1.713;" d="M293.104,106.525c0,1.526,1.237,2.749,2.756,2.749
			c1.514,0,2.749-1.223,2.749-2.749c0-1.507-1.235-2.744-2.749-2.744C294.341,103.781,293.104,105.019,293.104,106.525z"/>
		<path style="fill:none;stroke:#777768;stroke-width:1.713;" d="M283.054,23.384c0,8.503,5.271,15.402,11.771,15.402
			c6.492,0,11.758-6.899,11.758-15.402s-5.266-15.396-11.758-15.396C288.325,7.987,283.054,14.88,283.054,23.384z"/>
		<path style="fill:none;stroke:#777768;stroke-width:1.713;stroke-linecap:round;stroke-linejoin:round;" d="M294.524,39.402
			c0.065,10.744-1.446,42.537,0.61,52.854c1.85,9.212,2.669,6.419,0.83,19.323c-2.319,16.172,2.887,31.944,3.432,40.118
			c2.873,42.407,3.113,41.347-6.715,40.114"/>
	</g>
	<g>
		<path style="fill:none;stroke:#777768;stroke-width:1.1426;stroke-linecap:round;stroke-linejoin:round;" d="M235.769,90.986
			c-2.763-2.888,1.625-4.554,3.016-1.058c0.95,2.38-2.729,6.809-3.016,9.342"/>
		<path style="fill:none;stroke:#777768;stroke-width:1.1426;stroke-linecap:round;stroke-linejoin:round;" d="M234.76,103.206
			c-0.406-0.475-0.775-1.023-1.031-1.553"/>
	</g>
	<g>
		<path style="fill:none;stroke:#777768;stroke-width:1.0788;stroke-linecap:round;stroke-linejoin:round;" d="M276.713,92.487
			c0.092,0.26,0.215,0.515,0.364,0.751c0.128,0.223,0.389,0.437,0.396,0.708c-1.018-1.116-1.385-2.828-1.089-4.328
			c0.111-0.555,0.291-1.102,0.408-1.657c0.034-0.165,0.043-0.327,0.147-0.451c0,0.078-0.012,0.142-0.027,0.223"/>
		<path style="fill:none;stroke:#777768;stroke-width:1.713;stroke-linecap:round;stroke-linejoin:round;" d="M294.461,46.099
			c-4.881,15.851-4.978,22.015-6.553,25.189c-1.043,2.1-6.202,16.188-7.006,16.738"/>
		<path style="fill:none;stroke:#777768;stroke-width:1.0788;stroke-linecap:round;stroke-linejoin:round;" d="M283.097,89.021
			c0.36,1.119,1.342,1.657,1.606,2.345"/>
		<g>
			<path style="fill:#FBCF3D;" d="M276.713,97.671c0,0.868,2.095,0.868,3.744,0.868c1.65,0,3.579-0.125,3.591-0.868
				c0.007-0.743,0-10.383,0-10.383s-0.785,0.558-3.653,0.558c-2.874,0-3.682-0.558-3.682-0.558S276.713,96.804,276.713,97.671z"/>
			<path style="fill:#F6F9D7;" d="M276.734,86.332c0,0.124-0.021,0.526-0.021,0.957c0,0.396,2.352,0.558,3.682,0.558
				c1.225,0,2.689-0.249,3.357-0.417c0.426-0.11,0.296-0.957,0.296-1.099c0-0.364-1.638-0.662-3.659-0.662
				C278.372,85.669,276.734,85.967,276.734,86.332z"/>
			<g>
				<path style="fill:none;stroke:#FFFFFF;stroke-width:0.1309;" d="M283.266,89.469c0,0.066,0.062,0.124,0.139,0.124
					c0.075,0,0.13-0.058,0.13-0.124c0-0.069-0.055-0.122-0.13-0.122C283.328,89.347,283.266,89.399,283.266,89.469z"/>
				<path style="fill:none;stroke:#FFFFFF;stroke-width:0.1309;" d="M282.935,93.534c0,0.07,0.065,0.125,0.138,0.125
					c0.076,0,0.134-0.055,0.134-0.125c0-0.066-0.058-0.121-0.134-0.121C283,93.413,282.935,93.467,282.935,93.534z"/>
				<path style="fill:none;stroke:#FFFFFF;stroke-width:0.1309;" d="M280.5,94.416c0,0.067,0.06,0.125,0.138,0.125
					c0.073,0,0.134-0.058,0.134-0.125c0-0.066-0.061-0.124-0.134-0.124C280.56,94.292,280.5,94.349,280.5,94.416z"/>
				<path style="fill:none;stroke:#FFFFFF;stroke-width:0.1309;" d="M281.688,93.314c0,0.067,0.057,0.119,0.135,0.119
					s0.137-0.052,0.137-0.119c0-0.072-0.059-0.124-0.137-0.124S281.688,93.242,281.688,93.314z"/>
				<ellipse style="fill:none;stroke:#FFFFFF;stroke-width:0.1309;" cx="279.812" cy="92.776" rx="0.134" ry="0.122"/>
				<path style="fill:none;stroke:#FFFFFF;stroke-width:0.1309;" d="M283.133,91.131c0,0.069,0.063,0.121,0.133,0.121
					c0.078,0,0.139-0.052,0.139-0.121c0-0.064-0.061-0.122-0.139-0.122C283.196,91.01,283.133,91.067,283.133,91.131z"/>
				<path style="fill:none;stroke:#FFFFFF;stroke-width:0.1309;" d="M279.656,90.888c0,0.066,0.059,0.122,0.137,0.122
					c0.071,0,0.129-0.055,0.129-0.122s-0.058-0.124-0.129-0.124C279.715,90.764,279.656,90.822,279.656,90.888z"/>
				<path style="fill:none;stroke:#FFFFFF;stroke-width:0.1309;" d="M279.411,89.295c0,0.067,0.057,0.122,0.134,0.122
					c0.075,0,0.134-0.055,0.134-0.122c0-0.066-0.059-0.118-0.134-0.118C279.468,89.177,279.411,89.229,279.411,89.295z"/>
				<path style="fill:none;stroke:#FFFFFF;stroke-width:0.1309;" d="M280.822,89.139c0,0.069,0.061,0.121,0.133,0.121
					c0.07,0,0.135-0.052,0.135-0.121c0-0.07-0.064-0.125-0.135-0.125C280.883,89.015,280.822,89.069,280.822,89.139z"/>
				<ellipse style="fill:none;stroke:#FFFFFF;stroke-width:0.1309;" cx="282.31" cy="91.915" rx="0.136" ry="0.125"/>
				<path style="fill:none;stroke:#FFFFFF;stroke-width:0.1309;" d="M281.247,90.544c0,0.067,0.062,0.125,0.138,0.125
					c0.069,0,0.135-0.058,0.135-0.125c0-0.066-0.065-0.121-0.135-0.121C281.31,90.423,281.247,90.478,281.247,90.544z"/>
				<path style="fill:none;stroke:#FFFFFF;stroke-width:0.1309;" d="M280.292,91.767c0,0.072,0.06,0.127,0.135,0.127
					c0.073,0,0.133-0.055,0.133-0.127c0-0.063-0.06-0.118-0.133-0.118C280.352,91.649,280.292,91.704,280.292,91.767z"/>
				<ellipse style="fill:none;stroke:#FFFFFF;stroke-width:0.1309;" cx="282.575" cy="88.587" rx="0.134" ry="0.121"/>
			</g>
			<path style="fill:none;stroke:#FFFFFF;stroke-width:0.1309;" d="M281.947,97.856c-0.069-0.017-0.138,0.029-0.156,0.101
				c-0.01,0.069,0.026,0.147,0.091,0.159c0.065,0.015,0.134-0.026,0.152-0.104C282.053,97.946,282.016,97.874,281.947,97.856z"/>
			<path style="fill:none;stroke:#FFFFFF;stroke-width:0.1309;" d="M278.081,96.564c-0.064-0.02-0.133,0.029-0.151,0.098
				c-0.019,0.073,0.021,0.145,0.087,0.159c0.064,0.018,0.13-0.029,0.147-0.101C278.183,96.645,278.146,96.579,278.081,96.564z"/>
			<path style="fill:none;stroke:#FFFFFF;stroke-width:0.1309;" d="M277.806,93.982c-0.068-0.014-0.129,0.029-0.147,0.104
				c-0.02,0.072,0.019,0.147,0.087,0.159c0.066,0.018,0.134-0.026,0.15-0.101C277.911,94.072,277.866,94,277.806,93.982z"/>
			<path style="fill:none;stroke:#FFFFFF;stroke-width:0.1309;" d="M278.591,95.402c-0.068-0.021-0.131,0.026-0.149,0.101
				c-0.018,0.072,0.024,0.145,0.088,0.162c0.068,0.014,0.135-0.032,0.152-0.104C278.696,95.488,278.658,95.416,278.591,95.402z"/>
			<path style="fill:none;stroke:#FFFFFF;stroke-width:0.1309;" d="M277.948,90.724c-0.069-0.018-0.133,0.029-0.156,0.098
				c-0.019,0.075,0.026,0.147,0.092,0.165c0.064,0.015,0.133-0.032,0.147-0.104C278.047,90.81,278.009,90.738,277.948,90.724z"/>
			<path style="fill:none;stroke:#FFFFFF;stroke-width:0.1309;" d="M280.361,97.327c-0.065-0.014-0.13,0.029-0.145,0.104
				c-0.019,0.069,0.015,0.139,0.079,0.156c0.068,0.018,0.138-0.029,0.156-0.104C280.47,97.417,280.427,97.345,280.361,97.327z"/>
			<path style="fill:none;stroke:#FFFFFF;stroke-width:0.1309;" d="M277.689,88.601c-0.064-0.014-0.134,0.032-0.143,0.104
				c-0.022,0.072,0.012,0.142,0.079,0.162c0.068,0.012,0.138-0.032,0.156-0.104C277.792,88.694,277.753,88.622,277.689,88.601z"/>
			<path style="fill:none;stroke:#FFFFFF;stroke-width:0.1309;" d="M277.917,92.473c-0.068-0.017-0.131,0.029-0.147,0.101
				c-0.02,0.072,0.017,0.145,0.079,0.159c0.068,0.018,0.136-0.026,0.154-0.101C278.022,92.56,277.984,92.487,277.917,92.473z"/>
			<path style="fill:none;stroke:#FFFFFF;stroke-width:0.1309;" d="M282.861,95.555c-0.068-0.015-0.14,0.032-0.153,0.104
				c-0.021,0.069,0.019,0.142,0.085,0.159c0.068,0.021,0.132-0.026,0.149-0.104C282.961,95.647,282.925,95.575,282.861,95.555z"/>
			<path style="fill:none;stroke:#FFFFFF;stroke-width:0.1309;" d="M279.829,96.214c-0.063-0.021-0.133,0.026-0.15,0.098
				c-0.019,0.072,0.023,0.142,0.089,0.162c0.062,0.014,0.131-0.032,0.151-0.102C279.938,96.298,279.898,96.226,279.829,96.214z"/>
			<path style="fill:none;stroke:#FFFFFF;stroke-width:0.1309;" d="M281.388,95.636c-0.066-0.017-0.141,0.029-0.151,0.104
				c-0.02,0.069,0.019,0.145,0.085,0.156c0.066,0.018,0.133-0.026,0.15-0.104C281.486,95.726,281.453,95.653,281.388,95.636z"/>
			<path style="fill:none;stroke:#FFFFFF;stroke-width:0.1309;" d="M279.633,94.85c-0.065-0.015-0.139,0.032-0.149,0.104
				c-0.019,0.069,0.015,0.145,0.084,0.159c0.068,0.017,0.135-0.029,0.153-0.099C279.734,94.939,279.696,94.867,279.633,94.85z"/>
			<path style="fill:none;stroke:#FFFFFF;stroke-width:0.1309;" d="M283.004,97.264c-0.069-0.017-0.133,0.029-0.156,0.101
				c-0.012,0.07,0.026,0.145,0.087,0.159c0.069,0.018,0.138-0.029,0.152-0.101C283.109,97.351,283.067,97.278,283.004,97.264z"/>
			<path style="fill:none;stroke:#A8CFD5;stroke-width:0.2967;stroke-linecap:round;stroke-linejoin:round;" d="M284.018,84.828
				c0.03,5.514,0.03,8.379,0.03,12.777c0,0.934-1.73,0.934-3.591,0.934c-1.812,0-3.744,0.035-3.744-0.868
				c0-3.6,0-9.267,0.033-12.843"/>
			<path style="fill:none;stroke:#A8CFD5;stroke-width:0.2967;stroke-linecap:round;stroke-linejoin:round;" d="M276.746,84.828
				c0,0.375,1.628,0.685,3.637,0.685c2.003,0,3.635-0.31,3.635-0.685c0-0.379-1.632-0.686-3.635-0.686
				C278.374,84.143,276.746,84.449,276.746,84.828z"/>
			<path style="fill:none;stroke:#A8CFD5;stroke-width:0.1981;stroke-linecap:round;stroke-linejoin:round;" d="M284.048,89.003
				c-0.989-0.459-0.633,3.826-0.674,4.473c-0.075,1.616,0.063,3.345,0.068,4.797"/>
			<path style="fill:none;stroke:#A8CFD5;stroke-width:0.1981;stroke-linecap:round;stroke-linejoin:round;" d="M282.714,98.403
				c0-1.191-0.134-2.319-0.134-3.53c0-1.411,0.281-2.761-0.052-4.135c-0.084-0.347-0.25-1.515-0.803-1.469
				c-0.378,0.032-0.618,1.032-0.682,1.336c-0.283,1.472-0.074,3.229,0,4.73c0.057,1.018,0.137,2.267,0.137,3.134"/>
			<path style="fill:none;stroke:#A8CFD5;stroke-width:0.1981;stroke-linecap:round;stroke-linejoin:round;" d="M280.383,98.469
				c0-1.61-0.154-3.16-0.067-4.793c0.069-1.339,0.312-3.03-0.348-4.19c-1.304-0.376-0.987,7.992-0.987,8.983"/>
			<path style="fill:none;stroke:#A8CFD5;stroke-width:0.1981;stroke-linecap:round;stroke-linejoin:round;" d="M277.183,98.273
				c0-1.336-0.032-6.136,0.064-7.338c0.051-0.599,0.762-3.042,1.207-1.394c0.303,1.142,0.099,2.264-0.007,3.397
				c-0.172,1.781-0.19,3.857-0.199,5.464"/>
		</g>
		<path style="fill:none;stroke:#777768;stroke-width:1.713;stroke-linecap:round;stroke-linejoin:round;" d="M284.703,91.365
			c0,0.573-0.137,0.919-0.414,1.538c-0.47,1.024-0.915,0.573-2.263,2.698"/>
		<path style="fill:none;stroke:#777768;stroke-width:1.713;stroke-linecap:round;stroke-linejoin:round;" d="M278.447,93.161
			c-0.599-0.428-0.981-1.062-1.526-1.88c-0.162-0.246-0.499-0.783-0.61-1.113c-0.258,0.35,0.271,1.09,0.265,1.526
			c-0.006,0.272,0.735,3.724,0.824,3.979"/>
		<path style="fill:none;stroke:#777768;stroke-width:1.713;stroke-linecap:round;stroke-linejoin:round;" d="M276.316,89.83
			c0.488,0.249,0.834,0.437,1.421,0.489c0.457,0.043,1.125,0.061,1.499-0.191"/>
	</g>
	<g>
		<path style="fill:none;stroke:#777768;stroke-width:1.513;stroke-linecap:round;stroke-linejoin:round;" d="M218.52,90.324
			c3.385,1.758,7.36,3.016,11.13,3.397c-7.225-1.362-9.098-1.312-10.507-2.371c2.021,2.362,5.327,5.311,8.032,7.289
			c-1.376-0.335-6.543-8.411-7.987-7.986c0.905,2.301,9.936,4.403,12.015,5.045c-3.764-1.059-9.662-4.086-11.641-5.109
			c1.892-0.387,6.873,0.087,9.198,0.543c-1.845-1.064-9.356-2.27-9.572-0.479c-0.347,2.816,1.772,4.184,2.961,5.756"/>
		<path style="fill:none;stroke:#777768;stroke-width:1.513;stroke-linecap:round;stroke-linejoin:round;" d="M225.423,59.139
			c-2.955,0.59-7.008,7.382-8.673,10.467c-2.365,4.372-4.08,11.435-4.08,13.016c0,0,2.792,5.456,6.449,8"/>
	</g>
</g>
</svg>
