<?xml version="1.0" encoding="iso-8859-1"?>
<!-- Generator: Adobe Illustrator 13.0.0, SVG Export Plug-In . SVG Version: 6.00 Build 14948)  -->
<!DOCTYPE svg PUBLIC "-//W3C//DTD SVG 1.1//EN" "http://www.w3.org/Graphics/SVG/1.1/DTD/svg11.dtd">
<svg version="1.1" xmlns="http://www.w3.org/2000/svg" xmlns:xlink="http://www.w3.org/1999/xlink" x="0px" y="0px" width="540px"
	 height="200px" viewBox="0 0 540 200" style="enable-background:new 0 0 540 200;" xml:space="preserve">
<g id="FOND">
	<g>
		<rect style="fill:none;" width="540" height="200"/>
		<rect style="fill:#FFFFFF;" width="540" height="200"/>
	</g>
</g>
<g id="BAR">
	<g>
		<rect x="26.712" y="53.532" style="fill:none;" width="485.719" height="112.196"/>
		<g>
			
				<rect x="427.63" y="99.916" style="fill:#D5312C;stroke:#FFFFFF;stroke-width:0.916;stroke-linecap:square;" width="4.482" height="64.386"/>
			<g>
				<path style="fill:#D5312C;" d="M391.909,98.505c0,1.405,1.138,2.544,2.542,2.544h70.829c1.404,0,2.546-1.139,2.546-2.544
					c0-1.404-1.142-2.542-2.546-2.542h-70.829C393.047,95.962,391.909,97.101,391.909,98.505
					C391.909,98.505,391.909,97.101,391.909,98.505z"/>
				<path style="fill:none;stroke:#FFFFFF;stroke-width:1.374;" d="M391.909,98.505c0,1.405,1.138,2.544,2.542,2.544h70.829
					c1.404,0,2.546-1.139,2.546-2.544c0-1.404-1.142-2.542-2.546-2.542h-70.829C393.047,95.962,391.909,97.101,391.909,98.505
					C391.909,98.505,391.909,97.101,391.909,98.505z"/>
			</g>
		</g>
		<g>
			<rect x="160.572" y="92.103" style="fill:#65B724;stroke:#FFFFFF;stroke-width:1.374;" width="5.478" height="72.816"/>
			<path style="fill:#65B724;stroke:#FFFFFF;stroke-width:1.374;" d="M179.264,96.093h-31.913v-7.979c0,0,7.568-3.493,15.547-3.493
				c7.979,0,16.366,3.493,16.366,3.493V96.093z"/>
			<rect x="153.085" y="147.655" style="fill:#65B724;stroke:#FFFFFF;stroke-width:0.916;" width="20.449" height="1.869"/>
		</g>
		
			<line style="fill:none;stroke:#65B724;stroke-width:3.427;stroke-linecap:round;" x1="26.712" y1="55.246" x2="134.203" y2="55.246"/>
		
			<line style="fill:none;stroke:#65B724;stroke-width:3.427;stroke-linecap:square;" x1="134.203" y1="55.246" x2="134.203" y2="79.289"/>
		
			<line style="fill:none;stroke:#65B724;stroke-width:3.427;stroke-linecap:square;" x1="134.203" y1="79.289" x2="123.898" y2="79.289"/>
		
			<line style="fill:none;stroke:#65B724;stroke-width:3.427;stroke-linecap:square;" x1="123.898" y1="79.289" x2="123.898" y2="164.015"/>
		
			<line style="fill:none;stroke:#65B724;stroke-width:3.427;stroke-linecap:round;" x1="123.898" y1="164.015" x2="512.432" y2="164.015"/>
		<g>
			<g>
				
					<line style="fill:none;stroke:#65B724;stroke-width:4.2837;stroke-linecap:round;stroke-linejoin:round;" x1="369.608" y1="84.606" x2="369.608" y2="123.204"/>
				
					<line style="fill:none;stroke:#65B724;stroke-width:4.2837;stroke-linecap:round;stroke-linejoin:round;" x1="369.608" y1="123.204" x2="408.201" y2="123.204"/>
				
					<line style="fill:none;stroke:#65B724;stroke-width:4.2837;stroke-linecap:round;stroke-linejoin:round;" x1="408.201" y1="123.204" x2="369.568" y2="161.843"/>
				
					<line style="fill:none;stroke:#65B724;stroke-width:4.2837;stroke-linecap:round;stroke-linejoin:round;" x1="369.568" y1="161.843" x2="391.818" y2="161.843"/>
			</g>
			<g>
				
					<line style="fill:none;stroke:#65B724;stroke-width:4.2837;stroke-linecap:round;stroke-linejoin:round;" x1="499.364" y1="84.606" x2="499.364" y2="123.204"/>
				
					<line style="fill:none;stroke:#65B724;stroke-width:4.2837;stroke-linecap:round;stroke-linejoin:round;" x1="499.364" y1="123.204" x2="460.772" y2="123.204"/>
				
					<line style="fill:none;stroke:#65B724;stroke-width:4.2837;stroke-linecap:round;stroke-linejoin:round;" x1="460.772" y1="123.204" x2="499.406" y2="161.843"/>
				
					<line style="fill:none;stroke:#65B724;stroke-width:4.2837;stroke-linecap:round;stroke-linejoin:round;" x1="499.406" y1="161.843" x2="477.152" y2="161.843"/>
			</g>
		</g>
	</g>
</g>
<g id="Layer_3">
	<path style="fill:none;stroke:#777768;stroke-width:1.4716;stroke-linecap:round;stroke-linejoin:round;" d="M225.517,58.964
		c4.135-1.871,7.341,22.512,7.132,25.906c-0.129,2.036,0.162,10.089,0.162,14.088"/>
	<g>
		<path style="fill:#FBCF3D;" d="M228.872,109.178c0,0.96,2.306,0.96,4.125,0.96c1.821,0,3.959-0.141,3.961-0.96
			c0.01-0.811,0-11.449,0-11.449s-0.865,0.614-4.022,0.614c-3.174,0-4.063-0.614-4.063-0.614S228.872,108.227,228.872,109.178z"/>
		<path style="fill:#F6F9D7;" d="M228.894,96.673c0,0.133-0.021,0.581-0.021,1.056c0,0.436,2.587,0.614,4.063,0.614
			c1.344,0,2.965-0.276,3.691-0.462c0.475-0.119,0.331-1.051,0.331-1.208c0-0.403-1.802-0.728-4.035-0.728
			C230.7,95.945,228.894,96.27,228.894,96.673z"/>
		<g>
			<path style="fill:none;stroke:#FFFFFF;stroke-width:0.1447;" d="M236.095,100.133c0,0.074,0.076,0.134,0.152,0.134
				c0.083,0,0.147-0.06,0.147-0.134s-0.064-0.136-0.147-0.136C236.171,99.997,236.095,100.059,236.095,100.133z"/>
			<path style="fill:none;stroke:#FFFFFF;stroke-width:0.1447;" d="M235.738,104.616c0,0.076,0.068,0.138,0.146,0.138
				c0.08,0,0.149-0.062,0.149-0.138c0-0.072-0.069-0.139-0.149-0.139C235.806,104.478,235.738,104.544,235.738,104.616z"/>
			<path style="fill:none;stroke:#FFFFFF;stroke-width:0.1447;" d="M233.046,105.584c0,0.078,0.064,0.138,0.148,0.138
				c0.081,0,0.149-0.06,0.149-0.138c0-0.067-0.068-0.129-0.149-0.129C233.111,105.455,233.046,105.517,233.046,105.584z"/>
			<path style="fill:none;stroke:#FFFFFF;stroke-width:0.1447;" d="M234.355,104.37c0,0.076,0.067,0.141,0.157,0.141
				c0.074,0,0.146-0.064,0.146-0.141c0-0.073-0.071-0.133-0.146-0.133C234.422,104.237,234.355,104.297,234.355,104.37z"/>
			<path style="fill:none;stroke:#FFFFFF;stroke-width:0.1447;" d="M232.141,103.777c0,0.078,0.069,0.133,0.147,0.133
				c0.089,0,0.15-0.055,0.15-0.133c0-0.072-0.062-0.134-0.15-0.134C232.21,103.644,232.141,103.705,232.141,103.777z"/>
			<path style="fill:none;stroke:#FFFFFF;stroke-width:0.1447;" d="M235.955,101.968c0,0.072,0.066,0.136,0.141,0.136
				c0.088,0,0.152-0.063,0.152-0.136c0-0.073-0.064-0.138-0.152-0.138C236.021,101.83,235.955,101.895,235.955,101.968z"/>
			<path style="fill:none;stroke:#FFFFFF;stroke-width:0.1447;" d="M232.115,101.699c0,0.073,0.062,0.131,0.15,0.131
				c0.078,0,0.146-0.058,0.146-0.131c0-0.079-0.067-0.139-0.146-0.139C232.177,101.561,232.115,101.62,232.115,101.699z"/>
			<path style="fill:none;stroke:#FFFFFF;stroke-width:0.1447;" d="M231.85,99.939c0,0.074,0.062,0.139,0.144,0.139
				c0.085,0,0.147-0.064,0.147-0.139c0-0.073-0.062-0.133-0.147-0.133C231.913,99.807,231.85,99.866,231.85,99.939z"/>
			<path style="fill:none;stroke:#FFFFFF;stroke-width:0.1447;" d="M233.397,99.766c0,0.079,0.071,0.134,0.152,0.134
				c0.079,0,0.148-0.055,0.148-0.134c0-0.071-0.069-0.133-0.148-0.133C233.468,99.633,233.397,99.694,233.397,99.766z"/>
			<path style="fill:none;stroke:#FFFFFF;stroke-width:0.1447;" d="M234.901,102.833c0,0.071,0.062,0.134,0.15,0.134
				c0.076,0,0.147-0.062,0.147-0.134s-0.071-0.136-0.147-0.136C234.963,102.697,234.901,102.762,234.901,102.833z"/>
			<path style="fill:none;stroke:#FFFFFF;stroke-width:0.1447;" d="M233.872,101.32c0,0.073,0.066,0.136,0.143,0.136
				c0.086,0,0.157-0.062,0.157-0.136c0-0.077-0.071-0.137-0.157-0.137C233.938,101.184,233.872,101.243,233.872,101.32z"/>
			<path style="fill:none;stroke:#FFFFFF;stroke-width:0.1447;" d="M232.818,102.666c0,0.076,0.066,0.141,0.147,0.141
				s0.146-0.064,0.146-0.141c0-0.068-0.064-0.131-0.146-0.131S232.818,102.598,232.818,102.666z"/>
			<path style="fill:none;stroke:#FFFFFF;stroke-width:0.1447;" d="M235.184,99.163c0,0.071,0.067,0.131,0.148,0.131
				c0.088,0,0.152-0.06,0.152-0.131c0-0.076-0.064-0.141-0.152-0.141C235.251,99.022,235.184,99.087,235.184,99.163z"/>
		</g>
		<path style="fill:none;stroke:#FFFFFF;stroke-width:0.1447;" d="M234.643,109.385c-0.076-0.019-0.149,0.033-0.166,0.114
			c-0.02,0.071,0.021,0.16,0.093,0.172c0.076,0.021,0.147-0.026,0.169-0.112C234.76,109.482,234.717,109.406,234.643,109.385z"/>
		<path style="fill:none;stroke:#FFFFFF;stroke-width:0.1447;" d="M230.377,107.96c-0.076-0.02-0.147,0.025-0.167,0.114
			c-0.021,0.071,0.026,0.152,0.091,0.164c0.076,0.021,0.15-0.023,0.174-0.104C230.49,108.053,230.444,107.974,230.377,107.96z"/>
		<path style="fill:none;stroke:#FFFFFF;stroke-width:0.1447;" d="M230.075,105.109c-0.071-0.015-0.146,0.033-0.164,0.114
			c-0.017,0.079,0.023,0.159,0.093,0.177c0.073,0.019,0.145-0.031,0.171-0.112C230.196,105.212,230.149,105.131,230.075,105.109z"/>
		<path style="fill:none;stroke:#FFFFFF;stroke-width:0.1447;" d="M230.945,106.673c-0.076-0.015-0.147,0.035-0.167,0.116
			c-0.021,0.076,0.023,0.157,0.091,0.175c0.076,0.021,0.147-0.031,0.171-0.11C231.061,106.772,231.014,106.696,230.945,106.673z"/>
		<path style="fill:none;stroke:#FFFFFF;stroke-width:0.1447;" d="M230.23,101.518c-0.074-0.021-0.145,0.028-0.167,0.109
			c-0.02,0.076,0.031,0.157,0.097,0.177c0.069,0.017,0.141-0.031,0.167-0.112C230.341,101.61,230.301,101.537,230.23,101.518z"/>
		<path style="fill:none;stroke:#FFFFFF;stroke-width:0.1447;" d="M232.894,108.806c-0.071-0.02-0.143,0.028-0.162,0.104
			c-0.019,0.074,0.02,0.162,0.091,0.182c0.074,0.021,0.147-0.033,0.167-0.112C233.008,108.898,232.965,108.817,232.894,108.806z"/>
		<path style="fill:none;stroke:#FFFFFF;stroke-width:0.1447;" d="M229.946,99.175c-0.071-0.012-0.146,0.033-0.164,0.112
			c-0.02,0.083,0.021,0.162,0.098,0.181c0.074,0.015,0.147-0.035,0.164-0.116C230.063,99.275,230.019,99.196,229.946,99.175z"/>
		<path style="fill:none;stroke:#FFFFFF;stroke-width:0.1447;" d="M230.201,103.441c-0.076-0.018-0.147,0.038-0.159,0.119
			c-0.033,0.076,0.012,0.157,0.083,0.169c0.076,0.021,0.148-0.026,0.167-0.107C230.318,103.536,230.27,103.462,230.201,103.441z"/>
		<path style="fill:none;stroke:#FFFFFF;stroke-width:0.1447;" d="M235.647,106.849c-0.071-0.019-0.146,0.034-0.172,0.112
			c-0.017,0.079,0.026,0.157,0.101,0.174c0.071,0.02,0.143-0.035,0.169-0.109C235.759,106.946,235.716,106.865,235.647,106.849z"/>
		<path style="fill:none;stroke:#FFFFFF;stroke-width:0.1447;" d="M232.305,107.568c-0.071-0.014-0.143,0.036-0.164,0.11
			c-0.02,0.083,0.021,0.162,0.1,0.179c0.064,0.017,0.146-0.029,0.165-0.112C232.424,107.666,232.379,107.588,232.305,107.568z"/>
		<path style="fill:none;stroke:#FFFFFF;stroke-width:0.1447;" d="M234.029,106.933c-0.081-0.02-0.146,0.033-0.174,0.114
			c-0.015,0.078,0.028,0.162,0.093,0.174c0.081,0.02,0.152-0.031,0.172-0.114C234.141,107.032,234.1,106.954,234.029,106.933z"/>
		<path style="fill:none;stroke:#FFFFFF;stroke-width:0.1447;" d="M232.088,106.069c-0.071-0.014-0.147,0.031-0.166,0.112
			c-0.021,0.081,0.023,0.16,0.095,0.174c0.074,0.02,0.146-0.026,0.167-0.107C232.203,106.167,232.163,106.089,232.088,106.069z"/>
		<path style="fill:none;stroke:#FFFFFF;stroke-width:0.1447;" d="M235.806,108.734c-0.068-0.028-0.147,0.023-0.161,0.104
			c-0.021,0.081,0.019,0.16,0.093,0.182c0.071,0.019,0.146-0.036,0.164-0.114C235.92,108.827,235.88,108.746,235.806,108.734z"/>
		<path style="fill:none;stroke:#A8CFD5;stroke-width:0.3275;stroke-linecap:round;stroke-linejoin:round;" d="M236.926,95.012
			c0.031,6.082,0.031,9.247,0.031,14.102c0,1.024-1.906,1.024-3.961,1.024c-1.992,0-4.125,0.041-4.125-0.96
			c0-3.966,0-10.218,0.033-14.166"/>
		<path style="fill:none;stroke:#A8CFD5;stroke-width:0.3275;stroke-linecap:round;stroke-linejoin:round;" d="M228.905,95.012
			c0,0.417,1.798,0.755,4.008,0.755c2.214,0,4.013-0.338,4.013-0.755s-1.799-0.756-4.013-0.756
			C230.704,94.256,228.905,94.595,228.905,95.012z"/>
		<path style="fill:none;stroke:#A8CFD5;stroke-width:0.2187;stroke-linecap:round;stroke-linejoin:round;" d="M236.958,99.623
			c-1.092-0.51-0.693,4.216-0.731,4.929c-0.096,1.782,0.062,3.687,0.069,5.293"/>
		<path style="fill:none;stroke:#A8CFD5;stroke-width:0.2187;stroke-linecap:round;stroke-linejoin:round;" d="M235.49,109.99
			c0-1.313-0.147-2.56-0.147-3.901c0-1.554,0.305-3.041-0.061-4.552c-0.093-0.389-0.271-1.676-0.879-1.626
			c-0.42,0.031-0.684,1.145-0.756,1.476c-0.312,1.618-0.081,3.562,0,5.215c0.062,1.117,0.148,2.502,0.148,3.465"/>
		<path style="fill:none;stroke:#A8CFD5;stroke-width:0.2187;stroke-linecap:round;stroke-linejoin:round;" d="M232.916,110.066
			c0-1.78-0.172-3.491-0.073-5.298c0.076-1.473,0.348-3.337-0.382-4.616c-1.439-0.417-1.089,8.811-1.089,9.914"/>
		<path style="fill:none;stroke:#A8CFD5;stroke-width:0.2187;stroke-linecap:round;stroke-linejoin:round;" d="M229.384,109.845
			c0-1.473-0.033-6.769,0.079-8.096c0.055-0.66,0.833-3.355,1.327-1.537c0.334,1.256,0.114,2.495-0.005,3.746
			c-0.192,1.966-0.209,4.262-0.224,6.032"/>
	</g>
	<g>
		<path style="fill:none;stroke:#777768;stroke-width:1.4716;" d="M237.522,33.352c0,8.704-5.431,15.76-12.137,15.76
			c-6.701,0-12.137-7.057-12.137-15.76c0-8.706,5.437-15.761,12.137-15.761C232.091,17.591,237.522,24.646,237.522,33.352z"/>
		<path style="fill:none;stroke:#777768;stroke-width:1.4716;stroke-linecap:round;stroke-linejoin:round;" d="M225.752,70.492
			c0.179,11.111,0.16,23.021-0.943,28.473c-1.735,8.602-5.2,5.162-3.466,17.2c2.164,15.074,8.089,27.508,6.358,34.958
			c-9.465,40.67-9.831,41.836-0.579,40.689"/>
		<path style="fill:none;stroke:#777768;stroke-width:1.4716;" d="M225.385,49.682c-0.012,2.771,0.081,7.042,0.19,11.974"/>
		<path style="fill:#FFFFFF;stroke:#777768;stroke-width:1.4716;" d="M232.629,66.031c0,2.691-2.197,4.869-4.914,4.869
			c-2.71,0-4.907-2.178-4.907-4.869c0-2.693,2.197-4.872,4.907-4.872C230.432,61.159,232.629,63.338,232.629,66.031z"/>
	</g>
	<g>
		<path style="fill:none;stroke:#777768;stroke-width:1.4716;" d="M292.995,106.527c0,1.518,1.239,2.75,2.77,2.75
			c1.525,0,2.774-1.232,2.774-2.75c0-1.516-1.249-2.748-2.774-2.748C294.234,103.779,292.995,105.012,292.995,106.527z"/>
		<path style="fill:none;stroke:#777768;stroke-width:2.9286;" d="M282.862,23.385c0,8.508,5.307,15.4,11.858,15.4
			c6.549,0,11.861-6.892,11.861-15.4c0-8.506-5.312-15.398-11.861-15.398C288.169,7.986,282.862,14.879,282.862,23.385z"/>
		<path style="fill:none;stroke:#777768;stroke-width:2.9286;stroke-linecap:round;stroke-linejoin:round;" d="M294.421,39.398
			c0.06,10.75-1.449,42.542,0.619,52.856c1.859,9.214,2.69,6.421,0.825,19.331c-2.329,16.163,2.919,31.933,3.47,40.112
			c2.894,42.408,3.15,41.345-6.773,40.115"/>
	</g>
	<g>
		<path style="fill:none;stroke:#777768;stroke-width:1.4716;stroke-linecap:round;stroke-linejoin:round;" d="M274.237,97.747
			c0.103,0.289,0.236,0.556,0.398,0.82c0.146,0.245,0.429,0.477,0.432,0.771c-1.111-1.215-1.509-3.083-1.189-4.714
			c0.121-0.61,0.321-1.203,0.445-1.812c0.038-0.176,0.05-0.357,0.165-0.49c-0.003,0.088-0.015,0.154-0.034,0.243"/>
		<path style="fill:none;stroke:#777768;stroke-width:1.4716;stroke-linecap:round;stroke-linejoin:round;" d="M293.591,47.169
			c-5.321,17.284-5.431,24.002-7.147,27.465c-1.138,2.285-6.763,17.655-7.632,18.251"/>
		<path style="fill:none;stroke:#777768;stroke-width:1.1763;stroke-linecap:round;stroke-linejoin:round;" d="M281.196,93.97
			c0.396,1.218,1.461,1.807,1.75,2.558"/>
		<g>
			<path style="fill:#FBCF3D;" d="M274.24,103.402c0,0.944,2.283,0.944,4.085,0.944c1.794,0,3.906-0.134,3.91-0.944
				c0.005-0.808,0-11.32,0-11.32s-0.853,0.61-3.982,0.61c-3.134,0-4.013-0.61-4.013-0.61S274.24,102.457,274.24,103.402z"/>
			<path style="fill:#F6F9D7;" d="M274.262,91.038c0,0.136-0.021,0.574-0.021,1.044c0,0.432,2.564,0.61,4.013,0.61
				c1.338,0,2.935-0.276,3.664-0.46c0.459-0.117,0.318-1.039,0.318-1.194c0-0.396-1.787-0.725-3.989-0.725
				C276.052,90.313,274.262,90.643,274.262,91.038z"/>
			<g>
				<path style="fill:none;stroke:#FFFFFF;stroke-width:0.1428;" d="M281.383,94.461c0,0.071,0.071,0.131,0.152,0.131
					c0.076,0,0.147-0.06,0.147-0.131c0-0.074-0.071-0.134-0.147-0.134C281.454,94.327,281.383,94.387,281.383,94.461z"/>
				<path style="fill:none;stroke:#FFFFFF;stroke-width:0.1428;" d="M281.025,98.892c0,0.073,0.066,0.138,0.143,0.138
					c0.086,0,0.152-0.064,0.152-0.138c0-0.074-0.066-0.134-0.152-0.134C281.092,98.758,281.025,98.817,281.025,98.892z"/>
				<path style="fill:none;stroke:#FFFFFF;stroke-width:0.1428;" d="M278.365,99.854c0,0.071,0.069,0.133,0.155,0.133
					c0.076,0,0.147-0.062,0.147-0.133c0-0.072-0.071-0.132-0.147-0.132C278.435,99.723,278.365,99.782,278.365,99.854z"/>
				<path style="fill:none;stroke:#FFFFFF;stroke-width:0.1428;" d="M279.667,98.653c0,0.073,0.062,0.133,0.143,0.133
					c0.086,0,0.152-0.06,0.152-0.133c0-0.076-0.066-0.139-0.152-0.139C279.729,98.515,279.667,98.577,279.667,98.653z"/>
				<path style="fill:none;stroke:#FFFFFF;stroke-width:0.1428;" d="M277.472,98.064c0,0.071,0.069,0.133,0.15,0.133
					c0.078,0,0.146-0.062,0.146-0.133c0-0.074-0.067-0.139-0.146-0.139C277.541,97.926,277.472,97.99,277.472,98.064z"/>
				<path style="fill:none;stroke:#FFFFFF;stroke-width:0.1428;" d="M281.244,96.272c0,0.073,0.062,0.131,0.139,0.131
					c0.086,0,0.152-0.058,0.152-0.131c0-0.069-0.066-0.134-0.152-0.134C281.307,96.139,281.244,96.203,281.244,96.272z"/>
				<path style="fill:none;stroke:#FFFFFF;stroke-width:0.1428;" d="M277.448,96.008c0,0.071,0.064,0.131,0.145,0.131
					c0.086,0,0.148-0.06,0.148-0.131c0-0.074-0.062-0.134-0.148-0.134C277.513,95.874,277.448,95.934,277.448,96.008z"/>
				<path style="fill:none;stroke:#FFFFFF;stroke-width:0.1428;" d="M277.186,94.268c0,0.071,0.062,0.136,0.147,0.136
					c0.074,0,0.139-0.064,0.139-0.136c0-0.069-0.064-0.129-0.139-0.129C277.248,94.139,277.186,94.198,277.186,94.268z"/>
				<path style="fill:none;stroke:#FFFFFF;stroke-width:0.1428;" d="M278.718,94.096c0,0.077,0.064,0.139,0.146,0.139
					s0.15-0.062,0.15-0.139c0-0.073-0.069-0.133-0.15-0.133S278.718,94.022,278.718,94.096z"/>
				<path style="fill:none;stroke:#FFFFFF;stroke-width:0.1428;" d="M280.196,97.125c0,0.076,0.066,0.136,0.147,0.136
					s0.147-0.06,0.147-0.136c0-0.068-0.066-0.129-0.147-0.129S280.196,97.057,280.196,97.125z"/>
				<path style="fill:none;stroke:#FFFFFF;stroke-width:0.1428;" d="M279.181,95.634c0,0.071,0.066,0.131,0.152,0.131
					c0.076,0,0.147-0.06,0.147-0.131c0-0.074-0.071-0.134-0.147-0.134C279.247,95.5,279.181,95.56,279.181,95.634z"/>
				<path style="fill:none;stroke:#FFFFFF;stroke-width:0.1428;" d="M278.144,96.968c0,0.076,0.067,0.139,0.144,0.139
					c0.078,0,0.147-0.062,0.147-0.139c0-0.073-0.069-0.133-0.147-0.133C278.211,96.835,278.144,96.895,278.144,96.968z"/>
				<path style="fill:none;stroke:#FFFFFF;stroke-width:0.1428;" d="M280.481,93.5c0,0.072,0.072,0.127,0.148,0.127
					c0.086,0,0.152-0.055,0.152-0.127c0-0.078-0.066-0.136-0.152-0.136C280.554,93.364,280.481,93.422,280.481,93.5z"/>
			</g>
			<path style="fill:none;stroke:#FFFFFF;stroke-width:0.1428;" d="M279.943,103.605c-0.071-0.021-0.144,0.031-0.162,0.109
				c-0.02,0.074,0.023,0.157,0.091,0.177c0.071,0.017,0.147-0.033,0.171-0.112C280.053,103.703,280.015,103.624,279.943,103.605z"/>
			<path style="fill:none;stroke:#FFFFFF;stroke-width:0.1428;" d="M275.729,102.197c-0.064-0.026-0.147,0.03-0.162,0.104
				c-0.021,0.074,0.017,0.159,0.098,0.177c0.064,0.017,0.141-0.034,0.157-0.112C275.842,102.287,275.806,102.209,275.729,102.197z"
				/>
			<path style="fill:none;stroke:#FFFFFF;stroke-width:0.1428;" d="M275.432,99.378c-0.074-0.013-0.143,0.035-0.162,0.116
				c-0.019,0.076,0.02,0.16,0.091,0.177c0.074,0.014,0.146-0.036,0.172-0.117C275.546,99.478,275.503,99.398,275.432,99.378z"/>
			<path style="fill:none;stroke:#FFFFFF;stroke-width:0.1428;" d="M276.287,100.929c-0.071-0.021-0.143,0.029-0.162,0.11
				c-0.021,0.08,0.021,0.159,0.093,0.176c0.072,0.017,0.15-0.033,0.17-0.114C276.401,101.026,276.358,100.943,276.287,100.929z"/>
			<path style="fill:none;stroke:#FFFFFF;stroke-width:0.1428;" d="M275.582,95.829c-0.071-0.024-0.141,0.028-0.157,0.109
				c-0.024,0.074,0.019,0.155,0.088,0.174c0.069,0.02,0.152-0.033,0.164-0.112C275.689,95.917,275.653,95.843,275.582,95.829z"/>
			<path style="fill:none;stroke:#FFFFFF;stroke-width:0.1428;" d="M278.216,103.031c-0.067-0.02-0.139,0.026-0.155,0.111
				c-0.024,0.074,0.017,0.153,0.088,0.17c0.071,0.019,0.146-0.036,0.165-0.112C278.335,103.126,278.287,103.043,278.216,103.031z"/>
			<path style="fill:none;stroke:#FFFFFF;stroke-width:0.1428;" d="M275.303,93.515c-0.073-0.015-0.146,0.031-0.157,0.109
				c-0.021,0.081,0.02,0.157,0.093,0.177c0.074,0.019,0.146-0.033,0.165-0.112C275.425,93.614,275.372,93.533,275.303,93.515z"/>
			<path style="fill:none;stroke:#FFFFFF;stroke-width:0.1428;" d="M275.556,97.73c-0.079-0.014-0.15,0.036-0.162,0.112
				c-0.028,0.081,0.02,0.159,0.083,0.174c0.079,0.021,0.15-0.026,0.172-0.112C275.668,97.828,275.627,97.752,275.556,97.73z"/>
			<path style="fill:none;stroke:#FFFFFF;stroke-width:0.1428;" d="M280.935,101.099c-0.071-0.018-0.147,0.035-0.157,0.111
				c-0.023,0.076,0.015,0.152,0.086,0.174c0.071,0.015,0.147-0.033,0.167-0.111C281.049,101.198,281.011,101.117,280.935,101.099z"
				/>
			<path style="fill:none;stroke:#FFFFFF;stroke-width:0.1428;" d="M277.641,101.813c-0.071-0.02-0.143,0.03-0.169,0.109
				c-0.021,0.076,0.028,0.155,0.1,0.174c0.069,0.012,0.141-0.031,0.162-0.109C277.758,101.906,277.712,101.83,277.641,101.813z"/>
			<path style="fill:none;stroke:#FFFFFF;stroke-width:0.1428;" d="M279.338,101.188c-0.076-0.026-0.147,0.026-0.172,0.112
				c-0.019,0.071,0.024,0.147,0.096,0.167c0.076,0.017,0.147-0.031,0.167-0.114C279.447,101.281,279.404,101.203,279.338,101.188z"
				/>
			<path style="fill:none;stroke:#FFFFFF;stroke-width:0.1428;" d="M277.429,100.328c-0.074-0.021-0.154,0.031-0.172,0.11
				c-0.019,0.081,0.021,0.154,0.098,0.174c0.074,0.021,0.146-0.033,0.158-0.105C277.538,100.426,277.498,100.345,277.429,100.328z"
				/>
			<path style="fill:none;stroke:#FFFFFF;stroke-width:0.1428;" d="M281.097,102.96c-0.071-0.024-0.139,0.03-0.167,0.106
				c-0.015,0.079,0.028,0.16,0.096,0.175c0.076,0.023,0.143-0.034,0.167-0.112C281.211,103.048,281.163,102.974,281.097,102.96z"/>
			<path style="fill:none;stroke:#A8CFD5;stroke-width:0.3241;stroke-linecap:round;stroke-linejoin:round;" d="M282.202,89.401
				c0.033,6.008,0.033,9.133,0.033,13.93c0,1.016-1.887,1.016-3.91,1.016c-1.976,0-4.085,0.04-4.085-0.944
				c0-3.925,0-10.103,0.033-14.001"/>
			<path style="fill:none;stroke:#A8CFD5;stroke-width:0.3241;stroke-linecap:round;stroke-linejoin:round;" d="M274.273,89.401
				c0,0.407,1.78,0.743,3.971,0.743c2.181,0,3.958-0.336,3.958-0.743c0-0.417-1.777-0.751-3.958-0.751
				C276.054,88.65,274.273,88.984,274.273,89.401z"/>
			<path style="fill:none;stroke:#A8CFD5;stroke-width:0.216;stroke-linecap:round;stroke-linejoin:round;" d="M282.235,93.951
				c-1.082-0.506-0.695,4.173-0.733,4.876c-0.081,1.764,0.071,3.648,0.076,5.233"/>
			<path style="fill:none;stroke:#A8CFD5;stroke-width:0.216;stroke-linecap:round;stroke-linejoin:round;" d="M280.782,104.196
				c0-1.296-0.144-2.523-0.144-3.847c0-1.537,0.296-3.008-0.057-4.507c-0.096-0.381-0.281-1.653-0.877-1.604
				c-0.41,0.038-0.677,1.13-0.741,1.456c-0.312,1.604-0.081,3.522,0,5.16c0.06,1.107,0.146,2.474,0.146,3.422"/>
			<path style="fill:none;stroke:#A8CFD5;stroke-width:0.216;stroke-linecap:round;stroke-linejoin:round;" d="M278.244,104.277
				c0-1.761-0.174-3.453-0.074-5.236c0.076-1.456,0.336-3.298-0.376-4.566c-1.426-0.407-1.09,8.716-1.09,9.803"/>
			<path style="fill:none;stroke:#A8CFD5;stroke-width:0.216;stroke-linecap:round;stroke-linejoin:round;" d="M274.753,104.061
				c0-1.461-0.036-6.694,0.071-8.001c0.055-0.66,0.829-3.319,1.312-1.521c0.327,1.244,0.11,2.467-0.009,3.706
				c-0.179,1.938-0.205,4.202-0.215,5.951"/>
		</g>
		<path style="fill:none;stroke:#777768;stroke-width:1.4716;stroke-linecap:round;stroke-linejoin:round;" d="M282.946,96.527
			c0,0.624-0.144,1.001-0.451,1.673c-0.507,1.12-0.993,0.627-2.457,2.943"/>
		<path style="fill:none;stroke:#777768;stroke-width:1.4716;stroke-linecap:round;stroke-linejoin:round;" d="M276.128,98.486
			c-0.651-0.47-1.063-1.156-1.664-2.05c-0.172-0.271-0.546-0.855-0.67-1.213c-0.269,0.376,0.303,1.189,0.294,1.661
			c0,0.295,0.806,4.061,0.898,4.345"/>
		<path style="fill:none;stroke:#777768;stroke-width:1.5397;stroke-linecap:round;stroke-linejoin:round;" d="M273.802,94.852
			c0.538,0.274,0.917,0.475,1.551,0.536c0.508,0.043,1.23,0.062,1.641-0.212"/>
	</g>
</g>
</svg>
