<?xml version="1.0" encoding="iso-8859-1"?>
<!-- Generator: Adobe Illustrator 13.0.0, SVG Export Plug-In . SVG Version: 6.00 Build 14948)  -->
<!DOCTYPE svg PUBLIC "-//W3C//DTD SVG 1.1//EN" "http://www.w3.org/Graphics/SVG/1.1/DTD/svg11.dtd">
<svg version="1.1" xmlns="http://www.w3.org/2000/svg" xmlns:xlink="http://www.w3.org/1999/xlink" x="0px" y="0px" width="378px"
	 height="140px" viewBox="0 0 378 140" style="enable-background:new 0 0 378 140;" xml:space="preserve">
<g id="Layer_2">
	<g>
		<rect style="fill:none;" width="378" height="140"/>
		<rect style="fill:#FFFFFF;" width="378" height="140"/>
	</g>
</g>
<g id="Layer_3">
	<g>
		
			<ellipse style="fill:none;stroke:#FF9F3F;stroke-width:10;stroke-linecap:round;stroke-linejoin:round;" cx="327.048" cy="70" rx="42.667" ry="62.499"/>
		<path style="fill:none;stroke:#FF9F3F;stroke-width:10;stroke-linecap:round;stroke-linejoin:round;" d="M271.494,70.001
			c0,34.516-19.104,62.498-42.666,62.498c-23.564,0-42.669-27.982-42.669-62.498c0-34.52,19.104-62.501,42.669-62.501
			C252.391,7.5,271.494,35.481,271.494,70.001z"/>
		<path style="fill:none;stroke:#FF9F3F;stroke-width:10;stroke-linecap:round;stroke-linejoin:round;" d="M173.272,70.001
			c0,34.516-19.104,62.498-42.667,62.498s-42.667-27.982-42.667-62.498c0-34.52,19.104-62.501,42.667-62.501
			S173.272,35.481,173.272,70.001z"/>
		<path style="fill:none;stroke:#FF9F3F;stroke-width:10;stroke-linecap:round;stroke-linejoin:round;" d="M38.717,42.123
			c-15.818,18-24.067-37.708,2.751-34.488C54.85,9.242,55.614,34.927,55.403,43.593c-0.623,25.578-10.528,61.042-32.732,76.753
			c-7.852,5.557-18.476,7.997-12.766-6.296c4.931-12.344,20.125-8.203,29.186-4.2c13.56,5.992,37.61,32.042,53.363,19.077"/>
	</g>
</g>
</svg>
