<?xml version="1.0" encoding="iso-8859-1"?>
<!-- Generator: Adobe Illustrator 13.0.0, SVG Export Plug-In . SVG Version: 6.00 Build 14948)  -->
<!DOCTYPE svg PUBLIC "-//W3C//DTD SVG 1.1//EN" "http://www.w3.org/Graphics/SVG/1.1/DTD/svg11.dtd">
<svg version="1.1" xmlns="http://www.w3.org/2000/svg" xmlns:xlink="http://www.w3.org/1999/xlink" x="0px" y="0px" width="378px"
	 height="140px" viewBox="0 0 378 140" style="enable-background:new 0 0 378 140;" xml:space="preserve">
<g id="fond">
	<g>
		<rect style="fill:none;" width="378" height="140"/>
		<rect style="fill:#FFFFFF;" width="378" height="140"/>
	</g>
</g>
<g id="WAITER">
	
		<ellipse style="fill:none;stroke:#777768;stroke-width:1.799;stroke-linecap:round;stroke-linejoin:round;" cx="183.554" cy="18.153" rx="7.528" ry="9.857"/>
	<path style="fill:none;stroke:#777768;stroke-width:1.799;stroke-linecap:round;stroke-linejoin:round;" d="M183.372,28.403
		c0.053,10.395,0.887,70.139,0.936,71.876c0.711,26.025,1.872,24.86-2.95,24.86"/>
	<path style="fill:none;stroke:#777768;stroke-width:1.799;stroke-linecap:round;stroke-linejoin:round;" d="M182.035,74.885
		c0,0.974,0.786,1.759,1.761,1.759c0.963,0,1.752-0.785,1.752-1.759c0-0.968-0.789-1.756-1.752-1.756
		C182.821,73.129,182.035,73.917,182.035,74.885z"/>
	<path style="fill:none;stroke:#777768;stroke-width:1.3484;stroke-linecap:round;stroke-linejoin:round;" d="M162.898,43.72
		c0,0-0.775-1.822-2.787-1.822"/>
	<g id="menu_17_">
		<path style="fill:none;stroke:#777768;stroke-width:0.4039;stroke-linecap:round;stroke-linejoin:round;" d="M147.43,37.103
			c0.221,0.933-1.462-6.258-1.771-5.718c2.818,1.973,12.214,0.927,15.62,2.486"/>
		<path style="fill:#FFFFFF;stroke:#777768;stroke-width:0.4039;stroke-linecap:round;stroke-linejoin:round;" d="M146.438,54.845
			c-2.074-7.237-1.039-14.468-1.855-21.512c4.822-0.115,12.138-0.348,17.032,0.795c0,5.334-0.441,16.885-0.441,21.693
			C161.174,55.821,152.093,56.774,146.438,54.845"/>
	</g>
	<g>
		<path style="fill:none;stroke:#777768;stroke-width:1.1991;stroke-linecap:round;stroke-linejoin:round;" d="M187.91,67.197
			c0.924-0.71-2.174-30.01-4.432-32.172"/>
		<path style="fill:none;stroke:#777768;stroke-width:1.1991;stroke-linecap:round;stroke-linejoin:round;" d="M182.7,36.575
			c0,0-3.763,8.312-7.7,9.975c-3.938,1.663-12.634-2.462-12.634-2.462"/>
		<path style="fill:none;stroke:#777768;stroke-width:1.1991;stroke-linecap:round;stroke-linejoin:round;" d="M161.847,44.374
			c-0.689,0.142-1.941,0.174-2.499-0.093c-0.586-0.281-0.378-0.188-0.378-0.188"/>
	</g>
	<path style="fill:#777768;stroke:#777768;stroke-width:1.2512;stroke-linecap:round;stroke-linejoin:round;" d="M183.673,31.125
		c0.918-0.358,1.892-1.207,2.852-1.247c-0.07,1.526-0.525,3.122-0.582,4.677c-1.184-0.455-1.595-2.249-2.547-2.992
		c-0.397-0.313-0.753-0.697-1.218-0.981c-0.532-0.324-0.977-0.769-1.58-0.938c-0.049,0.619,0.112,1.368-0.039,1.969
		c-0.165,0.61-1.193,1.476-0.896,2.15c0.371,0.886,3.335-1.724,3.729-2.405"/>
	<path style="fill:#FFFFFF;stroke:#777768;stroke-width:0.8343;stroke-linecap:round;stroke-linejoin:round;" d="M182.414,77.959
		c-0.499-3.179-0.706-6.312-0.584-9.424c1.638-0.68,4.308-1.583,6.08-1.338c0.556,1.609,1.465,5.911,1.938,7.707
		C188.231,76.549,184.504,77.23,182.414,77.959"/>
</g>
<g id="Layer_7">
</g>
<g id="Restaurant">
	<g>
		<g>
			
				<rect x="156.278" y="77.862" style="fill:#D5312C;stroke:#FFFFFF;stroke-width:0.6339;stroke-linecap:square;" width="3.693" height="52.223"/>
			<g>
				<path style="fill:#D5312C;" d="M126.834,76.72c0,1.139,0.938,2.061,2.096,2.061h58.382c1.158,0,2.097-0.922,2.097-2.061
					c0-1.141-0.939-2.062-2.097-2.062H128.93C127.772,74.657,126.834,75.579,126.834,76.72
					C126.834,76.72,126.834,75.579,126.834,76.72z"/>
				<path style="fill:none;stroke:#FFFFFF;stroke-width:0.9509;" d="M126.834,76.72c0,1.139,0.938,2.061,2.096,2.061h58.382
					c1.158,0,2.097-0.922,2.097-2.061c0-1.141-0.939-2.062-2.097-2.062H128.93C127.772,74.657,126.834,75.579,126.834,76.72
					C126.834,76.72,126.834,75.579,126.834,76.72z"/>
			</g>
		</g>
		<g>
			<g>
				
					<line style="fill:none;stroke:#65B724;stroke-width:2.9988;stroke-linecap:round;stroke-linejoin:round;" x1="108.452" y1="65.445" x2="108.452" y2="96.751"/>
				
					<line style="fill:none;stroke:#65B724;stroke-width:2.9988;stroke-linecap:round;stroke-linejoin:round;" x1="108.452" y1="96.751" x2="140.263" y2="96.751"/>
				
					<line style="fill:none;stroke:#65B724;stroke-width:2.9988;stroke-linecap:round;stroke-linejoin:round;" x1="140.263" y1="96.751" x2="108.419" y2="128.089"/>
				
					<line style="fill:none;stroke:#65B724;stroke-width:2.9988;stroke-linecap:round;stroke-linejoin:round;" x1="108.419" y1="128.089" x2="126.759" y2="128.089"/>
			</g>
			<g>
				
					<line style="fill:none;stroke:#65B724;stroke-width:2.9988;stroke-linecap:round;stroke-linejoin:round;" x1="215.404" y1="65.445" x2="215.404" y2="96.751"/>
				
					<line style="fill:none;stroke:#65B724;stroke-width:2.9988;stroke-linecap:round;stroke-linejoin:round;" x1="215.404" y1="96.751" x2="183.596" y2="96.751"/>
				
					<line style="fill:none;stroke:#65B724;stroke-width:2.9988;stroke-linecap:round;stroke-linejoin:round;" x1="183.596" y1="96.751" x2="215.439" y2="128.089"/>
				
					<line style="fill:none;stroke:#65B724;stroke-width:2.9988;stroke-linecap:round;stroke-linejoin:round;" x1="215.439" y1="128.089" x2="197.096" y2="128.089"/>
			</g>
		</g>
	</g>
</g>
<g id="Layer_3">
	<g>
		<path style="fill:none;stroke:#A8CFD5;stroke-width:0.7386;stroke-linejoin:round;" d="M145.707,63.702
			c-0.637-0.209-0.703-0.272-1.56-0.153c-1.794,0.245-1.859,5.579-0.937,7.382c0.569,1.132,2.316,1.25,2.693,1.102"/>
		<g>
			<path style="fill:#FBCF3D;" d="M145.707,74.062c0,0.866,2.088,0.866,3.734,0.866c1.651,0,3.578-0.118,3.582-0.866
				c0.01-0.737,0-10.36,0-10.36s-0.779,0.558-3.645,0.558c-2.869,0-3.671-0.558-3.671-0.558S145.707,73.201,145.707,74.062z"/>
			<path style="fill:#F6F9D7;" d="M145.728,62.746c0,0.126-0.021,0.529-0.021,0.956c0,0.398,2.341,0.558,3.671,0.558
				c1.224,0,2.688-0.25,3.348-0.417c0.43-0.108,0.296-0.953,0.296-1.097c0-0.362-1.631-0.657-3.648-0.657
				C147.36,62.089,145.728,62.384,145.728,62.746z"/>
			<g>
				<path style="fill:none;stroke:#FFFFFF;stroke-width:0.131;" d="M152.245,65.878c0,0.067,0.064,0.125,0.139,0.125
					c0.073,0,0.134-0.058,0.134-0.125c0-0.066-0.061-0.12-0.134-0.12C152.31,65.758,152.245,65.812,152.245,65.878z"/>
				<path style="fill:none;stroke:#FFFFFF;stroke-width:0.131;" d="M151.918,69.934c0,0.069,0.062,0.126,0.133,0.126
					c0.077,0,0.134-0.057,0.134-0.126c0-0.065-0.057-0.121-0.134-0.121C151.98,69.812,151.918,69.869,151.918,69.934z"/>
				<path style="fill:none;stroke:#FFFFFF;stroke-width:0.131;" d="M149.485,70.813c0,0.072,0.062,0.127,0.132,0.127
					c0.075,0,0.137-0.055,0.137-0.127c0-0.064-0.062-0.121-0.137-0.121C149.548,70.692,149.485,70.749,149.485,70.813z"/>
				<path style="fill:none;stroke:#FFFFFF;stroke-width:0.131;" d="M150.667,69.716c0,0.069,0.061,0.125,0.14,0.125
					c0.074,0,0.135-0.056,0.135-0.125c0-0.068-0.062-0.123-0.135-0.123C150.728,69.593,150.667,69.647,150.667,69.716z"/>
				<path style="fill:none;stroke:#FFFFFF;stroke-width:0.131;" d="M148.666,69.18c0,0.065,0.062,0.121,0.135,0.121
					c0.075,0,0.136-0.056,0.136-0.121c0-0.071-0.062-0.123-0.136-0.123C148.727,69.057,148.666,69.109,148.666,69.18z"/>
				<path style="fill:none;stroke:#FFFFFF;stroke-width:0.131;" d="M152.114,67.541c0,0.065,0.059,0.121,0.131,0.121
					c0.079,0,0.139-0.056,0.139-0.121s-0.06-0.126-0.139-0.126C152.173,67.415,152.114,67.476,152.114,67.541z"/>
				<path style="fill:none;stroke:#FFFFFF;stroke-width:0.131;" d="M148.645,67.295c0,0.068,0.055,0.12,0.135,0.12
					c0.068,0,0.13-0.052,0.13-0.12c0-0.068-0.062-0.122-0.13-0.122C148.7,67.173,148.645,67.227,148.645,67.295z"/>
				<path style="fill:none;stroke:#FFFFFF;stroke-width:0.131;" d="M148.397,65.71c0,0.063,0.062,0.119,0.135,0.119
					c0.074,0,0.134-0.056,0.134-0.119c0-0.07-0.06-0.126-0.134-0.126C148.458,65.584,148.397,65.641,148.397,65.71z"/>
				<path style="fill:none;stroke:#FFFFFF;stroke-width:0.131;" d="M149.805,65.549c0,0.07,0.062,0.125,0.132,0.125
					c0.076,0,0.134-0.054,0.134-0.125c0-0.068-0.058-0.124-0.134-0.124C149.867,65.425,149.805,65.48,149.805,65.549z"/>
				<path style="fill:none;stroke:#FFFFFF;stroke-width:0.131;" d="M151.158,68.32c0,0.071,0.062,0.126,0.136,0.126
					c0.074,0,0.138-0.055,0.138-0.126c0-0.064-0.064-0.122-0.138-0.122C151.22,68.198,151.158,68.256,151.158,68.32z"/>
				<path style="fill:none;stroke:#FFFFFF;stroke-width:0.131;" d="M150.23,66.953c0,0.068,0.062,0.125,0.133,0.125
					c0.073,0,0.138-0.056,0.138-0.125c0-0.065-0.065-0.125-0.138-0.125C150.292,66.829,150.23,66.888,150.23,66.953z"/>
				<path style="fill:none;stroke:#FFFFFF;stroke-width:0.131;" d="M149.279,68.175c0,0.071,0.058,0.123,0.131,0.123
					c0.075,0,0.137-0.052,0.137-0.123c0-0.067-0.062-0.121-0.137-0.121C149.337,68.055,149.279,68.108,149.279,68.175z"/>
				<path style="fill:none;stroke:#FFFFFF;stroke-width:0.131;" d="M151.419,65c0,0.066,0.061,0.121,0.14,0.121
					c0.07,0,0.134-0.054,0.134-0.121c0-0.068-0.063-0.121-0.134-0.121C151.48,64.879,151.419,64.932,151.419,65z"/>
			</g>
			<path style="fill:none;stroke:#FFFFFF;stroke-width:0.131;" d="M150.932,74.245c-0.073-0.014-0.138,0.035-0.154,0.109
				c-0.017,0.066,0.022,0.143,0.087,0.16c0.066,0.013,0.131-0.03,0.15-0.105C151.037,74.339,150.997,74.267,150.932,74.245z"/>
			<path style="fill:none;stroke:#FFFFFF;stroke-width:0.131;" d="M147.069,72.96c-0.065-0.02-0.133,0.029-0.147,0.096
				c-0.022,0.075,0.017,0.146,0.082,0.161c0.065,0.021,0.135-0.03,0.152-0.098C147.171,73.042,147.135,72.976,147.069,72.96z"/>
			<path style="fill:none;stroke:#FFFFFF;stroke-width:0.131;" d="M146.797,70.388c-0.063-0.021-0.132,0.024-0.152,0.098
				c-0.015,0.073,0.022,0.147,0.089,0.161c0.065,0.017,0.128-0.031,0.15-0.103C146.901,70.474,146.862,70.4,146.797,70.388z"/>
			<path style="fill:none;stroke:#FFFFFF;stroke-width:0.131;" d="M147.58,71.804c-0.066-0.02-0.131,0.024-0.148,0.1
				c-0.019,0.076,0.021,0.143,0.082,0.159c0.07,0.015,0.138-0.03,0.154-0.104C147.688,71.888,147.648,71.815,147.58,71.804z"/>
			<path style="fill:none;stroke:#FFFFFF;stroke-width:0.131;" d="M146.937,67.132c-0.067-0.019-0.133,0.028-0.152,0.098
				c-0.017,0.073,0.022,0.146,0.09,0.164c0.062,0.011,0.13-0.031,0.145-0.103C147.037,67.218,147.004,67.149,146.937,67.132z"/>
			<path style="fill:none;stroke:#FFFFFF;stroke-width:0.131;" d="M149.347,73.726c-0.065-0.018-0.131,0.025-0.147,0.094
				c-0.02,0.075,0.016,0.146,0.082,0.162c0.066,0.021,0.133-0.031,0.154-0.102C149.452,73.808,149.411,73.741,149.347,73.726z"/>
			<path style="fill:none;stroke:#FFFFFF;stroke-width:0.131;" d="M146.677,65.015c-0.059-0.015-0.131,0.029-0.146,0.103
				c-0.017,0.071,0.021,0.144,0.087,0.162c0.065,0.013,0.131-0.033,0.149-0.106C146.784,65.104,146.745,65.03,146.677,65.015z"/>
			<path style="fill:none;stroke:#FFFFFF;stroke-width:0.131;" d="M146.911,68.875c-0.07-0.015-0.134,0.031-0.149,0.104
				c-0.021,0.07,0.015,0.143,0.079,0.158c0.07,0.015,0.135-0.028,0.154-0.098C147.013,68.964,146.973,68.892,146.911,68.875z"/>
			<path style="fill:none;stroke:#FFFFFF;stroke-width:0.131;" d="M151.836,71.959c-0.067-0.019-0.13,0.026-0.151,0.099
				c-0.015,0.071,0.021,0.143,0.084,0.162c0.067,0.018,0.137-0.032,0.154-0.102C151.943,72.041,151.897,71.97,151.836,71.959z"/>
			<path style="fill:none;stroke:#FFFFFF;stroke-width:0.131;" d="M148.815,72.606c-0.062-0.014-0.131,0.033-0.152,0.104
				c-0.015,0.071,0.021,0.143,0.094,0.159c0.058,0.011,0.13-0.028,0.147-0.104C148.92,72.694,148.883,72.628,148.815,72.606z"/>
			<path style="fill:none;stroke:#FFFFFF;stroke-width:0.131;" d="M150.37,72.032c-0.067-0.013-0.132,0.033-0.151,0.104
				c-0.018,0.07,0.021,0.145,0.083,0.16c0.067,0.014,0.134-0.029,0.154-0.1C150.476,72.121,150.437,72.05,150.37,72.032z"/>
			<path style="fill:none;stroke:#FFFFFF;stroke-width:0.131;" d="M148.615,71.251c-0.061-0.014-0.131,0.029-0.146,0.103
				c-0.021,0.07,0.022,0.142,0.086,0.157c0.066,0.02,0.129-0.027,0.148-0.1C148.723,71.341,148.684,71.268,148.615,71.251z"/>
			<path style="fill:none;stroke:#FFFFFF;stroke-width:0.131;" d="M151.98,73.657c-0.062-0.021-0.13,0.027-0.148,0.104
				c-0.018,0.07,0.02,0.143,0.085,0.158c0.068,0.02,0.133-0.027,0.151-0.104C152.088,73.744,152.049,73.677,151.98,73.657z"/>
			<path style="fill:none;stroke:#A8CFD5;stroke-width:0.2964;stroke-linecap:round;stroke-linejoin:round;" d="M152.994,61.245
				c0.029,5.504,0.029,8.367,0.029,12.758c0,0.926-1.726,0.926-3.582,0.926c-1.806,0-3.734,0.034-3.734-0.866
				c0-3.589,0-9.242,0.031-12.818"/>
			<path style="fill:none;stroke:#A8CFD5;stroke-width:0.2964;stroke-linecap:round;stroke-linejoin:round;" d="M145.738,61.245
				c0,0.378,1.624,0.685,3.625,0.685c2.005,0,3.631-0.306,3.631-0.685c0-0.375-1.626-0.68-3.631-0.68
				C147.361,60.564,145.738,60.87,145.738,61.245z"/>
			<path style="fill:none;stroke:#A8CFD5;stroke-width:0.1976;stroke-linecap:round;stroke-linejoin:round;" d="M153.023,65.416
				c-0.988-0.46-0.631,3.82-0.665,4.463c-0.079,1.613,0.06,3.335,0.065,4.785"/>
			<path style="fill:none;stroke:#A8CFD5;stroke-width:0.1976;stroke-linecap:round;stroke-linejoin:round;" d="M151.697,74.794
				c0-1.188-0.132-2.312-0.132-3.522c0-1.408,0.271-2.753-0.056-4.123c-0.082-0.349-0.248-1.512-0.804-1.468
				c-0.376,0.032-0.614,1.031-0.676,1.332c-0.285,1.47-0.076,3.226,0,4.724c0.055,1.014,0.134,2.263,0.134,3.124"/>
			<path style="fill:none;stroke:#A8CFD5;stroke-width:0.1976;stroke-linecap:round;stroke-linejoin:round;" d="M149.367,74.86
				c0-1.607-0.154-3.148-0.067-4.785c0.07-1.333,0.312-3.021-0.347-4.179c-1.3-0.375-0.986,7.974-0.986,8.964"/>
			<path style="fill:none;stroke:#A8CFD5;stroke-width:0.1976;stroke-linecap:round;stroke-linejoin:round;" d="M146.172,74.663
				c0-1.33-0.031-6.117,0.067-7.317c0.049-0.6,0.761-3.041,1.201-1.394c0.303,1.138,0.105,2.259-0.004,3.39
				c-0.171,1.777-0.187,3.851-0.199,5.452"/>
		</g>
	</g>
	<g>
		<path style="fill:#FBCF3D;" d="M166.055,74.282c0,0.872,2.103,0.872,3.761,0.872c1.659,0,3.6-0.124,3.61-0.872
			c0.008-0.74,0-10.435,0-10.435s-0.788,0.561-3.674,0.561c-2.888,0-3.697-0.561-3.697-0.561S166.055,73.407,166.055,74.282z"/>
		<path style="fill:#F6F9D7;" d="M166.075,62.884c0,0.126-0.021,0.53-0.021,0.963c0,0.399,2.36,0.561,3.697,0.561
			c1.234,0,2.709-0.252,3.373-0.42c0.431-0.109,0.301-0.958,0.301-1.104c0-0.362-1.645-0.664-3.68-0.664
			C167.722,62.22,166.075,62.522,166.075,62.884z"/>
		<g>
			<path style="fill:none;stroke:#FFFFFF;stroke-width:0.1319;" d="M172.638,66.039c0,0.067,0.064,0.122,0.142,0.122
				c0.071,0,0.13-0.055,0.13-0.122c0-0.071-0.059-0.122-0.13-0.122C172.703,65.917,172.638,65.968,172.638,66.039z"/>
			<path style="fill:none;stroke:#FFFFFF;stroke-width:0.1319;" d="M172.307,70.126c0,0.064,0.063,0.125,0.136,0.125
				c0.079,0,0.137-0.061,0.137-0.125c0-0.07-0.058-0.126-0.137-0.126C172.37,70,172.307,70.056,172.307,70.126z"/>
			<path style="fill:none;stroke:#FFFFFF;stroke-width:0.1319;" d="M169.861,71.011c0,0.066,0.06,0.126,0.134,0.126
				c0.075,0,0.136-0.06,0.136-0.126c0-0.069-0.061-0.124-0.136-0.124C169.921,70.887,169.861,70.941,169.861,71.011z"/>
			<path style="fill:none;stroke:#FFFFFF;stroke-width:0.1319;" d="M171.05,69.903c0,0.069,0.062,0.124,0.142,0.124
				c0.076,0,0.137-0.055,0.137-0.124c0-0.072-0.061-0.126-0.137-0.126C171.111,69.777,171.05,69.832,171.05,69.903z"/>
			<path style="fill:none;stroke:#FFFFFF;stroke-width:0.1319;" d="M169.035,69.363c0,0.062,0.06,0.122,0.136,0.122
				c0.073,0,0.136-0.059,0.136-0.122c0-0.073-0.062-0.125-0.136-0.125C169.095,69.237,169.035,69.29,169.035,69.363z"/>
			<path style="fill:none;stroke:#FFFFFF;stroke-width:0.1319;" d="M172.51,67.71c0,0.07,0.058,0.124,0.128,0.124
				c0.081,0,0.142-0.053,0.142-0.124c0-0.065-0.062-0.125-0.142-0.125C172.568,67.585,172.51,67.645,172.51,67.71z"/>
			<ellipse style="fill:none;stroke:#FFFFFF;stroke-width:0.1319;" cx="169.146" cy="67.466" rx="0.136" ry="0.119"/>
			<path style="fill:none;stroke:#FFFFFF;stroke-width:0.1319;" d="M168.766,65.865c0,0.067,0.059,0.124,0.132,0.124
				c0.077,0,0.136-0.056,0.136-0.124c0-0.066-0.059-0.122-0.136-0.122C168.825,65.743,168.766,65.799,168.766,65.865z"/>
			<path style="fill:none;stroke:#FFFFFF;stroke-width:0.1319;" d="M170.181,65.705c0,0.071,0.062,0.123,0.136,0.123
				c0.073,0,0.137-0.052,0.137-0.123c0-0.068-0.064-0.124-0.137-0.124C170.244,65.582,170.181,65.637,170.181,65.705z"/>
			<path style="fill:none;stroke:#FFFFFF;stroke-width:0.1319;" d="M171.547,68.496c0,0.07,0.06,0.125,0.133,0.125
				c0.075,0,0.14-0.055,0.14-0.125c0-0.066-0.065-0.119-0.14-0.119C171.607,68.377,171.547,68.43,171.547,68.496z"/>
			<path style="fill:none;stroke:#FFFFFF;stroke-width:0.1319;" d="M170.613,67.12c0,0.067,0.055,0.123,0.132,0.123
				c0.075,0,0.136-0.056,0.136-0.123c0-0.065-0.061-0.123-0.136-0.123C170.668,66.998,170.613,67.055,170.613,67.12z"/>
			<path style="fill:none;stroke:#FFFFFF;stroke-width:0.1319;" d="M169.653,68.35c0,0.07,0.058,0.124,0.13,0.124
				c0.079,0,0.139-0.053,0.139-0.124c0-0.064-0.06-0.12-0.139-0.12C169.711,68.23,169.653,68.286,169.653,68.35z"/>
			<ellipse style="fill:none;stroke:#FFFFFF;stroke-width:0.1319;" cx="171.944" cy="65.152" rx="0.136" ry="0.12"/>
		</g>
		<path style="fill:none;stroke:#FFFFFF;stroke-width:0.1319;" d="M171.313,74.469c-0.066-0.017-0.136,0.029-0.157,0.103
			c-0.01,0.072,0.029,0.146,0.091,0.162c0.07,0.015,0.137-0.035,0.154-0.103C171.418,74.56,171.381,74.487,171.313,74.469z"/>
		<path style="fill:none;stroke:#FFFFFF;stroke-width:0.1319;" d="M167.432,73.171c-0.067-0.022-0.141,0.023-0.158,0.098
			c-0.017,0.071,0.021,0.149,0.09,0.16c0.067,0.013,0.13-0.031,0.147-0.098C167.531,73.251,167.495,73.183,167.432,73.171z"/>
		<path style="fill:none;stroke:#FFFFFF;stroke-width:0.1319;" d="M167.152,70.575c-0.065-0.013-0.135,0.028-0.146,0.104
			c-0.02,0.07,0.014,0.148,0.085,0.158c0.064,0.018,0.131-0.026,0.152-0.102C167.258,70.666,167.216,70.593,167.152,70.575z"/>
		<path style="fill:none;stroke:#FFFFFF;stroke-width:0.1319;" d="M167.945,72.001c-0.07-0.019-0.132,0.029-0.154,0.102
			c-0.016,0.074,0.024,0.144,0.087,0.167c0.067,0.007,0.138-0.034,0.154-0.109C168.049,72.088,168.01,72.019,167.945,72.001z"/>
		<path style="fill:none;stroke:#FFFFFF;stroke-width:0.1319;" d="M167.292,67.298c-0.066-0.019-0.131,0.032-0.148,0.102
			c-0.023,0.072,0.021,0.144,0.088,0.164c0.06,0.018,0.133-0.031,0.149-0.104C167.393,67.384,167.359,67.314,167.292,67.298z"/>
		<path style="fill:none;stroke:#FFFFFF;stroke-width:0.1319;" d="M169.723,73.937c-0.064-0.014-0.135,0.029-0.147,0.104
			c-0.021,0.068,0.013,0.142,0.083,0.158c0.068,0.014,0.133-0.028,0.151-0.101C169.83,74.028,169.783,73.954,169.723,73.937z"/>
		<path style="fill:none;stroke:#FFFFFF;stroke-width:0.1319;" d="M167.034,65.167c-0.064-0.014-0.132,0.034-0.145,0.105
			c-0.021,0.073,0.017,0.145,0.083,0.161c0.068,0.016,0.137-0.029,0.154-0.104C167.144,65.26,167.096,65.187,167.034,65.167z"/>
		<path style="fill:none;stroke:#FFFFFF;stroke-width:0.1319;" d="M167.265,69.056c-0.067-0.015-0.132,0.031-0.15,0.104
			c-0.021,0.07,0.018,0.141,0.083,0.158c0.067,0.016,0.134-0.029,0.149-0.101C167.369,69.144,167.331,69.075,167.265,69.056z"/>
		<path style="fill:none;stroke:#FFFFFF;stroke-width:0.1319;" d="M172.231,72.157c-0.066-0.016-0.14,0.031-0.155,0.104
			c-0.019,0.068,0.019,0.148,0.089,0.158c0.066,0.019,0.131-0.031,0.149-0.099C172.331,72.246,172.293,72.171,172.231,72.157z"/>
		<path style="fill:none;stroke:#FFFFFF;stroke-width:0.1319;" d="M169.185,72.813c-0.067-0.014-0.134,0.031-0.15,0.104
			c-0.017,0.076,0.021,0.144,0.086,0.166c0.064,0.012,0.134-0.036,0.154-0.109C169.295,72.905,169.255,72.832,169.185,72.813z"/>
		<path style="fill:none;stroke:#FFFFFF;stroke-width:0.1319;" d="M170.753,72.237c-0.066-0.019-0.14,0.032-0.153,0.103
			c-0.021,0.071,0.021,0.146,0.087,0.161c0.066,0.011,0.133-0.031,0.15-0.105C170.85,72.326,170.814,72.253,170.753,72.237z"/>
		<path style="fill:none;stroke:#FFFFFF;stroke-width:0.1319;" d="M168.991,71.446c-0.071-0.016-0.141,0.031-0.155,0.104
			c-0.013,0.07,0.018,0.148,0.084,0.16c0.071,0.02,0.135-0.027,0.157-0.096C169.095,71.536,169.051,71.466,168.991,71.446z"/>
		<path style="fill:none;stroke:#FFFFFF;stroke-width:0.1319;" d="M172.377,73.873c-0.07-0.017-0.136,0.03-0.153,0.099
			c-0.014,0.071,0.019,0.148,0.083,0.164c0.07,0.016,0.136-0.031,0.154-0.104C172.481,73.958,172.443,73.89,172.377,73.873z"/>
		<path style="fill:none;stroke:#A8CFD5;stroke-width:0.2983;stroke-linecap:round;stroke-linejoin:round;" d="M173.394,61.374
			c0.032,5.542,0.032,8.422,0.032,12.838c0,0.942-1.743,0.942-3.61,0.942c-1.819,0-3.761,0.034-3.761-0.872
			c0-3.616,0-9.311,0.032-12.909"/>
		<path style="fill:none;stroke:#A8CFD5;stroke-width:0.2983;stroke-linecap:round;stroke-linejoin:round;" d="M166.087,61.374
			c0,0.379,1.635,0.689,3.655,0.689c2.013,0,3.652-0.31,3.652-0.689c0-0.381-1.639-0.687-3.652-0.687
			C167.722,60.687,166.087,60.992,166.087,61.374z"/>
		<path style="fill:none;stroke:#A8CFD5;stroke-width:0.1992;stroke-linecap:round;stroke-linejoin:round;" d="M173.426,65.57
			c-0.997-0.463-0.637,3.845-0.671,4.494c-0.082,1.626,0.058,3.364,0.063,4.823"/>
		<path style="fill:none;stroke:#A8CFD5;stroke-width:0.1992;stroke-linecap:round;stroke-linejoin:round;" d="M172.083,75.016
			c0-1.196-0.136-2.329-0.136-3.546c0-1.418,0.284-2.776-0.048-4.155c-0.083-0.348-0.255-1.522-0.807-1.475
			c-0.385,0.032-0.621,1.037-0.684,1.341c-0.285,1.481-0.077,3.247,0,4.755c0.055,1.021,0.136,2.275,0.136,3.151"/>
		<path style="fill:none;stroke:#A8CFD5;stroke-width:0.1992;stroke-linecap:round;stroke-linejoin:round;" d="M169.742,75.088
			c0-1.624-0.157-3.181-0.069-4.825c0.072-1.343,0.313-3.042-0.345-4.208c-1.312-0.38-0.997,8.031-0.997,9.033"/>
		<path style="fill:none;stroke:#A8CFD5;stroke-width:0.1992;stroke-linecap:round;stroke-linejoin:round;" d="M166.525,74.888
			c0-1.342-0.035-6.166,0.063-7.375c0.053-0.6,0.77-3.059,1.211-1.401c0.308,1.148,0.104,2.276-0.002,3.417
			c-0.174,1.788-0.189,3.877-0.198,5.488"/>
	</g>
	<g>
		<path style="fill:none;stroke:#777768;stroke-width:1.1991;stroke-linecap:round;stroke-linejoin:round;" d="M123.241,43.533
			c0,6.157-3.845,11.15-8.59,11.15c-4.738,0-8.59-4.994-8.59-11.15c0-6.158,3.853-11.147,8.59-11.147
			C119.396,32.386,123.241,37.375,123.241,43.533z"/>
		<path style="fill:none;stroke:#777768;stroke-width:1.1991;stroke-linecap:round;stroke-linejoin:round;" d="M114.909,69.809
			c0.126,7.854,0.112,5.309-0.662,9.17c-1.232,6.08-2.456,6.618-2.456,12.16c0,8.963,32.395-2.697,31.175,2.571
			c-6.697,28.769-6.956,34.867-0.416,34.052"/>
		<path style="fill:none;stroke:#777768;stroke-width:1.1991;stroke-linecap:round;stroke-linejoin:round;" d="M114.65,55.087
			c-0.011,1.962,0.058,4.98,0.133,8.465"/>
	</g>
	<g>
		<path style="fill:none;stroke:#777768;stroke-width:1.1991;" d="M207.41,92.667c0,1.056,0.863,1.908,1.928,1.908
			c1.061,0,1.928-0.853,1.928-1.908c0-1.053-0.867-1.91-1.928-1.91C208.273,90.757,207.41,91.614,207.41,92.667z"/>
		<path style="fill:none;stroke:#777768;stroke-width:1.1991;" d="M200.359,37.435c0,5.918,3.697,10.707,8.252,10.707
			s8.25-4.788,8.25-10.707c0-5.916-3.695-10.709-8.25-10.709S200.359,31.52,200.359,37.435z"/>
		<path style="fill:none;stroke:#777768;stroke-width:1.1991;stroke-linecap:round;stroke-linejoin:round;" d="M208.398,48.572
			c0.047,7.474-0.541,23.996,0.9,31.173c1.293,6.404,4.879,13.883,0.039,14.83c-9.398,1.849-31.15-6.464-30.771-0.773
			c2.014,29.487,1.422,35.581-5.479,34.725"/>
		<path style="fill:#FFFFFF;stroke:#777768;stroke-width:1.1991;" d="M119.777,66.652c0,1.902-1.554,3.442-3.474,3.442
			c-1.922,0-3.478-1.54-3.478-3.442c0-1.906,1.556-3.449,3.478-3.449C118.223,63.203,119.777,64.746,119.777,66.652z"/>
	</g>
</g>
</svg>
