<?xml version="1.0" encoding="iso-8859-1"?>
<!-- Generator: Adobe Illustrator 13.0.0, SVG Export Plug-In . SVG Version: 6.00 Build 14948)  -->
<!DOCTYPE svg PUBLIC "-//W3C//DTD SVG 1.1//EN" "http://www.w3.org/Graphics/SVG/1.1/DTD/svg11.dtd">
<svg version="1.1" xmlns="http://www.w3.org/2000/svg" xmlns:xlink="http://www.w3.org/1999/xlink" x="0px" y="0px" width="378px"
	 height="140px" viewBox="0 0 378 140" style="enable-background:new 0 0 378 140;" xml:space="preserve">
<g id="Layer_2">
	<rect style="fill:none;" width="378" height="140"/>
</g>
<g id="Layer_5">
	<g>
		
			<line style="fill:none;stroke:#CCCCCC;stroke-width:0.7;stroke-linecap:round;stroke-linejoin:round;" x1="258.693" y1="121.148" x2="268.214" y2="121.148"/>
		
			<line style="fill:none;stroke:#CCCCCC;stroke-width:0.7;stroke-linecap:round;stroke-linejoin:round;" x1="105.636" y1="121.148" x2="117.51" y2="121.148"/>
		
			<polyline id="grande_ville" style="fill:none;stroke:#777768;stroke-width:1.5;stroke-linecap:round;stroke-linejoin:round;" points="
			117.507,120.792 117.418,79.735 124.64,79.735 124.64,46.54 133.201,46.54 133.201,92.535 136.795,92.535 136.795,31.294 
			148.542,31.294 148.542,101.735 152.486,101.735 152.486,48.338 162.873,48.338 162.873,78.83 166.176,78.83 166.176,65.584 
			175.013,65.584 175.013,93.735 194.66,93.735 194.66,56.584 202.714,56.584 202.714,72.796 206.232,72.796 206.232,45.946 
			217.596,45.946 217.596,91.735 220.751,91.735 220.751,28.71 232.58,28.71 232.58,77.108 237.508,77.108 237.508,39.822 
			249.721,39.822 249.721,96.667 258.693,96.667 258.693,120.917 		"/>
		<g id="banlieue_1">
			<polyline style="fill:#FFFFFF;stroke:#CCCCCC;stroke-width:0.7;stroke-linecap:round;stroke-linejoin:round;" points="
				44.933,112.322 44.933,90.697 54.433,90.697 54.433,118.408 			"/>
			<polyline style="fill:#FFFFFF;stroke:#CCCCCC;stroke-width:0.7;stroke-linecap:round;stroke-linejoin:round;" points="
				59.401,109.375 51.964,109.375 51.964,121.148 56.248,121.148 			"/>
			<polyline style="fill:#FFFFFF;stroke:#CCCCCC;stroke-width:0.7;stroke-linecap:round;stroke-linejoin:round;" points="
				76.339,115.062 76.339,93.438 85.839,93.438 85.839,121.148 			"/>
			<polyline style="fill:#FFFFFF;stroke:#CCCCCC;stroke-width:0.7;stroke-linecap:round;stroke-linejoin:round;" points="
				105.636,121.148 105.636,110.039 100.12,110.039 100.12,104.031 92.907,104.039 92.907,114.188 88.714,114.188 88.714,121.148 
				82.571,121.148 82.571,111.14 72.235,111.14 72.235,101.735 59.248,101.735 59.248,121.148 45.724,121.148 45.724,107.667 
				39.604,107.667 39.604,91.167 30.416,91.167 30.416,121.148 21.583,121.148 			"/>
		</g>
		<g id="banlieue_2">
			<polyline style="fill:#FFFFFF;stroke:#CCCCCC;stroke-width:0.7;stroke-linecap:round;stroke-linejoin:round;" points="
				300.964,118.375 300.964,101.625 290.901,101.625 290.901,118.812 			"/>
			<polyline style="fill:#FFFFFF;stroke:#CCCCCC;stroke-width:0.7;stroke-linecap:round;stroke-linejoin:round;" points="
				304.901,119.946 304.901,85.167 314.964,85.167 314.964,120.854 			"/>
			<polyline style="fill:#FFFFFF;stroke:#CCCCCC;stroke-width:0.7;stroke-linecap:round;stroke-linejoin:round;" points="
				322.854,120.086 322.854,90.666 332.916,90.666 332.916,120.854 			"/>
			<polyline style="fill:#FFFFFF;stroke:#CCCCCC;stroke-width:0.7;stroke-linecap:round;stroke-linejoin:round;" points="
				284.776,117.237 284.776,90.312 274.714,90.312 274.714,120.231 			"/>
			<polyline style="fill:#FFFFFF;stroke:#CCCCCC;stroke-width:0.7;stroke-linecap:round;stroke-linejoin:round;" points="
				268.214,121.148 268.214,98 276.276,98 276.276,121.148 279.509,121.148 279.509,106.747 286.396,106.747 286.396,112.689 
				292.151,112.689 295.765,112.689 295.765,102.5 295.765,95.377 308.685,95.377 308.685,121.148 320.108,121.148 320.108,109.25 
				328.75,109.25 328.75,97.667 338.083,97.667 338.083,113.167 344.417,113.167 344.417,121.148 356.417,121.148 			"/>
			
				<line style="display:none;fill:#FFFFFF;stroke:#777768;stroke-width:0.7;stroke-linecap:round;stroke-linejoin:round;" x1="314.108" y1="121.148" x2="325.509" y2="121.148"/>
		</g>
	</g>
	<g>
		
			<line style="fill:none;stroke:#D5312C;stroke-width:1.5;stroke-linecap:round;stroke-linejoin:round;" x1="184.968" y1="87.5" x2="184.968" y2="46.875"/>
		
			<line style="fill:none;stroke:#D5312C;stroke-width:1.5;stroke-linecap:round;stroke-linejoin:round;" x1="180.385" y1="80.834" x2="184.968" y2="87.5"/>
		
			<line style="fill:none;stroke:#D5312C;stroke-width:1.5;stroke-linecap:round;stroke-linejoin:round;" x1="189.615" y1="80.834" x2="185.032" y2="87.5"/>
	</g>
</g>
</svg>
