<?xml version="1.0" encoding="iso-8859-1"?>
<!-- Generator: Adobe Illustrator 13.0.0, SVG Export Plug-In . SVG Version: 6.00 Build 14948)  -->
<!DOCTYPE svg PUBLIC "-//W3C//DTD SVG 1.1//EN" "http://www.w3.org/Graphics/SVG/1.1/DTD/svg11.dtd">
<svg version="1.1" xmlns="http://www.w3.org/2000/svg" xmlns:xlink="http://www.w3.org/1999/xlink" x="0px" y="0px" width="540px"
	 height="200px" viewBox="0 0 540 200" style="enable-background:new 0 0 540 200;" xml:space="preserve">
<g id="Layer_2">
	<rect style="fill:#FFFFFF;" width="540" height="200"/>
</g>
<g id="Layer_3">
	<path style="fill:#FFFFFF;stroke:#92938B;stroke-width:4;stroke-linecap:round;stroke-linejoin:round;" d="M268.453,45.154
		c0,17.956-11.109,32.506-24.818,32.506c-13.691,0-24.814-14.551-24.814-32.506c0-17.95,11.123-32.501,24.814-32.501
		C257.344,12.653,268.453,27.204,268.453,45.154z"/>
	<path style="fill:none;stroke:#92938B;stroke-width:4;stroke-linecap:round;stroke-linejoin:round;" d="M244.256,78.952
		c-0.11,22.688,3.112,84.624-0.754,108.395"/>
	<path style="fill:#FFFFFF;stroke:#92938B;stroke-width:2;stroke-linecap:round;stroke-linejoin:round;" d="M321.364,154.418
		c4.411-3.312,8.142-14.348,17.818-18.158c9.208-3.626,8.445-7.917,11.509-11.939c1.143-1.501-0.984-4.049,0.893-5.407
		c2.068-1.498,3.353,0.021,4.123,1.728c1.634,3.622-1.832,14.457-4.42,16.433c3.125,0.187,13.088-0.545,14.859,2.459
		c3.567,6.052-8.349,4.854-10.869,5.039c1.852,0.474,11.309-2.544,10.058,2.665c-0.858,3.57-8.255,2.264-10.882,2.264
		c2.631-0.128,5.014-0.927,7.566,0.079c1.434,4.981-5.945,6.039-9.385,5.865c5.839-1.075,7.091,2.218,1.691,4.573
		c-3.474,1.515-8.652,1.679-12.357,0.9C334.706,159.395,330.027,153.106,321.364,154.418"/>
	
		<circle style="fill:#FFFFFF;stroke:#92938B;stroke-width:2;stroke-linecap:round;stroke-linejoin:round;" cx="248.892" cy="107.717" r="9.68"/>
	<path style="fill:none;stroke:#92938B;stroke-width:2;stroke-linecap:round;stroke-linejoin:round;" d="M244.138,89.012
		c-7.763,7.276-8.224,22.557-3.737,32.437c7.115,15.675,15.844,37.217,30.499,44.156c10.437,4.942,44.106-8.573,50.465-11.187"/>
</g>
</svg>
