<?xml version="1.0" encoding="iso-8859-1"?>
<!-- Generator: Adobe Illustrator 13.0.0, SVG Export Plug-In . SVG Version: 6.00 Build 14948)  -->
<!DOCTYPE svg PUBLIC "-//W3C//DTD SVG 1.1//EN" "http://www.w3.org/Graphics/SVG/1.1/DTD/svg11.dtd">
<svg version="1.1" xmlns="http://www.w3.org/2000/svg" xmlns:xlink="http://www.w3.org/1999/xlink" x="0px" y="0px" width="378px"
	 height="140px" viewBox="0 0 378 140" style="enable-background:new 0 0 378 140;" xml:space="preserve">
<g id="Layer_1">
	<rect style="fill:#FFFFFF;" width="378" height="140"/>
	<rect style="fill:#FFFFFF;" width="378" height="140"/>
</g>
<g id="Layer_5">
	<g>
		<g>
			
				<rect x="299.342" y="70.946" style="fill:#CE4E42;stroke:#FFFFFF;stroke-width:0.6412;stroke-linecap:square;" width="3.137" height="45.07"/>
			<g>
				<path style="fill:#CE4E42;" d="M274.336,69.958c0,0.983,0.797,1.781,1.781,1.781h49.58c0.984,0,1.781-0.797,1.781-1.781
					c0-0.982-0.797-1.778-1.781-1.778h-49.58C275.133,68.179,274.336,68.975,274.336,69.958
					C274.336,69.958,274.336,68.975,274.336,69.958z"/>
				<path style="fill:none;stroke:#FFFFFF;stroke-width:0.9618;" d="M274.336,69.958c0,0.983,0.797,1.781,1.781,1.781h49.58
					c0.984,0,1.781-0.797,1.781-1.781c0-0.982-0.797-1.778-1.781-1.778h-49.58C275.133,68.179,274.336,68.975,274.336,69.958
					C274.336,69.958,274.336,68.975,274.336,69.958z"/>
			</g>
		</g>
		<g>
			<rect x="112.402" y="65.476" style="fill:#78B332;stroke:#FFFFFF;stroke-width:0.9618;" width="3.834" height="50.971"/>
			<path style="fill:#78B332;stroke:#FFFFFF;stroke-width:0.9618;" d="M125.485,68.269h-22.338v-5.586c0,0,5.298-2.444,10.883-2.444
				s11.455,2.444,11.455,2.444V68.269z"/>
			<rect x="107.161" y="104.363" style="fill:#78B332;stroke:#FFFFFF;stroke-width:0.6412;" width="14.313" height="1.309"/>
		</g>
		
			<line style="fill:none;stroke:#78B332;stroke-width:2.3989;stroke-linecap:round;" x1="18.699" y1="39.676" x2="93.943" y2="39.676"/>
		
			<line style="fill:none;stroke:#78B332;stroke-width:2.3989;stroke-linecap:square;" x1="93.943" y1="39.676" x2="93.943" y2="56.507"/>
		
			<line style="fill:none;stroke:#78B332;stroke-width:2.3989;stroke-linecap:square;" x1="93.943" y1="56.507" x2="86.729" y2="56.507"/>
		
			<line style="fill:none;stroke:#78B332;stroke-width:2.3989;stroke-linecap:square;" x1="86.729" y1="56.507" x2="86.729" y2="115.814"/>
		
			<line style="fill:none;stroke:#78B332;stroke-width:2.3989;stroke-linecap:round;" x1="86.729" y1="115.814" x2="358.701" y2="115.814"/>
		<g>
			<g>
				
					<line style="fill:none;stroke:#78B332;stroke-width:2.9986;stroke-linecap:round;stroke-linejoin:round;" x1="258.725" y1="60.229" x2="258.725" y2="87.248"/>
				
					<line style="fill:none;stroke:#78B332;stroke-width:2.9986;stroke-linecap:round;stroke-linejoin:round;" x1="258.725" y1="87.248" x2="285.742" y2="87.248"/>
				
					<line style="fill:none;stroke:#78B332;stroke-width:2.9986;stroke-linecap:round;stroke-linejoin:round;" x1="285.742" y1="87.248" x2="258.695" y2="114.295"/>
				
					<line style="fill:none;stroke:#78B332;stroke-width:2.9986;stroke-linecap:round;stroke-linejoin:round;" x1="258.695" y1="114.295" x2="274.273" y2="114.295"/>
			</g>
			<g>
				
					<line style="fill:none;stroke:#78B332;stroke-width:2.9986;stroke-linecap:round;stroke-linejoin:round;" x1="349.555" y1="60.229" x2="349.555" y2="87.248"/>
				
					<line style="fill:none;stroke:#78B332;stroke-width:2.9986;stroke-linecap:round;stroke-linejoin:round;" x1="349.555" y1="87.248" x2="322.541" y2="87.248"/>
				
					<line style="fill:none;stroke:#78B332;stroke-width:2.9986;stroke-linecap:round;stroke-linejoin:round;" x1="322.541" y1="87.248" x2="349.582" y2="114.295"/>
				
					<line style="fill:none;stroke:#78B332;stroke-width:2.9986;stroke-linecap:round;stroke-linejoin:round;" x1="349.582" y1="114.295" x2="334.006" y2="114.295"/>
			</g>
		</g>
	</g>
</g>
<g id="Layer_3">
	<path style="fill:none;stroke:#777768;stroke-width:1.1921;stroke-linecap:round;stroke-linejoin:round;" d="M165.67,24.517
		c0,6.008-3.715,10.875-8.304,10.875c-4.583,0-8.305-4.867-8.305-10.875c0-6.004,3.721-10.872,8.305-10.872
		C161.955,13.646,165.67,18.513,165.67,24.517z"/>
	<path style="fill:none;stroke:#777768;stroke-width:1.1921;stroke-linecap:round;stroke-linejoin:round;" d="M157.616,50.151
		c0.124,7.667,0.109,15.88-0.649,19.646c-1.181,5.93-3.557,3.561-2.369,11.864c1.485,10.404,5.537,18.98,4.348,24.119
		c-6.474,28.064-6.721,28.867-0.398,28.078"/>
	<path style="fill:none;stroke:#777768;stroke-width:1.1921;stroke-linecap:round;stroke-linejoin:round;" d="M157.366,35.791
		c-0.01,1.912,0.056,4.855,0.129,8.256"/>
	<path style="fill:#FFFFFF;stroke:#777768;stroke-width:0.9432;stroke-linecap:round;stroke-linejoin:round;" d="M162.322,47.07
		c0,1.854-1.5,3.36-3.358,3.36s-3.367-1.506-3.367-3.36c0-1.857,1.509-3.362,3.367-3.362S162.322,45.213,162.322,47.07z"/>
	<path style="fill:none;stroke:#777768;stroke-width:1.1921;stroke-linecap:round;stroke-linejoin:round;" d="M205.225,75.152
		c0,1.055,0.852,1.912,1.91,1.912c1.047,0,1.907-0.857,1.907-1.912s-0.86-1.909-1.907-1.909
		C206.076,73.243,205.225,74.098,205.225,75.152z"/>
	<path style="fill:#FFFFFF;stroke:#777768;stroke-width:1.774;stroke-linecap:round;stroke-linejoin:round;" d="M198.232,17.338
		c0,5.915,3.667,10.709,8.177,10.709c4.512,0,8.181-4.794,8.181-10.709c0-5.914-3.669-10.708-8.181-10.708
		C201.899,6.63,198.232,11.425,198.232,17.338z"/>
	<path style="fill:none;stroke:#777768;stroke-width:1.774;stroke-linecap:round;stroke-linejoin:round;" d="M206.206,28.473
		c0.039,7.475-1.005,29.578,0.426,36.753c1.282,6.409,1.851,4.466,0.572,13.44c-1.604,11.239,2.004,22.207,2.39,27.893
		c1.991,29.489,2.17,28.753-4.67,27.894"/>
</g>
<g id="Layer_6">
	<g>
		<path style="fill:#FFFFFF;stroke:#777768;stroke-width:0.8112;stroke-linecap:round;stroke-linejoin:round;" d="M190.089,34.102
			c1.896,0.953,3.424,1.861,4.78,3.54c0.524-2.081,1.964-3.558,3.066-5.399c1.497,1.16,3.085,2.826,4.72,3.77
			c1.467-2.223,4.177-3.798,5.478-5.997c0.892,1.671,1.907,3.753,3.141,5.236c1.267-2.303,4.276-4.06,6.626-4.879
			c0.831,1.688-0.05,4.593-0.325,6.404c-0.538,3.539-1.176,7.08-1.295,10.66c-0.164,5.073-0.531,10.026-0.984,15.025
			c-0.717,0.016-3.75,2.029-4.979,3.069c-0.305-2.029-1.651-4.582-2.569-6.288c-0.169,2.099-1.496,5.985-3.139,7.466
			c0,0-2.167-3.188-3.849-4.483c0.162,2.653-1.609,5.809-2.516,8.255c-1.765-1.201-5.102-5.094-5.535-7.049
			C192.368,61.882,190.632,35.745,190.089,34.102"/>
		
			<line style="fill:#FFFFFF;stroke:#777768;stroke-width:0.8112;stroke-linecap:round;stroke-linejoin:round;" x1="211.273" y1="35.251" x2="210.315" y2="65.531"/>
		
			<line style="fill:#FFFFFF;stroke:#777768;stroke-width:0.8112;stroke-linecap:round;stroke-linejoin:round;" x1="208.133" y1="30.015" x2="207.746" y2="59.243"/>
		
			<line style="fill:#FFFFFF;stroke:#777768;stroke-width:0.8112;stroke-linecap:round;stroke-linejoin:round;" x1="202.655" y1="36.012" x2="204.607" y2="66.709"/>
		
			<line style="fill:#FFFFFF;stroke:#777768;stroke-width:0.8112;stroke-linecap:round;stroke-linejoin:round;" x1="197.936" y1="32.242" x2="200.759" y2="62.226"/>
		
			<line style="fill:#FFFFFF;stroke:#777768;stroke-width:0.8112;stroke-linecap:round;stroke-linejoin:round;" x1="194.869" y1="37.642" x2="198.243" y2="70.48"/>
	</g>
	<path style="fill:none;stroke:#777768;stroke-width:0.8112;stroke-linecap:round;stroke-linejoin:round;" d="M216.373,45.843
		c-0.387,0.062-0.768,0.145-1.155,0.219c-0.227,0.043-0.427,0.155-0.646,0.187"/>
	<path style="fill:none;stroke:#777768;stroke-width:0.8112;stroke-linecap:round;stroke-linejoin:round;" d="M216.104,48.174
		c-0.075-0.156-0.461-0.2-0.615-0.256c-0.152-0.055-0.294-0.131-0.443-0.168"/>
	<path style="fill:none;stroke:#777768;stroke-width:0.8112;stroke-linecap:round;stroke-linejoin:round;" d="M215.991,49.743
		c-0.14-0.072-0.729-0.339-0.979-0.402"/>
	<path style="fill:none;stroke:#777768;stroke-width:0.8112;stroke-linecap:round;stroke-linejoin:round;" d="M215.024,50.79
		c0.205,0.117,0.38,0.275,0.576,0.409c0.067,0.047,0.348,0.243,0.277,0.234"/>
	<path style="fill:none;stroke:#777768;stroke-width:0.8112;stroke-linecap:round;stroke-linejoin:round;" d="M191.068,49.476
		c0.425,0.271,0.701,0.187,1.002,0.322"/>
	<path style="fill:none;stroke:#777768;stroke-width:0.8112;stroke-linecap:round;stroke-linejoin:round;" d="M191.25,50.832
		c0.365,0.202,0.807,0.268,1.141,0.461"/>
	<path style="fill:none;stroke:#777768;stroke-width:0.8112;stroke-linecap:round;stroke-linejoin:round;" d="M191.244,52.088
		c0.246,0.149,0.574,0.175,0.872,0.185"/>
	<path style="fill:none;stroke:#777768;stroke-width:0.8112;stroke-linecap:round;stroke-linejoin:round;" d="M191.031,47.744
		c0.609,0.322,0.943,0.415,1.428,0.763"/>
	<g>
		<g>
			<path style="fill:none;stroke:#777768;stroke-width:0.804;stroke-linecap:round;stroke-linejoin:round;" d="M228.479,8.82
				c-2.291-1.857,2.062-5.035,3.101-1.173c0.714,2.646-2.121,5.101-1.456,7.859"/>
			
				<line style="fill:none;stroke:#777768;stroke-width:0.804;stroke-linecap:round;stroke-linejoin:round;" x1="230.521" y1="17.503" x2="230.062" y2="17.838"/>
		</g>
		<g>
			<path style="fill:none;stroke:#777768;stroke-width:0.804;stroke-linecap:round;stroke-linejoin:round;" d="M220.774,9.041
				c-3.049-3.097,3.036-5.821,3.15-0.798c0.034,1.501-1.297,2.28-0.825,4.012c0.174,0.639,1.012,1.248,1.289,2.205"/>
			
				<line style="fill:none;stroke:#777768;stroke-width:0.804;stroke-linecap:round;stroke-linejoin:round;" x1="225.175" y1="16.569" x2="224.745" y2="16.362"/>
		</g>
		<g>
			<path style="fill:none;stroke:#777768;stroke-width:0.804;stroke-linecap:round;stroke-linejoin:round;" d="M239.521,13.903
				c-0.409-2.861,3.147-3.482,3.3-0.969c0.194,3.221-5.047,3.344-5.914,6.691"/>
			
				<line style="fill:none;stroke:#777768;stroke-width:0.804;stroke-linecap:round;stroke-linejoin:round;" x1="236.645" y1="21.843" x2="236.581" y2="21.376"/>
		</g>
	</g>
</g>
</svg>
