<?xml version="1.0" encoding="iso-8859-1"?>
<!-- Generator: Adobe Illustrator 15.0.2, SVG Export Plug-In . SVG Version: 6.00 Build 0)  -->
<!DOCTYPE svg PUBLIC "-//W3C//DTD SVG 1.1//EN" "http://www.w3.org/Graphics/SVG/1.1/DTD/svg11.dtd">
<svg version="1.1" xmlns="http://www.w3.org/2000/svg" xmlns:xlink="http://www.w3.org/1999/xlink" x="0px" y="0px" width="378px"
	 height="140px" viewBox="0 0 378 140" style="enable-background:new 0 0 378 140;" xml:space="preserve">
<g id="Layer_1">
	<rect style="fill:#FFFFFF;" width="378" height="140"/>
	<rect style="fill:#FFFFFF;" width="378" height="140"/>
</g>
<g id="Layer_5">
	<g>
		<g>
			
				<rect x="299.342" y="70.946" style="fill:#CE4E42;stroke:#FFFFFF;stroke-width:0.6412;stroke-linecap:square;" width="3.137" height="45.07"/>
			<g>
				<path style="fill:#CE4E42;" d="M274.336,69.958c0,0.983,0.797,1.781,1.781,1.781h49.58c0.984,0,1.781-0.797,1.781-1.781
					c0-0.982-0.797-1.778-1.781-1.778h-49.58C275.133,68.179,274.336,68.975,274.336,69.958
					C274.336,69.958,274.336,68.975,274.336,69.958z"/>
				<path style="fill:none;stroke:#FFFFFF;stroke-width:0.9618;" d="M274.336,69.958c0,0.983,0.797,1.781,1.781,1.781h49.58
					c0.984,0,1.781-0.797,1.781-1.781c0-0.982-0.797-1.778-1.781-1.778h-49.58C275.133,68.179,274.336,68.975,274.336,69.958
					C274.336,69.958,274.336,68.975,274.336,69.958z"/>
			</g>
		</g>
		<g>
			<rect x="112.402" y="65.476" style="fill:#78B332;stroke:#FFFFFF;stroke-width:0.9618;" width="3.834" height="50.971"/>
			<path style="fill:#78B332;stroke:#FFFFFF;stroke-width:0.9618;" d="M125.485,68.269h-22.338v-5.586c0,0,5.298-2.444,10.883-2.444
				s11.455,2.444,11.455,2.444V68.269z"/>
			<rect x="107.161" y="104.363" style="fill:#78B332;stroke:#FFFFFF;stroke-width:0.6412;" width="14.313" height="1.309"/>
		</g>
		
			<line style="fill:none;stroke:#78B332;stroke-width:2.3989;stroke-linecap:round;" x1="18.699" y1="39.676" x2="93.943" y2="39.676"/>
		
			<line style="fill:none;stroke:#78B332;stroke-width:2.3989;stroke-linecap:square;" x1="93.943" y1="39.676" x2="93.943" y2="56.507"/>
		
			<line style="fill:none;stroke:#78B332;stroke-width:2.3989;stroke-linecap:square;" x1="93.943" y1="56.507" x2="86.729" y2="56.507"/>
		
			<line style="fill:none;stroke:#78B332;stroke-width:2.3989;stroke-linecap:square;" x1="86.729" y1="56.507" x2="86.729" y2="115.814"/>
		
			<line style="fill:none;stroke:#78B332;stroke-width:2.3989;stroke-linecap:round;" x1="86.729" y1="115.814" x2="358.701" y2="115.814"/>
		<g>
			<g>
				
					<line style="fill:none;stroke:#78B332;stroke-width:2.9986;stroke-linecap:round;stroke-linejoin:round;" x1="258.725" y1="60.229" x2="258.725" y2="87.248"/>
				
					<line style="fill:none;stroke:#78B332;stroke-width:2.9986;stroke-linecap:round;stroke-linejoin:round;" x1="258.725" y1="87.248" x2="285.742" y2="87.248"/>
				
					<line style="fill:none;stroke:#78B332;stroke-width:2.9986;stroke-linecap:round;stroke-linejoin:round;" x1="285.742" y1="87.248" x2="258.695" y2="114.295"/>
				
					<line style="fill:none;stroke:#78B332;stroke-width:2.9986;stroke-linecap:round;stroke-linejoin:round;" x1="258.695" y1="114.295" x2="274.273" y2="114.295"/>
			</g>
			<g>
				
					<line style="fill:none;stroke:#78B332;stroke-width:2.9986;stroke-linecap:round;stroke-linejoin:round;" x1="349.555" y1="60.229" x2="349.555" y2="87.248"/>
				
					<line style="fill:none;stroke:#78B332;stroke-width:2.9986;stroke-linecap:round;stroke-linejoin:round;" x1="349.555" y1="87.248" x2="322.541" y2="87.248"/>
				
					<line style="fill:none;stroke:#78B332;stroke-width:2.9986;stroke-linecap:round;stroke-linejoin:round;" x1="322.541" y1="87.248" x2="349.582" y2="114.295"/>
				
					<line style="fill:none;stroke:#78B332;stroke-width:2.9986;stroke-linecap:round;stroke-linejoin:round;" x1="349.582" y1="114.295" x2="334.006" y2="114.295"/>
			</g>
		</g>
	</g>
</g>
<g id="Layer_4">
	<path style="fill:none;stroke:#919289;stroke-width:1.1921;stroke-linecap:round;stroke-linejoin:round;" d="M165.67,24.517
		c0,6.008-3.715,10.875-8.304,10.875c-4.583,0-8.305-4.867-8.305-10.875c0-6.004,3.721-10.872,8.305-10.872
		C161.955,13.646,165.67,18.513,165.67,24.517z"/>
	<path style="fill:none;stroke:#919289;stroke-width:1.1921;stroke-linecap:round;stroke-linejoin:round;" d="M157.366,35.791
		c-0.01,1.912,0.056,4.855,0.129,8.256"/>
	<path style="fill:#FFFFFF;stroke:#919289;stroke-width:0.9432;stroke-linecap:round;stroke-linejoin:round;" d="M162.322,47.07
		c0,1.854-1.5,3.36-3.358,3.36s-3.367-1.506-3.367-3.36c0-1.857,1.509-3.362,3.367-3.362S162.322,45.213,162.322,47.07z"/>
	<path style="fill:#FFFFFF;stroke:#919289;stroke-width:1.774;stroke-linecap:round;stroke-linejoin:round;" d="M198.232,17.338
		c0,5.915,3.667,10.709,8.177,10.709c4.512,0,8.181-4.794,8.181-10.709c0-5.914-3.669-10.708-8.181-10.708
		C201.899,6.63,198.232,11.425,198.232,17.338z"/>
	<path style="fill:none;stroke:#919289;stroke-width:1.774;stroke-linecap:round;stroke-linejoin:round;" d="M206.206,28.473
		c0.039,7.475-1.005,29.578,0.426,36.753c1.282,6.409,1.851,4.466,0.572,13.44c-1.604,11.239,2.004,22.207,2.39,27.893
		c1.991,29.489,2.17,28.753-4.67,27.894"/>
	<path style="fill:none;stroke:#919289;stroke-width:1.1921;stroke-linecap:round;stroke-linejoin:round;" d="M157.616,50.151
		c0.124,7.667,0.109,15.88-0.649,19.646c-1.181,5.93-3.557,3.561-2.369,11.864c1.485,10.404,5.537,18.98,4.348,24.119
		c-6.474,28.064-6.721,28.867-0.398,28.078"/>
	<path style="fill:none;stroke:#919289;stroke-width:1.1921;stroke-linecap:round;stroke-linejoin:round;" d="M205.225,75.152
		c0,1.055,0.852,1.912,1.91,1.912c1.047,0,1.907-0.857,1.907-1.912s-0.86-1.909-1.907-1.909
		C206.076,73.243,205.225,74.098,205.225,75.152z"/>
</g>
<g id="Layer_6">
	<path style="fill-rule:evenodd;clip-rule:evenodd;fill:#BDBDBD;" d="M235.021,12.396l0.02-3.665l-3.047,0.141
		c0,0-0.818-1.098-1.575-0.918s-1.327,0.996-1.327,0.996L225.6,8.711l0.059,3.625c0,0-0.977,0.677-0.737,1.773
		s0.817,1.853,0.817,1.853l-0.219,3.585l3.426,0.16c0,0,0.897,0.815,1.415,0.657s1.633-0.737,1.633-0.737h3.008l0.04-3.147
		c0,0,0.798-1.474,0.737-2.231S235.021,12.396,235.021,12.396z M232.308,16.109h-3.661v-4.56h3.661V16.109z"/>
	
		<rect x="240.55" y="6.656" style="fill-rule:evenodd;clip-rule:evenodd;fill:none;stroke:#BDBDBD;stroke-width:2;stroke-miterlimit:10;" width="10.229" height="8.919"/>
	<path style="fill-rule:evenodd;clip-rule:evenodd;fill:#BDBDBD;" d="M271.146,39.042"/>
	<g>
		<polygon style="fill-rule:evenodd;clip-rule:evenodd;fill:#BDBDBD;" points="245.959,22.772 245.967,22.774 245.968,22.772 		"/>
		<polygon style="fill-rule:evenodd;clip-rule:evenodd;fill:#BDBDBD;" points="245.968,37.017 245.967,37.015 245.959,37.017 		"/>
		<polygon style="fill-rule:evenodd;clip-rule:evenodd;fill:#BDBDBD;" points="255.789,37.017 255.781,37.015 255.78,37.017 		"/>
		<path style="fill-rule:evenodd;clip-rule:evenodd;fill:#BDBDBD;" d="M256.075,35.774c-0.07-0.453-0.842-3.258-0.219-4.39
			c0.411-0.746,0.117-1.558,0.113-1.49c0.004,0.067,0.298-0.744-0.113-1.49c-0.623-1.132,0.148-3.937,0.219-4.39
			c0.07-0.451-0.29-1.232-0.294-1.241c-0.052,0.042-0.729-0.288-1.455,0.112c-1.132,0.623-1.682,0.084-2.154,0.116
			c0.366-0.024,0.304-0.321,0.083-0.346c-0.079-0.009-0.15-0.002-0.138,0.116c0.088,0.078,0.086-0.152,0.11-0.038
			c-0.033,0.132-0.17,0.122-0.249,0.19c-0.033-0.107-0.565-0.728-1.104,0.038c-0.539-0.766-1.071-0.146-1.104-0.038
			c-0.079-0.068-0.216-0.058-0.249-0.19c0.024-0.114,0.022,0.116,0.11,0.038c0.013-0.119-0.059-0.125-0.138-0.116
			c-0.221,0.024-0.283,0.321,0.083,0.346c-0.473-0.032-1.022,0.507-2.154-0.116c-0.726-0.4-1.403-0.069-1.455-0.112
			c-0.004,0.009-0.364,0.79-0.294,1.241c0.07,0.453,0.842,3.258,0.219,4.39c-0.411,0.746-0.117,1.558-0.113,1.49
			c-0.004-0.067-0.298,0.744,0.113,1.49c0.623,1.132-0.148,3.937-0.219,4.39c-0.07,0.451,0.29,1.232,0.294,1.241
			c0.052-0.042,0.729,0.288,1.455-0.112c1.132-0.623,1.682-0.084,2.154-0.116c-0.366,0.024-0.304,0.321-0.083,0.346
			c0.079,0.009,0.15,0.002,0.138-0.116c-0.088-0.078-0.086,0.152-0.11,0.038c0.033-0.132,0.17-0.122,0.249-0.19
			c0.033,0.107,0.565,0.728,1.104-0.038c0.539,0.766,1.071,0.146,1.104,0.038c0.079,0.068,0.216,0.058,0.249,0.19
			c-0.024,0.114-0.022-0.116-0.11-0.038c-0.013,0.119,0.059,0.125,0.138,0.116c0.221-0.024,0.283-0.321-0.083-0.346
			c0.473,0.032,1.022-0.507,2.154,0.116c0.726,0.4,1.403,0.069,1.455,0.112C255.785,37.006,256.146,36.225,256.075,35.774z
			 M254.434,35.239h-6.911V24.681h6.911V35.239z"/>
		<polygon style="fill-rule:evenodd;clip-rule:evenodd;fill:#BDBDBD;" points="255.78,22.772 255.781,22.774 255.789,22.772 		"/>
	</g>
	<path style="fill-rule:evenodd;clip-rule:evenodd;fill:#BDBDBD;" d="M285.257,24.225c-0.027-0.352-0.486-0.598-0.562-0.899
		c-0.064-0.245-0.029-0.652-0.029-0.972c0-0.222,0.037-0.477,0.029-0.71c-0.011-0.261-0.055-0.517-0.029-0.734
		c0.043-0.366,0.247-0.671,0.253-1.065c0.01-0.572,0.058-1.193-0.253-1.493c0.05-0.405,0.029-0.835,0.029-1.302
		c0-0.43-0.093-0.932,0-1.35c0.076-0.347,0.617-0.617,0.59-1.019c-0.01-0.137-0.193-0.281-0.225-0.449
		c-0.054-0.283,0.066-0.547-0.028-0.782c-0.218-0.538-0.969-0.433-1.575-0.212c-0.175-0.062-0.252-0.211-0.479-0.213
		c-0.33-0.007-0.528,0.278-0.787,0.331c-0.247,0.048-0.652,0.013-1.012,0.023c-0.365,0.01-0.803,0.027-1.041-0.023
		c-0.156-0.035-0.271-0.225-0.422-0.237c-0.124-0.011-0.294,0.09-0.449,0.095c-0.141,0.004-0.312-0.069-0.479-0.069
		c-0.164-0.004-0.328,0.069-0.478,0.069c-0.157-0.002-0.287-0.097-0.422-0.095c-0.191,0.004-0.328,0.199-0.506,0.237
		c-0.236,0.05-0.662,0.033-0.984,0.023c-0.157-0.005-0.329-0.02-0.478-0.023c-0.184-0.006-0.386,0.042-0.506,0.023
		c-0.279-0.043-0.519-0.349-0.815-0.354c-0.273-0.008-0.35,0.196-0.534,0.213c-0.051,0.003-0.149-0.054-0.226-0.071
		c-0.259-0.062-0.505-0.154-0.788-0.119c-0.677,0.083-0.496,0.613-0.59,1.208c-0.036,0.23-0.199,0.375-0.197,0.521
		c0.007,0.368,0.415,0.492,0.591,0.853c0,0.457,0,0.895,0,1.351c0,0.415,0.094,0.913,0,1.35c-0.034,0.164-0.199,0.316-0.225,0.474
		c-0.032,0.197,0.027,0.441,0.027,0.664c0.002,0.242-0.057,0.502-0.027,0.71c0.028,0.193,0.19,0.334,0.225,0.474
		c0.093,0.383,0,0.907,0,1.325c0,0.456,0.088,0.944,0,1.327s-0.596,0.58-0.591,0.994c0.003,0.167,0.195,0.342,0.226,0.521
		c0.042,0.249-0.03,0.487,0.027,0.686c0.179,0.608,1.007,0.462,1.633,0.261c0.073,0.097,0.179,0.167,0.309,0.214
		c0.064,0,0.131,0,0.197,0c0.244-0.007,0.396-0.273,0.702-0.332c0.369-0.071,1.12,0.005,1.519,0c0.188,0,0.404-0.044,0.506-0.023
		c0.159,0.036,0.241,0.213,0.366,0.237c0.258,0.051,0.48-0.071,0.646-0.071c0.095-0.027,0.198,0.089,0.338,0.095
		c0.124,0.006,0.258-0.087,0.421-0.095c0.206-0.009,0.436,0.106,0.562,0.095c0.229-0.019,0.279-0.18,0.422-0.261
		c0.689,0.11,1.398-0.085,2.023,0.023c0.306,0.053,0.492,0.309,0.789,0.309c0,0.009,0,0.016,0,0.023c0.046,0,0.093,0,0.141,0
		c0.196-0.038,0.265-0.188,0.422-0.261c0.415,0.299,1.294,0.382,1.489-0.095c0.065-0.157-0.025-0.447,0-0.639
		C285.047,24.667,285.272,24.456,285.257,24.225z M282.079,23.374c-0.016,0.032-0.045,0.057-0.085,0.071
		c-2.166-0.017-4.405,0.031-6.524-0.024c-0.062-2.478-0.01-5.243-0.027-7.839c2.155-0.055,4.434-0.009,6.637-0.024
		C282.077,18.148,282.079,20.861,282.079,23.374z"/>
	
		<rect x="227.005" y="24.666" style="fill-rule:evenodd;clip-rule:evenodd;fill:none;stroke:#BDBDBD;stroke-width:0.75;stroke-miterlimit:10;" width="4.587" height="5.229"/>
	
		<ellipse style="fill-rule:evenodd;clip-rule:evenodd;fill:none;stroke:#BDBDBD;stroke-width:0.75;stroke-miterlimit:10;" cx="237.33" cy="39.042" rx="3.22" ry="4.707"/>
	
		<ellipse style="fill-rule:evenodd;clip-rule:evenodd;fill:none;stroke:#BDBDBD;stroke-width:2;stroke-miterlimit:10;" cx="265.611" cy="33.169" rx="2.884" ry="4.374"/>
	<path style="fill-rule:evenodd;clip-rule:evenodd;fill:#BDBDBD;" d="M264.111,9.173c0-0.003,0.001-0.006,0.001-0.01
		c0-0.584-0.638-1.058-1.423-1.058c-0.786,0-1.424,0.474-1.424,1.058c0,0.009,0.003,0.017,0.004,0.025
		c-2.838,0.533-4.959,2.577-4.959,5.017c0,2.843,2.878,5.156,6.416,5.156s6.416-2.313,6.416-5.156
		C269.143,11.745,266.985,9.684,264.111,9.173z M262.727,17.361c-2.435,0-4.416-1.416-4.416-3.156c0-1.71,2.022-3.156,4.416-3.156
		s4.416,1.445,4.416,3.156C267.143,15.945,265.161,17.361,262.727,17.361z"/>
</g>
</svg>
