<?xml version="1.0" encoding="iso-8859-1"?>
<!-- Generator: Adobe Illustrator 15.0.2, SVG Export Plug-In . SVG Version: 6.00 Build 0)  -->
<!DOCTYPE svg PUBLIC "-//W3C//DTD SVG 1.1//EN" "http://www.w3.org/Graphics/SVG/1.1/DTD/svg11.dtd">
<svg version="1.1" xmlns="http://www.w3.org/2000/svg" xmlns:xlink="http://www.w3.org/1999/xlink" x="0px" y="0px" width="378px"
	 height="140px" viewBox="0 0 378 140" style="enable-background:new 0 0 378 140;" xml:space="preserve">
<g id="Layer_2">
	<rect x="-0.047" y="-0.046" style="fill:#FFFFFF;" width="378" height="140"/>
</g>
<g id="horizon">
	<path style="fill:none;stroke:#76C151;stroke-width:0.7;" d="M1.75,74.9c2.691,0.072,43.224-1.096,52.498-1.75
		c11.438-0.808,55.507-1.761,75.953-1.761c28.511,0,157.626,1.447,170.799,1.412c12.597-0.035,68.758,2.974,75.776,2.974"/>
</g>
<g id="Layer_5">
	<path style="fill:#FFFFFF;stroke:#868881;stroke-width:1.4;stroke-linecap:round;stroke-linejoin:round;" d="M227.822,43.115
		c0,10.141,6.287,18.358,14.016,18.358c7.735,0,14.027-8.217,14.027-18.358c0-10.137-6.292-18.355-14.027-18.355
		C234.109,24.76,227.822,32.979,227.822,43.115z"/>
	<path style="fill:none;stroke:#868881;stroke-width:1.4;stroke-linecap:round;stroke-linejoin:round;" d="M241.492,62.205
		c0.065,12.814-1.724,50.704,0.729,63.004c1.203,6.013,2.04,7.737,2.192,10.588"/>
	<path style="fill:#F3AB1D;" d="M258.747,4.299l-2.742,32.103c-11.218,0-20.295-4.586-20.295-10.252L258.747,4.299z"/>
	<path style="fill:none;stroke:#5DCCF5;stroke-width:1.4;stroke-linecap:round;stroke-linejoin:round;" d="M256.005,36.402
		c-11.218,0-20.295-4.586-20.295-10.252"/>
	<path style="fill:none;stroke:#F04E2C;stroke-width:0.7;" d="M253.798,38.608"/>
	<path style="fill:none;stroke:#F04E2C;stroke-width:0.7;" d="M233.503,28.356"/>
	<polygon style="fill:#F5EE76;" points="250.383,20.13 249.678,19.744 248.961,20.105 249.11,19.316 248.545,18.745 249.342,18.644 
		249.71,17.93 250.053,18.656 250.846,18.785 250.261,19.336 	"/>
	<polygon style="fill:#F5EE76;" points="251.075,25.878 250.076,25.49 249.191,26.093 249.251,25.023 248.403,24.367 
		249.439,24.094 249.802,23.085 250.382,23.986 251.452,24.019 250.775,24.849 	"/>
	<polygon style="fill:#F5EE76;" points="256.371,19.268 255.277,18.758 254.237,19.371 254.384,18.173 253.479,17.373 
		254.664,17.142 255.146,16.035 255.731,17.09 256.933,17.206 256.11,18.089 	"/>
	<polygon style="fill:#F5EE76;" points="252.584,12.774 253.289,11.855 252.932,10.753 254.024,11.139 254.961,10.458 
		254.932,11.617 255.868,12.298 254.758,12.627 254.399,13.729 253.743,12.774 	"/>
	<polygon style="fill:#F5EE76;" points="240.471,28.06 239.589,27.614 238.723,28.086 238.875,27.11 238.158,26.433 239.133,26.275 
		239.556,25.383 240.006,26.262 240.985,26.389 240.289,27.089 	"/>
	<polygon style="fill:#F5EE76;" points="243.741,32.817 243.039,32.137 242.079,32.33 242.51,31.451 242.029,30.599 242.998,30.736 
		243.661,30.016 243.829,30.979 244.719,31.388 243.854,31.846 	"/>
	<polygon style="fill:#F5EE76;" points="253.389,34.173 252.523,33.68 251.627,34.113 251.828,33.138 251.14,32.419 252.129,32.31 
		252.601,31.433 253.01,32.34 253.99,32.517 253.254,33.187 	"/>
	<circle style="fill:#5DCCF5;" cx="258.747" cy="4.299" r="2.608"/>
	<path style="fill:none;stroke:#868881;stroke-width:1.4;stroke-linecap:round;stroke-linejoin:round;" d="M123.229,76.78
		c0.147-0.586,9.067-15.959,9.067-23.302c0-7.343-0.501-18.602-4.802-24.66"/>
	<path style="fill:#FFFFFF;stroke:#868881;stroke-width:1.4;stroke-linecap:round;stroke-linejoin:round;" d="M127.495,28.818
		c3.332-4.031,3.726-10.547,3.578-16.312c-1.454,4.271-2.667,5.55-2.654,6.979c-0.084-0.974-0.563-7.612-0.779-8.489
		c-0.605,0.933-1.535,7.438-1.381,8.625c-0.224-1.208-0.518-6.535-1.275-7.464c-0.408,1.25,0.612,15.571-4.113,4.96
		c1.284,6.482,4.765,11.222,6.173,11.975"/>
	<path style="fill:#FFFFFF;stroke:#868881;stroke-width:1.4;stroke-linecap:round;stroke-linejoin:round;" d="M135.652,49.862
		c0,9.403-5.83,17.022-12.996,17.022c-7.171,0-13.005-7.619-13.005-17.022c0-9.398,5.834-17.019,13.005-17.019
		C129.822,32.843,135.652,40.463,135.652,49.862z"/>
	<path style="fill:none;stroke:#868881;stroke-width:1.4;stroke-linecap:round;stroke-linejoin:round;" d="M122.977,67.561
		c-0.061,11.88,1.598,47.013-0.675,58.417c-1.116,5.574-1.892,7.174-2.033,9.816"/>
	<path style="fill:#EF5A74;" d="M106.979,13.872l2.543,29.766c10.401,0,18.816-4.251,18.816-9.506L106.979,13.872z"/>
	<path style="fill:none;stroke:#88CA8F;stroke-width:1.4;stroke-linecap:round;stroke-linejoin:round;" d="M109.521,43.637
		c10.401,0,18.816-4.251,18.816-9.506"/>
	<path style="fill:none;stroke:#F04E2C;stroke-width:0.7;" d="M111.567,45.683"/>
	<path style="fill:none;stroke:#F04E2C;stroke-width:0.7;" d="M130.384,36.177"/>
	<polygon style="fill:#F5EE76;" points="114.734,28.551 115.387,28.192 116.052,28.527 115.913,27.795 116.438,27.266 
		115.699,27.172 115.357,26.51 115.039,27.184 114.304,27.303 114.847,27.814 	"/>
	<polygon style="fill:#F5EE76;" points="114.092,33.879 115.018,33.52 115.838,34.079 115.783,33.087 116.568,32.479 
		115.607,32.226 115.272,31.291 114.734,32.126 113.742,32.156 114.37,32.926 	"/>
	<polygon style="fill:#F5EE76;" points="113.539,39.027 114.358,39.16 114.714,39.91 115.093,39.171 115.917,39.064 115.331,38.476 
		115.484,37.66 114.743,38.035 114.015,37.637 114.143,38.457 	"/>
	<polygon style="fill:#F5EE76;" points="123.924,35.903 124.741,35.489 125.545,35.927 125.403,35.022 126.068,34.394 
		125.165,34.249 124.772,33.421 124.354,34.236 123.447,34.354 124.093,35.002 	"/>
	<polygon style="fill:#F5EE76;" points="109.955,36.868 110.064,36.921 110.081,37.042 110.167,36.955 110.288,36.976 
		110.23,36.868 110.288,36.759 110.167,36.78 110.081,36.692 110.064,36.813 	"/>
	<polygon style="fill:#F5EE76;" points="120.891,40.314 121.543,39.683 122.433,39.862 122.033,39.047 122.479,38.257 
		121.581,38.384 120.966,37.716 120.81,38.61 119.985,38.988 120.786,39.413 	"/>
	<circle style="fill:#88CA8F;" cx="106.978" cy="13.872" r="2.419"/>
	<g>
		<path style="fill:none;stroke:#868881;stroke-width:1.4;stroke-linecap:round;stroke-linejoin:round;" d="M123.229,76.78
			c-3.515,3.516-18.635-5.226-20.954-9.562c-3.619-6.766-4.977-18.476-4.352-27.099"/>
		<path style="fill:#FFFFFF;stroke:#868881;stroke-width:1.4;stroke-linecap:round;stroke-linejoin:round;" d="M97.923,40.119
			c3.458-3.924,4.06-10.423,4.096-16.19c-1.589,4.223-2.843,5.461-2.875,6.89c-0.052-0.976-0.32-7.626-0.506-8.509
			c-0.637,0.913-1.772,7.384-1.657,8.576c-0.186-1.215-0.308-6.548-1.037-7.5c-0.446,1.236,0.116,15.583-4.269,4.826
			c1.078,6.52,4.405,11.368,5.788,12.166"/>
	</g>
</g>
<g id="Layer_4">
	<g>
		<path style="fill:none;stroke:#868881;stroke-width:1.4;stroke-linecap:round;stroke-linejoin:round;" d="M159.747,83.767
			c-9.559,3.78,6.49,28.177,11.987,31.268c2.566,1.442,14.592,3.327,20.011,3.333"/>
		<path style="fill:#FFFFFF;stroke:#868881;stroke-width:1.4;stroke-linecap:round;stroke-linejoin:round;" d="M191.744,118.367
			c3.298,4.577,9.987,6.773,16.042,8.19c-4.059-2.683-5.059-4.298-6.555-4.674c1.038,0.178,8.095,1.492,9.067,1.509
			c-0.806-0.89-7.339-3.635-8.621-3.802c1.324,0.099,6.961,1.247,8.137,0.71c-1.192-0.767-16.411-3.618-4.049-5.646
			c-7.115-0.434-13.011,1.901-14.181,3.165"/>
	</g>
	<path style="fill:#FFFFFF;stroke:#868881;stroke-width:2.8;stroke-linecap:round;stroke-linejoin:round;" d="M168.211,69.718
		c-2.387,2.381-5.36,3.794-8.591,3.783c-7.92-0.027-14.319-8.458-14.283-18.838c0.037-10.372,6.494-18.759,14.413-18.731
		c7.927,0.027,14.092,8.297,14.134,18.669c0.015,3.64-0.76,7.054-2.114,9.952"/>
	<path style="fill:none;stroke:#868881;stroke-width:2.8;stroke-linecap:round;stroke-linejoin:round;" d="M159.617,74.188
		c-0.029,3.304,0.066,8.39,0.174,14.266l0.169,10.545c0.055,4.344,0.084,8.787,0.051,13.029c-0.067,8.696,0.039,16.488-0.841,20.86
		c-0.225,1.129-0.474,2.084-0.739,2.909"/>
	<path style="fill:#71D0F6;" d="M136.894,16.265l7.814,33.354c11.802-1.723,20.647-7.941,19.777-13.902L136.894,16.265z"/>
	<polygon style="fill:#F5EE76;" points="148.124,31.637 148.806,31.123 149.617,31.392 149.338,30.585 149.845,29.897 
		148.992,29.913 148.495,29.218 148.245,30.035 147.43,30.293 148.131,30.783 	"/>
	<polygon style="fill:#F5EE76;" points="148.278,37.79 149.27,37.229 150.293,37.728 150.067,36.611 150.857,35.791 149.724,35.663 
		149.189,34.657 148.717,35.694 147.596,35.893 148.437,36.662 	"/>
	<polygon style="fill:#F5EE76;" points="141.691,31.648 142.765,30.945 143.953,31.431 143.614,30.192 144.443,29.211 
		143.161,29.15 142.485,28.06 142.03,29.26 140.784,29.566 141.785,30.369 	"/>
	<polygon style="fill:#F5EE76;" points="144.679,24.236 143.796,23.377 144.003,22.163 142.913,22.737 141.823,22.165 
		142.031,23.379 141.15,24.239 142.369,24.415 142.916,25.519 143.46,24.415 	"/>
	<polygon style="fill:#F5EE76;" points="155.145,33.386 154.785,32.681 155.163,31.984 154.38,32.109 153.834,31.535 
		153.711,32.317 152.997,32.659 153.703,33.018 153.807,33.803 154.366,33.243 	"/>
	<polygon style="fill:#F5EE76;" points="159.771,38.458 160.628,37.853 161.613,38.217 161.303,37.214 161.954,36.39 
		160.903,36.375 160.321,35.501 159.982,36.495 158.972,36.779 159.812,37.409 	"/>
	<polygon style="fill:#F5EE76;" points="157.059,43.965 157.693,43.141 158.733,43.197 158.146,42.338 158.52,41.368 
		157.522,41.661 156.714,41.005 156.685,42.045 155.811,42.611 156.791,42.96 	"/>
	<polygon style="fill:#F5EE76;" points="147.118,46.872 147.952,46.222 148.962,46.539 148.601,45.544 149.214,44.682 
		148.157,44.719 147.526,43.868 147.235,44.886 146.231,45.223 147.109,45.814 	"/>
	<circle style="fill:#EF6C5F;" cx="136.894" cy="16.266" r="2.773"/>
	<g>
		<path style="fill:none;stroke:#868881;stroke-width:1.4;stroke-linecap:round;stroke-linejoin:round;" d="M159.747,83.767
			c3.954-3.953,13.659,16.566,15.72,16.566c0,0,11.433,1.167,16.254-0.28"/>
		<path style="fill:#FFFFFF;stroke:#868881;stroke-width:1.4;stroke-linecap:round;stroke-linejoin:round;" d="M191.881,100.601
			c3.297,4.577,9.986,6.772,16.041,8.19c-4.059-2.683-5.06-4.299-6.555-4.675c1.039,0.179,8.095,1.494,9.068,1.509
			c-0.807-0.888-7.34-3.635-8.622-3.801c1.324,0.097,6.961,1.246,8.138,0.71c-1.193-0.767-16.412-3.618-4.05-5.646
			c-7.114-0.434-13.011,1.902-14.181,3.165"/>
	</g>
	<path style="fill:none;stroke:#868881;stroke-width:1.4;stroke-linecap:round;stroke-linejoin:round;" d="M171.679,64.737
		c-5.22,0-9.046-0.769-9.046-2.086c0,3.655,2.689,6.612,6.013,6.612"/>
	<path style="fill:none;stroke:#868881;stroke-width:1.4;stroke-linecap:round;stroke-linejoin:round;" d="M101.572,84.621
		c6.029,8.671,12.352-12.648,12.352-19.126c0-6.478-3.451-33.208-2.665-39.112"/>
	<path style="fill:#FFFFFF;stroke:#868881;stroke-width:1.4;stroke-linecap:round;stroke-linejoin:round;" d="M111.259,26.382
		c3.803-4.375,4.425-11.581,4.419-17.971c-1.729,4.69-3.11,6.071-3.134,7.655c-0.066-1.08-0.411-8.447-0.624-9.424
		c-0.7,1.015-1.91,8.195-1.774,9.517c-0.213-1.347-0.391-7.254-1.204-8.305c-0.485,1.374,0.242,17.266-4.694,5.378
		c1.24,7.218,4.962,12.565,6.501,13.438"/>
	<path style="fill:#FFFFFF;stroke:#868881;stroke-width:1.4;stroke-linecap:round;stroke-linejoin:round;" d="M101.443,71.792
		c-8.138,0-14.711-8.689-14.674-19.354c0.037-10.657,6.672-19.273,14.808-19.245c8.145,0.028,14.507,8.524,14.521,19.181
		C116.114,63.525,109.487,71.792,101.443,71.792z"/>
	<path style="fill:none;stroke:#868881;stroke-width:1.4;stroke-linecap:round;stroke-linejoin:round;" d="M101.44,72.498
		c-0.03,3.395,0.068,8.618,0.18,14.656l0.173,10.834c0.057,4.463,0.087,9.028,0.053,13.388c-0.069,8.934,0.04,16.939-0.864,21.433
		c-0.231,1.159-0.487,2.141-0.76,2.988"/>
	<path style="fill:#9CCC55;" d="M78.093,12.987l8.029,34.268c12.126-1.77,21.213-8.158,20.32-14.283L78.093,12.987z"/>
	<path style="fill:none;stroke:#FAED00;stroke-width:1.4;stroke-linecap:round;stroke-linejoin:round;" d="M86.122,47.255
		c12.126-1.77,21.213-8.158,20.32-14.283"/>
	<path style="fill:none;stroke:#F04E2C;stroke-width:0.7;" d="M81.099,49.292"/>
	<polygon style="fill:#F5EE76;" points="83.022,28.792 84.125,28.07 85.346,28.568 84.999,27.296 85.85,26.288 84.533,26.225 
		83.838,25.105 83.371,26.338 82.091,26.652 83.119,27.478 	"/>
	<polygon style="fill:#F5EE76;" points="86.092,21.176 85.185,20.294 85.398,19.046 84.277,19.636 83.157,19.048 83.372,20.296 
		82.467,21.18 83.718,21.36 84.281,22.495 84.839,21.36 	"/>
	<polygon style="fill:#F5EE76;" points="101.598,35.788 102.479,35.167 103.491,35.541 103.172,34.51 103.841,33.664 
		102.761,33.648 102.164,32.751 101.815,33.771 100.777,34.063 101.641,34.71 	"/>
	<polygon style="fill:#F5EE76;" points="98.812,41.447 99.463,40.6 100.532,40.658 99.928,39.775 100.313,38.778 99.287,39.079 
		98.457,38.406 98.427,39.474 97.53,40.055 98.537,40.414 	"/>
	<circle style="fill:#FAED00;" cx="78.094" cy="12.987" r="2.849"/>
	<g>
		<path style="fill:none;stroke:#868881;stroke-width:1.4;stroke-linecap:round;stroke-linejoin:round;" d="M101.572,84.621
			c-6.029,8.671-7.423,4.434-9.583,0.116c-2.898-5.793,0.992-33.208,0.206-39.112"/>
		<path style="fill:#FFFFFF;stroke:#868881;stroke-width:1.4;stroke-linecap:round;stroke-linejoin:round;" d="M92.705,45.336
			c3.802-4.374,4.424-11.581,4.419-17.97c-1.729,4.69-3.11,6.071-3.134,7.655c-0.066-1.08-0.41-8.447-0.624-9.424
			c-0.699,1.015-1.909,8.195-1.773,9.517c-0.214-1.347-0.39-7.254-1.204-8.305c-0.486,1.374,0.242,17.266-4.695,5.378
			c1.24,7.218,4.963,12.565,6.501,13.438"/>
	</g>
	<path style="fill:#FFFFFF;stroke:#868881;stroke-width:1.4;stroke-linecap:round;stroke-linejoin:round;" d="M169.052,92.636
		c0,2.996-2.424,5.43-5.426,5.43s-5.44-2.434-5.44-5.43c0-3,2.438-5.433,5.44-5.433S169.052,89.636,169.052,92.636z"/>
</g>
<g id="g&#xE2;teau">
	<g>
		<path style="fill:#FFFFFF;stroke:#868881;stroke-width:0.525;stroke-linecap:round;stroke-linejoin:round;" d="M221.073,105.812
			v8.452c0,2.594-7.986,4.694-17.84,4.694s-17.842-2.101-17.842-4.694v-8.452"/>
		
			<ellipse style="fill:#FFFFFF;stroke:#868881;stroke-width:0.525;stroke-linecap:round;stroke-linejoin:round;" cx="203.232" cy="105.812" rx="17.841" ry="4.697"/>
	</g>
	<g>
		<path style="fill:#FFFFFF;stroke:#868881;stroke-width:0.525;stroke-linecap:round;stroke-linejoin:round;" d="M216.477,98.329
			v6.275c0,1.925-5.929,3.484-13.243,3.484s-13.245-1.56-13.245-3.484v-6.275"/>
		
			<ellipse style="fill:#FFFFFF;stroke:#868881;stroke-width:0.525;stroke-linecap:round;stroke-linejoin:round;" cx="203.232" cy="98.329" rx="13.244" ry="3.487"/>
	</g>
	<g>
		<path style="fill:#FFFFFF;stroke:#868881;stroke-width:0.525;stroke-linecap:round;stroke-linejoin:round;" d="M212.465,92.714
			v4.374c0,1.342-4.133,2.429-9.231,2.429c-5.1,0-9.233-1.087-9.233-2.429v-4.374"/>
		
			<ellipse style="fill:#FFFFFF;stroke:#868881;stroke-width:0.525;stroke-linecap:round;stroke-linejoin:round;" cx="203.232" cy="92.714" rx="9.232" ry="2.43"/>
	</g>
	<g>
		
			<line style="fill:none;stroke:#ED1C24;stroke-width:1.05;stroke-linecap:round;stroke-linejoin:round;" x1="196.517" y1="92.476" x2="196.517" y2="88.572"/>
		
			<line style="fill:none;stroke:#FAED00;stroke-width:1.05;stroke-linecap:round;stroke-linejoin:round;" x1="196.517" y1="88.572" x2="196.517" y2="87.424"/>
	</g>
	<g>
		
			<line style="fill:none;stroke:#ED1C24;stroke-width:1.05;stroke-linecap:round;stroke-linejoin:round;" x1="192.077" y1="97.986" x2="192.077" y2="94.083"/>
		
			<line style="fill:none;stroke:#FAED00;stroke-width:1.05;stroke-linecap:round;stroke-linejoin:round;" x1="192.077" y1="94.083" x2="192.077" y2="92.935"/>
	</g>
	<path style="fill:#ED1C24;" d="M188.862,99.987c-0.29,0-0.525,0.235-0.525,0.525v1.938c-0.257,0.033-0.459,0.245-0.459,0.512v3.903
		c0,0.29,0.235,0.525,0.525,0.525s0.525-0.235,0.525-0.525v-1.938c0.257-0.033,0.459-0.245,0.459-0.512v-3.903
		C189.387,100.223,189.152,99.987,188.862,99.987z"/>
	
		<line style="fill:none;stroke:#FAED00;stroke-width:1.05;stroke-linecap:round;stroke-linejoin:round;" x1="188.403" y1="102.962" x2="188.403" y2="101.813"/>
	<g>
		
			<line style="fill:none;stroke:#ED1C24;stroke-width:1.05;stroke-linecap:round;stroke-linejoin:round;" x1="191.541" y1="108.319" x2="191.541" y2="104.416"/>
		
			<line style="fill:none;stroke:#FAED00;stroke-width:1.05;stroke-linecap:round;stroke-linejoin:round;" x1="191.541" y1="104.416" x2="191.541" y2="103.268"/>
	</g>
	<g>
		
			<line style="fill:none;stroke:#ED1C24;stroke-width:1.05;stroke-linecap:round;stroke-linejoin:round;" x1="196.287" y1="109.314" x2="196.287" y2="105.411"/>
		
			<line style="fill:none;stroke:#FAED00;stroke-width:1.05;stroke-linecap:round;stroke-linejoin:round;" x1="196.287" y1="105.411" x2="196.287" y2="104.263"/>
	</g>
	<g>
		
			<line style="fill:none;stroke:#ED1C24;stroke-width:1.05;stroke-linecap:round;stroke-linejoin:round;" x1="201.415" y1="109.697" x2="201.415" y2="105.794"/>
		
			<line style="fill:none;stroke:#FAED00;stroke-width:1.05;stroke-linecap:round;stroke-linejoin:round;" x1="201.415" y1="105.794" x2="201.415" y2="104.646"/>
	</g>
	<g>
		
			<line style="fill:none;stroke:#ED1C24;stroke-width:1.05;stroke-linecap:round;stroke-linejoin:round;" x1="207.079" y1="108.997" x2="207.079" y2="105.094"/>
		
			<line style="fill:none;stroke:#FAED00;stroke-width:1.05;stroke-linecap:round;stroke-linejoin:round;" x1="207.079" y1="105.094" x2="207.079" y2="103.945"/>
	</g>
	<g>
		
			<line style="fill:none;stroke:#ED1C24;stroke-width:1.05;stroke-linecap:round;stroke-linejoin:round;" x1="212.667" y1="108.461" x2="212.667" y2="104.558"/>
		
			<line style="fill:none;stroke:#FAED00;stroke-width:1.05;stroke-linecap:round;stroke-linejoin:round;" x1="212.667" y1="104.558" x2="212.667" y2="103.409"/>
	</g>
	<g>
		
			<line style="fill:none;stroke:#ED1C24;stroke-width:1.05;stroke-linecap:round;stroke-linejoin:round;" x1="216.264" y1="107.312" x2="216.264" y2="103.409"/>
		
			<line style="fill:none;stroke:#FAED00;stroke-width:1.05;stroke-linecap:round;stroke-linejoin:round;" x1="216.264" y1="103.409" x2="216.264" y2="102.261"/>
	</g>
	<g>
		
			<line style="fill:none;stroke:#ED1C24;stroke-width:1.05;stroke-linecap:round;stroke-linejoin:round;" x1="218.406" y1="105.17" x2="218.406" y2="101.267"/>
		
			<line style="fill:none;stroke:#FAED00;stroke-width:1.05;stroke-linecap:round;stroke-linejoin:round;" x1="218.406" y1="101.267" x2="218.406" y2="100.118"/>
	</g>
	<g>
		
			<line style="fill:none;stroke:#ED1C24;stroke-width:1.05;stroke-linecap:round;stroke-linejoin:round;" x1="195.368" y1="100.053" x2="195.368" y2="96.149"/>
		
			<line style="fill:none;stroke:#FAED00;stroke-width:1.05;stroke-linecap:round;stroke-linejoin:round;" x1="195.368" y1="96.149" x2="195.368" y2="95.001"/>
	</g>
	<g>
		
			<line style="fill:none;stroke:#ED1C24;stroke-width:1.05;stroke-linecap:round;stroke-linejoin:round;" x1="199.884" y1="100.666" x2="199.884" y2="96.763"/>
		
			<line style="fill:none;stroke:#FAED00;stroke-width:1.05;stroke-linecap:round;stroke-linejoin:round;" x1="199.884" y1="96.763" x2="199.884" y2="95.614"/>
	</g>
	<g>
		
			<line style="fill:none;stroke:#ED1C24;stroke-width:1.05;stroke-linecap:round;stroke-linejoin:round;" x1="204.782" y1="100.578" x2="204.782" y2="96.675"/>
		
			<line style="fill:none;stroke:#FAED00;stroke-width:1.05;stroke-linecap:round;stroke-linejoin:round;" x1="204.782" y1="96.675" x2="204.782" y2="95.526"/>
	</g>
	<g>
		
			<line style="fill:none;stroke:#ED1C24;stroke-width:1.05;stroke-linecap:round;stroke-linejoin:round;" x1="209.834" y1="99.812" x2="209.834" y2="95.909"/>
		
			<line style="fill:none;stroke:#FAED00;stroke-width:1.05;stroke-linecap:round;stroke-linejoin:round;" x1="209.834" y1="95.909" x2="209.834" y2="94.761"/>
	</g>
	<g>
		
			<line style="fill:none;stroke:#ED1C24;stroke-width:1.05;stroke-linecap:round;stroke-linejoin:round;" x1="212.896" y1="99.441" x2="212.896" y2="95.538"/>
		
			<line style="fill:none;stroke:#FAED00;stroke-width:1.05;stroke-linecap:round;stroke-linejoin:round;" x1="212.896" y1="95.538" x2="212.896" y2="94.39"/>
	</g>
	<g>
		
			<line style="fill:none;stroke:#ED1C24;stroke-width:1.05;stroke-linecap:round;stroke-linejoin:round;" x1="214.132" y1="97.575" x2="214.132" y2="93.672"/>
		
			<line style="fill:none;stroke:#FAED00;stroke-width:1.05;stroke-linecap:round;stroke-linejoin:round;" x1="214.132" y1="93.672" x2="214.132" y2="92.523"/>
	</g>
	<g>
		
			<line style="fill:none;stroke:#ED1C24;stroke-width:1.05;stroke-linecap:round;stroke-linejoin:round;" x1="201.645" y1="91.748" x2="201.645" y2="87.845"/>
		
			<line style="fill:none;stroke:#FAED00;stroke-width:1.05;stroke-linecap:round;stroke-linejoin:round;" x1="201.645" y1="87.845" x2="201.645" y2="86.696"/>
	</g>
	<g>
		
			<line style="fill:none;stroke:#ED1C24;stroke-width:1.05;stroke-linecap:round;stroke-linejoin:round;" x1="204.323" y1="91.711" x2="204.323" y2="87.808"/>
		
			<line style="fill:none;stroke:#FAED00;stroke-width:1.05;stroke-linecap:round;stroke-linejoin:round;" x1="204.323" y1="87.808" x2="204.323" y2="86.659"/>
	</g>
	<g>
		
			<line style="fill:none;stroke:#ED1C24;stroke-width:1.05;stroke-linecap:round;stroke-linejoin:round;" x1="207.001" y1="91.906" x2="207.001" y2="88.003"/>
		
			<line style="fill:none;stroke:#FAED00;stroke-width:1.05;stroke-linecap:round;stroke-linejoin:round;" x1="207.001" y1="88.003" x2="207.001" y2="86.854"/>
	</g>
	<g>
		
			<line style="fill:none;stroke:#ED1C24;stroke-width:1.05;stroke-linecap:round;stroke-linejoin:round;" x1="209.584" y1="92.362" x2="209.584" y2="88.459"/>
		
			<line style="fill:none;stroke:#FAED00;stroke-width:1.05;stroke-linecap:round;stroke-linejoin:round;" x1="209.584" y1="88.459" x2="209.584" y2="87.311"/>
	</g>
	<g>
		
			<line style="fill:none;stroke:#ED1C24;stroke-width:1.05;stroke-linecap:round;stroke-linejoin:round;" x1="208.175" y1="93.772" x2="208.175" y2="89.869"/>
		
			<line style="fill:none;stroke:#FAED00;stroke-width:1.05;stroke-linecap:round;stroke-linejoin:round;" x1="208.175" y1="89.869" x2="208.175" y2="88.721"/>
	</g>
	<g>
		
			<line style="fill:none;stroke:#ED1C24;stroke-width:1.05;stroke-linecap:round;stroke-linejoin:round;" x1="205.548" y1="94.461" x2="205.548" y2="90.558"/>
		
			<line style="fill:none;stroke:#FAED00;stroke-width:1.05;stroke-linecap:round;stroke-linejoin:round;" x1="205.548" y1="90.558" x2="205.548" y2="89.409"/>
	</g>
	<g>
		
			<line style="fill:none;stroke:#ED1C24;stroke-width:1.05;stroke-linecap:round;stroke-linejoin:round;" x1="202.793" y1="94.461" x2="202.793" y2="90.558"/>
		
			<line style="fill:none;stroke:#FAED00;stroke-width:1.05;stroke-linecap:round;stroke-linejoin:round;" x1="202.793" y1="90.558" x2="202.793" y2="89.409"/>
	</g>
	<path style="fill:#ED1C24;" d="M199.961,90.032c-0.224,0-0.411,0.141-0.487,0.337v-2.284c0-0.29-0.235-0.525-0.525-0.525
		s-0.525,0.235-0.525,0.525v1.364c-0.086-0.062-0.186-0.105-0.299-0.105c-0.29,0-0.525,0.235-0.525,0.525v3.903
		c0,0.29,0.235,0.525,0.525,0.525s0.525-0.235,0.525-0.525v-1.364c0.086,0.062,0.186,0.105,0.299,0.105
		c0.224,0,0.411-0.141,0.487-0.337v2.284c0,0.29,0.235,0.525,0.525,0.525s0.525-0.235,0.525-0.525v-3.903
		C200.486,90.268,200.251,90.032,199.961,90.032z"/>
	<g>
		<path style="fill:#FAED00;" d="M198.124,88.195c-0.29,0-0.525,0.235-0.525,0.525v1.148c0,0.29,0.235,0.525,0.525,0.525
			s0.525-0.235,0.525-0.525v-1.148C198.649,88.431,198.414,88.195,198.124,88.195z"/>
		<path style="fill:#FAED00;" d="M198.948,86.411c-0.29,0-0.525,0.235-0.525,0.525v1.148c0,0.29,0.235,0.525,0.525,0.525
			s0.525-0.235,0.525-0.525v-1.148C199.474,86.646,199.238,86.411,198.948,86.411z"/>
	</g>
	<path style="fill:#FAED00;" d="M199.961,91.083c-0.29,0-0.525-0.235-0.525-0.525v-1.148c0-0.29,0.235-0.525,0.525-0.525
		s0.525,0.235,0.525,0.525v1.148C200.486,90.848,200.251,91.083,199.961,91.083z"/>
	
		<line style="fill:none;stroke:#FAED00;stroke-width:1.05;stroke-linecap:round;stroke-linejoin:round;" x1="188.862" y1="100.513" x2="188.862" y2="99.364"/>
</g>
<g id="Layer_8">
</g>
</svg>
