<?xml version="1.0" encoding="iso-8859-1"?>
<!-- Generator: Adobe Illustrator 15.0.2, SVG Export Plug-In . SVG Version: 6.00 Build 0)  -->
<!DOCTYPE svg PUBLIC "-//W3C//DTD SVG 1.1//EN" "http://www.w3.org/Graphics/SVG/1.1/DTD/svg11.dtd">
<svg version="1.1" xmlns="http://www.w3.org/2000/svg" xmlns:xlink="http://www.w3.org/1999/xlink" x="0px" y="0px" width="378px"
	 height="140px" viewBox="0 0 378 140" style="enable-background:new 0 0 378 140;" xml:space="preserve">
<g id="FOND">
	<g>
		<rect style="fill:none;" width="378" height="140"/>
		<rect style="fill:#FFFFFF;" width="378" height="140"/>
	</g>
</g>
<g id="H2O">
	<path style="fill:#5C68AE;" d="M158.999,15.791c-0.787-0.725-10.364-0.021-10.364-0.021c-0.574-0.278-1.22,1.356-1.185,1.756
		c0.033,0.387,0.177,1.639,0.236,2.036c0.059,0.388,0.237,0.786,0.616,0.964c0.358-0.271,1.422-0.141,1.847-0.09
		c0.911,0.112,3.187,0.135,4.085,0.096c0.884-0.038,2.854-0.053,3.737-0.142c0.547-0.054,1.395-0.19,1.564-0.785
		C159.536,19.604,159.786,16.516,158.999,15.791z"/>
	<path style="fill:#D1E4E2;stroke:#B0CAD0;stroke-width:0.4526;" d="M135.77,45.617c-0.029,1.293,0.282,2.472,1.447,2.691
		c-0.039,0.131-0.013,0.531-0.011,0.688c-0.019-0.006-0.646-0.082-0.606-0.087c-0.091,0.069-0.263,0.132-0.391,0.13
		c-0.179,1.938-0.216,3.994-0.157,5.943c0.2,0.047,0.374,0.017,0.571,0.07c0.261,0.467,0.343,1.109,0.176,1.635
		c-0.248-0.006-0.54,0.047-0.79,0.043c-0.111,1.344-0.292,2.827-0.348,4.091c-0.012,0.245,0.044,0.477,0.061,0.706
		c0.016,0.268,0.044,0.529,0.083,0.783c1.051-0.227,1.746-0.783,1.619,0.655c-0.711,0.251-0.999,0.515-1.646,0.405
		c0.788,1.44,0.857,2.633,0.503,4.33c2.112-0.326,1.075-0.09,0.97,1.254c-0.235-0.051-0.522-0.08-0.778-0.157
		c-0.411,1.327-1.493,5.609,0.837,6.048c-0.037,0.135-0.013,0.53-0.009,0.689c-0.021-0.003-0.646-0.082-0.607-0.088
		c-0.094,0.068-0.265,0.132-0.395,0.13c-0.177,1.938-0.215,3.995-0.154,5.942c0.201,0.045,0.371,0.02,0.569,0.075
		c0.262,0.464,0.345,1.106,0.178,1.632c-0.25-0.005-0.541,0.044-0.791,0.041c-0.11,1.346-0.291,2.83-0.345,4.094
		c-0.012,0.244,0.046,0.475,0.057,0.703c0.018,0.266,0.045,0.531,0.086,0.781c1.047-0.223,1.746-0.776,1.617,0.66
		c-0.709,0.25-1.001,0.514-1.644,0.405c0.784,1.437,0.854,2.632,0.501,4.329c2.114-0.326,1.076-0.091,0.972,1.254
		c-0.235-0.051-0.524-0.08-0.779-0.158c-0.412,1.325-1.497,5.611,0.835,6.049c-0.038,0.135-0.012,0.529-0.01,0.686
		c-0.018-0.002-0.644-0.08-0.604-0.086c-0.094,0.07-0.265,0.129-0.396,0.127c-0.176,1.943-0.212,3.998-0.154,5.947
		c0.202,0.045,0.375,0.018,0.572,0.07c0.261,0.467,0.345,1.107,0.178,1.637c-0.252-0.008-0.544,0.045-0.792,0.039
		c-0.11,1.344-0.294,2.834-0.345,4.092c-0.012,0.246,0.081,0.479,0.058,0.709c-0.201,1.883,9.764,3.105,11.991,3.217
		c3.196,0.154,26.058,1.811,25.027-3.678c-0.043-0.225,0.062-0.461,0.049-0.703c-0.069-1.262-0.269-2.746-0.399-4.088
		c-0.245,0.006-0.538-0.041-0.789-0.037c-0.175-0.523-0.098-1.166,0.157-1.631c0.196-0.062,0.369-0.035,0.571-0.08
		c0.033-1.951-0.028-4.004-0.225-5.945c-0.13,0.004-0.303-0.055-0.396-0.125c0.034,0.008-0.589,0.094-0.606,0.094
		c0-0.158,0.023-0.555-0.017-0.69c2.324-0.456,1.194-4.729,0.763-6.053c-0.254,0.079-0.543,0.112-0.778,0.167
		c-0.12-1.346-1.162-1.572,0.958-1.266c-0.373-1.697-0.32-2.89,0.449-4.332c-0.641,0.115-0.938-0.146-1.648-0.394
		c-0.143-1.435,0.557-0.884,1.611-0.67c0.033-0.255,0.059-0.517,0.072-0.78c0.011-0.229,0.065-0.463,0.051-0.71
		c-0.066-1.259-0.268-2.745-0.396-4.087c-0.246,0.006-0.54-0.043-0.789-0.035c-0.176-0.525-0.101-1.168,0.156-1.635
		c0.195-0.053,0.372-0.029,0.571-0.077c0.034-1.95-0.025-4.005-0.224-5.942c-0.132,0.004-0.304-0.057-0.398-0.127
		c0.038,0.009-0.588,0.093-0.605,0.093c0-0.154,0.021-0.552-0.019-0.688c2.326-0.453,1.193-4.73,0.766-6.053
		c-0.255,0.078-0.544,0.109-0.778,0.163c-0.12-1.341-1.164-1.569,0.955-1.263c-0.373-1.693-0.319-2.888,0.448-4.334
		c-0.641,0.114-0.933-0.146-1.645-0.391c-0.145-1.437,0.557-0.885,1.607-0.672c0.038-0.252,0.064-0.515,0.077-0.783
		c0.012-0.23,0.066-0.461,0.053-0.706c-0.072-1.263-0.27-2.745-0.399-4.088c-0.25,0.006-0.537-0.041-0.785-0.035
		c-0.176-0.524-0.102-1.168,0.154-1.635c0.197-0.056,0.37-0.028,0.57-0.077c0.034-1.949-0.026-4.006-0.227-5.942
		c-0.131,0.005-0.304-0.058-0.396-0.126c0.038,0.008-0.586,0.09-0.604,0.094c0-0.154,0.019-0.556-0.022-0.688
		c1.114-0.221,1.436-1.31,1.421-2.534L135.77,45.617z"/>
	<path style="fill:none;stroke:#5C68AE;stroke-width:0.6019;stroke-linecap:round;stroke-linejoin:round;" d="M172.923,114.145
		c-0.043-0.225,0.063-0.461,0.048-0.703c-0.067-1.262-0.266-2.746-0.397-4.088c-0.245,0.006-0.538-0.041-0.789-0.037
		c-0.175-0.523-0.098-1.166,0.157-1.631c0.198-0.062,0.369-0.035,0.571-0.08c0.035-1.951-0.028-4.004-0.225-5.945
		c-0.13,0.004-0.303-0.055-0.396-0.125c0.036,0.008-0.589,0.094-0.606,0.094c0-0.158,0.022-0.555-0.017-0.69
		c2.324-0.456,1.191-4.729,0.763-6.053c-0.254,0.079-0.543,0.112-0.778,0.167c-0.12-1.346-1.16-1.572,0.957-1.266
		c-0.374-1.697-0.319-2.89,0.452-4.332c-0.643,0.115-0.94-0.146-1.652-0.394c-0.143-1.435,0.559-0.884,1.61-0.67
		c0.035-0.255,0.061-0.517,0.076-0.78c0.009-0.229,0.064-0.463,0.049-0.71c-0.066-1.259-0.268-2.745-0.396-4.087
		c-0.246,0.006-0.54-0.043-0.789-0.035c-0.176-0.525-0.099-1.168,0.156-1.635c0.195-0.053,0.371-0.029,0.571-0.077
		c0.035-1.95-0.025-4.005-0.224-5.942c-0.132,0.004-0.304-0.057-0.398-0.127c0.038,0.009-0.588,0.093-0.605,0.093
		c0-0.154,0.021-0.552-0.018-0.688c2.326-0.453,1.191-4.73,0.764-6.053c-0.255,0.078-0.544,0.109-0.778,0.163
		c-0.12-1.341-1.164-1.569,0.955-1.263c-0.373-1.693-0.319-2.888,0.45-4.334c-0.643,0.114-0.935-0.146-1.648-0.391
		c-0.143-1.437,0.558-0.885,1.61-0.672c0.036-0.252,0.062-0.515,0.074-0.783c0.012-0.23,0.067-0.461,0.054-0.706
		c-0.072-1.263-0.27-2.745-0.399-4.088c-0.25,0.006-0.537-0.041-0.785-0.035c-0.176-0.524-0.102-1.168,0.154-1.635
		c0.197-0.056,0.371-0.028,0.569-0.077c0.036-1.949-0.024-4.006-0.227-5.942c-0.131,0.005-0.302-0.058-0.396-0.126
		c0.041,0.008-0.585,0.09-0.602,0.094c-0.001-0.154,0.018-0.556-0.023-0.688c2.331-0.459,1.196-4.732,0.769-6.056
		c-0.256,0.079-0.542,0.11-0.776,0.163c-0.125-1.342-1.167-1.569,0.952-1.262c-0.369-1.693-0.317-2.889,0.455-4.334
		c-0.649,0.115-0.94-0.145-1.651-0.389c-0.146-1.438,0.557-0.887,1.61-0.674c0.036-0.252,0.061-0.514,0.076-0.783
		c0.098-1.965-0.396-4.282-1.139-5.914c-1.223-2.682-4.464-3.673-7.574-4.258c-1.226-0.229-2.744,0.004-3.63-0.877
		c-0.559-0.556-1-2.498-1-2.725s0.643-0.656,0.643-0.656s0.355-3.482-0.554-4.283c-0.612-0.541-10.073-0.498-10.729,0
		c-1.071,0.811-0.551,3.08-0.513,4.283c0.005,0.197,0.581,0.44,0.603,0.712c0.091,1.022-0.336,2.413-0.917,3.001
		c-0.875,0.889-3.479,0.678-4.703,0.922c-3.103,0.611-4.856,1.633-6.046,4.324c-0.725,1.639-1.191,3.963-1.066,5.928
		c0.017,0.268,0.044,0.529,0.083,0.781c1.051-0.225,1.746-0.779,1.619,0.656c-0.71,0.25-0.997,0.514-1.643,0.406
		c0.786,1.438,0.854,2.635,0.502,4.329c2.111-0.327,1.075-0.087,0.968,1.253c-0.231-0.051-0.522-0.078-0.778-0.157
		c-0.411,1.327-1.495,5.612,0.837,6.05c-0.039,0.131-0.013,0.531-0.011,0.688c-0.019-0.006-0.646-0.082-0.606-0.087
		c-0.091,0.069-0.263,0.132-0.391,0.13c-0.179,1.938-0.216,3.994-0.157,5.943c0.2,0.047,0.374,0.017,0.571,0.07
		c0.261,0.467,0.343,1.109,0.176,1.635c-0.248-0.006-0.54,0.047-0.79,0.043c-0.111,1.344-0.292,2.827-0.348,4.091
		c-0.012,0.245,0.044,0.477,0.061,0.706c0.016,0.268,0.044,0.529,0.083,0.783c1.051-0.227,1.746-0.783,1.619,0.655
		c-0.711,0.251-0.999,0.515-1.646,0.405c0.788,1.44,0.857,2.633,0.503,4.33c2.112-0.326,1.075-0.09,0.97,1.254
		c-0.235-0.051-0.522-0.08-0.778-0.157c-0.411,1.327-1.493,5.609,0.837,6.048c-0.037,0.135-0.013,0.53-0.009,0.689
		c-0.021-0.003-0.646-0.082-0.607-0.088c-0.094,0.068-0.265,0.132-0.395,0.13c-0.177,1.938-0.215,3.995-0.154,5.942
		c0.201,0.045,0.371,0.02,0.569,0.075c0.262,0.464,0.345,1.106,0.178,1.632c-0.25-0.005-0.541,0.044-0.791,0.041
		c-0.11,1.346-0.291,2.83-0.345,4.094c-0.012,0.244,0.046,0.475,0.057,0.703c0.018,0.266,0.045,0.531,0.086,0.781
		c1.047-0.223,1.746-0.776,1.617,0.66c-0.709,0.25-1.001,0.514-1.644,0.405c0.784,1.437,0.854,2.632,0.501,4.329
		c2.114-0.326,1.076-0.091,0.972,1.254c-0.235-0.051-0.524-0.08-0.779-0.158c-0.412,1.325-1.497,5.611,0.835,6.049
		c-0.038,0.135-0.012,0.529-0.01,0.686c-0.018-0.002-0.644-0.08-0.604-0.086c-0.094,0.07-0.265,0.129-0.396,0.127
		c-0.176,1.943-0.212,3.998-0.154,5.947c0.202,0.045,0.375,0.018,0.572,0.07c0.261,0.467,0.345,1.107,0.178,1.637
		c-0.252-0.008-0.544,0.045-0.792,0.039c-0.11,1.344-0.294,2.834-0.345,4.092c-0.012,0.246,0.081,0.479,0.058,0.709
		c-0.201,1.883,9.764,3.105,11.991,3.217C151.095,117.977,173.951,119.633,172.923,114.145z"/>
</g>
<g id="Layer_5">
	<path style="fill:none;stroke:#5C68AE;stroke-width:1.3797;stroke-linecap:round;stroke-linejoin:round;" d="M189.485,82.122
		c-0.046-3.126,13.595-5.845,19.796-5.845c6.359,0,13.613,0.438,16.598,1.56c1.137,0.427,5.842,2.214,3.641,3.646"/>
	<path style="fill:#D1E4E2;stroke:#B0CAD0;stroke-width:0.4526;" d="M227.354,89.613c-0.195,0.027-0.384,0.11-0.597,0.11
		c-1.861,0-10.384-0.356-15.85-0.356c-4.729,0-11.328,0.244-16.588,0.244c-0.714,0-0.451-0.12-0.945-0.01"/>
</g>
<g id="Layer_4">
	<path style="opacity:0.65;fill:#7DEDFF;stroke:#FFFFFF;stroke-width:0.25;" d="M223.392,98.761c-0.35,1.048-1.482,1.615-2.53,1.266
		l-5.692-1.896c-1.048-0.349-1.614-1.481-1.265-2.529l1.896-5.692c0.35-1.048,1.482-1.614,2.53-1.266l5.692,1.896
		c1.048,0.349,1.614,1.481,1.265,2.529L223.392,98.761z"/>
	<path style="opacity:0.65;fill:#7DEDFF;stroke:#FFFFFF;stroke-width:0.25;" d="M210.513,94.678
		c-0.402,1.028-1.562,1.537-2.591,1.136l-5.589-2.184c-1.028-0.402-1.536-1.562-1.135-2.592l2.184-5.588
		c0.402-1.029,1.562-1.537,2.591-1.135l5.589,2.184c1.028,0.401,1.536,1.562,1.135,2.59L210.513,94.678z"/>
	<path style="opacity:0.65;fill:#7DEDFF;stroke:#FFFFFF;stroke-width:0.25;" d="M215.82,84.628c0.422,1.021-0.064,2.191-1.085,2.612
		l-5.546,2.29c-1.021,0.422-2.19-0.064-2.612-1.084l-2.29-5.547c-0.422-1.02,0.064-2.189,1.085-2.611l5.546-2.291
		c1.021-0.421,2.19,0.064,2.612,1.086L215.82,84.628z"/>
	<path style="opacity:0.65;fill:#7DEDFF;stroke:#FFFFFF;stroke-width:0.25;" d="M224.646,86.763
		c-0.646,0.896-1.896,1.099-2.792,0.453l-4.868-3.508c-0.896-0.645-1.1-1.895-0.454-2.791l3.507-4.869
		c0.646-0.896,1.896-1.099,2.792-0.453l4.868,3.508c0.896,0.645,1.1,1.895,0.454,2.791L224.646,86.763z"/>
	<path style="opacity:0.65;fill:#7DEDFF;stroke:#FFFFFF;stroke-width:0.25;" d="M200.104,100.851c0.35,1.047,1.482,1.613,2.53,1.266
		l5.692-1.896c1.048-0.35,1.614-1.482,1.265-2.529l-1.896-5.693c-0.35-1.047-1.482-1.614-2.53-1.266l-5.692,1.896
		c-1.048,0.35-1.614,1.482-1.265,2.529L200.104,100.851z"/>
	<path style="opacity:0.65;fill:#7DEDFF;stroke:#FFFFFF;stroke-width:0.25;" d="M212.8,96.767c0.402,1.029,1.562,1.537,2.591,1.136
		l5.589-2.184c1.028-0.401,1.536-1.562,1.135-2.591l-2.184-5.588c-0.402-1.029-1.562-1.537-2.591-1.136l-5.589,2.184
		c-1.028,0.401-1.536,1.562-1.135,2.591L212.8,96.767z"/>
	<path style="opacity:0.65;fill:#7DEDFF;stroke:#FFFFFF;stroke-width:0.25;" d="M207.427,86.718
		c-0.422,1.021,0.064,2.19,1.084,2.611l5.547,2.291c1.02,0.422,2.189-0.064,2.611-1.085l2.291-5.546
		c0.422-1.021-0.064-2.19-1.086-2.611l-5.545-2.291c-1.021-0.422-2.191,0.064-2.613,1.085L207.427,86.718z"/>
	<path style="opacity:0.65;fill:#7DEDFF;stroke:#FFFFFF;stroke-width:0.25;" d="M198.063,93.03c0.646,0.896,1.896,1.1,2.792,0.453
		l4.868-3.507c0.896-0.646,1.1-1.896,0.454-2.792l-3.507-4.868c-0.646-0.896-1.896-1.099-2.792-0.454l-4.868,3.508
		c-0.896,0.646-1.1,1.896-0.454,2.792L198.063,93.03z"/>
</g>
<g id="Layer_6">
	<path style="fill:none;stroke:#5C68AE;stroke-width:1.3797;stroke-linecap:round;stroke-linejoin:round;" d="M229.52,81.483
		c-3.83,0.925-11.939,1.931-17.91,2.005c-7.445,0.098-16.637-0.505-22.125-1.366"/>
	<path style="opacity:0.65;fill:#D1E4E2;" d="M208.796,91.712c0.051,0.114-15.241-1.557-15.167-1.344
		c1.117,3.193,4.739,17.044,4.865,20.022c0.043,1,0.978,4.574,1.349,5.377c0.267,0.57,0.38,0.781,0.932,0.992
		c0.554,0.203,1.131,0.408,1.706,0.604c1.006,0.34,10.298,0.793,11.295,0.811c0.793,0.014,8.626-1.656,9.403-1.934
		c0.624-0.219,0.899-3.594,1.319-5.342c0.333-1.378,2.362-17.149,2.896-20.508C227.45,90.031,211.223,92.019,208.796,91.712"/>
	<path style="opacity:0.39;fill:#D1E4E2;stroke:#B0CAD0;stroke-width:0.4526;" d="M193.375,89.602
		c0.354,0.16,0.227,0.326,0.862,0.467c3.581,0.779,11.821,1.473,16.391,1.473c4.481,0,13.343-0.893,16.146-1.39
		c0.562-0.099,0.844-0.478,0.83-0.532c-0.086-0.019-0.168-0.017-0.249-0.006"/>
	<path style="fill:none;stroke:#B0CAD0;stroke-width:0.4526;" d="M193.375,89.602c0.354,0.16,0.227,0.326,0.862,0.467
		c3.581,0.779,11.821,1.473,16.391,1.473c4.481,0,13.343-0.893,16.146-1.39c0.562-0.099,0.844-0.478,0.83-0.532
		c-0.086-0.019-0.168-0.017-0.249-0.006"/>
	<path style="fill:none;stroke:#5C68AE;stroke-width:1.3797;stroke-linecap:round;stroke-linejoin:round;" d="M189.485,82.122
		c2.628,2.796,3.005,5.731,4.037,7.789c1.451,2.905,4.113,14.745,4.627,17.983c0.443,2.805,0.543,6.873,1.643,8.332
		c1.139,1.518,7.863,1.756,12.75,1.756c4.184,0,9.38-0.398,10.638-1.742c1.007-1.07,1.829-5.701,2.122-8.275
		c0.345-2.998,1.797-14.942,2.316-17.928c0.457-2.577,0.991-6.164,1.902-8.554"/>
</g>
</svg>
