<?xml version="1.0" encoding="iso-8859-1"?>
<!-- Generator: Adobe Illustrator 13.0.0, SVG Export Plug-In . SVG Version: 6.00 Build 14948)  -->
<!DOCTYPE svg PUBLIC "-//W3C//DTD SVG 1.1//EN" "http://www.w3.org/Graphics/SVG/1.1/DTD/svg11.dtd">
<svg version="1.1" xmlns="http://www.w3.org/2000/svg" xmlns:xlink="http://www.w3.org/1999/xlink" x="0px" y="0px"
	 width="379.979px" height="140px" viewBox="0 0 379.979 140" style="enable-background:new 0 0 379.979 140;" xml:space="preserve"
	>
<g id="fond">
	<rect x="0.99" style="fill:#FFFFFF;" width="378" height="140"/>
</g>
<g id="Layer_4">
	<path style="fill:#FFFFFF;stroke:#3678D8;stroke-width:1.2668;stroke-linecap:round;stroke-linejoin:round;" d="M240.131,99.687
		c33.104-9.54,61.61-51.179,98.604-36.325c0,0-19.738,34.985,40.256,38.162"/>
	<path style="fill:none;stroke:#3678D8;stroke-width:0.9601;stroke-linecap:round;stroke-linejoin:round;" d="M308.748,102.228
		c-10.977-22.34,5.01-43.945,29.986-38.866"/>
</g>
<g id="Layer_3">
	<path style="fill:#FFFFFF;stroke:#3678D8;stroke-width:1.9791;stroke-linecap:round;stroke-linejoin:round;" d="M0.99,102.029
		c13.667,7.304,27.334,3.304,37.767,0C92.652,84.962,140.27,9.869,200.93,37.93c0,0-31.908,65.15,73.728,64.374
		c29.803-0.22,83.906-0.264,104.333-0.272"/>
</g>
<g id="Layer_2">
	<path style="fill:none;stroke:#3678D8;stroke-width:1.5;stroke-linecap:round;stroke-linejoin:round;" d="M163.551,114.753
		c-26.935-41.111-2.748-86.224,37.379-76.823"/>
</g>
</svg>
