<?xml version="1.0" encoding="iso-8859-1"?>
<!-- Generator: Adobe Illustrator 13.0.0, SVG Export Plug-In . SVG Version: 6.00 Build 14948)  -->
<!DOCTYPE svg PUBLIC "-//W3C//DTD SVG 1.1//EN" "http://www.w3.org/Graphics/SVG/1.1/DTD/svg11.dtd">
<svg version="1.1" xmlns="http://www.w3.org/2000/svg" xmlns:xlink="http://www.w3.org/1999/xlink" x="0px" y="0px" width="378px"
	 height="140px" viewBox="0 0 378 140" style="enable-background:new 0 0 378 140;" xml:space="preserve">
<g id="fond">
	<g>
		<rect style="fill:#FFFFFF;" width="378" height="140"/>
	</g>
</g>
<g id="lave_linge">
	<g>
		<rect x="53.667" y="40.884" style="fill:#FFFFFF;stroke:#777768;stroke-width:0.5;" width="82.227" height="91.844"/>
		<rect x="53.667" y="40.884" style="fill:#FFFFFF;stroke:#777768;stroke-width:0.5;" width="82.227" height="10.724"/>
		<path style="fill:#FFFFFF;stroke:#777768;stroke-width:0.5;" d="M81.594,56.725c0,0.584-0.474,1.059-1.059,1.059H59.185
			c-0.585,0-1.059-0.474-1.059-1.059v-9.881c0-0.585,0.474-1.059,1.059-1.059h21.351c0.584,0,1.059,0.474,1.059,1.059V56.725z"/>
		<g id="btns">
			<ellipse style="fill:#FFFFFF;stroke:#777768;stroke-width:0.5;" cx="110.336" cy="46.418" rx="2.735" ry="2.647"/>
			<circle style="fill:#FFFFFF;stroke:#777768;stroke-width:0.3;" cx="117.065" cy="46.418" r="1.467"/>
			<circle style="fill:#FFFFFF;stroke:#777768;stroke-width:0.3;" cx="122.524" cy="46.418" r="1.467"/>
			<circle style="fill:#FFFFFF;stroke:#777768;stroke-width:0.3;" cx="127.984" cy="46.418" r="1.467"/>
		</g>
		<g id="porte">
			<circle style="fill:#FFFFFF;stroke:#777768;stroke-width:0.5;" cx="94.78" cy="90.292" r="27.086"/>
			<circle style="fill:#FFFFFF;stroke:#777768;stroke-width:0.5;" cx="94.78" cy="90.293" r="21.915"/>
			<path style="fill:#FFFFFF;stroke:#777768;stroke-width:0.3;" d="M129.237,94.221c0,0.585-0.474,1.059-1.059,1.059h-14.847
				c-0.585,0-1.059-0.474-1.059-1.059v-7.14c0-0.586,0.474-1.06,1.059-1.06h14.847c0.584,0,1.059,0.474,1.059,1.06V94.221z"/>
		</g>
	</g>
</g>
<g id="seche_linge">
	<g>
		<g id="btns_2_">
			<rect x="150.332" y="40.884" style="fill:#FFFFFF;stroke:#777768;stroke-width:0.5;" width="82.228" height="91.844"/>
			<circle style="fill:#FFFFFF;stroke:#777768;stroke-width:0.3;" cx="219.19" cy="48.418" r="1.466"/>
			<circle style="fill:#FFFFFF;stroke:#777768;stroke-width:0.3;" cx="224.65" cy="48.418" r="1.467"/>
		</g>
	</g>
	<circle style="fill:#FFFFFF;stroke:#777768;stroke-width:0.5;" cx="191.446" cy="86.806" r="30.753"/>
	<circle style="fill:#FFFFFF;stroke:#777768;stroke-width:0.5;" cx="191.446" cy="86.805" r="24.882"/>
	<rect x="150.332" y="40.884" style="fill:#FFFFFF;stroke:#777768;stroke-width:0.5;" width="82.228" height="1.783"/>
</g>
<g id="panier">
	<g>
		<path style="fill:#FFFFFF;stroke:#FF5FE9;stroke-linecap:round;stroke-linejoin:round;" d="M302.455,111.251
			c-0.326,1.76-2.982,5.157-5.117,4.885c-4.897-0.627-5.474-12.974-4.158-16.167c2.62-6.363,11.648-8.942,17.591-5.774
			c4.413,2.353,5.096,8.399,5.905,12.878c-1.146-7.55-9.278-10.264-15.794-7.701c-10.453,4.11-7.547,18.479-6.988,27.114
			c-7.51-1.588-15.146-8.882-19.413-14.901c-4.584-6.467,8.401-10.334,13.235-10.456c9.236-0.232,9.786,7.574,12.919,14.232
			c0.477,1.015,7.8,10.307,7.246,4.676"/>
		<path style="fill:#FFFFFF;stroke:#00A7FF;stroke-linecap:round;stroke-linejoin:round;" d="M262.145,122.879
			c-6.832-3.174-13.127-13.486-10.043-20.938c1.96-4.737,7.645-6.582,12.398-6.412c6.878,0.247,8.775,4.824,8.792,11.084
			c0.01,4.037-1.311,8.632,0.759,12.378c1.951,3.533,7.073,4.639,10.582,2.59c7.824-4.566-4.798-22.028-12.193-14.426
			c-3.095,3.181-3.229,8.864-2.503,12.933c0.516,2.891,2.575,5.53-1.101,5.58c-4.241,0.059-11.876-6.118-13.199-10.004
			c-1.688-4.956,4.073-6.727,8.019-7.757c5.521-1.44,13.607-2.5,18.404,1.346c3.589,2.878,4.595,7.361,8.758,9.791
			c3.102,1.811,7.633,2.486,10.08-0.839c1.492-2.026-27.904-17.67-29.603-19.613"/>
		<path style="fill:#FFFFFF;stroke:#65B724;stroke-linecap:round;stroke-linejoin:round;" d="M282.3,112.543
			c-6.223-1.836-8.214-12.567-4.37-17.083c7.101-8.342,12.716,1.645,12.076,8.756c-0.166,1.843-0.18,7.104-2.101,8.239
			c-3.027,1.79-7.412-2.568-7.675-5.288c-0.405-4.199,3.326-5.752,6.709-6.527c4.613-1.058,6.381,0.045,8.351,4.08
			c1.54,3.154,3.097,5.574,6.675,6.761c3.475,1.151,9.077,1.217,10.287-2.979c0.413-1.431,0.511-7.458-1.194-8.134
			c-2.441-0.968-5.057,3.754-5.837,5.227c-2.477,4.673-2.015,9.333-1.791,14.44c0.171,3.891,0.539,10.979-4.803,11.451
			c-3.334,0.295-18.235-9.369-12.726-13.183c-2.698-2.157-4.873-5.124-7.927-6.823c1.511,0.78,4.171,2.739,5.964,2.579
			c1.982-0.177,3.157-2.261,1.416-4.066c-2.452-2.542-5.671,2.14-4.605,3.066"/>
		<polygon style="fill:#FFFFFF;stroke:#777768;stroke-width:0.5;" points="324.189,105.642 308.552,132.728 258.376,132.728 
			242.738,105.642 		"/>
	</g>
</g>
</svg>
