<?xml version="1.0" encoding="iso-8859-1"?>
<!-- Generator: Adobe Illustrator 13.0.0, SVG Export Plug-In . SVG Version: 6.00 Build 14948)  -->
<!DOCTYPE svg PUBLIC "-//W3C//DTD SVG 1.1//EN" "http://www.w3.org/Graphics/SVG/1.1/DTD/svg11.dtd">
<svg version="1.1" xmlns="http://www.w3.org/2000/svg" xmlns:xlink="http://www.w3.org/1999/xlink" x="0px" y="0px" width="378px"
	 height="140.001px" viewBox="0 0 378 140.001" style="enable-background:new 0 0 378 140.001;" xml:space="preserve">
<g id="Layer_2">
	<g>
		<rect style="fill:#FFFFFF;" width="378" height="140.001"/>
	</g>
</g>
<g id="Layer_1">
	<g>
		<g>
			
				<rect x="299.344" y="70.506" style="fill:#CE4E43;stroke:#FFFFFF;stroke-width:0.6412;stroke-linecap:square;" width="3.137" height="45.071"/>
			<g>
				<path style="fill:#CE4E43;" d="M274.338,69.519c0,0.983,0.797,1.78,1.779,1.78h49.582c0.982,0,1.779-0.797,1.779-1.78
					s-0.797-1.779-1.779-1.779h-49.582C275.135,67.739,274.338,68.536,274.338,69.519C274.338,69.519,274.338,68.536,274.338,69.519
					z"/>
				<path style="fill:none;stroke:#FFFFFF;stroke-width:0.9618;" d="M274.338,69.519c0,0.983,0.797,1.78,1.779,1.78h49.582
					c0.982,0,1.779-0.797,1.779-1.78s-0.797-1.779-1.779-1.779h-49.582C275.135,67.739,274.338,68.536,274.338,69.519
					C274.338,69.519,274.338,68.536,274.338,69.519z"/>
			</g>
		</g>
		<g>
			<rect x="112.401" y="65.037" style="fill:#78B432;stroke:#FFFFFF;stroke-width:0.9618;" width="3.834" height="50.972"/>
			<path style="fill:#78B432;stroke:#FFFFFF;stroke-width:0.9618;" d="M125.485,67.83h-22.338v-5.586c0,0,5.298-2.444,10.883-2.444
				s11.455,2.444,11.455,2.444V67.83z"/>
			<rect x="107.161" y="103.925" style="fill:#78B432;stroke:#FFFFFF;stroke-width:0.6412;" width="14.313" height="1.309"/>
		</g>
		
			<line style="fill:none;stroke:#78B432;stroke-width:2.3989;stroke-linecap:round;" x1="18.699" y1="39.237" x2="93.943" y2="39.237"/>
		
			<line style="fill:none;stroke:#78B432;stroke-width:2.3989;stroke-linecap:square;" x1="93.943" y1="39.237" x2="93.943" y2="56.067"/>
		
			<line style="fill:none;stroke:#78B432;stroke-width:2.3989;stroke-linecap:square;" x1="93.943" y1="56.067" x2="86.729" y2="56.067"/>
		
			<line style="fill:none;stroke:#78B432;stroke-width:2.3989;stroke-linecap:square;" x1="86.729" y1="56.067" x2="86.729" y2="115.376"/>
		
			<line style="fill:none;stroke:#78B432;stroke-width:2.3989;stroke-linecap:round;" x1="86.729" y1="115.376" x2="358.701" y2="115.376"/>
		<g>
			<g>
				
					<line style="fill:none;stroke:#78B432;stroke-width:2.9986;stroke-linecap:round;stroke-linejoin:round;" x1="258.725" y1="59.79" x2="258.725" y2="86.808"/>
				
					<line style="fill:none;stroke:#78B432;stroke-width:2.9986;stroke-linecap:round;stroke-linejoin:round;" x1="258.725" y1="86.808" x2="285.742" y2="86.808"/>
				
					<line style="fill:none;stroke:#78B432;stroke-width:2.9986;stroke-linecap:round;stroke-linejoin:round;" x1="285.742" y1="86.808" x2="258.697" y2="113.854"/>
				
					<line style="fill:none;stroke:#78B432;stroke-width:2.9986;stroke-linecap:round;stroke-linejoin:round;" x1="258.697" y1="113.854" x2="274.275" y2="113.854"/>
			</g>
			<g>
				
					<line style="fill:none;stroke:#78B432;stroke-width:2.9986;stroke-linecap:round;stroke-linejoin:round;" x1="349.557" y1="59.79" x2="349.557" y2="86.808"/>
				
					<line style="fill:none;stroke:#78B432;stroke-width:2.9986;stroke-linecap:round;stroke-linejoin:round;" x1="349.557" y1="86.808" x2="322.541" y2="86.808"/>
				
					<line style="fill:none;stroke:#78B432;stroke-width:2.9986;stroke-linecap:round;stroke-linejoin:round;" x1="322.541" y1="86.808" x2="349.584" y2="113.854"/>
				
					<line style="fill:none;stroke:#78B432;stroke-width:2.9986;stroke-linecap:round;stroke-linejoin:round;" x1="349.584" y1="113.854" x2="334.008" y2="113.854"/>
			</g>
		</g>
	</g>
</g>
<g id="Layer_3">
	<path style="fill:none;stroke:#7E7A64;stroke-width:1.1995;stroke-linecap:round;stroke-linejoin:round;" d="M205.18,75.171
		c0,1.062,0.857,1.926,1.922,1.926c1.053,0,1.922-0.863,1.922-1.926c0-1.061-0.869-1.922-1.922-1.922
		C206.037,73.249,205.18,74.11,205.18,75.171z"/>
	<path style="fill:none;stroke:#7E7A64;stroke-width:1.7991;stroke-linecap:round;stroke-linejoin:round;" d="M198.141,16.97
		c0,5.955,3.691,10.781,8.23,10.781c4.543,0,8.236-4.826,8.236-10.781c0-5.953-3.693-10.779-8.236-10.779
		C201.832,6.191,198.141,11.017,198.141,16.97z"/>
	<path style="fill:none;stroke:#7E7A64;stroke-width:1.7991;stroke-linecap:round;stroke-linejoin:round;" d="M206.168,28.179
		c0.039,7.525-1.012,29.776,0.428,36.999c1.291,6.45,1.863,4.496,0.578,13.53c-1.617,11.312,2.016,22.355,2.402,28.078
		c2.006,29.688,2.186,28.945-4.699,28.082"/>
	<path style="fill:none;stroke:#D2031D;stroke-width:0.7;stroke-linecap:round;stroke-linejoin:round;" d="M192.676,17.492
		c-0.068-0.26-0.174-0.402-0.115-0.675c0.16-0.067,0.258-0.185,0.395-0.248c0.322,0.543,0.041,0.677-0.42,0.923"/>
	
		<line style="fill:none;stroke:#D2031D;stroke-width:0.7;stroke-linecap:round;stroke-linejoin:round;" x1="192.967" y1="14.234" x2="192.449" y2="2.203"/>
	<path style="fill:none;stroke:#7E7A64;stroke-width:0.7;stroke-linecap:round;stroke-linejoin:round;" d="M208.506,8.656
		c0.162,0.539-1.137,3.799-1.283,4.207c-0.521,1.458,0.082,2.698,0.627,2.946c1.201,0.547,2.217-0.926,1.998-2.311
		C209.719,12.683,208.506,8.656,208.506,8.656z"/>
	<path style="fill:none;stroke:#7E7A64;stroke-width:1.1991;stroke-linecap:round;stroke-linejoin:round;" d="M206.092,34.051
		c2.188,1.15-2.041,9.816-3.908,10.632s-8.344-2.858-10.111-5.139c-0.742-0.958-0.99-2.27-1.334-3.434
		c-0.357-1.21,0.65-2.1,1.523-2.792c-0.234,0.193-0.576,0.288-0.811,0.429c0.145-0.75,0.291-1.417,0.959-1.702
		c-0.531-0.12-1.043-0.127-1.436,0.417c0.145-0.169,0.26-0.364,0.346-0.559c-0.346-0.145-0.852,0.154-0.848,0.56
		c0.156-0.296,0.301-0.669,0.35-0.993c-0.428,0.053-0.934,1.206-0.963,1.614c0.049-0.52-0.24-0.968-0.227-1.475
		c-0.494,0.625,0.046,2.086,0.272,2.747c0.144,0.426,0.783,1.315,0.834,1.754"/>
	
		<circle style="fill:#FFFFFF;stroke:#7E7A64;stroke-width:0.525;stroke-linecap:round;stroke-linejoin:round;" cx="191.586" cy="38.411" r="1.758"/>
	
		<line style="fill:none;stroke:#7E7A64;stroke-width:0.35;stroke-linecap:round;stroke-linejoin:round;" x1="191.586" y1="38.411" x2="191.656" y2="37.585"/>
	
		<line style="fill:none;stroke:#7E7A64;stroke-width:0.35;stroke-linecap:round;stroke-linejoin:round;" x1="191.586" y1="38.411" x2="192.785" y2="37.908"/>
	<g id="femme">
		<path style="fill:#FFFFFF;stroke:#7E7A64;stroke-width:1.1995;stroke-linecap:round;stroke-linejoin:round;" d="M165.719,23.751
			c0,6.095-3.769,11.033-8.424,11.033c-4.65,0-8.425-4.938-8.425-11.033c0-6.091,3.775-11.029,8.425-11.029
			C161.95,12.722,165.719,17.66,165.719,23.751z"/>
		<path style="fill:#FFFFFF;stroke:#7E7A64;stroke-width:1.1995;stroke-linecap:round;stroke-linejoin:round;" d="M162.322,46.63
			c0,1.882-1.522,3.409-3.407,3.409c-1.884,0-3.416-1.527-3.416-3.409c0-1.883,1.531-3.411,3.416-3.411
			C160.8,43.22,162.322,44.747,162.322,46.63z"/>
		<path style="fill:none;stroke:#7E7A64;stroke-width:1.1995;stroke-linecap:round;stroke-linejoin:round;" d="M157.547,49.756
			c0.125,7.778,0.11,16.11-0.658,19.93c-1.198,6.016-3.609,3.611-2.403,12.035c1.506,10.555,5.617,19.256,4.411,24.469
			c-6.568,28.473-6.818,29.287-0.404,28.484"/>
		<path style="fill:none;stroke:#7E7A64;stroke-width:1.1995;stroke-linecap:round;stroke-linejoin:round;" d="M157.294,35.188
			c-0.01,1.939,0.057,4.926,0.131,8.376"/>
	</g>
	<g>
		<circle style="fill:none;stroke:#404040;stroke-width:1.7771;stroke-linecap:round;" cx="286.92" cy="31.844" r="26.782"/>
		
			<line style="fill:none;stroke:#404040;stroke-width:1.7771;stroke-linecap:round;" x1="286.922" y1="5.061" x2="286.922" y2="8.259"/>
		
			<line style="fill:none;stroke:#404040;stroke-width:1.7771;stroke-linecap:round;" x1="286.922" y1="58.624" x2="286.922" y2="55.426"/>
		
			<line style="fill:none;stroke:#404040;stroke-width:1.7771;stroke-linecap:round;" x1="260.139" y1="31.844" x2="263.337" y2="31.844"/>
		
			<line style="fill:none;stroke:#404040;stroke-width:1.7771;stroke-linecap:round;" x1="313.702" y1="31.844" x2="310.504" y2="31.844"/>
		<line style="fill:none;stroke:#404040;stroke-width:0.8882;" x1="301.683" y1="9.497" x2="300.695" y2="11.096"/>
		<line style="fill:none;stroke:#404040;stroke-width:0.8882;" x1="310.432" y1="19.177" x2="308.871" y2="20.22"/>
		<line style="fill:none;stroke:#404040;stroke-width:0.8882;" x1="310.667" y1="44.233" x2="309.068" y2="43.433"/>
		<line style="fill:none;stroke:#404040;stroke-width:0.8882;" x1="300.923" y1="54.677" x2="300" y2="53.079"/>
		<line style="fill:none;stroke:#404040;stroke-width:0.8882;" x1="271.592" y1="53.806" x2="272.867" y2="52.207"/>
		<line style="fill:none;stroke:#404040;stroke-width:0.8882;" x1="263.094" y1="43.704" x2="264.692" y2="42.767"/>
		<line style="fill:none;stroke:#404040;stroke-width:0.8882;" x1="262.834" y1="20.135" x2="264.434" y2="21.113"/>
		<line style="fill:none;stroke:#404040;stroke-width:0.8882;" x1="271.508" y1="9.938" x2="272.605" y2="11.538"/>
		
			<line style="fill:none;stroke:#D2031D;stroke-width:3;stroke-linecap:round;stroke-linejoin:round;" x1="285.391" y1="32.851" x2="276.384" y2="19.255"/>
		
			<line style="fill:none;stroke:#D2031D;stroke-width:3;stroke-linecap:round;stroke-linejoin:round;" x1="283.345" y1="11.312" x2="285.731" y2="32.278"/>
	</g>
</g>
</svg>
