<?xml version="1.0" encoding="iso-8859-1"?>
<!-- Generator: Adobe Illustrator 13.0.0, SVG Export Plug-In . SVG Version: 6.00 Build 14948)  -->
<!DOCTYPE svg PUBLIC "-//W3C//DTD SVG 1.1//EN" "http://www.w3.org/Graphics/SVG/1.1/DTD/svg11.dtd">
<svg version="1.1" xmlns="http://www.w3.org/2000/svg" xmlns:xlink="http://www.w3.org/1999/xlink" x="0px" y="0px" width="540px"
	 height="200px" viewBox="0 0 540 200" style="enable-background:new 0 0 540 200;" xml:space="preserve">
<g id="Layer_2">
	<g>
		<rect style="fill:#FFFFFF;" width="540" height="200"/>
	</g>
</g>
<g id="Layer_1">
	<g>
		<g>
			
				<rect x="422.748" y="101.33" style="fill:#CE4E43;stroke:#FFFFFF;stroke-width:0.916;stroke-linecap:square;" width="4.48" height="64.385"/>
			<g>
				<path style="fill:#CE4E43;" d="M387.025,99.917c0,1.404,1.139,2.543,2.543,2.543h70.83c1.404,0,2.543-1.139,2.543-2.543
					c0-1.404-1.139-2.541-2.543-2.541h-70.83C388.164,97.377,387.025,98.514,387.025,99.917
					C387.025,99.917,387.025,98.514,387.025,99.917z"/>
				<path style="fill:none;stroke:#FFFFFF;stroke-width:1.374;" d="M387.025,99.917c0,1.404,1.139,2.543,2.543,2.543h70.83
					c1.404,0,2.543-1.139,2.543-2.543c0-1.404-1.139-2.541-2.543-2.541h-70.83C388.164,97.377,387.025,98.514,387.025,99.917
					C387.025,99.917,387.025,98.514,387.025,99.917z"/>
			</g>
		</g>
		<g>
			<rect x="155.689" y="93.516" style="fill:#78B432;stroke:#FFFFFF;stroke-width:1.374;" width="5.478" height="72.816"/>
			<path style="fill:#78B432;stroke:#FFFFFF;stroke-width:1.374;" d="M174.379,97.506h-31.912v-7.98c0,0,7.569-3.492,15.547-3.492
				s16.364,3.492,16.364,3.492V97.506z"/>
			<rect x="148.202" y="149.068" style="fill:#78B432;stroke:#FFFFFF;stroke-width:0.916;" width="20.448" height="1.869"/>
		</g>
		
			<line style="fill:none;stroke:#78B432;stroke-width:3.427;stroke-linecap:round;" x1="21.829" y1="56.658" x2="129.32" y2="56.658"/>
		
			<line style="fill:none;stroke:#78B432;stroke-width:3.427;stroke-linecap:square;" x1="129.32" y1="56.658" x2="129.32" y2="80.703"/>
		
			<line style="fill:none;stroke:#78B432;stroke-width:3.427;stroke-linecap:square;" x1="129.32" y1="80.703" x2="119.015" y2="80.703"/>
		
			<line style="fill:none;stroke:#78B432;stroke-width:3.427;stroke-linecap:square;" x1="119.015" y1="80.703" x2="119.015" y2="165.427"/>
		
			<line style="fill:none;stroke:#78B432;stroke-width:3.427;stroke-linecap:round;" x1="119.015" y1="165.427" x2="507.545" y2="165.427"/>
		<g>
			<g>
				
					<line style="fill:none;stroke:#78B432;stroke-width:4.2837;stroke-linecap:round;stroke-linejoin:round;" x1="364.723" y1="86.02" x2="364.723" y2="124.617"/>
				
					<line style="fill:none;stroke:#78B432;stroke-width:4.2837;stroke-linecap:round;stroke-linejoin:round;" x1="364.723" y1="124.617" x2="403.318" y2="124.617"/>
				
					<line style="fill:none;stroke:#78B432;stroke-width:4.2837;stroke-linecap:round;stroke-linejoin:round;" x1="403.318" y1="124.617" x2="364.682" y2="163.255"/>
				
					<line style="fill:none;stroke:#78B432;stroke-width:4.2837;stroke-linecap:round;stroke-linejoin:round;" x1="364.682" y1="163.255" x2="386.936" y2="163.255"/>
			</g>
			<g>
				
					<line style="fill:none;stroke:#78B432;stroke-width:4.2837;stroke-linecap:round;stroke-linejoin:round;" x1="494.48" y1="86.02" x2="494.48" y2="124.617"/>
				
					<line style="fill:none;stroke:#78B432;stroke-width:4.2837;stroke-linecap:round;stroke-linejoin:round;" x1="494.48" y1="124.617" x2="455.889" y2="124.617"/>
				
					<line style="fill:none;stroke:#78B432;stroke-width:4.2837;stroke-linecap:round;stroke-linejoin:round;" x1="455.889" y1="124.617" x2="494.52" y2="163.255"/>
				
					<line style="fill:none;stroke:#78B432;stroke-width:4.2837;stroke-linecap:round;stroke-linejoin:round;" x1="494.52" y1="163.255" x2="472.268" y2="163.255"/>
			</g>
		</g>
	</g>
	<g>
		
			<circle style="fill:none;stroke:#787768;stroke-width:0.8575;stroke-linecap:round;stroke-linejoin:round;" cx="279.908" cy="43.418" r="22.469"/>
		<path style="fill:none;stroke:#787768;stroke-width:0.8575;stroke-linecap:round;stroke-linejoin:round;" d="M272.893,22.069
			c1.56,0.528,2.876,1.396,4.194,2.456c-1.209,2.439,0,0-0.611,3.164c-0.091,0.463,0.997,1.676,0.519,2.884
			c-1.703,4.299-9.188,1.434-10.118,7.259c-0.681,4.266,3.309,3.914,4.2,6.98c1.164,4.008-2.419,5.353-4.185,8.15
			c-1.466,2.322-0.488,4.713-2.214,6.971c0.634-2.822-3.199-3.988-2.898-7.365c0.286-3.205,1.103-6.211-2.216-8.357
			c0.601-1.725,3.017-2.561,3.934-4.109c0.899-1.519,0.736-3.947,0.792-5.826c0.055-1.896-1.687-1.118-0.908-3.193
			c0.929-2.475-0.605-0.742,0.683-3.596"/>
		<path style="fill:none;stroke:#787768;stroke-width:0.8575;stroke-linecap:round;stroke-linejoin:round;" d="M295.325,27.077
			c-3.61-2.386-5.021-3.96-7.751-2.801c0.043-1.22-2.125-0.13-2.984-1.124c-2.825,0.744-3.422,5.11-0.608,6.218
			c-0.717,1.073-1.554-0.28-2.369,0.831"/>
		<path style="fill:none;stroke:#787768;stroke-width:0.8575;stroke-linecap:round;stroke-linejoin:round;" d="M281.612,30.201
			c-1.936,1.398-0.829-0.523-1.936,1.398c0.473,0.123,2.119,3.703,2.929,3.605c-1.643-0.074-2.314,1.044-5.092,3.82
			c5.678,2.593,5.261-0.927,7.289-0.869c-1.435,0.484,8.253,1.777,8.695,3.277c2.312,0.327-5.984,1.564-8.599,0.369
			c-2.51-1.146-4.27,0.999-6.707,0.618c-1.949,8.562,7.126,5.45,7.583,11.179c-0.989,0.986-0.573,5.711,0.695,7.584
			c1.452,2.145,5.5,0.865,6.468-1.256c1.075-2.35-0.861-4.302-0.578-6.369c0.455-3.326,3.77-2.927,6.173-3.763
			c0.264,1.554,0.286,1.006,1.242,1.579c0.028-0.389,0.09-0.856,0.16-1.256c0.913-0.051,0.818-1.698,1.568-1.93"/>
	</g>
	<g>
		<path style="fill:none;stroke:#787768;stroke-width:0.8678;stroke-linecap:round;stroke-linejoin:round;" d="M246.289,13.744
			c-4.635-6.271,5.127-11.084,6.233-3.116c0.48,3.454-2.495,5.487-3.895,8.229c-0.93,1.825-3.422,8.582-2.339,7.358"/>
		<path style="fill:none;stroke:#787768;stroke-width:0.8678;stroke-linecap:round;stroke-linejoin:round;" d="M245.112,32.846
			c-0.253,0.57-0.511,1.137-0.767,1.707"/>
	</g>
	<g>
		<path style="fill:none;stroke:#92938B;stroke-width:2.5702;stroke-linecap:round;stroke-linejoin:round;" d="M230.856,29.758
			c0,8.708-5.385,15.762-12.035,15.762c-6.643,0-12.036-7.054-12.036-15.762c0-8.701,5.393-15.756,12.036-15.756
			C225.472,14.002,230.856,21.057,230.856,29.758z"/>
		<path style="fill:none;stroke:#92938B;stroke-width:2.5702;stroke-linecap:round;stroke-linejoin:round;" d="M219.183,66.908
			c0.179,11.113,0.158,23.016-0.94,28.473c-1.711,8.595-5.155,5.16-3.434,17.193c2.152,15.078,8.024,27.508,6.302,34.957
			c-9.382,40.672-9.74,41.836-0.577,40.691"/>
		<path style="fill:none;stroke:#92938B;stroke-width:2.5702;stroke-linecap:round;stroke-linejoin:round;" d="M218.822,46.097
			c-0.015,2.771,0.081,7.037,0.188,11.966"/>
		<path style="fill:none;stroke:#92938B;stroke-width:1.7135;stroke-linecap:round;stroke-linejoin:round;" d="M226.004,62.443
			c0,2.688-2.174,4.87-4.866,4.87s-4.879-2.183-4.879-4.87c0-2.691,2.187-4.873,4.879-4.873S226.004,59.752,226.004,62.443z"/>
	</g>
	<path style="fill:none;stroke:#92938B;stroke-width:1.7135;stroke-linecap:round;stroke-linejoin:round;" d="M329.674,104.876
		c0,1.516,1.225,2.748,2.746,2.748c1.506,0,2.744-1.232,2.744-2.748c0-1.518-1.238-2.746-2.744-2.746
		C330.898,102.13,329.674,103.359,329.674,104.876z"/>
	<path style="fill:none;stroke:#92938B;stroke-width:1.7135;stroke-linecap:round;stroke-linejoin:round;" d="M319.617,21.732
		c0,8.507,5.275,15.4,11.76,15.4c6.488,0,11.766-6.894,11.766-15.4c0-8.504-5.277-15.398-11.766-15.398
		C324.893,6.334,319.617,13.229,319.617,21.732z"/>
	<path style="fill:none;stroke:#92938B;stroke-width:1.7135;stroke-linecap:round;stroke-linejoin:round;" d="M331.086,37.746
		c0.055,10.749-1.445,42.537,0.611,52.854c1.844,9.215,2.662,6.423,0.824,19.329c-2.309,16.162,2.881,31.936,3.436,40.111
		c2.863,42.41,3.121,41.35-6.715,40.115"/>
</g>
</svg>
