<?xml version="1.0" encoding="iso-8859-1"?>
<!-- Generator: Adobe Illustrator 13.0.0, SVG Export Plug-In . SVG Version: 6.00 Build 14948)  -->
<!DOCTYPE svg PUBLIC "-//W3C//DTD SVG 1.1//EN" "http://www.w3.org/Graphics/SVG/1.1/DTD/svg11.dtd">
<svg version="1.1" xmlns="http://www.w3.org/2000/svg" xmlns:xlink="http://www.w3.org/1999/xlink" x="0px" y="0px"
	 width="379.411px" height="141.817px" viewBox="0 0 379.411 141.817" style="enable-background:new 0 0 379.411 141.817;"
	 xml:space="preserve">
<pattern  width="540" height="200" patternUnits="userSpaceOnUse" id="Fond_540x200" viewBox="0 -200 540 200" style="overflow:visible;">
	<g>
		<polygon style="fill:none;" points="0,0 540,0 540,-200 0,-200 		"/>
		<polygon style="fill:#FFFFFF;" points="0,0 540,0 540,-200 0,-200 		"/>
	</g>
</pattern>
<g id="fond">
	<g>
		<rect style="fill:none;" width="378" height="140"/>
		<rect style="fill:#FFFFFF;" width="378" height="140"/>
	</g>
</g>
<g id="douche">
</g>
<g id="Layer_7">
</g>
<g id="hotel_interieur">
	<rect x="1.411" y="1.817" style="fill:none;" width="378" height="140"/>
	<polyline style="fill:#D5312C;stroke:#FFFFFF;stroke-width:0.9641;stroke-linecap:square;" points="184.481,135.284 184.481,93.43 
		189.199,93.43 189.199,135.284 	"/>
	<path style="fill:#D5312C;stroke:url(#Fond_540x200);" d="M111.026,91.946c0,1.478,1.197,2.676,2.675,2.676h144.313
		c1.478,0,2.678-1.198,2.678-2.676c0-1.479-1.2-2.677-2.678-2.677H113.701C112.223,89.27,111.026,90.468,111.026,91.946
		C111.026,91.946,111.026,90.468,111.026,91.946z"/>
	<g>
		
			<line style="fill:none;stroke:#65B724;stroke-width:4.5085;stroke-linecap:round;stroke-linejoin:round;" x1="83.415" y1="77.317" x2="83.415" y2="117.941"/>
		
			<line style="fill:none;stroke:#65B724;stroke-width:4.5085;stroke-linecap:round;stroke-linejoin:round;" x1="83.415" y1="117.941" x2="124.031" y2="117.941"/>
		
			<line style="fill:none;stroke:#65B724;stroke-width:4.5085;stroke-linecap:round;stroke-linejoin:round;" x1="124.031" y1="117.941" x2="106.691" y2="135.284"/>
	</g>
	<g>
		
			<line style="fill:none;stroke:#65B724;stroke-width:4.5085;stroke-linecap:round;stroke-linejoin:round;" x1="289.98" y1="77.317" x2="289.98" y2="117.941"/>
		
			<line style="fill:none;stroke:#65B724;stroke-width:4.5085;stroke-linecap:round;stroke-linejoin:round;" x1="289.98" y1="117.941" x2="249.363" y2="117.941"/>
		
			<line style="fill:none;stroke:#65B724;stroke-width:4.5085;stroke-linecap:round;stroke-linejoin:round;" x1="249.363" y1="117.941" x2="266.702" y2="135.283"/>
	</g>
	
		<ellipse style="fill:none;stroke:#777768;stroke-width:1.2544;stroke-linecap:round;stroke-linejoin:round;" cx="189.999" cy="20.6" rx="12.468" ry="11.685"/>
	
		<line style="fill:none;stroke:#777768;stroke-width:0.8072;stroke-linecap:round;stroke-linejoin:round;" x1="189.999" y1="20.6" x2="183.933" y2="20.6"/>
	
		<line style="fill:none;stroke:#777768;stroke-width:0.8072;stroke-linecap:round;stroke-linejoin:round;" x1="189.999" y1="20.6" x2="189.999" y2="11.488"/>
	<g>
		<path style="fill:#F1C555;stroke:#AA2F19;stroke-width:0.4774;stroke-linecap:round;stroke-linejoin:round;" d="M127.083,88.769
			c1.261,0.833-0.755,2.955-3.695,2.334c-1.782-0.377-2.519-1.19-3.175-2.105C118.768,86.979,126.038,87.55,127.083,88.769"/>
		<path style="fill:#FEE895;" d="M125.056,89.972c-0.057,0.026-0.038,0.07,0.044,0.098c0.082,0.027,0.194,0.029,0.251,0.003
			c0.057-0.026,0.037-0.07-0.045-0.098C125.226,89.947,125.113,89.946,125.056,89.972z"/>
		<path style="fill:#FEE895;" d="M125.164,89.035c-0.059,0.022-0.062,0.059-0.006,0.082c0.056,0.023,0.149,0.024,0.208,0.003
			c0.059-0.022,0.062-0.06,0.006-0.082C125.316,89.015,125.224,89.014,125.164,89.035z"/>
		<path style="fill:#FEE895;" d="M123.957,89.078c-0.044,0.026-0.033,0.06,0.025,0.075c0.059,0.015,0.142,0.005,0.187-0.021
			c0.044-0.027,0.032-0.061-0.025-0.076C124.083,89.041,124,89.051,123.957,89.078z"/>
		<path style="fill:#FEE895;" d="M122.72,90.396c-0.065,0.026-0.04,0.076,0.055,0.113c0.095,0.035,0.225,0.043,0.289,0.017
			c0.064-0.026,0.04-0.077-0.056-0.112C122.913,90.377,122.784,90.369,122.72,90.396z"/>
		<path style="fill:#FEE895;" d="M122.594,88.921c-0.044,0.026-0.034,0.061,0.023,0.076c0.059,0.015,0.142,0.006,0.187-0.021
			c0.044-0.027,0.034-0.062-0.024-0.076C122.722,88.885,122.639,88.895,122.594,88.921z"/>
		<path style="fill:#FEE895;" d="M122.57,88.152c-0.082-0.001-0.149,0.017-0.151,0.039c-0.003,0.023,0.061,0.043,0.142,0.044
			c0.082,0.002,0.15-0.016,0.152-0.039C122.715,88.174,122.651,88.154,122.57,88.152z"/>
		<path style="fill:#FEE895;" d="M123.923,88.224c-0.104-0.003-0.196,0.027-0.204,0.068c-0.009,0.041,0.068,0.077,0.172,0.08
			c0.104,0.004,0.196-0.026,0.206-0.068C124.105,88.264,124.027,88.228,123.923,88.224z"/>
		<path style="fill:#FEE895;" d="M120.807,88.282c-0.045,0.021-0.017,0.06,0.062,0.086c0.08,0.026,0.182,0.031,0.226,0.011
			c0.045-0.021,0.018-0.06-0.062-0.086C120.953,88.266,120.853,88.261,120.807,88.282z"/>
		<path style="fill:#FEE895;" d="M121.55,89.286c-0.129,0.005-0.228,0.041-0.218,0.081c0.009,0.04,0.121,0.069,0.251,0.064
			c0.129-0.005,0.228-0.041,0.218-0.08C121.792,89.311,121.68,89.282,121.55,89.286z"/>
		<path style="fill:#FEE895;" d="M123.736,89.706c0.046-0.029,0.02-0.067-0.059-0.087c-0.079-0.02-0.18-0.012-0.226,0.018
			c-0.046,0.029-0.02,0.068,0.059,0.087C123.59,89.743,123.691,89.735,123.736,89.706z"/>
		<ellipse style="fill:#FEE895;" cx="124.704" cy="88.357" rx="0.2" ry="0.07"/>
		<path style="fill:#FEE895;" d="M121.03,88.606c-0.103,0.005-0.178,0.036-0.167,0.067s0.104,0.053,0.207,0.048
			c0.104-0.006,0.179-0.036,0.168-0.067C121.228,88.622,121.134,88.601,121.03,88.606z"/>
		<path style="fill:#FEE895;" d="M126.306,89.333c-0.076,0.034-0.065,0.087,0.023,0.116s0.221,0.025,0.297-0.009
			c0.076-0.035,0.065-0.088-0.023-0.117C126.514,89.294,126.381,89.298,126.306,89.333z"/>
		<path style="fill:#FEE895;" d="M124.982,90.545c-0.089,0.002-0.16,0.016-0.157,0.029c0.003,0.014,0.077,0.022,0.166,0.02
			c0.089-0.002,0.16-0.016,0.157-0.029C125.145,90.552,125.071,90.542,124.982,90.545z"/>
		<path style="fill:#FEE895;" d="M122.181,89.91c-0.065,0.031-0.082,0.069-0.037,0.083c0.045,0.015,0.135,0,0.201-0.031
			c0.065-0.032,0.083-0.07,0.037-0.084C122.337,89.863,122.248,89.877,122.181,89.91z"/>
		<path style="fill:#FEE895;" d="M123.998,90.184c0.036-0.017,0.1-0.019,0.142-0.004c0.041,0.015,0.046,0.039,0.01,0.055
			c-0.036,0.018-0.1,0.02-0.141,0.005C123.967,90.225,123.962,90.2,123.998,90.184z"/>
		<rect x="124.764" y="90.662" style="fill:#FEE895;" width="0" height="0"/>
	</g>
	<path style="fill:#E7A546;" d="M170.717,82.655c-0.21-0.471-2.545-1.115-6.887-1.115c-3.029,0-6.383,1.23-6.408,1.881
		c-0.015,0.378,0.585,1.649,0.733,2.008c0.183,0.442,0.603,0.884,0.881,1.284c0.419,0.604,1.003,1.035,1.612,1.436
		c0.862,0.567,1.647,0.684,2.662,0.693c0.859,0.009,1.586,0.055,2.432-0.128c1.004-0.216,2.046-0.193,3.06-0.386
		c0.642-0.12,1.301-0.146,1.827-0.571c0.385-0.311,0.983-0.593,1.204-1.05c0.223-0.463,0.238-1.123-0.007-1.572
		c-0.187-0.341-0.544-0.559-0.505-0.979"/>
	<path style="fill:#AA2F19;stroke:#7F3D1F;stroke-width:0.1591;stroke-linecap:round;stroke-linejoin:round;" d="M169.87,82.196
		c2.621-0.043,3.487,3.516,3.02,5.29c-0.556,2.106-1.366,2.504-3.569,2.732c-2.397,0.248-5.119,0.146-7.542,0.025
		c-2.085-0.102-5.43-0.565-5.666-3.119c-0.274-2.97,1.195-4.41,2.062-4.393c1.868,0.038,3.614,2.85,4.891,4.004
		c-0.321-1.678-1.695-3.383-2.873-4.682c0.787-0.652,2.896-0.594,3.288-0.436c0.935,0.376,2.975,2.946,3.367,3.896
		c-0.039-1.416-0.147-2.771-1.062-4.015c0.341-0.343,1.886,0.225,1.886,0.225c1.092,0.699,3.335,3.512,3.206,4.854
		C170.895,85.684,170.561,82.196,169.87,82.196"/>
	<g>
		<path style="fill:none;stroke:#848484;stroke-width:0.2323;" d="M234.648,82.689c0-0.761-0.523-1.877-1.064-2.889
			c-0.531-0.987-1.247-1.536-1.874-2.151"/>
		<ellipse style="fill:none;stroke:#848484;stroke-width:0.1948;" cx="227.893" cy="77.416" rx="3.849" ry="1.371"/>
		<path style="fill:none;stroke:#848484;stroke-width:0.3484;" d="M224.241,76.991c-0.333-0.281-0.437-0.775-0.936-1.152
			c-1.086-0.821-2.165-0.004-2.978,1.331c-0.456,0.749-0.654,1.619-0.218,2.631c0.146,0.338,1.001,1.901,1.236,2.197"/>
		<path style="fill:none;stroke:#848484;stroke-width:0.2323;" d="M224.053,77.381c-1.319,1.379-2.486,3.081-2.778,5.003
			c-0.325,2.143-0.14,3.757,0.659,5.066c0.29,0.475,0.655,0.985,1.055,1.354c0.398,0.367,1.556,0.91,2.48,1.05
			c0.885,0.136,3.061,0.272,4.086,0.111c0.744-0.119,1.955-0.228,2.358-0.633c0.838-0.838,2.863-2.8,2.863-3.888"/>
		<path style="fill:none;stroke:#848484;stroke-width:0.1948;stroke-linecap:round;stroke-linejoin:round;" d="M228.349,76.466
			c0.407,0.353-0.253,1.099-0.753,0.672C227.174,76.776,228.018,76.176,228.349,76.466"/>
		<path style="fill:none;stroke:#848484;stroke-width:0.2323;stroke-linecap:round;" d="M237.076,80.41
			c0.448-0.448,1.646,0.386,1.357,0.996C238.245,81.807,236.956,80.74,237.076,80.41"/>
		<path style="fill:#FFFFFF;stroke:#848484;stroke-width:0.2323;stroke-linecap:round;stroke-linejoin:round;" d="M237.048,80.474
			c-0.206,0.287-1,1.311-1.899,1.781c-1.442,0.752-2.067,1.53-2.804,3.124"/>
		<path style="fill:#FFFFFF;stroke:#848484;stroke-width:0.2323;stroke-linecap:round;stroke-linejoin:round;" d="M238.266,81.493
			c-0.728-0.104-1.788,1.836-2.093,2.314c-0.961,1.507-2.292,2.348-3.634,3.528"/>
	</g>
	<g>
		<path style="fill:none;stroke:#848484;stroke-width:0.3414;" d="M241.805,86.839c0.047-0.019,0.031,0.112,0.111,0.165
			c0.144,0.096,0.4,0.15,0.51,0.124c0.358-0.087,0.53-0.335,0.537-0.656c0.009-0.405-0.265-0.685-0.585-0.688
			c-0.214-0.002-0.338,0.126-0.504,0.202"/>
		<ellipse style="fill:#FFFFFF;stroke:#848484;stroke-width:0.1383;" cx="237.993" cy="89.752" rx="1.798" ry="0.382"/>
		<path style="fill:#FFFFFF;stroke:#848484;stroke-width:0.1383;" d="M242.409,85.103c-0.023-0.15,0.139,0.995-1.056,2.765
			c-0.762,1.128-1.088,1.467-2.288,1.889c-0.146,0.051-0.815,0.063-1.011,0.063c-0.162,0-1.029-0.026-1.138-0.056
			c-1.021-0.286-1.865-1.109-2.584-2.011c-0.425-0.533-1.477-1.825-1.143-2.607c0.3-0.309,3.168-0.699,4.849-0.699
			c1.542,0,4.972,0.257,4.301,0.729c-0.795,0.56-3.437,0.67-4.655,0.67c-1.233,0-4.85-0.156-4.494-0.524"/>
	</g>
	<path style="fill:url(#Fond_540x200);stroke:#777768;stroke-width:0.2;stroke-linecap:round;stroke-linejoin:round;" d="
		M245.693,89.55c0,0.318-3.241,0.576-7.24,0.576c-3.998,0-7.24-0.258-7.24-0.576c0-0.317,3.654-0.154,7.652-0.154
		C239.303,89.396,245.693,89.232,245.693,89.55z"/>
	<g id="jus_d_x27_orange">
		<path style="fill:#FFCC33;" d="M200.619,73.26c-1.739,0-2.969-0.664-2.969-0.664c-0.848,2.476-5.526,8.36-4.763,16.087
			c0.219,2.225,6.269,2.365,7.95,2.365c1.68,0,7.949-0.141,7.949-2.365c0-7.764-3.916-13.611-4.764-16.087
			C204.023,72.596,202.357,73.26,200.619,73.26z"/>
		<g>
			<path style="fill:none;stroke:#777768;stroke-width:0.3575;stroke-linecap:round;stroke-linejoin:round;" d="M204.498,64.287
				c-0.896,0.288-6.562,0.847-7.407,0C196.134,63.33,205.475,63.311,204.498,64.287"/>
			<path style="fill:none;stroke:#777768;stroke-width:0.3575;stroke-linecap:round;stroke-linejoin:round;" d="M197.134,64.287
				c0.491,2.978,1.535,5.33,0.517,8.309c-0.848,2.476-5.526,8.36-4.763,16.087c0.219,2.225,6.269,2.365,7.95,2.365
				c1.68,0,7.949-0.141,7.949-2.365c0-7.764-3.916-13.611-4.764-16.087c-1.02-2.979,0.027-5.331,0.518-8.309"/>
		</g>
	</g>
	<g>
		<path style="fill:url(#Fond_540x200);stroke:#777768;stroke-width:0.3575;stroke-linecap:round;stroke-linejoin:round;" d="
			M142.459,78.386l-2.455,11.59h14.517v-0.002c-1.133-3.426-2.908-9.375-3.527-11.85c-0.552,0.217-1.7,0.121-1.996,0.344
			c-0.412,0.015-1.528,0.229-2.233,0.207c-0.801-0.025-2.079-0.066-2.443-0.158C144.044,78.373,143.121,78.694,142.459,78.386"/>
		<path style="fill:none;stroke:#777768;stroke-width:1.0724;stroke-linejoin:round;" d="M152.742,69.236
			c1.179,0.178,1.654-1.396,3.192,0.24c1.224,2.543-3.023,7.478-4.701,7.165"/>
		<path style="fill:url(#Fond_540x200);stroke:#777768;stroke-width:0.3575;stroke-linecap:round;stroke-linejoin:round;" d="
			M139.651,67.402c0.564-0.166,6.591-2.582,6.591-2.582l0.498-0.018c0.03,0.1,5.155,1.95,6.553,2.411c0,0-1.733,7.247-2.3,10.912
			c-0.025,0.158-3.65,0.531-4.229,0.551"/>
		<polyline style="fill:none;stroke:#777768;stroke-width:0.3575;stroke-linecap:round;stroke-linejoin:round;" points="
			142.459,78.386 139.809,67.939 140.522,70.755 136.726,67.853 139.442,67.755 		"/>
		<path style="fill:none;stroke:#777768;stroke-width:0.3575;stroke-linecap:round;stroke-linejoin:round;" d="M139.651,67.402
			c-1.425,0.36,2.262,0.454,2.802,0.435c0.675-0.024,3.952,0.172,4.529,0.151c0.502-0.018,3.19-0.271,3.95-0.298
			c0.645-0.023,3.016-0.351,2.203-0.522"/>
		<g>
			<path style="fill:none;stroke:#777768;stroke-width:0.3575;stroke-linecap:round;stroke-linejoin:round;" d="M144.364,78.525
				c-0.163,1.413-1.155,8.616-1.701,11.45"/>
			<path style="fill:none;stroke:#777768;stroke-width:0.3575;stroke-linecap:round;stroke-linejoin:round;" d="M151.386,89.977
				c-0.763-3.015-2-9.642-2.389-11.509"/>
			<path style="fill:none;stroke:#777768;stroke-width:0.3575;stroke-linecap:round;stroke-linejoin:round;" d="M144.364,78.525
				c-0.505-1.933-1.911-10.689-1.911-10.689"/>
			<path style="fill:none;stroke:#777768;stroke-width:0.3575;stroke-linecap:round;stroke-linejoin:round;" d="M146.923,89.976
				c-0.041-3.496-0.194-10.729-0.156-11.432"/>
			<path style="fill:none;stroke:#777768;stroke-width:0.3575;stroke-linecap:round;stroke-linejoin:round;" d="M146.767,78.544
				c-0.111-3.106,0.297-7.596,0.215-10.557"/>
			
				<line style="fill:none;stroke:#777768;stroke-width:0.3575;stroke-linecap:round;stroke-linejoin:round;" x1="150.933" y1="67.689" x2="148.997" y2="78.468"/>
		</g>
		<path style="fill:#777768;" d="M146.176,64.886l-0.928-2.173c0,0,0.676-0.313,1.185-0.351c0.366-0.027,1.239,0.334,1.239,0.334
			l-0.735,2.144L146.176,64.886"/>
	</g>
	<path style="fill:#FFFFFF;stroke:#777768;stroke-width:0.3575;stroke-linecap:round;stroke-linejoin:round;" d="M133.967,82.419
		c0,1.4,0.005,5.728,0.005,7.348c0.24,0.239,4.239,0.32,5.769-0.098c0,0,0,0.048,0,0c0-1.891,0.046-4.494-0.047-7.395"/>
	
		<ellipse style="fill:url(#Fond_540x200);stroke:#777768;stroke-width:0.3575;stroke-linecap:round;stroke-linejoin:round;" cx="136.782" cy="82.254" rx="2.815" ry="0.271"/>
	<path style="fill:url(#Fond_540x200);stroke:#777768;stroke-width:0.2;stroke-linecap:round;stroke-linejoin:round;" d="
		M144.197,89.519c0,0.318-3.241,0.576-7.24,0.576c-3.999,0-7.241-0.258-7.241-0.576c0-0.317,3.654-0.154,7.653-0.154
		C137.807,89.364,144.197,89.201,144.197,89.519z"/>
	<rect x="97.692" y="134.119" style="fill:#FFFFFF;" width="180" height="5.133"/>
	<g>
		<path style="fill:#26992F;" d="M189.466,84.433c0.262-0.007,0.302-0.449,0.443-0.646c0.431-0.605,1.385-0.721,2.063-0.605
			c0.414,0.07,0.952,0.26,0.689,0.604c-0.018,0.023-0.22,0.119-0.284,0.189c-0.152,0.165-2.627,0.374-2.866,0.379"/>
		<path style="fill:#824341;stroke:#824341;stroke-width:0.4598;" d="M189.426,84.464c0.101-0.375-0.197-0.941-0.197-1.096
			c0.132,0-0.256,0.038-0.179,0.115c0.162,0.161,0.298,0.896,0.372,0.994c0.032,0.044,0.062-0.146,0.09-0.125"/>
		<path style="fill:#88C936;" d="M189.351,84.521c-0.05-0.82-1.707-0.629-2.188-0.436c-0.594,0.239-1.142,0.794-1.239,1.44
			c-0.129,0.854,0.166,1.437,0.288,2.133c0.114,0.646,0.42,1.178,0.74,1.623c0.401,0.558,1.364,1.252,1.618,1.357
			c0.381,0.16,0.463-0.068,0.869-0.107c0.513-0.049,0.4,0.146,0.902,0.227c0.45,0.072,1.326-0.274,1.894-0.997
			c0.872-1.11,1.338-2.62,1.063-4.021c-0.092-0.473-0.339-1.146-0.781-1.418c-0.411-0.252-1.048-0.17-1.51-0.17
			c-0.299,0-0.54,0.049-0.816,0.076c-0.164,0.016-0.674,0.183-0.828,0.239"/>
	</g>
	<g>
		<ellipse style="fill:#FE9F34;stroke:#FD8631;stroke-width:0.5173;" cx="178" cy="87" rx="3.737" ry="3.479"/>
		<circle style="fill:#5AB227;" cx="176.689" cy="84.3" r="0.179"/>
		
			<ellipse transform="matrix(0.5847 0.8112 -0.8112 0.5847 146.6848 -112.607)" style="fill:#FE9F34;stroke:#FD8631;stroke-width:0.5173;" cx="183.328" cy="86.967" rx="3.531" ry="3.475"/>
		
			<ellipse transform="matrix(0.5842 0.8116 -0.8116 0.5842 146.4746 -115.3064)" style="fill:#5AB227;" cx="185.777" cy="85.307" rx="0.17" ry="0.179"/>
	</g>
	<path style="fill:#FFFFFF;stroke:#777768;stroke-width:0.009;stroke-linecap:round;stroke-linejoin:round;" d="M217.281,87.922
		c-0.001,0.07-0.003,0.395-0.003,0.478c0.011,0.011,0.22,0.041,0.291-0.003c0,0,0,0.003,0,0c0.001-0.096,0.001-0.325-0.002-0.473"/>
	<path style="fill:#FFFFFF;stroke:#777768;stroke-width:0.009;stroke-linecap:round;stroke-linejoin:round;" d="M217.278,88.399
		c0.011,0.011,0.221,0.041,0.291-0.003"/>
	
		<ellipse style="fill:#FFFFFF;stroke:#777768;stroke-width:0.009;stroke-linecap:round;stroke-linejoin:round;" cx="217.424" cy="87.923" rx="0.143" ry="0.021"/>
	<path style="fill:#FFFFFF;stroke:#777768;stroke-width:0.009;stroke-linecap:round;stroke-linejoin:round;" d="M212.175,87.922
		c-0.001,0.07-0.004,0.395-0.005,0.478c0.012,0.011,0.221,0.041,0.292-0.003c0,0,0,0.003,0,0c0.001-0.096,0.001-0.325-0.003-0.473"
		/>
	<path style="fill:#FFFFFF;stroke:#777768;stroke-width:0.009;stroke-linecap:round;stroke-linejoin:round;" d="M212.17,88.399
		c0.012,0.011,0.221,0.041,0.292-0.003"/>
	
		<ellipse style="fill:#FFFFFF;stroke:#777768;stroke-width:0.009;stroke-linecap:round;stroke-linejoin:round;" cx="212.317" cy="87.923" rx="0.142" ry="0.021"/>
	<g>
		<path style="fill:#E8F6FA;" d="M221.473,89.55c0-0.104-0.098-0.189-0.219-0.189l-10.637-0.025c-0.119,0-0.326-0.009-0.326,0.095
			l-2.326,1.294c0,0.104,0.098,0.188,0.218,0.188c0,0,10.28,0,10.752,0s0.634-0.084,0.746-0.188L221.473,89.55z"/>
		<path style="fill:#A6DEEB;" d="M220.266,89.704c0-0.065-0.073-0.118-0.163-0.118l-8.441,0.06c-0.091,0-0.245-0.007-0.245,0.059
			l-1.635,0.816c0,0.065,0.073,0.119,0.164,0.119h8.849c-0.136,0,0.165-0.054,0.165-0.119L220.266,89.704z"/>
		<path style="fill:#FFFF61;" d="M219.965,89.507c0,0.095,0,0.095-0.077,0.172c0,0-0.947,0.53-1.145,0.668
			c-0.194,0.136-1.114-0.277-0.16-0.15v-4.374c0-0.096,0.077-0.173,0.172-0.173l1.038-0.379c0.095,0,0.172,0.076,0.172,0.173V89.507
			z"/>
		<path style="fill:#FFFF61;" d="M219.967,85.434c0-0.09-0.072-0.163-0.163-0.163l-7.271-0.08c-0.09,0-0.164-0.057-0.371,0.033
			l-1.701,0.444c0,0.091,0,0,0.089,0h7.871c-0.039,0,0.21,0.273,0.21,0.035L219.967,85.434z"/>
		<path style="fill:#FFFFA8;" d="M218.583,90.205c0,0.09-0.072,0.163-0.162,0.163h-7.891c-0.089,0-0.163-0.073-0.163-0.163v-4.373
			c0-0.091,0.074-0.164,0.163-0.164h7.891c0.09,0,0.162,0.073,0.162,0.164V90.205z"/>
		<g>
			<path style="fill:#CCCCCC;stroke:#858585;stroke-width:0.0479;stroke-linecap:round;stroke-linejoin:round;" d="M212.719,88.233
				c-0.671-0.01-1.015,0.631-0.861,0.947c0.286,0.594,0.812,0.587,1.503,0.442c1.351-0.279,3.22,0.376,3.386,0.335
				c0.078-0.551,0.084-0.736,0.136-1.227c-0.612-0.063-0.915-0.13-1.395-0.186C212.29,88.188,213.384,88.304,212.719,88.233"/>
			<path style="fill:#CCCCCC;stroke:#858585;stroke-width:0.0959;" d="M222.463,90.598c0.663-0.093,0.58-0.611,0.537-0.837
				c-0.115-0.612-0.892-0.499-1.539-0.516c-0.851-0.022-2.316-0.034-4.579-0.514c-0.053,0.504-0.08,0.692-0.136,1.227
				C219.603,89.606,221.659,90.771,222.463,90.598"/>
		</g>
	</g>
</g>
<g id="hotel_contour">
</g>
<g id="baignoire">
</g>
</svg>
