<?xml version="1.0" encoding="iso-8859-1"?>
<!-- Generator: Adobe Illustrator 13.0.0, SVG Export Plug-In . SVG Version: 6.00 Build 14948)  -->
<!DOCTYPE svg PUBLIC "-//W3C//DTD SVG 1.1//EN" "http://www.w3.org/Graphics/SVG/1.1/DTD/svg11.dtd">
<svg version="1.1" xmlns="http://www.w3.org/2000/svg" xmlns:xlink="http://www.w3.org/1999/xlink" x="0px" y="0px" width="540px"
	 height="200px" viewBox="0 0 540 200" style="enable-background:new 0 0 540 200;" xml:space="preserve">
<g id="Layer_2">
	<g>
		<rect style="fill:#FFFFFF;" width="540" height="200"/>
	</g>
</g>
<g id="Layer_1">
	<path style="fill:none;stroke:#777768;stroke-width:1.713;stroke-linecap:round;stroke-linejoin:round;" d="M232.258,96.45
		c0.429-0.863,0.744-1.788,1.074-2.699c0.203-0.559,1.043-2.249,0.821-2.641"/>
	<path style="fill:none;stroke:#777768;stroke-width:1.713;stroke-linecap:round;stroke-linejoin:round;" d="M226.285,58.555
		c10.436,4.369,7.888,32.169,9.071,33.56c0.515,0.606,0.765,1.012,1.458,1.431c1.113,0.674,1.741,0.293,2.978,0.722
		c1.107,0.384,1.982,1.637,2.325,2.992"/>
	<g>
		<g>
			
				<rect x="427.631" y="100.724" style="fill:#D5312C;stroke:#FFFFFF;stroke-width:0.916;stroke-linecap:square;" width="4.48" height="64.386"/>
			<g>
				<path style="fill:#D5312C;" d="M391.909,99.313c0,1.404,1.139,2.542,2.543,2.542h70.83c1.404,0,2.543-1.138,2.543-2.542
					c0-1.405-1.139-2.542-2.543-2.542h-70.83C393.047,96.771,391.909,97.908,391.909,99.313
					C391.909,99.313,391.909,97.908,391.909,99.313z"/>
				<path style="fill:none;stroke:#FFFFFF;stroke-width:1.374;" d="M391.909,99.313c0,1.404,1.139,2.542,2.543,2.542h70.83
					c1.404,0,2.543-1.138,2.543-2.542c0-1.405-1.139-2.542-2.543-2.542h-70.83C393.047,96.771,391.909,97.908,391.909,99.313
					C391.909,99.313,391.909,97.908,391.909,99.313z"/>
			</g>
		</g>
		<g>
			<rect x="160.573" y="92.911" style="fill:#65B724;stroke:#FFFFFF;stroke-width:1.374;" width="5.478" height="72.816"/>
			<path style="fill:#65B724;stroke:#FFFFFF;stroke-width:1.374;" d="M179.264,96.9h-31.912v-7.979c0,0,7.568-3.492,15.547-3.492
				c7.979,0,16.365,3.492,16.365,3.492V96.9z"/>
			<rect x="153.085" y="148.463" style="fill:#65B724;stroke:#FFFFFF;stroke-width:0.916;" width="20.449" height="1.869"/>
		</g>
		
			<line style="fill:none;stroke:#65B724;stroke-width:3.427;stroke-linecap:round;" x1="26.712" y1="56.053" x2="134.204" y2="56.053"/>
		
			<line style="fill:none;stroke:#65B724;stroke-width:3.427;stroke-linecap:square;" x1="134.204" y1="56.053" x2="134.204" y2="80.097"/>
		
			<line style="fill:none;stroke:#65B724;stroke-width:3.427;stroke-linecap:square;" x1="134.204" y1="80.097" x2="123.898" y2="80.097"/>
		
			<line style="fill:none;stroke:#65B724;stroke-width:3.427;stroke-linecap:square;" x1="123.898" y1="80.097" x2="123.898" y2="164.822"/>
		
			<line style="fill:none;stroke:#65B724;stroke-width:3.427;stroke-linecap:round;" x1="123.898" y1="164.822" x2="512.431" y2="164.822"/>
		<g>
			<g>
				
					<line style="fill:none;stroke:#65B724;stroke-width:4.2837;stroke-linecap:round;stroke-linejoin:round;" x1="369.609" y1="85.415" x2="369.609" y2="124.012"/>
				
					<line style="fill:none;stroke:#65B724;stroke-width:4.2837;stroke-linecap:round;stroke-linejoin:round;" x1="369.609" y1="124.012" x2="408.202" y2="124.012"/>
				
					<line style="fill:none;stroke:#65B724;stroke-width:4.2837;stroke-linecap:round;stroke-linejoin:round;" x1="408.202" y1="124.012" x2="369.568" y2="162.65"/>
				
					<line style="fill:none;stroke:#65B724;stroke-width:4.2837;stroke-linecap:round;stroke-linejoin:round;" x1="369.568" y1="162.65" x2="391.819" y2="162.65"/>
			</g>
			<g>
				
					<line style="fill:none;stroke:#65B724;stroke-width:4.2837;stroke-linecap:round;stroke-linejoin:round;" x1="499.365" y1="85.415" x2="499.365" y2="124.012"/>
				
					<line style="fill:none;stroke:#65B724;stroke-width:4.2837;stroke-linecap:round;stroke-linejoin:round;" x1="499.365" y1="124.012" x2="460.773" y2="124.012"/>
				
					<line style="fill:none;stroke:#65B724;stroke-width:4.2837;stroke-linecap:round;stroke-linejoin:round;" x1="460.773" y1="124.012" x2="499.406" y2="162.65"/>
				
					<line style="fill:none;stroke:#65B724;stroke-width:4.2837;stroke-linecap:round;stroke-linejoin:round;" x1="499.406" y1="162.65" x2="477.152" y2="162.65"/>
			</g>
		</g>
	</g>
	<g>
		<g>
			<path style="fill:none;stroke:#777768;stroke-width:2.5702;stroke-linecap:round;stroke-linejoin:round;" d="M238.025,33.072
				c0,8.708-5.384,15.761-12.034,15.761c-6.643,0-12.036-7.053-12.036-15.761c0-8.701,5.394-15.756,12.036-15.756
				C232.641,17.316,238.025,24.371,238.025,33.072z"/>
			<path style="fill:none;stroke:#777768;stroke-width:2.5702;stroke-linecap:round;stroke-linejoin:round;" d="M226.352,70.223
				c0.179,11.112,0.157,23.016-0.94,28.472c-1.712,8.596-5.155,5.159-3.434,17.192c2.152,15.079,8.023,27.509,6.302,34.958
				c-9.382,40.672-9.74,41.837-0.577,40.691"/>
			<path style="fill:none;stroke:#777768;stroke-width:2.5702;stroke-linecap:round;stroke-linejoin:round;" d="M225.991,49.41
				c-0.016,2.771,0.08,7.037,0.188,11.967"/>
			<path style="fill:#FFFFFF;stroke:#777768;stroke-width:1.7135;stroke-linecap:round;stroke-linejoin:round;" d="M233.172,65.758
				c0,2.688-2.173,4.87-4.865,4.87c-2.693,0-4.88-2.183-4.88-4.87c0-2.691,2.187-4.873,4.88-4.873
				C231,60.885,233.172,63.066,233.172,65.758z"/>
		</g>
		<g>
			<path style="fill:none;stroke:#777768;stroke-width:1.7135;stroke-linecap:round;stroke-linejoin:round;" d="M294.397,106.529
				c0,1.517,1.225,2.749,2.746,2.749c1.506,0,2.746-1.232,2.746-2.749c0-1.516-1.24-2.746-2.746-2.746
				C295.622,103.783,294.397,105.014,294.397,106.529z"/>
			<path style="fill:none;stroke:#777768;stroke-width:1.7135;stroke-linecap:round;stroke-linejoin:round;" d="M284.34,23.385
				c0,8.507,5.275,15.401,11.76,15.401c6.488,0,11.766-6.895,11.766-15.401c0-8.504-5.277-15.398-11.766-15.398
				C289.616,7.986,284.34,14.881,284.34,23.385z"/>
			<path style="fill:none;stroke:#777768;stroke-width:1.7135;stroke-linecap:round;stroke-linejoin:round;" d="M295.809,39.398
				c0.055,10.749-1.445,42.537,0.611,52.854c1.844,9.217,2.662,6.423,0.824,19.329c-2.309,16.163,2.881,31.936,3.436,40.112
				c2.863,42.411,3.121,41.351-6.715,40.116"/>
		</g>
	</g>
	<g>
		<g>
			<path style="fill:#FCCF3D;" d="M233.146,102.49c0,1.074,2.592,1.074,4.637,1.074s4.438-0.152,4.445-1.074
				c0.012-0.92,0-12.859,0-12.859s-0.969,0.693-4.523,0.693c-3.559,0-4.559-0.693-4.559-0.693S233.146,101.416,233.146,102.49z"/>
			<path style="fill:#FFFFD9;" d="M233.169,89.686c0,0.154-0.023,0.654-0.023,1.186c0,0.49,2.908,0.693,4.559,0.693
				c1.516,0,3.334-0.312,4.158-0.52c0.527-0.137,0.365-1.182,0.365-1.359c0-0.451-2.023-0.818-4.529-0.818
				C235.199,88.867,233.169,89.234,233.169,89.686z"/>
			<g>
				<path style="fill:none;stroke:#FFFFFF;stroke-width:0.1624;" d="M241.262,92.33c0,0.086,0.079,0.152,0.171,0.152
					c0.09,0,0.166-0.066,0.166-0.152c0-0.084-0.076-0.15-0.166-0.15C241.341,92.18,241.262,92.246,241.262,92.33z"/>
				<path style="fill:none;stroke:#FFFFFF;stroke-width:0.1624;" d="M240.857,97.365c0,0.084,0.075,0.154,0.165,0.154
					c0.096,0,0.167-0.07,0.167-0.154c0-0.082-0.071-0.152-0.167-0.152C240.932,97.213,240.857,97.283,240.857,97.365z"/>
				<ellipse style="fill:none;stroke:#FFFFFF;stroke-width:0.1624;" cx="238.004" cy="98.459" rx="0.167" ry="0.152"/>
				<path style="fill:none;stroke:#FFFFFF;stroke-width:0.1624;" d="M239.305,97.096c0,0.082,0.075,0.15,0.171,0.15
					c0.093,0,0.168-0.068,0.168-0.15c0-0.088-0.075-0.156-0.168-0.156C239.38,96.939,239.305,97.008,239.305,97.096z"/>
				<ellipse style="fill:none;stroke:#FFFFFF;stroke-width:0.1624;" cx="236.987" cy="96.426" rx="0.167" ry="0.15"/>
				<path style="fill:none;stroke:#FFFFFF;stroke-width:0.1624;" d="M241.1,94.393c0,0.082,0.072,0.15,0.162,0.15
					c0.099,0,0.171-0.068,0.171-0.15c0-0.084-0.072-0.152-0.171-0.152C241.172,94.24,241.1,94.309,241.1,94.393z"/>
				<path style="fill:none;stroke:#FFFFFF;stroke-width:0.1624;" d="M236.792,94.088c0,0.084,0.072,0.152,0.167,0.152
					c0.09,0,0.163-0.068,0.163-0.152c0-0.082-0.073-0.15-0.163-0.15C236.864,93.938,236.792,94.006,236.792,94.088z"/>
				<path style="fill:none;stroke:#FFFFFF;stroke-width:0.1624;" d="M236.49,92.119c0,0.082,0.072,0.15,0.164,0.15
					c0.094,0,0.166-0.068,0.166-0.15c0-0.086-0.072-0.152-0.166-0.152C236.562,91.967,236.49,92.033,236.49,92.119z"/>
				<ellipse style="fill:none;stroke:#FFFFFF;stroke-width:0.1624;" cx="238.399" cy="91.92" rx="0.167" ry="0.152"/>
				<path style="fill:none;stroke:#FFFFFF;stroke-width:0.1624;" d="M239.915,95.361c0,0.086,0.075,0.156,0.168,0.156
					c0.09,0,0.167-0.07,0.167-0.156c0-0.082-0.077-0.15-0.167-0.15C239.99,95.211,239.915,95.279,239.915,95.361z"/>
				<path style="fill:none;stroke:#FFFFFF;stroke-width:0.1624;" d="M238.763,93.662c0,0.086,0.075,0.154,0.164,0.154
					c0.09,0,0.172-0.068,0.172-0.154c0-0.08-0.082-0.15-0.172-0.15C238.838,93.512,238.763,93.582,238.763,93.662z"/>
				<path style="fill:none;stroke:#FFFFFF;stroke-width:0.1624;" d="M237.58,95.18c0,0.086,0.072,0.154,0.166,0.154
					c0.092,0,0.165-0.068,0.165-0.154c0-0.082-0.073-0.15-0.165-0.15C237.652,95.029,237.58,95.098,237.58,95.18z"/>
				<path style="fill:none;stroke:#FFFFFF;stroke-width:0.1624;" d="M240.24,91.24c0,0.082,0.074,0.15,0.168,0.15
					c0.09,0,0.164-0.068,0.164-0.15c0-0.086-0.074-0.152-0.164-0.152C240.314,91.088,240.24,91.154,240.24,91.24z"/>
			</g>
			<path style="fill:none;stroke:#FFFFFF;stroke-width:0.1624;" d="M239.626,102.719c-0.081-0.02-0.164,0.037-0.186,0.127
				c-0.02,0.088,0.026,0.18,0.107,0.199c0.082,0.02,0.166-0.037,0.186-0.127C239.76,102.83,239.711,102.742,239.626,102.719z"/>
			<path style="fill:none;stroke:#FFFFFF;stroke-width:0.1624;" d="M234.839,101.117c-0.081-0.021-0.166,0.035-0.188,0.125
				c-0.023,0.088,0.025,0.178,0.106,0.197c0.081,0.021,0.165-0.035,0.187-0.127C234.964,101.225,234.92,101.137,234.839,101.117z"/>
			<path style="fill:none;stroke:#FFFFFF;stroke-width:0.1624;" d="M234.5,97.926c-0.081-0.023-0.165,0.033-0.186,0.123
				c-0.023,0.09,0.023,0.18,0.106,0.199c0.082,0.02,0.166-0.037,0.189-0.125C234.63,98.033,234.582,97.943,234.5,97.926z"/>
			<path style="fill:none;stroke:#FFFFFF;stroke-width:0.1624;" d="M235.474,99.68c-0.084-0.021-0.164,0.035-0.188,0.125
				s0.028,0.18,0.106,0.199c0.085,0.02,0.169-0.037,0.188-0.127C235.605,99.787,235.556,99.699,235.474,99.68z"/>
			<path style="fill:none;stroke:#FFFFFF;stroke-width:0.1624;" d="M234.673,93.885c-0.08-0.02-0.164,0.035-0.188,0.125
				c-0.023,0.088,0.029,0.178,0.109,0.201c0.078,0.018,0.163-0.039,0.184-0.129C234.798,93.992,234.755,93.906,234.673,93.885z"/>
			<path style="fill:none;stroke:#FFFFFF;stroke-width:0.1624;" d="M237.664,102.066c-0.078-0.021-0.159,0.033-0.182,0.123
				c-0.021,0.09,0.022,0.178,0.104,0.201c0.081,0.018,0.166-0.041,0.189-0.129C237.797,102.172,237.746,102.086,237.664,102.066z"/>
			<path style="fill:none;stroke:#FFFFFF;stroke-width:0.1624;" d="M234.355,91.258c-0.081-0.018-0.165,0.037-0.183,0.127
				c-0.022,0.09,0.023,0.18,0.104,0.199c0.084,0.02,0.166-0.037,0.188-0.127C234.486,91.367,234.437,91.279,234.355,91.258z"/>
			<path style="fill:none;stroke:#FFFFFF;stroke-width:0.1624;" d="M234.64,96.051c-0.085-0.02-0.166,0.037-0.187,0.127
				c-0.022,0.09,0.023,0.176,0.102,0.199c0.085,0.018,0.169-0.037,0.188-0.127C234.767,96.16,234.718,96.07,234.64,96.051z"/>
			<path style="fill:none;stroke:#FFFFFF;stroke-width:0.1624;" d="M240.757,99.873c-0.084-0.021-0.168,0.037-0.191,0.125
				s0.027,0.178,0.107,0.199c0.084,0.021,0.166-0.037,0.189-0.127C240.882,99.982,240.835,99.893,240.757,99.873z"/>
			<path style="fill:none;stroke:#FFFFFF;stroke-width:0.1624;" d="M237.005,100.684c-0.08-0.02-0.165,0.035-0.188,0.125
				c-0.021,0.09,0.028,0.178,0.113,0.199c0.075,0.018,0.162-0.037,0.187-0.127C237.138,100.791,237.089,100.703,237.005,100.684z"/>
			<path style="fill:none;stroke:#FFFFFF;stroke-width:0.1624;" d="M238.934,99.969c-0.081-0.02-0.165,0.037-0.188,0.129
				c-0.023,0.088,0.026,0.178,0.107,0.195c0.081,0.021,0.164-0.035,0.188-0.125C239.062,100.08,239.015,99.99,238.934,99.969z"/>
			<path style="fill:none;stroke:#FFFFFF;stroke-width:0.1624;" d="M236.759,98.998c-0.078-0.02-0.166,0.035-0.183,0.127
				c-0.024,0.09,0.023,0.178,0.104,0.197s0.164-0.037,0.188-0.123C236.89,99.107,236.843,99.018,236.759,98.998z"/>
			<path style="fill:none;stroke:#FFFFFF;stroke-width:0.1624;" d="M240.935,101.986c-0.078-0.023-0.162,0.035-0.186,0.123
				c-0.021,0.09,0.025,0.18,0.107,0.199c0.08,0.021,0.165-0.035,0.186-0.125C241.066,102.096,241.019,102.006,240.935,101.986z"/>
			<path style="fill:none;stroke:#A8D0DA;stroke-width:0.3679;stroke-linecap:round;stroke-linejoin:round;" d="M242.191,86.58
				c0.037,6.832,0.037,10.383,0.037,15.828c0,1.156-2.143,1.156-4.445,1.156c-2.241,0-4.637,0.045-4.637-1.074
				c0-4.457,0-11.475,0.041-15.91"/>
			
				<ellipse style="fill:none;stroke:#A8D0DA;stroke-width:0.3679;stroke-linecap:round;stroke-linejoin:round;" cx="237.689" cy="86.58" rx="4.502" ry="0.85"/>
			<path style="fill:none;stroke:#A8D0DA;stroke-width:0.2453;stroke-linecap:round;stroke-linejoin:round;" d="M242.228,91.756
				c-1.224-0.572-0.783,4.738-0.826,5.537c-0.1,2.006,0.075,4.145,0.084,5.943"/>
			<path style="fill:none;stroke:#A8D0DA;stroke-width:0.2453;stroke-linecap:round;stroke-linejoin:round;" d="M240.578,103.398
				c0-1.477-0.164-2.873-0.164-4.373c0-1.748,0.344-3.418-0.064-5.119c-0.104-0.434-0.311-1.877-0.995-1.82
				c-0.47,0.037-0.765,1.279-0.841,1.652c-0.354,1.822-0.096,4.002,0,5.859c0.064,1.26,0.166,2.809,0.166,3.885"/>
			<path style="fill:none;stroke:#A8D0DA;stroke-width:0.2453;stroke-linecap:round;stroke-linejoin:round;" d="M237.69,103.482
				c0-2-0.191-3.916-0.084-5.943c0.09-1.656,0.389-3.75-0.427-5.188c-1.615-0.465-1.227,9.898-1.227,11.131"/>
			<path style="fill:none;stroke:#A8D0DA;stroke-width:0.2453;stroke-linecap:round;stroke-linejoin:round;" d="M233.726,103.236
				c0-1.652-0.041-7.596,0.081-9.088c0.062-0.74,0.946-3.771,1.493-1.729c0.375,1.414,0.128,2.805-0.006,4.209
				c-0.215,2.203-0.234,4.777-0.248,6.77"/>
		</g>
	</g>
	<g>
		<path style="fill:none;stroke:#777768;stroke-width:1.3087;stroke-linecap:round;stroke-linejoin:round;" d="M275.148,91.531
			c0.111,0.318,0.267,0.625,0.443,0.914c0.161,0.273,0.475,0.531,0.482,0.858c-1.235-1.352-1.681-3.431-1.323-5.249
			c0.134-0.676,0.353-1.338,0.494-2.01c0.043-0.2,0.057-0.399,0.185-0.549c-0.005,0.096-0.015,0.174-0.037,0.27"/>
		<path style="fill:none;stroke:#777768;stroke-width:1.713;stroke-linecap:round;stroke-linejoin:round;" d="M295.692,44.213
			c-15.566,31.012-14.043,40.939-15.457,41.908"/>
		<path style="fill:none;stroke:#777768;stroke-width:1.3087;stroke-linecap:round;stroke-linejoin:round;" d="M282.893,87.328
			c0.44,1.357,1.627,2.011,1.95,2.846"/>
		<g>
			<path style="fill:#FCCF3D;" d="M275.152,97.822c0,1.053,2.538,1.053,4.541,1.053c2.002,0,4.345-0.149,4.354-1.053
				c0.011-0.9,0-12.596,0-12.596s-0.948,0.679-4.431,0.679c-3.485,0-4.464-0.679-4.464-0.679S275.152,96.768,275.152,97.822z"/>
			<path style="fill:#FFFFD9;" d="M275.157,84.982c0,0.152-0.022,0.643-0.022,1.162c0,0.481,2.848,0.679,4.464,0.679
				c1.485,0,3.266-0.306,4.073-0.509c0.517-0.131,0.357-1.156,0.357-1.332c0-0.439-1.982-0.801-4.437-0.801
				C277.144,84.181,275.157,84.542,275.157,84.982z"/>
			<g>
				<path style="fill:none;stroke:#FFFFFF;stroke-width:0.1591;" d="M283.1,87.873c0,0.08,0.077,0.148,0.168,0.148
					c0.088,0,0.161-0.068,0.161-0.148c0-0.085-0.073-0.147-0.161-0.147C283.177,87.726,283.1,87.788,283.1,87.873z"/>
				<path style="fill:none;stroke:#FFFFFF;stroke-width:0.1591;" d="M282.703,92.804c0,0.083,0.074,0.151,0.161,0.151
					c0.095,0,0.166-0.068,0.166-0.151c0-0.082-0.071-0.147-0.166-0.147C282.777,92.656,282.703,92.722,282.703,92.804z"/>
				<path style="fill:none;stroke:#FFFFFF;stroke-width:0.1591;" d="M279.747,93.871c0,0.086,0.07,0.154,0.161,0.154
					s0.165-0.068,0.165-0.154c0-0.078-0.074-0.146-0.165-0.146S279.747,93.793,279.747,93.871z"/>
				<path style="fill:none;stroke:#FFFFFF;stroke-width:0.1591;" d="M281.183,92.537c0,0.082,0.073,0.147,0.168,0.147
					c0.091,0,0.164-0.065,0.164-0.147c0-0.086-0.073-0.15-0.164-0.15C281.256,92.387,281.183,92.451,281.183,92.537z"/>
				<path style="fill:none;stroke:#FFFFFF;stroke-width:0.1591;" d="M278.75,91.884c0,0.079,0.073,0.147,0.164,0.147
					s0.162-0.068,0.162-0.147c0-0.085-0.071-0.151-0.162-0.151S278.75,91.799,278.75,91.884z"/>
				<path style="fill:none;stroke:#FFFFFF;stroke-width:0.1591;" d="M282.941,89.891c0,0.082,0.071,0.146,0.159,0.146
					c0.097,0,0.168-0.064,0.168-0.146c0-0.08-0.071-0.148-0.168-0.148C283.012,89.742,282.941,89.811,282.941,89.891z"/>
				<path style="fill:none;stroke:#FFFFFF;stroke-width:0.1591;" d="M278.72,89.595c0,0.079,0.071,0.147,0.166,0.147
					c0.088,0,0.159-0.068,0.159-0.147c0-0.083-0.071-0.147-0.159-0.147C278.792,89.447,278.72,89.512,278.72,89.595z"/>
				<ellipse style="fill:none;stroke:#FFFFFF;stroke-width:0.1591;" cx="278.587" cy="87.663" rx="0.162" ry="0.147"/>
				<ellipse style="fill:none;stroke:#FFFFFF;stroke-width:0.1591;" cx="280.296" cy="87.471" rx="0.163" ry="0.146"/>
				<path style="fill:none;stroke:#FFFFFF;stroke-width:0.1591;" d="M281.78,90.842c0,0.082,0.074,0.15,0.165,0.15
					c0.088,0,0.164-0.068,0.164-0.15c0-0.083-0.076-0.148-0.164-0.148C281.854,90.693,281.78,90.759,281.78,90.842z"/>
				<path style="fill:none;stroke:#FFFFFF;stroke-width:0.1591;" d="M280.653,89.178c0,0.082,0.073,0.15,0.161,0.15
					c0.089,0,0.168-0.068,0.168-0.15c0-0.08-0.079-0.148-0.168-0.148C280.726,89.029,280.653,89.098,280.653,89.178z"/>
				<path style="fill:none;stroke:#FFFFFF;stroke-width:0.1591;" d="M279.494,90.662c0,0.086,0.071,0.15,0.162,0.15
					s0.161-0.064,0.161-0.15c0-0.079-0.07-0.146-0.161-0.146S279.494,90.583,279.494,90.662z"/>
				<ellipse style="fill:none;stroke:#FFFFFF;stroke-width:0.1591;" cx="282.261" cy="86.803" rx="0.163" ry="0.147"/>
			</g>
			<path style="fill:none;stroke:#FFFFFF;stroke-width:0.1591;" d="M281.499,98.047c-0.079-0.021-0.162,0.036-0.182,0.124
				c-0.02,0.086,0.025,0.177,0.105,0.193c0.079,0.021,0.161-0.034,0.182-0.125C281.628,98.154,281.582,98.07,281.499,98.047z"/>
			<path style="fill:none;stroke:#FFFFFF;stroke-width:0.1591;" d="M276.809,96.479c-0.079-0.022-0.162,0.034-0.185,0.119
				c-0.022,0.089,0.026,0.177,0.105,0.196s0.162-0.037,0.182-0.125S276.889,96.495,276.809,96.479z"/>
			<path style="fill:none;stroke:#FFFFFF;stroke-width:0.1591;" d="M276.477,93.35c-0.08-0.021-0.161,0.033-0.181,0.125
				c-0.023,0.085,0.022,0.176,0.104,0.193c0.079,0.02,0.162-0.035,0.185-0.123C276.605,93.457,276.556,93.369,276.477,93.35z"/>
			<path style="fill:none;stroke:#FFFFFF;stroke-width:0.1591;" d="M277.431,95.07c-0.082-0.023-0.162,0.033-0.185,0.123
				c-0.022,0.087,0.029,0.172,0.105,0.194c0.082,0.018,0.165-0.036,0.185-0.125C277.559,95.176,277.511,95.088,277.431,95.07z"/>
			<path style="fill:none;stroke:#FFFFFF;stroke-width:0.1591;" d="M276.647,89.393c-0.079-0.02-0.161,0.037-0.184,0.123
				c-0.022,0.088,0.028,0.176,0.107,0.198c0.076,0.017,0.159-0.04,0.179-0.125C276.77,89.498,276.727,89.412,276.647,89.393z"/>
			<path style="fill:none;stroke:#FFFFFF;stroke-width:0.1591;" d="M279.576,97.404c-0.076-0.017-0.155,0.034-0.179,0.125
				c-0.021,0.086,0.023,0.17,0.103,0.193c0.08,0.02,0.161-0.037,0.184-0.125C279.707,97.513,279.656,97.428,279.576,97.404z"/>
			<path style="fill:none;stroke:#FFFFFF;stroke-width:0.1591;" d="M276.335,86.821c-0.08-0.019-0.162,0.036-0.179,0.124
				c-0.022,0.088,0.022,0.176,0.103,0.195c0.082,0.018,0.161-0.037,0.184-0.125C276.463,86.931,276.415,86.842,276.335,86.821z"/>
			<path style="fill:none;stroke:#FFFFFF;stroke-width:0.1591;" d="M276.613,91.515c-0.081-0.017-0.161,0.036-0.182,0.125
				c-0.022,0.087,0.023,0.173,0.101,0.192c0.081,0.02,0.164-0.033,0.184-0.122C276.738,91.623,276.691,91.537,276.613,91.515z"/>
			<path style="fill:none;stroke:#FFFFFF;stroke-width:0.1591;" d="M282.606,95.258c-0.083-0.02-0.164,0.037-0.187,0.125
				c-0.023,0.084,0.024,0.172,0.104,0.193c0.083,0.022,0.162-0.034,0.186-0.125C282.728,95.365,282.682,95.277,282.606,95.258z"/>
			<path style="fill:none;stroke:#FFFFFF;stroke-width:0.1591;" d="M278.931,96.053c-0.079-0.02-0.162,0.035-0.185,0.123
				c-0.02,0.087,0.029,0.173,0.11,0.195c0.074,0.017,0.159-0.037,0.182-0.125C279.062,96.158,279.013,96.07,278.931,96.053z"/>
			<path style="fill:none;stroke:#FFFFFF;stroke-width:0.1591;" d="M280.82,95.354c-0.079-0.022-0.162,0.034-0.185,0.125
				c-0.023,0.086,0.025,0.174,0.105,0.193c0.079,0.018,0.162-0.034,0.185-0.125C280.945,95.463,280.899,95.375,280.82,95.354z"/>
			<path style="fill:none;stroke:#FFFFFF;stroke-width:0.1591;" d="M278.69,94.4c-0.077-0.018-0.162,0.037-0.179,0.125
				c-0.023,0.088,0.022,0.176,0.102,0.193c0.08,0.022,0.163-0.035,0.186-0.12C278.818,94.508,278.772,94.422,278.69,94.4z"/>
			<path style="fill:none;stroke:#FFFFFF;stroke-width:0.1591;" d="M282.78,97.328c-0.077-0.02-0.159,0.037-0.182,0.121
				c-0.021,0.086,0.025,0.178,0.104,0.193c0.08,0.023,0.161-0.033,0.183-0.121C282.908,97.434,282.862,97.348,282.78,97.328z"/>
			<path style="fill:none;stroke:#A8D0DA;stroke-width:0.3603;stroke-linecap:round;stroke-linejoin:round;" d="M284.009,82.24
				c0.037,6.689,0.037,10.166,0.037,15.502c0,1.133-2.1,1.133-4.354,1.133c-2.196,0-4.541,0.043-4.541-1.053
				c0-4.365,0-11.238,0.039-15.582"/>
			
				<ellipse style="fill:none;stroke:#A8D0DA;stroke-width:0.3603;stroke-linecap:round;stroke-linejoin:round;" cx="279.6" cy="82.24" rx="4.409" ry="0.832"/>
			<path style="fill:none;stroke:#A8D0DA;stroke-width:0.2402;stroke-linecap:round;stroke-linejoin:round;" d="M284.046,87.309
				c-1.198-0.56-0.767,4.641-0.811,5.424c-0.096,1.963,0.074,4.059,0.083,5.82"/>
			<path style="fill:none;stroke:#A8D0DA;stroke-width:0.2402;stroke-linecap:round;stroke-linejoin:round;" d="M282.43,98.711
				c0-1.445-0.162-2.812-0.162-4.283c0-1.712,0.338-3.348-0.062-5.016c-0.102-0.422-0.304-1.837-0.974-1.783
				c-0.461,0.04-0.75,1.256-0.824,1.622c-0.346,1.786-0.093,3.919,0,5.739c0.062,1.233,0.162,2.75,0.162,3.804"/>
			<path style="fill:none;stroke:#A8D0DA;stroke-width:0.2402;stroke-linecap:round;stroke-linejoin:round;" d="M279.602,98.794
				c0-1.958-0.188-3.838-0.083-5.819c0.088-1.625,0.38-3.676-0.417-5.084c-1.583-0.455-1.201,9.695-1.201,10.903"/>
			<path style="fill:none;stroke:#A8D0DA;stroke-width:0.2402;stroke-linecap:round;stroke-linejoin:round;" d="M275.718,98.553
				c0-1.619-0.039-7.441,0.08-8.901c0.06-0.728,0.927-3.692,1.463-1.692c0.366,1.386,0.125,2.746-0.006,4.123
				c-0.21,2.158-0.229,4.681-0.244,6.629"/>
		</g>
		<path style="fill:none;stroke:#777768;stroke-width:1.3087;stroke-linecap:round;stroke-linejoin:round;" d="M284.843,90.174
			c0,0.693-0.161,1.113-0.502,1.865c-0.564,1.242-2.743,4.003-5.374,3.272"/>
		<path style="fill:none;stroke:#777768;stroke-width:1.3087;stroke-linecap:round;stroke-linejoin:round;" d="M277.255,92.355
			c-0.724-0.523-1.189-1.293-1.852-2.283c-0.198-0.299-0.61-0.952-0.744-1.35c-0.31,0.42,0.329,1.32,0.323,1.85
			c-0.005,0.332,0.893,4.52,1,4.827"/>
		<path style="fill:none;stroke:#777768;stroke-width:1.3087;stroke-linecap:round;stroke-linejoin:round;" d="M274.668,88.311
			c0.591,0.301,1.014,0.529,1.724,0.594c0.56,0.051,1.366,0.071,1.82-0.23"/>
	</g>
	<path style="fill:none;stroke:#777768;stroke-width:1.713;stroke-linecap:round;stroke-linejoin:round;" d="M232.258,96.45
		c0.518,1.435,2.685,2.865,3.887,2.636"/>
	<path style="fill:none;stroke:#777768;stroke-width:1.713;stroke-linecap:round;stroke-linejoin:round;" d="M241.161,99.772
		c1.371-1.305,1.066-1.744,1.615-2.836c-0.283,0.574-2.341-0.222-2.739,0.403c0.461-0.844,2.26-1.912,2.411-2.871
		c-0.453,0.725-1.821-0.529-2.526-0.287c0.729-0.631,1.845-1.964,2.306-2.426"/>
</g>
</svg>
