<?xml version="1.0" encoding="iso-8859-1"?>
<!-- Generator: Adobe Illustrator 15.0.2, SVG Export Plug-In . SVG Version: 6.00 Build 0)  -->
<!DOCTYPE svg PUBLIC "-//W3C//DTD SVG 1.1//EN" "http://www.w3.org/Graphics/SVG/1.1/DTD/svg11.dtd">
<svg version="1.1" xmlns="http://www.w3.org/2000/svg" xmlns:xlink="http://www.w3.org/1999/xlink" x="0px" y="0px" width="378px"
	 height="140px" viewBox="0 0 378 140" style="enable-background:new 0 0 378 140;" xml:space="preserve">
<g id="Layer_2">
	<g>
		<rect style="fill:none;" width="378" height="140"/>
		<rect style="fill:#FFFFFF;" width="378" height="140"/>
	</g>
</g>
<g id="Layer_3">
	<g>
		<g>
			<path style="fill:#FFFFFF;stroke:#999999;stroke-width:2.0862;" d="M335.96,71.138c0,34.046-65.134,61.647-145.481,61.647
				C110.134,132.785,45,105.184,45,71.138C45,37.093,110.134,9.5,190.479,9.5C270.826,9.5,335.96,37.093,335.96,71.138z"/>
			<ellipse style="fill:#FFFFFF;stroke:#999999;stroke-width:1.4961;" cx="190.48" cy="68.435" rx="104.324" ry="44.207"/>
		</g>
	</g>
</g>
<g id="Layer_28">
	<g>
		<path style="fill:#84847B;" d="M238.862,18.89c1.58,1.133,9.278,10.569,12.483,17.463c2.606,5.614,7.57,19.981-20.908,21.665
			c-20.702,1.227-30.232-12.294-30.576-18.45c-0.378-6.822,2.382-14.837,18.814-19.935C232.095,15.471,237.066,17.599,238.862,18.89
			z"/>
		<path style="fill:#6D6854;" d="M218.539,19.823c13.321-3.804,18.39-2.033,20.187-0.745c1.579,1.134,9.69,10.123,12.48,17.463
			l1.691,4.035c1.325,8.056-17.644,16.968-35.663,10.468c-17.392-6.274-14.868-21.898-10.413-25.715
			C206.821,25.33,209.648,22.362,218.539,19.823z"/>
		<path style="fill:#898983;" d="M210.103,23.154c2.671-1.431,4.565-2.277,8.573-3.521c13.419-4.163,18.391-2.034,20.187-0.744
			c1.58,1.133,9.278,10.569,12.483,17.463l0.336,0.752c-1.601,9.537-15.918,15.868-33.275,8.673
			c-13.547-5.617-11.578-19.119-8.412-22.563L210.103,23.154z"/>
		<path style="fill:#605A49;" d="M212.301,22.049c1.989-0.964,3.707-1.589,6.375-2.416c13.419-4.163,18.391-2.034,20.187-0.744
			c1.877,1.345,8.04,8.966,10.954,14.712l0.283,0.447c-1.45,7.874-12.065,15.226-29.027,8.042
			C207.671,36.415,210.14,25.625,212.301,22.049"/>
		<path style="fill:#726554;" d="M248.707,31.67c-0.997,4.33-6.128,10.155-20.466,7.889c-15.052-2.38-15.199-13.373-13.206-18.666
			c1.414-0.583,1.947-0.734,3.641-1.259c13.419-4.163,18.391-2.034,20.187-0.744c1.594,1.143,7.116,8.25,10.53,13.885L248.707,31.67
			z"/>
		<path style="fill:#99918F;" d="M247.802,30.267c-0.976,1.495-4.57,4.98-16.535,3.726C216.622,32.457,216.4,23.7,216.912,20.209v0
			c0.57-0.196,1.157-0.389,1.764-0.576c13.419-4.163,18.391-2.034,20.187-0.744C240.228,19.867,244.469,25.213,247.802,30.267
			L247.802,30.267z"/>
		<path style="fill:#666666;" d="M220.095,19.207c0.054,2.426,1.269,10.163,14.508,11.164c7.231,0.546,10.56-0.702,12.062-1.786
			L246.6,28.49c-3.085-4.468-6.533-8.738-7.737-9.601C237.13,17.646,232.449,15.623,220.095,19.207z"/>
		<path style="fill:#7C5C4E;" d="M244.685,25.801c-1.915,0.671-7.327,2.118-13.864-0.092c-5.957-2.013-7.738-5.45-8.265-7.168
			l0.026-0.007c10.509-2.631,14.668-0.799,16.28,0.356c0.957,0.686,3.337,3.53,5.822,6.914V25.801z"/>
		<path style="fill:#7F6955;" d="M242.408,22.818c-1.526,0.329-3.826,0.497-7.154,0.033c-5.471-0.761-8.351-3.554-9.512-5.012
			l0.02-0.006c8.196-1.543,11.662,0.025,13.101,1.058c0.653,0.467,1.965,1.936,3.52,3.894L242.408,22.818z"/>
	</g>
	<g>
		<path style="fill:#84847B;" d="M206.312,25.949c0.745,1.796,2.312,13.874,1.398,21.419c-0.745,6.145-4.103,20.97-29.188,7.387
			c-18.237-9.875-19.206-26.387-16.252-31.798c3.276-5.996,9.847-11.351,26.496-7.021C202.361,19.476,205.463,23.904,206.312,25.949
			z"/>
		<path style="fill:#6D6854;" d="M188.551,16.027c13.323,3.792,16.695,7.967,17.545,10.011c0.746,1.796,2.896,13.71,1.396,21.419
			l-0.688,4.319c-3.123,7.544-23.939,5.116-35.824-9.908c-11.469-14.501-1.088-26.447,4.71-27.341
			C175.69,14.528,179.658,13.496,188.551,16.027z"/>
		<path style="fill:#898983;" d="M179.625,14.41c3.022,0.191,5.079,0.471,9.14,1.527c13.596,3.539,16.697,7.968,17.546,10.013
			c0.745,1.796,2.312,13.874,1.398,21.419l-0.11,0.817c-6.387,7.261-21.89,5.092-32.848-10.173
			c-8.549-11.917,0.244-22.352,4.749-23.608L179.625,14.41z"/>
		<path style="fill:#605A49;" d="M182.077,14.629c2.2,0.231,3.987,0.605,6.689,1.308c13.596,3.539,16.697,7.968,17.546,10.013
			c0.885,2.133,2.103,11.858,1.552,18.277l0.002,0.528c-5.383,5.926-18.277,6.578-28.903-8.471
			C170.569,24.395,178.354,16.529,182.077,14.629"/>
		<path style="fill:#726554;" d="M207.938,41.999c-3.132,3.154-10.563,5.398-21.55-4.087c-11.535-9.958-5.864-19.376-1.38-22.824
			c1.512,0.25,2.04,0.403,3.757,0.849c13.596,3.539,16.697,7.968,17.546,10.013c0.751,1.812,1.696,10.762,1.625,17.351
			L207.938,41.999z"/>
		<path style="fill:#99918F;" d="M207.908,40.329c-1.618,0.757-6.51,1.823-16.015-5.552c-11.631-9.024-7.205-16.583-4.929-19.28l0,0
			c0.585,0.134,1.188,0.281,1.801,0.439c13.596,3.539,16.697,7.968,17.546,10.013c0.644,1.55,1.427,8.329,1.595,14.381
			L207.908,40.329z"/>
		<path style="fill:#666666;" d="M190.196,16.324c-1.232,2.09-4.28,9.305,6.443,17.134c5.856,4.277,9.342,4.971,11.19,4.843
			l-0.005-0.114c-0.267-5.423-0.946-10.87-1.514-12.238C205.494,23.979,202.584,19.792,190.196,16.324z"/>
		<path style="fill:#7C5C4E;" d="M207.614,34.892c-1.98-0.438-7.344-2.063-11.732-7.387c-3.999-4.853-3.701-8.711-3.242-10.45
			l0.025,0.008c10.317,3.304,12.887,7.054,13.646,8.886c0.451,1.088,0.975,4.76,1.302,8.945L207.614,34.892z"/>
		<path style="fill:#7F6955;" d="M207.253,31.157c-1.47-0.525-3.512-1.595-6.097-3.745c-4.247-3.531-5.222-7.423-5.438-9.274
			l0.019,0.005c7.775,3.01,9.896,6.17,10.574,7.806c0.306,0.742,0.646,2.681,0.938,5.165L207.253,31.157z"/>
	</g>
	<g>
		<path style="fill:#84847B;" d="M218.57,27.094c1.919,0.32,12.991,5.392,18.906,10.166c4.818,3.889,15.609,14.591-9.203,28.667
			c-18.037,10.234-32.555,2.305-35.579-3.068c-3.349-5.956-4.408-14.366,8.089-26.191C210.988,27.013,216.391,26.73,218.57,27.094z"
			/>
		<path style="fill:#6D6854;" d="M200.744,36.898c10.279-9.291,15.605-9.938,17.788-9.574c1.92,0.32,13.161,4.81,18.905,10.166
			l3.298,2.875c4.743,6.645-8.348,23.011-27.387,25.128c-18.376,2.042-23.003-13.091-20.69-18.483
			C192.658,47.01,193.886,43.099,200.744,36.898z"/>
		<path style="fill:#898983;" d="M194.645,43.61c1.765-2.463,3.09-4.057,6.139-6.943c10.205-9.654,15.607-9.937,17.787-9.573
			c1.919,0.32,12.991,5.392,18.906,10.166l0.636,0.527c2.771,9.265-7.283,21.262-26.037,22.464
			c-14.635,0.936-18.825-12.051-17.501-16.539L194.645,43.61z"/>
		<path style="fill:#605A49;" d="M196.129,41.647c1.361-1.743,2.626-3.062,4.654-4.98c10.205-9.654,15.607-9.937,17.787-9.573
			c2.279,0.38,11.173,4.501,16.323,8.372l0.448,0.277c2.173,7.706-4.106,18.986-22.499,20.022
			C198.312,56.582,195.766,45.811,196.129,41.647"/>
		<path style="fill:#726554;" d="M233.044,34.221c1.017,4.326-1.019,11.818-14.884,16.108c-14.558,4.505-19.542-5.294-20.087-10.925
			c1.011-1.147,1.423-1.516,2.71-2.737c10.205-9.654,15.607-9.937,17.787-9.573c1.936,0.324,10.026,4.265,15.575,7.818
			L233.044,34.221z"/>
		<path style="fill:#99918F;" d="M231.612,33.362c-0.215,1.771-1.903,6.485-13.193,10.638c-13.818,5.081-17.881-2.679-18.963-6.038
			v0.001c0.425-0.428,0.868-0.86,1.327-1.296c10.205-9.654,15.607-9.937,17.787-9.573C220.229,27.371,226.393,30.298,231.612,33.362
			L231.612,33.362z"/>
		<path style="fill:#666666;" d="M201.87,35.659c1.119,2.154,5.622,8.561,17.944,3.618c6.731-2.7,9.165-5.288,10.035-6.924
			l-0.099-0.056c-4.737-2.649-9.717-4.959-11.181-5.204C216.469,26.743,211.374,26.993,201.87,35.659z"/>
		<path style="fill:#7C5C4E;" d="M226.847,30.729c-1.422,1.446-5.643,5.134-12.482,6.035c-6.235,0.82-9.349-1.477-10.581-2.788
			l0.021-0.018c8.269-6.997,12.811-7.19,14.766-6.864c1.163,0.195,4.555,1.696,8.277,3.638L226.847,30.729z"/>
		<path style="fill:#7F6955;" d="M223.486,29.057c-1.224,0.968-3.213,2.133-6.405,3.185c-5.245,1.73-9.062,0.494-10.746-0.302
			l0.014-0.016c6.674-5,10.476-5.121,12.222-4.831c0.793,0.133,2.618,0.872,4.877,1.943L223.486,29.057z"/>
	</g>
	<g>
		<path style="fill-rule:evenodd;clip-rule:evenodd;fill:#2A2320;stroke:#777768;stroke-width:0.3842;" d="M139.552,88.008
			c1.42-1.453,26.415-15.009,47.305-14.847c9.785,0.078,17.336,3.86,17.518,15.029c0.262,16.142-28.069,19.826-37.502,17.215
			c-7.019-1.944-16.864-7.979-21.309-10.629C140.826,91.95,138.278,89.308,139.552,88.008z"/>
		<path style="fill-rule:evenodd;clip-rule:evenodd;fill:#2A2320;stroke:#777768;stroke-width:0.3842;" d="M139.493,88.195
			c1.15-1.173,21.397-12.154,38.314-12.023c7.928,0.062,14.046,3.126,14.193,12.172c0.213,13.076-22.737,16.062-30.378,13.944
			c-5.686-1.574-13.66-6.462-17.262-8.609C140.524,91.392,138.459,89.249,139.493,88.195z"/>
		<path style="fill-rule:evenodd;clip-rule:evenodd;fill:#2A2320;stroke:#777768;stroke-width:0.3842;" d="M139.445,88.35
			c0.932-0.951,17.33-9.846,31.036-9.739c6.421,0.05,11.375,2.532,11.496,9.859c0.169,10.59-18.419,13.009-24.607,11.296
			c-4.604-1.276-11.065-5.236-13.98-6.974C140.28,90.938,138.609,89.203,139.445,88.35z"/>
		<path style="fill-rule:evenodd;clip-rule:evenodd;fill:#2A2320;stroke:#777768;stroke-width:0.3842;" d="M139.405,88.473
			c0.756-0.77,14.039-7.975,25.139-7.888c5.203,0.042,9.216,2.051,9.311,7.984c0.139,8.579-14.917,10.54-19.93,9.151
			c-3.729-1.033-8.962-4.242-11.324-5.648C140.083,90.57,138.73,89.166,139.405,88.473z"/>
		<path style="fill-rule:evenodd;clip-rule:evenodd;fill:#2A2320;stroke:#777768;stroke-width:0.3842;" d="M139.375,88.574
			c0.61-0.624,11.369-6.461,20.363-6.39c4.212,0.033,7.464,1.66,7.541,6.469c0.112,6.95-12.083,8.535-16.145,7.412
			c-3.02-0.836-7.257-3.437-9.17-4.575C139.923,90.272,138.827,89.135,139.375,88.574z"/>
		<path style="fill-rule:evenodd;clip-rule:evenodd;fill:#2A2320;stroke:#777768;stroke-width:0.3842;" d="M139.349,88.656
			c0.496-0.506,9.212-5.232,16.495-5.176c3.412,0.026,6.045,1.345,6.108,5.239c0.091,5.629-9.787,6.914-13.075,6.003
			c-2.449-0.679-5.881-2.782-7.431-3.707C139.794,90.031,138.906,89.111,139.349,88.656z"/>
		<path style="fill-rule:evenodd;clip-rule:evenodd;fill:#2A2320;stroke:#777768;stroke-width:0.3842;" d="M139.33,88.722
			c0.401-0.411,7.46-4.238,13.359-4.192c2.764,0.023,4.898,1.09,4.949,4.247c0.073,4.556-7.928,5.597-10.591,4.859
			c-1.985-0.549-4.763-2.253-6.019-3.003C139.689,89.837,138.969,89.091,139.33,88.722z"/>
		<path style="fill-rule:evenodd;clip-rule:evenodd;fill:#2A2320;stroke:#777768;stroke-width:0.3842;" d="M139.312,88.776
			c0.325-0.333,6.042-3.436,10.821-3.397c2.239,0.019,3.967,0.883,4.008,3.439c0.059,3.693-6.423,4.535-8.58,3.938
			c-1.606-0.446-3.858-1.827-4.873-2.433C139.603,89.678,139.021,89.072,139.312,88.776z"/>
	</g>
	<g>
		<path style="fill-rule:evenodd;clip-rule:evenodd;fill:#2A2320;stroke:#777768;stroke-width:0.3842;" d="M218.404,95.275
			c-1.803-0.938-29.776-6.027-49.573,0.635c-9.276,3.123-15.273,9.07-11.966,19.738c4.785,15.42,32.853,10.095,41.001,4.673
			c6.063-4.034,13.538-12.838,16.936-16.741C218.424,99.42,220.021,96.115,218.404,95.275z"/>
		<path style="fill-rule:evenodd;clip-rule:evenodd;fill:#2A2320;stroke:#777768;stroke-width:0.3842;" d="M218.52,95.438
			c-1.46-0.758-24.119-4.882-40.152,0.514c-7.516,2.532-12.372,7.348-9.693,15.988c3.873,12.492,26.609,8.178,33.209,3.784
			c4.912-3.268,10.966-10.398,13.72-13.561C218.535,98.794,219.83,96.115,218.52,95.438z"/>
		<path style="fill-rule:evenodd;clip-rule:evenodd;fill:#2A2320;stroke:#777768;stroke-width:0.3842;" d="M218.612,95.568
			c-1.182-0.613-19.535-3.955-32.525,0.417c-6.084,2.049-10.018,5.949-7.85,12.952c3.141,10.114,21.555,6.62,26.902,3.063
			c3.978-2.647,8.881-8.422,11.109-10.983C218.624,98.288,219.673,96.119,218.612,95.568z"/>
		<path style="fill-rule:evenodd;clip-rule:evenodd;fill:#2A2320;stroke:#777768;stroke-width:0.3842;" d="M218.689,95.673
			c-0.958-0.495-15.825-3.204-26.346,0.338c-4.931,1.661-8.118,4.819-6.358,10.49c2.54,8.194,17.458,5.364,21.788,2.483
			c3.224-2.145,7.195-6.823,9-8.896C218.697,97.876,219.547,96.123,218.689,95.673z"/>
		<path style="fill-rule:evenodd;clip-rule:evenodd;fill:#2A2320;stroke:#777768;stroke-width:0.3842;" d="M218.748,95.76
			c-0.775-0.402-12.816-2.595-21.339,0.273c-3.993,1.344-6.574,3.904-5.148,8.497c2.058,6.64,14.14,4.346,17.647,2.012
			c2.61-1.737,5.827-5.525,7.289-7.205C218.759,97.544,219.444,96.123,218.748,95.76z"/>
		<path style="fill-rule:evenodd;clip-rule:evenodd;fill:#2A2320;stroke:#777768;stroke-width:0.3842;" d="M218.799,95.828
			c-0.628-0.325-10.383-2.101-17.286,0.223c-3.232,1.089-5.324,3.162-4.171,6.883c1.668,5.377,11.455,3.52,14.295,1.629
			c2.114-1.406,4.723-4.476,5.906-5.836C218.805,97.273,219.363,96.124,218.799,95.828z"/>
		<path style="fill-rule:evenodd;clip-rule:evenodd;fill:#2A2320;stroke:#777768;stroke-width:0.3842;" d="M218.838,95.885
			c-0.508-0.264-8.409-1.702-14.001,0.181c-2.617,0.883-4.314,2.562-3.378,5.574c1.35,4.354,9.278,2.853,11.579,1.319
			c1.714-1.141,3.823-3.625,4.784-4.728C218.846,97.058,219.296,96.123,218.838,95.885z"/>
		<path style="fill-rule:evenodd;clip-rule:evenodd;fill:#2A2320;stroke:#777768;stroke-width:0.3842;" d="M218.871,95.933
			c-0.41-0.217-6.812-1.382-11.341,0.144c-2.12,0.715-3.494,2.074-2.736,4.518c1.095,3.526,7.516,2.307,9.38,1.067
			c1.388-0.924,3.098-2.938,3.873-3.83C218.876,96.88,219.241,96.122,218.871,95.933z"/>
	</g>
	<g>
		<path style="fill-rule:evenodd;clip-rule:evenodd;fill:#2A2320;stroke:#777768;stroke-width:0.3842;" d="M257.459,97.295
			c-1.724,1.075-29.219,8.324-49.473,3.217c-9.49-2.393-15.932-7.855-13.461-18.746c3.57-15.748,31.967-12.617,40.513-7.846
			c6.358,3.552,14.494,11.748,18.185,15.377C257.156,93.162,259.006,96.332,257.459,97.295z"/>
		<path style="fill-rule:evenodd;clip-rule:evenodd;fill:#2A2320;stroke:#777768;stroke-width:0.3842;" d="M257.561,97.127
			c-1.396,0.867-23.667,6.738-40.072,2.604c-7.688-1.937-12.903-6.363-10.905-15.186c2.892-12.756,25.895-10.219,32.816-6.354
			c5.151,2.879,11.74,9.519,14.731,12.455C257.316,93.776,258.814,96.347,257.561,97.127z"/>
		<path style="fill-rule:evenodd;clip-rule:evenodd;fill:#2A2320;stroke:#777768;stroke-width:0.3842;" d="M257.646,96.986
			c-1.133,0.706-19.171,5.463-32.461,2.113c-6.227-1.57-10.45-5.156-8.832-12.303c2.343-10.329,20.974-8.276,26.581-5.146
			c4.172,2.332,9.512,7.708,11.932,10.089C257.445,94.275,258.658,96.356,257.646,96.986z"/>
		<path style="fill-rule:evenodd;clip-rule:evenodd;fill:#2A2320;stroke:#777768;stroke-width:0.3842;" d="M257.713,96.877
			c-0.917,0.569-15.527,4.424-26.293,1.71c-5.045-1.274-8.469-4.176-7.154-9.966c1.897-8.365,16.988-6.703,21.531-4.168
			c3.378,1.888,7.703,6.244,9.663,8.171C257.549,94.68,258.532,96.362,257.713,96.877z"/>
		<path style="fill-rule:evenodd;clip-rule:evenodd;fill:#2A2320;stroke:#777768;stroke-width:0.3842;" d="M257.767,96.786
			c-0.741,0.46-12.579,3.582-21.298,1.384c-4.085-1.028-6.86-3.381-5.793-8.07c1.537-6.776,13.762-5.431,17.439-3.376
			c2.734,1.526,6.236,5.056,7.825,6.617C257.635,95.006,258.432,96.371,257.767,96.786z"/>
		<path style="fill-rule:evenodd;clip-rule:evenodd;fill:#2A2320;stroke:#777768;stroke-width:0.3842;" d="M257.812,96.713
			c-0.603,0.373-10.19,2.9-17.254,1.122c-3.308-0.833-5.554-2.739-4.69-6.538c1.243-5.489,11.146-4.398,14.124-2.735
			c2.218,1.239,5.054,4.097,6.341,5.362C257.703,95.271,258.349,96.376,257.812,96.713z"/>
	</g>
	<g>
		<path style="fill-rule:evenodd;clip-rule:evenodd;fill:#2A2320;stroke:#777768;stroke-width:0.3842;" d="M207.435,103.7
			c1.581-1.276,27.989-11.816,48.718-9.212c9.707,1.221,16.764,5.857,15.639,16.972c-1.628,16.063-30.195,16.41-39.258,12.714
			c-6.743-2.752-15.815-9.896-19.918-13.049C208.238,107.766,206.017,104.843,207.435,103.7z"/>
		<path style="fill-rule:evenodd;clip-rule:evenodd;fill:#2A2320;stroke:#777768;stroke-width:0.3842;" d="M207.354,103.879
			c1.28-1.03,22.671-9.568,39.456-7.46c7.868,0.988,13.586,4.747,12.674,13.749c-1.318,13.01-24.459,13.293-31.8,10.296
			c-5.462-2.228-12.812-8.017-16.138-10.569C208.006,107.174,206.203,104.807,207.354,103.879z"/>
		<path style="fill-rule:evenodd;clip-rule:evenodd;fill:#2A2320;stroke:#777768;stroke-width:0.3842;" d="M207.289,104.029
			c1.037-0.838,18.361-7.754,31.961-6.045c6.373,0.801,11.002,3.844,10.264,11.135c-1.068,10.538-19.812,10.768-25.758,8.342
			c-4.424-1.807-10.377-6.492-13.07-8.562C207.816,106.697,206.359,104.777,207.289,104.029z"/>
		<path style="fill-rule:evenodd;clip-rule:evenodd;fill:#2A2320;stroke:#777768;stroke-width:0.3842;" d="M207.234,104.146
			c0.842-0.676,14.873-6.279,25.891-4.896c5.159,0.65,8.912,3.116,8.312,9.021c-0.867,8.535-16.047,8.721-20.864,6.756
			c-3.583-1.463-8.404-5.26-10.585-6.934C207.663,106.307,206.482,104.756,207.234,104.146z"/>
		<path style="fill-rule:evenodd;clip-rule:evenodd;fill:#2A2320;stroke:#777768;stroke-width:0.3842;" d="M207.193,104.241
			c0.68-0.548,12.047-5.085,20.971-3.964c4.179,0.525,7.217,2.521,6.732,7.307c-0.701,6.916-12.998,7.064-16.9,5.472
			c-2.9-1.185-6.807-4.26-8.572-5.615C207.538,105.994,206.582,104.736,207.193,104.241z"/>
		<path style="fill-rule:evenodd;clip-rule:evenodd;fill:#2A2320;stroke:#777768;stroke-width:0.3842;" d="M207.158,104.32
			c0.553-0.445,9.76-4.118,16.986-3.212c3.385,0.425,5.848,2.044,5.453,5.918c-0.567,5.601-10.529,5.723-13.688,4.433
			c-2.354-0.959-5.515-3.449-6.947-4.549C207.439,105.738,206.664,104.721,207.158,104.32z"/>
		<path style="fill-rule:evenodd;clip-rule:evenodd;fill:#2A2320;stroke:#777768;stroke-width:0.3842;" d="M207.129,104.382
			c0.449-0.359,7.906-3.334,13.76-2.6c2.741,0.347,4.738,1.655,4.418,4.794c-0.461,4.536-8.529,4.635-11.087,3.59
			c-1.907-0.777-4.467-2.793-5.626-3.686C207.357,105.533,206.73,104.707,207.129,104.382z"/>
		<path style="fill-rule:evenodd;clip-rule:evenodd;fill:#2A2320;stroke:#777768;stroke-width:0.3842;" d="M207.107,104.436
			c0.361-0.294,6.402-2.705,11.145-2.107c2.22,0.277,3.834,1.34,3.578,3.884c-0.373,3.673-6.908,3.753-8.981,2.906
			c-1.542-0.628-3.62-2.264-4.557-2.985C207.289,105.366,206.782,104.695,207.107,104.436z"/>
	</g>
	<g>
		
			<path style="fill-rule:evenodd;clip-rule:evenodd;fill:#CCCC99;stroke:#777768;stroke-width:0.3842;stroke-linecap:round;stroke-linejoin:round;" d="
			M262.716,50.78l8.419,8.649l3.085,1.329l1.082,0.546c0,0,3.15,1.18,5.636,0.283c2.483-0.897,6.341-7.087,7.308-9.635
			c0.968-2.547,0.738-9.057,0.738-9.057l-8.162-8.772l-4.82-2.081l-4.832,1.201l-4.396,8.787L262.716,50.78z"/>
		
			<path style="fill-rule:evenodd;clip-rule:evenodd;fill:#FFFFFF;stroke:#000000;stroke-width:0.2305;stroke-linecap:round;stroke-linejoin:round;" d="
			M271.646,35.509c0,0,8.012-0.427,12.41,4.114c4.397,4.542,5.755,14.368-2.859,16.348c-3.462,0.798-5.175-1.36-6.765-3.003
			c-1.592-1.643-2.181-4.183-2.497-10.067C271.735,39.215,271.646,35.509,271.646,35.509z"/>
		
			<path style="opacity:0.3;fill-rule:evenodd;clip-rule:evenodd;fill:#663300;stroke:#000000;stroke-width:0.2305;stroke-linecap:round;stroke-linejoin:round;" d="
			M271.646,35.509c0,0,8.012-0.427,12.41,4.114c4.397,4.542,5.755,14.368-2.859,16.348c-3.462,0.798-5.175-1.36-6.765-3.003
			c-1.592-1.643-2.979-5.368-2.205-11.232C272.731,37.907,271.646,35.509,271.646,35.509z"/>
		
			<path style="opacity:0.6;fill-rule:evenodd;clip-rule:evenodd;fill:#663300;stroke:#000000;stroke-width:0.2305;stroke-linecap:round;stroke-linejoin:round;" d="
			M271.646,35.509c0,0,5.126-0.274,7.942,2.635c2.813,2.904,3.683,9.191-1.829,10.46c-2.219,0.509-3.313-0.871-4.329-1.922
			c-1.021-1.053-1.91-3.437-1.413-7.19C272.34,37.043,271.646,35.509,271.646,35.509z"/>
		
			<path style="opacity:0.9;fill-rule:evenodd;clip-rule:evenodd;fill:#723703;stroke:#000000;stroke-width:0.2305;stroke-linecap:round;stroke-linejoin:round;" d="
			M271.646,35.509c0,0,3.279-0.175,5.082,1.686c1.803,1.859,2.357,5.885-1.171,6.694c-1.418,0.327-2.119-0.557-2.771-1.229
			c-0.652-0.675-1.222-2.199-0.902-4.601C272.089,36.491,271.646,35.509,271.646,35.509z"/>
		
			<path style="opacity:0.8;fill-rule:evenodd;clip-rule:evenodd;fill:#422002;stroke:#000000;stroke-width:0.2305;stroke-linecap:round;stroke-linejoin:round;" d="
			M271.646,35.509c0,0,2.1-0.112,3.253,1.077c1.151,1.19,1.508,3.767-0.75,4.287c-0.908,0.208-1.358-0.356-1.773-0.788
			c-0.418-0.43-0.78-1.409-0.577-2.945C271.929,36.136,271.646,35.509,271.646,35.509z"/>
		
			<path style="fill-rule:evenodd;clip-rule:evenodd;fill:#663300;stroke:#777768;stroke-width:0.3842;stroke-linecap:round;stroke-linejoin:round;" d="
			M275.648,30.186c0,0,1.981-0.159,4.642,1.16c2.661,1.321,10.651,4.897,9.39,15.991c-0.422,3.711-1.519,4.828-1.519,4.828
			c2.307-12.544-5.014-15.728-11.049-17.804c-7.021-2.417-7.625,1.602-7.625,1.602l0.084-5.364L275.648,30.186z"/>
		
			<path style="fill-rule:evenodd;clip-rule:evenodd;fill:#663300;stroke:#777768;stroke-width:0.3842;stroke-linecap:round;stroke-linejoin:round;" d="
			M278.6,30.659c0,0-3.191-0.179-4.141,1.915c-0.709,1.561-0.276,2.681-0.122,3.661c0.14,0.886,0.978,2.697-1.395,7.323
			c-2.373,4.623-6.305,6.859-5.652,9.873c0.655,3.011,1.799,3.414,4.454,5.116c2.655,1.703,3.959,2.891,3.959,2.891
			s-15.568-2.802-20.793-8.653c-5.173-5.799-8.454-17.129,1.212-23.861c6.616-4.607,13.438-6.123,18.509-3.117
			C278.321,27.994,278.6,30.659,278.6,30.659z"/>
		
			<path style="fill-rule:evenodd;clip-rule:evenodd;fill:#663300;stroke:#777768;stroke-width:0.3842;stroke-linecap:round;stroke-linejoin:round;" d="
			M266.588,21.483c0,0-2.517-2.275-4.247-1.92c-1.73,0.355-2.32,1.111-2.911,2.381c-0.885,1.893-1.024,4.071-1.024,4.071
			l6.494-2.708L266.588,21.483z"/>
		
			<path style="fill-rule:evenodd;clip-rule:evenodd;fill:#663300;stroke:#777768;stroke-width:0.3842;stroke-linecap:round;stroke-linejoin:round;" d="
			M271.965,24.695c0,0-5.262-1.343-10.521,1.236c-4.595,2.253-7.324,4.618-7.324,4.618s3.337-5.255,4.706-6.631
			c1.784-1.791,6.89-3.402,8.538-2.738C269.015,21.845,271.965,24.695,271.965,24.695z"/>
	</g>
	<g>
		
			<path style="fill-rule:evenodd;clip-rule:evenodd;fill:#CCCC99;stroke:#777768;stroke-width:0.3842;stroke-linecap:round;stroke-linejoin:round;" d="
			M285.806,65.185l-6.316-10.286l-0.529-3.318l-0.265-1.181c0,0-0.371-3.345,1.11-5.532c1.48-2.188,8.428-4.405,11.136-4.717
			c2.706-0.312,8.962,1.509,8.962,1.509l6.497,10.067l0.833,5.184l-2.354,4.389l-9.596,2.104L285.806,65.185z"/>
		
			<path style="fill-rule:evenodd;clip-rule:evenodd;fill:#FFFFFF;stroke:#000000;stroke-width:0.2305;stroke-linecap:round;stroke-linejoin:round;" d="
			M302.801,60.28c0,0,2.383-7.661-0.938-13.041c-3.322-5.379-12.513-9.108-16.549-1.246c-1.624,3.161,0.048,5.351,1.25,7.296
			c1.2,1.946,3.52,3.142,9.146,4.894C299.232,59.282,302.801,60.28,302.801,60.28z"/>
		
			<path style="opacity:0.3;fill-rule:evenodd;clip-rule:evenodd;fill:#663300;stroke:#000000;stroke-width:0.2305;stroke-linecap:round;stroke-linejoin:round;" d="
			M302.801,60.28c0,0,2.383-7.661-0.938-13.041c-3.322-5.379-12.513-9.108-16.549-1.246c-1.624,3.161,0.048,5.351,1.25,7.296
			c1.2,1.946,4.471,4.207,10.346,4.897C300.744,58.638,302.801,60.28,302.801,60.28z"/>
		
			<path style="opacity:0.6;fill-rule:evenodd;clip-rule:evenodd;fill:#663300;stroke:#000000;stroke-width:0.2305;stroke-linecap:round;stroke-linejoin:round;" d="
			M302.801,60.28c0,0,1.526-4.902-0.6-8.346c-2.125-3.442-8.007-5.829-10.591-0.797c-1.039,2.023,0.029,3.424,0.8,4.668
			c0.771,1.247,2.861,2.694,6.62,3.136C301.486,59.23,302.801,60.28,302.801,60.28z"/>
		
			<path style="opacity:0.9;fill-rule:evenodd;clip-rule:evenodd;fill:#723703;stroke:#000000;stroke-width:0.2305;stroke-linecap:round;stroke-linejoin:round;" d="
			M302.801,60.28c0,0,0.976-3.138-0.385-5.341c-1.358-2.203-5.123-3.73-6.777-0.509c-0.663,1.293,0.021,2.191,0.512,2.988
			c0.494,0.797,1.833,1.725,4.239,2.004C301.959,59.609,302.801,60.28,302.801,60.28z"/>
		
			<path style="opacity:0.8;fill-rule:evenodd;clip-rule:evenodd;fill:#422002;stroke:#000000;stroke-width:0.2305;stroke-linecap:round;stroke-linejoin:round;" d="
			M302.801,60.28c0,0,0.627-2.008-0.243-3.418c-0.872-1.408-3.28-2.387-4.34-0.325c-0.424,0.828,0.012,1.401,0.328,1.912
			c0.315,0.512,1.174,1.104,2.712,1.283C302.264,59.852,302.801,60.28,302.801,60.28z"/>
		
			<path style="fill-rule:evenodd;clip-rule:evenodd;fill:#663300;stroke:#777768;stroke-width:0.3842;stroke-linecap:round;stroke-linejoin:round;" d="
			M308.945,57.709c0,0,0.643-1.883,0.017-4.787c-0.626-2.903-2.13-11.528-13.192-13.03c-3.703-0.502-5.055,0.285-5.055,0.285
			c12.727,0.846,14.014,8.725,14.543,15.083c0.617,7.399-3.426,7-3.426,7l5.219,1.235L308.945,57.709z"/>
		
			<path style="fill-rule:evenodd;clip-rule:evenodd;fill:#663300;stroke:#777768;stroke-width:0.3842;stroke-linecap:round;stroke-linejoin:round;" d="
			M309.212,54.731c0,0-0.611,3.137-2.872,3.543c-1.688,0.302-2.666-0.391-3.579-0.781c-0.824-0.354-2.374-1.611-7.44-0.448
			c-5.064,1.164-8.198,4.426-10.96,3.052c-2.756-1.375-2.867-2.582-3.864-5.575c-0.998-2.99-1.829-4.548-1.829-4.548
			s-1.109,15.781,3.277,22.281c4.351,6.442,14.528,12.404,23.429,4.69c6.092-5.281,9.237-11.523,7.569-17.176
			C311.729,55.655,309.212,54.731,309.212,54.731z"/>
		
			<path style="fill-rule:evenodd;clip-rule:evenodd;fill:#663300;stroke:#777768;stroke-width:0.3842;stroke-linecap:round;stroke-linejoin:round;" d="
			M315.155,68.628c0,0,1.589,3,0.817,4.589c-0.77,1.59-1.646,1.977-3.021,2.237c-2.054,0.392-4.198-0.007-4.198-0.007l4.219-5.632
			L315.155,68.628z"/>
		
			<path style="fill-rule:evenodd;clip-rule:evenodd;fill:#663300;stroke:#777768;stroke-width:0.3842;stroke-linecap:round;stroke-linejoin:round;" d="
			M313.363,62.627c0,0,0.009,5.432-3.783,9.895c-3.312,3.899-6.275,5.964-6.275,5.964s5.915-1.939,7.585-2.932
			c2.174-1.289,4.99-5.841,4.751-7.604C315.4,66.187,313.363,62.627,313.363,62.627z"/>
	</g>
	<g>
		
			<path style="fill-rule:evenodd;clip-rule:evenodd;fill:#CCCC99;stroke:#777768;stroke-width:0.3842;stroke-linecap:round;stroke-linejoin:round;" d="
			M257.738,73.514l3.55,11.536l2.139,2.591l0.713,0.979c0,0,2.267,2.487,4.887,2.821c2.621,0.335,8.876-3.415,10.898-5.242
			c2.022-1.826,4.787-7.724,4.787-7.724l-3.263-11.53l-3.343-4.048l-4.849-1.133l-7.919,5.814L257.738,73.514z"/>
		
			<path style="fill-rule:evenodd;clip-rule:evenodd;fill:#FFFFFF;stroke:#000000;stroke-width:0.2305;stroke-linecap:round;stroke-linejoin:round;" d="
			M272.649,63.994c0,0,7.323,3.274,9.169,9.321c1.843,6.048-1.431,15.411-9.999,13.245c-3.444-0.868-3.985-3.571-4.651-5.758
			c-0.667-2.188-0.033-4.718,2.368-10.098C271.038,67.332,272.649,63.994,272.649,63.994z"/>
		
			<path style="opacity:0.3;fill-rule:evenodd;clip-rule:evenodd;fill:#663300;stroke:#000000;stroke-width:0.2305;stroke-linecap:round;stroke-linejoin:round;" d="
			M272.649,63.994c0,0,7.323,3.274,9.169,9.321c1.843,6.048-1.431,15.411-9.999,13.245c-3.444-0.868-3.985-3.571-4.651-5.758
			c-0.667-2.188-0.204-6.138,3.158-11.002C272.522,66.624,272.649,63.994,272.649,63.994z"/>
		
			<path style="opacity:0.6;fill-rule:evenodd;clip-rule:evenodd;fill:#663300;stroke:#000000;stroke-width:0.2305;stroke-linecap:round;stroke-linejoin:round;" d="
			M272.649,63.994c0,0,4.687,2.095,5.867,5.967c1.18,3.867-0.915,9.859-6.399,8.477c-2.203-0.558-2.549-2.287-2.974-3.688
			c-0.43-1.398-0.134-3.928,2.021-7.04C272.568,65.677,272.649,63.994,272.649,63.994z"/>
		
			<path style="opacity:0.9;fill-rule:evenodd;clip-rule:evenodd;fill:#723703;stroke:#000000;stroke-width:0.2305;stroke-linecap:round;stroke-linejoin:round;" d="
			M272.649,63.994c0,0,3,1.341,3.753,3.818c0.758,2.476-0.583,6.312-4.095,5.424c-1.411-0.355-1.632-1.463-1.903-2.359
			c-0.271-0.896-0.085-2.513,1.294-4.506C272.596,65.07,272.649,63.994,272.649,63.994z"/>
		
			<path style="opacity:0.8;fill-rule:evenodd;clip-rule:evenodd;fill:#422002;stroke:#000000;stroke-width:0.2305;stroke-linecap:round;stroke-linejoin:round;" d="
			M272.649,63.994c0,0,1.92,0.858,2.403,2.442c0.482,1.585-0.375,4.039-2.622,3.472c-0.902-0.229-1.046-0.936-1.218-1.51
			c-0.179-0.573-0.055-1.608,0.827-2.884C272.616,64.683,272.649,63.994,272.649,63.994z"/>
		
			<path style="fill-rule:evenodd;clip-rule:evenodd;fill:#663300;stroke:#777768;stroke-width:0.3842;stroke-linecap:round;stroke-linejoin:round;" d="
			M278.637,61.082c0,0,1.838,0.761,3.604,3.15c1.767,2.387,7.249,9.214,1.066,18.512c-2.068,3.112-3.554,3.606-3.554,3.606
			c7.774-10.113,2.708-16.284-1.714-20.883c-5.148-5.354-7.521-2.052-7.521-2.052l2.523-4.734L278.637,61.082z"/>
		
			<path style="fill-rule:evenodd;clip-rule:evenodd;fill:#663300;stroke:#777768;stroke-width:0.3842;stroke-linecap:round;stroke-linejoin:round;" d="
			M281.05,62.849c0,0-2.759-1.614-4.558-0.185c-1.343,1.066-1.469,2.261-1.778,3.202c-0.279,0.853-0.361,2.847-4.579,5.881
			c-4.221,3.033-8.74,3.229-9.532,6.211c-0.79,2.978,0.044,3.857,1.63,6.583c1.587,2.727,2.207,4.379,2.207,4.379
			s-12.581-9.593-14.562-17.185c-1.96-7.518,0.288-19.097,11.959-20.682c7.987-1.082,14.752,0.677,17.896,5.666
			C282.018,60.351,281.05,62.849,281.05,62.849z"/>
		
			<path style="fill-rule:evenodd;clip-rule:evenodd;fill:#663300;stroke:#777768;stroke-width:0.3842;stroke-linecap:round;stroke-linejoin:round;" d="
			M274.544,49.206c0,0-1.203-3.174-2.905-3.646c-1.701-0.473-2.571-0.069-3.677,0.792c-1.651,1.283-2.768,3.156-2.768,3.156
			l7.015,0.553L274.544,49.206z"/>
		
			<path style="fill-rule:evenodd;clip-rule:evenodd;fill:#663300;stroke:#777768;stroke-width:0.3842;stroke-linecap:round;stroke-linejoin:round;" d="
			M277.865,54.517c0,0-4.072-3.596-9.929-3.698c-5.115-0.089-8.622,0.77-8.622,0.77s5.363-3.156,7.211-3.756
			c2.404-0.782,7.683,0.112,8.846,1.458C276.538,50.634,277.865,54.517,277.865,54.517z"/>
	</g>
	<g>
		
			<path style="fill-rule:evenodd;clip-rule:evenodd;fill:#CCCC99;stroke:#777768;stroke-width:0.3842;stroke-linecap:round;stroke-linejoin:round;" d="
			M292.477,97.477l11.647,3.168l3.334-0.425l1.207-0.078c0,0,3.315-0.586,4.998-2.622c1.684-2.035,1.857-9.326,1.395-12.013
			c-0.461-2.685-3.968-8.175-3.968-8.175l-11.488-3.404l-5.208,0.659l-3.551,3.491l0.681,9.802L292.477,97.477z"/>
		
			<path style="fill-rule:evenodd;clip-rule:evenodd;fill:#FFFFFF;stroke:#000000;stroke-width:0.2305;stroke-linecap:round;stroke-linejoin:round;" d="
			M292.404,79.786c0,0,6.682-4.44,12.778-2.766c6.096,1.675,12.261,9.447,5.849,15.53c-2.576,2.447-5.147,1.459-7.353,0.854
			c-2.206-0.606-4.004-2.494-7.269-7.4C294.364,82.931,292.404,79.786,292.404,79.786z"/>
		
			<path style="opacity:0.3;fill-rule:evenodd;clip-rule:evenodd;fill:#663300;stroke:#000000;stroke-width:0.2305;stroke-linecap:round;stroke-linejoin:round;" d="
			M292.404,79.786c0,0,6.682-4.44,12.778-2.766c6.096,1.675,12.261,9.447,5.849,15.53c-2.576,2.447-5.147,1.459-7.353,0.854
			c-2.206-0.606-5.295-3.109-7.609-8.552C294.559,81.3,292.404,79.786,292.404,79.786z"/>
		
			<path style="opacity:0.6;fill-rule:evenodd;clip-rule:evenodd;fill:#663300;stroke:#000000;stroke-width:0.2305;stroke-linecap:round;stroke-linejoin:round;" d="
			M292.404,79.786c0,0,4.275-2.842,8.178-1.77c3.9,1.071,7.845,6.045,3.743,9.939c-1.65,1.564-3.295,0.934-4.706,0.544
			c-1.412-0.387-3.39-1.988-4.869-5.473C293.782,80.754,292.404,79.786,292.404,79.786z"/>
		
			<path style="opacity:0.9;fill-rule:evenodd;clip-rule:evenodd;fill:#723703;stroke:#000000;stroke-width:0.2305;stroke-linecap:round;stroke-linejoin:round;" d="
			M292.404,79.786c0,0,2.735-1.818,5.233-1.132c2.496,0.685,5.021,3.868,2.395,6.36c-1.055,1.002-2.108,0.598-3.011,0.35
			c-0.904-0.25-2.17-1.273-3.116-3.504C293.284,80.406,292.404,79.786,292.404,79.786z"/>
		
			<path style="opacity:0.8;fill-rule:evenodd;clip-rule:evenodd;fill:#422002;stroke:#000000;stroke-width:0.2305;stroke-linecap:round;stroke-linejoin:round;" d="
			M292.404,79.786c0,0,1.751-1.164,3.349-0.726c1.598,0.439,3.213,2.477,1.532,4.072c-0.676,0.641-1.35,0.383-1.927,0.223
			c-0.579-0.157-1.389-0.814-1.994-2.242C292.967,80.182,292.404,79.786,292.404,79.786z"/>
		
			<path style="fill-rule:evenodd;clip-rule:evenodd;fill:#663300;stroke:#777768;stroke-width:0.3842;stroke-linecap:round;stroke-linejoin:round;" d="
			M293.144,73.168c0,0,1.626-1.146,4.589-1.361c2.962-0.217,11.662-1.199,16.215,8.996c1.522,3.411,1.146,4.931,1.146,4.931
			c-4.391-11.976-12.313-10.994-18.564-9.715c-7.275,1.487-5.753,5.257-5.753,5.257l-2.653-4.662L293.144,73.168z"/>
		
			<path style="fill-rule:evenodd;clip-rule:evenodd;fill:#663300;stroke:#777768;stroke-width:0.3842;stroke-linecap:round;stroke-linejoin:round;" d="
			M295.928,72.074c0,0-2.84,1.469-2.594,3.754c0.184,1.704,1.125,2.448,1.756,3.214c0.571,0.691,2.214,1.825,2.522,7.014
			c0.307,5.188-1.942,9.113,0.152,11.377c2.095,2.259,3.284,2.025,6.437,2.141c3.15,0.117,4.878,0.477,4.878,0.477
			s-14.831,5.503-22.304,3.119c-7.403-2.362-15.988-10.452-11.087-21.163c3.354-7.33,8.459-12.104,14.354-12.094
			C294.332,69.92,295.928,72.074,295.928,72.074z"/>
		
			<path style="fill-rule:evenodd;clip-rule:evenodd;fill:none;stroke:#777768;stroke-width:0.3842;stroke-linecap:round;stroke-linejoin:round;" d="
			M295.928,72.074c0,0-2.84,1.469-2.594,3.754c0.184,1.704,1.125,2.448,1.756,3.214c0.571,0.691,2.214,1.825,2.522,7.014
			c0.307,5.188-1.942,9.113,0.152,11.377c2.095,2.259,3.284,2.025,6.437,2.141c3.15,0.117,4.878,0.477,4.878,0.477"/>
		
			<path style="fill-rule:evenodd;clip-rule:evenodd;fill:#663300;stroke:#777768;stroke-width:0.3842;stroke-linecap:round;stroke-linejoin:round;" d="
			M280.919,70.279c0,0-3.325-0.68-4.635,0.506c-1.309,1.185-1.434,2.136-1.296,3.529c0.2,2.081,1.187,4.027,1.187,4.027l4.218-5.633
			L280.919,70.279z"/>
		
			<path style="fill-rule:evenodd;clip-rule:evenodd;fill:#663300;stroke:#777768;stroke-width:0.3842;stroke-linecap:round;stroke-linejoin:round;" d="
			M287.182,70.312c0,0-5.215,1.518-8.432,6.413c-2.811,4.274-3.958,7.699-3.958,7.699s0.199-6.222,0.68-8.103
			c0.626-2.45,4.202-6.432,5.962-6.697C283.192,69.357,287.182,70.312,287.182,70.312z"/>
	</g>
</g>
<g id="pattes">
	<g>
		<path style="fill:none;stroke:#F8995A;stroke-width:0.8379;stroke-linecap:round;stroke-linejoin:round;" d="M144.68,37.092
			c0,0,1.14,0.583,5.688,1.008c5.645,0.528,37.003,0.96,42.94-0.192"/>
		<path style="fill:none;stroke:#F8995A;stroke-width:0.8379;stroke-linecap:round;stroke-linejoin:round;" d="M145.305,34.21
			c0,0,2.969,2.737,15.799,2.737c8.591,0,41.798-2.881,41.798-2.881"/>
	</g>
	<path style="fill-rule:evenodd;clip-rule:evenodd;fill:#F8995A;stroke:#777768;stroke-width:0.7684;" d="M95.746,75.589
		c0,0,6.914-3.852,9.17-5.169c4.154-2.425,11.67-1.201,10.518,2.065c-1.153,3.266-19.466,4.61-19.466,4.61L95.746,75.589z"/>
	<path style="fill-rule:evenodd;clip-rule:evenodd;fill:#F8995A;stroke:#777768;stroke-width:0.7684;" d="M90.525,80.234
		c0,0,4.482,7.557,11.59,7.875c7.107,0.318,4.738-2.816,4.354-3.969c-0.384-1.154-13.127-5.508-13.127-5.508L90.525,80.234z"/>
	<path style="fill-rule:evenodd;clip-rule:evenodd;fill:#F8995A;stroke:#777768;stroke-width:0.7684;" d="M114.217,81.578
		c-1.345,3.008-7.492,4.227-9.925,3.266c-2.434-0.959-12.358-6.979-12.358-6.979l3.073-1.73c0,0,12.253-2.305,15.112-2.113
		C112.978,74.215,114.217,81.578,114.217,81.578z"/>
	<path style="fill-rule:evenodd;clip-rule:evenodd;fill:#F8995A;stroke:#777768;stroke-width:0.7684;" d="M106.362,28.307
		c0,0,11.497-3.029,11.881,1.407c0.267,3.086-4.829,9.525-7.263,9.525c-2.433,0-4.738-5.571-5.058-6.979
		C105.602,30.851,106.362,28.307,106.362,28.307z"/>
	<path style="fill-rule:evenodd;clip-rule:evenodd;fill:#F8995A;stroke:#777768;stroke-width:0.7684;" d="M111.656,40.136
		c-0.858-4.021-2.605-7.48-3.005-9.632c-0.858-4.614-10.056-2.914-13.89,0.369c-1.08-0.297-2.239-0.233-3.339,0.12
		c-3.394,1.088-8.26,3.553-8.26,3.553s0.448,7.908,2.433,11.942c1.985,4.035,3.714,5.443,5.059,5.827
		c1.309,0.374,9.091,0.863,10.449-0.586c4.353,0.553,12.007-0.333,14.332-3.64C116.382,46.74,112.588,44.503,111.656,40.136z"/>
	<path style="fill-rule:evenodd;clip-rule:evenodd;fill:#F8995A;stroke:#777768;stroke-width:0.7684;" d="M88.604,48.729
		c-2.177-1.601-1.473-8.901-3.65-13.447c-2.177-4.546-9.364,4.21-10.645,6.579c-0.499,0.923-0.552,1.7-0.315,2.453
		c-1.14,0.329-1.463,1.889-1.463,3.646c0,3.266,0.961,10.182,0.961,10.182l13.511,5.937c0,0,0.256-4.272,0.256-5.937
		c0-0.354-0.133-0.859-0.382-1.468c0.139-0.023,0.28-0.037,0.414-0.085c2.513-0.913,4.035-2.77,5.027-3.762
		C93.31,51.835,90.781,50.33,88.604,48.729z"/>
	<path style="fill-rule:evenodd;clip-rule:evenodd;fill:#F8995A;stroke:#777768;stroke-width:0.7684;" d="M87.387,64.545
		c-0.095-0.191-0.224-0.341-0.384-0.463v-2.738c0-2.177-5.827-3.458-11.142-6.467c-5.314-3.01-4.602,1.336-3.794,4.738
		c0.639,2.688,1.604,4.539,2.093,5.365c-0.323,0.754,0.14,1.885,0.933,3.471c1.665,3.331,6.403,4.995,6.403,4.995l8.986-3.294
		C90.482,70.151,88.092,65.954,87.387,64.545z"/>
	<path style="fill-rule:evenodd;clip-rule:evenodd;fill:#F8995A;stroke:#777768;stroke-width:0.7684;" d="M97.645,76.188
		c-2.232-0.577-3.958-2.146-4.983-3.309c-0.016-0.033-0.02-0.072-0.043-0.102c-0.843-1.013-2.165-3.36-3.607-5.238
		c-0.965-1.257-9.499,3.793-9.499,5.587s3.972,3.08,6.1,3.97c0.141,0.059,0.293,0.095,0.448,0.125
		c0.321,0.418,0.817,0.824,1.457,1.219c2.176,1.346,4.418,2.051,4.418,2.051S101.358,77.148,97.645,76.188z"/>
	<path style="fill-rule:evenodd;clip-rule:evenodd;fill:#F8995A;stroke:#777768;stroke-width:0.7684;" d="M117.875,27.738
		c0,0,26.66,0.617,32.712,0.181c4.05-0.292,8.786-0.833,9.349,0.512c0.688,1.644-0.204,3.143-3.525,2.902
		c-3.09-0.225-9.153-0.212-10.895,4.167c-1.024,2.576,4.731,8.875-3.379,11.565c-10.257,3.401-20.188,1.549-22.574,0.576
		c-2.556-1.042-8.315-4.074-7.864-10.861C112.149,29.992,117.875,27.738,117.875,27.738z"/>
	<circle style="fill-rule:evenodd;clip-rule:evenodd;stroke:#777768;stroke-width:0.7684;" cx="138.229" cy="32.209" r="2.498"/>
</g>
<g id="Layer_6">
	<path style="fill-rule:evenodd;clip-rule:evenodd;fill:#F8995A;stroke:#777768;stroke-width:0.7684;" d="M103.418,89.325
		c0,0-0.643-1.761-2.373-2.688c-0.972-0.519-1.979-0.791-2.686-0.936c-0.188-0.284-0.373-0.498-0.373-0.498l-7.955-1.387
		l0.166,2.491c0,0,7.26,1.161,8.221,0.826c0.014-0.005,0.018-0.014,0.029-0.02L103.418,89.325z"/>
	<path style="fill-rule:evenodd;clip-rule:evenodd;fill:#F8995A;stroke:#777768;stroke-width:0.7684;" d="M105.956,84.255
		c0,0-2.492-2.473-3.713-2.906c-0.465-0.165-1.045-0.352-1.585-0.52c-0.017-0.013-0.026-0.025-0.044-0.039
		c-1.117-0.807-7.518-2.605-7.518-2.605l-1.331,2.529c0,0,6.788,1.154,7.433,1.619c0.26,0.188,0.721,0.101,1.106-0.119
		C102.325,83.252,105.956,84.255,105.956,84.255z"/>
	<path style="fill-rule:evenodd;clip-rule:evenodd;fill:#F8995A;stroke:#777768;stroke-width:0.7684;" d="M104.792,76.997
		c-0.07-0.146-0.129-0.243-0.129-0.243l-7.03-2.908l-3.906,1.16c0,0,9.359,3.309,10.672,3.405c0.284,0.021,0.454-0.047,0.551-0.162
		c0.822,0.369,1.831,0.83,2.391,1.117c1.041,0.531,3.277,1.111,3.107,0.65C110.058,78.966,105.885,77.393,104.792,76.997z"/>
	<path style="fill:#F8995A;stroke:#777768;stroke-width:0.7684;" d="M157.53,64.83c0.082,0.029-4.979-4.56-6.497-5.936
		c-0.124-0.346-0.472-0.563-0.472-0.563l-5.246-1.108c-0.244-0.377-0.846-0.342-1.207-0.315c-0.528,0.038-12.628,0.78-12.628,0.78
		l-4.056,2.971c0,0,9.926-0.5,14.83-1.435c0.973-0.185,1.721-0.273,2.248-0.442c1.475,0.293,4.452,0.847,5.809,0.83
		C151.334,60.526,155.387,64.073,157.53,64.83z"/>
	<g>
		<path style="fill:none;stroke:#F8995A;stroke-width:0.8379;stroke-linecap:round;stroke-linejoin:round;" d="M138.773,44.995
			c0,0,1.269,0.175,5.704-0.919c5.504-1.357,35.261-11.262,40.489-14.303"/>
		<path style="fill:none;stroke:#F8995A;stroke-width:0.8379;stroke-linecap:round;stroke-linejoin:round;" d="M138.416,42.068
			c0,0,3.704,1.608,15.821-2.611c8.112-2.825,38.525-16.467,38.525-16.467"/>
	</g>
	<path style="fill-rule:evenodd;clip-rule:evenodd;fill:#F8995A;stroke:#777768;stroke-width:0.7684;" d="M112.526,67.407
		c0,0,10.865-2.677,10.218-5.705c-0.647-3.029-7.384-7.182-9.681-6.382c-2.298,0.8-2.643,6.818-2.482,8.254
		C110.742,65.011,112.526,67.407,112.526,67.407z"/>
	<path style="fill-rule:evenodd;clip-rule:evenodd;fill:#F8995A;stroke:#777768;stroke-width:0.7684;" d="M105.221,97.442
		c0,0,5.263-5.91,6.96-7.896c3.125-3.656,10.626-4.972,10.612-1.508c-0.016,3.463-16.867,10.756-16.867,10.756L105.221,97.442z"/>
	<path style="fill-rule:evenodd;clip-rule:evenodd;fill:#F8995A;stroke:#777768;stroke-width:0.7684;" d="M101.819,103.547
		c0,0,6.718,5.662,13.534,3.626c6.817-2.037,3.549-4.219,2.807-5.18c-0.742-0.964-14.208-0.885-14.208-0.885L101.819,103.547z"/>
	<path style="fill-rule:evenodd;clip-rule:evenodd;fill:#F8995A;stroke:#777768;stroke-width:0.7684;" d="M124.635,97.024
		c-0.282,3.283-5.687,6.456-8.3,6.349c-2.614-0.105-13.966-2.526-13.966-2.526l2.333-2.646c0,0,10.814-6.206,13.576-6.965
		C121.042,90.479,124.635,97.024,124.635,97.024z"/>
	<path style="fill-rule:evenodd;clip-rule:evenodd;fill:#F8995A;stroke:#777768;stroke-width:0.7684;" d="M99.698,49.3
		c0,0,9.861-6.642,11.683-2.578c1.267,2.826-1.428,10.583-3.727,11.384c-2.298,0.8-6.306-3.703-7.071-4.928
		C99.816,51.952,99.698,49.3,99.698,49.3z"/>
	<path style="fill-rule:evenodd;clip-rule:evenodd;fill:#F8995A;stroke:#777768;stroke-width:0.7684;" d="M108.586,58.73
		c-2.133-3.515-4.92-6.208-6.006-8.108c-2.328-4.075-10.455,0.555-12.996,4.917c-1.117,0.074-2.19,0.516-3.113,1.211
		c-2.847,2.144-6.633,6.072-6.633,6.072s3.024,7.321,6.226,10.478c3.202,3.158,5.298,3.92,6.693,3.839
		c1.359-0.076,8.868-2.174,9.675-3.989c4.293-0.909,11.23-4.263,12.338-8.149C115.222,63.412,110.903,62.548,108.586,58.73z"/>
	<path style="fill-rule:evenodd;clip-rule:evenodd;fill:#F8995A;stroke:#777768;stroke-width:0.7684;" d="M89.643,74.427
		c-2.582-0.796-4.317-7.922-7.869-11.499c-3.551-3.578-7.458,7.056-7.889,9.714c-0.168,1.035,0.037,1.787,0.509,2.42
		c-0.968,0.685-0.761,2.266-0.183,3.925c1.074,3.084,4.256,9.3,4.256,9.3l14.712,1.162c0,0-1.163-4.119-1.71-5.689
		c-0.117-0.336-0.408-0.769-0.844-1.262c0.124-0.066,0.252-0.126,0.363-0.216c2.072-1.688,2.898-3.942,3.51-5.206
		C95.109,75.812,92.225,75.223,89.643,74.427z"/>
	<path style="fill-rule:evenodd;clip-rule:evenodd;fill:#F8995A;stroke:#777768;stroke-width:0.7684;" d="M93.696,89.763
		c-0.153-0.148-0.324-0.248-0.516-0.312l-0.9-2.586c-0.717-2.057-6.641-1.348-12.648-2.442c-6.009-1.096-3.906,2.774-2.025,5.723
		c1.487,2.327,3.008,3.758,3.741,4.378c-0.058,0.818,0.752,1.733,2.022,2.971c2.667,2.598,7.689,2.61,7.689,2.61l7.402-6.065
		C98.461,94.039,94.825,90.861,93.696,89.763z"/>
	<path style="fill-rule:evenodd;clip-rule:evenodd;fill:#F8995A;stroke:#777768;stroke-width:0.7684;" d="M107.21,97.384
		c-2.298,0.189-4.443-0.725-5.794-1.485c-0.026-0.026-0.043-0.062-0.074-0.081c-1.129-0.68-3.148-2.461-5.13-3.762
		c-1.325-0.869-7.724,6.706-7.133,8.4c0.59,1.694,4.764,1.603,7.065,1.743c0.152,0.009,0.308-0.007,0.464-0.029
		c0.441,0.289,1.043,0.509,1.776,0.672c2.498,0.555,4.848,0.483,4.848,0.483S111.034,97.07,107.21,97.384z"/>
	<path style="fill-rule:evenodd;clip-rule:evenodd;fill:#F8995A;stroke:#777768;stroke-width:0.7684;" d="M110.383,44.977
		c0,0,25.381-8.185,30.952-10.587c3.729-1.607,8.024-3.675,8.997-2.591c1.19,1.326,0.842,3.035-2.375,3.9
		c-2.991,0.804-8.714,2.81-8.918,7.517c-0.12,2.769,7.387,6.826,0.611,12.033c-8.567,6.586-18.555,8.102-21.129,7.969
		c-2.756-0.144-9.192-1.113-10.998-7.672C105.717,48.988,110.383,44.977,110.383,44.977z"/>
	<circle style="fill-rule:evenodd;clip-rule:evenodd;stroke:#777768;stroke-width:0.7684;" cx="131.075" cy="42.505" r="2.497"/>
</g>
<g id="Layer_5">
	<g>
		<path style="fill-rule:evenodd;clip-rule:evenodd;fill:#F8995A;stroke:#777768;stroke-width:0.7684;" d="M127.707,99.191
			c0,0-0.643-1.761-2.373-2.688c-0.972-0.519-1.979-0.791-2.686-0.936c-0.188-0.284-0.373-0.498-0.373-0.498l-7.955-1.387
			l0.166,2.491c0,0,7.26,1.161,8.221,0.826c0.014-0.005,0.018-0.014,0.029-0.02L127.707,99.191z"/>
		<path style="fill-rule:evenodd;clip-rule:evenodd;fill:#F8995A;stroke:#777768;stroke-width:0.7684;" d="M130.244,94.121
			c0,0-2.492-2.473-3.713-2.906c-0.465-0.165-1.045-0.352-1.585-0.52c-0.017-0.013-0.026-0.025-0.044-0.039
			c-1.117-0.807-7.518-2.605-7.518-2.605l-1.331,2.529c0,0,6.788,1.154,7.433,1.619c0.26,0.188,0.721,0.101,1.106-0.119
			C126.613,93.118,130.244,94.121,130.244,94.121z"/>
		<path style="fill-rule:evenodd;clip-rule:evenodd;fill:#F8995A;stroke:#777768;stroke-width:0.7684;" d="M129.081,86.863
			c-0.07-0.146-0.129-0.243-0.129-0.243l-7.03-2.908l-3.906,1.16c0,0,9.359,3.309,10.672,3.405c0.284,0.021,0.454-0.047,0.551-0.162
			c0.822,0.369,1.831,0.83,2.391,1.117c1.041,0.531,3.277,1.111,3.107,0.65C134.347,88.832,130.174,87.259,129.081,86.863z"/>
		<path style="fill-rule:evenodd;clip-rule:evenodd;fill:#F8995A;stroke:#777768;stroke-width:0.7684;" d="M135.003,84.531
			c-0.386-0.186-0.852-0.398-1.319-0.609c-0.028-0.133-0.065-0.267-0.111-0.399c-0.351-1.006-7.986-3.898-7.986-3.898
			s-2.48,2.512-1.25,2.604c1.229,0.092,6.564,1.877,8.036,2.666c0.339,0.181,0.597,0.25,0.799,0.251
			c1.44,0.925,3.332,1.982,4.746,2.204C138.444,87.433,136.357,85.183,135.003,84.531z"/>
		<path style="fill-rule:evenodd;clip-rule:evenodd;fill:#F8995A;stroke:#777768;stroke-width:0.7684;" d="M139.831,80.986
			c-0.118-0.077-0.296-0.167-0.493-0.262c-0.065-0.161-0.145-0.322-0.25-0.478c-0.737-1.088-6.473-2.993-6.473-2.993
			s-2.202,0.962-1.588,1.289c0.613,0.328,6.406,3.084,7.46,3.648c0.273,0.146,0.492,0.155,0.657,0.074
			c1.762,1.19,3.896,2.572,4.523,2.728C144.791,85.271,140.504,81.434,139.831,80.986z"/>
		<path style="fill:#F8995A;stroke:#777768;stroke-width:0.7684;" d="M181.818,74.696c0.082,0.029-4.979-4.56-6.497-5.936
			c-0.124-0.346-0.472-0.563-0.472-0.563l-5.246-1.108c-0.244-0.377-0.846-0.342-1.207-0.315c-0.528,0.038-12.628,0.78-12.628,0.78
			l-4.056,2.971c0,0,9.926-0.5,14.83-1.435c0.973-0.185,1.721-0.273,2.248-0.442c1.475,0.293,4.452,0.848,5.809,0.83
			C175.623,70.393,179.676,73.939,181.818,74.696z"/>
		<path style="fill:#F8995A;stroke:#777768;stroke-width:0.7684;" d="M171.83,84.371l-3.117-6.713
			c-0.184-0.524-5.193-3.4-6.918-4.378c0.014-0.07,0.018-0.136-0.002-0.193c-0.357-1.027-11.495-2.797-11.495-2.797l-2.922,1.882
			c0,0,9.286,2.14,12.812,2.148c0.377,0.295,1.281,0.941,3.12,1.959c1.832,1.015,3.838,1.761,4.646,2.045l0,0
			C168.682,80.414,171.83,84.371,171.83,84.371z"/>
		<path style="fill:#F8995A;stroke:#777768;stroke-width:0.7684;" d="M167.699,89.178l-4.028-7.312
			c-0.255-0.734-5.302-4.057-7.038-5.183c-0.127-0.113-0.325-0.24-0.582-0.375c0-0.001-0.007-0.006-0.007-0.006l-0.001,0.001
			c-2.565-1.349-10.816-3.587-10.816-3.587l-3.049,2.146l12.298,2.984c0.002,0.002,6.872,3.5,7.78,4.43
			c0.162,0.166,0.363,0.271,0.564,0.327c0.309,0.667,0.766,1.585,1.281,2.355C165.021,86.334,167.699,89.178,167.699,89.178z"/>
		<path style="fill:#F8995A;stroke:#777768;stroke-width:0.7684;" d="M157.795,85.028c-0.002-0.005-0.004-0.009-0.007-0.014
			l-0.001-0.002l0,0c-0.071-0.146-0.219-0.22-0.219-0.22l-5.781-4.479c0.059-0.142,0.026-0.231,0.026-0.231l-9.071-4.568
			l-3.041-0.263l-2.496,1.887c0,0,11.028,4.27,13.123,4.05c0.564,0.637,1.812,1.775,3.23,2.461c1.865,0.901,3.242,1.873,3.242,1.873
			s0.013,0.004,0.021,0.007c0.011,0.044,0.009,0.078,0.026,0.13c0.364,1.046,3.651,5.947,3.651,5.947l0.177-0.368L157.795,85.028z"
			/>
		<g>
			<path style="fill:none;stroke:#F8995A;stroke-width:0.8379;stroke-linecap:round;stroke-linejoin:round;" d="M163.062,54.861
				c0,0,1.269,0.175,5.704-0.919c5.504-1.357,35.261-11.262,40.489-14.303"/>
			<path style="fill:none;stroke:#F8995A;stroke-width:0.8379;stroke-linecap:round;stroke-linejoin:round;" d="M162.704,51.935
				c0,0,3.704,1.608,15.821-2.611c8.112-2.825,38.525-16.467,38.525-16.467"/>
		</g>
		<path style="fill-rule:evenodd;clip-rule:evenodd;fill:#F8995A;stroke:#777768;stroke-width:0.7684;" d="M136.814,77.273
			c0,0,10.865-2.677,10.218-5.705c-0.647-3.029-7.384-7.182-9.681-6.382c-2.298,0.8-2.643,6.818-2.482,8.254
			C135.03,74.877,136.814,77.273,136.814,77.273z"/>
		<path style="fill-rule:evenodd;clip-rule:evenodd;fill:#F8995A;stroke:#777768;stroke-width:0.7684;" d="M129.51,107.309
			c0,0,5.263-5.91,6.96-7.896c3.125-3.656,10.626-4.972,10.612-1.508c-0.016,3.463-16.867,10.756-16.867,10.756L129.51,107.309z"/>
		<path style="fill-rule:evenodd;clip-rule:evenodd;fill:#F8995A;stroke:#777768;stroke-width:0.7684;" d="M126.107,113.413
			c0,0,6.718,5.662,13.534,3.626c6.817-2.037,3.549-4.219,2.807-5.18c-0.742-0.964-14.208-0.885-14.208-0.885L126.107,113.413z"/>
		<path style="fill-rule:evenodd;clip-rule:evenodd;fill:#F8995A;stroke:#777768;stroke-width:0.7684;" d="M148.924,106.891
			c-0.282,3.283-5.687,6.456-8.3,6.349c-2.614-0.105-13.966-2.526-13.966-2.526l2.333-2.646c0,0,10.814-6.206,13.576-6.965
			C145.331,100.345,148.924,106.891,148.924,106.891z"/>
		<path style="fill-rule:evenodd;clip-rule:evenodd;fill:#F8995A;stroke:#777768;stroke-width:0.7684;" d="M123.986,59.166
			c0,0,9.861-6.642,11.683-2.578c1.267,2.826-1.428,10.583-3.727,11.384c-2.298,0.8-6.306-3.703-7.071-4.928
			C124.104,61.818,123.986,59.166,123.986,59.166z"/>
		<path style="fill-rule:evenodd;clip-rule:evenodd;fill:#F8995A;stroke:#777768;stroke-width:0.7684;" d="M132.875,68.597
			c-2.133-3.515-4.92-6.208-6.006-8.108c-2.328-4.075-10.455,0.555-12.996,4.917c-1.117,0.074-2.19,0.516-3.113,1.211
			c-2.847,2.144-6.633,6.072-6.633,6.072s3.024,7.321,6.226,10.478c3.202,3.158,5.298,3.92,6.693,3.839
			c1.359-0.076,8.868-2.174,9.675-3.989c4.293-0.909,11.23-4.263,12.338-8.149C139.511,73.278,135.191,72.414,132.875,68.597z"/>
		<path style="fill-rule:evenodd;clip-rule:evenodd;fill:#F8995A;stroke:#777768;stroke-width:0.7684;" d="M113.932,84.293
			c-2.582-0.796-4.317-7.922-7.869-11.499c-3.551-3.578-7.458,7.056-7.889,9.714c-0.168,1.035,0.037,1.787,0.509,2.42
			c-0.968,0.685-0.761,2.266-0.183,3.925c1.074,3.084,4.256,9.3,4.256,9.3l14.712,1.162c0,0-1.163-4.119-1.71-5.689
			c-0.117-0.336-0.408-0.769-0.844-1.262c0.124-0.066,0.252-0.126,0.363-0.216c2.072-1.688,2.898-3.942,3.51-5.206
			C119.397,85.678,116.514,85.089,113.932,84.293z"/>
		<path style="fill-rule:evenodd;clip-rule:evenodd;fill:#F8995A;stroke:#777768;stroke-width:0.7684;" d="M117.984,99.629
			c-0.153-0.148-0.324-0.248-0.516-0.312l-0.9-2.586c-0.717-2.057-6.641-1.348-12.648-2.442c-6.009-1.096-3.906,2.774-2.025,5.723
			c1.487,2.327,3.008,3.758,3.741,4.378c-0.058,0.818,0.752,1.733,2.022,2.971c2.667,2.598,7.689,2.61,7.689,2.61l7.402-6.065
			C122.75,103.905,119.113,100.728,117.984,99.629z"/>
		<path style="fill-rule:evenodd;clip-rule:evenodd;fill:#F8995A;stroke:#777768;stroke-width:0.7684;" d="M131.499,107.25
			c-2.298,0.189-4.443-0.725-5.794-1.485c-0.026-0.026-0.043-0.062-0.074-0.081c-1.129-0.68-3.148-2.461-5.13-3.762
			c-1.325-0.869-7.724,6.706-7.133,8.4c0.59,1.694,4.764,1.603,7.065,1.743c0.152,0.009,0.308-0.007,0.464-0.029
			c0.441,0.289,1.043,0.509,1.776,0.672c2.498,0.555,4.848,0.483,4.848,0.483S135.322,106.937,131.499,107.25z"/>
		<path style="fill-rule:evenodd;clip-rule:evenodd;fill:#F8995A;stroke:#777768;stroke-width:0.7684;" d="M134.672,54.843
			c0,0,25.381-8.185,30.952-10.587c3.729-1.607,8.024-3.675,8.997-2.591c1.19,1.326,0.842,3.035-2.375,3.9
			c-2.991,0.804-8.714,2.81-8.918,7.517c-0.12,2.769,7.387,6.826,0.611,12.033c-8.567,6.586-18.555,8.102-21.129,7.969
			c-2.756-0.144-9.192-1.113-10.998-7.672C130.006,58.854,134.672,54.843,134.672,54.843z"/>
		<circle style="fill-rule:evenodd;clip-rule:evenodd;stroke:#777768;stroke-width:0.7684;" cx="155.363" cy="52.372" r="2.497"/>
		
			<path style="fill-rule:evenodd;clip-rule:evenodd;fill:#FFFFFF;stroke:#777768;stroke-width:0.3842;stroke-linecap:round;stroke-linejoin:round;" d="
			M147.514,91.55"/>
	</g>
</g>
</svg>
