<?xml version="1.0" encoding="iso-8859-1"?>
<!-- Generator: Adobe Illustrator 13.0.0, SVG Export Plug-In . SVG Version: 6.00 Build 14948)  -->
<!DOCTYPE svg PUBLIC "-//W3C//DTD SVG 1.1//EN" "http://www.w3.org/Graphics/SVG/1.1/DTD/svg11.dtd">
<svg version="1.1" xmlns="http://www.w3.org/2000/svg" xmlns:xlink="http://www.w3.org/1999/xlink" x="0px" y="0px" width="540px"
	 height="201.319px" viewBox="0 0 540 201.319" style="enable-background:new 0 0 540 201.319;" xml:space="preserve">
<style type="text/css">
<![CDATA[
]]>
</style>
<g id="Layer_2">
	<g>
		<rect y="1.319" style="fill:#FFFFFF;" width="540" height="200"/>
	</g>
</g>
<g id="Layer_1">
	<g>
		
			<rect x="427.633" y="102.043" style="fill:#CE4E43;stroke:#FFFFFF;stroke-width:0.916;stroke-linecap:square;" width="4.48" height="64.385"/>
		<g>
			<path style="fill:#CE4E43;" d="M391.91,100.632c0,1.404,1.139,2.542,2.543,2.542h70.83c1.404,0,2.543-1.139,2.543-2.542
				c0-1.404-1.139-2.542-2.543-2.542h-70.83C393.049,98.09,391.91,99.228,391.91,100.632
				C391.91,100.632,391.91,99.228,391.91,100.632z"/>
			<path style="fill:none;stroke:#FFFFFF;stroke-width:1.374;" d="M391.91,100.632c0,1.404,1.139,2.542,2.543,2.542h70.83
				c1.404,0,2.543-1.139,2.543-2.542c0-1.404-1.139-2.542-2.543-2.542h-70.83C393.049,98.09,391.91,99.228,391.91,100.632
				C391.91,100.632,391.91,99.228,391.91,100.632z"/>
		</g>
	</g>
	<g>
		<rect x="160.574" y="94.229" style="fill:#78B432;stroke:#FFFFFF;stroke-width:1.374;" width="5.478" height="72.816"/>
		<path style="fill:#78B432;stroke:#FFFFFF;stroke-width:1.374;" d="M179.264,98.219h-31.912v-7.979c0,0,7.569-3.492,15.547-3.492
			s16.364,3.492,16.364,3.492V98.219z"/>
		<rect x="153.086" y="149.782" style="fill:#78B432;stroke:#FFFFFF;stroke-width:0.916;" width="20.448" height="1.869"/>
	</g>
	
		<line style="fill:none;stroke:#78B432;stroke-width:3.427;stroke-linecap:round;" x1="26.713" y1="57.372" x2="134.205" y2="57.372"/>
	
		<line style="fill:none;stroke:#78B432;stroke-width:3.427;stroke-linecap:square;" x1="134.205" y1="57.372" x2="134.205" y2="81.416"/>
	
		<line style="fill:none;stroke:#78B432;stroke-width:3.427;stroke-linecap:square;" x1="134.205" y1="81.416" x2="123.899" y2="81.416"/>
	
		<line style="fill:none;stroke:#78B432;stroke-width:3.427;stroke-linecap:square;" x1="123.899" y1="81.416" x2="123.899" y2="166.141"/>
	
		<line style="fill:none;stroke:#78B432;stroke-width:3.427;stroke-linecap:round;" x1="123.899" y1="166.141" x2="512.43" y2="166.141"/>
	<g>
		<g>
			
				<line style="fill:none;stroke:#78B432;stroke-width:4.2837;stroke-linecap:round;stroke-linejoin:round;" x1="369.607" y1="86.733" x2="369.607" y2="125.331"/>
			
				<line style="fill:none;stroke:#78B432;stroke-width:4.2837;stroke-linecap:round;stroke-linejoin:round;" x1="369.607" y1="125.331" x2="408.203" y2="125.331"/>
			
				<line style="fill:none;stroke:#78B432;stroke-width:4.2837;stroke-linecap:round;stroke-linejoin:round;" x1="408.203" y1="125.331" x2="369.566" y2="163.969"/>
			
				<line style="fill:none;stroke:#78B432;stroke-width:4.2837;stroke-linecap:round;stroke-linejoin:round;" x1="369.566" y1="163.969" x2="391.82" y2="163.969"/>
		</g>
		<g>
			
				<line style="fill:none;stroke:#78B432;stroke-width:4.2837;stroke-linecap:round;stroke-linejoin:round;" x1="499.365" y1="86.733" x2="499.365" y2="125.331"/>
			
				<line style="fill:none;stroke:#78B432;stroke-width:4.2837;stroke-linecap:round;stroke-linejoin:round;" x1="499.365" y1="125.331" x2="460.773" y2="125.331"/>
			
				<line style="fill:none;stroke:#78B432;stroke-width:4.2837;stroke-linecap:round;stroke-linejoin:round;" x1="460.773" y1="125.331" x2="499.404" y2="163.969"/>
			
				<line style="fill:none;stroke:#78B432;stroke-width:4.2837;stroke-linecap:round;stroke-linejoin:round;" x1="499.404" y1="163.969" x2="477.152" y2="163.969"/>
		</g>
	</g>
	<g>
		<path style="fill:none;stroke:#92938B;stroke-width:2.5702;stroke-linecap:round;stroke-linejoin:round;" d="M235.741,30.472
			c0,8.708-5.385,15.761-12.035,15.761c-6.643,0-12.036-7.054-12.036-15.761c0-8.701,5.393-15.756,12.036-15.756
			C230.356,14.716,235.741,21.771,235.741,30.472z"/>
		<path style="fill:none;stroke:#92938B;stroke-width:2.5702;stroke-linecap:round;stroke-linejoin:round;" d="M224.068,67.622
			c0.179,11.112,0.158,23.015-0.94,28.472c-1.711,8.596-5.155,5.16-3.434,17.193c2.152,15.078,8.024,27.508,6.302,34.957
			c-9.382,40.672-9.74,41.836-0.577,40.691"/>
		<path style="fill:none;stroke:#92938B;stroke-width:2.5702;stroke-linecap:round;stroke-linejoin:round;" d="M223.707,46.81
			c-0.015,2.771,0.081,7.037,0.188,11.966"/>
		<path style="fill:none;stroke:#92938B;stroke-width:1.7135;stroke-linecap:round;stroke-linejoin:round;" d="M230.889,63.157
			c0,2.688-2.174,4.87-4.866,4.87s-4.879-2.182-4.879-4.87c0-2.691,2.187-4.873,4.879-4.873S230.889,60.466,230.889,63.157z"/>
	</g>
	<path style="fill:none;stroke:#92938B;stroke-width:1.7135;stroke-linecap:round;stroke-linejoin:round;" d="M334.559,105.59
		c0,1.516,1.225,2.748,2.746,2.748c1.506,0,2.744-1.232,2.744-2.748c0-1.518-1.238-2.746-2.744-2.746
		C335.783,102.844,334.559,104.073,334.559,105.59z"/>
	<path style="fill:none;stroke:#92938B;stroke-width:1.7135;stroke-linecap:round;stroke-linejoin:round;" d="M324.502,22.446
		c0,8.507,5.275,15.401,11.76,15.401c6.488,0,11.766-6.894,11.766-15.401c0-8.504-5.277-15.399-11.766-15.399
		C329.777,7.047,324.502,13.941,324.502,22.446z"/>
	<path style="fill:none;stroke:#92938B;stroke-width:1.7135;stroke-linecap:round;stroke-linejoin:round;" d="M335.971,38.459
		c0.055,10.75-1.445,42.537,0.611,52.855c1.844,9.216,2.662,6.423,0.824,19.329c-2.309,16.162,2.881,31.936,3.436,40.111
		c2.863,42.41,3.121,41.35-6.715,40.115"/>
	
		<text transform="matrix(-1.0323 0 0 1 312.0078 46.7744)" style="fill:none;stroke:#92938B; font-family:'Webdings'; font-size:55.2248;">&#xF05F;</text>
	<line style="fill:none;stroke:#D2031D;stroke-width:3;stroke-linecap:round;" x1="249.5" y1="7.819" x2="315.5" y2="58.319"/>
	<line style="fill:none;stroke:#D2031D;stroke-width:3;stroke-linecap:round;" x1="310.5" y1="8.319" x2="251" y2="57.319"/>
</g>
</svg>
