<?xml version="1.0" encoding="iso-8859-1"?>
<!-- Generator: Adobe Illustrator 13.0.0, SVG Export Plug-In . SVG Version: 6.00 Build 14948)  -->
<!DOCTYPE svg PUBLIC "-//W3C//DTD SVG 1.1//EN" "http://www.w3.org/Graphics/SVG/1.1/DTD/svg11.dtd">
<svg version="1.1" xmlns="http://www.w3.org/2000/svg" xmlns:xlink="http://www.w3.org/1999/xlink" x="0px" y="0px" width="378px"
	 height="140px" viewBox="0 0 378 140" style="enable-background:new 0 0 378 140;" xml:space="preserve">
<g id="fond">
	<g>
		<rect style="fill:#FFFFFF;" width="378" height="140"/>
	</g>
</g>
<g id="salle_de_reunion">
	<g>
		
			<line style="fill:none;stroke:#777768;stroke-linecap:round;stroke-linejoin:round;" x1="83.834" y1="51.042" x2="83.834" y2="110.042"/>
		
			<line style="fill:none;stroke:#777768;stroke-linecap:round;stroke-linejoin:round;" x1="113.667" y1="51.042" x2="113.667" y2="110.042"/>
		
			<rect x="83.834" y="83.083" style="fill:#FFFFFF;stroke:#777768;stroke-linecap:round;stroke-linejoin:round;" width="29.75" height="4.292"/>
		
			<rect x="83.834" y="50.625" style="fill:#FFFFFF;stroke:#777768;stroke-linecap:round;stroke-linejoin:round;" width="29.75" height="32.458"/>
	</g>
	<g>
		
			<line style="fill:none;stroke:#777768;stroke-linecap:round;stroke-linejoin:round;" x1="121.279" y1="51.042" x2="121.279" y2="110.042"/>
		
			<line style="fill:none;stroke:#777768;stroke-linecap:round;stroke-linejoin:round;" x1="151.112" y1="51.042" x2="151.112" y2="110.042"/>
		
			<rect x="121.279" y="83.083" style="fill:#FFFFFF;stroke:#777768;stroke-linecap:round;stroke-linejoin:round;" width="29.75" height="4.292"/>
		
			<rect x="121.279" y="50.625" style="fill:#FFFFFF;stroke:#777768;stroke-linecap:round;stroke-linejoin:round;" width="29.75" height="32.458"/>
	</g>
	<g>
		
			<line style="fill:none;stroke:#777768;stroke-linecap:round;stroke-linejoin:round;" x1="158.723" y1="51.042" x2="158.723" y2="110.042"/>
		
			<line style="fill:none;stroke:#777768;stroke-linecap:round;stroke-linejoin:round;" x1="188.557" y1="51.042" x2="188.557" y2="110.042"/>
		
			<rect x="158.723" y="83.083" style="fill:#FFFFFF;stroke:#777768;stroke-linecap:round;stroke-linejoin:round;" width="29.75" height="4.292"/>
		
			<rect x="158.723" y="50.625" style="fill:#FFFFFF;stroke:#777768;stroke-linecap:round;stroke-linejoin:round;" width="29.75" height="32.458"/>
	</g>
	<g>
		
			<line style="fill:none;stroke:#777768;stroke-linecap:round;stroke-linejoin:round;" x1="196.168" y1="51.042" x2="196.168" y2="110.042"/>
		
			<line style="fill:none;stroke:#777768;stroke-linecap:round;stroke-linejoin:round;" x1="226.001" y1="51.042" x2="226.001" y2="110.042"/>
		
			<rect x="196.168" y="83.083" style="fill:#FFFFFF;stroke:#777768;stroke-linecap:round;stroke-linejoin:round;" width="29.749" height="4.292"/>
		
			<rect x="196.168" y="50.625" style="fill:#FFFFFF;stroke:#777768;stroke-linecap:round;stroke-linejoin:round;" width="29.749" height="32.458"/>
	</g>
	<polyline id="porte_bleu" style="display:none;fill:none;stroke:#777768;stroke-linecap:round;stroke-linejoin:round;" points="
		54.333,133.489 54.333,8 150,8 150,133.489 	"/>
	<path id="table_158_" style="fill:#FFFFFF;stroke:#777768;stroke-width:0.5;stroke-linecap:round;stroke-linejoin:round;" d="
		M126.667,75.574C89.295,75.574,59,74.597,59,73.391c0-1.205,30.295-2.182,67.667-2.182h15.667H199
		c37.372,0,67.667,0.977,67.667,2.182c0,1.206-30.295,2.184-67.667,2.184h-56.666H126.667z"/>
	<g>
		
			<line style="fill:none;stroke:#777768;stroke-linecap:round;stroke-linejoin:round;" x1="47.667" y1="56.334" x2="47.667" y2="115.334"/>
		<polyline style="fill:none;stroke:#777768;stroke-linecap:round;stroke-linejoin:round;" points="48.083,92.667 77.417,92.667 
			77.417,115.334 		"/>
		
			<rect x="47.667" y="88.375" style="fill:#FFFFFF;stroke:#777768;stroke-linecap:round;stroke-linejoin:round;" width="29.75" height="4.292"/>
	</g>
	<g>
		
			<line style="fill:none;stroke:#777768;stroke-linecap:round;stroke-linejoin:round;" x1="276.75" y1="56.334" x2="276.75" y2="115.334"/>
		<polyline style="fill:none;stroke:#777768;stroke-linecap:round;stroke-linejoin:round;" points="276.334,92.667 247,92.667 
			247,115.334 		"/>
		
			<rect x="247" y="88.375" style="fill:#FFFFFF;stroke:#777768;stroke-linecap:round;stroke-linejoin:round;" width="29.75" height="4.292"/>
	</g>
	<g>
		
			<line style="fill:none;stroke:#777768;stroke-linecap:round;stroke-linejoin:round;" x1="94.167" y1="56.334" x2="94.167" y2="115.334"/>
		
			<line style="fill:none;stroke:#777768;stroke-linecap:round;stroke-linejoin:round;" x1="124" y1="56.334" x2="124" y2="115.334"/>
		
			<rect x="94.167" y="88.375" style="fill:#FFFFFF;stroke:#777768;stroke-linecap:round;stroke-linejoin:round;" width="29.75" height="4.292"/>
		
			<rect x="94.167" y="55.917" style="fill:#FFFFFF;stroke:#777768;stroke-linecap:round;stroke-linejoin:round;" width="29.75" height="32.458"/>
	</g>
	<g>
		
			<line style="fill:none;stroke:#777768;stroke-linecap:round;stroke-linejoin:round;" x1="131.167" y1="56.334" x2="131.167" y2="115.334"/>
		
			<line style="fill:none;stroke:#777768;stroke-linecap:round;stroke-linejoin:round;" x1="161" y1="56.334" x2="161" y2="115.334"/>
		
			<rect x="131.167" y="88.375" style="fill:#FFFFFF;stroke:#777768;stroke-linecap:round;stroke-linejoin:round;" width="29.75" height="4.292"/>
		
			<rect x="131.167" y="55.917" style="fill:#FFFFFF;stroke:#777768;stroke-linecap:round;stroke-linejoin:round;" width="29.75" height="32.458"/>
	</g>
	<g>
		
			<line style="fill:none;stroke:#777768;stroke-linecap:round;stroke-linejoin:round;" x1="168.166" y1="56.334" x2="168.166" y2="115.334"/>
		
			<line style="fill:none;stroke:#777768;stroke-linecap:round;stroke-linejoin:round;" x1="198" y1="56.334" x2="198" y2="115.334"/>
		
			<rect x="168.166" y="88.375" style="fill:#FFFFFF;stroke:#777768;stroke-linecap:round;stroke-linejoin:round;" width="29.75" height="4.292"/>
		
			<rect x="168.166" y="55.917" style="fill:#FFFFFF;stroke:#777768;stroke-linecap:round;stroke-linejoin:round;" width="29.75" height="32.458"/>
	</g>
	<g>
		
			<line style="fill:none;stroke:#777768;stroke-linecap:round;stroke-linejoin:round;" x1="205.166" y1="56.334" x2="205.166" y2="115.334"/>
		
			<line style="fill:none;stroke:#777768;stroke-linecap:round;stroke-linejoin:round;" x1="235" y1="56.334" x2="235" y2="115.334"/>
		
			<rect x="205.166" y="88.375" style="fill:#FFFFFF;stroke:#777768;stroke-linecap:round;stroke-linejoin:round;" width="29.75" height="4.292"/>
		
			<rect x="205.166" y="55.917" style="fill:#FFFFFF;stroke:#777768;stroke-linecap:round;stroke-linejoin:round;" width="29.75" height="32.458"/>
	</g>
	<g id="tableau">
		
			<line style="fill:#FFFFFF;stroke:#777768;stroke-width:0.7;stroke-linecap:round;stroke-linejoin:round;" x1="324.75" y1="28.333" x2="318" y2="115.5"/>
		
			<line style="fill:#FFFFFF;stroke:#777768;stroke-width:0.7;stroke-linecap:round;stroke-linejoin:round;" x1="316.875" y1="28.333" x2="331.126" y2="115.5"/>
		
			<line style="fill:#FFFFFF;stroke:#777768;stroke-width:0.7;stroke-linecap:round;stroke-linejoin:round;" x1="307.75" y1="28.333" x2="289.375" y2="115.5"/>
		<polygon style="fill:#FFFFFF;stroke:#777768;stroke-width:0.7;stroke-linecap:round;stroke-linejoin:round;" points="
			322.333,79.167 294.833,79.167 302.167,28.333 329.667,28.333 		"/>
		<path style="fill:#FFFFFF;stroke:#777768;stroke-width:0.5;stroke-linecap:round;stroke-linejoin:round;" d="M323.417,78.917
			c0,1.059-0.858,1.917-1.917,1.917h-27.416c-1.059,0-1.917-0.858-1.917-1.917l0,0c0-1.059,0.858-1.917,1.917-1.917H321.5
			C322.559,77,323.417,77.858,323.417,78.917L323.417,78.917z"/>
		<path style="fill:#FFFFFF;stroke:#777768;stroke-width:0.3;stroke-linecap:round;stroke-linejoin:round;" d="M302.625,76.438
			c0,0.285-0.211,0.516-0.471,0.516h-5.183c-0.26,0-0.471-0.23-0.471-0.516l0,0c0-0.285,0.211-0.516,0.471-0.516h5.183
			C302.414,75.922,302.625,76.152,302.625,76.438L302.625,76.438z"/>
		<path style="fill:#FFFFFF;stroke:#777768;stroke-width:0.3;stroke-linecap:round;stroke-linejoin:round;" d="M310,76.438
			c0,0.285-0.211,0.516-0.471,0.516h-5.183c-0.26,0-0.471-0.23-0.471-0.516l0,0c0-0.285,0.211-0.516,0.471-0.516h5.183
			C309.789,75.922,310,76.152,310,76.438L310,76.438z"/>
	</g>
</g>
</svg>
