<?xml version="1.0" encoding="iso-8859-1"?>
<!-- Generator: Adobe Illustrator 15.0.2, SVG Export Plug-In . SVG Version: 6.00 Build 0)  -->
<!DOCTYPE svg PUBLIC "-//W3C//DTD SVG 1.1//EN" "http://www.w3.org/Graphics/SVG/1.1/DTD/svg11.dtd">
<svg version="1.1" xmlns="http://www.w3.org/2000/svg" xmlns:xlink="http://www.w3.org/1999/xlink" x="0px" y="0px" width="378px"
	 height="140px" viewBox="0 0 378 140" style="enable-background:new 0 0 378 140;" xml:space="preserve">
<g id="Layer_2">
	<g>
		<rect style="fill:none;" width="378" height="140"/>
		<rect style="fill:#FFFFFF;" width="378" height="140"/>
	</g>
</g>
<g id="montagne">
	<path style="fill:none;stroke:#65B724;stroke-linecap:round;stroke-linejoin:round;" d="M13.5,105.302
		C65.375,90.484,138,52.5,176.5,52.5c64,0,52,28.5,191,36.5"/>
	<path style="fill:none;stroke:#65B724;stroke-linecap:round;stroke-linejoin:round;" d="M249.121,69.604
		C249.121,69.604,297,52,366.5,52"/>
</g>
<g id="Layer_8">
</g>
<g id="Layer_6">
	<path style="fill:#663300;" d="M92.5,124.761c-7.375,0-15.631-0.721-17.047-19.027c-1.022-13.217-0.662-24.677-0.578-31.593
		l-8.134,1.729c0,0-0.503,5.804-1.366,16.163c-0.358,4.286,0.13,15.429-0.5,20.072c-0.307,2.264-0.931,4.123-1.743,5.662
		c-2.959-2.739-5.195-6.479-5.632-11.582c-1.032-12.062-1.845-21.257,0.244-31.741l-8.911-0.857c0,0,2.985,21.913,0.833,39.758
		c-0.283,2.346-1.417,4.213-3.037,5.709c-1.203-2.816-2.209-6.913-2.719-12.868c-1.032-12.062,0.244-20.48,0.244-31.741
		l-8.911-0.857c0,0,2.985,21.913,0.833,39.758c-0.241,1.999-0.772,3.648-1.48,5.021c-1.575-2.806-2.711-6.836-3.159-12.633
		c-0.226-2.921-0.384-15.989-0.493-17.891c-0.384-6.699-0.15-8.314-0.085-13.702l-8.139-0.033c0,0,1.977,34.944,0.578,39.604
		c-2.109,7.026-10.174,11.258-10.174,11.258s5.127-0.024,11.522-0.058C23.939,125,23.5,125,23.5,125s0.909,0,2.415,0
		c0,0,13.515,0,27.335,0h28.665c-0.354,0-1.022-0.042-1.907-0.148C88.866,124.803,95.586,124.761,92.5,124.761z"/>
</g>
<g id="Layer_10">
	<path style="fill:#669933;" d="M96.537,56.014c-0.258-2.056-0.916-4.383-2.231-6.042c-1.598-2.014-4.517-2.044-6.132-3.73
		c0.738-1.073,3.287-4.122,2.101-5.316c-0.407-0.41-2.168-0.116-2.831-0.559c-0.93-0.621-0.833-0.884-0.983-1.804
		c-0.089-0.55,0.28-1.325-0.103-1.795c-0.427-0.524-0.044-4.377-2.37-5.832s-4.738,1.132-4.738,1.132h-0.001
		c0.56-1.178,0.882-2.78-0.068-3.375c-1.811-1.131-2.811,2.163-4.2,3.003c-0.1-0.031-0.199-0.062-0.303-0.087
		c1.776-2.964-2.078-3.139-3.537-4.417c-0.077-0.067-0.13-0.147-0.174-0.231c0.376-0.586,0.666-1.218,0.78-1.943
		c-3.409-1.037-7.109,0.718-9.757-2.26C59.8,20.296,58.1,15.331,53.977,19c-3.168,2.819-2.611,6.812-3.084,10.187
		c-3.012-3.063-9.098-5.95-11.899-3.957c-1.75,1.245-2.634,3.173-2.646,5.018c-0.952-0.707-1.771-1.4-2.954-1.516
		c-2.055-0.202-4.116,1.141-6.201,0.977c0.042-0.283-0.105-0.68-0.052-0.962c-0.414,0.232-1.288,0.768-1.804,0.636
		c-0.731-0.186-0.815-1.462-1.68-1.327c-0.946,0.148-1.105,1.297-1.032,2.244c-2.694-1.662-9.418-4.722-10.815-2.075
		c-0.811,1.537,1.493,1.298,1.817,2.317c0.334,1.05-0.46,0.573-1.131,1.142c-0.897,0.761-1.065,1.694-1.821,2.425
		c-0.389,0.375-1.102,0.383-1.479,0.784C8.903,35.204,8.75,36.131,8.51,36.53c1.771,0.673,1.471,1.11,0.864,2.542
		c-0.873,2.061-0.13,1.594,0.345,3.699c0.292,1.292-0.68,2.133-0.568,3.288c0.143,1.483,1.996,1.949,0.657,3.517
		c-1.239,1.45-6.205,2.695-6.277,5c-0.022,0.706,1.112,1.59,1.424,2.28c0.694,1.535,0.583,3.223,1.37,4.756
		c0.608,1.184,1.333,2.227,2.46,2.914c1.158,0.706,2.925,0.748,3.047,2.374c0.148,1.968-1.782,2.845-1.037,5.17
		c0.323,1.01,0.989,1.543,1.545,2.502c0.429,0.738,0.474,2.109,1.151,2.461c0.805,0.418,1.171-0.543,1.837,0.021
		c0.982,0.832,0.107,2.51,0.534,3.475c0.279,0.629,2.609,2.947,3.299,3.17c0.641,0.209,1.571-0.369,2.375-0.182
		c1.072,0.25,1.495,0.771,2.613,0.846c1.264,0.084,4.77,0.274,6.961,0.119c0.698,0.253,1.474,0.369,2.136,0.375
		c1.049,0.01,2.516-0.148,3.509-0.494c0.387-0.135,0.634-0.381,0.995-0.498c0.824-0.268,0.671-0.074,1.502-0.031
		c1.418,0.074,1.19-0.148,1.497-1.35c0.25-0.979,0.485-1.828,1.875-1h0.125c-0.017-0.178-0.217-0.195,0.02-0.359
		c0.796,0.232,1.574,0.949,2.483,0.736c0.921-0.217,1.281-1.143,1.618-2.052c0.558,0.186,1.089,0.319,1.557,0.374
		c2.248,0.262,3.492-0.805,4.546-2.225c0.914-0.1,1.784-0.391,2.513-1.096c0.219-0.212,0.387-0.45,0.519-0.705
		c0.897,1.958,1.423,4.092,4.208,4.594c3.641,0.658,2.494-4.016,5.933-3.492c0.272,2.803,3.18,7.205,6.196,5.018
		c1.336-0.969,0.744-1.184,2.44-1.047c1.583,0.127,2.385,0.148,3.922-0.205c2.522-0.578,8.518,1.557,9.612-2.113
		c0.608-2.043-1.623-4.41-1.138-6.564c0.39-1.733,2.226-2.242,2.985-3.596c2.881-1.148,4.404-4.225,5.213-7.158
		C95.937,59.552,96.818,58.266,96.537,56.014z"/>
</g>
<g id="Layer_12">
	<g>
		<g>
			<path style="fill:none;" d="M44,43.234c0.75-1.75-1.25-5-3.25-5.75c-3.75-1.25-1.75,1.5-3.75,3c-2.5,1.75-14-3.5-8.25,5.75"/>
			<path style="fill:#006600;" d="M44.246,43.325c0.666-2.601-1.595-5.964-4.295-6.329c-0.618-0.083-1.538-0.201-1.839,0.541
				c-0.85,2.094-1.27,3.164-3.707,3.067c-2.093-0.083-4.578-0.827-6.575,0.088c-2.21,1.013-0.002,4.503,0.71,5.642
				c0.155,0.248,0.57,0.065,0.42-0.199c-1.253-2.203-2.705-5.242,1-5.338c1.604-0.042,3.208,0.262,4.809,0.327
				c1.104,0.045,2.003-0.075,2.818-0.843c0.386-0.363,0.585-1.001,0.695-1.494c0.785-3.523,6.211,1.486,5.473,4.357
				C43.671,43.467,44.162,43.651,44.246,43.325L44.246,43.325z"/>
		</g>
	</g>
	<g>
		<g>
			<path style="fill:none;" d="M24.25,67.984c-1.5,1-2.75,2.25-1.5,3.25"/>
			<path style="fill:#006600;" d="M24.144,67.859c-0.914,0.608-3.259,2.449-1.522,3.557c0.212,0.135,0.462-0.127,0.298-0.326
				c-0.193-0.233-0.408-0.404-0.47-0.717c-0.062-0.312,0.16-0.64,0.323-0.877c0.392-0.57,1.024-0.999,1.583-1.387
				C24.531,67.988,24.317,67.743,24.144,67.859L24.144,67.859z"/>
		</g>
	</g>
	<g>
		<g>
			<path style="fill:none;" d="M77,50.484c3-6,12,3,5,8.5c6.25-2.75,4,6.25-1.75,7.5"/>
			<path style="fill:#006600;" d="M77.195,50.621c1.537-2.646,4.084-2.079,5.868-0.041c2.321,2.651,1.188,6.129-1.223,8.217
				c-0.219,0.189,0.01,0.509,0.265,0.41c2.553-0.994,3.931,0.419,2.954,2.921c-0.819,2.1-2.77,3.497-4.848,4.138
				c-0.267,0.082-0.208,0.507,0.077,0.438c2.927-0.703,5.47-3.272,5.704-6.354c0.049-0.65-0.232-1.562-0.876-1.863
				c-0.421-0.197-0.846-0.327-1.327-0.258c-1.27,0.183-1.359,0.782-0.437-0.199c4.516-4.804-3.038-13.75-6.547-7.683
				C76.652,50.611,77.041,50.887,77.195,50.621L77.195,50.621z"/>
		</g>
	</g>
	<g>
		<g>
			<path style="fill:none;" d="M60.625,37.109c-0.875-2.375-1.25-4.5,1.875-4.25c1.25,0,2.75,0.625,2.875,2
				c2.625,0.125,7.25-1.875,6.5,2.375"/>
			<path style="fill:#006600;" d="M60.838,37.007c-0.304-0.868-0.575-1.696-0.581-2.624c-0.017-2.885,4.608-0.497,4.855,0.521
				c0.026,0.108,0.114,0.217,0.237,0.219c2.263,0.026,6.674-1.662,6.27,2.086c-0.036,0.33,0.463,0.372,0.51,0.048
				c0.192-1.329-0.06-2.783-1.646-2.971c-0.872-0.104-1.719-0.016-2.587,0.091c-0.59,0.072-1.177,0.152-1.77,0.204
				c-0.691,0.061-0.622-0.574-0.957-0.892c-1.018-0.969-3.5-1.805-4.725-0.706c-1.234,1.107-0.509,2.901-0.034,4.226
				C60.515,37.498,60.938,37.292,60.838,37.007L60.838,37.007z"/>
		</g>
	</g>
	<g>
		<g>
			<path style="fill:none;" d="M69.625,60.359C71.5,59.234,72,60.234,72.5,61.734c0.125,0.25-0.375,0.875-0.25,1.25
				c0.25,0.625,0.75,0.75,1,1.375c1,1.75,1.125,0.75,0.25,2.125c-0.5,0.875-1.5,0.625-1.75,1.875"/>
			<path style="fill:#006600;" d="M69.714,60.546c1.065-0.557,1.814-0.509,2.303,0.595c0.247,0.557-0.016,0.975-0.024,1.5
				c-0.016,0.903,0.838,1.55,1.285,2.283c0.008,0.013,0.512,0.68,0.519,0.668c-0.25,0.45-0.704,1.028-1.123,1.29
				c-0.617,0.386-0.962,0.668-1.186,1.38c-0.107,0.343,0.417,0.538,0.524,0.194c0.355-1.135,1.876-1.51,2.323-2.715
				c0.058-0.156-0.004-0.33-0.104-0.452c-0.468-0.573-0.773-1.251-1.276-1.792c-0.924-0.994,0.051-1.1-0.222-1.875
				c-0.197-0.558-0.406-1.077-0.775-1.541c-0.638-0.8-1.726-0.298-2.421,0.089C69.305,60.3,69.476,60.67,69.714,60.546
				L69.714,60.546z"/>
		</g>
	</g>
	<g>
		<g>
			<path style="fill:none;" d="M46.5,76.859c-2.75,0.25-3.75,1.875-5.875-1.25"/>
			<path style="fill:#006600;" d="M46.455,76.604c-0.92,0.102-1.784,0.383-2.684,0.576c-1.454,0.314-2.108-0.775-2.949-1.738
				c-0.188-0.213-0.577,0.016-0.43,0.277c0.548,0.979,1.467,1.906,2.627,2.037c1.145,0.129,2.391-0.516,3.525-0.641
				C46.878,77.078,46.786,76.566,46.455,76.604L46.455,76.604z"/>
		</g>
	</g>
	<g>
		<g>
			<path style="fill:none;" d="M55,70.734c1,2.375-1.875,4.625-3.5,2.5"/>
			<path style="fill:#006600;" d="M54.765,70.845c0.35,0.917,0.15,1.872-0.581,2.536c-0.856,0.777-1.759,0.373-2.487-0.314
				c-0.194-0.182-0.598,0.01-0.43,0.277c0.64,1.023,2.011,1.305,3.013,0.609c1.101-0.766,1.422-2.104,0.955-3.331
				C55.116,70.309,54.646,70.534,54.765,70.845L54.765,70.845z"/>
		</g>
	</g>
	<g>
		<g>
			<path style="fill:none;" d="M22.5,52.984c-0.875-0.75-3.375-1.75-4.25-0.625c-1.125,1.375,0.875,3.625,1.75,4.625
				c-1.5,0.25-5.125-1-5.875,0.875c-0.625,1.5,1.5,3.125,2.5,3.875"/>
			<path style="fill:#006600;" d="M22.66,52.755c-0.961-0.725-3.704-2.056-4.635-0.553c-1.097,1.771,0.644,3.667,1.77,4.956
				c0.053-0.146,0.105-0.292,0.158-0.437c-1.564,0.163-4.42-0.948-5.667,0.449c-1.592,1.784,0.821,3.794,2.187,4.78
				c0.278,0.201,0.567-0.222,0.303-0.432c-0.575-0.457-1.127-0.902-1.645-1.428c-1.776-1.802-0.334-3.009,1.417-3.021
				c1.171-0.008,2.326,0.298,3.499,0.179c0.205-0.021,0.285-0.292,0.158-0.437c-0.634-0.728-1.225-1.462-1.688-2.314
				c-0.741-1.364,0.649-2.532,1.992-2.208c0.664,0.16,1.292,0.516,1.831,0.924C22.627,53.431,22.947,52.972,22.66,52.755
				L22.66,52.755z"/>
		</g>
	</g>
	<g>
		<g>
			<path style="fill:none;" d="M54.75,52.484c-2.5-5.5-8-7.75-7.25-0.25c-3-0.5-6.5,0.5-4.25,4.25"/>
			<path style="fill:#006600;" d="M54.981,52.374c-0.754-1.566-5.663-8.22-7.373-3.891c-0.389,0.985-0.486,2.042-0.404,3.098
				c0.03,0.384-2.491,0.382-2.897,0.519c-2.276,0.768-2.327,2.563-1.261,4.481c0.14,0.253,0.544,0.067,0.409-0.194
				c-1.746-3.397,1.274-4.283,4.022-3.908c0.171,0.023,0.277-0.136,0.266-0.288c-0.161-2.123,0.167-5.644,3.148-4.051
				c1.687,0.902,2.833,2.795,3.628,4.453C54.662,52.891,55.125,52.672,54.981,52.374L54.981,52.374z"/>
		</g>
	</g>
	<g>
		<g>
			<path style="fill:none;" d="M62.833,47.15c-3-2.083,1.083-2.5,1.167-0.833c0.917,0.167,1.583-0.667,2.5-0.833
				c0.083,0.167,0.167,0.333,0.25,0.583"/>
			<path style="fill:#006600;" d="M62.961,46.968c-0.354-0.259-1.573-1.2-0.564-1.403c0.566-0.114,1.282,0.176,1.349,0.797
				c0.012,0.113,0.121,0.201,0.229,0.212c0.983,0.095,1.66-0.614,2.568-0.84c-0.091-0.047-0.183-0.094-0.274-0.141
				c0.095,0.189,0.18,0.382,0.265,0.576c0.106,0.242,0.529,0.117,0.45-0.144c-0.07-0.23-0.15-0.434-0.255-0.651
				c-0.047-0.097-0.165-0.167-0.274-0.141c-0.833,0.198-1.55,0.914-2.432,0.827c0.076,0.071,0.153,0.142,0.229,0.212
				c-0.104-0.989-1.258-1.417-2.125-1.176c-1.456,0.404-0.022,1.813,0.577,2.237C62.941,47.499,63.193,47.138,62.961,46.968
				L62.961,46.968z"/>
		</g>
	</g>
	<g>
		<g>
			<path style="fill:none;" d="M81.167,74.984c1.167,0.332,1.417,2.082-0.083,1.5C81,77.4,80,78.65,79,78.066"/>
			<path style="fill:#006600;" d="M81.088,75.197c0.718,0.24,1.25,1.486,0.074,1.074c-0.142-0.049-0.283,0.045-0.303,0.191
				c-0.115,0.838-0.856,1.824-1.784,1.402c-0.221-0.1-0.413,0.262-0.198,0.377c1.203,0.645,2.274-0.605,2.431-1.736
				c-0.101,0.062-0.202,0.127-0.303,0.189c0.544,0.191,1.204,0.207,1.34-0.475c0.133-0.662-0.55-1.264-1.101-1.449
				C80.968,74.678,80.811,75.104,81.088,75.197L81.088,75.197z"/>
		</g>
	</g>
	<g>
		<g>
			<path style="fill:none;" d="M33.75,78.4c0.333,0.084,0.167,1.334,0,1.834c-0.833,3.416-2.417,1.5-4.083,0.25
				C29,81.066,28.5,82.15,27.5,82.234C26.583,82.4,25.667,81.9,25.833,80.9c-0.917,0.834-2.917,0.166-3.083-1.084"/>
			<path style="fill:#006600;" d="M33.575,78.432c0.168,0.736-0.096,3.797-1.619,3.35c-0.76-0.225-1.507-1.059-2.121-1.537
				c-0.097-0.074-0.269-0.072-0.357,0.018c-0.623,0.631-3.254,3.287-3.366,0.59c-0.01-0.24-0.308-0.266-0.46-0.166
				c-1.014,0.666-2.274,0.139-2.666-0.98c-0.097-0.275-0.563-0.125-0.491,0.156c0.402,1.564,2.219,2.104,3.522,1.254
				c-0.155-0.08-0.309-0.16-0.463-0.24c0.041,1.076,0.773,1.951,1.997,1.641c0.576-0.145,0.994-0.346,1.396-0.803
				c1.063-1.209,1.401-0.092,2.469,0.439c2.277,1.131,3.775-3.311,2.397-3.918C33.69,78.182,33.546,78.305,33.575,78.432
				L33.575,78.432z"/>
		</g>
	</g>
</g>
<g id="champs_de_bl&#xE9;">
	<g>
		<path style="fill:#CCBA32;" d="M335.957,122.221c0.035-0.032,0.068-0.103,0.101-0.189c0.209,0.536,0.412,0.972,0.589,1.085
			c0.07-0.012-0.153-0.677-0.473-1.535c0.151-0.771,0.27-2.085,0.4-3.266l0.22,0.405c0.034,1.691,0.134,4.542,0.137,6.328
			c0,0.058,0.122,0.307,0.109-0.139c-0.219-7.123-0.113-8.391-0.113-8.391c0.218-0.214,0.543-1.583,0.854-2.87
			c0.312,1.287,0.638,2.656,0.855,2.87c0,0,0.104,1.268-0.112,8.391c-0.014,0.445,0.108,0.196,0.108,0.139
			c0.003-1.786,0.07-4.244,0.104-5.936l1.092-3.809c0.334-0.298,0.406,0.535,0.627,1.178c-0.004,1.891,0.071,2.432,0.079,4.129
			c-0.469,1.381-0.396,2.49-0.259,2.513c0.104-0.219,0.178-0.637,0.25-1.07c-0.011,0.755-0.031,1.669-0.067,2.856
			c-0.013,0.445,0.109,0.196,0.109,0.139c0.002-1.786,0.076-0.739,0.11-2.431l0.841-0.863c0.001-0.032,0.004-0.067,0.006-0.101
			l0.655,1.554c0.034,1.691,0.009,0.055,0.012,1.841c0,0.058,0.114,0.307,0.107-0.139c-0.058-4.567-0.066-6.571-0.065-7.425
			c0.229,1.284,0.529,3.058,0.574,4.27l0.841,0.863c0.034,1.691,0.108,0.645,0.111,2.431c0,0.058,0.122,0.307,0.108-0.139
			c-0.179-5.847,0.01-5.493,0.003-8.428c0.222-0.643,0.293-1.476,0.627-1.178l1.092,3.809c0.034,1.691,0.103,4.149,0.104,5.936
			c0,0.058,0.122,0.307,0.108-0.139c-0.218-7.123-0.111-8.391-0.111-8.391c0.217-0.214,0.542-1.583,0.854-2.87
			c0.312,1.287,0.638,2.656,0.855,2.87c0,0,0.104,1.268-0.113,8.391c-0.013,0.445,0.109,0.196,0.109,0.139
			c0.003-1.786,0.102-4.637,0.137-6.328l0.22-0.405c0.132,1.18,0.25,2.493,0.401,3.265c-0.32,0.858-0.545,1.524-0.475,1.536
			c0.178-0.113,0.381-0.549,0.59-1.087c0.032,0.088,0.065,0.159,0.102,0.191l0.539,0.397c0.034,1.691,0.108,0.645,0.11,2.431
			c0,0.058,0.122,0.307,0.109-0.139c-0.08-2.624-0.086-3.994-0.069-4.977c0.199-0.456,0.382-0.735,0.527-0.605l1.231,2.268
			c0.035,1.691,0.134,1.667,0.137,3.453c0,0.058,0.122,0.307,0.108-0.139c-0.217-7.123-0.112-8.391-0.112-8.391
			c0.411-0.402,1.202-4.911,1.567-5.229c-0.491,0.132-1.088,4.043-1.563,4.896l0.055-15.067c0.004-0.445-0.014-2.988-0.014-2.988
			c0.461-0.327,0.511-3.231,0.841-3.568c-0.427,0.185-0.417,2.958-0.837,3.287l0.06-5.278c-0.109,0.164-0.116,1.156-0.181,1.345
			c-0.024-0.055-0.129-0.916-0.152-0.96c-0.289,1.361-0.15,2.696,0.023,4.037l0.032,0.248c0.075,0.579,0.065,1.258,0.064,1.439
			c-0.001,0.183,0.107,2.85,0.008,3.052c-0.111-0.156-0.528-1.281-0.957-1.181c0.223,0.272,0.636,0.869,0.929,1.277
			c0.165,0.229,0,1.707,0.02,3.442c-0.136-0.182-0.405-0.971-0.606-1.51c-0.254-0.688-1.03,2.309-0.914,2.743
			c0.13,0.762,0.549-3.156,0.816-2.395c0.249,0.709,0.623,1.504,0.71,1.746c0.004,0.48-0.06,2.524-0.06,2.524
			c0.03,1.644,0.044,2.191,0.05,2.355c-0.062-0.392-0.293-1.032-0.599-1.62c0.166-0.632,0.316-1.114,0.427-1.21
			c-0.158,0.043-0.327,0.479-0.5,1.075c-0.316-0.58-0.698-1.082-1.049-1.19c0.441,0.214,0.843,0.985,0.954,1.534
			c-0.334,1.25-0.676,2.949-0.97,3.478l-0.018-6.383c0.047-0.035,0.094-0.071,0.142-0.095c-0.046,0.015-0.094,0.053-0.142,0.08
			l-0.014-5.286c0.005-0.445,0.021-1.481,0.021-1.481c0.461-0.326,0.51-3.229,0.841-3.567c-0.427,0.186-0.418,2.96-0.838,3.289
			l0.025-6.788c-0.108,0.164-0.115,1.156-0.181,1.345c-0.024-0.055-0.129-0.916-0.152-0.96c-0.288,1.361-0.15,2.696,0.023,4.037
			l0.032,0.248c0.076,0.579,0.065,1.258,0.064,1.439c-0.001,0.183,0.1,1.822,0,2.025c-0.111-0.157-0.822-0.863-1.252-0.763
			c0.34,0.083,0.93,0.451,1.223,0.858c0.166,0.229,0.043,3.563,0.062,5.298c-0.136-0.182-0.405-0.97-0.605-1.51
			c-0.175-0.471-0.593,0.782-0.802,1.761c-0.001-1.688-0.178-3.671-0.021-3.888c0.293-0.407,0.715-1.639,0.938-1.911
			c-0.429-0.101-0.855,1.658-0.966,1.814c-0.1-0.202,0.018-3.503,0.017-3.686c-0.001-0.182-0.011-0.86,0.064-1.439l0.032-0.248
			c0.173-1.341,0.312-2.676,0.023-4.037c-0.023,0.044-0.128,0.905-0.152,0.96c-0.064-0.188-0.072-1.181-0.181-1.345l0.059,5.278
			c-0.405-0.318-0.41-2.914-0.796-3.253c0.007-0.011,0.014-0.026,0.021-0.034c-0.011,0.005-0.021,0.018-0.03,0.026
			c-0.011-0.009-0.021-0.021-0.031-0.026c0.008,0.008,0.015,0.023,0.021,0.034c-0.385,0.339-0.391,2.935-0.798,3.253l0.06-5.278
			c-0.107,0.164-0.114,1.156-0.181,1.345c-0.023-0.055-0.129-0.916-0.151-0.96c-0.288,1.361-0.15,2.696,0.022,4.037l0.034,0.248
			c0.075,0.579,0.064,1.258,0.062,1.439c-0.001,0.183,0.128,3.709,0.028,3.911c-0.11-0.156-0.242-1.906-0.672-1.808
			c0.224,0.274,0.571,1.408,0.644,1.903c0.056,0.372-0.005,0,0.015,1.736c-0.136-0.181-0.37-0.551-0.62-0.662
			c-0.671-0.3-1.162,1.793-1.046,2.229c0.448-1.953,0.914-1.994,0.975-1.947c0.395,0.305,0.61,0.723,0.697,0.966
			c0.004,0.48-0.075,3.372-0.075,3.372c0.03,1.643,0.044,2.191,0.05,2.355c-0.061-0.392-0.292-1.032-0.598-1.62
			c0.166-0.632,0.316-1.114,0.427-1.21c-0.158,0.043-0.327,0.479-0.499,1.075c-0.317-0.579-0.699-1.082-1.05-1.19
			c0.441,0.214,0.843,0.985,0.954,1.534c-0.334,1.25-0.675,2.95-0.969,3.478l-0.032-11.684c0.004-0.445,0.021-1.481,0.021-1.481
			c0.461-0.326,0.51-3.229,0.841-3.567c-0.428,0.186-0.418,2.96-0.837,3.289l0.024-6.788c-0.107,0.164-0.115,1.156-0.181,1.345
			c-0.024-0.055-0.129-0.916-0.152-0.96c-0.288,1.361-0.15,2.696,0.023,4.037l0.033,0.248c0.075,0.579,0.065,1.258,0.063,1.439
			c-0.001,0.183,0.139,1.152,0.038,1.354c-0.11-0.155-0.604-0.728-1.036-0.874c0.27,0.311,0.716,0.564,1.009,0.971
			c0.164,0.229,0.003,4.234,0.021,5.969c-0.134-0.182-0.405-0.97-0.605-1.51c-0.189-0.512-0.666,1.012-0.851,2.006l0.02-5.477
			c0.004-0.445-0.013-2.988-0.013-2.988c0.46-0.327,0.51-3.231,0.84-3.568c-0.427,0.185-0.417,2.958-0.837,3.287l0.059-5.278
			c-0.107,0.164-0.115,1.156-0.18,1.345c-0.024-0.055-0.129-0.916-0.153-0.96c-0.287,1.361-0.148,2.696,0.024,4.037l0.032,0.248
			c0.075,0.579,0.065,1.258,0.064,1.439c-0.001,0.183,0.107,2.85,0.008,3.052c-0.11-0.156-0.528-1.281-0.957-1.181
			c0.223,0.272,0.636,0.869,0.929,1.277c0.157,0.218-0.013,2.771-0.014,4.514c-0.21-0.978-0.625-2.223-0.8-1.753
			c-0.2,0.54-0.471,1.328-0.605,1.51c0.019-1.734-0.144-5.74,0.021-5.969c0.293-0.406,0.738-0.66,1.01-0.971
			c-0.435,0.146-0.927,0.719-1.038,0.874c-0.1-0.201,0.04-1.171,0.039-1.354c-0.002-0.182-0.013-0.86,0.063-1.439l0.033-0.248
			c0.174-1.341,0.312-2.676,0.023-4.037c-0.023,0.044-0.128,0.905-0.152,0.96c-0.066-0.188-0.072-1.181-0.181-1.345l0.025,6.788
			c-0.421-0.329-0.411-3.104-0.838-3.289c0.331,0.338,0.38,3.241,0.84,3.567c0,0,0.018,1.036,0.022,1.481l-0.014,5.286
			c-0.048-0.027-0.096-0.065-0.142-0.08c0.048,0.023,0.095,0.06,0.142,0.095l-0.018,6.383c-0.295-0.527-0.636-2.228-0.97-3.478
			c0.111-0.549,0.513-1.32,0.953-1.534c-0.351,0.108-0.731,0.61-1.049,1.189c-0.172-0.596-0.341-1.031-0.499-1.074
			c0.11,0.096,0.261,0.577,0.427,1.21c-0.306,0.588-0.537,1.229-0.599,1.62c0.006-0.164,0.02-0.712,0.05-2.355
			c0,0-0.079-2.892-0.073-3.372c0.087-0.243,0.302-0.661,0.696-0.966c0.061-0.047,0.526-0.006,0.975,1.947
			c0.115-0.436-0.376-2.528-1.046-2.229c-0.251,0.111-0.485,0.481-0.62,0.662c0.02-1.736-0.041-1.364,0.014-1.736
			c0.073-0.495,0.421-1.629,0.645-1.903c-0.43-0.099-0.562,1.651-0.672,1.808c-0.101-0.202,0.028-3.729,0.027-3.911
			c-0.001-0.182-0.012-0.86,0.064-1.439l0.032-0.248c0.173-1.341,0.312-2.676,0.023-4.037c-0.023,0.044-0.129,0.905-0.152,0.96
			c-0.065-0.188-0.071-1.181-0.181-1.345l0.06,5.278c-0.406-0.318-0.412-2.916-0.798-3.254c0.008-0.01,0.014-0.025,0.021-0.033
			c-0.011,0.005-0.021,0.018-0.03,0.025c-0.01-0.008-0.02-0.021-0.03-0.025c0.008,0.008,0.015,0.023,0.021,0.033
			c-0.385,0.338-0.391,2.936-0.797,3.254l0.06-5.278c-0.109,0.164-0.115,1.156-0.181,1.345c-0.024-0.055-0.13-0.916-0.152-0.96
			c-0.288,1.361-0.149,2.696,0.023,4.037l0.032,0.248c0.077,0.579,0.065,1.258,0.063,1.439c-0.001,0.183,0.117,3.483,0.017,3.686
			c-0.11-0.156-0.536-1.915-0.966-1.814c0.224,0.272,0.646,1.504,0.938,1.911c0.156,0.217-0.021,2.203-0.02,3.892
			c-0.21-0.979-0.628-2.236-0.803-1.765 M336.666,99.943 M336.086,105.441c0.206,0.587,0.488,1.214,0.631,1.556
			c0.028,0.128,0.054,0.233,0.078,0.31c0.002,0.339-0.006,0.348-0.006,0.348c0.017,0.868,0.025,1.359,0.03,1.631 M336.084,108.141
			l0.736,1.454l-0.006,1.967 M336.109,113.215c-0.008-0.422,0.306-1.186,0.705-1.595l-0.014,4.599
			c-0.117,0.235-0.235,0.574-0.35,0.975 M336.519,106.002c-0.111-0.292-0.232-0.633-0.335-0.909
			c-0.032-0.088-0.073-0.114-0.12-0.096c0.007-0.02,0.016-0.039,0.022-0.059C336.212,104.579,336.371,105.261,336.519,106.002z
			 M336.29,117.794c-0.207,0.839-0.397,1.818-0.55,2.651 M336.637,117.774c0.051-0.416,0.104-0.791,0.163-1.102l-0.005,1.67
			C336.779,118.273,336.722,118.056,336.637,117.774z M336.931,116.14c0.037-0.107,0.077-0.182,0.119-0.226
			c-0.041,0.107-0.08,0.203-0.119,0.272V116.14z M337.841,113.404c0.254-1.042,0.494-1.975,0.653-2.113
			c-0.223,0.06-0.468,0.898-0.713,1.875c-0.245-0.977-0.489-1.815-0.712-1.875c0.159,0.139,0.398,1.071,0.652,2.113
			c-0.229,0.929-0.455,1.926-0.664,2.488c-0.042,0.021-0.084,0.059-0.126,0.113l0.016-4.506c0.05-0.038,0.099-0.076,0.149-0.101
			c-0.049,0.015-0.1,0.056-0.149,0.085l0.037-10.365c0.005-0.445-0.012-2.988-0.012-2.988c0.444-0.316,0.507-3.04,0.809-3.521
			c0.303,0.48,0.364,3.204,0.81,3.521c0,0-0.017,2.543-0.013,2.988l0.055,15.067C338.391,115.752,338.116,114.523,337.841,113.404z
			 M343.694,114.366c-0.047-0.325-0.221-0.834-0.456-1.34c0.171-0.763,0.33-1.399,0.456-1.642
			C343.694,112.98,343.694,114.366,343.694,114.366z M342.981,104.938c0.249,0.71,0.621,1.504,0.708,1.746
			c0.003,0.269,0.004,2.619,0.005,4.651c-0.178,0.153-0.368,0.744-0.56,1.477c-0.271-0.537-0.6-1.034-0.926-1.276v-0.037
			c0.05-0.038,0.099-0.075,0.149-0.1c-0.049,0.015-0.099,0.056-0.149,0.085l0.016-4.066
			C342.396,107.195,342.746,104.271,342.981,104.938z M342.318,115.896c-0.044,0.024-0.085,0.067-0.125,0.131l0.016-4.45
			c0.419,0.396,0.755,1.201,0.747,1.638l0.051,0.1C342.771,114.269,342.534,115.315,342.318,115.896z M340.679,106.585
			c0.007,0.007,0.014,0.014,0.021,0.021c-0.022,0.094-0.043,0.187-0.062,0.276c0-0.093,0.001-0.164,0.001-0.197
			C340.646,106.663,340.666,106.615,340.679,106.585z M342.057,107.309c0.002,0.336-0.006,0.346-0.006,0.346
			c0.033,1.638,0.033,1.638,0.033,1.638c-0.091-0.623-0.633-1.909-1.213-2.571c0.159-0.815,0.338-1.675,0.477-1.279
			c0.205,0.585,0.486,1.209,0.63,1.552C342.006,107.124,342.033,107.232,342.057,107.309z M340.711,106.558
			c-0.005-0.005-0.01-0.011-0.016-0.015c0.018-0.041,0.027-0.069,0.05-0.121C340.733,106.467,340.722,106.513,340.711,106.558z
			 M340.635,107.818c0.062-0.189,0.138-0.587,0.22-1.012c0.291,0.422,0.498,0.991,0.491,1.334l0.737,1.514l0.014,1.817
			c-0.042-0.023-0.085-0.06-0.127-0.072c0.043,0.021,0.085,0.055,0.127,0.085l0.001,0.063c-0.666,0.519-1.361,2.105-1.464,2.818
			C340.634,114.366,340.633,109.966,340.635,107.818z M341.78,106.003c-0.111-0.292-0.231-0.633-0.334-0.91
			c-0.033-0.089-0.075-0.114-0.122-0.094c0.007-0.021,0.016-0.041,0.022-0.061C341.474,104.579,341.633,105.262,341.78,106.003z
			 M340.123,114.867c-0.478-1.189-1.315,3.548-1.388,3.868l0.007-7.674l0.73-1.441c0.356,1.43,0.758,3.265,1.013,3.515
			c0,0,0.009,0.867,0.009,0.862c-0.017,0.677-0.026,1.238-0.032,1.73C340.365,115.478,340.255,115.197,340.123,114.867z
			 M340.644,116.206l-0.009-1.537l0.736-1.454c-0.008-0.43,0.317-1.214,0.727-1.617l0.033,4.421
			c-0.049-0.075-0.099-0.132-0.152-0.148c-0.02,0.006,0.008,0.198,0.06,0.505c-0.292,0.85-0.511,2.603-0.762,3.984
			c-0.225-0.375-0.446-0.521-0.61-0.116l-0.019-3.349c0.053,0.078,0.111,0.145,0.18,0.188
			C340.922,117.067,340.859,116.798,340.644,116.206z M340.677,122.24l-0.006-0.998c0.101-0.467,0.225-0.781,0.426-0.603
			l0.086,0.203C341.035,121.557,340.873,122.104,340.677,122.24z M341.574,120.977c0.116-1.216,0.377-2.697,0.566-3.753l0.043,5.666
			C342.147,122.699,341.886,121.738,341.574,120.977z M343.651,122.24c-0.556-0.384-0.839-4.002-1.281-5.608
			c0.219-0.561,0.493-1.887,0.754-3.086l0.569,1.123l-0.009,1.536c-0.216,0.592-0.278,0.862-0.185,0.878
			c0.069-0.044,0.128-0.11,0.181-0.189L343.651,122.24z M344.205,114.867c-0.132,0.329-0.242,0.609-0.339,0.859
			c-0.006-0.492-0.016-1.053-0.032-1.729c0,0.005,0.009-0.862,0.009-0.862c0.255-0.25,0.656-2.085,1.013-3.515l0.729,1.441
			l0.007,7.674C345.521,118.415,344.682,113.678,344.205,114.867z M347.612,106.993c0.144-0.343,0.425-0.967,0.63-1.552
			c0.139-0.396,0.317,0.464,0.477,1.279c-0.577,0.658-1.115,1.935-1.211,2.561c0.006-0.271,0.016-0.763,0.031-1.627
			c0,0-0.008-0.01-0.006-0.346C347.557,107.232,347.584,107.124,347.612,106.993z M348.952,106.685c0,0.033,0.001,0.105,0.001,0.198
			c-0.02-0.09-0.04-0.183-0.062-0.276c0.007-0.008,0.014-0.015,0.021-0.021C348.924,106.615,348.944,106.663,348.952,106.685z
			 M348.956,114.366c-0.103-0.705-0.784-2.271-1.443-2.806l-0.006-1.966l0.737-1.454c-0.007-0.343,0.2-0.912,0.491-1.334
			c0.082,0.425,0.158,0.822,0.22,1.012C348.957,109.966,348.956,114.366,348.956,114.366z M348.879,106.558
			c-0.012-0.046-0.023-0.092-0.035-0.139c0.022,0.053,0.033,0.082,0.051,0.124C348.889,106.547,348.884,106.554,348.879,106.558z
			 M347.513,111.62c0.4,0.408,0.714,1.173,0.706,1.595l0.736,1.454l-0.005,0.916c-0.313-0.36-0.764,0.694-1.073,1.608
			c-0.115-0.4-0.232-0.74-0.351-0.976L347.513,111.62z M348.243,104.938c0.007,0.02,0.016,0.04,0.022,0.061
			c-0.047-0.021-0.089,0.005-0.122,0.094c-0.102,0.276-0.223,0.616-0.334,0.908C347.957,105.261,348.116,104.579,348.243,104.938z
			 M346.546,113.166c-0.245-0.977-0.489-1.815-0.712-1.875c0.159,0.139,0.398,1.071,0.652,2.114
			c-0.275,1.118-0.549,2.347-0.791,2.781l0.054-15.067c0.005-0.445-0.012-2.988-0.012-2.988c0.445-0.316,0.506-3.037,0.809-3.521
			c0.303,0.483,0.364,3.204,0.81,3.521c0,0-0.017,2.543-0.013,2.988l0.038,10.365c-0.051-0.029-0.102-0.069-0.15-0.085
			c0.051,0.024,0.101,0.062,0.15,0.101l0.016,4.507c-0.042-0.055-0.084-0.091-0.125-0.113c-0.21-0.563-0.438-1.561-0.666-2.489
			c0.254-1.042,0.494-1.975,0.654-2.113C347.036,111.351,346.792,112.189,346.546,113.166z M347.279,115.916
			c0.041,0.044,0.081,0.118,0.118,0.226v0.045C347.358,116.117,347.319,116.021,347.279,115.916z M347.532,118.343l-0.005-1.674
			c0.059,0.312,0.113,0.688,0.164,1.104C347.606,118.055,347.548,118.273,347.532,118.343z M348.037,117.794l0.729-1.341
			c0.063-0.057,0.122-0.059,0.18-0.024l-0.018,3.15c-0.111,0.28-0.226,0.573-0.34,0.866
			C348.436,119.612,348.245,118.634,348.037,117.794z M348.913,122.24c-0.042-0.188-0.125-0.679-0.237-1.31
			c0.084-0.232,0.167-0.458,0.248-0.665L348.913,122.24z M350.822,121.218c-0.071-0.32-1.042-3.773-1.519-2.584
			c-0.069,0.172-0.145,0.363-0.225,0.563c0.023-0.753,0.053-1.389,0.054-2.52c0.285,0.572,0.545,1.877,0.962,2.142
			c0.143-0.024-0.378-1.389-0.966-2.861c-0.005-0.542-0.016-1.177-0.035-1.961c0,0.005,0.011-0.862,0.011-0.862
			c0.255-0.25,0.656-2.085,1.013-3.515l0.73,1.441L350.822,121.218z"/>
		<path style="fill:#CCBA32;" d="M368.368,113.997c0,0.005,0.01-0.862,0.01-0.862c0.41-0.402,1.202-4.911,1.568-5.229
			c-0.492,0.133-1.089,4.044-1.564,4.896l-0.017-6.384c0.046-0.035,0.092-0.071,0.139-0.094c-0.046,0.014-0.093,0.053-0.139,0.079
			l-0.015-5.285c0.004-0.445,0.021-1.481,0.021-1.481c0.46-0.326,0.51-3.229,0.84-3.567c-0.427,0.186-0.417,2.96-0.837,3.289
			l0.026-6.788c-0.11,0.164-0.116,1.156-0.182,1.345c-0.024-0.055-0.129-0.916-0.153-0.96c-0.287,1.361-0.148,2.696,0.025,4.037
			l0.031,0.248c0.076,0.579,0.065,1.258,0.063,1.439c0,0.183,0.1,1.822,0,2.025c-0.111-0.157-0.821-0.863-1.251-0.763
			c0.34,0.083,0.93,0.451,1.224,0.858c0.164,0.229,0.041,3.563,0.062,5.298c-0.137-0.182-0.406-0.97-0.606-1.51
			c-0.175-0.471-0.593,0.783-0.803,1.762c0.001-1.688-0.177-3.672-0.021-3.889c0.293-0.407,0.715-1.639,0.938-1.911
			c-0.43-0.101-0.855,1.658-0.965,1.814c-0.101-0.202,0.018-3.503,0.016-3.686c-0.001-0.182-0.013-0.86,0.064-1.439l0.032-0.248
			c0.173-1.341,0.312-2.676,0.023-4.037c-0.023,0.044-0.128,0.905-0.153,0.96c-0.065-0.188-0.071-1.181-0.181-1.345l0.061,5.278
			c-0.406-0.318-0.412-2.917-0.798-3.254c0.008-0.01,0.014-0.025,0.021-0.033c-0.011,0.005-0.021,0.018-0.03,0.025
			c-0.01-0.008-0.02-0.021-0.03-0.025c0.008,0.008,0.014,0.023,0.021,0.033c-0.386,0.337-0.392,2.936-0.797,3.254l0.06-5.278
			c-0.11,0.164-0.115,1.156-0.181,1.345c-0.024-0.055-0.13-0.916-0.153-0.96c-0.288,1.361-0.149,2.696,0.024,4.037l0.031,0.248
			c0.077,0.579,0.065,1.258,0.064,1.439c-0.001,0.183,0.128,3.709,0.027,3.911c-0.11-0.156-0.242-1.906-0.672-1.808
			c0.224,0.274,0.571,1.408,0.645,1.903c0.055,0.372-0.006,0,0.015,1.736c-0.136-0.181-0.37-0.551-0.621-0.662
			c-0.67-0.3-1.16,1.793-1.045,2.229c0.447-1.953,0.913-1.994,0.974-1.947c0.395,0.305,0.61,0.723,0.697,0.966
			c0.006,0.48-0.074,3.372-0.074,3.372c0.03,1.644,0.044,2.191,0.05,2.355c-0.062-0.392-0.293-1.032-0.598-1.62
			c0.166-0.633,0.315-1.114,0.427-1.21c-0.158,0.043-0.327,0.479-0.5,1.075c-0.317-0.58-0.698-1.082-1.048-1.19
			c0.439,0.214,0.841,0.984,0.952,1.533c-0.334,1.251-0.675,2.95-0.969,3.479l-0.032-11.684c0.005-0.445,0.023-1.481,0.023-1.481
			c0.459-0.326,0.509-3.229,0.839-3.567c-0.426,0.186-0.417,2.96-0.838,3.289l0.026-6.788c-0.109,0.164-0.114,1.156-0.182,1.345
			c-0.023-0.055-0.129-0.916-0.151-0.96c-0.288,1.361-0.15,2.696,0.023,4.037l0.032,0.248c0.077,0.579,0.065,1.258,0.063,1.439
			c-0.001,0.183,0.14,1.152,0.04,1.354c-0.111-0.155-0.604-0.728-1.039-0.874c0.271,0.311,0.718,0.564,1.011,0.971
			c0.165,0.229,0.002,4.234,0.021,5.969c-0.136-0.182-0.405-0.97-0.605-1.51c-0.19-0.513-0.669,1.018-0.853,2.012l0.02-5.482
			c0.006-0.445-0.012-2.988-0.012-2.988c0.461-0.327,0.51-3.231,0.841-3.568c-0.427,0.185-0.418,2.958-0.837,3.287l0.059-5.278
			c-0.108,0.164-0.114,1.156-0.18,1.345c-0.025-0.055-0.13-0.916-0.153-0.96c-0.288,1.361-0.149,2.696,0.024,4.037l0.031,0.248
			c0.077,0.579,0.065,1.258,0.064,1.439c-0.002,0.183,0.108,2.85,0.009,3.052c-0.11-0.156-0.528-1.281-0.958-1.181
			c0.223,0.272,0.637,0.869,0.93,1.277c0.157,0.218-0.014,2.772-0.014,4.515c-0.21-0.977-0.627-2.224-0.801-1.754
			c-0.2,0.54-0.471,1.328-0.605,1.51c0.02-1.734-0.143-5.74,0.021-5.969c0.293-0.406,0.74-0.66,1.009-0.971
			c-0.433,0.146-0.926,0.719-1.036,0.874c-0.101-0.201,0.04-1.171,0.038-1.354c-0.001-0.182-0.012-0.86,0.064-1.439l0.032-0.248
			c0.174-1.341,0.312-2.676,0.023-4.037c-0.022,0.044-0.128,0.905-0.152,0.96c-0.065-0.188-0.072-1.181-0.181-1.345l0.024,6.788
			c-0.419-0.329-0.409-3.104-0.836-3.289c0.33,0.338,0.379,3.241,0.84,3.567c0,0,0.019,1.036,0.022,1.481l-0.015,5.286
			c-0.047-0.027-0.095-0.065-0.141-0.08c0.048,0.023,0.094,0.06,0.141,0.095l-0.018,6.383c-0.294-0.528-0.635-2.228-0.969-3.478
			c0.111-0.549,0.512-1.32,0.953-1.534c-0.351,0.108-0.732,0.611-1.049,1.19c-0.173-0.597-0.342-1.032-0.5-1.075
			c0.111,0.096,0.261,0.578,0.427,1.21c-0.305,0.588-0.536,1.229-0.598,1.62c0.006-0.164,0.02-0.712,0.05-2.355
			c0,0-0.079-2.892-0.075-3.372c0.087-0.243,0.304-0.661,0.698-0.966c0.061-0.047,0.526-0.006,0.974,1.947
			c0.116-0.436-0.375-2.528-1.045-2.229c-0.251,0.111-0.484,0.481-0.621,0.662c0.021-1.736-0.04-1.364,0.015-1.736
			c0.073-0.495,0.421-1.629,0.644-1.903c-0.429-0.099-0.561,1.651-0.671,1.808c-0.1-0.202,0.029-3.729,0.027-3.911
			c-0.001-0.182-0.013-0.86,0.063-1.439l0.033-0.248c0.173-1.341,0.311-2.676,0.023-4.037c-0.023,0.044-0.128,0.905-0.152,0.96
			c-0.066-0.188-0.072-1.181-0.181-1.345l0.06,5.278c-0.407-0.318-0.412-2.911-0.798-3.253c0.008-0.011,0.015-0.026,0.022-0.034
			c-0.011,0.005-0.021,0.019-0.031,0.026c-0.011-0.008-0.021-0.021-0.031-0.026c0.008,0.008,0.015,0.023,0.022,0.034
			c-0.387,0.341-0.392,2.935-0.797,3.253l0.06-5.278c-0.109,0.164-0.116,1.156-0.181,1.345c-0.025-0.055-0.129-0.916-0.153-0.96
			c-0.288,1.361-0.149,2.696,0.024,4.037l0.031,0.248c0.076,0.579,0.065,1.258,0.065,1.439c-0.002,0.183,0.115,3.483,0.016,3.686
			c-0.11-0.156-0.536-1.915-0.966-1.814c0.224,0.272,0.645,1.504,0.938,1.911c0.156,0.217-0.021,2.198-0.021,3.886
			c-0.209-0.979-0.627-2.229-0.802-1.759c-0.2,0.54-0.47,1.328-0.605,1.51c0.02-1.734-0.104-5.069,0.062-5.298
			c0.293-0.407,0.883-0.775,1.223-0.858c-0.43-0.101-1.141,0.605-1.252,0.763c-0.099-0.203,0.002-1.843,0-2.025
			c-0.001-0.182-0.012-0.86,0.064-1.439l0.032-0.248c0.174-1.341,0.312-2.676,0.023-4.037c-0.022,0.044-0.128,0.905-0.151,0.96
			c-0.066-0.188-0.072-1.181-0.182-1.345l0.025,6.788c-0.42-0.329-0.411-3.104-0.837-3.289c0.33,0.338,0.38,3.241,0.84,3.567
			c0,0,0.018,1.036,0.022,1.481l-0.011,4.053c-0.132-0.948-0.689-2.852-0.898-2.288c-0.2,0.539-0.47,1.327-0.605,1.509
			c0.02-1.735-0.173-3.362-0.009-3.591c0.294-0.407,0.884-0.775,1.224-0.858c-0.43-0.101-1.141,0.605-1.251,0.763
			c-0.101-0.203,0.001-1.843,0-2.025c-0.002-0.182-0.013-0.86,0.063-1.439l0.032-0.248c0.173-1.341,0.311-2.676,0.023-4.037
			c-0.023,0.044-0.128,0.905-0.152,0.96c-0.065-0.188-0.071-1.181-0.181-1.345l0.025,6.788c-0.421-0.329-0.411-3.104-0.837-3.289
			c0.329,0.338,0.38,3.241,0.84,3.567c0,0,0.018,1.036,0.022,1.481l0.054,9.154c-0.475-0.853-1.072-4.763-1.563-4.896
			c0.365,0.315,1.157,4.825,1.567,5.228c0,0,0.009,0.985,0.009,0.979c-0.145,5.881,0.097,6.202-0.121,13.325
			c-0.014,0.445,0.108,0.196,0.108,0.139c0.003-1.786,0.076-2.621,0.11-4.312l0.539-0.4c0.184-0.163,0.316-1.13,0.441-2.261
			c0.187-0.482,0.345-1.063,0.513-1.398c0.001,2.726,0.176,2.52,0.001,8.232c-0.013,0.445,0.109,0.196,0.109,0.139
			c0.003-1.786,0.077-0.739,0.11-2.431l0.54-0.397c0.27-0.242,0.431-2.219,0.617-3.905l0.221,0.405
			c0.034,1.691,0.134,4.542,0.136,6.328c0,0.058,0.123,0.307,0.109-0.139c-0.217-7.123-0.112-8.391-0.112-8.391
			c0.218-0.214,0.543-1.582,0.854-2.869c0.312,1.287,0.637,2.655,0.854,2.869c0,0,0.106,1.268-0.111,8.391
			c-0.014,0.445,0.109,0.196,0.109,0.139c0.001-1.786,0.07-4.244,0.104-5.936l1.092-3.809c0.334-0.298,0.407,0.534,0.628,1.176
			c-0.004,1.894,0.071,2.435,0.078,4.135c-0.469,1.379-0.396,2.486-0.259,2.509c0.104-0.218,0.178-0.636,0.25-1.069
			c-0.011,0.755-0.031,1.669-0.067,2.855c-0.014,0.445,0.109,0.196,0.109,0.139c0.003-1.786,0.077-0.739,0.11-2.431l0.842-0.863
			c0.001-0.032,0.004-0.068,0.006-0.101l0.656,1.554c0.033,1.691,0.008,0.055,0.01,1.841c0,0.058,0.114,0.307,0.109-0.139
			c-0.06-4.57-0.068-6.573-0.067-7.427c0.229,1.284,0.53,3.059,0.574,4.271l0.842,0.863c0.033,1.691,0.107,0.645,0.109,2.431
			c0,0.058,0.122,0.307,0.11-0.139c-0.18-5.847,0.009-5.493,0.002-8.428c0.221-0.643,0.294-1.476,0.629-1.178l1.09,3.809
			c0.034,1.691,0.102,4.149,0.104,5.936c0,0.058,0.123,0.307,0.109-0.139c-0.218-7.123-0.113-8.391-0.113-8.391
			c0.219-0.214,0.544-1.582,0.855-2.869c0.312,1.287,0.637,2.655,0.854,2.869c0,0,0.105,1.268-0.112,8.391
			c-0.014,0.445,0.108,0.196,0.109,0.139c0.002-1.786,0.102-4.637,0.136-6.328l0.22-0.405c0.188,1.687,0.348,3.663,0.618,3.905
			l0.541,0.397c0.033,1.691,0.106,0.645,0.109,2.431c0,0.058,0.122,0.307,0.108-0.139c-0.175-5.713,0.001-5.507,0.002-8.231
			c0.286,0.572,0.546,1.876,0.962,2.141c0.143-0.024-0.378-1.39-0.965-2.862C368.398,115.416,368.388,114.781,368.368,113.997z
			 M354.646,113.989c0-0.713,0-2.343,0-3.891c0.001-0.001,0.002-0.002,0.003-0.002c-0.001,0-0.002,0.001-0.003,0.002
			c0.001-0.845,0.001-1.651,0.001-2.276c0.062-0.188,0.138-0.589,0.221-1.015c0.291,0.422,0.497,0.99,0.491,1.333l0.736,1.454
			l-0.006,1.967c-0.658,0.534-1.34,2.1-1.443,2.805c0,0,0-0.143,0-0.375c0.001-0.001,0.002-0.003,0.003-0.004
			C354.647,113.987,354.646,113.989,354.646,113.989z M356.069,107.312c0.002,0.332-0.007,0.342-0.007,0.342
			c0.016,0.86,0.025,1.351,0.031,1.623c-0.098-0.627-0.635-1.899-1.21-2.557c0.159-0.815,0.338-1.675,0.477-1.279
			c0.204,0.581,0.483,1.202,0.628,1.547C356.018,107.123,356.045,107.234,356.069,107.312z M354.724,106.558
			c-0.006-0.005-0.011-0.011-0.016-0.016c0.018-0.043,0.028-0.071,0.051-0.125C354.747,106.464,354.734,106.511,354.724,106.558z
			 M354.712,106.605c-0.023,0.096-0.044,0.189-0.063,0.281c0-0.095,0.001-0.168,0.001-0.202c0.008-0.022,0.028-0.069,0.041-0.101
			C354.697,106.592,354.705,106.598,354.712,106.605z M354.647,114.669l0.735-1.454c-0.007-0.422,0.307-1.187,0.706-1.595
			l-0.013,4.597c-0.118,0.234-0.236,0.574-0.351,0.976c-0.31-0.913-0.76-1.966-1.073-1.608L354.647,114.669z M355.792,106.002
			c-0.111-0.292-0.232-0.633-0.334-0.909c-0.033-0.088-0.074-0.114-0.121-0.095c0.007-0.02,0.016-0.04,0.022-0.06
			C355.485,104.579,355.645,105.261,355.792,106.002z M353.006,104.978c0.086-0.242,0.461-1.037,0.71-1.746
			c0.257-0.73,0.65,2.828,0.798,2.455l-0.002,0.719c-0.047-0.027-0.095-0.065-0.141-0.08c0.048,0.023,0.094,0.06,0.141,0.095
			l-0.011,3.761c-0.202,0.119-0.409,0.34-0.606,0.627c-0.299-1.223-0.606-2.559-0.886-2.845c0.007-0.384,0.014-0.771,0.021-1.15
			C353.029,106.812,353.001,105.459,353.006,104.978z M354.501,110.195l-0.007,2.607c-0.175-0.313-0.366-1.043-0.563-1.845
			C354.082,110.648,354.282,110.364,354.501,110.195z M353.008,108.023c0.208,0.412,0.506,1.716,0.798,2.909
			c-0.442,0.692-0.809,1.63-0.882,2.132C352.924,113.064,352.963,110.592,353.008,108.023z M352.976,120.359l-0.051-6.992
			l0.736-1.454c-0.004-0.206,0.071-0.496,0.192-0.786c0.242,0.979,0.476,1.842,0.645,2.008c0,0,0.01,0.867,0.01,0.862
			c-0.001,0.038-0.001,0.067-0.002,0.104C353.838,114.912,353.129,119.672,352.976,120.359z M354.503,114.229
			c-0.016,0.673-0.025,1.245-0.03,1.729c-0.139,0.349-0.272,0.689-0.396,1.009C354.199,115.811,354.328,114.703,354.503,114.229z
			 M354.688,122.24l-0.031-5.812c0.057-0.034,0.116-0.031,0.18,0.024l0.728,1.34C355.143,119.497,354.791,121.78,354.688,122.24z
			 M355.911,117.772c0.051-0.417,0.104-0.794,0.164-1.104l-0.005,1.675C356.055,118.273,355.996,118.055,355.911,117.772z
			 M356.205,116.14c0.037-0.107,0.077-0.182,0.119-0.226c-0.041,0.107-0.08,0.203-0.119,0.272V116.14z M357.115,113.405
			c0.254-1.043,0.494-1.976,0.653-2.114c-0.223,0.06-0.468,0.898-0.713,1.876c-0.245-0.978-0.49-1.816-0.714-1.876
			c0.16,0.139,0.4,1.072,0.654,2.114c-0.229,0.928-0.455,1.925-0.664,2.487c-0.042,0.021-0.084,0.058-0.126,0.112l0.016-4.506
			c0.05-0.038,0.099-0.075,0.149-0.1c-0.049,0.015-0.1,0.056-0.148,0.085l0.037-10.365c0.004-0.445-0.014-2.988-0.014-2.988
			c0.445-0.316,0.507-3.035,0.81-3.52c0.303,0.484,0.364,3.203,0.81,3.52c0,0-0.018,2.543-0.013,2.988l0.054,15.067
			C357.665,115.752,357.391,114.523,357.115,113.405z M362.969,114.366c-0.047-0.325-0.222-0.834-0.456-1.34
			c0.17-0.762,0.329-1.396,0.456-1.641C362.969,112.981,362.969,114.366,362.969,114.366z M362.255,104.938
			c0.249,0.71,0.623,1.504,0.709,1.746c0.003,0.269,0.004,2.62,0.005,4.651c-0.179,0.156-0.368,0.746-0.561,1.477
			c-0.27-0.537-0.6-1.034-0.925-1.276v-0.037c0.049-0.037,0.098-0.075,0.148-0.1c-0.049,0.015-0.099,0.056-0.148,0.085l0.014-4.066
			C361.668,107.219,362.02,104.268,362.255,104.938z M361.593,115.896c-0.044,0.023-0.085,0.067-0.125,0.13l0.015-4.449
			c0.42,0.396,0.757,1.202,0.749,1.639l0.05,0.099C362.045,114.268,361.809,115.313,361.593,115.896z M359.953,106.585
			c0.006,0.008,0.014,0.014,0.02,0.021c-0.021,0.094-0.043,0.186-0.062,0.276c0-0.093,0.001-0.165,0.001-0.198
			C359.92,106.663,359.94,106.615,359.953,106.585z M361.332,107.31c0.001,0.335-0.007,0.345-0.007,0.345
			c0.032,1.638,0.032,1.638,0.032,1.638c-0.091-0.622-0.633-1.909-1.212-2.571c0.159-0.815,0.338-1.675,0.477-1.279
			c0.205,0.584,0.485,1.208,0.63,1.551C361.28,107.124,361.307,107.232,361.332,107.31z M359.985,106.558
			c-0.005-0.004-0.011-0.011-0.016-0.015c0.018-0.041,0.027-0.069,0.05-0.121C360.008,106.467,359.996,106.513,359.985,106.558z
			 M359.909,107.82c0.062-0.188,0.138-0.588,0.22-1.013c0.291,0.422,0.497,0.991,0.492,1.333l0.735,1.514l0.014,1.817
			c-0.042-0.023-0.085-0.06-0.127-0.072c0.043,0.021,0.085,0.055,0.127,0.085l0.001,0.064c-0.665,0.518-1.359,2.105-1.464,2.817
			C359.907,114.366,359.906,109.969,359.909,107.82z M361.055,106.002c-0.112-0.292-0.232-0.633-0.336-0.909
			c-0.032-0.088-0.073-0.114-0.12-0.096c0.007-0.02,0.016-0.039,0.022-0.059C360.747,104.579,360.907,105.262,361.055,106.002z
			 M359.396,114.867c-0.476-1.189-1.315,3.548-1.387,3.868l0.008-7.674l0.729-1.442c0.355,1.431,0.757,3.266,1.012,3.516
			c0,0,0.01,0.867,0.01,0.862c-0.017,0.678-0.026,1.239-0.032,1.731C359.64,115.478,359.528,115.197,359.396,114.867z
			 M359.921,116.893c0.054,0.079,0.112,0.146,0.182,0.19c0.094-0.016,0.031-0.285-0.185-0.877l-0.009-1.537l0.736-1.454
			c-0.007-0.429,0.317-1.213,0.726-1.616l0.034,4.421c-0.05-0.075-0.101-0.133-0.154-0.149c-0.019,0.006,0.008,0.198,0.06,0.505
			c-0.29,0.851-0.509,2.603-0.761,3.984c-0.224-0.376-0.446-0.522-0.61-0.113l0,0L359.921,116.893z M359.95,122.24l-0.005-0.996
			c0.1-0.468,0.225-0.784,0.426-0.604l0.085,0.202C360.309,121.556,360.147,122.104,359.95,122.24z M360.849,120.976
			c0.116-1.214,0.376-2.695,0.565-3.75l0.043,5.664C361.422,122.699,361.16,121.738,360.849,120.976z M362.925,122.24
			c-0.556-0.384-0.838-4.001-1.281-5.608c0.219-0.56,0.493-1.888,0.755-3.088l0.568,1.125l-0.009,1.538
			c-0.216,0.591-0.278,0.86-0.184,0.876c0.068-0.044,0.127-0.11,0.18-0.188L362.925,122.24z M363.479,114.867
			c-0.132,0.33-0.243,0.611-0.34,0.861c-0.006-0.492-0.016-1.054-0.032-1.731c0,0.005,0.009-0.862,0.009-0.862
			c0.256-0.25,0.657-2.085,1.013-3.516l0.73,1.442l0.007,7.674C364.794,118.415,363.956,113.678,363.479,114.867z M366.885,106.997
			c0.143-0.342,0.425-0.969,0.631-1.556c0.139-0.396,0.317,0.464,0.477,1.279c-0.577,0.659-1.116,1.937-1.21,2.562
			c0.005-0.271,0.015-0.764,0.03-1.629c0,0-0.008-0.009-0.006-0.348C366.831,107.23,366.856,107.125,366.885,106.997z
			 M368.226,106.685c0,0.033,0.001,0.104,0.001,0.197c-0.02-0.091-0.04-0.183-0.062-0.276c0.007-0.008,0.014-0.014,0.021-0.021
			C368.197,106.615,368.218,106.662,368.226,106.685z M368.229,107.817c0.002,2.147,0.002,6.549,0.002,6.549
			c-0.104-0.705-0.783-2.27-1.442-2.805l-0.006-1.967l0.735-1.454c-0.006-0.343,0.2-0.912,0.491-1.334
			C368.091,107.23,368.167,107.628,368.229,107.817z M368.152,106.558c-0.011-0.046-0.022-0.091-0.034-0.137
			c0.022,0.052,0.032,0.08,0.05,0.121C368.162,106.547,368.157,106.553,368.152,106.558z M366.788,111.621
			c0.398,0.409,0.712,1.173,0.704,1.594l0.737,1.454l-0.005,0.916c-0.313-0.359-0.764,0.695-1.074,1.609
			c-0.114-0.4-0.231-0.739-0.35-0.975L366.788,111.621z M367.516,104.938c0.007,0.019,0.015,0.038,0.021,0.058
			c-0.046-0.018-0.086,0.01-0.118,0.097c-0.104,0.278-0.225,0.621-0.337,0.914C367.229,105.265,367.389,104.578,367.516,104.938z
			 M365.82,113.166c-0.245-0.977-0.49-1.815-0.713-1.875c0.159,0.139,0.399,1.071,0.653,2.114c-0.275,1.118-0.549,2.347-0.791,2.781
			l0.054-15.067c0.005-0.445-0.013-2.988-0.013-2.988c0.446-0.316,0.507-3.04,0.81-3.521c0.303,0.481,0.364,3.205,0.81,3.521
			c0,0-0.018,2.543-0.013,2.988l0.037,10.365c-0.05-0.029-0.101-0.07-0.149-0.085c0.051,0.024,0.1,0.062,0.149,0.101l0.016,4.506
			c-0.042-0.055-0.084-0.092-0.126-0.113c-0.209-0.562-0.436-1.56-0.664-2.487c0.254-1.042,0.494-1.976,0.653-2.114
			C366.31,111.351,366.065,112.189,365.82,113.166z M366.552,115.914c0.042,0.044,0.082,0.118,0.119,0.226v0.047
			C366.632,116.117,366.593,116.021,366.552,115.914z M366.807,118.343l-0.005-1.669c0.059,0.311,0.112,0.686,0.163,1.101
			C366.88,118.056,366.822,118.273,366.807,118.343z M367.312,117.794l0.728-1.341c0.063-0.057,0.123-0.059,0.181-0.023
			l-0.033,5.811C368.084,121.78,367.732,119.498,367.312,117.794z"/>
	</g>
</g>
<g id="Layer_11">
</g>
<g id="Layer_9">
	<path style="fill:none;stroke:#669933;stroke-width:0.25;stroke-linecap:round;stroke-linejoin:round;" d="M224.167,125
		c-1.509-0.687-4.176,0.079-5.933,0c0.332-1.994-0.174-2.029-0.092-4.062c-0.752,1.023-0.783,2.647-0.882,4.062
		c-0.023-0.671-0.029-2.533-0.24-3.124c-0.557,0.533-0.182,2.376-0.907,2.951c-0.127-0.926-0.227-1.886-0.413-2.778
		c-0.104,0.807-0.043,1.688-0.285,2.441c-0.09-0.388-0.199-1.104-0.246-1.627c-0.951,1.816-0.479,2.029-2.266,2.491
		c-0.988,0.255-1.851-0.479-2.869-0.354c-0.874,0.106-2.401-0.085-3.3,0c-2.585,0.244-0.946-1.88-2.028-2.616
		c-0.011,0.468-0.14,0.964-0.157,1.403c-0.025-0.647-0.121-1.296-0.257-1.916c0.012,1.149,0.198,2.541-0.214,3.598
		c-0.312-0.852-0.334-1.877-0.814-2.575c0.03,0.604-0.022,1.192-0.146,1.776c-0.056-0.255-0.393-0.742-0.478-1.035
		c-0.857,0.914-0.793,1.205-1.955,1.365c-0.934,0.129-1.779-0.044-2.666,0c-1.456,0.072-2.717,0.534-4.21,0.487
		c-0.117-1.841,1.339-3.454,0.499-5.31c-0.685,0.423-0.785,2.053-1.128,2.933c-0.045-0.217-0.15-0.459-0.185-0.771
		c-0.426,0.913-0.638,2.171-1.515,2.651c-0.702-0.901-0.975-2.354-1.671-3.149c-0.419,1.221,0.35,2.351-0.507,3.171
		c-0.084,0.08-1.527,0.32-1.794,0.326c-1.268,0.029-2.165-0.606-3.509-0.338c-2.421,0.484-4.824,0.264-7.258,0
		c-0.049-0.766-0.955,0.552-0.81-0.178c0.271-1.357-0.005-2.069,0.018-3.471c-0.542,1.47-0.648,2.061-0.899,3.648
		c-1.301-1.491-0.641-2.466-1.539,0c-0.51-0.826-0.98-2.538-1.499-3.427c-0.039,0.746,0.138,2.674,0.095,3.427
		c-0.9,0.017-2.042-1.939-2.886-2.342c0.505-0.012,1.72,0.842,1.636,1.672c-0.106,1.045-1.422,0.86-1.97,0.837
		c-1.389-0.059-2.773-0.251-4.194-0.166c-2.84,0.169-5.814,0.311-8.693,0.144c-0.3-1.33-0.488-2.854-0.407-4.241
		c0.063,1.194-0.269,3.004-0.665,4.097c-0.357-0.695-1.217-2.109-1.408,0c-0.432-0.389-0.483-2.127-0.756-2.788
		c0.024,0.641-0.272,2.291-0.439,2.788c-0.54-1.049-0.39-3.251-0.967-4.277c0.031,2.977-0.291,4.405-2.557,4.107
		c-2.056-0.27-3.817-0.517-5.882,0.081c-1.313,0.381-1.94,0.49-3.101,0.089c-0.639-0.222-1.155,0.229-1.912,0.334
		c-1.553,0.216-2.96-0.435-4.597-0.334c-0.791,0.049-0.783,0.246-1.507,0c0.216-1.259-0.204-0.827-0.324-2.131
		c-0.639,0.899-1.029,0.918-1.234,2.131c-0.745-0.897-0.856-1.373-1.151-2.207c-0.228,0.748-0.413,1.721-0.708,2.427
		c-0.648-0.791-0.435-1.114-1.126-1.847c-0.194,0.604-0.363,1.272-0.498,1.901c-0.935-1.511-2.494-0.212-3.515-0.212
		c-0.466,0-5.158-0.011-11.777-0.024"/>
	<path style="fill:none;stroke:#669933;stroke-width:0.25;stroke-linecap:round;stroke-linejoin:round;" d="M6.875,125
		c1.286,0.095,3.872,0.055,5.451,0c0.793-0.027,2.722,0.16,3.512,0c1.694-0.344,0.876-2.308,1.837-3.525
		c0.084,0.998,0.515,1.937,0.517,2.941c1.504-0.016,0.744-1.634,0.63-2.615c0.389,0.992,0.412,2.056,0.716,3.054
		c0.448-0.694,0.749-1.562,0.979-2.384c-0.337,0.942-0.059,1.953-0.333,2.913c0.186-0.274,0.57-0.481,0.783-0.743
		c0.714,2.132,2.203,0.359,4.367,0.359c1.681,0,2.689-0.347,4.333-0.332c1.591,0.014,3.015,0.336,4.667,0.332
		c2.477-0.007,3.076,0.077,4.008-2.448c-0.007,0.671-0.317,1.96-0.054,2.448c0.029-0.154,0.521-0.797,0.538-0.949
		c0.15,0.497,0.462,0.976,0.667,1.444c0.802-0.334,1.039-1.271,1.042-2.119c0.31,0.568,0.494,1.191,0.792,1.728
		c2.3-0.868,4.312-0.247,6.674-0.104c1.321,0.081,3.033-0.237,4.334-0.167c2.667,0.144,2.607-1.074,2.326-3.634
		c0.277,1.062,0.278,3.801,1.263,3.801c0.142-0.37,0.502-1.851,0.611-2.278c0.614,2.347,3.88,2.26,5.8,2.278
		c2.433,0.023,5.464-0.328,7.842,0c2.437,0.336,4.188-0.639,6.704-0.5c2.459,0.136,4.911,0.824,4.813-2.49
		c0.464,0.327,0.29,2.436,0.589,2.99c0.038-1.02,0.87-2.055,0.962-3.061c0.688,0.635,0.505,5.061,2.089,1.395
		c0.803,2.952,3.801,1.666,6,1.666c1.943,0,4.583-0.074,6.542,0c3.79,0.145,5.714,0.192,9.438,0
		c-0.359-0.745,0.185-1.949-0.262-2.647c0.467,0.949,0.811,1.653,0.953,2.692c-0.012-1.206-0.054-1.97-0.148-3.154
		c0.683,0.8,0.569,2.102,0.775,2.94c0.089-1.14,0.006-2.322,0.062-3.461c0.517,1.308,0.643,2.288,1.012,3.63
		c0.809-1.149,0.801-2.326,1.137-3.709c-0.065,0.896,0.196,2.653,0.184,3.854c0.406,0.018,8.362,0,17.974-0.031"/>
	<path style="fill:none;stroke:#669933;stroke-width:0.25;stroke-linecap:round;stroke-linejoin:round;" d="M336.868,124.962
		c-1.509-0.687-4.176,0.079-5.933,0c0.332-1.994-0.174-2.029-0.092-4.062c-0.752,1.023-0.783,2.647-0.882,4.062
		c-0.023-0.671-0.029-2.533-0.24-3.124c-0.557,0.533-0.182,2.376-0.907,2.951c-0.127-0.926-0.227-1.886-0.413-2.778
		c-0.104,0.807-0.043,1.688-0.285,2.441c-0.09-0.388-0.199-1.104-0.246-1.627c-0.951,1.816-0.479,2.029-2.266,2.491
		c-0.988,0.255-1.851-0.479-2.869-0.354c-0.874,0.106-2.401-0.085-3.3,0c-2.585,0.244-0.946-1.88-2.028-2.616
		c-0.011,0.468-0.14,0.964-0.157,1.403c-0.025-0.647-0.121-1.296-0.257-1.916c0.012,1.149,0.198,2.541-0.214,3.598
		c-0.312-0.852-0.334-1.877-0.814-2.575c0.03,0.604-0.022,1.192-0.146,1.776c-0.056-0.255-0.393-0.742-0.478-1.035
		c-0.857,0.914-0.793,1.205-1.955,1.365c-0.934,0.129-1.779-0.044-2.666,0c-1.456,0.072-2.717,0.534-4.21,0.487
		c-0.117-1.841,1.339-3.454,0.499-5.31c-0.685,0.423-0.785,2.053-1.128,2.933c-0.045-0.217-0.15-0.459-0.185-0.771
		c-0.426,0.913-0.638,2.171-1.515,2.651c-0.702-0.901-0.975-2.354-1.671-3.149c-0.419,1.221,0.35,2.351-0.507,3.171
		c-0.085,0.08-1.527,0.32-1.795,0.326c-1.268,0.029-2.164-0.606-3.509-0.338c-2.421,0.484-4.824,0.264-7.259,0
		c-0.049-0.766-0.955,0.552-0.809-0.178c0.27-1.357-0.006-2.069,0.018-3.471c-0.543,1.47-0.648,2.061-0.9,3.648
		c-1.301-1.491-0.641-2.466-1.538,0c-0.511-0.826-0.98-2.538-1.499-3.427c-0.039,0.746,0.139,2.674,0.096,3.427
		c-0.9,0.017-2.042-1.939-2.887-2.342c0.505-0.012,1.72,0.842,1.636,1.672c-0.106,1.045-1.422,0.86-1.97,0.837
		c-1.389-0.059-2.773-0.251-4.195-0.166c-2.84,0.169-5.814,0.311-8.693,0.144c-0.299-1.33-0.488-2.854-0.406-4.241
		c0.062,1.194-0.27,3.004-0.665,4.097c-0.357-0.695-1.217-2.109-1.408,0c-0.432-0.389-0.483-2.127-0.757-2.788
		c0.024,0.641-0.271,2.291-0.439,2.788c-0.539-1.049-0.39-3.251-0.967-4.277c0.031,2.977-0.291,4.405-2.557,4.107
		c-2.057-0.27-3.818-0.517-5.883,0.081c-1.313,0.381-1.94,0.49-3.102,0.089c-0.639-0.222-1.154,0.229-1.912,0.334
		c-1.553,0.216-2.96-0.435-4.597-0.334c-0.79,0.049-0.783,0.246-1.507,0c0.215-1.259-0.204-0.827-0.324-2.131
		c-0.639,0.899-1.029,0.918-1.234,2.131c-0.744-0.897-0.856-1.373-1.15-2.207c-0.229,0.748-0.414,1.721-0.709,2.427
		c-0.648-0.791-0.435-1.114-1.125-1.847c-0.195,0.604-0.363,1.272-0.498,1.901c-0.936-1.511-2.494-0.212-3.516-0.212
		c-0.466,0-5.157-0.011-11.776-0.024"/>
</g>
</svg>
