<?xml version="1.0" encoding="iso-8859-1"?>
<!-- Generator: Adobe Illustrator 15.0.2, SVG Export Plug-In . SVG Version: 6.00 Build 0)  -->
<!DOCTYPE svg PUBLIC "-//W3C//DTD SVG 1.1//EN" "http://www.w3.org/Graphics/SVG/1.1/DTD/svg11.dtd">
<svg version="1.1" xmlns="http://www.w3.org/2000/svg" xmlns:xlink="http://www.w3.org/1999/xlink" x="0px" y="0px" width="378px"
	 height="140px" viewBox="0 0 378 140" style="enable-background:new 0 0 378 140;" xml:space="preserve">
<g id="FOND">
	<g>
		<rect style="fill:none;" width="378" height="140"/>
		<rect style="fill:#FFFFFF;" width="378" height="140"/>
	</g>
</g>
<g id="Layer_4">
	<path style="fill:#9CD239;stroke:#179232;stroke-width:0.4688;stroke-linecap:round;stroke-linejoin:round;" d="M327.009,51.277
		c-0.563-0.139-0.979-0.441-1.592-0.381c-0.483,0.048-1.07,0.359-1.526,0.557c-0.989,0.42-2.078,1.109-2.882,1.785
		c-1.592,1.334-2.158,3.928-2.67,5.803c-0.224,0.828-0.413,1.5-0.354,2.411c0.686-0.83,1.302-2.038,2.151-2.792
		c0.629-0.559,1.413-0.893,2.038-1.465c0.572-0.521,0.969-1.045,1.648-1.445c1.182-0.697,2.272-0.973,3.63-0.973
		c0.942,0,2.661,0.369,1.894-1.078c-0.09-0.171-0.227-0.316-0.365-0.448"/>
	<path style="fill:#9CD239;stroke:#179232;stroke-width:0.4688;stroke-linecap:round;stroke-linejoin:round;" d="M341.258,50.388
		c-0.975,0.411-1.741,0.626-2.341,1.542c-0.378,0.573-0.731,1.265-0.912,1.949c-0.559-0.318-1.359-0.5-1.96-0.434
		c-0.628,0.072-1.272,0.555-1.836,0.113c0.062-0.537,0.826-1.115,1.227-1.515c0.52-0.519,0.832-1.087,1.482-1.352
		c1.102-0.45,3.306-1.327,4.213-0.177"/>
	<path style="fill:#F0C33D;stroke:#7D4A3D;stroke-width:0.4688;stroke-linecap:round;stroke-linejoin:round;" d="M356.059,83.109
		c0-3.688-0.341-5.522-2.229-8.6c-1.598-2.598-1.646-5.893-3.604-8.33c-0.897-1.117-1.897-2.55-2.941-3.528
		c-1.048-0.981-2.366-1.217-3.409-2.109c-1.471-1.256-1.705-2.024-3.563-2.856c-1.268-0.566-2.662-1.048-3.977-1.531
		c-1.189-0.438-2.824-1.299-4.036-1.471c-1.187-0.168-3.113,0.344-4.51,0.342c-3.619-0.004-5.513,0.654-8.113,2.898
		c-2.391,2.062-3.943,3.041-5.307,5.83c-1.27,2.596-2.902,4.811-4.183,7.6c-2.384,5.2-3.204,11.417-4.398,17.08
		c-0.692,3.283,0.883,4.841,2.509,7.57c1.389,2.325,1.307,6.359,3.511,8.176c4.459,3.674,10.822,4.357,16.549,4.928
		c3.01,0.299,6.401,0.287,9.488-0.004c2.569-0.24,6.313-1.039,8.31-2.855c1.709-1.553,2.498-3.416,4.071-5.061
		c1.577-1.653,2.853-2.883,3.558-5.375c1.283-4.545,2.466-8.811,2.466-13.841"/>
	<path style="fill:#F0C33D;stroke:#7D4A3D;stroke-width:0.4688;stroke-linecap:round;stroke-linejoin:round;" d="M349.418,77.605
		c1.703,1.932,3.334,3.457,0.992,5.562c-2.029,1.819-3.4,0.649-5.599-0.246c-1.446-0.59-1.709-0.355-1.845-2.093
		c-0.053-0.69,0.121-2.699,0.608-3.186c1.668-1.668,4.485-0.771,5.843,0.343"/>
	<path style="fill:#F0C33D;stroke:#7D4A3D;stroke-width:0.4688;stroke-linecap:round;stroke-linejoin:round;" d="M328.266,82.257
		c1.367,0.335,0,0,0.903,1.329c0.739,1.089,0.296,1.547,0.128,2.551c-0.264,1.588-0.041,1.657-1.513,2.321
		c-1.055,0.477-2,0.879-3.22,0.207c-1.642-0.905-2.266-3.325-1.473-4.937c1.149-2.345,3.37-1.566,5.646-1.566"/>
	<path style="fill:#F0C33D;stroke:#7D4A3D;stroke-width:0.4688;stroke-linecap:round;stroke-linejoin:round;" d="M336.327,83.109
		c2.265-0.938,3.964,3.167,3.087,4.796c-0.699,1.3-3.895,2.735-5.365,2.603c-2.019-0.184-3.904-2.738-3.413-4.932
		C331.178,83.134,334.032,82.701,336.327,83.109"/>
	<path style="fill:#F0C33D;stroke:#7D4A3D;stroke-width:0.4688;stroke-linecap:round;stroke-linejoin:round;" d="M353.594,75.139
		c2.152-0.391,2.975,9.752-1.897,8.543c-1.742-0.428-0.724-0.934-0.565-1.896c0.169-1.025,0.232-1.886,0.227-2.895
		c-0.005-1.324,1.38-3.878,2.614-3.752"/>
	<path style="fill:#F0C33D;stroke:#7D4A3D;stroke-width:0.4688;stroke-linecap:round;stroke-linejoin:round;" d="M344.294,64.702
		c1.598,1.354,5.701,9.339,0.382,7.78c-1.935-0.568-2.557-2.802-2.234-4.555c0.164-0.893,1.199-4.859,2.424-2.847"/>
	<path style="fill:#F0C33D;stroke:#7D4A3D;stroke-width:0.4688;stroke-linecap:round;stroke-linejoin:round;" d="M350.367,67.359
		c1.705,0.471,2.136,5.094,2.277,6.639c0.21,2.309-0.308,4.957-3.089,3.658c-2.432-1.135-2.787-3.1-2.271-5.607
		c0.294-1.42,1.425-4.763,3.083-5.07"/>
	<path style="fill:#F0C33D;stroke:#7D4A3D;stroke-width:0.4688;stroke-linecap:round;stroke-linejoin:round;" d="M342.398,83.489
		c0.166-1.034,1.113-4.519,0.142-5.468c-0.439-0.429-1.376,0.027-2.04-0.036c-1.14-0.108-1.314-0.487-2.234-0.964
		c-1.592-0.825-2.851-1.146-3.988,0.616c-0.709,1.1-1.355,3.169-1.148,4.49c1.385,0.624,6.038,2.015,6.267,3.424
		C340.736,85.192,341.106,84.141,342.398,83.489"/>
	<path style="fill:#F0C33D;stroke:#7D4A3D;stroke-width:0.4688;stroke-linecap:round;stroke-linejoin:round;" d="M339.975,57.316
		c3.51,1.134,2.61,3.186,3.719,3.812c0.802,3.744-1.248,4.834-2.628,7.58C338.096,65.004,339.651,61.639,339.975,57.316"/>
	<path style="fill:#F0C33D;stroke:#7D4A3D;stroke-width:0.4688;stroke-linecap:round;stroke-linejoin:round;" d="M332.531,71.533
		c0.764,0.686,1.706,1.135,2.627,1.551c0.287,1.865,0.328,4.516-1.721,5.47c-1.816,0.847-3.64-0.693-5.127-1.851
		c-2.292-1.78-2.068-3.08,0.046-4.98c2.073-1.863,2.538-1.771,4.555,0"/>
	<path style="fill:#F0C33D;stroke:#7D4A3D;stroke-width:0.4688;stroke-linecap:round;stroke-linejoin:round;" d="M319.294,74.035
		c1.739-0.021,1.175,3.433,1.06,4.675c-1.528,1.07-5.995,0.493-6.753-1.528C312.403,74.002,317.733,74.508,319.294,74.035"/>
	<path style="fill:#F0C33D;stroke:#7D4A3D;stroke-width:0.4688;stroke-linecap:round;stroke-linejoin:round;" d="M330.254,79.125
		c4.016-1.758,2.791,4.714-0.189,4.387c-1.17-0.127-2.162-1.746-1.897-2.869c0.32-1.35,1.441-1.493,2.657-1.709"/>
	<path style="fill:#F0C33D;stroke:#7D4A3D;stroke-width:0.4688;stroke-linecap:round;stroke-linejoin:round;" d="M323.423,69.637
		c3.726,0.846,2.585,8.797-2.414,5.84c-3.354-1.983-0.669-5.57,2.225-6.221"/>
	<path style="fill:#F0C33D;stroke:#7D4A3D;stroke-width:0.4688;stroke-linecap:round;stroke-linejoin:round;" d="M342.589,69.637
		c-0.715,0.629-1.976-1.861-3.035-1.719c-0.957,0.131-1.693,1.98-2.227,2.707c-1.401,1.906-2.687,3.02-0.953,5.416
		c2.705,3.735,9.707,2.151,9.974-2.576c-1.62-1.25-3.479-1.553-3.949-3.828"/>
	<path style="fill:#F0C33D;stroke:#7D4A3D;stroke-width:0.4688;stroke-linecap:round;stroke-linejoin:round;" d="M331.773,62.805
		c-0.074-1.754-0.735-3.27-2.838-3.047c-1.796,0.193-2.1,1.838-1.726,3.615c0.235,1.127,1.151,3.111,2.666,2.846
		c1.354-0.236,1.68-2.826,2.275-3.983"/>
	<path style="fill:#F0C33D;stroke:#7D4A3D;stroke-width:0.4688;stroke-linecap:round;stroke-linejoin:round;" d="M346.191,61.857
		c1.943,0.832,2.346,4.094,3.245,5.689c-0.784,0.717-1.361,1.712-1.963,2.404c-0.647-2.174-4.977-7.455-0.933-7.877
		c0.047,0.215,0.129,0.352,0.222,0.541"/>
	<path style="fill:#F0C33D;stroke:#7D4A3D;stroke-width:0.4688;stroke-linecap:round;stroke-linejoin:round;" d="M336.896,63.184
		c1.489,1.019,1.565,4.576,0.765,6.072c-0.357,0.664-1.561,2.168-2.241,2.322c-1.009,0.227-1.774-0.697-2.666-1.025
		c-1.273-1.74-2.188-3.984-1.028-6.082c1.104-2.001,3.549-1.178,5.74-1.098"/>
	<path style="fill:#F0C33D;stroke:#7D4A3D;stroke-width:0.4688;stroke-linecap:round;stroke-linejoin:round;" d="M320.387,63.754
		c1.142,0.909,2.881,2.668,2.329,4.225c-0.387,1.088-2.854,2.08-3.812,1.813c-0.656-0.78-2.429-2.824-2.312-3.953
		c0.228-2.282,2.817-2.245,4.365-1.896"/>
	<path style="fill:#F0C33D;stroke:#7D4A3D;stroke-width:0.4688;stroke-linecap:round;stroke-linejoin:round;" d="M325.891,75.707
		c4.544,0.119,2.256,6.932-2.275,5.93c-1.937-0.427-3.815-1.83-2.896-3.845c0.716-1.563,2.951-2.046,4.601-2.085"/>
	<path style="fill:#F0C33D;stroke:#7D4A3D;stroke-width:0.4688;stroke-linecap:round;stroke-linejoin:round;" d="M315.427,78.568
		C315.427,78.568,315.228,78.548,315.427,78.568c0.32,0.717,0.815,1.124,1.518,1.152c0.452,2.836-3.878,6.529-5.669,3.403
		c-1.482-2.593,1.323-7.123,3.989-4.761"/>
	<path style="fill:#F0C33D;stroke:#7D4A3D;stroke-width:0.4688;stroke-linecap:round;stroke-linejoin:round;" d="M328.737,66.979
		c0.612-0.318,1.198-0.598,1.865-0.73c0.91,1.78-1.138,3.893-2.579,4.762c-2.025,1.223-2.864,0.006-3.895-1.945
		c-0.799-1.514-1.783-4.221,0.423-4.982c2.552-0.883,2.954,2.411,5.133,2.518"/>
	<path style="fill:#F0C33D;stroke:#7D4A3D;stroke-width:0.4688;stroke-linecap:round;stroke-linejoin:round;" d="M320.009,79.692
		c1.286-0.081,1.955,1.795,3.195,2.116c0.148,3.287-1.326,5.893-4.376,3.768c-1.32-0.92-2.504-1.896-1.855-3.8
		c0.592-1.741,2.079-1.587,3.226-2.462"/>
	<path style="fill:#F0C33D;stroke:#7D4A3D;stroke-width:0.4688;stroke-linecap:round;stroke-linejoin:round;" d="M308.624,78.554
		c0.879,0.685,2.089,0.802,2.997,0.208c0.209,2.013-2.703,3.439-4.338,3.564c-0.744-2.073,0.104-2.727,1.721-3.772"/>
	<path style="fill:#F0C33D;stroke:#7D4A3D;stroke-width:0.4688;stroke-linecap:round;stroke-linejoin:round;" d="M315.453,64.512
		c0.648,1.514,0.976,3.457,0.916,5.092c-1.914,0.756-5.051-0.062-4.9-2.435c0.103-1.594,3.787-4.966,3.984-2.278"/>
	<path style="fill:#F0C33D;stroke:#7D4A3D;stroke-width:0.4688;stroke-linecap:round;stroke-linejoin:round;" d="M310.331,72.482
		c0.665,0.9,2.251,1.064,2.666,2.078c0.397,0.975-0.314,2.507-0.612,3.392c-2.144,1.216-4.051-0.22-4.107-2.478
		c-0.031-1.194,1.655-5.963,2.625-2.992"/>
	<path style="fill:#F0C33D;stroke:#7D4A3D;stroke-width:0.4688;stroke-linecap:round;stroke-linejoin:round;" d="M326.649,64.133
		c2.259-2.335,0.088-6.27-2.993-5.891c-2.854,0.351-3.15,4.795-1.906,6.616c1.563,0.638,2.757-1.21,4.52-1.104"/>
	<path style="fill:#F0C33D;stroke:#7D4A3D;stroke-width:0.4688;stroke-linecap:round;stroke-linejoin:round;" d="M316.594,69.256
		c3.48-0.535,3.169,3.404,0.963,4.8c-0.892,0.565-2.93,0.832-3.809,0.148c-1.252-0.978-0.628-2.524-0.349-3.776
		c1.171-0.248,3.023-0.191,3.763-1.172"/>
	<path style="fill:#F0C33D;stroke:#7D4A3D;stroke-width:0.4688;stroke-linecap:round;stroke-linejoin:round;" d="M333.86,56.543
		c0.328,0.561-3.011,5.041,0.377,6.113c0.982,0.311,2.336-0.176,3.177,0.381c0.66,0.439,0.9,2.568,1.815,1.869
		c1.117-0.858-1.237-5.35-1.584-6.276C337.154,57.314,335.553,54.148,333.86,56.543"/>
	<path style="fill:#F0C33D;stroke:#7D4A3D;stroke-width:0.4688;stroke-linecap:round;stroke-linejoin:round;" d="M325.32,55.594
		c0.398,2.281-2.444,2.381-3.424,3.454c-0.434,0.477-1.251,4.485-2.703,3.2c-1.385-1.225,1.121-4.047,1.774-4.758
		c1.551-1.689,1.92-1.586,3.975-2.275"/>
	<path style="fill:#F0C33D;stroke:#7D4A3D;stroke-width:0.4688;stroke-linecap:round;stroke-linejoin:round;" d="M311.469,68.877
		c0.482-1.061,2.32,3.008,1.154,3.766c-1.473,0.957-2.124-2.855-1.343-3.578"/>
	<path style="fill:#F0C33D;stroke:#7D4A3D;stroke-width:0.4688;stroke-linecap:round;stroke-linejoin:round;" d="M328.547,55.404
		c3.275-0.508,5.066,4.375,0.953,4.364c-1.284-0.003-2.845-0.331-3.604-1.334c-0.986-1.301-0.148-1.695,0.406-2.997
		c0.828-0.273,1.705-0.217,2.625-0.223"/>
	<path style="fill:#F0C33D;stroke:#7D4A3D;stroke-width:0.4688;stroke-linecap:round;stroke-linejoin:round;" d="M317.351,60.718
		c0.385-0.468,0.742-0.683,1.29-0.741c0.173,1.23,0.633,2.543-0.525,3.359c-1.18,0.832-2.744,0.182-3.576-0.562
		c-0.207-1.807,2.677-1.688,3.761-2.246"/>
	<g>
		<path style="fill:#9CD239;stroke:#179232;stroke-width:0.4688;stroke-linecap:round;stroke-linejoin:round;" d="M325.429,35.236
			c-0.89-1.004-1.251-2.578-2.004-3.723c-1.182-1.792-2.446-3.465-3.898-5.039c-2.019-2.189-3.987-4.293-6.414-6.039
			c-2.083-1.501-5.275-3.396-7.912-3.223c1.105,1.584,2.785,3.015,4.075,4.492c2.598,2.975,5.206,6.055,7.108,9.523
			c0.799,1.455,1.27,3.006,1.983,4.485c0.612,1.265,1.227,2.63,1.526,4.006c0.296,1.347,0.415,2.763,0.477,4.13
			c0.026,0.619-0.099,1.446,0.074,1.978c7.274,2.104,5.923-7.305,5.939-7.44"/>
		<path style="fill:#9CD239;stroke:#179232;stroke-width:0.4688;stroke-linecap:round;stroke-linejoin:round;" d="M314.833,25.022
			c6.396,6.395,9.894,15.382,10.524,18.438c0.147,0.098,0.024-0.057-0.022-0.108"/>
		<path style="fill:#9CD239;stroke:#179232;stroke-width:0.4688;stroke-linecap:round;stroke-linejoin:round;" d="M346.576,7.322
			c-3.367,3.367-4.85,5.115-6.782,8.472c-1.884,3.272-3.588,7.265-3.588,11.054c0,2.73-0.571,5.723-1.55,8.295
			c-0.779,2.048-2.131,3.812-2.978,5.943c-0.226,0.568-0.413,1.145-0.542,1.718c-0.312-2.323-0.892-4.62-1.08-6.969
			c-0.138-1.713-0.279-3.422-1.249-4.89c-0.838-1.266-1.446-1.832-0.949-3.385c0.425-1.334,1.175-2.625,1.692-3.922
			c2.273-5.68,5.361-11.258,10.783-13.9C342.351,8.756,344.491,7.888,346.576,7.322"/>
		<path style="fill:none;stroke:#179232;stroke-width:0.4688;stroke-linecap:round;stroke-linejoin:round;" d="M346.692,7.408
			c-2.805,2.398-6.116,5.033-8.386,8.115c-1.291,1.755-2.376,3.463-3.383,5.412c-1.092,2.113-3.38,13.523-3.38,21.639"/>
		<path style="fill:#9CD239;stroke:#179232;stroke-width:0.4688;stroke-linecap:round;stroke-linejoin:round;" d="M331.272,46.361
			c-0.382-2.006,0.084-8.484-0.241-10.686c-0.421-2.849-1.209-5.322-2.568-7.875c-1.763-3.305-3.266-6.201-5.985-8.895
			c-1.91-1.895-4.046-3.355-6.353-4.633c-1.943-1.076-3.938-1.842-5.802-2.793c0.433,1.146,1.858,2.018,2.657,2.954
			c1.091,1.276,2.205,2.538,3.145,3.931c1.115,1.654,2.164,3.307,2.873,5.172c0.612,1.609,5.768,14.316,6.564,19.338
			c0.707,4.432,1.906,6.229,2.058,6.867"/>
		<path style="fill:#9CD239;stroke:#179232;stroke-width:0.4688;stroke-linecap:round;stroke-linejoin:round;" d="M337.496,41.491
			c0.221-7.78,6.437-14.495,12.701-18.353c-2.021-1.715-5.899-1.076-7.863,0.195c-9.505,6.152-11.413,16.039-11.843,18.293
			c-0.328,1.721-0.548,8.361,0.104,9.873"/>
		<path style="fill:none;stroke:#179232;stroke-width:0.4688;stroke-linecap:round;stroke-linejoin:round;" d="M323.969,26.885
			c0.901,3.465,2.37,6.561,3.083,10.039c0.353,1.729,0.741,3.438,1.242,5.109c0.473,1.578,1.193,3.883,0.951,5.545"/>
	</g>
	<path style="fill:#9CD239;stroke:#179232;stroke-width:0.4688;stroke-linecap:round;stroke-linejoin:round;" d="M353.019,39.533
		c0.573-1.482-3.75-4.021-4.966-4.111c-4.963-0.36-7.891,1.793-9.189,3.246c-1.222,1.37-2.107,2.953-2.912,4.588
		c-0.762,1.549-1.791,2.824-2.884,4.109c-1.146,1.344-1.441,2.832-1.528,4.575c-0.054,1.073,0.085,1.451,1.048,1.914
		c0.557,0.267,0.357,0.256,1.052,0.032c0.648-0.208,1.056-1.264,1.567-1.713c0.784-0.69,2.976-2.471,3.683-3.203
		c1.178-1.227,3.296-0.561,3.13-1.539c-0.298-1.764,1.084-4.592,1.983-6.088c1.029-1.709,2.494-2.482,4.433-2.67
		C349.077,38.611,353.82,38.339,353.019,39.533"/>
	<path style="fill:#9CD239;stroke:#179232;stroke-width:0.4688;stroke-linecap:round;stroke-linejoin:round;" d="M328.614,45.838
		c-8.605-4.422-11.198,0.912-10.497,0.393c2.656-1.965,5.377,2.854,6.98,4.458c1.603,1.603,4.494,5.185,5.505,5.251
		c0.404-1.393,2.485-1.307,3.446-2.053c-2.772-4.913-5.394-10.197-11.374-11.765c-6.771-1.773-12.229,5.236-8.925,11.195
		c0.611,1.101,1.374,2.554,2.237,3.396c0.236-3.598,0.169-9.535,3.414-11.798c1.654-1.152,3.657-0.994,5.545-0.321
		c1.056,0.376,3.668,1.243,4.358,2.081"/>
	<path style="fill:#9CD239;stroke:#179232;stroke-width:0.4688;stroke-linecap:round;stroke-linejoin:round;" d="M334.049,53.887
		c0.346-1.775,4.281-4.259,6.211-3.793c1.998,0.48,6.544,3.059,7.075,5.062c0.135-2.949-1.799-7.832-5.316-7.725
		c-1.389,0.041-3.171,1.596-4.166,2.318c-0.739,0.539-1.285,1.181-1.901,1.818"/>
	<path style="fill:#9CD239;stroke:#179232;stroke-width:0.4688;stroke-linecap:round;stroke-linejoin:round;" d="M330.759,55.594
		c0.103,0.215,6.521-4.309,8.557-0.338c1.292,2.525-0.173,7.242-1.093,9.475C337.314,61.152,335.218,55.901,330.759,55.594"/>
	<path style="fill:none;stroke:#179232;stroke-width:0.4688;stroke-linecap:round;stroke-linejoin:round;" d="M352.925,38.674
		c-1.405-0.505-2.673-1.21-4.3-1.053c-1.423,0.137-3.271,0.312-4.565,0.978c-1.352,0.697-3.057,2.259-4.03,3.511
		c-1.153,1.482-2.043,3.09-3.169,4.586c-1.436,1.906-2.767,4.605-3.222,6.68"/>
</g>
<g id="JUS">
	<g>
		<path style="fill:#5B3A1E;stroke:#5B3A1E;stroke-width:1.1775;stroke-linecap:round;stroke-linejoin:round;" d="M190.676,68.168
			c1.52-2.113-1.839-5.279-2.945-6.816c-1.443-2.012-2.131-4.118-2.916-6.486c4.728,0.529,10.456,0.923,15.383-0.189
			c0.414,2.576,4.556,6.109,6.275,7.834"/>
		<g>
			<g>
				<g>
					<path style="fill:#FFFF00;stroke:#56361C;stroke-width:1.1775;stroke-linecap:round;stroke-linejoin:round;" d="
						M198.932,61.432c-0.889,9.387,11.107,19.887,18.676,22.709c21.447,7.996,36.589,2.021,45.798-2.901
						c4.12-2.204,12.196-11.669,12.83-16.093c0.415-2.928,3.041-11.299-3.341-10.383c-2.442,0.35-7.091,5.253-8.842,6.6
						c-2.127,1.645-4.791,2.721-7.186,3.923c-7.552,3.784-17.94,5.726-26.788,4.017c-4.673-0.9-15.236-5.162-19.983-6.25
						c-3.535-0.811-8.469-4.006-11.447-0.958"/>
					<path style="fill:#56361C;stroke:#56361C;stroke-width:0.5888;stroke-linecap:round;stroke-linejoin:round;" d="
						M275.554,55.166c0.807,1.326,2.34,8.045,0.911,8.695C271.414,57.664,266.104,53.494,275.554,55.166"/>
				</g>
				<path style="fill:#FFFF00;stroke:#56361C;stroke-width:1.1775;stroke-linecap:round;stroke-linejoin:round;" d="M228.381,75.424
					c22.787,6.173,37.166-8.501,45.73-15.396"/>
			</g>
			<g>
				<path style="fill:#FFFF00;stroke:#56361C;stroke-width:1.1775;stroke-linecap:round;stroke-linejoin:round;" d="M194.137,65.072
					c-2.835,8.99,6.739,21.703,13.509,26.111c4.255,2.777,12.894,8.651,17.802,9.631c5.496,1.086,9.617,1.6,15.297,1.242
					c4.953-0.309,14.337-4.23,18.285-7.413c3.637-2.933,9.061-7.535,10.607-11.729c1.018-2.769,5.336-10.408-1.094-10.85
					c-2.461-0.168-8.032,3.653-10.027,4.604c-2.422,1.164-5.254,1.658-7.851,2.33c-8.173,2.122-19.425,3.814-27.721,0.291
					c-4.378-1.86-13.813-8.24-18.23-10.297c-3.288-1.534-7.442-5.689-10.993-3.332c2.915,4.619,7.418,11.23,12.773,13.5
					c-0.264-0.076-0.603-0.104-0.85-0.214"/>
				<path style="fill:#FFFF00;stroke:#56361C;stroke-width:1.1775;stroke-linecap:round;stroke-linejoin:round;" d="M227.814,89.347
					c3.194,0.41,5.783,1.853,8.975,1.161"/>
				<path style="fill:#56361C;stroke:#56361C;stroke-width:0.5888;stroke-linecap:round;stroke-linejoin:round;" d="M271.057,73.016
					c0.512,1.463,1.343,6.598-0.191,6.938C269.373,79.092,262.168,69.401,271.057,73.016"/>
			</g>
			<g>
				<path style="fill:#FFFF00;stroke:#56361C;stroke-width:1.1775;stroke-linecap:round;stroke-linejoin:round;" d="M191.578,66.266
					c-4.864,8.075,1.458,22.68,6.999,28.557c3.483,3.701,6.296,6.547,10.838,8.654c5.087,2.355,8.976,3.816,14.579,4.805
					c4.885,0.863,14.928-0.75,19.516-2.914c4.219-1.996,10.577-5.195,13.061-8.906c1.645-2.453,7.637-8.863,1.489-10.807
					c-2.353-0.739-8.692,1.555-10.829,2.117c-13.92,3.675-27.957-0.431-35.193-5.808c-3.817-2.832-7.287-6.363-11.097-9.401
					c-2.837-2.264-5.897-7.279-9.903-5.822c1.748,5.18,4.572,12.659,9.244,16.125c-0.238-0.135-0.56-0.242-0.775-0.404"/>
				<path style="fill:#FFFF00;stroke:#56361C;stroke-width:1.1775;stroke-linecap:round;stroke-linejoin:round;" d="M209.738,89.528
					c3.375,3.398,9.864,6.519,13.121,6.595"/>
				<path style="fill:#56361C;stroke:#56361C;stroke-width:0.5888;stroke-linecap:round;stroke-linejoin:round;" d="M260.278,87.172
					c0.153,1.54-0.247,6.729-1.816,6.693C257.215,92.682,252.487,81.57,260.278,87.172"/>
				<path style="fill:none;stroke:#56361C;stroke-width:1.1775;stroke-linecap:round;stroke-linejoin:round;" d="M233.018,98.168
					c10.25-1.08,20.594-5.533,23.428-8.525"/>
			</g>
		</g>
	</g>
	<g>
		<path style="fill:#26992F;" d="M353.473,85.751c1.248-0.033,1.439-2.138,2.113-3.076c2.05-2.88,6.589-3.429,9.814-2.882
			c1.972,0.334,4.535,1.238,3.283,2.871c-0.086,0.112-1.047,0.565-1.354,0.9c-0.721,0.786-12.497,1.781-13.637,1.805"/>
		<path style="fill:#824341;stroke:#824341;stroke-width:2.1876;" d="M353.285,85.898c0.48-1.784-0.939-4.479-0.939-5.216
			c0.627,0-1.218,0.185-0.852,0.549c0.774,0.771,1.421,4.266,1.773,4.736c0.154,0.204,0.296-0.696,0.425-0.599"/>
		<path style="fill:#88C936;" d="M352.926,86.172c-0.236-3.902-8.119-2.991-10.405-2.071c-2.825,1.138-5.433,3.773-5.896,6.853
			c-0.612,4.062,0.788,6.833,1.368,10.145c0.544,3.078,2,5.607,3.522,7.725c1.911,2.652,6.491,5.955,7.7,6.457
			c1.813,0.762,2.203-0.324,4.137-0.512c2.437-0.23,1.907,0.697,4.291,1.078c2.144,0.344,6.311-1.305,9.01-4.742
			c4.15-5.283,6.366-12.463,5.061-19.131c-0.441-2.248-1.612-5.45-3.717-6.74c-1.958-1.201-4.987-0.812-7.186-0.812
			c-1.421,0-2.566,0.229-3.881,0.361c-0.779,0.078-3.209,0.871-3.942,1.141"/>
	</g>
	<g>
		<path style="fill:#FE9F34;stroke:#FD8631;stroke-width:2.4609;" d="M321.464,97.965c0,9.143-7.96,16.549-17.778,16.549
			c-9.82,0-17.782-7.406-17.782-16.549c0-9.14,7.962-16.549,17.782-16.549C313.504,81.416,321.464,88.825,321.464,97.965z"/>
		<path style="fill:#5AB227;" d="M312.574,89.073c0,0.473-0.382,0.854-0.852,0.854c-0.469,0-0.853-0.382-0.853-0.854
			c0-0.466,0.384-0.851,0.853-0.851C312.192,88.223,312.574,88.607,312.574,89.073z"/>
		<path style="fill:#FE9F34;stroke:#FD8631;stroke-width:2.4609;" d="M338.855,114.191c-7.409,5.34-17.814,3.572-23.239-3.957
			c-5.424-7.525-3.813-17.957,3.596-23.295c7.41-5.342,17.816-3.572,23.239,3.956C347.876,98.424,346.266,108.854,338.855,114.191z"
			/>
		<path style="fill:#5AB227;" d="M341.152,102.188c-0.381,0.273-0.898,0.199-1.159-0.16c-0.259-0.359-0.163-0.871,0.218-1.148
			c0.382-0.273,0.902-0.204,1.161,0.154C341.633,101.396,341.531,101.908,341.152,102.188z"/>
	</g>
	<g>
		<path style="fill:#FDBE88;" d="M259.818,57.898c3.412,2.078,11.314,0.618,15.29,0.803c2.181,0.102,4.2-0.25,6.204-0.201
			c1.775,0.043,4.742,0.283,6.511,0.225c0,2.717-0.229,6.641-0.093,9.346c0.301,6.002-0.377,13.966-0.403,25.117
			c-0.011,4.77-0.046,9.83-0.614,14.49c-0.516,4.266,0.139,7.664-3.897,8.674c-1.775,0.443-5.661,1.213-7.473,1.518
			c-2.633,0.439-7.065,0.164-9.583-0.256c-2.203-0.373-4.182-1.781-5.438-3.402c-1.932-2.49-0.998-9.246-0.833-12.184
			C259.584,100.361,259.803,57.695,259.818,57.898"/>
		<path style="fill:none;stroke:#777768;stroke-width:0.576;stroke-linecap:round;stroke-linejoin:round;" d="M260.159,43.625
			c-0.155,5.238-0.389,10.543-0.331,15.789c0.082,7.355-0.333,40.488-0.333,42.33c0,5.365-1.946,13.068,4.229,15.27
			c5.685,2.035,12.027,1.047,17.784-0.318c4.521-1.074,4.219-1.918,4.895-6.096c1.377-8.506,1.334-58.857,1.59-62.863
			c0.166-2.711-0.644-5.268-0.588-7.92c-0.526,3.014-7.644,6.539-12.82,6.539C269.504,46.355,264.158,47.23,260.159,43.625
			c-1.551-1.4,1.215-6.004,11.546-6.004c9.825,0,14.785,1.84,15.7,2.195"/>
	</g>
</g>
<g id="H2O">
	<g>
		<path style="fill:#D1E4E2;" d="M97.909,90.088c0.818,1.82,4.844,17.125,4.979,20.303c0.043,1,0.978,4.574,1.349,5.377
			c0.267,0.57,0.379,0.781,0.932,0.992c0.554,0.203,1.131,0.408,1.706,0.604c1.006,0.34,10.298,0.793,11.296,0.811
			c0.793,0.014,8.625-1.656,9.403-1.934c0.624-0.219,0.899-3.594,1.319-5.342c0.368-1.525,2.747-20.25,2.957-20.78
			c0.014,0.12-0.069,0.146-0.091,0.241"/>
		<path style="fill:#D1E4E2;stroke:#B0CAD0;stroke-width:0.4526;" d="M97.77,89.602c0.353,0.16,0.226,0.326,0.862,0.467
			c3.581,0.779,11.822,1.473,16.391,1.473c4.482,0,13.342-0.893,16.146-1.39c0.562-0.099,0.843-0.478,0.83-0.532
			c-0.292-0.062-0.544,0.104-0.845,0.104c-1.861,0-10.384-0.356-15.849-0.356c-4.729,0-11.329,0.244-16.589,0.244
			C98,89.611,98.264,89.491,97.77,89.602"/>
		<path style="fill:none;stroke:#5C68AE;stroke-width:1.3797;stroke-linecap:round;stroke-linejoin:round;" d="M93.879,82.122
			c2.628,2.796,3.006,5.731,4.036,7.789c1.451,2.905,4.113,14.745,4.628,17.983c0.443,2.805,0.542,6.873,1.643,8.332
			c1.139,1.518,7.863,1.756,12.749,1.756c4.184,0,9.38-0.398,10.638-1.742c1.006-1.07,1.83-5.701,2.122-8.275
			c0.345-2.998,1.797-14.942,2.317-17.928c0.457-2.577,0.991-6.164,1.902-8.554c-3.831,0.925-11.939,1.931-17.91,2.005
			C108.559,83.586,99.366,82.983,93.879,82.122c-0.046-3.126,13.595-5.845,19.797-5.845c6.359,0,13.613,0.438,16.598,1.56
			c1.137,0.427,5.841,2.214,3.64,3.646"/>
	</g>
	<g>
		<path style="fill:#5C68AE;" d="M63.393,15.791c-0.787-0.725-10.364-0.021-10.364-0.021c-0.574-0.278-1.22,1.356-1.185,1.756
			c0.033,0.387,0.177,1.639,0.236,2.036c0.059,0.388,0.237,0.786,0.616,0.964c0.358-0.271,1.422-0.141,1.847-0.09
			c0.911,0.112,3.187,0.135,4.085,0.096c0.884-0.038,2.854-0.053,3.737-0.142c0.547-0.054,1.395-0.19,1.564-0.785
			C63.93,19.604,64.18,16.516,63.393,15.791z"/>
		<path style="fill:#D1E4E2;stroke:#B0CAD0;stroke-width:0.6019;stroke-linecap:round;stroke-linejoin:round;" d="M40.164,45.617
			c-0.029,1.293,0.282,2.472,1.447,2.691c-0.039,0.131-0.013,0.531-0.011,0.688c-0.019-0.006-0.646-0.082-0.606-0.087
			c-0.091,0.069-0.263,0.132-0.391,0.13c-0.179,1.938-0.216,3.994-0.157,5.943c0.2,0.047,0.374,0.017,0.571,0.07
			c0.261,0.467,0.343,1.109,0.176,1.635c-0.248-0.006-0.54,0.047-0.79,0.043c-0.111,1.344-0.292,2.827-0.348,4.091
			c-0.012,0.245,0.044,0.477,0.061,0.706c0.016,0.268,0.044,0.529,0.083,0.783c1.051-0.227,1.746-0.783,1.619,0.655
			c-0.711,0.251-0.999,0.515-1.646,0.405c0.788,1.44,0.857,2.633,0.503,4.33c2.112-0.326,1.075-0.09,0.97,1.254
			c-0.235-0.051-0.522-0.08-0.778-0.157c-0.411,1.327-1.493,5.609,0.837,6.048c-0.037,0.135-0.013,0.53-0.009,0.689
			c-0.021-0.003-0.646-0.082-0.607-0.088c-0.094,0.068-0.265,0.132-0.395,0.13c-0.177,1.938-0.215,3.995-0.154,5.942
			c0.201,0.045,0.371,0.02,0.569,0.075c0.262,0.464,0.345,1.106,0.178,1.632c-0.25-0.005-0.541,0.044-0.791,0.041
			c-0.11,1.346-0.291,2.83-0.345,4.094c-0.012,0.244,0.046,0.475,0.057,0.703c0.018,0.266,0.045,0.531,0.086,0.781
			c1.047-0.223,1.746-0.776,1.617,0.66c-0.709,0.25-1.001,0.514-1.644,0.405c0.784,1.437,0.854,2.632,0.501,4.329
			c2.114-0.326,1.076-0.091,0.972,1.254c-0.235-0.051-0.524-0.08-0.779-0.158c-0.412,1.325-1.497,5.611,0.835,6.049
			c-0.038,0.135-0.012,0.529-0.01,0.686c-0.018-0.002-0.644-0.08-0.604-0.086c-0.094,0.07-0.265,0.129-0.396,0.127
			c-0.176,1.943-0.212,3.998-0.154,5.947c0.202,0.045,0.375,0.018,0.572,0.07c0.261,0.467,0.345,1.107,0.178,1.637
			c-0.252-0.008-0.544,0.045-0.792,0.039c-0.11,1.344-0.294,2.834-0.345,4.092c-0.012,0.246,0.081,0.479,0.058,0.709
			c-0.201,1.883,9.764,3.105,11.991,3.217c3.196,0.154,26.058,1.811,25.027-3.678c-0.043-0.225,0.062-0.461,0.049-0.703
			c-0.069-1.262-0.269-2.746-0.399-4.088c-0.245,0.006-0.538-0.041-0.789-0.037c-0.175-0.523-0.098-1.166,0.157-1.631
			c0.196-0.062,0.369-0.035,0.571-0.08c0.033-1.951-0.028-4.004-0.225-5.945c-0.13,0.004-0.303-0.055-0.396-0.125
			c0.034,0.008-0.589,0.094-0.606,0.094c0-0.158,0.023-0.555-0.017-0.69c2.324-0.456,1.194-4.729,0.763-6.053
			c-0.254,0.079-0.543,0.112-0.778,0.167c-0.12-1.346-1.162-1.572,0.958-1.266c-0.373-1.697-0.32-2.89,0.449-4.332
			c-0.641,0.115-0.938-0.146-1.648-0.394c-0.143-1.435,0.557-0.884,1.611-0.67c0.033-0.255,0.059-0.517,0.072-0.78
			c0.011-0.229,0.065-0.463,0.051-0.71c-0.066-1.259-0.268-2.745-0.396-4.087c-0.246,0.006-0.54-0.043-0.789-0.035
			c-0.176-0.525-0.101-1.168,0.156-1.635c0.195-0.053,0.372-0.029,0.571-0.077c0.034-1.95-0.025-4.005-0.224-5.942
			c-0.132,0.004-0.304-0.057-0.398-0.127c0.038,0.009-0.588,0.093-0.605,0.093c0-0.154,0.021-0.552-0.019-0.688
			c2.326-0.453,1.193-4.73,0.766-6.053c-0.255,0.078-0.544,0.109-0.778,0.163c-0.12-1.341-1.164-1.569,0.955-1.263
			c-0.373-1.693-0.319-2.888,0.448-4.334c-0.641,0.114-0.933-0.146-1.645-0.391c-0.145-1.437,0.557-0.885,1.607-0.672
			c0.038-0.252,0.064-0.515,0.077-0.783c0.012-0.23,0.066-0.461,0.053-0.706c-0.072-1.263-0.27-2.745-0.399-4.088
			c-0.25,0.006-0.537-0.041-0.785-0.035c-0.176-0.524-0.102-1.168,0.154-1.635c0.197-0.056,0.37-0.028,0.57-0.077
			c0.034-1.949-0.026-4.006-0.227-5.942c-0.131,0.005-0.304-0.058-0.396-0.126c0.038,0.008-0.586,0.09-0.604,0.094
			c0-0.154,0.019-0.556-0.022-0.688c1.114-0.221,1.436-1.31,1.421-2.534L40.164,45.617z"/>
		<path style="fill:none;stroke:#5C68AE;stroke-width:0.6019;stroke-linecap:round;stroke-linejoin:round;" d="M77.317,114.145
			c-0.043-0.225,0.063-0.461,0.048-0.703c-0.067-1.262-0.266-2.746-0.397-4.088c-0.245,0.006-0.538-0.041-0.789-0.037
			c-0.175-0.523-0.098-1.166,0.157-1.631c0.198-0.062,0.369-0.035,0.571-0.08c0.035-1.951-0.028-4.004-0.225-5.945
			c-0.13,0.004-0.303-0.055-0.396-0.125c0.036,0.008-0.589,0.094-0.606,0.094c0-0.158,0.022-0.555-0.017-0.69
			c2.324-0.456,1.191-4.729,0.763-6.053c-0.254,0.079-0.543,0.112-0.778,0.167c-0.12-1.346-1.16-1.572,0.957-1.266
			c-0.374-1.697-0.319-2.89,0.452-4.332c-0.643,0.115-0.94-0.146-1.652-0.394c-0.143-1.435,0.559-0.884,1.61-0.67
			c0.035-0.255,0.061-0.517,0.076-0.78c0.009-0.229,0.064-0.463,0.049-0.71c-0.066-1.259-0.268-2.745-0.396-4.087
			c-0.246,0.006-0.54-0.043-0.789-0.035c-0.176-0.525-0.099-1.168,0.156-1.635c0.195-0.053,0.371-0.029,0.571-0.077
			c0.035-1.95-0.025-4.005-0.224-5.942c-0.132,0.004-0.304-0.057-0.398-0.127c0.038,0.009-0.588,0.093-0.605,0.093
			c0-0.154,0.021-0.552-0.018-0.688c2.326-0.453,1.191-4.73,0.764-6.053c-0.255,0.078-0.544,0.109-0.778,0.163
			c-0.12-1.341-1.164-1.569,0.955-1.263c-0.373-1.693-0.319-2.888,0.45-4.334c-0.643,0.114-0.935-0.146-1.648-0.391
			c-0.143-1.437,0.558-0.885,1.61-0.672c0.036-0.252,0.062-0.515,0.074-0.783c0.012-0.23,0.067-0.461,0.054-0.706
			c-0.072-1.263-0.27-2.745-0.399-4.088c-0.25,0.006-0.537-0.041-0.785-0.035c-0.176-0.524-0.102-1.168,0.154-1.635
			c0.197-0.056,0.371-0.028,0.569-0.077c0.036-1.949-0.024-4.006-0.227-5.942c-0.131,0.005-0.302-0.058-0.396-0.126
			c0.041,0.008-0.585,0.09-0.602,0.094c-0.001-0.154,0.018-0.556-0.023-0.688c2.331-0.459,1.196-4.732,0.769-6.056
			c-0.256,0.079-0.542,0.11-0.776,0.163c-0.125-1.342-1.167-1.569,0.952-1.262c-0.369-1.693-0.317-2.889,0.455-4.334
			c-0.649,0.115-0.94-0.145-1.651-0.389c-0.146-1.438,0.557-0.887,1.61-0.674c0.036-0.252,0.061-0.514,0.076-0.783
			c0.098-1.965-0.396-4.282-1.139-5.914c-1.223-2.682-4.464-3.673-7.574-4.258c-1.226-0.229-2.744,0.004-3.63-0.877
			c-0.559-0.556-1-2.498-1-2.725s0.643-0.656,0.643-0.656s0.355-3.482-0.554-4.283c-0.612-0.541-10.073-0.498-10.729,0
			c-1.071,0.811-0.551,3.08-0.513,4.283c0.005,0.197,0.581,0.44,0.603,0.712c0.091,1.022-0.336,2.413-0.917,3.001
			c-0.875,0.889-3.479,0.678-4.703,0.922c-3.103,0.611-4.856,1.633-6.046,4.324c-0.725,1.639-1.191,3.963-1.066,5.928
			c0.017,0.268,0.044,0.529,0.083,0.781c1.051-0.225,1.746-0.779,1.619,0.656c-0.71,0.25-0.997,0.514-1.643,0.406
			c0.786,1.438,0.854,2.635,0.502,4.329c2.111-0.327,1.075-0.087,0.968,1.253c-0.231-0.051-0.522-0.078-0.778-0.157
			c-0.411,1.327-1.495,5.612,0.837,6.05c-0.039,0.131-0.013,0.531-0.011,0.688c-0.019-0.006-0.646-0.082-0.606-0.087
			c-0.091,0.069-0.263,0.132-0.391,0.13c-0.179,1.938-0.216,3.994-0.157,5.943c0.2,0.047,0.374,0.017,0.571,0.07
			c0.261,0.467,0.343,1.109,0.176,1.635c-0.248-0.006-0.54,0.047-0.79,0.043c-0.111,1.344-0.292,2.827-0.348,4.091
			c-0.012,0.245,0.044,0.477,0.061,0.706c0.016,0.268,0.044,0.529,0.083,0.783c1.051-0.227,1.746-0.783,1.619,0.655
			c-0.711,0.251-0.999,0.515-1.646,0.405c0.788,1.44,0.857,2.633,0.503,4.33c2.112-0.326,1.075-0.09,0.97,1.254
			c-0.235-0.051-0.522-0.08-0.778-0.157c-0.411,1.327-1.493,5.609,0.837,6.048c-0.037,0.135-0.013,0.53-0.009,0.689
			c-0.021-0.003-0.646-0.082-0.607-0.088c-0.094,0.068-0.265,0.132-0.395,0.13c-0.177,1.938-0.215,3.995-0.154,5.942
			c0.201,0.045,0.371,0.02,0.569,0.075c0.262,0.464,0.345,1.106,0.178,1.632c-0.25-0.005-0.541,0.044-0.791,0.041
			c-0.11,1.346-0.291,2.83-0.345,4.094c-0.012,0.244,0.046,0.475,0.057,0.703c0.018,0.266,0.045,0.531,0.086,0.781
			c1.047-0.223,1.746-0.776,1.617,0.66c-0.709,0.25-1.001,0.514-1.644,0.405c0.784,1.437,0.854,2.632,0.501,4.329
			c2.114-0.326,1.076-0.091,0.972,1.254c-0.235-0.051-0.524-0.08-0.779-0.158c-0.412,1.325-1.497,5.611,0.835,6.049
			c-0.038,0.135-0.012,0.529-0.01,0.686c-0.018-0.002-0.644-0.08-0.604-0.086c-0.094,0.07-0.265,0.129-0.396,0.127
			c-0.176,1.943-0.212,3.998-0.154,5.947c0.202,0.045,0.375,0.018,0.572,0.07c0.261,0.467,0.345,1.107,0.178,1.637
			c-0.252-0.008-0.544,0.045-0.792,0.039c-0.11,1.344-0.294,2.834-0.345,4.092c-0.012,0.246,0.081,0.479,0.058,0.709
			c-0.201,1.883,9.764,3.105,11.991,3.217C55.489,117.977,78.345,119.633,77.317,114.145z"/>
	</g>
</g>
</svg>
