<?xml version="1.0" encoding="iso-8859-1"?>
<!-- Generator: Adobe Illustrator 13.0.0, SVG Export Plug-In . SVG Version: 6.00 Build 14948)  -->
<!DOCTYPE svg PUBLIC "-//W3C//DTD SVG 1.1//EN" "http://www.w3.org/Graphics/SVG/1.1/DTD/svg11.dtd">
<svg version="1.1" xmlns="http://www.w3.org/2000/svg" xmlns:xlink="http://www.w3.org/1999/xlink" x="0px" y="0px" width="540px"
	 height="200px" viewBox="0 0 540 200" style="enable-background:new 0 0 540 200;" xml:space="preserve">
<g id="Layer_2">
	<g>
		<rect style="fill:#FFFFFF;" width="540" height="200"/>
	</g>
</g>
<g id="Layer_1">
	<g>
		<g>
			
				<rect x="427.633" y="100.724" style="fill:#CE4E43;stroke:#FFFFFF;stroke-width:0.916;stroke-linecap:square;" width="4.48" height="64.386"/>
			<g>
				<path style="fill:#CE4E43;" d="M391.91,99.312c0,1.404,1.139,2.543,2.543,2.543h70.83c1.404,0,2.543-1.139,2.543-2.543
					s-1.139-2.542-2.543-2.542h-70.83C393.049,96.771,391.91,97.908,391.91,99.312C391.91,99.312,391.91,97.908,391.91,99.312z"/>
				<path style="fill:none;stroke:#FFFFFF;stroke-width:1.374;" d="M391.91,99.312c0,1.404,1.139,2.543,2.543,2.543h70.83
					c1.404,0,2.543-1.139,2.543-2.543s-1.139-2.542-2.543-2.542h-70.83C393.049,96.771,391.91,97.908,391.91,99.312
					C391.91,99.312,391.91,97.908,391.91,99.312z"/>
			</g>
		</g>
		<g>
			<rect x="160.574" y="92.91" style="fill:#78B432;stroke:#FFFFFF;stroke-width:1.374;" width="5.478" height="72.817"/>
			<path style="fill:#78B432;stroke:#FFFFFF;stroke-width:1.374;" d="M179.264,96.899h-31.912V88.92c0,0,7.569-3.492,15.547-3.492
				s16.364,3.492,16.364,3.492V96.899z"/>
			<rect x="153.086" y="148.463" style="fill:#78B432;stroke:#FFFFFF;stroke-width:0.916;" width="20.448" height="1.869"/>
		</g>
		
			<line style="fill:none;stroke:#78B432;stroke-width:3.427;stroke-linecap:round;" x1="26.713" y1="56.053" x2="134.205" y2="56.053"/>
		
			<line style="fill:none;stroke:#78B432;stroke-width:3.427;stroke-linecap:square;" x1="134.205" y1="56.053" x2="134.205" y2="80.097"/>
		
			<line style="fill:none;stroke:#78B432;stroke-width:3.427;stroke-linecap:square;" x1="134.205" y1="80.097" x2="123.899" y2="80.097"/>
		
			<line style="fill:none;stroke:#78B432;stroke-width:3.427;stroke-linecap:square;" x1="123.899" y1="80.097" x2="123.899" y2="164.823"/>
		
			<line style="fill:none;stroke:#78B432;stroke-width:3.427;stroke-linecap:round;" x1="123.899" y1="164.823" x2="512.43" y2="164.823"/>
		<g>
			<g>
				
					<line style="fill:none;stroke:#78B432;stroke-width:4.2837;stroke-linecap:round;stroke-linejoin:round;" x1="369.607" y1="85.414" x2="369.607" y2="124.01"/>
				
					<line style="fill:none;stroke:#78B432;stroke-width:4.2837;stroke-linecap:round;stroke-linejoin:round;" x1="369.607" y1="124.01" x2="408.203" y2="124.01"/>
				
					<line style="fill:none;stroke:#78B432;stroke-width:4.2837;stroke-linecap:round;stroke-linejoin:round;" x1="408.203" y1="124.01" x2="369.566" y2="162.651"/>
				
					<line style="fill:none;stroke:#78B432;stroke-width:4.2837;stroke-linecap:round;stroke-linejoin:round;" x1="369.566" y1="162.651" x2="391.82" y2="162.651"/>
			</g>
			<g>
				
					<line style="fill:none;stroke:#78B432;stroke-width:4.2837;stroke-linecap:round;stroke-linejoin:round;" x1="499.365" y1="85.414" x2="499.365" y2="124.01"/>
				
					<line style="fill:none;stroke:#78B432;stroke-width:4.2837;stroke-linecap:round;stroke-linejoin:round;" x1="499.365" y1="124.01" x2="460.773" y2="124.01"/>
				
					<line style="fill:none;stroke:#78B432;stroke-width:4.2837;stroke-linecap:round;stroke-linejoin:round;" x1="460.773" y1="124.01" x2="499.404" y2="162.651"/>
				
					<line style="fill:none;stroke:#78B432;stroke-width:4.2837;stroke-linecap:round;stroke-linejoin:round;" x1="499.404" y1="162.651" x2="477.152" y2="162.651"/>
			</g>
		</g>
	</g>
</g>
<g id="Layer_3">
	<g>
		<g>
			<path style="fill:#FFFFFF;stroke:#92938B;stroke-width:2.5702;stroke-linecap:round;stroke-linejoin:round;" d="M236.741,33.93
				c0,8.708-5.385,15.761-12.035,15.761c-6.643,0-12.036-7.054-12.036-15.761c0-8.701,5.393-15.756,12.036-15.756
				C231.356,18.174,236.741,25.229,236.741,33.93z"/>
			<path style="fill:none;stroke:#92938B;stroke-width:2.5702;stroke-linecap:round;stroke-linejoin:round;" d="M225.068,71.081
				c0.179,11.112,0.158,23.015-0.94,28.472c-1.711,8.594-5.155,5.159-3.434,17.192c2.152,15.08,8.024,27.51,6.302,34.957
				c-9.382,40.674-9.74,41.838-0.577,40.691"/>
			<path style="fill:none;stroke:#92938B;stroke-width:2.5702;stroke-linecap:round;stroke-linejoin:round;" d="M224.707,50.269
				c-0.015,2.771,0.081,7.037,0.188,11.966"/>
			<path style="fill:#FFFFFF;stroke:#92938B;stroke-width:1.7135;stroke-linecap:round;stroke-linejoin:round;" d="M231.889,66.615
				c0,2.688-2.174,4.87-4.866,4.87s-4.879-2.182-4.879-4.87c0-2.691,2.187-4.873,4.879-4.873S231.889,63.924,231.889,66.615z"/>
		</g>
		<g>
			<path style="fill:none;stroke:#92938B;stroke-width:1.7135;stroke-linecap:round;stroke-linejoin:round;" d="M293.112,107.387
				c0,1.518,1.226,2.75,2.746,2.75c1.506,0,2.745-1.232,2.745-2.75c0-1.516-1.239-2.746-2.745-2.746
				C294.338,104.641,293.112,105.872,293.112,107.387z"/>
			<path style="fill:#FFFFFF;stroke:#92938B;stroke-width:1.7135;stroke-linecap:round;stroke-linejoin:round;" d="M283.057,24.243
				c0,8.507,5.275,15.401,11.76,15.401c6.488,0,11.766-6.894,11.766-15.401c0-8.504-5.277-15.399-11.766-15.399
				C288.332,8.844,283.057,15.739,283.057,24.243z"/>
			<path style="fill:none;stroke:#92938B;stroke-width:1.7135;stroke-linecap:round;stroke-linejoin:round;" d="M294.524,40.256
				c0.056,10.75-1.444,42.537,0.612,52.855c1.844,9.215,2.662,6.423,0.824,19.329c-2.309,16.162,2.881,31.936,3.435,40.113
				c2.863,42.41,3.122,41.35-6.714,40.115"/>
		</g>
	</g>
	<g>
		<path style="fill:none;stroke:#92938B;stroke-width:1.7135;stroke-linecap:round;stroke-linejoin:round;" d="M243.992,82.891
			c-3.723-0.525-7.278-2.087-9.716-4.293c2.76,0.578,6.742,0.848,8.789,2.683c-2.219-1.878-6.256-1.045-9.121-1.076
			c1.619,2.548,4.444,2.152,5.98,4.764c-1.125-0.067-4.984-1.908-5.999-2.194c-0.092,0.329,4.272,2.48,4.22,2.806"/>
		<path style="fill:none;stroke:#92938B;stroke-width:1.7135;stroke-linecap:round;stroke-linejoin:round;" d="M225.573,59.931
			c0,0,2.066-1.24,2.534-0.772c4.406,3.759,7.578,6.009,12.624,9.214c5.937,3.78,9.423,4.136,14.296,12.369
			c-3.147,2.122-7.18,2.692-11.034,2.148"/>
	</g>
</g>
</svg>
