<?xml version="1.0" encoding="iso-8859-1"?>
<!-- Generator: Adobe Illustrator 13.0.0, SVG Export Plug-In . SVG Version: 6.00 Build 14948)  -->
<!DOCTYPE svg PUBLIC "-//W3C//DTD SVG 1.1//EN" "http://www.w3.org/Graphics/SVG/1.1/DTD/svg11.dtd">
<svg version="1.1" xmlns="http://www.w3.org/2000/svg" xmlns:xlink="http://www.w3.org/1999/xlink" x="0px" y="0px" width="540px"
	 height="200px" viewBox="0 0 540 200" style="enable-background:new 0 0 540 200;" xml:space="preserve">
<g id="Layer_2">
	<rect style="fill:#FFFFFF;" width="540" height="200"/>
</g>
<g id="Layer_1">
	<g>
		<g>
			
				<rect x="428.741" y="101.255" style="fill:#CE4E43;stroke:#FFFFFF;stroke-width:0.9199;stroke-linecap:square;" width="4.501" height="64.662"/>
			<g>
				<path style="fill:#CE4E43;" d="M392.865,99.838c0,1.41,1.144,2.554,2.554,2.554h71.135c1.41,0,2.554-1.144,2.554-2.554
					s-1.144-2.554-2.554-2.554h-71.135C394.009,97.284,392.865,98.428,392.865,99.838C392.865,99.838,392.865,98.428,392.865,99.838
					z"/>
				<path style="fill:none;stroke:#FFFFFF;stroke-width:1.3799;" d="M392.865,99.838c0,1.41,1.144,2.554,2.554,2.554h71.135
					c1.41,0,2.554-1.144,2.554-2.554s-1.144-2.554-2.554-2.554h-71.135C394.009,97.284,392.865,98.428,392.865,99.838
					C392.865,99.838,392.865,98.428,392.865,99.838z"/>
			</g>
		</g>
		<g>
			<rect x="160.532" y="93.408" style="fill:#79B42E;stroke:#FFFFFF;stroke-width:1.3799;" width="5.502" height="73.129"/>
			<path style="fill:#79B42E;stroke:#FFFFFF;stroke-width:1.3799;" d="M179.304,97.415h-32.049v-8.014c0,0,7.6-3.508,15.613-3.508
				c8.013,0,16.436,3.508,16.436,3.508V97.415z"/>
			<rect x="153.013" y="149.199" style="fill:#79B42E;stroke:#FFFFFF;stroke-width:0.9199;" width="20.536" height="1.877"/>
		</g>
		
			<line style="fill:none;stroke:#79B42E;stroke-width:3.4417;stroke-linecap:round;" x1="26.097" y1="56.392" x2="134.05" y2="56.392"/>
		
			<line style="fill:none;stroke:#79B42E;stroke-width:3.4417;stroke-linecap:square;" x1="134.05" y1="56.392" x2="134.05" y2="80.54"/>
		
			<line style="fill:none;stroke:#79B423;stroke-width:3.4417;stroke-linecap:square;" x1="134.05" y1="80.54" x2="123.7" y2="80.54"/>
		
			<line style="fill:none;stroke:#79B42E;stroke-width:3.4417;stroke-linecap:square;" x1="123.7" y1="80.54" x2="123.7" y2="165.629"/>
		
			<line style="fill:none;stroke:#79B42E;stroke-width:3.4417;stroke-linecap:round;" x1="123.7" y1="165.629" x2="513.903" y2="165.629"/>
		<g>
			<g>
				
					<line style="fill:none;stroke:#79B42E;stroke-width:4.3022;stroke-linecap:round;stroke-linejoin:round;" x1="370.467" y1="85.88" x2="370.467" y2="124.643"/>
				
					<line style="fill:none;stroke:#79B42E;stroke-width:4.3022;stroke-linecap:round;stroke-linejoin:round;" x1="370.467" y1="124.643" x2="409.229" y2="124.643"/>
				
					<line style="fill:none;stroke:#79B42E;stroke-width:4.3022;stroke-linecap:round;stroke-linejoin:round;" x1="409.229" y1="124.643" x2="370.427" y2="163.448"/>
				
					<line style="fill:none;stroke:#79B42E;stroke-width:4.3022;stroke-linecap:round;stroke-linejoin:round;" x1="370.427" y1="163.448" x2="392.776" y2="163.448"/>
			</g>
			<g>
				
					<line style="fill:none;stroke:#79B42E;stroke-width:4.3022;stroke-linecap:round;stroke-linejoin:round;" x1="500.782" y1="85.88" x2="500.782" y2="124.643"/>
				
					<line style="fill:none;stroke:#79B42E;stroke-width:4.3022;stroke-linecap:round;stroke-linejoin:round;" x1="500.782" y1="124.643" x2="462.024" y2="124.643"/>
				
					<line style="fill:none;stroke:#79B42E;stroke-width:4.3022;stroke-linecap:round;stroke-linejoin:round;" x1="462.024" y1="124.643" x2="500.823" y2="163.448"/>
				
					<line style="fill:none;stroke:#79B42E;stroke-width:4.3022;stroke-linecap:round;stroke-linejoin:round;" x1="500.823" y1="163.448" x2="478.474" y2="163.448"/>
			</g>
		</g>
	</g>
</g>
<g id="Layer_3">
	<g>
		<g>
			<path style="fill:none;stroke:#92938B;stroke-width:1.7209;stroke-linecap:round;stroke-linejoin:round;" d="M312.677,106.588
				c0,1.523,1.23,2.761,2.758,2.761c1.513,0,2.758-1.237,2.758-2.761s-1.245-2.758-2.758-2.758
				C313.907,103.83,312.677,105.064,312.677,106.588z"/>
			<path style="fill:none;stroke:#92938B;stroke-width:1.7209;stroke-linecap:round;stroke-linejoin:round;" d="M302.578,23.085
				c0,8.543,5.297,15.467,11.81,15.467c6.517,0,11.817-6.924,11.817-15.467c0-8.541-5.301-15.465-11.817-15.465
				C307.875,7.621,302.578,14.544,302.578,23.085z"/>
			<path style="fill:none;stroke:#92938B;stroke-width:1.7209;stroke-linecap:round;stroke-linejoin:round;" d="M314.095,39.168
				c0.056,10.795-1.45,42.72,0.615,53.082c1.853,9.256,2.674,6.45,0.827,19.412c-2.317,16.232,2.894,32.073,3.45,40.285
				c2.875,42.593,3.136,41.527-6.742,40.288"/>
		</g>
	</g>
	<g>
		<path style="fill:#FFFFFF;stroke:#92938B;stroke-width:2.5813;stroke-linecap:round;stroke-linejoin:round;" d="M183.156,33.306
			c0,8.745-5.407,15.829-12.087,15.829c-6.67,0-12.086-7.084-12.086-15.829c0-8.739,5.416-15.824,12.086-15.824
			C177.749,17.482,183.156,24.567,183.156,33.306z"/>
		<path style="fill:none;stroke:#92938B;stroke-width:2.5813;stroke-linecap:round;stroke-linejoin:round;" d="M171.434,70.616
			c0.181,11.16,0.157,23.114-0.944,28.594c-1.719,8.633-5.178,5.182-3.449,17.267c2.161,15.145,8.059,27.627,6.329,35.108
			c-9.423,40.847-9.782,42.017-0.579,40.866"/>
		<path style="fill:none;stroke:#92938B;stroke-width:2.5813;stroke-linecap:round;stroke-linejoin:round;" d="M171.069,49.714
			c-0.014,2.783,0.082,7.067,0.189,12.018"/>
		<path style="fill:#FFFFFF;stroke:#92938B;stroke-width:1.7209;stroke-linecap:round;stroke-linejoin:round;" d="M178.283,66.131
			c0,2.7-2.183,4.892-4.888,4.892c-2.703,0-4.9-2.192-4.9-4.892c0-2.702,2.197-4.894,4.9-4.894
			C176.101,61.238,178.283,63.429,178.283,66.131z"/>
	</g>
	<path style="fill:none;stroke:#92938B;stroke-width:1.7209;stroke-linecap:round;stroke-linejoin:round;" d="M171.64,60.647
		c8.467,0.292,13.552-11.946,15.708-18.391c3.603-10.724,1.365-21.15-2.084-31.721c0.921,4.321,2.079,10.268,3.638,14.207
		c1.703-4.166,0.701-9.139,2.771-13.122c1.092,4.709,0.71,9.639,0.688,14.442c0.08-2.376,0.992-4.682,2.421-6.567
		c-1.153,1.323-1.644,2.785-2.417,4.319"/>
</g>
</svg>
