<?xml version="1.0" encoding="iso-8859-1"?>
<!-- Generator: Adobe Illustrator 13.0.0, SVG Export Plug-In . SVG Version: 6.00 Build 14948)  -->
<!DOCTYPE svg PUBLIC "-//W3C//DTD SVG 1.1//EN" "http://www.w3.org/Graphics/SVG/1.1/DTD/svg11.dtd">
<svg version="1.1" xmlns="http://www.w3.org/2000/svg" xmlns:xlink="http://www.w3.org/1999/xlink" x="0px" y="0px"
	 width="540.001px" height="200px" viewBox="0 0 540.001 200" style="enable-background:new 0 0 540.001 200;" xml:space="preserve"
	>
<g id="Layer_2">
	<g>
		<rect style="fill:#FFFFFF;" width="540.001" height="200"/>
	</g>
</g>
<g id="Layer_1">
	<g>
		<g>
			
				<rect x="427.632" y="100.724" style="fill:#CE4E43;stroke:#FFFFFF;stroke-width:0.916;stroke-linecap:square;" width="4.48" height="64.386"/>
			<g>
				<path style="fill:#CE4E43;" d="M391.909,99.312c0,1.404,1.139,2.543,2.543,2.543h70.83c1.406,0,2.543-1.139,2.543-2.543
					s-1.137-2.542-2.543-2.542h-70.83C393.048,96.771,391.909,97.908,391.909,99.312C391.909,99.312,391.909,97.908,391.909,99.312z
					"/>
				<path style="fill:none;stroke:#FFFFFF;stroke-width:1.374;" d="M391.909,99.312c0,1.404,1.139,2.543,2.543,2.543h70.83
					c1.406,0,2.543-1.139,2.543-2.543s-1.137-2.542-2.543-2.542h-70.83C393.048,96.771,391.909,97.908,391.909,99.312
					C391.909,99.312,391.909,97.908,391.909,99.312z"/>
			</g>
		</g>
		<g>
			<rect x="160.574" y="92.91" style="fill:#78B432;stroke:#FFFFFF;stroke-width:1.374;" width="5.478" height="72.816"/>
			<path style="fill:#78B432;stroke:#FFFFFF;stroke-width:1.374;" d="M179.264,96.899h-31.912V88.92c0,0,7.569-3.492,15.547-3.492
				s16.364,3.492,16.364,3.492V96.899z"/>
			<rect x="153.086" y="148.463" style="fill:#78B432;stroke:#FFFFFF;stroke-width:0.916;" width="20.448" height="1.869"/>
		</g>
		
			<line style="fill:none;stroke:#78B432;stroke-width:3.427;stroke-linecap:round;" x1="26.713" y1="56.053" x2="134.205" y2="56.053"/>
		
			<line style="fill:none;stroke:#78B432;stroke-width:3.427;stroke-linecap:square;" x1="134.205" y1="56.053" x2="134.205" y2="80.097"/>
		
			<line style="fill:none;stroke:#78B432;stroke-width:3.427;stroke-linecap:square;" x1="134.205" y1="80.097" x2="123.899" y2="80.097"/>
		
			<line style="fill:none;stroke:#78B432;stroke-width:3.427;stroke-linecap:square;" x1="123.899" y1="80.097" x2="123.899" y2="164.822"/>
		
			<line style="fill:none;stroke:#78B432;stroke-width:3.427;stroke-linecap:round;" x1="123.899" y1="164.822" x2="512.431" y2="164.822"/>
		<g>
			<g>
				
					<line style="fill:none;stroke:#78B432;stroke-width:4.2837;stroke-linecap:round;stroke-linejoin:round;" x1="369.608" y1="85.414" x2="369.608" y2="124.011"/>
				
					<line style="fill:none;stroke:#78B432;stroke-width:4.2837;stroke-linecap:round;stroke-linejoin:round;" x1="369.608" y1="124.011" x2="408.202" y2="124.011"/>
				
					<line style="fill:none;stroke:#78B432;stroke-width:4.2837;stroke-linecap:round;stroke-linejoin:round;" x1="408.202" y1="124.011" x2="369.567" y2="162.65"/>
				
					<line style="fill:none;stroke:#78B432;stroke-width:4.2837;stroke-linecap:round;stroke-linejoin:round;" x1="369.567" y1="162.65" x2="391.821" y2="162.65"/>
			</g>
			<g>
				
					<line style="fill:none;stroke:#78B432;stroke-width:4.2837;stroke-linecap:round;stroke-linejoin:round;" x1="499.364" y1="85.414" x2="499.364" y2="124.011"/>
				
					<line style="fill:none;stroke:#78B432;stroke-width:4.2837;stroke-linecap:round;stroke-linejoin:round;" x1="499.364" y1="124.011" x2="460.772" y2="124.011"/>
				
					<line style="fill:none;stroke:#78B432;stroke-width:4.2837;stroke-linecap:round;stroke-linejoin:round;" x1="460.772" y1="124.011" x2="499.405" y2="162.65"/>
				
					<line style="fill:none;stroke:#78B432;stroke-width:4.2837;stroke-linecap:round;stroke-linejoin:round;" x1="499.405" y1="162.65" x2="477.151" y2="162.65"/>
			</g>
		</g>
	</g>
	<g>
		<g>
			<path style="fill:#FFFFFF;stroke:#92938B;stroke-width:2.5702;stroke-linecap:round;stroke-linejoin:round;" d="M236.741,33.93
				c0,8.708-5.385,15.761-12.035,15.761c-6.643,0-12.036-7.053-12.036-15.761c0-8.701,5.393-15.756,12.036-15.756
				C231.356,18.174,236.741,25.229,236.741,33.93z"/>
			<path style="fill:none;stroke:#92938B;stroke-width:2.5702;stroke-linecap:round;stroke-linejoin:round;" d="M225.068,71.08
				c0.179,11.112,0.158,23.016-0.94,28.473c-1.711,8.595-5.155,5.158-3.434,17.191c2.152,15.079,8.024,27.509,6.302,34.958
				c-9.382,40.673-9.74,41.837-0.577,40.69"/>
			<path style="fill:none;stroke:#92938B;stroke-width:2.5702;stroke-linecap:round;stroke-linejoin:round;" d="M224.707,50.268
				c-0.015,2.771,0.081,7.037,0.188,11.966"/>
			<path style="fill:#FFFFFF;stroke:#92938B;stroke-width:1.7135;stroke-linecap:round;stroke-linejoin:round;" d="M231.889,66.615
				c0,2.688-2.174,4.87-4.866,4.87s-4.879-2.182-4.879-4.87c0-2.691,2.187-4.873,4.879-4.873S231.889,63.924,231.889,66.615z"/>
		</g>
		<g>
			<path style="fill:none;stroke:#92938B;stroke-width:1.7135;stroke-linecap:round;stroke-linejoin:round;" d="M293.112,107.387
				c0,1.517,1.225,2.749,2.746,2.749c1.506,0,2.746-1.232,2.746-2.749s-1.24-2.746-2.746-2.746
				C294.337,104.641,293.112,105.87,293.112,107.387z"/>
			<path style="fill:#FFFFFF;stroke:#92938B;stroke-width:1.7135;stroke-linecap:round;stroke-linejoin:round;" d="M283.058,24.243
				c0,8.506,5.273,15.4,11.758,15.4c6.49,0,11.768-6.894,11.768-15.4c0-8.505-5.277-15.399-11.768-15.399
				C288.331,8.844,283.058,15.738,283.058,24.243z"/>
			<path style="fill:none;stroke:#92938B;stroke-width:1.7135;stroke-linecap:round;stroke-linejoin:round;" d="M294.524,40.256
				c0.055,10.75-1.443,42.537,0.613,52.855c1.844,9.215,2.662,6.423,0.822,19.328c-2.307,16.162,2.882,31.936,3.436,40.113
				c2.863,42.41,3.123,41.35-6.713,40.114"/>
		</g>
	</g>
</g>
</svg>
