<?xml version="1.0" encoding="iso-8859-1"?>
<!-- Generator: Adobe Illustrator 13.0.0, SVG Export Plug-In . SVG Version: 6.00 Build 14948)  -->
<!DOCTYPE svg PUBLIC "-//W3C//DTD SVG 1.1//EN" "http://www.w3.org/Graphics/SVG/1.1/DTD/svg11.dtd">
<svg version="1.1" xmlns="http://www.w3.org/2000/svg" xmlns:xlink="http://www.w3.org/1999/xlink" x="0px" y="0px" width="378px"
	 height="140px" viewBox="0 0 378 140" style="enable-background:new 0 0 378 140;" xml:space="preserve">
<g id="Layer_2">
	<g>
		<rect style="fill:none;" width="378" height="140"/>
		<rect style="fill:#FFFFFF;" width="378" height="140"/>
	</g>
</g>
<g id="Layer_3">
	<g>
		<g>
			<g>
				<path style="fill:#CC3133;stroke:#FF0000;stroke-width:1.7012;stroke-linecap:round;stroke-linejoin:round;" d="M115.303,26.268
					l-8.324-2.237c0.766,18.443,1.676,68.455,1.676,86.449c1.074,0.46,6.287,2.365,8.598,2.943"/>
				<path style="fill:#CC3133;stroke:#FF0000;stroke-width:1.7012;stroke-linecap:round;stroke-linejoin:round;" d="
					M117.252,113.423c0.551-0.112,5.998-3.532,5.998-4.949c0-5.309-1.123-75.342-1.938-85.791c-0.068-0.926-8.926-3.355-9.385-2.895
					c-1.674,1.674-1.674,1.674-4.949,3.595"/>
				<path style="fill:#CC3133;stroke:#FF0000;stroke-width:1.7012;stroke-linecap:round;stroke-linejoin:round;" d="M106.979,24.03
					c2.229,1.076,8.324,2.237,8.324,2.237s2.758-1.333,4.914-3.483"/>
				<path style="fill:#CC3133;stroke:#FF0000;stroke-width:1.7012;stroke-linecap:round;stroke-linejoin:round;" d="M115.303,26.268
					c0.797,9.314,1.912,78.23,2.295,86.973"/>
			</g>
			<g>
				<path style="fill:#CC3133;stroke:#FF0000;stroke-width:1.7012;stroke-linecap:round;stroke-linejoin:round;" d="M168.405,50.34
					l-8.326-2.231c0.766,18.443,1.676,68.455,1.676,86.449c1.074,0.46,6.285,2.364,8.6,2.942"/>
				<path style="fill:#CC3133;stroke:#FF0000;stroke-width:1.7012;stroke-linecap:round;stroke-linejoin:round;" d="M170.354,137.5
					c0.549-0.118,5.996-3.531,5.996-4.949c0-5.313-1.123-75.341-1.934-85.791c-0.072-0.926-8.928-3.354-9.387-2.9
					c-1.676,1.681-1.676,1.681-4.951,3.596"/>
				<path style="fill:#CC3133;stroke:#FF0000;stroke-width:1.7012;stroke-linecap:round;stroke-linejoin:round;" d="M160.079,48.108
					c2.227,1.075,8.326,2.231,8.326,2.231s2.756-1.327,4.912-3.483"/>
				<path style="fill:#CC3133;stroke:#FF0000;stroke-width:1.7012;stroke-linecap:round;stroke-linejoin:round;" d="M168.405,50.34
					c0.795,9.314,1.91,78.23,2.293,86.973"/>
			</g>
			<g>
				<path style="fill:#CC3133;stroke:#FF0000;stroke-width:1.7012;stroke-linecap:round;stroke-linejoin:round;" d="M216.203,14.298
					l-8.32-2.236c0.762,18.443,1.674,68.455,1.674,86.454c1.074,0.455,6.283,2.359,8.6,2.938"/>
				<path style="fill:#CC3133;stroke:#FF0000;stroke-width:1.7012;stroke-linecap:round;stroke-linejoin:round;" d="
					M218.156,101.453c0.551-0.112,5.994-3.531,5.994-4.949c0-5.308-1.121-75.341-1.934-85.791c-0.074-0.926-8.93-3.354-9.385-2.899
					c-1.68,1.68-1.68,1.68-4.949,3.601"/>
				<path style="fill:#CC3133;stroke:#FF0000;stroke-width:1.7012;stroke-linecap:round;stroke-linejoin:round;" d="M207.883,12.062
					c2.227,1.075,8.32,2.236,8.32,2.236s2.758-1.332,4.914-3.483"/>
				<path style="fill:#CC3133;stroke:#FF0000;stroke-width:1.7012;stroke-linecap:round;stroke-linejoin:round;" d="M216.203,14.298
					c0.797,9.315,1.912,78.23,2.295,86.974"/>
			</g>
			<g>
				<path style="fill:#CC3133;stroke:#FF0000;stroke-width:1.7012;stroke-linecap:round;stroke-linejoin:round;" d="M269.061,38.242
					l-8.32-2.237c0.766,18.443,1.676,68.455,1.676,86.449c1.074,0.46,6.281,2.365,8.598,2.943"/>
				<path style="fill:#CC3133;stroke:#FF0000;stroke-width:1.7012;stroke-linecap:round;stroke-linejoin:round;" d="
					M271.014,125.397c0.551-0.113,5.996-3.532,5.996-4.949c0-5.309-1.121-75.342-1.936-85.791c-0.072-0.926-8.93-3.355-9.385-2.9
					c-1.68,1.68-1.68,1.68-4.949,3.601"/>
				<path style="fill:#CC3133;stroke:#FF0000;stroke-width:1.7012;stroke-linecap:round;stroke-linejoin:round;" d="M260.74,36.005
					c2.227,1.076,8.32,2.237,8.32,2.237s2.762-1.333,4.918-3.489"/>
				<path style="fill:#CC3133;stroke:#FF0000;stroke-width:1.7012;stroke-linecap:round;stroke-linejoin:round;" d="M269.061,38.242
					c0.797,9.31,1.916,78.23,2.297,86.973"/>
			</g>
		</g>
		<polygon style="fill:#FFFFFF;stroke:#CC3133;stroke-width:3.9695;stroke-linecap:round;stroke-linejoin:round;" points="
			301.988,39.076 168.79,64.786 76.011,22.838 216.906,4.87 		"/>
		<polygon style="fill:#FF0000;" points="300.945,37.011 168.79,62.693 76.011,21.174 216.906,2.5 		"/>
	</g>
</g>
</svg>
