<?xml version="1.0" encoding="iso-8859-1"?>
<!-- Generator: Adobe Illustrator 13.0.0, SVG Export Plug-In . SVG Version: 6.00 Build 14948)  -->
<!DOCTYPE svg PUBLIC "-//W3C//DTD SVG 1.1//EN" "http://www.w3.org/Graphics/SVG/1.1/DTD/svg11.dtd">
<svg version="1.1" xmlns="http://www.w3.org/2000/svg" xmlns:xlink="http://www.w3.org/1999/xlink" x="0px" y="0px" width="378px"
	 height="140px" viewBox="0 0 378 140" style="enable-background:new 0 0 378 140;" xml:space="preserve">
<style type="text/css">
<![CDATA[
]]>
</style>
<g id="fond">
	<g>
		<rect style="fill:#FFFFFF;" width="378" height="140"/>
	</g>
</g>
<g id="feuille">
	
		<rect x="222.242" y="12.682" style="fill:#FFFFFF;stroke:#7E7A64;stroke-width:0.25;stroke-linecap:round;stroke-linejoin:round;" width="77.758" height="113.662"/>
</g>
<g id="Layer_6">
	
		<line style="fill:none;stroke:#7E7A64;stroke-width:0.8748;stroke-linecap:round;stroke-linejoin:round;" x1="292.113" y1="21.32" x2="268.69" y2="21.32"/>
	
		<line style="fill:none;stroke:#7E7A64;stroke-width:0.8748;stroke-linecap:round;stroke-linejoin:round;" x1="292.113" y1="24.569" x2="268.69" y2="24.569"/>
	<g>
		
			<line style="fill:none;stroke:#7E7A64;stroke-width:0.8748;stroke-linecap:round;stroke-linejoin:round;" x1="277.331" y1="28.301" x2="268.69" y2="28.301"/>
		
			<line style="fill:none;stroke:#7E7A64;stroke-width:0.8748;stroke-linecap:round;stroke-linejoin:round;" x1="288.231" y1="28.301" x2="279.592" y2="28.301"/>
	</g>
	<g>
		
			<line style="fill:none;stroke:#7E7A64;stroke-width:0.8748;stroke-linecap:round;stroke-linejoin:round;" x1="281.273" y1="52" x2="275.339" y2="52"/>
		
			<line style="fill:none;stroke:#7E7A64;stroke-width:0.8748;stroke-linecap:round;stroke-linejoin:round;" x1="292.113" y1="52" x2="283.473" y2="52"/>
	</g>
	<g>
		<polyline style="fill:none;stroke:#7E7A64;stroke-width:0.8748;stroke-linecap:round;stroke-linejoin:round;" points="
			230.732,63.083 292.113,63.083 231.017,63.083 		"/>
		<polyline style="fill:none;stroke:#7E7A64;stroke-width:0.8748;stroke-linecap:round;stroke-linejoin:round;" points="
			230.732,69.501 292.113,69.501 231.017,69.501 		"/>
		<polyline style="fill:none;stroke:#7E7A64;stroke-width:0.8748;stroke-linecap:round;stroke-linejoin:round;" points="
			230.732,76.816 292.113,76.816 231.017,76.816 		"/>
		<polyline style="fill:none;stroke:#7E7A64;stroke-width:0.8748;stroke-linecap:round;stroke-linejoin:round;" points="
			230.732,83.384 292.113,83.384 231.017,83.384 		"/>
	</g>
	<g id="compteur">
		<g>
			
				<rect x="78.121" y="50.953" style="fill:#161616;stroke:#000000;stroke-width:1.1566;stroke-linecap:round;stroke-linejoin:round;" width="106" height="43.888"/>
			<g>
				<path style="fill:#E31919;" d="M94.583,70.731v-8.738l3.218,3.346v4.551l-2.011,2.13L94.583,70.731z M97.801,75.383v4.548
					l-3.218,3.384v-8.767l1.207-1.262L97.801,75.383z M107.67,61.339l-3.211,3.375H98.41l-3.21-3.375H107.67z M107.67,83.967H95.2
					l3.21-3.376h6.049L107.67,83.967z M105.026,69.89v-4.545l3.218-3.346v8.732l-1.207,1.289L105.026,69.89z M108.244,74.548v8.759
					l-3.218-3.386v-4.542l2.011-2.093L108.244,74.548z"/>
				<path style="fill:#E31919;" d="M111.867,70.731v-8.738l3.218,3.346v4.551l-2.011,2.13L111.867,70.731z M124.953,61.339
					l-3.21,3.375h-6.049l-3.21-3.375H124.953z M124.953,83.967h-12.47l3.21-3.376h6.049L124.953,83.967z M122.148,70.966
					l1.605,1.687l-1.605,1.689h-6.854l-1.605-1.689l1.605-1.687H122.148z M122.31,69.89v-4.545l3.217-3.346v8.732l-1.206,1.289
					L122.31,69.89z M125.527,74.548v8.759l-3.217-3.386v-4.542l2.011-2.093L125.527,74.548z"/>
				<path style="fill:#E31919;" d="M129.519,68.487v-3.375h3.218v3.375H129.519z M129.519,83.967v-3.376h3.218v3.376H129.519z"/>
				<path style="fill:#E31919;" d="M136.682,70.731v-8.738l3.218,3.346v4.551l-2.011,2.13L136.682,70.731z M149.77,61.339
					l-3.211,3.375h-6.049l-3.211-3.375H149.77z M149.77,83.967h-12.471l3.211-3.376h6.049L149.77,83.967z M146.963,70.966
					l1.605,1.687l-1.605,1.689h-6.853l-1.605-1.689l1.605-1.687H146.963z M150.342,74.548v8.759l-3.217-3.386v-4.542l2.011-2.093
					L150.342,74.548z"/>
				<path style="fill:#E31919;" d="M153.965,70.731v-8.738l3.218,3.346v4.551l-2.012,2.13L153.965,70.731z M157.183,75.383v4.548
					l-3.218,3.384v-8.767l1.206-1.262L157.183,75.383z M167.052,61.339l-3.21,3.375h-6.049l-3.21-3.375H167.052z M167.052,83.967
					h-12.47l3.21-3.376h6.049L167.052,83.967z M164.247,70.966l1.605,1.687l-1.605,1.689h-6.854l-1.608-1.689l1.608-1.687H164.247z
					 M167.625,74.548v8.759l-3.217-3.386v-4.542l2.011-2.093L167.625,74.548z"/>
			</g>
		</g>
	</g>
</g>
<g id="_x39_56">
	<path style="fill:none;stroke:#7E7A64;stroke-linecap:round;stroke-linejoin:round;" d="M270.343,109.348
		c0.313-0.144,0.232-1.626-0.325-1.997c-1.357-0.903-3.099,0.47-4.05,1.504c-1.051,1.144-1.812,3.963,0.604,4.294
		c2.476,0.34,3.495-3.046,3.968-4.914c-0.627,3.27-1.085,8.007-0.27,11.185"/>
	<path style="fill:none;stroke:#7E7A64;stroke-linecap:round;stroke-linejoin:round;" d="M276.35,108.96
		c-1.117-0.08-2.555,0.577-3.42,1.279"/>
	<path style="fill:none;stroke:#7E7A64;stroke-linecap:round;stroke-linejoin:round;" d="M277.075,111.427
		c-0.838,0.466-1.829,0.585-2.613,1.147"/>
	<path style="fill:none;stroke:#7E7A64;stroke-linecap:round;stroke-linejoin:round;" d="M284.672,106.38
		c-0.979,0.321-3.261,1.319-3.261,1.319s-0.541,2.03-0.56,2.988c0.913-0.435,3.023-1.369,3.499,0.134
		c0.616,1.955-3.021,3.22-4.332,3.38"/>
	<path style="fill:none;stroke:#7E7A64;stroke-linecap:round;stroke-linejoin:round;" d="M290.44,106.007
		c-4.52,0.279-4.393,7.496-2.066,7.952c1.411,0.278,3.018-2.781,1.454-3.307c-0.941-0.316-2.12,0.226-2.708,2.011"/>
</g>
<g id="Layer_8">
	<g>
		<g>
			<rect x="229.479" y="19.903" style="fill:none;" width="29.854" height="31.292"/>
			<path style="fill:#3585BB;" d="M259.334,48.522c0,1.477-1.143,2.673-2.552,2.673h-24.751c-1.409,0-2.552-1.196-2.552-2.673
				V22.581c0-1.48,1.143-2.677,2.552-2.677h24.751c1.409,0,2.552,1.197,2.552,2.677V48.522z"/>
			<path style="fill:none;stroke:#FFFFFF;stroke-width:0.9215;" d="M258.122,47.469c0,1.357-1.049,2.456-2.345,2.456h-22.741
				c-1.295,0-2.343-1.099-2.343-2.456V23.632c0-1.357,1.048-2.457,2.343-2.457h22.741c1.296,0,2.345,1.1,2.345,2.457V47.469z"/>
		</g>
		<g>
			<path style="fill:#FFFFFF;" d="M232.49,28.897c0.492-0.32,5.71-0.068,5.992-0.324c0.131-0.115,1.143-2.054,1.506-2.521
				c0.593-0.769,1.007-0.638,1.995-0.638c1.154,0,6.562,0,7.549,0c0.547,0,1.902,2.754,2.052,2.942
				c0.445,0.571,2.82,0.288,3.776,0.763c0.758,0.377,0.999,2.98,0.584,4.054c-0.348,0.224-10.956,0.344-11.93,0.344l0,0
				c-0.506-0.076-10.724,0.004-10.844-0.635c-0.088-0.466-0.148-0.93-0.215-1.401c-0.065-0.469-0.254-0.756-0.403-1.144
				C232.369,29.868,232.493,29.397,232.49,28.897 M239.53,28.89c0.746,0,4.741,0,4.741,0c0.097,0,0.176-0.082,0.176-0.182v-2.426
				c0-0.102-0.079-0.181-0.176-0.181c0,0-2.628,0-3.191,0C240.515,26.101,238.785,28.89,239.53,28.89z M248.686,26.101
				c-0.567,0-3.192,0-3.192,0c-0.099,0-0.177,0.079-0.177,0.181v2.426c0,0.1,0.078,0.182,0.177,0.182c0,0,3.993,0,4.74,0
				C250.979,28.89,249.252,26.101,248.686,26.101z"/>
			<g>
				<ellipse style="fill:#FFFFFF;" cx="236.44" cy="33.621" rx="1.887" ry="1.979"/>
				<ellipse style="fill:#3585BB;" cx="236.442" cy="33.621" rx="1.091" ry="1.144"/>
			</g>
			<g>
				<ellipse style="fill:#FFFFFF;" cx="251.505" cy="33.621" rx="1.887" ry="1.979"/>
				<ellipse style="fill:#3585BB;" cx="251.505" cy="33.621" rx="1.091" ry="1.144"/>
			</g>
			<polygon style="fill:#FFFFFF;" points="243.657,25.524 244.341,24.433 245.026,25.524 			"/>
			
				<text transform="matrix(0.954 0 0 1 231.8398 46.5752)" style="fill:#FFFFFF; font-family:'HelveticaNeue-Bold'; font-size:11.8929;">TAXI</text>
		</g>
	</g>
	<g style="display:none;">
		<g style="display:inline;">
			<rect x="215.924" y="16.035" style="fill:none;" width="20.624" height="21.618"/>
			<path style="fill:#3585BB;" d="M236.548,35.806c0,1.021-0.789,1.847-1.763,1.847h-17.099c-0.974,0-1.763-0.827-1.763-1.847
				V17.884c0-1.022,0.789-1.849,1.763-1.849h17.099c0.974,0,1.763,0.827,1.763,1.849V35.806z"/>
			<path style="fill:none;stroke:#FFFFFF;stroke-width:0.6366;" d="M235.711,35.078c0,0.938-0.725,1.696-1.62,1.696h-15.71
				c-0.895,0-1.618-0.758-1.618-1.696V18.611c0-0.938,0.724-1.698,1.618-1.698h15.71c0.896,0,1.62,0.76,1.62,1.698V35.078z"/>
		</g>
		<g style="display:inline;">
			<path style="fill:#FFFFFF;" d="M218.004,22.248c0.34-0.22,3.944-0.047,4.14-0.223c0.09-0.08,0.789-1.419,1.04-1.742
				c0.409-0.53,0.695-0.44,1.378-0.44c0.798,0,4.533,0,5.215,0c0.378,0,1.314,1.902,1.418,2.032
				c0.308,0.395,1.948,0.199,2.608,0.527c0.523,0.261,0.69,2.058,0.403,2.801c-0.24,0.154-7.568,0.237-8.241,0.237l0,0
				c-0.35-0.053-7.408,0.003-7.491-0.438c-0.061-0.323-0.103-0.643-0.148-0.968c-0.045-0.324-0.175-0.522-0.278-0.79
				C217.92,22.919,218.006,22.594,218.004,22.248 M222.867,22.243c0.516,0,3.275,0,3.275,0c0.066,0,0.121-0.057,0.121-0.126v-1.675
				c0-0.07-0.055-0.126-0.121-0.126c0,0-1.815,0-2.205,0C223.547,20.316,222.353,22.243,222.867,22.243z M229.191,20.316
				c-0.392,0-2.205,0-2.205,0c-0.068,0-0.122,0.056-0.122,0.126v1.675c0,0.07,0.054,0.126,0.122,0.126c0,0,2.759,0,3.274,0
				C230.775,22.243,229.583,20.316,229.191,20.316z"/>
			<g>
				<ellipse style="fill:#FFFFFF;" cx="220.732" cy="25.512" rx="1.304" ry="1.367"/>
				<ellipse style="fill:#3585BB;" cx="220.733" cy="25.512" rx="0.754" ry="0.79"/>
			</g>
			<g>
				<ellipse style="fill:#FFFFFF;" cx="231.14" cy="25.512" rx="1.304" ry="1.367"/>
				<ellipse style="fill:#3585BB;" cx="231.14" cy="25.512" rx="0.754" ry="0.79"/>
			</g>
			<polygon style="fill:#FFFFFF;" points="225.718,19.918 226.19,19.164 226.664,19.918 			"/>
			
				<text transform="matrix(0.954 0 0 1 217.5557 34.4604)" style="fill:#FFFFFF; font-family:'HelveticaNeue-Bold'; font-size:8.2159;">TAXI</text>
		</g>
	</g>
</g>
</svg>
