<?xml version="1.0" encoding="iso-8859-1"?>
<!-- Generator: Adobe Illustrator 13.0.0, SVG Export Plug-In . SVG Version: 6.00 Build 14948)  -->
<!DOCTYPE svg PUBLIC "-//W3C//DTD SVG 1.1//EN" "http://www.w3.org/Graphics/SVG/1.1/DTD/svg11.dtd">
<svg version="1.1" xmlns="http://www.w3.org/2000/svg" xmlns:xlink="http://www.w3.org/1999/xlink" x="0px" y="0px" width="540px"
	 height="200px" viewBox="0 0 540 200" style="enable-background:new 0 0 540 200;" xml:space="preserve">
<g id="Layer_2">
	<g>
		<rect style="fill:#FFFFFF;" width="540" height="200"/>
	</g>
</g>
<g id="Layer_1">
	<g>
		<g>
			
				<rect x="428.061" y="100.724" style="fill:#CE4E43;stroke:#FFFFFF;stroke-width:0.916;stroke-linecap:square;" width="4.48" height="64.386"/>
			<g>
				<path style="fill:#CE4E43;" d="M392.338,99.312c0,1.404,1.139,2.543,2.543,2.543h70.83c1.406,0,2.543-1.139,2.543-2.543
					s-1.137-2.542-2.543-2.542h-70.83C393.477,96.771,392.338,97.908,392.338,99.312C392.338,99.312,392.338,97.908,392.338,99.312z
					"/>
				<path style="fill:none;stroke:#FFFFFF;stroke-width:1.374;" d="M392.338,99.312c0,1.404,1.139,2.543,2.543,2.543h70.83
					c1.406,0,2.543-1.139,2.543-2.543s-1.137-2.542-2.543-2.542h-70.83C393.477,96.771,392.338,97.908,392.338,99.312
					C392.338,99.312,392.338,97.908,392.338,99.312z"/>
			</g>
		</g>
		<g>
			<rect x="161.002" y="92.91" style="fill:#78B432;stroke:#FFFFFF;stroke-width:1.374;" width="5.478" height="72.816"/>
			<path style="fill:#78B432;stroke:#FFFFFF;stroke-width:1.374;" d="M179.692,96.899h-31.912V88.92c0,0,7.569-3.492,15.547-3.492
				s16.364,3.492,16.364,3.492V96.899z"/>
			<rect x="153.515" y="148.463" style="fill:#78B432;stroke:#FFFFFF;stroke-width:0.916;" width="20.448" height="1.869"/>
		</g>
		
			<line style="fill:none;stroke:#78B432;stroke-width:3.427;stroke-linecap:round;" x1="27.142" y1="56.053" x2="134.633" y2="56.053"/>
		
			<line style="fill:none;stroke:#78B432;stroke-width:3.427;stroke-linecap:square;" x1="134.633" y1="56.053" x2="134.633" y2="80.097"/>
		
			<line style="fill:none;stroke:#78B432;stroke-width:3.427;stroke-linecap:square;" x1="134.633" y1="80.097" x2="124.328" y2="80.097"/>
		
			<line style="fill:none;stroke:#78B432;stroke-width:3.427;stroke-linecap:square;" x1="124.328" y1="80.097" x2="124.328" y2="164.822"/>
		
			<line style="fill:none;stroke:#78B432;stroke-width:3.427;stroke-linecap:round;" x1="124.328" y1="164.822" x2="512.859" y2="164.822"/>
		<g>
			<g>
				
					<line style="fill:none;stroke:#78B432;stroke-width:4.2837;stroke-linecap:round;stroke-linejoin:round;" x1="370.037" y1="85.414" x2="370.037" y2="124.011"/>
				
					<line style="fill:none;stroke:#78B432;stroke-width:4.2837;stroke-linecap:round;stroke-linejoin:round;" x1="370.037" y1="124.011" x2="408.631" y2="124.011"/>
				
					<line style="fill:none;stroke:#78B432;stroke-width:4.2837;stroke-linecap:round;stroke-linejoin:round;" x1="408.631" y1="124.011" x2="369.996" y2="162.65"/>
				
					<line style="fill:none;stroke:#78B432;stroke-width:4.2837;stroke-linecap:round;stroke-linejoin:round;" x1="369.996" y1="162.65" x2="392.25" y2="162.65"/>
			</g>
			<g>
				
					<line style="fill:none;stroke:#78B432;stroke-width:4.2837;stroke-linecap:round;stroke-linejoin:round;" x1="499.793" y1="85.414" x2="499.793" y2="124.011"/>
				
					<line style="fill:none;stroke:#78B432;stroke-width:4.2837;stroke-linecap:round;stroke-linejoin:round;" x1="499.793" y1="124.011" x2="461.201" y2="124.011"/>
				
					<line style="fill:none;stroke:#78B432;stroke-width:4.2837;stroke-linecap:round;stroke-linejoin:round;" x1="461.201" y1="124.011" x2="499.834" y2="162.65"/>
				
					<line style="fill:none;stroke:#78B432;stroke-width:4.2837;stroke-linecap:round;stroke-linejoin:round;" x1="499.834" y1="162.65" x2="477.58" y2="162.65"/>
			</g>
		</g>
	</g>
	<g>
		<g>
			<g>
				<path style="fill:#FFFFFF;stroke:#92938B;stroke-width:1.7135;stroke-linecap:round;stroke-linejoin:round;" d="M236.637,34.24
					c0,8.668-5.368,15.692-11.985,15.692c-6.615,0-11.982-7.024-11.982-15.692c0-8.664,5.367-15.688,11.982-15.688
					C231.269,18.551,236.637,25.576,236.637,34.24z"/>
				<path style="fill:none;stroke:#92938B;stroke-width:1.7135;stroke-linecap:round;stroke-linejoin:round;" d="M225.013,71.225
					c0.178,11.067,0.161,22.92-0.93,28.344c-1.711,8.564-5.135,5.145-3.426,17.121c2.15,15.013,7.986,27.394,6.281,34.808
					c-9.347,40.498-9.702,41.655-0.57,40.513"/>
				<path style="fill:none;stroke:#92938B;stroke-width:1.7135;stroke-linecap:round;stroke-linejoin:round;" d="M224.652,50.499
					c-0.012,2.709,0.08,6.854,0.184,11.641"/>
				<path style="fill:#FFFFFF;stroke:#92938B;stroke-width:1.7135;stroke-linecap:round;stroke-linejoin:round;" d="M231.804,66.778
					c0,2.675-2.174,4.857-4.852,4.857c-2.676,0-4.846-2.182-4.846-4.857c0-2.682,2.17-4.848,4.846-4.848
					C229.63,61.93,231.804,64.096,231.804,66.778z"/>
			</g>
		</g>
		<g>
			<path style="fill:none;stroke:#92938B;stroke-width:1.7135;stroke-linecap:round;stroke-linejoin:round;" d="M293.061,107.332
				c0,1.513,1.234,2.736,2.74,2.736c1.504,0,2.734-1.224,2.734-2.736c0-1.511-1.23-2.729-2.734-2.729
				C294.295,104.603,293.061,105.821,293.061,107.332z"/>
			<path style="fill:#FFFFFF;stroke:#92938B;stroke-width:2.5702;stroke-linecap:round;stroke-linejoin:round;" d="M283.061,24.551
				c0,8.47,5.24,15.334,11.709,15.334c6.459,0,11.707-6.864,11.707-15.334c0-8.468-5.248-15.332-11.707-15.332
				C288.301,9.219,283.061,16.083,283.061,24.551z"/>
			<path style="fill:none;stroke:#92938B;stroke-width:2.5702;stroke-linecap:round;stroke-linejoin:round;" d="M294.477,40.495
				c0.051,10.704-1.445,42.35,0.607,52.625c1.838,9.175,2.654,6.396,0.814,19.241c-2.295,16.095,2.873,31.797,3.432,39.944
				c2.846,42.222,3.104,41.162-6.695,39.939"/>
		</g>
	</g>
	<path style="fill:none;stroke:#92938B;stroke-width:1.7135;stroke-linecap:round;stroke-linejoin:round;" d="M294.375,48.479
		c-3.123-3.124-10.621-1.054-19.842,3.82c-7.782,4.114-19.502,14.922-9.215,16.347c6.215,0.862,12.946-1.028,16.719-4.988
		c-3.787,1.066-8.805,1.859-11.973,4.257c4.561-2.873,11.579-1.556,16.153-4.211c-2.396,1.103-4.881,2.469-7.248,3.792
		c2.889-1.565,5.467-2.733,8.719-2.81c-1.033,2.764-3.451,4.362-6.025,5.778"/>
</g>
</svg>
