<?xml version="1.0" encoding="iso-8859-1"?>
<!-- Generator: Adobe Illustrator 13.0.0, SVG Export Plug-In . SVG Version: 6.00 Build 14948)  -->
<!DOCTYPE svg PUBLIC "-//W3C//DTD SVG 1.1//EN" "http://www.w3.org/Graphics/SVG/1.1/DTD/svg11.dtd">
<svg version="1.1" xmlns="http://www.w3.org/2000/svg" xmlns:xlink="http://www.w3.org/1999/xlink" x="0px" y="0px" width="378px"
	 height="140px" viewBox="0 0 378 140" style="enable-background:new 0 0 378 140;" xml:space="preserve">
<g id="fond">
	<rect style="fill:#FFFFFF;" width="378" height="140"/>
</g>
<g id="Layer_6">
	<path style="fill:none;stroke:#33CCFF;stroke-width:1.2704;stroke-linecap:round;stroke-linejoin:round;" d="M363.514,51.446
		c-0.364,0.049-0.588,0.054-0.588,0.054h-1.121c-5.768,0-5.379-6.378-5.379-6.378c-0.168,6.25-6.496,6.378-6.496,6.378h-0.758
		c-5.768,0-5.379-6.378-5.379-6.378c-0.17,6.25-6.498,6.378-6.498,6.378h-1.121c-5.766,0-5.377-6.378-5.377-6.378
		c-0.172,6.25-6.498,6.378-6.498,6.378h0.576c-5.766,0-5.379-6.378-5.379-6.378C319.328,51.372,313,51.5,313,51.5h-1.119
		c-5.768,0-5.379-6.378-5.379-6.378c-0.174,6.25-6.5,6.378-6.5,6.378h-1.229c-5.77,0-5.379-6.378-5.379-6.378
		c-0.174,6.25-6.5,6.378-6.5,6.378h-1.119c-5.77,0-5.379-6.378-5.379-6.378c-0.174,6.25-6.498,6.378-6.498,6.378h0.578
		c-5.768,0-5.377-6.378-5.377-6.378c-0.174,6.25-6.5,6.378-6.5,6.378h-1.121c-5.768,0-5.381-6.378-5.381-6.378
		c-0.168,6.25-6.494,6.378-6.494,6.378h-0.758c-5.766,0-5.377-6.378-5.377-6.378c-0.172,6.25-6.498,6.378-6.498,6.378h-1.125
		c-5.766,0-5.377-6.378-5.377-6.378c-0.17,6.25-6.496,6.378-6.496,6.378h0.576c-5.766,0-5.379-6.378-5.379-6.378
		c-0.17,6.25-6.494,6.378-6.494,6.378h-1.123c-5.768,0-5.379-6.378-5.379-6.378c-0.172,6.25-6.498,6.378-6.498,6.378h-1.705
		c-5.766,0-5.377-6.378-5.377-6.378c-0.174,6.25-6.5,6.378-6.5,6.378h-1.12c-5.769,0-5.378-6.378-5.378-6.378
		c-0.174,6.25-6.5,6.378-6.5,6.378h0.579c-5.766,0-5.379-6.378-5.379-6.378c-0.172,6.25-6.498,6.378-6.498,6.378h-1.121
		c-5.766,0-5.378-6.378-5.378-6.378c-0.171,6.25-6.499,6.378-6.499,6.378h-0.755c-5.768,0-5.378-6.378-5.378-6.378
		c-0.173,6.25-6.5,6.378-6.5,6.378h-1.121c-5.767,0-5.378-6.378-5.378-6.378c-0.172,6.25-6.499,6.378-6.499,6.378h0.579
		c-5.767,0-5.379-6.378-5.379-6.378c-0.171,6.25-6.498,6.378-6.498,6.378h-1.121c-5.767,0-5.379-6.378-5.379-6.378
		c-0.171,6.25-6.498,6.378-6.498,6.378h-1.23c-5.767,0-5.378-6.378-5.378-6.378c-0.171,6.25-6.499,6.378-6.499,6.378h-1.121
		c-5.767,0-5.378-6.378-5.378-6.378c-0.172,6.25-6.5,6.378-6.5,6.378h0.579c-5.767,0-5.378-6.378-5.378-6.378
		c-0.171,6.25-6.498,6.378-6.498,6.378H60.35c-5.767,0-5.379-6.378-5.379-6.378c-0.171,6.25-6.498,6.378-6.498,6.378h-0.755
		c-5.768,0-5.379-6.378-5.379-6.378c-0.171,6.25-6.499,6.378-6.499,6.378H34.72c-5.767,0-5.378-6.378-5.378-6.378
		c-0.172,6.25-6.5,6.378-6.5,6.378h0.58c-5.768,0-5.379-6.378-5.379-6.378c-0.171,6.25-6.498,6.378-6.498,6.378"/>
</g>
<g id="homme">
	<g>
		<path style="fill:#FFFFFF;stroke:#787768;stroke-width:1.799;stroke-linecap:round;stroke-linejoin:round;" d="M214.324,63.038
			c-5.108,3.012-11.111,2.292-13.409-1.61c-2.297-3.895-0.021-9.499,5.087-12.51c5.105-3.01,11.11-2.286,13.406,1.609
			C221.707,54.43,219.43,60.029,214.324,63.038z"/>
		<path style="fill:none;stroke:#777768;stroke-width:1.799;stroke-linecap:round;stroke-linejoin:round;" d="M200.652,61.822
			c-2.437,1.42-6.583,4.023-11.173,6.851"/>
	</g>
</g>
<g id="Layer_4">
	<path style="fill:none;stroke:#777768;stroke-width:1.199;stroke-linecap:round;stroke-linejoin:round;" d="M197.625,64.312
		c4.062,0.688,10.531,10.194,12.438,10.312c2.666,0.166,13-8.5,15.79-9.224"/>
	<path style="fill:#FFFFFF;stroke:#787869;stroke-linecap:round;stroke-linejoin:round;" d="M225.929,65.217
		c1.447-1.836,4.592-2.725,7.391-3.177c-1.838,1.028-2.271,1.679-2.963,1.801c0.482-0.051,3.752-0.436,4.205-0.419
		c-0.355,0.354-3.408,1.524-4.002,1.563c0.615-0.009,3.309-0.326,3.869-0.076c-0.541,0.294-6.035,0.659-1.201,2.701
		c-3.314,0.018-6.717-1.742-7.291-2.297L225.929,65.217z"/>
</g>
<g id="eau_mer">
	<path style="fill:#FFFFFF;" d="M372.783,90.146c-0.121,1.441-9.517-24.875-10.146-24.054c-1.889,2.466-5.258,2.534-5.258,2.534
		h-1.121c-5.768,0-5.379-6.378-5.379-6.378c-0.168,6.25-6.496,6.378-6.496,6.378h-0.758c-5.768,0-5.379-6.378-5.379-6.378
		c-0.17,6.25-6.498,6.378-6.498,6.378h-1.121c-5.766,0-5.377-6.378-5.377-6.378c-0.172,6.25-6.498,6.378-6.498,6.378h0.576
		c-5.766,0-5.379-6.378-5.379-6.378c-0.168,6.25-6.496,6.378-6.496,6.378h-1.119c-5.768,0-5.379-6.378-5.379-6.378
		c-0.174,6.25-6.5,6.378-6.5,6.378h-1.229c-5.77,0-5.379-6.378-5.379-6.378c-0.174,6.25-6.5,6.378-6.5,6.378h-1.119
		c-5.77,0-5.379-6.378-5.379-6.378c-0.174,6.25-6.498,6.378-6.498,6.378h0.578c-5.768,0-5.377-6.378-5.377-6.378
		c-0.174,6.25-6.5,6.378-6.5,6.378h-1.121c-5.768,0-5.381-6.378-5.381-6.378c-0.168,6.25-6.494,6.378-6.494,6.378h-0.758
		c-5.766,0-5.377-6.378-5.377-6.378c-0.172,6.25-6.498,6.378-6.498,6.378h-1.125c-5.766,0-5.377-6.378-5.377-6.378
		c-0.17,6.25-6.496,6.378-6.496,6.378h0.576c-5.766,0-5.379-6.378-5.379-6.378c-0.17,6.25-6.494,6.378-6.494,6.378h-1.123
		c-5.768,0-5.379-6.378-5.379-6.378c-0.172,6.25-6.498,6.378-6.498,6.378h-1.705c-5.766,0-5.377-6.378-5.377-6.378
		c-0.174,6.25-6.5,6.378-6.5,6.378h-1.12c-5.769,0-5.378-6.378-5.378-6.378c-0.174,6.25-6.5,6.378-6.5,6.378h0.579
		c-5.766,0-5.379-6.378-5.379-6.378c-0.172,6.25-6.498,6.378-6.498,6.378h-1.121c-5.766,0-5.378-6.378-5.378-6.378
		c-0.171,6.25-6.499,6.378-6.499,6.378h-0.755c-5.768,0-5.378-6.378-5.378-6.378c-0.173,6.25-6.5,6.378-6.5,6.378H129.5
		c-5.767,0-5.378-6.378-5.378-6.378c-0.172,6.25-6.499,6.378-6.499,6.378h0.579c-5.767,0-5.379-6.378-5.379-6.378
		c-0.171,6.25-6.498,6.378-6.498,6.378h-1.121c-5.767,0-5.379-6.378-5.379-6.378c-0.171,6.25-6.498,6.378-6.498,6.378h-1.23
		c-5.767,0-5.378-6.378-5.378-6.378c-0.171,6.25-6.499,6.378-6.499,6.378h-1.121c-5.767,0-5.378-6.378-5.378-6.378
		c-0.172,6.25-6.5,6.378-6.5,6.378h0.579c-5.767,0-5.378-6.378-5.378-6.378c-0.171,6.25-6.498,6.378-6.498,6.378h-1.121
		c-5.767,0-5.379-6.378-5.379-6.378c-0.171,6.25-6.498,6.378-6.498,6.378h-0.755c-5.768,0-5.379-6.378-5.379-6.378
		c-0.171,6.25-6.499,6.378-6.499,6.378h-1.121c-5.767,0-5.378-6.378-5.378-6.378c-0.172,6.25-6.5,6.378-6.5,6.378h0.58
		c-5.768,0-5.379-6.378-5.379-6.378c-0.039,1.425-1.581,22.571-2.112,23.431"/>
	
		<line id="horizon_mer" style="display:none;fill:none;stroke:#33CCFF;stroke-width:0.5;stroke-linecap:round;stroke-linejoin:round;" x1="46.834" y1="48.541" x2="312.833" y2="48.541"/>
	<path style="fill:#FFFFFF;stroke:#33CCFF;stroke-width:1.2704;stroke-linecap:round;stroke-linejoin:round;" d="M363.379,85.627
		h-1.121c-5.768,0-5.379-6.378-5.379-6.378c-0.168,6.25-6.496,6.378-6.496,6.378h-0.758c-5.768,0-5.379-6.378-5.379-6.378
		c-0.17,6.25-6.498,6.378-6.498,6.378h-1.121c-5.766,0-5.377-6.378-5.377-6.378c-0.172,6.25-6.498,6.378-6.498,6.378h0.576
		c-5.766,0-5.379-6.378-5.379-6.378c-0.168,6.25-6.496,6.378-6.496,6.378h-1.119c-5.768,0-5.379-6.378-5.379-6.378
		c-0.174,6.25-6.5,6.378-6.5,6.378h-1.229c-5.77,0-5.379-6.378-5.379-6.378c-0.174,6.25-6.5,6.378-6.5,6.378h-1.119
		c-5.77,0-5.379-6.378-5.379-6.378c-0.174,6.25-6.498,6.378-6.498,6.378h0.578c-5.768,0-5.377-6.378-5.377-6.378
		c-0.174,6.25-6.5,6.378-6.5,6.378h-1.121c-5.768,0-5.381-6.378-5.381-6.378c-0.168,6.25-6.494,6.378-6.494,6.378h-0.758
		c-5.766,0-5.377-6.378-5.377-6.378c-0.172,6.25-6.498,6.378-6.498,6.378h-1.125c-5.766,0-5.377-6.378-5.377-6.378
		c-0.17,6.25-6.496,6.378-6.496,6.378h0.576c-5.766,0-5.379-6.378-5.379-6.378c-0.17,6.25-6.494,6.378-6.494,6.378h-1.123
		c-5.768,0-5.379-6.378-5.379-6.378c-0.172,6.25-6.498,6.378-6.498,6.378h-1.705c-5.766,0-5.377-6.378-5.377-6.378
		c-0.174,6.25-6.5,6.378-6.5,6.378h-1.12c-5.769,0-5.378-6.378-5.378-6.378c-0.174,6.25-6.5,6.378-6.5,6.378h0.579
		c-5.766,0-5.379-6.378-5.379-6.378c-0.172,6.25-6.498,6.378-6.498,6.378h-1.121c-5.766,0-5.378-6.378-5.378-6.378
		c-0.171,6.25-6.499,6.378-6.499,6.378h-0.755c-5.768,0-5.378-6.378-5.378-6.378c-0.173,6.25-6.5,6.378-6.5,6.378H135.5
		c-5.767,0-5.378-6.378-5.378-6.378c-0.172,6.25-6.499,6.378-6.499,6.378h0.579c-5.767,0-5.379-6.378-5.379-6.378
		c-0.171,6.25-6.498,6.378-6.498,6.378h-1.121c-5.767,0-5.379-6.378-5.379-6.378c-0.171,6.25-6.498,6.378-6.498,6.378h-1.23
		c-5.767,0-5.378-6.378-5.378-6.378c-0.171,6.25-6.499,6.378-6.499,6.378h-1.121c-5.767,0-5.378-6.378-5.378-6.378
		c-0.172,6.25-6.5,6.378-6.5,6.378h0.579c-5.767,0-5.378-6.378-5.378-6.378c-0.171,6.25-6.498,6.378-6.498,6.378h-1.121
		c-5.767,0-5.379-6.378-5.379-6.378c-0.171,6.25-6.498,6.378-6.498,6.378h-0.755c-5.768,0-5.379-6.378-5.379-6.378
		c-0.171,6.25-6.499,6.378-6.499,6.378h-1.121c-5.767,0-5.378-6.378-5.378-6.378c-0.172,6.25-6.5,6.378-6.5,6.378h0.58
		c-5.768,0-5.379-6.378-5.379-6.378c-0.171,6.25-6.498,6.378-6.498,6.378"/>
	<path style="fill:#FFFFFF;stroke:#33CCFF;stroke-width:1.2704;stroke-linecap:round;stroke-linejoin:round;" d="M362.918,102.364
		h0.582c-7,1.2-7-6.966-7-6.966c-0.174,6.25-7.119,6.729-7.119,6.729h-1.121c-5.768,0-5.379-6.378-5.379-6.378
		c-0.168,6.25-6.496,6.378-6.496,6.378h-0.758c-5.768,0-5.379-6.378-5.379-6.378c-0.17,6.25-6.498,6.378-6.498,6.378h-1.121
		c-5.766,0-5.377-6.378-5.377-6.378c-0.172,6.25-6.498,6.378-6.498,6.378h0.576c-5.766,0-5.379-6.378-5.379-6.378
		c-0.168,6.25-6.496,6.378-6.496,6.378h-1.119c-5.768,0-5.379-6.378-5.379-6.378c-0.174,6.25-6.5,6.378-6.5,6.378h-1.229
		c-5.77,0-5.379-6.378-5.379-6.378c-0.174,6.25-6.5,6.378-6.5,6.378h-1.119c-5.77,0-5.379-6.378-5.379-6.378
		c-0.174,6.25-6.498,6.378-6.498,6.378h0.578c-5.768,0-5.377-6.378-5.377-6.378c-0.174,6.25-6.5,6.378-6.5,6.378h-1.121
		c-5.768,0-5.381-6.378-5.381-6.378c-0.168,6.25-6.494,6.378-6.494,6.378h-0.758c-5.766,0-5.377-6.378-5.377-6.378
		c-0.172,6.25-6.498,6.378-6.498,6.378h-1.125c-5.766,0-5.377-6.378-5.377-6.378c-0.17,6.25-6.496,6.378-6.496,6.378h0.576
		c-5.766,0-5.379-6.378-5.379-6.378c-0.17,6.25-6.494,6.378-6.494,6.378h-1.123c-5.768,0-5.379-6.378-5.379-6.378
		c-0.172,6.25-6.498,6.378-6.498,6.378h-1.705c-5.766,0-5.377-6.378-5.377-6.378c-0.174,6.25-6.5,6.378-6.5,6.378h-1.12
		c-5.769,0-5.378-6.378-5.378-6.378c-0.174,6.25-6.5,6.378-6.5,6.378h0.579c-5.766,0-5.379-6.378-5.379-6.378
		c-0.172,6.25-6.498,6.378-6.498,6.378h-1.121c-5.766,0-5.378-6.378-5.378-6.378c-0.171,6.25-6.499,6.378-6.499,6.378H134.5
		c-5.768,0-5.378-6.378-5.378-6.378c-0.173,6.25-6.5,6.378-6.5,6.378h-1.121c-5.767,0-5.378-6.378-5.378-6.378
		c-0.172,6.25-6.499,6.378-6.499,6.378h0.579c-5.767,0-5.379-6.378-5.379-6.378c-0.171,6.25-6.498,6.378-6.498,6.378h-1.121
		c-5.767,0-5.379-6.378-5.379-6.378c-0.171,6.25-6.498,6.378-6.498,6.378h-1.23c-5.767,0-5.378-6.378-5.378-6.378
		c-0.171,6.25-6.499,6.378-6.499,6.378h-1.121c-5.767,0-5.378-6.378-5.378-6.378c-0.172,6.25-6.5,6.378-6.5,6.378h0.579
		c-5.767,0-5.378-6.378-5.378-6.378c-0.171,6.25-6.498,6.378-6.498,6.378h-1.121c-5.767,0-5.379-6.378-5.379-6.378
		c-0.171,6.25-6.498,6.378-6.498,6.378h-0.755c-5.768,0-5.379-6.378-5.379-6.378c-0.171,6.25-6.499,6.378-6.499,6.378h-1.121
		c-5.767,0-5.378-6.378-5.378-6.378c-0.099,3.604-2.245,5.173-4.044,5.854"/>
	<path style="fill:none;stroke:#33CCFF;stroke-width:1.2704;stroke-linecap:round;stroke-linejoin:round;" d="M363.853,62.742
		c-0.483,5.765-6.474,5.885-6.474,5.885h-1.121c-5.768,0-5.379-6.378-5.379-6.378c-0.168,6.25-6.496,6.378-6.496,6.378h-0.758
		c-5.768,0-5.379-6.378-5.379-6.378c-0.17,6.25-6.498,6.378-6.498,6.378h-1.121c-5.766,0-5.377-6.378-5.377-6.378
		c-0.172,6.25-6.498,6.378-6.498,6.378h0.576c-5.766,0-5.379-6.378-5.379-6.378c-0.168,6.25-6.496,6.378-6.496,6.378h-1.119
		c-5.768,0-5.379-6.378-5.379-6.378c-0.174,6.25-6.5,6.378-6.5,6.378h-1.229c-5.77,0-5.379-6.378-5.379-6.378
		c-0.174,6.25-6.5,6.378-6.5,6.378h-1.119c-5.77,0-5.379-6.378-5.379-6.378c-0.174,6.25-6.498,6.378-6.498,6.378h0.578
		c-5.768,0-5.377-6.378-5.377-6.378c-0.174,6.25-6.5,6.378-6.5,6.378h-1.121c-5.768,0-5.381-6.378-5.381-6.378
		c-0.168,6.25-6.494,6.378-6.494,6.378h-0.758c-5.766,0-5.377-6.378-5.377-6.378c-0.172,6.25-6.498,6.378-6.498,6.378h-1.125
		c-5.766,0-5.377-6.378-5.377-6.378c-0.17,6.25-6.496,6.378-6.496,6.378h0.576c-5.766,0-5.379-6.378-5.379-6.378
		c-0.17,6.25-6.494,6.378-6.494,6.378h-1.123c-5.768,0-5.379-6.378-5.379-6.378c-0.172,6.25-6.498,6.378-6.498,6.378h-1.705
		c-5.766,0-5.377-6.378-5.377-6.378c-0.174,6.25-6.5,6.378-6.5,6.378h-1.12c-5.769,0-5.378-6.378-5.378-6.378
		c-0.174,6.25-6.5,6.378-6.5,6.378h0.579c-5.766,0-5.379-6.378-5.379-6.378c-0.172,6.25-6.498,6.378-6.498,6.378h-1.121
		c-5.766,0-5.378-6.378-5.378-6.378c-0.171,6.25-6.499,6.378-6.499,6.378h-0.755c-5.768,0-5.378-6.378-5.378-6.378
		c-0.173,6.25-6.5,6.378-6.5,6.378H129.5c-5.767,0-5.378-6.378-5.378-6.378c-0.172,6.25-6.499,6.378-6.499,6.378h0.579
		c-5.767,0-5.379-6.378-5.379-6.378c-0.171,6.25-6.498,6.378-6.498,6.378h-1.121c-5.767,0-5.379-6.378-5.379-6.378
		c-0.171,6.25-6.498,6.378-6.498,6.378h-1.23c-5.767,0-5.378-6.378-5.378-6.378c-0.171,6.25-6.499,6.378-6.499,6.378h-1.121
		c-5.767,0-5.378-6.378-5.378-6.378c-0.172,6.25-6.5,6.378-6.5,6.378h0.579c-5.767,0-5.378-6.378-5.378-6.378
		c-0.171,6.25-6.498,6.378-6.498,6.378h-1.121c-5.767,0-5.379-6.378-5.379-6.378c-0.171,6.25-6.498,6.378-6.498,6.378h-0.755
		c-5.768,0-5.379-6.378-5.379-6.378c-0.171,6.25-6.499,6.378-6.499,6.378h-1.121c-5.767,0-5.378-6.378-5.378-6.378
		c-0.172,6.25-6.5,6.378-6.5,6.378h0.58c-5.768,0-5.379-6.378-5.379-6.378c-0.039,1.425-0.398,2.532-0.929,3.392"/>
</g>
<g id="Layer_5">
	<path style="fill:none;stroke:#777768;stroke-width:1.199;stroke-linecap:round;stroke-linejoin:round;" d="M197.104,64.459
		c0,0-10.375-8.668-13.042-8.834s-12.5,6.375-15.625,7.584"/>
	<path style="fill:#FFFFFF;stroke:#787869;stroke-linecap:round;stroke-linejoin:round;" d="M168.36,63.394
		c-1.446,1.836-4.591,2.725-7.391,3.177c1.838-1.028,2.273-1.679,2.963-1.801c-0.482,0.051-3.751,0.436-4.206,0.419
		c0.357-0.354,3.408-1.524,4.002-1.563c-0.614,0.009-3.307,0.326-3.868,0.076c0.54-0.294,6.035-0.659,1.201-2.701
		c3.314-0.018,6.717,1.742,7.292,2.297L168.36,63.394z"/>
</g>
</svg>
