<?xml version="1.0" encoding="iso-8859-1"?>
<!-- Generator: Adobe Illustrator 13.0.0, SVG Export Plug-In . SVG Version: 6.00 Build 14948)  -->
<!DOCTYPE svg PUBLIC "-//W3C//DTD SVG 1.1//EN" "http://www.w3.org/Graphics/SVG/1.1/DTD/svg11.dtd">
<svg version="1.1" xmlns="http://www.w3.org/2000/svg" xmlns:xlink="http://www.w3.org/1999/xlink" x="0px" y="0px" width="378px"
	 height="140px" viewBox="0 0 378 140" style="enable-background:new 0 0 378 140;" xml:space="preserve">
<g id="FOND">
	<g>
		<rect style="fill:none;" width="378" height="140"/>
		<rect style="fill:#FFFFFF;" width="378" height="140"/>
	</g>
</g>
<g id="H2O">
	<path style="fill:none;stroke:#5C68AE;stroke-width:2.4432;stroke-linecap:round;stroke-linejoin:round;" d="M158.179,54.48
		c4.654,4.951,16.303,57.809,18.25,60.393c2.017,2.688,13.924,3.109,22.578,3.109c7.409,0,16.61-0.705,18.838-3.085
		c1.783-1.896,9.615-57.317,11.229-61.548c-6.782,1.637-21.143,3.418-31.716,3.55C184.173,57.072,167.896,56.005,158.179,54.48
		c-0.081-5.536,24.075-10.35,35.056-10.35c11.262,0,24.107,0.776,29.392,2.762c2.014,0.756,10.346,3.92,6.447,6.458"/>
</g>
</svg>
