<?xml version="1.0" encoding="iso-8859-1"?>
<!-- Generator: Adobe Illustrator 13.0.0, SVG Export Plug-In . SVG Version: 6.00 Build 14948)  -->
<!DOCTYPE svg PUBLIC "-//W3C//DTD SVG 1.1//EN" "http://www.w3.org/Graphics/SVG/1.1/DTD/svg11.dtd">
<svg version="1.1" xmlns="http://www.w3.org/2000/svg" xmlns:xlink="http://www.w3.org/1999/xlink" x="0px" y="0px" width="540px"
	 height="200px" viewBox="0 0 540 200" style="enable-background:new 0 0 540 200;" xml:space="preserve">
<g id="Layer_2">
	<g>
		<rect style="fill:#FFFFFF;" width="540" height="200"/>
	</g>
</g>
<g id="Layer_1">
	<g>
		<g>
			<g>
				<path style="fill:#D5312C;" d="M512.607,96.77h-6.562c-1.404,0-2.543,1.138-2.543,2.542c0,0,0-1.404,0,0
					s1.139,2.542,2.543,2.542h6.562"/>
				<path style="fill:none;stroke:#FFFFFF;stroke-width:1.374;" d="M512.607,96.77h-6.562c-1.404,0-2.543,1.138-2.543,2.542
					c0,0,0-1.404,0,0s1.139,2.542,2.543,2.542h6.562"/>
			</g>
		</g>
		<g>
			<rect x="272.165" y="92.911" style="fill:#65B724;stroke:#FFFFFF;stroke-width:1.374;" width="5.478" height="72.816"/>
			<path style="fill:#65B724;stroke:#FFFFFF;stroke-width:1.374;" d="M290.855,96.9h-31.912v-7.98c0,0,7.568-3.492,15.548-3.492
				c7.979,0,16.364,3.492,16.364,3.492V96.9z"/>
			<rect x="264.677" y="148.462" style="fill:#65B724;stroke:#FFFFFF;stroke-width:0.916;" width="20.45" height="1.869"/>
		</g>
		
			<line style="fill:none;stroke:#65B724;stroke-width:3.427;stroke-linecap:round;" x1="26.713" y1="56.052" x2="245.795" y2="56.052"/>
		
			<line style="fill:none;stroke:#65B724;stroke-width:3.427;stroke-linecap:square;" x1="245.795" y1="56.052" x2="245.795" y2="80.096"/>
		
			<line style="fill:none;stroke:#65B724;stroke-width:3.427;stroke-linecap:square;" x1="245.795" y1="80.096" x2="235.49" y2="80.096"/>
		
			<line style="fill:none;stroke:#65B724;stroke-width:3.427;stroke-linecap:square;" x1="235.49" y1="80.096" x2="235.49" y2="164.821"/>
		<line style="fill:none;stroke:#65B724;stroke-width:3.427;" x1="235.49" y1="164.821" x2="512.607" y2="164.82"/>
		<g>
			<g>
				
					<line style="fill:none;stroke:#65B724;stroke-width:4.2837;stroke-linecap:round;stroke-linejoin:round;" x1="481.202" y1="85.413" x2="481.202" y2="124.01"/>
				
					<line style="fill:none;stroke:#65B724;stroke-width:4.2837;stroke-linejoin:round;" x1="481.202" y1="124.01" x2="512.605" y2="124.01"/>
				<path style="fill:none;stroke:#65B724;stroke-width:4.2837;stroke-linejoin:round;" d="M512.607,131.198
					c-0.763,0-31.446,31.45-31.446,31.45"/>
				
					<line style="fill:none;stroke:#65B724;stroke-width:4.2837;stroke-linecap:round;stroke-linejoin:round;" x1="481.161" y1="162.648" x2="503.412" y2="162.648"/>
			</g>
		</g>
	</g>
	<g>
		<g>
			<path style="fill:none;stroke:#777768;stroke-width:1.7135;" d="M170.168,16.257c0,6.909,4.277,12.512,9.556,12.512
				c5.27,0,9.551-5.603,9.551-12.512c0-6.91-4.281-12.51-9.551-12.51C174.445,3.747,170.168,9.347,170.168,16.257z"/>
			<path style="fill:none;stroke:#777768;stroke-width:1.7135;" d="M179.482,29.269c0.016,2.962,0.136,13.655,0.296,26.751"/>
			<path style="fill:#777768;stroke:#777768;stroke-width:1.7135;stroke-linecap:round;stroke-linejoin:round;" d="M179.866,32.724
				c1.175-0.458,2.408-1.536,3.619-1.583c-0.087,1.939-0.658,3.959-0.73,5.936c-1.5-0.581-2.031-2.853-3.237-3.8
				c-0.503-0.396-0.953-0.884-1.549-1.245c-0.673-0.411-1.237-0.977-2-1.19c-0.059,0.782,0.141,1.732-0.052,2.495
				c-0.199,0.777-1.511,1.877-1.143,2.733c0.478,1.125,4.241-2.191,4.744-3.055"/>
			<path style="fill:none;stroke:#777768;stroke-width:1.7135;stroke-linecap:round;stroke-linejoin:round;" d="M171.157,56.022
				c0.409-1.525,0.815-2.904,1.146-3.646c1.657-3.71,4.394-11.958,7.262-14.704"/>
		</g>
	</g>
</g>
<g id="Layer_3">
	<g>
		<path style="fill:#FFFFFF;stroke:#777768;stroke-width:1.7135;stroke-linecap:round;stroke-linejoin:round;" d="M267.539,96.915
			c0,1.368,1.105,2.48,2.478,2.48c1.358,0,2.478-1.112,2.478-2.48c0-1.367-1.119-2.478-2.478-2.478
			C268.644,94.438,267.539,95.548,267.539,96.915z"/>
		<path style="fill:none;stroke:#777768;stroke-width:1.7135;stroke-linecap:round;stroke-linejoin:round;" d="M258.465,21.894
			c0,7.675,4.76,13.896,10.61,13.896c5.854,0,10.616-6.221,10.616-13.896C279.691,14.221,274.93,8,269.075,8
			C263.225,8,258.465,14.221,258.465,21.894z"/>
		<path style="fill:none;stroke:#777768;stroke-width:1.7135;stroke-linecap:round;stroke-linejoin:round;" d="M268.813,36.343
			c0.049,9.699-1.304,38.381,0.551,47.69c1.664,8.317,2.402,5.796,0.744,17.44c-2.083,14.583,2.599,28.815,3.1,36.192
			c2.583,38.269,2.816,37.312-6.059,36.197"/>
	</g>
	<g>
		<g>
			<path style="fill:none;stroke:#777768;stroke-width:2.5702;stroke-linecap:round;stroke-linejoin:round;" d="M213.066,30.635
				c0,7.857-4.858,14.221-10.858,14.221c-5.994,0-10.86-6.363-10.86-14.221c0-7.851,4.867-14.216,10.86-14.216
				C208.208,16.418,213.066,22.784,213.066,30.635z"/>
			<path style="fill:none;stroke:#777768;stroke-width:2.5702;stroke-linecap:round;stroke-linejoin:round;" d="M202.534,64.155
				c0.162,10.027,0.142,20.767-0.849,25.69c-1.544,7.756-4.651,4.655-3.098,15.512c1.942,13.605,7.24,24.82,5.687,31.542
				c-8.465,36.698-8.789,37.75-0.521,36.716"/>
			<path style="fill:none;stroke:#777768;stroke-width:2.5702;stroke-linecap:round;stroke-linejoin:round;" d="M202.208,45.376
				c-0.014,2.5,0.072,6.35,0.169,10.797"/>
			<path style="fill:#FFFFFF;stroke:#777768;stroke-width:1.7135;stroke-linecap:round;stroke-linejoin:round;" d="M208.688,60.127
				c0,2.425-1.96,4.394-4.39,4.394c-2.43,0-4.403-1.969-4.403-4.394c0-2.429,1.973-4.397,4.403-4.397
				C206.727,55.73,208.688,57.698,208.688,60.127z"/>
		</g>
		<path style="fill:none;stroke:#777768;stroke-width:1.7135;stroke-linecap:round;stroke-linejoin:round;" d="M201.885,53.895
			c-0.897,3.339-1.564,3.653-0.342,6.932c0.882,2.367,2.463,14.904,5.703,18.145c3.276,1.323,11.792-4.692,15.38-7.777"/>
		<path style="fill:none;stroke:#777768;stroke-width:1.7135;stroke-linecap:round;stroke-linejoin:round;" d="M222.54,70.936
			c0.918-1.341,0.788-4.263,0.864-5.875c0.045-0.958-0.229-4.323-0.026-5.469c0.189,1.579,0.606,4.66,0.372,6.247
			c-0.243,1.645,0.238,4.42-1.382,5.444"/>
	</g>
</g>
</svg>
