<?xml version="1.0" encoding="iso-8859-1"?>
<!-- Generator: Adobe Illustrator 13.0.0, SVG Export Plug-In . SVG Version: 6.00 Build 14948)  -->
<!DOCTYPE svg PUBLIC "-//W3C//DTD SVG 1.1//EN" "http://www.w3.org/Graphics/SVG/1.1/DTD/svg11.dtd">
<svg version="1.1" xmlns="http://www.w3.org/2000/svg" xmlns:xlink="http://www.w3.org/1999/xlink" x="0px" y="0px" width="378px"
	 height="140px" viewBox="0 0 378 140" style="enable-background:new 0 0 378 140;" xml:space="preserve">
<g id="Layer_2">
	<g>
		<rect style="fill:#FFFFFF;" width="378" height="140"/>
	</g>
</g>
<g id="Layer_1">
	<g>
		<g>
			
				<rect x="299.344" y="70.506" style="fill:#CE4E43;stroke:#FFFFFF;stroke-width:0.6412;stroke-linecap:square;" width="3.136" height="45.07"/>
			<g>
				<path style="fill:#CE4E43;" d="M274.338,69.519c0,0.983,0.797,1.78,1.779,1.78h49.581c0.983,0,1.78-0.797,1.78-1.78
					s-0.797-1.779-1.78-1.779h-49.581C275.135,67.739,274.338,68.536,274.338,69.519C274.338,69.519,274.338,68.536,274.338,69.519z
					"/>
				<path style="fill:none;stroke:#FFFFFF;stroke-width:0.9618;" d="M274.338,69.519c0,0.983,0.797,1.78,1.779,1.78h49.581
					c0.983,0,1.78-0.797,1.78-1.78s-0.797-1.779-1.78-1.779h-49.581C275.135,67.739,274.338,68.536,274.338,69.519
					C274.338,69.519,274.338,68.536,274.338,69.519z"/>
			</g>
		</g>
		<g>
			<rect x="112.402" y="65.037" style="fill:#78B432;stroke:#FFFFFF;stroke-width:0.9618;" width="3.834" height="50.972"/>
			<path style="fill:#78B432;stroke:#FFFFFF;stroke-width:0.9618;" d="M125.485,67.83h-22.338v-5.586c0,0,5.298-2.444,10.883-2.444
				s11.455,2.444,11.455,2.444V67.83z"/>
			<rect x="107.161" y="103.924" style="fill:#78B432;stroke:#FFFFFF;stroke-width:0.6412;" width="14.314" height="1.309"/>
		</g>
		
			<line style="fill:none;stroke:#78B432;stroke-width:2.3989;stroke-linecap:round;" x1="18.7" y1="39.237" x2="93.943" y2="39.237"/>
		
			<line style="fill:none;stroke:#78B432;stroke-width:2.3989;stroke-linecap:square;" x1="93.943" y1="39.237" x2="93.943" y2="56.067"/>
		
			<line style="fill:none;stroke:#78B432;stroke-width:2.3989;stroke-linecap:square;" x1="93.943" y1="56.067" x2="86.73" y2="56.067"/>
		
			<line style="fill:none;stroke:#78B432;stroke-width:2.3989;stroke-linecap:square;" x1="86.73" y1="56.067" x2="86.73" y2="115.376"/>
		
			<line style="fill:none;stroke:#78B432;stroke-width:2.3989;stroke-linecap:round;" x1="86.73" y1="115.376" x2="358.701" y2="115.376"/>
		<g>
			<g>
				
					<line style="fill:none;stroke:#78B432;stroke-width:2.9986;stroke-linecap:round;stroke-linejoin:round;" x1="258.726" y1="59.79" x2="258.726" y2="86.807"/>
				
					<line style="fill:none;stroke:#78B432;stroke-width:2.9986;stroke-linecap:round;stroke-linejoin:round;" x1="258.726" y1="86.807" x2="285.742" y2="86.807"/>
				
					<line style="fill:none;stroke:#78B432;stroke-width:2.9986;stroke-linecap:round;stroke-linejoin:round;" x1="285.742" y1="86.807" x2="258.697" y2="113.855"/>
				
					<line style="fill:none;stroke:#78B432;stroke-width:2.9986;stroke-linecap:round;stroke-linejoin:round;" x1="258.697" y1="113.855" x2="274.274" y2="113.855"/>
			</g>
			<g>
				
					<line style="fill:none;stroke:#78B432;stroke-width:2.9986;stroke-linecap:round;stroke-linejoin:round;" x1="349.556" y1="59.79" x2="349.556" y2="86.807"/>
				
					<line style="fill:none;stroke:#78B432;stroke-width:2.9986;stroke-linecap:round;stroke-linejoin:round;" x1="349.556" y1="86.807" x2="322.541" y2="86.807"/>
				
					<line style="fill:none;stroke:#78B432;stroke-width:2.9986;stroke-linecap:round;stroke-linejoin:round;" x1="322.541" y1="86.807" x2="349.583" y2="113.855"/>
				
					<line style="fill:none;stroke:#78B432;stroke-width:2.9986;stroke-linecap:round;stroke-linejoin:round;" x1="349.583" y1="113.855" x2="334.007" y2="113.855"/>
			</g>
		</g>
	</g>
	<g>
		<g>
			
				<ellipse style="fill:#FFFFFF;stroke:#92938B;stroke-width:1.7991;stroke-linecap:round;stroke-linejoin:round;" cx="157.294" cy="23.751" rx="8.425" ry="11.033"/>
			<path style="fill:none;stroke:#92938B;stroke-width:1.7991;stroke-linecap:round;stroke-linejoin:round;" d="M157.548,49.756
				c0.125,7.778,0.11,16.11-0.658,19.931c-1.198,6.016-3.609,3.611-2.404,12.034c1.507,10.557,5.617,19.258,4.411,24.471
				c-6.567,28.471-6.818,29.286-0.404,28.483"/>
			<path style="fill:none;stroke:#92938B;stroke-width:1.7991;stroke-linecap:round;stroke-linejoin:round;" d="M157.295,35.188
				c-0.01,1.939,0.057,4.926,0.131,8.376"/>
			<path style="fill:#FFFFFF;stroke:#92938B;stroke-width:1.1995;stroke-linecap:round;stroke-linejoin:round;" d="M162.323,46.63
				c0,1.882-1.522,3.409-3.407,3.409c-1.884,0-3.415-1.527-3.415-3.409c0-1.883,1.531-3.411,3.415-3.411
				C160.801,43.22,162.323,44.747,162.323,46.63z"/>
		</g>
		<g>
			<path style="fill:none;stroke:#92938B;stroke-width:1.1995;stroke-linecap:round;stroke-linejoin:round;" d="M205.178,75.171
				c0,1.062,0.859,1.925,1.923,1.925c1.054,0,1.922-0.862,1.922-1.925c0-1.062-0.868-1.923-1.922-1.923
				C206.037,73.248,205.178,74.109,205.178,75.171z"/>
			<path style="fill:#FFFFFF;stroke:#92938B;stroke-width:1.1995;stroke-linecap:round;stroke-linejoin:round;" d="M198.14,16.97
				c0,5.955,3.692,10.78,8.231,10.78c4.543,0,8.236-4.826,8.236-10.78c0-5.953-3.693-10.779-8.236-10.779
				C201.832,6.191,198.14,11.017,198.14,16.97z"/>
			<path style="fill:none;stroke:#92938B;stroke-width:1.1995;stroke-linecap:round;stroke-linejoin:round;" d="M206.166,28.179
				c0.04,7.525-1.01,29.776,0.43,36.999c1.291,6.451,1.863,4.496,0.577,13.53c-1.616,11.313,2.017,22.354,2.403,28.079
				c2.004,29.688,2.187,28.945-4.699,28.08"/>
		</g>
	</g>
	<path style="fill:none;stroke:#92938B;stroke-width:1.1995;stroke-linecap:round;stroke-linejoin:round;" d="M157.368,40.845
		c6.237,0,10.115,13.221,18.503,11.046c1.267-6.482,1.16-12.492-2.13-17.254c-1.423-2.062-3.871-8.115-5.13-6.456
		c1.259-1.66,3.657,2.184,4.293,4.246c-0.852-2.667-0.995-5.701-4.293-4.246c2.054-0.98,3.866,1.021,4.148,3.884
		c-1.545,0.283-2.725,2.139-3.957,1.208"/>
</g>
</svg>
