<?xml version="1.0" encoding="iso-8859-1"?>
<!-- Generator: Adobe Illustrator 13.0.0, SVG Export Plug-In . SVG Version: 6.00 Build 14948)  -->
<!DOCTYPE svg PUBLIC "-//W3C//DTD SVG 1.1//EN" "http://www.w3.org/Graphics/SVG/1.1/DTD/svg11.dtd">
<svg version="1.1" xmlns="http://www.w3.org/2000/svg" xmlns:xlink="http://www.w3.org/1999/xlink" x="0px" y="0px" width="540px"
	 height="200px" viewBox="0 0 540 200" style="enable-background:new 0 0 540 200;" xml:space="preserve">
<g id="Layer_2">
	<g>
		<rect style="fill:none;" width="540" height="200"/>
		<rect style="fill:#FFFFFF;" width="540" height="200"/>
	</g>
	<g>
	</g>
</g>
<g id="Layer_4">
	<g>
		<g>
			<path style="fill:#EAC076;stroke:#996633;stroke-width:1.4523;stroke-linecap:round;stroke-linejoin:round;" d="M299.1,53.528
				c-0.551,6.239-4.783,12.24-7.783,17.474c-3.232,5.634-6.225,11.316-12.322,14.008c-5.271,2.31-11.288,3.113-16.814,4.423
				c-4.371,1.027-7.584,0.091-11.71-1.859c-2.64-1.248-5.073-2.413-7.456-4.219c-9.579-7.311-17.047-15.211-23.339-25.208
				c-3.963-6.288-5.364-12.352-5.011-19.511c0.326-6.585,3.73-10.258,9.4-13.462c4.852-2.738,9.626-3.513,15.168-3.55
				c7.717-0.064,8.442,5.985,9.952,11.896c-0.264-1.809-2.235-6.334-1.545-7.932c1.134-2.627,5.683-1.952,8.151-2.278
				c6.9-0.912,13.096-0.497,19.845,1.931c5.312,1.908,12.766,5.212,17.094,9.137c3.889,3.536,6.244,9.49,6.625,14.797
				c0.473,6.682-1.533,13.507-5.846,18.116"/>
			<path style="fill:#EAC076;stroke:#996633;stroke-width:1.4523;stroke-linecap:round;stroke-linejoin:round;" d="M275.896,57.57
				c-2.328-2.436,1.029-8.244,0.055-10.678"/>
			<path style="fill:#996633;stroke:#996633;stroke-width:1.4523;stroke-linecap:round;stroke-linejoin:round;" d="M242.851,46.726
				c0.108-0.397,0.217-0.79,0.322-1.178"/>
			<path style="fill:#996633;stroke:#996633;stroke-width:1.4523;stroke-linecap:round;stroke-linejoin:round;" d="M255.535,51.809
				c-0.026,0.675,0.28,1.141,0.847,1.496"/>
			<path style="fill:#996633;stroke:#996633;stroke-width:1.4523;stroke-linecap:round;stroke-linejoin:round;" d="M246.826,83.796
				c0.981-0.118,1.734-0.604,2.033-1.374"/>
			<path style="fill:#996633;stroke:#996633;stroke-width:1.4523;stroke-linecap:round;stroke-linejoin:round;" d="M253.718,73.369
				c-0.183-0.638-0.163-1.397,0.109-1.816"/>
			<path style="fill:#996633;stroke:#996633;stroke-width:1.4523;stroke-linecap:round;stroke-linejoin:round;" d="M239.708,77.247
				c-0.404-0.415-0.707-0.947-0.854-1.492"/>
			<path style="fill:#996633;stroke:#996633;stroke-width:1.4523;stroke-linecap:round;stroke-linejoin:round;" d="M226.658,38.524
				c-0.104-0.324-0.209-0.644-0.314-0.966"/>
			<path style="fill:#996633;stroke:#996633;stroke-width:1.4523;stroke-linecap:round;stroke-linejoin:round;" d="M227.725,60.208
				c-0.073-0.217-0.144-0.429-0.213-0.642"/>
			<path style="fill:#996633;stroke:#996633;stroke-width:1.4523;stroke-linecap:round;stroke-linejoin:round;" d="M231.715,31.177
				c0.283,0.854,0.562,1.711,0.842,2.573"/>
			<path style="fill:#996633;stroke:#996633;stroke-width:1.4523;stroke-linecap:round;stroke-linejoin:round;" d="M293.094,56.915
				c-1.148,0.118-2.088-0.338-2.553-1.296"/>
		</g>
		<g>
			<path style="fill:#EAC076;stroke:#996633;stroke-width:1.4523;stroke-linecap:round;stroke-linejoin:round;" d="M380.746,98.846
				c0.568-2.781,2.928-4.035,4.697-6c2.111-2.352,3.936-4.96,5.348-7.803c2.779-5.622,1.406-10.798-0.225-16.614
				c-2.887-10.363-10.25-15.657-18.172-22.292c-2.934-2.464-5.674-5.622-9.393-7.004c-3.33-1.232-3.912-0.074-5.5,3.062
				c-0.625,1.23-1.184,2.244-1.152,3.736c0.322-1.267,2.996-5.737,2.611-7.516c-0.453-2.088-5.328-4.813-7.145-5.972
				c-2.967-1.894-6.475-2.183-9.697-3.464c-3.074-1.219-6.162-2.674-9.469-3.053c-8.086-0.914-16.326-0.138-23.301,4.215
				c-4.141,2.583-9.389,6.682-11.744,11.002c-5.303,9.676,0.674,24.848,6.85,32.724c1.25,1.597,3.043,3.66,5.043,4.495
				c2.27,0.941,4.443,0.654,6.496,2.043c3.994,2.707,7.045,6.854,10.934,9.725c7.258-9.3,16.939-13.92,28.393-8.747
				c4.828,2.185,8.449,5.178,13.178,7.922c3.717,2.171,8.088,7.656,12.498,8.223c-0.031-0.058-0.066-0.119-0.094-0.179"/>
			<path style="fill:none;stroke:#996633;stroke-width:1.4523;stroke-linecap:round;stroke-linejoin:round;" d="M369.41,79.302
				c-1.812,2.597-3.133,5.853-3.621,8.584"/>
			<path style="fill:none;stroke:#996633;stroke-width:1.4523;stroke-linecap:round;stroke-linejoin:round;" d="M316.725,41.071
				c-0.213,2.874-6.518,10.864-8.916,9.856"/>
			<path style="fill:#996633;stroke:#996633;stroke-width:1.4523;stroke-linecap:round;stroke-linejoin:round;" d="M329.668,71.559
				c0.199-0.769,0.043-1.407-0.598-1.583"/>
			<path style="fill:#996633;stroke:#996633;stroke-width:1.4523;stroke-linecap:round;stroke-linejoin:round;" d="M328.732,77.686
				c-0.217-0.437-0.586-0.726-0.992-0.71"/>
			<path style="fill:#996633;stroke:#996633;stroke-width:1.4523;stroke-linecap:round;stroke-linejoin:round;" d="M352.584,70.13
				c-0.193,0.875-0.688,1.24-1.451,0.908"/>
			<path style="fill:#996633;stroke:#996633;stroke-width:1.4523;stroke-linecap:round;stroke-linejoin:round;" d="M349.053,42.584
				c0.201-0.579,0.17-1.011-0.357-0.947"/>
			<path style="fill:#996633;stroke:#996633;stroke-width:1.4523;stroke-linecap:round;stroke-linejoin:round;" d="M370.004,61.75
				c-0.318,0.12-0.629,0.239-0.947,0.357"/>
			<path style="fill:#996633;stroke:#996633;stroke-width:1.4523;stroke-linecap:round;stroke-linejoin:round;" d="M373.932,72.178
				c0.193,0.497,0.232,0.604,0.131,0.32"/>
			<path style="fill:#996633;stroke:#996633;stroke-width:1.4523;stroke-linecap:round;stroke-linejoin:round;" d="M378.977,83.631
				c0.84-0.524,1.375-1.04,1.859-1.787"/>
			<path style="fill:#996633;stroke:#996633;stroke-width:1.4523;stroke-linecap:round;stroke-linejoin:round;" d="M341.002,44.182
				c-0.504,0.493-1.105,0.846-1.781,1.032"/>
		</g>
		<g>
			<path style="fill:#EAC076;stroke:#996633;stroke-width:1.4523;stroke-linecap:round;stroke-linejoin:round;" d="M233.217,70.819
				c1.305-4.399,5.647-9.519,9.113-12.754c9.18-8.549,20.556-11.112,32.65-12.979c12.273-1.902,24.926-0.173,36.197,4.636
				c6.086,2.597,10.572,6.982,15.529,10.903c3.125,2.472,6.271,5.049,9.094,7.871c2.535,2.533,4.459,6.218,4.812,9.756
				c0.514,5.106-1.502,8.048-4.039,12.818c-6.059,11.349-17.102,17.509-29.697,17.236c-8.941-0.189-19.484-0.908-27.736-4.396
				c-11.755-4.969-24.222-8.241-35.04-15.19c-4.216-2.705-15.646-11.531-10.884-17.559"/>
			<path style="fill:none;stroke:#996633;stroke-width:1.4523;stroke-linecap:round;stroke-linejoin:round;" d="M327.441,80.954
				c-7.662-0.355-8.734,9.243-8.834,14.757c-0.242-0.146-0.451-0.338-0.621-0.571"/>
			<path style="fill:#996633;stroke:#996633;stroke-width:1.4523;stroke-linecap:round;stroke-linejoin:round;" d="M259.902,88.72
				c0.112,0.228,0.229,0.452,0.333,0.676"/>
			<path style="fill:#996633;stroke:#996633;stroke-width:1.4523;stroke-linecap:round;stroke-linejoin:round;" d="M283.201,101.556
				c0.275,0.401,0.389,0.875,0.334,1.351"/>
			<path style="fill:#996633;stroke:#996633;stroke-width:1.4523;stroke-linecap:round;stroke-linejoin:round;" d="M282.867,95.811
				c0.303,0.204,0.645,0.318,1.01,0.342"/>
			<path style="fill:#996633;stroke:#996633;stroke-width:1.4523;stroke-linecap:round;stroke-linejoin:round;" d="M245.377,68.797
				c0.594-0.01,1.146-0.118,1.692-0.341"/>
			<path style="fill:#996633;stroke:#996633;stroke-width:1.4523;stroke-linecap:round;stroke-linejoin:round;" d="M252.469,62.719
				c0.559-0.151,1.125-0.266,1.691-0.341"/>
			<path style="fill:#996633;stroke:#996633;stroke-width:1.4523;stroke-linecap:round;stroke-linejoin:round;" d="M257.196,72.516
				c0.226,0.108,0.455,0.219,0.676,0.333"/>
			<path style="fill:#996633;stroke:#996633;stroke-width:1.4523;stroke-linecap:round;stroke-linejoin:round;" d="M276.781,61.706
				c-0.52,0.186-0.854,0.528-1.01,1.013"/>
			<path style="fill:#996633;stroke:#996633;stroke-width:1.4523;stroke-linecap:round;stroke-linejoin:round;" d="M282.525,57.991
				c0,0.45,0,0.899,0,1.351"/>
			<path style="fill:#996633;stroke:#996633;stroke-width:1.4523;stroke-linecap:round;stroke-linejoin:round;" d="M301.436,61.706
				c0.645-0.247,0.861-0.712,0.684-1.351"/>
			<path style="fill:#996633;stroke:#996633;stroke-width:1.4523;stroke-linecap:round;stroke-linejoin:round;" d="M312.924,73.862
				c-0.342,0.112-0.682,0.227-1.016,0.337"/>
			<path style="fill:#996633;stroke:#996633;stroke-width:1.4523;stroke-linecap:round;stroke-linejoin:round;" d="M309.207,80.954
				c0.107,0.337,0.225,0.675,0.34,1.017"/>
			<path style="fill:#996633;stroke:#996633;stroke-width:1.4523;stroke-linecap:round;stroke-linejoin:round;" d="M302.787,90.412
				c0.283,0.577,0.791,1.097,1.357,1.347"/>
			<path style="fill:#996633;stroke:#996633;stroke-width:1.4523;stroke-linecap:round;stroke-linejoin:round;" d="M292.322,81.291
				c0.551,0.433,1.086,0.551,1.352,0"/>
			<path style="fill:#996633;stroke:#996633;stroke-width:1.4523;stroke-linecap:round;stroke-linejoin:round;" d="M337.236,84.668
				c-0.252-0.375-0.59-0.602-1.016-0.675"/>
		</g>
		<g>
			<path style="fill:#EAC076;stroke:#996633;stroke-width:1.4523;stroke-linecap:round;stroke-linejoin:round;" d="M281.531,108.377
				c1.305,4.405,5.645,9.525,9.119,12.762c9.178,8.547,20.551,11.108,32.645,12.979c12.273,1.901,24.926,0.171,36.197-4.634
				c6.086-2.602,10.574-6.987,15.525-10.907c3.129-2.469,6.277-5.046,9.098-7.871c2.535-2.53,4.461-6.218,4.814-9.756
				c0.512-5.104-1.504-8.046-4.041-12.818c-6.059-11.349-17.102-17.509-29.697-17.241c-8.941,0.196-19.484,0.914-27.734,4.403
				c-11.762,4.966-24.229,8.238-35.037,15.188c-4.219,2.706-15.65,11.534-10.889,17.561"/>
			<path style="fill:none;stroke:#996633;stroke-width:1.4523;stroke-linecap:round;stroke-linejoin:round;" d="M375.756,98.249
				c-7.662,0.355-8.732-9.241-8.834-14.759c-0.24,0.147-0.451,0.342-0.621,0.575"/>
			<path style="fill:#996633;stroke:#996633;stroke-width:1.4523;stroke-linecap:round;stroke-linejoin:round;" d="M293.697,110.403
				c0.586,0.007,1.141,0.12,1.684,0.341"/>
			<path style="fill:#996633;stroke:#996633;stroke-width:1.4523;stroke-linecap:round;stroke-linejoin:round;" d="M300.783,116.481
				c0.559,0.155,1.127,0.264,1.693,0.341"/>
			<path style="fill:#996633;stroke:#996633;stroke-width:1.4523;stroke-linecap:round;stroke-linejoin:round;" d="M305.512,106.688
				c0.225-0.108,0.453-0.222,0.674-0.337"/>
			<path style="fill:#996633;stroke:#996633;stroke-width:1.4523;stroke-linecap:round;stroke-linejoin:round;" d="M325.096,117.498
				c-0.52-0.186-0.854-0.527-1.008-1.017"/>
			<path style="fill:#996633;stroke:#996633;stroke-width:1.4523;stroke-linecap:round;stroke-linejoin:round;" d="M330.84,121.209
				c0-0.447,0-0.893,0-1.352"/>
			<path style="fill:#996633;stroke:#996633;stroke-width:1.4523;stroke-linecap:round;stroke-linejoin:round;" d="M349.75,117.498
				c0.645,0.24,0.861,0.715,0.684,1.351"/>
			<path style="fill:#996633;stroke:#996633;stroke-width:1.4523;stroke-linecap:round;stroke-linejoin:round;" d="M361.24,105.342
				c-0.342-0.112-0.684-0.225-1.018-0.342"/>
			<path style="fill:#996633;stroke:#996633;stroke-width:1.4523;stroke-linecap:round;stroke-linejoin:round;" d="M357.521,98.249
				c0.107-0.339,0.225-0.675,0.342-1.015"/>
			<path style="fill:#996633;stroke:#996633;stroke-width:1.4523;stroke-linecap:round;stroke-linejoin:round;" d="M351.102,88.792
				c0.279-0.579,0.787-1.099,1.357-1.349"/>
			<path style="fill:#996633;stroke:#996633;stroke-width:1.4523;stroke-linecap:round;stroke-linejoin:round;" d="M340.637,97.909
				c0.551-0.429,1.088-0.547,1.352,0"/>
			<path style="fill:#996633;stroke:#996633;stroke-width:1.4523;stroke-linecap:round;stroke-linejoin:round;" d="M385.553,94.534
				c-0.254,0.373-0.59,0.602-1.018,0.675"/>
		</g>
		<path style="fill:#EAC076;stroke:#996633;stroke-width:1.4523;stroke-linecap:round;stroke-linejoin:round;" d="M215.604,88.71
			c-1.258,1.263,1.603,12.187,3.175,16.631c0.939,2.631,1.463,5.213,2.375,7.778c1.087,3.047,1.747,3.89,3.707,6.412
			c1.692,2.173,2.744,4.292,4.812,6.249c2.069,1.964,3.955,3.975,5.757,6.198c1.785,2.208,3.334,4.692,5.041,6.726
			c2.333,2.771,4.751,3.579,7.782,5.047c6.646,3.213,13.717,5.488,21.709,5.418c7.534-0.062,15.165-3.229,21.444-7.161
			c6.727-4.227,12.639-12.168,11.457-20.536c-1.125-8.097-7.133-16.243-11.484-22.882c-4.363-6.641-9.691-12.366-17.137-16.191
			c-5.542-2.851-13.223-2.993-19.25-3.827c-6.474-0.896-13.243-1.388-19.593,0.095c-4.751,1.118-12.777,2.515-16.457,5.744
			c-1.58,1.388-3.338,4.299-3.485,7.712"/>
		<path style="fill:#EAC076;stroke:#996633;stroke-width:1.4523;stroke-linecap:round;stroke-linejoin:round;" d="M168.383,129.243
			c-1.514-2.403-4.16-2.74-6.513-3.955c-2.802-1.456-5.43-3.249-7.755-5.415c-4.596-4.273-5.127-9.605-5.659-15.618
			c-0.95-10.72,4.067-18.273,9.133-27.28c1.883-3.342,3.326-7.26,6.323-9.866c2.678-2.329,3.621-1.448,6.222,0.929
			c1.021,0.932,1.897,1.681,2.402,3.086c-0.753-1.067-4.836-4.312-5.101-6.109c-0.311-2.119,3.284-6.385,4.576-8.11
			c2.107-2.824,5.291-4.333,7.853-6.667c2.445-2.222,4.82-4.681,7.778-6.192c7.242-3.711,15.227-5.896,23.288-4.285
			c4.785,0.955,11.139,2.938,14.873,6.146c8.38,7.185,8.135,23.488,5.146,33.038c-0.605,1.939-1.561,4.499-3.144,5.983
			c-1.786,1.683-3.921,2.186-5.341,4.208c-2.787,3.938-4.177,8.898-6.808,12.958c-10.076-6.141-20.758-7.045-29.646,1.839
			c-3.757,3.745-6.082,7.821-9.536,12.067c-2.709,3.334-4.867,10.01-8.791,12.102c0.012-0.069,0.016-0.139,0.023-0.201"/>
		<path style="fill:none;stroke:#996633;stroke-width:1.4523;stroke-linecap:round;stroke-linejoin:round;" d="M172.094,106.957
			c2.608,1.785,4.995,4.369,6.42,6.753"/>
		<path style="fill:#EAC076;stroke:#996633;stroke-width:1.4523;stroke-linecap:round;stroke-linejoin:round;" d="M191.337,99.184
			c-5.76,2.468-10.142,8.363-14.175,12.841c-4.351,4.828-8.818,9.436-9.478,16.076c-0.56,5.722,0.551,11.684,1.032,17.35
			c0.385,4.472,2.274,7.231,5.41,10.55c2.007,2.119,3.874,4.067,6.335,5.768c9.929,6.831,19.764,11.47,31.222,14.33
			c7.207,1.809,13.406,1.249,20.098-1.312c6.155-2.356,8.585-6.738,9.866-13.119c1.095-5.469,0.341-10.247-1.347-15.518
			c-2.345-7.355-8.314-6.168-14.412-5.76c1.809-0.311,6.719,0.154,8.027-0.998c2.139-1.898,0.085-6.008-0.377-8.457
			c-1.277-6.843-3.605-12.596-8.007-18.258c-3.474-4.456-8.932-10.507-14.012-13.398c-4.564-2.601-10.961-2.985-16.123-1.692
			C188.9,99.219,183.04,103.25,180,108.781"/>
		<path style="fill:#EAC076;stroke:#996633;stroke-width:1.4523;stroke-linecap:round;stroke-linejoin:round;" d="M194.722,122.49
			c3.043,1.459,7.515-3.545,10.13-3.369"/>
		<path style="fill:none;stroke:#996633;stroke-width:1.4523;stroke-linecap:round;stroke-linejoin:round;" d="M207.895,52.589
			c1.212,2.614,9.933,7.861,11.815,6.074"/>
		<path style="fill:#996633;stroke:#996633;stroke-width:1.4523;stroke-linecap:round;stroke-linejoin:round;" d="M215.325,150.521
			c0.334-0.226,0.675-0.45,1.013-0.675"/>
		<path style="fill:#996633;stroke:#996633;stroke-width:1.4523;stroke-linecap:round;stroke-linejoin:round;" d="M260.911,129.243
			c-0.334,0-0.676,0-1.009,0"/>
		<path style="fill:#996633;stroke:#996633;stroke-width:1.4523;stroke-linecap:round;stroke-linejoin:round;" d="M252.469,133.971
			c-0.521-0.02-0.854-0.24-1.014-0.668"/>
		<path style="fill:#996633;stroke:#996633;stroke-width:1.4523;stroke-linecap:round;stroke-linejoin:round;" d="M264.629,142.416
			c0-0.613,0.229-1.172,0.675-1.351"/>
		<path style="fill:#996633;stroke:#996633;stroke-width:1.4523;stroke-linecap:round;stroke-linejoin:round;" d="M290.289,118.438
			c0,0.454,0,0.9,0,1.351"/>
		<path style="fill:#996633;stroke:#996633;stroke-width:1.4523;stroke-linecap:round;stroke-linejoin:round;" d="M290.963,124.857
			c0-0.342,0-0.676,0-1.01"/>
		<path style="fill:#996633;stroke:#996633;stroke-width:1.4523;stroke-linecap:round;stroke-linejoin:round;" d="M281.176,111.342
			c0-0.225,0-0.445,0-0.667"/>
		<path style="fill:#996633;stroke:#996633;stroke-width:1.4523;stroke-linecap:round;stroke-linejoin:round;" d="M234.568,98.85
			c0.318,0.204,0.656,0.318,1.017,0.342"/>
		<path style="fill:#996633;stroke:#996633;stroke-width:1.4523;stroke-linecap:round;stroke-linejoin:round;" d="M243.356,101.218
			c-0.117,0.224-0.229,0.446-0.342,0.671"/>
		<path style="fill:#996633;stroke:#996633;stroke-width:1.4523;stroke-linecap:round;stroke-linejoin:round;" d="M231.195,104.93
			c0.314-0.201,0.648-0.317,1.014-0.333"/>
		<path style="fill:#996633;stroke:#996633;stroke-width:1.4523;stroke-linecap:round;stroke-linejoin:round;" d="M250.105,103.244
			c0,0.338,0,0.678,0,1.011"/>
		<path style="fill:#996633;stroke:#996633;stroke-width:1.4523;stroke-linecap:round;stroke-linejoin:round;" d="M254.161,125.866
			c0.571-0.318,1.033-0.776,1.348-1.351"/>
		<path style="fill:#996633;stroke:#996633;stroke-width:1.4523;stroke-linecap:round;stroke-linejoin:round;" d="M266.993,118.104
			c-0.205-0.311-0.318-0.652-0.342-1.017"/>
		<path style="fill:#996633;stroke:#996633;stroke-width:1.4523;stroke-linecap:round;stroke-linejoin:round;" d="M262.603,103.922
			c0,0.221,0,0.445,0,0.675"/>
		<path style="fill:#996633;stroke:#996633;stroke-width:1.4523;stroke-linecap:round;stroke-linejoin:round;" d="M206.544,85.685
			c-0.462-0.652-0.535-1.304,0-1.692"/>
		<path style="fill:#996633;stroke:#996633;stroke-width:1.4523;stroke-linecap:round;stroke-linejoin:round;" d="M209.581,91.083
			c0.046-0.483,0.287-0.885,0.675-1.013"/>
		<path style="fill:#996633;stroke:#996633;stroke-width:1.4523;stroke-linecap:round;stroke-linejoin:round;" d="M184.592,92.435
			c0.496,0.753,1.086,0.922,1.685,0.341"/>
		<path style="fill:#996633;stroke:#996633;stroke-width:1.4523;stroke-linecap:round;stroke-linejoin:round;" d="M178.18,65.417
			c-0.396-0.466-0.521-0.887,0-1.009"/>
		<path style="fill:#996633;stroke:#996633;stroke-width:1.4523;stroke-linecap:round;stroke-linejoin:round;" d="M165.34,90.746
			c0.342,0,0.676,0,1.01,0"/>
		<path style="fill:#996633;stroke:#996633;stroke-width:1.4523;stroke-linecap:round;stroke-linejoin:round;" d="M165.34,101.889
			c0,0.53,0,0.645,0,0.342"/>
		<path style="fill:#996633;stroke:#996633;stroke-width:1.4523;stroke-linecap:round;stroke-linejoin:round;" d="M164.666,114.393
			c-0.967-0.201-1.649-0.496-2.36-1.017"/>
		<path style="fill:#996633;stroke:#996633;stroke-width:1.4523;stroke-linecap:round;stroke-linejoin:round;" d="M206.544,140.049
			c-0.64,0.24-1.18,0.097-1.692-0.334"/>
		<path style="fill:#996633;stroke:#996633;stroke-width:1.4523;stroke-linecap:round;stroke-linejoin:round;" d="M178.855,158.291
			c-0.201-0.975,0.031-1.84,0.668-2.367"/>
		<path style="fill:#996633;stroke:#996633;stroke-width:1.4523;stroke-linecap:round;stroke-linejoin:round;" d="M186.618,148.494
			c0.66-0.031,1.382-0.287,1.692-0.671"/>
		<path style="fill:#996633;stroke:#996633;stroke-width:1.4523;stroke-linecap:round;stroke-linejoin:round;" d="M187.293,163.019
			c0.52,0.249,1.118,0.372,1.685,0.337"/>
		<path style="fill:#996633;stroke:#996633;stroke-width:1.4523;stroke-linecap:round;stroke-linejoin:round;" d="M228.156,163.355
			c0.334,0,0.676,0,1.01,0"/>
		<path style="fill:#996633;stroke:#996633;stroke-width:1.4523;stroke-linecap:round;stroke-linejoin:round;" d="M207.22,169.097
			c0.226,0,0.446,0,0.675,0"/>
		<path style="fill:#996633;stroke:#996633;stroke-width:1.4523;stroke-linecap:round;stroke-linejoin:round;" d="M233.559,156.266
			c-0.896,0-1.801,0-2.701,0"/>
		<path style="fill:#996633;stroke:#996633;stroke-width:1.4523;stroke-linecap:round;stroke-linejoin:round;" d="M189.995,105.947
			c0.248,1.129,0.971,1.883,2.026,2.025"/>
		<path style="fill:#996633;stroke:#996633;stroke-width:1.4523;stroke-linecap:round;stroke-linejoin:round;" d="M186.277,64.069
			c0.644,0.284,1.335,0.402,2.033,0.338"/>
		<g>
			<path style="fill:#EAC076;stroke:#996633;stroke-width:1.4523;stroke-linecap:round;stroke-linejoin:round;" d="M268.945,164.536
				c-1.261-1.262,1.604-12.191,3.178-16.636c0.932-2.627,1.461-5.213,2.373-7.773c1.086-3.051,1.75-3.89,3.705-6.412
				c1.689-2.178,2.74-4.297,4.811-6.254c2.068-1.959,3.955-3.971,5.76-6.197c1.789-2.205,3.33-4.697,5.037-6.723
				c2.34-2.771,4.756-3.579,7.791-5.05c6.645-3.21,13.715-5.488,21.703-5.415c7.537,0.059,15.16,3.226,21.441,7.157
				c6.73,4.224,12.637,12.172,11.461,20.54c-1.129,8.097-7.137,16.244-11.484,22.881c-4.363,6.641-9.695,12.365-17.137,16.193
				c-5.547,2.848-13.223,2.992-19.248,3.822c-6.473,0.896-13.25,1.39-19.6-0.093c-4.744-1.118-12.777-2.519-16.457-5.745
				c-1.576-1.385-3.334-4.296-3.486-7.711"/>
			<path style="fill:#996633;stroke:#996633;stroke-width:1.4523;stroke-linecap:round;stroke-linejoin:round;" d="M314.252,124.004
				c-0.338,0-0.676,0-1.014,0"/>
			<path style="fill:#996633;stroke:#996633;stroke-width:1.4523;stroke-linecap:round;stroke-linejoin:round;" d="M305.811,119.275
				c-0.521,0.016-0.857,0.237-1.014,0.668"/>
			<path style="fill:#996633;stroke:#996633;stroke-width:1.4523;stroke-linecap:round;stroke-linejoin:round;" d="M317.967,110.83
				c0,0.609,0.229,1.172,0.676,1.351"/>
			<path style="fill:#996633;stroke:#996633;stroke-width:1.4523;stroke-linecap:round;stroke-linejoin:round;" d="M343.629,134.809
				c0-0.453,0-0.904,0-1.351"/>
			<path style="fill:#996633;stroke:#996633;stroke-width:1.4523;stroke-linecap:round;stroke-linejoin:round;" d="M344.312,128.389
				c0,0.342,0,0.676,0,1.01"/>
			<path style="fill:#996633;stroke:#996633;stroke-width:1.4523;stroke-linecap:round;stroke-linejoin:round;" d="M334.512,141.896
				c0,0.232,0,0.45,0,0.676"/>
			<path style="fill:#996633;stroke:#996633;stroke-width:1.4523;stroke-linecap:round;stroke-linejoin:round;" d="M287.914,154.395
				c0.311-0.206,0.646-0.318,1.012-0.342"/>
			<path style="fill:#996633;stroke:#996633;stroke-width:1.4523;stroke-linecap:round;stroke-linejoin:round;" d="M296.693,152.026
				c-0.117-0.226-0.223-0.442-0.338-0.675"/>
			<path style="fill:#996633;stroke:#996633;stroke-width:1.4523;stroke-linecap:round;stroke-linejoin:round;" d="M284.537,148.316
				c0.311,0.201,0.646,0.314,1.012,0.334"/>
			<path style="fill:#996633;stroke:#996633;stroke-width:1.4523;stroke-linecap:round;stroke-linejoin:round;" d="M303.445,150
				c0-0.342,0-0.675,0-1.009"/>
			<path style="fill:#996633;stroke:#996633;stroke-width:1.4523;stroke-linecap:round;stroke-linejoin:round;" d="M307.498,127.38
				c0.574,0.318,1.033,0.776,1.352,1.351"/>
			<path style="fill:#996633;stroke:#996633;stroke-width:1.4523;stroke-linecap:round;stroke-linejoin:round;" d="M320.33,135.143
				c-0.201,0.311-0.318,0.652-0.338,1.01"/>
			<path style="fill:#996633;stroke:#996633;stroke-width:1.4523;stroke-linecap:round;stroke-linejoin:round;" d="M315.947,149.325
				c0-0.222,0-0.45,0-0.675"/>
			<path style="fill:#996633;stroke:#996633;stroke-width:1.4523;stroke-linecap:round;stroke-linejoin:round;" d="M313.238,164.524
				c0.117-0.226,0.23-0.454,0.338-0.675"/>
			<path style="fill:#996633;stroke:#996633;stroke-width:1.4523;stroke-linecap:round;stroke-linejoin:round;" d="M336.539,151.693
				c0.279-0.404,0.398-0.878,0.338-1.359"/>
			<path style="fill:#996633;stroke:#996633;stroke-width:1.4523;stroke-linecap:round;stroke-linejoin:round;" d="M336.209,157.434
				c0.303-0.202,0.641-0.314,1.012-0.338"/>
		</g>
	</g>
</g>
</svg>
