<?xml version="1.0" encoding="iso-8859-1"?>
<!-- Generator: Adobe Illustrator 13.0.0, SVG Export Plug-In . SVG Version: 6.00 Build 14948)  -->
<!DOCTYPE svg PUBLIC "-//W3C//DTD SVG 1.1//EN" "http://www.w3.org/Graphics/SVG/1.1/DTD/svg11.dtd">
<svg version="1.1" xmlns="http://www.w3.org/2000/svg" xmlns:xlink="http://www.w3.org/1999/xlink" x="0px" y="0px" width="378px"
	 height="140px" viewBox="0 0 378 140" style="enable-background:new 0 0 378 140;" xml:space="preserve">
<g id="Layer_2">
	<g>
		<rect style="fill:none;" width="378" height="140"/>
		<rect style="fill:#FFFFFF;" width="378" height="140"/>
	</g>
</g>
<g id="Layer_3">
	
		<ellipse style="fill:none;stroke:#1FFF2B;stroke-width:10;stroke-linecap:round;stroke-linejoin:round;" cx="300.765" cy="70" rx="42.667" ry="62.499"/>
	<path style="fill:none;stroke:#1FFF2B;stroke-width:10;stroke-linecap:round;stroke-linejoin:round;" d="M154.192,70.001
		c0,34.516,19.104,62.498,42.667,62.498s42.667-27.982,42.667-62.498c0-34.52-19.104-62.501-42.667-62.501
		S154.192,35.481,154.192,70.001z"/>
	<path style="fill:none;stroke:#1FFF2B;stroke-width:10;stroke-linecap:round;stroke-linejoin:round;" d="M35.062,7.499
		c-1.067,20.926-0.772,107.247,4.717,125.001"/>
	<path style="fill:none;stroke:#1FFF2B;stroke-width:10;stroke-linecap:round;stroke-linejoin:round;" d="M135.621,11.765
		c-12.707-1.697-58.822-0.594-66.328-3.689c0,0-5.205,34.147-4.055,50.08c0.467-7.434,11.196-15.218,21.903-18.22
		s48.022-0.732,48.022,36.625s-25.16,53.354-41.111,54.592s-40.167-6.714-38.294-24.683"/>
</g>
</svg>
