<?xml version="1.0" encoding="iso-8859-1"?>
<!-- Generator: Adobe Illustrator 13.0.0, SVG Export Plug-In . SVG Version: 6.00 Build 14948)  -->
<!DOCTYPE svg PUBLIC "-//W3C//DTD SVG 1.1//EN" "http://www.w3.org/Graphics/SVG/1.1/DTD/svg11.dtd">
<svg version="1.1" xmlns="http://www.w3.org/2000/svg" xmlns:xlink="http://www.w3.org/1999/xlink" x="0px" y="0px" width="378px"
	 height="140px" viewBox="0 0 378 140" style="enable-background:new 0 0 378 140;" xml:space="preserve">
<g id="Layer_2">
	<g>
		<rect style="fill:none;" width="378" height="140"/>
		<rect style="fill:#FFFFFF;" width="378" height="140"/>
	</g>
</g>
<g id="Layer_3">
	<g>
		<g>
			<rect x="121.5" y="2.5" style="fill:none;" width="135" height="135"/>
			<path style="fill:#406FA9;" d="M256.5,125.963c0,6.373-5.165,11.537-11.537,11.537H133.037c-6.372,0-11.537-5.164-11.537-11.537
				V14.037c0-6.371,5.165-11.537,11.537-11.537h111.926c6.372,0,11.537,5.166,11.537,11.537V125.963z"/>
			<path style="fill:none;stroke:#FFFFFF;stroke-width:4.0703;" d="M251.017,121.418c0,5.854-4.746,10.6-10.602,10.6H137.584
				c-5.854,0-10.601-4.746-10.601-10.6V18.586c0-5.854,4.746-10.602,10.601-10.602h102.831c5.855,0,10.602,4.748,10.602,10.602
				V121.418z"/>
		</g>
		<g>
			<g>
				<path style="fill:none;stroke:#FFFFFF;stroke-width:6.1055;" d="M207.026,99.061c4.124,6.826,13.908,11.607,20.701,5.783
					c4.671-3.998,4.178-9.666,4.416-15.23c0.111-2.652,0.688-23.312-0.561-26.973c-1.027-3.006-21.079-19.797-23.412-22.822"/>
				<path style="fill:#FFFFFF;" d="M211.204,118.693c0,0.641-0.517,1.156-1.153,1.156h-50.24c-0.639,0-1.155-0.516-1.155-1.156
					V22.787c0-0.637,0.517-1.154,1.155-1.154c0,0,17.368-1.482,25.119-1.482s25.121,1.482,25.121,1.482
					c0.637,0,1.153,0.518,1.153,1.154V118.693z"/>
				<path style="fill:#406FA9;" d="M206.543,55.754c0,0.189-0.425,0.342-0.947,0.342h-41.33c-0.524,0-0.949-0.152-0.949-0.342V27.26
					c0-0.188,0.425-0.344,0.949-0.344c0,0,14.288-1.799,20.664-1.799s20.666,1.799,20.666,1.799c0.522,0,0.947,0.156,0.947,0.344
					V55.754z"/>
			</g>
			<polygon style="fill:#FFFFFF;" points="230.814,60.734 216.797,65.318 217.083,48.254 			"/>
		</g>
	</g>
</g>
</svg>
