<?xml version="1.0" encoding="iso-8859-1"?>
<!-- Generator: Adobe Illustrator 13.0.0, SVG Export Plug-In . SVG Version: 6.00 Build 14948)  -->
<!DOCTYPE svg PUBLIC "-//W3C//DTD SVG 1.1//EN" "http://www.w3.org/Graphics/SVG/1.1/DTD/svg11.dtd">
<svg version="1.1" xmlns="http://www.w3.org/2000/svg" xmlns:xlink="http://www.w3.org/1999/xlink" x="0px" y="0px" width="540px"
	 height="200px" viewBox="0 0 540 200" style="enable-background:new 0 0 540 200;" xml:space="preserve">
<g id="Layer_2">
	<g>
		<rect style="fill:#FFFFFF;" width="540" height="200"/>
	</g>
	<path style="fill:none;stroke:#78B432;stroke-width:1.0535;stroke-linecap:round;stroke-linejoin:round;" d="M15.723,106.693
		C92.969,98.196,415.47,90.27,527.72,90.27"/>
</g>
<g id="Layer_1">
	<path style="fill:#FFFFFF;stroke:#92938B;stroke-width:1.713;stroke-linecap:round;stroke-linejoin:round;" d="M235.456,34.787
		c0,8.708-5.385,15.761-12.035,15.761c-6.643,0-12.036-7.054-12.036-15.761c0-8.701,5.394-15.756,12.036-15.756
		C230.071,19.03,235.456,26.085,235.456,34.787z"/>
	<path style="fill:none;stroke:#92938B;stroke-width:1.713;stroke-linecap:round;stroke-linejoin:round;" d="M223.782,71.937
		c0.18,11.112,0.157,23.016-0.94,28.472c-1.712,8.595-5.155,5.16-3.434,17.193c2.151,15.078,8.024,27.508,6.302,34.957
		c-9.383,40.672-9.74,41.836-0.577,40.691"/>
	<path style="fill:none;stroke:#92938B;stroke-width:1.713;stroke-linecap:round;stroke-linejoin:round;" d="M223.421,51.125
		c-0.016,2.771,0.08,7.037,0.188,11.966"/>
	<path style="fill:#FFFFFF;stroke:#92938B;stroke-width:1.713;stroke-linecap:round;stroke-linejoin:round;" d="M230.603,67.472
		c0,2.688-2.174,4.87-4.865,4.87c-2.693,0-4.88-2.183-4.88-4.87c0-2.691,2.187-4.873,4.88-4.873
		C228.429,62.599,230.603,64.781,230.603,67.472z"/>
	<g>
		<path style="fill:#FFFFFF;stroke:#92938B;stroke-width:1.53;stroke-linecap:round;stroke-linejoin:round;" d="M434.295,98.265
			c0,0.969-0.784,1.755-1.756,1.755c-0.964,0-1.754-0.786-1.754-1.755s0.79-1.754,1.754-1.754
			C433.511,96.511,434.295,97.296,434.295,98.265z"/>
		<path style="fill:#FFFFFF;stroke:#92938B;stroke-width:2.057;stroke-linecap:round;stroke-linejoin:round;" d="M440.719,45.139
			c0,5.436-3.371,9.84-7.514,9.84c-4.147,0-7.519-4.405-7.519-9.84c0-5.434,3.371-9.839,7.519-9.839
			C437.348,35.3,440.719,39.706,440.719,45.139z"/>
		<path style="fill:none;stroke:#92938B;stroke-width:2.057;stroke-linecap:round;stroke-linejoin:round;" d="M433.392,55.371
			c-0.035,6.87,0.922,27.18-0.391,33.772c-1.18,5.889-1.703,4.104-0.527,12.35c1.475,10.327-1.842,20.405-2.194,25.629
			c-1.829,27.1-1.996,26.422,4.289,25.632"/>
	</g>
	<g>
		<path style="fill:none;stroke:#92938B;stroke-width:1.53;stroke-linecap:round;stroke-linejoin:round;" d="M433.526,63.837
			c8.666-8.666,15.76-20.263,16.735-28.343c-0.062,0.236-0.199,1.337-0.35,1.845c0.183-1.291,3.122-10.854,3.122-12.217
			c0,0-2.343,8.371-2.772,10.372c-0.944-3.186,2.352-9.792,0.534-12.384c-0.11,3.296,0.156,5.928-1.055,9.028
			c-1.662-1.456-1.98-3.668-1.903-5.953c-1.816,2.262,2.128,6.435,2.424,9.31"/>
	</g>
</g>
</svg>
