<?xml version="1.0" encoding="iso-8859-1"?>
<!-- Generator: Adobe Illustrator 13.0.0, SVG Export Plug-In . SVG Version: 6.00 Build 14948)  -->
<!DOCTYPE svg PUBLIC "-//W3C//DTD SVG 1.1//EN" "http://www.w3.org/Graphics/SVG/1.1/DTD/svg11.dtd">
<svg version="1.1" xmlns="http://www.w3.org/2000/svg" xmlns:xlink="http://www.w3.org/1999/xlink" x="0px" y="0px" width="540px"
	 height="199.999px" viewBox="0 0 540 199.999" style="enable-background:new 0 0 540 199.999;" xml:space="preserve">
<g id="Layer_2">
	<g>
		<rect style="fill:none;" width="540" height="199.999"/>
		<rect style="fill:#FFFFFF;" width="540" height="199.999"/>
	</g>
</g>
<g id="Layer_4">
	<g>
		<g>
			<g>
				<path style="fill:#5DB753;stroke:#5DB753;stroke-width:1.0912;" d="M325.126,49.768c0-1.525,0-32.44,0-32.44
					c-7.38,0-10,1.242-9.568,10.981c0.406,9.188,0.767,1.946,0.767,12.96c0,8.058,0.169,25.614-4.815,31.91
					c-1.894,2.395-10.058,10.108-10.598,17.819c-0.115,1.612,24.215,1.107,24.215,1.107"/>
				<path style="fill:#5DB753;stroke:#5DB753;stroke-width:1.0912;" d="M325.197,92.105c0.097-6.559-24.275-2.408-24.286-1.107
					c-0.143,15.031-1.276,88.688,1.229,91.014c1.925,1.782,15.013,2.098,22.985,2.098"/>
			</g>
			<g>
				<path style="fill:#5DB753;stroke:#5DB753;stroke-width:1.0912;" d="M324.636,49.768c0-1.525,0-32.44,0-32.44
					c7.372,0,10,1.242,9.568,10.981c-0.411,9.188-0.771,1.946-0.771,12.96c0,8.058-0.161,25.614,4.82,31.91
					c1.888,2.395,10.052,10.108,10.6,17.819c0.108,1.612-24.218,1.107-24.218,1.107"/>
				<path style="fill:#5DB753;stroke:#5DB753;stroke-width:1.0912;" d="M323.67,92.105c-0.103-6.559,25.162-2.408,25.184-1.107
					c0.135,15.031,1.273,88.688-1.232,91.014c-1.925,1.782-14.549,2.098-22.495,2.098"/>
			</g>
			<g>
				<g>
					<path style="fill:#FCCF3D;" d="M316.485,17.478c-0.464,1.446-1.222,2.718-1.81,4.225c1.564-1.091,1.43-0.644,2.615,0.513
						c0.213-0.229,0.85-0.625,1.688-0.419c0.45,0.163,0.616,0.544,0.888,1.088c0.521-1.413,1.764-0.953,2.717,0.151
						c0.713-1.127,2.557-0.982,2.975,0.254c0.224,0.661,0.837-0.854,1.72-0.885c0.758-0.031,1.185,1.098,2.066,1.129
						c0.063-0.218,0.753-1.268,1.577-1.48c0.722,0,1.386,0.877,2.022,0.831c0.502-1.036,1.292-1.397,2.801-0.521
						c-0.582-0.85-1.127-3.032-1.256-3.921"/>
					<path style="fill:#FCCF3D;" d="M330.881,16.542c-3.959-0.638-7.068-0.985-10.597-0.647c-6.183,0.59-4.062,3.517,0.761,4.214
						c1.59,0.229,15.271,1.291,13.409-1.857C333.665,16.905,332.735,17.027,330.881,16.542"/>
				</g>
				<g>
					<path style="fill:#FCCF3D;stroke:#000000;stroke-width:1.0912;stroke-linecap:round;stroke-linejoin:round;" d="
						M316.485,17.478c-0.464,1.446-1.222,2.718-1.81,4.225c1.564-1.091,1.43-0.644,2.615,0.513c0.213-0.229,0.85-0.625,1.688-0.419
						c0.45,0.163,0.616,0.544,0.888,1.088c0.521-1.413,1.764-0.953,2.717,0.151c0.713-1.127,2.557-0.982,2.975,0.254
						c0.224,0.661,0.837-0.854,1.72-0.885c0.758-0.031,1.185,1.098,2.066,1.129c0.063-0.218,0.753-1.268,1.577-1.48
						c0.722,0,1.386,0.877,2.022,0.831c0.502-1.036,1.292-1.397,2.801-0.521c-0.582-0.85-1.127-3.032-1.256-3.921"/>
					<path style="fill:#FCCF3D;stroke:#000000;stroke-width:1.0912;stroke-linecap:round;stroke-linejoin:round;" d="
						M330.881,16.542c-3.959-0.638-7.068-0.985-10.597-0.647c-6.183,0.59-4.062,3.517,0.761,4.214
						c1.59,0.229,15.271,1.291,13.409-1.857C333.665,16.905,332.735,17.027,330.881,16.542"/>
				</g>
				<g>
					<path style="fill:none;stroke:#5DB753;stroke-width:1.0912;" d="M316.485,17.478c-0.464,1.446-1.222,2.718-1.81,4.225
						c1.564-1.091,1.43-0.644,2.615,0.513c0.213-0.229,0.85-0.625,1.688-0.419c0.45,0.163,0.616,0.544,0.888,1.088
						c0.521-1.413,1.764-0.953,2.717,0.151c0.713-1.127,2.557-0.982,2.975,0.254c0.224,0.661,0.837-0.854,1.72-0.885
						c0.758-0.031,1.185,1.098,2.066,1.129c0.063-0.218,0.753-1.268,1.577-1.48c0.722,0,1.386,0.877,2.022,0.831
						c0.502-1.036,1.292-1.397,2.801-0.521c-0.582-0.85-1.127-3.032-1.256-3.921"/>
					<path style="fill:none;stroke:#5DB753;stroke-width:1.0912;" d="M330.881,16.542c-3.959-0.638-7.068-0.985-10.597-0.647
						c-6.183,0.59-4.062,3.517,0.761,4.214c1.59,0.229,15.271,1.291,13.409-1.857C333.665,16.905,332.735,17.027,330.881,16.542"/>
				</g>
			</g>
			<path style="fill:#FCCF3D;stroke:#5DB753;stroke-width:1.0912;" d="M343.27,164.407c0,0-10.224,3.262-18.144,3.262
				c-7.919,0-19.167-3.262-19.167-3.262V99.609c0,0,10.219,2.785,19.167,2.785c8.944,0,18.144-2.785,18.144-2.785V164.407z"/>
		</g>
		<g>
			<path style="fill:#FCCF3D;" d="M249.634,177.289c0,6.945-16.748,6.945-29.962,6.945c-13.215,0-28.668-0.99-28.748-6.945
				c-0.073-5.955,0-83.123,0-83.123s6.269,4.476,29.262,4.476c22.991,0,29.448-4.476,29.448-4.476S249.634,170.342,249.634,177.289z
				"/>
			<path style="fill:#FFFFD9;" d="M249.489,86.501c0,0.997,0.145,4.219,0.145,7.665c0,3.17-18.792,4.476-29.448,4.476
				c-9.824,0-21.57-2.019-26.883-3.359c-3.429-0.866-2.379-7.636-2.379-8.781c0-2.92,13.112-5.286,29.288-5.286
				C236.379,81.215,249.489,83.581,249.489,86.501z"/>
			<g>
				<path style="fill:none;stroke:#FFFFFF;stroke-width:1.0497;" d="M197.163,111.613c0,0.547-0.486,0.979-1.082,0.979
					c-0.595,0-1.076-0.432-1.076-0.979c0-0.545,0.481-0.979,1.076-0.979C196.677,110.635,197.163,111.068,197.163,111.613z"/>
				<path style="fill:none;stroke:#FFFFFF;stroke-width:1.0497;" d="M199.808,144.163c0,0.546-0.479,0.99-1.077,0.99
					c-0.598,0-1.08-0.444-1.08-0.99c0-0.538,0.482-0.979,1.08-0.979C199.329,143.185,199.808,143.625,199.808,144.163z"/>
				<path style="fill:none;stroke:#FFFFFF;stroke-width:1.0497;" d="M219.323,151.225c0,0.545-0.483,0.985-1.081,0.985
					c-0.596,0-1.08-0.44-1.08-0.985c0-0.539,0.484-0.979,1.08-0.979C218.84,150.245,219.323,150.686,219.323,151.225z"/>
				<path style="fill:none;stroke:#FFFFFF;stroke-width:1.0497;" d="M209.812,142.402c0,0.539-0.485,0.979-1.081,0.979
					c-0.595,0-1.079-0.44-1.079-0.979c0-0.549,0.484-0.983,1.079-0.983C209.326,141.419,209.812,141.854,209.812,142.402z"/>
				<path style="fill:none;stroke:#FFFFFF;stroke-width:1.0497;" d="M225.89,138.087c0,0.539-0.483,0.979-1.08,0.979
					c-0.596,0-1.077-0.44-1.077-0.979c0-0.538,0.481-0.979,1.077-0.979C225.406,137.108,225.89,137.549,225.89,138.087z"/>
				<path style="fill:none;stroke:#FFFFFF;stroke-width:1.0497;" d="M198.237,124.943c0,0.544-0.479,0.978-1.074,0.978
					c-0.598,0-1.082-0.434-1.082-0.978c0-0.54,0.484-0.974,1.082-0.974C197.758,123.97,198.237,124.403,198.237,124.943z"/>
				<path style="fill:none;stroke:#FFFFFF;stroke-width:1.0497;" d="M226.085,122.979c0,0.546-0.483,0.991-1.075,0.991
					c-0.598,0-1.083-0.445-1.083-0.991c0-0.537,0.485-0.973,1.083-0.973C225.602,122.006,226.085,122.441,226.085,122.979z"/>
				<ellipse style="fill:none;stroke:#FFFFFF;stroke-width:1.0497;" cx="226.967" cy="110.238" rx="1.078" ry="0.979"/>
				<path style="fill:none;stroke:#FFFFFF;stroke-width:1.0497;" d="M216.771,108.969c0,0.538-0.486,0.979-1.078,0.979
					c-0.595,0-1.08-0.441-1.08-0.979c0-0.543,0.485-0.983,1.08-0.983C216.285,107.985,216.771,108.426,216.771,108.969z"/>
				<path style="fill:none;stroke:#FFFFFF;stroke-width:1.0497;" d="M205.888,131.223c0,0.539-0.483,0.985-1.077,0.985
					c-0.596,0-1.083-0.446-1.083-0.985c0-0.538,0.487-0.977,1.083-0.977C205.404,130.246,205.888,130.685,205.888,131.223z"/>
				<path style="fill:none;stroke:#FFFFFF;stroke-width:1.0497;" d="M213.34,120.241c0,0.539-0.483,0.985-1.079,0.985
					c-0.595,0-1.079-0.446-1.079-0.985c0-0.538,0.484-0.983,1.079-0.983C212.856,119.258,213.34,119.703,213.34,120.241z"/>
				<path style="fill:none;stroke:#FFFFFF;stroke-width:1.0497;" d="M220.986,130.047c0,0.538-0.481,0.979-1.079,0.979
					c-0.595,0-1.079-0.441-1.079-0.979c0-0.54,0.484-0.985,1.079-0.985C220.505,129.062,220.986,129.507,220.986,130.047z"/>
				<path style="fill:none;stroke:#FFFFFF;stroke-width:1.0497;" d="M203.795,104.557c0,0.535-0.482,0.977-1.075,0.977
					c-0.598,0-1.08-0.441-1.08-0.977c0-0.548,0.482-0.983,1.08-0.983C203.312,103.573,203.795,104.009,203.795,104.557z"/>
			</g>
			<path style="fill:none;stroke:#FFFFFF;stroke-width:1.0497;" d="M207.735,178.769c0.527-0.131,1.066,0.238,1.207,0.814
				c0.144,0.578-0.166,1.152-0.693,1.284c-0.532,0.129-1.07-0.237-1.208-0.812C206.899,179.479,207.203,178.902,207.735,178.769z"/>
			<path style="fill:none;stroke:#FFFFFF;stroke-width:1.0497;" d="M238.698,168.402c0.527-0.126,1.079,0.231,1.222,0.812
				c0.142,0.579-0.174,1.154-0.699,1.285c-0.528,0.129-1.067-0.235-1.208-0.814C237.865,169.105,238.177,168.534,238.698,168.402z"
				/>
			<path style="fill:none;stroke:#FFFFFF;stroke-width:1.0497;" d="M240.885,147.769c0.521-0.131,1.066,0.231,1.208,0.812
				c0.145,0.578-0.167,1.154-0.693,1.28c-0.525,0.131-1.072-0.232-1.214-0.808C240.045,148.471,240.361,147.899,240.885,147.769z"/>
			<path style="fill:none;stroke:#FFFFFF;stroke-width:1.0497;" d="M234.594,159.115c0.525-0.131,1.069,0.237,1.21,0.815
				c0.143,0.575-0.164,1.151-0.691,1.282c-0.532,0.128-1.071-0.235-1.213-0.812C233.757,159.822,234.063,159.246,234.594,159.115z"
				/>
			<path style="fill:none;stroke:#FFFFFF;stroke-width:1.0497;" d="M239.777,121.656c0.527-0.13,1.065,0.233,1.211,0.814
				c0.143,0.576-0.17,1.152-0.696,1.284c-0.522,0.126-1.066-0.235-1.208-0.815C238.942,122.36,239.251,121.788,239.777,121.656z"/>
			<path style="fill:none;stroke:#FFFFFF;stroke-width:1.0497;" d="M220.416,174.533c0.528-0.132,1.067,0.231,1.208,0.811
				c0.146,0.578-0.161,1.151-0.688,1.283c-0.527,0.128-1.066-0.236-1.208-0.814C219.583,175.232,219.896,174.662,220.416,174.533z"
				/>
			<path style="fill:none;stroke:#FFFFFF;stroke-width:1.0497;" d="M241.81,104.691c0.526-0.131,1.071,0.231,1.213,0.81
				c0.141,0.577-0.169,1.155-0.699,1.286c-0.526,0.13-1.059-0.238-1.203-0.817C240.978,105.394,241.283,104.82,241.81,104.691z"/>
			<path style="fill:none;stroke:#FFFFFF;stroke-width:1.0497;" d="M239.992,135.667c0.528-0.128,1.069,0.236,1.212,0.812
				c0.144,0.58-0.17,1.153-0.69,1.282c-0.526,0.131-1.065-0.234-1.207-0.81C239.165,136.371,239.472,135.798,239.992,135.667z"/>
			<path style="fill:none;stroke:#FFFFFF;stroke-width:1.0497;" d="M200.463,160.364c0.527-0.129,1.068,0.238,1.212,0.816
				c0.143,0.575-0.164,1.148-0.69,1.278c-0.526,0.132-1.071-0.231-1.214-0.812C199.627,161.073,199.936,160.492,200.463,160.364z"/>
			<path style="fill:none;stroke:#FFFFFF;stroke-width:1.0497;" d="M224.683,165.604c0.525-0.129,1.071,0.232,1.212,0.809
				c0.146,0.579-0.172,1.156-0.698,1.285c-0.52,0.13-1.065-0.235-1.207-0.815C223.848,166.306,224.154,165.73,224.683,165.604z"/>
			<path style="fill:none;stroke:#FFFFFF;stroke-width:1.0497;" d="M212.233,160.995c0.528-0.13,1.071,0.239,1.214,0.814
				c0.142,0.575-0.173,1.15-0.697,1.281c-0.524,0.132-1.069-0.233-1.211-0.811C211.397,161.704,211.708,161.125,212.233,160.995z"/>
			<path style="fill:none;stroke:#FFFFFF;stroke-width:1.0497;" d="M226.274,154.716c0.523-0.132,1.064,0.229,1.207,0.813
				c0.144,0.576-0.168,1.151-0.691,1.277c-0.522,0.131-1.069-0.231-1.213-0.807C225.435,155.417,225.749,154.842,226.274,154.716z"
				/>
			<path style="fill:none;stroke:#FFFFFF;stroke-width:1.0497;" d="M199.292,174.025c0.522-0.133,1.064,0.23,1.207,0.808
				c0.141,0.577-0.171,1.155-0.691,1.282c-0.532,0.133-1.072-0.232-1.214-0.812C198.452,174.724,198.763,174.154,199.292,174.025z"
				/>
			<path style="fill:none;stroke:#A8D0DA;stroke-width:2.3785;stroke-linecap:round;stroke-linejoin:round;" d="M191.198,74.452
				c-0.274,44.14-0.274,67.089-0.274,102.31c0,7.473,13.875,7.473,28.748,7.473c14.48,0,29.962,0.289,29.962-6.945
				c0-28.81,0-74.173-0.262-102.837"/>
			
				<ellipse style="fill:none;stroke:#A8D0DA;stroke-width:2.3785;stroke-linecap:round;stroke-linejoin:round;" cx="220.285" cy="74.452" rx="29.087" ry="5.489"/>
			<path style="fill:none;stroke:#A8D0DA;stroke-width:6.3426;stroke-linejoin:round;" d="M249.634,99.696
				c5.395-1.947,7.577-3.97,14.994-3.151c15.394,1.695,15.374,39.814,7.885,55.498c-4.679,9.801-19.62,11.23-22.879,10.024"/>
			<path style="fill:none;stroke:#A8D0DA;stroke-width:1.5857;stroke-linecap:round;stroke-linejoin:round;" d="M190.924,107.892
				c7.92-3.68,5.082,30.64,5.34,35.81c0.646,12.961-0.465,26.774-0.535,38.4"/>
			<path style="fill:none;stroke:#A8D0DA;stroke-width:1.5857;stroke-linecap:round;stroke-linejoin:round;" d="M201.598,183.17
				c0-9.554,1.072-18.589,1.072-28.285c0-11.303-2.234-22.091,0.414-33.087c0.672-2.799,2.02-12.145,6.417-11.778
				c3.041,0.25,4.956,8.294,5.428,10.697c2.305,11.779,0.635,25.87,0.009,37.871c-0.419,8.131-1.062,18.158-1.062,25.115"/>
			<path style="fill:none;stroke:#A8D0DA;stroke-width:1.5289;stroke-linecap:round;stroke-linejoin:round;" d="M220.772,179.593
				c0-12.467,1.201-24.41,0.516-37.048c-0.56-10.321-2.413-23.37,2.662-32.328c10.073-2.894,7.627,61.691,7.627,69.376"/>
			<path style="fill:none;stroke:#A8D0DA;stroke-width:1.5857;stroke-linecap:round;stroke-linejoin:round;" d="M245.895,182.102
				c0-10.673,0.245-49.094-0.536-58.732c-0.391-4.794-6.103-24.376-9.632-11.18c-2.448,9.146-0.852,18.132,0.025,27.22
				c1.382,14.226,1.522,30.87,1.604,43.761"/>
		</g>
	</g>
</g>
</svg>
