<?xml version="1.0" encoding="iso-8859-1"?>
<!-- Generator: Adobe Illustrator 13.0.0, SVG Export Plug-In . SVG Version: 6.00 Build 14948)  -->
<!DOCTYPE svg PUBLIC "-//W3C//DTD SVG 1.1//EN" "http://www.w3.org/Graphics/SVG/1.1/DTD/svg11.dtd">
<svg version="1.1" xmlns="http://www.w3.org/2000/svg" xmlns:xlink="http://www.w3.org/1999/xlink" x="0px" y="0px" width="378px"
	 height="151.273px" viewBox="0 0 378 151.273" style="enable-background:new 0 0 378 151.273;" xml:space="preserve">
<g id="fond">
	<g>
		<rect y="11.273" style="fill:#FFFFFF;" width="378" height="140"/>
	</g>
</g>
<g id="Layer_2">
	<path style="fill:none;stroke:#777768;stroke-width:1.1228;stroke-linecap:round;stroke-linejoin:round;" d="M172.757,81.324
		c9.353-9.389,4.994-28.909-9.728-43.631c-14.723-14.723-34.523-18.695-43.817-9.355l-2.245,2.255
		c-9.311,9.357-5.413,29.311,9.238,44.047c14.65,14.78,34.129,19.125,43.487,9.768L172.757,81.324z"/>
	<path style="fill:none;stroke:#777768;stroke-width:1.1228;stroke-linecap:round;stroke-linejoin:round;" d="M188.741,97.277
		c-9.324-9.273,2.879-35.604-23.44-61.857c-16.304-16.304-38.333-20.604-49.511-9.371l-1.194,1.199
		c-11.132,11.187-6.878,33.346,9.347,49.671c26.132,26.304,52.41,14.15,61.714,23.422"/>
	<polygon style="fill:#FFFFFF;stroke:#777768;stroke-width:1.1228;stroke-linecap:round;stroke-linejoin:round;" points="
		223.314,131.721 220.197,134.84 184.823,99.512 187.959,96.391 	"/>
	<path style="fill:#FFFFFF;stroke:#777768;stroke-width:1.1228;stroke-linecap:round;stroke-linejoin:round;" d="M231.823,137.731
		c0.949,0.95,0.949,2.485,0,3.436l-2.517,2.519c-0.948,0.948-2.484,0.948-3.434,0l-24.792-24.792c-0.947-0.949-0.947-2.485,0-3.434
		l2.518-2.519c0.947-0.948,2.484-0.948,3.434,0L231.823,137.731z"/>
	<g>
		<g>
			<defs>
				<path id="SVGID_1_" d="M172.757,81.324c9.353-9.389,4.994-28.909-9.728-43.631c-14.723-14.723-34.523-18.695-43.817-9.355
					l-2.245,2.255c-9.311,9.357-5.413,29.311,9.238,44.047c14.65,14.78,34.129,19.125,43.487,9.768L172.757,81.324z"/>
			</defs>
			<clipPath id="SVGID_2_">
				<use xlink:href="#SVGID_1_"  style="overflow:visible;"/>
			</clipPath>
			
				<line style="clip-path:url(#SVGID_2_);fill:none;stroke:#777768;stroke-width:1.1228;stroke-linecap:round;stroke-linejoin:round;" x1="150.376" y1="5.594" x2="94.43" y2="61.792"/>
			
				<line style="clip-path:url(#SVGID_2_);fill:none;stroke:#777768;stroke-width:1.1228;stroke-linecap:round;stroke-linejoin:round;" x1="145.358" y1="0.562" x2="89.397" y2="56.758"/>
			
				<line style="clip-path:url(#SVGID_2_);fill:none;stroke:#777768;stroke-width:1.1228;stroke-linecap:round;stroke-linejoin:round;" x1="160.44" y1="15.659" x2="104.459" y2="71.856"/>
			
				<line style="clip-path:url(#SVGID_2_);fill:none;stroke:#777768;stroke-width:1.1228;stroke-linecap:round;stroke-linejoin:round;" x1="170.505" y1="25.724" x2="114.475" y2="81.98"/>
			
				<line style="clip-path:url(#SVGID_2_);fill:none;stroke:#777768;stroke-width:1.1228;stroke-linecap:round;stroke-linejoin:round;" x1="180.577" y1="35.789" x2="124.491" y2="92.056"/>
			
				<line style="clip-path:url(#SVGID_2_);fill:none;stroke:#777768;stroke-width:1.1228;stroke-linecap:round;stroke-linejoin:round;" x1="190.7" y1="45.853" x2="134.507" y2="102.121"/>
			
				<line style="clip-path:url(#SVGID_2_);fill:none;stroke:#777768;stroke-width:1.1228;stroke-linecap:round;stroke-linejoin:round;" x1="185.631" y1="40.821" x2="129.498" y2="97.089"/>
			
				<line style="clip-path:url(#SVGID_2_);fill:none;stroke:#777768;stroke-width:1.1228;stroke-linecap:round;stroke-linejoin:round;" x1="195.738" y1="50.886" x2="139.514" y2="107.154"/>
			
				<line style="clip-path:url(#SVGID_2_);fill:none;stroke:#777768;stroke-width:1.1228;stroke-linecap:round;stroke-linejoin:round;" x1="200.77" y1="55.916" x2="144.52" y2="112.184"/>
			
				<line style="clip-path:url(#SVGID_2_);fill:none;stroke:#777768;stroke-width:1.1228;stroke-linecap:round;stroke-linejoin:round;" x1="155.407" y1="10.626" x2="99.451" y2="66.822"/>
			
				<line style="clip-path:url(#SVGID_2_);fill:none;stroke:#777768;stroke-width:1.1228;stroke-linecap:round;stroke-linejoin:round;" x1="175.538" y1="30.755" x2="119.482" y2="87.024"/>
			
				<line style="clip-path:url(#SVGID_2_);fill:none;stroke:#777768;stroke-width:1.1228;stroke-linecap:round;stroke-linejoin:round;" x1="165.473" y1="20.691" x2="109.467" y2="76.908"/>
			
				<line style="clip-path:url(#SVGID_2_);fill:none;stroke:#777768;stroke-width:1.1228;stroke-linecap:round;stroke-linejoin:round;" x1="89.818" y1="56.337" x2="144.939" y2="111.763"/>
			
				<line style="clip-path:url(#SVGID_2_);fill:none;stroke:#777768;stroke-width:1.1228;stroke-linecap:round;stroke-linejoin:round;" x1="94.851" y1="51.306" x2="149.953" y2="106.73"/>
			
				<line style="clip-path:url(#SVGID_2_);fill:none;stroke:#777768;stroke-width:1.1228;stroke-linecap:round;stroke-linejoin:round;" x1="104.879" y1="41.24" x2="160.018" y2="96.667"/>
			
				<line style="clip-path:url(#SVGID_2_);fill:none;stroke:#777768;stroke-width:1.1228;stroke-linecap:round;stroke-linejoin:round;" x1="114.894" y1="31.176" x2="170.084" y2="86.602"/>
			
				<line style="clip-path:url(#SVGID_2_);fill:none;stroke:#777768;stroke-width:1.1228;stroke-linecap:round;stroke-linejoin:round;" x1="124.909" y1="21.111" x2="180.152" y2="76.484"/>
			
				<line style="clip-path:url(#SVGID_2_);fill:none;stroke:#777768;stroke-width:1.1228;stroke-linecap:round;stroke-linejoin:round;" x1="134.925" y1="11.048" x2="190.277" y2="66.402"/>
			
				<line style="clip-path:url(#SVGID_2_);fill:none;stroke:#777768;stroke-width:1.1228;stroke-linecap:round;stroke-linejoin:round;" x1="129.917" y1="16.08" x2="185.209" y2="71.435"/>
			
				<line style="clip-path:url(#SVGID_2_);fill:none;stroke:#777768;stroke-width:1.1228;stroke-linecap:round;stroke-linejoin:round;" x1="139.934" y1="6.015" x2="195.315" y2="61.368"/>
			
				<line style="clip-path:url(#SVGID_2_);fill:none;stroke:#777768;stroke-width:1.1228;stroke-linecap:round;stroke-linejoin:round;" x1="144.939" y1="0.982" x2="200.349" y2="56.337"/>
			
				<line style="clip-path:url(#SVGID_2_);fill:none;stroke:#777768;stroke-width:1.1228;stroke-linecap:round;stroke-linejoin:round;" x1="99.871" y1="46.274" x2="154.986" y2="101.7"/>
			
				<line style="clip-path:url(#SVGID_2_);fill:none;stroke:#777768;stroke-width:1.1228;stroke-linecap:round;stroke-linejoin:round;" x1="119.901" y1="26.145" x2="175.114" y2="81.552"/>
			
				<line style="clip-path:url(#SVGID_2_);fill:none;stroke:#777768;stroke-width:1.1228;stroke-linecap:round;stroke-linejoin:round;" x1="109.885" y1="36.21" x2="165.049" y2="91.634"/>
		</g>
	</g>
	<path style="fill:none;stroke:#777768;stroke-width:1.1228;stroke-linecap:round;stroke-linejoin:round;" d="M216.861,84.243
		c9.341,9.34,28.855,4.994,43.579-9.785c14.721-14.736,18.692-34.636,9.356-43.975l-2.256-2.256
		c-9.359-9.357-29.311-5.44-44.035,9.283c-14.721,14.723-19.067,34.241-9.708,43.646L216.861,84.243z"/>
	<path style="fill:none;stroke:#777768;stroke-width:1.1228;stroke-linecap:round;stroke-linejoin:round;" d="M200.929,100.177
		c9.273-9.272,35.531,2.862,61.784-23.441c16.302-16.324,20.603-38.459,9.372-49.692l-1.2-1.2
		c-11.186-11.186-33.346-6.911-49.65,9.394c-26.252,26.252-14.098,52.601-23.37,61.873"/>
	<polygon style="fill:#FFFFFF;stroke:#777768;stroke-width:1.1228;stroke-linecap:round;stroke-linejoin:round;" points="
		166.412,134.733 163.291,131.612 198.691,96.282 201.814,99.402 	"/>
	<path style="fill:#FFFFFF;stroke:#777768;stroke-width:1.1228;stroke-linecap:round;stroke-linejoin:round;" d="M160.4,143.241
		c-0.948,0.949-2.485,0.949-3.433,0l-2.519-2.521c-0.948-0.948-0.948-2.484,0-3.434l24.792-24.792c0.953-0.947,2.498-0.947,3.451,0
		l2.531,2.521c0.953,0.949,0.953,2.485,0,3.435L160.4,143.241z"/>
	<g>
		<g>
			<defs>
				<path id="SVGID_3_" d="M216.861,84.243c9.341,9.34,28.855,4.994,43.579-9.785c14.721-14.736,18.692-34.636,9.356-43.975
					l-2.256-2.256c-9.359-9.357-29.311-5.44-44.035,9.283c-14.721,14.723-19.067,34.241-9.708,43.646L216.861,84.243z"/>
			</defs>
			<clipPath id="SVGID_4_">
				<use xlink:href="#SVGID_3_"  style="overflow:visible;"/>
			</clipPath>
			
				<line style="clip-path:url(#SVGID_4_);fill:none;stroke:#777768;stroke-width:1.1228;stroke-linecap:round;stroke-linejoin:round;" x1="292.537" y1="61.792" x2="236.339" y2="5.594"/>
			
				<line style="clip-path:url(#SVGID_4_);fill:none;stroke:#777768;stroke-width:1.1228;stroke-linecap:round;stroke-linejoin:round;" x1="297.57" y1="56.758" x2="241.374" y2="0.562"/>
			
				<line style="clip-path:url(#SVGID_4_);fill:none;stroke:#777768;stroke-width:1.1228;stroke-linecap:round;stroke-linejoin:round;" x1="282.475" y1="71.856" x2="226.277" y2="15.659"/>
			
				<line style="clip-path:url(#SVGID_4_);fill:none;stroke:#777768;stroke-width:1.1228;stroke-linecap:round;stroke-linejoin:round;" x1="272.409" y1="81.98" x2="216.212" y2="25.724"/>
			
				<line style="clip-path:url(#SVGID_4_);fill:none;stroke:#777768;stroke-width:1.1228;stroke-linecap:round;stroke-linejoin:round;" x1="262.344" y1="92.056" x2="206.147" y2="35.789"/>
			
				<line style="clip-path:url(#SVGID_4_);fill:none;stroke:#777768;stroke-width:1.1228;stroke-linecap:round;stroke-linejoin:round;" x1="252.279" y1="102.121" x2="196.083" y2="45.853"/>
			
				<line style="clip-path:url(#SVGID_4_);fill:none;stroke:#777768;stroke-width:1.1228;stroke-linecap:round;stroke-linejoin:round;" x1="257.313" y1="97.089" x2="201.116" y2="40.821"/>
			
				<line style="clip-path:url(#SVGID_4_);fill:none;stroke:#777768;stroke-width:1.1228;stroke-linecap:round;stroke-linejoin:round;" x1="247.245" y1="107.154" x2="191.045" y2="50.886"/>
			
				<line style="clip-path:url(#SVGID_4_);fill:none;stroke:#777768;stroke-width:1.1228;stroke-linecap:round;stroke-linejoin:round;" x1="242.218" y1="112.184" x2="185.981" y2="55.916"/>
			
				<line style="clip-path:url(#SVGID_4_);fill:none;stroke:#777768;stroke-width:1.1228;stroke-linecap:round;stroke-linejoin:round;" x1="287.505" y1="66.822" x2="231.309" y2="10.626"/>
			
				<line style="clip-path:url(#SVGID_4_);fill:none;stroke:#777768;stroke-width:1.1228;stroke-linecap:round;stroke-linejoin:round;" x1="267.375" y1="87.024" x2="211.178" y2="30.755"/>
			
				<line style="clip-path:url(#SVGID_4_);fill:none;stroke:#777768;stroke-width:1.1228;stroke-linecap:round;stroke-linejoin:round;" x1="277.441" y1="76.908" x2="221.243" y2="20.691"/>
			
				<line style="clip-path:url(#SVGID_4_);fill:none;stroke:#777768;stroke-width:1.1228;stroke-linecap:round;stroke-linejoin:round;" x1="241.795" y1="0.982" x2="186.402" y2="56.337"/>
			
				<line style="clip-path:url(#SVGID_4_);fill:none;stroke:#777768;stroke-width:1.1228;stroke-linecap:round;stroke-linejoin:round;" x1="246.828" y1="6.015" x2="191.468" y2="61.37"/>
			
				<line style="clip-path:url(#SVGID_4_);fill:none;stroke:#777768;stroke-width:1.1228;stroke-linecap:round;stroke-linejoin:round;" x1="256.894" y1="16.08" x2="201.536" y2="71.435"/>
			
				<line style="clip-path:url(#SVGID_4_);fill:none;stroke:#777768;stroke-width:1.1228;stroke-linecap:round;stroke-linejoin:round;" x1="266.954" y1="26.145" x2="211.602" y2="81.552"/>
			
				<line style="clip-path:url(#SVGID_4_);fill:none;stroke:#777768;stroke-width:1.1228;stroke-linecap:round;stroke-linejoin:round;" x1="277.021" y1="36.21" x2="221.666" y2="91.634"/>
			
				<line style="clip-path:url(#SVGID_4_);fill:none;stroke:#777768;stroke-width:1.1228;stroke-linecap:round;stroke-linejoin:round;" x1="287.085" y1="46.273" x2="231.731" y2="101.699"/>
			
				<line style="clip-path:url(#SVGID_4_);fill:none;stroke:#777768;stroke-width:1.1228;stroke-linecap:round;stroke-linejoin:round;" x1="282.052" y1="41.24" x2="226.697" y2="96.667"/>
			
				<line style="clip-path:url(#SVGID_4_);fill:none;stroke:#777768;stroke-width:1.1228;stroke-linecap:round;stroke-linejoin:round;" x1="292.12" y1="51.307" x2="236.763" y2="106.734"/>
			
				<line style="clip-path:url(#SVGID_4_);fill:none;stroke:#777768;stroke-width:1.1228;stroke-linecap:round;stroke-linejoin:round;" x1="297.15" y1="56.337" x2="241.797" y2="111.763"/>
			
				<line style="clip-path:url(#SVGID_4_);fill:none;stroke:#777768;stroke-width:1.1228;stroke-linecap:round;stroke-linejoin:round;" x1="251.858" y1="11.046" x2="196.506" y2="66.401"/>
			
				<line style="clip-path:url(#SVGID_4_);fill:none;stroke:#777768;stroke-width:1.1228;stroke-linecap:round;stroke-linejoin:round;" x1="271.985" y1="31.176" x2="216.633" y2="86.602"/>
			
				<line style="clip-path:url(#SVGID_4_);fill:none;stroke:#777768;stroke-width:1.1228;stroke-linecap:round;stroke-linejoin:round;" x1="261.924" y1="21.111" x2="206.566" y2="76.484"/>
		</g>
	</g>
</g>
<g id="Layer_3">
	<g>
		<defs>
			<circle id="SVGID_5_" cx="151.336" cy="111.898" r="9.875"/>
		</defs>
		<clipPath id="SVGID_6_">
			<use xlink:href="#SVGID_5_"  style="overflow:visible;"/>
		</clipPath>
		
			<circle style="clip-path:url(#SVGID_6_);fill:#FFFFFF;stroke:#777768;stroke-width:1.1228;stroke-linecap:round;stroke-linejoin:round;" cx="151.058" cy="111.898" r="9.875"/>
		
			<ellipse style="clip-path:url(#SVGID_6_);fill:#FFFFFF;stroke:#777768;stroke-width:1.1228;stroke-linecap:round;stroke-linejoin:round;" cx="151.058" cy="123.549" rx="7.034" ry="8.333"/>
		
			<ellipse style="clip-path:url(#SVGID_6_);fill:#FFFFFF;stroke:#777768;stroke-width:1.1228;stroke-linecap:round;stroke-linejoin:round;" cx="151.058" cy="101.914" rx="7.034" ry="8.333"/>
	</g>
	<g>
		<defs>
			<circle id="SVGID_7_" cx="233.451" cy="111.898" r="9.875"/>
		</defs>
		<clipPath id="SVGID_8_">
			<use xlink:href="#SVGID_7_"  style="overflow:visible;"/>
		</clipPath>
		
			<circle style="clip-path:url(#SVGID_8_);fill:#FFFFFF;stroke:#777768;stroke-width:1.1228;stroke-linecap:round;stroke-linejoin:round;" cx="233.174" cy="111.898" r="9.875"/>
		
			<ellipse style="clip-path:url(#SVGID_8_);fill:#FFFFFF;stroke:#777768;stroke-width:1.1228;stroke-linecap:round;stroke-linejoin:round;" cx="233.173" cy="123.549" rx="7.034" ry="8.333"/>
		
			<ellipse style="clip-path:url(#SVGID_8_);fill:#FFFFFF;stroke:#777768;stroke-width:1.1228;stroke-linecap:round;stroke-linejoin:round;" cx="233.173" cy="101.914" rx="7.034" ry="8.333"/>
	</g>
	
		<circle style="fill:none;stroke:#777768;stroke-width:1.1228;stroke-linecap:round;stroke-linejoin:round;" cx="151.058" cy="111.898" r="9.875"/>
	
		<circle style="fill:none;stroke:#777768;stroke-width:1.1228;stroke-linecap:round;stroke-linejoin:round;" cx="233.174" cy="111.898" r="9.875"/>
</g>
</svg>
