<?xml version="1.0" encoding="iso-8859-1"?>
<!-- Generator: Adobe Illustrator 13.0.0, SVG Export Plug-In . SVG Version: 6.00 Build 14948)  -->
<!DOCTYPE svg PUBLIC "-//W3C//DTD SVG 1.1//EN" "http://www.w3.org/Graphics/SVG/1.1/DTD/svg11.dtd">
<svg version="1.1" xmlns="http://www.w3.org/2000/svg" xmlns:xlink="http://www.w3.org/1999/xlink" x="0px" y="0px" width="540px"
	 height="200px" viewBox="0 0 540 200" style="enable-background:new 0 0 540 200;" xml:space="preserve">
<g id="Layer_2">
	<g>
		<rect style="fill:none;" width="540" height="200"/>
		<rect style="fill:#FFFFFF;" width="540" height="200"/>
	</g>
	<g>
	</g>
</g>
<g id="Layer_4">
	<g>
		<g>
			<path style="fill:#E80000;stroke:#FF0000;stroke-width:0.975;stroke-linejoin:round;" d="M263.357,45.59
				c-0.042-3.897-5.688-8.483-9.76-7.943c-4.167,0.556-6.644,5.977-7.406,9.785c0.75-3.733-12.523,1.208-14.114,4.43
				c-2.954,5.976-0.953,15.027,0.038,21.261c1.34,8.421,1.969,16.818,2.928,25.344c0.549,4.901,0.222,13.923,3.573,17.954
				c3.446,4.147,8.858,3.617,11.011-1.042c-0.807,11.459,16.419,11.243,21.368,3.157c1.271,5.958,5.514,10.899,11.414,4.84
				c5.736-5.882,5.428-18.325,6.467-25.949c1.261-9.288-0.159-30.85,0.336-34.497c0.794-5.89,6.069-18.055-11.284-12.108
				c8.105-13.482-17.115-13.738-13.952-5.366"/>
			<path style="fill:#147C2C;stroke:#147C2C;stroke-width:2.5276;" d="M259.289,53.465c-0.743-0.627-2.369-1.125-3.271-1.552
				c-1.163,1.455-1.277,2.752-0.629,4.531c3.211,0.145,4.421,3.019,7.409,2.483c1.569-0.281,3.802-3.292,4.856-4.321
				c-1.508-1.626-2.941-2.944-4.255-4.856c-2.458,0.924-5.736,2.088-6.822,1.545"/>
			<path style="fill:#147C2C;" d="M260.394,54.216c3.008-6.083,1.334-12.801-3.729-17.104c-0.546,0.241-1.271,0.565-1.797,0.826
				c1.235,3.462,5.25,8.938,3.681,16.623"/>
			<path style="fill:none;stroke:#FF0000;stroke-width:0.975;stroke-linecap:round;stroke-linejoin:round;" d="M249.599,116.212
				c0.181-6.272-0.988-13.157-2.62-19.3c-11.922-44.901-2.884-40.708,3.312-37.557"/>
			<path style="fill:none;stroke:#FF0000;stroke-width:0.975;stroke-linejoin:round;" d="M271.434,118.816
				c1.591-7.089-1.099-15.205-1.363-22.347c-0.188-4.953-0.991-9.842-1.337-14.781c-0.391-5.634,1.915-18.603-3.614-19.348"/>
		</g>
		<g>
			<path style="fill:#1B9531;stroke:#75BF1E;stroke-width:1.95;" d="M231.981,101.541c-1.797-1.34-89.476-36.325-91.19-37.481
				c-3.833,2.36-7.505,14.045-8.013,18.721c6.733,2.125,87.078,22.839,93.062,25.819"/>
			<path style="fill:#1B9531;stroke:#75BF1E;stroke-width:1.95;" d="M254.074,90.093c-2.37-0.819-7.229,24.614-9.655,23.991
				c-17.684-4.563-43.917-6.745-61.811-9.877c-17.41-3.046-38.626-4.402-54.871-11.37c1.308-3.868,0.788-8.38,3.554-11.621
				c3.332,1.081,6.806,0.906,10.223,1.597c14.203,2.885,55.982,14.4,70.373,16.718"/>
			<path style="fill:#1B9531;stroke:#75BF1E;stroke-width:1.95;" d="M237.87,94.528c-9.75-3.528-26.596-12.7-36.231-17.144
				c-7.146-3.295-15.969-8.271-23.178-10.466c-7.737-2.355-14.19-6.77-21.2-10.682c-5.11-2.855-9.88-3.897-10.293-9.047
				c-0.324-3.991,3.214-11.038,4.618-14.833c4.291,0.941,7.19,4.689,10.646,7.198c7.499,5.44,15.594,9.933,23.191,15.229
				c15.981,11.145,31.518,20.121,49.564,27.455c6.377,2.588,12.723,5.25,19.087,7.855"/>
			<path style="fill:#1B9531;stroke:#75BF1E;stroke-width:1.95;" d="M237.87,94.528c-0.635,0.474-87.415-43.313-88.114-42.384
				c-2.099,2.79-7.667,15.709-8.188,17.916c6.244,1.567,74.86,30.613,89.619,33.163"/>
			<path style="fill:#DDF2CA;stroke:#1B9531;stroke-width:1.95;" d="M252.505,89.447c14.879,6.088,31.438,12.523,47.138,16.431
				c14.415,3.589,39.743,2.245,35.487,19.621c-2.839,11.569-7.146,20.25-17.461,17.108c-3.824-1.165-14.422-6.526-17.455-8.712
				c-4.259-3.074-25.16-10.604-31.051-12.341c-15.902-4.682-25.347-7.483-25.833-7.654"/>
		</g>
		<g>
			<path style="fill:#1B9531;stroke:#75BF1E;stroke-width:1.95;" d="M322.197,97.152c1.696-1.459,86.768-42.386,88.399-43.66
				c3.979,2.09,8.448,13.496,9.28,18.124c-6.574,2.583-85.306,28.771-91.067,32.155"/>
			<path style="fill:#1B9531;stroke:#75BF1E;stroke-width:1.95;" d="M299.369,87.249c2.306-0.978,8.905,24.066,11.281,23.272
				c17.327-5.768,43.354-9.748,60.98-14.104c17.166-4.236,38.232-7.045,53.963-15.114c-1.572-3.771-1.362-8.305-4.345-11.349
				c-3.246,1.307-6.727,1.371-10.093,2.298c-13.968,3.853-54.855,18.212-69.052,21.514"/>
			<path style="fill:#1B9531;stroke:#75BF1E;stroke-width:1.95;" d="M315.84,90.563c9.486-4.195,25.661-14.501,34.967-19.596
				c6.901-3.778,15.358-9.352,22.406-12.035c7.549-2.879,13.691-7.73,20.415-12.113c4.9-3.201,9.588-4.568,9.642-9.734
				c0.048-4.001-3.967-10.79-5.624-14.48c-4.215,1.234-6.854,5.172-10.125,7.915c-7.107,5.94-14.876,10.981-22.092,16.786
				c-15.175,12.216-30.058,22.238-47.56,30.796c-6.181,3.022-12.329,6.112-18.5,9.148"/>
			<path style="fill:#1B9531;stroke:#75BF1E;stroke-width:1.95;" d="M315.84,90.563c0.663,0.424,84.226-49.221,84.991-48.343
				c2.283,2.638,8.724,15.146,9.403,17.309c-6.126,1.993-72.583,35.687-87.132,39.245"/>
			<path style="fill:#DDF2CA;stroke:#1B9531;stroke-width:1.95;" d="M300.894,86.498c-14.432,7.097-30.508,14.654-45.902,19.634
				c-14.136,4.573-39.499,4.967-34.056,22.013c3.63,11.348,8.518,19.71,18.599,15.863c3.735-1.423,13.942-7.495,16.816-9.89
				c4.037-3.36,24.369-12.304,30.124-14.444c15.546-5.768,24.775-9.21,25.249-9.41"/>
		</g>
		<g>
			<path style="fill:#E80000;stroke:#FF0000;stroke-width:1.8957;stroke-linejoin:round;" d="M351.601,97.875
				c-11.008-9.444-27.631,1.594-23.2,17.246c3.141,11.097,9.553,19.077,30.934,19.077c13.704,0,26.916-11.557,23.223-26.274
				c-2.823-11.241-23.474-18.323-32.5-12.367"/>
			<path style="fill:#147C2C;stroke:#147C2C;stroke-width:2.5276;" d="M348.514,95.556c0.889-3.58,4.084-7.353,1.073-10.929
				c0.902,3.022,0.289,6.129-0.34,9.113c1.902-2.074,4.339-3.587,7.031-4.481c1.28,1.043,3.478,3.162,4.367,4.632
				c-3.761-0.81-8.172-0.754-11.3,0.761c4.418-1.605,7.851,3.817,6.93,7.236c-3.82-3.919-8.229-10.72-13.247-3.555
				c1.661-1.728,3.183-4.015,4.646-5.695c-3.265-0.525-6.148-0.694-8.511-2.957c2.483,2.68,6.431,3.743,9.35,4.327"/>
		</g>
		<g>
			<path style="fill:#1B9531;stroke:#1B9531;stroke-width:2.5487;stroke-linecap:round;stroke-linejoin:round;" d="M266.39,104.28
				c-2.667-0.732-5.348-1.388-8.359-2.093c-7.59-1.782-12.256-6.124-12.99-14.381c1.048,9.51,9.77,26.602,15.47,32.912"/>
			<path style="fill:#4E3797;stroke:#4E3797;stroke-width:2.5487;stroke-linejoin:round;" d="M260.511,120.719
				c7.283,6.845,16.49,10.026,24.331,15.362c11.761,7.997,23.032,19.221,39.211,18.998c11.521-0.161,33.236-7.123,28.164-22.107
				c-4.408-13.031-20.904-26.548-34.996-27.563c-14.543-1.06-25.245,7.787-40.737,2.105c-3.69-1.35-6.879-2.348-10.094-3.233"/>
		</g>
		<g>
			<path style="fill:none;stroke:#DF8419;stroke-width:0.7828;stroke-linecap:round;stroke-linejoin:round;" d="M250.189,140.375
				c-1.518-2.179-0.549-3.923-0.003-6.523"/>
			<g>
				<path style="fill:#8ECC37;stroke:#169133;stroke-width:1.174;stroke-linejoin:round;" d="M204.72,103.661
					c0.241,0.246,0.717,0.867,0.978,1.067c-7.604-6.652-15.054-13.322-20.342-22.192c-5.796-9.727-4.367-22.125-1.356-32.603
					c-0.083,9.026-2.731,22.903,2.585,30.711c-2.624-2.479-4.644-5.034-5.831-8.613c1.785,1.615,2.521,4.27,3.093,6.619
					c-5.183-8.635-14.05-15.319-20.586-22.984c-2.604-3.055-6.832-11.673-11.265-11.986c3.319,5.615,7.975,10.601,12.247,15.606
					c4.475,5.244,10.43,8.62,15.019,13.409c-6.203-1.226-11.561-6.596-17.334-9.093c-4.548-1.967-9.159-2.893-14.044-3.574
					c-2.935-0.41-9.331-2.734-11.897-1.037c1.137,3.979,11.345,5.828,14.546,6.835c8.813,2.769,16.855,5.313,25.122,9.24
					c-11.415-3.252-25.026-7.771-36.403-1.644c8.483,0.96,20.44-5.429,27.599,0.915c-8.505-0.673-16.696-4.038-25.379-4.481
					c-4.38-0.224-8.687,0.54-13.05,0.31c10.801,7.714,27.488,3.905,39.521,9.35c8.026,3.629,17.328,9.785,23.617,16.089
					c-9.229-4.243-18.262-9.461-28.705-9.787c-7.228-0.227-14.578,1.259-21.825,1.48c-2.43,0.076-5.139-0.04-7.426,0.743
					c20.752-0.462,40.602,1.637,58.399,13.304c1.639-1.764,6.136,2.687,7.727,4.043c-1.064-1.191-1.83-2.663-3.052-3.773
					c1.918,2.262,5.952,5.765,8.309,7.235c-0.089-0.89,0.438-0.4-0.089-0.89"/>
				<path style="fill:#F7A01E;stroke:#F08E1C;stroke-width:1.174;stroke-linejoin:round;" d="M204.357,105.478
					c-3.919,4.04-7.368,9.864-4.627,15.193c1.381,2.7,6.714,5.686,8.991,7.73c8.209,7.394,82.968,20.656,86.535,17.087
					c2.017-2.014-64.297-35.968-71.258-42.926c-3.087-3.089-9.052-2.972-12.377-2.821c-3.509,0.159-3.925,2.264-6.082,4.653
					c-0.718,0.797-1.591,1.664-2.274,2.176"/>
				<path style="fill:none;stroke:#DF8419;stroke-width:0.7828;stroke-linecap:round;stroke-linejoin:round;" d="M208.721,128.401
					c-1.575-2.909-2.388-5.786-0.728-8.01"/>
				<path style="fill:none;stroke:#DF8419;stroke-width:0.7828;stroke-linecap:round;stroke-linejoin:round;" d="M214.542,131.301
					c-0.079-2.242,0.435-5.354,2.182-6.907"/>
				<path style="fill:none;stroke:#DF8419;stroke-width:0.7828;stroke-linecap:round;stroke-linejoin:round;" d="M219.996,133.483
					c-0.336-2.589,0.794-5.054,2.547-6.908"/>
				<path style="fill:none;stroke:#DF8419;stroke-width:0.7828;stroke-linecap:round;stroke-linejoin:round;" d="M226.544,135.306
					c-1.216-2.562,1.125-7.647,2.909-9.458"/>
				<path style="fill:none;stroke:#DF8419;stroke-width:0.7828;stroke-linecap:round;stroke-linejoin:round;" d="M233.093,137.123
					c-0.61-2.119-1.096-4.875,2.258-7.273"/>
				<path style="fill:none;stroke:#DF8419;stroke-width:0.7828;stroke-linecap:round;stroke-linejoin:round;" d="M256.367,122.215
					c-2.639-0.279-4.656,0.556-6.908,1.816"/>
				<path style="fill:none;stroke:#DF8419;stroke-width:0.7828;stroke-linecap:round;stroke-linejoin:round;" d="M250.548,118.572
					c-1.696,0.019-3.163-0.353-4.364,0.727"/>
				<path style="fill:none;stroke:#DF8419;stroke-width:0.7828;stroke-linecap:round;stroke-linejoin:round;" d="M242.297,114.211
					c-2.452,0.553-5.335,0.191-6.66,2.545"/>
				<path style="fill:none;stroke:#DF8419;stroke-width:0.7828;stroke-linecap:round;stroke-linejoin:round;" d="M220.726,110.934
					c1.207-2.896,5.733-5.72,8.848-4.332"/>
			</g>
			<g>
				<path style="fill:#8ECC37;stroke:#169133;stroke-width:1.12;stroke-linejoin:round;" d="M197.297,112.674
					c0.302,0.121,1.026,0.318,1.295,0.474c-8.642-4.278-17.242-8.406-26.97-9.821c-10.662-1.552-21.003,4.26-29.076,10.758
					c7.883-3.379,19.068-10.811,27.872-8.981c-3.141-1.405-6.129-2.255-9.706-1.989c2.077,0.982,4.678,0.657,6.943,0.303
					c-9.48-1.406-18.614-6.785-27.751-9.747c-3.64-1.18-12.754-1.75-14.667-5.552c6.148,0.874,12.233,3.152,18.205,5.091
					c6.247,2.029,11.408,6.044,17.302,8.347c-3.366-5.033-10.055-7.794-14.374-11.975c-3.411-3.297-5.926-7.029-8.327-11.092
					c-1.442-2.44-5.851-7.236-5.311-10.129c3.913-0.451,9.302,7.882,11.37,10.342c5.685,6.765,10.887,12.934,17.385,18.793
					c-7.069-8.886-16.063-19.249-14.898-31.545c3.979,7.138,2.798,20.043,11.005,24.039c-3.731-7.265-9.712-13.264-13.313-20.769
					c-1.811-3.784-2.734-7.868-4.548-11.638c10.753,6.708,13.583,22.843,22.803,31.474c6.148,5.755,14.984,11.713,22.835,14.952
					c-7.133-6.596-15.047-12.654-19.195-21.76c-2.865-6.301-4.281-13.337-6.765-19.816c-0.835-2.174-1.937-4.524-2.096-6.827
					c7.26,18.489,16.445,35.253,33.246,46.688c-0.937,2.097,4.625,4.431,6.403,5.339c-1.436-0.502-3.008-0.635-4.434-1.309
					c2.69,0.86,7.25,3.145,9.413,4.682c-0.812,0.248-0.193,0.54-0.812,0.248"/>
				<path style="fill:#F7A01E;stroke:#F08E1C;stroke-width:1.174;stroke-linejoin:round;" d="M198.755,111.689
					c2.09-4.944,5.92-10.128,11.605-9.666c2.877,0.233,7.46,3.848,10.1,5.105c9.512,4.542,48.776,65.694,46.966,70.157
					c-1.02,2.519-55.293-43.59-63.963-47.183c-3.85-1.594-5.952-6.904-7.048-9.896c-1.159-3.16,0.531-4.298,1.83-7.083
					c0.435-0.924,0.867-2.014,1.064-2.801"/>
				<path style="fill:none;stroke:#DF8419;stroke-width:0.7467;stroke-linecap:round;stroke-linejoin:round;" d="M220.459,107.129
					c-3.135-0.324-5.958,0.013-7.292,2.3"/>
				<path style="fill:none;stroke:#DF8419;stroke-width:0.7467;stroke-linecap:round;stroke-linejoin:round;" d="M225.15,111.207
					c-1.998,0.756-4.532,2.351-5.247,4.459"/>
				<path style="fill:none;stroke:#DF8419;stroke-width:0.7467;stroke-linecap:round;stroke-linejoin:round;" d="M229.082,115.222
					c-2.397,0.654-4.138,2.557-5.116,4.786"/>
				<path style="fill:none;stroke:#DF8419;stroke-width:0.7467;stroke-linecap:round;stroke-linejoin:round;" d="M233.097,120.338
					c-2.693-0.134-6.282,3.795-7.213,6.041"/>
				<path style="fill:none;stroke:#DF8419;stroke-width:0.7467;stroke-linecap:round;stroke-linejoin:round;" d="M237.107,125.454
					c-2.077,0.235-4.675,0.823-5.539,4.662"/>
				<path style="fill:none;stroke:#DF8419;stroke-width:0.7467;stroke-linecap:round;stroke-linejoin:round;" d="M232.648,151.478
					c-1.219-2.229-1.232-4.319-0.962-6.765"/>
				<path style="fill:none;stroke:#DF8419;stroke-width:0.7467;stroke-linecap:round;stroke-linejoin:round;" d="M227.307,147.68
					c-0.609-1.506-1.477-2.674-0.975-4.122"/>
				<path style="fill:none;stroke:#DF8419;stroke-width:0.7467;stroke-linecap:round;stroke-linejoin:round;" d="M220.434,141.988
					c-0.426-2.366-1.807-4.776-0.232-6.815"/>
				<path style="fill:none;stroke:#DF8419;stroke-width:0.7467;stroke-linecap:round;stroke-linejoin:round;" d="M209.588,124.14
					c-2.096,2.128-2.893,7.161-0.527,9.407"/>
			</g>
		</g>
	</g>
</g>
</svg>
