<?xml version="1.0" encoding="iso-8859-1"?>
<!-- Generator: Adobe Illustrator 13.0.0, SVG Export Plug-In . SVG Version: 6.00 Build 14948)  -->
<!DOCTYPE svg PUBLIC "-//W3C//DTD SVG 1.1//EN" "http://www.w3.org/Graphics/SVG/1.1/DTD/svg11.dtd">
<svg version="1.1" xmlns="http://www.w3.org/2000/svg" xmlns:xlink="http://www.w3.org/1999/xlink" x="0px" y="0px" width="378px"
	 height="140px" viewBox="0 0 378 140" style="enable-background:new 0 0 378 140;" xml:space="preserve">
<g id="fond">
	<g>
		<rect style="fill:none;" width="378" height="140"/>
		<rect style="fill:#FFFFFF;" width="378" height="140"/>
	</g>
</g>
<g id="persos">
	<g id="femme" style="display:none;">
		<g style="display:inline;">
			<path style="fill:#FFFFFF;stroke:#777768;stroke-width:1.192;stroke-linecap:round;stroke-linejoin:round;" d="M166.3,22.05
				c0,6.068-3.758,10.984-8.39,10.984c-4.629,0-8.387-4.916-8.387-10.984c0-6.065,3.757-10.982,8.387-10.982
				C162.542,11.068,166.3,15.985,166.3,22.05z"/>
			<path style="fill:none;stroke:#777768;stroke-width:1.192;stroke-linecap:round;stroke-linejoin:round;" d="M158.163,47.939
				c0.124,7.747,0.113,16.044-0.651,19.841c-1.196,5.995-3.593,3.601-2.398,11.985c1.505,10.508,5.592,19.174,4.398,24.365
				c-6.543,28.35-6.792,29.158-0.399,28.359"/>
			<path style="fill:none;stroke:#777768;stroke-width:1.192;stroke-linecap:round;stroke-linejoin:round;" d="M157.91,33.432
				c-0.008,1.896,0.057,4.798,0.13,8.148"/>
			<path style="fill:#FFFFFF;stroke:#777768;stroke-width:1.192;stroke-linecap:round;stroke-linejoin:round;" d="M162.916,44.827
				c0,1.873-1.521,3.4-3.395,3.4s-3.394-1.527-3.394-3.4c0-1.877,1.521-3.394,3.394-3.394S162.916,42.949,162.916,44.827z"/>
		</g>
	</g>
	<g id="homme">
		<path style="fill:#FFFFFF;stroke:#777768;stroke-width:1.1995;stroke-linecap:round;stroke-linejoin:round;" d="M205.796,73.215
			c0,1.061,0.864,1.916,1.918,1.916c1.053,0,1.914-0.855,1.914-1.916c0-1.059-0.861-1.91-1.914-1.91
			C206.66,71.305,205.796,72.156,205.796,73.215z"/>
		<g>
			<path style="fill:#FFFFFF;stroke:#777768;stroke-width:1.774;stroke-linecap:round;stroke-linejoin:round;" d="M198.796,15.268
				c0,5.93,3.668,10.735,8.196,10.735c4.521,0,8.193-4.806,8.193-10.735c0-5.927-3.672-10.732-8.193-10.732
				C202.464,4.535,198.796,9.341,198.796,15.268z"/>
			<path style="fill:none;stroke:#777768;stroke-width:1.774;stroke-linecap:round;stroke-linejoin:round;" d="M206.787,26.428
				c0.036,7.494-1.012,29.646,0.425,36.837c1.287,6.422,1.858,4.476,0.57,13.471c-1.606,11.266,2.012,22.258,2.402,27.961
				c1.992,29.555,2.172,28.812-4.687,27.957"/>
		</g>
	</g>
	<g id="homme_ecoute">
		<path style="fill:none;stroke:#777768;stroke-width:1.192;stroke-linecap:round;stroke-linejoin:round;" d="M158.187,73.215
			c0,1.061-0.864,1.916-1.918,1.916c-1.053,0-1.914-0.855-1.914-1.916c0-1.059,0.861-1.91,1.914-1.91
			C157.322,71.305,158.187,72.156,158.187,73.215z"/>
		<g>
			<path style="fill:#FFFFFF;stroke:#777768;stroke-width:1.192;stroke-linecap:round;stroke-linejoin:round;" d="M165.187,15.268
				c0,5.93-3.668,10.735-8.196,10.735c-4.521,0-8.193-4.806-8.193-10.735c0-5.927,3.672-10.732,8.193-10.732
				C161.519,4.535,165.187,9.341,165.187,15.268z"/>
			<path style="fill:none;stroke:#777768;stroke-width:1.192;stroke-linecap:round;stroke-linejoin:round;" d="M157.195,26.428
				c-0.036,7.494,1.012,29.646-0.425,36.837c-1.287,6.422-1.858,4.476-0.57,13.471c1.606,11.266-2.012,22.258-2.402,27.961
				c-1.992,29.555-2.172,28.812,4.687,27.957"/>
		</g>
	</g>
</g>
<g id="Layer_7">
</g>
<g id="medecin">
	<g style="display:none;">
		<g style="display:inline;">
			<rect x="227.603" y="7.797" style="fill:none;" width="60.14" height="60.145"/>
			<path style="fill:#406FA9;" d="M287.742,62.802c0,2.839-2.299,5.14-5.135,5.14H232.74c-2.836,0-5.138-2.3-5.138-5.14V12.937
				c0-2.839,2.302-5.14,5.138-5.14h49.867c2.836,0,5.135,2.3,5.135,5.14V62.802z"/>
			<path style="fill:none;stroke:#FFFFFF;stroke-width:1.8134;" d="M285.301,60.777c0,2.606-2.114,4.722-4.724,4.722h-45.81
				c-2.606,0-4.721-2.116-4.721-4.722V14.962c0-2.608,2.114-4.721,4.721-4.721h45.81c2.609,0,4.724,2.113,4.724,4.721V60.777z"/>
		</g>
		<path style="display:inline;fill:#FFFFFF;" d="M257.765,62.757c-2.788-0.005-4.824-0.026-7.53-0.026
			c-0.117-2.359,0.028-20.436-0.036-22.838c-0.052-1.723-1.894-1.723-1.894,0.212c0,3.548-0.02,12.865-0.088,15.826
			c-0.039,1.972-0.758,3.639-2.671,3.639c-2.018,0-2.69-1.588-2.69-3.668c0-2.323-0.133-20.319-0.133-21.462
			c0-2.666,1.214-4.74,3.732-4.74c0.998,0,6.101,0,11.219,0c5.119,0,10.222,0,11.219,0c2.519,0,3.733,2.074,3.733,4.74
			c0,1.143-0.133,19.14-0.133,21.462c0,2.081-0.674,3.668-2.694,3.668c-1.91,0-2.629-1.667-2.674-3.639
			c-0.059-2.961-0.084-12.277-0.084-15.826c0-1.935-1.84-1.935-1.892-0.212c-0.064,2.402,0.444,20.479,0.324,22.838
			c-2.707,0-4.74,0.021-7.531,0.026"/>
		<path style="display:inline;fill:#FFFFFF;" d="M263.641,19.836c0.113,0.452,0.176,0.923,0.176,1.404
			c0,3.278-2.746,5.936-6.143,5.936c-3.39,0-6.142-2.658-6.142-5.936c0-0.481,0.062-0.952,0.175-1.404
			c0.654-2.596,3.076-4.529,5.967-4.529C260.565,15.307,262.993,17.237,263.641,19.836"/>
		<path style="display:inline;fill:none;stroke:#406FA9;stroke-width:0.9067;stroke-linecap:round;stroke-linejoin:round;" d="
			M253.708,29.281c-2.665,2.993,0.79,5.767,2.068,8.35c1.447,2.919,1.661,5.619,1.619,8.305c0.042-2.686-1.208-6.1,1.279-8.174
			c2.233-1.865,5.964-5.289,3.27-8.34"/>
		<ellipse style="display:inline;fill:#406FA9;" cx="257.502" cy="46.3" rx="1.269" ry="0.879"/>
	</g>
	<g>
		<g>
			<path style="fill:#406FA9;" d="M287.637,62.867c0,2.832-2.295,5.129-5.128,5.129h-49.744c-2.832,0-5.128-2.297-5.128-5.129
				V13.124c0-2.832,2.296-5.128,5.128-5.128h49.744c2.833,0,5.128,2.296,5.128,5.128V62.867z"/>
			<path style="fill:none;stroke:#FFFFFF;stroke-width:1.809;" d="M285.2,60.848c0,2.601-2.109,4.71-4.712,4.71h-45.702
				c-2.602,0-4.711-2.109-4.711-4.71V15.145c0-2.602,2.109-4.711,4.711-4.711h45.702c2.603,0,4.712,2.109,4.712,4.711V60.848z"/>
		</g>
		<g>
			<g>
				<path style="fill:#FFFFFF;" d="M241.774,29.972c-0.834,2.124-1.896,5.705-1.956,7.859c-0.07,2.629,0.304,4.351,0.383,7.387
					c1.709,0,5.249,0,6.909,0c-0.101,4.107,4.923,4.107,4.729,0c5.121,0,10.306,0,15.148,0c-0.569,4.107,5.46,4.107,4.553,0
					c1.859,0,6.283,0,9.37,0c-0.138-2.491,0-4.731,0-7.653c0-2.92,0.63-4.804-0.521-5.955c-2.148-2.147-8.485-1.638-13.255-1.638
					C260.291,29.972,248.083,29.767,241.774,29.972"/>
				<g>
					<g>
						<path style="fill:#406FA9;" d="M245.143,38.189c0,0.171-0.139,0.31-0.311,0.31h-1.206c-0.172,0-0.312-0.139-0.312-0.31v-6.054
							c0-0.172,0.141-0.311,0.312-0.311h1.206c0.172,0,0.311,0.138,0.311,0.311V38.189z"/>
						<path style="fill:#406FA9;" d="M247.704,38.189c0,0.171-0.141,0.31-0.312,0.31h-1.206c-0.172,0-0.312-0.139-0.312-0.31v-6.054
							c0-0.172,0.141-0.311,0.312-0.311h1.206c0.171,0,0.312,0.138,0.312,0.311V38.189z"/>
					</g>
					<g>
						<path style="fill:#406FA9;" d="M245.143,42.757c0,0.098-0.139,0.178-0.311,0.178h-1.206c-0.172,0-0.312-0.08-0.312-0.178
							V39.31c0-0.098,0.141-0.178,0.312-0.178h1.206c0.172,0,0.311,0.08,0.311,0.178V42.757z"/>
						<path style="fill:#406FA9;" d="M247.704,42.757c0,0.098-0.141,0.178-0.312,0.178h-1.206c-0.172,0-0.312-0.08-0.312-0.178
							V39.31c0-0.098,0.141-0.178,0.312-0.178h1.206c0.171,0,0.312,0.08,0.312,0.178V42.757z"/>
					</g>
				</g>
				<path style="fill:#406FA9;" d="M255.735,36.823c0,0.232-0.189,0.419-0.419,0.419h-5.688c-0.232,0-0.421-0.187-0.421-0.419
					v-4.579c0-0.231,0.188-0.419,0.421-0.419h5.688c0.229,0,0.419,0.188,0.419,0.419V36.823z"/>
				<path style="fill:#406FA9;" d="M263.765,36.823c0,0.232-0.188,0.419-0.419,0.419h-5.687c-0.23,0-0.418-0.187-0.418-0.419v-4.579
					c0-0.231,0.188-0.419,0.418-0.419h5.687c0.231,0,0.419,0.188,0.419,0.419V36.823z"/>
				<path style="fill:#406FA9;" d="M271.796,36.823c0,0.232-0.188,0.419-0.419,0.419h-5.688c-0.23,0-0.418-0.187-0.418-0.419v-4.579
					c0-0.231,0.188-0.419,0.418-0.419h5.688c0.231,0,0.419,0.188,0.419,0.419V36.823z"/>
				<path style="fill:#406FA9;" d="M279.804,36.823c0,0.232-0.188,0.419-0.42,0.419h-5.688c-0.232,0-0.419-0.187-0.419-0.419v-4.579
					c0-0.231,0.187-0.419,0.419-0.419h5.039c1.344,0,1.068,1.238,1.068,1.47V36.823z"/>
				<path style="fill:#406FA9;" d="M241.833,36.953c0,0.232-0.188,0.419-0.42,0.419c0,0-2.031,0-1.8,0l0.31-2.339l0.736-3.079h0.745
					c0.23,0,0.429,0.188,0.429,0.419V36.953z"/>
			</g>
			<g>
				<line style="fill:none;stroke:#FFFFFF;stroke-width:0.9045;" x1="236.425" y1="30.963" x2="236.425" y2="45.301"/>
				<path style="fill:#FFFFFF;" d="M238.657,30.518c0,0.283-0.229,0.512-0.512,0.512h-3.44c-0.284,0-0.513-0.229-0.513-0.512v-2.312
					c0-0.283,0.229-0.513,0.513-0.513h3.44c0.283,0,0.512,0.23,0.512,0.513V30.518z"/>
			</g>
		</g>
	</g>
</g>
</svg>
