<?xml version="1.0" encoding="iso-8859-1"?>
<!-- Generator: Adobe Illustrator 13.0.0, SVG Export Plug-In . SVG Version: 6.00 Build 14948)  -->
<!DOCTYPE svg PUBLIC "-//W3C//DTD SVG 1.1//EN" "http://www.w3.org/Graphics/SVG/1.1/DTD/svg11.dtd">
<svg version="1.1" xmlns="http://www.w3.org/2000/svg" xmlns:xlink="http://www.w3.org/1999/xlink" x="0px" y="0px" width="378px"
	 height="140px" viewBox="0 0 378 140" style="enable-background:new 0 0 378 140;" xml:space="preserve">
<g id="fond">
	<rect style="fill:#FFFFFF;" width="378" height="140"/>
</g>
<g id="Layer_3">
	<g id="distance">
		<g>
			<g>
				
					<line style="fill:none;stroke:#999999;stroke-width:1.192;stroke-linecap:round;stroke-dasharray:7.1405,7.1405;" x1="162.157" y1="102.298" x2="228.263" y2="102.298"/>
				
					<line style="fill:none;stroke:#999999;stroke-width:1.192;stroke-linecap:round;" x1="94.486" y1="102.298" x2="162.157" y2="102.298"/>
				
					<line style="fill:none;stroke:#999999;stroke-width:1.192;stroke-linecap:round;" x1="94.486" y1="96.954" x2="94.486" y2="107.646"/>
			</g>
		</g>
	</g>
	<g id="distance_2_" style="display:none;">
		<g style="display:inline;">
			<g>
				
					<line style="fill:none;stroke:#777768;stroke-width:3.5702;stroke-linecap:round;stroke-dasharray:7.1405,7.1405;" x1="162.157" y1="80.166" x2="228.263" y2="80.166"/>
				
					<line style="fill:none;stroke:#777768;stroke-width:3.5702;stroke-linecap:round;" x1="94.486" y1="80.166" x2="162.157" y2="80.166"/>
				
					<line style="fill:none;stroke:#777768;stroke-width:3.5702;stroke-linecap:round;" x1="94.486" y1="74.822" x2="94.486" y2="85.514"/>
			</g>
		</g>
	</g>
	<g>
		<g>
			<g>
				<g>
					
						<line style="fill:none;stroke:#777768;stroke-width:2;stroke-linecap:round;" x1="93.633" y1="69.278" x2="151.95" y2="69.278"/>
					
						<line style="fill:none;stroke:#777768;stroke-width:2;stroke-linecap:round;" x1="93.633" y1="63.651" x2="93.633" y2="74.901"/>
				</g>
			</g>
		</g>
		<line style="fill:none;stroke:#777768;stroke-width:2;stroke-linecap:round;" x1="151.95" y1="63.651" x2="151.95" y2="74.901"/>
	</g>
	<g id="pharmacie">
		<g>
			<rect x="244.428" y="41.145" style="fill:none;" width="66.5" height="66.5"/>
			<path style="fill:#BBBFC6;" d="M310.928,101.963c0,3.14-2.544,5.683-5.684,5.683h-55.133c-3.14,0-5.684-2.543-5.684-5.683V46.829
				c0-3.14,2.544-5.684,5.684-5.684h55.133c3.14,0,5.684,2.544,5.684,5.684V101.963z"/>
			<path style="fill:#FFFFFF;" d="M309.646,100.9c0,3.017-2.443,5.466-5.462,5.466h-53.012c-3.019,0-5.465-2.449-5.465-5.466V47.893
				c0-3.017,2.446-5.465,5.465-5.465h53.012c3.019,0,5.462,2.448,5.462,5.465V100.9z"/>
		</g>
		<g>
			<rect x="270.326" y="53.178" style="fill:#6EB249;" width="14.703" height="42.438"/>
			<rect x="256.458" y="67.043" style="fill:#6EB249;" width="42.439" height="14.704"/>
		</g>
	</g>
	<g>
		<path style="fill:none;stroke:#777768;stroke-width:0.904;stroke-linecap:round;stroke-linejoin:round;" d="M90.1,12.864
			C85.531,3.366,103.231,5,98.01,13.579c-2.885,4.741-6.004,5.358-5.092,12.116"/>
		<path style="fill:none;stroke:#777768;stroke-width:0.904;stroke-linecap:round;stroke-linejoin:round;" d="M93.025,29.37
			l-0.372,1.342c0,0,0.751-1.294,0.255-1.207"/>
	</g>
</g>
<g id="homme_1_">
	<path style="fill:#FFFFFF;stroke:#777768;stroke-width:1.192;stroke-linecap:round;stroke-linejoin:round;" d="M76.85,74.687
		c0,0.99-0.809,1.791-1.794,1.791c-0.983,0-1.787-0.801-1.787-1.791c0-0.988,0.804-1.786,1.787-1.786
		C76.041,72.9,76.85,73.698,76.85,74.687z"/>
	<path style="fill:none;stroke:#777768;stroke-width:1.774;stroke-linecap:round;stroke-linejoin:round;" d="M83.391,20.529
		c0,5.542-3.428,10.032-7.659,10.032c-4.226,0-7.659-4.49-7.659-10.032c0-5.54,3.433-10.03,7.659-10.03
		C79.963,10.5,83.391,14.99,83.391,20.529z"/>
	<path style="fill:none;stroke:#777768;stroke-width:1.774;stroke-linecap:round;stroke-linejoin:round;" d="M75.923,30.96
		c-0.033,7.002,0.945,27.706-0.397,34.429c-1.203,6-1.737,4.183-0.533,12.585c1.5,10.529-1.88,20.805-2.247,26.134
		c-1.86,27.624-2.029,26.932,4.382,26.13"/>
</g>
</svg>
