<?xml version="1.0" encoding="iso-8859-1"?>
<!-- Generator: Adobe Illustrator 13.0.0, SVG Export Plug-In . SVG Version: 6.00 Build 14948)  -->
<!DOCTYPE svg PUBLIC "-//W3C//DTD SVG 1.1//EN" "http://www.w3.org/Graphics/SVG/1.1/DTD/svg11.dtd">
<svg version="1.1" xmlns="http://www.w3.org/2000/svg" xmlns:xlink="http://www.w3.org/1999/xlink" x="0px" y="0px" width="540px"
	 height="200px" viewBox="0 0 540 200" style="enable-background:new 0 0 540 200;" xml:space="preserve">
<g id="Layer_2">
	<g>
		<rect style="fill:none;" width="540" height="200"/>
		<rect style="fill:#FFFFFF;" width="540" height="200"/>
	</g>
</g>
<g id="Layer_5">
	<g>
		<g>
			<path style="fill:#D60043;" d="M484.105,90.023c0,2.002-11.8,3.62-26.363,3.62c-14.562,0-26.364-1.618-26.364-3.62
				c0-1.999,11.803-3.618,26.364-3.618C472.306,86.405,484.105,88.024,484.105,90.023z"/>
			<path style="fill:none;stroke:#F6F619;stroke-width:0.9247;" d="M432.165,89.145c2.863-1.573,13.229-2.739,25.577-2.739
				c12.744,0,23.37,1.239,25.834,2.891"/>
			<path style="fill:#FFF2D5;" d="M482.807,90.347c-3.103,11.247-10.708,21.972-23.912,21.972
				c-13.203,0-22.547-10.854-25.329-22.226c-3.965-16.228,12.126-42.131,25.329-42.131
				C472.099,47.962,487.251,74.249,482.807,90.347z"/>
			<g>
				<path style="fill:#CCCCCC;stroke:#E1E0E0;stroke-width:0.9734;" d="M455.287,141.031c-7.396-1.149-12.712-6.449-11.876-11.855
					c0.839-5.401,7.515-8.848,14.902-7.698c7.397,1.141,12.711,6.45,11.875,11.853C469.353,138.725,462.681,142.179,455.287,141.031
					z"/>
				<path style="fill:none;stroke:#E1E0E0;stroke-width:0.9734;" d="M511.249,135.504c1.443-0.348,3.143-0.416,4.92-0.142
					c4.652,0.724,8.075,3.534,7.646,6.273c-0.423,2.749-4.537,4.389-9.186,3.665c-1.943-0.298-3.675-0.965-4.996-1.84"/>
				<path style="fill:none;stroke:#E1E0E0;stroke-width:0.9734;" d="M511.557,135.434c-3.287,1.17-7.012,0.55-9.061,0.431
					c-4.685-0.259-9.503-0.807-14.169-1.533c-6.093-0.945-8.752-1.619-12.509-2.723c-3.021-0.879-6.158-4.229-8.584-5.902"/>
				<path style="fill:none;stroke:#E1E0E0;stroke-width:0.9734;" d="M510.254,143.84c-2.774-2.107-6.519-2.65-8.505-3.155
					c-4.54-1.167-9.301-2.104-13.97-2.825c-6.093-0.944-8.835-1.103-12.741-1.196c-3.147-0.072-7.156,2.171-9.971,3.026"/>
			</g>
			<g>
				<path style="fill:#D60043;stroke:#D60043;stroke-width:0.9734;stroke-linecap:round;stroke-linejoin:round;" d="M431.378,90.347
					c0,8.587,3.053,17.782,10.038,22.977c3.291,2.441,9.647,6.707,10.9,10.633c1.156,3.635,1.913,8.451-0.453,11.935
					c-2.6,3.823-6.006,5.422-7.569,9.76c-1.027,2.861,7.533,4.659,13.448,4.659c0,0,0-29.394,0-56.508
					c0,0-24.805-0.125-26.364-3.778"/>
			</g>
			<g>
				<path style="fill:#D60043;stroke:#D60043;stroke-width:0.9734;stroke-linecap:round;stroke-linejoin:round;" d="M484.108,90.347
					c0,8.587-3.049,17.782-10.041,22.977c-3.29,2.441-9.648,6.707-10.896,10.633c-1.157,3.635-1.914,8.451,0.452,11.935
					c2.601,3.823,6.003,5.422,7.569,9.76c1.031,2.861-7.533,4.659-13.45,4.659c0,0,0-29.394,0-56.508
					C457.742,93.802,481.889,93.875,484.108,90.347"/>
			</g>
			<path style="fill:none;stroke:#F6F619;stroke-width:0.9247;" d="M483.576,89.296c0.344,0.231,0.529,0.477,0.529,0.728
				c0,2.002-11.8,3.62-26.363,3.62c-14.562,0-26.364-1.618-26.364-3.62c0-0.304,0.274-0.602,0.787-0.879"/>
		</g>
		<g>
			<path style="fill:#FFFFFF;stroke:#878787;stroke-width:1.0678;" d="M206.138,99.445c0,28.528-42.528,51.654-94.995,51.654
				c-52.463,0-94.994-23.126-94.994-51.654c0-28.526,42.53-51.652,94.994-51.652C163.61,47.793,206.138,70.919,206.138,99.445z"/>
			<g>
				<path style="fill:#F8E48C;stroke:#F6C355;stroke-width:1.1534;" d="M171.44,99.729c0,19.472-28.855,35.262-64.454,35.262
					c-35.596,0-64.454-15.79-64.454-35.262c0-19.474,28.858-35.258,64.454-35.258C142.585,64.472,171.44,80.256,171.44,99.729z"/>
				<path style="fill:#F8E48C;stroke:#F6C355;stroke-width:1.3845;" d="M40.372,108.175c1.851-0.204,1.507-1.84,2.138-3.466
					c1.543-3.984,3.998-8.257,7.229-11.135c3.546-3.161,12.691-3.436,12.56-9.472c-6.929-0.872-11.36,8.653-13.782,13.621
					c-1.259,2.584-7.005,15.967,0.839,14.036c4.741-1.166,7.48-8.938,13.335-5.052c2.005,1.332,4.761,5.448,4.223,7.9
					c-4.378,0.199-18.765-2.895-17.826,4.698c1.321,10.637,13.884-0.47,17.205-1.686c3.053,5.065-1.232,11.618-6.595,6.504
					c-4.398-4.193-4.768-10.547-1.388-15.233c2.422-3.357,8.838-8.669,13.16-7.913c-1.093,2.567-6.621,10.322-9.407,7.309
					c-1.335-1.443-1.305-13.735,0.003-14.891c4.001,2.266,5.244,8.019,8.835,10.45c-2.786-6.194-9.034-13.117-14.089-17.405
					c6.314-3.103,12.246-8.534,16.594-14.056c-3.311,5.055-1.877,10.683,4.609,11.548c3.859,0.516,12.976-2.726,14.195,3.287
					c1.919,9.431-19.742,2.419-20.459-5.353c3.387,1.17,5.109,5.169,6.38,8.082c3.859-5.59,4.841-17.542,11.492-20.653
					c5.3-2.481,3.988,3.645,0.796,3.951c-0.439-8.753,19.911-3.779,23.767-1.87c-6.82,2.207-13.854,2.425-20.67,5.158
					c-2.436,0.975-18.52,7.649-13.167,11.141c2.25,1.468,10.355-1.397,12.608-1.893c4.478-0.991,10.358-2.928,14.994-1.651
					c2.944,0.812,7.464,5.141,3.297,7.787c-3.003-3.614-4.199-20.482-0.039-23.36c5.3-3.667,10.537,10.127,15.117,11.24
					c2.689-4.331-0.886-10.477-3.473-14.048c-4.639-6.404-11.689-10.138-19.527-6.91c-6.096,2.512-3.582,5.01,1.893,5.776
					c4.758,0.667,10.937-0.076,14.988-2.809c-1.748-0.06-3.443,0.645-4.847,1.741c1.953,6.241,16.441,9.638,22.224,9.413
					c9.083-0.35,3.109-9.202-3.251-7.54c-2.759,0.721-9.294,4.094-8.277,7.814c1.041,3.812,11,3.568,13.745,3.971
					c5.69,0.834,9.044,2.105,12.874,6.424c1.916,2.151,3.469,5.343,5.683,6.93c0.063-4.931-3.02-9.438-3.489-14.288
					c4.249,4.94,6.449,11.255,11.452,15.688c-1.506-6.624-8.915-15.096-14.062-19.281c2.436,6.118,14.456,11.379,14.02,18.489
					c-7.987,1.285-23.688-7.854-27.369,4.017c-0.819,2.634-0.268,8.446,3.711,8.327c5.776-0.165,3.238-9.619,2.501-12.516
					c1.903,5.315,8.162,20.122,15.483,19.619c0.502-1.49,0.476-3.076-0.139-4.504c-0.866,3.582-0.549,7.687-1.729,11.056
					c-5.841-1.015-10.371-3.671-16.59-1.794c-5.33,1.611-17.092,8.154-17.984,14.433c2.587,0.98,6.225-3.262,6.539-5.776
					c-2.395-1.42-7.784,1.147-10.444,1.454c-9.007,1.048-15.922-1.45-23.783-5.432c-4.427,3.647-1.962,11.01-4.13,15.797
					c-2.984-0.545-5.436-3.331-7.623-5.436c-2.388-2.307-11.696-14.049-15.529-12.872c-4.401,1.351-0.961,19.435,5.009,19.084
					c2.977-0.172,4.95-4.011,8.376-4.371c4.939-0.52,10.715,2.455,15.345,3.842c3.453,1.035,6.618,2.743,8.204-1.265
					c1.163-2.947-0.463-7.497-0.985-10.461c2.177,4.404,4.064,10.085,8.3,12.982c7.738,5.3,14.836-2.736,18.999-8.621
					c4.223-5.964,7.48-9.553,13.111-3.238c3.321,3.727,7.087,11.188,12.956,7.96c4.652-2.551,7.312-14.119,4.196-18.4
					c-4.874-6.681-20.71,4.655-25.829,7.101c-8.194,3.919-18.778,9.247-28.158,7.235c-8.462-1.813-10.081-8.756-12.945-15.671
					c-1.101,2.6-3.972,11.766-8.237,9.952c-2.892-1.229-2.865-20.281-1.494-22.742c2.29,2.405,2.445,7.939,5.772,9.449
					c4.378,1.989,7.16-3.599,8.205-7.289c1.209-4.278,1.285-11.146-3.562-6.529c-2.469,2.35-6.813,11.413-5.756,14.624
					c3.195-4.991,0.981-17.082-5.313-18.964c-2.042-0.607-0.201,1.994,1.319,2.397c4.289,1.146,10.748-4.115,13.458-7.011
					c0.612,4.091-3.261,9.578-4.666,13.282c4.398-4.593,6.754-16.374,13.184-18.436c7.933-2.545,17.413,24.214,23.469,17.418
					c1.847-2.075-0.803-6.731-1.874-8.339c-4.1-6.172-11.25-8-18.215-6.701c-8.505,1.587-17.063,5.941-24.566,10.093
					c-2.26,1.25-8.128,3.529-8.571,6.447c7.365-0.179,15.602-6.496,21.173-10.738c5.012-3.812,6.75-7.698,10.325-12.36
					c-2.864-0.466-5.719-1.252-8.578-1.834c-4.778-0.964-13.329-4.51-18.166-3.172c-4.649,1.285-8.354,11.445-9.153,15.827
					c5.359-1.4,8.637-9.668,13.352-12.526c-0.823,7.042-7.943,24.394-16.521,25.145c-7.316,0.637-9.249-10.643-14.462-13.738
					c2.845,7.562,14.697,6.043,20.555,4.358c10.693-3.076,24.104-9.837,27.673-21.27c5.478,4.838,5.131,14.311,12.301,18.432
					c7.345,4.218,11-1.021,15.38-5.822c0.122,6.265,4.087,27.033,15.061,20.558c-1.949,1.123-4.098,3.065-4.533,5.267
					c4.156,0.479,7.953-0.955,12.014-1.002c5.323-0.059,6.78,2.524,9.466,5.836c0.449-3.39-0.069-8.373,1.537-11.158
					c2.835,3.406,5.187,8.068,6.81,12.173c-3.658-4.475-7.748-8.595-11.495-12.998c-3.205-3.771-10.021-14.099-13.401-5.71
					c-1.659,4.12-1.738,10.88,4.074,11.312c3.631,0.274,5.756-3.073,8.511-4.741c-0.426,1.292-1.844,2.325-3.156,2.76
					c0.72-4.471,3.595-11.898,6.348-15.453c0.218,2.346-1.375,6.204-3.836,7.186c-4.834,1.919-5.683-3.764-7.223-7.077
					c-2.171-4.668-4.93-11.62-10.818-12.231c-3.932-0.409-10.481,3.054-12.192,6.691c4.352-0.066,17.548-8.634,15.741-14.204
					c-3.519-10.825-30.184,4.489-34.829,7.751c3.496-2.538,7.263-4.956,10.455-7.874"/>
				<path style="fill:#F8E48C;stroke:#F6C355;stroke-width:1.3845;" d="M41.812,93.782c1.807-0.872,1.949-4.406,1.751-6.412
					c1.306,1.985,8.918,11.884,9.109,4.686c1.834,2.553,5.039,6.048,5.575,9.124c-5.594-2.272-8.26-7.324-8.581-13.057
					c-0.221-3.919,0.737-12.311,6.592-9.119c9.665,5.28-9.328,13.569-12.223,16.44c-2.322,2.3-4.807,6.001-4.278,9.443
					c1.943-0.728,3.843-2.617,5.676-3.85c-0.611,1.457-1.367,3.017-1.437,4.59c4.292-0.822,12.727-2.254,12.271,5.174
					c-0.482,7.923-9.992,1.372-13.699-0.096c0.205,2.521,1.708,5.336,2.561,7.811c0.946-1.945,0.906-4.787,2.521-6.146
					c2.501,1.774,1.966,7.315,5.624,8.429c5.343,1.623,8.409-7.153,12.255-8.626c1.5,1.437,1.117,3.782,1.157,5.719
					c3.007-0.703,4.411-7.329,5.601-9.995c-1.503,4.712-9.642,21.11-13.55,8.624c-3.797-12.112,16.451-10.2,18.331-1.923
					c-2.444-2.386-4.88-6.123-4.252-9.694c3.149,3.803,1.494,10.646,1.805,15.249c3.033-5.121,1.668-12.619,4.985-18.028
					c0.562,7.184-0.707,19.243-7.546,23.327c0.01-3.764,9.727-21.725,14.466-16.263c3.463,3.995-5.343,16.527-6.869,20.277
					c3.297-1.91,6.294-5.924,10.417-5.756c0.208,3.777-4.027,6.926-4.364,10.729c3.146-0.621,14.462-4.863,11.33,2.897
					c-4.371,10.818-21.361-6.185-26-9.32c1.503,4.348,6.479,8.365,10.643,10.044c7.458,3.005,11.168-2.881,14.743-8.56
					c2.283-3.632,4.768-10.717,8.373-5.274c2.633,3.976,2.141,9.744,4.671,13.884c2.548-2.537,1.18-7.874,1.503-11.243
					c1.213,3.944,2.99,10.937-0.399,14.416c-6.708-0.989-3.859-13.798,2.058-15.074c7.332-1.586,10.626,4.583,14.403,8.555
					c0.278-3.654,0.05-7.643-1.437-11.042c-5.924,1.226-3.493,18.595,4.001,14.366c3.333-1.883,3.763-10.128,8.016-10.485
					c3.661-0.303,5.042,5.948,6.103,8.648c1.854-2.343,2.809-7.435,6.037-8.337c2.085,6.525-20.293,16.617-18.467,6.255
					c0.767-4.361,7.289-10.705,11.984-8.333c3.429,1.731,3.006,5.931,3.539,9.057c0.261-4.084-2.535-10.21-5.383-13.039
					c-1.087,3.566-0.826,12.048,2.94,14.057c2.3-4.606,6.271-9.496,11.842-9.714c1.652,3.685-3.245,7.173-5.006,10.091
					c4.503,0.197,8.766-5.237,13.623-5.739c4.031-0.417,6.827,2.312,10.511,3.179c-3.208-5.753-13.708-9.216-19.828-10.462
					c7.752-0.244,16.587,2.75,24.074-0.674c3.883-1.768,3.962-2.954,0.021-5.016c-4.792-2.508-11.548-0.892-16.363,0.654
					c4.019-0.528,7.289-4.342,11.02-5.947c-2.7,4.044-5.211,8.419-8.607,11.941c2.26-6.061,2.035-22.039,9.618-23.995
					c-1.748,2.994-15.063,12.902-18.312,8.991c-2.587-3.116,3.727-12.216,6.466-13.597c0.641,3.568-6.208,7.17-8.816,7.986
					c3.235-4.583,11.591-11.016,17.453-11.261c-1.785,4.352-19.217,8.872-22.574,4.985c-2.439-2.835-1.177-10.956-1.17-14.412
					c-0.003,4.415-0.456,9.378,0.641,13.673c0.542-7.281,1.93-18.33-0.238-25.131c-3.407,7.335-3.618,17.096-9.04,23.401
					c-3.935-2.169-2.57-10.519-3.489-14.36c-1.164,4.238-0.952,8.759-2.307,12.92c-4.183-2.176-7.679-5.192-11.508-7.895
					c1.269,4.826,6.142,9.716,4.966,15.045c-3.198-2.408-12.278-14.431-16.144-8.116c5.138,5.536,21.923-5.362,27.362-7.984
					c-4.742,3.463-9.245,7.161-13.606,11.103c11.409-3.337,19.706-14.749,29.347-20.881c-1.444,5.483-5.709,10.199-7.461,15.657
					c0.813-4.084,0.981-8.323,0.704-12.47c-0.244-3.675-1.937-8.264-0.72-11.818c4.695,1.232,7.87,9.555,12.946,8.789
					c2.316-11.175-27.62,0.792-31.271,1.395c3.562,1.198,9.129-2.855,12.599-4.217c-2.045,1.979-13.487,12.225-16.438,10.619
					c-2.848-1.556,0.403-10.349,0.119-12.779c-4.365,4.206-6.714,10.305-11.036,14.594c-1.837-2.521-1.391-12.774,1.784-14.099
					c1.536,3.641,0.026,8.965-1.748,12.245c-1.361-1.791-2.267-4.93-2.244-7.193c0.06-6.264,4.937-5.528,9.854-5.304
					c3.112,0.149,13.157,1.623,15.119-2.229c1.679-3.307-2.927-5.75-5.835-6.843c-3.462-1.309-6.545-0.367-8.597,2.907
					c-1.018,1.616-0.631,3.357-1.341,4.934c-1.583,3.521-4.593,5.196-8.981,4.156c-5.449-1.292-12.301-9.549-18.104-8.452
					c-2.498,0.473-3.836,2.878-2.23,5.2c-1.226-2.514-8.379-7.499-12.163-6.585c-4.124,0.991-5.432,8.254-5.006,11.81
					c1.349-2.147,2.65-6.232,5.683-6.054c1.966,0.116,7.253,7.203,7.914,8.968c-5.042,0.43-10.692-1.976-15.847-2.184
					c-4.979-0.199-10.031,0.39-14.848,1.655c1.85,4.51,6.688,7.504,10.537,10.193c-3.39-2.132-8.465-7.16-12.509-7.068
					c-0.308,3.427,2.97,6.912,6.453,6.837c6.787-0.143,13.114-9.916,16.178-14.796c2.395-3.823,6.473-14.767,11.26-8.591
					c1.966,2.534,3.242,8.244,3.556,11.488c0.73-1.612,0.588-4.477,1.966-5.842c3.159-3.122,3.419,0.905,6.522,2.211
					c7.53,3.158,13.897-10.051,17.931-14.225c1.2,4.153-0.845,11.336,5.475,11.359c5.188,0.021,13.524-7.305,17.562-10.407
					c-2.904,2.379-9.883,10.998-9.255,15.004c0.952,6.118,10.246-1.537,13.395-2.099c7.141-1.272,5.353,6.139,9.569,9.371
					c2.26,1.728,3.308,0.548,5.868,0.019c2.485,5.416-9.635,10.412-13.266,11.779c5.911,2.071,13.663,9.269,19.98,8.687
					c0.056-1.193-0.331-2.121-1.289-2.835c0.281,1.976,1.797,3.886,4.028,3.863c-3.516,4.194-8.832,7.549-12.718,11.587"/>
				<path style="fill:#F8E48C;stroke:#F6C355;stroke-width:1.3845;" d="M66.64,98.461c-0.819-0.696-1.493-1.03-2.601-0.65
					c-1.09,4.636,0.79,9.072,5.743,8.897c2.607-0.096,4.725-2.636,7.272-2.049c0.218,0.896,0.103,1.676-0.35,2.445
					c-6.126,1.166-8.422-7.562-3.611-10.785c2.121-1.424,5.693-2.13,5.481,1.422c-0.168,2.939-5.644,4.916-7.894,5.032
					c-2.26,0.119-7.322-0.932-7.593-3.972c-0.178-1.974,3.235-4.626,5.109-3.302c2.624,1.861-1.801,7.561-3.334,4.024
					c2.983-1.959,7.266,1.524,9.453,3.396c2.091,1.795,3.773,3.85,5.256,6.159c0.737,1.577,1.596,3.09,2.581,4.527
					c3.261,2.041,7.926-1.823,10.461-3.513c-0.023,1.97-1.064,3.621-1.55,5.524c1.662-7.236-4.087-18.427-10.831-9.959
					c2.515,1.956,6.348-1.981,9.523-0.445c2.825,1.368,3.7,5.221,3.582,8.02c-0.205,4.873-5.214,11.892-10.455,7.632
					c3.192,1.203,10.59,5.779,13.891,4.061c1.748-0.908,3.568-6.311,0.446-6.165c-3.545,0.162-2.277,8.495,1.714,8.594
					c10.33,0.265,1.897-29.664-12.502-20.972c3.347-1.741,8.488-9.36,11.855-7.556c4.275,2.292,7.041,14.138,2.528,16.956
					c-1.305-2.204-1.688-5.683-0.502-7.949c4.503,1.691,4.556,8.888,8.511,11.584c4.054,2.769,15.745,0.582,16.534-5.121
					c-5.144-2.303-12.926,5.329-17.376,7.48c4.421-7.395,14.72-9.882,13.253,1.639c0.945-2.221,4.88-8.795,8.753-9.152
					c4.157-0.38,8.924,6.162,13.365,3.522c5.581-3.312-4.064-8.541-8.323-5.258c-1.996,1.537-4.705,6.479-3.311,9.061
					c2.088,3.889,7.451,1.823,10.484,0.261"/>
				<path style="fill:#F8E48C;stroke:#F6C355;stroke-width:1.3845;" d="M100.825,94.865c-0.109-3.59,4.662-9.874,8.29-6.088
					c-1.917,0.146-6.298,1.242-4.679,4.629c1.484,3.096,5.951,0.772,7.877-0.281c0.271,2.832-1.526,4.645-2.524,7.074
					c0.182-2.082,0.218-8.683-2.558-8.913c-3.271-0.275-4.262,10.439-4.969,12.571c2.885-0.467,8.832-6.437,12.163-3.939
					c4.246,3.179-5.719,9.299-7.355,5.735c-0.912-1.988,3.027-14.358,5.908-13.724c4.312,0.951,1.804,9.221,2.94,11.884
					c2.296-3.872,0.42-11.091,6.387-7.166c3.191,2.091,10.438,5.025,12.384,7.934c-3.231,1.522-7.051,2.181-10.51,3.237
					c-2.326,0.711-5.842,2.769-8.214,2.399c-0.119-4.432-4.563-0.281-6.423,0.511c-5.551,2.373-5.535-1.697-5.079-6.759
					c2.072,4.018,3.761,12.268,9.731,12.036c8.204-0.313,10.015-12.295,13.712-17.178c2.22,2.755,1.278,12.457,4.579,13.708
					c3.747,1.425,4.349-5.257,5.412-7.444c1.038,2.304,0.668,9.242,4.012,9.959c3.733,0.8,5.171-5.829,6.05-8.214
					c1.857,3.119,1.12,18.701,6.777,10.353c1.765-2.607,1.229-5.506,4.097-2.872c1.536,1.414,2.838,5.955,3.459,7.891
					c-5.458-1.312-8.782,0.021-13.854,2.184c-2.293,0.984-4.513,2.319-4.778-1.354c-0.158,0.126-0.522,0.486-0.657,0.614
					c-0.245-0.911-0.737-2.164-0.836-3.033c0.135,0.287,0.297,0.565,0.396,0.873"/>
				<path style="fill:#F8E48C;stroke:#F6C355;stroke-width:1.3845;" d="M120.253,79.751c-1.256,0.825-2.376,1.833-3.585,2.726
					c0.317-1.801,1.831-6.711,4.345-5.264c1.949,1.123-0.582,9.893-2.997,10.124c-8.527,0.81,1.652-15.443,5.059-5.068
					c-0.277-1.149-0.918-1.871-1.685-2.719c-1.523,7.087,6.955,3.75,9.274,0.657c-0.155,1.414-1.649,5.511,0.056,6.363
					c2.025,1.018,4.689-1.867,5.759-3.234c0.584,1.348,0.294,3.757,1.378,5.068c3.132,3.807,12.671-1.034,9.397-4.774
					c-1.94,0.033-4.21,1.242-4.969,2.867c8.25-2.497-5.882-13.936-6.539-8.232c1.407,0.211,4.417-1.784,2.471-3.153
					c-2.551-1.787-4.361,3.39-4.262,4.993c3.862-0.259,2.64-5.948,0.264-7.533c-5.501-3.672-7.312,6.264-6.645,10.094
					c4.342-1.615,2.478-11.389-0.559-13.134c-2.141,1.688-3.294,6.901-1.447,8.766c1.05-1.936-2.62-5.24-4.636-5.032
					c-2.673,0.277-3.417,6.74-0.776,7.21c2.666,0.473,1.702-5.293-1.369-5.114c-1.923,0.108-2.851,2.15-2.134,3.674"/>
			</g>
		</g>
		<g>
			<path style="fill:#FFFFFF;stroke:#878787;stroke-width:1.0678;" d="M413.982,100.55c0,28.534-42.527,51.656-94.994,51.656
				c-52.463,0-94.994-23.122-94.994-51.656c0-28.527,42.531-51.65,94.994-51.65C371.455,48.899,413.982,72.022,413.982,100.55z"/>
			<path style="fill:#FFFFFF;stroke:#CCCCCC;stroke-width:0.3458;" d="M348.267,62.916c-6.385-3.35-18.603-1.777-24.312,2.446
				c-2.649,1.956-4.672,7.004-7.222,9.613c-2.281,2.334-5.046,3.026-6.729,6.246c-2.861,5.465-0.928,10.566,1.56,15.501
				c3.47,6.893,9.384,8.32,13.171,14.32c4.629,7.322,1.4,11.248,12.066,12.265c8.436,0.807,12.163-3.793,19.096-6.872
				c11.283-5.049,34.398-3.906,35.944-19.25c1.478-14.563-9.73-15.984-19.127-22.612C364.761,68.963,357.752,65.216,348.267,62.916"
				/>
			<g>
				<path style="fill:#F7DE1B;stroke:#CCCCCC;stroke-width:0.3509;" d="M326.244,85.311c-0.327-6.944,8.653-13.011,20.062-13.553
					c11.406-0.534,20.923,4.652,21.253,11.597c0.327,6.939-8.65,13.012-20.063,13.547C336.091,97.443,326.574,92.257,326.244,85.311
					z"/>
			</g>
			<path style="fill:#F7DE1B;stroke:#CCCCCC;stroke-width:0.3509;" d="M318.093,99.729c0.685-6.918-7.976-13.439-19.34-14.563
				c-11.365-1.123-21.132,3.568-21.816,10.486c-0.684,6.92,7.973,13.435,19.34,14.565
				C307.639,111.341,317.406,106.643,318.093,99.729z"/>
			<path style="fill:#FFFFFF;stroke:#CCCCCC;stroke-width:0.3458;" d="M278.226,92.032c-6.876,2.021-11.238,2.16-18.458,3.495
				c-6.853,1.269-16.484,1.764-8.544,10.487c4.282,4.691,11.482,9.602,17.162,12.305c5.832,2.782,15.856,3.092,22.877,3.8
				c3.519,0.35,7.055-0.912,10.296,0.072c3.965,1.203,6.374,4.144,11.202,4.856c9.506,1.408,12.162-2.181,14.574-10.249
				c1.305-4.361,3.086-5.108,6.072-8.168c2.307-2.366,3.609-5.267,1.458-7.791c-1.428-1.665-6.962-3.588-9.262-4.328
				c-3.021-0.978-7.719,0.481-9.13-2.604c4.368,7.526-1.023,10.302-4.48,11.445c-4.622,1.539-9.212,1.328-14.082,1.514
				c-5.749,0.218-13.92-0.979-18.751-5.459C275.747,98.243,277.003,95.163,278.226,92.032
				C278.464,91.417,277.99,92.039,278.226,92.032"/>
		</g>
	</g>
</g>
</svg>
