<?xml version="1.0" encoding="iso-8859-1"?>
<!-- Generator: Adobe Illustrator 13.0.0, SVG Export Plug-In . SVG Version: 6.00 Build 14948)  -->
<!DOCTYPE svg PUBLIC "-//W3C//DTD SVG 1.1//EN" "http://www.w3.org/Graphics/SVG/1.1/DTD/svg11.dtd">
<svg version="1.1" xmlns="http://www.w3.org/2000/svg" xmlns:xlink="http://www.w3.org/1999/xlink" x="0px" y="0px" width="540px"
	 height="200px" viewBox="0 0 540 200" style="enable-background:new 0 0 540 200;" xml:space="preserve">
<g id="Layer_2">
	<g>
		<rect style="fill:none;" width="540" height="200"/>
		<rect style="fill:#FFFFFF;" width="540" height="200"/>
	</g>
</g>
<g id="Layer_4">
	<g>
		<g>
			<g>
				<path style="fill:none;" d="M197.937,71.661c3.434-14.309,36.629-25.187,49.221-26.332c21.752-1.717,50.366,3.436,68.112,14.884
					c30.334,18.886-16.028,29.76-33.196,30.907c-24.612,1.717-66.396,1.717-82.993-18.885"/>
				<path style="fill:#BFCAE2;" d="M201.649,73.035c2.86-7.749,13.135-12.244,20.102-15.359c8.077-3.611,16.765-6.297,25.536-7.529
					c12.258-1.722,25.676,0.166,37.636,2.952c10.928,2.545,24.109,6.641,32.396,14.62c4.763,4.584,2.399,6.95-3.088,9.857
					c-7.114,3.771-15.329,5.577-23.19,6.999c-18.824,3.405-39.558,2.854-58.262-0.81c-10.861-2.127-22.247-6.369-29.464-15.122
					c-4.552-5.521-13.101,1.703-8.469,7.184c13.999,16.564,37.996,20.026,58.405,21.064c17.771,0.903,36.274,0.255,53.38-5.038
					c7.315-2.264,15.327-5.182,20.481-11.137c4.842-5.594,3.922-12.777-0.884-18.035c-7.295-7.979-19.036-12.646-29.056-15.914
					c-12.208-3.982-25.146-5.984-37.958-6.381c-13.528-0.419-25.658,2.079-38.208,7.098c-10.771,4.308-24.594,11.241-27.012,23.804
					C193.127,75.792,200.135,77.138,201.649,73.035L201.649,73.035z"/>
			</g>
		</g>
		<g>
			<g>
				<path style="fill:none;" d="M208.237,71.661c-0.57-1.147-0.57-1.72-0.57-2.864c15.452-13.165,41.207-20.032,61.812-17.171
					c6.866,1.146,49.794,10.301,44.074,22.896c-3.438,8.584-30.91,6.867-37.778,6.867c-15.454,0.57-27.475,6.298-42.357,1.145
					c-6.866-2.288-12.586-5.722-18.883-8.012"/>
				<path style="fill:#BFD7E9;" d="M212.139,69.808c-0.067-0.588-0.133-1.176-0.2-1.764c-0.488,1.354-0.977,2.708-1.465,4.062
					c15.81-12.952,39.459-19.794,59.718-16.058c12.052,2.223,25.851,5.464,36.094,12.416c4.07,2.762,4.202,4.864-0.814,6.418
					c-7.248,2.246-15.33,2.048-22.834,1.945c-9.585-0.133-18.782,1.123-28.274,2.435c-6.558,0.907-12.922,0.766-19.245-1.322
					c-6.502-2.147-12.45-5.699-18.816-8.191c-6.125-2.397-9.685,7.271-3.533,9.547c6.42,2.375,12.462,5.623,18.949,7.833
					c6.853,2.333,13.907,2.629,21.057,2.003c6.77-0.593,13.405-2.223,20.171-2.884c3.873-0.378,7.813-0.063,11.698-0.045
					c8.715,0.04,17.976-0.089,26.174-3.376c6.146-2.465,9.85-9.443,6.413-15.542c-3.481-6.181-11.332-9.393-17.586-11.856
					c-7.499-2.954-15.372-4.954-23.225-6.714c-20.378-4.571-43.155-0.771-61.29,9.563c-3.234,1.843-6.302,3.997-9.206,6.319
					c-3.162,2.528-2.854,5.36-1.588,8.92C206.207,78.777,213.91,75.004,212.139,69.808L212.139,69.808z"/>
			</g>
		</g>
		<g>
			<g>
				<path style="fill:none;" d="M242.007,59.639c-8.011,4.004-18.315,5.724-25.756,8.584c15.452,5.151,32.05,8.587,48.647,8.587
					c4.581,0,33.195,0,37.207-5.15c0.569-0.574,1.717-0.574,2.285-1.147v-0.573c-19.461-10.302-52.08-17.169-69.255-4.004
					c6.871,2.86,21.178,3.434,28.619,4.004c9.156,1.146,17.74,0,25.756,1.146"/>
				<path style="fill:#CCECF4;" d="M240.451,56.365c-8.357,3.556-17.727,4.369-26.26,7.524c-3.926,1.452-3.367,7.608,0.394,8.836
					c18.364,5.996,36.875,8.958,56.188,8.271c6.758-0.241,13.494-0.876,20.2-1.74c2.797-0.36,5.547-0.689,8.245-1.539
					c2.596-0.818,4.528-2.339,6.923-3.52c1.192-0.588,2.299-1.898,2.309-3.297c0.001-0.191,0.003-0.382,0.004-0.573
					c0.01-1.342-0.403-3.03-1.723-3.727c-21.488-11.351-53.113-20.224-74.657-4.272c-2.925,2.166-1.734,6.862,1.419,8.05
					c7.518,2.834,15.921,3.214,23.857,3.742c10.583,0.703,21.159,1.123,31.77,1.089c4.338-0.014,6.702-6.77,1.827-8.002
					c-5.045-1.275-10.134-1.164-15.309-1.196c-4.979-0.03-9.884-0.524-14.841-0.888c-7.928-0.583-16.53-0.711-24.019-3.625
					c0.473,2.683,0.946,5.367,1.419,8.05c8.844-6.406,20.539-6.749,30.988-5.676c11.519,1.182,23.471,4.628,33.789,9.896
					c-0.882-1.404-1.765-2.808-2.646-4.211c0.001,0.191,0.003,0.382,0.004,0.573c0.77-1.099,1.539-2.198,2.309-3.297
					c-1.967,1.004-3.3,2.223-5.157,3.017c-2.412,1.032-5.265,1.476-7.841,1.863c-6.239,0.938-12.636,0.782-18.929,0.796
					c-18.045,0.041-35.676-3.134-52.797-8.786c0.131,2.945,0.263,5.891,0.394,8.836c8.562-3.134,17.148-5.364,25.252-9.645
					C247.691,60.732,244.762,54.531,240.451,56.365L240.451,56.365z"/>
			</g>
		</g>
		<g>
			<g>
				<path style="fill:none;" d="M244.298,64.22c14.88,6.294,35.481-4.581,49.793,5.721"/>
				<path style="fill:#BFCAE2;" d="M243.165,67.282c7.317,3.558,15.265,3.29,23.195,2.691c4.613-0.349,9.182-0.695,13.809-0.404
					c4.824,0.304,8.212,2.431,12.369,4.566c4.843,2.489,7.681-4.819,4.118-7.858c-6.215-5.302-16.504-5.462-24.211-5.043
					c-8.834,0.48-18.341,2.465-27.014-0.076C241.34,59.96,239.407,65.455,243.165,67.282L243.165,67.282z"/>
			</g>
		</g>
		<g>
			<g>
				<path style="fill:none;" d="M212.243,77.385c-10.873-8.588-1.716-16.029,6.871-19.462c16.595-6.297,34.913-5.151,52.082-1.144"
					/>
				<path style="fill:#FFFFFF;" d="M214.066,75.839c-2.029-2.015-4.49-4.447-3.494-7.567c0.703-2.203,3.261-3.896,5.099-5.058
					c5.209-3.294,11.606-4.618,17.603-5.592c12.766-2.073,25.034,0.5,37.641,2.127c3.356,0.433,4.526-4.708,1.316-5.766
					c-15.896-5.241-35.271-5.495-51.172-0.159c-5.952,1.997-12.257,4.911-15.492,10.601c-3.381,5.948,0.535,11.389,5.304,14.919
					C213.023,80.936,216.017,77.775,214.066,75.839L214.066,75.839z"/>
			</g>
		</g>
		<g>
			<g>
				<path style="fill:none;" d="M237.429,77.956c17.168,9.731,40.063,6.297,58.378,2.864c5.725-0.574,18.315-2.864,21.75-8.015
					c8.014-11.448-14.309-21.75-24.614-19.463"/>
				<path style="fill:#FFFFFF;" d="M236.087,79.872c12.364,7.664,26.15,8.479,40.329,7.356c7.023-0.556,13.932-2.073,20.929-2.674
					c5.51-0.473,10.971-1.702,16.121-3.716c9.758-3.815,13.354-14.488,6.108-22.528c-6.453-7.161-18.942-11.464-28.21-8.289
					c-3.352,1.148-2.35,7.107,1.231,6.981c6.962-0.245,15.165,2.028,20.188,7.069c7.073,7.098-6.539,10.724-11.458,11.859
					c-20.046,4.626-43.688,8.934-63.084-0.169C235.826,74.628,233.845,78.481,236.087,79.872L236.087,79.872z"/>
			</g>
		</g>
		<path style="fill:none;stroke:#777768;stroke-width:3.29;stroke-linecap:round;stroke-linejoin:round;" d="M338.163,64.926
			c0,17.625-33.7,31.918-75.266,31.918c-41.567,0-75.265-14.293-75.265-31.918c0-17.625,33.697-31.916,75.265-31.916
			C304.463,33.01,338.163,47.301,338.163,64.926z"/>
		<path style="fill:none;stroke:#777768;stroke-width:2.4675;stroke-linecap:round;stroke-linejoin:round;" d="M338.163,64.926
			c1.913,8.791-1.154,10.151,3.437,18.176c6.625,11.599,11.791,24.511,11.791,39.785c0,33.034-31.634,59.812-85.059,59.812
			c-53.42,0-92.561-30.943-92.561-63.973c0-15.124,3.85-23.26,11.287-40.202c3.178-7.23,0.574-8.309,0.574-13.599"/>
		<g>
			<g>
				<path style="fill:#FFFFFF;stroke:#000000;stroke-width:0.8125;stroke-linejoin:round;" d="M298.573,161.195
					c-0.07-1.658-0.089-3.319-0.061-4.817c0.053-2.269,0.757-2.885,0.438-5.126"/>
				<path style="fill:none;stroke:#000000;stroke-width:0.8125;stroke-linejoin:round;" d="M288.868,151.968
					c0.707,2.239,1.352,4.486,2.381,6.663c1.727,3.591,1.621,7.48,1.122,11.435c1.757-0.152,5.452-0.942,7.116-1.384
					c-0.518-1.851-0.792-4.657-0.914-7.487"/>
				<path style="fill:#FFFFFF;stroke:#000000;stroke-width:0.8125;stroke-linecap:round;" d="M288.579,126.811
					c0.704,0.021,3.558-0.98,4.311-0.981c3.232,0.06,5.948,1.176,8.295,2.87"/>
				<path style="fill:none;stroke:#000000;stroke-width:0.8125;stroke-linecap:round;" d="M251.495,127.48
					c3.26-0.561,7.165,1.12,10.629,1.434c5.7,0.532,11.009-1.144,16.712-1.499c3.535-0.241,6.382-0.623,9.743-0.604"/>
				<path style="fill:#FFFFFF;stroke:#F9C6C3;stroke-width:0.8125;stroke-linecap:round;stroke-linejoin:round;" d="
					M276.604,153.555c1.752,2.336,0.895,4.935,5.12,6.041c0.344,1.408,0.047,3.189,1.375,4.271c1.37-0.98,2.359-2.866,1.208-3.843
					c0.194,1.005-0.179,3.749,2.389,3.118c0.668-1.284,0.236-2.461,0.018-3.692c0.11,0.553,0.531,2.472,1.128,2.778
					c2.246,1.102,1.193-2.098,1.06-2.804c0.144,0.989,0.238,2.087,1.289,2.713c1.188-0.922,1.305-2.82,0.473-3.322
					c0.185,1.2,1.019,2.199,1.128,3.392c2.312-0.511,0.205-2.265,0.465-3.32c0.313-1.323,1.103-1.294,1.837-2.716
					c1.046-2.071-0.209-4.145,0.136-6.164"/>
				<path style="fill:none;stroke:#000000;stroke-width:0.8125;" d="M252.083,152.905c2.423,0.773,4.653,1.477,7.327,1.604
					c3.499,0.171,7.306-0.297,10.614-0.381c2.036-0.035,6.094,0.437,7.526-0.731"/>
				<path style="fill:#FFFFFF;stroke:#000000;stroke-width:0.8125;stroke-linecap:round;stroke-linejoin:round;" d="
					M295.516,150.683c-2.817-2.343-5.318-4.563-6.367-8.095"/>
				<path style="fill:none;stroke:#000000;stroke-width:0.8125;stroke-linecap:round;stroke-linejoin:round;" d="M304.652,137.917
					c1.495,3.328-0.185,6.364,0.678,9.506c1.447,5.116,5.051,12.303,6.627,14.506c-1.811,1.209-5.01,2.324-7.803,2.592
					c1.308-3.645-1.592-10.208-3.757-12.563c-1.382-1.493-3.429-0.063-4.882-1.274"/>
				<path d="M264.142,129.016c-0.824,1.362-2.9,2.624-3.457,4.094c-0.575,1.541-0.103,3.262,1.883,3.857
					c0.739,0.213,1.527-0.229,2.376,0.015c1.045,0.286,1.658,1.171,2.384,1.739c1.34,1.058,3.083,2.217,5.246,1.69
					c1.996-0.513,1.686-1.792,2.717-2.877c1.01-1.088,2.906-1.179,4.067-2.115c2.03-1.641,0.766-7.128-1.634-7.918"/>
				<path d="M301.162,128.875c-1.793-1.28-4.645-2.774-7.354-2.99"/>
				<path d="M295.124,126.082c-0.031,1.88-0.288,6.314,0.983,8.211c0.996,1.452,2.853,1.863,3.72,3.486
					c0.795,1.485,0.91,2.835,2.782,3.63c2.092,0.876,3.01,0.773,3.488-1.179c0.305-1.256-4.55-11.047-4.936-11.355"/>
				<path d="M276.015,143.552c-3.965,1.02-7.544,4.223-1.635,5.728c-1.455,1.414-3.004,3.719,0.385,4.661
					c3.612,0.968,6.55-1.997,8.094-3.708c1.036-1.114,1.897-1.941,3.449-2.708c1.02-0.497,2.492-0.707,2.948-1.55
					c1.481-2.921-8.403-3.947-9.98-1.465"/>
				<path d="M244.294,129.625c-0.192-0.431-0.023,0.602,0.022,1.287c1.802,2.098,6.302,0.55,6.958-1.43
					c1.194-3.245-2.965-0.714-5.366-1.317C245.703,128.844,245.159,129.335,244.294,129.625"/>
				<path style="fill:none;stroke:#000000;stroke-width:0.8125;stroke-linejoin:round;" d="M239.665,135.894
					c-0.123-0.124-3.282,0.532-3.146,0.582c-0.913,1.856-0.16,5.507-0.417,7.555c-0.38,2.561-0.359,5.281-1.023,7.79
					c-1.269,5.031-5.99,9.166-7.634,13.733c1.44,0.527,6.706,1.986,8.19,2.271c0.342-2.384-0.756-4.005-0.058-5.816
					c0.893-2.337,1.487-4.481,3.506-6.678c0.719-0.772,2.882-1.506,3.019-2.977c-1.279-5.256-2.158-9.77-1.268-12.767
					c-1.563,4.865,1.926,12.398,1.806,17.438c-0.132,2.437-0.375,4.778-0.652,7.205c-0.184,1.532-0.059,3.879-1.734,5.445
					c2.021,0.758,6.252,1.096,8.076,1.641c-1.067-3.97-1.215-8.567,0.058-11.885c2.953-7.781,7.188-6.715,7.75-11.857"/>
				<path d="M247.857,145.306c0.032-1.495,0.634-3.423,2.742-3.074c8.338,1.156,3.921,3.347,7.195,4.966
					c3.272,1.5,5.43,3.076,3.145,6.135c-1.828,2.39-6.681-0.279-9.268-1c-2.151-0.568-3.544-0.354-4.457-2.072
					c-0.623-1.18-0.292-2.863,0.424-3.854"/>
				<path style="fill:#FFFFFF;stroke:#000000;stroke-width:0.8125;stroke-linecap:round;stroke-linejoin:round;" d="M231.98,122.948
					c-0.961-0.322-1.798-0.694-2.497-1.122"/>
				<path style="fill:none;stroke:#000000;stroke-width:0.8125;stroke-linecap:round;stroke-linejoin:round;" d="M245.01,127.964
					c9.45,2.437,11.213-6.862,8.702-10.631c-2.006,3.472-0.723,7.447-8.49,6.394"/>
				<path style="fill:none;stroke:#000000;stroke-width:0.8125;stroke-linecap:round;stroke-linejoin:round;" d="M230.904,122.542
					c-9.02-4.107-4.049-12.303,0.559-13.522c-0.861,3.87-3.794,6.761,3.023,10.757"/>
				<path style="fill:none;stroke:#000000;stroke-width:0.8125;stroke-linecap:round;stroke-linejoin:round;" d="M234.487,119.776
					c4.854,0.165,8.237,1.133,10.735,3.951"/>
				<path style="fill:#FFFFFF;stroke:#000000;stroke-width:0.8125;stroke-linecap:round;stroke-linejoin:round;" d="
					M231.394,122.005c-0.963,0.521-2.362,4.837-2.17,6.606c0.239,2.359-0.906,5.55-0.146,7.938c3.411,1.069,5.334,2.411,8.987,2.892
					c1.079-2.368,4.545-4.239,5.189-6.744c0.366-1.344,1.861-4.459,2.921-5.027"/>
				<path style="fill:#734608;" d="M243.865,127.645c-2.791-0.2-0.393,3.359,0.994,2.246
					C245.839,129.072,245.236,128.182,243.865,127.645"/>
				<path style="fill:#734608;" d="M232.013,123.476c2.297,1.592-1.997,2.796-2.313,1.081
					C229.5,123.322,230.584,123.028,232.013,123.476"/>
				<path style="fill:#FFFFFF;stroke:#000000;stroke-width:0.8125;" d="M230.766,135.202c-1.084,0.07-2.102,1.695,0.128,2.26
					c2.227,0.521,1.029-1.882-1.196-2.477"/>
				<path style="fill:#FFFFFF;stroke:#000000;stroke-width:0.8125;" d="M236.592,137.859c-1.853-0.967-2.544,1.03,0.552,1.535
					c0.495-0.576,0.002-1.03-0.892-1.644"/>
				<path d="M243.649,131.582c0.01,0.064-0.226-0.453-0.438-0.456c-1.175-0.811-2.069-2.456-3.801-2.807
					c-2.652-0.559-1.042,1.444-1.288,2.31c-0.196,0.615-0.977,0.622-1.229,1.187c-0.211,0.477,0.185,1.023,0.581,1.505
					c0.972,1.203,2.578,1.72,3.205,2.95"/>
				<path style="fill:none;stroke:#F0D036;stroke-width:0.8125;stroke-linecap:round;stroke-linejoin:round;" d="M235.66,138.356
					c4.756,4.397-12.396,0.706-4.752-1.673"/>
				<path style="fill:none;stroke:#000000;stroke-width:0.8125;stroke-linecap:round;stroke-linejoin:round;" d="M299.646,128.004
					c5.056-0.22,7.261,4.595,10.229,6.891c1.259,0.964,3.856,1.577,4.939,2.535c1.604,1.387,0.224,4.211,5.998,3.87
					c-1.785-1.482-7.225-1.585-6.969-4.488c1.367,1.415,4.838,1.252,5.714,2.319c-1.01-1.34-4.079-1.11-5.342-2.121
					c2.962-0.626,7.587-1.015,8.329,1.235c-2.341-0.166-4.068,0.076-6.504,0.147c1.324,0.618,1.749,0.996,2.195,2.137
					c-0.916-0.872,5.153,0.949,3.964,0.66c0.319,1.626-5.202,0.486-4.532-2.818c2.083,2.396,4.776,1.695,5.914,2.054
					c-1.091-0.606-3.103-0.904-4.176-1.436c0.604,0.004,3.295,0.378,4.284,0.387c-1.733-0.857-5.325-1.759-7.246-2.328
					c1.933-0.146,3.822,0.17,4.922,1.2"/>
			</g>
		</g>
		<g>
			<path style="fill:#E1E0E0;stroke:#C4C4C4;stroke-width:0.4895;" d="M362.986,22.76c-3.399-6.326-8.215-6.021-18.583-4.646
				c-9.364,1.247-20.827,15.84-26.938,23.013c-8.35,9.804-40.428,24.704-57.807,33.541l1.964,2.066"/>
			<path style="fill:#E1E0E0;stroke:#C4C4C4;stroke-width:0.4895;" d="M362.779,22.373c3.376,6.338,0.67,10.563-6.227,18.435
				c-6.243,7.092-24.748,8.539-34.095,9.642c-13.898,1.642-37.87,16.962-54.118,25.835l-6.718,0.449"/>
		</g>
	</g>
</g>
</svg>
