<?xml version="1.0" encoding="iso-8859-1"?>
<!-- Generator: Adobe Illustrator 13.0.0, SVG Export Plug-In . SVG Version: 6.00 Build 14948)  -->
<!DOCTYPE svg PUBLIC "-//W3C//DTD SVG 1.1//EN" "http://www.w3.org/Graphics/SVG/1.1/DTD/svg11.dtd">
<svg version="1.1" xmlns="http://www.w3.org/2000/svg" xmlns:xlink="http://www.w3.org/1999/xlink" x="0px" y="0px" width="378px"
	 height="140px" viewBox="0 0 378 140" style="enable-background:new 0 0 378 140;" xml:space="preserve">
<pattern  x="-81" y="170" width="538" height="200" patternUnits="userSpaceOnUse" id="New_Pattern_Swatch_3" viewBox="0 -200 538 200" style="overflow:visible;">
	<g>
		<polygon style="fill:none;" points="0,0 538,0 538,-200 0,-200 		"/>
		<polygon style="fill:#FFFFFF;" points="0,0 538,0 538,-200 0,-200 		"/>
	</g>
</pattern>
<g id="fond">
	<g>
		<rect style="fill:#FFFFFF;" width="378" height="140"/>
	</g>
</g>
<g id="comptoir">
	<g>
		<polygon style="fill:none;" points="83.006,133.989 354.344,133.989 357.344,52.292 86.006,52.292 		"/>
		<polyline style="fill:none;stroke:#3399FF;stroke-linecap:round;stroke-linejoin:round;" points="20.5,126.875 231.172,126.875 
			231.172,60.458 216.506,60.458 216.506,52.792 242.989,52.792 237.5,133.489 353.844,133.489 		"/>
	</g>
</g>
<g id="Layer_9">
	<g id="ceintre_9_">
		<path style="fill:none;stroke:#777768;stroke-width:0.7521;stroke-linecap:round;stroke-linejoin:round;" d="M161.55,14.772
			c-0.029-0.866-0.018-2.161,0.412-2.871c0.708-1.167,1.844-1.316,1.929-2.933c0.087-1.664-1.653-2.811-3.121-2.45
			c-0.039,0.01-0.076,0.021-0.112,0.033"/>
		<path style="fill:none;stroke:#777768;stroke-width:0.7521;stroke-linecap:round;stroke-linejoin:round;" d="M142.727,28.215
			c-0.666-3.238,16.14-13.443,18.823-13.443s20.231,10.901,19.51,13.443C180.027,29.725,143.038,29.725,142.727,28.215z"/>
	</g>
	<g id="pull_5_">
		<polygon style="fill:#336633;stroke:#4D4D4D;stroke-width:0.5;stroke-linecap:round;stroke-linejoin:round;" points="
			153.859,18.401 168.928,18.69 166.717,25.443 156.717,26.443 		"/>
		<path style="fill:#336633;stroke:#4D4D4D;stroke-width:0.5;stroke-linecap:round;stroke-linejoin:round;" d="M147.515,22.339
			c2.508-1.903,6.344-4.812,6.344-4.812s3.339,5.5,7.215,5.5s8.539-5.02,8.539-5.02l7.492,5.114c0,0,5.788,4.061,6.45,7.906
			s0.137,32.625,0.137,32.625l-6.871-0.479l-2.592-31.76l0.734,32.966l-26.877-0.229l0.809-33l-4.178,31.125h-6.125
			c0,0,1.5-30.875,2.25-32.875S145.007,24.242,147.515,22.339z"/>
	</g>
	<g id="housse_13_">
		<path style="fill:none;stroke:#CCCCCC;stroke-width:0.7521;stroke-linecap:round;stroke-linejoin:round;" d="M165.717,14.276
			l-7.5-0.125c0,0-17.375,10.875-18.625,14.875S136.98,89.4,136.98,89.4c1.125,2.375,1.5,3.25,3.75,3.25s36.612,0.188,39.174,0.188
			c2.562,0,2.812-0.062,3.75-3.75s2.688-54.062,0.938-59.562S165.717,14.276,165.717,14.276z"/>
		
			<line style="fill:none;stroke:#CCCCCC;stroke-width:0.7521;stroke-linecap:round;stroke-linejoin:round;" x1="160.186" y1="92.744" x2="161.55" y2="14.772"/>
	</g>
	<path style="fill:#B16600;" d="M162.719,15.432l-1.569-1.666h-0.81l-1.712,1.666v4.445c0,0.691,0.443,1.251,0.985,1.251h2.117
		c0.547,0,0.988-0.56,0.988-1.251V15.432z"/>
</g>
<g id="Layer_8">
	<g id="ceintre_6_">
		<path style="fill:none;stroke:#777768;stroke-width:0.7521;stroke-linecap:round;stroke-linejoin:round;" d="M165.005,14.919
			c-0.029-0.866-0.018-2.161,0.412-2.871c0.708-1.167,1.844-1.316,1.929-2.933c0.087-1.664-1.653-2.811-3.121-2.45"/>
		<path style="fill:none;stroke:#777768;stroke-width:0.7521;stroke-linecap:round;stroke-linejoin:round;" d="M147,29.795
			c-0.666-3.238,15.313-14.923,17.997-14.923s19.206,12.598,18.484,15.14C182.447,31.521,147.311,31.305,147,29.795z"/>
	</g>
	<g>
		<path style="fill:#D5312C;stroke:#777768;stroke-width:0.5;stroke-linecap:round;stroke-linejoin:round;" d="M157.955,17.669
			c0,0,1.546,6.257,6.257,6.257s6.607-6.257,6.607-6.257l2.103,2.369l-2.625,12.375l-13,0.375l-1.125-9.125L157.955,17.669z"/>
		<path style="fill:#D5312C;stroke:#777768;stroke-width:0.5;stroke-linecap:round;stroke-linejoin:round;" d="M164.499,93.696
			l13.583-0.084c0,0,0.765-4.662-0.752-14.538c-1.479-9.629-2.921-25.171-2.921-25.171l-0.5-2.833l2.443-15.782
			c-5.873-0.998-2.555-13.329-2.051-15.887l-3.482-1.732c0,0,2.783,12.244-5.717,12.244h-1.43c-8.5,0-5.717-12.244-5.717-12.244
			l-3.482,1.732c0.504,2.558,3.822,14.89-2.051,15.887l2.443,15.782l-0.5,2.833c0,0-1.443,15.542-2.921,25.171
			c-1.517,9.876-0.752,14.538-0.752,14.538l13.583,0.084H164.499z"/>
	</g>
	<g id="housse_11_">
		<path id="housse_12_" style="fill:none;stroke:#CCCCCC;stroke-width:0.7521;stroke-linecap:round;stroke-linejoin:round;" d="
			M168.538,14.121l-7.5-0.125c0,0-13.032,10.167-14.282,14.167c-1.143,3.656-1.591,6.642-2.955,63.083
			c1.125,2.375,1.5,3.25,3.75,3.25s27.77,0.051,30.333,0.051s5.812-0.062,6.75-3.75s1.529-55.926-0.221-61.426
			S168.538,14.121,168.538,14.121z"/>
		
			<line id="housse_fermeture_4_" style="fill:none;stroke:#CCCCCC;stroke-width:0.7521;stroke-linecap:round;stroke-linejoin:round;" x1="163.007" y1="94.59" x2="164.371" y2="14.617"/>
	</g>
	<path style="fill:#B16600;" d="M166.169,15.432l-1.569-1.666h-0.81l-1.712,1.666v4.445c0,0.691,0.443,1.251,0.985,1.251h2.117
		c0.547,0,0.988-0.56,0.988-1.251V15.432z"/>
</g>
<g id="Layer_11">
	<g id="ceintre_7_">
		<path style="fill:none;stroke:#777768;stroke-width:0.7521;stroke-linecap:round;stroke-linejoin:round;" d="M169.961,14.772
			c-0.029-0.866-0.018-2.161,0.412-2.871c0.708-1.167,1.844-1.316,1.929-2.933c0.087-1.664-1.653-2.811-3.121-2.45
			c-0.131,0.033-0.252,0.081-0.362,0.144"/>
		<path style="fill:none;stroke:#777768;stroke-width:0.7521;stroke-linecap:round;stroke-linejoin:round;" d="M151.138,28.215
			c-0.666-3.238,16.14-13.443,18.823-13.443s20.232,10.901,19.509,13.443C188.439,29.725,151.449,29.725,151.138,28.215z"/>
	</g>
	<g id="pull_4_">
		<polygon style="fill:#CC9966;stroke:#4D4D4D;stroke-width:0.5;stroke-linecap:round;stroke-linejoin:round;" points="
			162.271,18.401 177.34,18.69 175.129,25.443 165.129,26.443 		"/>
		<path style="fill:#CC9966;stroke:#4D4D4D;stroke-width:0.5;stroke-linecap:round;stroke-linejoin:round;" d="M155.927,22.339
			c2.508-1.903,6.344-4.812,6.344-4.812s3.339,5.5,7.215,5.5s8.539-5.02,8.539-5.02l7.492,5.114c0,0,5.788,4.061,6.451,7.906
			c0.662,3.845,0.137,32.625,0.137,32.625l-6.871-0.479l-2.592-31.76l0.734,32.966l-26.877-0.229l0.809-33l-4.178,31.125h-6.125
			c0,0,1.5-30.875,2.25-32.875S153.418,24.242,155.927,22.339z"/>
	</g>
	<g id="housse_10_">
		<path style="fill:none;stroke:#CCCCCC;stroke-width:0.7521;stroke-linecap:round;stroke-linejoin:round;" d="M174.129,14.276
			l-7.5-0.125c0,0-17.375,10.875-18.625,14.875S145.392,89.4,145.392,89.4c1.125,2.375,1.5,3.25,3.75,3.25
			s36.612,0.188,39.174,0.188s2.812-0.062,3.75-3.75s2.688-54.062,0.938-59.562S174.129,14.276,174.129,14.276z"/>
		
			<line style="fill:none;stroke:#CCCCCC;stroke-width:0.7521;stroke-linecap:round;stroke-linejoin:round;" x1="168.598" y1="92.744" x2="169.961" y2="14.772"/>
	</g>
	<path style="fill:#B16600;" d="M171.202,15.51l-1.569-1.666h-0.81l-1.712,1.666v4.445c0,0.691,0.443,1.251,0.985,1.251h2.117
		c0.547,0,0.988-0.56,0.988-1.251V15.51z"/>
</g>
<g id="pull_bleu">
	<g id="ceintre_3_">
		<path style="fill:none;stroke:#777768;stroke-width:0.7521;stroke-linecap:round;stroke-linejoin:round;" d="M174.845,14.845
			c-0.029-0.866-0.018-2.161,0.412-2.871c0.708-1.167,1.844-1.316,1.929-2.933c0.087-1.664-1.653-2.811-3.121-2.45
			c-0.037,0.009-0.072,0.019-0.107,0.03"/>
		<path style="fill:none;stroke:#777768;stroke-width:0.7521;stroke-linecap:round;stroke-linejoin:round;" d="M156.022,28.288
			c-0.666-3.238,16.14-13.443,18.823-13.443s20.232,10.901,19.51,13.443C193.322,29.798,156.333,29.798,156.022,28.288z"/>
	</g>
	<g id="pull_1_">
		<polygon style="fill:#6666CC;stroke:#4D4D4D;stroke-width:0.5;stroke-linecap:round;stroke-linejoin:round;" points="
			167.154,18.474 182.224,18.763 180.013,25.516 170.013,26.516 		"/>
		<path style="fill:#6666CC;stroke:#4D4D4D;stroke-width:0.5;stroke-linecap:round;stroke-linejoin:round;" d="M160.811,22.412
			c2.508-1.903,6.344-4.812,6.344-4.812s3.339,5.5,7.215,5.5s8.539-5.02,8.539-5.02l7.492,5.114c0,0,5.787,4.061,6.449,7.906
			c0.663,3.845,0.137,32.625,0.137,32.625l-6.87-0.479l-2.592-31.76l0.734,32.966l-26.877-0.229l0.809-33l-4.178,31.125h-6.125
			c0,0,1.5-30.875,2.25-32.875S158.302,24.314,160.811,22.412z"/>
	</g>
	<g id="housse_5_">
		<path style="fill:none;stroke:#CCCCCC;stroke-width:0.7521;stroke-linecap:round;stroke-linejoin:round;" d="M179.013,14.349
			l-7.5-0.125c0,0-17.375,10.875-18.625,14.875s-2.612,60.375-2.612,60.375c1.125,2.375,1.5,3.25,3.75,3.25
			c1.164,0,10.921,1.049,20.425,1.098c8.868,0.045,17.512-0.91,18.75-0.91c2.562,0,2.812-0.062,3.75-3.75s2.688-54.063,0.938-59.563
			S179.013,14.349,179.013,14.349z"/>
		
			<line style="fill:none;stroke:#CCCCCC;stroke-width:0.7521;stroke-linecap:round;stroke-linejoin:round;" x1="173.481" y1="93.818" x2="174.845" y2="14.845"/>
	</g>
	<path style="fill:#B16600;" d="M175.042,15.869l-1.569-1.666h-0.81l-1.712,1.666v4.445c0,0.691,0.443,1.251,0.985,1.251h2.117
		c0.547,0,0.988-0.56,0.988-1.251V15.869z"/>
</g>
<g id="chemise">
	<path style="fill:url(#New_Pattern_Swatch_3);stroke:#777768;stroke-width:0.5;stroke-linecap:round;stroke-linejoin:round;" d="
		M183.122,14.43c0,0-2.325-0.646-4.575-0.646c-2.25,0-5.342,0.646-5.342,0.646l1.217,4.486l7.417,0.833L183.122,14.43z"/>
	<g id="ceintre_4_">
		<path style="fill:none;stroke:#777768;stroke-width:0.7521;stroke-linecap:round;stroke-linejoin:round;" d="M178.538,14.978
			c-0.029-0.866-0.018-2.161,0.412-2.871c0.708-1.167,1.844-1.316,1.93-2.933c0.087-1.664-1.654-2.811-3.121-2.45
			c-0.145,0.036-0.277,0.091-0.396,0.164"/>
		<path style="fill:none;stroke:#777768;stroke-width:0.7521;stroke-linecap:round;stroke-linejoin:round;" d="M160.532,29.854
			c-0.666-3.238,15.313-14.923,17.997-14.923s19.205,12.598,18.483,15.14C195.98,31.58,160.843,31.363,160.532,29.854z"/>
	</g>
	<g id="chemise_2_">
		<polygon style="fill:#FFFFFF;stroke:#777768;stroke-width:0.5;stroke-linecap:round;stroke-linejoin:round;" points="
			193.012,59.635 193.622,64.097 200.247,65.179 199.539,59.764 		"/>
		<polygon style="fill:#FFFFFF;stroke:#777768;stroke-width:0.5;stroke-linecap:round;stroke-linejoin:round;" points="
			163.315,59.635 162.705,64.097 156.08,65.179 156.789,59.764 		"/>
		<polyline style="fill:#FFFFFF;stroke:#777768;stroke-width:0.5;stroke-linecap:round;stroke-linejoin:round;" points="
			183.08,16.68 197.863,27.637 199.83,61.722 193.121,60.369 191.122,33.597 191.31,59.847 178.393,63.93 178.705,17.763 		"/>
		<polyline style="fill:#FFFFFF;stroke:#777768;stroke-width:0.5;stroke-linecap:round;stroke-linejoin:round;" points="
			173.247,16.68 158.464,27.637 156.497,61.722 163.206,60.369 165.205,33.597 165.018,59.847 176.736,63.93 177.622,17.763 		"/>
		<path style="fill:#FFFFFF;stroke:#777768;stroke-width:0.5;stroke-linecap:round;stroke-linejoin:round;" d="M183.122,14.43
			c0,0-0.09,1-1.946,2.363c-1.772,1.301-2.471,0.97-2.471,0.97l2.792,7.792l2.232-8.556L183.122,14.43z"/>
		<polygon style="fill:#FFFFFF;stroke:#777768;stroke-width:0.5;stroke-linecap:round;stroke-linejoin:round;" points="
			176.736,63.93 178.393,63.93 179.101,17.926 177.466,17.885 		"/>
		<path style="fill:#FFFFFF;stroke:#777768;stroke-width:0.5;stroke-linecap:round;stroke-linejoin:round;" d="M173.205,14.43
			c0,0,0.09,1,1.946,2.363c1.772,1.301,2.471,0.97,2.471,0.97l-2.792,7.792l-2.232-8.556L173.205,14.43z"/>
	</g>
	<g id="housse_6_">
		<path id="housse_7_" style="fill:none;stroke:#CCCCCC;stroke-width:0.7521;stroke-linecap:round;stroke-linejoin:round;" d="
			M182.07,13.431l-7.5-0.125c0,0-16.032,10.875-17.282,14.875c-1.143,3.656-1.591,3.934-2.955,60.375
			c1.125,2.375,1.5,3.25,3.75,3.25s33.77-0.949,36.332-0.949s5.812-1.062,6.75-4.75s-0.471-51.926-2.221-57.426
			S182.07,13.431,182.07,13.431z"/>
		
			<line id="housse_fermeture_2_" style="fill:none;stroke:#CCCCCC;stroke-width:0.7521;stroke-linecap:round;stroke-linejoin:round;" x1="176.55" y1="91.32" x2="177.903" y2="13.927"/>
	</g>
	<path style="fill:#B16600;" d="M180.332,14.716l-1.569-1.666h-0.81l-1.712,1.666v4.445c0,0.691,0.443,1.251,0.985,1.251h2.117
		c0.547,0,0.988-0.56,0.988-1.251V14.716z"/>
</g>
<g id="tringle">
	
		<line style="fill:none;stroke:#3399FF;stroke-linecap:round;stroke-linejoin:round;" x1="183.169" y1="7.995" x2="151.149" y2="7.995"/>
	<path style="fill:none;stroke:#777768;stroke-width:0.7521;stroke-linecap:round;stroke-linejoin:round;" d="M160.658,6.552
		c-0.579,0.192-0.935,0.718-1.02,1.389c-0.042,0.331-0.008,1.098,0.121,1.16"/>
	<path style="fill:none;stroke:#777768;stroke-width:0.7521;stroke-linecap:round;stroke-linejoin:round;" d="M164.225,6.666
		c-0.645,0.16-1.042,0.708-1.132,1.422c-0.042,0.331-0.008,1.098,0.121,1.16"/>
	<path style="fill:none;stroke:#777768;stroke-width:0.7521;stroke-linecap:round;stroke-linejoin:round;" d="M168.819,6.663
		c-0.432,0.246-0.697,0.709-0.77,1.278c-0.042,0.331-0.008,1.098,0.121,1.16"/>
	<path style="fill:none;stroke:#777768;stroke-width:0.7521;stroke-linecap:round;stroke-linejoin:round;" d="M173.958,6.622
		c-0.582,0.192-0.94,0.719-1.025,1.392c-0.042,0.331-0.008,1.098,0.121,1.16"/>
	<path style="fill:none;stroke:#777768;stroke-width:0.7521;stroke-linecap:round;stroke-linejoin:round;" d="M177.362,6.889
		c-0.411,0.25-0.666,0.705-0.736,1.258c-0.042,0.331-0.008,1.098,0.121,1.16"/>
</g>
<g id="fer_&#xE0;_repasser">
	<path style="fill:none;stroke:#777768;stroke-width:0.7521;stroke-linecap:round;stroke-linejoin:round;" d="M110.839,66
		c0,0.552-0.448,1-1,1h-14h-14c-0.552,0-1-0.448-1-1v-2c0-0.552,0.448-1,1-1h28c0.552,0,1,0.448,1,1V66z"/>
	
		<line style="fill:none;stroke:#777768;stroke-width:0.7521;stroke-linecap:round;stroke-linejoin:round;" x1="95.839" y1="126.875" x2="95.839" y2="67"/>
	<g>
		<path style="fill:#FFFFFF;stroke:#777768;stroke-width:0.5;stroke-linecap:round;stroke-linejoin:round;" d="M109.031,62.539
			c1.107,0-6.358-7.683-6.358-7.683l-0.818-3.816L87.973,50l-1.09,4.225l-2.181,0.818l-1.363,7.496H109.031z"/>
		<polygon style="fill:none;stroke:#777768;stroke-width:0.5;stroke-linecap:round;stroke-linejoin:round;" points="89.609,55.418 
			89.456,51.584 100.649,52.351 100.393,55.469 		"/>
		<path style="fill:#FFFFFF;stroke:#777768;stroke-width:0.5;stroke-linecap:round;stroke-linejoin:round;" d="M97.377,55.392
			c0,0.353-0.286,0.639-0.639,0.639h-3.731c-0.353,0-0.639-0.286-0.639-0.639l0,0c0-0.353,0.286-0.639,0.639-0.639h3.731
			C97.092,54.753,97.377,55.039,97.377,55.392L97.377,55.392z"/>
	</g>
	<path style="fill:#FFFFFF;stroke:#777768;stroke-width:0.5;stroke-linecap:round;stroke-linejoin:round;" d="M83.954,59.157
		c0,0-7.781-0.824-8.948,7.343s-2.167,10-7,6.667c-4.833-3.333-6-9.833-0.333-21.167s9-14.167,4.833-20.5s-5-7.833-5.833-15.667
		s5.917-12.25,7-13.333"/>
</g>
</svg>
