<?xml version="1.0" encoding="iso-8859-1"?>
<!-- Generator: Adobe Illustrator 13.0.0, SVG Export Plug-In . SVG Version: 6.00 Build 14948)  -->
<!DOCTYPE svg PUBLIC "-//W3C//DTD SVG 1.1//EN" "http://www.w3.org/Graphics/SVG/1.1/DTD/svg11.dtd">
<svg version="1.1" xmlns="http://www.w3.org/2000/svg" xmlns:xlink="http://www.w3.org/1999/xlink" x="0px" y="0px" width="378px"
	 height="140px" viewBox="0 0 378 140" style="enable-background:new 0 0 378 140;" xml:space="preserve">
<g id="Layer_2">
	<g>
		<rect style="fill:none;" width="378" height="140"/>
		<rect style="fill:#FFFFFF;" width="378" height="140"/>
	</g>
</g>
<g id="Layer_3">
	<path style="fill:none;stroke:#777768;stroke-width:1.5;stroke-linecap:round;stroke-linejoin:round;" d="M178.669,29.423
		c0,5.289-0.239,31.359-1.848,47.317c-1.476,14.615-9.294,52.467-15.082,60.238h-5.615"/>
	<path style="fill:none;stroke:#777768;stroke-width:1.5;stroke-linecap:round;stroke-linejoin:round;" d="M176.998,74.887
		c-0.937,9.672,6.606,52.523,9.859,61.979c0,0-0.291,0,5.261,0.293"/>
	<path style="fill:none;stroke:#777768;stroke-width:1.5;stroke-linecap:round;stroke-linejoin:round;" d="M163.515,83.281
		c-2.799-7.977,7.026-43.633,15.12-43.207c5.261,0.264,4.713,26.542,8.001,41.656"/>
	<g>
		<path style="fill:#FFFFFF;stroke:#777768;stroke-width:1.5;" d="M191.22,17.021c-0.814,7.515-6.433,13.065-12.55,12.401
			c-6.11-0.663-10.404-7.292-9.589-14.808c0.819-7.519,6.437-13.067,12.547-12.403C187.745,2.875,192.038,9.503,191.22,17.021z"/>
		<path style="fill:#FFFFFF;stroke:#777768;stroke-width:0.9592;stroke-linecap:round;" d="M176.176,13.748
			c0.638-0.716,0.727-1.058,0.25-1.047c-0.246,0.544-0.184,0.957-0.298,1.512"/>
		<path style="fill:#FFFFFF;stroke:#777768;stroke-width:0.9592;stroke-linecap:round;" d="M184.506,14.654
			c-0.465-0.837-0.475-1.189-0.021-1.077c0.125,0.583-0.014,0.975-0.031,1.54"/>
		<path style="fill:#FFFFFF;stroke:#777768;stroke-width:0.9592;stroke-linecap:round;" d="M176.197,22.157
			c1.921,1.346,4.259,3.246,5.941,1.104"/>
		<path style="fill:#777768;stroke:#777768;stroke-width:0.7195;stroke-linecap:round;stroke-linejoin:round;" d="M180.381,20.69
			c-0.591-0.309-0.718,0.642,0.104,0.852c0.605,0.156,1.119,0.165,1.66,0.449c0.901,0.482,2.074,1.543,2.614-0.028
			c-1.317,1.783-3.63-2.913-4.64-1.243"/>
		<path style="fill:#777768;stroke:#777768;stroke-width:0.7195;stroke-linecap:round;stroke-linejoin:round;" d="M178.777,20.517
			c0.641-0.177,0.572,0.78-0.288,0.808c-0.612,0.021-1.124-0.08-1.703,0.083c-0.988,0.276-2.364,1.061-2.554-0.589
			c0.903,2.023,4.175-2.063,4.794-0.219"/>
	</g>
	<g style="opacity:0.65;">
		<path style="fill:none;stroke:#777768;stroke-width:0.9592;" d="M208.69,25.62c0,6.279-4.32,11.376-9.653,11.376
			c-5.33,0-9.658-5.098-9.658-11.376c0-6.282,4.328-11.373,9.658-11.373C204.37,14.247,208.69,19.338,208.69,25.62z"/>
		<path style="fill:#FFFFFF;stroke:#777768;stroke-width:0.9592;" d="M199.706,37.258c0,7.241,1.244,14.246,1.317,21.434
			c0.041,4.297-0.517,8.605-0.776,12.88c-0.396,6.504-4.478,12.049-7.418,17.793c-2.466,4.805-4.769,9.627-7.411,14.34
			c-1.608,2.865-3.953,5.887-4.605,9.166c13.289-0.342,28.315-6.473,41.063-2.131c-2.448-3.754-6.024-7.078-8.688-10.789
			c-4.016-5.641-6.918-10.432-8.975-17.012c-1.041-3.324-1.737-6.701-2.403-9.965c-0.413-1.976-1.241-3.997-1.047-6.102"/>
		<path style="fill:none;stroke:#777768;stroke-width:0.9592;stroke-linecap:round;stroke-linejoin:round;" d="M198.856,110.471
			c0.552,5.049,1.172,23.43,0.773,26.256c-0.562,0.564-1.828,0.049-2.857,0.297"/>
		<path style="fill:none;stroke:#777768;stroke-width:0.9592;stroke-linecap:round;stroke-linejoin:round;" d="M205.514,109.723
			c0.132,2.691,1.728,25.959,2.636,26.867c0.684,0.68,1.426,0.453,3.392-0.078"/>
		<g>
			<path style="fill:none;stroke:#777768;stroke-width:0.9592;stroke-linecap:round;stroke-linejoin:round;" d="M195.472,23.309
				c-0.069,0.181-0.069,0.34,0.031,0.482c0.038-0.118,0.056-0.225,0.042-0.35c-0.004,0.049-0.021,0.142-0.035,0.205
				c0-0.086,0-0.173,0-0.25"/>
			<path style="fill:none;stroke:#777768;stroke-width:0.2157;stroke-linecap:round;stroke-linejoin:round;" d="M195.156,23.264
				c-0.107-0.191-0.205-0.399-0.219-0.617"/>
			<path style="fill:none;stroke:#777768;stroke-width:0.2157;stroke-linecap:round;stroke-linejoin:round;" d="M195.253,22.443
				c0.084,0.132,0.084,0.619,0.084,0.779"/>
			<path style="fill:none;stroke:#777768;stroke-width:0.2157;stroke-linecap:round;stroke-linejoin:round;" d="M195.51,23.222
				c-0.007-0.269,0.177-0.461,0.19-0.741"/>
			<path style="fill:none;stroke:#777768;stroke-width:0.2157;stroke-linecap:round;stroke-linejoin:round;" d="M195.646,23.222
				c0.204-0.143,0.398-0.394,0.356-0.628"/>
		</g>
		<g>
			<path style="fill:none;stroke:#777768;stroke-width:0.9592;stroke-linecap:round;stroke-linejoin:round;" d="M203.048,23.309
				c0.062,0.181,0.062,0.34-0.038,0.482c-0.027-0.118-0.052-0.225-0.041-0.35c0.014,0.049,0.027,0.142,0.038,0.205
				c0-0.086,0-0.173,0-0.25"/>
			<path style="fill:none;stroke:#777768;stroke-width:0.2157;stroke-linecap:round;stroke-linejoin:round;" d="M203.364,23.264
				c0.104-0.191,0.204-0.37,0.354-0.593"/>
			<path style="fill:none;stroke:#777768;stroke-width:0.2157;stroke-linecap:round;stroke-linejoin:round;" d="M203.458,22.443
				c-0.08,0.132-0.278,0.619-0.278,0.779"/>
			<path style="fill:none;stroke:#777768;stroke-width:0.2157;stroke-linecap:round;stroke-linejoin:round;" d="M203.007,23.222
				c0.003-0.269-0.104-0.576-0.111-0.854"/>
			<path style="fill:none;stroke:#777768;stroke-width:0.2157;stroke-linecap:round;stroke-linejoin:round;" d="M202.871,23.222
				c-0.239-0.253-0.277-0.328-0.426-0.666"/>
		</g>
		<path style="fill:#DE1608;stroke:#DE1608;stroke-width:0.0531;stroke-linecap:round;stroke-linejoin:round;" d="M195.912,30.593
			c0.438,0.196,0.729,0.466,1.276,0.313c0.208-0.048,0.367-0.227,0.568-0.274c0.357-0.093,0.312,0.104,0.576,0.143
			c0.288,0.04,0.229-0.196,0.534-0.186c0.139,0.003,0.405,0.269,0.572,0.313c0.481,0.111,1.255,0.103,1.663-0.128
			c-0.766,0.614-1.376,2.009-2.593,1.705c-0.565-0.149-1.006-0.521-1.408-0.902c-0.235-0.232-0.829-0.612-0.926-0.858"/>
		<path style="fill:none;stroke:#777768;stroke-width:0.9592;stroke-linecap:round;stroke-linejoin:round;" d="M192.035,80.9
			c1.245-8.457,1.21-19.195,2.205-24.344c0.767-4.028,1.679-12.965,5.57-15.377c2.166,2.167,8.606,18.55,9.23,25.181
			c0.434,4.597,1.686,14.271,0.593,16.718"/>
	</g>
	<g>
		<path style="fill:none;stroke:#777768;stroke-linecap:round;stroke-linejoin:round;" d="M163.324,83.518
			c0.402,3.838,1.474,8.502,3.506,11.732c-2.435-5.262-3.003-10.09-3.36-11.881c1.314,3.152,4.668,7.311,6.44,10.189
			c-1.501-2.078-4.432-8.354-5.961-9.551c1.881,0.678,7.541,5.639,9.209,7.309c-2.817-2.246-6.743-6.209-9.688-7.947
			c2.819-0.209,6.95,3.352,9.006,4.889c-1.03-0.611-6.624-4.787-8.85-5.104c1.505-0.365,5.949-1.092,6.256-1.117"/>
		<path style="fill:none;stroke:#FFE000;stroke-width:1.7985;stroke-linecap:round;stroke-linejoin:round;" d="M166.144,88.91
			c0.451-0.482,0.477-0.727,1.224-0.652"/>
	</g>
	<g style="opacity:0.65;">
		<path style="fill:none;stroke:#777768;stroke-width:0.4261;stroke-linecap:round;stroke-linejoin:round;" d="M209.634,83.078
			c-0.402,3.838-1.474,8.5-3.506,11.73c2.435-5.26,3.003-10.09,3.36-11.879c-1.314,3.15-4.668,7.312-6.44,10.189
			c1.502-2.08,4.433-8.355,5.962-9.551c-1.883,0.678-7.543,5.641-9.21,7.309c2.818-2.246,6.741-6.211,9.688-7.947
			c-2.819-0.211-6.95,3.352-9.005,4.889c1.028-0.613,6.622-4.789,8.849-5.104c-1.509-0.365-5.947-1.092-6.256-1.117"/>
		<path style="fill:none;stroke:#FFE000;stroke-width:1.7985;stroke-linecap:round;stroke-linejoin:round;" d="M206.814,88.469
			c-0.451-0.48-0.479-0.727-1.224-0.65"/>
	</g>
	<g style="opacity:0.65;">
		<path style="fill:none;stroke:#777768;stroke-width:0.4261;stroke-linecap:round;stroke-linejoin:round;" d="M191.113,84.59
			c-0.226,0.871-0.196,1.384-0.378,4.378c-0.065-1.158,1.588-6.925,1.3-8.067c0.204,1.232-0.143,6.025,0.242,7.209
			c-0.842-1.057-0.804-4.164-1.234-5.113"/>
		<path style="fill:none;stroke:#777768;stroke-width:0.4261;stroke-linecap:round;stroke-linejoin:round;" d="M188.074,88.959
			c2.083-3.621,3.579-7.512,3.961-8.059c-0.624,2.148-1.314,6.145-2.431,8.064"/>
	</g>
	<g>
		<path style="fill:none;stroke:#777768;stroke-linecap:round;stroke-linejoin:round;" d="M189.604,88.965
			c-0.739-1.055-1.998-4.561-2.452-5.928c-0.784,1.26-0.635,4.408-0.479,5.818c1.359-2.393,1.2-4.012,2.035-4.176"/>
		<path style="fill:none;stroke:#777768;stroke-linecap:round;stroke-linejoin:round;" d="M186.594,81.328
			c0.687,2.725,3.364,4.955,4.48,7.301c0.322-2.125-3.991-4.842-4.438-6.898c0.017,0.723,1.353,5.812,1.438,7.229"/>
	</g>
</g>
</svg>
