<?xml version="1.0" encoding="iso-8859-1"?>
<!-- Generator: Adobe Illustrator 13.0.0, SVG Export Plug-In . SVG Version: 6.00 Build 14948)  -->
<!DOCTYPE svg PUBLIC "-//W3C//DTD SVG 1.1//EN" "http://www.w3.org/Graphics/SVG/1.1/DTD/svg11.dtd">
<svg version="1.1" xmlns="http://www.w3.org/2000/svg" xmlns:xlink="http://www.w3.org/1999/xlink" x="0px" y="0px" width="540px"
	 height="200px" viewBox="0 0 540 200" style="enable-background:new 0 0 540 200;" xml:space="preserve">
<g id="Layer_2">
	<g>
		<rect style="fill:#FFFFFF;" width="540" height="200"/>
	</g>
</g>
<g id="Layer_1">
	<path style="fill:none;stroke:#A8D0DA;stroke-width:0.9169;stroke-linejoin:round;" d="M253.9,49.117
		c-0.787-0.262-0.87-0.338-1.937-0.192c-2.219,0.303-2.304,6.927-1.162,9.164c0.709,1.401,2.875,1.552,3.34,1.368"/>
	<path style="fill:none;stroke:#777768;stroke-width:1.713;stroke-linecap:round;stroke-linejoin:round;" d="M226.001,58.667
		c4.953-2.237,15.113,27.798,17.99,28.961c1.505-1.548,4.453-24.724,5.269-27.37c0.781-2.535,2.113-4.42,1.459-7.209
		c0.356,0.02,0.804-0.045,1.181-0.049c-1.202-0.153-2.331-0.266-3.523-0.275c0.544,1.273,2.164,1.514,3.451,2.291
		c-0.807-0.026-1.691,0.101-2.466,0.058c0.757,0.079,1.939,0.211,2.947-0.022c-0.65,1.395-2.253,1.842-3.522,2.639
		c1.049-0.317,2.137-0.411,3.188-0.634c-0.06,0.482-0.311,0.131-0.64,0.276"/>
	<g>
		<g>
			
				<rect x="427.633" y="100.723" style="fill:#D5312C;stroke:#FFFFFF;stroke-width:0.916;stroke-linecap:square;" width="4.48" height="64.386"/>
			<g>
				<path style="fill:#D5312C;" d="M391.91,99.312c0,1.404,1.139,2.542,2.543,2.542h70.83c1.404,0,2.543-1.138,2.543-2.542
					c0-1.405-1.139-2.542-2.543-2.542h-70.83C393.049,96.77,391.91,97.907,391.91,99.312C391.91,99.312,391.91,97.907,391.91,99.312
					z"/>
				<path style="fill:none;stroke:#FFFFFF;stroke-width:1.374;" d="M391.91,99.312c0,1.404,1.139,2.542,2.543,2.542h70.83
					c1.404,0,2.543-1.138,2.543-2.542c0-1.405-1.139-2.542-2.543-2.542h-70.83C393.049,96.77,391.91,97.907,391.91,99.312
					C391.91,99.312,391.91,97.907,391.91,99.312z"/>
			</g>
		</g>
		<g>
			<rect x="160.574" y="92.91" style="fill:#65B724;stroke:#FFFFFF;stroke-width:1.374;" width="5.478" height="72.816"/>
			<path style="fill:#65B724;stroke:#FFFFFF;stroke-width:1.374;" d="M179.265,96.899h-31.912V88.92c0,0,7.568-3.492,15.547-3.492
				c7.979,0,16.365,3.492,16.365,3.492V96.899z"/>
			<rect x="153.086" y="148.462" style="fill:#65B724;stroke:#FFFFFF;stroke-width:0.916;" width="20.449" height="1.869"/>
		</g>
		
			<line style="fill:none;stroke:#65B724;stroke-width:3.427;stroke-linecap:round;" x1="26.713" y1="56.052" x2="134.205" y2="56.052"/>
		
			<line style="fill:none;stroke:#65B724;stroke-width:3.427;stroke-linecap:square;" x1="134.205" y1="56.052" x2="134.205" y2="80.096"/>
		
			<line style="fill:none;stroke:#65B724;stroke-width:3.427;stroke-linecap:square;" x1="134.205" y1="80.096" x2="123.899" y2="80.096"/>
		
			<line style="fill:none;stroke:#65B724;stroke-width:3.427;stroke-linecap:square;" x1="123.899" y1="80.096" x2="123.899" y2="164.821"/>
		
			<line style="fill:none;stroke:#65B724;stroke-width:3.427;stroke-linecap:round;" x1="123.899" y1="164.821" x2="512.432" y2="164.821"/>
		<g>
			<g>
				
					<line style="fill:none;stroke:#65B724;stroke-width:4.2837;stroke-linecap:round;stroke-linejoin:round;" x1="369.61" y1="85.414" x2="369.61" y2="124.011"/>
				
					<line style="fill:none;stroke:#65B724;stroke-width:4.2837;stroke-linecap:round;stroke-linejoin:round;" x1="369.61" y1="124.011" x2="408.203" y2="124.011"/>
				
					<line style="fill:none;stroke:#65B724;stroke-width:4.2837;stroke-linecap:round;stroke-linejoin:round;" x1="408.203" y1="124.011" x2="369.569" y2="162.649"/>
				
					<line style="fill:none;stroke:#65B724;stroke-width:4.2837;stroke-linecap:round;stroke-linejoin:round;" x1="369.569" y1="162.649" x2="391.82" y2="162.649"/>
			</g>
			<g>
				
					<line style="fill:none;stroke:#65B724;stroke-width:4.2837;stroke-linecap:round;stroke-linejoin:round;" x1="499.366" y1="85.414" x2="499.366" y2="124.011"/>
				
					<line style="fill:none;stroke:#65B724;stroke-width:4.2837;stroke-linecap:round;stroke-linejoin:round;" x1="499.366" y1="124.011" x2="460.774" y2="124.011"/>
				
					<line style="fill:none;stroke:#65B724;stroke-width:4.2837;stroke-linecap:round;stroke-linejoin:round;" x1="460.774" y1="124.011" x2="499.407" y2="162.649"/>
				
					<line style="fill:none;stroke:#65B724;stroke-width:4.2837;stroke-linecap:round;stroke-linejoin:round;" x1="499.407" y1="162.649" x2="477.153" y2="162.649"/>
			</g>
		</g>
	</g>
	<g>
		<g>
			<path style="fill:none;stroke:#777768;stroke-width:2.5702;stroke-linecap:round;stroke-linejoin:round;" d="M238.134,33.781
				c0,8.708-5.384,15.761-12.034,15.761c-6.643,0-12.036-7.053-12.036-15.761c0-8.701,5.394-15.756,12.036-15.756
				C232.75,18.025,238.134,25.08,238.134,33.781z"/>
			<path style="fill:none;stroke:#777768;stroke-width:2.5702;stroke-linecap:round;stroke-linejoin:round;" d="M226.461,70.931
				c0.18,11.112,0.157,23.016-0.94,28.472c-1.712,8.595-5.155,5.159-3.434,17.193c2.152,15.078,8.023,27.508,6.302,34.957
				c-9.382,40.672-9.74,41.838-0.577,40.691"/>
			<path style="fill:none;stroke:#777768;stroke-width:2.5702;stroke-linecap:round;stroke-linejoin:round;" d="M226.1,50.119
				c-0.015,2.771,0.08,7.037,0.188,11.966"/>
			<path style="fill:#FFFFFF;stroke:#777768;stroke-width:1.7135;stroke-linecap:round;stroke-linejoin:round;" d="M233.282,66.465
				c0,2.688-2.174,4.87-4.866,4.87s-4.88-2.182-4.88-4.87c0-2.69,2.188-4.872,4.88-4.872S233.282,63.775,233.282,66.465z"/>
		</g>
		<g>
			<path style="fill:none;stroke:#777768;stroke-width:1.7135;stroke-linecap:round;stroke-linejoin:round;" d="M294.506,107.238
				c0,1.516,1.225,2.748,2.746,2.748c1.506,0,2.746-1.232,2.746-2.748s-1.24-2.747-2.746-2.747
				C295.73,104.491,294.506,105.723,294.506,107.238z"/>
			<path style="fill:none;stroke:#777768;stroke-width:1.7135;stroke-linecap:round;stroke-linejoin:round;" d="M284.449,24.093
				c0,8.507,5.275,15.401,11.76,15.401c6.488,0,11.766-6.895,11.766-15.401c0-8.504-5.277-15.398-11.766-15.398
				C289.725,8.695,284.449,15.589,284.449,24.093z"/>
			<path style="fill:none;stroke:#777768;stroke-width:1.7135;stroke-linecap:round;stroke-linejoin:round;" d="M295.918,40.107
				c0.055,10.749-1.445,42.537,0.611,52.854c1.844,9.216,2.662,6.423,0.824,19.33c-2.309,16.162,2.881,31.936,3.436,40.111
				c2.863,42.412,3.121,41.352-6.715,40.117"/>
		</g>
	</g>
	<g>
		<path style="fill:#FCCF3D;" d="M253.9,61.977c0,1.075,2.592,1.075,4.637,1.075c2.045,0,4.437-0.152,4.445-1.075
			c0.012-0.92,0-12.859,0-12.859s-0.969,0.693-4.523,0.693c-3.559,0-4.559-0.693-4.559-0.693S253.9,60.903,253.9,61.977z"/>
		<path style="fill:#FFFFD9;" d="M253.924,47.932c0,0.154-0.023,0.654-0.023,1.186c0,0.491,2.908,0.693,4.559,0.693
			c1.516,0,3.334-0.312,4.158-0.52c0.528-0.136,0.366-1.182,0.366-1.359c0-0.451-2.024-0.818-4.529-0.818
			C255.954,47.113,253.924,47.48,253.924,47.932z"/>
		<g>
			<path style="fill:none;stroke:#FFFFFF;stroke-width:0.1624;" d="M262.017,51.817c0,0.085,0.079,0.152,0.171,0.152
				c0.09,0,0.165-0.067,0.165-0.152c0-0.084-0.075-0.15-0.165-0.15C262.095,51.667,262.017,51.733,262.017,51.817z"/>
			<path style="fill:none;stroke:#FFFFFF;stroke-width:0.1624;" d="M261.611,56.853c0,0.084,0.075,0.154,0.165,0.154
				c0.096,0,0.167-0.07,0.167-0.154c0-0.083-0.072-0.152-0.167-0.152C261.687,56.7,261.611,56.77,261.611,56.853z"/>
			<ellipse style="fill:none;stroke:#FFFFFF;stroke-width:0.1624;" cx="258.759" cy="57.945" rx="0.167" ry="0.153"/>
			<path style="fill:none;stroke:#FFFFFF;stroke-width:0.1624;" d="M260.06,56.582c0,0.083,0.075,0.15,0.171,0.15
				c0.092,0,0.168-0.067,0.168-0.15c0-0.088-0.076-0.155-0.168-0.155C260.135,56.427,260.06,56.494,260.06,56.582z"/>
			<ellipse style="fill:none;stroke:#FFFFFF;stroke-width:0.1624;" cx="257.741" cy="55.913" rx="0.167" ry="0.15"/>
			<path style="fill:none;stroke:#FFFFFF;stroke-width:0.1624;" d="M261.854,53.879c0,0.083,0.072,0.151,0.162,0.151
				c0.099,0,0.171-0.068,0.171-0.151s-0.073-0.151-0.171-0.151C261.927,53.728,261.854,53.796,261.854,53.879z"/>
			<path style="fill:none;stroke:#FFFFFF;stroke-width:0.1624;" d="M257.546,53.575c0,0.084,0.072,0.152,0.167,0.152
				c0.09,0,0.163-0.068,0.163-0.152c0-0.083-0.073-0.15-0.163-0.15C257.618,53.425,257.546,53.492,257.546,53.575z"/>
			<ellipse style="fill:none;stroke:#FFFFFF;stroke-width:0.1624;" cx="257.409" cy="51.605" rx="0.166" ry="0.151"/>
			<ellipse style="fill:none;stroke:#FFFFFF;stroke-width:0.1624;" cx="259.154" cy="51.407" rx="0.167" ry="0.152"/>
			<path style="fill:none;stroke:#FFFFFF;stroke-width:0.1624;" d="M260.669,54.849c0,0.085,0.075,0.155,0.168,0.155
				c0.09,0,0.167-0.07,0.167-0.155c0-0.082-0.078-0.15-0.167-0.15C260.744,54.698,260.669,54.767,260.669,54.849z"/>
			<path style="fill:none;stroke:#FFFFFF;stroke-width:0.1624;" d="M259.517,53.149c0,0.086,0.076,0.153,0.165,0.153
				c0.09,0,0.171-0.067,0.171-0.153c0-0.08-0.082-0.15-0.171-0.15C259.593,52.999,259.517,53.069,259.517,53.149z"/>
			<ellipse style="fill:none;stroke:#FFFFFF;stroke-width:0.1624;" cx="258.5" cy="54.667" rx="0.166" ry="0.153"/>
			<path style="fill:none;stroke:#FFFFFF;stroke-width:0.1624;" d="M260.994,50.727c0,0.083,0.075,0.15,0.168,0.15
				c0.09,0,0.165-0.067,0.165-0.15c0-0.086-0.075-0.152-0.165-0.152C261.069,50.574,260.994,50.641,260.994,50.727z"/>
		</g>
		<path style="fill:none;stroke:#FFFFFF;stroke-width:0.1624;" d="M260.381,62.206c-0.082-0.021-0.165,0.037-0.186,0.126
			c-0.02,0.088,0.026,0.18,0.107,0.199c0.081,0.021,0.166-0.036,0.186-0.126C260.515,62.316,260.466,62.229,260.381,62.206z"/>
		
			<ellipse transform="matrix(0.2446 -0.9696 0.9696 0.2446 134.1251 293.6924)" style="fill:none;stroke:#FFFFFF;stroke-width:0.1624;" cx="255.553" cy="60.765" rx="0.167" ry="0.152"/>
		
			<ellipse transform="matrix(0.2363 -0.9717 0.9717 0.2363 138.9615 291.9553)" style="fill:none;stroke:#FFFFFF;stroke-width:0.1624;" cx="255.216" cy="57.574" rx="0.166" ry="0.151"/>
		<path style="fill:none;stroke:#FFFFFF;stroke-width:0.1624;" d="M256.229,59.167c-0.084-0.021-0.165,0.035-0.188,0.125
			c-0.023,0.089,0.029,0.179,0.107,0.198c0.084,0.021,0.168-0.036,0.188-0.126C256.359,59.274,256.31,59.186,256.229,59.167z"/>
		<path style="fill:none;stroke:#FFFFFF;stroke-width:0.1624;" d="M255.428,53.371c-0.081-0.02-0.165,0.035-0.188,0.125
			c-0.024,0.089,0.029,0.179,0.109,0.201c0.078,0.018,0.163-0.038,0.183-0.128C255.553,53.479,255.51,53.393,255.428,53.371z"/>
		<path style="fill:none;stroke:#FFFFFF;stroke-width:0.1624;" d="M258.418,61.553c-0.078-0.021-0.16,0.034-0.183,0.124
			c-0.021,0.089,0.023,0.177,0.104,0.2c0.081,0.019,0.165-0.04,0.188-0.128C258.552,61.659,258.5,61.572,258.418,61.553z"/>
		<path style="fill:none;stroke:#FFFFFF;stroke-width:0.1624;" d="M255.11,50.744c-0.082-0.018-0.166,0.037-0.183,0.127
			c-0.023,0.09,0.023,0.18,0.104,0.2c0.084,0.019,0.166-0.038,0.188-0.128C255.241,50.854,255.191,50.767,255.11,50.744z"/>
		<path style="fill:none;stroke:#FFFFFF;stroke-width:0.1624;" d="M255.394,55.538c-0.084-0.021-0.165,0.036-0.186,0.126
			c-0.023,0.09,0.023,0.177,0.102,0.199c0.084,0.018,0.168-0.036,0.188-0.126C255.521,55.646,255.472,55.558,255.394,55.538z"/>
		<path style="fill:none;stroke:#FFFFFF;stroke-width:0.1624;" d="M261.512,59.36c-0.084-0.022-0.168,0.036-0.191,0.124
			c-0.023,0.089,0.026,0.179,0.107,0.199c0.084,0.021,0.166-0.036,0.188-0.126C261.637,59.469,261.59,59.38,261.512,59.36z"/>
		<path style="fill:none;stroke:#FFFFFF;stroke-width:0.1624;" d="M257.76,60.17c-0.081-0.02-0.165,0.036-0.188,0.126
			c-0.02,0.089,0.029,0.178,0.113,0.198c0.075,0.019,0.162-0.037,0.186-0.127C257.893,60.277,257.844,60.189,257.76,60.17z"/>
		
			<ellipse transform="matrix(0.2432 -0.97 0.97 0.2432 138.6685 296.9681)" style="fill:none;stroke:#FFFFFF;stroke-width:0.1624;" cx="259.648" cy="59.618" rx="0.168" ry="0.151"/>
		<path style="fill:none;stroke:#FFFFFF;stroke-width:0.1624;" d="M257.513,58.484c-0.078-0.019-0.165,0.036-0.182,0.128
			c-0.024,0.089,0.023,0.177,0.104,0.196c0.082,0.021,0.165-0.036,0.188-0.123C257.644,58.594,257.598,58.505,257.513,58.484z"/>
		<path style="fill:none;stroke:#FFFFFF;stroke-width:0.1624;" d="M261.689,61.473c-0.078-0.022-0.162,0.036-0.186,0.124
			c-0.02,0.089,0.026,0.179,0.108,0.198c0.081,0.021,0.165-0.035,0.185-0.125C261.82,61.582,261.773,61.492,261.689,61.473z"/>
		<path style="fill:none;stroke:#A8D0DA;stroke-width:0.3679;stroke-linecap:round;stroke-linejoin:round;" d="M262.945,46.067
			c0.038,6.831,0.038,10.382,0.038,15.828c0,1.156-2.143,1.156-4.445,1.156c-2.241,0-4.637,0.044-4.637-1.075
			c0-4.457,0-11.474,0.041-15.909"/>
		
			<ellipse style="fill:none;stroke:#A8D0DA;stroke-width:0.3679;stroke-linecap:round;stroke-linejoin:round;" cx="258.443" cy="46.067" rx="4.502" ry="0.85"/>
		<path style="fill:none;stroke:#A8D0DA;stroke-width:0.2453;stroke-linecap:round;stroke-linejoin:round;" d="M262.982,51.242
			c-1.224-0.571-0.783,4.738-0.826,5.538c-0.099,2.005,0.075,4.144,0.084,5.942"/>
		<path style="fill:none;stroke:#A8D0DA;stroke-width:0.2453;stroke-linecap:round;stroke-linejoin:round;" d="M261.333,62.886
			c0-1.477-0.165-2.873-0.165-4.374c0-1.748,0.345-3.418-0.064-5.119c-0.104-0.434-0.31-1.877-0.995-1.82
			c-0.47,0.037-0.765,1.28-0.84,1.653c-0.354,1.822-0.096,4.001,0,5.859c0.063,1.259,0.165,2.808,0.165,3.884"/>
		<path style="fill:none;stroke:#A8D0DA;stroke-width:0.2453;stroke-linecap:round;stroke-linejoin:round;" d="M258.444,62.969
			c0-1.999-0.191-3.915-0.084-5.943c0.09-1.655,0.389-3.75-0.426-5.187c-1.615-0.465-1.227,9.897-1.227,11.13"/>
		<path style="fill:none;stroke:#A8D0DA;stroke-width:0.2453;stroke-linecap:round;stroke-linejoin:round;" d="M254.48,62.723
			c0-1.652-0.041-7.596,0.081-9.087c0.062-0.741,0.946-3.771,1.494-1.729c0.374,1.415,0.127,2.805-0.006,4.21
			c-0.215,2.203-0.235,4.777-0.249,6.77"/>
	</g>
	<g>
		<path style="fill:none;stroke:#777768;stroke-width:1.3087;stroke-linecap:round;stroke-linejoin:round;" d="M273.222,85.295
			c0.111,0.318,0.267,0.625,0.443,0.915c0.161,0.272,0.475,0.531,0.482,0.858c-1.235-1.352-1.681-3.431-1.323-5.249
			c0.134-0.676,0.353-1.338,0.494-2.011c0.043-0.2,0.057-0.399,0.185-0.548c-0.005,0.095-0.015,0.173-0.037,0.27"/>
		<path style="fill:none;stroke:#777768;stroke-width:1.4541;stroke-linecap:round;stroke-linejoin:round;" d="M295.84,47.023
			c-24.141,37.349-16.117,31.894-17.531,32.862"/>
		<path style="fill:none;stroke:#777768;stroke-width:1.3087;stroke-linecap:round;stroke-linejoin:round;" d="M280.967,81.092
			c0.44,1.358,1.627,2.011,1.95,2.846"/>
		<g>
			<path style="fill:#FCCF3D;" d="M273.226,91.585c0,1.054,2.538,1.054,4.541,1.054c2.002,0,4.345-0.15,4.354-1.054
				c0.011-0.9,0-12.595,0-12.595s-0.948,0.679-4.431,0.679c-3.485,0-4.464-0.679-4.464-0.679S273.226,90.532,273.226,91.585z"/>
			<path style="fill:#FFFFD9;" d="M273.248,77.829c0,0.152-0.022,0.642-0.022,1.162c0,0.481,2.848,0.679,4.464,0.679
				c1.485,0,3.266-0.305,4.073-0.508c0.517-0.132,0.357-1.157,0.357-1.332c0-0.44-1.982-0.801-4.437-0.801
				C275.235,77.027,273.248,77.389,273.248,77.829z"/>
			<g>
				<path style="fill:none;stroke:#FFFFFF;stroke-width:0.1591;" d="M281.174,81.637c0,0.08,0.077,0.147,0.168,0.147
					c0.088,0,0.161-0.068,0.161-0.147c0-0.085-0.073-0.148-0.161-0.148C281.251,81.489,281.174,81.552,281.174,81.637z"/>
				<path style="fill:none;stroke:#FFFFFF;stroke-width:0.1591;" d="M280.776,86.567c0,0.083,0.074,0.151,0.161,0.151
					c0.095,0,0.166-0.068,0.166-0.151c0-0.082-0.071-0.148-0.166-0.148C280.851,86.419,280.776,86.485,280.776,86.567z"/>
				<path style="fill:none;stroke:#FFFFFF;stroke-width:0.1591;" d="M277.82,87.635c0,0.085,0.07,0.153,0.161,0.153
					s0.165-0.068,0.165-0.153c0-0.079-0.074-0.147-0.165-0.147S277.82,87.556,277.82,87.635z"/>
				<path style="fill:none;stroke:#FFFFFF;stroke-width:0.1591;" d="M279.257,86.3c0,0.083,0.073,0.148,0.168,0.148
					c0.091,0,0.164-0.065,0.164-0.148c0-0.085-0.073-0.15-0.164-0.15C279.33,86.15,279.257,86.215,279.257,86.3z"/>
				<path style="fill:none;stroke:#FFFFFF;stroke-width:0.1591;" d="M276.823,85.647c0,0.08,0.073,0.147,0.164,0.147
					s0.162-0.068,0.162-0.147c0-0.085-0.071-0.151-0.162-0.151S276.823,85.562,276.823,85.647z"/>
				<path style="fill:none;stroke:#FFFFFF;stroke-width:0.1591;" d="M281.015,83.654c0,0.082,0.071,0.147,0.159,0.147
					c0.097,0,0.168-0.065,0.168-0.147c0-0.08-0.071-0.148-0.168-0.148C281.086,83.506,281.015,83.574,281.015,83.654z"/>
				<path style="fill:none;stroke:#FFFFFF;stroke-width:0.1591;" d="M276.794,83.358c0,0.079,0.071,0.147,0.166,0.147
					c0.088,0,0.159-0.068,0.159-0.147c0-0.083-0.071-0.148-0.159-0.148C276.865,83.21,276.794,83.276,276.794,83.358z"/>
				<ellipse style="fill:none;stroke:#FFFFFF;stroke-width:0.1591;" cx="276.661" cy="81.427" rx="0.162" ry="0.148"/>
				<ellipse style="fill:none;stroke:#FFFFFF;stroke-width:0.1591;" cx="278.37" cy="81.234" rx="0.163" ry="0.147"/>
				<path style="fill:none;stroke:#FFFFFF;stroke-width:0.1591;" d="M279.854,84.605c0,0.082,0.074,0.15,0.165,0.15
					c0.088,0,0.164-0.068,0.164-0.15c0-0.083-0.076-0.147-0.164-0.147C279.928,84.458,279.854,84.522,279.854,84.605z"/>
				<path style="fill:none;stroke:#FFFFFF;stroke-width:0.1591;" d="M278.727,82.941c0,0.082,0.073,0.15,0.161,0.15
					c0.089,0,0.168-0.068,0.168-0.15c0-0.08-0.079-0.148-0.168-0.148C278.8,82.793,278.727,82.861,278.727,82.941z"/>
				<path style="fill:none;stroke:#FFFFFF;stroke-width:0.1591;" d="M277.567,84.426c0,0.085,0.071,0.151,0.162,0.151
					s0.161-0.065,0.161-0.151c0-0.079-0.07-0.147-0.161-0.147S277.567,84.347,277.567,84.426z"/>
				<ellipse style="fill:none;stroke:#FFFFFF;stroke-width:0.1591;" cx="280.335" cy="80.566" rx="0.163" ry="0.147"/>
			</g>
			<path style="fill:none;stroke:#FFFFFF;stroke-width:0.1591;" d="M279.572,91.811c-0.079-0.021-0.162,0.036-0.182,0.124
				c-0.02,0.086,0.025,0.177,0.105,0.193c0.079,0.021,0.161-0.034,0.182-0.125C279.702,91.918,279.655,91.833,279.572,91.811z"/>
			<path style="fill:none;stroke:#FFFFFF;stroke-width:0.1591;" d="M274.883,90.243c-0.079-0.023-0.162,0.034-0.185,0.119
				c-0.022,0.089,0.026,0.177,0.105,0.196s0.162-0.037,0.182-0.125S274.963,90.259,274.883,90.243z"/>
			<path style="fill:none;stroke:#FFFFFF;stroke-width:0.1591;" d="M274.551,87.113c-0.08-0.02-0.161,0.034-0.181,0.125
				c-0.023,0.085,0.022,0.176,0.104,0.193c0.079,0.02,0.162-0.034,0.185-0.123C274.679,87.221,274.63,87.132,274.551,87.113z"/>
			<path style="fill:none;stroke:#FFFFFF;stroke-width:0.1591;" d="M275.505,88.833c-0.082-0.023-0.162,0.034-0.185,0.123
				c-0.022,0.087,0.029,0.172,0.105,0.195c0.082,0.018,0.165-0.036,0.185-0.125C275.633,88.939,275.585,88.851,275.505,88.833z"/>
			<path style="fill:none;stroke:#FFFFFF;stroke-width:0.1591;" d="M274.721,83.157c-0.079-0.02-0.161,0.037-0.184,0.122
				c-0.022,0.088,0.028,0.176,0.107,0.199c0.076,0.017,0.159-0.04,0.179-0.125C274.844,83.262,274.801,83.176,274.721,83.157z"/>
			<path style="fill:none;stroke:#FFFFFF;stroke-width:0.1591;" d="M277.649,91.168c-0.076-0.017-0.155,0.034-0.179,0.125
				c-0.021,0.086,0.023,0.17,0.103,0.193c0.08,0.02,0.161-0.037,0.184-0.125C277.78,91.276,277.729,91.191,277.649,91.168z"/>
			<path style="fill:none;stroke:#FFFFFF;stroke-width:0.1591;" d="M274.409,80.585c-0.08-0.019-0.162,0.036-0.179,0.124
				c-0.022,0.088,0.022,0.176,0.103,0.196c0.082,0.017,0.161-0.037,0.184-0.125C274.537,80.694,274.488,80.606,274.409,80.585z"/>
			<path style="fill:none;stroke:#FFFFFF;stroke-width:0.1591;" d="M274.687,85.278c-0.081-0.017-0.161,0.037-0.182,0.125
				c-0.022,0.087,0.023,0.173,0.101,0.193c0.081,0.02,0.164-0.034,0.184-0.123C274.812,85.386,274.765,85.301,274.687,85.278z"/>
			<path style="fill:none;stroke:#FFFFFF;stroke-width:0.1591;" d="M280.68,89.021c-0.083-0.02-0.164,0.037-0.187,0.125
				c-0.023,0.084,0.024,0.172,0.104,0.193c0.083,0.023,0.162-0.034,0.186-0.125C280.802,89.129,280.756,89.041,280.68,89.021z"/>
			<path style="fill:none;stroke:#FFFFFF;stroke-width:0.1591;" d="M277.005,89.817c-0.079-0.021-0.162,0.034-0.185,0.122
				c-0.02,0.087,0.029,0.173,0.11,0.196c0.074,0.016,0.159-0.038,0.182-0.125C277.136,89.921,277.087,89.833,277.005,89.817z"/>
			<path style="fill:none;stroke:#FFFFFF;stroke-width:0.1591;" d="M278.894,89.118c-0.079-0.023-0.162,0.034-0.185,0.125
				c-0.023,0.085,0.025,0.173,0.105,0.193c0.079,0.018,0.162-0.034,0.185-0.125C279.019,89.226,278.973,89.138,278.894,89.118z"/>
			<path style="fill:none;stroke:#FFFFFF;stroke-width:0.1591;" d="M276.764,88.164c-0.077-0.017-0.162,0.037-0.179,0.125
				c-0.023,0.088,0.022,0.175,0.102,0.193c0.08,0.023,0.163-0.035,0.186-0.12C276.892,88.271,276.846,88.186,276.764,88.164z"/>
			<path style="fill:none;stroke:#FFFFFF;stroke-width:0.1591;" d="M280.854,91.092c-0.077-0.02-0.159,0.037-0.182,0.122
				c-0.021,0.086,0.025,0.177,0.104,0.193c0.08,0.023,0.161-0.034,0.183-0.122C280.981,91.197,280.936,91.111,280.854,91.092z"/>
			<path style="fill:none;stroke:#A8D0DA;stroke-width:0.3603;stroke-linecap:round;stroke-linejoin:round;" d="M282.083,76.004
				c0.037,6.69,0.037,10.166,0.037,15.502c0,1.133-2.1,1.133-4.354,1.133c-2.196,0-4.541,0.042-4.541-1.054
				c0-4.365,0-11.238,0.039-15.582"/>
			
				<ellipse style="fill:none;stroke:#A8D0DA;stroke-width:0.3603;stroke-linecap:round;stroke-linejoin:round;" cx="277.674" cy="76.004" rx="4.409" ry="0.832"/>
			<path style="fill:none;stroke:#A8D0DA;stroke-width:0.2402;stroke-linecap:round;stroke-linejoin:round;" d="M282.12,81.072
				c-1.198-0.559-0.767,4.641-0.811,5.425c-0.096,1.963,0.074,4.058,0.083,5.819"/>
			<path style="fill:none;stroke:#A8D0DA;stroke-width:0.2402;stroke-linecap:round;stroke-linejoin:round;" d="M280.504,92.475
				c0-1.446-0.162-2.812-0.162-4.283c0-1.712,0.338-3.348-0.062-5.016c-0.102-0.423-0.304-1.837-0.974-1.784
				c-0.461,0.04-0.75,1.256-0.824,1.622c-0.346,1.786-0.093,3.919,0,5.739c0.062,1.233,0.162,2.75,0.162,3.804"/>
			<path style="fill:none;stroke:#A8D0DA;stroke-width:0.2402;stroke-linecap:round;stroke-linejoin:round;" d="M277.676,92.558
				c0-1.958-0.188-3.838-0.083-5.82c0.088-1.625,0.38-3.675-0.417-5.083c-1.583-0.455-1.201,9.696-1.201,10.903"/>
			<path style="fill:none;stroke:#A8D0DA;stroke-width:0.2402;stroke-linecap:round;stroke-linejoin:round;" d="M273.792,92.316
				c0-1.619-0.039-7.441,0.08-8.901c0.06-0.728,0.927-3.692,1.463-1.693c0.366,1.386,0.125,2.747-0.006,4.124
				c-0.21,2.158-0.229,4.68-0.244,6.629"/>
		</g>
		<path style="fill:none;stroke:#777768;stroke-width:1.3087;stroke-linecap:round;stroke-linejoin:round;" d="M282.917,83.938
			c0,0.693-0.161,1.113-0.502,1.866c-0.564,1.241-2.743,4.002-5.374,3.272"/>
		<path style="fill:none;stroke:#777768;stroke-width:1.3087;stroke-linecap:round;stroke-linejoin:round;" d="M275.329,86.119
			c-0.724-0.522-1.189-1.292-1.852-2.283c-0.198-0.298-0.61-0.952-0.744-1.349c-0.31,0.42,0.329,1.321,0.323,1.849
			c-0.005,0.332,0.893,4.521,1,4.828"/>
		<path style="fill:none;stroke:#777768;stroke-width:1.3087;stroke-linecap:round;stroke-linejoin:round;" d="M272.742,82.075
			c0.591,0.301,1.014,0.528,1.724,0.593c0.56,0.051,1.366,0.071,1.82-0.23"/>
	</g>
</g>
</svg>
