<?xml version="1.0" encoding="iso-8859-1"?>
<!-- Generator: Adobe Illustrator 13.0.0, SVG Export Plug-In . SVG Version: 6.00 Build 14948)  -->
<!DOCTYPE svg PUBLIC "-//W3C//DTD SVG 1.1//EN" "http://www.w3.org/Graphics/SVG/1.1/DTD/svg11.dtd">
<svg version="1.1" xmlns="http://www.w3.org/2000/svg" xmlns:xlink="http://www.w3.org/1999/xlink" x="0px" y="0px" width="540px"
	 height="200px" viewBox="0 0 540 200" style="enable-background:new 0 0 540 200;" xml:space="preserve">
<g id="Layer_2">
	<g>
		<rect style="fill:none;" width="540" height="200"/>
		<rect style="fill:#FFFFFF;" width="540" height="200"/>
	</g>
</g>
<g id="Layer_4">
	<g>
		<path style="fill:#5B3A1E;stroke:#5B3A1E;stroke-width:0.836;stroke-linecap:round;stroke-linejoin:round;" d="M87.811,140.814
			c1.544-1.016,0.12-3.966-0.224-5.267c-0.45-1.7-0.371-3.271-0.292-5.04c3.002,1.55,6.703,3.263,10.25,3.773
			c-0.377,1.813,1.474,5.208,2.175,6.785"/>
		<g>
			<g>
				<g>
					<path style="fill:#FFFF00;stroke:#56361C;stroke-width:0.836;stroke-linecap:round;stroke-linejoin:round;" d="M94.993,138.44
						c-2.969,6,2.325,16.004,6.631,19.794c12.191,10.739,23.75,10.615,31.103,9.686c3.291-0.417,11.044-4.647,12.585-7.418
						c1.019-1.836,4.881-6.722,0.418-7.733c-1.709-0.388-6.034,1.686-7.537,2.136c-1.827,0.552-3.866,0.59-5.76,0.779
						c-5.966,0.596-13.347-0.751-18.782-4.127c-2.869-1.781-8.795-7.287-11.667-9.21c-2.139-1.435-4.598-4.803-7.347-3.537"/>
					<path style="fill:#56361C;stroke:#56361C;stroke-width:0.418;stroke-linecap:round;stroke-linejoin:round;" d="M147.391,153.71
						c0.198,1.084-0.488,5.928-1.599,5.998C144.012,154.316,141.549,150.206,147.391,153.71"/>
				</g>
				<path style="fill:#FFFF00;stroke:#56361C;stroke-width:0.836;stroke-linecap:round;stroke-linejoin:round;" d="M110.976,155.185
					c13.543,9.869,26.802,3.786,34.225,1.385"/>
			</g>
			<g>
				<path style="fill:#FFFF00;stroke:#56361C;stroke-width:0.836;stroke-linecap:round;stroke-linejoin:round;" d="M90.891,139.64
					c-4.158,5.242-1.031,16.102,2.339,20.741c2.117,2.919,6.356,9.004,9.364,10.899c3.369,2.113,5.971,3.496,9.827,4.7
					c3.363,1.051,10.582,0.829,14.006-0.281c3.152-1.022,7.917-2.699,10.005-5.089c1.377-1.578,6.178-5.549,2.027-7.474
					c-1.59-0.733-6.253,0.389-7.818,0.513c-1.9,0.158-3.903-0.231-5.793-0.446c-5.958-0.663-13.849-2.393-18.458-6.834
					c-2.431-2.343-7.073-8.965-9.481-11.448c-1.791-1.851-3.49-5.661-6.442-4.997c0.758,3.804,2.073,9.328,5.046,12.189
					c-0.156-0.117-0.373-0.221-0.508-0.355"/>
				<path style="fill:#FFFF00;stroke:#56361C;stroke-width:0.836;stroke-linecap:round;stroke-linejoin:round;" d="M107.071,164.274
					c2.015,1.081,3.366,2.694,5.655,3.045"/>
				<path style="fill:#56361C;stroke:#56361C;stroke-width:0.418;stroke-linecap:round;stroke-linejoin:round;" d="M139.884,164.406
					c-0.029,1.1-0.783,4.716-1.885,4.552C137.229,168.009,134.909,159.756,139.884,164.406"/>
			</g>
			<g>
				<path style="fill:#FFFF00;stroke:#56361C;stroke-width:0.836;stroke-linecap:round;stroke-linejoin:round;" d="M88.892,139.783
					c-5.273,4.121-4.781,15.409-2.597,20.711c1.371,3.337,2.514,5.938,4.993,8.487c2.775,2.849,4.983,4.806,8.447,6.881
					c3.022,1.811,10.089,3.286,13.68,3.015c3.305-0.254,8.333-0.765,10.919-2.595c1.713-1.212,7.312-3.942,3.726-6.789
					c-1.37-1.088-6.155-1.173-7.715-1.343c-10.161-1.089-18.432-7.371-21.866-12.771c-1.812-2.846-3.219-6.067-4.975-9.049
					c-1.307-2.218-2.067-6.32-5.091-6.369c-0.152,3.877-0.176,9.553,2.042,13.036c-0.124-0.151-0.31-0.303-0.411-0.465"/>
				<path style="fill:#FFFF00;stroke:#56361C;stroke-width:0.836;stroke-linecap:round;stroke-linejoin:round;" d="M95.037,159.812
					c1.376,3.109,4.89,6.822,7.03,7.7"/>
				<path style="fill:#56361C;stroke:#56361C;stroke-width:0.418;stroke-linecap:round;stroke-linejoin:round;" d="M129.148,171.061
					c-0.287,1.061-1.869,4.399-2.901,3.979C125.722,173.939,125.402,165.371,129.148,171.061"/>
				<path style="fill:none;stroke:#56361C;stroke-width:0.836;stroke-linecap:round;stroke-linejoin:round;" d="M108.285,171.442
					c7.071,1.883,15.06,1.552,17.696,0.286"/>
			</g>
		</g>
	</g>
	<g>
		<path style="fill:#5B3A1E;stroke:#5B3A1E;stroke-width:0.836;stroke-linecap:round;stroke-linejoin:round;" d="M72.682,158.325
			c1.168-1.431-1.072-3.821-1.788-4.96c-0.938-1.487-1.332-3.011-1.786-4.723c3.328,0.583,7.372,1.111,10.91,0.54
			c0.182,1.843,2.962,4.528,4.104,5.823"/>
		<g>
			<g>
				<g>
					<path style="fill:#FFFF00;stroke:#56361C;stroke-width:0.836;stroke-linecap:round;stroke-linejoin:round;" d="M78.825,153.912
						c-1.041,6.612,7.001,14.58,12.243,16.91c14.844,6.604,25.837,3.031,32.577-0.054c3.015-1.381,9.151-7.735,9.794-10.839
						c0.423-2.059,2.648-7.875-1.913-7.506c-1.747,0.142-5.254,3.412-6.554,4.291c-1.579,1.072-3.513,1.717-5.264,2.465
						c-5.516,2.352-12.961,3.272-19.158,1.674c-3.27-0.842-10.57-4.324-13.886-5.302c-2.47-0.729-5.823-3.21-8.069-1.182"/>
					<path style="fill:#56361C;stroke:#56361C;stroke-width:0.418;stroke-linecap:round;stroke-linejoin:round;" d="
						M133.393,152.826c0.513,0.976,1.305,5.802,0.266,6.201C130.349,154.416,126.77,151.228,133.393,152.826"/>
				</g>
				<path style="fill:#FFFF00;stroke:#56361C;stroke-width:0.836;stroke-linecap:round;stroke-linejoin:round;" d="M99.082,165.115
					c15.875,5.372,26.709-4.397,33.075-8.906"/>
			</g>
			<g>
				<path style="fill:#FFFF00;stroke:#56361C;stroke-width:0.836;stroke-linecap:round;stroke-linejoin:round;" d="M75.27,156.283
					c-2.402,6.245,3.828,15.674,8.431,19.094c2.892,2.153,8.755,6.691,12.192,7.603c3.847,1.012,6.743,1.553,10.784,1.55
					c3.523-0.002,10.345-2.371,13.282-4.454c2.702-1.917,6.749-4.943,8.027-7.846c0.842-1.918,4.237-7.143-0.3-7.738
					c-1.736-0.225-5.852,2.239-7.307,2.826c-1.767,0.719-3.794,0.944-5.662,1.306c-5.885,1.147-13.932,1.854-19.658-1.007
					c-3.021-1.51-9.43-6.441-12.469-8.092c-2.262-1.23-5.023-4.358-7.641-2.844c1.861,3.404,4.766,8.282,8.458,10.126
					c-0.185-0.066-0.422-0.1-0.591-0.188"/>
				<path style="fill:#FFFF00;stroke:#56361C;stroke-width:0.836;stroke-linecap:round;stroke-linejoin:round;" d="M98.071,174.957
					c2.245,0.43,4.018,1.566,6.306,1.215"/>
				<path style="fill:#56361C;stroke:#56361C;stroke-width:0.418;stroke-linecap:round;stroke-linejoin:round;" d="M129.424,165.277
					c0.301,1.057,0.662,4.733-0.439,4.906C127.967,169.508,123.288,162.326,129.424,165.277"/>
			</g>
			<g>
				<path style="fill:#FFFF00;stroke:#56361C;stroke-width:0.836;stroke-linecap:round;stroke-linejoin:round;" d="M73.405,157.019
					c-3.802,5.508,0.042,16.134,3.71,20.54c2.305,2.774,4.173,4.914,7.301,6.606c3.5,1.89,6.191,3.097,10.117,4.042
					c3.425,0.825,10.611,0.122,13.957-1.211c3.079-1.23,7.725-3.22,9.645-5.738c1.272-1.669,5.8-5.948,1.526-7.593
					c-1.631-0.63-6.223,0.719-7.764,1.023c-10.021,1.997-19.792-1.525-24.683-5.651c-2.58-2.176-4.885-4.829-7.451-7.149
					c-1.911-1.727-3.862-5.415-6.762-4.557c1.013,3.745,2.686,9.169,5.845,11.829c-0.165-0.107-0.388-0.196-0.532-0.321"/>
				<path style="fill:#FFFF00;stroke:#56361C;stroke-width:0.836;stroke-linecap:round;stroke-linejoin:round;" d="M85.254,174.295
					c2.242,2.556,6.706,5.05,9.01,5.247"/>
				<path style="fill:#56361C;stroke:#56361C;stroke-width:0.418;stroke-linecap:round;stroke-linejoin:round;" d="M121.168,174.835
					c0.042,1.098-0.469,4.757-1.579,4.665C118.758,178.606,115.893,170.525,121.168,174.835"/>
				<path style="fill:none;stroke:#56361C;stroke-width:0.836;stroke-linecap:round;stroke-linejoin:round;" d="M101.372,181.435
					c7.311-0.317,14.836-3.02,16.973-5.015"/>
			</g>
		</g>
	</g>
	<path style="fill:#FEB854;stroke:#FD8D33;stroke-width:0.418;stroke-linecap:round;stroke-linejoin:round;" d="M168.353,121.254
		c-0.463-0.876-1.291-1.499-2.07-2.07c-1.981-1.45-4.835-2.481-7.287-2.738c-0.825-0.086-2.061-0.408-2.648,0.374
		c-0.668,0.897,0.029,2.488,0.325,3.458c0.897,2.912,2.883,5.1,5.645,6.337c2.606,1.169,5.426,1.014,7.811-0.371
		c1.889-1.096,2.691-3.188,2.553-5.315c-0.172-2.68-3.765-6.2-5.969-7.173c-0.71-0.312-1.456-0.543-2.203-0.767
		c-1.703-0.505-3.315-0.689-4.953,0.056c-0.996,0.453-1.662,0.813-2.275,1.729c-0.246,0.368-0.755,1.313-0.417,1.657"/>
	<path style="fill:#FEB854;stroke:#FD8D33;stroke-width:0.418;stroke-linecap:round;stroke-linejoin:round;" d="M234.157,124.976
		c-0.463-0.876-1.291-1.499-2.07-2.07c-1.981-1.45-4.834-2.481-7.286-2.738c-0.824-0.086-2.062-0.407-2.649,0.374
		c-0.667,0.897,0.029,2.488,0.326,3.458c0.897,2.912,2.882,5.099,5.644,6.338c2.606,1.168,5.427,1.013,7.812-0.372
		c1.889-1.097,2.691-3.188,2.553-5.315c-0.172-2.68-3.765-6.2-5.97-7.173c-0.709-0.312-1.456-0.543-2.203-0.767
		c-1.702-0.505-3.314-0.689-4.953,0.056c-0.996,0.454-1.662,0.813-2.274,1.729c-0.246,0.368-0.755,1.314-0.417,1.658"/>
	<path style="fill:#FEB854;stroke:#FD8D33;stroke-width:0.4561;stroke-linecap:round;stroke-linejoin:round;" d="M144.979,133.186
		c-0.426-1.089-1.23-1.924-1.988-2.693c-1.928-1.951-4.75-3.515-7.203-4.116c-0.825-0.201-2.054-0.732-2.678,0.119
		c-0.711,0.977-0.082,2.937,0.173,4.117c0.772,3.543,2.672,6.364,5.393,8.16c2.568,1.695,5.409,1.855,7.868,0.514
		c1.946-1.063,2.846-3.431,2.801-5.957c-0.053-3.181-3.509-7.771-5.682-9.186c-0.7-0.454-1.439-0.818-2.181-1.173
		c-1.688-0.803-3.3-1.216-4.98-0.538c-1.022,0.414-1.707,0.758-2.364,1.761c-0.263,0.405-0.817,1.458-0.493,1.905"/>
	<g>
		<path style="fill:#FE9F34;stroke:#FD8631;stroke-width:0.836;" d="M199.249,173.45c0-6.212-5.411-11.243-12.08-11.243
			c-6.672,0-12.083,5.031-12.083,11.243c0,6.211,5.41,11.243,12.083,11.243C193.837,184.693,199.249,179.661,199.249,173.45z"/>
		<path style="fill:#5AB227;" d="M193.208,179.491c0-0.32-0.261-0.579-0.578-0.579c-0.321,0-0.582,0.259-0.582,0.579
			c0,0.317,0.261,0.578,0.582,0.578C192.947,180.069,193.208,179.809,193.208,179.491z"/>
	</g>
	<g>
		
			<ellipse transform="matrix(0.5848 -0.8112 0.8112 0.5848 -52.5684 244.1969)" style="fill:#FE9F34;stroke:#FD8631;stroke-width:0.836;" cx="212.252" cy="173.448" rx="11.413" ry="11.236"/>
		
			<ellipse transform="matrix(0.5834 -0.8122 0.8122 0.5834 -48.6221 250.7886)" style="fill:#5AB227;" cx="220.165" cy="172.792" rx="0.547" ry="0.578"/>
	</g>
	<g>
		<path style="fill:#26992F;" d="M58.17,105.688c-0.952-0.024-1.103-1.633-1.614-2.353c-1.567-2.198-5.037-2.618-7.502-2.2
			c-1.507,0.257-3.466,0.947-2.507,2.194c0.065,0.086,0.8,0.434,1.033,0.689c0.554,0.601,9.554,1.361,10.423,1.38"/>
		<path style="fill:#824341;stroke:#824341;stroke-width:1.672;" d="M58.314,105.803c-0.369-1.365,0.716-3.425,0.716-3.988
			c-0.477,0,0.932,0.142,0.65,0.421c-0.587,0.589-1.082,3.26-1.351,3.619c-0.119,0.156-0.228-0.532-0.326-0.455"/>
		<path style="fill:#88C936;" d="M58.589,106.011c0.18-2.981,6.205-2.288,7.952-1.584c2.16,0.869,4.152,2.884,4.506,5.239
			c0.47,3.104-0.602,5.221-1.046,7.754c-0.413,2.352-1.528,4.286-2.69,5.902c-1.462,2.027-4.962,4.552-5.887,4.937
			c-1.388,0.581-1.684-0.25-3.161-0.393c-1.864-0.175-1.457,0.533-3.28,0.825c-1.639,0.263-4.824-0.997-6.888-3.626
			c-3.17-4.037-4.866-9.525-3.868-14.621c0.338-1.719,1.231-4.165,2.843-5.153c1.495-0.917,3.811-0.62,5.492-0.62
			c1.088,0,1.962,0.177,2.965,0.277c0.594,0.06,2.454,0.665,3.014,0.87"/>
	</g>
	<g>
		<path style="fill:#26992F;" d="M30.197,109.124c0.672-0.676-0.331-1.942-0.457-2.815c-0.385-2.673,1.833-5.373,3.905-6.773
			c1.268-0.856,3.161-1.709,3.33-0.145c0.011,0.106-0.279,0.865-0.271,1.212c0.013,0.816-5.97,7.583-6.585,8.195"/>
		<path style="fill:#824341;stroke:#824341;stroke-width:1.672;" d="M30.172,109.306c-0.676-1.242-2.883-1.981-3.272-2.39
			c0.345-0.329-0.576,0.746-0.178,0.754c0.83,0.02,3.033,1.609,3.476,1.684c0.195,0.03-0.203-0.541-0.078-0.555"/>
		<path style="fill:#88C936;" d="M30.116,109.646c-2.189-2.032-6.067,2.63-6.844,4.347c-0.962,2.119-1.012,4.952,0.359,6.9
			c1.804,2.569,4.042,3.36,6.112,4.886c1.923,1.415,4.064,2.044,6.021,2.41c2.458,0.457,6.732-0.134,7.667-0.495
			c1.405-0.538,1.045-1.344,2.016-2.466c1.226-1.414,1.421-0.62,2.942-1.669c1.366-0.942,2.799-4.052,2.476-7.38
			c-0.496-5.108-3.06-10.249-7.3-13.246c-1.432-1.009-3.766-2.161-5.615-1.762c-1.715,0.369-3.185,2.182-4.4,3.343
			c-0.787,0.751-1.297,1.483-1.954,2.249c-0.388,0.452-1.315,2.176-1.578,2.711"/>
	</g>
	<g>
		<g>
			<path style="fill:#E11D1A;stroke:#ED481C;stroke-width:0.2508;stroke-linecap:round;stroke-linejoin:round;" d="M411.062,175.123
				c-0.457-0.699-1.094-1.415-1.894-1.754c-0.696-0.295-1.708-0.102-2.399,0.155c-0.784,0.292-1.425,0.739-1.857,1.456
				c-0.9,1.479-0.756,4.867-0.699,5.302c0.113,0.816-0.02,1.939,1.07,2.139c0.465,0.083,1.102,0.005,1.576,0.018
				c0.457,0.011,3.503-0.672,4.426-1.12c1.313-0.64,2.482-2.028,2.414-3.582c-0.031-0.772-0.604-1.356-1.19-1.694
				c-0.558-0.317-1.052-0.782-1.604-1.13"/>
			<g>
				<path style="fill:#3A9B29;stroke:#87C71D;stroke-width:0.2508;stroke-linecap:round;stroke-linejoin:round;" d="M410.6,174.711
					c-0.935-0.681-2.587-0.018-3.597,0.099c0.619-0.056,1.227,0.108,1.849,0.161c0.589,0.051,1.199-0.078,1.759-0.017
					c-0.201,0.388-0.257,0.844-0.545,1.217c-0.314,0.408-0.824,0.627-1.215,0.915c0.816,0.414,2.634-0.957,2.254-1.788
					c0.239,0.209,0.244,0.489,0.365,0.749c0.1,0.224,0.276,0.474,0.424,0.709c0.295,0.475,0.425,0.88,0.373,1.429
					c0.531-0.48-0.139-2.202-0.654-2.569c0.577,0.239,1.289,0.345,1.889,0.354c0.523,0.007,1.279-0.25,1.764-0.089
					c-0.586-0.056-1.285-0.074-1.898-0.184c-0.504-0.088-1.002-0.303-1.521-0.289c-0.033-0.418-0.676-0.452-0.781-0.769
					c-0.111-0.316,0.045-0.746-0.114-1.057c-0.421-0.803-1.475-1.362-2.17-1.657c0.743,0.858,1.093,1.8,1.598,2.717
					c0.046-0.062-0.019-0.049-0.042-0.1"/>
				<path style="fill:#3A9B29;stroke:#87C71D;stroke-width:0.2508;stroke-linecap:round;stroke-linejoin:round;" d="
					M410.979,174.908c0.589-0.352,1.026-1.044,1.403-1.574c0.191,0.165,0.379,0.339,0.604,0.452
					c-0.59,0.241-1.191,1.135-1.543,1.534"/>
			</g>
		</g>
		<path style="fill:#FE9F34;" d="M411.823,178.004c-0.043-0.068-0.093-0.094-0.158-0.075c-0.096,0.299-0.11,0.512-0.268,0.798
			c0.446,0.137,0.416-0.587,0.308-0.825"/>
		<path style="fill:#FE9F34;" d="M406.661,175.495c-0.203,0.195-0.639,0.249-0.438,0.574c0.252-0.032,0.508-0.204,0.334-0.455"/>
		<path style="fill:#FE9F34;" d="M409.38,175.7c-0.188,0.09-0.486,0.664-0.107,0.53c0.24-0.083,0.181-0.404,0.238-0.601
			c-0.129,0.059-0.217,0.147-0.304,0.263"/>
		<path style="fill:#FE9F34;" d="M407.034,178.107c-0.188,0.167-0.526,0.248-0.406,0.545c0.186-0.032,0.34-0.192,0.457-0.364"/>
		<path style="fill:#FE9F34;" d="M409.2,179.403c-0.29,0.256-0.637,0.43-0.537,0.829c0.074-0.037,0.258-0.141,0.323-0.188
			c-0.026-0.178,0.03-0.301,0.113-0.451"/>
		<path style="fill:#FE9F34;" d="M406.55,180.989c-0.123,0.17-0.293,0.264-0.484,0.253c0.158-0.312,0.479-0.299,0.675-0.545
			c-0.052,0.06-0.101,0.124-0.157,0.182"/>
		<path style="fill:#FE9F34;" d="M405.732,178.955c-0.278,0.052-0.54,0.45-0.325,0.665c0.095-0.165,0.143-0.372,0.226-0.551"/>
		<path style="fill:#FE9F34;" d="M410.148,180.592c-0.073,0.26-0.247,0.575-0.539,0.55c0.022-0.175,0.12-0.226,0.228-0.276"/>
		<path style="fill:#FE9F34;" d="M405.517,177.175c-0.245-0.07-0.521,0.133-0.419,0.401c0.183-0.038,0.285-0.17,0.312-0.358"/>
		<path style="fill:#FE9F34;" d="M407.819,174.108c-0.115-0.007-0.289,0.04-0.402,0.058c0,0.053,0.002,0.159,0.021,0.216
			c0.141,0.104,0.189,0.029,0.283-0.083"/>
	</g>
	<path style="fill:#FEB854;stroke:#FD8D33;stroke-width:0.418;stroke-linecap:round;stroke-linejoin:round;" d="M193.925,129.434
		c0.947,0.292,1.972,0.146,2.927,0c2.427-0.376,5.173-1.665,7.089-3.217c0.644-0.522,1.746-1.17,1.608-2.138
		c-0.162-1.106-1.779-1.739-2.675-2.215c-2.693-1.425-5.645-1.567-8.472-0.49c-2.669,1.018-4.554,3.12-5.261,5.787
		c-0.56,2.109,0.351,4.156,1.953,5.562c2.017,1.773,7.047,1.723,9.294,0.852c0.722-0.282,1.414-0.646,2.1-1.016
		c1.561-0.847,2.831-1.856,3.463-3.542c0.383-1.025,0.6-1.75,0.387-2.831c-0.086-0.434-0.396-1.463-0.877-1.467"/>
	<g>
		<g>
			<path style="fill:#E11D1A;stroke:#ED481C;stroke-width:0.2508;stroke-linecap:round;stroke-linejoin:round;" d="M356.261,173.593
				c0.81-0.219,1.762-0.331,2.585-0.056c0.713,0.241,1.346,1.058,1.69,1.708c0.396,0.739,0.578,1.499,0.425,2.323
				c-0.312,1.703-2.663,4.142-2.995,4.428c-0.626,0.541-1.271,1.467-2.22,0.892c-0.402-0.244-0.824-0.728-1.189-1.032
				c-0.351-0.297-2.176-2.827-2.564-3.771c-0.564-1.353-0.52-3.168,0.564-4.287c0.537-0.553,1.352-0.613,2.014-0.475
				c0.629,0.132,1.307,0.11,1.951,0.218"/>
			<g>
				<path style="fill:#3A9B29;stroke:#87C71D;stroke-width:0.2508;stroke-linecap:round;stroke-linejoin:round;" d="
					M356.884,173.593c1.15,0.111,1.944,1.701,2.624,2.458c-0.426-0.454-0.988-0.732-1.488-1.104
					c-0.477-0.354-0.846-0.853-1.307-1.184c-0.107,0.425-0.365,0.806-0.398,1.274c-0.035,0.516,0.197,1.018,0.303,1.49
					c-0.887-0.23-1.336-2.464-0.503-2.832c-0.315-0.002-0.507,0.205-0.768,0.318c-0.225,0.1-0.524,0.171-0.788,0.249
					c-0.536,0.16-0.9,0.378-1.229,0.821c-0.08-0.713,1.564-1.559,2.193-1.491c-0.587-0.2-1.192-0.593-1.648-0.985
					c-0.395-0.341-0.79-1.035-1.261-1.238c0.477,0.351,1.014,0.796,1.544,1.123c0.434,0.27,0.952,0.44,1.33,0.794
					c0.302-0.289,0.806,0.109,1.096-0.057c0.291-0.165,0.459-0.588,0.785-0.712c0.848-0.322,2.008-0.045,2.723,0.196
					c-1.123,0.149-2.01,0.622-2.998,0.971c0.009-0.075,0.048-0.021,0.099-0.042"/>
				<path style="fill:#3A9B29;stroke:#87C71D;stroke-width:0.2508;stroke-linecap:round;stroke-linejoin:round;" d="
					M356.471,173.488c-0.213-0.656-0.078-1.466-0.01-2.108c-0.251-0.004-0.506,0-0.748-0.063c0.281,0.573,0.137,1.64,0.137,2.172"/>
			</g>
		</g>
		<path style="fill:#FE9F34;" d="M353.783,175.245c0.074-0.024,0.131-0.008,0.17,0.049c-0.131,0.284-0.26,0.455-0.332,0.771
			c-0.425-0.192,0.078-0.715,0.317-0.82"/>
		<path style="fill:#FE9F34;" d="M359.308,176.792c0.026,0.281,0.314,0.608-0.052,0.72c-0.167-0.191-0.245-0.49,0.052-0.563"/>
		<path style="fill:#FE9F34;" d="M357.142,175.14c0.077,0.193-0.081,0.82-0.276,0.47c-0.119-0.221,0.135-0.423,0.223-0.607
			c0.057,0.131,0.062,0.253,0.054,0.396"/>
		<path style="fill:#FE9F34;" d="M357.294,178.497c0.034,0.249,0.231,0.536-0.054,0.681c-0.117-0.147-0.126-0.372-0.099-0.577"/>
		<path style="fill:#FE9F34;" d="M354.816,178.032c0.048,0.383,0.191,0.745-0.146,0.976c-0.033-0.077-0.1-0.274-0.117-0.354
			c0.135-0.118,0.174-0.249,0.213-0.415"/>
		<path style="fill:#FE9F34;" d="M355.746,180.977c-0.02,0.206,0.044,0.393,0.197,0.511c0.09-0.339-0.159-0.542-0.145-0.857
			c0,0.081-0.006,0.163,0,0.243"/>
		<path style="fill:#FE9F34;" d="M357.707,179.994c0.178,0.228,0.105,0.697-0.197,0.715c0.039-0.186,0.141-0.371,0.197-0.56"/>
		<path style="fill:#FE9F34;" d="M353.318,178.29c-0.116,0.244-0.197,0.597,0.039,0.771c0.1-0.146,0.057-0.248,0.016-0.356"/>
		<path style="fill:#FE9F34;" d="M359.05,178.807c0.233,0.109,0.303,0.443,0.051,0.577c-0.116-0.148-0.102-0.315,0.003-0.474"/>
		<path style="fill:#FE9F34;" d="M359.361,174.985c0.093,0.072,0.192,0.221,0.264,0.312c-0.033,0.037-0.108,0.115-0.158,0.146
			c-0.174-0.017-0.159-0.104-0.159-0.252"/>
	</g>
	<g>
		<path style="fill:#FE9F34;stroke:#FD8631;stroke-width:0.836;" d="M173.381,173.45c0-6.213-5.411-11.244-12.08-11.244
			c-6.672,0-12.083,5.031-12.083,11.244c0,6.21,5.41,11.243,12.083,11.243C167.97,184.693,173.381,179.66,173.381,173.45z"/>
		<path style="fill:#5AB227;" d="M167.341,179.49c0-0.319-0.261-0.579-0.578-0.579c-0.321,0-0.582,0.26-0.582,0.579
			c0,0.318,0.261,0.578,0.582,0.578C167.08,180.068,167.341,179.809,167.341,179.49z"/>
	</g>
	<g>
		<path style="fill:#E11D1A;stroke:#ED481C;stroke-width:0.2508;stroke-linecap:round;stroke-linejoin:round;" d="M404.259,174.625
			c-0.363-0.125-0.609-0.383-0.93-0.569c-0.404-0.23-0.791-0.315-1.256-0.409c-0.822-0.169-2.088-0.338-2.73,0.257
			c-0.801,0.738-1.014,1.559-1.318,2.583c-0.24,0.795-0.846,2.206-0.637,3.045c0.174,0.694,1.111,1.423,1.564,1.898
			c0.352,0.368,0.477,0.511,1.018,0.528c2.791,0.094,3.902-0.697,5.243-1.419c0.407-0.218,0.701-0.617,0.905-1.049
			c0.838-1.788-0.312-3.968-2.016-4.865"/>
		<path style="fill:#3A9B29;stroke:#87C71D;stroke-width:0.2508;stroke-linecap:round;stroke-linejoin:round;" d="M404.515,174.521
			c-0.125-0.378-0.012-0.807-0.139-1.188c-0.105-0.317-0.373-0.63-0.535-0.912c0.193,0.61,0.338,1.204,0.307,1.887
			c-0.264-0.017-0.354-0.343-0.561-0.51c-0.219-0.181-0.516-0.316-0.775-0.425c-0.555-0.23-1.139-0.323-1.686-0.506
			c0.541,0.295,1.148,0.515,1.686,0.825c0.26,0.151,0.529,0.344,0.713,0.572c0.238,0.295,0.203,0.236,0.125,0.569
			c-0.107,0.478-0.453,0.907-0.568,1.393c-0.129,0.524-0.066,1.196-0.061,1.739c-0.357-1.109,0.432-2.333,1.188-3.036
			c0.406,0.345,0.484,1.013,0.658,1.502c0.229,0.668,0.122,1.161,0.161,1.843c0.772-0.71,0.504-3.086-0.397-3.555
			c0.002-0.146-0.082-0.165-0.062-0.146"/>
		<path style="fill:#3A9B29;stroke:#87C71D;stroke-width:0.2508;stroke-linecap:round;stroke-linejoin:round;" d="M404.722,174.73
			c0.471,0.014,0.639-0.509,0.683-0.879c0.069-0.554-0.152-0.594-0.571-0.874c0.171,0.449,0.242,1.377-0.215,1.44"/>
		<path style="fill:#FE9F34;" d="M404.259,176.535c0.07,0.277-0.115,0.689-0.352,0.818c-0.164-0.302,0.197-0.454,0.352-0.662"/>
		<path style="fill:#FE9F34;" d="M401.933,174.265c-0.395-0.131-0.883,0.003-0.768,0.508c0.271,0,0.445-0.257,0.615-0.455"/>
		<path style="fill:#FE9F34;" d="M402.71,175.09c-0.086,0.312-0.201,0.642-0.561,0.667c-0.018-0.331,0.348-0.336,0.51-0.563"/>
		<path style="fill:#FE9F34;" d="M404.618,179.169c0.018,0.436-0.363,0.828-0.768,0.677c0.092-0.211,0.389-0.416,0.656-0.427
			c0.029-0.086,0.074-0.123,0.111-0.198"/>
		<path style="fill:#FE9F34;" d="M398.526,177.103c-0.215,0.2-0.408,0.712-0.102,0.875c0.078-0.281,0.213-0.573,0.248-0.867
			c-0.064,0.058-0.18,0.087-0.25,0.148"/>
		<path style="fill:#FE9F34;" d="M400.333,175.864c-0.422,0.051-0.627,0.508-0.561,0.924c0.279-0.084,0.582-0.539,0.656-0.81
			c-0.072,0.006-0.062-0.03-0.096-0.062"/>
		<path style="fill:#FE9F34;" d="M401.987,177.93c-0.234,0.285-0.312,0.674-0.623,0.822c-0.146-0.281,0.275-0.483,0.467-0.615"/>
		<path style="fill:#FE9F34;" d="M402.659,179.738c-0.418,0.275-0.25,0.761-0.816,0.873c-0.266-0.432,0.465-0.613,0.711-0.771"/>
		<path style="fill:#FE9F34;" d="M399.61,179.066c-0.283,0.269-0.205,0.858-0.77,0.718c0.01-0.377,0.457-0.402,0.615-0.718"/>
		<path style="fill:#FE9F34;" d="M398.683,180.821c0.023,0.007-0.217,0.012-0.111-0.003c0.111,0.135,0.1,0.199,0.164,0.349
			c-0.035-0.188-0.107-0.349-0.262-0.456c-0.166,0.207-0.008,0.342,0.209,0.369"/>
		<path style="fill:#FE9F34;" d="M400.591,180.873c-0.219,0.02-0.33-0.086-0.303-0.301c0.189,0.028,0.363,0.099,0.551,0.156
			c-0.002,0.019,0,0.117,0.004,0.138c-0.139-0.01-0.326,0.001-0.459-0.045"/>
	</g>
	<g>
		<g>
			<path style="fill:#E11D1A;stroke:#ED481C;stroke-width:0.2508;stroke-linecap:round;stroke-linejoin:round;" d="M378.102,173.081
				c-0.357,0.222-0.75,0.251-1.127,0.395c-0.479,0.184-0.816,0.451-1.221,0.782c-0.714,0.584-1.736,1.54-1.678,2.502
				c0.072,1.188,0.622,1.939,1.281,2.911c0.51,0.754,1.287,2.248,2.146,2.653c0.711,0.332,1.979,0.043,2.699-0.012
				c0.557-0.042,0.764-0.051,1.156-0.501c2.016-2.304,2.113-3.797,2.434-5.44c0.096-0.496-0.041-1.022-0.266-1.493
				c-0.938-1.956-3.588-2.493-5.533-1.667"/>
			<path style="fill:#3A9B29;stroke:#87C71D;stroke-width:0.2508;stroke-linecap:round;stroke-linejoin:round;" d="M378.194,172.789
				c-0.411-0.153-0.694-0.551-1.11-0.706c-0.342-0.129-0.791-0.121-1.144-0.18c0.65,0.262,1.259,0.549,1.813,1.051
				c-0.195,0.216-0.533,0.063-0.82,0.124c-0.305,0.061-0.628,0.217-0.9,0.363c-0.578,0.31-1.063,0.743-1.599,1.083
				c0.626-0.258,1.233-0.62,1.872-0.862c0.307-0.115,0.658-0.211,0.982-0.209c0.417,0.001,0.338-0.007,0.568,0.289
				c0.33,0.425,0.459,1.013,0.789,1.451c0.357,0.473,0.971,0.885,1.435,1.256c-1.19-0.467-1.681-1.983-1.758-3.113
				c0.579-0.11,1.201,0.288,1.735,0.482c0.731,0.267,1.072,0.702,1.682,1.141c-0.068-1.148-2.273-2.57-3.299-2.127
				c-0.125-0.106-0.195-0.049-0.166-0.049"/>
			<path style="fill:#FE9F34;" d="M379.727,174.405c0.285,0.134,0.507,0.577,0.449,0.868c-0.369-0.072-0.246-0.483-0.318-0.759"/>
			<path style="fill:#FE9F34;" d="M376.185,174.805c-0.388,0.244-0.611,0.754-0.102,1.004c0.184-0.228,0.09-0.555,0.036-0.835"/>
			<path style="fill:#FE9F34;" d="M377.424,174.72c0.207,0.288,0.404,0.614,0.178,0.939c-0.295-0.215-0.047-0.528-0.128-0.824"/>
			<path style="fill:#FE9F34;" d="M382.215,175.928c0.382,0.286,0.45,0.883,0.043,1.122c-0.116-0.223-0.086-0.621,0.093-0.855
				c-0.054-0.083-0.056-0.146-0.093-0.229"/>
			<path style="fill:#FE9F34;" d="M376.232,179.673c0.02,0.32,0.319,0.837,0.67,0.691c-0.184-0.261-0.338-0.58-0.565-0.812
				c0.006,0.097-0.049,0.212-0.046,0.317"/>
			<path style="fill:#FE9F34;" d="M376.434,177.276c-0.252,0.394-0.005,0.885,0.395,1.116c0.123-0.292-0.055-0.868-0.232-1.118
				c-0.047,0.064-0.068,0.032-0.119,0.038"/>
			<path style="fill:#FE9F34;" d="M379.334,177.306c0.082,0.394,0.358,0.729,0.267,1.101c-0.343-0.071-0.218-0.572-0.196-0.825"/>
			<path style="fill:#FE9F34;" d="M381.336,177.988c-0.055,0.545,0.474,0.739,0.178,1.297c-0.551-0.07-0.197-0.818-0.162-1.137"/>
			<path style="fill:#FE9F34;" d="M378.65,180.114c0.033,0.427,0.585,0.771,0.078,1.149c-0.314-0.27-0.025-0.667-0.186-1.021"/>
			<path style="fill:#FE9F34;" d="M380.867,180.531c-0.136,0.203-0.301,0.22-0.466,0.052c0.156-0.141,0.337-0.24,0.517-0.362
				c0.016,0.016,0.098,0.08,0.116,0.095c-0.1,0.109-0.225,0.277-0.353,0.358"/>
		</g>
		<path style="fill:#3A9B29;stroke:#87C71D;stroke-width:0.2508;stroke-linecap:round;stroke-linejoin:round;" d="M378.072,173.027
			c0.205-0.943,2.034-1.345,2.687-0.905c-0.544-0.154-1.663,0.084-1.892,0.627"/>
	</g>
	<g>
		<g>
			<path style="fill:#E11D1A;stroke:#ED481C;stroke-width:0.2508;stroke-linecap:round;stroke-linejoin:round;" d="M363.053,174.6
				c0.551-0.628,1.281-1.249,2.121-1.473c0.729-0.194,1.705,0.138,2.354,0.488c0.736,0.399,1.308,0.931,1.637,1.701
				c0.686,1.591,0.068,4.925-0.047,5.348c-0.227,0.793-0.251,1.923-1.358,1.969c-0.472,0.017-1.091-0.149-1.563-0.203
				c-0.455-0.054-3.375-1.154-4.226-1.727c-1.212-0.816-2.176-2.354-1.892-3.883c0.139-0.761,0.787-1.26,1.415-1.512
				c0.597-0.237,1.149-0.629,1.745-0.896"/>
			<g>
				<path style="fill:#3A9B29;stroke:#87C71D;stroke-width:0.2508;stroke-linecap:round;stroke-linejoin:round;" d="
					M363.568,174.256c1.02-0.544,2.563,0.344,3.547,0.599c-0.604-0.142-1.229-0.063-1.852-0.097c-0.59-0.033-1.178-0.245-1.74-0.263
					c0.146,0.412,0.137,0.871,0.371,1.281c0.254,0.448,0.727,0.736,1.074,1.075c-0.865,0.297-2.475-1.314-1.982-2.085
					c-0.266,0.174-0.309,0.451-0.467,0.691c-0.129,0.207-0.339,0.431-0.518,0.643c-0.359,0.429-0.543,0.812-0.569,1.362
					c-0.459-0.55,0.444-2.161,1.007-2.453c-0.605,0.157-1.324,0.162-1.92,0.088c-0.52-0.066-1.23-0.426-1.734-0.333
					c0.589,0.026,1.283,0.105,1.906,0.083c0.511-0.018,1.035-0.161,1.547-0.075c0.091-0.409,0.732-0.353,0.881-0.651
					c0.153-0.298,0.059-0.745,0.26-1.03c0.529-0.736,1.65-1.144,2.38-1.339c-0.854,0.746-1.333,1.63-1.96,2.468
					c-0.037-0.067,0.024-0.046,0.055-0.093"/>
				<path style="fill:#3A9B29;stroke:#87C71D;stroke-width:0.2508;stroke-linecap:round;stroke-linejoin:round;" d="
					M363.166,174.398c-0.535-0.43-0.871-1.177-1.17-1.754c-0.213,0.136-0.423,0.282-0.661,0.363c0.55,0.321,1.021,1.289,1.314,1.734
					"/>
			</g>
		</g>
		<path style="fill:#FE9F34;" d="M361.898,177.347c0.051-0.062,0.104-0.08,0.167-0.053c0.052,0.31,0.036,0.522,0.153,0.827
			c-0.461,0.073-0.33-0.639-0.189-0.86"/>
		<path style="fill:#FE9F34;" d="M367.359,175.582c0.174,0.221,0.597,0.335,0.352,0.629c-0.244-0.066-0.473-0.272-0.267-0.497"/>
		<path style="fill:#FE9F34;" d="M364.639,175.406c0.174,0.115,0.389,0.725,0.031,0.539c-0.227-0.115-0.121-0.425-0.151-0.628
			c0.119,0.076,0.193,0.177,0.264,0.303"/>
		<path style="fill:#FE9F34;" d="M366.625,178.117c0.162,0.19,0.486,0.318,0.326,0.596c-0.178-0.058-0.309-0.238-0.401-0.424"/>
		<path style="fill:#FE9F34;" d="M364.299,179.098c0.252,0.294,0.571,0.514,0.416,0.896c-0.066-0.047-0.234-0.176-0.293-0.23
			c0.051-0.173,0.012-0.303-0.049-0.464"/>
		<path style="fill:#FE9F34;" d="M366.702,181.038c0.099,0.186,0.255,0.302,0.444,0.318c-0.113-0.331-0.432-0.363-0.592-0.634
			c0.044,0.066,0.083,0.137,0.131,0.201"/>
		<path style="fill:#FE9F34;" d="M367.796,179.138c0.269,0.09,0.472,0.521,0.229,0.704c-0.07-0.178-0.09-0.389-0.146-0.577"/>
		<path style="fill:#FE9F34;" d="M363.195,180.142c0.036,0.269,0.164,0.605,0.457,0.62c0.002-0.177-0.088-0.24-0.187-0.305"/>
		<path style="fill:#FE9F34;" d="M368.258,177.405c0.253-0.036,0.498,0.203,0.359,0.455c-0.176-0.062-0.259-0.208-0.26-0.398"/>
		<path style="fill:#FE9F34;" d="M366.405,174.048c0.116,0.008,0.282,0.079,0.392,0.113c-0.009,0.051-0.025,0.156-0.052,0.21
			c-0.155,0.084-0.192,0.003-0.271-0.122"/>
	</g>
	<g>
		<g>
			<path style="fill:#E11D1A;stroke:#ED481C;stroke-width:0.2508;stroke-linecap:round;stroke-linejoin:round;" d="M386.348,173.593
				c-0.809-0.219-1.762-0.331-2.584-0.056c-0.713,0.241-1.346,1.058-1.691,1.708c-0.395,0.739-0.578,1.499-0.424,2.323
				c0.311,1.703,2.662,4.142,2.994,4.428c0.627,0.541,1.271,1.467,2.221,0.892c0.402-0.244,0.824-0.728,1.189-1.032
				c0.35-0.297,2.176-2.827,2.564-3.771c0.564-1.353,0.52-3.168-0.564-4.287c-0.537-0.553-1.352-0.613-2.014-0.475
				c-0.629,0.132-1.307,0.11-1.951,0.218"/>
			<g>
				<path style="fill:#3A9B29;stroke:#87C71D;stroke-width:0.2508;stroke-linecap:round;stroke-linejoin:round;" d="
					M385.725,173.593c-1.15,0.111-1.943,1.701-2.623,2.458c0.426-0.454,0.988-0.732,1.488-1.104
					c0.477-0.354,0.846-0.853,1.307-1.184c0.107,0.425,0.365,0.806,0.398,1.274c0.035,0.516-0.197,1.018-0.303,1.49
					c0.887-0.23,1.336-2.464,0.502-2.832c0.316-0.002,0.508,0.205,0.768,0.318c0.225,0.1,0.525,0.171,0.789,0.249
					c0.535,0.16,0.9,0.378,1.229,0.821c0.08-0.713-1.564-1.559-2.193-1.491c0.586-0.2,1.191-0.593,1.648-0.985
					c0.395-0.341,0.789-1.035,1.261-1.238c-0.478,0.351-1.015,0.796-1.544,1.123c-0.434,0.27-0.953,0.44-1.33,0.794
					c-0.303-0.289-0.807,0.109-1.096-0.057c-0.291-0.165-0.459-0.588-0.785-0.712c-0.848-0.322-2.008-0.045-2.723,0.196
					c1.123,0.149,2.01,0.622,2.998,0.971c-0.01-0.075-0.049-0.021-0.1-0.042"/>
				<path style="fill:#3A9B29;stroke:#87C71D;stroke-width:0.2508;stroke-linecap:round;stroke-linejoin:round;" d="
					M386.139,173.488c0.213-0.656,0.078-1.466,0.01-2.108c0.25-0.004,0.506,0,0.748-0.063c-0.281,0.573-0.137,1.64-0.137,2.172"/>
			</g>
		</g>
		<path style="fill:#FE9F34;" d="M388.826,175.245c-0.074-0.024-0.131-0.008-0.17,0.049c0.131,0.284,0.26,0.455,0.332,0.771
			c0.424-0.192-0.078-0.715-0.318-0.82"/>
		<path style="fill:#FE9F34;" d="M383.301,176.792c-0.025,0.281-0.314,0.608,0.053,0.72c0.166-0.191,0.244-0.49-0.053-0.563"/>
		<path style="fill:#FE9F34;" d="M385.467,175.14c-0.076,0.193,0.082,0.82,0.277,0.47c0.119-0.221-0.135-0.423-0.223-0.607
			c-0.057,0.131-0.062,0.253-0.055,0.396"/>
		<path style="fill:#FE9F34;" d="M385.314,178.497c-0.033,0.249-0.23,0.536,0.055,0.681c0.117-0.147,0.125-0.372,0.098-0.577"/>
		<path style="fill:#FE9F34;" d="M387.793,178.032c-0.049,0.383-0.191,0.745,0.146,0.976c0.033-0.077,0.1-0.274,0.117-0.354
			c-0.135-0.118-0.174-0.249-0.213-0.415"/>
		<path style="fill:#FE9F34;" d="M386.863,180.977c0.02,0.206-0.045,0.393-0.197,0.511c-0.09-0.339,0.158-0.542,0.145-0.857
			c0,0.081,0.006,0.163,0,0.243"/>
		<path style="fill:#FE9F34;" d="M384.902,179.994c-0.178,0.228-0.105,0.697,0.197,0.715c-0.039-0.186-0.141-0.371-0.197-0.56"/>
		<path style="fill:#FE9F34;" d="M389.291,178.29c0.115,0.244,0.197,0.597-0.039,0.771c-0.1-0.146-0.057-0.248-0.016-0.356"/>
		<path style="fill:#FE9F34;" d="M383.559,178.807c-0.232,0.109-0.303,0.443-0.051,0.577c0.117-0.148,0.102-0.315-0.002-0.474"/>
		<path style="fill:#FE9F34;" d="M383.248,174.985c-0.094,0.072-0.193,0.221-0.264,0.312c0.033,0.037,0.107,0.115,0.158,0.146
			c0.174-0.017,0.158-0.104,0.158-0.252"/>
	</g>
	<g>
		<path style="fill:#E11D1A;stroke:#ED481C;stroke-width:0.2508;stroke-linecap:round;stroke-linejoin:round;" d="M369.391,174.625
			c0.363-0.125,0.608-0.383,0.929-0.569c0.404-0.23,0.791-0.315,1.256-0.409c0.823-0.169,2.088-0.338,2.731,0.257
			c0.8,0.738,1.014,1.559,1.318,2.583c0.24,0.795,0.846,2.206,0.636,3.045c-0.174,0.694-1.111,1.423-1.563,1.898
			c-0.352,0.368-0.477,0.511-1.019,0.528c-2.79,0.094-3.901-0.697-5.243-1.419c-0.406-0.218-0.701-0.617-0.904-1.049
			c-0.838-1.788,0.312-3.968,2.016-4.865"/>
		<path style="fill:#3A9B29;stroke:#87C71D;stroke-width:0.2508;stroke-linecap:round;stroke-linejoin:round;" d="M369.134,174.521
			c0.125-0.378,0.012-0.807,0.14-1.188c0.105-0.317,0.372-0.63,0.534-0.912c-0.192,0.61-0.338,1.204-0.306,1.887
			c0.264-0.017,0.354-0.343,0.561-0.51c0.219-0.181,0.515-0.316,0.775-0.425c0.555-0.23,1.139-0.323,1.685-0.506
			c-0.54,0.295-1.147,0.515-1.685,0.825c-0.261,0.151-0.53,0.344-0.713,0.572c-0.239,0.295-0.203,0.236-0.126,0.569
			c0.108,0.478,0.453,0.907,0.569,1.393c0.129,0.524,0.066,1.196,0.06,1.739c0.357-1.109-0.432-2.333-1.187-3.036
			c-0.407,0.345-0.484,1.013-0.658,1.502c-0.23,0.668-0.123,1.161-0.162,1.843c-0.771-0.71-0.504-3.086,0.398-3.555
			c-0.003-0.146,0.081-0.165,0.062-0.146"/>
		<path style="fill:#3A9B29;stroke:#87C71D;stroke-width:0.2508;stroke-linecap:round;stroke-linejoin:round;" d="M368.927,174.73
			c-0.47,0.014-0.638-0.509-0.683-0.879c-0.068-0.554,0.152-0.594,0.571-0.874c-0.171,0.449-0.241,1.377,0.216,1.44"/>
		<path style="fill:#FE9F34;" d="M369.391,176.535c-0.071,0.277,0.114,0.689,0.351,0.818c0.165-0.302-0.197-0.454-0.351-0.662"/>
		<path style="fill:#FE9F34;" d="M371.716,174.265c0.396-0.131,0.884,0.003,0.768,0.508c-0.271,0-0.444-0.257-0.614-0.455"/>
		<path style="fill:#FE9F34;" d="M370.939,175.09c0.085,0.312,0.201,0.642,0.561,0.667c0.018-0.331-0.348-0.336-0.51-0.563"/>
		<path style="fill:#FE9F34;" d="M369.031,179.169c-0.018,0.436,0.362,0.828,0.767,0.677c-0.092-0.211-0.389-0.416-0.655-0.427
			c-0.029-0.086-0.075-0.123-0.111-0.198"/>
		<path style="fill:#FE9F34;" d="M375.122,177.103c0.216,0.2,0.408,0.712,0.102,0.875c-0.077-0.281-0.212-0.573-0.248-0.867
			c0.065,0.058,0.18,0.087,0.251,0.148"/>
		<path style="fill:#FE9F34;" d="M373.315,175.864c0.423,0.051,0.627,0.508,0.561,0.924c-0.279-0.084-0.581-0.539-0.656-0.81
			c0.072,0.006,0.063-0.03,0.096-0.062"/>
		<path style="fill:#FE9F34;" d="M371.662,177.93c0.233,0.285,0.312,0.674,0.622,0.822c0.147-0.281-0.274-0.483-0.467-0.615"/>
		<path style="fill:#FE9F34;" d="M370.99,179.738c0.417,0.275,0.249,0.761,0.815,0.873c0.267-0.432-0.465-0.613-0.71-0.771"/>
		<path style="fill:#FE9F34;" d="M374.038,179.066c0.284,0.269,0.206,0.858,0.77,0.718c-0.009-0.377-0.456-0.402-0.614-0.718"/>
		<path style="fill:#FE9F34;" d="M374.967,180.821c-0.024,0.007,0.216,0.012,0.11-0.003c-0.11,0.135-0.099,0.199-0.164,0.349
			c0.036-0.188,0.107-0.349,0.263-0.456c0.165,0.207,0.007,0.342-0.209,0.369"/>
		<path style="fill:#FE9F34;" d="M373.059,180.873c0.219,0.02,0.329-0.086,0.302-0.301c-0.188,0.028-0.362,0.099-0.551,0.156
			c0.003,0.019,0,0.117-0.004,0.138c0.139-0.01,0.327,0.001,0.459-0.045"/>
	</g>
	<g>
		<g>
			<path style="fill:#E11D1A;stroke:#ED481C;stroke-width:0.2508;stroke-linecap:round;stroke-linejoin:round;" d="M397.211,175.019
				c0.098,0.408,0.355,0.706,0.522,1.073c0.21,0.468,0.262,0.896,0.315,1.415c0.096,0.917,0.148,2.316-0.571,2.957
				c-0.889,0.793-1.808,0.939-2.96,1.165c-0.893,0.176-2.497,0.689-3.393,0.371c-0.738-0.265-1.434-1.362-1.908-1.909
				c-0.365-0.422-0.506-0.574-0.467-1.17c0.191-3.055,1.174-4.184,2.104-5.575c0.281-0.421,0.749-0.698,1.24-0.874
				c2.043-0.729,4.303,0.758,5.102,2.714"/>
			<path style="fill:#3A9B29;stroke:#87C71D;stroke-width:0.2508;stroke-linecap:round;stroke-linejoin:round;" d="M397.351,174.745
				c0.399,0.181,0.881,0.099,1.286,0.281c0.333,0.148,0.646,0.472,0.938,0.678c-0.646-0.272-1.279-0.497-2.027-0.531
				c-0.013,0.291,0.334,0.421,0.495,0.666c0.174,0.257,0.293,0.596,0.384,0.892c0.191,0.627,0.231,1.276,0.372,1.895
				c-0.264-0.624-0.439-1.309-0.723-1.931c-0.136-0.298-0.318-0.613-0.55-0.84c-0.297-0.293-0.235-0.243-0.607-0.195
				c-0.533,0.068-1.039,0.396-1.582,0.475c-0.586,0.084-1.312-0.056-1.902-0.119c1.174,0.507,2.59-0.224,3.44-0.972
				c-0.333-0.486-1.056-0.642-1.572-0.88c-0.706-0.326-1.255-0.257-1.997-0.375c0.858-0.767,3.425-0.223,3.841,0.813
				c0.163,0.013,0.173,0.104,0.151,0.082"/>
			<path style="fill:#FE9F34;" d="M395.125,174.813c-0.297-0.105-0.767,0.053-0.931,0.3c0.313,0.209,0.516-0.17,0.761-0.314"/>
			<path style="fill:#FE9F34;" d="M397.357,177.592c0.104,0.446-0.097,0.966-0.635,0.784c0.03-0.291,0.327-0.457,0.562-0.618"/>
			<path style="fill:#FE9F34;" d="M396.538,176.659c-0.35,0.059-0.72,0.15-0.788,0.541c0.361,0.056,0.405-0.342,0.672-0.495"/>
			<path style="fill:#FE9F34;" d="M392.285,174.142c-0.472-0.065-0.94,0.31-0.819,0.767c0.238-0.076,0.498-0.381,0.536-0.673
				c0.097-0.021,0.142-0.064,0.228-0.098"/>
			<path style="fill:#FE9F34;" d="M393.896,181.014c-0.239,0.214-0.816,0.369-0.963,0.02c0.314-0.056,0.648-0.174,0.974-0.179
				c-0.072,0.064-0.114,0.185-0.19,0.258"/>
			<path style="fill:#FE9F34;" d="M395.44,179.171c-0.099,0.457-0.62,0.632-1.066,0.515c0.118-0.294,0.649-0.578,0.953-0.63
				c-0.013,0.079,0.025,0.071,0.057,0.11"/>
			<path style="fill:#FE9F34;" d="M393.36,177.148c-0.335,0.223-0.768,0.266-0.964,0.594c0.293,0.191,0.558-0.252,0.721-0.447"/>
			<path style="fill:#FE9F34;" d="M391.459,176.224c-0.346,0.425-0.857,0.191-1.04,0.796c0.44,0.337,0.717-0.442,0.916-0.693"/>
			<path style="fill:#FE9F34;" d="M391.868,179.624c-0.324,0.28-0.959,0.136-0.865,0.762c0.413,0.029,0.488-0.456,0.851-0.594"/>
			<path style="fill:#FE9F34;" d="M390,178.358c-0.046,0.24,0.06,0.368,0.295,0.365c-0.012-0.21-0.07-0.407-0.112-0.621
				c-0.021,0.001-0.125-0.012-0.148-0.015c-0.007,0.148-0.036,0.355-0.003,0.503"/>
		</g>
		<path style="fill:#3A9B29;stroke:#87C71D;stroke-width:0.2508;stroke-linecap:round;stroke-linejoin:round;" d="M397.27,175
			c0.52-0.813-0.497-2.387-1.27-2.534c0.495,0.273,1.121,1.23,0.901,1.777"/>
	</g>
	<g>
		<path style="fill:#9CD239;stroke:#179232;stroke-width:0.6032;stroke-linecap:round;stroke-linejoin:round;" d="M451.441,89.354
			c-0.717-0.159-1.257-0.538-2.029-0.433c-0.609,0.081-1.334,0.512-1.902,0.786c-1.236,0.59-2.583,1.535-3.57,2.448
			c-1.955,1.811-2.568,5.226-3.138,7.7c-0.246,1.09-0.458,1.979-0.351,3.169c0.833-1.112,1.566-2.718,2.605-3.738
			c0.773-0.753,1.749-1.224,2.518-1.995c0.701-0.706,1.179-1.406,2.024-1.957c1.463-0.959,2.827-1.361,4.546-1.415
			c1.191-0.039,3.377,0.375,2.348-1.486c-0.123-0.224-0.3-0.408-0.48-0.575"/>
		<path style="fill:#9CD239;stroke:#179232;stroke-width:0.6032;stroke-linecap:round;stroke-linejoin:round;" d="M469.405,87.627
			c-1.216,0.578-2.172,0.887-2.893,2.11c-0.459,0.765-0.871,1.683-1.072,2.588c-0.718-0.398-1.74-0.602-2.494-0.49
			c-0.791,0.115-1.587,0.772-2.316,0.22c0.059-0.707,1.001-1.492,1.487-2.03c0.637-0.7,1.009-1.457,1.816-1.826
			c1.377-0.634,4.122-1.871,5.316-0.402"/>
		<g>
			<path style="fill:#F0C33D;stroke:#7D4A3D;stroke-width:0.6032;stroke-linecap:round;stroke-linejoin:round;" d="M489.442,129.854
				c-0.15-4.826-0.653-7.214-3.165-11.165c-2.125-3.334-2.321-7.643-4.894-10.757c-1.183-1.423-2.503-3.26-3.861-4.497
				c-1.362-1.242-3.041-1.501-4.397-2.624c-1.906-1.586-2.233-2.584-4.615-3.598c-1.622-0.691-3.408-1.263-5.086-1.847
				c-1.522-0.524-3.624-1.59-5.16-1.767c-1.505-0.169-3.918,0.575-5.685,0.629c-4.571,0.137-6.939,1.074-10.133,4.113
				c-2.937,2.791-4.856,4.132-6.467,7.837c-1.498,3.446-3.47,6.407-4.973,10.106c-2.798,6.9-3.581,15.066-4.859,22.521
				c-0.739,4.326,1.314,6.298,3.481,9.809c1.848,2.985,1.913,8.268,4.77,10.559c5.781,4.63,13.853,5.271,21.108,5.791
				c3.815,0.271,8.102,0.123,11.988-0.378c3.238-0.417,7.937-1.609,10.384-4.065c2.097-2.1,3.014-4.568,4.938-6.783
				c1.921-2.226,3.488-3.884,4.269-7.174c1.438-5.997,2.759-11.625,2.554-18.207"/>
			<g>
				<path style="fill:#F0C33D;stroke:#7D4A3D;stroke-width:0.6032;stroke-linecap:round;stroke-linejoin:round;" d="
					M460.533,156.854c0.973,1.218,4.02,2.947,3.032,4.577c-0.943,1.552-4.806,1.433-6.182,0.895
					c0.032-1.647-0.694-2.812,0.312-4.084c0.685-0.856,2.159-0.773,3.08-1.396"/>
				<path style="fill:#F0C33D;stroke:#7D4A3D;stroke-width:0.6032;stroke-linecap:round;stroke-linejoin:round;" d="
					M481.144,148.254c2.203,0.766,3.633,3.038,2.612,5.145c-0.392,0.814-2.393,3.487-3,3.624c-1.126,0.258-3.623-1.878-3.775-3.425
					C476.628,150.103,479.729,149.712,481.144,148.254"/>
				<path style="fill:#F0C33D;stroke:#7D4A3D;stroke-width:0.6032;stroke-linecap:round;stroke-linejoin:round;" d="
					M469.829,139.415c2.065,0.51,5.345,4.458,3.11,6.158c0.338,3.083-4.47,2.003-5.953,1.341c-1.04-1.701-5.103-4.59-4.146-6.354
					C463.741,138.897,468.351,136.054,469.829,139.415"/>
				<path style="fill:#F0C33D;stroke:#7D4A3D;stroke-width:0.6032;stroke-linecap:round;stroke-linejoin:round;" d="
					M451.943,142.955c1.746,0.679,3.986,2.149,3.719,4.119c-0.277,2.021-2.863,3.104-4.719,2.437
					c-4.652-1.666-3.318-8.6,1.975-6.085"/>
				<path style="fill:#F0C33D;stroke:#7D4A3D;stroke-width:0.6032;stroke-linecap:round;stroke-linejoin:round;" d="
					M467.345,152.165c0.987,0.349,1.73,0.958,2.644,1.455c0.521,0.763,0.051,0.597,0.991,0.961c2.55,6.043-5.137,5.448-8.256,3.45
					c-4.877-3.126,0.563-8.669,4.604-6.361"/>
				<path style="fill:#F0C33D;stroke:#7D4A3D;stroke-width:0.6032;stroke-linecap:round;stroke-linejoin:round;" d="
					M457.523,137.314c1.251,1.075,2.528,2.343,3.661,3.161c0.429,1.364,0.006,2.612,0.125,4.131
					c-1.463,0.972-5.833,2.337-6.486-0.205c-6.971-2.724,0.82-6.114,3.168-7.595"/>
				<path style="fill:#F0C33D;stroke:#7D4A3D;stroke-width:0.6032;stroke-linecap:round;stroke-linejoin:round;" d="
					M441.573,141.295c1.755,0.146,4.712,2.434,4.644,4.324c-0.122,3.521-4.414,2.086-6.15,1.242
					c-1.898-0.917-4.945-2.55-3.313-4.719c0.909-1.212,5.345-1.583,6.512-0.405"/>
				<path style="fill:#F0C33D;stroke:#7D4A3D;stroke-width:0.6032;stroke-linecap:round;stroke-linejoin:round;" d="
					M444.617,154.368c2.389,0.319,4.084,2.614,2.512,4.85c-2.004,0.884-5.193-0.527-6.506-2.241c-2.1-2.729,2.945-4.148,4.476-2.623
					"/>
				<path style="fill:#F0C33D;stroke:#7D4A3D;stroke-width:0.6032;stroke-linecap:round;stroke-linejoin:round;" d="M475.35,162.6
					c-0.657-1.062-1.812-1.435-2.278-2.622c-1.886-0.673-4.465-1.436-6.46-0.771c-2.34,0.786-3.615,2.549-2.192,4.661
					c2.97,4.423,8.342-0.172,11.424-1.033"/>
				<path style="fill:#F0C33D;stroke:#7D4A3D;stroke-width:0.6032;stroke-linecap:round;stroke-linejoin:round;" d="
					M470.107,148.353c4.418-3.382,7.733,2.907,6.101,4.971c-1.684,2.138-4.855,0.646-6.856,0.23
					C468.729,152.06,467.944,148.072,470.107,148.353"/>
				<path style="fill:#F0C33D;stroke:#7D4A3D;stroke-width:0.6032;stroke-linecap:round;stroke-linejoin:round;" d="M480.228,142.07
					c6.195,1.707,0.657,8.558-3.623,6.824c-4.918-1.994-0.975-8.317,3.865-6.833"/>
				<path style="fill:#F0C33D;stroke:#7D4A3D;stroke-width:0.6032;stroke-linecap:round;stroke-linejoin:round;" d="
					M480.826,122.914c2.233,2.464,4.358,4.393,1.487,7.239c-2.493,2.461-4.274,0.983-7.086-0.101
					c-1.853-0.713-2.176-0.397-2.417-2.664c-0.097-0.901,0.044-3.537,0.639-4.194c2.037-2.247,5.636-1.186,7.393,0.218"/>
				<path style="fill:#F0C33D;stroke:#7D4A3D;stroke-width:0.6032;stroke-linecap:round;stroke-linejoin:round;" d="
					M488.455,144.302c-2.047-1.382-5.117-1.326-5.472,1.659c-0.298,2.51,1.334,4.157,2.769,5.6c1.492-2.853,2.566-3.678,2.465-7.252
					"/>
				<path style="fill:#F0C33D;stroke:#7D4A3D;stroke-width:0.6032;stroke-linecap:round;stroke-linejoin:round;" d="
					M477.025,154.597c1.766,2.403,3.614,2.038,1.034,4.624c-1.599,1.598-2.475,2.697-4.647,0.896
					c-5.006-4.161,1.327-7.618,5.101-3.949"/>
				<path style="fill:#F0C33D;stroke:#7D4A3D;stroke-width:0.6032;stroke-linecap:round;stroke-linejoin:round;" d="
					M462.798,144.854c0.845,0.134,1.412,0.336,2.144,0.721c0.955,1.519,2.876,2.48,2.068,4.579
					c-2.437,0.279-4.023,2.431-6.871,1.681c-2.538-0.669-3.269-3.477-2.305-6.046c1.423-0.333,5.224-2.261,5.934-0.715"/>
				<path style="fill:#F0C33D;stroke:#7D4A3D;stroke-width:0.6032;stroke-linecap:round;stroke-linejoin:round;" d="
					M450.226,149.471c2.726,3.196,2.106,7.336-2.647,6.002c-2.967-0.839-5.626-4.382-3.845-7.741
					c1.459-0.301,4.915,0.012,5.521,1.274"/>
				<path style="fill:#F0C33D;stroke:#7D4A3D;stroke-width:0.6032;stroke-linecap:round;stroke-linejoin:round;" d="
					M455.266,157.264c2.222-0.071,3.419,3.273,1.597,4.436c-1.403,0.896-4.847-0.468-6.035-1.057
					c-5.629-2.807,0.939-6.305,4.421-3.871"/>
				<path style="fill:#F0C33D;stroke:#7D4A3D;stroke-width:0.6032;stroke-linecap:round;stroke-linejoin:round;" d="
					M464.883,165.416c-1.15-2.072-3.263-3.176-5.384-3.569c-1.291-0.237-5.428-0.371-6.16,1.199
					c-1.171,2.494,3.412,2.995,4.899,3.02c2.651,0.04,3.971-0.589,6.142-1.383"/>
				<path style="fill:#F0C33D;stroke:#7D4A3D;stroke-width:0.6032;stroke-linecap:round;stroke-linejoin:round;" d="
					M455.986,149.539c1.638,0.487,3.592,2.128,4.252,3.845c0.851,2.211-1.478,4.847-3.954,4.303
					c-0.813-1.524-3.705-1.552-4.248-3.547c-0.744-2.695,2.364-3.969,4.196-4.355"/>
				<path style="fill:#F0C33D;stroke:#7D4A3D;stroke-width:0.6032;stroke-linecap:round;stroke-linejoin:round;" d="
					M437.642,146.137c3.146,0.171,5.453,3.553,5.985,6.277c-2.449,3.634-5.897,3.005-8.027-0.497
					c-0.744-1.216-1.861-3.263-1.221-4.62c0.732-1.542,3.114-1.88,4.24-0.691"/>
				<path style="fill:#F0C33D;stroke:#7D4A3D;stroke-width:0.6032;stroke-linecap:round;stroke-linejoin:round;" d="
					M476.541,131.503c6.809,0.846,3.322,13.316-3.047,10.033c-2.526-1.305-4.005-4.505-3.175-7.461
					c1.328-4.712,4.128-3.269,7.651-2.87"/>
				<path style="fill:#F0C33D;stroke:#7D4A3D;stroke-width:0.6032;stroke-linecap:round;stroke-linejoin:round;" d="M454.295,129.84
					c1.739,0.383,0,0,1.196,1.702c0.979,1.396,0.438,2.014,0.266,3.334c-0.268,2.083,0.014,2.168-1.816,3.096
					c-1.311,0.663-2.491,1.229-4.06,0.397c-2.109-1.118-3-4.26-2.06-6.401c1.356-3.112,4.191-2.179,7.068-2.269"/>
				<path style="fill:#F0C33D;stroke:#7D4A3D;stroke-width:0.6032;stroke-linecap:round;stroke-linejoin:round;" d="
					M438.222,133.942c4.713-1.799,4.732,8.957-1.154,7.438c-1.662-0.43-3.259-2.939-2.907-4.638c0.49-2.402,3.294-3.001,5.242-3.333
					"/>
				<path style="fill:#F0C33D;stroke:#7D4A3D;stroke-width:0.6032;stroke-linecap:round;stroke-linejoin:round;" d="
					M430.174,145.132c-0.125-0.351-0.061-0.619,0.183-0.81c5.05-0.278,5.362,8.76,0.686,7.694c-1.061-0.242-3.157-3.271-3.441-4.32
					c-0.726-2.698,1.564-2.865,3.766-2.853"/>
				<path style="fill:#F0C33D;stroke:#7D4A3D;stroke-width:0.6032;stroke-linecap:round;stroke-linejoin:round;" d="
					M445.517,160.055c3.364-1.054,5.036,0.533,7.941,2.034c0.518,2.877-4.337,2.658-6.122,2.383
					C445.32,164.165,443.102,160.447,445.517,160.055"/>
				<path style="fill:#F0C33D;stroke:#7D4A3D;stroke-width:0.6032;stroke-linecap:round;stroke-linejoin:round;" d="
					M437.562,154.152c0.017-2.832-3.841-2.789-4.965-0.894c-1.326,2.24,0.95,8.021,3.912,6.666
					C434.662,156.498,437.542,157.044,437.562,154.152z"/>
				<path style="fill:#F0C33D;stroke:#7D4A3D;stroke-width:0.6032;stroke-linecap:round;stroke-linejoin:round;" d="
					M432.848,138.582c2.039-0.747,3.473,2.522,3.684,4.362c0.131,1.17,0.182,2.57-1.059,3.213c-1.31,0.675-1.404-0.281-2.479-0.81
					c-1.612-0.799-4.156-1.56-3.379-4.181c0.575-1.915,2.553-1.811,3.953-2.604"/>
				<path style="fill:#F0C33D;stroke:#7D4A3D;stroke-width:0.6032;stroke-linecap:round;stroke-linejoin:round;" d="
					M444.144,162.088c1.695-2.185-6.24-12.718-7.525-4.732c-0.45,2.81,0.521,3.99,2.802,5.314c1.122,0.654,5.893,2.936,5.208-0.349"
					/>
				<path style="fill:#F0C33D;stroke:#7D4A3D;stroke-width:0.6032;stroke-linecap:round;stroke-linejoin:round;" d="
					M428.245,137.238c4.033,1.574,0.658,8.576-2.106,7.976c-0.993-1.452-1.104-4.096-0.664-5.856c1-0.365,1.861-0.843,1.855-2.058
					C427.831,137.272,427.975,136.832,428.245,137.238"/>
				<path style="fill:#F0C33D;stroke:#7D4A3D;stroke-width:0.6032;stroke-linecap:round;stroke-linejoin:round;" d="M448.165,137.36
					c0.702,0.232,3.708,2.735,3.914,3.554c-2.663,1.891-6.08,3.537-8.304,0.25c-1.627-2.405,1.271-6.705,3.882-4.784"/>
				<path style="fill:#F0C33D;stroke:#7D4A3D;stroke-width:0.6032;stroke-linecap:round;stroke-linejoin:round;" d="
					M464.518,130.635c2.822-1.316,5.135,3.988,4.095,6.154c-0.831,1.729-4.811,3.734-6.672,3.618
					c-2.562-0.16-5.046-3.431-4.518-6.319C458.009,130.871,461.602,130.193,464.518,130.635"/>
				<path style="fill:#F0C33D;stroke:#7D4A3D;stroke-width:0.6032;stroke-linecap:round;stroke-linejoin:round;" d="M488.021,130.4
					c0.368-0.518,0.179-0.896,0.833-1.04c-2.111,1.951-4.414,2.052-6.976,2.762c-1.318,2.708-1.916,5.402-0.202,8.152
					c0.981,1.568,1.004,1.93,3.122,2.152c1.339,0.137,3.287,0.114,4.259-0.675c0.325-4.435,3.217-8.082-0.097-12.13"/>
				<path style="fill:#F0C33D;stroke:#7D4A3D;stroke-width:0.6032;stroke-linecap:round;stroke-linejoin:round;" d="
					M486.004,119.522c2.703-0.595,4.154,12.644-2.047,11.254c-2.216-0.493-0.952-1.194-0.792-2.462
					c0.173-1.346,0.214-2.476,0.167-3.794c-0.059-1.734,1.584-5.128,3.151-5.013"/>
				<path style="fill:#F0C33D;stroke:#7D4A3D;stroke-width:0.6032;stroke-linecap:round;stroke-linejoin:round;" d="
					M473.827,106.235c2.076,1.709,7.583,11.997,0.802,10.165c-2.467-0.669-3.349-3.563-3.011-5.871
					c0.173-1.172,1.315-6.406,2.947-3.817"/>
				<path style="fill:#F0C33D;stroke:#7D4A3D;stroke-width:0.6032;stroke-linecap:round;stroke-linejoin:round;" d="M481.611,109.47
					c2.171,0.553,2.906,6.584,3.15,8.599c0.355,3.012-0.188,6.496-3.756,4.909c-3.117-1.392-3.65-3.945-3.098-7.247
					c0.31-1.871,1.604-6.288,3.687-6.755"/>
				<path style="fill:#F0C33D;stroke:#7D4A3D;stroke-width:0.6032;stroke-linecap:round;stroke-linejoin:round;" d="
					M472.205,130.895c0.164-1.364,1.221-5.957-0.049-7.16c-0.568-0.546-1.735,0.089-2.579,0.029c-1.447-0.096-1.68-0.584-2.86-1.171
					c-2.044-1.016-3.647-1.385-5.013,0.965c-0.851,1.465-1.583,4.2-1.271,5.918c1.773,0.765,7.711,2.397,8.06,4.232
					C470.175,133.186,470.596,131.795,472.205,130.895"/>
				<path style="fill:#F0C33D;stroke:#7D4A3D;stroke-width:0.6032;stroke-linecap:round;stroke-linejoin:round;" d="M468.067,96.746
					c4.482,1.344,3.429,4.063,4.854,4.838c1.166,4.867-1.379,6.375-3.01,10.022C466.01,106.878,467.838,102.412,468.067,96.746"/>
				<path style="fill:#F0C33D;stroke:#7D4A3D;stroke-width:0.6032;stroke-linecap:round;stroke-linejoin:round;" d="
					M459.245,115.641c0.995,0.867,2.2,1.414,3.382,1.926c0.442,2.427,0.604,5.894-1.946,7.223c-2.262,1.182-4.629-0.763-6.557-2.22
					c-2.968-2.237-2.736-3.949-0.148-6.517c2.55-2.519,3.137-2.416,5.757-0.179"/>
				<path style="fill:#F0C33D;stroke:#7D4A3D;stroke-width:0.6032;stroke-linecap:round;stroke-linejoin:round;" d="
					M442.625,119.436c2.195-0.092,1.626,4.444,1.529,6.073c-1.884,1.463-7.555,0.885-8.594-1.73
					C433.916,119.665,440.674,120.115,442.625,119.436"/>
				<path style="fill:#F0C33D;stroke:#7D4A3D;stroke-width:0.6032;stroke-linecap:round;stroke-linejoin:round;" d="
					M428.767,130.761c1.323,0.42,2.208,1.261,3.591,1.173c2.038,1.728,1.32,7.754-2.171,5.938c-2.012-1.042-4.265-5.248-0.672-6.141
					"/>
				<path style="fill:#F0C33D;stroke:#7D4A3D;stroke-width:0.6032;stroke-linecap:round;stroke-linejoin:round;" d="
					M456.681,125.662c4.998-2.459,3.719,6.056-0.06,5.75c-1.486-0.122-2.804-2.2-2.517-3.682c0.348-1.778,1.764-2.01,3.285-2.34"/>
				<path style="fill:#F0C33D;stroke:#7D4A3D;stroke-width:0.6032;stroke-linecap:round;stroke-linejoin:round;" d="M447.658,113.52
					c4.743,0.959,3.627,11.405-2.809,7.736c-4.318-2.463-1.074-7.259,2.557-8.227"/>
				<path style="fill:#F0C33D;stroke:#7D4A3D;stroke-width:0.6032;stroke-linecap:round;stroke-linejoin:round;" d="M471.875,112.76
					c-0.873,0.854-2.572-2.357-3.904-2.129c-1.204,0.212-2.057,2.659-2.7,3.631c-1.696,2.551-3.273,4.058-0.986,7.122
					c3.573,4.781,12.354,2.434,12.499-3.765c-2.098-1.568-4.464-1.896-5.146-4.853"/>
				<path style="fill:#F0C33D;stroke:#7D4A3D;stroke-width:0.6032;stroke-linecap:round;stroke-linejoin:round;" d="
					M457.931,104.247c-0.163-2.289-1.062-4.246-3.71-3.871c-2.261,0.322-2.578,2.487-2.032,4.798
					c0.345,1.464,1.585,4.024,3.485,3.616c1.704-0.362,2.005-3.763,2.715-5.302"/>
				<path style="fill:#F0C33D;stroke:#7D4A3D;stroke-width:0.6032;stroke-linecap:round;stroke-linejoin:round;" d="
					M476.109,102.438c2.49,1.013,3.133,5.264,4.334,7.318c-0.964,0.968-1.65,2.293-2.387,3.224c-0.9-2.82-6.588-9.558-1.495-10.268
					c0.064,0.278,0.175,0.45,0.301,0.696"/>
				<path style="fill:#F0C33D;stroke:#7D4A3D;stroke-width:0.6032;stroke-linecap:round;stroke-linejoin:round;" d="
					M464.416,104.544c1.927,1.272,2.168,5.924,1.215,7.913c-0.426,0.883-1.882,2.898-2.734,3.128
					c-1.265,0.336-2.272-0.844-3.412-1.239c-1.682-2.224-2.923-5.123-1.547-7.915c1.313-2.66,4.436-1.679,7.205-1.661"/>
				<path style="fill:#F0C33D;stroke:#7D4A3D;stroke-width:0.6032;stroke-linecap:round;stroke-linejoin:round;" d="
					M443.586,105.942c1.479,1.145,3.745,3.375,3.113,5.434c-0.443,1.443-3.523,2.836-4.744,2.523
					c-0.861-0.992-3.181-3.598-3.08-5.079c0.192-2.994,3.464-3.05,5.436-2.653"/>
				<path style="fill:#F0C33D;stroke:#7D4A3D;stroke-width:0.6032;stroke-linecap:round;stroke-linejoin:round;" d="
					M451.025,121.366c5.746-0.027,3.135,8.977-2.631,7.846c-2.463-0.482-4.894-2.243-3.816-4.919
					c0.841-2.072,3.644-2.792,5.729-2.906"/>
				<path style="fill:#F0C33D;stroke:#7D4A3D;stroke-width:0.6032;stroke-linecap:round;stroke-linejoin:round;" d="
					M437.925,125.521C437.925,125.521,437.672,125.502,437.925,125.521c0.435,0.925,1.075,1.437,1.96,1.448
					c0.688,3.691-4.631,8.695-7.02,4.676c-1.979-3.332,1.38-9.369,4.846-6.386"/>
				<path style="fill:#F0C33D;stroke:#7D4A3D;stroke-width:0.6032;stroke-linecap:round;stroke-linejoin:round;" d="M454.27,109.833
					c0.758-0.44,1.484-0.832,2.324-1.031c1.222,2.294-1.275,5.139-3.064,6.333c-2.508,1.677-3.62,0.12-4.998-2.392
					c-1.072-1.951-2.426-5.45,0.327-6.538c3.189-1.255,3.834,3.041,6.589,3.094"/>
				<path style="fill:#F0C33D;stroke:#7D4A3D;stroke-width:0.6032;stroke-linecap:round;stroke-linejoin:round;" d="
					M443.755,126.811c1.627-0.158,2.546,2.271,4.13,2.644c0.321,4.294-1.438,7.762-5.377,5.103c-1.706-1.153-3.24-2.383-2.498-4.898
					c0.675-2.304,2.562-2.161,3.974-3.351"/>
				<path style="fill:#F0C33D;stroke:#7D4A3D;stroke-width:0.6032;stroke-linecap:round;stroke-linejoin:round;" d="M429.331,125.77
					c1.137,0.859,2.67,0.969,3.792,0.156c0.347,2.624-3.278,4.606-5.334,4.834c-1.026-2.684,0.015-3.571,2.018-5.004"/>
				<path style="fill:#F0C33D;stroke:#7D4A3D;stroke-width:0.6032;stroke-linecap:round;stroke-linejoin:round;" d="
					M437.384,107.132c0.879,1.952,1.376,4.48,1.364,6.621c-2.387,1.064-6.381,0.118-6.293-2.989
					c0.066-2.089,4.582-6.649,4.944-3.139"/>
				<path style="fill:#F0C33D;stroke:#7D4A3D;stroke-width:0.6032;stroke-linecap:round;stroke-linejoin:round;" d="
					M431.235,117.759c0.879,1.153,2.889,1.305,3.455,2.615c0.545,1.257-0.298,3.291-0.637,4.46c-2.66,1.676-5.126-0.127-5.293-3.077
					c-0.088-1.564,1.853-7.866,3.198-4.021"/>
				<path style="fill:#F0C33D;stroke:#7D4A3D;stroke-width:0.6032;stroke-linecap:round;stroke-linejoin:round;" d="M451.51,106.19
					c2.761-3.146-0.143-8.207-4.022-7.589c-3.59,0.569-3.784,6.395-2.134,8.73c1.995,0.776,3.432-1.691,5.665-1.622"/>
				<path style="fill:#F0C33D;stroke:#7D4A3D;stroke-width:0.6032;stroke-linecap:round;stroke-linejoin:round;" d="
					M439.015,113.292c4.379-0.841,4.145,4.327,1.416,6.24c-1.106,0.773-3.664,1.205-4.808,0.345
					c-1.621-1.23-0.892-3.278-0.593-4.927c1.466-0.372,3.811-0.372,4.704-1.683"/>
				<path style="fill:#F0C33D;stroke:#7D4A3D;stroke-width:0.6032;stroke-linecap:round;stroke-linejoin:round;" d="M460.312,95.973
					c0.438,0.722-3.599,6.716,0.727,7.987c1.256,0.362,2.944-0.322,4.029,0.369c0.853,0.551,1.244,3.328,2.371,2.374
					c1.375-1.168-1.778-6.95-2.261-8.149C464.505,96.854,462.352,92.772,460.312,95.973"/>
				<path style="fill:#F0C33D;stroke:#7D4A3D;stroke-width:0.6032;stroke-linecap:round;stroke-linejoin:round;" d="M449.483,95.072
					c0.597,2.965-2.992,3.211-4.187,4.652c-0.528,0.642-1.396,5.918-3.282,4.293c-1.8-1.548,1.253-5.337,2.047-6.295
					c1.888-2.272,2.364-2.152,4.931-3.133"/>
				<path style="fill:#F0C33D;stroke:#7D4A3D;stroke-width:0.6032;stroke-linecap:round;stroke-linejoin:round;" d="
					M432.523,112.998c0.567-1.406,3.058,3.843,1.616,4.88c-1.821,1.312-2.802-3.651-1.845-4.627"/>
				<path style="fill:#F0C33D;stroke:#7D4A3D;stroke-width:0.6032;stroke-linecap:round;stroke-linejoin:round;" d="M453.55,94.694
					c4.12-0.794,6.586,5.526,1.386,5.672c-1.625,0.049-3.61-0.319-4.612-1.601c-1.294-1.665-0.255-2.214,0.392-3.941
					c1.036-0.392,2.147-0.35,3.311-0.394"/>
				<path style="fill:#F0C33D;stroke:#7D4A3D;stroke-width:0.6032;stroke-linecap:round;stroke-linejoin:round;" d="M439.622,102.09
					c0.469-0.628,0.912-0.924,1.604-1.02c0.265,1.604,0.899,3.301-0.529,4.417c-1.458,1.134-3.458,0.343-4.541-0.602
					c-0.336-2.352,3.31-2.307,4.658-3.082"/>
			</g>
		</g>
		<g>
			<path style="fill:#9CD239;stroke:#179232;stroke-width:0.6032;stroke-linecap:round;stroke-linejoin:round;" d="M448.788,68.429
				c-1.165-1.279-1.687-3.324-2.685-4.793c-1.569-2.299-3.233-4.435-5.135-6.439c-2.639-2.783-5.209-5.458-8.352-7.648
				c-2.689-1.882-6.8-4.236-10.127-3.905c1.46,2.03,3.643,3.837,5.332,5.717c3.407,3.79,6.828,7.717,9.373,12.18
				c1.07,1.874,1.725,3.883,2.689,5.791c0.823,1.632,1.656,3.393,2.091,5.182c0.43,1.752,0.64,3.598,0.769,5.385
				c0.06,0.81-0.062,1.897,0.179,2.583c9.274,2.469,7.185-9.791,7.199-9.969"/>
			<path style="fill:#9CD239;stroke:#179232;stroke-width:0.6032;stroke-linecap:round;stroke-linejoin:round;" d="M434.98,55.482
				c8.342,8.117,13.128,19.738,14.055,23.71c0.188,0.121,0.024-0.076-0.033-0.145"/>
			<path style="fill:#9CD239;stroke:#179232;stroke-width:0.6032;stroke-linecap:round;stroke-linejoin:round;" d="M474.365,31.068
				c-4.117,4.54-5.922,6.884-8.229,11.355c-2.239,4.354-4.235,9.646-4.078,14.604c0.108,3.573-0.484,7.511-1.619,10.914
				c-0.902,2.71-2.533,5.071-3.518,7.895c-0.261,0.749-0.471,1.515-0.615,2.27c-0.49-3.027-1.312-6.009-1.647-9.076
				c-0.245-2.237-0.493-4.466-1.781-6.351c-1.108-1.621-1.898-2.339-1.335-4.39c0.48-1.763,1.376-3.482,1.98-5.199
				c2.64-7.521,6.309-14.94,13.052-18.614C469.083,33.111,471.755,31.892,474.365,31.068"/>
			<path style="fill:none;stroke:#179232;stroke-width:0.6032;stroke-linecap:round;stroke-linejoin:round;" d="M474.516,31.174
				c-3.446,3.25-7.523,6.828-10.264,10.952c-1.561,2.346-2.862,4.625-4.054,7.215c-1.296,2.809-3.719,17.828-3.387,28.447"/>
			<path style="fill:#9CD239;stroke:#179232;stroke-width:0.6032;stroke-linecap:round;stroke-linejoin:round;" d="M456.624,82.756
				c-0.562-2.612-0.238-11.105-0.741-13.974c-0.647-3.711-1.749-6.917-3.566-10.201c-2.361-4.255-4.382-7.986-7.925-11.404
				c-2.492-2.401-5.252-4.228-8.218-5.808c-2.502-1.331-5.052-2.254-7.446-3.428c0.592,1.486,2.431,2.566,3.478,3.762
				c1.434,1.629,2.894,3.234,4.139,5.018c1.475,2.124,2.866,4.241,3.839,6.654c0.841,2.082,7.875,18.505,9.084,25.042
				c1.075,5.774,2.665,8.077,2.883,8.906"/>
			<path style="fill:#9CD239;stroke:#179232;stroke-width:0.6032;stroke-linecap:round;stroke-linejoin:round;" d="M464.289,76.135
				c-0.04-10.188,7.541-19.219,15.298-24.516c-2.623-2.161-7.495-1.171-9.926,0.566c-11.763,8.427-13.767,21.442-14.217,24.405
				c-0.342,2.264-0.347,10.962,0.538,12.913"/>
			<path style="fill:none;stroke:#179232;stroke-width:0.6032;stroke-linecap:round;stroke-linejoin:round;" d="M446.598,57.56
				c1.281,4.495,3.266,8.489,4.308,13.011c0.517,2.246,1.078,4.471,1.779,6.638c0.66,2.048,1.67,5.032,1.429,7.218"/>
		</g>
		<path style="fill:#9CD239;stroke:#179232;stroke-width:0.6032;stroke-linecap:round;stroke-linejoin:round;" d="M483.823,72.958
			c0.665-1.958-4.902-5.113-6.445-5.182c-6.284-0.275-9.896,2.658-11.473,4.611c-1.495,1.841-2.547,3.949-3.494,6.118
			c-0.899,2.058-2.147,3.768-3.475,5.493c-1.397,1.803-1.708,3.76-1.747,6.046c-0.021,1.406,0.164,1.896,1.401,2.463
			c0.717,0.326,0.464,0.319,1.332,0c0.809-0.298,1.28-1.694,1.91-2.306c0.962-0.932,3.659-3.349,4.521-4.333
			c1.438-1.652,4.143-0.862,3.895-2.137c-0.451-2.298,1.177-6.053,2.253-8.046c1.23-2.275,3.051-3.345,5.493-3.668
			C478.805,71.911,484.784,71.366,483.823,72.958"/>
		<path style="fill:#9CD239;stroke:#179232;stroke-width:0.6032;stroke-linecap:round;stroke-linejoin:round;" d="M453.245,82.175
			c-11.057-5.445-14.109,1.635-13.244,0.929c3.271-2.678,6.907,3.52,9.001,5.555c2.09,2.034,5.889,6.607,7.173,6.654
			c0.452-1.837,3.082-1.808,4.266-2.82c-3.707-6.321-7.229-13.132-14.852-14.946c-8.629-2.052-15.235,7.336-10.816,15.002
			c0.817,1.417,1.838,3.286,2.962,4.355c0.155-4.716-0.176-12.483,3.832-15.572c2.043-1.574,4.583-1.448,6.994-0.64
			c1.35,0.451,4.685,1.483,5.59,2.553"/>
		<path style="fill:#9CD239;stroke:#179232;stroke-width:0.6032;stroke-linecap:round;stroke-linejoin:round;" d="M460.44,92.493
			c0.368-2.337,5.234-5.744,7.692-5.212c2.543,0.552,8.395,3.747,9.149,6.349c0.045-3.868-2.597-10.178-7.033-9.897
			c-1.756,0.109-3.944,2.213-5.173,3.196c-0.911,0.734-1.577,1.596-2.323,2.453"/>
		<path style="fill:#9CD239;stroke:#179232;stroke-width:0.6032;stroke-linecap:round;stroke-linejoin:round;" d="M456.354,94.856
			c0.138,0.276,8.062-5.896,10.795-0.779c1.735,3.252,0.082,9.48-0.987,12.437C464.868,101.865,462,95.081,456.354,94.856"/>
		<path style="fill:none;stroke:#179232;stroke-width:0.6032;stroke-linecap:round;stroke-linejoin:round;" d="M483.668,71.838
			c-1.797-0.605-3.426-1.479-5.477-1.208c-1.794,0.235-4.118,0.539-5.729,1.461c-1.677,0.966-3.77,3.077-4.946,4.752
			c-1.397,1.985-2.455,4.124-3.818,6.127c-1.734,2.553-3.305,6.136-3.797,8.867"/>
	</g>
	<g>
		<path style="fill:#FE9F34;stroke:#FD8631;stroke-width:0.836;" d="M249.555,180c0,6.213,5.411,11.244,12.08,11.244
			c6.673,0,12.083-5.031,12.083-11.244c0-6.21-5.41-11.242-12.083-11.242C254.966,168.758,249.555,173.79,249.555,180z"/>
		<path style="fill:#5AB227;" d="M255.595,173.96c0,0.32,0.262,0.58,0.578,0.58c0.321,0,0.581-0.26,0.581-0.58
			c0-0.318-0.26-0.578-0.581-0.578C255.856,173.382,255.595,173.642,255.595,173.96z"/>
	</g>
	<g>
		
			<ellipse transform="matrix(-0.5847 0.8112 -0.8112 -0.5847 516.8371 85.4361)" style="fill:#FE9F34;stroke:#FD8631;stroke-width:0.836;" cx="236.552" cy="175" rx="11.413" ry="11.237"/>
		
			<ellipse transform="matrix(-0.5836 0.812 -0.812 -0.5836 504.7146 92.5057)" style="fill:#5AB227;" cx="228.64" cy="175.657" rx="0.547" ry="0.578"/>
	</g>
	<g>
		<path style="fill:#26992F;" d="M24.127,126.085c0.951-0.024,1.103-1.633,1.613-2.353c1.567-2.198,5.037-2.618,7.502-2.2
			c1.508,0.257,3.467,0.947,2.508,2.194c-0.065,0.086-0.8,0.434-1.033,0.689c-0.555,0.601-9.555,1.361-10.424,1.38"/>
		<path style="fill:#824341;stroke:#824341;stroke-width:1.672;" d="M23.982,126.199c0.369-1.365-0.716-3.425-0.716-3.988
			c0.477,0-0.933,0.142-0.649,0.421c0.587,0.589,1.082,3.26,1.351,3.619c0.119,0.156,0.228-0.532,0.325-0.455"/>
		<path style="fill:#88C936;" d="M23.707,126.407c-0.18-2.981-6.204-2.288-7.951-1.584c-2.16,0.869-4.152,2.884-4.506,5.239
			c-0.47,3.104,0.602,5.221,1.046,7.754c0.413,2.352,1.528,4.286,2.69,5.902c1.462,2.027,4.961,4.552,5.887,4.937
			c1.387,0.581,1.684-0.25,3.16-0.393c1.863-0.175,1.457,0.533,3.28,0.825c1.639,0.263,4.823-0.997,6.888-3.626
			c3.17-4.037,4.865-9.525,3.867-14.621c-0.338-1.719-1.23-4.165-2.842-5.153c-1.496-0.917-3.812-0.62-5.492-0.62
			c-1.088,0-1.962,0.177-2.965,0.277c-0.595,0.06-2.454,0.665-3.014,0.87"/>
	</g>
	<g>
		<path style="fill:#26992F;" d="M54.065,125.362c-0.944-0.127-0.922-1.742-1.353-2.512c-1.323-2.354-4.728-3.144-7.224-2.992
			c-1.527,0.095-3.547,0.571-2.729,1.914c0.057,0.092,0.749,0.516,0.955,0.797c0.487,0.655,9.353,2.376,10.214,2.487"/>
		<path style="fill:#824341;stroke:#824341;stroke-width:1.672;" d="M54.196,125.49c-0.22-1.396,1.079-3.328,1.14-3.889
			c-0.474-0.052,0.912,0.241,0.601,0.488c-0.646,0.521-1.424,3.125-1.73,3.454c-0.136,0.143-0.169-0.554-0.277-0.487"/>
		<path style="fill:#88C936;" d="M54.448,125.727c0.497-2.945,6.414-1.611,8.075-0.723c2.054,1.095,3.82,3.311,3.92,5.69
			c0.134,3.137-1.158,5.127-1.87,7.599c-0.664,2.293-1.979,4.097-3.307,5.58c-1.671,1.859-5.42,3.995-6.381,4.278
			c-1.442,0.428-1.648-0.43-3.101-0.728c-1.833-0.375-1.504,0.373-3.349,0.469c-1.658,0.084-4.689-1.508-6.46-4.345
			c-2.719-4.353-3.818-9.991-2.282-14.951c0.521-1.672,1.67-4.008,3.379-4.817c1.585-0.751,3.855-0.211,5.526-0.029
			c1.082,0.115,1.933,0.386,2.92,0.592c0.583,0.124,2.369,0.926,2.903,1.189"/>
	</g>
</g>
<g id="Layer_5">
	<g>
		<g>
			<path style="fill:#E2E1E0;stroke:#C4C4C4;stroke-width:0.1587;" d="M412.878,22.29c-3.148-2.098-5.479-0.515-10.33,3.25
				c-4.38,3.399-6.743,13.987-8.144,19.333c-1.908,7.31-14.475,24.185-21.105,33.702l0.686,0.89"/>
			<path style="fill:#E2E1E0;stroke:#C4C4C4;stroke-width:0.1587;" d="M412.682,22.157c3.145,2.11,2.768,4.993,1.135,10.922
				c-1.483,5.348-10.373,11.57-14.778,14.896c-6.554,4.947-17.745,23.867-23.808,33.078l-1.246-1.588"/>
		</g>
		<path style="fill:none;stroke:#8ED5ED;stroke-width:1.5954;stroke-linecap:round;stroke-linejoin:round;" d="M323.604,60.137
			c4.57-2.788,24.696-6.026,44.82-6.026s40.247,3.239,44.818,6.026"/>
		<ellipse style="fill:#F577AA;" cx="370.305" cy="63.574" rx="14.812" ry="14.635"/>
		<ellipse style="fill:#F58EAA;" cx="347.152" cy="70.09" rx="14.812" ry="14.635"/>
		<ellipse style="fill:#F9F4B9;" cx="392.928" cy="67.238" rx="14.812" ry="14.635"/>
		<ellipse style="fill:#AFE28D;" cx="369.2" cy="84.725" rx="14.812" ry="14.635"/>
		<g>
			<path style="fill:none;stroke:#8ED5ED;stroke-width:1.5954;stroke-linecap:round;stroke-linejoin:round;" d="M368.422,156.547
				c-5.341-0.243-24.116,0.973-24.116-2.597c5.865-3.701,18.236-0.374,21.204-5.978c1.273-2.405,2.11-10.583,2.11-13.622
				c0,0-5.52-2.212-5.52-6.676s3.266-6.438,5.52-8.691c-1.724-2.669-6.524-6.125-7.976-9.165c-1.661-3.479-0.529-9.229-2.109-13.953
				c-1.999-5.976-10.14-7.478-15.271-10.016c-7.512-3.713-12.465-8.811-16.122-16.388c-1.415-2.932-2.53-9.662-2.538-9.324
				c-0.074,3.226,18.597,5.748,25.779,6.723c6.254,0.849,12.671,1.305,19.04,1.194s12.786-0.346,19.04-1.194
				c7.183-0.975,25.779-3.496,25.779-6.723c0-0.51-1.123,6.392-2.538,9.324c-3.657,7.578-8.61,12.675-16.122,16.388
				c-5.132,2.538-13.272,4.04-15.271,10.016c-1.58,4.725-0.448,10.474-2.109,13.953c-1.451,3.04-6.252,6.496-7.976,9.165
				c2.254,2.254,5.52,4.228,5.52,8.691s-5.52,6.676-5.52,6.676c0,3.039,0.837,11.217,2.11,13.622
				c2.968,5.604,15.339,2.276,21.204,5.978c0,3.569-18.775,2.354-24.116,2.597"/>
			<path style="fill:none;stroke:#8ED5ED;stroke-width:0.75;stroke-linecap:round;stroke-linejoin:round;" d="M327.06,71.25
				c2.41-2.41,8.68-2.144,11.755-1.275c5.25,1.482,10.272,10.801,21.25,24.5c2.251,2.809-0.973,13.735,3.584,19.916"/>
			<path style="fill:none;stroke:#8ED5ED;stroke-width:0.75;stroke-linecap:round;stroke-linejoin:round;" d="M409.788,71.25
				c-2.41-2.41-8.68-2.144-11.755-1.275c-5.25,1.482-10.272,10.801-21.25,24.5c-2.251,2.809,0.973,13.735-3.584,19.916"/>
			<path style="fill:none;stroke:#8ED5ED;stroke-width:0.75;stroke-linecap:round;stroke-linejoin:round;" d="M365.379,116.166
				c-0.5-5.376-1.789-15.893-2.974-21.189c-1.099-4.915-11.889-14.629-12.729-17.621c-1.22-4.346,5.845-4.657,8.146-4.476
				c2.852,0.225,9.26,3.321,9.914,6.259c1.514,6.787-1.018,32.552-0.918,38.086"/>
			<path style="fill:none;stroke:#8ED5ED;stroke-width:0.75;stroke-linecap:round;stroke-linejoin:round;" d="M372.026,116.189
				c0.5-5.376,1.789-15.893,2.974-21.189c1.099-4.915,11.889-14.629,12.729-17.621c1.22-4.346-5.845-4.657-8.146-4.476
				c-2.852,0.225-9.26,3.321-9.914,6.259c-1.514,6.787,1.018,32.552,0.918,38.086"/>
		</g>
	</g>
	<g>
		<path style="fill:none;stroke:#8ED5ED;stroke-width:1.5954;stroke-linecap:round;stroke-linejoin:round;" d="M306.438,67.785
			c0-1.318-17.266-5.033-34.979-5.016c-17.26,0.017-34.979,3.731-34.979,5.016"/>
		<g>
			<path style="fill:#E2E1E0;stroke:#C4C4C4;stroke-width:0.1824;" d="M218.721,20.796c-3.305,1.843-2.556,5.374-0.518,13.051
				c1.841,6.93,11.753,16.722,16.68,21.881c6.741,7.048,19.277,31.857,26.515,45.372l1.16-0.102"/>
			<path style="fill:#E2E1E0;stroke:#C4C4C4;stroke-width:0.1824;" d="M218.514,20.911c3.314-1.831,6.112,0.556,11.548,6.362
				c4.899,5.25,7.943,18.847,9.699,25.755c2.61,10.273,17.739,35.056,24.877,47.763l-2.08,0.208"/>
		</g>
		<path style="fill:#FFFFFF;stroke:#CCA425;" d="M316.499,40.184c-9.125,12.722-17.254,26.172-28.219,37.625
			c-2.785,2.91-5.087,8.005-8.427,10.026c-3.013,1.823-9.205,0.253-11.229-2.688c-2.468-3.584,2.62-6.338,4.916-8.965
			c5.708-6.532,10.84-13.121,15.452-20.492c3.722-5.949,7.311-12.668,12.421-17.585c1.06-1.02,2.196-1.584,3.025-2.787
			c-0.496,2.233-0.908,4.241,1.353,5.602c2.31,1.39,9.566,0.065,11.123-2.219c3.445-5.057-10.568-6.438-9.165,0.402
			c1.546,0.252,2.924-1.064,3.411-2.616c-1.706-1.018-11.695-2.406-8.422,1.012"/>
		<ellipse style="fill:#E9F2B6;" cx="277.311" cy="83.155" rx="14.812" ry="14.635"/>
		<g>
			<g>
				<path style="fill:#E11D1A;stroke:#ED481C;stroke-width:0.2508;stroke-linecap:round;stroke-linejoin:round;" d="M289.557,72.047
					c-0.677,0.496-1.358,1.169-1.658,1.984c-0.257,0.708-0.014,1.711,0.278,2.387c0.331,0.771,0.811,1.387,1.55,1.782
					c1.524,0.82,4.897,0.506,5.328,0.426c0.813-0.151,1.939-0.076,2.083-1.177c0.061-0.467-0.054-1.098-0.063-1.574
					c-0.013-0.459-0.85-3.465-1.344-4.357c-0.703-1.286-2.149-2.384-3.7-2.236c-0.768,0.074-1.323,0.672-1.629,1.276
					c-0.289,0.573-0.729,1.089-1.048,1.66"/>
				<g>
					<path style="fill:#3A9B29;stroke:#87C71D;stroke-width:0.2508;stroke-linecap:round;stroke-linejoin:round;" d="
						M289.168,72.533c-0.632,0.968,0.114,2.581,0.28,3.584c-0.089-0.616,0.046-1.229,0.068-1.852
						c0.021-0.594-0.138-1.193-0.109-1.76c0.399,0.182,0.857,0.218,1.245,0.485c0.424,0.294,0.671,0.79,0.975,1.167
						c0.373-0.836-1.09-2.582-1.898-2.161c0.196-0.248,0.477-0.268,0.729-0.401c0.218-0.113,0.461-0.303,0.687-0.46
						c0.46-0.319,0.857-0.467,1.408-0.447c-0.507-0.508-2.194,0.249-2.534,0.782c0.21-0.583,0.282-1.301,0.26-1.903
						c-0.02-0.521-0.314-1.263-0.18-1.758c-0.023,0.591-0.012,1.289-0.087,1.907c-0.061,0.507-0.251,1.019-0.211,1.535
						c-0.414,0.055-0.417,0.698-0.729,0.82c-0.311,0.125-0.745-0.008-1.046,0.169c-0.781,0.46-1.289,1.54-1.547,2.249
						c0.818-0.784,1.741-1.181,2.63-1.735c-0.063-0.04-0.046,0.024-0.094,0.051"/>
					<path style="fill:#3A9B29;stroke:#87C71D;stroke-width:0.2508;stroke-linecap:round;stroke-linejoin:round;" d="
						M289.344,72.146c-0.38-0.576-1.096-0.977-1.641-1.324c0.153-0.199,0.316-0.395,0.418-0.624c0.271,0.578,1.195,1.131,1.61,1.463
						"/>
				</g>
			</g>
			<path style="fill:#FE9F34;" d="M292.395,71.144c-0.065,0.042-0.088,0.097-0.068,0.163c0.304,0.075,0.518,0.082,0.811,0.223
				c0.114-0.452-0.607-0.386-0.84-0.265"/>
			<path style="fill:#FE9F34;" d="M290.152,76.424c0.203,0.196,0.279,0.625,0.595,0.409c-0.045-0.25-0.229-0.498-0.473-0.312"/>
			<path style="fill:#FE9F34;" d="M290.215,73.701c0.103,0.181,0.691,0.449,0.539,0.078c-0.098-0.231-0.414-0.159-0.613-0.206
				c0.066,0.126,0.158,0.207,0.275,0.289"/>
			<path style="fill:#FE9F34;" d="M292.742,75.917c0.173,0.182,0.273,0.515,0.564,0.383c-0.042-0.184-0.212-0.331-0.389-0.438"/>
			<path style="fill:#FE9F34;" d="M293.926,73.691c0.27,0.276,0.463,0.615,0.854,0.495c-0.039-0.074-0.152-0.249-0.203-0.312
				c-0.176,0.031-0.303-0.02-0.457-0.093"/>
			<path style="fill:#FE9F34;" d="M295.645,76.256c0.174,0.113,0.279,0.279,0.276,0.473c-0.321-0.142-0.324-0.463-0.58-0.648
				c0.063,0.05,0.132,0.097,0.19,0.152"/>
			<path style="fill:#FE9F34;" d="M293.653,77.174c0.066,0.281,0.479,0.518,0.682,0.292c-0.17-0.085-0.378-0.122-0.561-0.195"/>
			<path style="fill:#FE9F34;" d="M295.062,72.682c0.264,0.062,0.59,0.218,0.578,0.511c-0.177-0.014-0.229-0.11-0.289-0.21"/>
			<path style="fill:#FE9F34;" d="M291.887,77.481c-0.06,0.25,0.157,0.513,0.42,0.4c-0.044-0.183-0.184-0.276-0.372-0.293"/>
			<path style="fill:#FE9F34;" d="M288.708,75.338c-0.002,0.118,0.052,0.288,0.079,0.401c0.05-0.003,0.158-0.013,0.214-0.032
				c0.095-0.146,0.019-0.189-0.098-0.282"/>
		</g>
		<ellipse style="fill:#AFE28D;" cx="262.394" cy="75.529" rx="14.812" ry="14.635"/>
		<ellipse style="fill:#AFE28D;" cx="270.166" cy="109.702" rx="14.812" ry="14.635"/>
		<g>
			<g>
				<path style="fill:#E11D1A;stroke:#ED481C;stroke-width:0.2508;stroke-linecap:round;stroke-linejoin:round;" d="M264.223,92.427
					c0.098,0.408,0.355,0.706,0.523,1.073c0.209,0.468,0.262,0.896,0.314,1.415c0.096,0.917,0.148,2.316-0.57,2.957
					c-0.889,0.793-1.809,0.939-2.961,1.165c-0.893,0.176-2.496,0.689-3.393,0.371c-0.738-0.265-1.434-1.362-1.908-1.909
					c-0.365-0.422-0.506-0.574-0.467-1.17c0.191-3.055,1.174-4.184,2.104-5.575c0.281-0.421,0.75-0.698,1.24-0.874
					c2.043-0.729,4.303,0.758,5.102,2.714"/>
				<path style="fill:#3A9B29;stroke:#87C71D;stroke-width:0.2508;stroke-linecap:round;stroke-linejoin:round;" d="M264.363,92.154
					c0.398,0.181,0.881,0.099,1.285,0.281c0.334,0.148,0.646,0.472,0.938,0.678c-0.645-0.272-1.279-0.497-2.027-0.531
					c-0.012,0.291,0.334,0.421,0.496,0.666c0.174,0.257,0.293,0.596,0.383,0.892c0.191,0.627,0.232,1.276,0.373,1.895
					c-0.264-0.624-0.439-1.309-0.723-1.931c-0.137-0.298-0.318-0.613-0.551-0.84c-0.297-0.293-0.234-0.243-0.607-0.195
					c-0.533,0.068-1.039,0.396-1.582,0.475c-0.586,0.084-1.311-0.056-1.902-0.119c1.174,0.507,2.59-0.224,3.441-0.972
					c-0.334-0.486-1.057-0.642-1.572-0.88c-0.707-0.326-1.256-0.257-1.998-0.375c0.859-0.767,3.426-0.223,3.842,0.813
					c0.162,0.013,0.172,0.104,0.15,0.082"/>
				<path style="fill:#FE9F34;" d="M262.137,92.222c-0.297-0.105-0.766,0.053-0.93,0.3c0.312,0.209,0.516-0.17,0.76-0.314"/>
				<path style="fill:#FE9F34;" d="M264.369,95c0.104,0.446-0.096,0.966-0.635,0.784c0.031-0.291,0.328-0.457,0.562-0.618"/>
				<path style="fill:#FE9F34;" d="M263.551,94.068c-0.35,0.059-0.721,0.15-0.789,0.541c0.361,0.056,0.406-0.342,0.672-0.495"/>
				<path style="fill:#FE9F34;" d="M259.297,91.55c-0.471-0.065-0.939,0.31-0.818,0.767c0.238-0.076,0.498-0.381,0.535-0.673
					c0.098-0.021,0.143-0.064,0.229-0.098"/>
				<path style="fill:#FE9F34;" d="M260.908,98.422c-0.24,0.214-0.816,0.369-0.963,0.02c0.314-0.056,0.648-0.174,0.973-0.179
					c-0.072,0.064-0.113,0.185-0.189,0.258"/>
				<path style="fill:#FE9F34;" d="M262.453,96.58c-0.1,0.457-0.621,0.632-1.066,0.515c0.117-0.294,0.648-0.578,0.953-0.63
					c-0.014,0.079,0.025,0.071,0.057,0.11"/>
				<path style="fill:#FE9F34;" d="M260.373,94.557c-0.336,0.223-0.768,0.266-0.965,0.594c0.293,0.191,0.559-0.252,0.721-0.447"/>
				<path style="fill:#FE9F34;" d="M258.471,93.632c-0.346,0.425-0.857,0.191-1.039,0.796c0.439,0.337,0.717-0.442,0.916-0.693"/>
				<path style="fill:#FE9F34;" d="M258.881,97.033c-0.324,0.28-0.959,0.136-0.865,0.762c0.412,0.029,0.488-0.456,0.85-0.594"/>
				<path style="fill:#FE9F34;" d="M257.012,95.767c-0.045,0.24,0.061,0.368,0.295,0.365c-0.012-0.21-0.07-0.407-0.111-0.621
					c-0.021,0.001-0.125-0.012-0.148-0.015c-0.008,0.148-0.037,0.355-0.004,0.503"/>
			</g>
			<path style="fill:#3A9B29;stroke:#87C71D;stroke-width:0.2508;stroke-linecap:round;stroke-linejoin:round;" d="M264.281,92.409
				c0.52-0.813-0.496-2.387-1.27-2.534c0.496,0.273,1.121,1.23,0.902,1.777"/>
		</g>
		<g>
			<path style="fill:none;stroke:#8ED5ED;stroke-width:1.5954;stroke-linecap:round;stroke-linejoin:round;" d="M236.479,67.785
				c0,4.993,23.647,8.132,34.979,8.286s34.979-3.292,34.979-8.286"/>
			<path style="fill:none;stroke:#8ED5ED;stroke-width:1.5954;stroke-linecap:round;stroke-linejoin:round;" d="M306.438,67.785
				c0.273,6.093-7.599,10.133-11.25,14.706c-3.851,4.821-5.554,8.316-7.225,14c-1.731,5.892,0.12,9.607-0.527,15.5
				c-0.674,6.137-13.398,12.324-11.635,17.604c1.022,3.061,4.636,2.898,3.963,6.473c-0.879,4.664-8.412,5.639-7.324,11.895
				c0.525,3.023,4.354,5.309,6.914,7.432c4.404,3.652,7.913,5.256,13.582,5.209c2.807-0.023,8.771-1.244,8.341,2.814
				c-10.948,0.596-18.457,1.664-29.819,1.146h0.002c-11.362,0.518-18.871-0.551-29.819-1.146c-0.43-4.059,5.534-2.838,8.341-2.814
				c5.669,0.047,9.178-1.557,13.582-5.209c2.56-2.123,6.389-4.408,6.914-7.432c1.088-6.256-6.445-7.23-7.324-11.895
				c-0.673-3.574,2.94-3.412,3.963-6.473c1.764-5.279-10.961-11.467-11.635-17.604c-0.647-5.893,1.204-9.607-0.527-15.5
				c-1.671-5.684-3.374-9.179-7.225-14c-3.651-4.573-11.523-8.613-11.25-14.706"/>
			<path style="fill:none;stroke:#8ED5ED;stroke-width:0.75;stroke-linecap:round;stroke-linejoin:round;" d="M257.215,115.796
				c3.125,0,4.853-9.544,5.093-12.056c0.492-5.15,0.331-11.533-0.418-16.005c-0.443-2.649-1.803-8.55-9.614-8.55
				c-3.511,0-3.518,2.49-2.39,5.447"/>
			<path style="fill:none;stroke:#8ED5ED;stroke-width:0.7817;stroke-linecap:round;stroke-linejoin:round;" d="M271.582,120.524
				c8.896,0,8.891-39.897,0-39.897S262.687,120.524,271.582,120.524z"/>
			<path style="fill:none;stroke:#8ED5ED;stroke-width:0.75;stroke-linecap:round;stroke-linejoin:round;" d="M285.703,115.796
				c-3.125,0-4.853-9.544-5.093-12.056c-0.492-5.15-0.331-11.533,0.418-16.005c0.443-2.649,1.803-8.55,9.614-8.55
				c3.511,0,3.518,2.49,2.39,5.447"/>
			<path style="fill:none;stroke:#8ED5ED;stroke-width:1.5954;stroke-linecap:round;stroke-linejoin:round;" d="M264.759,123.734
				c4.014,1.282,10.162,1.297,13.398,0"/>
		</g>
	</g>
</g>
</svg>
