<?xml version="1.0" encoding="iso-8859-1"?>
<!-- Generator: Adobe Illustrator 13.0.0, SVG Export Plug-In . SVG Version: 6.00 Build 14948)  -->
<!DOCTYPE svg PUBLIC "-//W3C//DTD SVG 1.1//EN" "http://www.w3.org/Graphics/SVG/1.1/DTD/svg11.dtd">
<svg version="1.1" xmlns="http://www.w3.org/2000/svg" xmlns:xlink="http://www.w3.org/1999/xlink" x="0px" y="0px" width="378px"
	 height="140px" viewBox="0 0 378 140" style="enable-background:new 0 0 378 140;" xml:space="preserve">
<g id="Layer_2">
	<g>
		<rect style="fill:none;" width="378" height="140"/>
		<rect style="fill:#FFFFFF;" width="378" height="140"/>
	</g>
</g>
<g id="plaine_fond">
	<path style="fill:none;stroke:#99CC66;stroke-width:0.5;" d="M146.125,64.625C153.25,63.75,161.75,57.75,178.25,57
		s19.747,0.14,41.872,4.515s41.253-1.934,58.003-4.89C310,51,323.812,61.062,328,64.375"/>
</g>
<g id="montagne_4">
	<path style="fill:#FFFFFF;stroke:#669933;stroke-width:0.5;" d="M36.947,77.129c4.854-2.479,1.435-40.277,6.943-40.277
		c8.902,0,20.756-17.395,29.259-21.843c2.175-1.138,17.047-10.086,24.66-8.344c6.913,1.582,24.018,19.636,27.813,21.248
		c3.408,1.446,41.221,40.833,48.749,45.329c0,0,3.289,2.684,0.701,2.684s-16.558,0.368-22.542,3.596
		c-5.019,2.706-6.74,7.016-8.974,9.132s-27.047-0.669-34.808-2.673C100.987,83.975,36.947,77.129,36.947,77.129z"/>
</g>
<g id="lac_fond">
	<path style="fill:#5FC8FF;" d="M168.48,74.875c-19.23,0-43.472,8.676-34.48,12.625c7.702,3.383,28.561-1.651,29.085,1.924
		c-0.424,3.746-16.666,0.904-19.512,4.372c-2.825,3.443,12.392,1.071,14.921,2.609c15.146,9.208,34.641,6.427,51.947,6.427
		c12.542,0,20.327,0.2,33.936,0.2c8.536,0,54.392,0.671,56.854-2.896c4.659-6.75-24.353-2.448-25.28-5
		c-1.309-3.596,29.559-3.831,29.559-13c0-12.129-51.312-4.899-69.774-4.899C217.274,77.236,186.301,74.875,168.48,74.875z"/>
</g>
<g id="lac_devant">
	<path style="fill:#5FC8FF;" d="M191.968,96.667c0,0-23.895-0.863-31.927-0.261s-20.507,4.742-13.855,9.036
		c23.365,15.084,149.565,10.308,155.69,0.62c1.594-2.521,0.126-5.94-9.188-5.454s-67.285-8.319-66.382-9.223
		S191.968,96.667,191.968,96.667z"/>
</g>
<g id="montagne_droit">
	<path style="fill:#FFFFFF;stroke:#006600;stroke-width:0.5;stroke-linecap:round;stroke-linejoin:round;" d="M365.986,33.924
		c-3.607,4.072-5.099,2.793-7.317,6.935c-2.459,4.593-10.881,2.543-14.703,6.111c-6.255,5.84-7.232,4.341-13.076,10.936
		c-2.94,3.318-7.001,6.848-10.131,9.575c-4.262,3.713-18.341,9.3-23.55,11.313c-8.855,3.424-4.459,3.967-18.832,8.884
		c-5.358,1.834-14.984,1.054-19.82,3.966c-0.47,0.283-9.057,5.167-9.557,6.606c-2.397,6.901,43.324,2.055,42.376,2.357
		c69.628,0,66.958,11.56,66.958,11.56"/>
</g>
<g id="montagne_2">
	<path style="fill:#FFFFFF;stroke:#006600;stroke-width:0.5;stroke-linecap:round;stroke-linejoin:round;" d="M13.422,24.141
		c18.877,0,45.69,20.262,51.664,24.243c6.203,4.135,54.434,46.515,61.697,48.825H25.501"/>
</g>
<g id="montagne_1">
	<path style="fill:#FFFFFF;stroke:#005300;stroke-width:0.5;stroke-linecap:round;stroke-linejoin:round;" d="M7.63,105.844
		c6.024-6.024,38.554-22.089,63.706-27.376c5.533-1.163,28.623-17.582,31.939-17.585c13.281-0.014,38.369,16.474,45.261,20.266
		c10.636,5.852,38.46,11.515,38.46,15.36c0,1.539-41.336-0.846-48,3.059"/>
</g>
<g id="front">
	<path style="fill:#FFFFFF;stroke:#003300;stroke-width:0.5;stroke-linecap:round;stroke-linejoin:round;" d="M30.875,129.607
		c40.192-6.303,64.393-12.87,145.809-16.641s157.443,16.641,190.193,16.641"/>
</g>
</svg>
