<?xml version="1.0" encoding="iso-8859-1"?>
<!-- Generator: Adobe Illustrator 13.0.0, SVG Export Plug-In . SVG Version: 6.00 Build 14948)  -->
<!DOCTYPE svg PUBLIC "-//W3C//DTD SVG 1.1//EN" "http://www.w3.org/Graphics/SVG/1.1/DTD/svg11.dtd">
<svg version="1.1" xmlns="http://www.w3.org/2000/svg" xmlns:xlink="http://www.w3.org/1999/xlink" x="0px" y="0px" width="378px"
	 height="140px" viewBox="0 0 378 140" style="enable-background:new 0 0 378 140;" xml:space="preserve">
<g id="Layer_2">
	<g>
		<rect style="fill:none;" width="378" height="140"/>
		<rect style="fill:#FFFFFF;" width="378" height="140"/>
	</g>
</g>
<g id="Layer_4">
	<g>
		<g>
			<g>
				<path style="fill:#BE3D37;" d="M359.4,76.137h-16.607c-0.982,0-1.78,0.796-1.78,1.779c0,0,0-0.983,0,0
					c0,0.982,0.798,1.779,1.78,1.779H359.4"/>
				<path style="fill:none;stroke:#FFFFFF;stroke-width:0.9618;" d="M359.4,76.137h-16.607c-0.982,0-1.78,0.796-1.78,1.779
					c0,0,0-0.983,0,0c0,0.982,0.798,1.779,1.78,1.779H359.4"/>
			</g>
		</g>
		<g>
			<rect x="179.075" y="73.435" style="fill:#67A728;stroke:#FFFFFF;stroke-width:0.9618;" width="3.834" height="50.971"/>
			<path style="fill:#67A728;stroke:#FFFFFF;stroke-width:0.9618;" d="M192.158,76.227H169.82v-5.586c0,0,5.298-2.444,10.883-2.444
				s11.455,2.444,11.455,2.444V76.227z"/>
			<rect x="173.834" y="112.32" style="fill:#67A728;stroke:#FFFFFF;stroke-width:0.6412;" width="14.313" height="1.309"/>
		</g>
		
			<line style="fill:none;stroke:#67A728;stroke-width:2.3989;stroke-linecap:round;" x1="19.7" y1="47.633" x2="160.616" y2="47.633"/>
		
			<line style="fill:none;stroke:#67A728;stroke-width:2.3989;stroke-linecap:square;" x1="160.616" y1="47.633" x2="160.616" y2="64.464"/>
		
			<line style="fill:none;stroke:#67A728;stroke-width:2.3989;stroke-linecap:square;" x1="160.616" y1="64.464" x2="153.403" y2="64.464"/>
		
			<line style="fill:none;stroke:#67A728;stroke-width:2.3989;stroke-linecap:square;" x1="153.403" y1="64.464" x2="153.403" y2="123.772"/>
		<line style="fill:none;stroke:#67A728;stroke-width:2.3989;" x1="153.403" y1="123.772" x2="359.4" y2="123.772"/>
		<g>
			<g>
				
					<line style="fill:none;stroke:#67A728;stroke-width:2.9986;stroke-linecap:round;stroke-linejoin:round;" x1="325.402" y1="68.186" x2="325.402" y2="95.205"/>
				
					<line style="fill:none;stroke:#67A728;stroke-width:2.9986;stroke-linecap:round;stroke-linejoin:round;" x1="325.402" y1="95.205" x2="352.418" y2="95.205"/>
				
					<line style="fill:none;stroke:#67A728;stroke-width:2.9986;stroke-linecap:round;stroke-linejoin:round;" x1="352.418" y1="95.205" x2="325.372" y2="122.252"/>
				
					<line style="fill:none;stroke:#67A728;stroke-width:2.9986;stroke-linecap:round;stroke-linejoin:round;" x1="325.372" y1="122.252" x2="340.95" y2="122.252"/>
			</g>
		</g>
	</g>
</g>
<g id="Layer_3">
	<g>
		<g>
			<path style="fill:none;stroke:#777768;stroke-width:1.9595;" d="M108.174,16.972c0,5.149,3.188,9.324,7.124,9.324
				c3.929,0,7.119-4.175,7.119-9.324c0-5.151-3.19-9.326-7.119-9.326C111.362,7.646,108.174,11.821,108.174,16.972z"/>
			<path style="fill:none;stroke:#777768;stroke-width:1.9595;" d="M115.115,26.667c0.013,2.208,0.103,10.178,0.221,19.939"/>
			<path style="fill:#777768;stroke:#777768;stroke-width:1.3077;stroke-linecap:round;stroke-linejoin:round;" d="M115.402,29.243
				c0.875-0.34,1.795-1.145,2.697-1.178c-0.063,1.444-0.489,2.95-0.543,4.424c-1.117-0.434-1.513-2.127-2.415-2.834
				c-0.372-0.294-0.708-0.657-1.151-0.926c-0.502-0.306-0.923-0.727-1.492-0.887c-0.043,0.584,0.104,1.292-0.039,1.86
				c-0.148,0.578-1.126,1.398-0.853,2.037c0.356,0.839,3.162-1.633,3.534-2.277"/>
			<path style="fill:none;stroke:#777768;stroke-width:1.9595;stroke-linecap:round;stroke-linejoin:round;" d="M108.911,46.609
				c0.306-1.137,0.608-2.164,0.854-2.718c1.234-2.765,3.274-8.913,5.411-10.96"/>
		</g>
	</g>
	<g>
		<path style="fill:#FFFFFF;stroke:#777768;stroke-width:1.3077;stroke-linecap:round;stroke-linejoin:round;" d="M190.621,72.537
			c0,1.039,0.842,1.883,1.883,1.883c1.032,0,1.881-0.844,1.881-1.883s-0.849-1.881-1.881-1.881
			C191.463,70.656,190.621,71.498,190.621,72.537z"/>
		<path style="fill:none;stroke:#777768;stroke-width:1.3077;stroke-linecap:round;stroke-linejoin:round;" d="M183.73,15.554
			c0,5.829,3.615,10.553,8.06,10.553c4.448,0,8.061-4.724,8.061-10.553C199.851,9.726,196.238,5,191.79,5
			C187.346,5,183.73,9.726,183.73,15.554z"/>
		<path style="fill:none;stroke:#777768;stroke-width:1.3077;stroke-linecap:round;stroke-linejoin:round;" d="M191.591,26.528
			c0.038,7.368-0.992,29.153,0.417,36.223c1.266,6.317,1.825,4.403,0.567,13.249c-1.583,11.078,1.973,21.889,2.352,27.49
			c1.965,29.064,2.14,28.338-4.602,27.494"/>
	</g>
	<g>
		<g>
			<path style="fill:none;stroke:#777768;stroke-width:1.3077;stroke-linecap:round;stroke-linejoin:round;" d="M137.634,22.192
				c0,5.969,3.69,10.803,8.248,10.803c4.552,0,8.249-4.834,8.249-10.803c0-5.963-3.697-10.797-8.249-10.797
				C141.324,11.395,137.634,16.229,137.634,22.192z"/>
			<path style="fill:none;stroke:#777768;stroke-width:1.3077;stroke-linecap:round;stroke-linejoin:round;" d="M145.634,47.653
				c-0.123,7.616-0.108,15.773,0.644,19.512c1.172,5.893,3.534,3.535,2.354,11.784c-1.476,10.338-5.5,18.854-4.319,23.957
				c6.431,27.875,6.674,28.672,0.395,27.889"/>
			<path style="fill:none;stroke:#777768;stroke-width:1.3077;stroke-linecap:round;stroke-linejoin:round;" d="M145.882,33.39
				c0.01,1.899-0.056,4.823-0.128,8.2"/>
			<path style="fill:#FFFFFF;stroke:#777768;stroke-width:1.3077;stroke-linecap:round;stroke-linejoin:round;" d="M140.959,44.594
				c0,1.841,1.491,3.338,3.335,3.338s3.344-1.497,3.344-3.338c0-1.844-1.5-3.34-3.344-3.34S140.959,42.75,140.959,44.594z"/>
		</g>
	</g>
</g>
</svg>
