<?xml version="1.0" encoding="iso-8859-1"?>
<!-- Generator: Adobe Illustrator 13.0.0, SVG Export Plug-In . SVG Version: 6.00 Build 14948)  -->
<!DOCTYPE svg PUBLIC "-//W3C//DTD SVG 1.1//EN" "http://www.w3.org/Graphics/SVG/1.1/DTD/svg11.dtd">
<svg version="1.1" xmlns="http://www.w3.org/2000/svg" xmlns:xlink="http://www.w3.org/1999/xlink" x="0px" y="0px" width="378px"
	 height="185.94px" viewBox="0 0 378 185.94" style="enable-background:new 0 0 378 185.94;" xml:space="preserve">
<g id="Layer_2">
	<g>
		<rect y="25.507" style="fill:#FFFFFF;" width="378" height="140"/>
	</g>
</g>
<g id="Layer_1">
	<g>
		<g>
			<path style="fill:#5E5E5E;stroke:#5E5E5E;stroke-width:2.1;" d="M36.019,82.784c0,0,3.186-6.616,8.41-9.986"/>
			<path style="fill:#5E5E5E;stroke:#5E5E5E;stroke-width:2.1;" d="M58.924,82.784c0,0-3.187-6.616-8.41-9.986"/>
			<line style="fill:none;stroke:#5E5E5E;stroke-width:2.1;" x1="40.113" y1="76.667" x2="54.771" y2="76.667"/>
			<line style="fill:none;stroke:#5E5E5E;stroke-width:2.1;" x1="37.767" y1="79.79" x2="56.997" y2="79.79"/>
		</g>
		<path style="fill:#90A9C4;" d="M47.469,74.087c3.981,0,7.891-0.014,8.424-0.067c3.075-0.304,3.672-4.781,3.764-6.938
			c0.061-1.436-0.061-2.92,0.008-4.24c0.073-1.396-0.2-14.207-0.818-14.945c-0.809-0.966-1.491-1.406-3.586-1.406
			c-0.139,0-7.654,0-7.792,0h0.003c-0.137,0-7.653,0-7.792,0c-2.095,0-2.777,0.44-3.586,1.406
			c-0.618,0.738-0.891,13.548-0.818,14.945c0.069,1.319-0.053,2.804,0.008,4.24c0.092,2.158,0.689,6.635,3.764,6.938
			c0.533,0.053,4.442,0.067,8.424,0.067H47.469z"/>
		<g>
			<path style="fill:#FFFFFF;" d="M57.527,61.354c0,0.387-0.313,0.7-0.7,0.7H38.114c-0.387,0-0.7-0.313-0.7-0.7v-8.111
				c0-0.386,0.313-0.7,0.7-0.7h18.713c0.387,0,0.7,0.313,0.7,0.7V61.354z"/>
		</g>
		<g>
			<path style="fill:#FFFFFF;" d="M42.848,69.93c0,0.387-0.313,0.7-0.7,0.7h-2.653c-0.387,0-0.7-0.313-0.7-0.7v-2.498
				c0-0.386,0.313-0.7,0.7-0.7h2.653c0.387,0,0.7,0.313,0.7,0.7V69.93z"/>
			<path style="fill:#FFFFFF;" d="M56.147,69.93c0,0.387-0.313,0.7-0.7,0.7h-2.654c-0.387,0-0.7-0.313-0.7-0.7v-2.498
				c0-0.386,0.313-0.7,0.7-0.7h2.654c0.387,0,0.7,0.313,0.7,0.7V69.93z"/>
		</g>
	</g>
	<g>
		<g>
			<path style="fill:#5E5E5E;stroke:#5E5E5E;stroke-width:2.1;" d="M103.515,82.784c0,0,3.186-6.616,8.41-9.986"/>
			<path style="fill:#5E5E5E;stroke:#5E5E5E;stroke-width:2.1;" d="M126.42,82.784c0,0-3.187-6.616-8.411-9.986"/>
			<line style="fill:none;stroke:#5E5E5E;stroke-width:2.1;" x1="107.608" y1="76.667" x2="122.267" y2="76.667"/>
			<line style="fill:none;stroke:#5E5E5E;stroke-width:2.1;" x1="105.263" y1="79.79" x2="124.493" y2="79.79"/>
		</g>
		<path style="fill:#90A9C4;" d="M114.965,74.087c3.981,0,7.891-0.014,8.424-0.067c3.075-0.304,3.672-4.781,3.764-6.938
			c0.061-1.436-0.061-2.92,0.008-4.24c0.073-1.396-0.201-14.207-0.818-14.945c-0.809-0.966-1.491-1.406-3.586-1.406
			c-0.139,0-7.654,0-7.792,0h0.003c-0.138,0-7.653,0-7.792,0c-2.095,0-2.778,0.44-3.586,1.406
			c-0.618,0.738-0.891,13.548-0.818,14.945c0.069,1.319-0.052,2.804,0.008,4.24c0.092,2.158,0.689,6.635,3.764,6.938
			c0.533,0.053,4.442,0.067,8.424,0.067H114.965z"/>
		<g>
			<path style="fill:#FFFFFF;" d="M125.023,61.354c0,0.387-0.313,0.7-0.7,0.7H105.61c-0.387,0-0.7-0.313-0.7-0.7v-8.111
				c0-0.386,0.313-0.7,0.7-0.7h18.713c0.387,0,0.7,0.313,0.7,0.7V61.354z"/>
		</g>
		<g>
			<path style="fill:#FFFFFF;" d="M110.344,69.93c0,0.387-0.313,0.7-0.7,0.7h-2.654c-0.387,0-0.7-0.313-0.7-0.7v-2.498
				c0-0.386,0.313-0.7,0.7-0.7h2.654c0.387,0,0.7,0.313,0.7,0.7V69.93z"/>
			<path style="fill:#FFFFFF;" d="M123.644,69.93c0,0.387-0.313,0.7-0.7,0.7h-2.654c-0.387,0-0.7-0.313-0.7-0.7v-2.498
				c0-0.386,0.313-0.7,0.7-0.7h2.654c0.387,0,0.7,0.313,0.7,0.7V69.93z"/>
		</g>
	</g>
	<g>
		<g>
			<path style="fill:#5E5E5E;stroke:#5E5E5E;stroke-width:2.1;" d="M171.011,82.784c0,0,3.187-6.616,8.41-9.986"/>
			<path style="fill:#5E5E5E;stroke:#5E5E5E;stroke-width:2.1;" d="M193.916,82.784c0,0-3.187-6.616-8.41-9.986"/>
			<line style="fill:none;stroke:#5E5E5E;stroke-width:2.1;" x1="175.105" y1="76.667" x2="189.763" y2="76.667"/>
			<line style="fill:none;stroke:#5E5E5E;stroke-width:2.1;" x1="172.759" y1="79.79" x2="191.988" y2="79.79"/>
		</g>
		<path style="fill:#90A9C4;" d="M182.462,74.087c3.981,0,7.891-0.014,8.424-0.067c3.074-0.304,3.672-4.781,3.764-6.938
			c0.062-1.436-0.061-2.92,0.008-4.24c0.074-1.396-0.199-14.207-0.817-14.945c-0.81-0.966-1.491-1.406-3.586-1.406
			c-0.14,0-7.655,0-7.792,0h0.002c-0.137,0-7.653,0-7.792,0c-2.095,0-2.777,0.44-3.586,1.406
			c-0.618,0.738-0.892,13.548-0.818,14.945c0.069,1.319-0.053,2.804,0.008,4.24c0.091,2.158,0.689,6.635,3.764,6.938
			c0.533,0.053,4.443,0.067,8.424,0.067H182.462z"/>
		<g>
			<path style="fill:#FFFFFF;" d="M192.52,61.354c0,0.387-0.313,0.7-0.7,0.7h-18.712c-0.387,0-0.7-0.313-0.7-0.7v-8.111
				c0-0.386,0.313-0.7,0.7-0.7h18.712c0.387,0,0.7,0.313,0.7,0.7V61.354z"/>
		</g>
		<g>
			<path style="fill:#FFFFFF;" d="M177.84,69.93c0,0.387-0.313,0.7-0.7,0.7h-2.654c-0.387,0-0.7-0.313-0.7-0.7v-2.498
				c0-0.386,0.313-0.7,0.7-0.7h2.654c0.387,0,0.7,0.313,0.7,0.7V69.93z"/>
			<path style="fill:#FFFFFF;" d="M191.14,69.93c0,0.387-0.313,0.7-0.7,0.7h-2.653c-0.387,0-0.7-0.313-0.7-0.7v-2.498
				c0-0.386,0.313-0.7,0.7-0.7h2.653c0.387,0,0.7,0.313,0.7,0.7V69.93z"/>
		</g>
	</g>
</g>
<g id="Layer_3">
	<g>
		<path style="fill:none;stroke:#777768;stroke-width:1.1995;stroke-linecap:round;stroke-linejoin:round;" d="M248.634,91.312
			c0,0.852,0.695,1.541,1.543,1.541c0.847,0,1.54-0.688,1.54-1.541c0-0.852-0.693-1.536-1.54-1.536
			C249.329,89.776,248.634,90.46,248.634,91.312z"/>
		<path style="fill:#FFFFFF;stroke:#777768;stroke-width:1.7991;stroke-linecap:round;stroke-linejoin:round;" d="M236.761,48.522
			c1.049,4.652,4.778,7.773,8.331,6.973c3.548-0.801,5.579-5.22,4.53-9.873c-1.048-4.651-4.78-7.771-8.328-6.972
			C237.74,39.451,235.712,43.871,236.761,48.522z"/>
		<path style="fill:none;stroke:#777768;stroke-width:1.7991;stroke-linecap:round;stroke-linejoin:round;" d="M245.092,55.495
			c0.028,6.027,3.525,22.029,4.682,27.814c1.034,5.167,1.494,3.602,0.459,10.835c-1.292,9.062,1.617,17.904,1.932,22.492
			c1.603,23.773,1.748,23.177-3.77,22.487"/>
		<path style="fill:none;stroke:#777768;stroke-width:1.1274;stroke-linecap:round;stroke-linejoin:round;" d="M245.349,62.582
			c-1.577-3.604-11.068,8.66-12.37,12.861c0.755,3.151,11.03,5.674,15.541,4.305c-0.73-0.154-2.081-0.226-2.739,0.022
			c1-1.247,3.081-0.628,4.394-1.339c-1.001-0.007-1.998-0.042-2.85,0.428c0.616-0.941,2.121-1.404,3.022-1.981
			c-0.855,0.395-4.845,2.948-5.701,3.345c0.306-0.178,4.635-4.338,4.93-4.507c-1.367,1.094-3.663,3.287-4.93,4.507
			c0.249-0.317,1.402-2.854,1.802-3.298"/>
	</g>
</g>
<g id="she">
	<g>
		<g>
			<path style="fill:#FFFFFF;stroke:#777768;stroke-width:1.1995;stroke-linecap:round;stroke-linejoin:round;" d="M203.809,47.489
				c0,6.068-3.758,10.985-8.391,10.985c-4.63,0-8.387-4.917-8.387-10.985c0-6.064,3.757-10.982,8.387-10.982
				C200.051,36.507,203.809,41.425,203.809,47.489z"/>
			<path style="fill:none;stroke:#777768;stroke-width:1.1995;stroke-linecap:round;stroke-linejoin:round;" d="M195.671,73.379
				c0.125,7.747,0.113,16.043-0.651,19.841c-1.196,5.995-3.593,3.6-2.397,11.984c1.506,10.509,5.592,19.175,4.397,24.365
				c-6.543,28.349-6.792,29.159-0.398,28.359"/>
			<path style="fill:none;stroke:#777768;stroke-width:1.1995;stroke-linecap:round;stroke-linejoin:round;" d="M195.418,58.871
				c-0.008,1.896,0.057,4.797,0.13,8.148"/>
			<path style="fill:#FFFFFF;stroke:#777768;stroke-width:1.1995;stroke-linecap:round;stroke-linejoin:round;" d="M200.424,70.266
				c0,1.872-1.521,3.399-3.395,3.399c-1.873,0-3.393-1.527-3.393-3.399c0-1.877,1.52-3.394,3.393-3.394
				C198.903,66.872,200.424,68.389,200.424,70.266z"/>
		</g>
	</g>
</g>
<g id="Layer_4" style="display:none;">
	<g style="display:inline;">
		<path style="fill:none;stroke:#777768;stroke-width:1.7135;stroke-linecap:round;stroke-linejoin:round;" d="M221.458,99.4
			c0,1.517-1.225,2.749-2.746,2.749c-1.508,0-2.746-1.232-2.746-2.749c0-1.516,1.238-2.746,2.746-2.746
			C220.233,96.654,221.458,97.884,221.458,99.4z"/>
		<path style="fill:none;stroke:#777768;stroke-width:1.7135;stroke-linecap:round;stroke-linejoin:round;" d="M231.513,16.255
			c0,8.507-5.275,15.401-11.76,15.401c-6.486,0-11.766-6.895-11.766-15.401c0-8.504,5.279-15.398,11.766-15.398
			C226.237,0.857,231.513,7.751,231.513,16.255z"/>
		<path style="fill:none;stroke:#777768;stroke-width:1.7135;stroke-linecap:round;stroke-linejoin:round;" d="M220.046,32.269
			c-0.055,10.749,1.445,42.537-0.613,52.854c-1.842,9.217-2.662,6.424-0.824,19.329c2.309,16.163-2.879,31.936-3.434,40.112
			c-2.863,42.411-3.121,41.351,6.713,40.116"/>
	</g>
</g>
</svg>
