<?xml version="1.0" encoding="iso-8859-1"?>
<!-- Generator: Adobe Illustrator 13.0.0, SVG Export Plug-In . SVG Version: 6.00 Build 14948)  -->
<!DOCTYPE svg PUBLIC "-//W3C//DTD SVG 1.1//EN" "http://www.w3.org/Graphics/SVG/1.1/DTD/svg11.dtd">
<svg version="1.1" xmlns="http://www.w3.org/2000/svg" xmlns:xlink="http://www.w3.org/1999/xlink" x="0px" y="0px" width="378px"
	 height="140px" viewBox="0 0 378 140" style="enable-background:new 0 0 378 140;" xml:space="preserve">
<g id="fond">
	<rect style="fill:none;" width="378" height="140"/>
</g>
<g id="gville_et_banlieue">
	<g>
		
			<line style="fill:none;stroke:#CCCCCC;stroke-width:0.7;stroke-linecap:round;stroke-linejoin:round;" x1="173.693" y1="121.148" x2="183.214" y2="121.148"/>
		
			<line style="fill:none;stroke:#CCCCCC;stroke-width:0.7;stroke-linecap:round;stroke-linejoin:round;" x1="20.636" y1="121.148" x2="32.51" y2="121.148"/>
		
			<polyline id="grande_ville" style="fill:none;stroke:#CCCCCC;stroke-width:0.7;stroke-linecap:round;stroke-linejoin:round;" points="
			32.507,120.792 32.418,79.735 39.64,79.735 39.64,46.54 48.201,46.54 48.201,92.535 51.795,92.535 51.795,31.294 63.542,31.294 
			63.542,101.735 67.486,101.735 67.486,48.338 77.873,48.338 77.873,78.83 81.176,78.83 81.176,65.584 90.013,65.584 
			90.013,93.735 109.66,93.735 109.66,56.584 117.714,56.584 117.714,72.796 121.232,72.796 121.232,45.946 132.596,45.946 
			132.596,91.735 135.751,91.735 135.751,28.71 147.58,28.71 147.58,77.108 152.508,77.108 152.508,39.822 164.721,39.822 
			164.721,96.667 173.693,96.667 173.693,120.917 		"/>
		<g id="banlieue_2">
			<polyline style="fill:#FFFFFF;stroke:#CCCCCC;stroke-width:0.7;stroke-linecap:round;stroke-linejoin:round;" points="
				215.964,118.375 215.964,101.625 205.901,101.625 205.901,118.812 			"/>
			<polyline style="fill:#FFFFFF;stroke:#CCCCCC;stroke-width:0.7;stroke-linecap:round;stroke-linejoin:round;" points="
				219.901,119.946 219.901,85.167 229.964,85.167 229.964,120.854 			"/>
			<polyline style="fill:#FFFFFF;stroke:#CCCCCC;stroke-width:0.7;stroke-linecap:round;stroke-linejoin:round;" points="
				237.854,120.086 237.854,90.666 247.916,90.666 247.916,120.854 			"/>
			<polyline style="fill:#FFFFFF;stroke:#CCCCCC;stroke-width:0.7;stroke-linecap:round;stroke-linejoin:round;" points="
				199.776,117.237 199.776,90.312 189.714,90.312 189.714,120.231 			"/>
			<polyline style="fill:#FFFFFF;stroke:#CCCCCC;stroke-width:0.7;stroke-linecap:round;stroke-linejoin:round;" points="
				183.214,121.148 183.214,98 191.276,98 191.276,121.148 194.509,121.148 194.509,106.747 201.396,106.747 201.396,112.689 
				207.151,112.689 210.765,112.689 210.765,102.5 210.765,95.377 223.685,95.377 223.685,121.148 235.108,121.148 235.108,109.25 
				243.75,109.25 243.75,97.667 253.083,97.667 253.083,113.167 259.417,113.167 259.417,121.148 288.656,121.148 			"/>
			
				<line style="display:none;fill:#FFFFFF;stroke:#777768;stroke-width:0.7;stroke-linecap:round;stroke-linejoin:round;" x1="229.108" y1="121.148" x2="240.509" y2="121.148"/>
		</g>
	</g>
</g>
<g id="village">
	<g id="arbres_2_">
		<path style="fill:none;stroke:#65B724;stroke-width:0.7;stroke-linecap:round;stroke-linejoin:round;" d="M353.456,121.152
			c4.812,0,5.098-2.693,5.098-5.135c0-1.431-3.177-2.175-3.604-3.554c-0.525-1.694-0.216-4.229,0.631-6.874
			c1.024-3.203,2.863-5.617,3.531-9.146c0.358,2.313,2.168,4.329,3.432,6.378c0.612,0.993,0.61,4.302,0.875,5.092
			c0.617,1.837,1.601,2.248,0.637,4.28c-0.402,0.85-2.578,2.822-2.7,2.708c-1.021,0.795-0.54,3.533-0.357,4.513
			c0.203,1.091,1.55,1.737,3.489,1.737"/>
		<path style="fill:none;stroke:#65B724;stroke-width:0.7;stroke-linecap:round;stroke-linejoin:round;" d="M337.534,120.732
			c4.188,0.128,3.599-2.566,3.599-5.008c0-1.43-3.177-2.175-3.604-3.554c-0.525-1.693-0.216-4.228,0.631-6.873
			c1.024-3.203,2.863-5.618,3.531-9.146c0.358,2.312,2.168,4.328,3.432,6.378c0.612,0.993,0.61,4.302,0.875,5.091
			c0.617,1.838,1.601,2.249,0.637,4.281c-0.402,0.85-2.578,2.822-2.7,2.708c-1.021,0.795-0.54,3.532-0.357,4.513
			c0.203,1.09,1.55,1.274,3.489,1.274"/>
		<path style="fill:none;stroke:#65B724;stroke-width:0.7;stroke-linecap:round;stroke-linejoin:round;" d="M290.839,120.344
			c4.188,0.128,3.599-2.565,3.599-5.007c0-1.431-3.177-2.175-3.604-3.554c-0.525-1.694-0.216-4.228,0.631-6.874
			c1.024-3.203,2.863-5.617,3.531-9.146c0.358,2.313,2.168,4.329,3.432,6.379c0.612,0.992,0.61,4.301,0.875,5.091
			c0.617,1.837,1.601,2.248,0.637,4.28c-0.402,0.85-2.578,2.822-2.7,2.708c-1.021,0.795-0.54,3.533-0.357,4.513
			c0.203,1.091,2.253,1.601,4.192,1.601"/>
		<path style="fill:none;stroke:#65B724;stroke-width:0.7;stroke-linecap:round;stroke-linejoin:round;" d="M279.727,120.907
			c4.188,0.128,3.599-2.566,3.599-5.008c0-1.431-3.177-2.175-3.604-3.554c-0.189-0.609-0.708-2.69,0.631-6.874
			c1.024-3.202,2.863-5.617,3.531-9.145c0.358,2.312,2.168,4.328,3.432,6.378c0.612,0.992,0.61,4.302,0.875,5.091
			c0.617,1.837,1.601,2.249,0.637,4.28c-0.402,0.85-2.578,2.823-2.7,2.708c-1.021,0.796-0.54,3.533-0.357,4.514
			c0.203,1.09,1.91,1.428,3.85,1.428"/>
	</g>
	<polyline style="fill:#FFFFFF;stroke:#777768;stroke-width:1.5;stroke-linecap:round;stroke-linejoin:round;" points="
		352.917,121.148 352.917,111.417 348.25,106.75 343.5,111.5 343.5,121.148 336.583,121.148 336.583,111.75 332.083,107.334 
		323.333,107.334 318.833,111.834 318.833,121.148 311.667,121.148 311.667,110.834 305.5,105.834 299.333,111 299.333,121.148 
		296.062,121.148 296.062,115.188 292.688,111.188 288.781,115.188 288.781,121.148 	"/>
</g>
</svg>
