<?xml version="1.0" encoding="utf-8"?>
<!-- Generator: Adobe Illustrator 16.0.0, SVG Export Plug-In . SVG Version: 6.00 Build 0)  -->
<!DOCTYPE svg PUBLIC "-//W3C//DTD SVG 1.1//EN" "http://www.w3.org/Graphics/SVG/1.1/DTD/svg11.dtd">
<svg version="1.1" id="Calque_1" xmlns="http://www.w3.org/2000/svg" xmlns:xlink="http://www.w3.org/1999/xlink" x="0px" y="0px"
	 width="378px" height="140px" viewBox="0 0 378 140" enable-background="new 0 0 378 140" xml:space="preserve">
<g id="Layer_2">
	<g>
		<rect fill="none" width="378" height="140"/>
		<rect fill="#FFFFFF" width="378" height="140"/>
	</g>
</g>
<g id="Layer_3">
	<g>
		<g>
			
				<rect x="305.584" y="83.37" fill="#D5312C" stroke="#FFFFFF" stroke-width="0.6712" stroke-linecap="square" width="3.283" height="47.182"/>
			<g>
				<path fill="#D5312C" d="M279.406,82.336c0,1.029,0.834,1.864,1.863,1.864h51.903c1.029,0,1.863-0.835,1.863-1.864
					c0-1.027-0.834-1.861-1.863-1.861H281.27C280.24,80.475,279.406,81.309,279.406,82.336
					C279.406,82.336,279.406,81.309,279.406,82.336z"/>
				<path fill="none" stroke="#FFFFFF" stroke-width="1.0069" d="M279.406,82.336c0,1.029,0.834,1.864,1.863,1.864h51.903
					c1.029,0,1.863-0.835,1.863-1.864c0-1.027-0.834-1.861-1.863-1.861H281.27C280.24,80.475,279.406,81.309,279.406,82.336
					C279.406,82.336,279.406,81.309,279.406,82.336z"/>
			</g>
		</g>
		<g>
			<rect x="109.884" y="77.646" fill="#65B724" stroke="#FFFFFF" stroke-width="1.0069" width="4.014" height="53.358"/>
			<path fill="#65B724" stroke="#FFFFFF" stroke-width="1.0069" d="M123.58,80.568h-23.385v-5.848c0,0,5.546-2.56,11.393-2.56
				c5.847,0,11.992,2.56,11.992,2.56V80.568z"/>
			<rect x="104.397" y="118.354" fill="#65B724" stroke="#FFFFFF" stroke-width="0.6712" width="14.985" height="1.369"/>
		</g>
		
			<line fill="none" stroke="#65B724" stroke-width="2.5113" stroke-linecap="round" x1="11.792" y1="50.636" x2="90.561" y2="50.636"/>
		
			<line fill="none" stroke="#65B724" stroke-width="2.5113" stroke-linecap="square" x1="90.561" y1="50.636" x2="90.561" y2="68.256"/>
		
			<line fill="none" stroke="#65B724" stroke-width="2.5113" stroke-linecap="square" x1="90.561" y1="68.256" x2="83.009" y2="68.256"/>
		
			<line fill="none" stroke="#65B724" stroke-width="2.5113" stroke-linecap="square" x1="83.009" y1="68.256" x2="83.009" y2="130.342"/>
		
			<line fill="none" stroke="#65B724" stroke-width="2.5113" stroke-linecap="round" x1="83.009" y1="130.342" x2="367.725" y2="130.342"/>
		<g>
			<g>
				
					<line fill="none" stroke="#65B724" stroke-width="3.1391" stroke-linecap="round" stroke-linejoin="round" x1="263.064" y1="72.15" x2="263.064" y2="100.436"/>
				
					<line fill="none" stroke="#65B724" stroke-width="3.1391" stroke-linecap="round" stroke-linejoin="round" x1="263.064" y1="100.436" x2="291.346" y2="100.436"/>
				
					<line fill="none" stroke="#65B724" stroke-width="3.1391" stroke-linecap="round" stroke-linejoin="round" x1="291.346" y1="100.436" x2="263.035" y2="128.75"/>
				
					<line fill="none" stroke="#65B724" stroke-width="3.1391" stroke-linecap="round" stroke-linejoin="round" x1="263.035" y1="128.75" x2="279.34" y2="128.75"/>
			</g>
			<g>
				
					<line fill="none" stroke="#65B724" stroke-width="3.1391" stroke-linecap="round" stroke-linejoin="round" x1="358.148" y1="72.15" x2="358.148" y2="100.436"/>
				
					<line fill="none" stroke="#65B724" stroke-width="3.1391" stroke-linecap="round" stroke-linejoin="round" x1="358.148" y1="100.436" x2="329.869" y2="100.436"/>
				
					<line fill="none" stroke="#65B724" stroke-width="3.1391" stroke-linecap="round" stroke-linejoin="round" x1="329.869" y1="100.436" x2="358.18" y2="128.75"/>
				
					<line fill="none" stroke="#65B724" stroke-width="3.1391" stroke-linecap="round" stroke-linejoin="round" x1="358.18" y1="128.75" x2="341.871" y2="128.75"/>
			</g>
		</g>
	</g>
	<g>
		<g>
			<path fill="none" stroke="#777768" stroke-width="1.8834" stroke-linecap="round" stroke-linejoin="round" d="M165.882,20.883
				c0,6.381-3.945,11.55-8.818,11.55c-4.868,0-8.82-5.169-8.82-11.55c0-6.376,3.952-11.546,8.82-11.546
				C161.937,9.337,165.882,14.507,165.882,20.883z"/>
			<path fill="none" stroke="#777768" stroke-width="1.8834" stroke-linecap="round" stroke-linejoin="round" d="M157.33,48.106
				c0.131,8.143,0.115,16.865-0.69,20.864c-1.255,6.3-3.777,3.78-2.516,12.599c1.577,11.05,5.879,20.158,4.618,25.617
				c-6.875,29.805-7.138,30.657-0.424,29.817"/>
			<path fill="none" stroke="#777768" stroke-width="1.8834" stroke-linecap="round" stroke-linejoin="round" d="M157.064,32.855
				c-0.012,2.03,0.059,5.156,0.137,8.769"/>
			<path fill="#FFFFFF" stroke="#777768" stroke-width="1.2556" stroke-linecap="round" stroke-linejoin="round" d="M162.328,44.835
				c0,1.969-1.594,3.568-3.566,3.568c-1.973,0-3.576-1.6-3.576-3.568c0-1.973,1.603-3.571,3.576-3.571
				C160.734,41.264,162.328,42.862,162.328,44.835z"/>
		</g>
		<g>
			<path fill="none" stroke="#777768" stroke-width="1.2556" stroke-linecap="round" stroke-linejoin="round" d="M207.191,74.712
				c0,1.111,0.897,2.015,2.014,2.015c1.104,0,2.012-0.902,2.012-2.015s-0.908-2.013-2.012-2.013
				C208.09,72.699,207.191,73.602,207.191,74.712z"/>
			<path fill="none" stroke="#777768" stroke-width="1.2556" stroke-linecap="round" stroke-linejoin="round" d="M199.822,13.784
				c0,6.233,3.867,11.286,8.617,11.286c4.756,0,8.623-5.053,8.623-11.286c0-6.231-3.867-11.284-8.623-11.284
				C203.689,2.5,199.822,7.553,199.822,13.784z"/>
			<path fill="none" stroke="#777768" stroke-width="1.2556" stroke-linecap="round" stroke-linejoin="round" d="M208.227,25.519
				c0.041,7.877-1.059,31.171,0.449,38.731c1.35,6.754,1.949,4.707,0.604,14.164c-1.69,11.845,2.111,23.402,2.519,29.395
				c2.099,31.078,2.287,30.301-4.922,29.396"/>
		</g>
	</g>
	<g>
		<path fill="#65B724" d="M290.382,28.32c0,0.133-1.778,0.24-3.974,0.24h-32.744c-2.188,0-3.965-0.107-3.965-0.24V18.03
			c0-0.132,1.777-0.239,3.965-0.239h32.744c2.195,0,3.974,0.107,3.974,0.239V28.32z"/>
		<rect x="238.51" y="4.506" fill="none" stroke="#383838" stroke-width="1.0242" width="98.515" height="64"/>
		
			<text transform="matrix(1 0 0 1 250.3965 14.4033)" fill="#65B724" font-family="'MyriadPro-Regular'" font-size="7.1717" letter-spacing="18">  </text>
		
			<text transform="matrix(1 0 0 1 250.3965 14.4033)" fill="none" stroke="#FF9934" stroke-width="0.5" font-family="'MyriadPro-Regular'" font-size="7.1717" letter-spacing="18">  </text>
		<text transform="matrix(1 0 0 1 293.4277 14.4033)" fill="#65B724" font-family="'MyriadPro-Regular'" font-size="7.1717">   </text>
		
			<text transform="matrix(1 0 0 1 293.4277 14.4033)" fill="none" stroke="#FF9934" stroke-width="0.5" font-family="'MyriadPro-Regular'" font-size="7.1717">   </text>
		<text transform="matrix(1 0 0 1 297.9883 14.4033)" fill="#65B724" font-family="'MyriadPro-Regular'" font-size="7.1717">  01  02  03</text>
		<text transform="matrix(1 0 0 1 297.9883 14.4033)" fill="#65B724" font-family="'MyriadPro-Regular'" font-size="7.1717">  01  02  03</text>
		<text transform="matrix(1 0 0 1 250.3965 25.9971)" fill="#65B724" font-family="'MyriadPro-Regular'" font-size="7.1717">04</text>
		<text transform="matrix(1 0 0 1 250.3965 25.9971)" fill="#FFFFFF" font-family="'MyriadPro-Regular'" font-size="7.1717">04</text>
		<text transform="matrix(1 0 0 1 257.7539 25.9971)" fill="#65B724" font-family="'MyriadPro-Regular'" font-size="7.1717">  </text>
		
			<text transform="matrix(1 0 0 1 257.7539 25.9971)" fill="none" stroke="#65B724" stroke-width="0.5" font-family="'MyriadPro-Regular'" font-size="7.1717">  </text>
		<text transform="matrix(1 0 0 1 260.7949 25.9971)" fill="#65B724" font-family="'MyriadPro-Regular'" font-size="7.1717">05</text>
		<text transform="matrix(1 0 0 1 260.7949 25.9971)" fill="#FFFFFF" font-family="'MyriadPro-Regular'" font-size="7.1717">05</text>
		<text transform="matrix(1 0 0 1 268.1533 25.9971)" fill="#65B724" font-family="'MyriadPro-Regular'" font-size="7.1717">  </text>
		
			<text transform="matrix(1 0 0 1 268.1533 25.9971)" fill="#FFFFFF" stroke="#65B724" stroke-width="0.5" font-family="'MyriadPro-Regular'" font-size="7.1717">  </text>
		<text transform="matrix(1 0 0 1 271.1934 25.9971)" fill="#65B724" font-family="'MyriadPro-Regular'" font-size="7.1717">06  07</text>
		<text transform="matrix(1 0 0 1 271.1934 25.9971)" fill="#FFFFFF" font-family="'MyriadPro-Regular'" font-size="7.1717">06  07</text>
		<text transform="matrix(1 0 0 1 288.9512 25.9971)" fill="#65B724" font-family="'MyriadPro-Regular'" font-size="7.1717">  08  09  10</text>
		<text transform="matrix(1 0 0 1 288.9512 25.9971)" fill="#65B724" font-family="'MyriadPro-Regular'" font-size="7.1717">  08  09  10</text>
		<text transform="matrix(1 0 0 1 250.3965 37.623)" fill="#65B724" font-family="'MyriadPro-Regular'" font-size="7.1981">11</text>
		<text transform="matrix(1 0 0 1 257.7812 37.623)" fill="#65B724" font-family="'MyriadPro-Regular'" font-size="7.1717">  12  13  14  15  16  17</text>
		<text transform="matrix(1 0 0 1 257.7812 37.623)" fill="#65B724" font-family="'MyriadPro-Regular'" font-size="7.1717">  12  13  14  15  16  17</text>
		<text transform="matrix(1 0 0 1 250.3965 49.249)" fill="#65B724" font-family="'MyriadPro-Regular'" font-size="7.1981">18</text>
		<text transform="matrix(1 0 0 1 257.7812 49.249)" fill="#65B724" font-family="'MyriadPro-Regular'" font-size="7.1717"> 19  20  21  22  23  24</text>
		<text transform="matrix(1 0 0 1 257.7812 49.249)" fill="#65B724" font-family="'MyriadPro-Regular'" font-size="7.1717"> 19  20  21  22  23  24</text>
		<text transform="matrix(1 0 0 1 250.3965 60.875)" fill="#65B724" font-family="'MyriadPro-Regular'" font-size="7.1981">25 </text>
		<text transform="matrix(1 0 0 1 259.3076 60.875)" fill="#65B724" font-family="'MyriadPro-Regular'" font-size="7.1717"> 26  27  28  29  30  31</text>
		<text transform="matrix(1 0 0 1 259.3076 60.875)" fill="#65B724" font-family="'MyriadPro-Regular'" font-size="7.1717"> 26  27  28  29  30  31</text>
	</g>
</g>
</svg>
