<?xml version="1.0" encoding="iso-8859-1"?>
<!-- Generator: Adobe Illustrator 13.0.0, SVG Export Plug-In . SVG Version: 6.00 Build 14948)  -->
<!DOCTYPE svg PUBLIC "-//W3C//DTD SVG 1.1//EN" "http://www.w3.org/Graphics/SVG/1.1/DTD/svg11.dtd">
<svg version="1.1" xmlns="http://www.w3.org/2000/svg" xmlns:xlink="http://www.w3.org/1999/xlink" x="0px" y="0px" width="540px"
	 height="200px" viewBox="0 0 540 200" style="enable-background:new 0 0 540 200;" xml:space="preserve">
<g id="Layer_2">
	<g>
		<rect style="fill:none;" width="540" height="200"/>
		<rect style="fill:#FFFFFF;" width="540" height="200"/>
	</g>
</g>
<g id="Layer_3">
	<path style="fill:none;stroke:#777768;stroke-width:1.7135;stroke-linecap:round;stroke-linejoin:round;" d="M234.963,55.063
		c5.816,1.753,7.943,28.685,14.224,28.685c5.032,0,10.238-25.114,10.467-26.973c0.282-2.297,0.266-5.193,0.591-7.86
		c0.535-4.377,3.596-10.445,3.596-10.445l-3.318,8.82c0.768-0.496,1.615-1.181,2.268-1.777c-0.278,1.084,0,2.05-0.723,3.246
		c0.699-0.782,1.875-2.086,2.628-2.748c0.309,1.727-0.445,3.402-1.841,4.725c-1.682,0.854-2.327,1.208-2.858,1.139"/>
	<path style="fill:#FFFFFF;stroke:#777768;stroke-width:2.57;stroke-linecap:round;stroke-linejoin:round;" d="M246.852,31.251
		c0,8.668-5.369,15.692-11.986,15.692c-6.614,0-11.981-7.024-11.981-15.692c0-8.664,5.367-15.688,11.981-15.688
		C241.483,15.563,246.852,22.587,246.852,31.251z"/>
	<path style="fill:none;stroke:#777768;stroke-width:2.57;stroke-linecap:round;stroke-linejoin:round;" d="M235.227,68.237
		c0.178,11.066,0.161,22.919-0.931,28.344c-1.709,8.564-5.133,5.144-3.425,17.121c2.15,15.012,7.987,27.393,6.282,34.807
		c-9.348,40.5-9.703,41.656-0.57,40.514"/>
	<path style="fill:none;stroke:#777768;stroke-width:2.57;stroke-linecap:round;stroke-linejoin:round;" d="M234.866,47.511
		c-0.012,2.709,0.081,6.854,0.185,11.641"/>
	<path style="fill:#FFFFFF;stroke:#777768;stroke-width:1.7135;stroke-linecap:round;stroke-linejoin:round;" d="M242.017,63.79
		c0,2.675-2.173,4.856-4.85,4.856c-2.676,0-4.847-2.182-4.847-4.856c0-2.682,2.171-4.849,4.847-4.849
		C239.844,58.941,242.017,61.108,242.017,63.79z"/>
	<g>
		<path style="fill:#FFFFFF;stroke:#777768;stroke-width:1.713;stroke-linecap:round;stroke-linejoin:round;" d="M303.273,104.344
			c0,1.514,1.234,2.736,2.74,2.736c1.504,0,2.734-1.223,2.734-2.736c0-1.512-1.23-2.729-2.734-2.729
			C304.508,101.615,303.273,102.832,303.273,104.344z"/>
		<path style="fill:#FFFFFF;stroke:#777768;stroke-width:1.713;stroke-linecap:round;stroke-linejoin:round;" d="M293.273,21.563
			c0,8.47,5.24,15.335,11.709,15.335c6.459,0,11.705-6.865,11.705-15.335c0-8.468-5.246-15.332-11.705-15.332
			C298.514,6.231,293.273,13.095,293.273,21.563z"/>
		<path style="fill:none;stroke:#777768;stroke-width:1.713;stroke-linecap:round;stroke-linejoin:round;" d="M304.689,37.506
			c0.051,10.704-1.445,42.351,0.607,52.624c1.838,9.175,2.654,6.396,0.814,19.243c-2.295,16.094,2.873,31.797,3.432,39.943
			c2.846,42.223,3.104,41.162-6.695,39.939"/>
	</g>
	<g>
		<path style="fill:none;stroke:#777768;stroke-linecap:round;stroke-linejoin:round;" d="M253.654,17.766
			c-2.907-4.424,4.825-6.098,3.814-0.669c-0.748,4.019-1.923,5.093-0.382,10.204"/>
		<path style="fill:none;stroke:#777768;stroke-linecap:round;stroke-linejoin:round;" d="M257.364,30.809l0.872-0.178
			c0,0-0.909-0.05-0.771,0.205"/>
	</g>
</g>
</svg>
