<?xml version="1.0" encoding="iso-8859-1"?>
<!-- Generator: Adobe Illustrator 13.0.0, SVG Export Plug-In . SVG Version: 6.00 Build 14948)  -->
<!DOCTYPE svg PUBLIC "-//W3C//DTD SVG 1.1//EN" "http://www.w3.org/Graphics/SVG/1.1/DTD/svg11.dtd">
<svg version="1.1" xmlns="http://www.w3.org/2000/svg" xmlns:xlink="http://www.w3.org/1999/xlink" x="0px" y="0px" width="378px"
	 height="140px" viewBox="0 0 378 140" style="enable-background:new 0 0 378 140;" xml:space="preserve">
<pattern  x="-81" y="170" width="538" height="200" patternUnits="userSpaceOnUse" id="New_Pattern_Swatch_3" viewBox="0 -200 538 200" style="overflow:visible;">
	<g>
		<polygon style="fill:none;" points="0,0 538,0 538,-200 0,-200 		"/>
		<polygon style="fill:#FFFFFF;" points="0,0 538,0 538,-200 0,-200 		"/>
	</g>
</pattern>
<g id="fond">
	<rect style="fill:#FFFFFF;" width="378" height="140"/>
</g>
<g id="short_de_bain">
	<polyline style="fill:#9FE5FF;stroke:#777768;stroke-width:0.6256;stroke-linecap:round;stroke-linejoin:round;" points="
		244.686,106.057 230.416,20.672 146.365,20.672 132.057,106.27 	"/>
	
		<polyline style="fill:url(#New_Pattern_Swatch_3);stroke:#777768;stroke-width:0.6256;stroke-linecap:round;stroke-linejoin:round;" points="
		185.063,106.198 188.305,70.165 188.476,70.165 191.727,106.266 	"/>
	
		<rect x="146.365" y="16" style="fill:url(#New_Pattern_Swatch_3);stroke:#777768;stroke-width:0.6256;stroke-linecap:round;stroke-linejoin:round;" width="84.279" height="4.672"/>
	<g>
		
			<line style="fill:url(#New_Pattern_Swatch_3);stroke:#777768;stroke-width:0.6256;stroke-linecap:round;stroke-linejoin:round;" x1="151.149" y1="16" x2="151.149" y2="20.672"/>
		
			<line style="fill:url(#New_Pattern_Swatch_3);stroke:#777768;stroke-width:0.6256;stroke-linecap:round;stroke-linejoin:round;" x1="148.298" y1="16" x2="148.298" y2="20.672"/>
		
			<line style="fill:url(#New_Pattern_Swatch_3);stroke:#777768;stroke-width:0.6256;stroke-linecap:round;stroke-linejoin:round;" x1="154.001" y1="16" x2="154.001" y2="20.672"/>
		
			<line style="fill:url(#New_Pattern_Swatch_3);stroke:#777768;stroke-width:0.6256;stroke-linecap:round;stroke-linejoin:round;" x1="156.853" y1="16" x2="156.853" y2="20.672"/>
		
			<line style="fill:url(#New_Pattern_Swatch_3);stroke:#777768;stroke-width:0.6256;stroke-linecap:round;stroke-linejoin:round;" x1="159.705" y1="16" x2="159.705" y2="20.672"/>
		
			<line style="fill:url(#New_Pattern_Swatch_3);stroke:#777768;stroke-width:0.6256;stroke-linecap:round;stroke-linejoin:round;" x1="162.556" y1="16" x2="162.556" y2="20.672"/>
		
			<line style="fill:url(#New_Pattern_Swatch_3);stroke:#777768;stroke-width:0.6256;stroke-linecap:round;stroke-linejoin:round;" x1="165.408" y1="16" x2="165.408" y2="20.672"/>
		
			<line style="fill:url(#New_Pattern_Swatch_3);stroke:#777768;stroke-width:0.6256;stroke-linecap:round;stroke-linejoin:round;" x1="168.259" y1="16" x2="168.259" y2="20.672"/>
		
			<line style="fill:url(#New_Pattern_Swatch_3);stroke:#777768;stroke-width:0.6256;stroke-linecap:round;stroke-linejoin:round;" x1="171.111" y1="16" x2="171.111" y2="20.672"/>
		
			<line style="fill:url(#New_Pattern_Swatch_3);stroke:#777768;stroke-width:0.6256;stroke-linecap:round;stroke-linejoin:round;" x1="173.962" y1="16" x2="173.962" y2="20.672"/>
		
			<line style="fill:url(#New_Pattern_Swatch_3);stroke:#777768;stroke-width:0.6256;stroke-linecap:round;stroke-linejoin:round;" x1="176.815" y1="16" x2="176.815" y2="20.672"/>
		
			<line style="fill:url(#New_Pattern_Swatch_3);stroke:#777768;stroke-width:0.6256;stroke-linecap:round;stroke-linejoin:round;" x1="179.667" y1="16" x2="179.667" y2="20.672"/>
		
			<line style="fill:url(#New_Pattern_Swatch_3);stroke:#777768;stroke-width:0.6256;stroke-linecap:round;stroke-linejoin:round;" x1="182.518" y1="16" x2="182.518" y2="20.672"/>
		
			<line style="fill:url(#New_Pattern_Swatch_3);stroke:#777768;stroke-width:0.6256;stroke-linecap:round;stroke-linejoin:round;" x1="185.37" y1="16" x2="185.37" y2="20.672"/>
		
			<line style="fill:url(#New_Pattern_Swatch_3);stroke:#777768;stroke-width:0.6256;stroke-linecap:round;stroke-linejoin:round;" x1="188.222" y1="16" x2="188.222" y2="20.672"/>
		
			<line style="fill:url(#New_Pattern_Swatch_3);stroke:#777768;stroke-width:0.6256;stroke-linecap:round;stroke-linejoin:round;" x1="191.074" y1="16" x2="191.074" y2="20.672"/>
		
			<line style="fill:url(#New_Pattern_Swatch_3);stroke:#777768;stroke-width:0.6256;stroke-linecap:round;stroke-linejoin:round;" x1="193.925" y1="16" x2="193.925" y2="20.672"/>
		
			<line style="fill:url(#New_Pattern_Swatch_3);stroke:#777768;stroke-width:0.6256;stroke-linecap:round;stroke-linejoin:round;" x1="196.776" y1="16" x2="196.776" y2="20.672"/>
		
			<line style="fill:url(#New_Pattern_Swatch_3);stroke:#777768;stroke-width:0.6256;stroke-linecap:round;stroke-linejoin:round;" x1="199.627" y1="16" x2="199.627" y2="20.672"/>
		
			<line style="fill:url(#New_Pattern_Swatch_3);stroke:#777768;stroke-width:0.6256;stroke-linecap:round;stroke-linejoin:round;" x1="202.479" y1="16" x2="202.479" y2="20.672"/>
		
			<line style="fill:url(#New_Pattern_Swatch_3);stroke:#777768;stroke-width:0.6256;stroke-linecap:round;stroke-linejoin:round;" x1="205.331" y1="16" x2="205.331" y2="20.672"/>
		
			<line style="fill:url(#New_Pattern_Swatch_3);stroke:#777768;stroke-width:0.6256;stroke-linecap:round;stroke-linejoin:round;" x1="208.182" y1="16" x2="208.182" y2="20.672"/>
		
			<line style="fill:url(#New_Pattern_Swatch_3);stroke:#777768;stroke-width:0.6256;stroke-linecap:round;stroke-linejoin:round;" x1="211.034" y1="16" x2="211.034" y2="20.672"/>
		
			<line style="fill:url(#New_Pattern_Swatch_3);stroke:#777768;stroke-width:0.6256;stroke-linecap:round;stroke-linejoin:round;" x1="213.886" y1="16" x2="213.886" y2="20.672"/>
		
			<line style="fill:url(#New_Pattern_Swatch_3);stroke:#777768;stroke-width:0.6256;stroke-linecap:round;stroke-linejoin:round;" x1="216.736" y1="16" x2="216.736" y2="20.672"/>
		
			<line style="fill:url(#New_Pattern_Swatch_3);stroke:#777768;stroke-width:0.6256;stroke-linecap:round;stroke-linejoin:round;" x1="219.589" y1="16" x2="219.589" y2="20.672"/>
		
			<line style="fill:url(#New_Pattern_Swatch_3);stroke:#777768;stroke-width:0.6256;stroke-linecap:round;stroke-linejoin:round;" x1="222.44" y1="16" x2="222.44" y2="20.672"/>
		
			<line style="fill:url(#New_Pattern_Swatch_3);stroke:#777768;stroke-width:0.6256;stroke-linecap:round;stroke-linejoin:round;" x1="225.292" y1="16" x2="225.292" y2="20.672"/>
		
			<line style="fill:url(#New_Pattern_Swatch_3);stroke:#777768;stroke-width:0.6256;stroke-linecap:round;stroke-linejoin:round;" x1="228.144" y1="16" x2="228.144" y2="20.672"/>
	</g>
</g>
<g id="deco_short">
	
		<polygon id="soleil" style="fill:#FFFF00;stroke:#777768;stroke-width:0.6256;stroke-linecap:round;stroke-linejoin:round;" points="
		227.697,73.401 222.397,67.26 222.336,75.423 219.581,67.753 216.616,75.343 216.778,67.18 211.312,73.169 214.368,65.618 
		207.141,69.198 212.676,63.277 204.663,63.966 211.932,60.474 204.214,58.178 212.235,57.587 205.855,52.617 213.546,55.008 
		209.366,48.034 215.686,53.083 214.271,45.046 218.366,52.071 219.908,44.06 221.228,52.112 225.515,45.206 223.877,53.198 
		230.336,48.331 225.965,55.184 233.717,53.012 227.204,57.8 235.204,58.617 227.428,60.694 234.599,64.39 226.607,63.474 
		231.979,69.551 224.852,65.766 	"/>
	<g>
		
			<ellipse style="fill:#777768;stroke:#777768;stroke-width:0.6256;stroke-linecap:round;stroke-linejoin:round;" cx="182.481" cy="54.937" rx="1.108" ry="1.558"/>
		
			<ellipse style="fill:#777768;stroke:#777768;stroke-width:0.6256;stroke-linecap:round;stroke-linejoin:round;" cx="194.887" cy="53.355" rx="1.108" ry="1.557"/>
		<path style="fill:none;stroke:#777768;stroke-width:0.6256;stroke-linecap:round;stroke-linejoin:round;" d="M194.67,52.34
			c0,0-8.013-8.306-6.137-16.439c1.876-8.133-0.311-15.228-0.311-15.228s-5.485,10.729-8.213,17.305
			c-2.728,6.575,2.387,10.21,2.387,16.44"/>
	</g>
	<path style="fill:#007AFF;stroke:#777768;stroke-width:0.6256;stroke-linecap:round;stroke-linejoin:round;" d="M191.727,106.266
		L193.932,126h54.386l-3.632-19.943l-0.488,0.216c-5.369,0-11.383-14.882-24.283-12.229c0,0,10.844,12.199-0.141,12.229
		c-9.021,0.022-11.312-14.882-24.212-12.229c0,0,12.407,12.229-3.534,12.229L191.727,106.266z"/>
	<path style="fill:#007AFF;stroke:#777768;stroke-width:0.6256;stroke-linecap:round;stroke-linejoin:round;" d="M132.057,106.27
		L128.464,126h54.386l2.213-19.802l-0.008,0.074c-15.94,0-4.403-12.229-4.403-12.229c-12.901-2.653-15.192,12.251-24.211,12.229
		c-10.984-0.029-0.142-12.229-0.142-12.229c-12.901-2.653-18.912,12.229-24.283,12.229L132.057,106.27z"/>
</g>
</svg>
