<?xml version="1.0" encoding="iso-8859-1"?>
<!-- Generator: Adobe Illustrator 13.0.0, SVG Export Plug-In . SVG Version: 6.00 Build 14948)  -->
<!DOCTYPE svg PUBLIC "-//W3C//DTD SVG 1.1//EN" "http://www.w3.org/Graphics/SVG/1.1/DTD/svg11.dtd">
<svg version="1.1" xmlns="http://www.w3.org/2000/svg" xmlns:xlink="http://www.w3.org/1999/xlink" x="0px" y="0px" width="540px"
	 height="200px" viewBox="0 0 540 200" style="enable-background:new 0 0 540 200;" xml:space="preserve">
<g id="Layer_2">
	<g>
		<rect style="fill:none;" width="540" height="200"/>
		<rect style="fill:#FFFFFF;" width="540" height="200"/>
	</g>
</g>
<g id="Layer_3">
	<g>
		<g>
			<path style="fill:none;stroke:#848484;stroke-width:2.4979;" d="M296.653,93.596c0-8.172,5.617-20.186,11.448-31.055
				c5.71-10.621,13.408-16.525,20.143-23.145"/>
			<path style="fill:none;stroke:#848484;stroke-width:2.4979;" d="M411.039,39.396c0,11.583-18.537,20.963-41.401,20.963
				c-22.857,0-41.394-9.38-41.394-20.963c0-11.587,18.536-20.975,41.394-20.975C392.502,18.421,411.039,27.809,411.039,39.396z"/>
			<path style="fill:none;stroke:#848484;stroke-width:3.7467;" d="M408.578,32.32c3.579-3.022,4.689-8.342,10.062-12.399
				c11.675-8.828,23.285-0.041,32.02,14.322c4.897,8.051,7.039,17.414,2.342,28.298c-1.57,3.623-10.766,20.441-13.292,23.624"/>
			<path style="fill:none;stroke:#848484;stroke-width:2.4979;" d="M410.601,36.506c14.188,14.836,26.738,33.132,29.88,53.814
				c2.688,17.704,2.303,39.052-7.098,54.482c-3.112,5.098-7.038,10.591-11.337,14.551c-4.273,3.953-19.201,15.929-29.137,17.443
				c-9.515,1.453-32.926,2.928-43.95,1.191c-8-1.275-18.552-8.593-22.893-12.945c-9.021-9.016-30.792-30.113-30.792-41.819"/>
			<path style="fill:none;stroke:#848484;stroke-width:2.4979;stroke-linecap:round;stroke-linejoin:round;" d="M364.741,31.491
				c-4.371,5.409,2.725,16.804,8.098,10.28C377.381,36.251,368.312,27.067,364.741,31.491"/>
			<path style="fill:none;stroke:#848484;stroke-width:2.4979;stroke-linecap:round;" d="M270.538,69.094
				c-4.827-4.83-17.696,4.142-14.605,10.706C257.963,84.105,271.832,72.636,270.538,69.094"/>
			<path style="fill:#FFFFFF;stroke:#848484;stroke-width:2.4979;stroke-linecap:round;stroke-linejoin:round;" d="M270.842,69.765
				c2.219,3.085,10.752,14.099,20.437,19.159c15.499,8.095,22.226,16.455,30.146,33.597"/>
			<path style="fill:#FFFFFF;stroke:#848484;stroke-width:2.4979;stroke-linecap:round;stroke-linejoin:round;" d="M257.748,80.733
				c7.823-1.123,19.226,19.748,22.506,24.891c10.329,16.207,24.645,25.249,39.08,37.945"/>
		</g>
		<g>
			<path style="fill:none;stroke:#848484;stroke-width:4.0056;" d="M235.577,132.084c0.563-0.197,0.38,1.295,1.338,1.912
				c1.703,1.102,4.769,1.732,6.076,1.422c4.27-0.99,6.321-3.857,6.4-7.557c0.109-4.677-3.153-7.901-6.979-7.943
				c-2.542-0.024-4.024,1.449-6.011,2.321"/>
			<path style="fill:#FFFFFF;stroke:#848484;stroke-width:1.6222;" d="M275.516,165.645c0,9.923-39.107,17.973-87.369,17.973
				c-48.246,0-87.359-8.05-87.359-17.973c0-9.925,39.113-17.969,87.359-17.969C236.409,147.676,275.516,155.72,275.516,165.645z"/>
			<path style="fill:#FFFFFF;stroke:#848484;stroke-width:1.6222;" d="M211.554,165.7c0,2.428-9.594,4.403-21.443,4.403
				c-11.851,0-21.454-1.976-21.454-4.403c0-2.447,9.604-4.42,21.454-4.42C201.96,161.28,211.554,163.253,211.554,165.7z"/>
			<path style="fill:#FFFFFF;stroke:#848484;stroke-width:1.6222;" d="M243.094,109.815c1.458,9.071-8.039,27.176-12.895,34.125
				c-9.086,13.027-12.983,16.939-27.295,21.803c-1.735,0.598-9.728,0.729-12.057,0.729c-1.932,0-12.293-0.302-13.583-0.65
				c-12.182-3.294-22.245-12.789-30.82-23.188c-5.065-6.15-16.912-23.993-12.932-33.018c3.577-3.568,37.095-9.372,57.146-9.372
				c18.4,0,59.303,5.47,51.304,10.913c-9.49,6.465-40.998,9.465-55.534,9.465c-14.717,0-57.157-6.76-52.916-11.006"/>
			<path style="fill:#FFFFE3;stroke:#848484;stroke-width:1.3351;" d="M115.742,136.464c-2.721,8.242-9.313,18.879-8.157,28.364
				c7.291-0.375,15.171,3.038,22.424,3.755c3.028,0.298,7.626,0.729,9.586-1.4c1.974-2.163,1.788-8.285,1.906-11.102
				c0.273-6.693,1.398-24.623-1.473-27.49c-3.125-3.122-8.52-3.2-16.936-4.337c-1.5,0.411-4.337,2.91-5.587,6.097
				c-0.872,2.216-1.728,6.07-1.728,6.07"/>
			<path style="fill:none;stroke:#848484;stroke-width:1.3351;stroke-linecap:round;stroke-linejoin:round;" d="M127.473,131.158
				c1.352-4.964-0.934-9.121-2.055-14.037c-1.977-8.591-18.423,10.174-26.721,13.008c-6.646,2.272-16.923,19.499-13.708,27.085
				c2.534,5.975-3.569,13.931,11.953,18.105"/>
			<path style="fill:none;stroke:#848484;stroke-width:2.6705;stroke-linecap:round;" d="M126.344,129.208
				c0.499-0.162,2.02,0.04,2.523,0.424c-0.768-0.162-1.778-0.418-2.419-0.424"/>
		</g>
	</g>
</g>
</svg>
