<?xml version="1.0" encoding="iso-8859-1"?>
<!-- Generator: Adobe Illustrator 13.0.0, SVG Export Plug-In . SVG Version: 6.00 Build 14948)  -->
<!DOCTYPE svg PUBLIC "-//W3C//DTD SVG 1.1//EN" "http://www.w3.org/Graphics/SVG/1.1/DTD/svg11.dtd">
<svg version="1.1" xmlns="http://www.w3.org/2000/svg" xmlns:xlink="http://www.w3.org/1999/xlink" x="0px" y="0px" width="378px"
	 height="140px" viewBox="0 0 378 140" style="enable-background:new 0 0 378 140;" xml:space="preserve">
<g id="Layer_2">
	<g>
		<rect style="fill:none;" width="378" height="140"/>
		<rect style="fill:#FFFFFF;" width="378" height="140"/>
	</g>
</g>
<g id="Layer_3">
	<g>
		<path style="fill:none;stroke:#FF0000;stroke-width:10;stroke-linecap:round;stroke-linejoin:round;" d="M154.649,58.022
			c-9.654,2.894-20.013-13.71-20.578-21.709c-0.769-10.886,12.352-32.484,25.645-28.277c18.788,5.946,0.661,44.35-4.102,54.631
			c-6.309,13.619-14.357,26.672-22.443,39.297c-3.871,6.043-9.426,17.609-17.266,19.695c-17.379,4.627-9.922-10.445-1.204-15.818
			c14.325-8.83,23.66-3.746,34.062,7.098c8.815,9.189,18.948,20.406,33.413,19.512c5.354-0.33,16.202-5.744,5.71-8.928"/>
	</g>
	<path style="fill:none;stroke:#FF0000;stroke-width:10;stroke-linecap:round;stroke-linejoin:round;" d="M284.161,7.5
		c-95.026,3.029-91.55,125-51.057,125c14.406,0,35.186-18.926,39.244-34.699c4.141-16.092-0.865-42.401-13.967-46.917
		c-20.802-7.169-44.411,14.777-51.733,35.012"/>
</g>
</svg>
