<?xml version="1.0" encoding="utf-8"?>
<!-- Generator: Adobe Illustrator 16.0.0, SVG Export Plug-In . SVG Version: 6.00 Build 0)  -->
<!DOCTYPE svg PUBLIC "-//W3C//DTD SVG 1.1//EN" "http://www.w3.org/Graphics/SVG/1.1/DTD/svg11.dtd">
<svg version="1.1" id="Calque_1" xmlns="http://www.w3.org/2000/svg" xmlns:xlink="http://www.w3.org/1999/xlink" x="0px" y="0px"
	 width="378px" height="140px" viewBox="0 0 378 140" enable-background="new 0 0 378 140" xml:space="preserve">
<g id="Layer_2">
	<rect x="0.371" y="-0.127" fill="#FFFFFF" width="378" height="140"/>
</g>
<g id="Layer_1">
	<g>
		<g>
			<rect x="121.87" y="2.373" fill="none" width="135" height="135"/>
			<path fill="#C8CACE" d="M256.871,125.835c0,6.372-5.166,11.537-11.538,11.537H133.41c-6.374,0-11.54-5.165-11.54-11.537V13.912
				c0-6.374,5.166-11.539,11.54-11.539h111.923c6.372,0,11.538,5.165,11.538,11.539V125.835z"/>
			<path fill="#74AC2F" d="M254.27,123.682c0,6.125-4.966,11.092-11.094,11.092H135.564c-6.127,0-11.094-4.967-11.094-11.092V16.067
				c0-6.126,4.967-11.094,11.094-11.094h107.611c6.128,0,11.094,4.967,11.094,11.094V123.682z"/>
		</g>
		<g display="none">
			<rect x="174.445" y="26.796" display="inline" fill="#74AC2F" width="29.85" height="86.155"/>
			<rect x="146.294" y="54.948" display="inline" fill="#74AC2F" width="86.154" height="29.849"/>
		</g>
	</g>
</g>
<g id="fleches">
	<g>
		<g id="FLECHE_HAUT">
			
				<line fill="none" stroke="#FFFFFF" stroke-width="4.3124" stroke-linecap="round" stroke-linejoin="round" x1="169.746" y1="39.81" x2="169.746" y2="18.632"/>
			
				<line fill="none" stroke="#FFFFFF" stroke-width="5.7499" stroke-linecap="round" stroke-linejoin="round" x1="162.382" y1="24.36" x2="169.746" y2="15.361"/>
			
				<line fill="none" stroke="#FFFFFF" stroke-width="5.7499" stroke-linecap="round" stroke-linejoin="round" x1="177.109" y1="24.36" x2="169.746" y2="15.361"/>
		</g>
		<g id="FLECHE_BAS">
			
				<line fill="none" stroke="#FFFFFF" stroke-width="4.3124" stroke-linecap="round" stroke-linejoin="round" x1="208.996" y1="15.361" x2="208.996" y2="36.539"/>
			
				<line fill="none" stroke="#FFFFFF" stroke-width="5.7499" stroke-linecap="round" stroke-linejoin="round" x1="216.359" y1="30.811" x2="208.996" y2="39.81"/>
			
				<line fill="none" stroke="#FFFFFF" stroke-width="5.7499" stroke-linecap="round" stroke-linejoin="round" x1="201.632" y1="30.811" x2="208.996" y2="39.81"/>
		</g>
		
			<rect id="CAGE" x="137.746" y="51.584" fill="none" stroke="#FFFFFF" stroke-width="4.3124" stroke-linecap="round" stroke-linejoin="round" width="103.25" height="71"/>
	</g>
</g>
<g id="PERSOS">
	<g>
		
			<rect x="201.697" y="91.084" fill="#FFFFFF" stroke="#FFFFFF" stroke-width="0.5" stroke-linecap="round" stroke-linejoin="round" width="4.574" height="25.625"/>
		
			<rect x="208.97" y="91.084" fill="#FFFFFF" stroke="#FFFFFF" stroke-width="0.5" stroke-linecap="round" stroke-linejoin="round" width="4.574" height="25.625"/>
		
			<rect id="TRONC" x="201.699" y="71.146" fill="#FFFFFF" stroke="#FFFFFF" stroke-width="0.5" stroke-linecap="round" stroke-linejoin="round" width="11.844" height="22.438"/>
		<path fill="#FFFFFF" stroke="#FFFFFF" stroke-width="0.5" stroke-linecap="round" stroke-linejoin="round" d="M207.996,70.521
			c0,0-4.639,0-7.096,0c-2.459,0-3.654,0.771-3.654,3.146s0,18.5,0,18.5h2.916c0,0,0-12.417,0-14.042s0.611-2.083,2.07-2.083
			s5.764,0,5.764,0"/>
		<path fill="#FFFFFF" stroke="#FFFFFF" stroke-width="0.5" stroke-linecap="round" stroke-linejoin="round" d="M207.246,70.521
			c0,0,4.637,0,7.096,0c2.457,0,3.654,0.771,3.654,3.146s0,18.5,0,18.5h-2.916c0,0,0-12.417,0-14.042s-0.613-2.083-2.072-2.083
			s-5.762,0-5.762,0"/>
		
			<circle id="TETE" fill="#FFFFFF" stroke="#FFFFFF" stroke-width="0.5" stroke-linecap="round" stroke-linejoin="round" cx="207.875" cy="63.459" r="4.375"/>
	</g>
	<g>
		
			<rect x="165.197" y="91.084" fill="#FFFFFF" stroke="#FFFFFF" stroke-width="0.5" stroke-linecap="round" stroke-linejoin="round" width="4.574" height="25.625"/>
		
			<rect x="172.471" y="91.084" fill="#FFFFFF" stroke="#FFFFFF" stroke-width="0.5" stroke-linecap="round" stroke-linejoin="round" width="4.574" height="25.625"/>
		
			<rect id="TRONC_1_" x="165.199" y="71.146" fill="#FFFFFF" stroke="#FFFFFF" stroke-width="0.5" stroke-linecap="round" stroke-linejoin="round" width="11.845" height="22.438"/>
		<path fill="#FFFFFF" stroke="#FFFFFF" stroke-width="0.5" stroke-linecap="round" stroke-linejoin="round" d="M171.496,70.521
			c0,0-4.639,0-7.096,0c-2.459,0-3.654,0.771-3.654,3.146s0,18.5,0,18.5h2.916c0,0,0-12.417,0-14.042s0.611-2.083,2.07-2.083
			s5.764,0,5.764,0"/>
		<path fill="#FFFFFF" stroke="#FFFFFF" stroke-width="0.5" stroke-linecap="round" stroke-linejoin="round" d="M170.746,70.521
			c0,0,4.638,0,7.096,0s3.654,0.771,3.654,3.146s0,18.5,0,18.5h-2.916c0,0,0-12.417,0-14.042s-0.612-2.083-2.071-2.083
			s-5.763,0-5.763,0"/>
		
			<circle id="TETE_1_" fill="#FFFFFF" stroke="#FFFFFF" stroke-width="0.5" stroke-linecap="round" stroke-linejoin="round" cx="171.375" cy="63.459" r="4.375"/>
	</g>
</g>
</svg>
