<?xml version="1.0" encoding="iso-8859-1"?>
<!-- Generator: Adobe Illustrator 13.0.0, SVG Export Plug-In . SVG Version: 6.00 Build 14948)  -->
<!DOCTYPE svg PUBLIC "-//W3C//DTD SVG 1.1//EN" "http://www.w3.org/Graphics/SVG/1.1/DTD/svg11.dtd">
<svg version="1.1" xmlns="http://www.w3.org/2000/svg" xmlns:xlink="http://www.w3.org/1999/xlink" x="0px" y="0px" width="540px"
	 height="200px" viewBox="0 0 540 200" style="enable-background:new 0 0 540 200;" xml:space="preserve">
<g id="Layer_2">
	<g>
		<rect style="fill:none;" width="540" height="200"/>
		<rect style="fill:#FFFFFF;" width="540" height="200"/>
	</g>
</g>
<g id="Layer_4">
	<g>
		<g>
			<path style="fill:#5B3A1E;stroke:#5B3A1E;stroke-width:1.6437;stroke-linecap:round;stroke-linejoin:round;" d="M138.531,83.777
				c3.258-1.607,1.194-7.709,0.84-10.329c-0.465-3.428,0.069-6.474,0.651-9.906c5.482,3.752,12.288,7.992,19.085,9.849
				c-1.176,3.445,1.613,10.517,2.599,13.765"/>
			<g>
				<g>
					<g>
						<path style="fill:#FFFF00;stroke:#56361C;stroke-width:1.6437;stroke-linecap:round;stroke-linejoin:round;" d="
							M153.121,80.886c-7.249,10.986,0.656,31.791,8.139,40.229c21.185,23.909,43.768,26.469,58.341,26.438
							c6.522-0.019,22.677-6.392,26.354-11.425c2.434-3.336,11.154-11.933,2.69-14.986c-3.24-1.171-12.181,1.826-15.223,2.339
							c-3.699,0.634-7.686,0.214-11.429,0.124c-11.785-0.283-25.86-4.7-35.647-12.605c-5.167-4.17-15.394-16.349-20.533-20.799
							c-3.825-3.314-7.807-10.484-13.478-8.682"/>
						<path style="fill:#56361C;stroke:#56361C;stroke-width:0.8218;stroke-linecap:round;stroke-linejoin:round;" d="
							M251.659,123.382c0.124,2.164-2.39,11.446-4.575,11.313C244.918,123.746,241.109,115.128,251.659,123.382"/>
					</g>
					<path style="fill:#FFFF00;stroke:#56361C;stroke-width:1.6437;stroke-linecap:round;stroke-linejoin:round;" d="
						M180.248,117.431c24.034,22.541,51.378,13.884,66.444,10.998"/>
				</g>
				<g>
					<path style="fill:#FFFF00;stroke:#56361C;stroke-width:1.6437;stroke-linecap:round;stroke-linejoin:round;" d="
						M144.826,82.231c-9.385,9.221-5.914,31.167-0.462,41.037c3.421,6.208,10.219,19.108,15.629,23.535
						c6.061,4.941,10.803,8.271,18.036,11.555c6.306,2.866,20.445,4.184,27.397,2.848c6.397-1.232,16.103-3.35,20.755-7.505
						c3.069-2.745,13.399-9.33,5.766-14.091c-2.926-1.816-12.296-0.759-15.378-0.895c-3.747-0.152-7.561-1.398-11.196-2.275
						c-11.466-2.738-26.442-8.026-34.359-17.81c-4.177-5.162-11.628-19.207-15.725-24.637c-3.046-4.044-5.438-11.891-11.358-11.312
						c0.558,7.606,1.782,18.704,6.89,25.007c-0.277-0.266-0.674-0.52-0.905-0.816"/>
					<path style="fill:#FFFF00;stroke:#56361C;stroke-width:1.6437;stroke-linecap:round;stroke-linejoin:round;" d="
						M170.424,134.22c3.669,2.599,5.914,6.074,10.296,7.312"/>
					<path style="fill:#56361C;stroke:#56361C;stroke-width:0.8218;stroke-linecap:round;stroke-linejoin:round;" d="
						M234.417,142.433c-0.324,2.137-2.671,9.011-4.781,8.423C228.363,148.816,225.837,132.152,234.417,142.433"/>
				</g>
				<g>
					<path style="fill:#FFFF00;stroke:#56361C;stroke-width:1.6437;stroke-linecap:round;stroke-linejoin:round;" d="
						M140.891,82.028c-11.288,6.762-13.064,28.906-10.089,39.78c1.867,6.843,3.467,12.195,7.686,17.77
						c4.724,6.232,8.558,10.584,14.813,15.475c5.458,4.265,18.89,8.857,25.962,9.198c6.511,0.305,16.446,0.528,21.935-2.416
						c3.637-1.949,15.223-5.92,8.915-12.345c-2.409-2.454-11.725-3.779-14.729-4.489c-19.562-4.589-34.178-18.852-39.569-30.22
						c-2.847-5.992-4.809-12.619-7.514-18.861c-2.013-4.646-2.501-12.835-8.389-13.662c-1.238,7.527-2.66,18.596,0.825,25.931
						c-0.205-0.325-0.533-0.666-0.689-1.008"/>
					<path style="fill:#FFFF00;stroke:#56361C;stroke-width:1.6437;stroke-linecap:round;stroke-linejoin:round;" d="
						M148.025,122.597c1.932,6.4,7.888,14.498,11.85,16.729"/>
					<path style="fill:#56361C;stroke:#56361C;stroke-width:0.8218;stroke-linecap:round;stroke-linejoin:round;" d="
						M211.858,152.813c-0.818,1.999-4.713,8.131-6.625,7.062C204.474,157.599,205.926,140.805,211.858,152.813"/>
					<path style="fill:none;stroke:#56361C;stroke-width:1.6437;stroke-linecap:round;stroke-linejoin:round;" d="M171.055,148.5
						c13.342,5.388,29.008,6.679,34.459,4.848"/>
				</g>
			</g>
		</g>
		<g>
			<path style="fill:#5B3A1E;stroke:#5B3A1E;stroke-width:1.6437;stroke-linecap:round;stroke-linejoin:round;" d="M115.393,91.695
				c3.522-0.889,2.786-7.288,2.99-9.924c0.265-3.449,1.426-6.314,2.716-9.55c4.572,4.82,10.335,10.395,16.592,13.638
				c-1.872,3.122-0.63,10.62-0.348,14.003"/>
			<g>
				<g>
					<g>
						<path style="fill:#FFFF00;stroke:#56361C;stroke-width:1.6437;stroke-linecap:round;stroke-linejoin:round;" d="
							M130.264,91.931c-9.393,9.218-6.033,31.22-0.489,41.041c15.693,27.823,37.236,35.067,51.491,38.097
							c6.38,1.352,23.513-1.487,28.166-5.636c3.08-2.752,13.41-9.327,5.776-14.089c-2.923-1.824-12.293-0.771-15.375-0.908
							c-3.75-0.157-7.561-1.405-11.2-2.278c-11.463-2.751-24.297-10.024-32.206-19.809c-4.177-5.162-11.619-19.216-15.709-24.646
							c-3.044-4.045-5.432-11.891-11.354-11.319"/>
						<path style="fill:#56361C;stroke:#56361C;stroke-width:0.8218;stroke-linecap:round;stroke-linejoin:round;" d="
							M217.684,154.166c-0.333,2.141-4.739,10.689-6.848,10.103C211.018,153.107,209.103,143.882,217.684,154.166"/>
					</g>
					<path style="fill:#FFFF00;stroke:#56361C;stroke-width:1.6437;stroke-linecap:round;stroke-linejoin:round;" d="
						M149.114,133.355c18.766,27.085,47.319,24.361,62.654,24.702"/>
				</g>
				<g>
					<path style="fill:#FFFF00;stroke:#56361C;stroke-width:1.6437;stroke-linecap:round;stroke-linejoin:round;" d="
						M121.872,91.505c-11.111,7.044-12.326,29.23-9.068,40.025c2.042,6.788,5.98,20.826,10.339,26.291
						c4.89,6.104,8.825,10.354,15.208,15.085c5.563,4.126,19.111,8.382,26.188,8.535c6.514,0.138,16.447,0.105,21.868-2.979
						c3.577-2.041,15.059-6.31,8.596-12.567c-2.479-2.39-11.862-3.323-14.848-4.103c-3.631-0.936-7.098-2.954-10.468-4.575
						c-10.636-5.084-24.168-13.399-29.856-24.627c-3-5.923-7.336-21.221-10.202-27.389c-2.129-4.594-2.821-12.768-8.73-13.443
						c-1.051,7.553-2.185,18.66,1.487,25.896c-0.215-0.319-0.55-0.65-0.714-0.988"/>
					<path style="fill:#FFFF00;stroke:#56361C;stroke-width:1.6437;stroke-linecap:round;stroke-linejoin:round;" d="
						M135.984,147.708c3.042,3.312,4.507,7.182,8.532,9.311"/>
					<path style="fill:#56361C;stroke:#56361C;stroke-width:0.8218;stroke-linecap:round;stroke-linejoin:round;" d="
						M196.827,169.173c-0.765,2.021-4.503,8.248-6.443,7.23C189.567,174.144,190.597,157.32,196.827,169.173"/>
				</g>
				<g>
					<path style="fill:#FFFF00;stroke:#56361C;stroke-width:1.6437;stroke-linecap:round;stroke-linejoin:round;" d="
						M118.067,90.479c-12.456,4.241-18.842,25.52-18.216,36.776c0.389,7.081,0.83,12.65,3.784,18.985
						c3.31,7.085,6.145,12.146,11.234,18.239c4.44,5.317,16.61,12.628,23.453,14.445c6.302,1.665,15.968,3.969,21.953,2.243
						c3.965-1.143,16.126-2.593,11.308-10.198c-1.839-2.904-10.67-6.157-13.458-7.481c-18.162-8.593-29.458-25.606-32.343-37.853
						c-1.524-6.457-2.052-13.348-3.386-20.02c-0.993-4.965,0.25-13.074-5.334-15.118c-2.791,7.1-6.505,17.622-4.638,25.525
						c-0.132-0.361-0.381-0.763-0.462-1.13"/>
					<path style="fill:#FFFF00;stroke:#56361C;stroke-width:1.6437;stroke-linecap:round;stroke-linejoin:round;" d="
						M116.526,131.642c0.545,6.663,4.667,15.831,8.073,18.844"/>
					<path style="fill:#56361C;stroke:#56361C;stroke-width:0.8218;stroke-linecap:round;stroke-linejoin:round;" d="
						M172.591,174.586c-1.218,1.782-6.314,6.96-7.959,5.514C164.367,177.714,169.314,161.599,172.591,174.586"/>
					<path style="fill:none;stroke:#56361C;stroke-width:1.6437;stroke-linecap:round;stroke-linejoin:round;" d="M133.604,161.803
						c11.913,8.068,26.96,12.62,32.673,11.975"/>
				</g>
			</g>
		</g>
	</g>
	<g>
		<path style="fill:#FEB854;stroke:#FD8D33;stroke-width:0.8218;stroke-linecap:round;stroke-linejoin:round;" d="M344.326,81.513
			c-0.91-1.723-2.537-2.946-4.07-4.07c-3.896-2.852-9.508-4.879-14.328-5.384c-1.621-0.168-4.053-0.802-5.207,0.736
			c-1.314,1.764,0.057,4.892,0.639,6.799c1.764,5.725,5.67,10.025,11.1,12.46c5.125,2.297,10.668,1.993,15.357-0.73
			c3.713-2.155,5.291-6.267,5.02-10.451c-0.338-5.269-7.402-12.191-11.736-14.104c-1.396-0.612-2.863-1.067-4.332-1.507
			c-3.348-0.993-6.518-1.355-9.738,0.108c-1.959,0.893-3.268,1.601-4.475,3.398c-0.482,0.725-1.484,2.584-0.818,3.26"/>
		<path style="fill:#FEB854;stroke:#FD8D33;stroke-width:0.8218;stroke-linecap:round;stroke-linejoin:round;" d="M397.846,81.665
			c-0.91-1.723-2.537-2.947-4.07-4.07c-3.896-2.852-9.506-4.879-14.326-5.385c-1.621-0.168-4.055-0.801-5.209,0.736
			c-1.312,1.764,0.057,4.893,0.641,6.799c1.764,5.725,5.668,10.025,11.098,12.461c5.125,2.297,10.67,1.992,15.359-0.73
			c3.713-2.156,5.291-6.268,5.02-10.451c-0.338-5.27-7.402-12.191-11.738-14.104c-1.395-0.613-2.863-1.068-4.332-1.508
			c-3.346-0.992-6.516-1.355-9.738,0.109c-1.959,0.893-3.268,1.6-4.473,3.398c-0.482,0.725-1.484,2.584-0.82,3.26"/>
		<path style="fill:#FEB854;stroke:#FD8D33;stroke-width:0.8967;stroke-linecap:round;stroke-linejoin:round;" d="M316.186,92.05
			c-0.838-2.142-2.419-3.782-3.91-5.295c-3.79-3.837-9.339-6.911-14.162-8.094c-1.622-0.396-4.038-1.439-5.267,0.234
			c-1.398,1.92-0.16,5.774,0.341,8.095c1.52,6.966,5.254,12.513,10.604,16.045c5.049,3.334,10.635,3.648,15.47,1.01
			c3.827-2.09,5.596-6.745,5.508-11.713c-0.104-6.254-6.899-15.278-11.172-18.061c-1.376-0.893-2.83-1.608-4.287-2.306
			c-3.319-1.578-6.489-2.392-9.792-1.058c-2.01,0.813-3.355,1.49-4.648,3.462c-0.517,0.796-1.606,2.866-0.969,3.745"/>
		<g>
			<path style="fill:#FE9F34;stroke:#FD8631;stroke-width:1.6437;" d="M309.273,159.674c0-12.215-10.64-22.107-23.752-22.107
				c-13.119,0-23.756,9.893-23.756,22.107c0,12.211,10.637,22.106,23.756,22.106C298.634,181.78,309.273,171.885,309.273,159.674z"
				/>
			<path style="fill:#5AB227;" d="M297.396,171.551c0-0.629-0.513-1.139-1.136-1.139c-0.631,0-1.144,0.51-1.144,1.139
				c0,0.625,0.513,1.137,1.144,1.137C296.884,172.688,297.396,172.176,297.396,171.551z"/>
		</g>
		<g>
			<path style="fill:#FE9F34;stroke:#FD8631;stroke-width:1.6437;" d="M342.938,141.253c-9.902-7.133-23.799-4.771-31.045,5.285
				c-7.251,10.055-5.096,23.988,4.801,31.121c9.896,7.138,23.799,4.77,31.045-5.287
				C354.984,162.321,352.834,148.386,342.938,141.253z"/>
			<path style="fill:#5AB227;" d="M346,157.294c-0.506-0.369-1.201-0.271-1.549,0.205c-0.348,0.482-0.211,1.17,0.295,1.541
				c0.506,0.365,1.201,0.271,1.549-0.209C346.643,158.347,346.514,157.661,346,157.294z"/>
		</g>
		<g>
			<path style="fill:#FE9F34;stroke:#FD8631;stroke-width:1.6437;" d="M394.65,159.672c0,12.216,10.639,22.108,23.75,22.108
				c13.119,0,23.756-9.893,23.756-22.108c0-12.211-10.637-22.105-23.756-22.105C405.289,137.566,394.65,147.461,394.65,159.672z"/>
			<path style="fill:#5AB227;" d="M406.525,147.795c0,0.631,0.514,1.141,1.137,1.141c0.631,0,1.143-0.51,1.143-1.141
				c0-0.625-0.512-1.137-1.143-1.137C407.039,146.658,406.525,147.17,406.525,147.795z"/>
		</g>
		<g>
			<path style="fill:#FE9F34;stroke:#FD8631;stroke-width:1.6437;" d="M360.984,177.661c9.902,7.133,23.799,4.771,31.045-5.285
				c7.252-10.055,5.096-23.987-4.801-31.122c-9.896-7.137-23.799-4.768-31.045,5.287
				C348.939,156.594,351.088,170.528,360.984,177.661z"/>
			<path style="fill:#5AB227;" d="M357.922,161.621c0.508,0.368,1.201,0.271,1.549-0.207c0.348-0.482,0.213-1.168-0.293-1.539
				c-0.508-0.365-1.203-0.271-1.551,0.209C357.279,160.566,357.41,161.252,357.922,161.621z"/>
		</g>
		<g>
			<path style="fill:#26992F;" d="M344.762,98.835c-1.871-0.048-2.168-3.21-3.174-4.624c-3.08-4.323-9.902-5.148-14.75-4.327
				c-2.963,0.505-6.814,1.862-4.93,4.315c0.129,0.168,1.572,0.852,2.031,1.355c1.09,1.18,18.785,2.677,20.494,2.712"/>
			<path style="fill:#824341;stroke:#824341;stroke-width:3.2874;" d="M345.045,99.06c-0.725-2.684,1.408-6.733,1.408-7.841
				c-0.938,0,1.832,0.277,1.277,0.828c-1.154,1.157-2.127,6.408-2.656,7.115c-0.234,0.307-0.447-1.046-0.641-0.896"/>
			<path style="fill:#88C936;" d="M345.586,99.469c0.354-5.861,12.199-4.498,15.635-3.113c4.246,1.708,8.164,5.67,8.859,10.301
				c0.924,6.104-1.184,10.266-2.057,15.247c-0.812,4.623-3.004,8.426-5.289,11.604c-2.875,3.986-9.756,8.951-11.574,9.707
				c-2.729,1.143-3.311-0.492-6.215-0.771c-3.664-0.344-2.863,1.049-6.449,1.623c-3.223,0.516-9.484-1.961-13.543-7.131
				c-6.232-7.938-9.566-18.728-7.604-28.747c0.665-3.379,2.421-8.189,5.59-10.133c2.939-1.803,7.493-1.22,10.798-1.22
				c2.139,0,3.857,0.348,5.83,0.545c1.168,0.117,4.824,1.308,5.926,1.712"/>
		</g>
		<g>
			<path style="fill:#26992F;" d="M392.504,98.926c1.873-0.048,2.168-3.21,3.174-4.624c3.082-4.323,9.902-5.148,14.75-4.327
				c2.965,0.505,6.816,1.862,4.932,4.315c-0.129,0.168-1.572,0.852-2.033,1.355c-1.09,1.18-18.785,2.677-20.492,2.712"/>
			<path style="fill:#824341;stroke:#824341;stroke-width:3.2874;" d="M392.221,99.15c0.725-2.684-1.408-6.733-1.408-7.841
				c0.938,0-1.832,0.277-1.277,0.828c1.154,1.157,2.127,6.408,2.656,7.115c0.236,0.307,0.447-1.046,0.643-0.896"/>
			<path style="fill:#88C936;" d="M391.68,99.56c-0.354-5.861-12.199-4.498-15.635-3.113c-4.246,1.708-8.164,5.669-8.859,10.3
				c-0.924,6.105,1.184,10.268,2.057,15.248c0.812,4.623,3.004,8.426,5.289,11.604c2.875,3.986,9.756,8.951,11.574,9.707
				c2.729,1.143,3.311-0.492,6.215-0.771c3.664-0.344,2.863,1.049,6.451,1.623c3.221,0.516,9.482-1.961,13.541-7.131
				c6.232-7.938,9.566-18.729,7.605-28.748c-0.666-3.379-2.42-8.188-5.59-10.132c-2.939-1.803-7.492-1.22-10.797-1.22
				c-2.139,0-3.859,0.348-5.832,0.545c-1.166,0.117-4.824,1.308-5.926,1.712"/>
		</g>
		<g>
			<g>
				<path style="fill:#E11D1A;stroke:#ED481C;stroke-width:0.4931;stroke-linecap:round;stroke-linejoin:round;" d="M375.658,64.727
					c-0.418-1.587-1.158-3.321-2.438-4.453c-1.113-0.983-3.123-1.255-4.57-1.207c-1.645,0.056-3.117,0.489-4.371,1.555
					c-2.604,2.197-4.447,8.604-4.613,9.449c-0.299,1.595-1.248,3.604,0.66,4.656c0.814,0.444,2.051,0.694,2.928,1.017
					c0.848,0.305,6.951,0.933,8.949,0.673c2.85-0.373,5.896-2.231,6.738-5.171c0.424-1.458-0.277-2.907-1.162-3.9
					c-0.842-0.942-1.471-2.117-2.285-3.11"/>
				<g>
					<path style="fill:#3A9B29;stroke:#87C71D;stroke-width:0.4931;stroke-linecap:round;stroke-linejoin:round;" d="M375.053,63.67
						c-1.318-1.853-4.812-1.646-6.768-2.062c1.189,0.282,2.221,0.968,3.346,1.455c1.066,0.462,2.285,0.603,3.293,1.065
						c-0.619,0.598-1.008,1.414-1.779,1.93c-0.842,0.564-1.926,0.656-2.834,0.948c1.262,1.281,5.508-0.142,5.318-1.927
						c0.314,0.537,0.148,1.064,0.213,1.624c0.047,0.479,0.219,1.057,0.348,1.586c0.254,1.069,0.242,1.906-0.195,2.898
						c1.291-0.565,1.115-4.193,0.385-5.201c0.924,0.808,2.186,1.449,3.297,1.841c0.973,0.339,2.541,0.331,3.346,0.938
						c-1.061-0.472-2.35-0.942-3.428-1.529c-0.883-0.478-1.678-1.19-2.656-1.49c0.201-0.799-0.977-1.264-0.977-1.92
						c-0.008-0.659,0.553-1.361,0.447-2.042c-0.283-1.758-1.898-3.46-3.01-4.441c0.848,2.062,0.912,4.035,1.283,6.062
						c0.123-0.088-0.006-0.103-0.018-0.212"/>
					<path style="fill:#3A9B29;stroke:#87C71D;stroke-width:0.4931;stroke-linecap:round;stroke-linejoin:round;" d="
						M375.637,64.273c1.318-0.285,2.566-1.305,3.598-2.059c0.254,0.427,0.496,0.869,0.844,1.219
						c-1.25,0.083-2.928,1.373-3.836,1.897"/>
				</g>
			</g>
			<path style="fill:#FE9F34;" d="M375.277,70.573c-0.037-0.153-0.113-0.232-0.248-0.239c-0.365,0.498-0.523,0.887-0.996,1.32
				c0.748,0.533,1.143-0.833,1.09-1.346"/>
			<path style="fill:#FE9F34;" d="M367.219,62.674c-0.5,0.236-1.344,0.065-1.172,0.798c0.488,0.098,1.072-0.063,0.906-0.641"/>
			<path style="fill:#FE9F34;" d="M372.16,64.753c-0.406,0.05-1.32,0.935-0.529,0.923c0.5-0.007,0.588-0.643,0.818-0.973
				c-0.277,0.029-0.494,0.142-0.73,0.301"/>
			<path style="fill:#FE9F34;" d="M366.287,67.778c-0.453,0.194-1.137,0.133-1.1,0.763c0.365,0.056,0.752-0.149,1.078-0.395"/>
			<path style="fill:#FE9F34;" d="M369.516,71.545c-0.701,0.295-1.455,0.404-1.52,1.211c0.16-0.021,0.566-0.101,0.719-0.147
				c0.064-0.348,0.246-0.542,0.494-0.771"/>
			<path style="fill:#FE9F34;" d="M363.584,72.85c-0.336,0.239-0.713,0.307-1.061,0.169c0.488-0.483,1.078-0.26,1.596-0.596
				c-0.135,0.079-0.266,0.169-0.406,0.239"/>
			<path style="fill:#FE9F34;" d="M363.33,68.545c-0.553-0.077-1.289,0.503-1.023,1.038c0.281-0.25,0.5-0.605,0.766-0.887"/>
			<path style="fill:#FE9F34;" d="M370.541,74.352c-0.301,0.439-0.82,0.92-1.35,0.69c0.152-0.313,0.365-0.346,0.596-0.372"/>
			<path style="fill:#FE9F34;" d="M364.037,65.092c-0.412-0.285-1.055-0.079-1.031,0.486c0.365,0.044,0.637-0.139,0.807-0.474"/>
			<path style="fill:#FE9F34;" d="M370.246,60.812c-0.211-0.088-0.566-0.108-0.789-0.145c-0.029,0.098-0.094,0.298-0.094,0.415
				c0.199,0.284,0.336,0.174,0.582,0.021"/>
		</g>
		<path style="fill:#FEB854;stroke:#FD8D33;stroke-width:0.8218;stroke-linecap:round;stroke-linejoin:round;" d="M359.445,91.834
			c1.861,0.574,3.877,0.289,5.756,0c4.771-0.739,10.172-3.272,13.938-6.324c1.266-1.027,3.434-2.3,3.162-4.203
			c-0.318-2.176-3.498-3.419-5.26-4.355c-5.295-2.801-11.098-3.08-16.658-0.963c-5.248,2-8.953,6.135-10.344,11.378
			c-1.102,4.148,0.689,8.173,3.84,10.938c3.965,3.487,13.855,3.387,18.273,1.673c1.42-0.554,2.779-1.27,4.129-1.997
			c3.068-1.664,5.566-3.649,6.809-6.963c0.754-2.017,1.18-3.442,0.76-5.566c-0.17-0.854-0.777-2.877-1.725-2.884"/>
		<g>
			<path style="fill:#E11D1A;stroke:#ED481C;stroke-width:0.4931;stroke-linecap:round;stroke-linejoin:round;" d="M331.158,53.923
				c-0.193,0.804-0.699,1.389-1.027,2.11c-0.414,0.919-0.516,1.762-0.621,2.782c-0.188,1.803-0.291,4.555,1.123,5.813
				c1.748,1.56,3.555,1.849,5.82,2.292c1.756,0.346,4.91,1.354,6.67,0.729c1.453-0.521,2.822-2.679,3.752-3.755
				c0.719-0.828,0.996-1.128,0.92-2.299c-0.375-6.007-2.307-8.226-4.137-10.963c-0.553-0.827-1.473-1.372-2.439-1.718
				c-4.016-1.433-8.459,1.49-10.031,5.336"/>
			<path style="fill:#3A9B29;stroke:#87C71D;stroke-width:0.4931;stroke-linecap:round;stroke-linejoin:round;" d="M330.883,53.385
				c-0.785,0.356-1.732,0.194-2.529,0.554c-0.654,0.292-1.27,0.928-1.843,1.332c1.27-0.535,2.515-0.977,3.987-1.045
				c0.023,0.572-0.658,0.829-0.975,1.311c-0.342,0.505-0.576,1.171-0.754,1.753c-0.377,1.233-0.455,2.51-0.732,3.725
				c0.52-1.226,0.865-2.572,1.422-3.795c0.266-0.587,0.625-1.206,1.08-1.651c0.584-0.576,0.463-0.479,1.195-0.385
				c1.047,0.135,2.043,0.778,3.109,0.933c1.152,0.165,2.58-0.109,3.74-0.233c-2.307,0.996-5.092-0.44-6.764-1.91
				c0.654-0.957,2.076-1.263,3.092-1.73c1.387-0.642,2.467-0.506,3.926-0.737c-1.688-1.507-6.734-0.438-7.551,1.6
				c-0.322,0.024-0.34,0.204-0.299,0.161"/>
			<path style="fill:#FE9F34;" d="M335.26,53.52c0.582-0.207,1.506,0.104,1.83,0.59c-0.617,0.41-1.016-0.335-1.496-0.618"/>
			<path style="fill:#FE9F34;" d="M330.869,58.983c-0.203,0.877,0.191,1.897,1.248,1.542c-0.059-0.572-0.643-0.899-1.105-1.217"/>
			<path style="fill:#FE9F34;" d="M332.48,57.149c0.688,0.115,1.416,0.295,1.549,1.063c-0.709,0.109-0.797-0.672-1.32-0.974"/>
			<path style="fill:#FE9F34;" d="M340.842,52.198c0.928-0.129,1.85,0.608,1.611,1.508c-0.469-0.149-0.979-0.748-1.053-1.322
				c-0.191-0.043-0.279-0.128-0.447-0.193"/>
			<path style="fill:#FE9F34;" d="M337.676,65.711c0.471,0.421,1.605,0.726,1.895,0.038c-0.619-0.109-1.275-0.342-1.914-0.352
				c0.141,0.127,0.225,0.363,0.373,0.508"/>
			<path style="fill:#FE9F34;" d="M334.639,62.087c0.193,0.898,1.219,1.243,2.098,1.012c-0.232-0.577-1.277-1.137-1.875-1.238
				c0.025,0.155-0.049,0.141-0.111,0.218"/>
			<path style="fill:#FE9F34;" d="M338.729,58.11c0.658,0.438,1.51,0.523,1.895,1.168c-0.576,0.376-1.096-0.495-1.416-0.879"/>
			<path style="fill:#FE9F34;" d="M342.467,56.292c0.68,0.836,1.686,0.376,2.045,1.565c-0.865,0.663-1.408-0.869-1.801-1.363"/>
			<path style="fill:#FE9F34;" d="M341.662,62.978c0.639,0.552,1.887,0.268,1.701,1.498c-0.812,0.059-0.959-0.896-1.672-1.167"/>
			<path style="fill:#FE9F34;" d="M345.336,60.49c0.09,0.472-0.117,0.724-0.58,0.719c0.023-0.413,0.139-0.802,0.221-1.222
				c0.043,0.001,0.246-0.023,0.293-0.029c0.012,0.292,0.07,0.699,0.004,0.988"/>
		</g>
		<g>
			<g>
				<path style="fill:#E11D1A;stroke:#ED481C;stroke-width:0.4931;stroke-linecap:round;stroke-linejoin:round;" d="M316.762,58.952
					c1.591-0.429,3.464-0.649,5.083-0.108c1.402,0.475,2.646,2.08,3.323,3.357c0.777,1.455,1.137,2.948,0.836,4.568
					c-0.613,3.349-5.236,8.144-5.89,8.706c-1.231,1.063-2.499,2.884-4.365,1.753c-0.789-0.48-1.62-1.43-2.339-2.029
					c-0.688-0.584-4.277-5.559-5.042-7.413c-1.107-2.66-1.02-6.23,1.112-8.43c1.056-1.087,2.657-1.207,3.959-0.934
					c1.236,0.259,2.568,0.218,3.835,0.428"/>
				<g>
					<path style="fill:#3A9B29;stroke:#87C71D;stroke-width:0.4931;stroke-linecap:round;stroke-linejoin:round;" d="
						M317.987,58.952c2.262,0.219,3.823,3.346,5.159,4.834c-0.836-0.893-1.943-1.44-2.927-2.171
						c-0.938-0.695-1.661-1.676-2.568-2.327c-0.212,0.837-0.719,1.585-0.783,2.507c-0.07,1.013,0.389,2,0.595,2.931
						c-1.743-0.454-2.627-4.846-0.989-5.569c-0.619-0.003-0.995,0.403-1.509,0.627c-0.441,0.195-1.031,0.336-1.549,0.489
						c-1.055,0.315-1.772,0.742-2.415,1.614c-0.159-1.402,3.074-3.063,4.312-2.932c-1.155-0.394-2.346-1.166-3.241-1.938
						c-0.776-0.671-1.555-2.035-2.479-2.436c0.937,0.689,1.992,1.566,3.034,2.209c0.854,0.53,1.873,0.866,2.615,1.562
						c0.595-0.568,1.585,0.214,2.156-0.112c0.571-0.324,0.9-1.155,1.543-1.399c1.667-0.634,3.947-0.088,5.354,0.386
						c-2.21,0.295-3.952,1.223-5.896,1.909c0.018-0.147,0.095-0.041,0.194-0.082"/>
					<path style="fill:#3A9B29;stroke:#87C71D;stroke-width:0.4931;stroke-linecap:round;stroke-linejoin:round;" d="
						M317.175,58.747c-0.419-1.29-0.153-2.881-0.019-4.145c-0.494-0.009-0.996,0-1.473-0.126c0.555,1.128,0.271,3.225,0.271,4.271"
						/>
				</g>
			</g>
			<path style="fill:#FE9F34;" d="M311.89,62.201c0.148-0.047,0.26-0.015,0.336,0.097c-0.259,0.56-0.512,0.896-0.653,1.518
				c-0.836-0.38,0.153-1.407,0.624-1.614"/>
			<path style="fill:#FE9F34;" d="M322.753,65.244c0.053,0.553,0.618,1.195-0.101,1.414c-0.33-0.377-0.483-0.964,0.101-1.107"/>
			<path style="fill:#FE9F34;" d="M318.494,61.995c0.152,0.38-0.159,1.611-0.543,0.923c-0.235-0.434,0.266-0.832,0.437-1.193
				c0.111,0.256,0.123,0.497,0.106,0.776"/>
			<path style="fill:#FE9F34;" d="M318.794,68.596c0.065,0.489,0.454,1.054-0.105,1.338c-0.23-0.289-0.248-0.731-0.194-1.135"/>
			<path style="fill:#FE9F34;" d="M313.923,67.683c0.094,0.751,0.376,1.464-0.289,1.917c-0.064-0.15-0.194-0.539-0.23-0.694
				c0.266-0.232,0.343-0.489,0.419-0.816"/>
			<path style="fill:#FE9F34;" d="M315.749,73.471c-0.036,0.406,0.088,0.771,0.389,1.004c0.176-0.666-0.312-1.064-0.283-1.685
				c0,0.158-0.011,0.32,0,0.478"/>
			<path style="fill:#FE9F34;" d="M319.606,71.54c0.348,0.446,0.206,1.371-0.388,1.405c0.076-0.365,0.275-0.73,0.388-1.101"/>
			<path style="fill:#FE9F34;" d="M310.978,68.189c-0.229,0.479-0.39,1.172,0.077,1.514c0.194-0.288,0.111-0.486,0.029-0.701"/>
			<path style="fill:#FE9F34;" d="M322.246,69.205c0.46,0.215,0.595,0.871,0.1,1.135c-0.229-0.293-0.199-0.62,0.006-0.932"/>
			<path style="fill:#FE9F34;" d="M322.859,61.691c0.182,0.142,0.377,0.434,0.518,0.613c-0.064,0.074-0.213,0.228-0.312,0.288
				c-0.342-0.031-0.312-0.203-0.312-0.494"/>
		</g>
		<g>
			<path style="fill:#FE9F34;stroke:#FD8631;stroke-width:1.6437;" d="M319.516,119.838c0-12.215-10.639-22.107-23.751-22.107
				c-13.119,0-23.757,9.893-23.757,22.107c0,12.211,10.638,22.106,23.757,22.106C308.877,141.944,319.516,132.049,319.516,119.838z"
				/>
			<path style="fill:#5AB227;" d="M307.64,131.715c0-0.629-0.513-1.139-1.136-1.139c-0.631,0-1.144,0.51-1.144,1.139
				c0,0.625,0.513,1.137,1.144,1.137C307.127,132.852,307.64,132.34,307.64,131.715z"/>
		</g>
		<g>
			<path style="fill:#E11D1A;stroke:#ED481C;stroke-width:0.4931;stroke-linecap:round;stroke-linejoin:round;" d="M359.146,65.073
				c-0.713-0.247-1.195-0.754-1.826-1.12c-0.795-0.453-1.555-0.62-2.469-0.806c-1.619-0.331-4.105-0.663-5.371,0.506
				c-1.572,1.452-1.992,3.065-2.592,5.078c-0.473,1.563-1.662,4.338-1.25,5.988c0.342,1.365,2.186,2.797,3.074,3.731
				c0.691,0.724,0.938,1.004,2.004,1.039c5.484,0.186,7.67-1.37,10.309-2.789c0.801-0.43,1.379-1.214,1.779-2.062
				c1.648-3.517-0.613-7.801-3.965-9.565"/>
			<path style="fill:#3A9B29;stroke:#87C71D;stroke-width:0.4931;stroke-linecap:round;stroke-linejoin:round;" d="M359.652,64.869
				c-0.246-0.744-0.023-1.587-0.275-2.338c-0.207-0.624-0.73-1.237-1.049-1.793c0.377,1.201,0.664,2.367,0.6,3.711
				c-0.518-0.033-0.695-0.675-1.102-1.004c-0.43-0.354-1.012-0.622-1.525-0.834c-1.09-0.454-2.238-0.637-3.311-0.996
				c1.061,0.58,2.256,1.014,3.311,1.623c0.514,0.298,1.043,0.677,1.402,1.125c0.471,0.58,0.4,0.465,0.248,1.119
				c-0.213,0.94-0.891,1.785-1.119,2.739c-0.254,1.03-0.131,2.353-0.117,3.419c-0.703-2.182,0.848-4.586,2.332-5.969
				c0.801,0.677,0.953,1.99,1.295,2.953c0.453,1.313,0.242,2.282,0.318,3.623c1.52-1.396,0.99-6.068-0.783-6.989
				c0.006-0.289-0.16-0.324-0.123-0.286"/>
			<path style="fill:#3A9B29;stroke:#87C71D;stroke-width:0.4931;stroke-linecap:round;stroke-linejoin:round;" d="M360.059,65.279
				c0.926,0.026,1.256-0.999,1.344-1.729c0.135-1.087-0.301-1.166-1.125-1.718c0.336,0.884,0.477,2.707-0.424,2.833"/>
			<path style="fill:#FE9F34;" d="M359.146,68.828c0.141,0.545-0.225,1.355-0.689,1.608c-0.324-0.592,0.389-0.892,0.689-1.302"/>
			<path style="fill:#FE9F34;" d="M354.576,64.363c-0.779-0.257-1.738,0.007-1.51,0.999c0.531,0,0.873-0.505,1.207-0.896"/>
			<path style="fill:#FE9F34;" d="M356.102,65.986c-0.166,0.615-0.395,1.261-1.102,1.311c-0.035-0.65,0.684-0.659,1.002-1.107"/>
			<path style="fill:#FE9F34;" d="M359.854,74.007c0.035,0.855-0.713,1.629-1.508,1.331c0.182-0.415,0.766-0.819,1.289-0.84
				c0.059-0.168,0.148-0.242,0.219-0.389"/>
			<path style="fill:#FE9F34;" d="M347.879,69.944c-0.426,0.393-0.803,1.399-0.201,1.721c0.152-0.555,0.418-1.128,0.488-1.705
				c-0.129,0.113-0.354,0.17-0.494,0.291"/>
			<path style="fill:#FE9F34;" d="M351.43,67.509c-0.83,0.101-1.232,0.999-1.102,1.817c0.549-0.165,1.143-1.061,1.291-1.593
				c-0.143,0.012-0.125-0.06-0.189-0.121"/>
			<path style="fill:#FE9F34;" d="M354.682,71.57c-0.459,0.56-0.613,1.325-1.225,1.617c-0.289-0.554,0.541-0.951,0.918-1.211"/>
			<path style="fill:#FE9F34;" d="M356.002,75.126c-0.82,0.541-0.49,1.495-1.604,1.717c-0.523-0.849,0.914-1.205,1.396-1.518"/>
			<path style="fill:#FE9F34;" d="M350.01,73.806c-0.559,0.527-0.406,1.688-1.514,1.411c0.018-0.742,0.896-0.792,1.207-1.411"/>
			<path style="fill:#FE9F34;" d="M348.184,77.255c0.047,0.015-0.424,0.023-0.217-0.006c0.217,0.266,0.193,0.392,0.322,0.686
				c-0.07-0.368-0.211-0.686-0.518-0.896c-0.324,0.406-0.012,0.672,0.412,0.725"/>
			<path style="fill:#FE9F34;" d="M351.936,77.357c-0.43,0.038-0.646-0.17-0.594-0.592c0.371,0.057,0.713,0.194,1.084,0.307
				c-0.006,0.038,0,0.23,0.006,0.271c-0.271-0.019-0.643,0.002-0.902-0.089"/>
		</g>
		<path style="fill:#3A9B29;stroke:#87C71D;stroke-width:0.4931;stroke-linecap:round;stroke-linejoin:round;" d="M331.043,53.886
			c-1.021-1.598,0.977-4.692,2.496-4.981c-0.975,0.537-2.205,2.42-1.773,3.495"/>
	</g>
	<g>
		<path style="fill:#9CD239;stroke:#179232;stroke-width:0.7642;stroke-linecap:round;stroke-linejoin:round;" d="M244.346,88.874
			c-0.707-0.627-1.082-1.378-2.013-1.756c-0.734-0.298-1.812-0.288-2.62-0.351c-1.749-0.142-3.842,0.03-5.512,0.395
			c-3.307,0.724-6.09,4.036-8.248,6.356c-0.946,1.025-1.728,1.854-2.337,3.212c1.619-0.679,3.426-1.955,5.22-2.402
			c1.331-0.327,2.715-0.22,4.052-0.57c1.22-0.319,2.188-0.777,3.476-0.837c2.23-0.114,4.009,0.313,5.974,1.344
			c1.36,0.712,3.563,2.544,3.546-0.128c0-0.316-0.085-0.628-0.186-0.924"/>
		<path style="fill:#9CD239;stroke:#179232;stroke-width:0.7642;stroke-linecap:round;stroke-linejoin:round;" d="M265.586,98.369
			c-1.721-0.144-2.986-0.413-4.545,0.457c-0.983,0.537-2.012,1.271-2.792,2.125c-0.563-0.886-1.584-1.754-2.502-2.11
			c-0.96-0.375-2.255-0.166-2.735-1.226c0.497-0.73,2.037-0.984,2.915-1.259c1.143-0.355,2.025-0.94,3.16-0.829
			c1.936,0.184,5.776,0.583,6.218,2.929"/>
		<g>
			<path style="fill:#F0C33D;stroke:#7D4A3D;stroke-width:0.7642;stroke-linecap:round;stroke-linejoin:round;" d="M262.19,156.801
				c2.792-5.324,3.689-8.229,3.293-14.099c-0.341-4.959,2.081-9.751,1.103-14.751c-0.456-2.292-0.812-5.117-1.579-7.318
				c-0.769-2.209-2.496-3.55-3.329-5.625c-1.171-2.926-0.925-4.213-2.979-6.818c-1.398-1.776-3.053-3.527-4.579-5.22
				c-1.388-1.531-3.097-4.017-4.714-5.179c-1.586-1.136-4.755-1.856-6.771-2.917c-5.22-2.742-8.455-3.227-13.906-1.956
				c-5.009,1.167-7.991,1.406-12.07,4.401c-3.797,2.786-7.829,4.747-11.789,7.802c-7.373,5.709-13.262,14.06-19.27,21.328
				c-3.486,4.218-2.389,7.655-2.107,12.828c0.244,4.405-2.924,10.17-1.12,14.458c3.655,8.677,12.327,14.48,20.159,19.634
				c4.12,2.71,9.025,5.26,13.699,7.175c3.893,1.599,9.903,3.278,14.156,2.166c3.645-0.948,6.19-3.042,9.711-4.224
				c3.522-1.193,6.299-2.003,9.195-5.07c5.293-5.588,10.23-10.852,14.037-18.112"/>
			<g>
				<path style="fill:#F0C33D;stroke:#7D4A3D;stroke-width:0.7642;stroke-linecap:round;stroke-linejoin:round;" d="
					M213.154,167.759c0.344,1.935,2.707,5.737,0.598,6.878c-2.012,1.084-6.276-1.485-7.493-2.941
					c1.047-1.766,0.944-3.485,2.858-4.227c1.294-0.496,2.9,0.528,4.315,0.436"/>
				<path style="fill:#F0C33D;stroke:#7D4A3D;stroke-width:0.7642;stroke-linecap:round;stroke-linejoin:round;" d="
					M241.581,171.486c2.005,2.222,2.216,5.589-0.221,7.225c-0.939,0.636-4.828,2.265-5.595,2.029
					c-1.422-0.435-2.917-4.327-2.139-6.103C235.374,170.63,239.099,172.17,241.581,171.486"/>
				<path style="fill:#F0C33D;stroke:#7D4A3D;stroke-width:0.7642;stroke-linecap:round;stroke-linejoin:round;" d="
					M234.293,154.748c2.006,1.859,3.269,8.212-0.283,8.64c-1.513,3.556-6.251-0.657-7.512-2.312
					c-0.124-2.503-2.914-8.203-0.757-9.511C227.771,150.335,234.695,150.171,234.293,154.748"/>
				<path style="fill:#F0C33D;stroke:#7D4A3D;stroke-width:0.7642;stroke-linecap:round;stroke-linejoin:round;" d="M212.03,147.267
					c1.545,1.841,3.159,4.85,1.651,6.815c-1.551,2.016-5.12,1.551-6.795-0.348c-4.202-4.747,1.547-11.417,5.95-5.345"/>
				<path style="fill:#F0C33D;stroke:#7D4A3D;stroke-width:0.7642;stroke-linecap:round;stroke-linejoin:round;" d="M223.683,166.99
					c0.894,1.003,1.356,2.132,2.075,3.249c0.12,1.156-0.308,0.68,0.526,1.668c-0.844,8.162-9.114,2.653-11.392-1.484
					c-3.561-6.474,5.951-9.037,9.074-3.977"/>
				<path style="fill:#F0C33D;stroke:#7D4A3D;stroke-width:0.7642;stroke-linecap:round;stroke-linejoin:round;" d="
					M221.759,144.687c0.746,1.954,1.403,4.137,2.172,5.739c-0.355,1.752-1.595,2.834-2.395,4.556
					c-2.237,0.127-7.985-1.158-7.158-4.326c-6.161-7.363,4.672-6.105,8.216-6.226"/>
				<path style="fill:#F0C33D;stroke:#7D4A3D;stroke-width:0.7642;stroke-linecap:round;stroke-linejoin:round;" d="
					M201.401,138.904c1.879,1.269,3.801,5.619,2.562,7.626c-2.297,3.734-6.239-0.535-7.671-2.548
					c-1.57-2.194-3.992-5.892-0.827-7.208c1.765-0.74,6.976,1.665,7.564,3.68"/>
				<path style="fill:#F0C33D;stroke:#7D4A3D;stroke-width:0.7642;stroke-linecap:round;stroke-linejoin:round;" d="
					M196.799,154.996c2.488,1.856,2.984,5.419-0.154,6.844c-2.792-0.312-5.51-3.857-5.932-6.545
					c-0.685-4.287,5.853-2.632,6.635-0.01"/>
				<path style="fill:#F0C33D;stroke:#7D4A3D;stroke-width:0.7642;stroke-linecap:round;stroke-linejoin:round;" d="
					M226.272,183.362c-0.085-1.568-1.152-2.702-0.951-4.285c-1.706-1.921-4.134-4.379-6.783-4.922
					c-3.111-0.628-5.623,0.472-5.324,3.662c0.623,6.671,9.479,5.094,13.468,6.108"/>
				<path style="fill:#F0C33D;stroke:#7D4A3D;stroke-width:0.7642;stroke-linecap:round;stroke-linejoin:round;" d="
					M229.125,164.608c7.037-0.869,6.902,8.042,3.802,9.245c-3.2,1.252-5.85-2.372-7.842-4.089
					C225.3,167.751,226.867,162.935,229.125,164.608"/>
				<path style="fill:#F0C33D;stroke:#7D4A3D;stroke-width:0.7642;stroke-linecap:round;stroke-linejoin:round;" d="
					M244.348,164.206c5.911,5.769-4.514,9.688-8.26,5.1c-4.301-5.271,4.007-9.627,8.533-4.955"/>
				<path style="fill:#F0C33D;stroke:#7D4A3D;stroke-width:0.7642;stroke-linecap:round;stroke-linejoin:round;" d="M256.77,143.83
					c0.996,4.082,2.2,7.515-2.771,8.783c-4.31,1.089-5.404-1.639-7.898-4.593c-1.643-1.946-2.2-1.807-1.081-4.417
					c0.444-1.037,2.22-3.804,3.29-4.14c3.667-1.146,7.057,2.283,8.173,4.915"/>
				<path style="fill:#F0C33D;stroke:#7D4A3D;stroke-width:0.7642;stroke-linecap:round;stroke-linejoin:round;" d="M252.22,171.827
					c-1.453-2.789-4.935-4.673-7.166-1.665c-1.874,2.533-1.05,5.352-0.324,7.82c3.426-2.144,5.138-2.359,7.217-6.297"/>
				<path style="fill:#F0C33D;stroke:#7D4A3D;stroke-width:0.7642;stroke-linecap:round;stroke-linejoin:round;" d="
					M233.064,175.751c0.509,3.722,2.809,4.495-1.674,5.665c-2.775,0.719-4.434,1.354-5.771-1.972
					c-3.069-7.676,6.163-7.415,8.153-1.053"/>
				<path style="fill:#F0C33D;stroke:#7D4A3D;stroke-width:0.7642;stroke-linecap:round;stroke-linejoin:round;" d="
					M223.059,156.192c0.865,0.68,1.381,1.258,1.965,2.136c0.14,2.252,1.708,4.509-0.484,6.272c-2.91-1.239-6.012,0.088-8.752-2.528
					c-2.438-2.332-1.538-5.834,1.119-8.009c1.805,0.54,7.255,0.857,7.107,2.979"/>
				<path style="fill:#F0C33D;stroke:#7D4A3D;stroke-width:0.7642;stroke-linecap:round;stroke-linejoin:round;" d="
					M206.105,153.238c1.102,5.187-2.134,9.283-6.656,4.826c-2.818-2.784-3.635-8.307,0.428-10.818
					c1.824,0.597,5.515,3.123,5.422,4.873"/>
				<path style="fill:#F0C33D;stroke:#7D4A3D;stroke-width:0.7642;stroke-linecap:round;stroke-linejoin:round;" d="
					M206.984,164.871c2.543,1.329,1.833,5.71-0.926,5.816c-2.124,0.082-5.158-3.573-6.13-4.962c-4.603-6.604,4.922-6.24,7.34-1.398"
					/>
				<path style="fill:#F0C33D;stroke:#7D4A3D;stroke-width:0.7642;stroke-linecap:round;stroke-linejoin:round;" d="M212.789,179.79
					c-0.022-2.974-1.719-5.506-3.861-7.274c-1.303-1.074-5.867-3.838-7.653-2.601c-2.846,1.965,1.994,5.407,3.65,6.373
					c2.953,1.721,4.821,1.875,7.748,2.391"/>
				<path style="fill:#F0C33D;stroke:#7D4A3D;stroke-width:0.7642;stroke-linecap:round;stroke-linejoin:round;" d="
					M212.534,156.958c1.54,1.563,2.73,4.579,2.417,6.856c-0.402,2.935-4.634,4.317-7.083,2.16c0.021-2.167-3.208-4.026-2.595-6.531
					c0.819-3.392,5.09-2.805,7.387-2.067"/>
				<path style="fill:#F0C33D;stroke:#7D4A3D;stroke-width:0.7642;stroke-linecap:round;stroke-linejoin:round;" d="
					M194.015,141.665c3.425,2.175,3.944,7.298,2.871,10.586c-4.98,2.387-8.468-0.476-8.712-5.617
					c-0.09-1.787-0.089-4.713,1.463-5.779c1.769-1.209,4.652-0.063,5.187,1.933"/>
				<path style="fill:#F0C33D;stroke:#7D4A3D;stroke-width:0.7642;stroke-linecap:round;stroke-linejoin:round;" d="
					M246.687,150.423c7.129,5.225-4.436,16.532-9.577,8.942c-2.037-3.01-1.736-7.415,1.012-10.094
					c4.379-4.264,6.639-0.93,10.354,1.733"/>
				<path style="fill:#F0C33D;stroke:#7D4A3D;stroke-width:0.7642;stroke-linecap:round;stroke-linejoin:round;" d="
					M222.715,134.543c1.722,1.516,0,0,0.3,2.601c0.243,2.132-0.741,2.458-1.745,3.781c-1.581,2.089-1.314,2.358-3.937,2.205
					c-1.883-0.11-3.555-0.244-4.807-2.14c-1.683-2.545-0.754-6.511,1.614-8.238c3.432-2.515,6.045,0.292,9.332,2.014"/>
				<path style="fill:#F0C33D;stroke:#7D4A3D;stroke-width:0.7642;stroke-linecap:round;stroke-linejoin:round;" d="
					M202.144,128.818c6.399,1.034-0.177,12.697-5.858,7.328c-1.605-1.517-1.857-5.246-0.423-6.865
					c2.025-2.293,5.542-1.168,7.934-0.294"/>
				<path style="fill:#F0C33D;stroke:#7D4A3D;stroke-width:0.7642;stroke-linecap:round;stroke-linejoin:round;" d="
					M186.241,135.848c0.074-0.459,0.309-0.709,0.703-0.76c5.842,2.895,0.647,12.882-3.95,8.769c-1.044-0.933-1.542-5.541-1.216-6.86
					c0.839-3.379,3.512-2.112,5.978-0.706"/>
				<path style="fill:#F0C33D;stroke:#7D4A3D;stroke-width:0.7642;stroke-linecap:round;stroke-linejoin:round;" d="
					M194.321,161.726c4.427,0.986,5.33,3.763,7.672,7.229c-1.183,3.448-6.5,0.137-8.338-1.292
					C191.581,166.053,191.368,160.625,194.321,161.726"/>
				<path style="fill:#F0C33D;stroke:#7D4A3D;stroke-width:0.7642;stroke-linecap:round;stroke-linejoin:round;" d="
					M189.005,150.298c1.757-3.06-2.603-5.454-5.029-4.11c-2.863,1.586-3.852,9.292,0.305,9.699
					C184.311,151.003,187.211,153.418,189.005,150.298z"/>
				<path style="fill:#F0C33D;stroke:#7D4A3D;stroke-width:0.7642;stroke-linecap:round;stroke-linejoin:round;" d="
					M193.262,130.444c2.75,0.481,2.354,4.93,1.46,7.058c-0.568,1.348-1.373,2.9-3.159,2.811c-1.884-0.098-1.405-1.195-2.288-2.448
					c-1.321-1.884-3.712-4.319-1.228-6.666c1.82-1.712,3.977-0.349,6.035-0.323"/>
				<path style="fill:#F0C33D;stroke:#7D4A3D;stroke-width:0.7642;stroke-linecap:round;stroke-linejoin:round;" d="
					M191.532,163.061c3.245-1.294,0.792-17.729-5.55-9.891c-2.23,2.76-1.863,4.652-0.113,7.532c0.859,1.418,4.819,6.908,6.065,2.916
					"/>
				<path style="fill:#F0C33D;stroke:#7D4A3D;stroke-width:0.7642;stroke-linecap:round;stroke-linejoin:round;" d="
					M188.915,126.075c3.564,4.259-4.52,9.709-7.256,7.311c-0.226-2.204,1.271-5.138,2.846-6.768
					c1.345,0.238,2.608,0.266,3.348-1.057C188.429,125.851,188.861,125.463,188.915,126.075"/>
				<path style="fill:#F0C33D;stroke:#7D4A3D;stroke-width:0.7642;stroke-linecap:round;stroke-linejoin:round;" d="
					M211.218,138.813c0.648,0.697,2.487,5.311,2.217,6.326c-4.152,0.365-8.999-0.016-9.482-4.985
					c-0.354-3.635,5.542-6.458,7.294-2.724"/>
				<path style="fill:#F0C33D;stroke:#7D4A3D;stroke-width:0.7642;stroke-linecap:round;stroke-linejoin:round;" d="
					M233.712,141.874c3.98,0.359,3.321,7.569,0.826,9.259c-1.995,1.348-7.695,1.001-9.715-0.304
					c-2.777-1.793-3.563-6.908-1.197-9.702C226.257,138.012,230.708,139.548,233.712,141.874"/>
				<path style="fill:#F0C33D;stroke:#7D4A3D;stroke-width:0.7642;stroke-linecap:round;stroke-linejoin:round;" d="M260.259,156.49
					c0.733-0.325,0.748-0.854,1.576-0.599c-3.57,0.777-6.22-0.568-9.532-1.42c-3.145,2.098-5.468,4.64-5.228,8.706
					c0.14,2.319-0.056,2.725,2.186,4.305c1.42,0.996,3.624,2.205,5.198,1.966c3.085-4.601,8.572-6.722,7.332-13.204"/>
				<path style="fill:#F0C33D;stroke:#7D4A3D;stroke-width:0.7642;stroke-linecap:round;stroke-linejoin:round;" d="
					M264.664,143.431c3.402,1.065-3.086,16.326-9.201,10.899c-2.186-1.938-0.337-1.898,0.621-3.168
					c1.019-1.351,1.759-2.549,2.514-4.008c0.999-1.914,4.925-4.553,6.616-3.436"/>
				<path style="fill:#F0C33D;stroke:#7D4A3D;stroke-width:0.7642;stroke-linecap:round;stroke-linejoin:round;" d="M259.14,121.329
					c1.281,3.165,1.158,17.796-5.336,11.521c-2.361-2.285-1.577-5.98,0.218-8.266c0.914-1.162,5.407-6.109,5.651-2.273"/>
				<path style="fill:#F0C33D;stroke:#7D4A3D;stroke-width:0.7642;stroke-linecap:round;stroke-linejoin:round;" d="
					M265.896,129.759c2.1,1.972-0.772,8.972-1.735,11.311c-1.447,3.489-4.196,6.92-7.229,2.94c-2.648-3.479-1.681-6.583,0.964-9.812
					c1.496-1.829,5.66-5.797,8.285-4.985"/>
				<path style="fill:#F0C33D;stroke:#7D4A3D;stroke-width:0.7642;stroke-linecap:round;stroke-linejoin:round;" d="
					M242.188,147.019c1.022-1.372,5.025-5.681,4.339-7.789c-0.306-0.95-2.006-1.002-2.915-1.598c-1.567-1.021-1.53-1.696-2.496-3.08
					c-1.672-2.394-3.246-3.809-6.222-2.128c-1.854,1.05-4.356,3.549-5.057,5.612c1.523,1.947,7.191,7.477,6.456,9.684
					C238.502,148.217,239.831,146.978,242.188,147.019"/>
				<path style="fill:#F0C33D;stroke:#7D4A3D;stroke-width:0.7642;stroke-linecap:round;stroke-linejoin:round;" d="
					M258.489,107.399c4.212,4.293,1.359,6.573,2.485,8.316c-1.676,6.013-5.459,6.037-9.529,8.956
					C249.961,117.079,254.756,113.396,258.489,107.399"/>
				<path style="fill:#F0C33D;stroke:#7D4A3D;stroke-width:0.7642;stroke-linecap:round;stroke-linejoin:round;" d="M236.987,122.29
					c0.585,1.57,1.606,2.926,2.618,4.228c-0.991,2.909-2.938,6.768-6.618,6.593c-3.265-0.15-4.731-3.755-6.003-6.552
					c-1.961-4.304-0.65-6.011,3.833-7.156c4.407-1.116,5.004-0.632,6.576,3.448"/>
				<path style="fill:#F0C33D;stroke:#7D4A3D;stroke-width:0.7642;stroke-linecap:round;stroke-linejoin:round;" d="M215.99,115.885
					c2.523,1.288-0.9,5.847-2.008,7.551c-3.013,0.391-9.029-3.823-8.593-7.315C206.064,110.624,213.38,115.388,215.99,115.885"/>
				<path style="fill:#F0C33D;stroke:#7D4A3D;stroke-width:0.7642;stroke-linecap:round;stroke-linejoin:round;" d="
					M193.475,119.387c1.23,1.292,1.708,2.763,3.316,3.544c1.229,3.16-3.275,9.237-6.083,5.06c-1.619-2.403-1.57-8.386,3.014-7.078"
					/>
				<path style="fill:#F0C33D;stroke:#7D4A3D;stroke-width:0.7642;stroke-linecap:round;stroke-linejoin:round;" d="
					M227.958,131.525c7.125,0.499,0.464,8.916-3.592,6.192c-1.595-1.072-1.8-4.159-0.569-5.579c1.483-1.706,3.212-1.063,5.127-0.457
					"/>
				<path style="fill:#F0C33D;stroke:#7D4A3D;stroke-width:0.7642;stroke-linecap:round;stroke-linejoin:round;" d="
					M225.274,112.661c4.74,4.039-2.923,14.651-7.901,6.605c-3.339-5.402,3.247-8.547,7.917-7.298"/>
				<path style="fill:#F0C33D;stroke:#7D4A3D;stroke-width:0.7642;stroke-linecap:round;stroke-linejoin:round;" d="
					M252.942,127.162c-1.505,0.37-1.441-4.182-3.079-4.775c-1.481-0.534-3.942,1.577-5.263,2.224
					c-3.468,1.691-6.163,2.324-5.473,7.093c1.079,7.44,12.382,10.454,16.349,3.83c-1.396-3.027-3.852-4.878-2.805-8.513"/>
				<path style="fill:#F0C33D;stroke:#7D4A3D;stroke-width:0.7642;stroke-linecap:round;stroke-linejoin:round;" d="M242.5,109.115
					c1.222-2.583,1.41-5.272-1.793-6.542c-2.736-1.081-4.42,1.063-5.226,3.912c-0.51,1.806-0.689,5.363,1.699,6.124
					c2.133,0.686,4.558-2.807,6.301-4.027"/>
				<path style="fill:#F0C33D;stroke:#7D4A3D;stroke-width:0.7642;stroke-linecap:round;stroke-linejoin:round;" d="M264.03,118.656
					c2.178,2.675,0.291,7.688,0.379,10.671c-1.676,0.441-3.261,1.442-4.657,1.986c0.718-3.628-1.538-14.526,4.619-12.074
					c-0.099,0.343-0.08,0.601-0.088,0.947"/>
				<path style="fill:#F0C33D;stroke:#7D4A3D;stroke-width:0.7642;stroke-linecap:round;stroke-linejoin:round;" d="
					M249.604,113.539c1.384,2.6-1.199,7.791-3.49,9.344c-1.019,0.688-3.893,1.95-4.99,1.66c-1.627-0.436-2.034-2.353-3.072-3.502
					c-0.525-3.475-0.143-7.403,3.117-9.558c3.106-2.05,6.012,0.989,9.113,2.76"/>
				<path style="fill:#F0C33D;stroke:#7D4A3D;stroke-width:0.7642;stroke-linecap:round;stroke-linejoin:round;" d="
					M225.347,101.873c0.959,2.177,2.137,6.029,0.165,7.859c-1.385,1.28-5.697,0.842-6.877-0.268
					c-0.357-1.62-1.367-5.911-0.344-7.453c2.052-3.123,5.762-1.112,7.732,0.564"/>
				<path style="fill:#F0C33D;stroke:#7D4A3D;stroke-width:0.7642;stroke-linecap:round;stroke-linejoin:round;" d="
					M224.244,123.292c6.47,3.609-1.986,11.711-7.769,6.839c-2.472-2.082-4.123-5.531-1.272-7.745
					c2.217-1.712,5.807-0.72,8.218,0.476"/>
				<path style="fill:#F0C33D;stroke:#7D4A3D;stroke-width:0.7642;stroke-linecap:round;stroke-linejoin:round;" d="
					M206.978,119.504C206.978,119.504,206.706,119.323,206.978,119.504c-0.079,1.278,0.326,2.237,1.314,2.811
					c-1.492,4.437-10.537,6.491-10.755,0.625c-0.177-4.862,7.298-9.279,9.363-3.854"/>
				<path style="fill:#F0C33D;stroke:#7D4A3D;stroke-width:0.7642;stroke-linecap:round;stroke-linejoin:round;" d="
					M234.961,112.849c1.122,0.003,2.177,0.038,3.246,0.355c-0.037,3.257-4.587,4.759-7.329,4.922
					c-3.846,0.23-4.139-2.162-4.149-5.756c-0.006-2.79,0.62-7.439,4.381-6.873c4.35,0.657,2.439,5.718,5.503,7.52"/>
				<path style="fill:#F0C33D;stroke:#7D4A3D;stroke-width:0.7642;stroke-linecap:round;stroke-linejoin:round;" d="M212.737,124.59
					c1.922,0.86,1.466,4.073,3.016,5.479c-2.273,4.854-6.378,7.499-9.17,2.124c-1.209-2.326-2.179-4.63,0.198-6.887
					c2.172-2.068,4.205-0.72,6.52-1.115"/>
				<path style="fill:#F0C33D;stroke:#7D4A3D;stroke-width:0.7642;stroke-linecap:round;stroke-linejoin:round;" d="M197.17,114.336
					c0.751,1.651,2.406,2.74,4.166,2.568c-1.223,3.062-6.508,2.917-8.958,1.864c0.494-3.559,2.21-3.86,5.337-4.146"/>
				<path style="fill:#F0C33D;stroke:#7D4A3D;stroke-width:0.7642;stroke-linecap:round;stroke-linejoin:round;" d="M217.65,99.236
					c-0.209,2.674-1.205,5.727-2.528,8.038c-3.335-0.356-7.241-3.908-5.236-7.219c1.358-2.223,9.225-4.305,7.479-0.272"/>
				<path style="fill:#F0C33D;stroke:#7D4A3D;stroke-width:0.7642;stroke-linecap:round;stroke-linejoin:round;" d="
					M204.224,106.861c0.28,1.806,2.447,3.241,2.278,5.018c-0.161,1.709-2.354,3.378-3.452,4.433
					c-4.016,0.132-5.678-3.381-4.057-6.684c0.861-1.751,6.907-7.353,6.058-2.333"/>
				<path style="fill:#F0C33D;stroke:#7D4A3D;stroke-width:0.7642;stroke-linecap:round;stroke-linejoin:round;" d="
					M234.094,107.158c5.032-1.662,4.875-8.984,0.139-10.769c-4.384-1.655-8.174,4.536-7.753,8.108
					c1.768,2.103,4.892,0.339,7.357,1.826"/>
				<path style="fill:#F0C33D;stroke:#7D4A3D;stroke-width:0.7642;stroke-linecap:round;stroke-linejoin:round;" d="
					M215.706,106.945c5.431,1.859,2,7.312-2.24,7.656c-1.717,0.14-4.857-1.013-5.614-2.668c-1.064-2.359,1.01-4.117,2.359-5.714
					c1.873,0.525,4.508,2.009,6.315,1.155"/>
				<path style="fill:#F0C33D;stroke:#7D4A3D;stroke-width:0.7642;stroke-linecap:round;stroke-linejoin:round;" d="M250.25,101.656
					c0.049,1.059-8.161,5-4.083,9.113c1.188,1.188,3.505,1.513,4.301,2.95c0.619,1.136-0.645,4.392,1.206,4.072
					c2.26-0.395,2.265-8.656,2.459-10.26C254.419,105.266,254.505,99.48,250.25,101.656"/>
				<path style="fill:#F0C33D;stroke:#7D4A3D;stroke-width:0.7642;stroke-linecap:round;stroke-linejoin:round;" d="M238.64,93.828
					c-1.148,3.592-5.332,1.584-7.558,2.393c-0.987,0.36-5.199,5.526-6.322,2.573c-1.069-2.813,4.684-4.987,6.163-5.523
					c3.515-1.269,3.976-0.835,7.461-0.277"/>
				<path style="fill:#F0C33D;stroke:#7D4A3D;stroke-width:0.7642;stroke-linecap:round;stroke-linejoin:round;" d="M208.593,102.52
					c1.5-1.165,1.076,6.096-1.178,6.31c-2.851,0.267-0.908-5.729,0.764-6.182"/>
				<path style="fill:#F0C33D;stroke:#7D4A3D;stroke-width:0.7642;stroke-linecap:round;stroke-linejoin:round;" d="M243.44,95.993
					c5.115,1.746,4.007,10.152-1.923,7.021c-1.854-0.975-3.859-2.628-4.199-4.652c-0.435-2.623,1.07-2.558,2.856-4.021
					c1.404,0.232,2.627,0.981,3.961,1.667"/>
				<path style="fill:#F0C33D;stroke:#7D4A3D;stroke-width:0.7642;stroke-linecap:round;stroke-linejoin:round;" d="M223.258,95.193
					c0.91-0.384,1.589-0.426,2.427-0.091c-0.687,1.905-1.015,4.145-3.305,4.451c-2.333,0.307-4.096-1.815-4.733-3.523
					c1.065-2.761,5.133-0.407,7.126-0.394"/>
			</g>
		</g>
		<g>
			<path style="fill:#9CD239;stroke:#179232;stroke-width:0.7642;stroke-linecap:round;stroke-linejoin:round;" d="M254.202,64.522
				c-0.524-2.122,0.144-4.668-0.077-6.891c-0.352-3.482-0.91-6.85-1.818-10.225c-1.254-4.685-2.501-9.21-4.689-13.571
				c-1.867-3.742-5.04-8.893-8.98-10.64c0.395,3.125,1.739,6.463,2.482,9.569c1.502,6.262,2.936,12.682,3.058,19.129
				c0.053,2.706-0.447,5.296-0.532,7.974c-0.077,2.29-0.222,4.725-0.828,6.938c-0.594,2.168-1.491,4.303-2.44,6.321
				c-0.431,0.917-1.235,2.017-1.387,2.912c8.907,8.543,14.078-6.059,14.204-6.245"/>
			<path style="fill:#9CD239;stroke:#179232;stroke-width:0.7642;stroke-linecap:round;stroke-linejoin:round;" d="M246.634,41.759
				c4.391,14.071,2.64,29.691,1.243,34.58c0.138,0.252,0.075-0.065,0.051-0.176"/>
			<path style="fill:#9CD239;stroke:#179232;stroke-width:0.7642;stroke-linecap:round;stroke-linejoin:round;" d="M305.851,40.229
				c-7.408,2.314-10.875,3.711-16.206,7.096c-5.188,3.299-10.676,7.771-13.542,13.241c-2.067,3.94-5.151,7.831-8.512,10.802
				c-2.676,2.365-5.958,3.89-8.794,6.326c-0.753,0.647-1.459,1.343-2.083,2.069c1.306-3.589,2.212-7.34,3.716-10.874
				c1.096-2.58,2.186-5.15,1.895-8.008c-0.251-2.457-0.697-3.736,1.191-5.602c1.623-1.604,3.683-2.9,5.414-4.379
				c7.578-6.479,16.252-12.195,26.081-11.907C298.666,39.1,302.413,39.469,305.851,40.229"/>
			<path style="fill:none;stroke:#179232;stroke-width:0.7642;stroke-linecap:round;stroke-linejoin:round;" d="M305.954,40.439
				c-5.863,1.342-12.64,2.638-18.247,5.371c-3.193,1.554-6.053,3.2-8.979,5.251c-3.178,2.226-15.113,16.963-21.254,28.678"/>
			<path style="fill:#9CD239;stroke:#179232;stroke-width:0.7642;stroke-linecap:round;stroke-linejoin:round;" d="M254.215,85.001
				c0.971-3.185,6.546-12.18,7.74-15.606c1.551-4.43,2.279-8.6,2.253-13.309c-0.044-6.104-0.025-11.426-1.907-17.37
				c-1.326-4.179-3.307-7.904-5.668-11.493c-1.993-3.024-4.292-5.638-6.263-8.426c-0.244,1.985,1.156,4.319,1.6,6.276
				c0.611,2.671,1.267,5.334,1.569,8.055c0.356,3.234,0.621,6.41,0.231,9.639c-0.332,2.788-2.504,25.032-5.155,32.879
				c-2.333,6.937-1.96,10.436-2.226,11.472"/>
			<path style="fill:#9CD239;stroke:#179232;stroke-width:0.7642;stroke-linecap:round;stroke-linejoin:round;" d="M266.888,82.682
				c6.204-11.066,20.26-16.052,32.222-16.884c-1.621-4-7.702-6.012-11.498-5.666c-18.38,1.688-28.615,14.519-30.939,17.444
				c-1.773,2.237-7.115,11.659-7.318,14.333"/>
			<path style="fill:none;stroke:#179232;stroke-width:0.7642;stroke-linecap:round;stroke-linejoin:round;" d="M258.41,51.361
				c-1.319,5.681-1.541,11.263-3.146,16.822c-0.796,2.761-1.53,5.525-2.071,8.318c-0.514,2.636-1.211,6.507-2.823,8.724"/>
		</g>
		<path style="fill:#9CD239;stroke:#179232;stroke-width:0.7642;stroke-linecap:round;stroke-linejoin:round;" d="M290.779,91.599
			c1.947-1.702-2.371-8.641-4.061-9.691c-6.892-4.276-12.746-3.384-15.719-2.265c-2.806,1.049-5.282,2.668-7.676,4.419
			c-2.271,1.66-4.723,2.723-7.271,3.751c-2.677,1.069-4.225,2.994-5.672,5.445c-0.887,1.508-0.978,2.158,0.064,3.556
			c0.604,0.806,0.325,0.639,1.495,0.843c1.093,0.188,2.479-1.027,3.56-1.289c1.653-0.403,6.167-1.314,7.738-1.835
			c2.631-0.877,5.184,1.688,5.686,0.148c0.903-2.772,5.035-5.812,7.466-7.291c2.779-1.687,5.48-1.693,8.42-0.499
			C285.785,87.288,292.836,90.481,290.779,91.599"/>
		<path style="fill:#9CD239;stroke:#179232;stroke-width:0.7642;stroke-linecap:round;stroke-linejoin:round;" d="M250.776,82.235
			c-9.079-12.894-16.852-7.156-15.448-7.373c5.317-0.829,5.601,8.185,6.704,11.714c1.099,3.527,2.562,10.885,3.975,11.746
			c1.636-1.703,4.574-0.006,6.524-0.354c-0.285-9.194-0.069-18.803-7.516-25.59c-8.434-7.684-21.615-1.695-21.354,9.41
			c0.05,2.051,0.05,4.721,0.657,6.591c3.066-5.012,7.458-13.634,13.855-14.445c3.261-0.414,6.036,1.333,8.252,3.733
			c1.238,1.341,4.351,4.568,4.712,6.301"/>
		<path style="fill:#9CD239;stroke:#179232;stroke-width:0.7642;stroke-linecap:round;stroke-linejoin:round;" d="M252.531,97.968
			c1.845-2.3,9.403-2.911,11.838-0.78c2.518,2.208,7.132,9.371,6.384,12.668c2.422-4.16,3.327-12.67-1.83-15.175
			c-2.039-0.993-5.788-0.098-7.77,0.191c-1.476,0.219-2.752,0.732-4.118,1.187"/>
		<path style="fill:#9CD239;stroke:#179232;stroke-width:0.7642;stroke-linecap:round;stroke-linejoin:round;" d="M246.49,97.941
			c-0.015,0.387,12.673-1.287,12.605,5.986c-0.045,4.622-5.725,10.325-8.74,12.85C251.752,110.925,252.693,101.758,246.49,97.941"/>
		<path style="fill:none;stroke:#179232;stroke-width:0.7642;stroke-linecap:round;stroke-linejoin:round;" d="M291.293,90.288
			c-1.648-1.792-2.942-3.769-5.412-4.774c-2.159-0.879-4.957-2.022-7.332-2.043c-2.476-0.014-6.122,0.948-8.471,2.018
			c-2.788,1.268-5.287,2.915-8.046,4.223c-3.515,1.668-7.478,4.556-9.707,7.204"/>
	</g>
</g>
</svg>
