<?xml version="1.0" encoding="iso-8859-1"?>
<!-- Generator: Adobe Illustrator 13.0.0, SVG Export Plug-In . SVG Version: 6.00 Build 14948)  -->
<!DOCTYPE svg PUBLIC "-//W3C//DTD SVG 1.1//EN" "http://www.w3.org/Graphics/SVG/1.1/DTD/svg11.dtd">
<svg version="1.1" xmlns="http://www.w3.org/2000/svg" xmlns:xlink="http://www.w3.org/1999/xlink" x="0px" y="0px" width="378px"
	 height="140px" viewBox="0 0 378 140" style="enable-background:new 0 0 378 140;" xml:space="preserve">
<g id="Layer_2">
	<g>
		<rect style="fill:none;" width="378" height="140"/>
		<rect style="fill:#FFFFFF;" width="378" height="140"/>
	</g>
</g>
<g id="Layer_3">
	<g>
		<g>
			<rect x="121.501" y="2.5" style="fill:none;" width="134.999" height="135"/>
			<path style="fill:#406FA9;" d="M256.5,125.963c0,6.373-5.166,11.537-11.537,11.537H133.039c-6.373,0-11.537-5.164-11.537-11.537
				V14.039c0-6.373,5.164-11.539,11.537-11.539h111.924c6.371,0,11.537,5.166,11.537,11.539V125.963z"/>
			<path style="fill:none;stroke:#FFFFFF;stroke-width:4.0703;" d="M251.016,121.418c0,5.854-4.746,10.6-10.6,10.6H137.585
				c-5.855,0-10.602-4.746-10.602-10.6V18.586c0-5.854,4.746-10.6,10.602-10.6h102.831c5.854,0,10.6,4.746,10.6,10.6V121.418z"/>
		</g>
		<path style="fill:#FFFFFF;" d="M189.201,125.861c-6.264-0.01-10.828-0.059-16.902-0.059c-0.262-5.297,0.07-45.863-0.084-51.264
			c-0.109-3.861-4.246-3.861-4.246,0.477c0,7.965-0.047,28.875-0.191,35.521c-0.098,4.426-1.705,8.168-6.004,8.168
			c-4.529,0-6.037-3.564-6.037-8.232c0-5.219-0.299-45.607-0.299-48.172c0-5.986,2.732-10.643,8.379-10.643
			c2.236,0,13.691,0,25.182,0c11.495,0,22.948,0,25.186,0c5.648,0,8.379,4.656,8.379,10.643c0,2.564-0.301,42.953-0.301,48.172
			c0,4.668-1.506,8.232-6.033,8.232c-4.301,0-5.908-3.742-6.006-8.168c-0.145-6.646-0.193-27.557-0.193-35.521
			c0-4.338-4.135-4.338-4.244-0.477c-0.156,5.4,0.984,45.969,0.723,51.264c-6.076,0-10.641,0.049-16.903,0.061"/>
		<path style="fill:#FFFFFF;" d="M202.396,29.529c0.25,1.008,0.387,2.064,0.387,3.148c0,7.355-6.17,13.32-13.786,13.32
			c-7.609,0-13.781-5.965-13.781-13.32c0-1.084,0.135-2.141,0.387-3.148c1.465-5.836,6.904-10.174,13.395-10.174
			C195.492,19.355,200.934,23.691,202.396,29.529"/>
		<path style="fill:none;stroke:#406FA9;stroke-width:2.0351;stroke-linecap:round;stroke-linejoin:round;" d="M180.091,50.725
			c-5.977,6.719,1.775,12.939,4.652,18.742c3.248,6.553,3.727,12.613,3.629,18.639c0.098-6.025-2.707-13.688,2.875-18.352
			c5.002-4.182,13.385-11.865,7.328-18.713"/>
		<ellipse style="fill:#406FA9;" cx="188.612" cy="88.92" rx="2.853" ry="1.973"/>
	</g>
</g>
</svg>
