<?xml version="1.0" encoding="iso-8859-1"?>
<!-- Generator: Adobe Illustrator 13.0.0, SVG Export Plug-In . SVG Version: 6.00 Build 14948)  -->
<!DOCTYPE svg PUBLIC "-//W3C//DTD SVG 1.1//EN" "http://www.w3.org/Graphics/SVG/1.1/DTD/svg11.dtd">
<svg version="1.1" xmlns="http://www.w3.org/2000/svg" xmlns:xlink="http://www.w3.org/1999/xlink" x="0px" y="0px" width="378px"
	 height="140px" viewBox="0 0 378 140" style="enable-background:new 0 0 378 140;" xml:space="preserve">
<pattern  x="-81" y="170" width="538" height="200" patternUnits="userSpaceOnUse" id="New_Pattern_Swatch_3" viewBox="0 -200 538 200" style="overflow:visible;">
	<g>
		<polygon style="fill:none;" points="0,0 538,0 538,-200 0,-200 		"/>
		<polygon style="fill:#FFFFFF;" points="0,0 538,0 538,-200 0,-200 		"/>
	</g>
</pattern>
<g id="fond">
	<rect style="fill:#FFFFFF;" width="378" height="140"/>
</g>
<g id="sol">
	
		<line style="fill:#FFFFFF;stroke:#777768;stroke-width:0.3635;stroke-linecap:round;stroke-linejoin:round;" x1="363.834" y1="120.333" x2="14.167" y2="120.333"/>
</g>
<g id="Layer_4">
	<path style="fill:url(#New_Pattern_Swatch_3);stroke:#777768;stroke-width:1.799;stroke-linecap:round;stroke-linejoin:round;" d="
		M225.795,87.504c-0.248,2.064-1.762,8.717-2.045,12.066"/>
	<path style="fill:#D5312C;stroke:#777768;stroke-width:1.799;stroke-linecap:round;stroke-linejoin:round;" d="M218.334,77.357
		c-0.34,6.086,3.148,11.227,7.796,11.486c4.644,0.258,8.688-4.461,9.028-10.546c0.339-6.081-3.154-11.223-7.799-11.482
		C222.713,66.556,218.674,71.276,218.334,77.357z"/>
	<path style="fill:none;stroke:#777768;stroke-width:1.799;stroke-linecap:round;stroke-linejoin:round;" d="M223.959,100.264
		c-12.464,7.013-25.498,11.678-29.818,16.271c-1.047,1.114-3.9,2.113-6.117,0.651c-6.108-4.028-23.402-19.974-26.929-16.703
		c-16.164,14.991-19.259,17.356-25.673,17.356"/>
	<path style="fill:#FFFFFF;stroke:#787768;stroke-width:1.1995;stroke-linecap:round;stroke-linejoin:round;" d="M218.363,97.553
		c-0.416,1.834,0.73,3.66,2.568,4.078c1.838,0.416,3.668-0.736,4.084-2.57c0.416-1.836-0.738-3.664-2.577-4.082
		C220.602,94.562,218.779,95.717,218.363,97.553z"/>
	<path style="fill:none;stroke:#777768;stroke-width:1.199;stroke-linecap:round;stroke-linejoin:round;" d="M217.48,115.683
		c-2.078,2.945-7.71,3.039-6.199,2.396c0.176-0.073,4.402-1.543,4.742-1.629c-0.855-0.392-4.586,0.668-5.484,0.848
		c0.951,0.087,4.637-1.646,5.507-1.592c-2.535-0.178-4.379,0.753-6.921,1.128c2.889-0.049,5.49-1,8.018-1.133
		c4.144-0.219,13.262,3.495,15.123,2.366c1.858-1.129-1.349-21.108-6.891-23.816"/>
	
		<line style="fill:none;stroke:#777768;stroke-width:2;stroke-linecap:round;stroke-linejoin:round;" x1="241.5" y1="119.667" x2="133" y2="119.667"/>
	<g>
		<g>
			<path style="fill:#B58247;stroke:#777768;stroke-width:2.7661;stroke-linecap:round;stroke-linejoin:round;" d="M216.649,57.82
				c0,0-3.294-5.95,0-8.854c3.294-2.906,0-8.3,0-8.3"/>
			<path style="fill:#B58247;stroke:#777768;stroke-width:2.7661;stroke-linecap:round;stroke-linejoin:round;" d="M235.409,57.82
				c0,0-3.294-5.95,0-8.854c3.293-2.906,0-8.3,0-8.3"/>
			<path style="fill:#B58247;stroke:#777768;stroke-width:2.7661;stroke-linecap:round;stroke-linejoin:round;" d="M226.027,57.82
				c0,0-3.294-5.95,0-8.854c3.296-2.906,0-8.3,0-8.3"/>
		</g>
	</g>
</g>
<g id="soleil">
	<g>
		<circle style="fill:#FFEE15;" cx="114.105" cy="34.736" r="13.438"/>
		<path style="fill:none;stroke:#FFEE15;stroke-width:4;stroke-linecap:round;stroke-linejoin:round;" d="M95.038,38.255
			c-7.688,0.947-27.74,0.16-35.966,2.219"/>
		<path style="fill:none;stroke:#FFEE15;stroke-width:4;stroke-linecap:round;stroke-linejoin:round;" d="M96.797,22.915
			c-8.424-2.701-19.152-8.771-26.096-13.989"/>
		<path style="fill:none;stroke:#FFEE15;stroke-width:4;stroke-linecap:round;stroke-linejoin:round;" d="M102.61,49.928
			c-0.93,0.629-15.542,14.868-16.747,15.669"/>
		<path style="fill:none;stroke:#FFEE15;stroke-width:4;stroke-linecap:round;stroke-linejoin:round;" d="M107.864,17.724
			c0.028-1.464-0.084-7.388-0.316-8.848"/>
		<path style="fill:none;stroke:#FFEE15;stroke-width:4;stroke-linecap:round;stroke-linejoin:round;" d="M128.163,23.851
			c0.346-0.823,10.94-11.788,11.37-12.5"/>
		<path style="fill:none;stroke:#FFEE15;stroke-width:4;stroke-linecap:round;stroke-linejoin:round;" d="M132.293,32.419
			c-0.646-0.229,23.016,4.457,34.266,1.207"/>
		<path style="fill:none;stroke:#FFEE15;stroke-width:4;stroke-linecap:round;stroke-linejoin:round;" d="M127.656,45.808
			c5.41,1.674,20.142,11.318,23.712,19.01"/>
		
			<line style="fill:none;stroke:#FFEE15;stroke-width:4;stroke-linecap:round;stroke-linejoin:round;" x1="121.726" y1="69.793" x2="119.226" y2="51.333"/>
	</g>
</g>
</svg>
