<?xml version="1.0" encoding="iso-8859-1"?>
<!-- Generator: Adobe Illustrator 13.0.0, SVG Export Plug-In . SVG Version: 6.00 Build 14948)  -->
<!DOCTYPE svg PUBLIC "-//W3C//DTD SVG 1.1//EN" "http://www.w3.org/Graphics/SVG/1.1/DTD/svg11.dtd">
<svg version="1.1" xmlns="http://www.w3.org/2000/svg" xmlns:xlink="http://www.w3.org/1999/xlink" x="0px" y="0px" width="540px"
	 height="200px" viewBox="0 0 540 200" style="enable-background:new 0 0 540 200;" xml:space="preserve">
<g id="Layer_2">
	<g>
		<rect style="fill:none;" width="540" height="200"/>
		<rect style="fill:#FFFFFF;" width="540" height="200"/>
	</g>
</g>
<g id="Layer_4">
	<path style="opacity:0.39;fill:none;stroke:#65B724;stroke-width:4;stroke-linecap:round;stroke-linejoin:round;" d="M18.5,195
		c11.874-11.887,26.721-18.967,42.51-26.51c7.893-3.77,34.664-9.125,77.488-14.49c44.345-5.555,88.947-26.842,93.273-27.662
		c21.617-4.1,53.846-27.059,59.867-30.523c8.465-4.869,50.605-18.815,90.092-31.069c32.395-10.053,63.002-18.967,71.77-20.797
		c12.434-2.595,32.148-10.425,39-21.948"/>
	<path style="opacity:0.39;fill:none;stroke:#F5B724;stroke-width:4;stroke-linecap:round;stroke-linejoin:round;" d="M17.5,89
		c5.655-3.742,16.534-1.09,23-1.023c11.804,0.122,26.344-7.687,36.583-14.668c15.22-10.378,20.439-24.771,40.417-24.36
		c17.746,0.366,34.082,17.395,47,27.056c8.368,6.258,14.159,13.812,22.227,20.023c10.166,7.826,35.136,22.509,45.045,30.31
		c8.511,6.697,45.475,28.332,82.689,31.662c29.039,2.6,65.105-12.719,87.039-11.023c18.25,1.41,112-0.262,112-21.977
		c0-40-42.01-55.99-60-81.051c-4.424-6.163-20.367-31.114-26-33.948"/>
	<path style="opacity:0.39;fill:none;stroke:#3FA2FF;stroke-width:4;stroke-linecap:round;stroke-linejoin:round;" d="M52.5,18
		c4.826,6.979,5.275,16.187,8.251,24.223c3.625,9.788,10.862,22.24,16.332,31.086C89.133,92.795,76.531,104.13,93.5,118
		c11.57,9.459,32.999,26.988,44.998,36c19.479,14.633,60.588,7.178,83.783,11.777c15.115,2.998,37.691,2.561,50.02,11.445
		c3.867,2.787,9.91,11.957,10.199,16.777"/>
	<path style="opacity:0.39;fill:none;stroke:#0A12C0;stroke-width:4;stroke-linecap:round;stroke-linejoin:round;" d="M273.5,21
		c2.916,7.331,6.576,15.623,6.053,24c-0.502,8.021-0.969,41.609,12.086,50.814c15.559,10.972,102.162,44.707,109.861,51.162
		c6.537,5.48,18.998,40.676,27,43.023"/>
	<path style="opacity:0.39;fill:none;stroke:#DF1800;stroke-width:4;stroke-linecap:round;stroke-linejoin:round;" d="M525.5,137
		c-6.066-6.066-12-12-12-12c-30.396-10.631-84.33-43.638-131.77-60.254C329.535,46.463,284.834,45,279.553,45
		c-19.304,0-65.169-22.565-83.246-14.975c-16.239,6.818-19.469,33.655-31.807,45.979c-6.251,6.242-62.605,35.328-71,41.996
		c-14.425,11.461-10.678,9.584-28,20.023c-6.835,4.119-16.214,9.574-24.003,10.973c-8.762,1.574-20.794,0.43-26.997,2.004"/>
</g>
<g id="Layer_3">
	
		<circle style="fill:#FFFFFF;stroke:#BDBDBD;stroke-width:2;stroke-linecap:round;stroke-linejoin:round;" cx="138.498" cy="154" r="7.039"/>
	
		<circle style="fill:#FFFFFF;stroke:#BDBDBD;stroke-width:2;stroke-linecap:round;stroke-linejoin:round;" cx="453.5" cy="43.948" r="7.039"/>
	
		<circle style="fill:#FFFFFF;stroke:#BDBDBD;stroke-width:2;stroke-linecap:round;stroke-linejoin:round;" cx="513.5" cy="125" r="7.039"/>
	
		<circle style="fill:#FFFFFF;stroke:#BDBDBD;stroke-width:2;stroke-linecap:round;stroke-linejoin:round;" cx="381.73" cy="64.745" r="7.039"/>
	
		<circle style="fill:#FFFFFF;stroke:#BDBDBD;stroke-width:2;stroke-linecap:round;stroke-linejoin:round;" cx="279.553" cy="45" r="7.039"/>
	
		<circle style="fill:#FFFFFF;stroke:#BDBDBD;stroke-width:2;stroke-linecap:round;stroke-linejoin:round;" cx="291.639" cy="95.814" r="7.039"/>
	
		<circle style="fill:#FFFFFF;stroke:#BDBDBD;stroke-width:2;stroke-linecap:round;stroke-linejoin:round;" cx="401.5" cy="146.976" r="7.039"/>
	
		<circle style="fill:#FFFFFF;stroke:#BDBDBD;stroke-width:2;stroke-linecap:round;stroke-linejoin:round;" cx="231.771" cy="126.337" r="7.039"/>
	
		<circle style="fill:#FFFFFF;stroke:#BDBDBD;stroke-width:2;stroke-linecap:round;stroke-linejoin:round;" cx="164.5" cy="76.004" r="7.039"/>
	
		<circle style="fill:#FFFFFF;stroke:#BDBDBD;stroke-width:2;stroke-linecap:round;stroke-linejoin:round;" cx="93.5" cy="118" r="7.039"/>
	
		<circle style="fill:#FFFFFF;stroke:#BDBDBD;stroke-width:2;stroke-linecap:round;stroke-linejoin:round;" cx="77.083" cy="73.309" r="7.039"/>
	
		<circle style="fill:#FFFFFF;stroke:#BDBDBD;stroke-width:2;stroke-linecap:round;stroke-linejoin:round;" cx="427.5" cy="10" r="5"/>
	
		<circle style="fill:#FFFFFF;stroke:#BDBDBD;stroke-width:2;stroke-linecap:round;stroke-linejoin:round;" cx="492.5" cy="22" r="5"/>
	
		<circle style="fill:#FFFFFF;stroke:#BDBDBD;stroke-width:2;stroke-linecap:round;stroke-linejoin:round;" cx="467.535" cy="144.275" r="5"/>
	
		<circle style="fill:#FFFFFF;stroke:#BDBDBD;stroke-width:2;stroke-linecap:round;stroke-linejoin:round;" cx="327.252" cy="50.354" r="5"/>
	
		<circle style="fill:#FFFFFF;stroke:#BDBDBD;stroke-width:2;stroke-linecap:round;stroke-linejoin:round;" cx="473.135" cy="106.732" r="5"/>
	
		<circle style="fill:#FFFFFF;stroke:#BDBDBD;stroke-width:2;stroke-linecap:round;stroke-linejoin:round;" cx="340.799" cy="119.312" r="5"/>
	
		<circle style="fill:#FFFFFF;stroke:#BDBDBD;stroke-width:2;stroke-linecap:round;stroke-linejoin:round;" cx="341.424" cy="156.517" r="5"/>
	
		<circle style="fill:#FFFFFF;stroke:#BDBDBD;stroke-width:2;stroke-linecap:round;stroke-linejoin:round;" cx="277.26" cy="149.406" r="5"/>
	
		<circle style="fill:#FFFFFF;stroke:#BDBDBD;stroke-width:2;stroke-linecap:round;stroke-linejoin:round;" cx="198.485" cy="163.984" r="5"/>
	
		<circle style="fill:#FFFFFF;stroke:#BDBDBD;stroke-width:2;stroke-linecap:round;stroke-linejoin:round;" cx="272.301" cy="177.222" r="5"/>
	
		<circle style="fill:#FFFFFF;stroke:#BDBDBD;stroke-width:2;stroke-linecap:round;stroke-linejoin:round;" cx="239.429" cy="35.242" r="5"/>
	
		<circle style="fill:#FFFFFF;stroke:#BDBDBD;stroke-width:2;stroke-linecap:round;stroke-linejoin:round;" cx="189.301" cy="34.816" r="5"/>
	
		<circle style="fill:#FFFFFF;stroke:#BDBDBD;stroke-width:2;stroke-linecap:round;stroke-linejoin:round;" cx="420.383" cy="80.748" r="5"/>
	
		<circle style="fill:#FFFFFF;stroke:#BDBDBD;stroke-width:2;stroke-linecap:round;stroke-linejoin:round;" cx="487.844" cy="76.631" r="5"/>
	
		<circle style="fill:#FFFFFF;stroke:#BDBDBD;stroke-width:2;stroke-linecap:round;stroke-linejoin:round;" cx="265.508" cy="112.013" r="5"/>
	
		<circle style="fill:#FFFFFF;stroke:#BDBDBD;stroke-width:2;stroke-linecap:round;stroke-linejoin:round;" cx="131.644" cy="95.814" r="5"/>
	
		<circle style="fill:#FFFFFF;stroke:#BDBDBD;stroke-width:2;stroke-linecap:round;stroke-linejoin:round;" cx="117.5" cy="48.948" r="5"/>
	
		<circle style="fill:#FFFFFF;stroke:#BDBDBD;stroke-width:2;stroke-linecap:round;stroke-linejoin:round;" cx="85.699" cy="162.027" r="5"/>
	
		<circle style="fill:#FFFFFF;stroke:#BDBDBD;stroke-width:2;stroke-linecap:round;stroke-linejoin:round;" cx="55.788" cy="143.548" r="5"/>
	
		<circle style="fill:#FFFFFF;stroke:#BDBDBD;stroke-width:2;stroke-linecap:round;stroke-linejoin:round;" cx="36.43" cy="87.723" r="5"/>
	
		<circle style="fill:#FFFFFF;stroke:#BDBDBD;stroke-width:2;stroke-linecap:round;stroke-linejoin:round;" cx="428.5" cy="190" r="5"/>
	
		<circle style="fill:#FFFFFF;stroke:#BDBDBD;stroke-width:2;stroke-linecap:round;stroke-linejoin:round;" cx="52.5" cy="18" r="5"/>
</g>
<g id="Layer_6">
	<g>
		<g>
			<path style="fill:#FFFFFF;stroke:#777768;stroke-width:1.7135;stroke-linecap:round;stroke-linejoin:round;" d="M237.571,31.5
				c0,8.668-5.369,15.691-11.986,15.691c-6.613,0-11.98-7.023-11.98-15.691c0-8.664,5.367-15.689,11.98-15.689
				C232.202,15.811,237.571,22.836,237.571,31.5z"/>
			<path style="fill:none;stroke:#777768;stroke-width:1.7135;stroke-linecap:round;stroke-linejoin:round;" d="M225.946,68.485
				c0.178,11.066,0.162,22.92-0.93,28.344c-1.709,8.565-5.133,5.146-3.426,17.122c2.15,15.012,7.988,27.393,6.283,34.807
				c-9.348,40.5-9.703,41.656-0.57,40.514"/>
			<path style="fill:none;stroke:#777768;stroke-width:1.7135;stroke-linecap:round;stroke-linejoin:round;" d="M225.585,47.76
				c-0.012,2.709,0.082,6.854,0.186,11.641"/>
			<path style="fill:#FFFFFF;stroke:#777768;stroke-width:1.7135;stroke-linecap:round;stroke-linejoin:round;" d="M232.737,64.038
				c0,2.676-2.174,4.857-4.85,4.857s-4.848-2.182-4.848-4.857c0-2.682,2.172-4.848,4.848-4.848S232.737,61.356,232.737,64.038z"/>
		</g>
	</g>
	<g>
		<path style="fill:#FFFFFF;stroke:#777768;stroke-width:1.7135;stroke-linecap:round;stroke-linejoin:round;" d="M293.994,104.593
			c0,1.514,1.234,2.736,2.74,2.736c1.504,0,2.734-1.223,2.734-2.736c0-1.512-1.23-2.729-2.734-2.729
			C295.229,101.865,293.994,103.082,293.994,104.593z"/>
		<path style="fill:#FFFFFF;stroke:#777768;stroke-width:2.5702;stroke-linecap:round;stroke-linejoin:round;" d="M283.994,21.811
			c0,8.471,5.24,15.336,11.709,15.336c6.459,0,11.705-6.865,11.705-15.336c0-8.467-5.246-15.332-11.705-15.332
			C289.234,6.479,283.994,13.344,283.994,21.811z"/>
		<path style="fill:none;stroke:#777768;stroke-width:2.5702;stroke-linecap:round;stroke-linejoin:round;" d="M295.41,37.754
			c0.051,10.705-1.445,42.352,0.607,52.625c1.838,9.174,2.654,6.395,0.814,19.243c-2.295,16.094,2.873,31.797,3.432,39.943
			c2.846,42.223,3.104,41.162-6.695,39.939"/>
	</g>
	<path style="fill:none;stroke:#777768;stroke-width:1.7135;stroke-linecap:round;stroke-linejoin:round;" d="M294.783,48.686
		c-5.816,1.753-7.943,28.685-14.223,28.685c-5.033,0-10.239-25.114-10.467-26.973c-0.283-2.297-0.266-5.193-0.592-7.86
		c-0.535-4.377-3.596-10.445-3.596-10.445l3.318,8.82c-0.768-0.496-1.615-1.181-2.268-1.777c0.279,1.084,0,2.05,0.723,3.246
		c-0.699-0.782-1.875-2.086-2.627-2.748c-0.309,1.727,0.445,3.402,1.84,4.725c1.682,0.854,2.328,1.209,2.859,1.139"/>
	<g>
		<path style="fill:none;stroke:#777768;stroke-linecap:round;stroke-linejoin:round;" d="M272.168,11.388
			c-2.907-4.424,4.826-6.098,3.814-0.669c-0.748,4.019-1.922,5.094-0.381,10.204"/>
		<path style="fill:none;stroke:#777768;stroke-linecap:round;stroke-linejoin:round;" d="M275.879,24.431l0.871-0.178
			c0,0-0.908-0.05-0.77,0.205"/>
	</g>
	<g>
		<path style="fill:#FFFFFF;stroke:#777768;stroke-linecap:round;stroke-linejoin:round;" d="M323.27,14.007
			c-1.922-3.928,5.916-5.482,4.902,0.359c-0.695,4.004-6.039,5.533-6.869,9.658"/>
		
			<line style="fill:#FFFFFF;stroke:#777768;stroke-linecap:round;stroke-linejoin:round;" x1="320.592" y1="26.958" x2="319.764" y2="27.122"/>
	</g>
	<g>
		<path style="fill:#FFFFFF;stroke:#777768;stroke-linecap:round;stroke-linejoin:round;" d="M312.771,9.491
			c-2.164-6.068,7.719-5.93,4.734,0.896c-0.893,2.04-3.168,2.257-3.615,4.879c-0.164,0.968,0.58,2.31,0.355,3.77"/>
		
			<line style="fill:#FFFFFF;stroke:#777768;stroke-linecap:round;stroke-linejoin:round;" x1="313.986" y1="22.364" x2="313.537" y2="21.815"/>
	</g>
	<g>
		<path style="fill:#FFFFFF;stroke:#777768;stroke-linecap:round;stroke-linejoin:round;" d="M334.941,27.739
			c1.236-4.104,6.406-2.717,5.041,0.758c-1.75,4.453-8.873,1.345-12.131,5.304"/>
		
			<line style="fill:#FFFFFF;stroke:#777768;stroke-linecap:round;stroke-linejoin:round;" x1="326.115" y1="36.619" x2="326.32" y2="35.951"/>
	</g>
</g>
<g id="Layer_7">
	<g>
		<path style="fill:none;stroke:#777768;stroke-width:1.713;stroke-linecap:round;stroke-linejoin:round;" d="M294.783,48.686
			c14.477,7.983,19.32,28.317,19.32,31.332c0,3.388-0.799,11.662-2.594,19.403"/>
		<g>
			<g>
				<path style="fill:#FFFFFF;stroke:#777768;stroke-width:1.5113;stroke-linecap:round;stroke-linejoin:round;" d="
					M292.545,136.595c1.639-2.654,3.164-4.773,5.797-6.543c-2.98-1.035-4.957-3.334-7.512-5.184
					c1.891-2.043,4.533-4.152,6.125-6.426c-3.066-2.432-5.023-6.602-8.076-8.789c2.561-1.09,5.738-2.309,8.068-3.924
					c-3.209-2.15-5.393-6.784-6.291-10.329c2.576-0.999,6.717,0.665,9.334,1.299c5.113,1.242,10.213,2.631,15.439,3.264
					c7.406,0.893,14.611,2.067,21.871,3.372c-0.07,1.051,2.488,5.752,3.854,7.684c-3.01,0.188-6.92,1.83-9.535,2.955
					c3.051,0.518,8.57,2.959,10.525,5.555c0,0-4.945,2.764-7.057,5.059c3.904,0.104,8.297,3.102,11.762,4.742
					c-1.984,2.43-8.113,6.814-11.031,7.197C333.508,136.826,295.021,136.011,292.545,136.595"/>
				
					<line style="fill:#FFFFFF;stroke:#777768;stroke-width:1.5113;stroke-linecap:round;stroke-linejoin:round;" x1="296.947" y1="105.73" x2="341.154" y2="111.019"/>
				
					<line style="fill:#FFFFFF;stroke:#777768;stroke-width:1.5113;stroke-linecap:round;stroke-linejoin:round;" x1="288.879" y1="109.654" x2="331.619" y2="113.974"/>
				
					<line style="fill:#FFFFFF;stroke:#777768;stroke-width:1.5113;stroke-linecap:round;stroke-linejoin:round;" x1="296.955" y1="118.443" x2="342.145" y2="119.529"/>
				
					<line style="fill:#FFFFFF;stroke:#777768;stroke-width:1.5113;stroke-linecap:round;stroke-linejoin:round;" x1="290.83" y1="124.869" x2="335.088" y2="124.587"/>
				
					<line style="fill:#FFFFFF;stroke:#777768;stroke-width:1.5113;stroke-linecap:round;stroke-linejoin:round;" x1="298.342" y1="130.052" x2="346.85" y2="129.33"/>
			</g>
			<path style="fill:none;stroke:#777768;stroke-width:1.7046;stroke-linecap:round;stroke-linejoin:round;" d="M308.131,98.728
				c0.041,0.572,0.113,1.143,0.172,1.719c0.035,0.338,0.174,0.645,0.191,0.971"/>
			<path style="fill:none;stroke:#777768;stroke-width:1.7046;stroke-linecap:round;stroke-linejoin:round;" d="M311.51,99.421
				c-0.236,0.09-0.352,0.648-0.453,0.867c-0.1,0.217-0.229,0.415-0.303,0.629"/>
			<path style="fill:none;stroke:#777768;stroke-width:1.7046;stroke-linecap:round;stroke-linejoin:round;" d="M313.793,99.788
				c-0.123,0.195-0.59,1.022-0.715,1.379"/>
			<path style="fill:none;stroke:#777768;stroke-width:1.7046;stroke-linecap:round;stroke-linejoin:round;" d="M315.201,101.337
				c0.199-0.285,0.453-0.521,0.674-0.792c0.078-0.092,0.4-0.479,0.379-0.375"/>
		</g>
	</g>
</g>
</svg>
