<?xml version="1.0" encoding="iso-8859-1"?>
<!-- Generator: Adobe Illustrator 13.0.0, SVG Export Plug-In . SVG Version: 6.00 Build 14948)  -->
<!DOCTYPE svg PUBLIC "-//W3C//DTD SVG 1.1//EN" "http://www.w3.org/Graphics/SVG/1.1/DTD/svg11.dtd">
<svg version="1.1" xmlns="http://www.w3.org/2000/svg" xmlns:xlink="http://www.w3.org/1999/xlink" x="0px" y="0px" width="540px"
	 height="200px" viewBox="0 0 540 200" style="enable-background:new 0 0 540 200;" xml:space="preserve">
<g id="FOND">
	<g>
		<rect style="fill:#FFFFFF;" width="540" height="200"/>
	</g>
</g>
<g id="Layer_1">
	<g>
		<g>
			
				<rect x="427.633" y="100.724" style="fill:#CE4E43;stroke:#FFFFFF;stroke-width:0.916;stroke-linecap:square;" width="4.48" height="64.386"/>
			<g>
				<path style="fill:#CE4E43;" d="M391.91,99.312c0,1.404,1.139,2.543,2.543,2.543h70.83c1.404,0,2.543-1.139,2.543-2.543
					s-1.139-2.542-2.543-2.542h-70.83C393.049,96.771,391.91,97.908,391.91,99.312C391.91,99.312,391.91,97.908,391.91,99.312z"/>
				<path style="fill:none;stroke:#FFFFFF;stroke-width:1.374;" d="M391.91,99.312c0,1.404,1.139,2.543,2.543,2.543h70.83
					c1.404,0,2.543-1.139,2.543-2.543s-1.139-2.542-2.543-2.542h-70.83C393.049,96.771,391.91,97.908,391.91,99.312
					C391.91,99.312,391.91,97.908,391.91,99.312z"/>
			</g>
		</g>
		<g>
			<rect x="160.574" y="92.91" style="fill:#78B432;stroke:#FFFFFF;stroke-width:1.374;" width="5.477" height="72.816"/>
			<path style="fill:#78B432;stroke:#FFFFFF;stroke-width:1.374;" d="M179.264,96.899h-31.911V88.92c0,0,7.569-3.492,15.548-3.492
				s16.363,3.492,16.363,3.492V96.899z"/>
			<rect x="153.086" y="148.463" style="fill:#78B432;stroke:#FFFFFF;stroke-width:0.916;" width="20.449" height="1.869"/>
		</g>
		
			<line style="fill:none;stroke:#78B432;stroke-width:3.427;stroke-linecap:round;" x1="26.713" y1="56.053" x2="134.205" y2="56.053"/>
		
			<line style="fill:none;stroke:#78B432;stroke-width:3.427;stroke-linecap:square;" x1="134.205" y1="56.053" x2="134.205" y2="80.097"/>
		
			<line style="fill:none;stroke:#78B432;stroke-width:3.427;stroke-linecap:square;" x1="134.205" y1="80.097" x2="123.899" y2="80.097"/>
		
			<line style="fill:none;stroke:#78B432;stroke-width:3.427;stroke-linecap:square;" x1="123.899" y1="80.097" x2="123.899" y2="164.822"/>
		
			<line style="fill:none;stroke:#78B432;stroke-width:3.427;stroke-linecap:round;" x1="123.899" y1="164.822" x2="512.43" y2="164.822"/>
		<g>
			<g>
				
					<line style="fill:none;stroke:#78B432;stroke-width:4.2837;stroke-linecap:round;stroke-linejoin:round;" x1="369.607" y1="85.414" x2="369.607" y2="124.011"/>
				
					<line style="fill:none;stroke:#78B432;stroke-width:4.2837;stroke-linecap:round;stroke-linejoin:round;" x1="369.607" y1="124.011" x2="408.203" y2="124.011"/>
				
					<line style="fill:none;stroke:#78B432;stroke-width:4.2837;stroke-linecap:round;stroke-linejoin:round;" x1="408.203" y1="124.011" x2="369.566" y2="162.65"/>
				
					<line style="fill:none;stroke:#78B432;stroke-width:4.2837;stroke-linecap:round;stroke-linejoin:round;" x1="369.566" y1="162.65" x2="391.82" y2="162.65"/>
			</g>
			<g>
				
					<line style="fill:none;stroke:#78B432;stroke-width:4.2837;stroke-linecap:round;stroke-linejoin:round;" x1="499.365" y1="85.414" x2="499.365" y2="124.011"/>
				
					<line style="fill:none;stroke:#78B432;stroke-width:4.2837;stroke-linecap:round;stroke-linejoin:round;" x1="499.365" y1="124.011" x2="460.773" y2="124.011"/>
				
					<line style="fill:none;stroke:#78B432;stroke-width:4.2837;stroke-linecap:round;stroke-linejoin:round;" x1="460.773" y1="124.011" x2="499.404" y2="162.65"/>
				
					<line style="fill:none;stroke:#78B432;stroke-width:4.2837;stroke-linecap:round;stroke-linejoin:round;" x1="499.404" y1="162.65" x2="477.152" y2="162.65"/>
			</g>
		</g>
	</g>
</g>
<g id="Layer_2">
	<g>
		<g>
			<path style="fill:none;stroke:#92938B;stroke-width:1.7135;stroke-linecap:round;stroke-linejoin:round;" d="M236.209,34.24
				c0,8.668-5.369,15.692-11.986,15.692c-6.614,0-11.98-7.024-11.98-15.692c0-8.664,5.366-15.688,11.98-15.688
				C230.84,18.551,236.209,25.576,236.209,34.24z"/>
			<path style="fill:none;stroke:#92938B;stroke-width:1.7135;stroke-linecap:round;stroke-linejoin:round;" d="M224.584,71.225
				c0.178,11.067,0.161,22.92-0.93,28.344c-1.711,8.564-5.134,5.145-3.426,17.121c2.15,15.013,7.987,27.394,6.281,34.808
				c-9.347,40.498-9.701,41.655-0.57,40.513"/>
			<path style="fill:none;stroke:#92938B;stroke-width:1.7135;stroke-linecap:round;stroke-linejoin:round;" d="M224.223,50.499
				c-0.012,2.709,0.08,6.854,0.185,11.641"/>
			<path style="fill:none;stroke:#92938B;stroke-width:1.7135;stroke-linecap:round;stroke-linejoin:round;" d="M231.375,66.778
				c0,2.675-2.174,4.857-4.852,4.857c-2.676,0-4.846-2.182-4.846-4.857c0-2.682,2.17-4.848,4.846-4.848
				C229.201,61.93,231.375,64.096,231.375,66.778z"/>
		</g>
	</g>
	<path style="fill:none;stroke:#92938B;stroke-width:1.7135;stroke-linecap:round;stroke-linejoin:round;" d="M292.631,107.332
		c0,1.513,1.234,2.736,2.74,2.736c1.503,0,2.734-1.224,2.734-2.736c0-1.511-1.231-2.729-2.734-2.729
		C293.865,104.603,292.631,105.821,292.631,107.332z"/>
	<path style="fill:none;stroke:#92938B;stroke-width:2.5702;stroke-linecap:round;stroke-linejoin:round;" d="M294.653,93.119
		c1.839,9.175,2.655,6.396,0.815,19.241c-2.295,16.095,2.873,31.797,3.432,39.944c2.845,42.222,3.103,41.162-6.695,39.939"/>
	<g>
		<path style="fill:none;stroke:#92938B;stroke-width:2.5702;stroke-linecap:round;stroke-linejoin:round;" d="M265.188,30.048
			c2.207,8.178,9.055,13.44,15.299,11.756c6.236-1.683,9.515-9.676,7.309-17.854c-2.205-8.175-9.059-13.436-15.295-11.754
			C266.256,13.88,262.982,21.873,265.188,30.048z"/>
		<path style="fill:none;stroke:#92938B;stroke-width:2.5702;stroke-linecap:round;stroke-linejoin:round;" d="M280.361,42.469
			c2.838,10.32,10.612,41.265,14.292,50.65"/>
		<path style="fill:none;stroke:#92938B;stroke-width:1.713;stroke-linecap:round;stroke-linejoin:round;" d="M282.945,52.638
			c-6.576-2.36-15.516,20.871-11.682,27.678c4.988,2.869,15.656-1.99,19.392-9.481c-1.091,0.755-2.831,2.41-3.313,3.562
			c-0.389-2.81,2.946-4.742,3.632-7.304c-1.231,1.285-2.49,2.527-2.925,4.201c-0.462-1.944,0.775-4.452,1.131-6.318
			c-0.534,1.585-2.104,9.849-2.639,11.438c0.143-0.611,0.056-11.273,0.197-11.861c-0.256,3.1-0.227,8.737-0.197,11.861
			c-0.105-0.708-1.971-5.291-2.059-6.347"/>
	</g>
</g>
</svg>
