<?xml version="1.0" encoding="iso-8859-1"?>
<!-- Generator: Adobe Illustrator 13.0.0, SVG Export Plug-In . SVG Version: 6.00 Build 14948)  -->
<!DOCTYPE svg PUBLIC "-//W3C//DTD SVG 1.1//EN" "http://www.w3.org/Graphics/SVG/1.1/DTD/svg11.dtd">
<svg version="1.1" xmlns="http://www.w3.org/2000/svg" xmlns:xlink="http://www.w3.org/1999/xlink" x="0px" y="0px" width="378px"
	 height="140px" viewBox="0 0 378 140" style="enable-background:new 0 0 378 140;" xml:space="preserve">
<pattern  x="-81" y="170" width="538" height="200" patternUnits="userSpaceOnUse" id="New_Pattern_Swatch_3" viewBox="0 -200 538 200" style="overflow:visible;">
	<g>
		<polygon style="fill:none;" points="0,0 538,0 538,-200 0,-200 		"/>
		<polygon style="fill:#FFFFFF;" points="0,0 538,0 538,-200 0,-200 		"/>
	</g>
</pattern>
<g id="fond">
	<g>
		<rect style="fill:#FFFFFF;" width="378" height="140"/>
	</g>
</g>
<g id="guides">
</g>
<g id="scene_x2B_porte">
	<polyline style="fill:#FFFFFF;stroke:#CCCCCC;stroke-width:0.5;stroke-linecap:round;stroke-linejoin:round;" points="31,11 
		31,132.75 254.5,132.75 254.5,25 306,25 306,132.75 341,132.75 341,11 	"/>
	<polygon style="fill:#FFFFFF;stroke:#CCCCCC;stroke-width:0.5;stroke-linecap:round;stroke-linejoin:round;" points="254.5,132.75 
		254.5,25 302.626,29.983 302.626,137.733 	"/>
	
		<line style="fill:none;stroke:#CCCCCC;stroke-width:0.5;stroke-linecap:round;stroke-linejoin:round;" x1="341" y1="132.75" x2="351" y2="136.667"/>
	<g id="poign&#xE9;e">
		<path style="fill:#FFFFFF;stroke:#CCCCCC;stroke-width:0.3;" d="M300.25,84.043c0,1.242-1.008,2.13-2.25,1.98
			s-2.25-1.278-2.25-2.521s1.008-2.129,2.25-1.979S300.25,82.801,300.25,84.043z"/>
		<path style="fill:#FFFFFF;stroke:#CCCCCC;stroke-width:0.5;" d="M290.25,82.531c0-0.553,0.447-0.946,1-0.88l7.375,0.885
			c0.553,0.066,1,0.567,1,1.12v0.625c0,0.553-0.447,0.946-1,0.88l-7.375-0.885c-0.553-0.066-1-0.567-1-1.12V82.531z"/>
	</g>
</g>
<g id="lit">
	
		<rect x="29.476" y="89.434" style="fill:#FFFFFF;stroke:#9C9C9C;stroke-width:0.5;stroke-linecap:round;stroke-linejoin:round;" width="6.913" height="45.414"/>
	
		<rect x="144.81" y="128.991" style="fill:#FFFFFF;stroke:#9C9C9C;stroke-width:0.5;stroke-linecap:round;stroke-linejoin:round;" width="6.913" height="5.856"/>
	
		<rect x="36.389" y="115.934" style="fill:#FFFFFF;stroke:#9C9C9C;stroke-width:0.5;stroke-linecap:round;stroke-linejoin:round;" width="117.421" height="13.058"/>
	
		<rect x="36.389" y="102.875" style="fill:#FFFFFF;stroke:#9C9C9C;stroke-width:0.5;stroke-linecap:round;stroke-linejoin:round;" width="117.421" height="13.058"/>
	
		<rect x="50.576" y="101.667" style="fill:#FFFFFF;stroke:#9C9C9C;stroke-width:0.5;stroke-linecap:round;stroke-linejoin:round;" width="14.594" height="14.121"/>
	
		<circle style="fill:#FFFFFF;stroke:#9C9C9C;stroke-width:0.5;stroke-linecap:round;stroke-linejoin:round;" cx="42.246" cy="97.834" r="5.041"/>
	
		<ellipse transform="matrix(0.5367 -0.8438 0.8438 0.5367 -54.2748 88.5252)" style="fill:#FFFFFF;stroke:#9C9C9C;stroke-width:0.5;stroke-linecap:round;stroke-linejoin:round;" cx="53.471" cy="93.684" rx="5.227" ry="12.25"/>
</g>
<g id="armoire">
	
		<rect x="237.962" y="127.991" style="fill:#FFFFFF;stroke:#9C9C9C;stroke-width:0.5;stroke-linecap:round;stroke-linejoin:round;" width="6.913" height="5.856"/>
	
		<rect x="178.333" y="127.991" style="fill:#FFFFFF;stroke:#9C9C9C;stroke-width:0.5;stroke-linecap:round;stroke-linejoin:round;" width="6.913" height="5.856"/>
	<g>
		
			<rect x="178.333" y="22.333" style="fill:#FFFFFF;stroke:#9C9C9C;stroke-width:0.5;stroke-linecap:round;stroke-linejoin:round;" width="33.389" height="105.673"/>
		
			<rect x="204.75" y="71.993" style="fill:#FFFFFF;stroke:#9C9C9C;stroke-width:0.5;stroke-linecap:round;stroke-linejoin:round;" width="2" height="8.466"/>
	</g>
	<g>
		
			<rect x="211.486" y="22.333" style="fill:#FFFFFF;stroke:#9C9C9C;stroke-width:0.5;stroke-linecap:round;stroke-linejoin:round;" width="33.389" height="105.673"/>
		
			<rect x="216.459" y="71.993" style="fill:#FFFFFF;stroke:#9C9C9C;stroke-width:0.5;stroke-linecap:round;stroke-linejoin:round;" width="2" height="8.466"/>
	</g>
	<path style="display:none;fill:#777768;stroke:#9C9C9C;" d="M214.25,76.288c0,0.163-0.14,0.295-0.312,0.295l0,0
		c-0.173,0-0.312-0.132-0.312-0.295v-0.707c0-0.163,0.14-0.295,0.312-0.295l0,0c0.173,0,0.312,0.132,0.312,0.295V76.288z"/>
</g>
<g id="Layer_6">
	<g id="homme">
		<path style="fill:none;stroke:#777768;stroke-width:0.9619;stroke-linecap:round;stroke-linejoin:round;" d="M193.163,89.279
			c0,0.849,0.693,1.536,1.538,1.536s1.535-0.688,1.535-1.536s-0.69-1.533-1.535-1.533S193.163,88.431,193.163,89.279z"/>
		<path style="fill:#FFFFFF;stroke:#787768;stroke-width:1.4428;stroke-linecap:round;stroke-linejoin:round;" d="M187.55,42.807
			c0,4.755,2.94,8.609,6.573,8.609c3.626,0,6.571-3.854,6.571-8.609c0-4.753-2.945-8.607-6.571-8.607
			C190.49,34.2,187.55,38.054,187.55,42.807z"/>
		<path style="fill:none;stroke:#787768;stroke-width:1.4428;stroke-linecap:round;stroke-linejoin:round;" d="M193.958,51.758
			c0.028,6.008-0.812,23.774,0.341,29.542c1.032,5.15,1.49,3.59,0.458,10.802c-1.289,9.035,1.612,17.851,1.926,22.425
			c1.598,23.703,1.743,23.107-3.759,22.421"/>
	</g>
	<g>
		<path style="fill:#FFFFFF;stroke:#777768;stroke-width:0.962;stroke-linecap:round;stroke-linejoin:round;" d="M176.548,71.661
			c-1.024-0.77-1.891-3.332-4.138-4.217c-2.138-0.842-1.961-1.838-2.672-2.772c-0.266-0.349,0.229-0.94-0.207-1.256
			c-0.48-0.348-0.779,0.005-0.958,0.401c-0.378,0.841,0.425,3.357,1.026,3.816c-0.726,0.043-3.039-0.126-3.45,0.571
			c-0.828,1.405,1.939,1.126,2.524,1.17c-0.43,0.11-2.626-0.591-2.336,0.619c0.199,0.829,1.917,0.525,2.527,0.525
			c-0.61-0.03-1.164-0.215-1.757,0.019c-0.333,1.156,1.381,1.402,2.179,1.361c-1.356-0.25-1.646,0.516-0.393,1.063
			c0.807,0.351,2.01,0.389,2.87,0.208C173.45,72.816,174.536,71.356,176.548,71.661"/>
		<path style="fill:none;stroke:#777768;stroke-width:0.962;stroke-linecap:round;stroke-linejoin:round;" d="M194.48,56.473
			c1.803,1.689,1.909,5.238,0.868,7.532c-1.652,3.64-3.68,8.642-7.082,10.254c-2.424,1.147-10.242-1.99-11.718-2.598"/>
	</g>
	<g id="femme">
		
			<path style="fill:url(#New_Pattern_Swatch_3);stroke:#777768;stroke-width:0.9616;stroke-linecap:round;stroke-linejoin:round;" d="
			M232.502,57.245c0.008,1.555-0.046,3.95-0.105,6.716"/>
		
			<ellipse style="fill:url(#New_Pattern_Swatch_3);stroke:#777768;stroke-width:0.9616;stroke-linecap:round;stroke-linejoin:round;" cx="232.502" cy="48.072" rx="6.756" ry="8.849"/>
		<path style="fill:none;stroke:#777768;stroke-width:0.9616;stroke-linecap:round;stroke-linejoin:round;" d="M232.3,68.928
			c-0.102,6.237-0.09,12.919,0.527,15.983c0.96,4.825,2.894,2.896,1.928,9.652c-1.209,8.465-4.505,15.442-3.538,19.624
			c5.268,22.834,5.468,23.487,0.323,22.844"/>
		
			<circle style="fill:#FFFFFF;stroke:#787768;stroke-width:0.9619;stroke-linecap:round;stroke-linejoin:round;" cx="231.205" cy="66.42" r="2.735"/>
	</g>
</g>
</svg>
