<?xml version="1.0" encoding="iso-8859-1"?>
<!-- Generator: Adobe Illustrator 15.0.2, SVG Export Plug-In . SVG Version: 6.00 Build 0)  -->
<!DOCTYPE svg PUBLIC "-//W3C//DTD SVG 1.1//EN" "http://www.w3.org/Graphics/SVG/1.1/DTD/svg11.dtd">
<svg version="1.1" xmlns="http://www.w3.org/2000/svg" xmlns:xlink="http://www.w3.org/1999/xlink" x="0px" y="0px" width="378px"
	 height="140px" viewBox="0 0 378 140" style="enable-background:new 0 0 378 140;" xml:space="preserve">
<g id="FOND">
	<g>
		<rect style="fill:none;" width="378" height="140"/>
		<rect style="fill:#FFFFFF;" width="378" height="140"/>
	</g>
</g>
<g id="Layer_7">
	<path style="opacity:0.25;fill:#52B7E4;" d="M90.852,115.908c9.792,4.34,55.484-2.578,67.829-1.984
		c16.879,0.812,68.528,6.401,71.521,0.971c0-4.134-9.841-4.112-11.009-7.275c-2.47-3.452,14.561-2.769,17.042-7.492
		s-15.651-1.498-15.725-5.323c-0.056-2.914,5.559-1.738,2.394-5.867c-1.49-1.944-6.356-2.396-8.549-2.659
		c-8.29-0.993-24.531-2.976-38.566-3.536c-11.233-0.449,5.298-9.272-45.684-9.272c-36.333,0-1.649,6.272-16.321,10.268
		c-12.659,3.447-27.538-0.039-37.123,0.753c-2.633,0.218-13.667,0.812-9.317,6.198c2.422,2.999,12.79,1.101,12.79,4.609
		c0,2.851-4.206,3.249-4.206,7.477c0,5.362,22.065-1.582,16.881,2.535C88.924,108.394,85.085,113.35,90.852,115.908z"/>
</g>
<g id="glacons">
	<path style="opacity:0.65;fill:#7DEDFF;stroke:#FFFFFF;stroke-width:0.5;" d="M238.86,102.574
		c-1.236,3.705-5.242,5.711-8.947,4.475l-20.129-6.705c-3.703-1.232-5.707-5.238-4.471-8.944l6.701-20.129
		c1.238-3.704,5.244-5.706,8.947-4.474l20.129,6.705c3.707,1.233,5.709,5.239,4.473,8.943L238.86,102.574z"/>
	<path style="opacity:0.65;fill:#7DEDFF;stroke:#FFFFFF;stroke-width:0.5;" d="M205.858,102.912
		c-1.424,3.636-5.523,5.436-9.161,4.016l-19.763-7.721c-3.637-1.422-5.432-5.525-4.013-9.166l7.723-19.758
		c1.422-3.64,5.52-5.435,9.16-4.013l19.764,7.722c3.635,1.419,5.432,5.521,4.012,9.158L205.858,102.912z"/>
	<path style="opacity:0.65;fill:#7DEDFF;stroke:#FFFFFF;stroke-width:0.5;" d="M212.089,45.214c1.49,3.612-0.229,7.749-3.836,9.236
		l-19.611,8.098c-3.609,1.492-7.746-0.229-9.238-3.832l-8.097-19.614c-1.492-3.605,0.228-7.743,3.836-9.234l19.611-8.101
		c3.608-1.488,7.745,0.228,9.237,3.84L212.089,45.214z"/>
	<path style="opacity:0.65;fill:#7DEDFF;stroke:#FFFFFF;stroke-width:0.5;" d="M241.476,105.759
		c-3.719-1.197-5.766-5.181-4.572-8.897l6.49-20.2c1.188-3.719,5.17-5.765,8.891-4.572l20.203,6.483
		c3.717,1.196,5.764,5.179,4.57,8.896l-6.488,20.2c-1.189,3.719-5.172,5.766-8.893,4.572L241.476,105.759z"/>
	<path style="opacity:0.65;fill:#7DEDFF;stroke:#FFFFFF;stroke-width:0.5;" d="M166.084,92.341c2.374,3.1,6.813,3.689,9.917,1.322
		l16.852-12.888c3.102-2.374,3.693-6.814,1.32-9.911l-12.887-16.858c-2.373-3.098-6.813-3.692-9.916-1.322l-16.852,12.89
		c-3.102,2.374-3.693,6.813-1.32,9.911L166.084,92.341z"/>
	<path style="opacity:0.65;fill:#7DEDFF;stroke:#FFFFFF;stroke-width:0.5;" d="M201.407,102.912
		c1.424,3.639,5.521,5.436,9.162,4.015l19.762-7.721c3.637-1.419,5.432-5.522,4.012-9.16l-7.721-19.76
		c-1.422-3.64-5.521-5.436-9.162-4.017l-19.76,7.723c-3.638,1.419-5.433,5.521-4.015,9.16L201.407,102.912z"/>
	<path style="opacity:0.65;fill:#7DEDFF;stroke:#FFFFFF;stroke-width:0.5;" d="M187.776,57.971
		c-1.491,3.609,0.229,7.746,3.833,9.234l19.614,8.102c3.605,1.492,7.742-0.227,9.234-3.836l8.1-19.611
		c1.492-3.608-0.229-7.745-3.84-9.234l-19.605-8.101c-3.613-1.492-7.749,0.228-9.241,3.836L187.776,57.971z"/>
	<path style="opacity:0.65;fill:#7DEDFF;stroke:#FFFFFF;stroke-width:0.5;" d="M145.726,105.178
		c2.285,3.171,6.706,3.889,9.872,1.604l17.214-12.4c3.169-2.282,3.888-6.702,1.605-9.873l-12.4-17.215
		c-2.286-3.166-6.706-3.884-9.872-1.604l-17.214,12.403c-3.169,2.283-3.888,6.702-1.605,9.873L145.726,105.178z"/>
</g>
</svg>
