<?xml version="1.0" encoding="iso-8859-1"?>
<!-- Generator: Adobe Illustrator 13.0.0, SVG Export Plug-In . SVG Version: 6.00 Build 14948)  -->
<!DOCTYPE svg PUBLIC "-//W3C//DTD SVG 1.1//EN" "http://www.w3.org/Graphics/SVG/1.1/DTD/svg11.dtd">
<svg version="1.1" xmlns="http://www.w3.org/2000/svg" xmlns:xlink="http://www.w3.org/1999/xlink" x="0px" y="0px" width="378px"
	 height="140px" viewBox="0 0 378 140" style="enable-background:new 0 0 378 140;" xml:space="preserve">
<g id="Layer_2">
	<g>
		<rect style="fill:none;" width="378" height="140"/>
		<rect style="fill:#FFFFFF;" width="378" height="140"/>
	</g>
</g>
<g id="Layer_3">
	<g style="opacity:0.65;">
		<path style="fill:none;stroke:#777768;stroke-linecap:round;stroke-linejoin:round;" d="M204.926,36.896
			c0,6.277-4.142,11.366-9.25,11.366c-5.107,0-9.25-5.088-9.25-11.366c0-6.281,4.142-11.368,9.25-11.368
			C200.784,25.528,204.926,30.615,204.926,36.896z"/>
		<path style="fill:none;stroke:#777768;stroke-linecap:round;stroke-linejoin:round;" d="M195.676,48.262
			c0,4.394-0.198,26.048-1.535,39.301c-1.229,12.137-7.718,43.238-12.527,49.692h-4.662"/>
		<path style="fill:none;stroke:#777768;stroke-linecap:round;stroke-linejoin:round;" d="M194.252,86.384
			c-0.778,8.052,4.521,43.031,7.221,50.871c0,0-0.245,0,4.37,0.245"/>
		<path style="fill:none;stroke:#777768;stroke-linecap:round;stroke-linejoin:round;" d="M190.747,92.507
			c-3.935-6.625-1.823-30.23,4.897-29.876c4.37,0.221,6.032,22.74,6.244,28.224"/>
		<path style="fill:none;stroke:#777768;stroke-linecap:round;stroke-linejoin:round;" d="M192.211,35.542
			c0.461-0.647,0.502-0.938,0.109-0.886c-0.153,0.467-0.066,0.806-0.109,1.274"/>
		<path style="fill:none;stroke:#777768;stroke-linecap:round;stroke-linejoin:round;" d="M199.169,35.542
			c-0.458-0.647-0.502-0.938-0.115-0.886c0.156,0.467,0.076,0.806,0.115,1.274"/>
		<path style="fill:none;stroke:#777768;stroke-linecap:round;stroke-linejoin:round;" d="M192.981,42.482
			c1.707,0.94,2.789,1.339,5.001,0.382"/>
	</g>
	<g>
		<path style="fill:#FFFFFF;stroke:#777768;stroke-width:1.4;stroke-linecap:round;stroke-linejoin:round;" d="M262.022,45.076
			c0,5.214-3.589,9.448-8.019,9.448c-4.427,0-8.021-4.234-8.021-9.448c0-5.217,3.594-9.444,8.021-9.444
			C258.434,35.632,262.022,39.859,262.022,45.076z"/>
		<path style="fill:#FFFFFF;stroke:#777768;stroke-width:1.4;stroke-linecap:round;stroke-linejoin:round;" d="M254.558,54.743
			c0,6.013,0.168,6.1,0.229,12.068c0.034,3.569-9.896,39.205-12.094,43.119c-1.337,2.381-3.282,4.891-3.823,7.614
			c11.034-0.284,22.244-0.113,34.105-1.771c-2.036-3.117-2.659-8.125-4.869-11.207c-3.336-4.688-4.675-9.042-6.384-14.507
			c-0.862-2.762-6.382-20.539-6.936-23.249"/>
		<path style="fill:#FFFFFF;stroke:#777768;stroke-width:1.4;stroke-linecap:round;stroke-linejoin:round;" d="M253.943,117.431
			c0.46,4.193-0.312,17.693-0.646,20.041c0,0-1.53,0-2.372,0"/>
		<path style="fill:#FFFFFF;stroke:#777768;stroke-width:1.4;stroke-linecap:round;stroke-linejoin:round;" d="M259.428,117.22
			c0.108,2.234-0.082,20.252,0.983,20.252c0.557,0,0.624,0.064,2.27,0"/>
		<g>
			<path style="fill:#FFFFFF;stroke:#777768;stroke-width:1.4;stroke-linecap:round;stroke-linejoin:round;" d="M251.043,43.157
				c-0.057,0.148-0.057,0.281,0.023,0.4c0.035-0.1,0.048-0.188,0.039-0.293c-0.004,0.041-0.02,0.12-0.03,0.17
				c0-0.07-0.003-0.144,0-0.206"/>
		</g>
		<g>
			<path style="fill:#FFFFFF;stroke:#777768;stroke-width:1.4;stroke-linecap:round;stroke-linejoin:round;" d="M257.337,43.157
				c0.052,0.148,0.052,0.281-0.032,0.4c-0.026-0.1-0.042-0.188-0.036-0.293c0.01,0.041,0.025,0.12,0.032,0.17
				c0-0.07,0-0.144,0-0.206"/>
		</g>
		<path style="fill:#FFFFFF;stroke:#777768;stroke-linecap:round;stroke-linejoin:round;" d="M251.409,49.206
			c0.186,0.085,1.321,0.668,2.34,0.708c0.961,0.037,1.806-0.465,1.97-0.558c-0.634,0.51-1.141,1.672-2.152,1.416
			c-0.471-0.123-1.856-1.255-1.938-1.459"/>
		<path style="fill:none;stroke:#777768;stroke-width:1.4;stroke-linecap:round;stroke-linejoin:round;" d="M246.563,91.048
			c-0.067-3.82,2.632-16.002,3.454-20.277c0.64-3.347,1.396-10.768,4.63-12.772c1.799,1.799,3.637,15.822,5.022,19.185
			c2.146,5.181,4.011,8.755,8.018,10.788"/>
	</g>
	<path style="opacity:0.13;fill:none;stroke:#777768;stroke-linecap:round;stroke-linejoin:round;" d="M118.14,29.765
		c0,5.289-0.239,31.359-1.848,47.317c-1.476,14.615-9.294,52.467-15.082,60.238h-5.615"/>
	<path style="opacity:0.13;fill:none;stroke:#777768;stroke-linecap:round;stroke-linejoin:round;" d="M116.469,75.229
		c-0.937,9.672,6.606,52.523,9.859,61.979c0,0-0.291,0,5.261,0.293"/>
	<path style="opacity:0.13;fill:none;stroke:#777768;stroke-linecap:round;stroke-linejoin:round;" d="M102.985,83.623
		c-2.799-7.977,7.026-43.633,15.12-43.206c5.261,0.264,4.713,26.542,8.001,41.655"/>
	<g style="opacity:0.13;">
		<path style="fill:none;stroke:#777768;stroke-width:0.9592;" d="M130.69,17.363c-0.814,7.515-6.433,13.065-12.55,12.401
			c-6.11-0.662-10.404-7.291-9.589-14.808c0.819-7.519,6.437-13.067,12.547-12.403C127.216,3.218,131.509,9.845,130.69,17.363z"/>
		<path style="fill:#FFFFFF;stroke:#777768;stroke-width:0.9592;stroke-linecap:round;" d="M115.647,14.09
			c0.638-0.717,0.727-1.058,0.25-1.048c-0.246,0.545-0.184,0.957-0.298,1.513"/>
		<path style="fill:#FFFFFF;stroke:#777768;stroke-width:0.9592;stroke-linecap:round;" d="M123.977,14.996
			c-0.465-0.837-0.475-1.189-0.021-1.076c0.125,0.582-0.014,0.975-0.031,1.539"/>
		<path style="fill:#FFFFFF;stroke:#777768;stroke-width:0.9592;stroke-linecap:round;" d="M115.667,22.499
			c1.921,1.346,4.259,3.246,5.941,1.104"/>
		<path style="fill:#777768;stroke:#777768;stroke-width:0.7195;stroke-linecap:round;stroke-linejoin:round;" d="M119.852,21.032
			c-0.591-0.309-0.718,0.642,0.104,0.852c0.605,0.156,1.119,0.165,1.66,0.449c0.901,0.482,2.074,1.543,2.614-0.028
			c-1.317,1.783-3.63-2.912-4.64-1.243"/>
		<path style="fill:#777768;stroke:#777768;stroke-width:0.7195;stroke-linecap:round;stroke-linejoin:round;" d="M118.248,20.859
			c0.641-0.177,0.572,0.78-0.288,0.808c-0.612,0.021-1.124-0.08-1.703,0.083c-0.988,0.276-2.364,1.062-2.554-0.589
			c0.903,2.023,4.175-2.063,4.794-0.219"/>
	</g>
	<g style="opacity:0.13;">
		<path style="fill:#FFFFFF;stroke:#777768;stroke-linecap:round;stroke-linejoin:round;" d="M148.161,25.962
			c0,6.279-4.32,11.377-9.653,11.377c-5.33,0-9.658-5.098-9.658-11.377c0-6.282,4.328-11.373,9.658-11.373
			C143.841,14.589,148.161,19.68,148.161,25.962z"/>
		<path style="fill:#FFFFFF;stroke:#777768;stroke-linecap:round;stroke-linejoin:round;" d="M139.177,37.601
			c0,7.241,1.244,14.246,1.317,21.434c0.041,4.297-0.517,8.605-0.776,12.88c-0.396,6.504-4.478,12.049-7.418,17.793
			c-2.466,4.805-4.769,9.627-7.411,14.34c-1.608,2.865-3.953,5.887-4.605,9.166c13.289-0.342,28.315-6.473,41.063-2.131
			c-2.448-3.754-6.024-7.078-8.688-10.789c-4.016-5.641-6.918-10.432-8.975-17.012c-1.041-3.324-1.737-6.701-2.403-9.965
			c-0.413-1.977-1.241-3.996-1.047-6.102"/>
		<path style="fill:#FFFFFF;stroke:#777768;stroke-linecap:round;stroke-linejoin:round;" d="M138.327,110.812
			c0.552,5.049,1.172,23.43,0.773,26.256c-0.562,0.564-1.828,0.049-2.857,0.297"/>
		<path style="fill:#FFFFFF;stroke:#777768;stroke-linecap:round;stroke-linejoin:round;" d="M144.984,110.064
			c0.132,2.691,1.728,25.959,2.636,26.867c0.684,0.68,1.426,0.453,3.392-0.078"/>
		<g>
			<path style="fill:none;stroke:#777768;stroke-linecap:round;stroke-linejoin:round;" d="M134.942,23.65
				c-0.069,0.181-0.069,0.34,0.031,0.482c0.038-0.118,0.056-0.226,0.042-0.351c-0.004,0.049-0.021,0.143-0.035,0.205
				c0-0.087,0-0.174,0-0.25"/>
			<path style="fill:none;stroke:#777768;stroke-width:0.4;stroke-linecap:round;stroke-linejoin:round;" d="M134.627,23.605
				c-0.107-0.19-0.205-0.398-0.219-0.617"/>
			<path style="fill:none;stroke:#777768;stroke-width:0.4;stroke-linecap:round;stroke-linejoin:round;" d="M134.724,22.785
				c0.084,0.132,0.084,0.619,0.084,0.779"/>
			<path style="fill:none;stroke:#777768;stroke-width:0.4;stroke-linecap:round;stroke-linejoin:round;" d="M134.98,23.564
				c-0.007-0.27,0.177-0.462,0.19-0.741"/>
			<path style="fill:none;stroke:#777768;stroke-width:0.4;stroke-linecap:round;stroke-linejoin:round;" d="M135.116,23.564
				c0.204-0.143,0.398-0.394,0.356-0.628"/>
		</g>
		<g>
			<path style="fill:none;stroke:#777768;stroke-linecap:round;stroke-linejoin:round;" d="M142.519,23.65
				c0.062,0.181,0.062,0.34-0.038,0.482c-0.027-0.118-0.052-0.226-0.041-0.351c0.014,0.049,0.027,0.143,0.038,0.205
				c0-0.087,0-0.174,0-0.25"/>
			<path style="fill:none;stroke:#777768;stroke-width:0.4;stroke-linecap:round;stroke-linejoin:round;" d="M142.835,23.605
				c0.104-0.19,0.204-0.369,0.354-0.593"/>
			<path style="fill:none;stroke:#777768;stroke-width:0.4;stroke-linecap:round;stroke-linejoin:round;" d="M142.929,22.785
				c-0.08,0.132-0.278,0.619-0.278,0.779"/>
			<path style="fill:none;stroke:#777768;stroke-width:0.4;stroke-linecap:round;stroke-linejoin:round;" d="M142.478,23.564
				c0.003-0.27-0.104-0.576-0.111-0.854"/>
			<path style="fill:none;stroke:#777768;stroke-width:0.4;stroke-linecap:round;stroke-linejoin:round;" d="M142.342,23.564
				c-0.239-0.254-0.277-0.328-0.426-0.666"/>
		</g>
		<path style="fill:#DE1608;stroke:#DE1608;stroke-width:0.25;stroke-linecap:round;stroke-linejoin:round;" d="M135.383,30.936
			c0.438,0.195,0.729,0.466,1.276,0.313c0.208-0.049,0.367-0.228,0.568-0.274c0.357-0.093,0.312,0.104,0.576,0.143
			c0.288,0.04,0.229-0.196,0.534-0.186c0.139,0.004,0.405,0.269,0.572,0.313c0.481,0.111,1.255,0.103,1.663-0.128
			c-0.766,0.614-1.376,2.01-2.593,1.705c-0.565-0.149-1.006-0.521-1.408-0.902c-0.235-0.232-0.829-0.612-0.926-0.858"/>
		<path style="fill:none;stroke:#777768;stroke-linecap:round;stroke-linejoin:round;" d="M131.506,81.242
			c1.245-8.457,1.21-19.194,2.205-24.344c0.767-4.028,1.679-12.965,5.57-15.377c2.166,2.167,8.606,18.55,9.23,25.181
			c0.434,4.597,1.686,14.271,0.593,16.718"/>
	</g>
	<g style="opacity:0.13;">
		<path style="fill:none;stroke:#777768;stroke-width:0.4261;stroke-linecap:round;stroke-linejoin:round;" d="M102.794,83.859
			c0.402,3.838,1.474,8.502,3.506,11.732c-2.435-5.262-3.003-10.09-3.36-11.881c1.314,3.152,4.668,7.311,6.44,10.189
			c-1.501-2.078-4.432-8.354-5.961-9.551c1.881,0.678,7.541,5.639,9.209,7.309c-2.817-2.246-6.743-6.209-9.688-7.947
			c2.819-0.209,6.95,3.352,9.006,4.889c-1.03-0.611-6.624-4.787-8.85-5.104c1.505-0.365,5.949-1.092,6.256-1.117"/>
		<path style="opacity:0.65;fill:none;stroke:#FFE000;stroke-width:1.7985;stroke-linecap:round;stroke-linejoin:round;" d="
			M105.614,89.252c0.451-0.482,0.477-0.727,1.224-0.652"/>
	</g>
	<g style="opacity:0.13;">
		<path style="fill:none;stroke:#777768;stroke-width:0.8878;stroke-linecap:round;stroke-linejoin:round;" d="M149.104,83.42
			c-0.402,3.838-1.474,8.5-3.506,11.73c2.435-5.26,3.003-10.09,3.36-11.879c-1.314,3.15-4.668,7.312-6.44,10.189
			c1.502-2.08,4.433-8.355,5.962-9.551c-1.883,0.678-7.543,5.641-9.21,7.309c2.818-2.246,6.741-6.211,9.688-7.947
			c-2.819-0.211-6.95,3.352-9.005,4.889c1.028-0.613,6.622-4.789,8.849-5.104c-1.509-0.365-5.947-1.092-6.256-1.117"/>
		<path style="fill:none;stroke:#FFE000;stroke-width:1.7985;stroke-linecap:round;stroke-linejoin:round;" d="M146.285,88.811
			c-0.451-0.48-0.479-0.727-1.224-0.65"/>
	</g>
	<g style="opacity:0.13;">
		<path style="fill:none;stroke:#777768;stroke-width:0.8878;stroke-linecap:round;stroke-linejoin:round;" d="M128.967,84.541
			c0.652-0.129,1.431,0.916,2.781,3.91c-0.065-1.158,0.046-6.066-0.242-7.209c0.204,1.232-0.143,6.025,0.242,7.209
			c-0.842-1.057-0.804-4.164-1.234-5.113"/>
		<path style="fill:none;stroke:#777768;stroke-width:0.8878;stroke-linecap:round;stroke-linejoin:round;" d="M127.545,89.301
			c1.853-3.221,3.648-7.611,3.961-8.059c-0.624,2.148-1.314,6.145-2.431,8.064"/>
	</g>
	<g style="opacity:0.13;">
		<path style="fill:none;stroke:#777768;stroke-width:0.8878;stroke-linecap:round;stroke-linejoin:round;" d="M129.075,89.307
			c-0.739-1.055-1.998-4.561-2.452-5.928c-0.784,1.26-0.635,4.408-0.479,5.818c1.359-2.393,1.987-4.492,2.822-4.656"/>
		<path style="fill:none;stroke:#777768;stroke-width:0.8878;stroke-linecap:round;stroke-linejoin:round;" d="M126.064,81.67
			c0.687,2.725,3.364,4.955,4.48,7.301c0.322-2.125-3.991-4.842-4.438-6.898c0.017,0.723,1.353,5.812,1.438,7.229"/>
	</g>
	<g style="opacity:0.65;">
		<path style="fill:none;stroke:#777768;stroke-linecap:round;stroke-linejoin:round;" d="M234.968,51.474
			c0,5.368-3.542,9.719-7.91,9.719c-4.367,0-7.909-4.351-7.909-9.719c0-5.371,3.542-9.72,7.909-9.72
			C231.426,41.754,234.968,46.104,234.968,51.474z"/>
		<path style="fill:none;stroke:#777768;stroke-linecap:round;stroke-linejoin:round;" d="M227.058,61.193
			c0,3.757-0.169,22.274-1.312,33.606c-1.051,10.378-6.6,36.973-10.711,42.491h-3.987"/>
		<path style="fill:none;stroke:#777768;stroke-linecap:round;stroke-linejoin:round;" d="M225.84,93.791
			c-0.665,6.885,3.867,36.796,6.175,43.499c0,0-0.21,0,3.737,0.21"/>
		<path style="fill:none;stroke:#777768;stroke-linecap:round;stroke-linejoin:round;" d="M222.844,99.026
			c-3.365-5.665-1.56-25.85,4.188-25.547c3.736,0.189,5.158,19.444,5.339,24.134"/>
		<path style="fill:none;stroke:#777768;stroke-linecap:round;stroke-linejoin:round;" d="M224.095,50.317
			c0.395-0.553,0.43-0.802,0.094-0.757c-0.131,0.399-0.057,0.689-0.094,1.089"/>
		<path style="fill:none;stroke:#777768;stroke-linecap:round;stroke-linejoin:round;" d="M230.045,50.317
			c-0.392-0.553-0.43-0.802-0.099-0.757c0.134,0.399,0.065,0.689,0.099,1.089"/>
		<path style="fill:none;stroke:#777768;stroke-linecap:round;stroke-linejoin:round;" d="M224.754,56.251
			c1.46,0.804,2.385,1.145,4.276,0.327"/>
	</g>
	<g style="opacity:0.65;">
		
			<ellipse style="fill:none;stroke:#777768;stroke-linecap:round;stroke-linejoin:round;" cx="285.706" cy="80.592" rx="4.938" ry="5.818"/>
		<path style="fill:none;stroke:#777768;stroke-linecap:round;stroke-linejoin:round;" d="M286.047,86.545
			c0,3.702,0.104,3.756,0.141,7.43c0.021,2.198-6.093,16.128-7.447,18.538c-0.822,1.466-2.021,3.012-2.354,4.688
			c6.795-0.176,13.697-0.069,21-1.09c-1.255-1.919-4.013-4.95-5.064-8.314c-0.531-1.7-5.794-12.154-6.135-13.822"/>
		<path style="fill:none;stroke:#777768;stroke-linecap:round;stroke-linejoin:round;" d="M285.669,117.132
			c0.283,2.581-0.192,18.904-0.397,20.351c0,0-0.942,0-1.461,0"/>
		<path style="fill:none;stroke:#777768;stroke-linecap:round;stroke-linejoin:round;" d="M289.045,117.001
			c0.067,1.376-0.05,20.481,0.605,20.481c0.344,0,0.385,0.039,1.398,0"/>
		<g>
			<path style="fill:none;stroke:#777768;stroke-linecap:round;stroke-linejoin:round;" d="M283.882,79.41
				c-0.034,0.092-0.034,0.174,0.016,0.247c0.021-0.062,0.029-0.115,0.023-0.181c-0.002,0.025-0.012,0.074-0.019,0.104
				c0-0.044-0.002-0.088,0-0.127"/>
		</g>
		<g>
			<path style="fill:none;stroke:#777768;stroke-linecap:round;stroke-linejoin:round;" d="M287.758,79.41
				c0.031,0.092,0.031,0.174-0.02,0.247c-0.016-0.062-0.025-0.115-0.022-0.181c0.007,0.025,0.016,0.074,0.021,0.104
				c0-0.044,0-0.088,0-0.127"/>
		</g>
		<path style="fill:none;stroke:#777768;stroke-width:0.5;stroke-linecap:round;stroke-linejoin:round;" d="M284.108,83.135
			c0.113,0.053,0.813,0.412,1.44,0.437c0.592,0.023,1.111-0.286,1.213-0.343c-0.39,0.313-0.702,1.028-1.325,0.87
			c-0.29-0.074-1.143-0.772-1.193-0.897"/>
		<path style="fill:none;stroke:#777768;stroke-linecap:round;stroke-linejoin:round;" d="M267.688,87.971
			c5.239,5.239,5.796,8.166,8.477,8.166c2.454,0,7.946-6.354,9.938-7.588c1.106,1.107,2.238,3.812,3.092,5.883
			c1.322,3.189,2.621,12.113-1.165,13.365"/>
	</g>
</g>
</svg>
