<?xml version="1.0" encoding="iso-8859-1"?>
<!-- Generator: Adobe Illustrator 13.0.0, SVG Export Plug-In . SVG Version: 6.00 Build 14948)  -->
<!DOCTYPE svg PUBLIC "-//W3C//DTD SVG 1.1//EN" "http://www.w3.org/Graphics/SVG/1.1/DTD/svg11.dtd">
<svg version="1.1" xmlns="http://www.w3.org/2000/svg" xmlns:xlink="http://www.w3.org/1999/xlink" x="0px" y="0px" width="540px"
	 height="200px" viewBox="0 0 540 200" style="enable-background:new 0 0 540 200;" xml:space="preserve">
<g id="FOND">
	<g>
		<rect style="fill:#FFFFFF;" width="540" height="200"/>
	</g>
</g>
<g id="Layer_5">
	<g>
		<g>
			<path style="fill:#FFFFFF;stroke:#777768;stroke-width:1.7135;" d="M73.598,17.249c0,6.747,4.177,12.219,9.333,12.219
				c5.148,0,9.328-5.472,9.328-12.219c0-6.749-4.18-12.219-9.328-12.219C77.775,5.03,73.598,10.5,73.598,17.249z"/>
			<path style="fill:none;stroke:#777768;stroke-width:1.7135;" d="M82.693,29.955c0.016,2.894,0.135,13.337,0.291,26.127"/>
			<path style="fill:#777768;stroke:#777768;stroke-width:1.7135;stroke-linecap:round;stroke-linejoin:round;" d="M83.068,33.331
				c1.147-0.446,2.352-1.499,3.534-1.546c-0.083,1.895-0.643,3.866-0.711,5.797c-1.465-0.568-1.984-2.787-3.163-3.712
				c-0.49-0.387-0.93-0.862-1.511-1.214c-0.658-0.401-1.209-0.955-1.955-1.163c-0.058,0.765,0.138,1.692-0.05,2.436
				c-0.194,0.76-1.476,1.835-1.116,2.67c0.466,1.098,4.142-2.14,4.632-2.984"/>
			<path style="fill:none;stroke:#777768;stroke-width:1.7135;stroke-linecap:round;stroke-linejoin:round;" d="M74.564,56.084
				c0.399-1.489,0.795-2.835,1.118-3.56c1.618-3.625,4.292-11.68,7.091-14.362"/>
		</g>
	</g>
	<g>
		<g>
			
				<rect x="488.035" y="100.724" style="fill:#D5312C;stroke:#FFFFFF;stroke-width:0.916;stroke-linecap:square;" width="4.482" height="64.386"/>
			<g>
				<path style="fill:#D5312C;" d="M512.855,96.771h-57.998c-1.406,0-2.545,1.138-2.545,2.542c0,0,0-1.404,0,0
					s1.139,2.543,2.545,2.543h57.998"/>
				<path style="fill:none;stroke:#FFFFFF;stroke-width:1.374;" d="M512.855,96.771h-57.998c-1.406,0-2.545,1.138-2.545,2.542
					c0,0,0-1.404,0,0s1.139,2.543,2.545,2.543h57.998"/>
			</g>
		</g>
		<g>
			<rect x="220.973" y="92.911" style="fill:#65B724;stroke:#FFFFFF;stroke-width:1.374;" width="5.479" height="72.815"/>
			<path style="fill:#65B724;stroke:#FFFFFF;stroke-width:1.374;" d="M239.664,96.9h-31.911v-7.98c0,0,7.568-3.492,15.547-3.492
				s16.364,3.492,16.364,3.492V96.9z"/>
			<rect x="213.487" y="148.463" style="fill:#65B724;stroke:#FFFFFF;stroke-width:0.916;" width="20.447" height="1.869"/>
		</g>
		
			<line style="fill:none;stroke:#65B724;stroke-width:3.427;stroke-linecap:round;" x1="26.713" y1="56.053" x2="194.604" y2="56.053"/>
		
			<line style="fill:none;stroke:#65B724;stroke-width:3.427;stroke-linecap:square;" x1="194.604" y1="56.053" x2="194.604" y2="80.097"/>
		
			<line style="fill:none;stroke:#65B724;stroke-width:3.427;stroke-linecap:square;" x1="194.604" y1="80.097" x2="184.299" y2="80.097"/>
		
			<line style="fill:none;stroke:#65B724;stroke-width:3.427;stroke-linecap:square;" x1="184.299" y1="80.097" x2="184.299" y2="164.822"/>
		<line style="fill:none;stroke:#65B724;stroke-width:3.427;" x1="184.299" y1="164.822" x2="512.855" y2="164.822"/>
		<g>
			<g>
				
					<line style="fill:none;stroke:#65B724;stroke-width:4.2837;stroke-linecap:round;stroke-linejoin:round;" x1="430.012" y1="85.414" x2="430.012" y2="124.012"/>
				
					<line style="fill:none;stroke:#65B724;stroke-width:4.2837;stroke-linecap:round;stroke-linejoin:round;" x1="430.012" y1="124.012" x2="468.605" y2="124.012"/>
				
					<line style="fill:none;stroke:#65B724;stroke-width:4.2837;stroke-linecap:round;stroke-linejoin:round;" x1="468.605" y1="124.012" x2="429.971" y2="162.65"/>
				
					<line style="fill:none;stroke:#65B724;stroke-width:4.2837;stroke-linecap:round;stroke-linejoin:round;" x1="429.971" y1="162.65" x2="452.225" y2="162.65"/>
			</g>
		</g>
	</g>
</g>
<g id="Layer_4">
	<g>
		<g>
			<g>
				<path style="fill:#FFFFFF;stroke:#777768;stroke-width:1.7135;stroke-linecap:round;stroke-linejoin:round;" d="M195.103,32.291
					c0,8.056-4.989,14.585-11.141,14.585c-6.148,0-11.136-6.529-11.136-14.585c0-8.052,4.988-14.581,11.136-14.581
					C190.113,17.71,195.103,24.239,195.103,32.291z"/>
				<path style="fill:none;stroke:#777768;stroke-width:1.7135;stroke-linecap:round;stroke-linejoin:round;" d="M184.299,66.667
					c0.166,10.286,0.149,21.303-0.864,26.345c-1.592,7.959-4.773,4.781-3.186,15.914c2,13.953,7.425,25.46,5.84,32.353
					c-8.688,37.642-9.019,38.717-0.532,37.655"/>
				<path style="fill:none;stroke:#777768;stroke-width:1.7135;stroke-linecap:round;stroke-linejoin:round;" d="M183.962,47.403
					c-0.009,2.518,0.076,6.371,0.172,10.82"/>
				<path style="fill:#FFFFFF;stroke:#777768;stroke-width:1.7135;stroke-linecap:round;stroke-linejoin:round;" d="M190.611,62.534
					c0,2.486-2.021,4.515-4.511,4.515c-2.485,0-4.502-2.029-4.502-4.515c0-2.492,2.017-4.505,4.502-4.505
					C188.591,58.028,190.611,60.042,190.611,62.534z"/>
			</g>
		</g>
		<g>
			<path style="fill:none;stroke:#777768;stroke-width:1.7135;stroke-linecap:round;stroke-linejoin:round;" d="M247.547,100.228
				c0,1.406,1.147,2.543,2.547,2.543c1.398,0,2.542-1.138,2.542-2.543c0-1.404-1.144-2.537-2.542-2.537
				C248.694,97.691,247.547,98.824,247.547,100.228z"/>
			<path style="fill:#FFFFFF;stroke:#777768;stroke-width:2.5702;stroke-linecap:round;stroke-linejoin:round;" d="M238.252,23.286
				c0,7.873,4.871,14.252,10.883,14.252c6.003,0,10.879-6.379,10.879-14.252c0-7.871-4.876-14.25-10.879-14.25
				C243.123,9.035,238.252,15.415,238.252,23.286z"/>
			<path style="fill:none;stroke:#777768;stroke-width:2.5702;stroke-linecap:round;stroke-linejoin:round;" d="M248.863,38.104
				c0.047,9.948-1.343,39.363,0.565,48.912c1.708,8.528,2.467,5.945,0.757,17.885c-2.133,14.96,2.67,29.555,3.189,37.127
				c2.645,39.244,2.885,38.259-6.223,37.123"/>
		</g>
	</g>
	<g>
		<path style="fill:none;stroke:#777768;stroke-width:0.8678;stroke-linecap:round;stroke-linejoin:round;" d="M270.828,13.285
			c-3.997-5.41,4.421-9.56,5.375-2.689c0.414,2.98-2.151,4.732-3.358,7.097c-0.802,1.574-2.951,7.4-2.017,6.346"/>
		<path style="fill:none;stroke:#777768;stroke-width:0.8678;stroke-linecap:round;stroke-linejoin:round;" d="M269.813,29.755
			c-0.219,0.492-0.44,0.981-0.661,1.472"/>
	</g>
	<path style="fill:#FFFFFF;stroke:#777768;stroke-width:1.713;stroke-linecap:round;stroke-linejoin:round;" d="M231.895,13.411
		c7.689-4.158,23.675,1.832,19.549,9.177c0.908-2.057-1.14-4.849-2.293-5.816c-1.159-0.963-4.456-0.762-6.006-1.266
		c0.319,1.07,2.549,1.838,2.284,3.005c-0.478,2.125-3.166,1.026-4.25,0.071c0.494,0.551,0.782,1.448,1.17,1.986
		c-1.463-0.337-2.801-1.497-4.041-2.4c0.03,0.157,0.104,0.289,0.221,0.405c-1.316-0.89-2.125-4.768-3.34-6.326"/>
	<path style="fill:none;stroke:#777768;stroke-width:1.713;stroke-linecap:round;stroke-linejoin:round;" d="M248.718,47.907
		c-3.398,0.97-10.594-1.174-16.9-6.728c-6.331-5.574-7.31-17.218-2.837-25c0.689-1.2,1.698-2.111,2.914-2.769"/>
</g>
</svg>
