<?xml version="1.0" encoding="iso-8859-1"?>
<!-- Generator: Adobe Illustrator 13.0.0, SVG Export Plug-In . SVG Version: 6.00 Build 14948)  -->
<!DOCTYPE svg PUBLIC "-//W3C//DTD SVG 1.1//EN" "http://www.w3.org/Graphics/SVG/1.1/DTD/svg11.dtd">
<svg version="1.1" xmlns="http://www.w3.org/2000/svg" xmlns:xlink="http://www.w3.org/1999/xlink" x="0px" y="0px" width="540px"
	 height="200px" viewBox="0 0 540 200" style="enable-background:new 0 0 540 200;" xml:space="preserve">
<g id="Layer_2">
	<g>
		<rect style="fill:none;" width="540" height="200"/>
		<rect style="fill:#FFFFFF;" width="540" height="200"/>
	</g>
</g>
<g id="Layer_3">
	<g>
		<g>
			<path style="fill:#E2E1E0;stroke:#C4C4C4;stroke-width:0.2229;" d="M358.762,151.434c1.549-5.434-1.334-7.901-7.939-12.808
				c-5.965-4.427-20.432-2.479-27.811-1.786c-10.088,0.959-36.352-8.218-50.996-12.76l-0.893,1.396"/>
			<path style="fill:#E2E1E0;stroke:#C4C4C4;stroke-width:0.2229;" d="M358.859,151.095c-1.564,5.434-5.406,6.335-13.619,6.993
				c-7.414,0.579-18.646-8.744-24.527-13.245c-8.742-6.696-37.131-12.941-51.176-16.838l1.586-2.528"/>
		</g>
		<path style="fill:#FFFFFF;stroke:#89898A;stroke-width:1.4863;" d="M288.6,160.562c0,13.158-20.58,23.812-45.951,23.812
			c-25.375,0-45.949-10.653-45.949-23.812c0-13.146,20.574-23.803,45.949-23.803C268.02,136.76,288.6,147.416,288.6,160.562z"/>
		<path style="fill:#FFFFFF;stroke:#89898A;stroke-width:1.4863;" d="M307.391,84.546c-6.016,51.139-30.453,70.173-63.908,70.173
			c-33.445,0-60.566-23.659-60.566-52.841c0-29.185,27.303-56.359,60.566-52.84C273.734,52.239,309.066,70.342,307.391,84.546z"/>
		<path style="fill:#9E7D46;stroke:#8A5D1C;stroke-width:0.0743;" d="M288.035,81.868c2.662-1.109,4.969-7.741,2.729-10.113
			c-2.02-2.132-6.631-1.947-8.945-0.771c-2.18,1.109-1.727-0.46-2.33,2.333c-0.246,1.138,0.248,4.117,0.838,5.053
			c1.801,2.864,6.471,1.735,7.318,4.667"/>
		<path style="fill:#C18B14;stroke:#996611;stroke-width:0.0743;" d="M294.062,79.215c0.691,0.55,3.531,0.269,4.35,0.502
			c1.465-1.934,0.803,1.889,3.047,0.396c1.674-1.122,0.408-3.928,2.617-5.449c-0.74-1.694-1.812-2.94-1.914-4.702
			c-1.764-0.94-3.752-1.64-4.676-3.506c-1.861,1.259-9.42-0.678-6.965,4.126c-3.922,2.32,0.969,8.256,4.33,8.633"/>
		<path style="fill:#CA9966;stroke:#C18B14;stroke-width:0.0743;" d="M300.9,92.818c-0.691,0.547-1.832,0.895-2.654,1.122
			c-1.471-1.927-2.49,1.275-4.74-0.224c-1.674-1.122-0.402-3.928-2.613-5.453c0.74-1.691,1.809-2.934,1.914-4.699
			c1.764-0.939,3.756-1.64,4.67-3.509c1.863,1.266,9.432-0.678,6.971,4.129c3.922,2.324-0.971,8.253-4.32,8.633"/>
		<path style="fill:#BBA27A;stroke:#8A5D1C;stroke-width:0.0743;" d="M243.076,79.94c0-1.995-11.996-3.375-10.234,1.576
			c-0.893,0.138-1.863,1.061-2.749,1.186c1.538,4.347-1.132,7.051,4.632,7.792c2.447,0.316,3.25,0.492,5.197-1.633
			C241.261,87.384,242.775,82.101,243.076,79.94"/>
		<path style="fill:#FFFFFF;stroke:#89898A;stroke-width:1.4863;" d="M278.398,28.916c6.484,5.488,4.637,15.048,3.525,22.642
			c-0.57,3.864-1.723,6.364-3.375,9.595c-1.637,3.2-2.057,11.363-4.889,13.332c-9.469-15.802-26.371-11.74-40.482-18.743
			c2.023-5.069,10.448-9.202,14.92-12.245c4.021-2.736,8.242-5.296,12.098-8.221c2.79-2.122,4.871-4.209,8.375-5.04
			C271.33,29.577,275.506,29.174,278.398,28.916"/>
		<path style="fill:#8A5D1C;stroke:#8A5D1C;stroke-width:0.0743;" d="M271.926,61.575c-0.119,1.333,0.869,2.244,2.33,2.758
			c2.08-2.007,5.4-8.959,0.441-9.432c-0.018-4.59-7.154-6.654-9.449-2.707c-0.553-0.061-1.262,0.125-1.809,0.122
			c-2.624,3.42,0.172,7.003,2.627,9.183c-0.357,0.131-0.664-0.022-1.006,0.048c1.393,1.375,3.492,1.192,5.254,1.915
			c-0.031-0.016-0.463-0.626-0.562-0.754c0.662,1.125,0.979,0.431,1.781,0.425"/>
		<path style="fill:#9E7D46;stroke:#8A5D1C;stroke-width:0.0743;" d="M256.35,91.62c-3.125-1.544-4.081-1.02-6.123,1.24
			c-0.582,0.646-0.697,1.879-1.34,2.63c-0.924,1.086-2.49,1.221-3.43,2.336c-3.822,4.583-1.061,7.638,3.9,9.036
			c5.168,1.46,8.284-0.879,11.26-5.922c1.506-2.567,1.848-1.963,0.294-5.057c-0.786-1.588-1.323-3.529-3.397-3.49"/>
		<path style="fill:#8A5D1C;stroke:#8A5D1C;stroke-width:0.0743;" d="M286.586,70.626c2.66-1.112,4.965-7.741,2.725-10.113
			c-2.021-2.135-6.629-1.95-8.947-0.777c-2.184,1.116-1.727-0.457-2.33,2.34c-0.242,1.131,0.25,4.113,0.842,5.05
			c1.799,2.864,6.469,1.739,7.318,4.667"/>
		<path style="fill:#BBA27A;stroke:#8A5D1C;stroke-width:0.0743;" d="M230.771,58.743c0-1.998,11.999-3.375,10.244,1.573
			c0.888,0.138,1.863,1.061,2.749,1.189c-1.541,4.344,1.125,7.051-4.635,7.792c-2.449,0.316-3.254,0.492-5.193-1.633
			C232.59,66.184,231.078,60.9,230.771,58.743"/>
		<path style="fill:#8A5D1C;stroke:#8A5D1C;stroke-width:0.0743;" d="M263.877,74.398c-0.111-1.33,0.873-2.247,2.33-2.758
			c2.088,2.011,5.398,8.959,0.447,9.432c-0.012,4.587-7.156,6.655-9.451,2.708c-0.553,0.061-1.262-0.128-1.812-0.119
			c-2.617-3.42,0.174-7.003,2.631-9.186c-0.354-0.128-0.674,0.019-1.006-0.045c1.393-1.377,3.49-1.195,5.248-1.921
			c-0.025,0.019-0.461,0.633-0.562,0.761c0.664-1.125,0.984-0.435,1.789-0.425"/>
		<path style="fill:#DCD3B8;stroke:#C18B14;stroke-width:0.0743;" d="M275.438,89.133c0.682-0.543,1.832-0.885,2.654-1.119
			c1.463,1.931,2.488-1.275,4.732,0.227c1.676,1.122,0.41,3.931,2.619,5.459c-0.742,1.685-1.811,2.928-1.916,4.692
			c-1.764,0.943-3.752,1.636-4.676,3.506c-1.863-1.266-9.42,0.681-6.965-4.126c-3.922-2.324,0.969-8.256,4.322-8.64"/>
		<path style="fill:#BBA27A;stroke:#C18B14;stroke-width:0.0743;" d="M249.728,68c6.048-2.03,3.132-11.392-2.727-11.292
			c-3.087,0.051-4.404,2.033-5.798,3.925c-2.686,3.66,0.07,1.982-0.352,6.137c2.154,0.543,8.684,4.443,8.937-0.208
			c1.052,1.4,1.688,1.352,2.27-0.118"/>
		<path style="fill:#DCD3B8;stroke:#8A5D1C;stroke-width:0.0743;" d="M231.167,107.31c-4.635-0.214-6.44-1.135-10.659-1.135
			c-0.877-1.409-2.234,0.141-3.894-0.316c-0.419-1.729-0.546-3.5-0.431-5.401c0.061-0.984-0.828-0.904-0.426-2.247
			c0.188-0.633,1.278-0.815,1.24-2.34c4.813-0.269,6.744-1.972,11.158-1.17c0.271,1.441,0.751,1.863,2.323,1.95
			c2.638,2.998,5.616,8.473,6.878,11.848c-1.438,0.045-7.955-2.1-8.758-1.028"/>
		<path style="fill:#8A5D1C;stroke:#8A5D1C;stroke-width:0.0743;" d="M237.025,92.518c2.666,1.109,4.971,7.742,2.73,10.112
			c-2.018,2.136-6.637,1.95-8.95,0.771c-2.18-1.105-1.723,0.464-2.333-2.332c-0.246-1.132,0.256-4.114,0.844-5.051
			c1.799-2.864,6.476-1.739,7.319-4.664"/>
		<path style="fill:#9E7D46;stroke:#8A5D1C;stroke-width:0.0743;" d="M253.176,84.351c-3.125,1.547-4.078,1.017-6.113-1.24
			c-0.592-0.649-0.703-1.886-1.346-2.634c-0.918-1.083-2.497-1.218-3.428-2.333c-3.818-4.58-1.061-7.636,3.891-9.039
			c5.182-1.46,8.301,0.886,11.267,5.926c1.505,2.567,1.845,1.963,0.308,5.054c-0.8,1.592-1.33,3.525-3.408,3.49"/>
		<path style="fill:#BBA27A;stroke:#C18B14;stroke-width:0.0743;" d="M238.745,100.783c-6.054,2.026-3.139,8.159,2.717,8.058
			c3.091-0.052,4.404,1.208,5.804-0.694c2.689-3.659-0.072-1.979,0.35-6.133c-2.151-0.547-8.691-4.446-8.94,0.211
			c-1.045-1.406-1.688-1.355-2.263,0.111"/>
		<path style="fill:#DCD3B8;stroke:#C18B14;stroke-width:0.0743;" d="M281.564,82.849c-0.686-0.547-1.838-0.889-2.658-1.119
			c-1.465,1.934-2.49-1.275-4.734,0.23c-1.672,1.119-0.408,3.925-2.617,5.45c0.748,1.688,1.816,2.931,1.914,4.698
			c1.766,0.937,3.756,1.637,4.674,3.51c1.867-1.272,9.428,0.674,6.967-4.129c3.922-2.324-0.971-8.256-4.32-8.64"/>
		<path style="fill:#CA9966;stroke:#8A5D1C;stroke-width:0.0743;" d="M236.543,90.638c3.004-4.644,4.268-1.713,8.482-3.452
			c0.879,1.413,2.234,2.275,3.9,2.729c0.412,1.735,0.537,3.503,0.422,5.408c-0.061,0.981,0.834,0.901,0.432,2.244
			c-0.192,0.636-1.41,0.69-1.375,2.212c-4.811,0.268-6.609,2.099-11.03,1.297c-0.274-1.435-0.748-1.857-2.32-1.953
			c-2.638-2.998-0.308-5.811-1.569-9.183c1.438-0.038,2.641-0.562,3.445-1.636"/>
		<path style="fill:#8A5D1C;stroke:#8A5D1C;stroke-width:0.0743;" d="M239.691,76.866c0.108-1.327-0.879-2.247-2.336-2.755
			c-2.084,2.004-5.402,8.956-0.441,9.429c0.016,4.59,7.15,6.654,9.451,2.71c0.553,0.057,1.25-0.131,1.803-0.122
			c2.624-3.42-0.166-7.006-2.625-9.186c0.361-0.128,0.676,0.019,1.001-0.045c-1.39-1.374-3.49-1.195-5.241-1.917
			c0.021,0.016,0.457,0.633,0.559,0.757c-0.668-1.125-0.972-0.435-1.787-0.425"/>
		<path style="fill:#9E7D46;stroke:#8A5D1C;stroke-width:0.0743;" d="M246.896,54.639c-0.897,2.879,2.656,4.522,1.89,7.712
			c-2.133-0.841-9.953,4.973-10.11-0.272c-0.872,0.195-2.109-0.313-2.988-0.115c-0.138-4.606-3.599-6.163,1.505-8.94
			c2.164-1.18,2.848-1.633,5.431-0.352c1.79,0.892,2.819,1.621,3.887,3.519"/>
		<path style="fill:#8A5D1C;stroke:#8A5D1C;stroke-width:0.0743;" d="M238.713,64.125c-2.662,1.112-4.973,7.745-2.723,10.116
			c2.014,2.132,6.632,1.946,8.946,0.773c2.173-1.112,1.726,0.46,2.329-2.336c0.25-1.135-0.248-4.11-0.84-5.053
			c-1.799-2.864-6.479-1.732-7.322-4.664"/>
		<path style="fill:#9E7D46;stroke:#8A5D1C;stroke-width:0.0743;" d="M276.617,90.862c3.133-1.543,4.086-1.016,6.125,1.237
			c0.584,0.648,0.699,1.886,1.338,2.634c0.932,1.086,2.496,1.221,3.43,2.339c3.826,4.58,1.059,7.632-3.893,9.032
			c-5.174,1.464-8.295-0.882-11.264-5.925c-1.512-2.563-1.844-1.962-0.301-5.05c0.793-1.592,1.326-3.529,3.408-3.497"/>
		<path style="fill:#9E7D46;stroke:#C18B14;stroke-width:0.0743;" d="M259.02,86.962c6.057-2.023,3.141-11.395-2.717-11.295
			c-3.088,0.058-4.404,2.033-5.799,3.932c-2.688,3.656,0.061,1.978-0.357,6.13c2.157,0.546,8.693,4.446,8.943-0.208
			c1.045,1.403,1.688,1.355,2.262-0.112"/>
		<path style="fill:#BBA27A;stroke:#C18B14;stroke-width:0.0743;" d="M271.385,83.827c0.684,0.546,1.836,0.892,2.654,1.115
			c1.467-1.924,2.496,1.279,4.736-0.224c1.684-1.119,0.408-3.931,2.617-5.456c-0.742-1.684-1.812-2.931-1.912-4.702
			c-1.766-0.93-3.754-1.627-4.676-3.503c-1.863,1.269-9.418-0.671-6.967,4.133c-3.92,2.324,0.979,8.25,4.324,8.636"/>
		<path style="fill:#8A5D1C;stroke:#8A5D1C;stroke-width:0.0743;" d="M261.225,97.107c-3.008,4.644-4.264,1.713-8.482,3.452
			c-0.883-1.407-2.238-2.279-3.896-2.733c-0.429-1.78-0.562-3.305-0.429-5.405c0.062-0.981-0.825-0.901-0.429-2.247
			c0.192-0.629,1.282-0.812,1.247-2.339c4.804-0.266,6.734-1.966,11.155-1.167c0.277,1.438,0.75,1.863,2.32,1.95
			c2.637,3.001,0.307,5.814,1.572,9.189c-1.445,0.038-2.646,0.559-3.445,1.63"/>
		<path style="fill:#CA9966;stroke:#8A5D1C;stroke-width:0.0743;" d="M278.48,101.215c-0.117,1.322,0.869,2.243,2.328,2.758
			c2.084-2.017,5.398-8.962,0.443-9.435c-0.016-4.593-7.152-6.658-9.447-2.71c-0.553-0.061-1.264,0.125-1.812,0.125
			c-2.625,3.417,0.166,6.997,2.627,9.183c-0.361,0.131-0.672-0.022-1.004,0.045c1.387,1.374,3.488,1.191,5.246,1.917
			c-0.023-0.019-0.457-0.63-0.57-0.758c0.676,1.122,0.984,0.432,1.791,0.422"/>
		<path style="fill:#9E7D46;stroke:#8A5D1C;stroke-width:0.0743;" d="M254.193,76.335c-3.242,1.285-2.03,3.353-3.878,0.943
			c-0.527-0.697-0.853-1.675-1.429-2.477c-0.834-1.154-0.648-2.893-1.489-4.084c-3.438-4.875-0.435-7.693,4.615-8.688
			c5.284-1.036,8.192,1.557,10.746,6.824c1.294,2.679,1.679,2.1-0.112,5.063C261.729,75.431,256.261,76.537,254.193,76.335"/>
		<path style="fill:#BBA27A;stroke:#C18B14;stroke-width:0.0743;" d="M229.619,75.188c-6.05-2.029-3.131-11.391,2.725-11.295
			c3.084,0.054,4.4,2.033,5.794,3.932c2.694,3.656-0.063,1.978,0.354,6.133c-2.154,0.543-8.689,4.443-8.936-0.208
			c-1.049,1.403-1.688,1.355-2.273-0.115"/>
		<path style="fill:#DCD3B8;stroke:#8A5D1C;stroke-width:0.0743;" d="M224.084,81.999c3.004,4.641,4.268,1.71,8.482,3.452
			c0.879-1.409,2.234-2.272,3.9-2.733c0.415-1.729,0.543-3.497,0.432-5.401c-0.064-0.984,0.82-0.905,0.422-2.247
			c-0.189-0.633-1.279-0.812-1.24-2.336c-4.814-0.269-6.744-1.975-11.165-1.173c-0.272,1.438-0.745,1.86-2.313,1.953
			c-2.641,2.998-0.308,5.811-1.576,9.186c1.444,0.039,2.646,0.562,3.445,1.633"/>
		<path style="fill:#8A5D1C;stroke:#8A5D1C;stroke-width:0.0743;" d="M227.232,95.771c0.111,1.33-0.876,2.247-2.33,2.762
			c-2.088-2.007-5.404-8.959-0.447-9.432c0.02-4.593,7.159-6.661,9.451-2.71c0.549-0.064,1.26,0.125,1.809,0.118
			c2.627,3.423-0.166,7.006-2.624,9.186c0.358,0.131,0.669-0.022,0.997,0.048c-1.384,1.375-3.486,1.195-5.244,1.918
			c0.031-0.02,0.463-0.633,0.564-0.761c-0.67,1.128-0.98,0.435-1.786,0.428"/>
		<path style="fill:#9E7D46;stroke:#8A5D1C;stroke-width:0.0743;" d="M222.713,100.857c-0.901-2.887,2.649-4.523,1.886-7.713
			c-2.129,0.837-9.953-4.979-10.104,0.269c-0.879-0.195-2.122,0.313-2.995,0.115c-0.137,4.609-3.599,6.162,1.506,8.943
			c2.17,1.176,2.852,1.63,5.43,0.352c1.794-0.893,2.82-1.623,3.887-3.516"/>
		<path style="fill:#9E7D46;stroke:#8A5D1C;stroke-width:0.0743;" d="M222.1,92.783c-2.666-1.109-4.971-7.741-2.73-10.116
			c2.021-2.132,6.636-1.943,8.949-0.771c2.181,1.109,1.73-0.46,2.33,2.336c0.246,1.135-0.252,4.114-0.84,5.05
			c-1.8,2.867-6.476,1.735-7.322,4.667"/>
		<path style="fill:#9E7D46;stroke:#8A5D1C;stroke-width:0.0743;" d="M265.678,77.227c3.129,1.543,4.084,1.016,6.127-1.244
			c0.578-0.646,0.695-1.879,1.338-2.634c0.922-1.08,2.49-1.211,3.428-2.333c3.816-4.577,1.061-7.636-3.887-9.036
			c-5.186-1.461-8.305,0.882-11.271,5.926c-1.513,2.566-1.848,1.962-0.304,5.056c0.786,1.589,1.33,3.522,3.398,3.487"/>
		<path style="fill:#BBA27A;stroke:#8A5D1C;stroke-width:0.0743;" d="M267.232,100.844c1.967,0.332,3.092,10.627-1.492,8.063
			c-0.287,0.854-3.898-0.726-4.174,0.125c-4.03-2.237-6.367,4.091-6.134-1.717c0.099-2.467,0.058-3.285,2.474-4.845
			C259.594,101.39,265.053,100.787,267.232,100.844"/>
		<path style="fill:#8A5D1C;stroke:#8A5D1C;stroke-width:0.0743;" d="M246.602,107.616c2.812,2.816,8.035,2.397,10.746,1.474
			c2.787-0.949,1.803-3.305,1.025-5.785c-0.734-2.333,0.738-1.624-1.914-2.688c-1.08-0.435-4.095-0.438-5.127-0.01
			c-3.119,1.287-2.787,6.092-5.814,6.431"/>
		<path style="fill:#BBA27A;stroke:#C18B14;stroke-width:0.0743;" d="M270.996,101.505c3.004-5.631,11.762-1.191,10.682,4.571
			c-0.572,3.033-2.57,1.204-4.84,1.806c-4.504,1.186-4.504,1.186-8.668,0.907c-0.18-2.215-0.373-7.639,4.254-7.111
			c-1.201-1.265-1.049-1.885,0.498-2.214"/>
		<path style="fill:#9E7D46;stroke:#8A5D1C;stroke-width:0.0743;" d="M282.953,90.77c0.895-2.886-2.65-4.529-1.889-7.716
			c2.127,0.837,9.953-4.98,10.109,0.269c0.871-0.192,2.119,0.316,2.99,0.118c0.135,4.606,3.598,6.162-1.508,8.94
			c-2.17,1.17-2.854,1.633-5.43,0.352c-1.791-0.892-2.82-1.621-3.887-3.516"/>
		<path style="fill:#9E7D46;stroke:#8A5D1C;stroke-width:0.0743;" d="M275.877,102.358c-0.982,3.35-2.021,3.691-5.064,3.673
			c-0.863-0.004-1.854-0.755-2.84-0.8c-1.426-0.048-2.586,1.023-4.037,0.953c-5.959-0.284-6.346-4.389-4.027-8.978
			c2.419-4.807,6.258-5.514,11.979-4.292c2.916,0.623,2.695-0.029,3.928,3.193c0.637,1.659,1.695,3.366,0.275,4.868"/>
		<path style="fill:#BBA27A;stroke:#C18B14;stroke-width:0.0743;" d="M301.234,93.4c-1.994,2.02-5.158,6.019-11.02,9.255
			c-2.697,1.493-1.42-4.071-2.82-5.966c-2.682-3.663,0.078-1.985-0.348-6.137c2.15-0.547,8.691-4.446,8.939,0.208
			C297.039,89.356,300.66,91.93,301.234,93.4"/>
		<path style="fill:#CA9966;stroke:#8A5D1C;stroke-width:0.0743;" d="M300.865,78.448c-3.008-4.644-4.266-1.716-8.486-3.452
			c-0.879,1.41-2.24,2.273-3.896,2.727c-0.422,1.736-0.541,3.503-0.428,5.408c0.061,0.984-0.828,0.901-0.422,2.244
			c0.188,0.636,1.398,0.694,1.363,2.212c4.811,0.269,6.611,2.097,11.031,1.294c0.277-1.432,0.754-1.857,2.316-1.95
			c2.641-2.998,0.311-5.808,1.58-9.186c-1.441-0.039-2.646-0.562-3.449-1.63"/>
		<path style="fill:#9E7D46;stroke:#8A5D1C;stroke-width:0.0743;" d="M283.943,67.29c0.9,2.877-2.65,4.52-1.883,7.713
			c2.125-0.841,9.953,4.979,10.1-0.272c0.877,0.192,2.119-0.313,2.996-0.115c0.135-4.609,3.592-6.163-1.51-8.94
			c-2.156-1.18-2.848-1.637-5.426-0.355c-1.793,0.895-2.822,1.624-3.891,3.522"/>
		<path style="fill:#9E7D46;stroke:#C18B14;stroke-width:0.0743;" d="M274.654,74.772c-6.053-2.026-3.139-11.395,2.721-11.292
			c3.088,0.051,4.404,2.029,5.799,3.928c2.684,3.657-0.07,1.976,0.354,6.127c-2.156,0.553-8.688,4.446-8.945-0.205
			c-1.045,1.403-1.686,1.355-2.26-0.115"/>
		<path style="fill:#BBA27A;stroke:#C18B14;stroke-width:0.0743;" d="M280.182,63.518c-0.682,0.547-1.838,0.889-2.646,1.119
			c-1.475-1.927-2.5,1.275-4.746-0.23c-1.672-1.116-0.406-3.928-2.611-5.453c0.74-1.684,1.809-2.928,1.914-4.698
			c1.764-0.93,3.756-1.627,4.672-3.506c1.867,1.272,9.424-0.671,6.969,4.129c3.922,2.327-0.969,8.253-4.324,8.64"/>
		<path style="fill:#8A5D1C;stroke:#8A5D1C;stroke-width:0.0743;" d="M276.18,84.914c3.004,4.645,4.26,1.713,8.482,3.452
			c0.877-1.41,2.234-2.276,3.9-2.736c0.422-1.777,0.553-3.302,0.422-5.402c-0.055-0.984,0.824-0.901,0.432-2.247
			c-0.193-0.633-1.285-0.812-1.248-2.336c-4.807-0.265-6.736-1.969-11.158-1.169c-0.271,1.438-0.746,1.863-2.322,1.953
			c-2.635,2.998-0.301,5.811-1.566,9.183c1.438,0.042,2.65,0.562,3.441,1.636"/>
		<path style="fill:#8A5D1C;stroke:#8A5D1C;stroke-width:0.0743;" d="M296.547,77.697c1.086,0,2.361-6.057,4.957-4.523
			c2.527,1.49,2.029,0.32,3.352,2.551c1.248,2.109,3.535,3.807,2.555,6.492c-0.4,1.086-0.787,3.832-1.789,4.312
			c-3.051,1.458-7.787-4.695-9.008-5.916"/>
		<path style="fill:#9E7D46;stroke:#8A5D1C;stroke-width:0.0743;" d="M254.426,65.999c3.248,1.288,2.033,3.353,3.881,0.943
			c0.533-0.694,0.85-1.675,1.426-2.477c0.837-1.151,0.651-2.89,1.492-4.082c3.436-4.874,0.438-7.696-4.619-8.687
			c-5.279-1.039-8.191,1.553-10.739,6.821c-1.298,2.682-1.685,2.103,0.112,5.062C246.893,65.1,252.364,66.203,254.426,65.999"/>
		<path style="fill:#BBA27A;stroke:#8A5D1C;stroke-width:0.0743;" d="M262.586,69.617c-1.969,0.339-1.316,12.395,3.268,9.835
			c0.277,0.853,1.352,1.655,1.629,2.509c4.027-2.241,7.141-0.067,6.904-5.872c-0.094-2.461-0.055-3.283-2.467-4.845
			C270.223,70.163,264.766,69.559,262.586,69.617"/>
		<path style="fill:#8A5D1C;stroke:#8A5D1C;stroke-width:0.0743;" d="M290.803,95.426c-0.652,2.812-6.805,6.197-9.516,4.379
			c-2.445-1.63-3.029-6.213-2.256-8.688c0.73-2.34-0.742-1.63,1.918-2.694c1.072-0.435,4.088-0.438,5.119-0.006
			c3.119,1.288,2.791,6.089,5.814,6.434"/>
		<path style="fill:#BBA27A;stroke:#C18B14;stroke-width:0.0743;" d="M270.254,59.44c-3.008-5.629-11.756-1.186-10.682,4.57
			c0.568,3.033,2.742,4.002,4.836,5.063c4.062,2.039,1.945-0.403,6.107-0.681c0.182-2.218,2.938-9.311-1.693-8.777
			c1.211-1.269,1.051-1.889-0.492-2.215"/>
		<path style="fill:#DCD3B8;stroke:#8A5D1C;stroke-width:0.0743;" d="M252.457,78.729c5.079,2.187,2.4,3.916,4.823,7.786
			c-1.243,1.1-1.87,2.583-2.046,4.292c-1.633,0.703-3.359,1.125-5.251,1.33c-0.985,0.103-0.758,0.962-2.146,0.793
			c-0.661-0.077-1.02-1.119-2.518-0.831c-1.059-4.702-3.066-6.312-3.012-10.804c1.375-0.518,1.711-1.055,1.545-2.618
			c2.506-3.097,5.67-1.275,8.785-3.081c0.279,1.413,1.001,2.512,2.184,3.129"/>
		<path style="fill:#9E7D46;stroke:#8A5D1C;stroke-width:0.0743;" d="M261.525,90.168c0.978,3.347,2.014,3.688,5.059,3.666
			c0.867,0,1.861-0.751,2.852-0.792c1.422-0.051,2.58,1.02,4.033,0.946c5.961-0.278,6.342-4.382,4.027-8.975
			c-2.422-4.807-6.264-5.513-11.982-4.292c-2.912,0.624-2.701-0.029-3.928,3.193c-0.637,1.659-1.704,3.365-0.271,4.874"/>
		<path style="fill:#DCD3B8;stroke:#8A5D1C;stroke-width:0.0743;" d="M257.728,52.59c-5.089,2.186-2.407,3.915-4.823,7.783
			c1.237,1.103,1.867,2.583,2.043,4.299c1.637,0.7,3.359,1.122,5.251,1.327c0.978,0.102,0.751,0.965,2.146,0.799
			c0.658-0.086,1.021-1.131,2.512-0.837c1.068-4.702,3.068-6.312,3.018-10.803c-1.371-0.515-1.707-1.058-1.541-2.618
			c-2.51-3.101-5.67-1.272-8.789-3.087c-0.279,1.416-0.998,2.519-2.188,3.129"/>
		<path style="fill:none;stroke:#89898A;stroke-width:1.4863;" d="M215.499,105.43c13.149,1.898,21.725,3.68,34.075,3.68
			c16.885,0,28.689-0.064,36.52-4.085c10.48-5.389,17.324-13.379,21.297-20.062"/>
		<path style="fill:#FFFFFF;stroke:#89898A;stroke-width:1.4863;stroke-linecap:round;stroke-linejoin:round;" d="M278.721,29.079
			c-37.352,8.886-60.515,68.93-64.303,82.645c-6.584,23.876-1.664,39.432-3.516,38.402c-17.886-9.953-30.073-34.854-30.073-55.157
			c0-38.524,31.911-73.079,73.9-69.755C263.715,25.924,271.395,25.313,278.721,29.079"/>
		<circle style="fill:#FFFFFF;stroke:#89898A;stroke-width:0.3715;" cx="251.31" cy="24.284" r="8.662"/>
		<path style="fill:#BABABA;stroke:#89898A;stroke-width:0.3715;" d="M210.58,110.516c0,1.246-1.01,2.26-2.254,2.26
			c-1.25,0-2.256-1.014-2.256-2.26c0-1.247,1.006-2.257,2.256-2.257C209.57,108.259,210.58,109.269,210.58,110.516z"/>
	</g>
</g>
</svg>
