<?xml version="1.0" encoding="iso-8859-1"?>
<!-- Generator: Adobe Illustrator 13.0.0, SVG Export Plug-In . SVG Version: 6.00 Build 14948)  -->
<!DOCTYPE svg PUBLIC "-//W3C//DTD SVG 1.1//EN" "http://www.w3.org/Graphics/SVG/1.1/DTD/svg11.dtd">
<svg version="1.1" xmlns="http://www.w3.org/2000/svg" xmlns:xlink="http://www.w3.org/1999/xlink" x="0px" y="0px" width="378px"
	 height="140px" viewBox="0 0 378 140" style="enable-background:new 0 0 378 140;" xml:space="preserve">
<g id="Layer_2">
	<g>
		<rect style="fill:none;" width="378" height="140"/>
		<rect style="fill:#FFFFFF;" width="378" height="140"/>
	</g>
</g>
<g id="Layer_3">
	<path style="fill:none;stroke:#FFFF00;stroke-width:10;stroke-linecap:round;stroke-linejoin:round;" d="M99.834,35.412
		c-2.892-13.796,20.363-25.383,30.565-27.232c31.749-5.754,23.581,26.548,5.712,40.186c27.325-1.041,36.778,27.172,31.055,50.508
		c-4.188,17.074-17.694,36.035-37.707,33.377c-13.089-1.736-24.914-14.805-28.438-27.109"/>
	<g>
		<path style="fill:none;stroke:#FFFF00;stroke-width:10;stroke-linecap:round;stroke-linejoin:round;" d="M216.292,7.5
			c0.869,14.298-2.171,32.939-6.39,46.437c-4.961,15.877-19.437,32.859-17.033,50.309c11.867-4.399,67.469-3.221,67.271-2.505"/>
		<path style="fill:none;stroke:#FFFF00;stroke-width:10;stroke-linecap:round;stroke-linejoin:round;" d="M230.035,62.475
			c4.227,23.579,0.616,46.395,0.654,70.026"/>
	</g>
</g>
</svg>
