<?xml version="1.0" encoding="iso-8859-1"?>
<!-- Generator: Adobe Illustrator 13.0.0, SVG Export Plug-In . SVG Version: 6.00 Build 14948)  -->
<!DOCTYPE svg PUBLIC "-//W3C//DTD SVG 1.1//EN" "http://www.w3.org/Graphics/SVG/1.1/DTD/svg11.dtd">
<svg version="1.1" xmlns="http://www.w3.org/2000/svg" xmlns:xlink="http://www.w3.org/1999/xlink" x="0px" y="0px" width="378px"
	 height="140px" viewBox="0 0 378 140" style="enable-background:new 0 0 378 140;" xml:space="preserve">
<g id="Layer_2">
	<g>
		<rect style="fill:none;" width="378" height="140"/>
		<rect style="fill:#FFFFFF;" width="378" height="140"/>
	</g>
</g>
<g id="Layer_3">
	<path style="fill:none;stroke:#E3FF00;stroke-width:10;stroke-linecap:round;stroke-linejoin:round;" d="M99.834,35.412
		c-2.892-13.796,20.363-25.383,30.565-27.232c31.749-5.754,23.581,26.548,5.712,40.186c27.325-1.041,36.778,27.172,31.055,50.508
		c-4.188,17.074-17.694,36.035-37.707,33.377c-13.089-1.736-24.914-14.805-28.438-27.109"/>
	<path style="fill:none;stroke:#E3FF00;stroke-width:10;stroke-linecap:round;stroke-linejoin:round;" d="M268.683,7.5
		c-9.456,3.931-49.627,5.313-53.789,2.069c2.224,7.985-14.15,43.409-13.059,54.803c17.117-9.938,46.887-12.276,57.193,12.807
		c6.936,16.88-6.252,39.592-22.518,50.175c-10.907,7.098-44.17,9.764-42.305-11.586"/>
</g>
</svg>
