<?xml version="1.0" encoding="iso-8859-1"?>
<!-- Generator: Adobe Illustrator 13.0.0, SVG Export Plug-In . SVG Version: 6.00 Build 14948)  -->
<!DOCTYPE svg PUBLIC "-//W3C//DTD SVG 1.1//EN" "http://www.w3.org/Graphics/SVG/1.1/DTD/svg11.dtd">
<svg version="1.1" xmlns="http://www.w3.org/2000/svg" xmlns:xlink="http://www.w3.org/1999/xlink" x="0px" y="0px" width="540px"
	 height="200px" viewBox="0 0 540 200" style="enable-background:new 0 0 540 200;" xml:space="preserve">
<g id="Layer_7">
	<g>
		<rect style="fill:#FFFFFF;" width="540" height="200"/>
	</g>
</g>
<g id="FOND">
	
		<line style="fill:none;stroke:#8C8F84;stroke-width:1.2035;stroke-linecap:round;stroke-linejoin:round;" x1="366.677" y1="161.873" x2="366.677" y2="18.298"/>
	
		<line style="fill:none;stroke:#8C8F84;stroke-width:1.2035;stroke-linecap:round;stroke-linejoin:round;" x1="366.677" y1="18.298" x2="509.96" y2="18.298"/>
	
		<line style="fill:none;stroke:#8C8F84;stroke-width:1.2035;stroke-linecap:round;stroke-linejoin:round;" x1="509.96" y1="18.298" x2="509.96" y2="161.873"/>
	
		<line style="fill:none;stroke:#8C8F84;stroke-width:1.2035;stroke-linecap:round;stroke-linejoin:round;" x1="509.96" y1="46.969" x2="524.009" y2="46.969"/>
	
		<line style="fill:none;stroke:#8C8F84;stroke-width:1.259;stroke-linecap:round;stroke-linejoin:round;" x1="104.004" y1="161.873" x2="524.009" y2="161.873"/>
	
		<line style="fill:none;stroke:#8C8F84;stroke-width:1.2035;stroke-linecap:round;stroke-linejoin:round;" x1="185.004" y1="15" x2="270.928" y2="15"/>
	
		<line style="fill:none;stroke:#8C8F84;stroke-width:1.2035;stroke-linecap:round;stroke-linejoin:round;" x1="270.928" y1="15" x2="270.928" y2="160.874"/>
	
		<line style="fill:none;stroke:#8C8F84;stroke-width:1.2035;stroke-linecap:round;stroke-linejoin:round;" x1="185.004" y1="15" x2="185.004" y2="161.873"/>
	
		<line style="fill:none;stroke:#8C8F84;stroke-width:1.0545;stroke-linecap:round;stroke-linejoin:round;" x1="185.004" y1="27" x2="104.004" y2="27"/>
	
		<line style="fill:none;stroke:#8C8F84;stroke-width:1.0545;stroke-linecap:round;stroke-linejoin:round;" x1="104.004" y1="161.873" x2="104.004" y2="27"/>
</g>
<g id="MAN">
	<g>
		<g>
			<path style="fill:#FFFFFF;stroke:#8C8F84;stroke-width:1.5;stroke-linecap:round;stroke-linejoin:round;" d="M256.065,75.755
				c0,6.112,3.79,11.066,8.45,11.066c4.662,0,8.455-4.954,8.455-11.066c0-6.11-3.793-11.064-8.455-11.064
				C259.855,64.69,256.065,69.645,256.065,75.755z"/>
			<path style="fill:none;stroke:#8C8F84;stroke-width:1.5;stroke-linecap:round;stroke-linejoin:round;" d="M264.306,87.261
				c0.04,7.724-1.039,30.563,0.439,37.977c0.823,4.112,1.361,4.897,1.335,7.12"/>
		</g>
	</g>
</g>
<g id="WOMAN">
	<g>
		<path style="fill:#FFFFFF;stroke:#8C8F84;stroke-width:2.407;stroke-linecap:round;stroke-linejoin:round;" d="M185.861,78.581
			c0,6.068,3.751,10.979,8.384,10.979c4.628,0,8.386-4.912,8.386-10.979c0-6.061-3.757-10.976-8.386-10.976
			C189.612,67.605,185.861,72.52,185.861,78.581z"/>
		<path style="fill:none;stroke:#8C8F84;stroke-width:2.407;stroke-linecap:round;stroke-linejoin:round;" d="M194.245,89.962
			c0.013,1.93-0.054,4.904-0.127,8.338l-0.122,6.16c-0.128,7.743-0.109,16.033,0.651,19.836"/>
	</g>
</g>
<g id="Layer_5">
	<path style="fill:#F7D75E;" d="M50.759,106.845c6.588-4.067,76.426-0.865,80.208-4.119c1.741-1.499,15.29-26.236,20.134-32.215
		c7.943-9.792,13.503-8.129,26.708-8.129c15.455,0,87.833,0,101.066,0.012c7.307,0,25.456,35.172,27.426,37.562
		c5.997,7.299,37.781,3.679,50.577,9.746c10.12,4.804,13.363,38.039,7.795,51.758c-4.659,2.862-146.623,4.409-159.667,4.409l0,0
		c-6.777-1.008-143.546,0.055-145.147-8.093c-1.177-5.995-1.998-11.907-2.89-17.92c-0.875-5.968-3.379-9.652-5.386-14.566
		C49.116,119.248,50.799,113.244,50.759,106.845 M144.984,106.769c9.992,0,63.462,0,63.462,0c1.296,0,2.341-1.048,2.341-2.342
		V73.469c0-1.29-1.045-2.344-2.341-2.344c0,0-35.166,0-42.734,0C158.14,71.125,135.009,106.769,144.984,106.769z M267.523,71.125
		c-7.571,0-42.746,0-42.746,0c-1.297,0-2.345,1.054-2.345,2.344v30.958c0,1.294,1.047,2.342,2.345,2.342c0,0,53.481,0,63.462,0
		C298.213,106.769,275.096,71.125,267.523,71.125z"/>
	<polygon style="fill:#F7D75E;stroke:#F7D75E;stroke-width:3.1177;stroke-linecap:round;stroke-linejoin:round;" points="
		200.213,63.769 209.378,49.843 218.536,63.769 	"/>
	<g>
		<circle style="fill:#999999;" cx="103.623" cy="167.183" r="25.258"/>
		<path style="fill:#FFFFFF;" d="M118.228,167.183c0,8.056-6.54,14.596-14.605,14.596c-8.065,0-14.605-6.54-14.605-14.596
			c0-8.062,6.54-14.603,14.605-14.603C111.688,152.58,118.228,159.12,118.228,167.183z"/>
	</g>
	<g>
		<circle style="fill:#999999;" cx="305.261" cy="167.183" r="25.258"/>
		<path style="fill:#FFFFFF;" d="M319.867,167.183c0,8.056-6.54,14.596-14.605,14.596s-14.604-6.54-14.604-14.596
			c0-8.062,6.539-14.603,14.604-14.603S319.867,159.12,319.867,167.183z"/>
	</g>
</g>
<g id="Layer_8">
	<path style="fill:none;stroke:#8C8F84;stroke-width:1.5;stroke-linecap:round;stroke-linejoin:round;" d="M194.193,94.708
		c-3.163,1.784-16.461,16.278-19.346,14.146c-1.69-1.25-8.435-20.148-7.236-22.211l0.552,0.287c1.803,0.662,4.508-0.86,3.726-2.508
		c1.078,2.304-2.729,3.181-4.278,2.222c-1.683-1.041-0.435-5.413,1.446-4.61"/>
</g>
</svg>
