<?xml version="1.0" encoding="iso-8859-1"?>
<!-- Generator: Adobe Illustrator 13.0.0, SVG Export Plug-In . SVG Version: 6.00 Build 14948)  -->
<!DOCTYPE svg PUBLIC "-//W3C//DTD SVG 1.1//EN" "http://www.w3.org/Graphics/SVG/1.1/DTD/svg11.dtd">
<svg version="1.1" xmlns="http://www.w3.org/2000/svg" xmlns:xlink="http://www.w3.org/1999/xlink" x="0px" y="0px" width="378px"
	 height="140px" viewBox="0 0 378 140" style="enable-background:new 0 0 378 140;" xml:space="preserve">
<g id="fond">
	<g>
		<rect style="fill:#FFFFFF;" width="378" height="140"/>
	</g>
</g>
<g id="scene">
	
		<line style="fill:none;stroke:#8C8F84;stroke-width:0.8424;stroke-linecap:round;stroke-linejoin:round;" x1="256.674" y1="113.312" x2="256.674" y2="12.809"/>
	
		<line style="fill:none;stroke:#8C8F84;stroke-width:0.8424;stroke-linecap:round;stroke-linejoin:round;" x1="256.674" y1="12.809" x2="356.972" y2="12.809"/>
	
		<line style="fill:none;stroke:#8C8F84;stroke-width:0.8424;stroke-linecap:round;stroke-linejoin:round;" x1="356.972" y1="12.809" x2="356.972" y2="113.312"/>
	
		<line style="fill:none;stroke:#8C8F84;stroke-width:0.8424;stroke-linecap:round;stroke-linejoin:round;" x1="356.972" y1="32.878" x2="366.807" y2="32.878"/>
	
		<line style="fill:none;stroke:#8C8F84;stroke-width:0.8813;stroke-linecap:round;stroke-linejoin:round;" x1="72.803" y1="113.312" x2="366.807" y2="113.312"/>
	
		<line style="fill:none;stroke:#8C8F84;stroke-width:0.8424;stroke-linecap:round;stroke-linejoin:round;" x1="129.503" y1="10.5" x2="189.65" y2="10.5"/>
	
		<line style="fill:none;stroke:#8C8F84;stroke-width:0.8424;stroke-linecap:round;stroke-linejoin:round;" x1="189.65" y1="10.5" x2="189.65" y2="112.611"/>
	
		<line style="fill:none;stroke:#8C8F84;stroke-width:0.8424;stroke-linecap:round;stroke-linejoin:round;" x1="129.503" y1="10.5" x2="129.503" y2="113.312"/>
	
		<line style="fill:none;stroke:#8C8F84;stroke-width:0.7382;stroke-linecap:round;stroke-linejoin:round;" x1="129.503" y1="18.9" x2="72.803" y2="18.9"/>
	
		<line style="fill:none;stroke:#8C8F84;stroke-width:0.7382;stroke-linecap:round;stroke-linejoin:round;" x1="72.803" y1="113.312" x2="72.803" y2="18.9"/>
</g>
<g id="MAN">
	<g>
		<g>
			<path style="fill:#FFFFFF;stroke:#7E7A64;stroke-width:1.6849;stroke-linecap:round;stroke-linejoin:round;" d="M179.246,53.028
				c0,4.279,2.653,7.747,5.916,7.747c3.263,0,5.918-3.468,5.918-7.747c0-4.277-2.655-7.745-5.918-7.745
				C181.899,45.283,179.246,48.751,179.246,53.028z"/>
			<path style="fill:none;stroke:#7E7A64;stroke-width:1.6849;stroke-linecap:round;stroke-linejoin:round;" d="M185.014,61.083
				c0.028,5.406-0.727,21.394,0.308,26.584c0.576,2.878,0.953,3.428,0.935,4.983"/>
		</g>
	</g>
</g>
<g id="chauffeur">
	<g>
		<path style="fill:#FFFFFF;stroke:#7E7A64;stroke-width:1.05;stroke-linecap:round;stroke-linejoin:round;" d="M130.103,55.006
			c0,4.248,2.626,7.686,5.869,7.686c3.24,0,5.87-3.438,5.87-7.686c0-4.242-2.63-7.683-5.87-7.683
			C132.729,47.323,130.103,50.764,130.103,55.006z"/>
		<path style="fill:none;stroke:#7E7A64;stroke-width:1.05;stroke-linecap:round;stroke-linejoin:round;" d="M135.972,62.973
			c0.009,1.351-0.038,3.433-0.089,5.837l-0.085,4.312c-0.09,5.42-0.077,11.224,0.456,13.885"/>
	</g>
</g>
<g id="taxi">
	<path style="fill:#F7D75E;" d="M35.531,74.791c4.612-2.847,53.498-0.605,56.146-2.883c1.219-1.05,10.703-18.365,14.094-22.551
		c5.56-6.855,9.452-5.691,18.695-5.691c10.818,0,61.483,0,70.746,0.008c5.114,0,17.819,24.621,19.198,26.293
		c4.197,5.109,26.446,2.575,35.403,6.822c7.085,3.362,9.354,26.628,5.457,36.23c-3.262,2.004-102.636,3.087-111.767,3.087l0,0
		c-4.744-0.706-100.482,0.038-101.603-5.665c-0.824-4.197-1.398-8.335-2.022-12.544c-0.613-4.178-2.366-6.757-3.77-10.197
		C34.381,83.474,35.559,79.271,35.531,74.791 M101.489,74.738c6.995,0,44.423,0,44.423,0c0.907,0,1.639-0.733,1.639-1.64v-21.67
		c0-0.903-0.731-1.641-1.639-1.641c0,0-24.616,0-29.914,0C110.698,49.788,94.506,74.738,101.489,74.738z M187.266,49.788
		c-5.3,0-29.922,0-29.922,0c-0.908,0-1.642,0.738-1.642,1.641v21.67c0,0.906,0.733,1.64,1.642,1.64c0,0,37.437,0,44.423,0
		C208.749,74.738,192.567,49.788,187.266,49.788z"/>
	<polygon style="fill:#F7D75E;stroke:#F7D75E;stroke-width:2.1824;stroke-linecap:round;stroke-linejoin:round;" points="
		140.149,44.638 146.564,34.89 152.975,44.638 	"/>
	<g>
		<circle style="fill:#999999;" cx="72.536" cy="117.027" r="17.681"/>
		<path style="fill:#FFFFFF;" d="M82.76,117.027c0,5.64-4.578,10.218-10.224,10.218c-5.646,0-10.224-4.578-10.224-10.218
			c0-5.644,4.578-10.222,10.224-10.222C78.182,106.806,82.76,111.384,82.76,117.027z"/>
	</g>
	<g>
		<circle style="fill:#999999;" cx="213.683" cy="117.027" r="17.681"/>
		<path style="fill:#FFFFFF;" d="M223.907,117.027c0,5.64-4.578,10.218-10.224,10.218c-5.646,0-10.224-4.578-10.224-10.218
			c0-5.644,4.577-10.222,10.224-10.222C219.329,106.806,223.907,111.384,223.907,117.027z"/>
	</g>
</g>
<g id="compteur">
	
		<rect x="159.292" y="18.333" style="fill:#161616;stroke:#000000;stroke-width:1.6849;stroke-linecap:round;stroke-linejoin:round;" width="46.834" height="18.5"/>
	<g>
		<path style="fill:#E31919;" d="M166.562,26.672v-3.701l1.422,1.412v1.932l-0.889,0.904L166.562,26.672z M167.983,28.635v1.92
			l-1.422,1.425v-3.699l0.533-0.532L167.983,28.635z M172.344,22.703l-1.419,1.43h-2.673l-1.418-1.43H172.344z M172.344,32.25h-5.51
			l1.418-1.422h2.673L172.344,32.25z M171.101,26.765l0.709,0.711l-0.709,0.711h-3.027l-0.707-0.711l0.707-0.711H171.101z
			 M171.179,26.315v-1.928l1.422-1.412v3.697l-0.533,0.545L171.179,26.315z M172.601,28.281v3.695l-1.422-1.426v-1.917l0.889-0.884
			L172.601,28.281z"/>
		<path style="fill:#E31919;" d="M174.197,26.672v-3.701l1.422,1.412v1.932l-0.889,0.904L174.197,26.672z M175.619,28.635v1.92
			l-1.422,1.425v-3.699l0.533-0.532L175.619,28.635z M179.979,22.703l-1.419,1.43h-2.672l-1.419-1.43H179.979z M179.979,32.25h-5.51
			l1.419-1.422h2.672L179.979,32.25z M178.736,26.765l0.709,0.711l-0.709,0.711h-3.027l-0.707-0.711l0.707-0.711H178.736z
			 M178.814,26.315v-1.928l1.422-1.412v3.697l-0.533,0.545L178.814,26.315z M180.236,28.281v3.695l-1.422-1.426v-1.917l0.889-0.884
			L180.236,28.281z"/>
		<path style="fill:#E31919;" d="M181.997,25.718v-1.422h1.43v1.422H181.997z M181.997,32.25v-1.422h1.43v1.422H181.997z"/>
		<path style="fill:#E31919;" d="M185.16,26.672v-3.701l1.422,1.412v1.932l-0.889,0.904L185.16,26.672z M186.582,28.635v1.92
			l-1.422,1.425v-3.699l0.533-0.532L186.582,28.635z M190.942,22.703l-1.419,1.43h-2.672l-1.419-1.43H190.942z M190.942,32.25h-5.51
			l1.419-1.422h2.672L190.942,32.25z M189.699,26.765l0.709,0.711l-0.709,0.711h-3.027l-0.707-0.711l0.707-0.711H189.699z
			 M189.777,26.315v-1.928l1.422-1.412v3.697l-0.533,0.545L189.777,26.315z M191.199,28.281v3.695l-1.422-1.426v-1.917l0.889-0.884
			L191.199,28.281z"/>
		<path style="fill:#E31919;" d="M192.796,26.672v-3.701l1.422,1.412v1.932l-0.889,0.904L192.796,26.672z M194.218,28.635v1.92
			l-1.422,1.425v-3.699l0.533-0.532L194.218,28.635z M198.578,22.703l-1.419,1.43h-2.673l-1.418-1.43H198.578z M198.578,32.25h-5.51
			l1.418-1.422h2.673L198.578,32.25z M197.335,26.765l0.709,0.711l-0.709,0.711h-3.027l-0.707-0.711l0.707-0.711H197.335z
			 M197.413,26.315v-1.928l1.422-1.412v3.697l-0.533,0.545L197.413,26.315z M198.835,28.281v3.695l-1.422-1.426v-1.917l0.889-0.884
			L198.835,28.281z"/>
	</g>
	<g>
		<path style="fill:none;stroke:#7E7A65;stroke-width:1.2041;stroke-linecap:round;stroke-linejoin:round;" d="M215.26,22.516
			c-5.766-5.96,15.78-8.293,10.019-0.063c-3.667,5.236-11.194,8.672-7.867,12.691"/>
		<path style="fill:none;stroke:#7E7A65;stroke-width:1.2041;stroke-linecap:round;stroke-linejoin:round;" d="M216.502,39.103
			c1.008-0.513,0.395,0.441,0.748,0.986"/>
	</g>
</g>
</svg>
