<?xml version="1.0" encoding="iso-8859-1"?>
<!-- Generator: Adobe Illustrator 13.0.0, SVG Export Plug-In . SVG Version: 6.00 Build 14948)  -->
<!DOCTYPE svg PUBLIC "-//W3C//DTD SVG 1.1//EN" "http://www.w3.org/Graphics/SVG/1.1/DTD/svg11.dtd">
<svg version="1.1" xmlns="http://www.w3.org/2000/svg" xmlns:xlink="http://www.w3.org/1999/xlink" x="0px" y="0px"
	 width="378.001px" height="140.629px" viewBox="0 0 378.001 140.629" style="enable-background:new 0 0 378.001 140.629;"
	 xml:space="preserve">
<g id="Layer_2">
	<g>
		<rect style="fill:none;" width="378.001" height="140.629"/>
		<rect style="fill:#FFFFFF;" width="378.001" height="140.629"/>
	</g>
</g>
<g id="Layer_3">
	<g>
		<path style="fill:none;stroke:#777768;stroke-width:1.2518;stroke-linecap:round;stroke-linejoin:round;" d="M213.342,75.12
			c0,1.063,0.866,1.926,1.925,1.926c1.058,0,1.924-0.862,1.924-1.926c0-1.065-0.866-1.919-1.924-1.919
			C214.208,73.201,213.342,74.055,213.342,75.12z"/>
		<path style="fill:#FFFFFF;stroke:#777768;stroke-width:1.2518;stroke-linecap:round;stroke-linejoin:round;" d="M206.307,16.901
			c0,5.959,3.687,10.785,8.237,10.785c4.541,0,8.229-4.826,8.229-10.785c0-5.954-3.688-10.782-8.229-10.782
			C209.993,6.12,206.307,10.947,206.307,16.901z"/>
		<path style="fill:none;stroke:#777768;stroke-width:1.2518;stroke-linecap:round;stroke-linejoin:round;" d="M214.335,28.115
			c0.037,7.528-1.016,29.784,0.429,37.01c1.295,6.453,1.867,4.497,0.572,13.536c-1.613,11.315,2.021,22.36,2.416,28.087
			c1.999,29.695,2.182,28.954-4.71,28.092"/>
	</g>
</g>
<g id="Layer_4">
	<g>
		<path style="fill:none;stroke:#777768;stroke-width:1.199;stroke-linecap:round;stroke-linejoin:round;" d="M168.228,74.965
			c0,1.063-0.866,1.926-1.926,1.926c-1.057,0-1.922-0.862-1.922-1.926c0-1.064,0.865-1.918,1.922-1.918
			C167.361,73.047,168.228,73.9,168.228,74.965z"/>
		<path style="fill:none;stroke:#777768;stroke-width:1.799;stroke-linecap:round;stroke-linejoin:round;" d="M175.263,16.746
			c0,5.958-3.687,10.785-8.237,10.785c-4.542,0-8.23-4.826-8.23-10.785c0-5.954,3.688-10.782,8.23-10.782
			C171.576,5.963,175.263,10.792,175.263,16.746z"/>
		<path style="fill:none;stroke:#777768;stroke-width:1.799;stroke-linecap:round;stroke-linejoin:round;" d="M167.233,27.959
			c-0.036,7.528,1.016,29.784-0.427,37.01c-1.294,6.453-1.868,4.496-0.574,13.536c1.614,11.315-2.018,22.36-2.415,28.087
			c-2,29.695-2.182,28.954,4.709,28.09"/>
	</g>
	<path style="fill:none;stroke:#777768;stroke-width:1.199;stroke-linecap:round;stroke-linejoin:round;" d="M167.166,35.206
		c0.206,0.038,6.672,6.349,6.729,6.318c0.029-0.016,3.078-3.198,3.078-3.198l-2.374-5.95l7.037-2.053l1.759,21.581l11.624-10.235
		l-2.11-8.034l-7.343,5.777c0,0,11.22,5.225,11.274,5.217c2.306-0.339,4.909-1.141,7.312-2.278c-1.936,1.014-3.873,1.678-5.894,2.86
		c0.695-0.399,2.94-0.203,3.691-0.663c-0.816,0.216-2.823,0.598-3.371,1.272c0.317-0.066,2.9-0.309,3.077-0.319
		c1.513-0.079-2.289,1.117-4.816-0.873"/>
</g>
</svg>
