<?xml version="1.0" encoding="iso-8859-1"?>
<!-- Generator: Adobe Illustrator 13.0.0, SVG Export Plug-In . SVG Version: 6.00 Build 14948)  -->
<!DOCTYPE svg PUBLIC "-//W3C//DTD SVG 1.1//EN" "http://www.w3.org/Graphics/SVG/1.1/DTD/svg11.dtd">
<svg version="1.1" xmlns="http://www.w3.org/2000/svg" xmlns:xlink="http://www.w3.org/1999/xlink" x="0px" y="0px" width="378px"
	 height="140px" viewBox="0 0 378 140" style="enable-background:new 0 0 378 140;" xml:space="preserve">
<style type="text/css">
<![CDATA[
]]>
</style>
<g id="Layer_7">
	<g>
		<rect style="fill:#FFFFFF;" width="378" height="140"/>
	</g>
</g>
<g id="scene">
	<g id="building1">
		
			<line style="fill:none;stroke:#D6D4D2;stroke-width:0.7209;stroke-linecap:round;stroke-linejoin:round;" x1="331.659" y1="83.794" x2="331.659" y2="10.19"/>
		
			<line style="fill:none;stroke:#D6D4D2;stroke-width:0.7209;stroke-linecap:round;stroke-linejoin:round;" x1="331.659" y1="10.19" x2="374.334" y2="10.19"/>
		
			<line style="fill:none;stroke:#D6D4D2;stroke-width:0.7542;stroke-linecap:round;stroke-linejoin:round;" x1="147.785" y1="83.751" x2="374.334" y2="83.794"/>
		
			<line style="fill:none;stroke:#D6D4D2;stroke-width:0.7209;stroke-linecap:round;stroke-linejoin:round;" x1="204.485" y1="8.5" x2="264.635" y2="8.5"/>
		
			<line style="fill:none;stroke:#D6D4D2;stroke-width:0.7526;stroke-linecap:round;stroke-linejoin:round;" x1="264.635" y1="8.5" x2="264.635" y2="83.281"/>
		
			<line style="fill:none;stroke:#D6D4D2;stroke-width:0.7209;stroke-linecap:round;stroke-linejoin:round;" x1="204.485" y1="8.5" x2="204.485" y2="83.794"/>
		
			<line style="fill:none;stroke:#D6D4D2;stroke-width:0.6317;stroke-linecap:round;stroke-linejoin:round;" x1="204.485" y1="14.651" x2="147.785" y2="14.651"/>
		
			<line style="fill:none;stroke:#D6D4D2;stroke-width:0.6873;stroke-linecap:round;stroke-linejoin:round;" x1="331.659" y1="18.837" x2="264.535" y2="18.837"/>
		
			<line style="fill:none;stroke:#D6D4D2;stroke-width:0.7209;stroke-linecap:round;stroke-linejoin:round;" x1="147.785" y1="83.794" x2="147.785" y2="14.651"/>
		<polyline style="fill:none;stroke:#D6D4D2;stroke-width:0.7209;stroke-linecap:round;stroke-linejoin:round;" points="
			374.334,91.312 116.667,91.312 147.785,72.032 		"/>
	</g>
	<g id="building2">
		
			<line style="fill:none;stroke:#D6D4D2;stroke-width:0.7209;stroke-linecap:round;stroke-linejoin:round;" x1="47.227" y1="25.549" x2="5.877" y2="25.549"/>
		<path style="fill:none;stroke:#D6D4D2;stroke-width:0.7209;stroke-linecap:round;stroke-linejoin:round;" d="M66.961,39.052"/>
		<path style="fill:none;stroke:#D6D4D2;stroke-width:0.7209;stroke-linecap:round;stroke-linejoin:round;" d="M74.318,39.928"/>
		<path style="display:none;fill:none;stroke:#D6D4D2;stroke-width:0.7209;stroke-linecap:round;stroke-linejoin:round;" d="
			M49.75,36.25"/>
		<path style="fill:none;stroke:#D6D4D2;stroke-width:0.7209;stroke-linecap:round;stroke-linejoin:round;" d="M82.6,72.1"/>
		<polyline style="fill:none;stroke:#D6D4D2;stroke-width:0.7209;stroke-linecap:round;stroke-linejoin:round;" points="
			5.877,91.312 55.562,91.312 147.785,44.689 		"/>
		<polygon style="fill:none;stroke:#D6D4D2;stroke-width:0.7209;stroke-linecap:round;stroke-linejoin:round;" points="
			68.667,72.125 68.667,6.167 115.375,11.334 115.375,51.826 		"/>
		
			<line style="fill:none;stroke:#D6D4D2;stroke-width:0.7209;stroke-linecap:round;stroke-linejoin:round;" x1="46.787" y1="83.754" x2="5.877" y2="83.754"/>
		
			<line style="fill:none;stroke:#D6D4D2;stroke-width:0.7209;stroke-linecap:round;stroke-linejoin:round;" x1="5.877" y1="6.037" x2="68.667" y2="6.167"/>
		<polygon style="fill:#FFFFFF;stroke:#D6D4D2;stroke-width:0.7209;stroke-linecap:round;stroke-linejoin:round;" points="
			47.125,83.754 47.125,25.512 74.273,27.247 74.273,72.183 		"/>
	</g>
	<polyline style="fill:none;stroke:#D6D4D2;stroke-width:0.7209;stroke-linecap:round;stroke-linejoin:round;" points="
		115.375,51.826 119.938,51.826 119.938,16.125 115.375,16.125 	"/>
	
		<line style="fill:none;stroke:#D6D4D2;stroke-width:0.7209;stroke-linecap:round;stroke-linejoin:round;" x1="119.938" y1="16.125" x2="147.785" y2="19.099"/>
	
		<line style="fill:none;stroke:#D6D4D2;stroke-width:0.7209;stroke-linecap:round;stroke-linejoin:round;" x1="119.938" y1="51.826" x2="147.785" y2="39.036"/>
	<g id="Layer_6" style="display:none;">
		<line style="display:inline;fill:none;stroke:#000000;stroke-width:0.5;" x1="127.84" y1="84.39" x2="37.778" y2="138.356"/>
	</g>
</g>
<g id="homme_1_">
	<g id="homme">
		<path style="fill:none;stroke:#7E7A64;stroke-width:0.9537;stroke-linecap:round;stroke-linejoin:round;" d="M190.315,97.204
			c0,0.709,0.57,1.282,1.279,1.282c0.701,0,1.281-0.573,1.281-1.282c0-0.705-0.58-1.279-1.281-1.279
			C190.886,95.925,190.315,96.499,190.315,97.204z"/>
		<path style="fill:#FFFFFF;stroke:#7E7A64;stroke-width:1.1741;stroke-linecap:round;stroke-linejoin:round;" d="M183.808,59.396
			c0.566,3.927,3.46,6.761,6.456,6.329c2.996-0.432,4.972-3.968,4.405-7.896c-0.566-3.925-3.461-6.76-6.458-6.328
			C185.216,51.933,183.242,55.47,183.808,59.396z"/>
		<path style="fill:none;stroke:#7E7A64;stroke-width:1.1741;stroke-linecap:round;stroke-linejoin:round;" d="M190.167,66.024
			c0.744,4.962,2.168,19.739,3.802,24.367c1.469,4.131,1.66,2.789,1.67,8.87c0.003,1.336,0.11,2.651,0.291,3.933"/>
	</g>
	<g id="carte">
		<path style="fill:#FFFFFF;stroke:#7E7A65;stroke-width:0.4622;stroke-linecap:round;stroke-linejoin:round;" d="M161.22,59.795
			c-1.013,1.18-1.792,2.243-2.259,3.9c-0.886-1.592-2.224-2.498-3.432-3.772c-0.694,1.264-1.318,2.958-2.159,4.075
			c-1.549-1.512-3.755-2.229-5.189-3.756c-0.16,1.554-0.296,3.469-0.73,4.941c-1.438-1.618-3.89-2.422-5.662-2.596
			c-0.116,1.553,1.22,3.743,1.871,5.166c1.273,2.781,2.611,5.542,3.615,8.445c1.422,4.114,2.945,8.087,4.539,12.079
			c0.479-0.137,3.015,0.873,4.1,1.467c-0.322-1.725-0.088-4.094,0.081-5.684c0.655,1.68,2.541,4.58,4.015,5.447
			c0,0,0.615-3.062,1.397-4.475c0.578,2.203,2.57,4.41,3.803,6.221c0.862-1.352,2.071-5.236,1.853-6.926
			C166.889,82.991,161.285,61.255,161.22,59.795"/>
		
			<line style="fill:#FFFFFF;stroke:#7E7A65;stroke-width:0.4622;stroke-linecap:round;stroke-linejoin:round;" x1="147.451" y1="65.184" x2="155.914" y2="89.745"/>
		
			<line style="fill:#FFFFFF;stroke:#7E7A65;stroke-width:0.4622;stroke-linecap:round;stroke-linejoin:round;" x1="148.181" y1="60.243" x2="155.995" y2="84.062"/>
		
			<line style="fill:#FFFFFF;stroke:#7E7A65;stroke-width:0.4622;stroke-linecap:round;stroke-linejoin:round;" x1="153.37" y1="63.999" x2="160.009" y2="89.509"/>
		
			<line style="fill:#FFFFFF;stroke:#7E7A65;stroke-width:0.4622;stroke-linecap:round;stroke-linejoin:round;" x1="155.529" y1="59.923" x2="161.406" y2="85.034"/>
		
			<line style="fill:#FFFFFF;stroke:#7E7A65;stroke-width:0.4622;stroke-linecap:round;stroke-linejoin:round;" x1="158.961" y1="63.696" x2="165.209" y2="91.255"/>
	</g>
	<ellipse style="fill:#C92D1C;" cx="152.912" cy="68.507" rx="1.333" ry="1.249"/>
	<path style="display:none;fill:none;stroke:#7E7A64;stroke-width:1.0841;stroke-linecap:round;stroke-linejoin:round;" d="
		M99.759,55.789c0,0,11.061-6.588,13.308-8.146c2.786-1.934,7.568-11.75,7.571-11.759c1.753-3.164,2.133-3.569,3.147-7.555
		c-0.714,3.295-0.631,2.752-1.25,6.301c0.221-1.21,1.084-1.628,1.292-2.969c-0.52,1.204-0.827,1.58-0.626,2.854
		c0.221-0.45,1.196-1.42,1.346-1.647c1.294-1.952,0.453,1.629-3.908,3.017"/>
	<path style="fill:none;stroke:#7E7A65;stroke-width:1.0061;stroke-linecap:round;stroke-linejoin:round;" d="M164.883,72.572
		c-2.178,1.297-5.745-0.307-4.605-0.277c0.133,0.004,3.225,0.299,3.463,0.342c-0.423-0.506-3.081-0.92-3.698-1.068
		c0.573,0.338,3.402,0.303,3.932,0.594c-1.54-0.865-4.71-1.944-6.183-2.681c1.829,0.821,5.247,2.341,6.873,3.003
		c2.67,1.082,10.842,3.137,12.347,2.953c1.504-0.182,13.573-7.397,13.573-7.397"/>
</g>
<g id="taxi">
	<g id="taxis_group">
		<g id="taxis">
			<g>
				<g>
					<path style="fill:#FFFFFF;stroke:#7E7A64;stroke-width:0.7896;stroke-linecap:round;stroke-linejoin:round;" d="
						M155.725,58.716c0,3.833,2.373,6.945,5.303,6.945c2.93,0,5.309-3.111,5.309-6.945c0-3.836-2.379-6.948-5.309-6.948
						C158.098,51.769,155.725,54.88,155.725,58.716z"/>
					<path style="fill:none;stroke:#7E7A64;stroke-width:0.7896;stroke-linecap:round;stroke-linejoin:round;" d="M161.028,65.915
						c0.008,1.221-0.032,3.105-0.079,5.276l-0.077,3.896c-0.082,4.901-0.074,10.146,0.41,12.552"/>
				</g>
				<path style="fill:#F7D75E;" d="M70.243,76.597c4.171-2.571,48.358-0.549,50.749-2.604c1.104-0.95,9.674-16.6,12.742-20.384
					c5.023-6.196,8.543-5.144,16.896-5.144c9.777,0,55.578,0,63.95,0.006c4.623,0,16.105,22.253,17.354,23.768
					c3.791,4.616,23.899,2.324,31.998,6.167c6.402,3.035,8.455,24.068,4.93,32.745c-2.947,1.812-92.769,2.79-101.023,2.79l0,0
					c-4.287-0.638-90.82,0.033-91.836-5.119c-0.744-3.792-1.263-7.533-1.825-11.342c-0.554-3.777-2.14-6.104-3.413-9.215
					C69.205,84.444,70.268,80.645,70.243,76.597 M129.86,76.548c6.322,0,40.154,0,40.154,0c0.818,0,1.481-0.661,1.481-1.48V55.479
					c0-0.817-0.663-1.482-1.481-1.482c0,0-22.25,0-27.039,0C138.186,53.998,123.551,76.548,129.86,76.548z M207.395,53.998
					c-4.789,0-27.05,0-27.05,0c-0.817,0-1.484,0.665-1.484,1.482v19.588c0,0.819,0.667,1.48,1.484,1.48c0,0,33.84,0,40.157,0
					C226.814,76.548,212.186,53.998,207.395,53.998z"/>
				<g>
					<circle style="fill:#999999;" cx="103.692" cy="114.774" r="15.981"/>
					<path style="fill:#FFFFFF;" d="M112.934,114.774c0,5.096-4.137,9.233-9.243,9.233c-5.1,0-9.237-4.138-9.237-9.233
						c0-5.102,4.137-9.24,9.237-9.24C108.797,105.534,112.934,109.673,112.934,114.774z"/>
				</g>
				<g>
					<path style="fill:#999999;" d="M215.291,114.774c0-8.829,7.157-15.985,15.979-15.985c8.824,0,15.981,7.156,15.981,15.985
						c0,8.826-7.157,15.979-15.981,15.979C222.448,130.754,215.291,123.601,215.291,114.774z"/>
					<path style="fill:#FFFFFF;" d="M240.512,114.774c0,5.096-4.135,9.233-9.241,9.233c-5.103,0-9.24-4.138-9.24-9.233
						c0-5.102,4.138-9.24,9.24-9.24C236.377,105.534,240.512,109.673,240.512,114.774z"/>
				</g>
				<polygon style="fill:#F7D75E;stroke:#F7D75E;stroke-width:1.9726;stroke-linecap:round;stroke-linejoin:round;" points="
					164.805,49.342 170.604,40.529 176.399,49.342 				"/>
			</g>
		</g>
	</g>
</g>
<g id="Layer_9">
	<g id="trottoir_bas">
		<polyline style="fill:#FFFFFF;stroke:#D6D4D2;stroke-width:0.7209;stroke-linecap:round;stroke-linejoin:round;" points="
			374.334,125.25 59.651,125.25 37.778,138.356 		"/>
	</g>
</g>
<g id="panneau">
	<g id="panneau_taxi">
		<line style="fill:none;stroke:#8C8F84;stroke-width:4;stroke-linecap:round;" x1="63.783" y1="48.524" x2="63.783" y2="134.655"/>
		<g>
			<rect x="49.379" y="19.142" style="fill:none;" width="28.808" height="28.808"/>
			<path style="fill:#3585BB;" d="M78.187,45.488c0,1.359-1.102,2.462-2.462,2.462H51.841c-1.359,0-2.462-1.103-2.462-2.462V21.606
				c0-1.362,1.103-2.464,2.462-2.464h23.884c1.36,0,2.462,1.102,2.462,2.464V45.488z"/>
			<path style="fill:none;stroke:#FFFFFF;stroke-width:0.8685;" d="M77.016,44.519c0,1.25-1.011,2.26-2.261,2.26H52.812
				c-1.25,0-2.261-1.011-2.261-2.26V22.576c0-1.25,1.011-2.263,2.261-2.263h21.943c1.25,0,2.261,1.013,2.261,2.263V44.519z"/>
		</g>
		<g>
			<path style="fill:#FFFFFF;" d="M52.285,27.42c0.475-0.293,5.51-0.062,5.782-0.297c0.126-0.106,1.102-1.891,1.452-2.321
				c0.572-0.707,0.972-0.586,1.925-0.586c1.114,0,6.333,0,7.286,0c0.527,0,1.835,2.535,1.977,2.708
				c0.432,0.526,2.724,0.266,3.646,0.703c0.729,0.348,0.964,2.743,0.562,3.733c-0.336,0.206-10.57,0.316-11.512,0.316l0,0
				c-0.487-0.071-10.347,0.004-10.462-0.584c-0.085-0.431-0.144-0.857-0.208-1.29c-0.062-0.432-0.244-0.696-0.389-1.052
				C52.167,28.315,52.288,27.882,52.285,27.42 M59.078,27.415c0.72,0,4.574,0,4.574,0c0.094,0,0.17-0.075,0.17-0.168v-2.232
				c0-0.093-0.076-0.167-0.17-0.167c0,0-2.535,0-3.08,0C60.027,24.847,58.358,27.415,59.078,27.415z M67.911,24.847
				c-0.545,0-3.08,0-3.08,0c-0.094,0-0.17,0.074-0.17,0.167v2.232c0,0.093,0.076,0.168,0.17,0.168c0,0,3.854,0,4.574,0
				S68.457,24.847,67.911,24.847z"/>
			<g>
				<circle style="fill:#FFFFFF;" cx="56.096" cy="31.771" r="1.821"/>
				<circle style="fill:#3585BB;" cx="56.097" cy="31.771" r="1.053"/>
			</g>
			<g>
				<circle style="fill:#FFFFFF;" cx="70.632" cy="31.771" r="1.821"/>
				<circle style="fill:#3585BB;" cx="70.632" cy="31.771" r="1.053"/>
			</g>
			<polygon style="fill:#FFFFFF;" points="63.059,24.316 63.72,23.312 64.38,24.316 			"/>
			
				<text transform="matrix(0.9999 0 0 1 51.6587 43.6934)" style="fill:#FFFFFF; font-family:'HelveticaNeue-Bold'; font-size:10.9482;">TAXI</text>
		</g>
	</g>
</g>
</svg>
