<?xml version="1.0" encoding="iso-8859-1"?>
<!-- Generator: Adobe Illustrator 13.0.0, SVG Export Plug-In . SVG Version: 6.00 Build 14948)  -->
<!DOCTYPE svg PUBLIC "-//W3C//DTD SVG 1.1//EN" "http://www.w3.org/Graphics/SVG/1.1/DTD/svg11.dtd">
<svg version="1.1" xmlns="http://www.w3.org/2000/svg" xmlns:xlink="http://www.w3.org/1999/xlink" x="0px" y="0px" width="540px"
	 height="200px" viewBox="0 0 540 200" style="enable-background:new 0 0 540 200;" xml:space="preserve">
<g id="Layer_2">
	<g>
		<rect style="fill:none;" width="540" height="200"/>
		<rect style="fill:#FFFFFF;" width="540" height="200"/>
	</g>
</g>
<g id="Layer_4">
	<g>
		<path style="fill:#E8F6FA;" d="M389.999,99.878c0-3.3-1.923-5.975-4.311-5.975l-210.342-0.828c-2.383,0-6.471-0.312-6.471,2.988
			l-45.997,40.943c0,3.3,1.933,5.97,4.311,5.97h223.075c-3.595,0,4.311-2.67,4.311-5.97L389.999,99.878z"/>
		<path style="fill:#A6DEEB;" d="M366.139,103.386c0-1.788-1.447-3.23-3.23-3.23l-166.941,1.615c-1.783,0-4.846-0.173-4.846,1.615
			l-32.312,22.087c0,1.783,1.442,3.23,3.23,3.23h175.01c-2.695,0,3.235-1.447,3.235-3.23L366.139,103.386z"/>
		<path style="fill:#FFFF61;" d="M360.203,103.742c0,1.883,0,1.883-1.526,3.409c0,0-18.734,15.021-22.639,17.751
			c-3.854,2.69-22.048-5.494-3.166-2.978V35.411c0-1.883,1.521-3.409,3.394-3.409l20.539-11.351c1.872,0,3.398,1.521,3.398,3.409
			V103.742z"/>
		<path style="fill:#FFFF61;" d="M360.232,23.877c0-1.784-1.446-3.226-3.229-3.226l-143.785-1.59c-1.783,0-3.229-1.125-7.337,0.664
			l-33.655,12.648c0,1.789,0,0,1.783,0h155.628c-0.743,0,4.162,5.4,4.162,0.708L360.232,23.877z"/>
		<path style="fill:#FFFFA8;" d="M332.872,122.089c0,1.788-1.446,3.235-3.235,3.235h-156.02c-1.783,0-3.229-1.447-3.229-3.235
			V35.609c0-1.789,1.446-3.235,3.229-3.235h156.02c1.789,0,3.235,1.447,3.235,3.235V122.089z"/>
		<g>
			<path style="fill:#CCCCCC;stroke:#858585;stroke-width:0.9482;stroke-linecap:round;stroke-linejoin:round;" d="M222.919,99.541
				c-13-2.66-22.013,8.531-20.204,15.24c3.403,12.594,13.604,14.377,27.576,14.14c27.279-0.471,61.197,19.134,64.561,18.95
				c3.533-10.429,4.336-14.045,7.14-23.359c-11.653-3.508-17.291-5.906-26.412-8.72C214.764,97.079,235.593,103.356,222.919,99.541"
				/>
			<path style="fill:#CCCCCC;stroke:#858585;stroke-width:1.8959;" d="M403.594,181.26c13.229,0.624,13.516-9.741,13.525-14.279
				c0.01-12.336-15.507-12.971-28.032-15.681c-16.438-3.557-44.879-9.16-87.096-26.788c-2.884,9.582-4.093,13.188-7.14,23.359
				C351.672,151.513,387.334,181.666,403.594,181.26"/>
		</g>
	</g>
</g>
</svg>
