<?xml version="1.0" encoding="iso-8859-1"?>
<!-- Generator: Adobe Illustrator 13.0.0, SVG Export Plug-In . SVG Version: 6.00 Build 14948)  -->
<!DOCTYPE svg PUBLIC "-//W3C//DTD SVG 1.1//EN" "http://www.w3.org/Graphics/SVG/1.1/DTD/svg11.dtd">
<svg version="1.1" xmlns="http://www.w3.org/2000/svg" xmlns:xlink="http://www.w3.org/1999/xlink" x="0px" y="0px" width="378px"
	 height="140px" viewBox="0 0 378 140" style="enable-background:new 0 0 378 140;" xml:space="preserve">
<g id="Layer_2">
	<g>
		<rect style="fill:none;" width="378" height="140"/>
		<rect style="fill:#FFFFFF;" width="378" height="140"/>
	</g>
</g>
<g id="Layer_3">
	<g>
		
			<ellipse style="fill:none;stroke:#777768;stroke-width:8.0608;stroke-linecap:round;stroke-linejoin:round;" cx="249.2" cy="70" rx="34.393" ry="50.378"/>
		<path style="fill:none;stroke:#777768;stroke-width:8.0608;stroke-linecap:round;stroke-linejoin:round;" d="M202.001,70.001
			c0,27.823-15.398,50.377-34.392,50.377s-34.394-22.555-34.394-50.377c0-27.826,15.4-50.381,34.394-50.381
			S202.001,42.176,202.001,70.001z"/>
		<path style="fill:none;stroke:#777768;stroke-width:8.0608;stroke-linecap:round;stroke-linejoin:round;" d="M100.407,70.001
			c0,27.823-15.399,50.377-34.393,50.377c-18.994,0-34.393-22.555-34.393-50.377c0-27.826,15.399-50.381,34.393-50.381
			C85.008,19.621,100.407,42.176,100.407,70.001z"/>
		<path style="fill:none;stroke:#777768;stroke-width:8.0608;stroke-linecap:round;stroke-linejoin:round;" d="M15.021,19.62
			c-0.86,16.868-0.623,86.449,3.802,100.761"/>
		
			<ellipse style="fill:none;stroke:#777768;stroke-width:8.0608;stroke-linecap:round;stroke-linejoin:round;" cx="328.983" cy="70" rx="34.393" ry="50.378"/>
	</g>
</g>
</svg>
