<?xml version="1.0" encoding="iso-8859-1"?>
<!-- Generator: Adobe Illustrator 13.0.0, SVG Export Plug-In . SVG Version: 6.00 Build 14948)  -->
<!DOCTYPE svg PUBLIC "-//W3C//DTD SVG 1.1//EN" "http://www.w3.org/Graphics/SVG/1.1/DTD/svg11.dtd">
<svg version="1.1" xmlns="http://www.w3.org/2000/svg" xmlns:xlink="http://www.w3.org/1999/xlink" x="0px" y="0px"
	 width="540.001px" height="200px" viewBox="0 0 540.001 200" style="enable-background:new 0 0 540.001 200;" xml:space="preserve"
	>
<g id="Layer_2">
	<g>
		<rect style="fill:#FFFFFF;" width="540.001" height="200"/>
	</g>
</g>
<g id="Layer_1">
	<g>
		<g>
			
				<rect x="427.632" y="100.724" style="fill:#CE4E43;stroke:#FFFFFF;stroke-width:0.916;stroke-linecap:square;" width="4.48" height="64.386"/>
			<g>
				<path style="fill:#CE4E43;" d="M391.909,99.312c0,1.404,1.139,2.543,2.543,2.543h70.83c1.406,0,2.543-1.139,2.543-2.543
					s-1.137-2.542-2.543-2.542h-70.83C393.048,96.771,391.909,97.908,391.909,99.312C391.909,99.312,391.909,97.908,391.909,99.312z
					"/>
				<path style="fill:none;stroke:#FFFFFF;stroke-width:1.374;" d="M391.909,99.312c0,1.404,1.139,2.543,2.543,2.543h70.83
					c1.406,0,2.543-1.139,2.543-2.543s-1.137-2.542-2.543-2.542h-70.83C393.048,96.771,391.909,97.908,391.909,99.312
					C391.909,99.312,391.909,97.908,391.909,99.312z"/>
			</g>
		</g>
		<g>
			<rect x="160.574" y="92.91" style="fill:#78B432;stroke:#FFFFFF;stroke-width:1.374;" width="5.478" height="72.816"/>
			<path style="fill:#78B432;stroke:#FFFFFF;stroke-width:1.374;" d="M179.264,96.899h-31.912V88.92c0,0,7.569-3.492,15.547-3.492
				s16.364,3.492,16.364,3.492V96.899z"/>
			<rect x="153.086" y="148.463" style="fill:#78B432;stroke:#FFFFFF;stroke-width:0.916;" width="20.448" height="1.869"/>
		</g>
		
			<line style="fill:none;stroke:#78B432;stroke-width:3.427;stroke-linecap:round;" x1="26.713" y1="56.053" x2="134.205" y2="56.053"/>
		
			<line style="fill:none;stroke:#78B432;stroke-width:3.427;stroke-linecap:square;" x1="134.205" y1="56.053" x2="134.205" y2="80.097"/>
		
			<line style="fill:none;stroke:#78B432;stroke-width:3.427;stroke-linecap:square;" x1="134.205" y1="80.097" x2="123.899" y2="80.097"/>
		
			<line style="fill:none;stroke:#78B432;stroke-width:3.427;stroke-linecap:square;" x1="123.899" y1="80.097" x2="123.899" y2="164.822"/>
		
			<line style="fill:none;stroke:#78B432;stroke-width:3.427;stroke-linecap:round;" x1="123.899" y1="164.822" x2="512.431" y2="164.822"/>
		<g>
			<g>
				
					<line style="fill:none;stroke:#78B432;stroke-width:4.2837;stroke-linecap:round;stroke-linejoin:round;" x1="369.608" y1="85.414" x2="369.608" y2="124.011"/>
				
					<line style="fill:none;stroke:#78B432;stroke-width:4.2837;stroke-linecap:round;stroke-linejoin:round;" x1="369.608" y1="124.011" x2="408.202" y2="124.011"/>
				
					<line style="fill:none;stroke:#78B432;stroke-width:4.2837;stroke-linecap:round;stroke-linejoin:round;" x1="408.202" y1="124.011" x2="369.567" y2="162.65"/>
				
					<line style="fill:none;stroke:#78B432;stroke-width:4.2837;stroke-linecap:round;stroke-linejoin:round;" x1="369.567" y1="162.65" x2="391.821" y2="162.65"/>
			</g>
			<g>
				
					<line style="fill:none;stroke:#78B432;stroke-width:4.2837;stroke-linecap:round;stroke-linejoin:round;" x1="499.364" y1="85.414" x2="499.364" y2="124.011"/>
				
					<line style="fill:none;stroke:#78B432;stroke-width:4.2837;stroke-linecap:round;stroke-linejoin:round;" x1="499.364" y1="124.011" x2="460.772" y2="124.011"/>
				
					<line style="fill:none;stroke:#78B432;stroke-width:4.2837;stroke-linecap:round;stroke-linejoin:round;" x1="460.772" y1="124.011" x2="499.405" y2="162.65"/>
				
					<line style="fill:none;stroke:#78B432;stroke-width:4.2837;stroke-linecap:round;stroke-linejoin:round;" x1="499.405" y1="162.65" x2="477.151" y2="162.65"/>
			</g>
		</g>
	</g>
	<g>
		<g>
			<g>
				<path style="fill:none;stroke:#92938B;stroke-width:1.7135;stroke-linecap:round;stroke-linejoin:round;" d="M236.209,34.129
					c0,8.667-5.369,15.691-11.986,15.691c-6.615,0-11.981-7.024-11.981-15.691c0-8.664,5.367-15.688,11.981-15.688
					C230.84,18.44,236.209,25.465,236.209,34.129z"/>
				<path style="fill:none;stroke:#92938B;stroke-width:1.7135;stroke-linecap:round;stroke-linejoin:round;" d="M224.585,71.113
					c0.177,11.066,0.161,22.92-0.931,28.344c-1.711,8.563-5.134,5.144-3.426,17.12c2.151,15.013,7.987,27.394,6.282,34.808
					c-9.347,40.499-9.703,41.656-0.571,40.513"/>
				<path style="fill:none;stroke:#92938B;stroke-width:1.7135;stroke-linecap:round;stroke-linejoin:round;" d="M224.223,50.388
					c-0.011,2.708,0.081,6.853,0.185,11.641"/>
				<path style="fill:none;stroke:#92938B;stroke-width:1.7135;stroke-linecap:round;stroke-linejoin:round;" d="M231.375,66.667
					c0,2.674-2.173,4.856-4.852,4.856c-2.675,0-4.845-2.182-4.845-4.856c0-2.682,2.17-4.849,4.845-4.849
					C229.202,61.818,231.375,63.985,231.375,66.667z"/>
			</g>
		</g>
		<g>
			<path style="fill:none;stroke:#92938B;stroke-width:1.7135;stroke-linecap:round;stroke-linejoin:round;" d="M292.632,107.22
				c0,1.513,1.235,2.736,2.741,2.736c1.503,0,2.734-1.224,2.734-2.736c0-1.511-1.231-2.729-2.734-2.729
				C293.867,104.491,292.632,105.709,292.632,107.22z"/>
			<path style="fill:none;stroke:#92938B;stroke-width:2.7946;stroke-linecap:round;stroke-linejoin:round;" d="M282.632,24.439
				c0,8.471,5.241,15.335,11.709,15.335c6.459,0,11.707-6.864,11.707-15.335c0-8.467-5.248-15.331-11.707-15.331
				C287.873,9.108,282.632,15.973,282.632,24.439z"/>
			<path style="fill:none;stroke:#92938B;stroke-width:2.7946;stroke-linecap:round;stroke-linejoin:round;" d="M294.048,40.383
				c0.052,10.703-1.444,42.35,0.607,52.624c1.839,9.175,2.655,6.396,0.814,19.241c-2.294,16.095,2.873,31.797,3.432,39.944
				c2.846,42.222,3.104,41.163-6.694,39.939"/>
		</g>
	</g>
	<path style="fill:none;stroke:#92938B;stroke-width:1.8454;stroke-linecap:round;stroke-linejoin:round;" d="M293.935,48.92
		c-7.952,4.293-9.498,30.006-15.918,32.607c-4.729,0,11.207-43.868-1.367-39.669c2.504,0.38,4.338,2.198,6.074,3.62
		c0.052,0.594-6.26,1.457-7.555,0.294c7.768,4.806,12.012-5.162-0.361-2.856c1.668-1.626,1.822-0.387,2.633-0.022"/>
</g>
</svg>
