<?xml version="1.0" encoding="iso-8859-1"?>
<!-- Generator: Adobe Illustrator 13.0.0, SVG Export Plug-In . SVG Version: 6.00 Build 14948)  -->
<!DOCTYPE svg PUBLIC "-//W3C//DTD SVG 1.1//EN" "http://www.w3.org/Graphics/SVG/1.1/DTD/svg11.dtd">
<svg version="1.1" xmlns="http://www.w3.org/2000/svg" xmlns:xlink="http://www.w3.org/1999/xlink" x="0px" y="0px" width="378px"
	 height="140px" viewBox="0 0 378 140" style="enable-background:new 0 0 378 140;" xml:space="preserve">
<g id="Layer_2">
	<g>
		<rect style="fill:none;" width="378" height="140"/>
		<rect style="fill:#FFFFFF;" width="378" height="140"/>
	</g>
</g>
<g id="Layer_3">
	<g>
		<g>
			
				<rect x="304.826" y="70.457" style="fill:#D5312C;stroke:#FFFFFF;stroke-width:0.6712;stroke-linecap:square;" width="3.283" height="47.182"/>
			<g>
				<path style="fill:#D5312C;" d="M278.648,69.423c0,1.029,0.834,1.864,1.863,1.864h51.904c1.029,0,1.863-0.835,1.863-1.864
					c0-1.028-0.834-1.862-1.863-1.862h-51.904C279.482,67.561,278.648,68.395,278.648,69.423
					C278.648,69.423,278.648,68.395,278.648,69.423z"/>
				<path style="fill:none;stroke:#FFFFFF;stroke-width:1.0069;" d="M278.648,69.423c0,1.029,0.834,1.864,1.863,1.864h51.904
					c1.029,0,1.863-0.835,1.863-1.864c0-1.028-0.834-1.862-1.863-1.862h-51.904C279.482,67.561,278.648,68.395,278.648,69.423
					C278.648,69.423,278.648,68.395,278.648,69.423z"/>
			</g>
		</g>
		<g>
			<rect x="109.126" y="64.732" style="fill:#65B724;stroke:#FFFFFF;stroke-width:1.0069;" width="4.014" height="53.359"/>
			<path style="fill:#65B724;stroke:#FFFFFF;stroke-width:1.0069;" d="M122.822,67.655H99.438v-5.847c0,0,5.546-2.56,11.393-2.56
				c5.847,0,11.992,2.56,11.992,2.56V67.655z"/>
			<rect x="103.64" y="105.44" style="fill:#65B724;stroke:#FFFFFF;stroke-width:0.6712;" width="14.985" height="1.369"/>
		</g>
		
			<line style="fill:none;stroke:#65B724;stroke-width:2.5113;stroke-linecap:round;" x1="11.034" y1="37.723" x2="89.803" y2="37.723"/>
		
			<line style="fill:none;stroke:#65B724;stroke-width:2.5113;stroke-linecap:square;" x1="89.803" y1="37.723" x2="89.803" y2="55.343"/>
		
			<line style="fill:none;stroke:#65B724;stroke-width:2.5113;stroke-linecap:square;" x1="89.803" y1="55.343" x2="82.251" y2="55.343"/>
		
			<line style="fill:none;stroke:#65B724;stroke-width:2.5113;stroke-linecap:square;" x1="82.251" y1="55.343" x2="82.251" y2="117.429"/>
		
			<line style="fill:none;stroke:#65B724;stroke-width:2.5113;stroke-linecap:round;" x1="82.251" y1="117.429" x2="366.967" y2="117.429"/>
		<g>
			<g>
				
					<line style="fill:none;stroke:#65B724;stroke-width:3.1391;stroke-linecap:round;stroke-linejoin:round;" x1="262.307" y1="59.238" x2="262.307" y2="87.522"/>
				
					<line style="fill:none;stroke:#65B724;stroke-width:3.1391;stroke-linecap:round;stroke-linejoin:round;" x1="262.307" y1="87.522" x2="290.588" y2="87.522"/>
				
					<line style="fill:none;stroke:#65B724;stroke-width:3.1391;stroke-linecap:round;stroke-linejoin:round;" x1="290.588" y1="87.522" x2="262.277" y2="115.837"/>
				
					<line style="fill:none;stroke:#65B724;stroke-width:3.1391;stroke-linecap:round;stroke-linejoin:round;" x1="262.277" y1="115.837" x2="278.582" y2="115.837"/>
			</g>
			<g>
				
					<line style="fill:none;stroke:#65B724;stroke-width:3.1391;stroke-linecap:round;stroke-linejoin:round;" x1="357.391" y1="59.238" x2="357.391" y2="87.522"/>
				
					<line style="fill:none;stroke:#65B724;stroke-width:3.1391;stroke-linecap:round;stroke-linejoin:round;" x1="357.391" y1="87.522" x2="329.111" y2="87.522"/>
				
					<line style="fill:none;stroke:#65B724;stroke-width:3.1391;stroke-linecap:round;stroke-linejoin:round;" x1="329.111" y1="87.522" x2="357.422" y2="115.837"/>
				
					<line style="fill:none;stroke:#65B724;stroke-width:3.1391;stroke-linecap:round;stroke-linejoin:round;" x1="357.422" y1="115.837" x2="341.113" y2="115.837"/>
			</g>
		</g>
	</g>
	<g>
		<g>
			<path style="fill:none;stroke:#777768;stroke-width:1.8834;stroke-linecap:round;stroke-linejoin:round;" d="M165.882,20.883
				c0,6.381-3.945,11.55-8.818,11.55c-4.868,0-8.82-5.169-8.82-11.55c0-6.376,3.952-11.546,8.82-11.546
				C161.937,9.337,165.882,14.507,165.882,20.883z"/>
			<path style="fill:none;stroke:#777768;stroke-width:1.8834;stroke-linecap:round;stroke-linejoin:round;" d="M157.33,48.106
				c0.131,8.143,0.115,16.865-0.69,20.864c-1.255,6.299-3.777,3.78-2.516,12.598c1.577,11.05,5.879,20.158,4.618,25.617
				c-6.875,29.805-7.138,30.658-0.424,29.818"/>
			<path style="fill:none;stroke:#777768;stroke-width:1.8834;stroke-linecap:round;stroke-linejoin:round;" d="M157.064,32.855
				c-0.012,2.03,0.059,5.156,0.137,8.769"/>
			<path style="fill:#FFFFFF;stroke:#777768;stroke-width:1.2556;stroke-linecap:round;stroke-linejoin:round;" d="M162.328,44.835
				c0,1.969-1.594,3.568-3.566,3.568c-1.973,0-3.576-1.6-3.576-3.568c0-1.973,1.603-3.571,3.576-3.571
				C160.734,41.264,162.328,42.862,162.328,44.835z"/>
		</g>
		<g>
			<path style="fill:none;stroke:#777768;stroke-width:1.2556;stroke-linecap:round;stroke-linejoin:round;" d="M207.191,74.712
				c0,1.111,0.898,2.015,2.014,2.015c1.104,0,2.012-0.903,2.012-2.015s-0.908-2.013-2.012-2.013
				C208.09,72.699,207.191,73.601,207.191,74.712z"/>
			<path style="fill:none;stroke:#777768;stroke-width:1.2556;stroke-linecap:round;stroke-linejoin:round;" d="M199.822,13.784
				c0,6.233,3.867,11.286,8.617,11.286c4.756,0,8.623-5.053,8.623-11.286c0-6.231-3.867-11.284-8.623-11.284
				C203.689,2.5,199.822,7.553,199.822,13.784z"/>
			<path style="fill:none;stroke:#777768;stroke-width:1.2556;stroke-linecap:round;stroke-linejoin:round;" d="M208.227,25.519
				c0.041,7.877-1.059,31.171,0.449,38.731c1.35,6.754,1.949,4.707,0.604,14.164c-1.691,11.845,2.111,23.402,2.518,29.395
				c2.098,31.078,2.287,30.301-4.922,29.396"/>
		</g>
	</g>
	<g>
		<path style="fill:none;stroke:#777768;stroke-width:0.75;" d="M180.717,27.44c-0.986-1.514,2.67-3.18,2.011-0.238
			c-0.251,1.112-1.3,1.642-1.707,2.648c-0.217,0.534-0.12,1.348-0.402,1.716"/>
		<path style="fill:none;stroke:#777768;stroke-width:0.75;" d="M179.742,33.773c0.156,0.222,0.041,0.429-0.214,0.602"/>
		<path style="fill:none;stroke:#777768;stroke-width:0.75;" d="M185.303,29.252c-1.117-1.375,2.376-2.561,2.003-0.428
			c-0.176,1.001-1.567,1.309-2.253,1.844c-0.566,0.443-0.848,1.093-1.271,1.528"/>
		<path style="fill:none;stroke:#777768;stroke-width:0.75;" d="M182.358,34.308c-0.209-0.106-0.392-0.067-0.521,0.106"/>
	</g>
	<g>
		<path style="fill:none;stroke:#777768;stroke-width:1.2556;stroke-linecap:round;stroke-linejoin:round;" d="M157.158,39.661
			c-4.358,1.331,2.541,21.972,6.572,21.972c2.688,0.399,12.713-15.023,12.432-17.359c-0.899,1.76-4.557-0.017-6.413-1.553
			c1.673,1.819,6.55,3.377,6.413,1.553c-0.115-1.546-6.294-5.208-6.294-5.208c1.574,2.337,4.966,2.738,6.294,5.208
			c0.024-1.796-3.813-7.415-3.909-9.235c0.684,1.529,3.023,7.822,3.909,9.235c0.09-2.729-1.143-6.659-0.936-9.372
			c1.115,2.369,1.134,6.711,0.936,9.372c-0.034,0.457,1.958-6.105,1.916-5.656"/>
		<g>
			<path style="fill:#FFFFFF;stroke:#4573B3;stroke-width:0.088;stroke-linecap:round;" d="M177.703,49.039
				c-1.165,0.769-2.984,0.951-4.065,0.409c-1.081-0.541-1.011-1.601,0.154-2.371c1.165-0.765,2.982-0.95,4.063-0.409
				C178.936,47.21,178.868,48.271,177.703,49.039z"/>
			
				<line style="fill:none;stroke:#404040;stroke-width:0.088;stroke-linecap:round;" x1="177.855" y1="46.668" x2="177.604" y2="46.832"/>
			
				<line style="fill:none;stroke:#404040;stroke-width:0.088;stroke-linecap:round;" x1="173.638" y1="49.448" x2="173.891" y2="49.282"/>
			
				<line style="fill:none;stroke:#404040;stroke-width:0.088;stroke-linecap:round;" x1="173.792" y1="47.077" x2="174.022" y2="47.193"/>
			
				<line style="fill:none;stroke:#404040;stroke-width:0.088;stroke-linecap:round;" x1="177.703" y1="49.039" x2="177.47" y2="48.922"/>
			<line style="fill:none;stroke:#404040;stroke-width:0.0439;" x1="178.584" y1="47.438" x2="178.39" y2="47.484"/>
			<line style="fill:none;stroke:#404040;stroke-width:0.0439;" x1="178.462" y1="48.262" x2="178.267" y2="48.26"/>
			<line style="fill:none;stroke:#404040;stroke-width:0.0439;" x1="176.505" y1="49.571" x2="176.451" y2="49.471"/>
			<line style="fill:none;stroke:#404040;stroke-width:0.0439;" x1="174.969" y1="49.754" x2="175.029" y2="49.639"/>
			<line style="fill:none;stroke:#404040;stroke-width:0.0439;" x1="172.896" y1="48.638" x2="173.115" y2="48.599"/>
			<line style="fill:none;stroke:#404040;stroke-width:0.0439;" x1="173.072" y1="47.802" x2="173.262" y2="47.812"/>
			<line style="fill:none;stroke:#404040;stroke-width:0.0439;" x1="174.911" y1="46.567" x2="174.949" y2="46.678"/>
			<line style="fill:none;stroke:#404040;stroke-width:0.0439;" x1="176.346" y1="46.355" x2="176.3" y2="46.48"/>
			
				<line style="fill:none;stroke:#404040;stroke-width:0.352;stroke-linecap:round;stroke-linejoin:round;" x1="175.744" y1="48.058" x2="174.116" y2="47.889"/>
			
				<line style="fill:none;stroke:#404040;stroke-width:0.352;stroke-linecap:round;stroke-linejoin:round;" x1="175.744" y1="48.058" x2="177.41" y2="46.962"/>
		</g>
	</g>
	<g>
		<circle style="fill:none;stroke:#404040;stroke-width:1.7771;stroke-linecap:round;" cx="299.999" cy="31" r="24.754"/>
		<line style="fill:none;stroke:#404040;stroke-width:1.7771;stroke-linecap:round;" x1="300" y1="6.244" x2="300" y2="9.2"/>
		<line style="fill:none;stroke:#404040;stroke-width:1.7771;stroke-linecap:round;" x1="300" y1="55.753" x2="300" y2="52.797"/>
		<line style="fill:none;stroke:#404040;stroke-width:1.7771;stroke-linecap:round;" x1="275.244" y1="31" x2="278.2" y2="31"/>
		<line style="fill:none;stroke:#404040;stroke-width:1.7771;stroke-linecap:round;" x1="324.753" y1="31" x2="321.797" y2="31"/>
		<line style="fill:none;stroke:#404040;stroke-width:0.8882;" x1="313.643" y1="10.345" x2="312.73" y2="11.822"/>
		<line style="fill:none;stroke:#404040;stroke-width:0.8882;" x1="321.73" y1="19.292" x2="320.287" y2="20.256"/>
		<line style="fill:none;stroke:#404040;stroke-width:0.8882;" x1="321.947" y1="42.451" x2="320.47" y2="41.712"/>
		<line style="fill:none;stroke:#404040;stroke-width:0.8882;" x1="312.941" y1="52.104" x2="312.088" y2="50.627"/>
		<line style="fill:none;stroke:#404040;stroke-width:0.8882;" x1="285.83" y1="51.299" x2="287.009" y2="49.821"/>
		<line style="fill:none;stroke:#404040;stroke-width:0.8882;" x1="277.976" y1="41.962" x2="279.453" y2="41.097"/>
		<line style="fill:none;stroke:#404040;stroke-width:0.8882;" x1="277.735" y1="20.178" x2="279.214" y2="21.082"/>
		<line style="fill:none;stroke:#404040;stroke-width:0.8882;" x1="285.753" y1="10.753" x2="286.767" y2="12.231"/>
		
			<line style="fill:none;stroke:#404040;stroke-width:3;stroke-linecap:round;stroke-linejoin:round;" x1="300" y1="31" x2="286.431" y2="37.564"/>
		
			<line style="fill:none;stroke:#404040;stroke-width:3;stroke-linecap:round;stroke-linejoin:round;" x1="300" y1="31" x2="300" y2="11.497"/>
	</g>
</g>
</svg>
