<?xml version="1.0" encoding="iso-8859-1"?>
<!-- Generator: Adobe Illustrator 13.0.0, SVG Export Plug-In . SVG Version: 6.00 Build 14948)  -->
<!DOCTYPE svg PUBLIC "-//W3C//DTD SVG 1.1//EN" "http://www.w3.org/Graphics/SVG/1.1/DTD/svg11.dtd">
<svg version="1.1" xmlns="http://www.w3.org/2000/svg" xmlns:xlink="http://www.w3.org/1999/xlink" x="0px" y="0px" width="378px"
	 height="140px" viewBox="0 0 378 140" style="enable-background:new 0 0 378 140;" xml:space="preserve">
<pattern  x="-81" y="170" width="538" height="200" patternUnits="userSpaceOnUse" id="New_Pattern_Swatch_3" viewBox="0 -200 538 200" style="overflow:visible;">
	<g>
		<polygon style="fill:none;" points="0,0 538,0 538,-200 0,-200 		"/>
		<polygon style="fill:#FFFFFF;" points="0,0 538,0 538,-200 0,-200 		"/>
	</g>
</pattern>
<g id="fond">
	<rect style="fill:#FFFFFF;" width="378" height="140"/>
</g>
<g id="homme">
	<g>
		<path style="fill:none;stroke:#777768;stroke-width:1.199;stroke-linecap:round;stroke-linejoin:round;" d="M224.704,73.147
			c0,1.059,0.864,1.915,1.918,1.915c1.053,0,1.914-0.856,1.914-1.915s-0.861-1.911-1.914-1.911
			C225.568,71.236,224.704,72.089,224.704,73.147z"/>
		<path style="fill:#FFFFFF;stroke:#787768;stroke-width:1.799;stroke-linecap:round;stroke-linejoin:round;" d="M217.704,15.2
			c0,5.929,3.668,10.734,8.197,10.734c4.521,0,8.193-4.805,8.193-10.734c0-5.927-3.673-10.732-8.193-10.732
			C221.372,4.468,217.704,9.273,217.704,15.2z"/>
		<path style="fill:none;stroke:#777768;stroke-width:1.799;stroke-linecap:round;stroke-linejoin:round;" d="M225.695,26.361
			c0.035,7.493-1.012,29.645,0.425,36.837c1.287,6.422,1.858,4.477,0.571,13.469c-1.606,11.266,2.01,22.258,2.401,27.961
			c1.992,29.556,2.173,28.813-4.687,27.957"/>
	</g>
</g>
<g id="femme">
	<path style="fill:url(#New_Pattern_Swatch_3);stroke:#777768;stroke-width:1.199;stroke-linecap:round;stroke-linejoin:round;" d="
		M146.571,33.04c-0.011,1.939,0.057,4.926,0.131,8.376"/>
	
		<ellipse style="fill:url(#New_Pattern_Swatch_3);stroke:#777768;stroke-width:1.199;stroke-linecap:round;stroke-linejoin:round;" cx="146.57" cy="21.603" rx="8.425" ry="11.033"/>
	<path style="fill:none;stroke:#777768;stroke-width:1.199;stroke-linecap:round;stroke-linejoin:round;" d="M146.823,47.608
		c0.126,7.778,0.111,16.11-0.658,19.93c-1.197,6.016-3.608,3.611-2.403,12.035c1.507,10.555,5.617,19.256,4.411,24.469
		c-6.567,28.473-6.817,29.287-0.403,28.484"/>
	<path style="fill:#FFFFFF;stroke:#787768;stroke-width:1.199;stroke-linecap:round;stroke-linejoin:round;" d="M151.599,44.482
		c0,1.882-1.521,3.409-3.406,3.409s-3.416-1.527-3.416-3.409c0-1.883,1.531-3.411,3.416-3.411S151.599,42.599,151.599,44.482z"/>
</g>
<g id="Layer_5">
	
		<circle style="fill:none;stroke:#777768;stroke-width:0.7771;stroke-linecap:round;stroke-linejoin:round;" cx="191.381" cy="28.503" r="17.56"/>
	<path style="fill:none;stroke:#777768;stroke-width:0.7771;stroke-linecap:round;stroke-linejoin:round;" d="M185.897,11.819
		c1.219,0.413,2.248,1.091,3.279,1.92c-0.945,1.905,0,0-0.479,2.472c-0.07,0.361,0.78,1.31,0.405,2.254
		c-1.331,3.359-7.18,1.12-7.907,5.672c-0.532,3.334,2.585,3.059,3.282,5.456c0.91,3.131-1.89,4.183-3.271,6.369
		c-1.146,1.815-0.381,3.683-1.729,5.448c0.495-2.206-2.5-3.117-2.265-5.756c0.223-2.505,0.862-4.854-1.731-6.532
		c0.47-1.347,2.357-2,3.074-3.21c0.703-1.187,0.576-3.086,0.619-4.554c0.043-1.482-1.318-0.873-0.71-2.495
		c0.726-1.935-0.473-0.58,0.534-2.81"/>
	<path style="fill:none;stroke:#777768;stroke-width:0.7771;stroke-linecap:round;stroke-linejoin:round;" d="M203.43,15.732
		c-2.822-1.864-3.925-3.094-6.06-2.188c0.036-0.953-1.658-0.102-2.331-0.878c-2.207,0.582-2.674,3.994-0.475,4.859
		c-0.561,0.839-1.216-0.219-1.851,0.649"/>
	<path style="fill:none;stroke:#777768;stroke-width:0.7771;stroke-linecap:round;stroke-linejoin:round;" d="M192.714,18.174
		c-1.515,1.094-0.648-0.408-1.515,1.094c0.37,0.095,1.657,2.894,2.289,2.817c-1.283-0.059-1.809,0.816-3.979,2.986
		c4.438,2.025,4.11-0.725,5.696-0.68c-1.121,0.379,6.45,1.39,6.795,2.562c1.808,0.256-4.677,1.223-6.721,0.289
		c-1.96-0.896-3.335,0.781-5.24,0.483c-1.523,6.691,5.569,4.259,5.925,8.736c-0.771,0.771-0.446,4.463,0.545,5.927
		c1.133,1.675,4.297,0.676,5.054-0.982c0.839-1.836-0.674-3.362-0.453-4.978c0.356-2.599,2.947-2.287,4.825-2.94
		c0.205,1.214,0.225,0.786,0.972,1.233c0.021-0.303,0.069-0.669,0.124-0.98c0.714-0.041,0.641-1.328,1.225-1.509"/>
	
		<rect x="176.558" y="25.375" transform="matrix(-0.9646 0.2636 -0.2636 -0.9646 357.8652 5.9454)" style="fill:#1FEAFF;" width="3.952" height="3.218"/>
	
		<line style="fill:none;stroke:#777768;stroke-width:0.4983;stroke-linecap:round;stroke-linejoin:round;" x1="180.016" y1="24.911" x2="181.75" y2="31.264"/>
	<path style="fill:#FF0000;" d="M178.469,15.37c0.203-2.498-4.787-2.125-4.982,0.092c-0.447,5.074,6.677,7.381,6.677,7.381
		s5.824-4.835,2.939-9.305C181.896,11.668,177.32,13.142,178.469,15.37"/>
	<path style="fill:#FF0000;" d="M190.992,20.364c1.437-1.382-1.733-3.786-3.016-2.568c-2.937,2.788,0.093,7.912,0.093,7.912
		s6.015,0.184,6.648-3.997C194.982,19.962,191.481,18.432,190.992,20.364"/>
	<path style="fill:#FF0000;" d="M195.317,7.289c2.225-2.141-2.686-5.864-4.674-3.978c-4.549,4.319,0.145,12.257,0.145,12.257
		s9.318,0.286,10.3-6.191C201.499,6.667,196.075,4.296,195.317,7.289"/>
</g>
</svg>
