<?xml version="1.0" encoding="iso-8859-1"?>
<!-- Generator: Adobe Illustrator 13.0.0, SVG Export Plug-In . SVG Version: 6.00 Build 14948)  -->
<!DOCTYPE svg PUBLIC "-//W3C//DTD SVG 1.1//EN" "http://www.w3.org/Graphics/SVG/1.1/DTD/svg11.dtd">
<svg version="1.1" xmlns="http://www.w3.org/2000/svg" xmlns:xlink="http://www.w3.org/1999/xlink" x="0px" y="0px"
	 width="501.371px" height="485.487px" viewBox="0 0 501.371 485.487" style="enable-background:new 0 0 501.371 485.487;"
	 xml:space="preserve">
<g id="Layer_2">
	<rect x="123.371" y="2.873" style="fill:#FFFFFF;" width="378" height="140"/>
</g>
<g id="Layer_1">
	<g>
		<g>
			<rect x="244.87" y="5.373" style="fill:none;" width="135" height="135"/>
			<path style="fill:#C8CACE;" d="M379.871,128.835c0,6.372-5.166,11.537-11.538,11.537H256.41c-6.374,0-11.54-5.165-11.54-11.537
				V16.912c0-6.374,5.166-11.539,11.54-11.539h111.923c6.372,0,11.538,5.165,11.538,11.539V128.835z"/>
			<path style="fill:#74AC2F;" d="M377.27,126.681c0,6.126-4.966,11.092-11.094,11.092H258.565c-6.127,0-11.095-4.966-11.095-11.092
				V19.067c0-6.126,4.967-11.094,11.095-11.094h107.611c6.128,0,11.094,4.967,11.094,11.094V126.681z"/>
		</g>
		<g style="display:none;">
			<rect x="297.446" y="29.796" style="display:inline;fill:#74AC2F;" width="29.849" height="86.155"/>
			<rect x="269.294" y="57.948" style="display:inline;fill:#74AC2F;" width="86.154" height="29.849"/>
		</g>
	</g>
</g>
<g id="Layer_5" style="display:none;">
</g>
<g id="fleches">
	<g>
		<g id="FLECHE_HAUT">
			
				<line style="fill:none;stroke:#FFFFFF;stroke-width:4.3124;stroke-linecap:round;stroke-linejoin:round;" x1="292.746" y1="42.81" x2="292.746" y2="21.632"/>
			
				<line style="fill:none;stroke:#FFFFFF;stroke-width:5.7499;stroke-linecap:round;stroke-linejoin:round;" x1="285.382" y1="27.36" x2="292.746" y2="18.361"/>
			
				<line style="fill:none;stroke:#FFFFFF;stroke-width:5.7499;stroke-linecap:round;stroke-linejoin:round;" x1="300.109" y1="27.36" x2="292.746" y2="18.361"/>
		</g>
		<g id="FLECHE_BAS">
			
				<line style="fill:none;stroke:#FFFFFF;stroke-width:4.3124;stroke-linecap:round;stroke-linejoin:round;" x1="331.996" y1="18.361" x2="331.996" y2="39.539"/>
			
				<line style="fill:none;stroke:#FFFFFF;stroke-width:5.7499;stroke-linecap:round;stroke-linejoin:round;" x1="339.359" y1="33.811" x2="331.996" y2="42.81"/>
			
				<line style="fill:none;stroke:#FFFFFF;stroke-width:5.7499;stroke-linecap:round;stroke-linejoin:round;" x1="324.632" y1="33.811" x2="331.996" y2="42.81"/>
		</g>
		
			<rect id="CAGE" x="260.746" y="54.584" style="fill:none;stroke:#FFFFFF;stroke-width:4.3124;stroke-linecap:round;stroke-linejoin:round;" width="103.25" height="71"/>
	</g>
</g>
<g id="PERSOS">
	<g>
		
			<rect x="324.697" y="94.084" style="fill:#FFFFFF;stroke:#FFFFFF;stroke-width:0.5;stroke-linecap:round;stroke-linejoin:round;" width="4.574" height="25.625"/>
		
			<rect x="331.97" y="94.084" style="fill:#FFFFFF;stroke:#FFFFFF;stroke-width:0.5;stroke-linecap:round;stroke-linejoin:round;" width="4.574" height="25.625"/>
		
			<rect id="TRONC" x="324.699" y="74.146" style="fill:#FFFFFF;stroke:#FFFFFF;stroke-width:0.5;stroke-linecap:round;stroke-linejoin:round;" width="11.844" height="22.438"/>
		<path style="fill:#FFFFFF;stroke:#FFFFFF;stroke-width:0.5;stroke-linecap:round;stroke-linejoin:round;" d="M330.996,73.522
			c0,0-4.639,0-7.096,0c-2.459,0-3.654,0.771-3.654,3.146s0,18.5,0,18.5h2.916c0,0,0-12.417,0-14.042s0.611-2.083,2.07-2.083
			s5.764,0,5.764,0"/>
		<path style="fill:#FFFFFF;stroke:#FFFFFF;stroke-width:0.5;stroke-linecap:round;stroke-linejoin:round;" d="M330.246,73.522
			c0,0,4.637,0,7.096,0c2.457,0,3.654,0.771,3.654,3.146s0,18.5,0,18.5h-2.916c0,0,0-12.417,0-14.042s-0.613-2.083-2.072-2.083
			s-5.762,0-5.762,0"/>
		
			<circle id="TETE" style="fill:#FFFFFF;stroke:#FFFFFF;stroke-width:0.5;stroke-linecap:round;stroke-linejoin:round;" cx="330.875" cy="66.459" r="4.375"/>
	</g>
	<g>
		
			<rect x="288.197" y="94.084" style="fill:#FFFFFF;stroke:#FFFFFF;stroke-width:0.5;stroke-linecap:round;stroke-linejoin:round;" width="4.574" height="25.625"/>
		
			<rect x="295.471" y="94.084" style="fill:#FFFFFF;stroke:#FFFFFF;stroke-width:0.5;stroke-linecap:round;stroke-linejoin:round;" width="4.574" height="25.625"/>
		
			<rect id="TRONC_1_" x="288.199" y="74.146" style="fill:#FFFFFF;stroke:#FFFFFF;stroke-width:0.5;stroke-linecap:round;stroke-linejoin:round;" width="11.845" height="22.438"/>
		<path style="fill:#FFFFFF;stroke:#FFFFFF;stroke-width:0.5;stroke-linecap:round;stroke-linejoin:round;" d="M294.496,73.522
			c0,0-4.638,0-7.096,0s-3.654,0.771-3.654,3.146s0,18.5,0,18.5h2.916c0,0,0-12.417,0-14.042s0.612-2.083,2.071-2.083
			s5.763,0,5.763,0"/>
		<path style="fill:#FFFFFF;stroke:#FFFFFF;stroke-width:0.5;stroke-linecap:round;stroke-linejoin:round;" d="M293.746,73.522
			c0,0,4.638,0,7.096,0s3.654,0.771,3.654,3.146s0,18.5,0,18.5h-2.916c0,0,0-12.417,0-14.042s-0.612-2.083-2.071-2.083
			s-5.763,0-5.763,0"/>
		
			<circle id="TETE_1_" style="fill:#FFFFFF;stroke:#FFFFFF;stroke-width:0.5;stroke-linecap:round;stroke-linejoin:round;" cx="294.375" cy="66.459" r="4.375"/>
	</g>
</g>
</svg>
