<?xml version="1.0" encoding="iso-8859-1"?>
<!-- Generator: Adobe Illustrator 13.0.0, SVG Export Plug-In . SVG Version: 6.00 Build 14948)  -->
<!DOCTYPE svg PUBLIC "-//W3C//DTD SVG 1.1//EN" "http://www.w3.org/Graphics/SVG/1.1/DTD/svg11.dtd">
<svg version="1.1" xmlns="http://www.w3.org/2000/svg" xmlns:xlink="http://www.w3.org/1999/xlink" x="0px" y="0px" width="378px"
	 height="140px" viewBox="0 0 378 140" style="enable-background:new 0 0 378 140;" xml:space="preserve">
<g id="fond">
	<g>
		<rect style="fill:none;" width="378" height="140"/>
		<rect style="fill:#FFFFFF;" width="378" height="140"/>
	</g>
</g>
<g id="persos">
	<g id="femme">
		<g>
			<path style="fill:#FFFFFF;stroke:#777768;stroke-width:1.192;stroke-linecap:round;stroke-linejoin:round;" d="M166.3,22.05
				c0,6.068-3.758,10.984-8.39,10.984c-4.629,0-8.387-4.916-8.387-10.984c0-6.065,3.757-10.982,8.387-10.982
				C162.542,11.068,166.3,15.985,166.3,22.05z"/>
			<path style="fill:none;stroke:#777768;stroke-width:1.192;stroke-linecap:round;stroke-linejoin:round;" d="M158.163,47.939
				c0.124,7.747,0.113,16.044-0.651,19.841c-1.196,5.995-3.593,3.601-2.398,11.985c1.505,10.508,5.592,19.174,4.398,24.365
				c-6.543,28.35-6.792,29.158-0.399,28.359"/>
			<path style="fill:none;stroke:#777768;stroke-width:1.192;stroke-linecap:round;stroke-linejoin:round;" d="M157.91,33.432
				c-0.008,1.896,0.057,4.798,0.13,8.148"/>
			<path style="fill:#FFFFFF;stroke:#777768;stroke-width:1.192;stroke-linecap:round;stroke-linejoin:round;" d="M162.916,44.827
				c0,1.873-1.521,3.4-3.395,3.4s-3.394-1.527-3.394-3.4c0-1.877,1.521-3.394,3.394-3.394S162.916,42.949,162.916,44.827z"/>
		</g>
	</g>
	<path style="fill:#FFFFFF;stroke:#777768;stroke-width:1.1995;stroke-linecap:round;stroke-linejoin:round;" d="M205.796,73.215
		c0,1.061,0.864,1.916,1.918,1.916c1.053,0,1.914-0.855,1.914-1.916c0-1.059-0.861-1.91-1.914-1.91
		C206.66,71.305,205.796,72.156,205.796,73.215z"/>
	<path style="fill:#FFFFFF;stroke:#777768;stroke-width:1.774;stroke-linecap:round;stroke-linejoin:round;" d="M198.796,15.268
		c0,5.93,3.668,10.735,8.196,10.735c4.521,0,8.193-4.806,8.193-10.735c0-5.927-3.672-10.732-8.193-10.732
		C202.464,4.535,198.796,9.341,198.796,15.268z"/>
	<path style="fill:none;stroke:#777768;stroke-width:1.774;stroke-linecap:round;stroke-linejoin:round;" d="M206.787,26.428
		c0.036,7.494-1.012,29.646,0.425,36.837c1.287,6.422,1.858,4.476,0.57,13.471c-1.606,11.266,2.012,22.258,2.402,27.961
		c1.992,29.555,2.172,28.812-4.687,27.957"/>
	<path style="fill:none;stroke:#777768;stroke-width:1.192;stroke-linecap:round;stroke-linejoin:round;" d="M157.286,39.366
		c-1.994,1.994,6.69,14.823,9.745,17.878c2.25,2.25,11.207,10.048,12.019,10.86"/>
	<path style="fill:#D5312C;" d="M174.365,129.033c-1.216-0.354-1.335,0.811-0.211,0.99c0.858,0.14,1.769-0.224,2.577,0.189
		c0.338,0.175-0.074,0.268-0.485,0.334c-0.673,0.109-0.91,0.444-0.172,0.676c0.87,0.277,2.09,0.144,2.993,0.052
		c0.522-0.054,0.92-0.149,1.289-0.468c0.928-0.814,0.278-2.033-0.811-2.471C178.333,127.852,175.648,129.029,174.365,129.033"/>
	<path style="fill:#D5312C;" d="M179.049,70.104c0,0-1.232,3.861,0.19,3.621S179.049,70.104,179.049,70.104z"/>
	<path style="fill:#D5312C;" d="M179.61,78.983c0,0-1.232,3.863,0.19,3.621C181.223,82.364,179.61,78.983,179.61,78.983z"/>
	<path style="fill:#FFFFFF;stroke:#777768;stroke-width:0.8;stroke-linecap:round;stroke-linejoin:round;" d="M179.101,129.335
		c2.214,1.958,5.849,2.086,8.952,1.748c-2.318-0.749-3.021-1.473-3.792-1.403c0.524-0.096,4.093-0.681,4.563-0.854
		c-0.509-0.352-4.025-0.668-4.664-0.523c0.648-0.192,3.462-0.892,3.953-1.418c-0.679-0.207-8.73,1.961-2.759-2.139
		c-3.476,1.092-5.898,3.526-6.285,4.456L179.101,129.335z"/>
	<path style="display:none;fill:none;stroke:#777768;stroke-width:1.107;stroke-linecap:round;stroke-linejoin:round;" d="
		M158.741,39.344c3.758,1.132,5.132,18.532,9.188,18.532c3.252,0,6.615-16.226,6.762-17.426c0.183-1.484,0.172-3.355,0.382-5.079
		c0.346-2.828,2.323-6.748,2.323-6.748l-2.144,5.699c0.496-0.321,1.043-0.763,1.465-1.148c-0.181,0.7,0,1.324-0.467,2.097
		c0.452-0.505,1.211-1.348,1.697-1.776c0.199,1.116-0.288,2.199-1.189,3.053c-1.086,0.551-1.504,0.781-1.847,0.735"/>
</g>
<g id="exclamation">
	<g>
		<path style="fill:none;stroke:#777768;stroke-width:1.1228;stroke-linecap:round;stroke-linejoin:round;" d="M219.067,9.938
			c-3.199-6.648,9.191-5.504,5.537,0.5c-2.02,3.319-4.203,3.751-3.564,8.481"/>
		<path style="fill:none;stroke:#777768;stroke-width:1.1228;stroke-linecap:round;stroke-linejoin:round;" d="M221.114,21.492
			l-0.26,0.94c0,0,0.525-0.906,0.178-0.845"/>
		<path style="fill:none;stroke:#777768;stroke-width:1.1228;stroke-linecap:round;stroke-linejoin:round;" d="M226.71,24.26
			l-0.26,0.94c0,0,0.525-0.906,0.178-0.845"/>
	</g>
	
		<line style="fill:none;stroke:#777768;stroke-width:1.1228;stroke-linecap:round;stroke-linejoin:round;" x1="228.375" y1="20.65" x2="233.274" y2="6.3"/>
</g>
<g id="Layer_7">
</g>
</svg>
