<?xml version="1.0" encoding="iso-8859-1"?>
<!-- Generator: Adobe Illustrator 13.0.0, SVG Export Plug-In . SVG Version: 6.00 Build 14948)  -->
<!DOCTYPE svg PUBLIC "-//W3C//DTD SVG 1.1//EN" "http://www.w3.org/Graphics/SVG/1.1/DTD/svg11.dtd">
<svg version="1.1" xmlns="http://www.w3.org/2000/svg" xmlns:xlink="http://www.w3.org/1999/xlink" x="0px" y="0px" width="540px"
	 height="200px" viewBox="0 0 540 200" style="enable-background:new 0 0 540 200;" xml:space="preserve">
<g id="Layer_2">
	<g>
		<rect style="fill:none;" width="540" height="200"/>
		<rect style="fill:#FFFFFF;" width="540" height="200"/>
	</g>
</g>
<g id="Layer_4">
	<g>
		<path style="fill:none;stroke:#919191;stroke-width:6.186;stroke-linejoin:round;" d="M403.103,56.425
			c6.746,1.268,9.816-7.704,18.345,2.044c6.528,14.91-18.972,42.479-28.59,40.332"/>
		<path style="fill:none;stroke:#919191;stroke-width:2.062;stroke-linecap:round;stroke-linejoin:round;" d="M341.926,107.033
			l-16.216,61.102c0,0,11.479,8.239,13.96,9.043c2.279,0.743,16.467,4.951,25.5,4.951c9.778,0,16.899,0.259,27.421-1.526
			c6.311-1.066,12.349-3.135,17.585-6.699c-5.724-20.345-15.806-51.534-19.002-66.611c-3.224,1.135-9.97,4.385-11.725,5.611
			c-2.375,0-8.849,0.999-12.913,0.726c-4.606-0.31-11.974-0.807-14.052-1.417C350.92,111.329,345.68,108.951,341.926,107.033"/>
		<path style="fill:none;stroke:#919191;stroke-width:2.062;stroke-linecap:round;stroke-linejoin:round;" d="M369.412,29.62
			c0.146,0.576,29.309,12.311,37.278,15.251c0,0-11.983,42.219-15.517,62.421"/>
		<path style="fill:none;stroke:#919191;stroke-width:2.062;stroke-linecap:round;stroke-linejoin:round;" d="M328.01,43.14
			c3.285-0.838,38.526-13.52,38.526-13.52"/>
		<polyline style="fill:none;stroke:#919191;stroke-width:2.062;stroke-linecap:round;stroke-linejoin:round;" points="
			341.926,107.033 328.808,46.275 332.344,62.653 311.056,45.137 326.732,45.137 		"/>
		<path style="fill:none;stroke:#919191;stroke-width:2.062;stroke-linecap:round;stroke-linejoin:round;" d="M352.736,112.273
			c-1.52,9.997-11.482,56.435-13.687,64.663"/>
		<path style="fill:none;stroke:#919191;stroke-width:2.062;stroke-linecap:round;stroke-linejoin:round;" d="M393.48,180.442
			c-2.872-12.928-11.745-54.179-14.031-67.539"/>
		<path style="fill:none;stroke:#919191;stroke-width:2.062;stroke-linecap:round;stroke-linejoin:round;" d="M352.736,112.273
			c-2.515-11.244-8.808-62.012-8.808-62.012"/>
		<path style="fill:none;stroke:#919191;stroke-width:2.062;stroke-linecap:round;stroke-linejoin:round;" d="M365.17,182.129
			c0.76-13.878,0.957-64.169,1.414-69.253"/>
		<path style="fill:none;stroke:#919191;stroke-width:2.062;stroke-linecap:round;stroke-linejoin:round;" d="M328.01,43.14
			c-8.286,1.782,12.802,7.121,15.919,7.121c3.897,0,22.74,1.806,26.079,1.806c2.899,0,18.447-0.903,22.836-0.903
			c3.717,0,17.595-5.435,12.947-6.589"/>
		<path style="fill:none;stroke:#919191;stroke-width:2.062;stroke-linecap:round;stroke-linejoin:round;" d="M366.584,112.876
			c0-17.932,3.281-43.725,3.424-60.809"/>
		
			<line style="fill:none;stroke:#919191;stroke-width:2.062;stroke-linecap:round;stroke-linejoin:round;" x1="392.844" y1="51.164" x2="379.449" y2="112.903"/>
		<path style="fill:#919191;" d="M366.147,29.988l-4.899-12.72c0,0,3.959-1.666,6.902-1.775c2.113-0.082,7.077,2.188,7.077,2.188
			l-4.685,12.201L366.147,29.988"/>
	</g>
	<g>
		<path style="fill:none;stroke:#919191;stroke-width:3.093;stroke-linecap:round;stroke-linejoin:round;" d="M252.691,141.493
			c-1.577-7.145,8.72-6.371,10.461-0.835c1.318,4.178-6.208,13.221-10.134,6.791"/>
		<path style="fill:#FFFFFF;stroke:#919191;stroke-width:1.031;stroke-linecap:round;stroke-linejoin:round;" d="M290.866,171.716
			c0,6.654-23.666,12.041-52.866,12.041c-29.197,0-52.871-5.387-52.871-12.041c0-6.645,23.674-12.031,52.871-12.031
			C267.2,159.685,290.866,165.071,290.866,171.716z"/>
		<path style="fill:#FFFFFF;stroke:#919191;stroke-width:1.031;stroke-linecap:round;stroke-linejoin:round;" d="M256.647,171.716
			c0,2.609-8.351,4.726-18.647,4.726s-18.645-2.116-18.645-4.726c0-2.604,8.348-4.716,18.645-4.716S256.647,169.112,256.647,171.716
			z"/>
		<path style="fill:#FFFFFF;stroke:#919191;stroke-width:1.031;stroke-linecap:round;stroke-linejoin:round;" d="M221.594,130.566
			c0,8.075,0.03,33.033,0.03,42.383c1.384,1.376,25.211,4.371,33.275-0.569c0,0,0,0.276,0,0c0-10.903-0.293-25.084-0.831-41.813"/>
		<path style="fill:#FFFFFF;stroke:#919191;stroke-width:1.031;stroke-linecap:round;stroke-linejoin:round;" d="M254.068,130.566
			c0,1.39-7.271,2.518-16.242,2.518c-8.965,0-16.232-1.128-16.232-2.518c0-1.387,7.268-2.512,16.232-2.512
			C246.797,128.055,254.068,129.18,254.068,130.566z"/>
	</g>
</g>
</svg>
