<?xml version="1.0" encoding="iso-8859-1"?>
<!-- Generator: Adobe Illustrator 13.0.0, SVG Export Plug-In . SVG Version: 6.00 Build 14948)  -->
<!DOCTYPE svg PUBLIC "-//W3C//DTD SVG 1.1//EN" "http://www.w3.org/Graphics/SVG/1.1/DTD/svg11.dtd">
<svg version="1.1" xmlns="http://www.w3.org/2000/svg" xmlns:xlink="http://www.w3.org/1999/xlink" x="0px" y="0px" width="540px"
	 height="200px" viewBox="0 0 540 200" style="enable-background:new 0 0 540 200;" xml:space="preserve">
<g id="Layer_3">
	<g>
		<rect style="fill:#FFFFFF;" width="540" height="200"/>
	</g>
</g>
<g id="Layer_1">
	<g>
		<g>
			<path style="fill:none;stroke:#777768;stroke-width:1.7135;" d="M38.439,16.362c0,6.909,4.277,12.512,9.556,12.512
				c5.271,0,9.552-5.603,9.552-12.512c0-6.91-4.281-12.51-9.552-12.51C42.716,3.852,38.439,9.452,38.439,16.362z"/>
			<path style="fill:none;stroke:#777768;stroke-width:1.7135;" d="M47.752,29.374c0.016,2.962,0.137,13.655,0.296,26.751"/>
			<path style="fill:#777768;stroke:#777768;stroke-width:1.7135;stroke-linecap:round;stroke-linejoin:round;" d="M48.137,32.829
				c1.174-0.458,2.408-1.536,3.618-1.583c-0.087,1.938-0.658,3.958-0.729,5.936c-1.5-0.581-2.032-2.854-3.237-3.801
				c-0.502-0.395-0.953-0.883-1.548-1.244c-0.674-0.411-1.237-0.977-2-1.19c-0.059,0.782,0.141,1.732-0.052,2.495
				c-0.199,0.776-1.511,1.877-1.143,2.733c0.478,1.125,4.241-2.191,4.744-3.055"/>
			<path style="fill:none;stroke:#777768;stroke-width:1.7135;stroke-linecap:round;stroke-linejoin:round;" d="M39.428,56.127
				c0.409-1.525,0.815-2.904,1.146-3.646c1.657-3.71,4.394-11.958,7.261-14.704"/>
		</g>
	</g>
	<g>
		<g>
			<g>
				<path style="fill:#D5312C;" d="M512.607,96.77h-6.562c-1.404,0-2.543,1.138-2.543,2.542c0,0,0-1.404,0,0
					s1.139,2.542,2.543,2.542h6.562"/>
				<path style="fill:none;stroke:#FFFFFF;stroke-width:1.374;" d="M512.607,96.77h-6.562c-1.404,0-2.543,1.138-2.543,2.542
					c0,0,0-1.404,0,0s1.139,2.542,2.543,2.542h6.562"/>
			</g>
		</g>
		<g>
			<rect x="272.164" y="92.911" style="fill:#65B724;stroke:#FFFFFF;stroke-width:1.374;" width="5.479" height="72.816"/>
			<path style="fill:#65B724;stroke:#FFFFFF;stroke-width:1.374;" d="M290.855,96.9h-31.913v-7.98c0,0,7.568-3.492,15.548-3.492
				c7.979,0,16.365,3.492,16.365,3.492V96.9z"/>
			<rect x="264.677" y="148.462" style="fill:#65B724;stroke:#FFFFFF;stroke-width:0.916;" width="20.45" height="1.869"/>
		</g>
		
			<line style="fill:none;stroke:#65B724;stroke-width:3.427;stroke-linecap:round;" x1="26.713" y1="56.052" x2="245.795" y2="56.052"/>
		
			<line style="fill:none;stroke:#65B724;stroke-width:3.427;stroke-linecap:square;" x1="245.795" y1="56.052" x2="245.795" y2="80.096"/>
		
			<line style="fill:none;stroke:#65B724;stroke-width:3.427;stroke-linecap:square;" x1="245.795" y1="80.096" x2="235.49" y2="80.096"/>
		
			<line style="fill:none;stroke:#65B724;stroke-width:3.427;stroke-linecap:square;" x1="235.49" y1="80.096" x2="235.49" y2="164.821"/>
		<line style="fill:none;stroke:#65B724;stroke-width:3.427;" x1="235.49" y1="164.821" x2="512.607" y2="164.82"/>
		<g>
			<g>
				
					<line style="fill:none;stroke:#65B724;stroke-width:4.2837;stroke-linecap:round;stroke-linejoin:round;" x1="481.201" y1="85.413" x2="481.201" y2="124.01"/>
				
					<line style="fill:none;stroke:#65B724;stroke-width:4.2837;stroke-linejoin:round;" x1="481.201" y1="124.01" x2="512.605" y2="124.01"/>
				<path style="fill:none;stroke:#65B724;stroke-width:4.2837;stroke-linejoin:round;" d="M512.607,131.198
					c-0.764,0-31.447,31.45-31.447,31.45"/>
				
					<line style="fill:none;stroke:#65B724;stroke-width:4.2837;stroke-linecap:round;stroke-linejoin:round;" x1="481.16" y1="162.648" x2="503.412" y2="162.648"/>
			</g>
		</g>
	</g>
</g>
<g id="Layer_2">
	<path style="fill:none;stroke:#777768;stroke-width:1.713;stroke-linecap:round;stroke-linejoin:round;" d="M221.5,100.708
		c-0.422-0.849-2.723-3.369-3.047-4.264"/>
	<path style="fill:none;stroke:#777768;stroke-width:1.713;stroke-linecap:round;stroke-linejoin:round;" d="M227.459,57.583
		c-10.266,4.298-7.842,37.492-9.006,38.86c-0.507,0.596-1.918,1.042-2.715,1.042c-1.281,0-3.697-1.024-4.033-1.183"/>
	<g>
		<path style="fill:none;stroke:#777768;stroke-width:2.5702;stroke-linecap:round;stroke-linejoin:round;" d="M215.91,32.515
			c0,8.566,5.296,15.504,11.838,15.504c6.534,0,11.84-6.938,11.84-15.504c0-8.559-5.306-15.499-11.84-15.499
			C221.207,17.016,215.91,23.956,215.91,32.515z"/>
		<path style="fill:none;stroke:#777768;stroke-width:2.5702;stroke-linecap:round;stroke-linejoin:round;" d="M227.393,69.061
			c-0.176,10.932-0.155,22.641,0.925,28.008c1.684,8.456,5.072,5.075,3.378,16.913c-2.117,14.833-7.893,27.061-6.199,34.389
			c9.229,40.01,9.582,41.155,0.568,40.028"/>
		<path style="fill:none;stroke:#777768;stroke-width:2.5702;stroke-linecap:round;stroke-linejoin:round;" d="M227.749,48.587
			c0.015,2.726-0.079,6.923-0.185,11.772"/>
		<path style="fill:#FFFFFF;stroke:#777768;stroke-width:1.7135;stroke-linecap:round;stroke-linejoin:round;" d="M220.684,64.668
			c0,2.644,2.138,4.791,4.786,4.791c2.649,0,4.8-2.147,4.8-4.791c0-2.647-2.151-4.793-4.8-4.793
			C222.821,59.875,220.684,62.021,220.684,64.668z"/>
	</g>
	<g>
		<path style="fill:none;stroke:#777768;stroke-width:1.7135;stroke-linecap:round;stroke-linejoin:round;" d="M295.205,104.776
			c0,1.491,1.205,2.704,2.701,2.704c1.481,0,2.701-1.213,2.701-2.704s-1.22-2.701-2.701-2.701
			C296.41,102.075,295.205,103.285,295.205,104.776z"/>
		<path style="fill:none;stroke:#777768;stroke-width:1.7135;stroke-linecap:round;stroke-linejoin:round;" d="M285.312,22.985
			c0,8.369,5.189,15.151,11.568,15.151c6.382,0,11.573-6.782,11.573-15.151c0-8.365-5.191-15.147-11.573-15.147
			C290.502,7.838,285.312,14.62,285.312,22.985z"/>
		<path style="fill:none;stroke:#777768;stroke-width:1.7135;stroke-linecap:round;stroke-linejoin:round;" d="M296.594,38.738
			c0.054,10.574-1.422,41.845,0.602,51.994c1.813,9.066,2.619,6.318,0.811,19.015c-2.271,15.899,2.834,31.415,3.38,39.459
			c2.816,41.72,3.07,40.677-6.605,39.463"/>
	</g>
	<g>
		<path style="fill:#FCCF3D;" d="M220.627,106.649c0,1.057-2.549,1.057-4.561,1.057s-4.365-0.149-4.373-1.057
			c-0.012-0.905,0-3.92,0-3.92s0.933,0.923,4.43,0.923c3.5,0,4.504-0.747,4.504-0.747S220.627,105.593,220.627,106.649z"/>
		<path style="fill:#FFFFD9;" d="M220.604,101.924c0,0.152,0.023,0.644,0.023,1.166c0,0.482-2.861,0.683-4.484,0.683
			c-1.491,0-3.28-0.308-4.09-0.512c-0.519-0.134-0.359-1.162-0.359-1.337c0-0.443,1.991-0.805,4.456-0.805
			C218.608,101.119,220.604,101.48,220.604,101.924z"/>
		<g>
			<path style="fill:none;stroke:#FFFFFF;stroke-width:0.1624;" d="M213.042,101.607c0,0.083-0.074,0.152-0.162,0.152
				c-0.094,0-0.165-0.069-0.165-0.152c0-0.08,0.07-0.149,0.165-0.149C212.968,101.458,213.042,101.527,213.042,101.607z"/>
			<ellipse style="fill:none;stroke:#FFFFFF;stroke-width:0.1624;" cx="215.848" cy="102.684" rx="0.164" ry="0.15"/>
			<path style="fill:none;stroke:#FFFFFF;stroke-width:0.1624;" d="M214.568,101.343c0,0.081-0.074,0.147-0.168,0.147
				c-0.091,0-0.165-0.066-0.165-0.147c0-0.087,0.074-0.153,0.165-0.153C214.494,101.189,214.568,101.256,214.568,101.343z"/>
			<path style="fill:none;stroke:#FFFFFF;stroke-width:0.1624;" d="M212.802,98.684c0,0.081-0.071,0.148-0.159,0.148
				c-0.097,0-0.168-0.067-0.168-0.148c0-0.083,0.071-0.15,0.168-0.15C212.731,98.534,212.802,98.601,212.802,98.684z"/>
			<path style="fill:none;stroke:#FFFFFF;stroke-width:0.1624;" d="M213.969,99.637c0,0.084-0.074,0.154-0.165,0.154
				c-0.088,0-0.165-0.069-0.165-0.154c0-0.081,0.076-0.148,0.165-0.148C213.895,99.489,213.969,99.556,213.969,99.637z"/>
			<path style="fill:none;stroke:#FFFFFF;stroke-width:0.1624;" d="M216.266,99.458c0,0.084-0.071,0.152-0.163,0.152
				c-0.09,0-0.163-0.067-0.163-0.152c0-0.081,0.072-0.148,0.163-0.148C216.194,99.31,216.266,99.377,216.266,99.458z"/>
		</g>
		<path style="fill:none;stroke:#FFFFFF;stroke-width:0.1624;" d="M214.252,106.874c0.08-0.019,0.162,0.037,0.183,0.125
			c0.02,0.087-0.026,0.177-0.105,0.196c-0.081,0.019-0.164-0.037-0.183-0.125C214.121,106.983,214.168,106.897,214.252,106.874z"/>
		<path style="fill:none;stroke:#FFFFFF;stroke-width:0.1624;" d="M218.961,105.299c0.08-0.021,0.163,0.034,0.184,0.123
			c0.023,0.086-0.025,0.175-0.104,0.194c-0.08,0.021-0.163-0.035-0.184-0.125C218.838,105.404,218.881,105.318,218.961,105.299z"/>
		
			<ellipse transform="matrix(-0.239 -0.971 0.971 -0.239 172.4062 339.7499)" style="fill:none;stroke:#FFFFFF;stroke-width:0.1624;" cx="219.333" cy="102.318" rx="0.163" ry="0.148"/>
		<path style="fill:none;stroke:#FFFFFF;stroke-width:0.1624;" d="M218.337,103.885c0.083-0.021,0.161,0.034,0.185,0.123
			c0.023,0.088-0.028,0.177-0.105,0.195c-0.083,0.02-0.166-0.036-0.186-0.124C218.208,103.99,218.256,103.904,218.337,103.885z"/>
		<path style="fill:none;stroke:#FFFFFF;stroke-width:0.1624;" d="M216.183,106.232c0.077-0.021,0.157,0.033,0.179,0.121
			c0.021,0.089-0.022,0.175-0.102,0.198c-0.08,0.017-0.163-0.041-0.186-0.127C216.051,106.336,216.103,106.252,216.183,106.232z"/>
		<path style="fill:none;stroke:#FFFFFF;stroke-width:0.1624;" d="M213.14,104.075c0.083-0.021,0.165,0.036,0.188,0.123
			c0.023,0.086-0.027,0.175-0.106,0.195c-0.083,0.021-0.163-0.036-0.186-0.125C213.017,104.183,213.063,104.094,213.14,104.075z"/>
		<path style="fill:none;stroke:#FFFFFF;stroke-width:0.1624;" d="M216.831,104.872c0.079-0.02,0.162,0.035,0.186,0.123
			c0.02,0.089-0.028,0.175-0.112,0.196c-0.074,0.017-0.159-0.037-0.183-0.125C216.7,104.978,216.748,104.892,216.831,104.872z"/>
		<path style="fill:none;stroke:#FFFFFF;stroke-width:0.1624;" d="M214.933,104.169c0.08-0.02,0.163,0.036,0.186,0.127
			c0.023,0.086-0.026,0.175-0.105,0.192c-0.08,0.021-0.162-0.035-0.186-0.123C214.808,104.278,214.854,104.19,214.933,104.169z"/>
		<path style="fill:none;stroke:#FFFFFF;stroke-width:0.1624;" d="M217.073,103.214c0.077-0.019,0.163,0.035,0.18,0.125
			c0.024,0.089-0.023,0.175-0.103,0.194s-0.161-0.037-0.185-0.121C216.944,103.321,216.99,103.233,217.073,103.214z"/>
		<path style="fill:none;stroke:#FFFFFF;stroke-width:0.1624;" d="M212.965,106.153c0.077-0.022,0.16,0.035,0.183,0.121
			c0.02,0.089-0.025,0.177-0.106,0.196c-0.079,0.021-0.162-0.034-0.182-0.123C212.836,106.262,212.882,106.173,212.965,106.153z"/>
		<path style="fill:none;stroke:#A8D0DA;stroke-width:0.3679;stroke-linecap:round;stroke-linejoin:round;" d="M211.729,90.999
			c-0.037,6.721-0.037,10.213-0.037,15.57c0,1.138,2.108,1.138,4.373,1.138c2.205,0,4.561,0.044,4.561-1.057
			c0-4.385,0-11.288-0.04-15.651"/>
		
			<ellipse style="fill:none;stroke:#A8D0DA;stroke-width:0.3679;stroke-linecap:round;stroke-linejoin:round;" cx="216.158" cy="90.999" rx="4.429" ry="0.835"/>
		<path style="fill:none;stroke:#A8D0DA;stroke-width:0.2453;stroke-linecap:round;stroke-linejoin:round;" d="M211.693,96.09
			c1.204-0.563,0.771,4.661,0.813,5.447c0.098,1.973-0.074,4.077-0.083,5.847"/>
		<path style="fill:none;stroke:#A8D0DA;stroke-width:0.2453;stroke-linecap:round;stroke-linejoin:round;" d="M213.316,107.543
			c0-1.452,0.162-2.826,0.162-4.302c0-1.72-0.338-3.362,0.063-5.036c0.103-0.426,0.306-1.846,0.979-1.791
			c0.462,0.037,0.752,1.258,0.827,1.625c0.348,1.792,0.094,3.937,0,5.764c-0.063,1.239-0.163,2.763-0.163,3.821"/>
		<path style="fill:none;stroke:#A8D0DA;stroke-width:0.2453;stroke-linecap:round;stroke-linejoin:round;" d="M216.157,107.625
			c0-1.967,0.188-3.852,0.083-5.846c-0.088-1.63-0.382-3.689,0.42-5.104c1.589-0.457,1.207,9.737,1.207,10.949"/>
		<path style="fill:none;stroke:#A8D0DA;stroke-width:0.2453;stroke-linecap:round;stroke-linejoin:round;" d="M220.057,107.384
			c0-1.626,0.04-7.473-0.08-8.94c-0.061-0.728-0.931-3.71-1.469-1.7c-0.369,1.391-0.126,2.759,0.006,4.141
			c0.211,2.167,0.23,4.699,0.244,6.659"/>
	</g>
	<g>
		<path style="fill:none;stroke:#777768;stroke-width:1.3087;stroke-linecap:round;stroke-linejoin:round;" d="M279.926,89.784
			c0.109,0.313,0.262,0.615,0.436,0.899c0.159,0.269,0.468,0.523,0.475,0.845c-1.215-1.33-1.652-3.375-1.301-5.164
			c0.131-0.665,0.389-1.513,0.528-2.174c0.042-0.197,4.74,0.419,4.866,0.272c-0.005,0.094-4.742-0.444-4.764-0.35"/>
		<path style="fill:none;stroke:#777768;stroke-width:1.713;stroke-linecap:round;stroke-linejoin:round;" d="M296.479,43.475
			c-15.312,30.507-10.158,40.035-11.549,40.987"/>
		<path style="fill:none;stroke:#777768;stroke-width:1.3087;stroke-linecap:round;stroke-linejoin:round;" d="M284.93,84.462
			c0.434,1.335,4.216,3.166,4.533,3.987"/>
		<g>
			<path style="fill:#FCCF3D;" d="M279.93,95.973c0,1.036,2.497,1.036,4.467,1.036s4.274-0.147,4.283-1.036
				c0.01-0.886,0.005-1.992,0.005-1.992s-0.938,0.86-4.364,0.86c-3.428,0-4.391-0.707-4.391-0.707S279.93,94.935,279.93,95.973z"/>
			<path style="fill:#FFFFD9;" d="M279.935,93.179c0,0.15-0.022,0.632-0.022,1.143c0,0.473,2.802,0.667,4.392,0.667
				c1.461,0,3.212-0.299,4.007-0.5c0.508-0.128,0.352-1.137,0.352-1.31c0-0.433-1.95-0.788-4.364-0.788
				C281.89,92.391,279.935,92.747,279.935,93.179z"/>
			<path style="fill:none;stroke:#FFFFFF;stroke-width:0.1591;" d="M286.173,96.194c-0.078-0.021-0.159,0.035-0.179,0.122
				c-0.02,0.085,0.025,0.174,0.104,0.19c0.078,0.02,0.159-0.034,0.179-0.123C286.301,96.299,286.255,96.217,286.173,96.194z"/>
			<path style="fill:none;stroke:#FFFFFF;stroke-width:0.1591;" d="M281.56,94.651c-0.077-0.022-0.159,0.034-0.182,0.117
				c-0.021,0.087,0.026,0.174,0.104,0.193c0.077,0.02,0.159-0.036,0.178-0.123C281.68,94.751,281.639,94.667,281.56,94.651z"/>
			<path style="fill:none;stroke:#FFFFFF;stroke-width:0.1591;" d="M284.281,95.562c-0.075-0.016-0.152,0.034-0.176,0.123
				c-0.021,0.084,0.023,0.167,0.101,0.19c0.079,0.02,0.159-0.036,0.181-0.123C284.41,95.668,284.36,95.584,284.281,95.562z"/>
			<path style="fill:none;stroke:#FFFFFF;stroke-width:0.1591;" d="M287.434,95.486c-0.076-0.019-0.157,0.037-0.179,0.119
				c-0.021,0.085,0.024,0.175,0.103,0.19c0.079,0.023,0.158-0.033,0.18-0.119S287.514,95.506,287.434,95.486z"/>
			<path style="fill:none;stroke:#A8D0DA;stroke-width:0.3603;stroke-linecap:round;stroke-linejoin:round;" d="M288.643,80.645
				c0.037,6.581,0.037,10,0.037,15.25c0,1.114-2.065,1.114-4.283,1.114c-2.16,0-4.467,0.042-4.467-1.036
				c0-4.294,0-11.055,0.038-15.328"/>
			
				<ellipse style="fill:none;stroke:#A8D0DA;stroke-width:0.3603;stroke-linecap:round;stroke-linejoin:round;" cx="284.305" cy="80.645" rx="4.337" ry="0.818"/>
			<path style="fill:none;stroke:#A8D0DA;stroke-width:0.2402;stroke-linecap:round;stroke-linejoin:round;" d="M288.68,85.63
				c-1.18-0.551-0.755,4.565-0.798,5.335c-0.094,1.931,0.073,3.992,0.082,5.726"/>
			<path style="fill:none;stroke:#A8D0DA;stroke-width:0.2402;stroke-linecap:round;stroke-linejoin:round;" d="M287.09,96.847
				c0-1.421-0.16-2.766-0.16-4.213c0-1.684,0.333-3.293-0.062-4.934c-0.1-0.415-0.299-1.807-0.958-1.754
				c-0.453,0.04-0.737,1.235-0.811,1.596c-0.34,1.757-0.091,3.855,0,5.646c0.062,1.213,0.16,2.706,0.16,3.742"/>
			<path style="fill:none;stroke:#A8D0DA;stroke-width:0.2402;stroke-linecap:round;stroke-linejoin:round;" d="M284.308,96.929
				c0-1.926-0.186-3.775-0.082-5.725c0.087-1.599,0.374-3.616-0.41-5.001c-1.558-0.448-1.182,9.538-1.182,10.726"/>
			<path style="fill:none;stroke:#A8D0DA;stroke-width:0.2402;stroke-linecap:round;stroke-linejoin:round;" d="M280.486,96.691
				c0-1.593-0.038-7.32,0.079-8.756c0.059-0.716,0.912-3.632,1.439-1.665c0.36,1.363,0.123,2.701-0.006,4.056
				c-0.207,2.123-0.226,4.604-0.24,6.521"/>
		</g>
		<path style="fill:none;stroke:#777768;stroke-width:1.3087;stroke-linecap:round;stroke-linejoin:round;" d="M289.463,88.449
			c0,0.682-0.158,1.095-0.493,1.835c-0.556,1.222-1.389,2.497-3.444,2.993"/>
		<path style="fill:none;stroke:#777768;stroke-width:1.3087;stroke-linecap:round;stroke-linejoin:round;" d="M281.999,90.595
			c-0.712-0.515-1.17-1.272-1.821-2.246c-0.195-0.294-0.601-0.937-0.732-1.327c-0.305,0.413,0.324,1.298,0.318,1.819
			c-0.005,0.327,0.878,4.446,0.983,4.749"/>
		<path style="fill:none;stroke:#777768;stroke-width:1.3087;stroke-linecap:round;stroke-linejoin:round;" d="M279.454,86.616
			c0.581,0.296,0.997,0.521,1.695,0.584c0.551,0.05,1.344,0.07,1.791-0.227"/>
	</g>
	<path style="fill:none;stroke:#777768;stroke-width:1.713;stroke-linecap:round;stroke-linejoin:round;" d="M221.5,100.708
		c-0.509,1.412-2.641,2.818-3.824,2.593"/>
	<path style="fill:none;stroke:#777768;stroke-width:1.713;stroke-linecap:round;stroke-linejoin:round;" d="M212.743,103.975
		c-1.349-1.283-1.049-1.715-1.589-2.789c0.279,0.564,2.302-0.218,2.694,0.397c-0.454-0.831-2.223-1.881-2.371-2.824
		c0.445,0.712,1.791-0.521,2.484-0.283c-0.717-0.621-1.813-1.933-2.268-2.386"/>
</g>
</svg>
