<?xml version="1.0" encoding="iso-8859-1"?>
<!-- Generator: Adobe Illustrator 13.0.0, SVG Export Plug-In . SVG Version: 6.00 Build 14948)  -->
<!DOCTYPE svg PUBLIC "-//W3C//DTD SVG 1.1//EN" "http://www.w3.org/Graphics/SVG/1.1/DTD/svg11.dtd">
<svg version="1.1" xmlns="http://www.w3.org/2000/svg" xmlns:xlink="http://www.w3.org/1999/xlink" x="0px" y="0px" width="378px"
	 height="140px" viewBox="0 0 378 140" style="enable-background:new 0 0 378 140;" xml:space="preserve">
<g id="fond">
	<rect style="fill:#FFFFFF;" width="378" height="140"/>
</g>
<g id="Layer_2">
	<polygon style="fill:#CC9933;stroke:#777768;stroke-width:0.5;stroke-linecap:round;stroke-linejoin:round;" points="
		225.25,122.508 151.542,122.508 164.87,35.508 211.923,35.508 	"/>
	
		<rect x="151.542" y="122.508" style="fill:#FFFFFF;stroke:#777768;stroke-width:0.5;stroke-linecap:round;stroke-linejoin:round;" width="73.708" height="6.492"/>
	<polygon style="fill:#FFFFFF;stroke:#777768;stroke-width:0.5;stroke-linecap:round;stroke-linejoin:round;" points="
		197.076,22.522 179.715,22.522 164.87,35.508 211.923,35.508 	"/>
	
		<rect x="179.76" y="13" style="fill:#FFFFFF;stroke:#777768;stroke-width:0.5;stroke-linecap:round;stroke-linejoin:round;" width="17.362" height="9.522"/>
	<g>
		
			<line style="fill:#FFFFFF;stroke:#777768;stroke-width:0.5;stroke-linecap:round;stroke-linejoin:round;" x1="181.705" y1="13" x2="181.705" y2="22.522"/>
		
			<line style="fill:#FFFFFF;stroke:#777768;stroke-width:0.5;stroke-linecap:round;stroke-linejoin:round;" x1="183.629" y1="13" x2="183.629" y2="22.522"/>
		
			<line style="fill:#FFFFFF;stroke:#777768;stroke-width:0.5;stroke-linecap:round;stroke-linejoin:round;" x1="185.553" y1="13" x2="185.553" y2="22.522"/>
		
			<line style="fill:#FFFFFF;stroke:#777768;stroke-width:0.5;stroke-linecap:round;stroke-linejoin:round;" x1="187.478" y1="13" x2="187.478" y2="22.522"/>
		
			<line style="fill:#FFFFFF;stroke:#777768;stroke-width:0.5;stroke-linecap:round;stroke-linejoin:round;" x1="189.403" y1="13" x2="189.403" y2="22.522"/>
		
			<line style="fill:#FFFFFF;stroke:#777768;stroke-width:0.5;stroke-linecap:round;stroke-linejoin:round;" x1="191.328" y1="13" x2="191.328" y2="22.522"/>
		
			<line style="fill:#FFFFFF;stroke:#777768;stroke-width:0.5;stroke-linecap:round;stroke-linejoin:round;" x1="193.252" y1="13" x2="193.252" y2="22.522"/>
		
			<line style="fill:#FFFFFF;stroke:#777768;stroke-width:0.5;stroke-linecap:round;stroke-linejoin:round;" x1="195.177" y1="13" x2="195.177" y2="22.522"/>
	</g>
	<polygon style="fill:#FFF200;stroke:#777768;stroke-width:0.5;stroke-linecap:round;stroke-linejoin:round;" points="
		200.687,92.377 192.616,83.432 192.698,95.479 188.406,84.222 184.131,95.485 184.195,83.438 176.14,92.397 180.55,81.187 
		169.804,86.63 177.967,77.771 165.979,78.964 176.792,73.65 165.183,70.434 177.184,69.386 167.521,62.19 179.09,65.549 
		172.678,55.351 182.253,62.66 179.959,50.835 186.247,61.109 188.38,49.254 190.53,61.106 196.802,50.821 194.526,62.651 
		204.09,55.325 197.693,65.534 209.259,62.159 199.605,69.368 211.609,70.397 200.005,73.633 210.826,78.928 198.836,77.754 
		207.013,86.601 196.257,81.174 	"/>
</g>
<g id="Layer_3">
</g>
</svg>
