<?xml version="1.0" encoding="iso-8859-1"?>
<!-- Generator: Adobe Illustrator 13.0.0, SVG Export Plug-In . SVG Version: 6.00 Build 14948)  -->
<!DOCTYPE svg PUBLIC "-//W3C//DTD SVG 1.1//EN" "http://www.w3.org/Graphics/SVG/1.1/DTD/svg11.dtd">
<svg version="1.1" xmlns="http://www.w3.org/2000/svg" xmlns:xlink="http://www.w3.org/1999/xlink" x="0px" y="0px" width="378px"
	 height="140px" viewBox="0 0 378 140" style="enable-background:new 0 0 378 140;" xml:space="preserve">
<g id="Layer_2">
	<rect style="fill:#FFFFFF;" width="378" height="140"/>
</g>
<g id="Femme_Dr">
	<path style="fill:none;stroke:#6A6752;stroke-width:2.8;stroke-linecap:round;stroke-linejoin:round;" d="M177.591,36.888
		c0,10.822-6.709,19.592-14.958,19.592c-8.255,0-14.969-8.77-14.969-19.592c0-10.818,6.714-19.589,14.969-19.589
		C170.881,17.299,177.591,26.07,177.591,36.888z"/>
	<path style="display:none;fill:#FFFFFF;stroke:#808178;stroke-width:1.4;stroke-linecap:round;stroke-linejoin:round;" d="
		M196.903,117.626c4.802,4.65,13.065,5.811,20.425,6.203c-5.294-2.283-6.802-3.959-8.623-4.086c1.247-0.008,9.756,0.05,10.894-0.135
		c-1.125-0.867-9.322-2.706-10.85-2.632c1.563-0.163,8.379,0,9.639-0.871c-1.553-0.646-19.902-0.791-5.904-5.742
		c-8.391,0.982-14.781,4.939-15.882,6.657"/>
	<path style="fill:none;stroke:#6A6752;stroke-width:2.8;stroke-linecap:round;stroke-linejoin:round;" d="M163.002,57.261
		c-0.071,13.673,1.838,54.111-0.778,67.235c-1.285,6.418-2.177,8.258-2.339,11.301"/>
	<path style="fill:#FFFFFF;stroke:#6A6752;stroke-width:1.4;stroke-linecap:round;stroke-linejoin:round;" d="M159.973,78.729
		c0,3.564,2.882,6.458,6.454,6.458c3.57,0,6.471-2.894,6.471-6.458c0-3.569-2.9-6.464-6.471-6.464
		C162.855,72.265,159.973,75.159,159.973,78.729z"/>
	<path style="display:none;fill:none;stroke:#808178;stroke-width:1.4;stroke-linecap:round;stroke-linejoin:round;" d="
		M163.179,60.364c1.971-0.629,3.035,2.146,3.035,4.621c0,21.371,8.279,44.763,30.689,52.641"/>
	<polyline style="fill:#FFFFFF;stroke:#6A6752;stroke-width:1.4;stroke-linecap:round;stroke-linejoin:round;" points="
		176.169,22.135 151.031,22.135 148.592,27.354 176.919,27.354 	"/>
	<path style="fill:#FFFFFF;stroke:#6A6752;stroke-width:1.4;stroke-linecap:round;stroke-linejoin:round;" d="M178.383,18.467
		c0,0-1.614,1.313-1.614,4.652c0,4.24,2.065,6.49,2.065,6.49"/>
	
		<circle style="fill:#FFFFFF;stroke:#6A6752;stroke-width:1.4;stroke-linecap:round;stroke-linejoin:round;" cx="178.969" cy="24.009" r="2.002"/>
	<g id="st&#xE9;toscope">
		<path style="fill:none;stroke:#6A6752;stroke-width:1.4;stroke-linecap:round;stroke-linejoin:round;" d="M158.357,37.15
			c-4.987-2.376-8.479,5.237-3.129,8.954c4.854,3.372,16.055,24.583,18.047,29.242c1.18,2.76-7.979-13.055-6.695-19.562"/>
		<path style="fill:none;stroke:#6A6752;stroke-width:1.4;stroke-linecap:round;stroke-linejoin:round;" d="M173.442,75.661
			c2.387,6.871-5.508,24.68-3.504,36.031"/>
		<g>
			<polygon style="fill:none;stroke:#6A6752;stroke-linecap:round;stroke-linejoin:round;" points="169.579,111.931 
				170.406,111.931 173.447,115.282 166.539,115.282 			"/>
			
				<ellipse style="fill:#FFFFFF;stroke:#6A6752;stroke-linecap:round;stroke-linejoin:round;" cx="170.054" cy="115.487" rx="3.216" ry="0.663"/>
		</g>
		<circle style="display:none;fill:#808178;stroke:#6A6752;" cx="166.169" cy="51.553" r="1.032"/>
		<circle style="fill:#6A6752;stroke:#6A6752;" cx="158.716" cy="37.209" r="1.032"/>
	</g>
	<g id="sirop">
		<path style="fill:none;stroke:#6A6752;stroke-width:0.5129;" d="M186.651,84.115c0-11.91,0-10.199,0-12.476
			c0-3.954,2.464-4.672,2.464-4.672h5.76c0,0,2.462,0.718,2.462,4.672c0,2.276,0,0.565,0,12.476H186.651z"/>
		<rect x="189.115" y="62.706" style="fill:none;stroke:#6A6752;stroke-width:0.5;" width="5.953" height="4.262"/>
	</g>
	<g>
		<path style="fill:#FFFFFF;stroke:#6A6752;stroke-width:0.5;" d="M215.933,75.537c1.167,0,2.113,0.961,2.113,2.145v4.289
			c0,1.186-0.946,2.145-2.113,2.145h-10.445c-1.166,0-2.112-0.959-2.112-2.145v-4.289c0-1.184,0.946-2.145,2.112-2.145H215.933z"/>
		<ellipse style="fill:#B15895;stroke:#6A6752;stroke-width:0.25;" cx="206.276" cy="81.766" rx="0.853" ry="0.902"/>
		<ellipse style="fill:#B15895;stroke:#6A6752;stroke-width:0.25;" cx="209.231" cy="81.766" rx="0.853" ry="0.902"/>
		<ellipse style="fill:#B15895;stroke:#6A6752;stroke-width:0.25;" cx="212.189" cy="81.766" rx="0.852" ry="0.902"/>
		<ellipse style="fill:#B15895;stroke:#6A6752;stroke-width:0.25;" cx="215.144" cy="81.766" rx="0.854" ry="0.902"/>
		<ellipse style="fill:#B15895;stroke:#6A6752;stroke-width:0.25;" cx="206.276" cy="77.886" rx="0.853" ry="0.902"/>
		<ellipse style="fill:#B15895;stroke:#6A6752;stroke-width:0.25;" cx="212.189" cy="77.886" rx="0.852" ry="0.902"/>
		<ellipse style="fill:#B15895;stroke:#6A6752;stroke-width:0.25;" cx="215.144" cy="77.886" rx="0.854" ry="0.902"/>
		<ellipse style="fill:#B15895;stroke:#6A6752;stroke-width:0.25;" cx="209.231" cy="77.886" rx="0.853" ry="0.902"/>
	</g>
	<path style="fill:#FFFFFF;stroke:#6A6752;stroke-width:0.5;" d="M208.577,82.527c-0.567,1.02-1.866,1.38-2.901,0.804l-3.748-2.084
		c-1.036-0.576-1.414-1.87-0.848-2.89l5.077-9.129c0.567-1.019,1.865-1.379,2.901-0.803l3.748,2.084
		c1.035,0.576,1.414,1.869,0.848,2.889L208.577,82.527z"/>
	
		<ellipse transform="matrix(0.8739 0.4862 -0.4862 0.8739 60.7665 -92.0802)" style="fill:#3890CD;stroke:#6A6752;stroke-width:0.25;" cx="207.827" cy="71.061" rx="0.902" ry="0.854"/>
	
		<ellipse transform="matrix(0.8741 0.4858 -0.4858 0.8741 61.763 -90.9875)" style="fill:#3890CD;stroke:#6A6752;stroke-width:0.25;" cx="206.391" cy="73.643" rx="0.902" ry="0.853"/>
	
		<ellipse transform="matrix(0.8741 0.4858 -0.4858 0.8741 62.8372 -89.9638)" style="fill:#3890CD;stroke:#6A6752;stroke-width:0.25;" cx="204.953" cy="76.227" rx="0.902" ry="0.853"/>
	
		<ellipse transform="matrix(0.8739 0.4862 -0.4862 0.8739 63.9908 -89.0067)" style="fill:#3890CD;stroke:#6A6752;stroke-width:0.25;" cx="203.517" cy="78.811" rx="0.902" ry="0.852"/>
	
		<ellipse transform="matrix(0.8737 0.4864 -0.4864 0.8737 62.1548 -93.5298)" style="fill:#3890CD;stroke:#6A6752;stroke-width:0.25;" cx="211.217" cy="72.946" rx="0.901" ry="0.853"/>
	
		<ellipse transform="matrix(0.874 0.486 -0.486 0.874 64.2248 -91.4112)" style="fill:#3890CD;stroke:#6A6752;stroke-width:0.25;" cx="208.343" cy="78.113" rx="0.901" ry="0.852"/>
	
		<ellipse transform="matrix(0.8737 0.4864 -0.4864 0.8737 65.3803 -90.4544)" style="fill:#3890CD;stroke:#6A6752;stroke-width:0.25;" cx="206.907" cy="80.696" rx="0.901" ry="0.853"/>
	
		<ellipse transform="matrix(0.874 0.486 -0.486 0.874 63.1501 -92.4355)" style="fill:#3890CD;stroke:#6A6752;stroke-width:0.25;" cx="209.781" cy="75.529" rx="0.901" ry="0.853"/>
</g>
<g id="Layer_6">
</g>
<g id="Homme">
	<path style="fill:#FFFFFF;stroke:#6A6752;stroke-width:1.4;stroke-linecap:round;stroke-linejoin:round;" d="M243.366,33.301
		c0,13.113,8.109,23.734,18.123,23.734c10.002,0,18.123-10.621,18.123-23.734c0-13.104-8.121-23.727-18.123-23.727
		C251.476,9.574,243.366,20.198,243.366,33.301z"/>
	<path style="fill:#FFFFFF;stroke:#6A6752;stroke-width:1.4;stroke-linecap:round;stroke-linejoin:round;" d="M261.489,57.905
		c0.022,4.173-0.121,10.597-0.283,18.019l-0.263,13.32c-0.269,16.733-0.234,34.661,1.417,42.877c0.284,1.428,0.6,2.634,0.934,3.676"
		/>
	<path style="display:none;fill:none;stroke:#808178;stroke-width:1.4;stroke-linecap:round;stroke-linejoin:round;" d="
		M261.286,76.706c10.475,15.176-18.209,39.171-38.435,40.028"/>
</g>
<g id="Layer_4">
	<path style="display:none;fill:#FFFFFF;stroke:#808178;stroke-width:1.4;stroke-linecap:round;stroke-linejoin:round;" d="
		M201.688,117.371c4.205,5.195,12.268,7.348,19.527,8.621c-4.982-2.904-6.275-4.749-8.068-5.095c1.24,0.143,9.678,1.228,10.83,1.181
		c-1.013-0.998-8.928-3.811-10.453-3.922c1.57,0.025,8.318,1.01,9.674,0.298c-1.463-0.829-19.661-3.187-5.169-6.412
		c-8.448-0.038-15.269,3.118-16.568,4.692"/>
	<g>
		<path style="fill:#FFFFFF;stroke:#6A6752;stroke-width:1.4;stroke-linecap:round;stroke-linejoin:round;" d="M197.8,38.993
			c-6.557-11.931,18.836-9.878,11.347,0.898c-4.139,5.956-8.613,6.732-7.304,15.222"/>
		<path style="fill:#FFFFFF;stroke:#6A6752;stroke-width:1.4;stroke-linecap:round;stroke-linejoin:round;" d="M201.995,59.729
			l-0.534,1.687c0,0,1.077-1.626,0.366-1.518"/>
	</g>
</g>
</svg>
