<?xml version="1.0" encoding="iso-8859-1"?>
<!-- Generator: Adobe Illustrator 13.0.0, SVG Export Plug-In . SVG Version: 6.00 Build 14948)  -->
<!DOCTYPE svg PUBLIC "-//W3C//DTD SVG 1.1//EN" "http://www.w3.org/Graphics/SVG/1.1/DTD/svg11.dtd">
<svg version="1.1" id="Layer_1" xmlns="http://www.w3.org/2000/svg" xmlns:xlink="http://www.w3.org/1999/xlink" x="0px" y="0px"
	 width="378px" height="140px" viewBox="0 0 378 140" style="enable-background:new 0 0 378 140;" xml:space="preserve">
<g>
	<rect style="fill:#FFFFFF;" width="378" height="140"/>
</g>
<g>
	<path style="fill:none;stroke:#777768;stroke-width:1.1991;stroke-linecap:round;stroke-linejoin:round;" d="M162.085,65.591
		c0.301-0.604,1.545-3.496,1.955-4.238"/>
	<path style="fill:none;stroke:#777768;stroke-width:1.1991;stroke-linecap:round;stroke-linejoin:round;" d="M157.904,39.064
		c7.305,3.058,5.521,22.519,6.35,23.492c0.361,0.424,0.535,0.708,1.02,1.001c0.779,0.472,1.22,0.206,2.085,0.505
		c0.775,0.269,1.388,1.146,1.627,2.094"/>
	<g>
		<g>
			<path style="fill:#FCCF3D;" d="M162.706,69.819c0,0.752,1.814,0.752,3.246,0.752c1.431,0,3.106-0.107,3.111-0.752
				c0.008-0.644,0.001-7.639,0.001-7.639s-0.679,0.619-3.167,0.619c-2.491,0-3.191-0.717-3.191-0.717S162.706,69.067,162.706,69.819
				z"/>
			<path style="fill:#FFFFD9;" d="M162.703,61.819c0,0.108-0.017,0.458-0.017,0.83c0,0.343,2.036,0.485,3.191,0.485
				c1.061,0,2.333-0.219,2.911-0.364c0.369-0.096,0.255-0.827,0.255-0.952c0-0.316-1.416-0.573-3.17-0.573
				C164.124,61.246,162.703,61.503,162.703,61.819z"/>
			<g>
				<ellipse style="fill:none;stroke:#FFFFFF;stroke-width:0.1137;" cx="168.506" cy="62.707" rx="0.118" ry="0.106"/>
				<path style="fill:none;stroke:#FFFFFF;stroke-width:0.1137;" d="M168.104,66.231c0,0.059,0.053,0.108,0.115,0.108
					c0.067,0,0.117-0.049,0.117-0.108c0-0.057-0.05-0.106-0.117-0.106C168.157,66.125,168.104,66.174,168.104,66.231z"/>
				<ellipse style="fill:none;stroke:#FFFFFF;stroke-width:0.1137;" cx="166.107" cy="66.997" rx="0.117" ry="0.107"/>
				<path style="fill:none;stroke:#FFFFFF;stroke-width:0.1137;" d="M167.018,66.042c0,0.058,0.053,0.105,0.12,0.105
					c0.065,0,0.118-0.048,0.118-0.105c0-0.062-0.053-0.109-0.118-0.109C167.07,65.933,167.018,65.981,167.018,66.042z"/>
				<ellipse style="fill:none;stroke:#FFFFFF;stroke-width:0.1137;" cx="165.395" cy="65.574" rx="0.117" ry="0.105"/>
				<path style="fill:none;stroke:#FFFFFF;stroke-width:0.1137;" d="M168.274,64.15c0,0.057,0.051,0.105,0.114,0.105
					c0.069,0,0.12-0.048,0.12-0.105c0-0.059-0.051-0.107-0.12-0.107C168.325,64.043,168.274,64.091,168.274,64.15z"/>
				<ellipse style="fill:none;stroke:#FFFFFF;stroke-width:0.1137;" cx="165.374" cy="63.937" rx="0.115" ry="0.106"/>
				<ellipse style="fill:none;stroke:#FFFFFF;stroke-width:0.1137;" cx="165.162" cy="62.559" rx="0.115" ry="0.105"/>
				<ellipse style="fill:none;stroke:#FFFFFF;stroke-width:0.1137;" cx="166.383" cy="62.419" rx="0.117" ry="0.106"/>
				<path style="fill:none;stroke:#FFFFFF;stroke-width:0.1137;" d="M167.444,64.829c0,0.06,0.053,0.109,0.118,0.109
					c0.062,0,0.117-0.049,0.117-0.109c0-0.058-0.054-0.105-0.117-0.105C167.497,64.723,167.444,64.771,167.444,64.829z"/>
				<path style="fill:none;stroke:#FFFFFF;stroke-width:0.1137;" d="M166.638,63.639c0,0.06,0.053,0.108,0.115,0.108
					c0.063,0,0.121-0.048,0.121-0.108c0-0.056-0.058-0.105-0.121-0.105C166.691,63.534,166.638,63.583,166.638,63.639z"/>
				<ellipse style="fill:none;stroke:#FFFFFF;stroke-width:0.1137;" cx="165.926" cy="64.701" rx="0.116" ry="0.108"/>
				<ellipse style="fill:none;stroke:#FFFFFF;stroke-width:0.1137;" cx="167.788" cy="61.944" rx="0.116" ry="0.105"/>
			</g>
			<path style="fill:none;stroke:#FFFFFF;stroke-width:0.1137;" d="M167.243,69.979c-0.057-0.014-0.115,0.026-0.13,0.089
				c-0.014,0.062,0.019,0.126,0.075,0.14c0.057,0.014,0.116-0.026,0.13-0.089C167.336,70.057,167.302,69.995,167.243,69.979z"/>
			
				<ellipse transform="matrix(0.2435 -0.9699 0.9699 0.2435 57.0649 211.1045)" style="fill:none;stroke:#FFFFFF;stroke-width:0.1137;" cx="163.863" cy="68.97" rx="0.116" ry="0.106"/>
			
				<ellipse transform="matrix(0.2376 -0.9714 0.9714 0.2376 59.9259 209.8223)" style="fill:none;stroke:#FFFFFF;stroke-width:0.1137;" cx="163.627" cy="66.736" rx="0.116" ry="0.106"/>
			
				<ellipse transform="matrix(0.242 -0.9703 0.9703 0.242 58.5942 210.9361)" style="fill:none;stroke:#FFFFFF;stroke-width:0.1137;" cx="164.308" cy="67.965" rx="0.117" ry="0.106"/>
			
				<ellipse transform="matrix(0.2332 -0.9724 0.9724 0.2332 63.4128 208.2371)" style="fill:none;stroke:#FFFFFF;stroke-width:0.1137;" cx="163.748" cy="63.909" rx="0.117" ry="0.107"/>
			<path style="fill:none;stroke:#FFFFFF;stroke-width:0.1137;" d="M165.869,69.522c-0.055-0.015-0.111,0.023-0.127,0.086
				c-0.015,0.063,0.016,0.125,0.073,0.141c0.057,0.012,0.116-0.029,0.132-0.09C165.962,69.596,165.926,69.536,165.869,69.522z"/>
			<path style="fill:none;stroke:#FFFFFF;stroke-width:0.1137;" d="M163.553,61.956c-0.057-0.012-0.116,0.026-0.128,0.089
				c-0.016,0.063,0.016,0.125,0.073,0.139c0.059,0.014,0.116-0.026,0.132-0.089C163.644,62.033,163.61,61.971,163.553,61.956z"/>
			<path style="fill:none;stroke:#FFFFFF;stroke-width:0.1137;" d="M163.752,65.311c-0.059-0.014-0.116,0.026-0.13,0.089
				c-0.016,0.063,0.017,0.123,0.071,0.14c0.059,0.012,0.118-0.026,0.132-0.089C163.841,65.388,163.807,65.325,163.752,65.311z"/>
			
				<ellipse transform="matrix(0.2504 -0.9681 0.9681 0.2504 60.0084 213.7024)" style="fill:none;stroke:#FFFFFF;stroke-width:0.1137;" cx="168.005" cy="68.1" rx="0.117" ry="0.108"/>
			<path style="fill:none;stroke:#FFFFFF;stroke-width:0.1137;" d="M165.408,68.554c-0.056-0.014-0.115,0.024-0.132,0.087
				c-0.014,0.063,0.02,0.125,0.079,0.139c0.053,0.013,0.114-0.026,0.131-0.089C165.501,68.629,165.467,68.568,165.408,68.554z"/>
			
				<ellipse transform="matrix(0.242 -0.9703 0.9703 0.242 60.2332 213.4395)" style="fill:none;stroke:#FFFFFF;stroke-width:0.1137;" cx="166.729" cy="68.167" rx="0.117" ry="0.106"/>
			<path style="fill:none;stroke:#FFFFFF;stroke-width:0.1137;" d="M165.235,67.374c-0.055-0.014-0.116,0.025-0.127,0.089
				c-0.017,0.063,0.016,0.125,0.073,0.138c0.057,0.014,0.115-0.026,0.131-0.086C165.327,67.451,165.294,67.388,165.235,67.374z"/>
			
				<ellipse transform="matrix(0.2356 -0.9719 0.9719 0.2356 60.8996 216.5844)" style="fill:none;stroke:#FFFFFF;stroke-width:0.1137;" cx="168.131" cy="69.579" rx="0.116" ry="0.106"/>
			<path style="fill:none;stroke:#A8D0DA;stroke-width:0.2575;stroke-linecap:round;stroke-linejoin:round;" d="M169.038,58.682
				c0.026,4.782,0.026,7.268,0.026,11.08c0,0.81-1.5,0.81-3.111,0.81c-1.569,0-3.246,0.031-3.246-0.752c0-3.12,0-8.032,0.029-11.137
				"/>
			
				<ellipse style="fill:none;stroke:#A8D0DA;stroke-width:0.2575;stroke-linecap:round;stroke-linejoin:round;" cx="165.886" cy="58.682" rx="3.151" ry="0.595"/>
			<path style="fill:none;stroke:#A8D0DA;stroke-width:0.1717;stroke-linecap:round;stroke-linejoin:round;" d="M169.063,62.305
				c-0.856-0.401-0.548,3.317-0.578,3.876c-0.07,1.404,0.053,2.901,0.059,4.16"/>
			<path style="fill:none;stroke:#A8D0DA;stroke-width:0.1717;stroke-linecap:round;stroke-linejoin:round;" d="M167.908,70.455
				c0-1.034-0.115-2.011-0.115-3.062c0-1.224,0.241-2.393-0.045-3.583c-0.073-0.304-0.217-1.314-0.697-1.274
				c-0.329,0.026-0.535,0.896-0.588,1.157c-0.248,1.275-0.067,2.801,0,4.102c0.045,0.882,0.116,1.966,0.116,2.719"/>
			<path style="fill:none;stroke:#A8D0DA;stroke-width:0.1717;stroke-linecap:round;stroke-linejoin:round;" d="M165.887,70.513
				c0-1.4-0.134-2.741-0.059-4.16c0.063-1.16,0.272-2.625-0.299-3.631c-1.13-0.326-0.858,6.929-0.858,7.792"/>
			<path style="fill:none;stroke:#A8D0DA;stroke-width:0.1717;stroke-linecap:round;stroke-linejoin:round;" d="M163.112,70.341
				c0-1.157-0.029-5.317,0.057-6.361c0.043-0.518,0.663-2.64,1.045-1.21c0.262,0.99,0.089,1.963-0.004,2.946
				c-0.15,1.542-0.164,3.344-0.173,4.739"/>
		</g>
	</g>
	<path style="fill:none;stroke:#777768;stroke-width:1.1991;stroke-linecap:round;stroke-linejoin:round;" d="M162.085,65.591
		c0.362,1.004,1.879,2.005,2.721,1.845"/>
	<path style="fill:none;stroke:#777768;stroke-width:1.1991;stroke-linecap:round;stroke-linejoin:round;" d="M168.316,67.916
		c0.96-0.913,0.747-1.22,1.131-1.985c-0.198,0.402-1.638-0.155-1.917,0.283c0.323-0.591,1.582-1.338,1.687-2.01
		c-0.316,0.507-1.274-0.371-1.768-0.201c0.51-0.441,1.291-1.375,1.614-1.698"/>
</g>
<g>
	<g>
		
			<rect x="299.342" y="70.506" style="fill:#D5312C;stroke:#FFFFFF;stroke-width:0.6412;stroke-linecap:square;" width="3.136" height="45.07"/>
		<g>
			<path style="fill:#D5312C;" d="M274.336,69.519c0,0.983,0.797,1.78,1.779,1.78h49.582c0.982,0,1.779-0.797,1.779-1.78
				c0-0.983-0.797-1.78-1.779-1.78h-49.582C275.133,67.739,274.336,68.536,274.336,69.519
				C274.336,69.519,274.336,68.536,274.336,69.519z"/>
			<path style="fill:none;stroke:#FFFFFF;stroke-width:0.9618;" d="M274.336,69.519c0,0.983,0.797,1.78,1.779,1.78h49.582
				c0.982,0,1.779-0.797,1.779-1.78c0-0.983-0.797-1.78-1.779-1.78h-49.582C275.133,67.739,274.336,68.536,274.336,69.519
				C274.336,69.519,274.336,68.536,274.336,69.519z"/>
		</g>
	</g>
	<g>
		<rect x="112.401" y="65.038" style="fill:#65B724;stroke:#FFFFFF;stroke-width:0.9618;" width="3.834" height="50.972"/>
		<path style="fill:#65B724;stroke:#FFFFFF;stroke-width:0.9618;" d="M125.484,67.83h-22.338v-5.585c0,0,5.298-2.445,10.883-2.445
			c5.585,0,11.455,2.445,11.455,2.445V67.83z"/>
		<rect x="107.16" y="103.924" style="fill:#65B724;stroke:#FFFFFF;stroke-width:0.6412;" width="14.314" height="1.309"/>
	</g>
	
		<line style="fill:none;stroke:#65B724;stroke-width:2.3989;stroke-linecap:round;" x1="18.699" y1="39.237" x2="93.942" y2="39.237"/>
	
		<line style="fill:none;stroke:#65B724;stroke-width:2.3989;stroke-linecap:square;" x1="93.942" y1="39.237" x2="93.942" y2="56.068"/>
	
		<line style="fill:none;stroke:#65B724;stroke-width:2.3989;stroke-linecap:square;" x1="93.942" y1="56.068" x2="86.729" y2="56.068"/>
	
		<line style="fill:none;stroke:#65B724;stroke-width:2.3989;stroke-linecap:square;" x1="86.729" y1="56.068" x2="86.729" y2="115.375"/>
	
		<line style="fill:none;stroke:#65B724;stroke-width:2.3989;stroke-linecap:round;" x1="86.729" y1="115.375" x2="358.702" y2="115.375"/>
	<g>
		<g>
			
				<line style="fill:none;stroke:#65B724;stroke-width:2.9986;stroke-linecap:round;stroke-linejoin:round;" x1="258.726" y1="59.79" x2="258.726" y2="86.809"/>
			
				<line style="fill:none;stroke:#65B724;stroke-width:2.9986;stroke-linecap:round;stroke-linejoin:round;" x1="258.726" y1="86.809" x2="285.741" y2="86.809"/>
			
				<line style="fill:none;stroke:#65B724;stroke-width:2.9986;stroke-linecap:round;stroke-linejoin:round;" x1="285.741" y1="86.809" x2="258.698" y2="113.855"/>
			
				<line style="fill:none;stroke:#65B724;stroke-width:2.9986;stroke-linecap:round;stroke-linejoin:round;" x1="258.698" y1="113.855" x2="274.273" y2="113.855"/>
		</g>
		<g>
			
				<line style="fill:none;stroke:#65B724;stroke-width:2.9986;stroke-linecap:round;stroke-linejoin:round;" x1="349.555" y1="59.79" x2="349.555" y2="86.809"/>
			
				<line style="fill:none;stroke:#65B724;stroke-width:2.9986;stroke-linecap:round;stroke-linejoin:round;" x1="349.555" y1="86.809" x2="322.542" y2="86.809"/>
			
				<line style="fill:none;stroke:#65B724;stroke-width:2.9986;stroke-linecap:round;stroke-linejoin:round;" x1="322.542" y1="86.809" x2="349.584" y2="113.855"/>
			
				<line style="fill:none;stroke:#65B724;stroke-width:2.9986;stroke-linecap:round;stroke-linejoin:round;" x1="349.584" y1="113.855" x2="334.006" y2="113.855"/>
		</g>
	</g>
</g>
<g>
	<g>
		<g>
			<path style="fill:none;stroke:#777768;stroke-width:1.1995;stroke-linecap:round;stroke-linejoin:round;" d="M166.246,23.368
				c0,6.068-3.758,10.984-8.391,10.984c-4.63,0-8.386-4.917-8.386-10.984c0-6.064,3.756-10.982,8.386-10.982
				C162.487,12.386,166.246,17.303,166.246,23.368z"/>
			<path style="fill:none;stroke:#777768;stroke-width:1.1995;stroke-linecap:round;stroke-linejoin:round;" d="M158.108,49.257
				c0.125,7.747,0.113,16.043-0.651,19.841c-1.197,5.996-3.594,3.601-2.397,11.985c1.505,10.509,5.591,19.175,4.397,24.364
				c-6.543,28.35-6.792,29.16-0.399,28.359"/>
			<path style="fill:none;stroke:#777768;stroke-width:1.1995;stroke-linecap:round;stroke-linejoin:round;" d="M157.855,34.75
				c-0.008,1.896,0.057,4.797,0.129,8.148"/>
			<path style="fill:#FFFFFF;stroke:#777768;stroke-width:1.1995;stroke-linecap:round;stroke-linejoin:round;" d="M162.861,46.145
				c0,1.872-1.521,3.399-3.395,3.399c-1.873,0-3.393-1.527-3.393-3.399c0-1.877,1.52-3.394,3.393-3.394
				C161.34,42.75,162.861,44.267,162.861,46.145z"/>
		</g>
	</g>
	<g>
		<path style="fill:none;stroke:#777768;stroke-width:1.1995;stroke-linecap:round;stroke-linejoin:round;" d="M205.741,74.533
			c0,1.059,0.864,1.914,1.918,1.914c1.053,0,1.914-0.855,1.914-1.914s-0.861-1.911-1.914-1.911
			C206.605,72.622,205.741,73.475,205.741,74.533z"/>
		<path style="fill:none;stroke:#777768;stroke-width:1.7991;stroke-linecap:round;stroke-linejoin:round;" d="M198.741,16.586
			c0,5.929,3.668,10.734,8.196,10.734c4.521,0,8.194-4.805,8.194-10.734c0-5.928-3.673-10.732-8.194-10.732
			C202.409,5.854,198.741,10.658,198.741,16.586z"/>
		<path style="fill:none;stroke:#777768;stroke-width:1.7991;stroke-linecap:round;stroke-linejoin:round;" d="M206.731,27.746
			c0.036,7.493-1.012,29.646,0.426,36.837c1.286,6.422,1.857,4.477,0.57,13.47c-1.605,11.266,2.011,22.258,2.402,27.961
			c1.991,29.555,2.172,28.813-4.688,27.957"/>
	</g>
</g>
<g>
	<path style="fill:none;stroke:#777768;stroke-width:0.9161;stroke-linecap:round;stroke-linejoin:round;" d="M192.305,65.122
		c0.078,0.223,0.188,0.438,0.311,0.64c0.113,0.191,0.332,0.372,0.338,0.601c-0.865-0.946-1.179-2.402-0.926-3.674
		c0.094-0.473,0.246-0.564,0.346-1.035c0.029-0.14,3.76-0.983,3.85-1.087"/>
	<path style="fill:none;stroke:#777768;stroke-width:1.1991;stroke-linecap:round;stroke-linejoin:round;" d="M206.686,31.999
		c-10.896,21.708-9.83,28.658-10.82,29.336"/>
	<path style="fill:none;stroke:#777768;stroke-width:0.9161;stroke-linecap:round;stroke-linejoin:round;" d="M197.727,62.18
		c0.309,0.95,1.139,1.407,1.365,1.992"/>
	<g>
		<path style="fill:#FCCF3D;" d="M192.308,69.525c0,0.737,1.776,0.737,3.179,0.737c1.401,0,3.041-0.104,3.047-0.737
			c0.008-0.63,0-7.87,0-7.87s-0.666,0.4-3.104,0.4c-2.44,0-3.122-0.52-3.122-0.52S192.308,68.787,192.308,69.525z"/>
		<path style="fill:#FFFFD9;" d="M192.324,61.108c0,0.106-0.016,0.45-0.016,0.813c0,0.337,1.993,0.475,3.125,0.475
			c1.04,0,2.286-0.213,2.851-0.355c0.362-0.092,0.25-0.81,0.25-0.933c0-0.308-1.387-0.561-3.105-0.561
			C193.715,60.547,192.324,60.8,192.324,61.108z"/>
		<g>
			<ellipse style="fill:none;stroke:#FFFFFF;stroke-width:0.1114;" cx="197.987" cy="62.561" rx="0.115" ry="0.104"/>
			<path style="fill:none;stroke:#FFFFFF;stroke-width:0.1114;" d="M197.594,66.012c0,0.058,0.051,0.106,0.112,0.106
				c0.066,0,0.116-0.048,0.116-0.106c0-0.057-0.05-0.103-0.116-0.103C197.645,65.909,197.594,65.955,197.594,66.012z"/>
			<path style="fill:none;stroke:#FFFFFF;stroke-width:0.1114;" d="M195.524,66.76c0,0.06,0.05,0.108,0.113,0.108
				s0.115-0.048,0.115-0.108c0-0.055-0.052-0.103-0.115-0.103S195.524,66.705,195.524,66.76z"/>
			<path style="fill:none;stroke:#FFFFFF;stroke-width:0.1114;" d="M196.53,65.826c0,0.058,0.052,0.104,0.117,0.104
				c0.064,0,0.115-0.046,0.115-0.104c0-0.06-0.051-0.105-0.115-0.105C196.582,65.721,196.53,65.766,196.53,65.826z"/>
			<ellipse style="fill:none;stroke:#FFFFFF;stroke-width:0.1114;" cx="194.941" cy="65.369" rx="0.114" ry="0.103"/>
			<path style="fill:none;stroke:#FFFFFF;stroke-width:0.1114;" d="M197.76,63.973c0,0.058,0.051,0.103,0.111,0.103
				c0.068,0,0.118-0.045,0.118-0.103c0-0.056-0.05-0.104-0.118-0.104C197.811,63.869,197.76,63.917,197.76,63.973z"/>
			<path style="fill:none;stroke:#FFFFFF;stroke-width:0.1114;" d="M194.806,63.766c0,0.055,0.05,0.103,0.116,0.103
				c0.062,0,0.111-0.048,0.111-0.103c0-0.058-0.05-0.103-0.111-0.103C194.856,63.663,194.806,63.708,194.806,63.766z"/>
			<ellipse style="fill:none;stroke:#FFFFFF;stroke-width:0.1114;" cx="194.713" cy="62.414" rx="0.113" ry="0.103"/>
			<ellipse style="fill:none;stroke:#FFFFFF;stroke-width:0.1114;" cx="195.91" cy="62.279" rx="0.114" ry="0.103"/>
			<ellipse style="fill:none;stroke:#FFFFFF;stroke-width:0.1114;" cx="197.063" cy="64.639" rx="0.115" ry="0.105"/>
			<ellipse style="fill:none;stroke:#FFFFFF;stroke-width:0.1114;" cx="196.274" cy="63.474" rx="0.115" ry="0.105"/>
			<path style="fill:none;stroke:#FFFFFF;stroke-width:0.1114;" d="M195.348,64.513c0,0.06,0.049,0.105,0.113,0.105
				c0.062,0,0.112-0.045,0.112-0.105c0-0.055-0.05-0.103-0.112-0.103C195.397,64.411,195.348,64.458,195.348,64.513z"/>
			<ellipse style="fill:none;stroke:#FFFFFF;stroke-width:0.1114;" cx="197.285" cy="61.812" rx="0.114" ry="0.104"/>
		</g>
		<path style="fill:none;stroke:#FFFFFF;stroke-width:0.1114;" d="M196.75,69.683c-0.055-0.014-0.113,0.025-0.127,0.087
			c-0.014,0.06,0.018,0.124,0.074,0.135c0.055,0.014,0.113-0.024,0.127-0.087C196.842,69.758,196.809,69.699,196.75,69.683z"/>
		
			<ellipse transform="matrix(0.2446 -0.9696 0.9696 0.2446 79.5244 239.4623)" style="fill:none;stroke:#FFFFFF;stroke-width:0.1114;" cx="193.44" cy="68.695" rx="0.114" ry="0.106"/>
		
			<ellipse transform="matrix(0.2345 -0.9721 0.9721 0.2345 83.2498 238.7316)" style="fill:none;stroke:#FFFFFF;stroke-width:0.1114;" cx="193.209" cy="66.506" rx="0.115" ry="0.102"/>
		
			<ellipse transform="matrix(0.243 -0.97 0.97 0.243 81.0768 239.3171)" style="fill:none;stroke:#FFFFFF;stroke-width:0.1114;" cx="193.876" cy="67.71" rx="0.115" ry="0.105"/>
		
			<ellipse transform="matrix(0.2321 -0.9727 0.9727 0.2321 86.4609 236.9928)" style="fill:none;stroke:#FFFFFF;stroke-width:0.1114;" cx="193.328" cy="63.737" rx="0.116" ry="0.105"/>
		
			<ellipse transform="matrix(0.2305 -0.9731 0.9731 0.2305 82.8728 243.4816)" style="fill:none;stroke:#FFFFFF;stroke-width:0.1114;" cx="195.378" cy="69.344" rx="0.114" ry="0.101"/>
		<path style="fill:none;stroke:#FFFFFF;stroke-width:0.1114;" d="M193.137,61.825c-0.057-0.013-0.113,0.025-0.125,0.086
			c-0.016,0.062,0.016,0.123,0.071,0.138c0.058,0.012,0.112-0.026,0.128-0.088C193.226,61.901,193.192,61.839,193.137,61.825z"/>
		
			<ellipse transform="matrix(0.247 -0.969 0.969 0.247 82.3489 236.4193)" style="fill:none;stroke:#FFFFFF;stroke-width:0.1114;" cx="193.302" cy="65.221" rx="0.115" ry="0.101"/>
		<path style="fill:none;stroke:#FFFFFF;stroke-width:0.1114;" d="M197.526,67.73c-0.059-0.014-0.115,0.026-0.131,0.087
			c-0.016,0.059,0.018,0.12,0.072,0.135c0.059,0.016,0.114-0.024,0.131-0.087C197.612,67.806,197.58,67.744,197.526,67.73z"/>
		<path style="fill:none;stroke:#FFFFFF;stroke-width:0.1114;" d="M194.954,68.287c-0.055-0.014-0.113,0.025-0.129,0.086
			c-0.014,0.061,0.021,0.121,0.077,0.137c0.052,0.011,0.111-0.026,0.127-0.088C195.045,68.36,195.011,68.299,194.954,68.287z"/>
		<path style="fill:none;stroke:#FFFFFF;stroke-width:0.1114;" d="M196.276,67.797c-0.056-0.016-0.113,0.024-0.129,0.087
			c-0.017,0.06,0.018,0.122,0.073,0.135c0.056,0.012,0.114-0.024,0.13-0.087C196.364,67.874,196.331,67.812,196.276,67.797z"/>
		<path style="fill:none;stroke:#FFFFFF;stroke-width:0.1114;" d="M194.785,67.13c-0.054-0.012-0.113,0.026-0.125,0.088
			c-0.017,0.062,0.016,0.123,0.071,0.135c0.057,0.016,0.114-0.025,0.13-0.084C194.875,67.205,194.842,67.145,194.785,67.13z"/>
		<path style="fill:none;stroke:#FFFFFF;stroke-width:0.1114;" d="M197.648,69.18c-0.054-0.014-0.112,0.026-0.128,0.084
			c-0.014,0.06,0.019,0.125,0.074,0.135c0.056,0.017,0.112-0.023,0.127-0.084C197.737,69.253,197.706,69.193,197.648,69.18z"/>
		<path style="fill:none;stroke:#A8D0DA;stroke-width:0.2522;stroke-linecap:round;stroke-linejoin:round;" d="M198.508,58.618
			c0.025,4.683,0.025,7.116,0.025,10.851c0,0.793-1.469,0.793-3.047,0.793c-1.537,0-3.179,0.03-3.179-0.737
			c0-3.056,0-7.867,0.027-10.907"/>
		
			<ellipse style="fill:none;stroke:#A8D0DA;stroke-width:0.2522;stroke-linecap:round;stroke-linejoin:round;" cx="195.422" cy="58.618" rx="3.086" ry="0.582"/>
		<path style="fill:none;stroke:#A8D0DA;stroke-width:0.1681;stroke-linecap:round;stroke-linejoin:round;" d="M198.534,62.166
			c-0.838-0.392-0.536,3.248-0.566,3.796c-0.067,1.374,0.052,2.841,0.058,4.074"/>
		<path style="fill:none;stroke:#A8D0DA;stroke-width:0.1681;stroke-linecap:round;stroke-linejoin:round;" d="M197.403,70.147
			c0-1.012-0.113-1.968-0.113-2.998c0-1.199,0.236-2.344-0.044-3.511c-0.071-0.295-0.212-1.286-0.681-1.248
			c-0.323,0.028-0.525,0.879-0.578,1.135c-0.242,1.25-0.064,2.743,0,4.018c0.045,0.863,0.113,1.925,0.113,2.663"/>
		<path style="fill:none;stroke:#A8D0DA;stroke-width:0.1681;stroke-linecap:round;stroke-linejoin:round;" d="M195.423,70.206
			c0-1.371-0.132-2.687-0.058-4.074c0.061-1.137,0.266-2.573-0.293-3.559c-1.107-0.318-0.84,6.787-0.84,7.632"/>
		<path style="fill:none;stroke:#A8D0DA;stroke-width:0.1681;stroke-linecap:round;stroke-linejoin:round;" d="M192.705,70.037
			c0-1.133-0.027-5.209,0.056-6.231c0.042-0.509,0.649-2.584,1.024-1.185c0.257,0.97,0.087,1.922-0.004,2.886
			c-0.147,1.511-0.161,3.276-0.171,4.64"/>
	</g>
	<path style="fill:none;stroke:#777768;stroke-width:0.9161;stroke-linecap:round;stroke-linejoin:round;" d="M199.092,64.171
		c0,0.485-0.113,0.779-0.352,1.306c-0.395,0.87-1.92,2.802-3.762,2.291"/>
	<path style="fill:none;stroke:#777768;stroke-width:0.9161;stroke-linecap:round;stroke-linejoin:round;" d="M193.781,65.699
		c-0.507-0.367-0.833-0.905-1.296-1.598c-0.139-0.209-0.428-0.667-0.521-0.945c-0.217,0.294,0.23,0.924,0.227,1.294
		c-0.004,0.232,0.625,3.164,0.7,3.379"/>
	<path style="fill:none;stroke:#777768;stroke-width:0.9161;stroke-linecap:round;stroke-linejoin:round;" d="M191.969,62.867
		c0.414,0.21,0.71,0.371,1.207,0.416c0.392,0.036,0.957,0.05,1.274-0.161"/>
</g>
</svg>
