<?xml version="1.0" encoding="iso-8859-1"?>
<!-- Generator: Adobe Illustrator 13.0.0, SVG Export Plug-In . SVG Version: 6.00 Build 14948)  -->
<!DOCTYPE svg PUBLIC "-//W3C//DTD SVG 1.1//EN" "http://www.w3.org/Graphics/SVG/1.1/DTD/svg11.dtd">
<svg version="1.1" xmlns="http://www.w3.org/2000/svg" xmlns:xlink="http://www.w3.org/1999/xlink" x="0px" y="0px" width="379px"
	 height="141px" viewBox="0 0 379 141" style="enable-background:new 0 0 379 141;" xml:space="preserve">
<g id="Layer_2">
	<g>
		<rect style="fill:none;" width="379" height="141"/>
		<rect style="fill:#FFFFFF;" width="379" height="141"/>
	</g>
</g>
<g id="Layer_3">
	<g>
		<g>
			<g>
				<g>
					
						<line style="fill:none;stroke:#777768;stroke-width:3.7567;stroke-linecap:round;" x1="131.822" y1="107.836" x2="272.589" y2="107.836"/>
					
						<line style="fill:none;stroke:#777768;stroke-width:3.7567;stroke-linecap:round;" x1="131.822" y1="102.209" x2="131.822" y2="113.459"/>
				</g>
			</g>
		</g>
		
			<line style="fill:none;stroke:#777768;stroke-width:3.7567;stroke-linecap:round;" x1="272.589" y1="102.209" x2="272.589" y2="113.459"/>
	</g>
	<g>
		<g>
			<g>
				<g>
					
						<line style="fill:none;stroke:#777768;stroke-width:2;stroke-linecap:round;" x1="131.822" y1="47.607" x2="190.14" y2="47.607"/>
					
						<line style="fill:none;stroke:#777768;stroke-width:2;stroke-linecap:round;" x1="131.822" y1="41.98" x2="131.822" y2="53.23"/>
				</g>
			</g>
		</g>
		<line style="fill:none;stroke:#777768;stroke-width:2;stroke-linecap:round;" x1="190.14" y1="41.98" x2="190.14" y2="53.23"/>
	</g>
	<g>
		<g>
			<path style="fill:none;stroke:#777768;stroke-width:1.1055;stroke-linecap:round;stroke-linejoin:round;" d="M99.768,73.503
				c0,0.977-0.797,1.766-1.768,1.766s-1.765-0.789-1.765-1.766c0-0.975,0.794-1.761,1.765-1.761S99.768,72.528,99.768,73.503z"/>
			<path style="fill:none;stroke:#777768;stroke-width:1.6583;stroke-linecap:round;stroke-linejoin:round;" d="M106.22,20.094
				c0,5.464-3.382,9.894-7.556,9.894c-4.167,0-7.552-4.429-7.552-9.894c0-5.463,3.385-9.893,7.552-9.893
				C102.838,10.202,106.22,14.631,106.22,20.094z"/>
			<path style="fill:none;stroke:#777768;stroke-width:1.6583;stroke-linecap:round;stroke-linejoin:round;" d="M98.855,30.38
				c-0.033,6.906,0.932,27.324-0.393,33.953c-1.186,5.919-1.712,4.126-0.525,12.414c1.48,10.384-1.854,20.515-2.214,25.772
				c-1.836,27.24-2.003,26.557,4.319,25.768"/>
		</g>
	</g>
</g>
</svg>
