<?xml version="1.0" encoding="iso-8859-1"?>
<!-- Generator: Adobe Illustrator 13.0.0, SVG Export Plug-In . SVG Version: 6.00 Build 14948)  -->
<!DOCTYPE svg PUBLIC "-//W3C//DTD SVG 1.1//EN" "http://www.w3.org/Graphics/SVG/1.1/DTD/svg11.dtd">
<svg version="1.1" xmlns="http://www.w3.org/2000/svg" xmlns:xlink="http://www.w3.org/1999/xlink" x="0px" y="0px" width="378px"
	 height="140px" viewBox="0 0 378 140" style="enable-background:new 0 0 378 140;" xml:space="preserve">
<g id="fond">
	<g>
		<rect style="fill:#FFFFFF;" width="378" height="140"/>
	</g>
</g>
<g id="guides">
</g>
<g id="scene_x2B_porte">
	<polyline style="fill:#FFFFFF;stroke:#777768;stroke-width:0.5;stroke-linecap:round;stroke-linejoin:round;" points="31,11 
		31,132.75 254.5,132.75 254.5,25 306,25 306,132.75 341,132.75 341,11 	"/>
	
		<line style="fill:none;stroke:#777768;stroke-width:0.5;stroke-linecap:round;stroke-linejoin:round;" x1="341" y1="132.75" x2="351" y2="136.667"/>
	<g id="poign&#xE9;e">
		<circle style="fill:#FFFFFF;stroke:#777768;stroke-width:0.3;" cx="298" cy="82.969" r="2.25"/>
		<path style="fill:#FFFFFF;stroke:#777768;stroke-width:0.5;" d="M290.25,82.656c0-0.553,0.447-1,1-1h7.375c0.553,0,1,0.447,1,1
			v0.625c0,0.553-0.447,1-1,1h-7.375c-0.553,0-1-0.447-1-1V82.656z"/>
	</g>
	
		<line style="fill:none;stroke:#777768;stroke-width:0.5;stroke-linecap:round;stroke-linejoin:round;" x1="254.5" y1="132.75" x2="306" y2="132.75"/>
</g>
<g id="lit">
	
		<rect x="29" y="89.434" style="fill:#FFFFFF;stroke:#777768;stroke-width:0.5;stroke-linecap:round;stroke-linejoin:round;" width="6.913" height="45.414"/>
	
		<rect x="144.334" y="128.991" style="fill:#FFFFFF;stroke:#777768;stroke-width:0.5;stroke-linecap:round;stroke-linejoin:round;" width="6.913" height="5.856"/>
	
		<rect x="35.913" y="115.934" style="fill:#FFFFFF;stroke:#777768;stroke-width:0.5;stroke-linecap:round;stroke-linejoin:round;" width="117.421" height="13.058"/>
	
		<rect x="35.913" y="102.875" style="fill:#FFFFFF;stroke:#777768;stroke-width:0.5;stroke-linecap:round;stroke-linejoin:round;" width="117.421" height="13.058"/>
	
		<rect x="50.1" y="101.667" style="fill:#FFFFFF;stroke:#777768;stroke-width:0.5;stroke-linecap:round;stroke-linejoin:round;" width="14.594" height="14.121"/>
	
		<circle style="fill:#FFFFFF;stroke:#777768;stroke-width:0.5;stroke-linecap:round;stroke-linejoin:round;" cx="41.77" cy="97.834" r="5.041"/>
	
		<ellipse transform="matrix(0.5367 -0.8438 0.8438 0.5367 -54.4952 88.1239)" style="fill:#FFFFFF;stroke:#777768;stroke-width:0.5;stroke-linecap:round;stroke-linejoin:round;" cx="52.995" cy="93.684" rx="5.227" ry="12.25"/>
</g>
<g id="armoire">
	
		<rect x="237.962" y="127.991" style="fill:#FFFFFF;stroke:#777768;stroke-width:0.5;stroke-linecap:round;stroke-linejoin:round;" width="6.913" height="5.856"/>
	
		<rect x="178.292" y="127.991" style="fill:#FFFFFF;stroke:#777768;stroke-width:0.5;stroke-linecap:round;stroke-linejoin:round;" width="6.913" height="5.856"/>
	<g>
		
			<rect x="178.333" y="22.333" style="fill:#FFFFFF;stroke:#777768;stroke-width:0.5;stroke-linecap:round;stroke-linejoin:round;" width="33.389" height="105.673"/>
		
			<rect x="204.75" y="71.993" style="fill:#FFFFFF;stroke:#777768;stroke-width:0.5;stroke-linecap:round;stroke-linejoin:round;" width="2" height="8.466"/>
	</g>
	<g>
		
			<rect x="211.486" y="22.333" style="fill:#FFFFFF;stroke:#777768;stroke-width:0.5;stroke-linecap:round;stroke-linejoin:round;" width="33.389" height="105.673"/>
		
			<rect x="216.459" y="71.993" style="fill:#FFFFFF;stroke:#777768;stroke-width:0.5;stroke-linecap:round;stroke-linejoin:round;" width="2" height="8.466"/>
	</g>
	<path style="display:none;fill:#777768;stroke:#777768;" d="M214.25,76.288c0,0.163-0.14,0.295-0.312,0.295l0,0
		c-0.173,0-0.312-0.132-0.312-0.295v-0.707c0-0.163,0.14-0.295,0.312-0.295l0,0c0.173,0,0.312,0.132,0.312,0.295V76.288z"/>
</g>
</svg>
