<?xml version="1.0" encoding="iso-8859-1"?>
<!-- Generator: Adobe Illustrator 13.0.0, SVG Export Plug-In . SVG Version: 6.00 Build 14948)  -->
<!DOCTYPE svg PUBLIC "-//W3C//DTD SVG 1.1//EN" "http://www.w3.org/Graphics/SVG/1.1/DTD/svg11.dtd">
<svg version="1.1" xmlns="http://www.w3.org/2000/svg" xmlns:xlink="http://www.w3.org/1999/xlink" x="0px" y="0px"
	 width="378.198px" height="140px" viewBox="0 0 378.198 140" style="enable-background:new 0 0 378.198 140;" xml:space="preserve"
	>
<g id="Layer_2">
	<g>
		<rect style="fill:#FFFFFF;" width="378" height="140"/>
	</g>
</g>
<g id="papiers">
	
		<line style="fill:none;stroke:#8C8F84;stroke-width:0.7;stroke-linecap:round;stroke-linejoin:round;" x1="315.723" y1="72.625" x2="339.532" y2="72.625"/>
	<g>
		<polygon style="fill:#FFFFFF;stroke:#D2031D;stroke-width:0.6962;stroke-linecap:round;stroke-linejoin:round;" points="
			334.867,71.714 341.346,72.005 334.804,77.318 328.034,76.839 		"/>
		<path style="fill:#FFFFFF;stroke:#D2031D;stroke-width:0.6962;stroke-linecap:round;stroke-linejoin:round;" d="M334.138,76.464
			c0,0-3.461-0.777-6.229,0.25c-1.034,0.383,3.444-4.676,6.147-5.539c2.703-0.865,6.665,0.018,6.665,0.018L334.138,76.464z"/>
	</g>
</g>
<g id="decor">
	<g>
		<path style="fill:none;stroke:#8C8F84;stroke-width:0.8424;stroke-linecap:round;stroke-linejoin:round;" d="M279.127,113.312"/>
		
			<line style="fill:none;stroke:#8C8F84;stroke-width:0.7035;stroke-linecap:round;stroke-linejoin:round;" x1="9.098" y1="113.253" x2="274.046" y2="113.312"/>
		
			<line style="fill:none;stroke:#8C8F84;stroke-width:0.8424;stroke-linecap:round;stroke-linejoin:round;" x1="274.046" y1="4.25" x2="274.171" y2="113.236"/>
		<path style="fill:none;stroke:#8C8F84;stroke-width:0.7382;stroke-linecap:round;stroke-linejoin:round;" d="M151.954,18.9"/>
	</g>
	<polyline style="fill:none;stroke:#8C8F84;stroke-width:0.7035;stroke-linecap:round;stroke-linejoin:round;" points="9.098,127 
		309.848,127 274.171,86.667 	"/>
	<polyline style="fill:#FFFFFF;stroke:#8C8F84;stroke-width:0.7;stroke-linecap:round;stroke-linejoin:round;" points="
		365.848,4.25 365.848,100.5 339.532,76.816 339.532,4.25 	"/>
	
		<line style="fill:none;stroke:#8C8F84;stroke-width:0.7;stroke-linecap:round;stroke-linejoin:round;" x1="365.848" y1="100.5" x2="377.015" y2="100.5"/>
	<polyline style="fill:none;stroke:#8C8F84;stroke-width:0.7;stroke-linecap:round;stroke-linejoin:round;" points="377.848,117.5 
		357.598,117.5 315.723,72.625 	"/>
</g>
<g id="Layer_3">
	<path style="fill:#FFFFFF;stroke:#92938B;stroke-width:1.1995;stroke-linecap:round;stroke-linejoin:round;" d="M165.84,23.962
		c0,6.095-3.769,11.033-8.424,11.033c-4.65,0-8.425-4.938-8.425-11.033c0-6.091,3.775-11.029,8.425-11.029
		C162.071,12.934,165.84,17.872,165.84,23.962z"/>
	<path style="fill:none;stroke:#92938B;stroke-width:1.1995;stroke-linecap:round;stroke-linejoin:round;" d="M157.669,49.968
		c0.125,7.778,0.11,16.11-0.658,19.93c-1.198,6.016-3.609,3.611-2.403,12.035c1.506,10.555,5.617,19.256,4.411,24.469
		c-6.568,28.473-6.818,29.287-0.404,28.484"/>
	<path style="fill:none;stroke:#92938B;stroke-width:1.1995;stroke-linecap:round;stroke-linejoin:round;" d="M157.416,35.399
		c-0.01,1.939,0.057,4.926,0.131,8.376"/>
	<path style="fill:#FFFFFF;stroke:#92938B;stroke-width:1.1995;stroke-linecap:round;stroke-linejoin:round;" d="M162.444,46.842
		c0,1.882-1.522,3.409-3.407,3.409c-1.884,0-3.416-1.527-3.416-3.409c0-1.883,1.531-3.411,3.416-3.411
		C160.922,43.431,162.444,44.958,162.444,46.842z"/>
	<g id="homme">
		<path style="fill:none;stroke:#92938B;stroke-width:1.1995;stroke-linecap:round;stroke-linejoin:round;" d="M205.301,75.382
			c0,1.062,0.857,1.926,1.922,1.926c1.053,0,1.922-0.863,1.922-1.926c0-1.061-0.869-1.922-1.922-1.922
			C206.159,73.46,205.301,74.322,205.301,75.382z"/>
		<path style="fill:#FFFFFF;stroke:#92938B;stroke-width:1.7991;stroke-linecap:round;stroke-linejoin:round;" d="M198.262,17.182
			c0,5.955,3.691,10.781,8.23,10.781c4.543,0,8.236-4.826,8.236-10.781c0-5.953-3.693-10.779-8.236-10.779
			C201.954,6.402,198.262,11.229,198.262,17.182z"/>
		<path style="fill:none;stroke:#92938B;stroke-width:1.7991;stroke-linecap:round;stroke-linejoin:round;" d="M206.29,28.391
			c0.039,7.525-1.012,29.776,0.428,36.999c1.291,6.45,1.863,4.496,0.578,13.53c-1.617,11.312,2.016,22.355,2.402,28.078
			c2.006,29.688,2.186,28.945-4.699,28.082"/>
	</g>
	<path style="fill:none;stroke:#92938B;stroke-width:0.7;stroke-linecap:round;stroke-linejoin:round;" d="M192.797,17.703
		c-0.068-0.26-0.174-0.402-0.115-0.675c0.16-0.067,0.258-0.185,0.395-0.248c0.322,0.543,0.041,0.677-0.42,0.923"/>
	<path style="display:none;fill:none;stroke:#92938B;stroke-width:0.7;stroke-linecap:round;stroke-linejoin:round;" d="
		M328.727,61.235c-0.068-0.26-0.174-0.402-0.115-0.676c0.16-0.066,0.258-0.184,0.395-0.247c0.322,0.543,0.041,0.677-0.42,0.923"/>
	<path style="display:none;fill:none;stroke:#92938B;stroke-width:0.7;stroke-linecap:round;stroke-linejoin:round;" d="
		M331.643,61.235c-0.068-0.26-0.174-0.402-0.115-0.676c0.16-0.066,0.258-0.184,0.395-0.247c0.322,0.543,0.041,0.677-0.42,0.923"/>
	
		<line style="fill:none;stroke:#92938B;stroke-width:0.7;stroke-linecap:round;stroke-linejoin:round;" x1="193.088" y1="14.445" x2="192.571" y2="2.414"/>
	
		<line style="display:none;fill:none;stroke:#92938B;stroke-width:0.7;stroke-linecap:round;stroke-linejoin:round;" x1="328.523" y1="58.121" x2="328.582" y2="49.781"/>
	
		<line style="display:none;fill:none;stroke:#92938B;stroke-width:0.7;stroke-linecap:round;stroke-linejoin:round;" x1="332.119" y1="58.121" x2="333.477" y2="49.781"/>
	<path style="fill:none;stroke:#92938B;stroke-width:0.7;stroke-linecap:round;stroke-linejoin:round;" d="M208.627,8.867
		c0.162,0.539-1.137,3.799-1.283,4.207c-0.521,1.458,0.082,2.698,0.627,2.946c1.201,0.547,2.217-0.926,1.998-2.311
		C209.84,12.894,208.627,8.867,208.627,8.867z"/>
</g>
</svg>
