<?xml version="1.0" encoding="iso-8859-1"?>
<!-- Generator: Adobe Illustrator 13.0.0, SVG Export Plug-In . SVG Version: 6.00 Build 14948)  -->
<!DOCTYPE svg PUBLIC "-//W3C//DTD SVG 1.1//EN" "http://www.w3.org/Graphics/SVG/1.1/DTD/svg11.dtd">
<svg version="1.1" id="Layer_1" xmlns="http://www.w3.org/2000/svg" xmlns:xlink="http://www.w3.org/1999/xlink" x="0px" y="0px"
	 width="540px" height="200px" viewBox="0 0 540 200" style="enable-background:new 0 0 540 200;" xml:space="preserve">
<g>
	<rect style="fill:#FFFFFF;" width="540" height="200"/>
</g>
<g>
	<g>
		
			<rect x="427.631" y="100.724" style="fill:#D5312C;stroke:#FFFFFF;stroke-width:0.916;stroke-linecap:square;" width="4.48" height="64.386"/>
		<g>
			<path style="fill:#D5312C;" d="M391.909,99.313c0,1.404,1.139,2.542,2.543,2.542h70.83c1.404,0,2.543-1.138,2.543-2.542
				c0-1.405-1.139-2.542-2.543-2.542h-70.83C393.047,96.771,391.909,97.908,391.909,99.313
				C391.909,99.313,391.909,97.908,391.909,99.313z"/>
			<path style="fill:none;stroke:#FFFFFF;stroke-width:1.374;" d="M391.909,99.313c0,1.404,1.139,2.542,2.543,2.542h70.83
				c1.404,0,2.543-1.138,2.543-2.542c0-1.405-1.139-2.542-2.543-2.542h-70.83C393.047,96.771,391.909,97.908,391.909,99.313
				C391.909,99.313,391.909,97.908,391.909,99.313z"/>
		</g>
	</g>
	<g>
		<rect x="160.573" y="92.911" style="fill:#65B724;stroke:#FFFFFF;stroke-width:1.374;" width="5.478" height="72.816"/>
		<path style="fill:#65B724;stroke:#FFFFFF;stroke-width:1.374;" d="M179.264,96.9h-31.912v-7.979c0,0,7.568-3.492,15.547-3.492
			c7.979,0,16.365,3.492,16.365,3.492V96.9z"/>
		<rect x="153.085" y="148.463" style="fill:#65B724;stroke:#FFFFFF;stroke-width:0.916;" width="20.449" height="1.869"/>
	</g>
	
		<line style="fill:none;stroke:#65B724;stroke-width:3.427;stroke-linecap:round;" x1="26.712" y1="56.053" x2="134.204" y2="56.053"/>
	
		<line style="fill:none;stroke:#65B724;stroke-width:3.427;stroke-linecap:square;" x1="134.204" y1="56.053" x2="134.204" y2="80.097"/>
	
		<line style="fill:none;stroke:#65B724;stroke-width:3.427;stroke-linecap:square;" x1="134.204" y1="80.097" x2="123.898" y2="80.097"/>
	
		<line style="fill:none;stroke:#65B724;stroke-width:3.427;stroke-linecap:square;" x1="123.898" y1="80.097" x2="123.898" y2="164.822"/>
	
		<line style="fill:none;stroke:#65B724;stroke-width:3.427;stroke-linecap:round;" x1="123.898" y1="164.822" x2="512.431" y2="164.822"/>
	<g>
		<g>
			
				<line style="fill:none;stroke:#65B724;stroke-width:4.2837;stroke-linecap:round;stroke-linejoin:round;" x1="369.609" y1="85.415" x2="369.609" y2="124.012"/>
			
				<line style="fill:none;stroke:#65B724;stroke-width:4.2837;stroke-linecap:round;stroke-linejoin:round;" x1="369.609" y1="124.012" x2="408.202" y2="124.012"/>
			
				<line style="fill:none;stroke:#65B724;stroke-width:4.2837;stroke-linecap:round;stroke-linejoin:round;" x1="408.202" y1="124.012" x2="369.568" y2="162.65"/>
			
				<line style="fill:none;stroke:#65B724;stroke-width:4.2837;stroke-linecap:round;stroke-linejoin:round;" x1="369.568" y1="162.65" x2="391.819" y2="162.65"/>
		</g>
		<g>
			
				<line style="fill:none;stroke:#65B724;stroke-width:4.2837;stroke-linecap:round;stroke-linejoin:round;" x1="499.365" y1="85.415" x2="499.365" y2="124.012"/>
			
				<line style="fill:none;stroke:#65B724;stroke-width:4.2837;stroke-linecap:round;stroke-linejoin:round;" x1="499.365" y1="124.012" x2="460.773" y2="124.012"/>
			
				<line style="fill:none;stroke:#65B724;stroke-width:4.2837;stroke-linecap:round;stroke-linejoin:round;" x1="460.773" y1="124.012" x2="499.406" y2="162.65"/>
			
				<line style="fill:none;stroke:#65B724;stroke-width:4.2837;stroke-linecap:round;stroke-linejoin:round;" x1="499.406" y1="162.65" x2="477.152" y2="162.65"/>
		</g>
	</g>
</g>
<g>
	<path style="fill:none;stroke:#777768;stroke-width:1.5613;stroke-linecap:round;stroke-linejoin:round;" d="M295.266,45.714
		c8.416-7.748,31.164,23.085,36.595,33.557"/>
	<path style="fill:none;stroke:#777768;stroke-width:1.5613;stroke-linecap:round;stroke-linejoin:round;" d="M331.861,78.999
		c3.159-0.687,5.337,10.364,11.551,10.364c-7.397-2.714-9.383-4.928-10.053-8.212c0.594,2.937-3.227,1.869-2.071,4.748
		c-1.671-0.128,0,0-1.009-1.186c0.269,0.552,0.536,1.753,0.859,2.436c-0.509-1.119,1.275-4.32,0.442-5.208
		c0.259,1.098-2.284,4.934-1.784,6.12c-0.515-0.576-1.018-1.333-1.445-1.985c0.027,0.198,0.046,0.396,0.059,0.598
		c-0.75-1.671,0.152-0.549-1.059-1.842c0.336-0.622,3.471-4.016,4.056-4.464"/>
</g>
<g>
	<g>
		<path style="fill:none;stroke:#777768;stroke-width:1.7135;stroke-linecap:round;stroke-linejoin:round;" d="M237.493,33.383
			c0,8.668-5.368,15.692-11.986,15.692c-6.614,0-11.98-7.024-11.98-15.692c0-8.664,5.366-15.688,11.98-15.688
			C232.125,17.694,237.493,24.719,237.493,33.383z"/>
		<path style="fill:none;stroke:#777768;stroke-width:1.7135;stroke-linecap:round;stroke-linejoin:round;" d="M225.868,70.368
			c0.179,11.066,0.162,22.919-0.93,28.344c-1.711,8.564-5.134,5.144-3.425,17.121c2.15,15.012,7.987,27.393,6.282,34.807
			c-9.349,40.499-9.703,41.656-0.57,40.514"/>
		<path style="fill:none;stroke:#777768;stroke-width:1.7135;stroke-linecap:round;stroke-linejoin:round;" d="M225.506,49.643
			c-0.011,2.709,0.082,6.854,0.186,11.641"/>
		<path style="fill:#FFFFFF;stroke:#777768;stroke-width:1.7135;stroke-linecap:round;stroke-linejoin:round;" d="M232.659,65.921
			c0,2.675-2.174,4.856-4.85,4.856s-4.847-2.182-4.847-4.856c0-2.682,2.171-4.849,4.847-4.849S232.659,63.239,232.659,65.921z"/>
	</g>
</g>
<path style="fill:none;stroke:#777768;stroke-width:1.7135;stroke-linecap:round;stroke-linejoin:round;" d="M293.914,106.476
	c0,1.513,1.236,2.735,2.741,2.735c1.504,0,2.733-1.223,2.733-2.735c0-1.512-1.229-2.729-2.733-2.729
	C295.15,103.746,293.914,104.964,293.914,106.476z"/>
<path style="fill:none;stroke:#777768;stroke-width:2.5702;stroke-linecap:round;stroke-linejoin:round;" d="M288.951,21.428
	c-2.626,8.053,0.229,16.204,6.379,18.21c6.141,2.003,13.257-2.896,15.883-10.949c2.626-8.05-0.233-16.203-6.374-18.206
	C298.688,8.477,291.577,13.377,288.951,21.428z"/>
<path style="fill:none;stroke:#777768;stroke-width:2.5702;stroke-linecap:round;stroke-linejoin:round;" d="M295.33,39.638
	c0.051,10.704-1.445,42.351,0.608,52.624c1.838,9.175,2.654,6.396,0.815,19.242c-2.295,16.094,2.872,31.797,3.431,39.944
	c2.846,42.222,3.104,41.162-6.696,39.938"/>
<g>
	<path style="fill:none;stroke:#777768;stroke-width:1.3087;stroke-linecap:round;stroke-linejoin:round;" d="M274.721,93.031
		c0.112,0.318,0.267,0.625,0.443,0.914c0.161,0.273,0.475,0.531,0.482,0.858c-1.234-1.352-1.68-3.431-1.322-5.249
		c0.134-0.676,0.525-0.775,0.667-1.447c0.044-0.2,4.689-0.337,4.817-0.486"/>
	<path style="fill:none;stroke:#777768;stroke-width:1.713;stroke-linecap:round;stroke-linejoin:round;" d="M295.266,45.714
		c-15.566,31.011-14.044,40.938-15.457,41.907"/>
	<path style="fill:none;stroke:#777768;stroke-width:1.3087;stroke-linecap:round;stroke-linejoin:round;" d="M279.881,87.559
		c0.44,1.357,4.212,3.28,4.536,4.115"/>
	<g>
		<path style="fill:#FCCF3D;" d="M274.726,99.322c0,1.053,2.537,1.053,4.541,1.053c2.001,0,4.344-0.149,4.354-1.053
			c0.01-0.9,0.002-9.505,0.002-9.505s-0.951,1.211-4.434,1.211c-3.484,0-4.463-0.977-4.463-0.977S274.726,98.268,274.726,99.322z"/>
		<path style="fill:#FFFFD9;" d="M274.748,89.188c0,0.152-0.021,0.643-0.021,1.162c0,0.481,2.847,0.679,4.463,0.679
			c1.486,0,3.266-0.306,4.074-0.509c0.517-0.131,0.357-1.156,0.357-1.332c0-0.439-1.982-0.801-4.437-0.801
			C276.735,88.387,274.748,88.749,274.748,89.188z"/>
		<g>
			<path style="fill:none;stroke:#FFFFFF;stroke-width:0.1591;" d="M282.673,89.373c0,0.08,0.077,0.148,0.169,0.148
				c0.088,0,0.161-0.068,0.161-0.148c0-0.085-0.073-0.147-0.161-0.147C282.75,89.226,282.673,89.288,282.673,89.373z"/>
			<path style="fill:none;stroke:#FFFFFF;stroke-width:0.1591;" d="M282.276,94.304c0,0.083,0.075,0.151,0.162,0.151
				c0.095,0,0.166-0.068,0.166-0.151c0-0.082-0.071-0.147-0.166-0.147C282.351,94.156,282.276,94.222,282.276,94.304z"/>
			<path style="fill:none;stroke:#FFFFFF;stroke-width:0.1591;" d="M279.321,95.371c0,0.086,0.07,0.154,0.16,0.154
				c0.091,0,0.166-0.068,0.166-0.154c0-0.078-0.075-0.146-0.166-0.146C279.391,95.225,279.321,95.293,279.321,95.371z"/>
			<path style="fill:none;stroke:#FFFFFF;stroke-width:0.1591;" d="M280.756,94.037c0,0.082,0.073,0.147,0.169,0.147
				c0.091,0,0.163-0.065,0.163-0.147c0-0.086-0.072-0.15-0.163-0.15C280.83,93.887,280.756,93.951,280.756,94.037z"/>
			<path style="fill:none;stroke:#FFFFFF;stroke-width:0.1591;" d="M278.323,93.384c0,0.079,0.074,0.147,0.165,0.147
				s0.162-0.068,0.162-0.147c0-0.085-0.071-0.151-0.162-0.151S278.323,93.299,278.323,93.384z"/>
			<path style="fill:none;stroke:#FFFFFF;stroke-width:0.1591;" d="M282.514,91.391c0,0.082,0.071,0.146,0.159,0.146
				c0.098,0,0.169-0.064,0.169-0.146c0-0.08-0.071-0.148-0.169-0.148C282.585,91.242,282.514,91.311,282.514,91.391z"/>
			<path style="fill:none;stroke:#FFFFFF;stroke-width:0.1591;" d="M278.293,91.095c0,0.079,0.071,0.147,0.166,0.147
				c0.088,0,0.159-0.068,0.159-0.147c0-0.083-0.071-0.147-0.159-0.147C278.365,90.947,278.293,91.012,278.293,91.095z"/>
			<ellipse style="fill:none;stroke:#FFFFFF;stroke-width:0.1591;" cx="278.161" cy="89.163" rx="0.162" ry="0.147"/>
			<ellipse style="fill:none;stroke:#FFFFFF;stroke-width:0.1591;" cx="279.87" cy="88.971" rx="0.164" ry="0.147"/>
			<path style="fill:none;stroke:#FFFFFF;stroke-width:0.1591;" d="M281.354,92.342c0,0.082,0.073,0.15,0.164,0.15
				c0.088,0,0.165-0.068,0.165-0.15c0-0.083-0.077-0.148-0.165-0.148C281.427,92.193,281.354,92.259,281.354,92.342z"/>
			<path style="fill:none;stroke:#FFFFFF;stroke-width:0.1591;" d="M280.226,90.678c0,0.082,0.074,0.15,0.162,0.15
				s0.167-0.068,0.167-0.15c0-0.08-0.079-0.148-0.167-0.148S280.226,90.598,280.226,90.678z"/>
			<path style="fill:none;stroke:#FFFFFF;stroke-width:0.1591;" d="M279.067,92.162c0,0.086,0.071,0.15,0.163,0.15
				c0.091,0,0.161-0.064,0.161-0.15c0-0.079-0.07-0.146-0.161-0.146C279.138,92.016,279.067,92.083,279.067,92.162z"/>
		</g>
		<path style="fill:none;stroke:#FFFFFF;stroke-width:0.1591;" d="M281.072,99.547c-0.079-0.021-0.162,0.036-0.181,0.124
			c-0.02,0.086,0.025,0.177,0.105,0.193c0.079,0.021,0.161-0.034,0.181-0.125C281.202,99.654,281.155,99.57,281.072,99.547z"/>
		<path style="fill:none;stroke:#FFFFFF;stroke-width:0.1591;" d="M276.383,97.979c-0.079-0.022-0.162,0.034-0.186,0.119
			c-0.022,0.089,0.027,0.177,0.106,0.196s0.162-0.037,0.181-0.125C276.504,98.081,276.463,97.995,276.383,97.979z"/>
		<path style="fill:none;stroke:#FFFFFF;stroke-width:0.1591;" d="M276.05,94.85c-0.079-0.021-0.161,0.033-0.18,0.125
			c-0.024,0.085,0.021,0.176,0.104,0.193c0.079,0.02,0.162-0.035,0.184-0.123C276.179,94.957,276.129,94.869,276.05,94.85z"/>
		<path style="fill:none;stroke:#FFFFFF;stroke-width:0.1591;" d="M277.004,96.57c-0.082-0.023-0.162,0.033-0.184,0.123
			c-0.023,0.087,0.029,0.172,0.104,0.194c0.083,0.018,0.166-0.036,0.185-0.125C277.133,96.676,277.084,96.588,277.004,96.57z"/>
		<path style="fill:none;stroke:#FFFFFF;stroke-width:0.1591;" d="M276.221,90.893c-0.079-0.02-0.162,0.037-0.184,0.123
			c-0.023,0.088,0.028,0.176,0.106,0.198c0.077,0.017,0.16-0.04,0.179-0.125C276.343,90.998,276.3,90.912,276.221,90.893z"/>
		<path style="fill:none;stroke:#FFFFFF;stroke-width:0.1591;" d="M279.15,98.904c-0.077-0.017-0.156,0.034-0.179,0.125
			c-0.021,0.086,0.022,0.17,0.102,0.193c0.081,0.02,0.161-0.037,0.184-0.125C279.28,99.013,279.23,98.928,279.15,98.904z"/>
		<path style="fill:none;stroke:#FFFFFF;stroke-width:0.1591;" d="M276.187,93.015c-0.082-0.017-0.161,0.036-0.183,0.125
			c-0.021,0.087,0.024,0.173,0.101,0.192c0.082,0.02,0.164-0.033,0.184-0.122C276.312,93.123,276.264,93.037,276.187,93.015z"/>
		<path style="fill:none;stroke:#FFFFFF;stroke-width:0.1591;" d="M282.18,96.758c-0.084-0.02-0.164,0.037-0.188,0.125
			c-0.022,0.084,0.024,0.172,0.104,0.193c0.084,0.022,0.163-0.034,0.187-0.125C282.301,96.865,282.255,96.777,282.18,96.758z"/>
		<path style="fill:none;stroke:#FFFFFF;stroke-width:0.1591;" d="M278.504,97.553c-0.079-0.02-0.162,0.035-0.184,0.123
			c-0.021,0.087,0.029,0.173,0.109,0.195c0.074,0.017,0.159-0.037,0.183-0.125C278.635,97.658,278.587,97.57,278.504,97.553z"/>
		<path style="fill:none;stroke:#FFFFFF;stroke-width:0.1591;" d="M280.393,96.854c-0.079-0.022-0.162,0.034-0.184,0.125
			c-0.024,0.086,0.024,0.174,0.104,0.193c0.079,0.018,0.162-0.034,0.186-0.125C280.518,96.963,280.472,96.875,280.393,96.854z"/>
		<path style="fill:none;stroke:#FFFFFF;stroke-width:0.1591;" d="M278.263,95.9c-0.076-0.018-0.162,0.037-0.179,0.125
			c-0.022,0.088,0.023,0.176,0.103,0.193c0.08,0.022,0.163-0.035,0.185-0.12C278.392,96.008,278.346,95.922,278.263,95.9z"/>
		<path style="fill:none;stroke:#FFFFFF;stroke-width:0.1591;" d="M282.354,98.828c-0.078-0.02-0.16,0.037-0.183,0.121
			c-0.021,0.086,0.025,0.178,0.104,0.193c0.08,0.023,0.162-0.033,0.184-0.121S282.435,98.848,282.354,98.828z"/>
		<path style="fill:none;stroke:#A8D0DA;stroke-width:0.3603;stroke-linecap:round;stroke-linejoin:round;" d="M283.583,83.74
			c0.037,6.689,0.037,10.166,0.037,15.502c0,1.133-2.1,1.133-4.354,1.133c-2.196,0-4.541,0.043-4.541-1.053
			c0-4.365,0-11.238,0.038-15.582"/>
		
			<ellipse style="fill:none;stroke:#A8D0DA;stroke-width:0.3603;stroke-linecap:round;stroke-linejoin:round;" cx="279.174" cy="83.74" rx="4.41" ry="0.832"/>
		<path style="fill:none;stroke:#A8D0DA;stroke-width:0.2402;stroke-linecap:round;stroke-linejoin:round;" d="M283.621,88.809
			c-1.199-0.56-0.767,4.641-0.812,5.424c-0.096,1.963,0.075,4.059,0.083,5.82"/>
		<path style="fill:none;stroke:#A8D0DA;stroke-width:0.2402;stroke-linecap:round;stroke-linejoin:round;" d="M282.004,100.211
			c0-1.445-0.162-2.812-0.162-4.283c0-1.712,0.338-3.348-0.062-5.016c-0.103-0.422-0.304-1.837-0.975-1.783
			c-0.46,0.04-0.75,1.256-0.824,1.622c-0.346,1.786-0.093,3.919,0,5.739c0.062,1.233,0.162,2.75,0.162,3.804"/>
		<path style="fill:none;stroke:#A8D0DA;stroke-width:0.2402;stroke-linecap:round;stroke-linejoin:round;" d="M279.175,100.294
			c0-1.958-0.188-3.838-0.083-5.819c0.088-1.625,0.38-3.676-0.417-5.084c-1.583-0.455-1.2,9.695-1.2,10.903"/>
		<path style="fill:none;stroke:#A8D0DA;stroke-width:0.2402;stroke-linecap:round;stroke-linejoin:round;" d="M275.292,100.053
			c0-1.619-0.039-7.441,0.079-8.901c0.06-0.728,0.928-3.692,1.463-1.692c0.366,1.386,0.125,2.746-0.005,4.123
			c-0.211,2.158-0.229,4.681-0.245,6.629"/>
	</g>
	<path style="fill:none;stroke:#777768;stroke-width:1.3087;stroke-linecap:round;stroke-linejoin:round;" d="M284.417,91.674
		c0,0.693-1.243,3.284-2.76,4.16"/>
	<path style="fill:none;stroke:#777768;stroke-width:1.3087;stroke-linecap:round;stroke-linejoin:round;" d="M276.83,93.855
		c-0.725-0.523-1.19-1.293-1.853-2.283c-0.197-0.299-0.609-0.952-0.743-1.35c-0.31,0.42,0.329,1.32,0.322,1.85
		c-0.005,0.332,0.894,4.52,1,4.827"/>
	<path style="fill:none;stroke:#777768;stroke-width:1.3087;stroke-linecap:round;stroke-linejoin:round;" d="M274.243,89.811
		c0.591,0.301,1.013,0.529,1.724,0.594c0.56,0.051,1.365,0.071,1.82-0.23"/>
</g>
<g>
	<path style="fill:none;stroke:#777768;stroke-width:1.713;stroke-linecap:round;stroke-linejoin:round;" d="M225.641,59.639
		c5.572-1.621,9.646,1.763,13.72,4.925c3.899,3.02,6.458,8.691,10.93,10.961c1.976-2.772,1.587-10.894,1.317-14.479
		c-0.189-2.494-0.467-4.074-0.467-5.647"/>
	<path style="fill:none;stroke:#777768;stroke-width:1.713;stroke-linecap:round;stroke-linejoin:round;" d="M237.449,52.455
		c2.763,2.107,10.967,4.081,13.179,3.899"/>
	<path style="fill:#FCCF3D;" d="M250.666,54.098c0.606,0.983-1.751,2.448-3.607,3.608c-1.862,1.16-4.127,2.373-4.657,1.539
		c-0.527-0.831-7.977-13.15-7.977-13.15s1.145,0.605,4.84-0.268c3.713-0.877,4.118-3.427,4.118-3.427S250.06,53.125,250.666,54.098z
		"/>
	<path style="fill:#FFFFD9;" d="M243.572,43.071c0.03,0.163,0.609,0.693,0.697,1.252c0.079,0.525-3.439,1.212-5.185,1.484
		c-1.612,0.245-4.288,0.769-4.932,0.125c-0.317-0.314-0.714-1.189-0.74-1.375c-0.079-0.478,2.58-1.2,5.231-1.608
		C241.293,42.537,243.502,42.598,243.572,43.071z"/>
	<g>
		<path style="fill:none;stroke:#FFFFFF;stroke-width:0.182;" d="M237.525,49.456c0.049,0.076,0.018,0.184-0.07,0.236
			c-0.082,0.049-0.189,0.029-0.239-0.047c-0.046-0.078-0.011-0.18,0.067-0.227C237.367,49.365,237.478,49.377,237.525,49.456z"/>
		<path style="fill:none;stroke:#FFFFFF;stroke-width:0.182;" d="M240.745,53.807c0.05,0.076,0.021,0.184-0.058,0.233
			c-0.09,0.052-0.192,0.032-0.239-0.046c-0.049-0.073-0.023-0.178,0.064-0.233C240.591,53.711,240.699,53.731,240.745,53.807z"/>
		<path style="fill:none;stroke:#FFFFFF;stroke-width:0.182;" d="M244.114,53.09c0.047,0.076,0.018,0.184-0.067,0.233
			c-0.079,0.052-0.189,0.032-0.239-0.043c-0.046-0.076-0.018-0.181,0.067-0.236C243.96,52.991,244.065,53.015,244.114,53.09z"/>
		<path style="fill:none;stroke:#FFFFFF;stroke-width:0.182;" d="M242.008,52.682c0.043,0.073,0.011,0.18-0.07,0.233
			c-0.088,0.052-0.193,0.032-0.24-0.041c-0.049-0.079-0.017-0.187,0.062-0.239C241.85,52.583,241.955,52.6,242.008,52.682z"/>
		<path style="fill:none;stroke:#FFFFFF;stroke-width:0.182;" d="M243.888,50.665c0.046,0.076,0.017,0.181-0.064,0.233
			c-0.091,0.05-0.189,0.029-0.236-0.046c-0.046-0.076-0.023-0.181,0.061-0.23C243.732,50.569,243.837,50.59,243.888,50.665z"/>
		<path style="fill:none;stroke:#FFFFFF;stroke-width:0.182;" d="M238.842,51.239c0.047,0.076,0.015,0.178-0.063,0.23
			c-0.09,0.052-0.192,0.035-0.239-0.041c-0.047-0.079-0.021-0.18,0.07-0.233C238.685,51.143,238.792,51.161,238.842,51.239z"/>
		<path style="fill:none;stroke:#FFFFFF;stroke-width:0.182;" d="M242.59,48.521c0.046,0.076,0.018,0.18-0.064,0.233
			c-0.084,0.052-0.192,0.032-0.239-0.047c-0.046-0.07-0.018-0.175,0.064-0.228C242.435,48.427,242.541,48.445,242.59,48.521z"/>
		
			<ellipse transform="matrix(0.8499 -0.527 0.527 0.8499 11.6903 134.3311)" style="fill:none;stroke:#FFFFFF;stroke-width:0.182;" cx="241.598" cy="46.649" rx="0.177" ry="0.164"/>
		<path style="fill:none;stroke:#FFFFFF;stroke-width:0.182;" d="M240.051,47.363c0.05,0.079,0.018,0.184-0.067,0.233
			c-0.084,0.055-0.188,0.032-0.239-0.043c-0.046-0.076-0.017-0.18,0.07-0.233C239.897,47.27,240.005,47.29,240.051,47.363z"/>
		<path style="fill:none;stroke:#FFFFFF;stroke-width:0.182;" d="M240.472,51.449c0.046,0.076,0.018,0.184-0.067,0.236
			c-0.081,0.049-0.195,0.032-0.245-0.047c-0.044-0.073-0.009-0.181,0.073-0.233C240.314,51.353,240.422,51.374,240.472,51.449z"/>
		<path style="fill:none;stroke:#FFFFFF;stroke-width:0.182;" d="M240.553,49.252c0.049,0.076,0.021,0.183-0.058,0.232
			c-0.087,0.053-0.192,0.033-0.242-0.043c-0.046-0.073-0.015-0.181,0.067-0.233C240.399,49.159,240.51,49.179,240.553,49.252z"/>
		<path style="fill:none;stroke:#FFFFFF;stroke-width:0.182;" d="M242.494,49.959c0.046,0.08,0.018,0.181-0.067,0.233
			c-0.084,0.052-0.189,0.036-0.236-0.041c-0.047-0.078-0.023-0.183,0.064-0.232C242.336,49.863,242.445,49.884,242.494,49.959z"/>
		<path style="fill:none;stroke:#FFFFFF;stroke-width:0.182;" d="M237.836,47.075c0.05,0.076,0.021,0.181-0.067,0.23
			c-0.081,0.049-0.186,0.032-0.232-0.044c-0.05-0.076-0.021-0.181,0.061-0.23C237.686,46.976,237.79,46.996,237.836,47.075z"/>
	</g>
	<path style="fill:none;stroke:#FFFFFF;stroke-width:0.182;" d="M244.896,57.98c0.064-0.063,0.172-0.058,0.239,0.009
		c0.073,0.07,0.082,0.177,0.021,0.242c-0.064,0.064-0.171,0.064-0.242-0.005C244.843,58.155,244.831,58.05,244.896,57.98z"/>
	<path style="fill:none;stroke:#FFFFFF;stroke-width:0.182;" d="M248.346,53.81c0.064-0.067,0.169-0.061,0.245,0.009
		c0.07,0.066,0.076,0.175,0.015,0.239c-0.064,0.066-0.171,0.061-0.242-0.009C248.294,53.979,248.285,53.874,248.346,53.81z"/>
	<path style="fill:none;stroke:#FFFFFF;stroke-width:0.182;" d="M246.845,50.712c0.064-0.064,0.175-0.058,0.239,0.008
		c0.075,0.07,0.081,0.178,0.021,0.243c-0.067,0.063-0.176,0.061-0.246-0.006C246.79,50.886,246.784,50.779,246.845,50.712z"/>
	<path style="fill:none;stroke:#FFFFFF;stroke-width:0.182;" d="M246.959,52.862c0.061-0.063,0.167-0.061,0.239,0.006
		c0.07,0.07,0.076,0.18,0.011,0.245c-0.061,0.064-0.169,0.058-0.239-0.008C246.897,53.038,246.892,52.927,246.959,52.862z"/>
	<path style="fill:none;stroke:#FFFFFF;stroke-width:0.182;" d="M244.4,47.136c0.064-0.064,0.172-0.062,0.245,0.008
		c0.067,0.064,0.073,0.178,0.009,0.245c-0.056,0.059-0.166,0.056-0.239-0.014C244.351,47.308,244.339,47.204,244.4,47.136z"/>
	
		<ellipse transform="matrix(-0.7159 -0.6982 0.6982 -0.7159 383.4932 268.8352)" style="fill:none;stroke:#FFFFFF;stroke-width:0.182;" cx="246.44" cy="56.398" rx="0.179" ry="0.159"/>
	<path style="fill:none;stroke:#FFFFFF;stroke-width:0.182;" d="M243.205,44.566c0.058-0.062,0.169-0.062,0.239,0.011
		c0.07,0.067,0.078,0.178,0.011,0.242c-0.061,0.064-0.169,0.059-0.242-0.011C243.15,44.738,243.141,44.632,243.205,44.566z"/>
	<path style="fill:none;stroke:#FFFFFF;stroke-width:0.182;" d="M245.662,49.086c0.064-0.064,0.169-0.059,0.242,0.011
		c0.067,0.07,0.077,0.175,0.015,0.239c-0.064,0.064-0.172,0.062-0.242-0.008C245.604,49.258,245.597,49.149,245.662,49.086z"/>
	<path style="fill:none;stroke:#FFFFFF;stroke-width:0.182;" d="M242.258,56.031c0.067-0.067,0.172-0.062,0.242,0.008
		c0.073,0.064,0.076,0.174,0.018,0.239c-0.064,0.067-0.169,0.062-0.242-0.005C242.206,56.203,242.196,56.092,242.258,56.031z"/>
	<path style="fill:none;stroke:#FFFFFF;stroke-width:0.182;" d="M246.128,54.64c0.063-0.061,0.169-0.058,0.245,0.012
		c0.07,0.07,0.076,0.175,0.012,0.245c-0.062,0.058-0.173,0.058-0.243-0.012C246.07,54.815,246.067,54.708,246.128,54.64z"/>
	<path style="fill:none;stroke:#FFFFFF;stroke-width:0.182;" d="M243.969,55.089c0.061-0.07,0.174-0.064,0.245,0.005
		c0.07,0.067,0.079,0.178,0.015,0.239c-0.062,0.067-0.169,0.064-0.242-0.006C243.922,55.258,243.91,55.154,243.969,55.089z"/>
	<path style="fill:none;stroke:#FFFFFF;stroke-width:0.182;" d="M245.399,52.968c0.062-0.059,0.172-0.059,0.239,0.014
		c0.073,0.067,0.075,0.178,0.018,0.239c-0.064,0.062-0.175,0.062-0.245-0.008S245.333,53.038,245.399,52.968z"/>
	<path style="fill:none;stroke:#FFFFFF;stroke-width:0.182;" d="M243.292,58.057c0.059-0.067,0.166-0.062,0.243,0.005
		c0.063,0.07,0.076,0.174,0.011,0.239c-0.058,0.07-0.169,0.064-0.239-0.005C243.237,58.228,243.226,58.12,243.292,58.057z"/>
	<path style="fill:none;stroke:#A8D0DA;stroke-width:0.4128;stroke-linecap:round;stroke-linejoin:round;" d="M233.425,44.749
		c3.832,6.237,5.843,9.466,8.929,14.424c0.656,1.052,2.609-0.164,4.704-1.466c2.037-1.271,4.243-2.588,3.607-3.608
		c-2.526-4.051-6.499-10.438-9.052-14.449"/>
	<path style="fill:none;stroke:#A8D0DA;stroke-width:0.4128;stroke-linecap:round;stroke-linejoin:round;" d="M241.614,39.649
		c0.265,0.426-1.353,1.912-3.611,3.323c-2.262,1.405-4.313,2.203-4.578,1.777c-0.265-0.426,1.358-1.917,3.617-3.325
		C239.303,40.02,241.352,39.223,241.614,39.649z"/>
	<path style="fill:none;stroke:#A8D0DA;stroke-width:0.2751;stroke-linecap:round;stroke-linejoin:round;" d="M236.318,49.476
		c0.793-1.212,3.404,3.871,3.891,4.575c1.23,1.767,2.279,3.813,3.288,5.454"/>
	<path style="fill:none;stroke:#A8D0DA;stroke-width:0.2751;stroke-linecap:round;stroke-linejoin:round;" d="M244.417,59.14
		c-0.833-1.346-1.478-2.71-2.326-4.074c-0.991-1.594-2.256-2.917-2.845-4.695c-0.148-0.452-0.778-1.886-0.128-2.224
		c0.452-0.227,1.425,0.735,1.708,1.032c1.353,1.457,2.352,3.587,3.316,5.331c0.653,1.183,1.44,2.649,2.053,3.628"/>
	<path style="fill:none;stroke:#A8D0DA;stroke-width:0.2751;stroke-linecap:round;stroke-linejoin:round;" d="M247.095,57.579
		c-1.136-1.822-2.046-3.673-3.292-5.459c-1.023-1.455-2.477-3.191-2.547-4.96c1.204-1.335,6.72,8.314,7.417,9.433"/>
	<path style="fill:none;stroke:#A8D0DA;stroke-width:0.2751;stroke-linecap:round;stroke-linejoin:round;" d="M250.558,55.107
		c-0.93-1.503-4.264-6.931-5.22-8.222c-0.474-0.639-2.995-2.895-2.334-0.725c0.455,1.498,1.469,2.623,2.388,3.829
		c1.439,1.88,2.92,4.208,4.059,6.015"/>
	<path style="fill:none;stroke:#777768;stroke-width:1.713;stroke-linecap:round;stroke-linejoin:round;" d="M251.141,55.398
		c0.464-3.876-5.082-10.18-9.512-7.776c1.334-1.209,4.243-2.235,6.003-1.682c-1.621-1.906-5.748-1.532-7.7-0.255
		c1.58-0.88,4.587-1.35,6.051-1.784c-1.848-1.274-6.995-1.886-8.616-0.009"/>
	<path style="fill:none;stroke:#A8D0DA;stroke-width:1.1004;stroke-linejoin:round;" d="M243.042,41.905
		c0.589-0.75,0.621-0.875,1.734-1.407c2.317-1.111,6.578,5.178,6.896,8.046c0.204,1.789-1.775,3.299-2.337,3.415"/>
	<path style="fill:none;stroke:#777768;stroke-width:1.713;stroke-linecap:round;stroke-linejoin:round;" d="M236.913,50.432
		c-0.3,0.507-0.16,1.329,0.537,2.022"/>
</g>
</svg>
