<?xml version="1.0" encoding="iso-8859-1"?>
<!-- Generator: Adobe Illustrator 13.0.0, SVG Export Plug-In . SVG Version: 6.00 Build 14948)  -->
<!DOCTYPE svg PUBLIC "-//W3C//DTD SVG 1.1//EN" "http://www.w3.org/Graphics/SVG/1.1/DTD/svg11.dtd">
<svg version="1.1" xmlns="http://www.w3.org/2000/svg" xmlns:xlink="http://www.w3.org/1999/xlink" x="0px" y="0px" width="378px"
	 height="140px" viewBox="0 0 378 140" style="enable-background:new 0 0 378 140;" xml:space="preserve">
<g id="fond">
	<rect style="fill:#FFFFFF;" width="378" height="140"/>
</g>
<g id="Layer_3">
	<g>
		<g>
			<rect x="121.5" y="2.5" style="fill:none;" width="135" height="135"/>
			<path style="fill:#406FA9;" d="M256.5,125.963c0,6.373-5.164,11.537-11.537,11.537H133.037c-6.371,0-11.537-5.164-11.537-11.537
				V14.037c0-6.371,5.166-11.537,11.537-11.537h111.926c6.373,0,11.537,5.166,11.537,11.537V125.963z"/>
			<path style="fill:none;stroke:#FFFFFF;stroke-width:4.0703;" d="M251.018,121.418c0,5.854-4.746,10.6-10.602,10.6H137.585
				c-5.855,0-10.602-4.746-10.602-10.6V18.586c0-5.854,4.746-10.602,10.602-10.602h102.831c5.855,0,10.602,4.748,10.602,10.602
				V121.418z"/>
		</g>
	</g>
	<path style="fill:#FFFFFF;" d="M218.667,109.667L218.667,109.667L218.667,109.667z"/>
</g>
<g id="sciseau">
	<g>
		<path style="fill:#FFFFFF;" d="M181.462,29.639l22.516,37.12l11.255,18.008l-0.72,4.004c0,0-10.542-20.105-15.738-17.787
			C198.064,69.404,181.462,29.639,181.462,29.639z"/>
		<g>
			<path style="fill:#FFFFFF;" d="M213.196,98.143c-2.915-4.348-2.692-10.244,0.497-13.171s8.143-1.776,11.061,2.57
				c2.914,4.349,2.691,10.246-0.497,13.173C221.065,103.642,216.112,102.491,213.196,98.143z"/>
			<path style="fill:#406FA9;" d="M214.199,97.223c-2.312-3.445-2.047-8.201,0.59-10.621c2.636-2.418,6.649-1.585,8.962,1.862
				c2.312,3.447,2.045,8.201-0.59,10.617C220.523,101.502,216.512,100.669,214.199,97.223z"/>
		</g>
		<path style="fill:#FFFFFF;" d="M198.912,23.403l-0.919,45.496l-0.722,22.287l2.511,2.85c0,0-0.871-23.562,4.545-25.036
			C204.161,67.227,198.912,23.403,198.912,23.403z"/>
		<g>
			<path style="fill:#FFFFFF;" d="M205.357,100.947c0.337-5.513-2.666-10.256-6.71-10.597c-4.045-0.341-7.602,3.853-7.941,9.36
				c-0.337,5.512,2.667,10.257,6.709,10.599C201.462,110.647,205.017,106.454,205.357,100.947z"/>
			<path style="fill:#406FA9;" d="M204.085,100.84c0.269-4.371-2.225-8.14-5.567-8.422c-3.342-0.28-6.271,3.03-6.539,7.401
				c-0.271,4.369,2.224,8.137,5.566,8.42S203.815,105.208,204.085,100.84z"/>
		</g>
		<path style="fill:#FFFFFF;" d="M224.641,99.635c0,0,4.731,5.878,7.417,5.197c1.633-0.418,2.359-1.619,1.667-2.335
			c-0.328-0.337-0.785-0.234-1.785,0.301c-0.958,0.515-1.252,1.271-6.887-3.966"/>
	</g>
	<circle style="fill:none;stroke:#406FA9;stroke-width:0.5;" cx="201.04" cy="68.058" r="1.354"/>
</g>
<g id="peigne">
	<g>
		<g>
			<path style="fill:#FFFFFF;" d="M156.25,106.334v-2.25H172v-2.161h-15.75v-2.25H172v-2.162h-15.75v-2.25H172V93.1h-15.75v-2.25
				H172v-2.162h-15.75v-2.25H172v-2.161h-15.75v-2.25H172v-2.161h-15.75v-2.25H172v-2.162h-15.75v-2.25H172v-2.161h-15.75v-2.25H172
				v-2.161h-15.75v-2.25H172v-2.162h-15.75v-2.25H172v-2.161h-15.75v-2.25H172v-2.162h-15.75v-2.25H172v-2.161h-15.75v-2.25H172
				v-2.161h-15.75v-2.25H172v-2.162h-15.75v-2.25H172V35.75h-15.75V33.5h15.628c-0.642-3.274-3.919-3.75-7.878-3.75h-7.333
				c-7.083,0-8,5.582-8,10v62.334c0,4.417,1.582,8,6,8H164c3.958,0,7.236-0.477,7.878-3.75H156.25z"/>
		</g>
	</g>
</g>
</svg>
