<?xml version="1.0" encoding="iso-8859-1"?>
<!-- Generator: Adobe Illustrator 13.0.0, SVG Export Plug-In . SVG Version: 6.00 Build 14948)  -->
<!DOCTYPE svg PUBLIC "-//W3C//DTD SVG 1.1//EN" "http://www.w3.org/Graphics/SVG/1.1/DTD/svg11.dtd">
<svg version="1.1" xmlns="http://www.w3.org/2000/svg" xmlns:xlink="http://www.w3.org/1999/xlink" x="0px" y="0px" width="378px"
	 height="140px" viewBox="0 0 378 140" style="enable-background:new 0 0 378 140;" xml:space="preserve">
<g id="fond">
	<rect style="fill:#FFFFFF;" width="378" height="140"/>
</g>
<g id="billet">
	<g>
		
			<rect x="38.401" y="41.083" style="fill:#FFFFFF;stroke:#777768;stroke-width:0.5;stroke-linecap:round;stroke-linejoin:round;" width="107" height="54"/>
		<path style="fill:#FFFFFF;stroke:#777768;stroke-width:0.5;stroke-linecap:round;stroke-linejoin:round;" d="M110.359,92.708
			c0.382-11.913,6.216-21.375,13.354-21.375s12.971,9.462,13.355,21.375"/>
		
			<rect x="40.776" y="43.458" style="fill:none;stroke:#777768;stroke-width:0.5;stroke-linecap:round;stroke-linejoin:round;" width="102.25" height="49.25"/>
		
			<circle style="fill:#FFFFFF;stroke:#777768;stroke-width:0.5;stroke-linecap:round;stroke-linejoin:round;" cx="123.714" cy="61.833" r="7.5"/>
		
			<line style="fill:#FFFFFF;stroke:#777768;stroke-width:0.5;stroke-linecap:round;stroke-linejoin:round;" x1="45.526" y1="50.083" x2="70.526" y2="50.083"/>
		
			<line style="fill:#FFFFFF;stroke:#777768;stroke-width:0.5;stroke-linecap:round;stroke-linejoin:round;" x1="45.526" y1="89.958" x2="76.651" y2="89.958"/>
		
			<line style="fill:#FFFFFF;stroke:#777768;stroke-width:0.5;stroke-linecap:round;stroke-linejoin:round;" x1="82.401" y1="89.958" x2="101.651" y2="89.958"/>
		<polygon style="fill:#FFFFFF;stroke:#777768;stroke-width:0.5;stroke-linecap:round;stroke-linejoin:round;" points="
			53.68,84.538 45.526,70.417 53.68,56.295 69.985,56.295 78.139,70.417 69.985,84.538 		"/>
		<polygon style="fill:#FFFFFF;stroke:#777768;stroke-width:0.5;stroke-linecap:round;stroke-linejoin:round;" points="
			91.028,81.362 84.708,70.417 91.028,59.47 103.667,59.47 109.987,70.417 103.667,81.362 		"/>
	</g>
</g>
<g id="Layer_5">
	<g>
		<g>
			<path style="fill:#D85700;stroke:#777768;stroke-linecap:round;stroke-linejoin:round;" d="M320,85.501v3.075
				c0,1.748-5.598,3.166-12.5,3.166c-6.904,0-12.5-1.418-12.5-3.166v-3.294"/>
			
				<ellipse style="fill:#D85700;stroke:#777768;stroke-linecap:round;stroke-linejoin:round;" cx="307.5" cy="85.501" rx="12.5" ry="3.166"/>
		</g>
		<g>
			<path style="fill:#DBDBDB;stroke:#777768;stroke-linecap:round;stroke-linejoin:round;" d="M293.256,85.501v3.075
				c0,1.748-5.598,3.166-12.5,3.166c-6.904,0-12.5-1.418-12.5-3.166v-3.294"/>
			
				<ellipse style="fill:#DBDBDB;stroke:#777768;stroke-linecap:round;stroke-linejoin:round;" cx="280.756" cy="85.501" rx="12.5" ry="3.166"/>
		</g>
		<g>
			<path style="fill:#FFDB00;stroke:#777768;stroke-linecap:round;stroke-linejoin:round;" d="M307.258,78.786v3.075
				c0,1.748-5.598,3.166-12.5,3.166c-6.904,0-12.5-1.418-12.5-3.166v-3.294"/>
			
				<ellipse style="fill:#FFDB00;stroke:#777768;stroke-linecap:round;stroke-linejoin:round;" cx="294.758" cy="78.786" rx="12.5" ry="3.166"/>
		</g>
		<g>
			<path style="fill:#D85700;stroke:#777768;stroke-linecap:round;stroke-linejoin:round;" d="M295.941,93.927v3.075
				c0,1.748-5.598,3.166-12.5,3.166c-6.904,0-12.5-1.418-12.5-3.166v-3.294"/>
			
				<ellipse style="fill:#D85700;stroke:#777768;stroke-linecap:round;stroke-linejoin:round;" cx="283.441" cy="93.927" rx="12.5" ry="3.166"/>
		</g>
		<g>
			<path style="fill:#FFDB00;stroke:#777768;stroke-linecap:round;stroke-linejoin:round;" d="M348.021,85.501v3.075
				c0,1.748-5.598,3.166-12.5,3.166c-6.904,0-12.5-1.418-12.5-3.166v-3.294"/>
			
				<ellipse style="fill:#FFDB00;stroke:#777768;stroke-linecap:round;stroke-linejoin:round;" cx="335.521" cy="85.501" rx="12.5" ry="3.166"/>
		</g>
		<g>
			<path style="fill:#DBDBDB;stroke:#777768;stroke-linecap:round;stroke-linejoin:round;" d="M337.6,78.786v3.075
				c0,1.748-5.596,3.166-12.5,3.166c-6.902,0-12.5-1.418-12.5-3.166v-3.294"/>
			
				<ellipse style="fill:#DBDBDB;stroke:#777768;stroke-linecap:round;stroke-linejoin:round;" cx="325.1" cy="78.786" rx="12.5" ry="3.166"/>
		</g>
		<g>
			<path style="fill:#FFDB00;stroke:#777768;stroke-linecap:round;stroke-linejoin:round;" d="M267.623,89.203v3.075
				c0,1.748-5.596,3.166-12.5,3.166c-6.902,0-12.5-1.418-12.5-3.166v-3.294"/>
			
				<ellipse style="fill:#FFDB00;stroke:#777768;stroke-linecap:round;stroke-linejoin:round;" cx="255.123" cy="89.203" rx="12.5" ry="3.166"/>
		</g>
		<g>
			<path style="fill:#DBDBDB;stroke:#777768;stroke-linecap:round;stroke-linejoin:round;" d="M323.164,67.529v3.076
				c0,1.748-5.596,3.166-12.5,3.166c-6.902,0-12.5-1.418-12.5-3.166v-3.295"/>
			
				<ellipse style="fill:#DBDBDB;stroke:#777768;stroke-linecap:round;stroke-linejoin:round;" cx="310.664" cy="67.529" rx="12.5" ry="3.166"/>
		</g>
		<g>
			<path style="fill:#FFDB00;stroke:#777768;stroke-linecap:round;stroke-linejoin:round;" d="M338.088,75.654l-1.1,2.872
				c-0.625,1.633-6.357,0.958-12.807-1.509c-6.447-2.465-11.168-5.789-10.543-7.422l1.176-3.076"/>
			
				<ellipse transform="matrix(-0.934 -0.3572 0.3572 -0.934 605.8591 254.2793)" style="fill:#FFDB00;stroke:#777768;stroke-linecap:round;stroke-linejoin:round;" cx="326.412" cy="71.189" rx="12.501" ry="3.166"/>
		</g>
		<g>
			<path style="fill:#D85700;stroke:#777768;stroke-linecap:round;stroke-linejoin:round;" d="M325.85,75.955v3.076
				c0,1.748-5.596,3.166-12.5,3.166c-6.902,0-12.5-1.418-12.5-3.166v-3.295"/>
			
				<ellipse style="fill:#D85700;stroke:#777768;stroke-linecap:round;stroke-linejoin:round;" cx="313.35" cy="75.955" rx="12.5" ry="3.166"/>
		</g>
		<g>
			<path style="fill:#FFDB00;stroke:#777768;stroke-linecap:round;stroke-linejoin:round;" d="M296.092,69.525l1.131,2.859
				c0.643,1.625-4.041,5.002-10.461,7.541c-6.418,2.538-12.145,3.277-12.787,1.652l-1.211-3.063"/>
			
				<ellipse transform="matrix(-0.9299 0.3677 -0.3677 -0.9299 576.2614 38.4506)" style="fill:#FFDB00;stroke:#777768;stroke-linecap:round;stroke-linejoin:round;" cx="284.468" cy="74.122" rx="12.5" ry="3.165"/>
		</g>
	</g>
</g>
<g id="Layer_7">
	<g>
		<path style="fill:none;stroke:#777768;stroke-width:4;stroke-linecap:round;stroke-linejoin:round;" d="M155.028,65.619
			c3.504-10.68,43.828-32.202,100.329-2.036"/>
		<polyline style="fill:none;stroke:#777768;stroke-width:4;stroke-linecap:round;stroke-linejoin:round;" points="240.19,43.417 
			256.856,64.25 225.022,71.417 		"/>
	</g>
</g>
<g id="Layer_8">
</g>
</svg>
