<?xml version="1.0" encoding="iso-8859-1"?>
<!-- Generator: Adobe Illustrator 13.0.0, SVG Export Plug-In . SVG Version: 6.00 Build 14948)  -->
<!DOCTYPE svg PUBLIC "-//W3C//DTD SVG 1.1//EN" "http://www.w3.org/Graphics/SVG/1.1/DTD/svg11.dtd">
<svg version="1.1" xmlns="http://www.w3.org/2000/svg" xmlns:xlink="http://www.w3.org/1999/xlink" x="0px" y="0px"
	 width="378.001px" height="140px" viewBox="0 0 378.001 140" style="enable-background:new 0 0 378.001 140;" xml:space="preserve"
	>
<pattern  x="-80.995" y="169.995" width="540" height="200" patternUnits="userSpaceOnUse" id="Fond_540x200" viewBox="0 -200 540 200" style="overflow:visible;">
	<g>
		<polygon style="fill:none;" points="0,0 540,0 540,-200 0,-200 		"/>
		<polygon style="fill:#FFFFFF;" points="0,0 540,0 540,-200 0,-200 		"/>
	</g>
</pattern>
<g id="Layer_2">
	<g>
		<rect style="fill:none;" width="378.001" height="140"/>
		<rect style="fill:#FFFFFF;" width="378.001" height="140"/>
	</g>
</g>
<g id="Layer_3">
</g>
<g id="Layer_5">
	<g>
		<defs>
			<path id="SVGID_1_" d="M321.3,129.5c0,0.773-0.627,1.4-1.398,1.4H65.1c-0.773,0-1.4-0.627-1.4-1.4V11.2
				c0-0.773,0.626-1.4,1.4-1.4h254.801c0.771,0,1.398,0.627,1.398,1.4V129.5z"/>
		</defs>
		<clipPath id="SVGID_2_">
			<use xlink:href="#SVGID_1_"  style="overflow:visible;"/>
		</clipPath>
		<g style="clip-path:url(#SVGID_2_);">
			<polyline style="fill:#D5312C;stroke:#FFFFFF;stroke-width:0.9641;stroke-linecap:square;" points="183.07,134.401 
				183.07,91.612 187.788,91.612 187.788,134.633 			"/>
			<g>
				<path style="fill:#D5312C;" d="M145.474,90.128c0,1.478,1.197,2.676,2.675,2.676h74.549c1.477,0,2.678-1.198,2.678-2.676
					s-1.201-2.677-2.678-2.677h-74.549C146.671,87.452,145.474,88.651,145.474,90.128C145.474,90.128,145.474,88.651,145.474,90.128
					z"/>
				<path style="fill:none;stroke:#FFFFFF;stroke-width:1.4461;" d="M145.474,90.128c0,1.478,1.197,2.676,2.675,2.676h74.549
					c1.477,0,2.678-1.198,2.678-2.676s-1.201-2.677-2.678-2.677h-74.549C146.671,87.452,145.474,88.651,145.474,90.128
					C145.474,90.128,145.474,88.651,145.474,90.128z"/>
			</g>
		</g>
		<g style="clip-path:url(#SVGID_2_);">
			<g>
				
					<line style="fill:none;stroke:#65B724;stroke-width:4.5085;stroke-linecap:round;stroke-linejoin:round;" x1="122.003" y1="75.5" x2="122.003" y2="116.124"/>
				
					<line style="fill:none;stroke:#65B724;stroke-width:4.5085;stroke-linecap:round;stroke-linejoin:round;" x1="122.003" y1="116.124" x2="162.62" y2="116.124"/>
				
					<line style="fill:none;stroke:#65B724;stroke-width:4.5085;stroke-linecap:round;stroke-linejoin:round;" x1="162.62" y1="116.124" x2="145.323" y2="133.424"/>
			</g>
			<g>
				
					<line style="fill:none;stroke:#65B724;stroke-width:4.5085;stroke-linecap:round;stroke-linejoin:round;" x1="258.569" y1="75.5" x2="258.569" y2="116.124"/>
				
					<line style="fill:none;stroke:#65B724;stroke-width:4.5085;stroke-linecap:round;stroke-linejoin:round;" x1="258.569" y1="116.124" x2="217.952" y2="116.124"/>
				
					<line style="fill:none;stroke:#65B724;stroke-width:4.5085;stroke-linecap:round;stroke-linejoin:round;" x1="217.952" y1="116.124" x2="235.948" y2="134.124"/>
			</g>
		</g>
		<g style="clip-path:url(#SVGID_2_);">
			
				<line style="fill:none;stroke:#65B724;stroke-width:0.5567;stroke-linecap:round;stroke-linejoin:round;" x1="167.525" y1="85.563" x2="163.277" y2="79.075"/>
			<path style="fill:none;stroke:#65B724;stroke-width:0.5567;stroke-linecap:round;stroke-linejoin:round;" d="M168.566,84.882
				c-0.516-0.787-1.64-2.249-2.563-1.646c-0.923,0.605-0.113,2.416,0.337,3.104"/>
		</g>
		<g style="clip-path:url(#SVGID_2_);">
			
				<line style="fill:none;stroke:#65B724;stroke-width:0.6965;stroke-linecap:round;stroke-linejoin:round;" x1="218.862" y1="40.647" x2="213.36" y2="48.638"/>
			<path style="fill:none;stroke:#65B724;stroke-width:0.6965;stroke-linecap:round;stroke-linejoin:round;" d="M217.583,39.764
				c-0.668,0.969-1.828,2.963-0.693,3.747c1.139,0.783,2.852-1.012,3.434-1.859"/>
		</g>
		<g style="clip-path:url(#SVGID_2_);">
			
				<line style="fill:none;stroke:#65B724;stroke-width:0.6965;stroke-linecap:round;stroke-linejoin:round;" x1="167.643" y1="84.458" x2="158.129" y2="82.549"/>
			
				<line style="fill:none;stroke:#65B724;stroke-width:0.9379;stroke-linecap:round;stroke-linejoin:round;" x1="167.614" y1="84.602" x2="163.906" y2="83.858"/>
		</g>
		
			<path style="clip-path:url(#SVGID_2_);fill:#B58247;stroke:#B58247;stroke-width:1.5924;stroke-linecap:round;stroke-linejoin:round;" d="
			M175.124,86.291c0,0.509-0.412,0.921-0.92,0.921h-12.63c-0.508,0-0.921-0.412-0.921-0.921l0,0c0-0.509,0.413-0.921,0.921-0.921
			h12.63C174.711,85.37,175.124,85.782,175.124,86.291L175.124,86.291z"/>
		
			<path style="clip-path:url(#SVGID_2_);fill:#B58247;stroke:#B58247;stroke-width:1.5924;stroke-linecap:round;stroke-linejoin:round;" d="
			M209.854,86.291c0,0.509-0.412,0.921-0.92,0.921h-12.629c-0.51,0-0.922-0.412-0.922-0.921l0,0c0-0.509,0.412-0.921,0.922-0.921
			h12.629C209.442,85.37,209.854,85.782,209.854,86.291L209.854,86.291z"/>
		
			<path style="clip-path:url(#SVGID_2_);fill:#B58247;stroke:#B58247;stroke-width:0.8614;stroke-linecap:round;stroke-linejoin:round;" d="
			M220.241,42.713c-0.355,0.363-0.73,0.572-0.838,0.468l-2.635-2.588c-0.107-0.105,0.096-0.483,0.451-0.846l0,0
			c0.357-0.363,0.73-0.573,0.838-0.468l2.637,2.589C220.8,41.971,220.599,42.349,220.241,42.713L220.241,42.713z"/>
		
			<path style="clip-path:url(#SVGID_2_);fill:none;stroke:#65B724;stroke-width:1.5924;stroke-linecap:round;stroke-linejoin:round;" d="
			M194.507,87.958h15.654H194.507z"/>
		
			<polyline style="clip-path:url(#SVGID_2_);fill:none;stroke:#65B724;stroke-width:1.5924;stroke-linecap:round;stroke-linejoin:round;" points="
			157.143,85.326 159.774,87.958 175.43,87.958 178.061,85.326 		"/>
		
			<path style="clip-path:url(#SVGID_2_);fill:none;stroke:#65B724;stroke-width:1.5924;stroke-linecap:round;stroke-linejoin:round;" d="
			M194.507,87.958h15.654H194.507z"/>
		
			<polyline style="clip-path:url(#SVGID_2_);fill:none;stroke:#65B724;stroke-width:1.5924;stroke-linecap:round;stroke-linejoin:round;" points="
			191.874,85.326 194.507,87.958 210.161,87.958 212.792,85.326 		"/>
	</g>
</g>
<g id="homme">
	<path style="fill:none;stroke:#777768;stroke-width:1.599;stroke-linecap:round;stroke-linejoin:round;" d="M230.243,44.203
		c1.215,7.329,4.418,32.721,5.967,49.675c0.518,5.656,2.41,14.93,2.627,17.105s-3.996,3.201-10.504,1.037
		c-8.781-2.918-29.543-8.219-26.793,1.447c2.668,9.371,5.088,16.729,7.025,22.498"/>
	<path style="fill:none;stroke:#777768;stroke-width:1.599;stroke-linecap:round;stroke-linejoin:round;" d="M213.854,87.452
		c1.334-0.479,21.223,3.109,26.125-3.113c2.553-3.236-2.342-26.2-3.42-30.12c-0.9-3.272-2.908-2.769-5.301-3.118
		c-2.609-0.382-3.875,0.237-3.875,0.237c-3.42,1.724-18.578,19.81-20.455,17.933c-2.686-2.687,5.604-18.746,6.891-21.263"/>
	<path style="fill:none;stroke:#777768;stroke-width:1.599;" d="M233.755,109.92c0,1.609,1.303,2.895,2.9,2.895
		c1.592,0,2.893-1.285,2.893-2.895c0-1.584-1.301-2.887-2.893-2.887C235.058,107.034,233.755,108.336,233.755,109.92z"/>
	<path style="fill:none;stroke:#777768;stroke-width:1.599;" d="M216.53,29.527c0.758,8.695,6.762,15.281,13.408,14.702
		c6.641-0.578,11.41-8.102,10.652-16.798c-0.756-8.695-6.754-15.275-13.395-14.698C220.55,13.313,215.774,20.83,216.53,29.527z"/>
</g>
<g id="femme_1_">
	<path style="fill:#FFFFFF;stroke:#777768;stroke-width:2.5;stroke-linecap:round;stroke-linejoin:round;" d="M156.992,38.385
		c-2.13,7.938-8.766,13.048-14.823,11.423c-6.058-1.625-9.248-9.373-7.119-17.312c2.129-7.933,8.771-13.042,14.828-11.416
		C155.935,22.705,159.122,30.451,156.992,38.385z"/>
	<path style="fill:none;stroke:#777768;stroke-width:2.5;stroke-linecap:round;stroke-linejoin:round;" d="M138.878,66.114
		c0.017,11.691,2.451,24.787,1.552,31.339c-0.753,5.491-5.576,17.101,5.25,15.612c11.89-1.633,33.542-4.58,31.728,3.27
		c-1.693,7.336-3.121,13.365-4.237,18.307"/>
	<path style="fill:none;stroke:#777768;stroke-width:2.5;" d="M142.169,49.808c-1.083,2.717-0.351,0.839-2.384,7.661"/>
	<g id="detail_f">
		<path style="fill:none;stroke:#777768;stroke-width:1.799;stroke-linecap:round;stroke-linejoin:round;" d="M140.698,56.462
			c4.261-1.92,8.014,17.593,10.295,19.259c0.879,0.881,7.463,2.079,9.598,3.135c0.67,0.332,2.757,0.834,4.666,2.742"/>
		<path style="fill:url(#Fond_540x200);stroke:#777768;stroke-width:1.799;stroke-linecap:round;stroke-linejoin:round;" d="
			M146.058,62.465c0,2.83-2.292,5.127-5.132,5.127c-2.835,0-5.126-2.297-5.126-5.127c0-2.836,2.292-5.128,5.126-5.128
			C143.766,57.337,146.058,59.628,146.058,62.465z"/>
		<path style="fill:none;stroke:#777768;stroke-width:1.799;stroke-linecap:round;stroke-linejoin:round;" d="M139.095,57.677
			c-1.472,2.81,2.021,22.999,4.223,25.2s11.025-1.542,15.975-0.095"/>
	</g>
</g>
</svg>
