<?xml version="1.0" encoding="iso-8859-1"?>
<!-- Generator: Adobe Illustrator 13.0.0, SVG Export Plug-In . SVG Version: 6.00 Build 14948)  -->
<!DOCTYPE svg PUBLIC "-//W3C//DTD SVG 1.1//EN" "http://www.w3.org/Graphics/SVG/1.1/DTD/svg11.dtd">
<svg version="1.1" xmlns="http://www.w3.org/2000/svg" xmlns:xlink="http://www.w3.org/1999/xlink" x="0px" y="0px" width="540px"
	 height="200px" viewBox="0 0 540 200" style="enable-background:new 0 0 540 200;" xml:space="preserve">
<g id="fOND">
	<g>
		<rect style="fill:none;" width="540" height="200"/>
		<rect style="fill:#FFFFFF;" width="540" height="200"/>
	</g>
</g>
<g id="WAITER">
	<g>
		<path style="fill:none;stroke:#777768;stroke-width:1.1009;" d="M267.791,26.365c0,7.381,4.568,13.367,10.208,13.367
			c5.635,0,10.21-5.986,10.21-13.367c0-7.383-4.575-13.365-10.21-13.365C272.359,13,267.791,18.982,267.791,26.365z"/>
		<path style="fill:none;stroke:#777768;stroke-width:1.1009;stroke-linecap:round;" d="M277.749,40.266
			c0.071,14.097,1.203,95.125,1.27,97.478c0.965,35.298,2.539,33.719-3.997,33.719"/>
		<path style="fill:none;stroke:#777768;stroke-width:1.1009;" d="M275.935,103.309c0,1.316,1.066,2.381,2.388,2.381
			c1.308,0,2.379-1.064,2.379-2.381c0-1.319-1.071-2.388-2.379-2.388C277.001,100.921,275.935,101.989,275.935,103.309z"/>
		<path style="fill:#777768;stroke:#777768;stroke-width:1.651;stroke-linecap:round;stroke-linejoin:round;" d="M278.155,43.959
			c1.25-0.486,2.567-1.638,3.867-1.689c-0.092,2.069-0.708,4.232-0.781,6.34c-1.611-0.618-2.173-3.051-3.459-4.057
			c-0.54-0.424-1.021-0.945-1.649-1.333c-0.727-0.438-1.326-1.043-2.147-1.27c-0.063,0.838,0.153,1.855-0.054,2.669
			c-0.218,0.826-1.614,2.001-1.213,2.917c0.505,1.201,4.523-2.339,5.061-3.266"/>
		<path style="fill:none;stroke:#777768;stroke-width:1.1009;stroke-linecap:round;stroke-linejoin:round;" d="M261.189,65.776
			c1.581-0.01,1.883,2.395,2.614,3.841c1.073,2.138,1.944,4.422,3.039,6.522c0.571-1.135,2.221-8.929,3.228-11.183
			c1.771-3.964,4.696-12.777,7.764-15.711"/>
	</g>
	<path style="fill:none;stroke:#777768;stroke-width:1.1009;stroke-linecap:round;stroke-linejoin:round;" d="M251.838,55.865
		c2.116,3.82,4.517,7.339,7.239,10.569c2.315-0.635,5.923-1.897,7.614-3.639c-0.743-2.181-3.359-7.542-4.349-9.856
		C259.24,52.526,254.684,54.902,251.838,55.865"/>
</g>
<g id="Layer_4">
	<g>
		<g>
			
				<rect x="262.391" y="107.139" style="fill:#D5312C;stroke:#FFFFFF;stroke-width:0.9056;stroke-linecap:square;" width="5.276" height="74.604"/>
			<g>
				<path style="fill:#D5312C;" d="M220.327,105.504c0,1.629,1.34,2.945,2.994,2.945h83.402c1.654,0,2.996-1.316,2.996-2.945
					s-1.342-2.946-2.996-2.946h-83.402C221.667,102.558,220.327,103.875,220.327,105.504
					C220.327,105.504,220.327,103.875,220.327,105.504z"/>
				<path style="fill:none;stroke:#FFFFFF;stroke-width:1.3585;" d="M220.327,105.504c0,1.629,1.34,2.945,2.994,2.945h83.402
					c1.654,0,2.996-1.316,2.996-2.945s-1.342-2.946-2.996-2.946h-83.402C221.667,102.558,220.327,103.875,220.327,105.504
					C220.327,105.504,220.327,103.875,220.327,105.504z"/>
			</g>
		</g>
		<g>
			<g>
				
					<line style="fill:none;stroke:#65B724;stroke-width:4.284;stroke-linecap:round;stroke-linejoin:round;" x1="194.067" y1="89.398" x2="194.067" y2="134.122"/>
				
					<line style="fill:none;stroke:#65B724;stroke-width:4.284;stroke-linecap:round;stroke-linejoin:round;" x1="194.067" y1="134.122" x2="239.512" y2="134.122"/>
				
					<line style="fill:none;stroke:#65B724;stroke-width:4.284;stroke-linecap:round;stroke-linejoin:round;" x1="239.512" y1="134.122" x2="194.021" y2="178.892"/>
				
					<line style="fill:none;stroke:#65B724;stroke-width:4.284;stroke-linecap:round;stroke-linejoin:round;" x1="194.021" y1="178.892" x2="220.22" y2="178.892"/>
			</g>
			<g>
				
					<line style="fill:none;stroke:#65B724;stroke-width:4.284;stroke-linecap:round;stroke-linejoin:round;" x1="346.857" y1="89.398" x2="346.857" y2="134.122"/>
				
					<line style="fill:none;stroke:#65B724;stroke-width:4.284;stroke-linecap:round;stroke-linejoin:round;" x1="346.857" y1="134.122" x2="301.415" y2="134.122"/>
				
					<line style="fill:none;stroke:#65B724;stroke-width:4.284;stroke-linecap:round;stroke-linejoin:round;" x1="301.415" y1="134.122" x2="346.906" y2="178.892"/>
				
					<line style="fill:none;stroke:#65B724;stroke-width:4.284;stroke-linecap:round;stroke-linejoin:round;" x1="346.906" y1="178.892" x2="320.7" y2="178.892"/>
			</g>
		</g>
	</g>
</g>
<g id="Layer_3">
	<g>
		<path style="fill:none;stroke:#A8CFD5;stroke-width:0.9703;stroke-linejoin:round;" d="M231.823,88.705
			c-0.836-0.278-0.925-0.355-2.05-0.2c-2.355,0.319-2.444,7.329-1.23,9.695c0.75,1.486,3.042,1.645,3.536,1.45"/>
		<g>
			<path style="fill:#FBCF3D;" d="M231.823,102.312c0,1.143,2.742,1.143,4.906,1.143c2.167,0,4.698-0.158,4.703-1.143
				c0.015-0.969,0-11.095,0-11.095s-1.027,0.744-4.792,0.744c-3.767,0-4.703-1.053-4.703-1.053S231.823,101.185,231.823,102.312z"/>
			<path style="fill:#F6F9D7;" d="M231.849,90.38c0,0.167-0.025,0.695-0.025,1.256c0,0.522,3.076,0.736,4.823,0.736
				c1.605,0,3.531-0.333,4.4-0.55c0.562-0.147,0.386-1.253,0.386-1.442c0-0.475-2.142-0.863-4.792-0.863
				C233.993,89.517,231.849,89.905,231.849,90.38z"/>
			<g>
				<path style="fill:none;stroke:#FFFFFF;stroke-width:0.1721;" d="M239.983,96.892c0,0.092,0.08,0.167,0.175,0.167
					c0.1,0,0.178-0.075,0.178-0.167c0-0.086-0.078-0.161-0.178-0.161C240.063,96.73,239.983,96.806,239.983,96.892z"/>
				<path style="fill:none;stroke:#FFFFFF;stroke-width:0.1721;" d="M236.788,98.051c0,0.092,0.078,0.161,0.172,0.161
					c0.098,0,0.178-0.069,0.178-0.161c0-0.087-0.08-0.161-0.178-0.161C236.866,97.89,236.788,97.964,236.788,98.051z"/>
				<ellipse style="fill:none;stroke:#FFFFFF;stroke-width:0.1721;" cx="238.521" cy="96.605" rx="0.181" ry="0.164"/>
				<path style="fill:none;stroke:#FFFFFF;stroke-width:0.1721;" d="M235.708,95.9c0,0.086,0.083,0.158,0.18,0.158
					c0.098,0,0.178-0.072,0.178-0.158c0-0.092-0.08-0.161-0.178-0.161C235.791,95.739,235.708,95.809,235.708,95.9z"/>
				<path style="fill:none;stroke:#FFFFFF;stroke-width:0.1721;" d="M240.244,93.747c0,0.089,0.075,0.161,0.169,0.161
					c0.104,0,0.184-0.072,0.184-0.161c0-0.086-0.08-0.164-0.184-0.164C240.319,93.583,240.244,93.661,240.244,93.747z"/>
				<path style="fill:none;stroke:#FFFFFF;stroke-width:0.1721;" d="M235.683,93.422c0,0.095,0.072,0.161,0.178,0.161
					c0.092,0,0.172-0.066,0.172-0.161c0-0.086-0.08-0.155-0.172-0.155C235.755,93.267,235.683,93.336,235.683,93.422z"/>
				<path style="fill:none;stroke:#FFFFFF;stroke-width:0.1721;" d="M238.985,94.775c0,0.089,0.078,0.161,0.181,0.161
					c0.095,0,0.175-0.072,0.175-0.161c0-0.086-0.08-0.164-0.175-0.164C239.063,94.611,238.985,94.689,238.985,94.775z"/>
				<path style="fill:none;stroke:#FFFFFF;stroke-width:0.1721;" d="M237.767,92.978c0,0.089,0.083,0.158,0.175,0.158
					c0.094,0,0.183-0.069,0.183-0.158c0-0.086-0.089-0.164-0.183-0.164C237.85,92.813,237.767,92.892,237.767,92.978z"/>
				<ellipse style="fill:none;stroke:#FFFFFF;stroke-width:0.1721;" cx="236.691" cy="94.581" rx="0.175" ry="0.161"/>
			</g>
			<path style="fill:none;stroke:#FFFFFF;stroke-width:0.1721;" d="M238.686,102.56c-0.092-0.02-0.178,0.039-0.203,0.139
				c-0.021,0.086,0.031,0.187,0.117,0.208c0.086,0.022,0.169-0.039,0.197-0.136C238.824,102.679,238.769,102.584,238.686,102.56z"/>
			<path style="fill:none;stroke:#FFFFFF;stroke-width:0.1721;" d="M233.612,100.864c-0.086-0.021-0.172,0.039-0.194,0.131
				c-0.027,0.098,0.025,0.191,0.108,0.211c0.086,0.022,0.178-0.041,0.203-0.133C233.746,100.976,233.699,100.887,233.612,100.864z"
				/>
			<path style="fill:none;stroke:#FFFFFF;stroke-width:0.1721;" d="M233.257,97.486c-0.083-0.024-0.175,0.036-0.202,0.128
				c-0.017,0.098,0.03,0.194,0.119,0.211c0.086,0.025,0.167-0.036,0.197-0.13C233.394,97.604,233.341,97.506,233.257,97.486z"/>
			<path style="fill:none;stroke:#FFFFFF;stroke-width:0.1721;" d="M234.285,99.345c-0.089-0.024-0.172,0.036-0.197,0.134
				c-0.025,0.097,0.03,0.186,0.108,0.208c0.092,0.02,0.181-0.036,0.203-0.133C234.427,99.459,234.371,99.367,234.285,99.345z"/>
			<path style="fill:none;stroke:#FFFFFF;stroke-width:0.1721;" d="M233.44,93.211c-0.089-0.024-0.175,0.036-0.2,0.128
				c-0.024,0.095,0.031,0.191,0.117,0.217c0.083,0.014,0.169-0.039,0.191-0.137C233.571,93.322,233.526,93.233,233.44,93.211z"/>
			<path style="fill:none;stroke:#FFFFFF;stroke-width:0.1721;" d="M236.604,101.873c-0.083-0.022-0.172,0.033-0.191,0.125
				c-0.025,0.095,0.02,0.188,0.108,0.211c0.086,0.025,0.175-0.039,0.2-0.133C236.744,101.981,236.69,101.89,236.604,101.873z"/>
			<path style="fill:none;stroke:#FFFFFF;stroke-width:0.1721;" d="M233.404,95.503c-0.092-0.022-0.178,0.036-0.197,0.134
				c-0.024,0.094,0.02,0.186,0.105,0.211c0.092,0.017,0.178-0.039,0.2-0.131C233.541,95.617,233.485,95.522,233.404,95.503z"/>
			<path style="fill:none;stroke:#FFFFFF;stroke-width:0.1721;" d="M239.878,99.551c-0.092-0.025-0.176,0.036-0.2,0.131
				c-0.022,0.091,0.024,0.186,0.108,0.211c0.092,0.02,0.18-0.039,0.202-0.134C240.014,99.662,239.958,99.567,239.878,99.551z"/>
			<path style="fill:none;stroke:#FFFFFF;stroke-width:0.1721;" d="M235.905,100.403c-0.081-0.02-0.17,0.042-0.2,0.137
				c-0.02,0.094,0.03,0.188,0.125,0.208c0.075,0.017,0.169-0.036,0.194-0.134C236.046,100.521,235.993,100.429,235.905,100.403z"/>
			<path style="fill:none;stroke:#FFFFFF;stroke-width:0.1721;" d="M237.949,99.65c-0.089-0.024-0.175,0.039-0.2,0.137
				c-0.024,0.091,0.028,0.186,0.111,0.205c0.089,0.02,0.175-0.033,0.2-0.131C238.086,99.765,238.035,99.673,237.949,99.65z"/>
			<path style="fill:none;stroke:#FFFFFF;stroke-width:0.1721;" d="M235.646,98.626c-0.083-0.022-0.173,0.033-0.194,0.13
				c-0.028,0.095,0.027,0.187,0.111,0.209c0.089,0.024,0.172-0.039,0.197-0.131C235.785,98.739,235.735,98.645,235.646,98.626z"/>
			<path style="fill:none;stroke:#FFFFFF;stroke-width:0.1721;" d="M240.063,101.784c-0.08-0.025-0.17,0.036-0.191,0.134
				c-0.022,0.094,0.024,0.186,0.111,0.211c0.089,0.022,0.175-0.039,0.197-0.137C240.202,101.898,240.155,101.807,240.063,101.784z"
				/>
			<path style="fill:none;stroke:#A8CFD5;stroke-width:0.3894;stroke-linecap:round;stroke-linejoin:round;" d="M241.397,85.477
				c0.035,7.231,0.035,10.99,0.035,16.758c0,1.22-2.264,1.22-4.703,1.22c-2.372,0-4.906,0.047-4.906-1.143
				c0-4.708,0-12.14,0.042-16.835"/>
			<path style="fill:none;stroke:#A8CFD5;stroke-width:0.3894;stroke-linecap:round;stroke-linejoin:round;" d="M231.865,85.477
				c0,0.498,2.131,0.897,4.762,0.897c2.634,0,4.771-0.399,4.771-0.897c0-0.491-2.137-0.895-4.771-0.895
				C233.996,84.582,231.865,84.985,231.865,85.477z"/>
			<path style="fill:none;stroke:#A8CFD5;stroke-width:0.2597;stroke-linecap:round;stroke-linejoin:round;" d="M241.433,90.955
				c-1.294-0.603-0.824,5.018-0.872,5.862c-0.105,2.119,0.078,4.384,0.087,6.289"/>
			<path style="fill:none;stroke:#A8CFD5;stroke-width:0.2597;stroke-linecap:round;stroke-linejoin:round;" d="M239.691,103.278
				c0-1.563-0.175-3.039-0.175-4.628c0-1.85,0.361-3.617-0.072-5.417c-0.108-0.461-0.325-1.989-1.056-1.928
				c-0.495,0.038-0.806,1.353-0.887,1.75c-0.375,1.928-0.1,4.236,0,6.203c0.069,1.331,0.175,2.973,0.175,4.109"/>
			<path style="fill:none;stroke:#A8CFD5;stroke-width:0.2597;stroke-linecap:round;stroke-linejoin:round;" d="M236.63,103.368
				c0-2.114-0.203-4.143-0.086-6.29c0.092-1.753,0.408-3.97-0.456-5.489c-1.708-0.495-1.294,10.473-1.294,11.779"/>
			<path style="fill:none;stroke:#A8CFD5;stroke-width:0.2597;stroke-linecap:round;stroke-linejoin:round;" d="M232.435,103.106
				c0-1.75-0.041-8.037,0.089-9.617c0.064-0.786,0.998-3.992,1.575-1.831c0.4,1.497,0.14,2.97-0.005,4.453
				c-0.223,2.336-0.245,5.062-0.259,7.167"/>
		</g>
	</g>
	<g>
		<path style="fill:none;stroke:#777768;stroke-width:1.713;stroke-linecap:round;stroke-linejoin:round;" d="M203.582,86.004
			c5.326,7.206,23.701-1.837,31.907-3.76l0.112,1.359c-0.112-1.359,0.457-6.401,0.605-10.077c0.58,1.515-0.038,5.086,0.104,6.376
			c0.278,2.522,2.478,0.056,5.849,1.195c-1.376,0.633-2.592,1.382-4.176,0.792c1.178,0.288,3.334,0.472,3.719,0.72
			c-1.305-0.076-2.983,0.353-4.266,0.158c1.889,0.996,2.415,0.495,4.36,1.586c-1.948,0.21-5.009-0.157-6.196-0.75"/>
		<g>
			<path style="fill:none;stroke:#777768;stroke-width:2.57;" d="M215.702,59.369c0,8.794-5.491,15.927-12.271,15.927
				c-6.769,0-12.266-7.133-12.266-15.927c0-8.795,5.497-15.926,12.266-15.926C210.211,43.443,215.702,50.574,215.702,59.369z"/>
			<path style="fill:none;stroke:#777768;stroke-width:2.57;stroke-linecap:round;" d="M203.799,96.902
				c0.182,11.224,0.164,7.583-0.944,13.099c-1.758,8.692-3.504,9.456-3.504,17.379c0,12.797,46.273-3.856,44.526,3.668
				c-9.567,41.1-9.933,49.807-0.584,48.65"/>
			<path style="fill:none;stroke:#777768;stroke-width:2.57;" d="M203.432,75.872c-0.016,2.801,0.081,7.115,0.194,12.096"/>
			<path style="fill:#FFFFFF;stroke:#777768;stroke-width:2;" d="M210.754,92.395c0,2.715-2.22,4.916-4.962,4.916
				c-2.74,0-4.966-2.201-4.966-4.916c0-2.723,2.226-4.927,4.966-4.927C208.534,87.468,210.754,89.672,210.754,92.395z"/>
		</g>
	</g>
	<g>
		<ellipse style="fill:none;stroke:#777768;stroke-width:1.713;" cx="338.087" cy="128.462" rx="2.751" ry="2.727"/>
		<path style="fill:none;stroke:#777768;stroke-width:1.713;" d="M325.264,49.558c0,8.452,5.279,15.296,11.789,15.296
			c6.505,0,11.78-6.844,11.78-15.296s-5.275-15.3-11.78-15.3C330.543,34.258,325.264,41.105,325.264,49.558z"/>
		<path style="fill:none;stroke:#777768;stroke-width:1.713;stroke-linecap:round;" d="M336.751,65.467
			c0.058,10.677-0.777,34.279,1.284,44.53c1.848,9.152,6.969,19.832,0.055,21.191c-13.432,2.641-44.5-9.234-43.961-1.112
			c2.879,42.134,2.036,50.837-7.821,49.611"/>
	</g>
	<g>
		<path style="fill:#FBCF3D;" d="M291.485,102.834c0,1.173,2.837,1.173,5.073,1.173c2.239,0,4.853-0.164,4.867-1.173
			c0.008-1.003,0-11.593,0-11.593s-1.062,0.764-4.953,0.764c-3.893,0-4.987-0.594-4.987-0.594S291.485,101.656,291.485,102.834z"/>
		<path style="fill:#F6F9D7;" d="M291.511,90.389c0,0.172-0.025,0.72-0.025,1.3c0,0.539,3.184,0.759,4.987,0.759
			c1.664,0,3.652-0.342,4.553-0.567c0.575-0.149,0.4-1.291,0.4-1.491c0-0.486-2.217-0.895-4.962-0.895
			C293.733,89.494,291.511,89.902,291.511,90.389z"/>
		<g>
			<path style="fill:none;stroke:#FFFFFF;stroke-width:0.1778;" d="M299.92,97.226c0,0.092,0.083,0.172,0.184,0.172
				c0.108,0,0.183-0.08,0.183-0.172s-0.074-0.164-0.183-0.164C300.003,97.062,299.92,97.134,299.92,97.226z"/>
			<path style="fill:none;stroke:#FFFFFF;stroke-width:0.1778;" d="M296.619,98.423c0,0.092,0.078,0.164,0.184,0.164
				c0.098,0,0.184-0.072,0.184-0.164s-0.086-0.167-0.184-0.167C296.697,98.256,296.619,98.331,296.619,98.423z"/>
			<ellipse style="fill:none;stroke:#FFFFFF;stroke-width:0.1778;" cx="298.412" cy="96.928" rx="0.186" ry="0.167"/>
			<path style="fill:none;stroke:#FFFFFF;stroke-width:0.1778;" d="M295.503,96.197c0,0.089,0.083,0.167,0.186,0.167
				c0.101,0,0.181-0.078,0.181-0.167c0-0.097-0.08-0.166-0.181-0.166C295.586,96.031,295.503,96.101,295.503,96.197z"/>
			<path style="fill:none;stroke:#FFFFFF;stroke-width:0.1778;" d="M300.189,93.97c0,0.094,0.08,0.166,0.178,0.166
				c0.105,0,0.188-0.072,0.188-0.166c0-0.086-0.083-0.167-0.188-0.167C300.27,93.803,300.189,93.884,300.189,93.97z"/>
			<path style="fill:none;stroke:#FFFFFF;stroke-width:0.1778;" d="M295.475,93.642c0,0.089,0.081,0.161,0.184,0.161
				c0.101,0,0.181-0.072,0.181-0.161c0-0.095-0.08-0.169-0.181-0.169C295.556,93.473,295.475,93.547,295.475,93.642z"/>
			<path style="fill:none;stroke:#FFFFFF;stroke-width:0.1778;" d="M298.892,95.03c0,0.095,0.084,0.17,0.181,0.17
				c0.103,0,0.189-0.075,0.189-0.17c0-0.089-0.087-0.161-0.189-0.161C298.976,94.869,298.892,94.941,298.892,95.03z"/>
			<path style="fill:none;stroke:#FFFFFF;stroke-width:0.1778;" d="M297.634,93.175c0,0.092,0.077,0.164,0.181,0.164
				c0.097,0,0.183-0.072,0.183-0.164c0-0.089-0.086-0.167-0.183-0.167C297.711,93.008,297.634,93.086,297.634,93.175z"/>
			<path style="fill:none;stroke:#FFFFFF;stroke-width:0.1778;" d="M296.336,94.833c0,0.095,0.081,0.167,0.181,0.167
				c0.103,0,0.181-0.072,0.181-0.167c0-0.089-0.078-0.163-0.181-0.163C296.417,94.67,296.336,94.744,296.336,94.833z"/>
		</g>
		<path style="fill:none;stroke:#FFFFFF;stroke-width:0.1778;" d="M298.575,103.087c-0.083-0.024-0.178,0.039-0.205,0.137
			c-0.018,0.097,0.035,0.199,0.122,0.216c0.089,0.025,0.178-0.044,0.202-0.136C298.72,103.207,298.667,103.109,298.575,103.087z"/>
		<path style="fill:none;stroke:#FFFFFF;stroke-width:0.1778;" d="M293.341,101.334c-0.088-0.027-0.186,0.036-0.211,0.134
			c-0.021,0.097,0.033,0.2,0.123,0.217c0.088,0.017,0.175-0.042,0.199-0.14C293.475,101.442,293.428,101.351,293.341,101.334z"/>
		<path style="fill:none;stroke:#FFFFFF;stroke-width:0.1778;" d="M292.966,97.834c-0.088-0.02-0.18,0.039-0.197,0.142
			c-0.027,0.095,0.022,0.197,0.114,0.214c0.089,0.022,0.181-0.036,0.206-0.136C293.108,97.956,293.053,97.858,292.966,97.834z"/>
		<path style="fill:none;stroke:#FFFFFF;stroke-width:0.1778;" d="M294.033,99.762c-0.095-0.03-0.181,0.033-0.206,0.131
			c-0.027,0.103,0.031,0.194,0.117,0.222c0.092,0.015,0.186-0.044,0.205-0.142C294.175,99.876,294.125,99.778,294.033,99.762z"/>
		<path style="fill:none;stroke:#FFFFFF;stroke-width:0.1778;" d="M293.155,93.417c-0.089-0.028-0.178,0.041-0.206,0.136
			c-0.024,0.098,0.034,0.194,0.12,0.22c0.086,0.022,0.184-0.042,0.202-0.142C293.291,93.53,293.247,93.437,293.155,93.417z"/>
		<path style="fill:none;stroke:#FFFFFF;stroke-width:0.1778;" d="M296.431,102.37c-0.086-0.022-0.178,0.033-0.197,0.139
			c-0.025,0.09,0.02,0.189,0.111,0.212c0.089,0.021,0.181-0.036,0.202-0.14C296.575,102.49,296.517,102.393,296.431,102.37z"/>
		<path style="fill:none;stroke:#FFFFFF;stroke-width:0.1778;" d="M293.116,95.786c-0.092-0.022-0.178,0.039-0.2,0.139
			c-0.027,0.098,0.022,0.192,0.108,0.214c0.092,0.022,0.184-0.038,0.206-0.136C293.258,95.906,293.205,95.812,293.116,95.786z"/>
		<path style="fill:none;stroke:#FFFFFF;stroke-width:0.1778;" d="M299.814,99.968c-0.092-0.022-0.187,0.038-0.209,0.142
			c-0.024,0.091,0.028,0.194,0.117,0.214c0.092,0.021,0.181-0.042,0.208-0.14C299.953,100.087,299.9,99.989,299.814,99.968z"/>
		<path style="fill:none;stroke:#FFFFFF;stroke-width:0.1778;" d="M295.708,100.854c-0.089-0.017-0.181,0.042-0.205,0.139
			c-0.022,0.103,0.033,0.194,0.119,0.223c0.086,0.017,0.178-0.048,0.206-0.145C295.855,100.973,295.8,100.876,295.708,100.854z"/>
		<path style="fill:none;stroke:#FFFFFF;stroke-width:0.1778;" d="M297.822,100.075c-0.089-0.021-0.187,0.039-0.208,0.137
			c-0.025,0.097,0.03,0.197,0.119,0.22c0.089,0.017,0.178-0.042,0.203-0.145C297.956,100.195,297.908,100.098,297.822,100.075z"/>
		<path style="fill:none;stroke:#FFFFFF;stroke-width:0.1778;" d="M295.444,99.009c-0.092-0.02-0.188,0.042-0.208,0.139
			c-0.02,0.098,0.024,0.2,0.116,0.22c0.092,0.022,0.184-0.042,0.209-0.133C295.583,99.131,295.527,99.034,295.444,99.009z"/>
		<path style="fill:none;stroke:#FFFFFF;stroke-width:0.1778;" d="M300.009,102.284c-0.089-0.027-0.178,0.042-0.206,0.134
			c-0.017,0.097,0.034,0.199,0.117,0.216c0.092,0.022,0.184-0.041,0.208-0.139C300.153,102.398,300.101,102.301,300.009,102.284z"/>
		<path style="fill:none;stroke:#A8CFD5;stroke-width:0.4025;stroke-linecap:round;stroke-linejoin:round;" d="M301.384,85.424
			c0.042,7.474,0.042,11.357,0.042,17.318c0,1.265-2.345,1.265-4.867,1.265c-2.45,0-5.073,0.053-5.073-1.173
			c0-4.878,0-12.56,0.045-17.41"/>
		
			<ellipse style="fill:none;stroke:#A8CFD5;stroke-width:0.4025;stroke-linecap:round;stroke-linejoin:round;" cx="296.457" cy="85.424" rx="4.927" ry="0.931"/>
		<path style="fill:none;stroke:#A8CFD5;stroke-width:0.2683;stroke-linecap:round;stroke-linejoin:round;" d="M301.426,91.086
			c-1.342-0.628-0.858,5.184-0.906,6.059c-0.105,2.192,0.084,4.54,0.092,6.51"/>
		<path style="fill:none;stroke:#A8CFD5;stroke-width:0.2683;stroke-linecap:round;stroke-linejoin:round;" d="M299.617,103.823
			c0-1.614-0.184-3.142-0.184-4.784c0-1.911,0.381-3.739-0.063-5.603c-0.114-0.473-0.342-2.057-1.092-1.989
			c-0.515,0.044-0.837,1.397-0.923,1.809c-0.383,1.994-0.1,4.378,0,6.414c0.072,1.378,0.187,3.072,0.187,4.251"/>
		<path style="fill:none;stroke:#A8CFD5;stroke-width:0.2683;stroke-linecap:round;stroke-linejoin:round;" d="M296.456,103.921
			c0-2.192-0.209-4.293-0.092-6.507c0.1-1.813,0.425-4.103-0.465-5.676c-1.77-0.511-1.344,10.832-1.344,12.183"/>
		<path style="fill:none;stroke:#A8CFD5;stroke-width:0.2683;stroke-linecap:round;stroke-linejoin:round;" d="M292.122,103.654
			c0-1.814-0.048-8.321,0.086-9.951c0.066-0.812,1.039-4.126,1.636-1.89c0.409,1.548,0.137,3.07-0.005,4.606
			c-0.239,2.411-0.259,5.23-0.272,7.403"/>
	</g>
</g>
</svg>
