<?xml version="1.0" encoding="iso-8859-1"?>
<!-- Generator: Adobe Illustrator 13.0.0, SVG Export Plug-In . SVG Version: 6.00 Build 14948)  -->
<!DOCTYPE svg PUBLIC "-//W3C//DTD SVG 1.1//EN" "http://www.w3.org/Graphics/SVG/1.1/DTD/svg11.dtd">
<svg version="1.1" xmlns="http://www.w3.org/2000/svg" xmlns:xlink="http://www.w3.org/1999/xlink" x="0px" y="0px" width="378px"
	 height="140.001px" viewBox="0 0 378 140.001" style="enable-background:new 0 0 378 140.001;" xml:space="preserve">
<g id="Layer_2">
	<rect style="fill:#FFFFFF;" width="378" height="140.001"/>
</g>
<g id="march&#xE9;">
	<path style="fill:#FFFFFF;stroke:#7E7A64;stroke-width:1.192;stroke-linecap:round;stroke-linejoin:round;" d="M205.18,75.171
		c0,1.062,0.857,1.926,1.922,1.926c1.053,0,1.922-0.863,1.922-1.926c0-1.061-0.869-1.922-1.922-1.922
		C206.037,73.249,205.18,74.11,205.18,75.171z"/>
	<path style="fill:none;stroke:#7E7A64;stroke-width:1.774;stroke-linecap:round;stroke-linejoin:round;" d="M198.141,16.97
		c0,5.955,3.691,10.781,8.23,10.781c4.543,0,8.236-4.826,8.236-10.781c0-5.953-3.693-10.779-8.236-10.779
		C201.832,6.191,198.141,11.017,198.141,16.97z"/>
	<path style="fill:none;stroke:#7E7A64;stroke-width:1.774;stroke-linecap:round;stroke-linejoin:round;" d="M206.168,28.179
		c0.039,7.525-1.012,29.776,0.428,36.999c1.291,6.45,1.863,4.496,0.578,13.53c-1.617,11.312,2.016,22.355,2.402,28.078
		c2.006,29.688,2.186,28.945-4.699,28.082"/>
	<g>
		<path style="fill:none;stroke:#7E7A64;stroke-width:1.296;stroke-linecap:round;stroke-linejoin:round;" d="M205.332,32.485
			c-4.046,0.852-8.072,11.262-10.386,12.848c-1.547,1.06-10.491,3.795-13.489,3.958"/>
		<path style="fill:none;stroke:#7E7A64;stroke-width:1.296;stroke-linecap:round;stroke-linejoin:round;" d="M206.506,32.485
			c4.046,0.852,8.072,11.262,10.386,12.848c1.53,1.049,10.299,3.737,13.39,3.952"/>
	</g>
	<g id="table">
		
			<line style="fill:none;stroke:#78B432;stroke-width:2.3989;stroke-linecap:round;stroke-linejoin:round;" x1="321.236" y1="66.067" x2="66.729" y2="66.067"/>
		
			<line style="fill:none;stroke:#78B432;stroke-width:2.3989;stroke-linecap:round;stroke-linejoin:round;" x1="120.835" y1="66.128" x2="120.835" y2="133.12"/>
		
			<line style="fill:none;stroke:#78B432;stroke-width:2.3989;stroke-linecap:round;stroke-linejoin:round;" x1="265.727" y1="66.128" x2="265.727" y2="133.12"/>
	</g>
	<g>
		<path style="fill:none;stroke:#7E7A64;stroke-width:1.1228;stroke-linecap:round;stroke-linejoin:round;" d="M187.509,6.397
			c-3.199-6.648,9.191-5.504,5.537,0.5c-2.02,3.319-4.203,3.751-3.564,8.481"/>
		<path style="fill:none;stroke:#7E7A64;stroke-width:1.1228;stroke-linecap:round;stroke-linejoin:round;" d="M189.556,17.951
			l-0.26,0.94c0,0,0.525-0.906,0.178-0.845"/>
	</g>
</g>
<g id="Layer_7">
	<path style="display:none;fill:none;stroke:#7E7A64;stroke-width:0.8;stroke-linecap:round;stroke-linejoin:round;" d="
		M227.826,48.588c1.399-0.097,4.324-2.752,4.856-2.725c0.807,0.479-1.446,1.904-0.408,1.583c0.486-0.15,3.42-0.033,3.42,0.406
		c0.113,0.312-0.355,0.619-0.355,0.619s0.971,0.173,0.971,0.6c0,0.398-0.67,0.261-0.67,0.261s0.637,0.406,0.637,0.721
		c0,0.091-0.841,0.079-0.841,0.079s0.407,0.241,0.091,0.557c-1.601-0.059-6.995-1.811-8.016-2.102H227.826z"/>
	<path style="display:none;fill:none;stroke:#7E7A64;stroke-width:0.8;stroke-linecap:round;stroke-linejoin:round;" d="
		M184.034,48.588c-1.399-0.097-4.324-2.752-4.856-2.725c-0.807,0.479,1.446,1.904,0.408,1.583c-0.486-0.15-3.42-0.033-3.42,0.406
		c-0.113,0.312,0.355,0.619,0.355,0.619s-0.971,0.173-0.971,0.6c0,0.398,0.67,0.261,0.67,0.261s-0.637,0.406-0.637,0.721
		c0,0.091,0.841,0.079,0.841,0.079s-0.407,0.241-0.091,0.557c1.601-0.059,6.995-1.811,8.016-2.102H184.034z"/>
</g>
<g id="fruits_et_legumes">
	<g>
		<path style="fill:#DE001B;stroke:#C8081D;stroke-width:0.1032;stroke-linejoin:round;" d="M146.447,62.213
			c0.412-0.004,0.898-0.601,0.841-1.033c-0.059-0.441-0.633-0.704-1.036-0.784c0.396,0.08-0.127-1.325-0.469-1.493
			c-0.632-0.313-1.59-0.102-2.25,0.004c-0.892,0.141-1.779,0.208-2.682,0.309c-0.519,0.058-1.474,0.024-1.9,0.379
			c-0.438,0.364-0.382,0.938,0.111,1.165c-1.213-0.085-1.19,1.738-0.335,2.261c-0.631,0.135-1.153,0.583-0.513,1.208
			c0.623,0.607,1.939,0.575,2.747,0.685c0.982,0.133,3.265-0.017,3.65,0.035c0.623,0.084,1.91,0.643,1.281-1.194
			c1.428,0.858,1.454-1.811,0.568-1.477"/>
		<path style="fill:#04762C;stroke:#04762C;stroke-width:0.2675;" d="M145.614,61.783c0.066-0.079,0.119-0.25,0.164-0.346
			c-0.153-0.123-0.291-0.135-0.479-0.067c-0.015,0.339-0.319,0.468-0.263,0.784c0.029,0.166,0.349,0.403,0.457,0.514
			c0.172-0.16,0.312-0.312,0.514-0.451c-0.098-0.26-0.221-0.607-0.163-0.722"/>
		<path style="fill:#04762C;" d="M145.534,61.899c0.645,0.319,1.355,0.142,1.811-0.395c-0.025-0.058-0.06-0.135-0.087-0.19
			c-0.367,0.131-0.946,0.556-1.76,0.39"/>
		<path style="fill:none;stroke:#C8081D;stroke-width:0.1032;stroke-linecap:round;stroke-linejoin:round;" d="M138.974,60.757
			c0.664,0.02,1.393-0.104,2.042-0.277c4.753-1.262,4.308-0.305,3.975,0.351"/>
		<path style="fill:none;stroke:#C8081D;stroke-width:0.1032;stroke-linejoin:round;" d="M138.698,63.068
			c0.75,0.168,1.609-0.117,2.365-0.145c0.523-0.02,1.041-0.105,1.564-0.142c0.596-0.041,1.968,0.203,2.047-0.382"/>
	</g>
	<g>
		<path style="fill:#DE001B;stroke:#C8081D;stroke-width:0.1032;stroke-linejoin:round;" d="M130.077,61.821
			c-0.409,0.058-0.813,0.714-0.7,1.133c0.116,0.43,0.719,0.616,1.129,0.643c-0.402-0.027,0.298,1.298,0.658,1.421
			c0.667,0.228,1.59-0.107,2.23-0.297c0.866-0.255,1.738-0.437,2.619-0.654c0.506-0.124,1.458-0.215,1.835-0.622
			c0.388-0.419,0.258-0.979-0.261-1.141c1.213-0.073,0.955-1.878,0.039-2.285c0.608-0.215,1.068-0.729,0.352-1.265
			c-0.696-0.521-1.998-0.318-2.812-0.322c-0.992-0.004-3.234,0.44-3.625,0.438c-0.629-0.002-1.978-0.391-1.115,1.351
			c-1.527-0.666-1.208,1.982-0.373,1.537"/>
		<path style="fill:#04762C;stroke:#04762C;stroke-width:0.2675;" d="M130.959,62.14c-0.056,0.086-0.086,0.265-0.118,0.364
			c0.168,0.102,0.306,0.097,0.484,0.004c-0.03-0.339,0.256-0.505,0.159-0.812c-0.051-0.161-0.398-0.354-0.521-0.451
			c-0.149,0.181-0.269,0.35-0.451,0.513c0.13,0.245,0.297,0.575,0.256,0.695"/>
		<path style="fill:#04762C;" d="M131.022,62.013c-0.679-0.232-1.362,0.036-1.744,0.627c0.033,0.053,0.077,0.126,0.111,0.177
			c0.347-0.178,0.866-0.674,1.694-0.615"/>
		<path style="fill:none;stroke:#C8081D;stroke-width:0.1032;stroke-linecap:round;stroke-linejoin:round;" d="M137.676,62.295
			c-0.661,0.068-1.367,0.285-1.989,0.541c-4.549,1.867-4.232,0.859-3.986,0.167"/>
		<path style="fill:none;stroke:#C8081D;stroke-width:0.1032;stroke-linejoin:round;" d="M137.649,59.968
			c-0.765-0.069-1.58,0.326-2.326,0.451c-0.517,0.087-1.019,0.239-1.533,0.343c-0.585,0.119-1.978,0.054-1.98,0.644"/>
	</g>
	<g>
		<path style="fill:#DE001B;stroke:#C8081D;stroke-width:0.1032;stroke-linejoin:round;" d="M135.927,56.691
			c-0.412-0.004-0.898-0.601-0.841-1.033c0.059-0.441,0.633-0.704,1.036-0.784c-0.396,0.08,0.127-1.325,0.469-1.493
			c0.632-0.313,1.59-0.102,2.25,0.004c0.892,0.141,1.779,0.208,2.682,0.309c0.519,0.058,1.474,0.024,1.9,0.379
			c0.438,0.364,0.382,0.938-0.111,1.165c1.213-0.085,1.19,1.738,0.335,2.261c0.631,0.135,1.153,0.583,0.513,1.208
			c-0.623,0.607-1.939,0.575-2.747,0.685c-0.982,0.133-3.265-0.017-3.65,0.035c-0.623,0.084-1.91,0.643-1.281-1.194
			c-1.428,0.858-1.454-1.811-0.568-1.477"/>
		<path style="fill:#04762C;stroke:#04762C;stroke-width:0.2675;" d="M136.76,56.261c-0.066-0.079-0.119-0.25-0.164-0.346
			c0.153-0.123,0.291-0.135,0.479-0.067c0.015,0.339,0.319,0.468,0.263,0.784c-0.029,0.166-0.349,0.403-0.457,0.514
			c-0.172-0.16-0.312-0.312-0.514-0.451c0.098-0.26,0.221-0.607,0.163-0.722"/>
		<path style="fill:#04762C;" d="M136.84,56.377c-0.645,0.319-1.355,0.142-1.811-0.395c0.025-0.058,0.06-0.135,0.087-0.19
			c0.367,0.131,0.946,0.556,1.76,0.39"/>
		<path style="fill:none;stroke:#C8081D;stroke-width:0.1032;stroke-linecap:round;stroke-linejoin:round;" d="M143.4,55.235
			c-0.664,0.02-1.393-0.104-2.042-0.277c-4.753-1.262-4.308-0.305-3.975,0.351"/>
		<path style="fill:none;stroke:#C8081D;stroke-width:0.1032;stroke-linejoin:round;" d="M143.676,57.546
			c-0.75,0.168-1.609-0.117-2.365-0.145c-0.523-0.02-1.041-0.105-1.564-0.142c-0.596-0.041-1.968,0.203-2.047-0.382"/>
	</g>
	<g>
		<path style="fill:#DE001B;stroke:#C8081D;stroke-width:0.1032;stroke-linejoin:round;" d="M151.823,56.773
			c0.409,0.058,0.813,0.714,0.7,1.133c-0.116,0.43-0.719,0.616-1.129,0.643c0.402-0.027-0.298,1.298-0.658,1.421
			c-0.667,0.228-1.59-0.107-2.23-0.297c-0.866-0.255-1.738-0.437-2.619-0.654c-0.506-0.124-1.458-0.215-1.835-0.622
			c-0.388-0.419-0.258-0.979,0.261-1.141c-1.213-0.073-0.955-1.878-0.039-2.285c-0.608-0.215-1.068-0.729-0.352-1.265
			c0.696-0.521,1.998-0.318,2.812-0.322c0.992-0.004,3.234,0.44,3.625,0.438c0.629-0.002,1.978-0.391,1.115,1.351
			c1.527-0.666,1.208,1.982,0.373,1.537"/>
		<path style="fill:#04762C;stroke:#04762C;stroke-width:0.2675;" d="M150.941,57.092c0.056,0.086,0.086,0.265,0.118,0.364
			c-0.168,0.102-0.306,0.097-0.484,0.004c0.03-0.339-0.256-0.505-0.159-0.812c0.051-0.161,0.398-0.354,0.521-0.451
			c0.149,0.181,0.269,0.35,0.451,0.513c-0.13,0.245-0.297,0.575-0.256,0.695"/>
		<path style="fill:#04762C;" d="M150.877,56.965c0.679-0.232,1.362,0.036,1.744,0.627c-0.033,0.053-0.077,0.126-0.111,0.177
			c-0.347-0.178-0.866-0.674-1.694-0.615"/>
		<path style="fill:none;stroke:#C8081D;stroke-width:0.1032;stroke-linecap:round;stroke-linejoin:round;" d="M144.224,57.248
			c0.661,0.068,1.367,0.285,1.989,0.541c4.549,1.867,4.232,0.859,3.986,0.167"/>
		<path style="fill:none;stroke:#C8081D;stroke-width:0.1032;stroke-linejoin:round;" d="M144.25,54.92
			c0.765-0.069,1.58,0.326,2.326,0.451c0.517,0.087,1.019,0.239,1.533,0.343c0.585,0.119,1.978,0.054,1.98,0.644"/>
	</g>
	<g>
		<path style="fill:#DE001B;stroke:#C8081D;stroke-width:0.1032;stroke-linejoin:round;" d="M147.821,61.797
			c-0.41,0.052-0.823,0.702-0.717,1.123c0.109,0.432,0.709,0.626,1.119,0.659c-0.402-0.033,0.279,1.303,0.637,1.431
			c0.664,0.238,1.591-0.083,2.234-0.264c0.87-0.242,1.744-0.411,2.628-0.615c0.509-0.117,1.462-0.194,1.844-0.595
			c0.394-0.414,0.272-0.976-0.244-1.145c1.214-0.055,0.982-1.863,0.072-2.284c0.611-0.206,1.079-0.712,0.37-1.26
			c-0.688-0.531-1.993-0.347-2.807-0.363c-0.991-0.019-3.24,0.392-3.63,0.385c-0.629-0.012-1.972-0.419-1.135,1.333
			c-1.517-0.688-1.236,1.965-0.395,1.531"/>
		<path style="fill:#04762C;stroke:#04762C;stroke-width:0.2675;" d="M148.698,62.129c-0.057,0.085-0.089,0.263-0.124,0.362
			c0.167,0.104,0.305,0.102,0.484,0.012c-0.024-0.339,0.263-0.501,0.171-0.809c-0.049-0.162-0.394-0.361-0.514-0.458
			c-0.152,0.179-0.274,0.345-0.459,0.506c0.126,0.247,0.289,0.579,0.246,0.699"/>
		<path style="fill:#04762C;" d="M148.763,62.004c-0.676-0.242-1.362,0.016-1.752,0.601c0.032,0.053,0.075,0.127,0.108,0.178
			c0.349-0.173,0.876-0.661,1.704-0.589"/>
		<path style="fill:none;stroke:#C8081D;stroke-width:0.1032;stroke-linecap:round;stroke-linejoin:round;" d="M155.412,62.384
			c-0.662,0.058-1.371,0.265-1.997,0.512c-4.576,1.799-4.244,0.797-3.988,0.107"/>
		<path style="fill:none;stroke:#C8081D;stroke-width:0.1032;stroke-linejoin:round;" d="M155.42,60.057
			c-0.764-0.081-1.585,0.302-2.333,0.417c-0.518,0.08-1.022,0.225-1.538,0.32c-0.587,0.11-1.978,0.024-1.989,0.615"/>
	</g>
	<g>
		<path style="fill:#DE001B;stroke:#C8081D;stroke-width:0.1032;stroke-linejoin:round;" d="M139.822,50.865
			c-0.41,0.052-0.823,0.702-0.717,1.123c0.109,0.432,0.709,0.626,1.119,0.659c-0.402-0.033,0.279,1.303,0.637,1.431
			c0.664,0.238,1.591-0.083,2.234-0.264c0.87-0.242,1.744-0.411,2.628-0.615c0.509-0.117,1.462-0.194,1.844-0.595
			c0.394-0.414,0.272-0.976-0.244-1.145c1.214-0.055,0.982-1.863,0.072-2.284c0.611-0.206,1.079-0.712,0.37-1.26
			c-0.688-0.531-1.993-0.347-2.807-0.363c-0.991-0.019-3.24,0.392-3.63,0.385c-0.629-0.012-1.972-0.419-1.135,1.333
			c-1.517-0.688-1.236,1.965-0.395,1.531"/>
		<path style="fill:#04762C;stroke:#04762C;stroke-width:0.2675;" d="M140.699,51.197c-0.057,0.085-0.089,0.263-0.124,0.362
			c0.167,0.104,0.305,0.102,0.484,0.012c-0.024-0.339,0.263-0.501,0.171-0.809c-0.049-0.162-0.394-0.361-0.514-0.458
			c-0.152,0.179-0.274,0.345-0.459,0.506c0.126,0.247,0.289,0.579,0.246,0.699"/>
		<path style="fill:#04762C;" d="M140.764,51.071c-0.676-0.242-1.362,0.016-1.752,0.601c0.032,0.053,0.075,0.127,0.108,0.178
			c0.349-0.173,0.876-0.661,1.704-0.589"/>
		<path style="fill:none;stroke:#C8081D;stroke-width:0.1032;stroke-linecap:round;stroke-linejoin:round;" d="M147.413,51.452
			c-0.662,0.058-1.371,0.265-1.997,0.512c-4.576,1.799-4.244,0.797-3.988,0.107"/>
		<path style="fill:none;stroke:#C8081D;stroke-width:0.1032;stroke-linejoin:round;" d="M147.421,49.124
			c-0.764-0.081-1.585,0.302-2.333,0.417c-0.518,0.08-1.022,0.225-1.538,0.32c-0.587,0.11-1.978,0.024-1.989,0.615"/>
	</g>
	<g>
		<g>
			<path style="fill:#188C2E;stroke:#7FB61B;stroke-width:0.2021;" d="M200.678,64.265c-0.219-0.079-9.966-0.91-10.17-0.973
				c-0.31,0.35-0.322,1.619-0.232,2.098c0.732,0.008,9.322-0.355,10.006-0.24"/>
			<path style="fill:#188C2E;stroke:#7FB61B;stroke-width:0.2021;" d="M202.523,62.465c-0.26-0.01,0.023,2.659-0.236,2.67
				c-1.891,0.079-4.557,0.652-6.426,0.88c-1.818,0.222-3.963,0.726-5.781,0.523c0.012-0.423-0.175-0.854,0.001-1.259
				c0.363,0.007,0.702-0.115,1.062-0.149c1.496-0.141,5.984-0.256,7.482-0.459"/>
			<path style="fill:#188C2E;stroke:#7FB61B;stroke-width:0.2021;" d="M201.051,63.393c-1.074-0.057-3.02-0.459-4.109-0.61
				c-0.807-0.112-1.832-0.34-2.613-0.341c-0.838,0-1.609-0.244-2.424-0.421c-0.592-0.129-1.097-0.089-1.291-0.587
				c-0.153-0.386-0.016-1.191,0.01-1.61c0.454-0.036,0.854,0.249,1.273,0.394c0.906,0.314,1.844,0.516,2.758,0.812
				c1.92,0.624,3.73,1.046,5.74,1.231c0.709,0.064,1.418,0.137,2.129,0.204"/>
			<path style="fill:#188C2E;stroke:#7FB61B;stroke-width:0.2021;" d="M201.051,63.393c-0.051,0.066-9.972-1.665-10.014-1.552
				c-0.124,0.34-0.287,1.789-0.271,2.022c0.666-0.032,8.344,0.783,9.883,0.592"/>
			<path style="fill:#E6EFCD;stroke:#188C2E;stroke-width:0.2021;" d="M202.348,62.448c1.658,0.156,3.494,0.296,5.168,0.211
				c1.537-0.078,4.008-0.973,4.109,0.878c0.066,1.232-0.1,2.222-1.217,2.222c-0.414,0-1.627-0.214-1.992-0.339
				c-0.516-0.177-2.814-0.294-3.451-0.29c-1.717,0.015-2.738,0.021-2.791,0.019"/>
		</g>
		<g>
			<path style="fill:#188C2E;stroke:#7FB61B;stroke-width:0.2021;" d="M205.877,62.242c0.203-0.109,9.729-2.336,9.922-2.428
				c0.355,0.301,0.551,1.555,0.531,2.042c-0.723,0.113-9.275,0.992-9.934,1.205"/>
			<path style="fill:#188C2E;stroke:#7FB61B;stroke-width:0.2021;" d="M203.789,60.728c0.256-0.047,0.361,2.635,0.619,2.608
				c1.883-0.194,4.604-0.012,6.484-0.056c1.832-0.043,4.025,0.147,5.799-0.315c-0.074-0.417,0.049-0.871-0.184-1.246
				c-0.359,0.059-0.713-0.013-1.074,0.005c-1.5,0.076-5.957,0.609-7.467,0.624"/>
			<path style="fill:#188C2E;stroke:#7FB61B;stroke-width:0.2021;" d="M205.381,61.433c1.055-0.211,2.922-0.89,3.979-1.196
				c0.783-0.227,1.764-0.601,2.537-0.714c0.828-0.122,1.559-0.474,2.338-0.766c0.566-0.213,1.072-0.247,1.193-0.768
				c0.094-0.404-0.158-1.181-0.242-1.591c-0.457,0.03-0.811,0.369-1.203,0.573c-0.854,0.44-1.752,0.776-2.611,1.201
				c-1.811,0.895-3.541,1.574-5.504,2.046c-0.693,0.166-1.385,0.341-2.078,0.509"/>
			<path style="fill:#188C2E;stroke:#7FB61B;stroke-width:0.2021;" d="M205.381,61.433c0.059,0.058,9.627-3.085,9.684-2.979
				c0.172,0.317,0.543,1.728,0.562,1.961c-0.664,0.064-8.145,1.978-9.695,2.011"/>
			<path style="fill:#E6EFCD;stroke:#188C2E;stroke-width:0.2021;" d="M203.961,60.686c-1.619,0.394-3.414,0.796-5.084,0.954
				c-1.533,0.145-4.105-0.385-3.939,1.461c0.111,1.23,0.418,2.185,1.525,2.023c0.408-0.06,1.578-0.445,1.922-0.622
				c0.484-0.25,2.742-0.697,3.373-0.784c1.701-0.234,2.713-0.375,2.766-0.384"/>
		</g>
		<g>
			<path style="fill:#188C2E;stroke:#7FB61B;stroke-width:0.2021;" d="M201.309,60.107c-0.205-0.109-9.73-2.335-9.924-2.428
				c-0.355,0.301-0.551,1.555-0.531,2.042c0.723,0.113,9.275,0.992,9.936,1.205"/>
			<path style="fill:#188C2E;stroke:#7FB61B;stroke-width:0.2021;" d="M203.395,58.592c-0.256-0.047-0.359,2.635-0.617,2.608
				c-1.883-0.194-4.605-0.011-6.486-0.056c-1.832-0.042-4.025,0.147-5.797-0.315c0.074-0.417-0.05-0.871,0.184-1.246
				c0.357,0.059,0.711-0.013,1.072,0.005c1.5,0.076,5.957,0.609,7.469,0.624"/>
			<path style="fill:#188C2E;stroke:#7FB61B;stroke-width:0.2021;" d="M201.803,59.298c-1.053-0.211-2.922-0.89-3.977-1.195
				c-0.783-0.227-1.764-0.601-2.537-0.714c-0.828-0.121-1.559-0.474-2.338-0.766c-0.568-0.213-1.072-0.246-1.193-0.768
				c-0.096-0.404,0.158-1.181,0.242-1.591c0.455,0.03,0.811,0.369,1.203,0.573c0.852,0.441,1.752,0.776,2.611,1.201
				c1.811,0.895,3.541,1.573,5.504,2.045c0.691,0.167,1.383,0.341,2.076,0.509"/>
			<path style="fill:#188C2E;stroke:#7FB61B;stroke-width:0.2021;" d="M201.803,59.298c-0.057,0.058-9.625-3.084-9.684-2.979
				c-0.17,0.318-0.541,1.728-0.562,1.962c0.666,0.064,8.145,1.978,9.697,2.011"/>
			<path style="fill:#E6EFCD;stroke:#188C2E;stroke-width:0.2021;" d="M203.223,58.55c1.619,0.394,3.416,0.796,5.086,0.954
				c1.531,0.145,4.105-0.386,3.939,1.461c-0.113,1.229-0.42,2.185-1.525,2.022c-0.41-0.06-1.578-0.444-1.924-0.622
				c-0.482-0.25-2.742-0.696-3.371-0.784c-1.703-0.233-2.713-0.375-2.766-0.384"/>
		</g>
		<g>
			<path style="fill:#188C2E;stroke:#7FB61B;stroke-width:0.2021;" d="M201.309,60.107c-0.205-0.109-9.73-2.335-9.924-2.428
				c-0.355,0.301-0.551,1.555-0.531,2.042c0.723,0.113,9.275,0.992,9.936,1.205"/>
			<path style="fill:#188C2E;stroke:#7FB61B;stroke-width:0.2021;" d="M203.395,58.592c-0.256-0.047-0.359,2.635-0.617,2.608
				c-1.883-0.194-4.605-0.011-6.486-0.056c-1.832-0.042-4.025,0.147-5.797-0.315c0.074-0.417-0.05-0.871,0.184-1.246
				c0.357,0.059,0.711-0.013,1.072,0.005c1.5,0.076,5.957,0.609,7.469,0.624"/>
			<path style="fill:#188C2E;stroke:#7FB61B;stroke-width:0.2021;" d="M201.803,59.298c-1.053-0.211-2.922-0.89-3.977-1.195
				c-0.783-0.227-1.764-0.601-2.537-0.714c-0.828-0.121-1.559-0.474-2.338-0.766c-0.568-0.213-1.072-0.246-1.193-0.768
				c-0.096-0.404,0.158-1.181,0.242-1.591c0.455,0.03,0.811,0.369,1.203,0.573c0.852,0.441,1.752,0.776,2.611,1.201
				c1.811,0.895,3.541,1.573,5.504,2.045c0.691,0.167,1.383,0.341,2.076,0.509"/>
			<path style="fill:#188C2E;stroke:#7FB61B;stroke-width:0.2021;" d="M201.803,59.298c-0.057,0.058-9.625-3.084-9.684-2.979
				c-0.17,0.318-0.541,1.728-0.562,1.962c0.666,0.064,8.145,1.978,9.697,2.011"/>
			<path style="fill:#E6EFCD;stroke:#188C2E;stroke-width:0.2021;" d="M203.223,58.55c1.619,0.394,3.416,0.796,5.086,0.954
				c1.531,0.145,4.105-0.386,3.939,1.461c-0.113,1.229-0.42,2.185-1.525,2.022c-0.41-0.06-1.578-0.444-1.924-0.622
				c-0.482-0.25-2.742-0.696-3.371-0.784c-1.703-0.233-2.713-0.375-2.766-0.384"/>
		</g>
		<g>
			<path style="fill:#188C2E;stroke:#7FB61B;stroke-width:0.2021;" d="M204.189,58.186c0.205-0.109,9.73-2.335,9.924-2.428
				c0.355,0.301,0.551,1.555,0.531,2.042c-0.723,0.113-9.275,0.992-9.936,1.205"/>
			<path style="fill:#188C2E;stroke:#7FB61B;stroke-width:0.2021;" d="M202.104,56.671c0.256-0.047,0.359,2.635,0.617,2.608
				c1.883-0.194,4.605-0.011,6.486-0.056c1.832-0.042,4.025,0.147,5.797-0.315c-0.074-0.417,0.049-0.871-0.184-1.246
				c-0.357,0.059-0.711-0.013-1.072,0.005c-1.5,0.076-5.957,0.609-7.469,0.624"/>
			<path style="fill:#188C2E;stroke:#7FB61B;stroke-width:0.2021;" d="M203.695,57.377c1.053-0.211,2.922-0.89,3.977-1.195
				c0.783-0.227,1.764-0.601,2.537-0.714c0.828-0.121,1.559-0.474,2.338-0.766c0.568-0.213,1.072-0.246,1.193-0.768
				c0.096-0.404-0.158-1.181-0.242-1.591c-0.455,0.03-0.811,0.369-1.203,0.573c-0.852,0.441-1.752,0.776-2.611,1.201
				c-1.811,0.895-3.541,1.573-5.504,2.045c-0.691,0.167-1.383,0.341-2.076,0.509"/>
			<path style="fill:#188C2E;stroke:#7FB61B;stroke-width:0.2021;" d="M203.695,57.377c0.057,0.058,9.625-3.084,9.684-2.979
				c0.17,0.318,0.541,1.728,0.562,1.962c-0.666,0.064-8.145,1.978-9.697,2.011"/>
			<path style="fill:#E6EFCD;stroke:#188C2E;stroke-width:0.2021;" d="M202.275,56.629c-1.619,0.394-3.416,0.796-5.086,0.954
				c-1.531,0.145-4.105-0.386-3.939,1.461c0.113,1.229,0.42,2.185,1.525,2.022c0.41-0.06,1.578-0.444,1.924-0.622
				c0.482-0.25,2.742-0.696,3.371-0.784c1.703-0.233,2.713-0.375,2.766-0.384"/>
		</g>
	</g>
	<g>
		<path style="fill:#188C2E;stroke:#188C2E;stroke-width:0.3449;stroke-linecap:round;stroke-linejoin:round;" d="M103.641,56.878
			c-0.374,0.031-0.744,0.072-1.159,0.123c-1.048,0.127-1.843-0.208-2.32-1.223c0.575,1.16,2.479,2.925,3.497,3.463"/>
		<path style="fill:#4A3188;stroke:#4A3188;stroke-width:0.3449;stroke-linejoin:round;" d="M103.659,59.241
			c1.244,0.53,2.562,0.506,3.807,0.819c1.865,0.47,3.82,1.371,5.866,0.59c1.455-0.557,3.891-2.452,2.55-4.119
			c-1.167-1.451-3.891-2.401-5.729-1.875c-1.896,0.542-2.846,2.164-5.078,2.162c-0.532,0-0.983,0.022-1.433,0.059"/>
	</g>
	<g>
		<path style="fill:#188C2E;stroke:#188C2E;stroke-width:0.3449;stroke-linecap:round;stroke-linejoin:round;" d="M100.445,61.544
			c-0.374,0.031-0.744,0.072-1.159,0.123c-1.048,0.127-1.843-0.208-2.32-1.223c0.575,1.16,2.479,2.925,3.497,3.463"/>
		<path style="fill:#4A3188;stroke:#4A3188;stroke-width:0.3449;stroke-linejoin:round;" d="M100.463,63.907
			c1.244,0.53,2.562,0.506,3.807,0.819c1.865,0.47,3.82,1.371,5.866,0.59c1.455-0.557,3.891-2.452,2.55-4.119
			c-1.167-1.451-3.891-2.401-5.729-1.875c-1.896,0.542-2.846,2.164-5.078,2.162c-0.532,0-0.983,0.022-1.433,0.059"/>
	</g>
	<g>
		<path style="fill:#188C2E;stroke:#188C2E;stroke-width:0.3449;stroke-linecap:round;stroke-linejoin:round;" d="M108.465,61.544
			c-0.374,0.031-0.744,0.072-1.159,0.123c-1.048,0.127-1.843-0.208-2.32-1.223c0.575,1.16,2.479,2.925,3.497,3.463"/>
		<path style="fill:#4A3188;stroke:#4A3188;stroke-width:0.3449;stroke-linejoin:round;" d="M108.482,63.907
			c1.244,0.53,2.562,0.506,3.807,0.819c1.865,0.47,3.82,1.371,5.866,0.59c1.455-0.557,3.891-2.452,2.55-4.119
			c-1.167-1.451-3.891-2.401-5.729-1.875c-1.896,0.542-2.846,2.164-5.078,2.162c-0.532,0-0.983,0.022-1.433,0.059"/>
	</g>
	<g>
		<path style="fill:#188C2E;stroke:#188C2E;stroke-width:0.3449;stroke-linecap:round;stroke-linejoin:round;" d="M115.239,61.088
			c-0.374,0.031-0.744,0.072-1.159,0.123c-1.048,0.127-1.843-0.208-2.32-1.223c0.575,1.16,2.479,2.925,3.497,3.463"/>
		<path style="fill:#4A3188;stroke:#4A3188;stroke-width:0.3449;stroke-linejoin:round;" d="M115.256,63.451
			c1.244,0.53,2.562,0.506,3.807,0.819c1.865,0.47,3.82,1.371,5.866,0.59c1.455-0.557,3.891-2.452,2.55-4.119
			c-1.167-1.451-3.891-2.401-5.729-1.875c-1.896,0.542-2.846,2.164-5.078,2.162c-0.532,0-0.983,0.022-1.433,0.059"/>
	</g>
	<g>
		<path style="fill:#188C2E;stroke:#188C2E;stroke-width:0.3449;stroke-linecap:round;stroke-linejoin:round;" d="M112.211,56.878
			c-0.374,0.031-0.744,0.072-1.159,0.123c-1.048,0.127-1.843-0.208-2.32-1.223c0.575,1.16,2.479,2.925,3.497,3.463"/>
		<path style="fill:#4A3188;stroke:#4A3188;stroke-width:0.3449;stroke-linejoin:round;" d="M112.229,59.241
			c1.244,0.53,2.562,0.506,3.807,0.819c1.865,0.47,3.82,1.371,5.866,0.59c1.455-0.557,3.891-2.452,2.55-4.119
			c-1.167-1.451-3.891-2.401-5.729-1.875c-1.896,0.542-2.846,2.164-5.078,2.162c-0.532,0-0.983,0.022-1.433,0.059"/>
	</g>
	<g>
		<path style="fill:#188C2E;stroke:#188C2E;stroke-width:0.3449;stroke-linecap:round;stroke-linejoin:round;" d="M108.277,52.944
			c-0.374,0.031-0.744,0.072-1.159,0.123c-1.048,0.127-1.843-0.208-2.32-1.223c0.575,1.16,2.479,2.925,3.497,3.463"/>
		<path style="fill:#4A3188;stroke:#4A3188;stroke-width:0.3449;stroke-linejoin:round;" d="M108.294,55.307
			c1.244,0.53,2.562,0.506,3.807,0.819c1.865,0.47,3.82,1.371,5.866,0.59c1.455-0.557,3.891-2.452,2.55-4.119
			c-1.167-1.451-3.891-2.401-5.729-1.875c-1.896,0.542-2.846,2.164-5.078,2.162c-0.532,0-0.983,0.022-1.433,0.059"/>
	</g>
	<g>
		<g>
			<path style="fill:#DE001B;stroke:#E2031A;stroke-width:0.2565;stroke-linejoin:round;" d="M225.96,52.44
				c-1.488-1.278-3.738,0.215-3.139,2.333c0.425,1.501,1.292,2.581,4.186,2.581c1.854,0,3.643-1.563,3.143-3.555
				c-0.383-1.521-3.177-2.479-4.397-1.673"/>
			<path style="fill:#04762C;stroke:#04762C;stroke-width:0.342;" d="M225.543,52.126c0.12-0.485,0.552-0.995,0.146-1.479
				c0.122,0.409,0.038,0.83-0.047,1.233c0.258-0.28,0.588-0.485,0.952-0.606c0.173,0.141,0.471,0.428,0.591,0.627
				c-0.509-0.109-1.106-0.102-1.529,0.103c0.598-0.217,1.062,0.516,0.938,0.979c-0.517-0.53-1.113-1.451-1.792-0.481
				c0.225-0.234,0.431-0.543,0.628-0.771c-0.441-0.071-0.831-0.094-1.15-0.4c0.336,0.363,0.869,0.506,1.265,0.586"/>
		</g>
		<g>
			<path style="fill:#DE001B;stroke:#E2031A;stroke-width:0.2565;stroke-linejoin:round;" d="M223.884,55.663
				c-1.488-1.278-3.738,0.215-3.139,2.333c0.425,1.501,1.292,2.581,4.186,2.581c1.854,0,3.643-1.563,3.143-3.555
				c-0.383-1.521-3.177-2.479-4.397-1.673"/>
			<path style="fill:#04762C;stroke:#04762C;stroke-width:0.342;" d="M223.467,55.349c0.12-0.485,0.552-0.995,0.146-1.479
				c0.122,0.409,0.038,0.83-0.047,1.233c0.258-0.28,0.588-0.485,0.952-0.606c0.173,0.141,0.471,0.428,0.591,0.627
				c-0.509-0.109-1.106-0.102-1.529,0.103c0.598-0.217,1.062,0.516,0.938,0.979c-0.517-0.53-1.113-1.451-1.792-0.481
				c0.225-0.234,0.431-0.543,0.628-0.771c-0.441-0.071-0.831-0.094-1.15-0.4c0.336,0.363,0.869,0.506,1.265,0.586"/>
		</g>
		<g>
			<path style="fill:#DE001B;stroke:#E2031A;stroke-width:0.2565;stroke-linejoin:round;" d="M228.697,56.319
				c-1.488-1.278-3.738,0.215-3.139,2.333c0.425,1.501,1.292,2.581,4.186,2.581c1.854,0,3.643-1.563,3.143-3.555
				c-0.383-1.521-3.177-2.479-4.397-1.673"/>
			<path style="fill:#04762C;stroke:#04762C;stroke-width:0.342;" d="M228.28,56.006c0.12-0.485,0.552-0.995,0.146-1.479
				c0.122,0.409,0.038,0.83-0.047,1.233c0.258-0.28,0.588-0.485,0.952-0.606c0.173,0.141,0.471,0.428,0.591,0.627
				c-0.509-0.109-1.106-0.102-1.529,0.103c0.598-0.217,1.062,0.516,0.938,0.979c-0.517-0.53-1.113-1.451-1.792-0.481
				c0.225-0.234,0.431-0.543,0.628-0.771c-0.441-0.071-0.831-0.094-1.15-0.4c0.336,0.363,0.869,0.506,1.265,0.586"/>
		</g>
		<g>
			<path style="fill:#DE001B;stroke:#E2031A;stroke-width:0.2565;stroke-linejoin:round;" d="M226.697,60.252
				c-1.488-1.278-3.738,0.215-3.139,2.333c0.425,1.501,1.292,2.581,4.186,2.581c1.854,0,3.643-1.563,3.143-3.555
				c-0.383-1.521-3.177-2.479-4.397-1.673"/>
			<path style="fill:#04762C;stroke:#04762C;stroke-width:0.342;" d="M226.28,59.938c0.12-0.485,0.552-0.995,0.146-1.479
				c0.122,0.409,0.038,0.83-0.047,1.233c0.258-0.28,0.588-0.485,0.952-0.606c0.173,0.141,0.471,0.428,0.591,0.627
				c-0.509-0.109-1.106-0.102-1.529,0.103c0.598-0.217,1.062,0.516,0.938,0.979c-0.517-0.53-1.113-1.451-1.792-0.481
				c0.225-0.234,0.431-0.543,0.628-0.771c-0.441-0.071-0.831-0.094-1.15-0.4c0.336,0.363,0.869,0.506,1.265,0.586"/>
		</g>
		<g>
			<path style="fill:#DE001B;stroke:#E2031A;stroke-width:0.2565;stroke-linejoin:round;" d="M231.385,60.252
				c-1.488-1.278-3.738,0.215-3.139,2.333c0.425,1.501,1.292,2.581,4.186,2.581c1.854,0,3.643-1.563,3.143-3.555
				c-0.383-1.521-3.177-2.479-4.397-1.673"/>
			<path style="fill:#04762C;stroke:#04762C;stroke-width:0.342;" d="M230.968,59.938c0.12-0.485,0.552-0.995,0.146-1.479
				c0.122,0.409,0.038,0.83-0.047,1.233c0.258-0.28,0.588-0.485,0.952-0.606c0.173,0.141,0.471,0.428,0.591,0.627
				c-0.509-0.109-1.106-0.102-1.529,0.103c0.598-0.217,1.062,0.516,0.938,0.979c-0.517-0.53-1.113-1.451-1.792-0.481
				c0.225-0.234,0.431-0.543,0.628-0.771c-0.441-0.071-0.831-0.094-1.15-0.4c0.336,0.363,0.869,0.506,1.265,0.586"/>
		</g>
		<g>
			<path style="fill:#DE001B;stroke:#E2031A;stroke-width:0.2565;stroke-linejoin:round;" d="M221.951,60.252
				c-1.488-1.278-3.738,0.215-3.139,2.333c0.425,1.501,1.292,2.581,4.186,2.581c1.854,0,3.643-1.563,3.143-3.555
				c-0.383-1.521-3.177-2.479-4.397-1.673"/>
			<path style="fill:#04762C;stroke:#04762C;stroke-width:0.342;" d="M221.534,59.938c0.12-0.485,0.552-0.995,0.146-1.479
				c0.122,0.409,0.038,0.83-0.047,1.233c0.258-0.28,0.588-0.485,0.952-0.606c0.173,0.141,0.471,0.428,0.591,0.627
				c-0.509-0.109-1.106-0.102-1.529,0.103c0.598-0.217,1.062,0.516,0.938,0.979c-0.517-0.53-1.113-1.451-1.792-0.481
				c0.225-0.234,0.431-0.543,0.628-0.771c-0.441-0.071-0.831-0.094-1.15-0.4c0.336,0.363,0.869,0.506,1.265,0.586"/>
		</g>
	</g>
	<g>
		<path style="fill:none;stroke:#DE8404;stroke-width:0.0918;stroke-linecap:round;stroke-linejoin:round;" d="M178.064,63.861
			c-0.283-0.128-0.291-0.362-0.392-0.657"/>
		<g>
			<path style="fill:#9AC00A;stroke:#0D892E;stroke-width:0.1186;stroke-linejoin:round;" d="M178.609,60.101
				c-0.032-0.007-0.108-0.032-0.142-0.033c1.014,0.122,2.015,0.255,2.959,0.694c1.034,0.481,1.614,1.597,1.953,2.641
				c-0.502-0.757-1.062-2.064-1.949-2.413c0.359,0.058,0.674,0.156,0.977,0.387c-0.243-0.034-0.454-0.213-0.634-0.376
				c0.922,0.425,2.043,0.479,3.025,0.747c0.389,0.107,1.229,0.584,1.62,0.359c-0.596-0.279-1.267-0.431-1.909-0.605
				c-0.671-0.183-1.36-0.126-2.016-0.264c0.59-0.25,1.343-0.107,1.968-0.227c0.494-0.094,0.934-0.279,1.381-0.5
				c0.269-0.133,0.938-0.302,1.059-0.589c-0.321-0.267-1.281,0.159-1.608,0.257c-0.895,0.269-1.713,0.514-2.63,0.655
				c1.143-0.376,2.541-0.773,3.151-1.93c-0.767,0.401-1.412,1.613-2.37,1.492c0.752-0.427,1.628-0.612,2.383-1.068
				c0.381-0.23,0.699-0.539,1.079-0.767c-1.342-0.029-2.528,1.236-3.846,1.465c-0.879,0.153-2.007,0.168-2.892,0
				c1.015-0.17,2.068-0.248,2.964-0.813c0.619-0.392,1.153-0.934,1.749-1.363c0.2-0.144,0.434-0.289,0.581-0.484
				c-1.716,1.217-3.502,2.17-5.654,2.208c-0.038,0.24-0.666,0.125-0.876,0.102c0.157,0.039,0.303,0.119,0.468,0.141
				c-0.287-0.079-0.824-0.141-1.104-0.131c0.056,0.069-0.015,0.059,0.056,0.069"/>
			<path style="fill:#F4A300;stroke:#ED8F00;stroke-width:0.1243;stroke-linejoin:round;" d="M178.539,59.93
				c0.101-0.56,0.062-1.242-0.469-1.53c-0.269-0.147-0.884-0.092-1.19-0.135c-1.106-0.149-8.133,2.991-8.232,3.49
				c-0.056,0.284,7.43-0.653,8.405-0.468c0.433,0.083,0.928-0.266,1.199-0.467c0.284-0.213,0.201-0.412,0.248-0.734
				c0.015-0.107,0.04-0.229,0.068-0.31"/>
			<path style="fill:none;stroke:#DE8404;stroke-width:0.0791;stroke-linecap:round;stroke-linejoin:round;" d="M176.88,58.266
				c0.296,0.153,0.527,0.347,0.513,0.627"/>
			<path style="fill:none;stroke:#DE8404;stroke-width:0.0791;stroke-linecap:round;stroke-linejoin:round;" d="M176.228,58.355
				c0.133,0.183,0.266,0.471,0.206,0.699"/>
			<path style="fill:none;stroke:#DE8404;stroke-width:0.0791;stroke-linecap:round;stroke-linejoin:round;" d="M175.647,58.483
				c0.173,0.197,0.218,0.467,0.176,0.72"/>
			<path style="fill:none;stroke:#DE8404;stroke-width:0.0791;stroke-linecap:round;stroke-linejoin:round;" d="M174.993,58.703
				c0.247,0.144,0.337,0.701,0.289,0.954"/>
			<path style="fill:none;stroke:#DE8404;stroke-width:0.0791;stroke-linecap:round;stroke-linejoin:round;" d="M174.342,58.924
				c0.17,0.141,0.366,0.344,0.221,0.734"/>
			<path style="fill:none;stroke:#DE8404;stroke-width:0.0791;stroke-linecap:round;stroke-linejoin:round;" d="M173.228,61.488
				c0.236-0.127,0.358-0.311,0.477-0.544"/>
			<path style="fill:none;stroke:#DE8404;stroke-width:0.0791;stroke-linecap:round;stroke-linejoin:round;" d="M173.92,61.461
				c0.142-0.098,0.286-0.151,0.326-0.308"/>
			<path style="fill:none;stroke:#DE8404;stroke-width:0.0791;stroke-linecap:round;stroke-linejoin:round;" d="M174.859,61.356
				c0.175-0.185,0.438-0.318,0.415-0.59"/>
			<path style="fill:none;stroke:#DE8404;stroke-width:0.0791;stroke-linecap:round;stroke-linejoin:round;" d="M176.856,60.404
				c0.062,0.31-0.158,0.802-0.499,0.864"/>
		</g>
		<g>
			<path style="fill:#9AC00A;stroke:#0D892E;stroke-width:0.1243;stroke-linejoin:round;" d="M180.551,62.965
				c-0.032,0.014-0.106,0.054-0.14,0.062c1.019-0.33,2.021-0.667,2.908-1.309c0.97-0.705,1.35-1.97,1.494-3.116
				c-0.37,0.882-0.689,2.343-1.534,2.881c0.358-0.132,0.661-0.296,0.927-0.595c-0.242,0.083-0.424,0.311-0.578,0.515
				c0.865-0.623,2.008-0.903,2.965-1.375c0.38-0.188,1.152-0.85,1.597-0.695c-0.559,0.408-1.22,0.697-1.846,1.006
				c-0.654,0.324-1.373,0.403-2.021,0.677c0.654,0.14,1.399-0.158,2.066-0.161c0.524-0.001,1.013,0.102,1.517,0.24
				c0.302,0.083,1.022,0.124,1.2,0.396c-0.276,0.34-1.348,0.093-1.701,0.056c-0.974-0.098-1.861-0.187-2.83-0.15
				c1.246,0.161,2.76,0.291,3.61,1.362c-0.864-0.262-1.762-1.383-2.724-1.065c0.856,0.29,1.795,0.305,2.657,0.625
				c0.436,0.161,0.821,0.416,1.257,0.576c-1.375,0.299-2.838-0.769-4.237-0.742c-0.932,0.018-2.094,0.228-2.97,0.578
				c1.075-0.026,2.173-0.157,3.203,0.248c0.711,0.28,1.364,0.732,2.061,1.057c0.233,0.109,0.502,0.21,0.691,0.382
				c-2-0.912-4.019-1.538-6.238-1.146c-0.086-0.24-0.709,0.005-0.921,0.071c0.152-0.072,0.289-0.183,0.455-0.24
				c-0.281,0.141-0.821,0.312-1.111,0.356c0.046-0.082-0.025-0.057,0.046-0.082"/>
			<path style="fill:#F4A300;stroke:#ED8F00;stroke-width:0.1243;stroke-linejoin:round;" d="M180.511,63.157
				c0.212,0.557,0.303,1.268-0.186,1.672c-0.247,0.205-0.89,0.272-1.197,0.376c-1.108,0.376-8.937-1.459-9.134-1.955
				c-0.111-0.28,7.759-0.812,8.728-1.198c0.429-0.171,1.005,0.09,1.322,0.243c0.335,0.162,0.287,0.385,0.396,0.708
				c0.037,0.107,0.086,0.228,0.131,0.307"/>
			<path style="fill:none;stroke:#DE8404;stroke-width:0.0829;stroke-linecap:round;stroke-linejoin:round;" d="M179.128,65.205
				c0.275-0.217,0.473-0.464,0.405-0.75"/>
			<path style="fill:none;stroke:#DE8404;stroke-width:0.0829;stroke-linecap:round;stroke-linejoin:round;" d="M178.44,65.244
				c0.101-0.215,0.181-0.539,0.076-0.763"/>
			<path style="fill:none;stroke:#DE8404;stroke-width:0.0829;stroke-linecap:round;stroke-linejoin:round;" d="M177.818,65.228
				c0.141-0.237,0.135-0.524,0.041-0.778"/>
			<path style="fill:none;stroke:#DE8404;stroke-width:0.0829;stroke-linecap:round;stroke-linejoin:round;" d="M177.105,65.131
				c0.226-0.199,0.209-0.791,0.111-1.042"/>
			<path style="fill:none;stroke:#DE8404;stroke-width:0.0829;stroke-linecap:round;stroke-linejoin:round;" d="M176.392,65.035
				c0.147-0.18,0.311-0.428,0.084-0.802"/>
			<path style="fill:none;stroke:#DE8404;stroke-width:0.0829;stroke-linecap:round;stroke-linejoin:round;" d="M174.75,62.611
				c0.268,0.083,0.43,0.249,0.597,0.465"/>
			<path style="fill:none;stroke:#DE8404;stroke-width:0.0829;stroke-linecap:round;stroke-linejoin:round;" d="M175.468,62.5
				c0.166,0.073,0.325,0.099,0.396,0.254"/>
			<path style="fill:none;stroke:#DE8404;stroke-width:0.0829;stroke-linecap:round;stroke-linejoin:round;" d="M176.453,62.42
				c0.216,0.156,0.512,0.242,0.542,0.526"/>
			<path style="fill:none;stroke:#DE8404;stroke-width:0.0829;stroke-linecap:round;stroke-linejoin:round;" d="M178.69,63.003
				c0.004-0.333-0.319-0.796-0.679-0.791"/>
		</g>
		<g>
			<path style="fill:#9AC00A;stroke:#0D892E;stroke-width:0.1243;stroke-linejoin:round;" d="M168.079,62.918
				c0.034,0.008,0.113,0.036,0.147,0.038c-1.06-0.148-2.106-0.308-3.09-0.786c-1.077-0.526-1.671-1.708-2.012-2.81
				c0.517,0.804,1.086,2.188,2.01,2.571c-0.375-0.067-0.702-0.177-1.016-0.425c0.253,0.04,0.472,0.233,0.659,0.407
				c-0.961-0.464-2.134-0.542-3.158-0.841c-0.407-0.12-1.282-0.638-1.692-0.409c0.619,0.305,1.321,0.476,1.991,0.672
				c0.7,0.205,1.423,0.159,2.106,0.316c-0.62,0.251-1.405,0.087-2.062,0.2c-0.517,0.09-0.979,0.275-1.452,0.498
				c-0.282,0.134-0.986,0.3-1.113,0.599c0.331,0.287,1.343-0.142,1.685-0.24c0.942-0.265,1.802-0.506,2.762-0.638
				c-1.199,0.375-2.668,0.764-3.32,1.967c0.807-0.407,1.496-1.667,2.499-1.521c-0.793,0.434-1.715,0.611-2.509,1.075
				c-0.401,0.234-0.738,0.552-1.139,0.785c1.406,0.057,2.662-1.249,4.044-1.464c0.922-0.144,2.103-0.139,3.025,0.055
				c-1.063,0.16-2.166,0.222-3.111,0.798c-0.652,0.399-1.218,0.958-1.847,1.397c-0.211,0.148-0.458,0.294-0.614,0.497
				c1.812-1.245,3.69-2.21,5.945-2.209c0.043-0.251,0.699-0.118,0.919-0.089c-0.164-0.044-0.316-0.13-0.49-0.158
				c0.302,0.089,0.863,0.165,1.156,0.158c-0.059-0.073,0.017-0.061-0.059-0.073"/>
			<path style="fill:#F4A300;stroke:#ED8F00;stroke-width:0.1243;stroke-linejoin:round;" d="M168.151,63.101
				c-0.112,0.584-0.079,1.301,0.472,1.615c0.279,0.159,0.925,0.114,1.245,0.163c1.157,0.178,8.549-2.984,8.657-3.507
				c0.062-0.295-7.782,0.543-8.803,0.331c-0.452-0.095-0.975,0.262-1.261,0.468c-0.301,0.217-0.216,0.428-0.269,0.766
				c-0.018,0.111-0.045,0.239-0.075,0.325"/>
			<path style="fill:none;stroke:#DE8404;stroke-width:0.0829;stroke-linecap:round;stroke-linejoin:round;" d="M169.868,64.878
				c-0.309-0.167-0.547-0.375-0.528-0.667"/>
			<path style="fill:none;stroke:#DE8404;stroke-width:0.0829;stroke-linecap:round;stroke-linejoin:round;" d="M170.552,64.797
				c-0.137-0.194-0.271-0.5-0.207-0.739"/>
			<path style="fill:none;stroke:#DE8404;stroke-width:0.0829;stroke-linecap:round;stroke-linejoin:round;" d="M171.162,64.674
				c-0.18-0.209-0.224-0.494-0.176-0.759"/>
			<path style="fill:none;stroke:#DE8404;stroke-width:0.0829;stroke-linecap:round;stroke-linejoin:round;" d="M171.848,64.455
				c-0.256-0.156-0.344-0.742-0.29-1.006"/>
			<path style="fill:none;stroke:#DE8404;stroke-width:0.0829;stroke-linecap:round;stroke-linejoin:round;" d="M172.533,64.237
				c-0.177-0.153-0.38-0.368-0.222-0.775"/>
			<path style="fill:none;stroke:#DE8404;stroke-width:0.0829;stroke-linecap:round;stroke-linejoin:round;" d="M173.73,61.566
				c-0.249,0.128-0.38,0.319-0.507,0.562"/>
			<path style="fill:none;stroke:#DE8404;stroke-width:0.0829;stroke-linecap:round;stroke-linejoin:round;" d="M173.004,61.581
				c-0.15,0.1-0.302,0.153-0.345,0.318"/>
			<path style="fill:none;stroke:#DE8404;stroke-width:0.0829;stroke-linecap:round;stroke-linejoin:round;" d="M172.02,61.672
				c-0.186,0.191-0.462,0.328-0.442,0.612"/>
			<path style="fill:none;stroke:#DE8404;stroke-width:0.0829;stroke-linecap:round;stroke-linejoin:round;" d="M169.918,62.634
				c-0.062-0.327,0.177-0.839,0.532-0.897"/>
		</g>
		<g>
			<path style="fill:#9AC00A;stroke:#0D892E;stroke-width:0.1186;stroke-linejoin:round;" d="M167.944,64.147
				c0.032-0.007,0.108-0.032,0.142-0.033c-1.014,0.122-2.015,0.255-2.959,0.694c-1.034,0.481-1.614,1.597-1.953,2.641
				c0.502-0.757,1.062-2.064,1.949-2.413c-0.359,0.058-0.674,0.156-0.977,0.387c0.243-0.034,0.454-0.213,0.634-0.376
				c-0.922,0.425-2.043,0.479-3.025,0.747c-0.389,0.107-1.229,0.584-1.62,0.359c0.596-0.279,1.267-0.431,1.909-0.605
				c0.671-0.183,1.36-0.126,2.016-0.264c-0.59-0.25-1.343-0.107-1.968-0.227c-0.494-0.094-0.934-0.279-1.381-0.5
				c-0.269-0.133-0.938-0.302-1.059-0.589c0.321-0.267,1.281,0.159,1.608,0.257c0.895,0.269,1.713,0.514,2.63,0.655
				c-1.143-0.376-2.541-0.773-3.151-1.93c0.767,0.401,1.412,1.613,2.37,1.492c-0.752-0.427-1.628-0.612-2.383-1.068
				c-0.381-0.23-0.699-0.539-1.079-0.767c1.342-0.029,2.528,1.236,3.846,1.465c0.879,0.153,2.007,0.168,2.892,0
				c-1.015-0.17-2.068-0.248-2.964-0.813c-0.619-0.392-1.153-0.934-1.749-1.363c-0.2-0.144-0.434-0.289-0.581-0.484
				c1.716,1.217,3.502,2.17,5.654,2.208c0.038,0.24,0.666,0.125,0.876,0.102c-0.157,0.039-0.303,0.119-0.468,0.141
				c0.287-0.079,0.824-0.141,1.104-0.131c-0.056,0.069,0.015,0.059-0.056,0.069"/>
			<path style="fill:#F4A300;stroke:#ED8F00;stroke-width:0.1243;stroke-linejoin:round;" d="M168.015,63.977
				c-0.101-0.56-0.062-1.242,0.469-1.53c0.269-0.147,0.884-0.092,1.19-0.135c1.106-0.149,8.133,2.991,8.232,3.49
				c0.056,0.284-7.43-0.653-8.405-0.468c-0.433,0.083-0.928-0.266-1.199-0.467c-0.284-0.213-0.201-0.412-0.248-0.734
				c-0.015-0.107-0.04-0.229-0.068-0.31"/>
			<path style="fill:none;stroke:#DE8404;stroke-width:0.0791;stroke-linecap:round;stroke-linejoin:round;" d="M169.674,62.312
				c-0.296,0.153-0.527,0.347-0.513,0.627"/>
			<path style="fill:none;stroke:#DE8404;stroke-width:0.0791;stroke-linecap:round;stroke-linejoin:round;" d="M170.326,62.402
				c-0.133,0.183-0.266,0.471-0.206,0.699"/>
			<path style="fill:none;stroke:#DE8404;stroke-width:0.0791;stroke-linecap:round;stroke-linejoin:round;" d="M170.906,62.529
				c-0.173,0.197-0.218,0.467-0.176,0.72"/>
			<path style="fill:none;stroke:#DE8404;stroke-width:0.0791;stroke-linecap:round;stroke-linejoin:round;" d="M171.561,62.75
				c-0.247,0.144-0.337,0.701-0.289,0.954"/>
			<path style="fill:none;stroke:#DE8404;stroke-width:0.0791;stroke-linecap:round;stroke-linejoin:round;" d="M172.212,62.97
				c-0.17,0.141-0.366,0.344-0.221,0.734"/>
			<path style="fill:none;stroke:#DE8404;stroke-width:0.0791;stroke-linecap:round;stroke-linejoin:round;" d="M173.326,65.534
				c-0.236-0.127-0.358-0.311-0.477-0.544"/>
			<path style="fill:none;stroke:#DE8404;stroke-width:0.0791;stroke-linecap:round;stroke-linejoin:round;" d="M172.634,65.507
				c-0.142-0.098-0.286-0.151-0.326-0.308"/>
			<path style="fill:none;stroke:#DE8404;stroke-width:0.0791;stroke-linecap:round;stroke-linejoin:round;" d="M171.694,65.402
				c-0.175-0.185-0.438-0.318-0.415-0.59"/>
			<path style="fill:none;stroke:#DE8404;stroke-width:0.0791;stroke-linecap:round;stroke-linejoin:round;" d="M169.697,64.451
				c-0.062,0.31,0.158,0.802,0.499,0.864"/>
		</g>
		<g>
			<path style="fill:#9AC00A;stroke:#0D892E;stroke-width:0.1186;stroke-linejoin:round;" d="M167.944,61.07
				c0.032-0.007,0.108-0.032,0.142-0.033c-1.014,0.122-2.015,0.255-2.959,0.694c-1.034,0.481-1.614,1.597-1.953,2.641
				c0.502-0.757,1.062-2.064,1.949-2.413c-0.359,0.058-0.674,0.156-0.977,0.387c0.243-0.034,0.454-0.213,0.634-0.376
				c-0.922,0.425-2.043,0.479-3.025,0.747c-0.389,0.107-1.229,0.584-1.62,0.359c0.596-0.279,1.267-0.431,1.909-0.605
				c0.671-0.183,1.36-0.126,2.016-0.264c-0.59-0.25-1.343-0.107-1.968-0.227c-0.494-0.094-0.934-0.279-1.381-0.5
				c-0.269-0.133-0.938-0.302-1.059-0.589c0.321-0.267,1.281,0.159,1.608,0.257c0.895,0.269,1.713,0.514,2.63,0.655
				c-1.143-0.376-2.541-0.773-3.151-1.93c0.767,0.401,1.412,1.613,2.37,1.492c-0.752-0.427-1.628-0.612-2.383-1.068
				c-0.381-0.23-0.699-0.539-1.079-0.767c1.342-0.029,2.528,1.236,3.846,1.465c0.879,0.153,2.007,0.168,2.892,0
				c-1.015-0.17-2.068-0.248-2.964-0.813c-0.619-0.392-1.153-0.934-1.749-1.363c-0.2-0.144-0.434-0.289-0.581-0.484
				c1.716,1.217,3.502,2.17,5.654,2.208c0.038,0.24,0.666,0.125,0.876,0.102c-0.157,0.039-0.303,0.119-0.468,0.141
				c0.287-0.079,0.824-0.141,1.104-0.131c-0.056,0.069,0.015,0.059-0.056,0.069"/>
			<path style="fill:#F4A300;stroke:#ED8F00;stroke-width:0.1243;stroke-linejoin:round;" d="M168.015,60.899
				c-0.101-0.56-0.062-1.242,0.469-1.53c0.269-0.147,0.884-0.092,1.19-0.135c1.106-0.149,8.133,2.991,8.232,3.49
				c0.056,0.284-7.43-0.653-8.405-0.468c-0.433,0.083-0.928-0.266-1.199-0.467c-0.284-0.213-0.201-0.412-0.248-0.734
				c-0.015-0.107-0.04-0.229-0.068-0.31"/>
			<path style="fill:none;stroke:#DE8404;stroke-width:0.0791;stroke-linecap:round;stroke-linejoin:round;" d="M169.674,59.234
				c-0.296,0.153-0.527,0.347-0.513,0.627"/>
			<path style="fill:none;stroke:#DE8404;stroke-width:0.0791;stroke-linecap:round;stroke-linejoin:round;" d="M170.326,59.324
				c-0.133,0.183-0.266,0.471-0.206,0.699"/>
			<path style="fill:none;stroke:#DE8404;stroke-width:0.0791;stroke-linecap:round;stroke-linejoin:round;" d="M170.906,59.452
				c-0.173,0.197-0.218,0.467-0.176,0.72"/>
			<path style="fill:none;stroke:#DE8404;stroke-width:0.0791;stroke-linecap:round;stroke-linejoin:round;" d="M171.561,59.672
				c-0.247,0.144-0.337,0.701-0.289,0.954"/>
			<path style="fill:none;stroke:#DE8404;stroke-width:0.0791;stroke-linecap:round;stroke-linejoin:round;" d="M172.212,59.893
				c-0.17,0.141-0.366,0.344-0.221,0.734"/>
			<path style="fill:none;stroke:#DE8404;stroke-width:0.0791;stroke-linecap:round;stroke-linejoin:round;" d="M173.326,62.457
				c-0.236-0.127-0.358-0.311-0.477-0.544"/>
			<path style="fill:none;stroke:#DE8404;stroke-width:0.0791;stroke-linecap:round;stroke-linejoin:round;" d="M172.634,62.43
				c-0.142-0.098-0.286-0.151-0.326-0.308"/>
			<path style="fill:none;stroke:#DE8404;stroke-width:0.0791;stroke-linecap:round;stroke-linejoin:round;" d="M171.694,62.325
				c-0.175-0.185-0.438-0.318-0.415-0.59"/>
			<path style="fill:none;stroke:#DE8404;stroke-width:0.0791;stroke-linecap:round;stroke-linejoin:round;" d="M169.697,61.373
				c-0.062,0.31,0.158,0.802,0.499,0.864"/>
		</g>
	</g>
	<g style="display:none;">
		<path style="display:inline;fill:#EDC572;stroke:#9F672A;stroke-width:0.1274;stroke-linecap:round;stroke-linejoin:round;" d="
			M257.143,59.221c0.051-0.244,0.258-0.354,0.412-0.526c0.186-0.206,0.346-0.435,0.469-0.684c0.245-0.494,0.124-0.948-0.02-1.458
			c-0.253-0.91-0.898-1.375-1.594-1.956c-0.257-0.217-0.498-0.493-0.824-0.615c-0.292-0.108-0.343-0.006-0.481,0.269
			c-0.056,0.108-0.104,0.197-0.102,0.328c0.028-0.111,0.263-0.503,0.229-0.659c-0.041-0.183-0.468-0.422-0.627-0.524
			c-0.261-0.166-0.569-0.191-0.852-0.304c-0.27-0.107-0.541-0.235-0.83-0.268c-0.71-0.08-1.433-0.012-2.045,0.37
			c-0.362,0.227-0.824,0.586-1.03,0.965c-0.466,0.849,0.06,2.18,0.601,2.871c0.11,0.14,0.268,0.321,0.443,0.394
			c0.199,0.083,0.39,0.058,0.569,0.18c0.351,0.237,0.618,0.601,0.96,0.853c0.637-0.816,1.485-1.221,2.49-0.768
			c0.424,0.192,0.741,0.455,1.156,0.695c0.326,0.19,0.71,0.671,1.097,0.721c-0.003-0.005-0.006-0.01-0.008-0.016"/>
		<path style="display:inline;fill:none;stroke:#9F672A;stroke-width:0.1274;stroke-linecap:round;stroke-linejoin:round;" d="
			M256.148,57.507c-0.159,0.228-0.275,0.513-0.318,0.753"/>
		<path style="display:inline;fill:none;stroke:#9F672A;stroke-width:0.1274;stroke-linecap:round;stroke-linejoin:round;" d="
			M251.526,54.152c-0.019,0.252-0.572,0.953-0.782,0.865"/>
		<path style="display:inline;fill:#9F672A;stroke:#9F672A;stroke-width:0.1274;stroke-linecap:round;stroke-linejoin:round;" d="
			M252.661,56.827c0.019-0.067,0.004-0.123-0.052-0.139"/>
		<path style="display:inline;fill:#9F672A;stroke:#9F672A;stroke-width:0.1274;stroke-linecap:round;stroke-linejoin:round;" d="
			M252.58,57.365c-0.02-0.038-0.051-0.063-0.087-0.062"/>
		<path style="display:inline;fill:#9F672A;stroke:#9F672A;stroke-width:0.1274;stroke-linecap:round;stroke-linejoin:round;" d="
			M254.672,56.702c-0.017,0.077-0.061,0.108-0.127,0.08"/>
		<path style="display:inline;fill:#9F672A;stroke:#9F672A;stroke-width:0.1274;stroke-linecap:round;stroke-linejoin:round;" d="
			M254.362,54.285c0.018-0.05,0.016-0.089-0.031-0.083"/>
		<path style="display:inline;fill:#9F672A;stroke:#9F672A;stroke-width:0.1274;stroke-linecap:round;stroke-linejoin:round;" d="
			M256.201,55.967c-0.027,0.011-0.056,0.021-0.084,0.031"/>
		<path style="display:inline;fill:#9F672A;stroke:#9F672A;stroke-width:0.1274;stroke-linecap:round;stroke-linejoin:round;" d="
			M256.545,56.881c0.017,0.044,0.021,0.053,0.012,0.029"/>
		<path style="display:inline;fill:#9F672A;stroke:#9F672A;stroke-width:0.1274;stroke-linecap:round;stroke-linejoin:round;" d="
			M256.987,57.887c0.074-0.046,0.121-0.091,0.163-0.157"/>
		<path style="display:inline;fill:#9F672A;stroke:#9F672A;stroke-width:0.1274;stroke-linecap:round;stroke-linejoin:round;" d="
			M253.656,54.426c-0.044,0.043-0.097,0.074-0.156,0.09"/>
	</g>
	<path style="fill:#EDC572;stroke:#9F672A;stroke-width:0.1274;stroke-linecap:round;stroke-linejoin:round;" d="M247.822,61.296
		c0.268,0.128,0.659-0.311,0.889-0.296"/>
	<path style="fill:#9F672A;stroke:#9F672A;stroke-width:0.1274;stroke-linecap:round;stroke-linejoin:round;" d="M239.631,63.755
		c0.028-0.02,0.059-0.04,0.089-0.059"/>
	<path style="fill:#9F672A;stroke:#9F672A;stroke-width:0.1274;stroke-linecap:round;stroke-linejoin:round;" d="M246.477,63.458
		c-0.024,0.014-0.051,0.028-0.075,0.042"/>
	<path style="fill:#9F672A;stroke:#9F672A;stroke-width:0.1274;stroke-linecap:round;stroke-linejoin:round;" d="M246.036,64.183
		c-0.041,0.02-0.076,0.018-0.107-0.008"/>
	<path style="fill:#9F672A;stroke:#9F672A;stroke-width:0.1274;stroke-linecap:round;stroke-linejoin:round;" d="M247.328,64.303
		c-0.025-0.046-0.032-0.099-0.005-0.132"/>
	<path style="fill:#9F672A;stroke:#9F672A;stroke-width:0.1274;stroke-linecap:round;stroke-linejoin:round;" d="M258.258,61.366
		c0.02,0.035,0.038,0.069,0.058,0.103"/>
	<path style="fill:#9F672A;stroke:#9F672A;stroke-width:0.1274;stroke-linecap:round;stroke-linejoin:round;" d="M258.586,61.828
		c-0.015-0.026-0.029-0.051-0.044-0.077"/>
	<path style="fill:#9F672A;stroke:#9F672A;stroke-width:0.1274;stroke-linecap:round;stroke-linejoin:round;" d="M257.255,61.217
		c-0.01-0.018-0.019-0.034-0.028-0.051"/>
	<path style="fill:#9F672A;stroke:#9F672A;stroke-width:0.1274;stroke-linecap:round;stroke-linejoin:round;" d="M253.155,62.269
		c0.033,0.002,0.063-0.004,0.092-0.018"/>
	<path style="fill:#9F672A;stroke:#9F672A;stroke-width:0.1274;stroke-linecap:round;stroke-linejoin:round;" d="M253.928,62.071
		c0.001,0.022,0.002,0.043,0.004,0.066"/>
	<path style="fill:#9F672A;stroke:#9F672A;stroke-width:0.1274;stroke-linecap:round;stroke-linejoin:round;" d="M243.159,62.878
		c0.015-0.028,0.036-0.052,0.063-0.069"/>
	<path style="fill:#9F672A;stroke:#9F672A;stroke-width:0.1274;stroke-linecap:round;stroke-linejoin:round;" d="M254.532,61.935
		c0.015,0.026,0.028,0.052,0.043,0.077"/>
	<path style="fill:#9F672A;stroke:#9F672A;stroke-width:0.1274;stroke-linecap:round;stroke-linejoin:round;" d="M245.815,63.49
		c0.031-0.05,0.047-0.105,0.045-0.161"/>
	<path style="fill:#9F672A;stroke:#9F672A;stroke-width:0.1274;stroke-linecap:round;stroke-linejoin:round;" d="M256.463,62.344
		c-0.029-0.015-0.054-0.035-0.07-0.062"/>
	<path style="fill:#9F672A;stroke:#9F672A;stroke-width:0.1274;stroke-linecap:round;stroke-linejoin:round;" d="M255.517,61.449
		c0.01,0.017,0.019,0.034,0.028,0.052"/>
	<path style="fill:#9F672A;stroke:#9F672A;stroke-width:0.1274;stroke-linecap:round;stroke-linejoin:round;" d="M238.859,62.836
		c-0.056,0.021-0.104,0.009-0.148-0.029"/>
	<path style="fill:#9F672A;stroke:#9F672A;stroke-width:0.1274;stroke-linecap:round;stroke-linejoin:round;" d="M236.431,64.437
		c-0.018-0.085,0.003-0.161,0.059-0.208"/>
	<path style="fill:#9F672A;stroke:#9F672A;stroke-width:0.1274;stroke-linecap:round;stroke-linejoin:round;" d="M237.111,63.577
		c0.058-0.003,0.122-0.025,0.148-0.059"/>
	<path style="fill:#9F672A;stroke:#9F672A;stroke-width:0.1274;stroke-linecap:round;stroke-linejoin:round;" d="M237.171,64.852
		c0.045,0.021,0.098,0.033,0.147,0.029"/>
	<path style="fill:#9F672A;stroke:#9F672A;stroke-width:0.1274;stroke-linecap:round;stroke-linejoin:round;" d="M240.756,64.881
		c0.029,0,0.06,0,0.089,0"/>
	<path style="fill:#9F672A;stroke:#9F672A;stroke-width:0.1274;stroke-linecap:round;stroke-linejoin:round;" d="M238.92,65.384
		c0.019,0,0.039,0,0.059,0"/>
	<path style="fill:#9F672A;stroke:#9F672A;stroke-width:0.1274;stroke-linecap:round;stroke-linejoin:round;" d="M241.229,64.259
		c-0.078,0-0.157,0-0.236,0"/>
	<g>
		<g>
			<path style="fill:#EDC572;stroke:#9F672A;stroke-width:0.1274;stroke-linecap:round;stroke-linejoin:round;" d="M257.778,57.627
				c-0.104-0.389-0.476-0.847-0.771-1.139c-0.787-0.77-1.779-1.019-2.836-1.209c-1.071-0.194-2.187-0.069-3.185,0.328
				c-0.539,0.215-0.943,0.59-1.386,0.923c-0.28,0.21-0.56,0.429-0.816,0.671c-0.225,0.216-0.403,0.535-0.442,0.844
				c-0.055,0.447,0.115,0.71,0.328,1.133c0.507,1.009,1.46,1.573,2.566,1.577c0.785,0.002,1.711-0.038,2.442-0.326
				c1.041-0.41,2.144-0.67,3.104-1.256c0.376-0.228,1.399-0.978,0.994-1.517"/>
			<path style="fill:none;stroke:#9F672A;stroke-width:0.1274;stroke-linecap:round;stroke-linejoin:round;" d="M249.492,58.311
				c0.672-0.014,0.746,0.83,0.742,1.314c0.023-0.013,0.04-0.029,0.056-0.049"/>
			<path style="fill:#9F672A;stroke:#9F672A;stroke-width:0.1274;stroke-linecap:round;stroke-linejoin:round;" d="M256.715,57.423
				c-0.051-0.002-0.1-0.013-0.146-0.033"/>
			<path style="fill:#9F672A;stroke:#9F672A;stroke-width:0.1274;stroke-linecap:round;stroke-linejoin:round;" d="M256.106,56.875
				c-0.048-0.015-0.098-0.026-0.147-0.034"/>
			<path style="fill:#9F672A;stroke:#9F672A;stroke-width:0.1274;stroke-linecap:round;stroke-linejoin:round;" d="M255.671,57.723
				c-0.02,0.01-0.039,0.019-0.06,0.03"/>
			<path style="fill:#9F672A;stroke:#9F672A;stroke-width:0.1274;stroke-linecap:round;stroke-linejoin:round;" d="M253.977,56.733
				c0.045,0.017,0.074,0.048,0.088,0.091"/>
			<path style="fill:#9F672A;stroke:#9F672A;stroke-width:0.1274;stroke-linecap:round;stroke-linejoin:round;" d="M253.48,56.396
				c-0.001,0.039-0.002,0.078-0.002,0.119"/>
			<path style="fill:#9F672A;stroke:#9F672A;stroke-width:0.1274;stroke-linecap:round;stroke-linejoin:round;" d="M251.814,56.68
				c-0.056-0.022-0.074-0.064-0.057-0.12"/>
			<path style="fill:#9F672A;stroke:#9F672A;stroke-width:0.1274;stroke-linecap:round;stroke-linejoin:round;" d="M250.779,57.721
				c0.031,0.01,0.061,0.021,0.089,0.031"/>
			<path style="fill:#9F672A;stroke:#9F672A;stroke-width:0.1274;stroke-linecap:round;stroke-linejoin:round;" d="M251.092,58.351
				c-0.012,0.029-0.021,0.059-0.033,0.088"/>
			<path style="fill:#9F672A;stroke:#9F672A;stroke-width:0.1274;stroke-linecap:round;stroke-linejoin:round;" d="M251.635,59.195
				c-0.027,0.049-0.072,0.094-0.123,0.114"/>
			<path style="fill:#9F672A;stroke:#9F672A;stroke-width:0.1274;stroke-linecap:round;stroke-linejoin:round;" d="M252.571,58.417
				c-0.048,0.037-0.098,0.045-0.119-0.002"/>
			<path style="fill:#9F672A;stroke:#9F672A;stroke-width:0.1274;stroke-linecap:round;stroke-linejoin:round;" d="M248.625,58.616
				c0.022-0.032,0.053-0.052,0.091-0.058"/>
		</g>
		<g>
			<path style="fill:#EDC572;stroke:#9F672A;stroke-width:0.1274;stroke-linecap:round;stroke-linejoin:round;" d="M245.566,62.302
				c-0.049,0.547-0.42,1.074-0.683,1.533c-0.284,0.495-0.548,0.993-1.082,1.229c-0.462,0.203-0.99,0.273-1.475,0.388
				c-0.384,0.09-0.666,0.008-1.027-0.163c-0.232-0.11-0.446-0.212-0.654-0.37c-0.841-0.641-1.495-1.334-2.048-2.212
				c-0.347-0.551-0.471-1.083-0.439-1.711c0.028-0.578,0.327-0.9,0.825-1.181c0.426-0.24,0.844-0.308,1.33-0.312
				c0.677-0.005,0.741,0.525,0.873,1.044c-0.022-0.159-0.196-0.556-0.135-0.696c0.099-0.231,0.497-0.171,0.714-0.2
				c0.606-0.08,1.149-0.043,1.741,0.169c0.466,0.167,1.121,0.458,1.5,0.802c0.341,0.31,0.549,0.833,0.581,1.298
				c0.042,0.585-0.134,1.185-0.513,1.589"/>
			<path style="fill:#EDC572;stroke:#9F672A;stroke-width:0.1274;stroke-linecap:round;stroke-linejoin:round;" d="M243.53,62.656
				c-0.204-0.213,0.091-0.723,0.005-0.936"/>
			<path style="fill:#9F672A;stroke:#9F672A;stroke-width:0.1274;stroke-linecap:round;stroke-linejoin:round;" d="M240.631,61.705
				c0.01-0.035,0.019-0.069,0.028-0.103"/>
			<path style="fill:#9F672A;stroke:#9F672A;stroke-width:0.1274;stroke-linecap:round;stroke-linejoin:round;" d="M241.744,62.151
				c-0.003,0.059,0.024,0.1,0.073,0.131"/>
			<path style="fill:#9F672A;stroke:#9F672A;stroke-width:0.1274;stroke-linecap:round;stroke-linejoin:round;" d="M240.979,64.958
				c0.087-0.01,0.152-0.053,0.179-0.121"/>
			<path style="fill:#9F672A;stroke:#9F672A;stroke-width:0.1274;stroke-linecap:round;stroke-linejoin:round;" d="M241.585,64.043
				c-0.017-0.057-0.016-0.123,0.01-0.159"/>
			<path style="fill:#9F672A;stroke:#9F672A;stroke-width:0.1274;stroke-linecap:round;stroke-linejoin:round;" d="M240.355,64.383
				c-0.036-0.036-0.062-0.083-0.075-0.131"/>
			<path style="fill:#9F672A;stroke:#9F672A;stroke-width:0.1274;stroke-linecap:round;stroke-linejoin:round;" d="M239.21,60.986
				c-0.009-0.028-0.018-0.057-0.027-0.084"/>
			<path style="fill:#9F672A;stroke:#9F672A;stroke-width:0.1274;stroke-linecap:round;stroke-linejoin:round;" d="M239.305,62.888
				c-0.007-0.02-0.013-0.038-0.02-0.056"/>
			<path style="fill:#9F672A;stroke:#9F672A;stroke-width:0.1274;stroke-linecap:round;stroke-linejoin:round;" d="M239.653,60.341
				c0.025,0.075,0.05,0.15,0.074,0.226"/>
			<path style="fill:#9F672A;stroke:#9F672A;stroke-width:0.1274;stroke-linecap:round;stroke-linejoin:round;" d="M245.039,62.599
				c-0.101,0.011-0.184-0.03-0.225-0.114"/>
		</g>
		<g>
			<path style="fill:#EDC572;stroke:#9F672A;stroke-width:0.1274;stroke-linecap:round;stroke-linejoin:round;" d="M263.742,58.975
				c-0.049,0.547-0.42,1.074-0.683,1.533c-0.284,0.495-0.548,0.993-1.082,1.229c-0.462,0.203-0.99,0.273-1.475,0.388
				c-0.384,0.09-0.666,0.008-1.027-0.163c-0.232-0.11-0.446-0.212-0.654-0.37c-0.841-0.641-1.495-1.334-2.048-2.212
				c-0.347-0.551-0.471-1.083-0.439-1.711c0.028-0.578,0.327-0.9,0.825-1.181c0.426-0.24,0.844-0.308,1.33-0.312
				c0.677-0.005,0.741,0.525,0.873,1.044c-0.022-0.159-0.196-0.556-0.135-0.696c0.099-0.231,0.497-0.171,0.714-0.2
				c0.606-0.08,1.149-0.043,1.741,0.169c0.466,0.167,1.121,0.458,1.5,0.802c0.341,0.31,0.549,0.833,0.581,1.298
				c0.042,0.585-0.134,1.185-0.513,1.589"/>
			<path style="fill:#EDC572;stroke:#9F672A;stroke-width:0.1274;stroke-linecap:round;stroke-linejoin:round;" d="M261.706,59.329
				c-0.204-0.213,0.091-0.723,0.005-0.936"/>
			<path style="fill:#9F672A;stroke:#9F672A;stroke-width:0.1274;stroke-linecap:round;stroke-linejoin:round;" d="M258.807,58.377
				c0.01-0.035,0.019-0.069,0.028-0.103"/>
			<path style="fill:#9F672A;stroke:#9F672A;stroke-width:0.1274;stroke-linecap:round;stroke-linejoin:round;" d="M259.92,58.824
				c-0.003,0.059,0.024,0.1,0.073,0.131"/>
			<path style="fill:#9F672A;stroke:#9F672A;stroke-width:0.1274;stroke-linecap:round;stroke-linejoin:round;" d="M259.155,61.63
				c0.087-0.01,0.152-0.053,0.179-0.121"/>
			<path style="fill:#9F672A;stroke:#9F672A;stroke-width:0.1274;stroke-linecap:round;stroke-linejoin:round;" d="M259.761,60.715
				c-0.017-0.057-0.016-0.123,0.01-0.159"/>
			<path style="fill:#9F672A;stroke:#9F672A;stroke-width:0.1274;stroke-linecap:round;stroke-linejoin:round;" d="M258.531,61.055
				c-0.036-0.036-0.062-0.083-0.075-0.131"/>
			<path style="fill:#9F672A;stroke:#9F672A;stroke-width:0.1274;stroke-linecap:round;stroke-linejoin:round;" d="M257.386,57.658
				c-0.009-0.028-0.018-0.057-0.027-0.084"/>
			<path style="fill:#9F672A;stroke:#9F672A;stroke-width:0.1274;stroke-linecap:round;stroke-linejoin:round;" d="M257.48,59.561
				c-0.007-0.02-0.013-0.038-0.02-0.056"/>
			<path style="fill:#9F672A;stroke:#9F672A;stroke-width:0.1274;stroke-linecap:round;stroke-linejoin:round;" d="M257.829,57.014
				c0.025,0.075,0.05,0.15,0.074,0.226"/>
			<path style="fill:#9F672A;stroke:#9F672A;stroke-width:0.1274;stroke-linecap:round;stroke-linejoin:round;" d="M263.215,59.271
				c-0.101,0.011-0.184-0.03-0.225-0.114"/>
		</g>
		<g>
			<path style="fill:#EDC572;stroke:#9F672A;stroke-width:0.1274;stroke-linecap:round;stroke-linejoin:round;" d="M252.824,53.419
				c0.115-0.386,0.497-0.835,0.8-1.119c0.806-0.75,1.804-0.975,2.864-1.139c1.077-0.167,2.188-0.015,3.176,0.407
				c0.534,0.228,0.928,0.613,1.363,0.957c0.273,0.217,0.55,0.443,0.797,0.69c0.223,0.223,0.392,0.545,0.423,0.856
				c0.045,0.448-0.132,0.706-0.354,1.125c-0.531,0.996-1.501,1.536-2.605,1.512c-0.785-0.017-1.709-0.08-2.434-0.386
				c-1.03-0.436-2.125-0.723-3.074-1.333c-0.369-0.237-1.372-1.012-0.955-1.541"/>
			<path style="fill:none;stroke:#9F672A;stroke-width:0.1274;stroke-linecap:round;stroke-linejoin:round;" d="M261.092,54.308
				c-0.673-0.031-0.768,0.811-0.775,1.295c-0.021-0.013-0.04-0.03-0.054-0.05"/>
			<path style="fill:#9F672A;stroke:#9F672A;stroke-width:0.1274;stroke-linecap:round;stroke-linejoin:round;" d="M255.167,54.989
				c0.009,0.02,0.02,0.04,0.028,0.06"/>
			<path style="fill:#9F672A;stroke:#9F672A;stroke-width:0.1274;stroke-linecap:round;stroke-linejoin:round;" d="M257.21,56.115
				c0.024,0.036,0.034,0.077,0.03,0.119"/>
			<path style="fill:#9F672A;stroke:#9F672A;stroke-width:0.1274;stroke-linecap:round;stroke-linejoin:round;" d="M257.181,55.611
				c0.026,0.018,0.057,0.028,0.089,0.03"/>
			<path style="fill:#9F672A;stroke:#9F672A;stroke-width:0.1274;stroke-linecap:round;stroke-linejoin:round;" d="M253.892,53.241
				c0.052-0.001,0.101-0.01,0.148-0.03"/>
			<path style="fill:#9F672A;stroke:#9F672A;stroke-width:0.1274;stroke-linecap:round;stroke-linejoin:round;" d="M254.514,52.708
				c0.05-0.014,0.099-0.023,0.148-0.03"/>
			<path style="fill:#9F672A;stroke:#9F672A;stroke-width:0.1274;stroke-linecap:round;stroke-linejoin:round;" d="M254.928,53.568
				c0.021,0.009,0.041,0.019,0.06,0.029"/>
			<path style="fill:#9F672A;stroke:#9F672A;stroke-width:0.1274;stroke-linecap:round;stroke-linejoin:round;" d="M256.647,52.619
				c-0.047,0.016-0.075,0.046-0.089,0.089"/>
			<path style="fill:#9F672A;stroke:#9F672A;stroke-width:0.1274;stroke-linecap:round;stroke-linejoin:round;" d="M257.151,52.293
				c0,0.04,0,0.079,0,0.119"/>
			<path style="fill:#9F672A;stroke:#9F672A;stroke-width:0.1274;stroke-linecap:round;stroke-linejoin:round;" d="M258.81,52.619
				c0.057-0.021,0.076-0.062,0.061-0.118"/>
			<path style="fill:#9F672A;stroke:#9F672A;stroke-width:0.1274;stroke-linecap:round;stroke-linejoin:round;" d="M259.818,53.686
				c-0.03,0.01-0.062,0.02-0.09,0.03"/>
			<path style="fill:#9F672A;stroke:#9F672A;stroke-width:0.1274;stroke-linecap:round;stroke-linejoin:round;" d="M259.492,54.308
				c0.01,0.03,0.019,0.06,0.029,0.089"/>
			<path style="fill:#9F672A;stroke:#9F672A;stroke-width:0.1274;stroke-linecap:round;stroke-linejoin:round;" d="M258.928,55.138
				c0.025,0.05,0.07,0.096,0.119,0.118"/>
			<path style="fill:#9F672A;stroke:#9F672A;stroke-width:0.1274;stroke-linecap:round;stroke-linejoin:round;" d="M258.01,54.337
				c0.049,0.038,0.096,0.048,0.119,0"/>
			<path style="fill:#9F672A;stroke:#9F672A;stroke-width:0.1274;stroke-linecap:round;stroke-linejoin:round;" d="M261.95,54.634
				c-0.021-0.033-0.051-0.053-0.089-0.06"/>
		</g>
		<g>
			<path style="fill:#EDC572;stroke:#9F672A;stroke-width:0.1274;stroke-linecap:round;stroke-linejoin:round;" d="M259.046,62.925
				c0.114,0.386,0.496,0.835,0.8,1.12c0.806,0.75,1.804,0.975,2.864,1.139c1.076,0.167,2.188,0.015,3.176-0.406
				c0.533-0.229,0.928-0.613,1.362-0.958c0.274-0.216,0.55-0.442,0.799-0.69c0.221-0.222,0.391-0.545,0.422-0.855
				c0.044-0.448-0.132-0.707-0.355-1.125c-0.531-0.996-1.499-1.536-2.604-1.512c-0.785,0.017-1.71,0.08-2.434,0.386
				c-1.031,0.436-2.126,0.723-3.073,1.332c-0.37,0.237-1.374,1.012-0.956,1.541"/>
			<path style="fill:none;stroke:#9F672A;stroke-width:0.1274;stroke-linecap:round;stroke-linejoin:round;" d="M267.312,62.036
				c-0.672,0.031-0.767-0.811-0.774-1.295c-0.022,0.013-0.04,0.03-0.055,0.05"/>
			<path style="fill:#9F672A;stroke:#9F672A;stroke-width:0.1274;stroke-linecap:round;stroke-linejoin:round;" d="M260.114,63.103
				c0.051,0,0.1,0.01,0.146,0.03"/>
			<path style="fill:#9F672A;stroke:#9F672A;stroke-width:0.1274;stroke-linecap:round;stroke-linejoin:round;" d="M260.735,63.636
				c0.049,0.014,0.099,0.023,0.148,0.03"/>
			<path style="fill:#9F672A;stroke:#9F672A;stroke-width:0.1274;stroke-linecap:round;stroke-linejoin:round;" d="M261.15,62.777
				c0.019-0.009,0.039-0.02,0.059-0.03"/>
			<path style="fill:#9F672A;stroke:#9F672A;stroke-width:0.1274;stroke-linecap:round;stroke-linejoin:round;" d="M262.868,63.725
				c-0.045-0.017-0.075-0.046-0.089-0.089"/>
			<path style="fill:#9F672A;stroke:#9F672A;stroke-width:0.1274;stroke-linecap:round;stroke-linejoin:round;" d="M263.372,64.05
				c0-0.039,0-0.078,0-0.119"/>
			<path style="fill:#9F672A;stroke:#9F672A;stroke-width:0.1274;stroke-linecap:round;stroke-linejoin:round;" d="M265.031,63.725
				c0.057,0.021,0.075,0.062,0.06,0.118"/>
			<path style="fill:#9F672A;stroke:#9F672A;stroke-width:0.1274;stroke-linecap:round;stroke-linejoin:round;" d="M266.039,62.658
				c-0.03-0.01-0.06-0.02-0.089-0.03"/>
			<path style="fill:#9F672A;stroke:#9F672A;stroke-width:0.1274;stroke-linecap:round;stroke-linejoin:round;" d="M265.713,62.036
				c0.01-0.03,0.02-0.059,0.03-0.089"/>
			<path style="fill:#9F672A;stroke:#9F672A;stroke-width:0.1274;stroke-linecap:round;stroke-linejoin:round;" d="M265.149,61.206
				c0.024-0.05,0.069-0.096,0.119-0.118"/>
			<path style="fill:#9F672A;stroke:#9F672A;stroke-width:0.1274;stroke-linecap:round;stroke-linejoin:round;" d="M264.231,62.006
				c0.048-0.038,0.096-0.048,0.118,0"/>
			<path style="fill:#9F672A;stroke:#9F672A;stroke-width:0.1274;stroke-linecap:round;stroke-linejoin:round;" d="M268.172,61.71
				c-0.022,0.033-0.051,0.053-0.09,0.06"/>
		</g>
		<path style="fill:#EDC572;stroke:#9F672A;stroke-width:0.1274;stroke-linecap:round;stroke-linejoin:round;" d="M251.19,62.315
			c-0.041,0.15,0.647,0.862,0.958,1.134c0.186,0.161,0.337,0.335,0.518,0.492c0.215,0.186,0.301,0.222,0.56,0.33
			c0.223,0.093,0.395,0.21,0.637,0.271c0.243,0.061,0.475,0.133,0.707,0.225c0.232,0.093,0.457,0.216,0.675,0.297
			c0.297,0.112,0.518,0.069,0.812,0.051c0.646-0.041,1.286-0.172,1.894-0.521c0.573-0.33,1.021-0.9,1.331-1.471
			c0.331-0.612,0.442-1.475-0.009-2.063c-0.436-0.57-1.245-0.934-1.863-1.254c-0.619-0.319-1.273-0.528-2.007-0.5
			c-0.546,0.021-1.14,0.342-1.637,0.537c-0.534,0.21-1.072,0.464-1.493,0.851c-0.314,0.29-0.869,0.742-1.011,1.148
			c-0.062,0.174-0.07,0.473,0.065,0.739"/>
		<path style="fill:#EDC572;stroke:#9F672A;stroke-width:0.1274;stroke-linecap:round;stroke-linejoin:round;" d="M245.512,61.888
			c-0.133-0.211-0.365-0.24-0.57-0.347c-0.247-0.127-0.478-0.285-0.681-0.475c-0.404-0.375-0.451-0.843-0.497-1.371
			c-0.083-0.94,0.356-1.603,0.802-2.394c0.164-0.293,0.291-0.637,0.554-0.865c0.235-0.204,0.318-0.127,0.547,0.082
			c0.09,0.082,0.166,0.147,0.211,0.271c-0.067-0.093-0.426-0.378-0.448-0.536c-0.027-0.186,0.288-0.561,0.401-0.711
			c0.185-0.248,0.465-0.38,0.689-0.585c0.214-0.195,0.422-0.411,0.683-0.543c0.634-0.325,1.336-0.517,2.042-0.376
			c0.421,0.084,0.978,0.258,1.306,0.539c0.734,0.631,0.714,2.061,0.451,2.899c-0.054,0.17-0.138,0.395-0.276,0.525
			c-0.155,0.147-0.343,0.191-0.468,0.369c-0.244,0.345-0.367,0.78-0.598,1.137c-0.884-0.539-1.821-0.618-2.601,0.161
			c-0.329,0.329-0.534,0.687-0.837,1.059c-0.237,0.292-0.427,0.878-0.771,1.062c0.001-0.006,0.001-0.012,0.003-0.018"/>
		<path style="fill:none;stroke:#9F672A;stroke-width:0.1274;stroke-linecap:round;stroke-linejoin:round;" d="M245.838,59.933
			c0.229,0.156,0.438,0.383,0.562,0.592"/>
		<path style="fill:#EDC572;stroke:#9F672A;stroke-width:0.1274;stroke-linecap:round;stroke-linejoin:round;" d="M247.526,59.251
			c-0.506,0.217-0.891,0.734-1.244,1.126c-0.382,0.424-0.774,0.828-0.832,1.411c-0.049,0.502,0.049,1.025,0.091,1.522
			c0.033,0.393,0.2,0.634,0.475,0.925c0.176,0.186,0.34,0.357,0.557,0.506c0.87,0.6,1.733,1.006,2.738,1.257
			c0.633,0.159,1.176,0.11,1.764-0.115c0.54-0.207,0.753-0.591,0.865-1.151c0.097-0.48,0.03-0.899-0.119-1.362
			c-0.204-0.645-0.729-0.541-1.264-0.505c0.159-0.027,0.589,0.013,0.704-0.088c0.188-0.166,0.008-0.527-0.032-0.742
			c-0.112-0.6-0.316-1.105-0.703-1.602c-0.304-0.391-0.783-0.922-1.229-1.176c-0.4-0.228-0.962-0.262-1.415-0.148
			c-0.57,0.143-1.084,0.497-1.351,0.982"/>
		<path style="fill:none;stroke:#9F672A;stroke-width:0.1274;stroke-linecap:round;stroke-linejoin:round;" d="M248.979,55.163
			c0.106,0.229,0.871,0.689,1.036,0.533"/>
		<path style="fill:#9F672A;stroke:#9F672A;stroke-width:0.1274;stroke-linecap:round;stroke-linejoin:round;" d="M248.859,58.066
			c-0.039-0.057-0.047-0.114,0-0.148"/>
		<path style="fill:#9F672A;stroke:#9F672A;stroke-width:0.1274;stroke-linecap:round;stroke-linejoin:round;" d="M249.126,58.541
			c0.004-0.042,0.025-0.078,0.059-0.089"/>
		<path style="fill:#9F672A;stroke:#9F672A;stroke-width:0.1274;stroke-linecap:round;stroke-linejoin:round;" d="M246.934,58.659
			c0.044,0.066,0.096,0.081,0.148,0.03"/>
		<path style="fill:#9F672A;stroke:#9F672A;stroke-width:0.1274;stroke-linecap:round;stroke-linejoin:round;" d="M246.371,56.289
			c-0.034-0.041-0.045-0.078,0-0.088"/>
		<path style="fill:#9F672A;stroke:#9F672A;stroke-width:0.1274;stroke-linecap:round;stroke-linejoin:round;" d="M245.245,58.511
			c0.03,0,0.059,0,0.088,0"/>
		<path style="fill:#9F672A;stroke:#9F672A;stroke-width:0.1274;stroke-linecap:round;stroke-linejoin:round;" d="M245.245,59.488
			c0,0.046,0,0.057,0,0.03"/>
		<path style="fill:#9F672A;stroke:#9F672A;stroke-width:0.1274;stroke-linecap:round;stroke-linejoin:round;" d="M245.187,60.585
			c-0.086-0.018-0.146-0.044-0.207-0.089"/>
		<path style="fill:#9F672A;stroke:#9F672A;stroke-width:0.1274;stroke-linecap:round;stroke-linejoin:round;" d="M247.408,59.844
			c0.021,0.099,0.084,0.166,0.177,0.178"/>
		<path style="fill:#EDC572;stroke:#9F672A;stroke-width:0.1274;stroke-linecap:round;stroke-linejoin:round;" d="M251.286,48.412
			c-0.139,0.533,0.034,1.153,0.128,1.673c0.102,0.562,0.18,1.119,0.605,1.522c0.367,0.346,0.84,0.589,1.259,0.86
			c0.33,0.214,0.624,0.23,1.021,0.191c0.255-0.025,0.491-0.05,0.741-0.13c1.007-0.32,1.857-0.754,2.671-1.395
			c0.514-0.402,0.808-0.862,0.99-1.464c0.167-0.553-0.006-0.957-0.38-1.389c-0.32-0.371-0.692-0.575-1.149-0.74
			c-0.635-0.234-0.874,0.245-1.173,0.689c0.075-0.143,0.371-0.458,0.361-0.61c-0.016-0.251-0.411-0.329-0.605-0.429
			c-0.544-0.279-1.067-0.427-1.697-0.425c-0.495,0-1.208,0.054-1.682,0.25c-0.426,0.177-0.796,0.6-0.984,1.028
			c-0.236,0.538-0.271,1.161-0.051,1.669"/>
		<path style="fill:#EDC572;stroke:#9F672A;stroke-width:0.1274;stroke-linecap:round;stroke-linejoin:round;" d="M253.083,49.431
			c0.266-0.133,0.158-0.711,0.311-0.883"/>
		<path style="fill:#9F672A;stroke:#9F672A;stroke-width:0.1274;stroke-linecap:round;stroke-linejoin:round;" d="M256.135,49.507
			c0.002-0.035,0.005-0.07,0.008-0.106"/>
		<path style="fill:#9F672A;stroke:#9F672A;stroke-width:0.1274;stroke-linecap:round;stroke-linejoin:round;" d="M254.936,49.554
			c-0.017,0.057-0.056,0.087-0.113,0.1"/>
		<path style="fill:#9F672A;stroke:#9F672A;stroke-width:0.1274;stroke-linecap:round;stroke-linejoin:round;" d="M252.136,50.844
			c-0.018-0.085,0.003-0.161,0.059-0.208"/>
		<path style="fill:#9F672A;stroke:#9F672A;stroke-width:0.1274;stroke-linecap:round;stroke-linejoin:round;" d="M254.451,51.39
			c0.033-0.047,0.055-0.112,0.044-0.153"/>
		<path style="fill:#9F672A;stroke:#9F672A;stroke-width:0.1274;stroke-linecap:round;stroke-linejoin:round;" d="M252.876,51.259
			c0.045,0.021,0.098,0.033,0.147,0.029"/>
		<path style="fill:#9F672A;stroke:#9F672A;stroke-width:0.1274;stroke-linecap:round;stroke-linejoin:round;" d="M257.714,49.308
			c0.019-0.023,0.037-0.047,0.055-0.07"/>
		<path style="fill:#9F672A;stroke:#9F672A;stroke-width:0.1274;stroke-linecap:round;stroke-linejoin:round;" d="M256.987,51.067
			c0.012-0.015,0.024-0.031,0.036-0.046"/>
		<path style="fill:#9F672A;stroke:#9F672A;stroke-width:0.1274;stroke-linecap:round;stroke-linejoin:round;" d="M257.513,48.553
			c-0.048,0.062-0.097,0.124-0.145,0.187"/>
		<path style="fill:#9F672A;stroke:#9F672A;stroke-width:0.1274;stroke-linecap:round;stroke-linejoin:round;" d="M251.683,48.869
			c0.091,0.043,0.182,0.035,0.248-0.031"/>
		<path style="fill:#9F672A;stroke:#9F672A;stroke-width:0.1274;stroke-linecap:round;stroke-linejoin:round;" d="M247.082,56.17
			c0.056,0.025,0.117,0.035,0.178,0.03"/>
		<g>
			<path style="fill:#EDC572;stroke:#9F672A;stroke-width:0.1274;stroke-linecap:round;stroke-linejoin:round;" d="M246.521,55.297
				c-0.109-0.11,0.142-1.069,0.279-1.459c0.082-0.231,0.129-0.458,0.208-0.683c0.095-0.268,0.153-0.341,0.325-0.562
				c0.148-0.191,0.24-0.376,0.422-0.548s0.348-0.349,0.505-0.544c0.157-0.193,0.293-0.412,0.442-0.589
				c0.205-0.244,0.418-0.314,0.683-0.443c0.584-0.282,1.204-0.481,1.905-0.475c0.661,0.005,1.329,0.283,1.881,0.627
				c0.591,0.371,1.108,1.068,1.006,1.803c-0.1,0.71-0.627,1.425-1.008,2.007c-0.383,0.583-0.851,1.085-1.503,1.421
				c-0.486,0.25-1.16,0.262-1.689,0.335c-0.568,0.079-1.162,0.122-1.72-0.008c-0.416-0.098-1.121-0.221-1.443-0.504
				c-0.139-0.122-0.293-0.377-0.306-0.676"/>
			<path style="fill:#9F672A;stroke:#9F672A;stroke-width:0.1274;stroke-linecap:round;stroke-linejoin:round;" d="M250.497,51.741
				c-0.03,0-0.061,0-0.089,0"/>
			<path style="fill:#9F672A;stroke:#9F672A;stroke-width:0.1274;stroke-linecap:round;stroke-linejoin:round;" d="M249.756,51.326
				c-0.046,0.001-0.075,0.021-0.089,0.059"/>
			<path style="fill:#9F672A;stroke:#9F672A;stroke-width:0.1274;stroke-linecap:round;stroke-linejoin:round;" d="M250.823,50.585
				c0,0.054,0.02,0.103,0.06,0.118"/>
			<path style="fill:#9F672A;stroke:#9F672A;stroke-width:0.1274;stroke-linecap:round;stroke-linejoin:round;" d="M253.074,52.689
				c0-0.04,0-0.079,0-0.119"/>
			<path style="fill:#9F672A;stroke:#9F672A;stroke-width:0.1274;stroke-linecap:round;stroke-linejoin:round;" d="M253.134,52.125
				c0,0.03,0,0.06,0,0.089"/>
			<path style="fill:#9F672A;stroke:#9F672A;stroke-width:0.1274;stroke-linecap:round;stroke-linejoin:round;" d="M252.274,53.311
				c0,0.02,0,0.039,0,0.059"/>
			<path style="fill:#9F672A;stroke:#9F672A;stroke-width:0.1274;stroke-linecap:round;stroke-linejoin:round;" d="M248.186,54.407
				c0.028-0.018,0.057-0.028,0.089-0.03"/>
			<path style="fill:#9F672A;stroke:#9F672A;stroke-width:0.1274;stroke-linecap:round;stroke-linejoin:round;" d="M248.957,54.199
				c-0.011-0.02-0.02-0.039-0.031-0.059"/>
			<path style="fill:#9F672A;stroke:#9F672A;stroke-width:0.1274;stroke-linecap:round;stroke-linejoin:round;" d="M247.89,53.875
				c0.028,0.017,0.057,0.027,0.089,0.029"/>
			<path style="fill:#9F672A;stroke:#9F672A;stroke-width:0.1274;stroke-linecap:round;stroke-linejoin:round;" d="M249.548,54.021
				c0-0.03,0-0.059,0-0.088"/>
			<path style="fill:#9F672A;stroke:#9F672A;stroke-width:0.1274;stroke-linecap:round;stroke-linejoin:round;" d="M249.904,52.037
				c0.051,0.028,0.091,0.068,0.118,0.119"/>
			<path style="fill:#9F672A;stroke:#9F672A;stroke-width:0.1274;stroke-linecap:round;stroke-linejoin:round;" d="M251.03,52.718
				c-0.019,0.027-0.027,0.057-0.03,0.089"/>
			<path style="fill:#9F672A;stroke:#9F672A;stroke-width:0.1274;stroke-linecap:round;stroke-linejoin:round;" d="M250.646,53.962
				c0-0.02,0-0.04,0-0.059"/>
			<path style="fill:#9F672A;stroke:#9F672A;stroke-width:0.1274;stroke-linecap:round;stroke-linejoin:round;" d="M250.408,55.296
				c0.01-0.02,0.02-0.04,0.028-0.059"/>
			<path style="fill:#9F672A;stroke:#9F672A;stroke-width:0.1274;stroke-linecap:round;stroke-linejoin:round;" d="M252.452,54.17
				c0.024-0.035,0.035-0.077,0.029-0.119"/>
			<path style="fill:#9F672A;stroke:#9F672A;stroke-width:0.1274;stroke-linecap:round;stroke-linejoin:round;" d="M252.423,54.674
				c0.027-0.018,0.056-0.027,0.09-0.029"/>
		</g>
	</g>
	<path style="display:none;fill:#FFFFFF;stroke:#7E7A65;stroke-width:0.7735;stroke-linecap:round;stroke-linejoin:round;" d="
		M157.768,73.05c2.411,0.281,4.919-1.338,6.851-3.021c-1.913,0.582-2.725,0.426-3.212,0.834c0.308-0.31,2.438-2.378,2.672-2.717
		c-0.507,0.003-3.025,1.438-3.386,1.836c0.345-0.435,2.082-2.056,2.167-2.639c-0.555,0.178-5.153,4.635-2.97-0.355
		c-1.828,2.367-2.381,5.179-2.205,5.988L157.768,73.05z"/>
	<path style="display:none;fill:#FFFFFF;stroke:#7E7A65;stroke-width:0.7735;stroke-linecap:round;stroke-linejoin:round;" d="
		M226.221,43.594c2.363,0.555,5.04-0.768,7.15-2.22c-1.967,0.36-2.756,0.112-3.285,0.461c0.341-0.271,2.693-2.084,2.964-2.394
		c-0.504-0.055-3.169,1.083-3.573,1.438c0.393-0.393,2.154-1.994,2.306-2.563c-0.571,0.114-3.993,3.409-2.993-0.966
		c-2.086,2.143-2.725,5.336-2.643,6.16L226.221,43.594z"/>
	<path style="display:none;fill:#FFFFFF;stroke:#7E7A65;stroke-width:0.7735;stroke-linecap:round;stroke-linejoin:round;" d="
		M189.61,46.678c-2.412,0.281-4.92-1.338-6.852-3.021c1.914,0.582,2.727,0.426,3.212,0.834c-0.308-0.31-2.438-2.378-2.671-2.717
		c0.507,0.003,3.024,1.438,3.385,1.836c-0.345-0.435-1.912-2.226-1.998-2.809c0.556,0.178,3.915,3.3,2.978-1.263
		c1.829,2.367,2.204,6.256,2.028,7.066L189.61,46.678z"/>
</g>
<g id="femme">
	<path style="fill:#FFFFFF;stroke:#7E7A64;stroke-width:0.904;stroke-linecap:round;stroke-linejoin:round;" d="M162.322,46.63
		c0,1.882-1.522,3.409-3.407,3.409c-1.884,0-3.416-1.527-3.416-3.409c0-1.883,1.531-3.411,3.416-3.411
		C160.8,43.22,162.322,44.747,162.322,46.63z"/>
	<path style="fill:none;stroke:#7E7A64;stroke-width:1.192;stroke-linecap:round;stroke-linejoin:round;" d="M165.719,23.751
		c0,6.095-3.769,11.033-8.424,11.033c-4.65,0-8.425-4.938-8.425-11.033c0-6.091,3.775-11.029,8.425-11.029
		C161.95,12.722,165.719,17.66,165.719,23.751z"/>
	<path style="fill:none;stroke:#7E7A64;stroke-width:1.192;stroke-linecap:round;stroke-linejoin:round;" d="M157.294,35.188
		c-0.01,1.939,0.051,4.671,0.126,8.121"/>
	<path style="fill:none;stroke:#7E7A64;stroke-width:1.192;stroke-linecap:round;stroke-linejoin:round;" d="M157.553,50.102
		c0.125,7.778,0.105,15.765-0.664,19.585c-1.198,6.016-3.609,3.611-2.403,12.035c1.506,10.555,5.617,19.256,4.411,24.469
		c-6.568,28.473-6.818,29.287-0.404,28.484"/>
	<path style="fill:none;stroke:#7E7A64;stroke-width:0.904;stroke-linecap:round;stroke-linejoin:round;" d="M178.404,115.96
		c0,0,0.002-6.202-3.851-6.202s-3.583,6.081-3.583,6.081"/>
	<path style="fill:#FFFFFF;stroke:#7E7A64;stroke-width:0.5;stroke-linecap:round;stroke-linejoin:round;" d="M191.117,118.338
		c0,0-7.862-2.508-16.053-2.508s-17.886,2.247-17.886,2.247"/>
	<path style="fill:none;stroke:#7E7A64;stroke-width:0.904;stroke-linecap:round;stroke-linejoin:round;" d="M177.761,122.94
		c0,0,0.002-6.202-3.851-6.202s-3.583,6.081-3.583,6.081"/>
	<path style="fill:#FFFFFF;stroke:#7E7A64;stroke-width:0.5;stroke-linecap:round;stroke-linejoin:round;" d="M157.179,118.077
		c0,0,3.51,4.94,17.886,4.94c12.537,0,16.053-4.68,16.053-4.68s-5.165,16.679-9.338,18.075c-3.574,1.196-13.959,1.656-16.998-1.382
		C161.632,131.883,157.179,118.077,157.179,118.077z"/>
</g>
</svg>
