<?xml version="1.0" encoding="iso-8859-1"?>
<!-- Generator: Adobe Illustrator 13.0.0, SVG Export Plug-In . SVG Version: 6.00 Build 14948)  -->
<!DOCTYPE svg PUBLIC "-//W3C//DTD SVG 1.1//EN" "http://www.w3.org/Graphics/SVG/1.1/DTD/svg11.dtd">
<svg version="1.1" xmlns="http://www.w3.org/2000/svg" xmlns:xlink="http://www.w3.org/1999/xlink" x="0px" y="0px" width="378px"
	 height="140px" viewBox="0 0 378 140" style="enable-background:new 0 0 378 140;" xml:space="preserve">
<style type="text/css">
<![CDATA[
]]>
</style>
<g id="Layer_2">
	<g>
		<rect style="fill:none;" width="378" height="140"/>
		<rect style="fill:#FFFFFF;" width="378" height="140"/>
	</g>
</g>
<g id="Layer_3">
	<g>
		<path style="fill:#406FA9;" d="M256.502,125.963c0,6.372-5.166,11.537-11.537,11.537H133.039c-6.373,0-11.539-5.165-11.539-11.537
			V14.037c0-6.374,5.166-11.537,11.539-11.537h111.926c6.371,0,11.537,5.163,11.537,11.537V125.963z"/>
		<path style="fill:none;stroke:#FFFFFF;stroke-width:4.0703;" d="M251.018,121.418c0,5.853-4.746,10.599-10.6,10.599H137.585
			c-5.855,0-10.602-4.746-10.602-10.599V18.584c0-5.853,4.746-10.601,10.602-10.601h102.833c5.854,0,10.6,4.748,10.6,10.601V121.418
			z"/>
	</g>
	<rect x="168.369" y="34.423" style="fill:#FFFFFF;stroke:#61AA28;stroke-width:2.0352;" width="49.862" height="76.912"/>
	
		<text transform="matrix(1.3997 0 0 1 173.4248 77.6201)" style="fill:#595959; font-family:'CenturyGothic-Bold'; font-size:30.2357;">&#x20AC;</text>
	<polyline style="fill:#FFFFFF;stroke:#61AA28;stroke-width:2.0352;" points="213.529,32.237 213.529,103.56 161.109,103.56 
		161.109,32.843 	"/>
	<path style="fill:#FFFFFF;stroke:#777768;stroke-width:0.4854;stroke-linecap:round;stroke-linejoin:round;" d="M163.414,69.543
		c11.565,0.37,20.75,6.033,20.75,12.964c0,6.93-9.185,12.591-20.75,12.965"/>
	<polyline style="fill:none;stroke:#777768;stroke-width:0.4854;stroke-linecap:round;stroke-linejoin:round;" points="
		211.225,32.237 211.225,101.255 163.414,101.255 163.414,31.935 	"/>
	
		<circle style="fill:#FFFFFF;stroke:#777768;stroke-width:0.4854;stroke-linecap:round;stroke-linejoin:round;" cx="193.387" cy="82.506" r="7.281"/>
	
		<line style="fill:#FFFFFF;stroke:#777768;stroke-width:0.4854;stroke-linecap:round;stroke-linejoin:round;" x1="166.083" y1="31.329" x2="166.083" y2="36.82"/>
	
		<line style="fill:#FFFFFF;stroke:#777768;stroke-width:0.4854;stroke-linecap:round;stroke-linejoin:round;" x1="166.083" y1="42.402" x2="166.083" y2="61.089"/>
	<polyline style="fill:#FFFFFF;stroke:#777768;stroke-width:0.4854;stroke-linecap:round;stroke-linejoin:round;" points="
		198.762,30.349 185.053,38.264 171.345,30.349 	"/>
	<polygon style="fill:#FFFFFF;stroke:#777768;stroke-width:0.4854;stroke-linecap:round;stroke-linejoin:round;" points="
		174.428,50.776 185.053,44.641 195.68,50.776 195.68,63.046 185.053,69.182 174.428,63.046 	"/>
	<g>
		<g>
			<path style="fill:#BDBCBC;" d="M235.395,34.363c0,0.636-0.516,1.152-1.152,1.152h-90.479c-0.639,0-1.156-0.517-1.156-1.152
				v-4.548c0-0.636,0.518-1.152,1.156-1.152h90.479c0.637,0,1.152,0.517,1.152,1.152V34.363z"/>
			<g>
				<path style="fill:#BDBCBC;" d="M149.46,52.513c0,0.695-0.516,1.256-1.152,1.256h-4.545c-0.639,0-1.156-0.561-1.156-1.256V29.919
					c0-0.693,0.518-1.256,1.156-1.256h4.545c0.637,0,1.152,0.562,1.152,1.256V52.513z"/>
				<path style="fill:#BDBCBC;" d="M155.671,52.615c0,0.637-0.584,1.153-1.307,1.153h-10.449c-0.723,0-1.309-0.517-1.309-1.153
					v-4.493c0-0.638,0.586-1.154,1.309-1.154h10.449c0.723,0,1.307,0.517,1.307,1.154V52.615z"/>
			</g>
		</g>
		<g>
			<path style="fill:#BDBCBC;" d="M228.543,52.513c0,0.695,0.516,1.256,1.152,1.256h4.545c0.639,0,1.154-0.561,1.154-1.256V29.919
				c0-0.693-0.516-1.256-1.154-1.256h-4.545c-0.637,0-1.152,0.562-1.152,1.256V52.513z"/>
			<path style="fill:#BDBCBC;" d="M222.332,52.615c0,0.637,0.584,1.153,1.305,1.153h10.451c0.723,0,1.307-0.517,1.307-1.153v-4.493
				c0-0.638-0.584-1.154-1.307-1.154h-10.451c-0.721,0-1.305,0.517-1.305,1.154V52.615z"/>
		</g>
	</g>
</g>
</svg>
