<?xml version="1.0" encoding="iso-8859-1"?>
<!-- Generator: Adobe Illustrator 13.0.0, SVG Export Plug-In . SVG Version: 6.00 Build 14948)  -->
<!DOCTYPE svg PUBLIC "-//W3C//DTD SVG 1.1//EN" "http://www.w3.org/Graphics/SVG/1.1/DTD/svg11.dtd">
<svg version="1.1" xmlns="http://www.w3.org/2000/svg" xmlns:xlink="http://www.w3.org/1999/xlink" x="0px" y="0px" width="540px"
	 height="200px" viewBox="0 0 540 200" style="enable-background:new 0 0 540 200;" xml:space="preserve">
<g id="Layer_2">
	<g>
		<rect style="fill:#FFFFFF;" width="540" height="200"/>
	</g>
	<path style="fill:none;stroke:#78B432;stroke-width:1.0535;stroke-linecap:round;stroke-linejoin:round;" d="M23.659,106.693
		c77.247-8.497,383.75-16.447,496-16.447"/>
</g>
<g id="Layer_1">
	<path style="fill:#FFFFFF;stroke:#92938B;stroke-width:2.57;stroke-linecap:round;stroke-linejoin:round;" d="M235.455,34.787
		c0,8.708-5.385,15.761-12.034,15.761c-6.644,0-12.036-7.054-12.036-15.761c0-8.701,5.393-15.756,12.036-15.756
		C230.07,19.031,235.455,26.086,235.455,34.787z"/>
	<path style="fill:none;stroke:#92938B;stroke-width:2.57;stroke-linecap:round;stroke-linejoin:round;" d="M223.782,71.938
		c0.179,11.112,0.157,23.016-0.94,28.472c-1.712,8.596-5.155,5.159-3.434,17.192c2.152,15.079,8.023,27.509,6.302,34.958
		c-9.382,40.672-9.74,41.836-0.577,40.691"/>
	<path style="fill:none;stroke:#92938B;stroke-width:2.57;stroke-linecap:round;stroke-linejoin:round;" d="M223.421,51.125
		c-0.015,2.771,0.081,7.037,0.188,11.966"/>
	<path style="fill:#FFFFFF;stroke:#92938B;stroke-width:1.713;stroke-linecap:round;stroke-linejoin:round;" d="M230.604,67.472
		c0,2.688-2.174,4.87-4.867,4.87c-2.691,0-4.879-2.183-4.879-4.87c0-2.691,2.188-4.873,4.879-4.873
		C228.43,62.599,230.604,64.781,230.604,67.472z"/>
	<g>
		<path style="fill:#FFFFFF;stroke:#92938B;stroke-width:1.6;stroke-linecap:round;stroke-linejoin:round;" d="M404.339,106.35
			c0,1.184,0.958,2.148,2.146,2.148c1.177,0,2.145-0.965,2.145-2.148s-0.968-2.145-2.145-2.145
			C405.297,104.205,404.339,105.166,404.339,106.35z"/>
		<path style="fill:#FFFFFF;stroke:#92938B;stroke-width:1.6;stroke-linecap:round;stroke-linejoin:round;" d="M396.485,41.395
			c0,6.646,4.12,12.032,9.186,12.032c5.07,0,9.192-5.386,9.192-12.032c0-6.644-4.122-12.031-9.192-12.031
			C400.605,29.364,396.485,34.75,396.485,41.395z"/>
		<path style="fill:none;stroke:#92938B;stroke-width:1.6;stroke-linecap:round;stroke-linejoin:round;" d="M405.442,53.905
			c0.044,8.398-1.127,33.232,0.479,41.292c1.441,7.2,2.081,5.018,0.644,15.1c-1.803,12.627,2.252,24.949,2.684,31.337
			c2.238,33.134,2.44,32.306-5.244,31.34"/>
	</g>
	<path style="fill:none;stroke:#92938B;stroke-width:1.713;stroke-linecap:round;stroke-linejoin:round;" d="M223.551,60.413
		c8.431,0.291,13.492-11.896,15.639-18.312c3.588-10.678,1.36-21.059-2.074-31.585c0.917,4.302,2.07,10.224,3.623,14.146
		c1.695-4.147,0.697-9.099,2.759-13.066c1.086,4.689,0.707,9.598,0.685,14.381c0.08-2.366,0.988-4.662,2.41-6.539
		c-1.148,1.317-1.635,2.773-2.406,4.3"/>
</g>
</svg>
