<?xml version="1.0" encoding="iso-8859-1"?>
<!-- Generator: Adobe Illustrator 13.0.0, SVG Export Plug-In . SVG Version: 6.00 Build 14948)  -->
<!DOCTYPE svg PUBLIC "-//W3C//DTD SVG 1.1//EN" "http://www.w3.org/Graphics/SVG/1.1/DTD/svg11.dtd">
<svg version="1.1" id="Layer_4" xmlns="http://www.w3.org/2000/svg" xmlns:xlink="http://www.w3.org/1999/xlink" x="0px" y="0px"
	 width="132.5px" height="132.498px" viewBox="0 0 132.5 132.498" style="enable-background:new 0 0 132.5 132.498;"
	 xml:space="preserve">
<g>
	<g>
		
			<radialGradient id="SVGID_1_" cx="72.0508" cy="74.1548" r="39.3659" gradientTransform="matrix(1.6829 0 0 1.6829 -55.1407 -58.6883)" gradientUnits="userSpaceOnUse">
			<stop  offset="0.6966" style="stop-color:#A3A4A6"/>
			<stop  offset="0.7472" style="stop-color:#DCDCDD"/>
			<stop  offset="0.8034" style="stop-color:#FFFFFF"/>
			<stop  offset="0.9422" style="stop-color:#FFFFFF"/>
			<stop  offset="0.9494" style="stop-color:#FFFFFF"/>
			<stop  offset="0.9699" style="stop-color:#FDFDFD"/>
			<stop  offset="0.9813" style="stop-color:#F5F5F6"/>
			<stop  offset="0.9904" style="stop-color:#E7E8E9"/>
			<stop  offset="0.9983" style="stop-color:#D3D6D8"/>
			<stop  offset="1" style="stop-color:#CED1D3"/>
		</radialGradient>
		<path style="fill:url(#SVGID_1_);" d="M0,66.25c0,36.527,29.72,66.248,66.25,66.248c36.531,0,66.25-29.721,66.25-66.248
			C132.5,29.72,102.781,0,66.25,0C29.72,0,0,29.72,0,66.25z M20.845,66.25c0-25.037,20.368-45.406,45.405-45.406
			c25.036,0,45.404,20.369,45.404,45.406c0,25.035-20.368,45.404-45.404,45.404C41.213,111.654,20.845,91.285,20.845,66.25z"/>
	</g>
	
		<linearGradient id="SVGID_2_" gradientUnits="userSpaceOnUse" x1="77.2119" y1="46.7524" x2="67.6016" y2="101.2554" gradientTransform="matrix(1.6829 0 0 1.6829 -55.1407 -58.6883)">
		<stop  offset="0" style="stop-color:#75B7E1"/>
		<stop  offset="0.309" style="stop-color:#0065A5"/>
		<stop  offset="1" style="stop-color:#00405D"/>
	</linearGradient>
	<circle style="fill:url(#SVGID_2_);" cx="66.692" cy="65.966" r="46.56"/>
	
		<linearGradient id="SVGID_3_" gradientUnits="userSpaceOnUse" x1="-624.3579" y1="-16.6475" x2="-657.7615" y2="13.9382" gradientTransform="matrix(-1.6685 0.2203 -0.2203 -1.6685 -1012.2151 206.5504)">
		<stop  offset="0" style="stop-color:#023C59"/>
		<stop  offset="0.1582" style="stop-color:#878597"/>
		<stop  offset="0.3427" style="stop-color:#FFFFFF"/>
		<stop  offset="0.4714" style="stop-color:#C5E1F2"/>
		<stop  offset="0.5897" style="stop-color:#8CC8E8"/>
		<stop  offset="0.6909" style="stop-color:#54B5E0"/>
		<stop  offset="0.7711" style="stop-color:#14AADB"/>
		<stop  offset="0.8202" style="stop-color:#00A6DA"/>
		<stop  offset="0.9607" style="stop-color:#1FA1D7"/>
	</linearGradient>
	<path style="fill:url(#SVGID_3_);" d="M72.011,110.345c0.504-0.065,1.005-0.145,1.502-0.226
		c-23.96,2.356-45.644-14.71-48.817-38.759C21.521,47.312,38.031,25.204,61.78,21.264c-0.503,0.048-1.007,0.102-1.509,0.168
		c-24.554,3.242-41.83,25.774-38.588,50.329C24.926,96.31,47.458,113.587,72.011,110.345z"/>
	
		<linearGradient id="SVGID_4_" gradientUnits="userSpaceOnUse" x1="72.4834" y1="49.0264" x2="72.4834" y2="69.939" gradientTransform="matrix(1.6829 0 0 1.6829 -55.1407 -58.6883)">
		<stop  offset="0" style="stop-color:#FFFFFF"/>
		<stop  offset="0.1881" style="stop-color:#DAE9F3"/>
		<stop  offset="0.7494" style="stop-color:#72AAD1"/>
		<stop  offset="1" style="stop-color:#4891C4"/>
	</linearGradient>
	<path style="fill:url(#SVGID_4_);" d="M95.162,41.553c0,9.719-12.679,17.597-28.318,17.597c-15.644,0-28.322-7.878-28.322-17.597
		c0-9.716,12.678-17.596,28.322-17.596C82.483,23.958,95.162,31.837,95.162,41.553z"/>
	<g>
		<linearGradient id="SVGID_5_" gradientUnits="userSpaceOnUse" x1="63.728" y1="43.4893" x2="63.728" y2="92.7109">
			<stop  offset="0" style="stop-color:#FFFFFF"/>
			<stop  offset="0.5831" style="stop-color:#BFD6EC"/>
			<stop  offset="1" style="stop-color:#95BBE0"/>
		</linearGradient>
		<path style="fill:url(#SVGID_5_);" d="M51.136,48.175c-5.322,3.857-8.823,9.557-9.859,16.047
			c-1.037,6.489,0.517,12.994,4.374,18.315c3.855,5.321,9.553,8.824,16.043,9.859c6.49,1.037,12.996-0.514,18.317-4.373
			c2.34-1.694,2.861-4.964,1.167-7.303c-1.694-2.34-4.965-2.862-7.305-1.166c-3.059,2.217-6.799,3.108-10.529,2.513
			c-3.731-0.595-7.006-2.608-9.222-5.669c-2.218-3.059-3.11-6.798-2.516-10.529c0.597-3.729,2.609-7.006,5.668-9.223
			c3.059-2.218,6.799-3.11,10.53-2.515c3.73,0.595,7.007,2.608,9.223,5.667c1.694,2.34,4.964,2.861,7.305,1.167
			c2.339-1.694,2.86-4.965,1.165-7.304c-3.856-5.323-9.555-8.823-16.044-9.86C62.962,42.767,56.457,44.319,51.136,48.175z"/>
	</g>
	<g>
		<linearGradient id="SVGID_6_" gradientUnits="userSpaceOnUse" x1="79.9521" y1="46.106" x2="79.9521" y2="67.5923">
			<stop  offset="0" style="stop-color:#FFFFFF"/>
			<stop  offset="0.5831" style="stop-color:#BFD6EC"/>
			<stop  offset="1" style="stop-color:#95BBE0"/>
		</linearGradient>
		<polygon style="fill:url(#SVGID_6_);" points="92.411,46.106 67.492,64.161 88.978,67.592 		"/>
		<linearGradient id="SVGID_7_" gradientUnits="userSpaceOnUse" x1="79.9521" y1="44.0142" x2="79.9521" y2="69.6846">
			<stop  offset="0" style="stop-color:#FFFFFF"/>
			<stop  offset="0.5831" style="stop-color:#BFD6EC"/>
			<stop  offset="1" style="stop-color:#95BBE0"/>
		</linearGradient>
		<path style="fill:url(#SVGID_7_);" d="M91.185,44.412L66.266,62.467c-0.686,0.496-1.005,1.356-0.808,2.179
			c0.197,0.824,0.868,1.448,1.705,1.581l21.485,3.431c1.143,0.182,2.215-0.595,2.396-1.736l3.434-21.486
			c0.135-0.834-0.248-1.668-0.971-2.111C92.786,43.881,91.868,43.915,91.185,44.412z M89.548,50.763
			c-0.82,5.146-1.904,11.925-2.306,14.433c-2.508-0.4-9.287-1.483-14.433-2.304C77.403,59.564,84.956,54.091,89.548,50.763z"/>
	</g>
	<g>
		
			<linearGradient id="SVGID_8_" gradientUnits="userSpaceOnUse" x1="70.1396" y1="155.2075" x2="70.1396" y2="223.9588" gradientTransform="matrix(1 0 0 1 0 -131.25)">
			<stop  offset="0" style="stop-color:#FFFFFF"/>
			<stop  offset="1" style="stop-color:#E8F1F9"/>
		</linearGradient>
		<path style="fill:url(#SVGID_8_);" d="M94.424,45.538c-0.14-0.495-0.46-0.934-0.917-1.214c-0.721-0.442-1.639-0.409-2.322,0.088
			l-8.412,6.095c-3.611-3.547-8.219-5.89-13.319-6.704c-6.491-1.035-12.996,0.517-18.317,4.373c-2.041,1.479-3.811,3.231-5.28,5.193
			c2.768,1.896,6.193,3.416,10.052,4.42c0.432-0.402,0.881-0.79,1.367-1.142c3.059-2.218,6.799-3.11,10.53-2.515
			c2.319,0.369,4.461,1.289,6.285,2.667l-2.969,2.15C82.613,57.868,91.833,52.492,94.424,45.538z"/>
	</g>
</g>
</svg>
