<?xml version="1.0" encoding="utf-8"?>
<!-- Generator: Adobe Illustrator 16.0.3, SVG Export Plug-In . SVG Version: 6.00 Build 0)  -->
<!DOCTYPE svg PUBLIC "-//W3C//DTD SVG 1.1//EN" "http://www.w3.org/Graphics/SVG/1.1/DTD/svg11.dtd">
<svg version="1.1" id="Layer_4" xmlns="http://www.w3.org/2000/svg" xmlns:xlink="http://www.w3.org/1999/xlink" x="0px" y="0px"
	 width="378px" height="140px" viewBox="0 0 378 140" enable-background="new 0 0 378 140" xml:space="preserve">
<g id="XMLID_2_">
	<g>
		<path fill="#6A90AF" d="M277.96,86.6c33.09-11.659,29.38,37.511,0,29.4C267.68,113.16,262.58,92.02,277.96,86.6z"/>
		<path fill="#6A90AF" d="M270.38,25c37.55-5.57,41.96,44.27,10.61,49C247.92,78.99,233.35,30.49,270.38,25z"/>
		<path fill="#6A90AF" d="M221.06,98.2c20.891-13.99,6.891,28.27-3.029,8.399C216.71,103.96,217.6,100.52,221.06,98.2z"/>
		<path fill="#6A90AF" d="M201.39,8.11c4.87-2.28,11.23-0.66,10.61,7C210.69,31.21,186.15,15.24,201.39,8.11z"/>
		<path fill="#825EA3" d="M179.42,114.6c11.43-7.42,13.25,9.881,7.58,12.601C179.52,130.79,171.73,119.59,179.42,114.6z"/>
		<path fill="#6A90AF" d="M130.91,19.11c73.21-4.82-11.19,61.7-19.91,24.51C109.7,38.05,108,20.62,130.91,19.11z"/>
		<path fill="#6A90AF" d="M121.81,102c26.09-9.16,27.67,26.77,7.58,28C111.34,131.11,105.23,107.82,121.81,102z"/>
		<path fill="#6A90AF" d="M94.94,74.6c2.86,18.65-28.23,1.5-9.09-4.2C89.46,69.32,94.16,69.5,94.94,74.6z"/>
	</g>
	<g>
		<path fill="none" stroke="#82569D" stroke-width="8.0148" stroke-linecap="round" d="M184.73,44.25
			c25.8-7.77,48.96,23.66,23.6,38.47c-9.68,5.65-22.03-2.42-21.27,15.46"/>
	</g>
</g>
</svg>
